G75*
%MOIN*%
%OFA0B0*%
%FSLAX24Y24*%
%IPPOS*%
%LPD*%
%AMOC8*
5,1,8,0,0,1.08239X$1,22.5*
%
%ADD10C,0.1261*%
%ADD11R,0.0680X0.0330*%
%ADD12C,0.0107*%
%ADD13R,0.1080X0.1280*%
%ADD14R,0.1080X0.1330*%
%ADD15C,0.0120*%
%ADD16R,0.1064X0.1340*%
%ADD17R,0.1160X0.0930*%
%ADD18R,0.0300X0.0580*%
%ADD19R,0.0580X0.0300*%
%ADD20OC8,0.0820*%
%ADD21R,0.1261X0.1261*%
%ADD22R,0.1025X0.1025*%
%ADD23C,0.0820*%
%ADD24R,0.0580X0.0580*%
%ADD25R,0.0480X0.0530*%
%ADD26C,0.0095*%
%ADD27R,0.0780X0.0880*%
%ADD28C,0.0595*%
%ADD29R,0.0474X0.0631*%
%ADD30R,0.0789X0.0631*%
%ADD31R,0.1280X0.1080*%
%ADD32R,0.1330X0.1080*%
%ADD33R,0.0474X0.0513*%
D10*
X008040Y012740D03*
X009640Y012740D03*
X008040Y014740D03*
X008023Y016377D03*
X008040Y017840D03*
X009640Y019340D03*
X011951Y021794D03*
X007340Y022240D03*
X002440Y018140D03*
X002340Y021240D03*
X002340Y013940D03*
X013440Y012440D03*
X013755Y010477D03*
X018644Y001715D03*
X018644Y021794D03*
D11*
X019076Y010790D03*
X019076Y010290D03*
X019076Y009790D03*
X019076Y009290D03*
X021176Y009290D03*
X021176Y009790D03*
X021176Y010290D03*
X021176Y010790D03*
D12*
X020559Y011671D02*
X020237Y011671D01*
X020559Y011671D02*
X020559Y011349D01*
X020237Y011349D01*
X020237Y011671D01*
X020237Y011456D02*
X020559Y011456D01*
X020559Y011563D02*
X020237Y011563D01*
X020237Y011670D02*
X020559Y011670D01*
X019959Y011671D02*
X019637Y011671D01*
X019959Y011671D02*
X019959Y011349D01*
X019637Y011349D01*
X019637Y011671D01*
X019637Y011456D02*
X019959Y011456D01*
X019959Y011563D02*
X019637Y011563D01*
X019637Y011670D02*
X019959Y011670D01*
X018449Y010391D02*
X018449Y010069D01*
X018127Y010069D01*
X018127Y010391D01*
X018449Y010391D01*
X018449Y010176D02*
X018127Y010176D01*
X018127Y010283D02*
X018449Y010283D01*
X018449Y010390D02*
X018127Y010390D01*
X018449Y009791D02*
X018449Y009469D01*
X018127Y009469D01*
X018127Y009791D01*
X018449Y009791D01*
X018449Y009576D02*
X018127Y009576D01*
X018127Y009683D02*
X018449Y009683D01*
X018449Y009790D02*
X018127Y009790D01*
X021758Y009667D02*
X022080Y009667D01*
X021758Y009667D02*
X021758Y009989D01*
X022080Y009989D01*
X022080Y009667D01*
X022080Y009774D02*
X021758Y009774D01*
X021758Y009881D02*
X022080Y009881D01*
X022080Y009988D02*
X021758Y009988D01*
X022358Y009667D02*
X022680Y009667D01*
X022358Y009667D02*
X022358Y009989D01*
X022680Y009989D01*
X022680Y009667D01*
X022680Y009774D02*
X022358Y009774D01*
X022358Y009881D02*
X022680Y009881D01*
X022680Y009988D02*
X022358Y009988D01*
X022350Y009055D02*
X022672Y009055D01*
X022350Y009055D02*
X022350Y009377D01*
X022672Y009377D01*
X022672Y009055D01*
X022672Y009162D02*
X022350Y009162D01*
X022350Y009269D02*
X022672Y009269D01*
X022672Y009376D02*
X022350Y009376D01*
X022072Y009055D02*
X021750Y009055D01*
X021750Y009377D01*
X022072Y009377D01*
X022072Y009055D01*
X022072Y009162D02*
X021750Y009162D01*
X021750Y009269D02*
X022072Y009269D01*
X022072Y009376D02*
X021750Y009376D01*
X022016Y004140D02*
X022016Y003818D01*
X021694Y003818D01*
X021694Y004140D01*
X022016Y004140D01*
X022016Y003925D02*
X021694Y003925D01*
X021694Y004032D02*
X022016Y004032D01*
X022016Y004139D02*
X021694Y004139D01*
X021405Y004140D02*
X021405Y003818D01*
X021083Y003818D01*
X021083Y004140D01*
X021405Y004140D01*
X021405Y003925D02*
X021083Y003925D01*
X021083Y004032D02*
X021405Y004032D01*
X021405Y004139D02*
X021083Y004139D01*
X021405Y003540D02*
X021405Y003218D01*
X021083Y003218D01*
X021083Y003540D01*
X021405Y003540D01*
X021405Y003325D02*
X021083Y003325D01*
X021083Y003432D02*
X021405Y003432D01*
X021405Y003539D02*
X021083Y003539D01*
X022016Y003540D02*
X022016Y003218D01*
X021694Y003218D01*
X021694Y003540D01*
X022016Y003540D01*
X022016Y003325D02*
X021694Y003325D01*
X021694Y003432D02*
X022016Y003432D01*
X022016Y003539D02*
X021694Y003539D01*
X010955Y004328D02*
X010633Y004328D01*
X010633Y004650D01*
X010955Y004650D01*
X010955Y004328D01*
X010955Y004435D02*
X010633Y004435D01*
X010633Y004542D02*
X010955Y004542D01*
X010955Y004649D02*
X010633Y004649D01*
X010355Y004328D02*
X010033Y004328D01*
X010033Y004650D01*
X010355Y004650D01*
X010355Y004328D01*
X010355Y004435D02*
X010033Y004435D01*
X010033Y004542D02*
X010355Y004542D01*
X010355Y004649D02*
X010033Y004649D01*
X010029Y004929D02*
X010351Y004929D01*
X010029Y004929D02*
X010029Y005251D01*
X010351Y005251D01*
X010351Y004929D01*
X010351Y005036D02*
X010029Y005036D01*
X010029Y005143D02*
X010351Y005143D01*
X010351Y005250D02*
X010029Y005250D01*
X010020Y005857D02*
X010342Y005857D01*
X010342Y005535D01*
X010020Y005535D01*
X010020Y005857D01*
X010020Y005642D02*
X010342Y005642D01*
X010342Y005749D02*
X010020Y005749D01*
X010020Y005856D02*
X010342Y005856D01*
X010620Y005857D02*
X010942Y005857D01*
X010942Y005535D01*
X010620Y005535D01*
X010620Y005857D01*
X010620Y005642D02*
X010942Y005642D01*
X010942Y005749D02*
X010620Y005749D01*
X010620Y005856D02*
X010942Y005856D01*
X010951Y004929D02*
X010629Y004929D01*
X010629Y005251D01*
X010951Y005251D01*
X010951Y004929D01*
X010951Y005036D02*
X010629Y005036D01*
X010629Y005143D02*
X010951Y005143D01*
X010951Y005250D02*
X010629Y005250D01*
X007179Y007779D02*
X007179Y008101D01*
X007501Y008101D01*
X007501Y007779D01*
X007179Y007779D01*
X007179Y007886D02*
X007501Y007886D01*
X007501Y007993D02*
X007179Y007993D01*
X007179Y008100D02*
X007501Y008100D01*
X007179Y008379D02*
X007179Y008701D01*
X007501Y008701D01*
X007501Y008379D01*
X007179Y008379D01*
X007179Y008486D02*
X007501Y008486D01*
X007501Y008593D02*
X007179Y008593D01*
X007179Y008700D02*
X007501Y008700D01*
X006529Y008701D02*
X006529Y008379D01*
X006529Y008701D02*
X006851Y008701D01*
X006851Y008379D01*
X006529Y008379D01*
X006529Y008486D02*
X006851Y008486D01*
X006851Y008593D02*
X006529Y008593D01*
X006529Y008700D02*
X006851Y008700D01*
X006529Y008101D02*
X006529Y007779D01*
X006529Y008101D02*
X006851Y008101D01*
X006851Y007779D01*
X006529Y007779D01*
X006529Y007886D02*
X006851Y007886D01*
X006851Y007993D02*
X006529Y007993D01*
X006529Y008100D02*
X006851Y008100D01*
X005901Y007729D02*
X005579Y007729D01*
X005579Y008051D01*
X005901Y008051D01*
X005901Y007729D01*
X005901Y007836D02*
X005579Y007836D01*
X005579Y007943D02*
X005901Y007943D01*
X005901Y008050D02*
X005579Y008050D01*
X005301Y007729D02*
X004979Y007729D01*
X004979Y008051D01*
X005301Y008051D01*
X005301Y007729D01*
X005301Y007836D02*
X004979Y007836D01*
X004979Y007943D02*
X005301Y007943D01*
X005301Y008050D02*
X004979Y008050D01*
X004701Y008051D02*
X004379Y008051D01*
X004701Y008051D02*
X004701Y007729D01*
X004379Y007729D01*
X004379Y008051D01*
X004379Y007836D02*
X004701Y007836D01*
X004701Y007943D02*
X004379Y007943D01*
X004379Y008050D02*
X004701Y008050D01*
X004101Y008051D02*
X003779Y008051D01*
X004101Y008051D02*
X004101Y007729D01*
X003779Y007729D01*
X003779Y008051D01*
X003779Y007836D02*
X004101Y007836D01*
X004101Y007943D02*
X003779Y007943D01*
X003779Y008050D02*
X004101Y008050D01*
X002897Y008071D02*
X002575Y008071D01*
X002575Y008393D01*
X002897Y008393D01*
X002897Y008071D01*
X002897Y008178D02*
X002575Y008178D01*
X002575Y008285D02*
X002897Y008285D01*
X002897Y008392D02*
X002575Y008392D01*
X002297Y008071D02*
X001975Y008071D01*
X001975Y008393D01*
X002297Y008393D01*
X002297Y008071D01*
X002297Y008178D02*
X001975Y008178D01*
X001975Y008285D02*
X002297Y008285D01*
X002297Y008392D02*
X001975Y008392D01*
X001651Y008401D02*
X001329Y008401D01*
X001651Y008401D02*
X001651Y008079D01*
X001329Y008079D01*
X001329Y008401D01*
X001329Y008186D02*
X001651Y008186D01*
X001651Y008293D02*
X001329Y008293D01*
X001329Y008400D02*
X001651Y008400D01*
X001051Y008401D02*
X000729Y008401D01*
X001051Y008401D02*
X001051Y008079D01*
X000729Y008079D01*
X000729Y008401D01*
X000729Y008186D02*
X001051Y008186D01*
X001051Y008293D02*
X000729Y008293D01*
X000729Y008400D02*
X001051Y008400D01*
X004997Y010192D02*
X005319Y010192D01*
X005319Y009870D01*
X004997Y009870D01*
X004997Y010192D01*
X004997Y009977D02*
X005319Y009977D01*
X005319Y010084D02*
X004997Y010084D01*
X004997Y010191D02*
X005319Y010191D01*
X005597Y010192D02*
X005919Y010192D01*
X005919Y009870D01*
X005597Y009870D01*
X005597Y010192D01*
X005597Y009977D02*
X005919Y009977D01*
X005919Y010084D02*
X005597Y010084D01*
X005597Y010191D02*
X005919Y010191D01*
X005919Y010980D02*
X005597Y010980D01*
X005919Y010980D02*
X005919Y010658D01*
X005597Y010658D01*
X005597Y010980D01*
X005597Y010765D02*
X005919Y010765D01*
X005919Y010872D02*
X005597Y010872D01*
X005597Y010979D02*
X005919Y010979D01*
X005919Y011767D02*
X005597Y011767D01*
X005919Y011767D02*
X005919Y011445D01*
X005597Y011445D01*
X005597Y011767D01*
X005597Y011552D02*
X005919Y011552D01*
X005919Y011659D02*
X005597Y011659D01*
X005597Y011766D02*
X005919Y011766D01*
X005319Y011767D02*
X004997Y011767D01*
X005319Y011767D02*
X005319Y011445D01*
X004997Y011445D01*
X004997Y011767D01*
X004997Y011552D02*
X005319Y011552D01*
X005319Y011659D02*
X004997Y011659D01*
X004997Y011766D02*
X005319Y011766D01*
X005319Y010980D02*
X004997Y010980D01*
X005319Y010980D02*
X005319Y010658D01*
X004997Y010658D01*
X004997Y010980D01*
X004997Y010765D02*
X005319Y010765D01*
X005319Y010872D02*
X004997Y010872D01*
X004997Y010979D02*
X005319Y010979D01*
X005501Y014479D02*
X005501Y014801D01*
X005501Y014479D02*
X005179Y014479D01*
X005179Y014801D01*
X005501Y014801D01*
X005501Y014586D02*
X005179Y014586D01*
X005179Y014693D02*
X005501Y014693D01*
X005501Y014800D02*
X005179Y014800D01*
X005501Y015079D02*
X005501Y015401D01*
X005501Y015079D02*
X005179Y015079D01*
X005179Y015401D01*
X005501Y015401D01*
X005501Y015186D02*
X005179Y015186D01*
X005179Y015293D02*
X005501Y015293D01*
X005501Y015400D02*
X005179Y015400D01*
X004529Y004551D02*
X004529Y004229D01*
X004529Y004551D02*
X004851Y004551D01*
X004851Y004229D01*
X004529Y004229D01*
X004529Y004336D02*
X004851Y004336D01*
X004851Y004443D02*
X004529Y004443D01*
X004529Y004550D02*
X004851Y004550D01*
X004529Y003951D02*
X004529Y003629D01*
X004529Y003951D02*
X004851Y003951D01*
X004851Y003629D01*
X004529Y003629D01*
X004529Y003736D02*
X004851Y003736D01*
X004851Y003843D02*
X004529Y003843D01*
X004529Y003950D02*
X004851Y003950D01*
D13*
X009690Y015040D03*
X003390Y016640D03*
X022409Y005288D03*
D14*
X019909Y005288D03*
X012190Y015040D03*
X005890Y016640D03*
D15*
X017814Y011227D02*
X018174Y011227D01*
X017814Y011227D02*
X017814Y011737D01*
X018174Y011737D01*
X018174Y011227D01*
X018174Y011346D02*
X017814Y011346D01*
X017814Y011465D02*
X018174Y011465D01*
X018174Y011584D02*
X017814Y011584D01*
X017814Y011703D02*
X018174Y011703D01*
X018514Y011227D02*
X018874Y011227D01*
X018514Y011227D02*
X018514Y011737D01*
X018874Y011737D01*
X018874Y011227D01*
X018874Y011346D02*
X018514Y011346D01*
X018514Y011465D02*
X018874Y011465D01*
X018874Y011584D02*
X018514Y011584D01*
X018514Y011703D02*
X018874Y011703D01*
X022849Y004159D02*
X022849Y003799D01*
X022339Y003799D01*
X022339Y004159D01*
X022849Y004159D01*
X022849Y003918D02*
X022339Y003918D01*
X022339Y004037D02*
X022849Y004037D01*
X022849Y004156D02*
X022339Y004156D01*
X022849Y003459D02*
X022849Y003099D01*
X022339Y003099D01*
X022339Y003459D01*
X022849Y003459D01*
X022849Y003218D02*
X022339Y003218D01*
X022339Y003337D02*
X022849Y003337D01*
X022849Y003456D02*
X022339Y003456D01*
D16*
X022414Y007537D03*
X020170Y007537D03*
D17*
X018477Y008097D03*
X018477Y006357D03*
D18*
X008234Y007290D03*
X007919Y007290D03*
X007604Y007290D03*
X007289Y007290D03*
X006974Y007290D03*
X006659Y007290D03*
X006344Y007290D03*
X006029Y007290D03*
X006029Y003910D03*
X006344Y003910D03*
X006659Y003910D03*
X006974Y003910D03*
X007289Y003910D03*
X007604Y003910D03*
X007919Y003910D03*
X008234Y003910D03*
D19*
X008821Y004497D03*
X008821Y004812D03*
X008821Y005127D03*
X008821Y005442D03*
X008821Y005757D03*
X008821Y006072D03*
X008821Y006387D03*
X008821Y006702D03*
X005441Y006702D03*
X005441Y006387D03*
X005441Y006072D03*
X005441Y005757D03*
X005441Y005442D03*
X005441Y005127D03*
X005441Y004812D03*
X005441Y004497D03*
D20*
X002875Y005042D03*
X002975Y006042D03*
X001975Y006042D03*
X001875Y005042D03*
X001875Y007042D03*
X002875Y007042D03*
D21*
X007199Y019797D03*
X007593Y019797D03*
X015886Y019797D03*
X016280Y019797D03*
D22*
X017283Y012742D03*
X019015Y012742D03*
D23*
X002365Y001664D03*
X003365Y001564D03*
X004365Y001664D03*
X005365Y001564D03*
X006365Y001664D03*
X007365Y001564D03*
D24*
X003990Y003690D03*
X003990Y004690D03*
D25*
X011690Y005940D03*
X012390Y005940D03*
X012990Y005940D03*
X013690Y005940D03*
X013340Y006740D03*
X013090Y007840D03*
X012490Y007840D03*
X011790Y007840D03*
X012140Y008640D03*
X013440Y008640D03*
X013790Y007840D03*
X012040Y006740D03*
X012140Y004940D03*
X011790Y004140D03*
X012490Y004140D03*
X013090Y004140D03*
X013790Y004140D03*
X013440Y004940D03*
D26*
X004333Y009863D02*
X004047Y009863D01*
X004047Y010199D01*
X004333Y010199D01*
X004333Y009863D01*
X004333Y009957D02*
X004047Y009957D01*
X004047Y010051D02*
X004333Y010051D01*
X004333Y010145D02*
X004047Y010145D01*
X003733Y009863D02*
X003447Y009863D01*
X003447Y010199D01*
X003733Y010199D01*
X003733Y009863D01*
X003733Y009957D02*
X003447Y009957D01*
X003447Y010051D02*
X003733Y010051D01*
X003733Y010145D02*
X003447Y010145D01*
X003447Y010651D02*
X003733Y010651D01*
X003447Y010651D02*
X003447Y010987D01*
X003733Y010987D01*
X003733Y010651D01*
X003733Y010745D02*
X003447Y010745D01*
X003447Y010839D02*
X003733Y010839D01*
X003733Y010933D02*
X003447Y010933D01*
X003447Y011438D02*
X003733Y011438D01*
X003447Y011438D02*
X003447Y011774D01*
X003733Y011774D01*
X003733Y011438D01*
X003733Y011532D02*
X003447Y011532D01*
X003447Y011626D02*
X003733Y011626D01*
X003733Y011720D02*
X003447Y011720D01*
X004047Y011438D02*
X004333Y011438D01*
X004047Y011438D02*
X004047Y011774D01*
X004333Y011774D01*
X004333Y011438D01*
X004333Y011532D02*
X004047Y011532D01*
X004047Y011626D02*
X004333Y011626D01*
X004333Y011720D02*
X004047Y011720D01*
X004047Y010651D02*
X004333Y010651D01*
X004047Y010651D02*
X004047Y010987D01*
X004333Y010987D01*
X004333Y010651D01*
X004333Y010745D02*
X004047Y010745D01*
X004047Y010839D02*
X004333Y010839D01*
X004333Y010933D02*
X004047Y010933D01*
D27*
X003990Y008890D03*
X005690Y008890D03*
D28*
X015040Y006740D03*
X016640Y006740D03*
X016640Y004940D03*
X015140Y004940D03*
X015140Y008640D03*
X016640Y008640D03*
D29*
X013614Y013707D03*
X012866Y013707D03*
X013240Y014573D03*
X013240Y015407D03*
X012866Y016273D03*
X013614Y016273D03*
X011538Y017738D03*
X010790Y017738D03*
X011164Y016872D03*
D30*
X006140Y015309D03*
X006140Y013971D03*
D31*
X004640Y021990D03*
D32*
X004640Y019490D03*
D33*
X012561Y017502D03*
X013231Y017502D03*
M02*
