G75*
%MOIN*%
%OFA0B0*%
%FSLAX24Y24*%
%IPPOS*%
%LPD*%
%AMOC8*
5,1,8,0,0,1.08239X$1,22.5*
%
%ADD10C,0.0000*%
%ADD11C,0.0080*%
%ADD12C,0.0040*%
%ADD13C,0.0030*%
%ADD14C,0.0100*%
%ADD15C,0.0050*%
%ADD16C,0.0020*%
%ADD17C,0.0060*%
%ADD18C,0.0010*%
%ADD19C,0.0070*%
%ADD20R,0.0620X0.0240*%
D10*
X023368Y020219D02*
X020219Y023368D01*
D11*
X001865Y001864D02*
X001865Y001364D01*
X002115Y001114D01*
X002615Y001114D01*
X002865Y001364D01*
X002865Y001864D01*
X003115Y002114D01*
X003615Y002114D01*
X003865Y001864D01*
X003865Y001364D01*
X003615Y001114D01*
X003115Y001114D01*
X002865Y001364D01*
X002865Y001864D02*
X002615Y002114D01*
X002115Y002114D01*
X001865Y001864D01*
X003865Y001864D02*
X004115Y002114D01*
X004615Y002114D01*
X004865Y001864D01*
X004865Y001364D01*
X004615Y001114D01*
X004115Y001114D01*
X003865Y001364D01*
X004865Y001364D02*
X005115Y001114D01*
X005615Y001114D01*
X005865Y001364D01*
X005865Y001864D01*
X006115Y002114D01*
X006615Y002114D01*
X006865Y001864D01*
X006865Y001364D01*
X006615Y001114D01*
X006115Y001114D01*
X005865Y001364D01*
X005865Y001864D02*
X005615Y002114D01*
X005115Y002114D01*
X004865Y001864D01*
X006865Y001864D02*
X007115Y002114D01*
X007615Y002114D01*
X007865Y001864D01*
X007865Y001364D01*
X007615Y001114D01*
X007115Y001114D01*
X006865Y001364D01*
X003507Y004792D02*
X003507Y005292D01*
X003375Y005292D02*
X003375Y004792D01*
X003125Y004542D01*
X001625Y004542D01*
X001375Y004792D01*
X001375Y005292D01*
X001625Y005542D01*
X003125Y005542D01*
X003375Y005792D01*
X003375Y006292D01*
X003125Y006542D01*
X001625Y006542D01*
X001375Y006792D01*
X001375Y007292D01*
X001625Y007542D01*
X003125Y007542D01*
X003375Y007292D01*
X003375Y006792D01*
X003125Y006542D01*
X003125Y005542D02*
X003375Y005292D01*
X001625Y005542D02*
X001375Y005792D01*
X001375Y006292D01*
X001625Y006542D01*
X005904Y014393D02*
X006376Y014393D01*
X006140Y014787D01*
X005904Y014393D01*
X012483Y013965D02*
X012483Y013551D01*
X018073Y013136D02*
X018073Y012349D01*
X018475Y012742D01*
X018073Y013136D01*
X017777Y008077D02*
X019178Y008077D01*
X019178Y006376D01*
X017777Y006376D01*
X017777Y008077D01*
D12*
X018297Y008623D02*
X018452Y008623D01*
X018503Y008674D01*
X018503Y008881D01*
X018452Y008933D01*
X018297Y008933D01*
X018297Y008623D01*
X018619Y008674D02*
X018619Y008726D01*
X018671Y008778D01*
X018774Y008778D01*
X018826Y008726D01*
X018826Y008674D01*
X018774Y008623D01*
X018671Y008623D01*
X018619Y008674D01*
X018671Y008778D02*
X018619Y008829D01*
X018619Y008881D01*
X018671Y008933D01*
X018774Y008933D01*
X018826Y008881D01*
X018826Y008829D01*
X018774Y008778D01*
X017918Y009501D02*
X017918Y009605D01*
X017867Y009657D01*
X017918Y009772D02*
X017711Y009979D01*
X017660Y009979D01*
X017608Y009927D01*
X017608Y009824D01*
X017660Y009772D01*
X017660Y009657D02*
X017608Y009605D01*
X017608Y009501D01*
X017660Y009450D01*
X017867Y009450D01*
X017918Y009501D01*
X017918Y009772D02*
X017918Y009979D01*
X017763Y010094D02*
X017763Y010301D01*
X017608Y010249D02*
X017763Y010094D01*
X017918Y010249D02*
X017608Y010249D01*
X017865Y010702D02*
X017969Y010702D01*
X018020Y010754D01*
X018136Y010702D02*
X018343Y010702D01*
X018239Y010702D02*
X018239Y011012D01*
X018136Y010909D01*
X018020Y010960D02*
X017969Y011012D01*
X017865Y011012D01*
X017814Y010960D01*
X017814Y010754D01*
X017865Y010702D01*
X018458Y010702D02*
X018665Y010702D01*
X018562Y010702D02*
X018562Y011012D01*
X018458Y010909D01*
X019039Y011992D02*
X017259Y011992D01*
X016672Y012501D02*
X016672Y012656D01*
X016621Y012708D01*
X016414Y012708D01*
X016362Y012656D01*
X016362Y012501D01*
X016672Y012501D01*
X016672Y012824D02*
X016466Y013030D01*
X016414Y013030D01*
X016362Y012979D01*
X016362Y012875D01*
X016414Y012824D01*
X016672Y012824D02*
X016672Y013030D01*
X017259Y013492D02*
X019039Y013492D01*
X018788Y013612D02*
X018788Y014073D01*
X018558Y013843D01*
X018865Y013843D01*
X018405Y013843D02*
X018405Y013689D01*
X018328Y013612D01*
X018175Y013612D01*
X018098Y013689D01*
X018098Y013843D02*
X018251Y013919D01*
X018328Y013919D01*
X018405Y013843D01*
X018405Y014073D02*
X018098Y014073D01*
X018098Y013843D01*
X017944Y013766D02*
X017944Y013689D01*
X017868Y013612D01*
X017714Y013612D01*
X017637Y013689D01*
X017484Y013689D02*
X017407Y013612D01*
X017254Y013612D01*
X017177Y013689D01*
X017254Y013843D02*
X017177Y013919D01*
X017177Y013996D01*
X017254Y014073D01*
X017407Y014073D01*
X017484Y013996D01*
X017637Y013996D02*
X017637Y013919D01*
X017714Y013843D01*
X017868Y013843D01*
X017944Y013766D01*
X017944Y013996D02*
X017868Y014073D01*
X017714Y014073D01*
X017637Y013996D01*
X017407Y013843D02*
X017484Y013766D01*
X017484Y013689D01*
X017407Y013843D02*
X017254Y013843D01*
X014658Y013140D02*
X014352Y013140D01*
X014582Y013370D01*
X014582Y012910D01*
X014198Y012987D02*
X014121Y012910D01*
X013968Y012910D01*
X013891Y012987D01*
X013891Y013063D01*
X013968Y013140D01*
X014121Y013140D01*
X014198Y013063D01*
X014198Y012987D01*
X014121Y013140D02*
X014198Y013217D01*
X014198Y013294D01*
X014121Y013370D01*
X013968Y013370D01*
X013891Y013294D01*
X013891Y013217D01*
X013968Y013140D01*
X013738Y013063D02*
X013738Y012987D01*
X013661Y012910D01*
X013508Y012910D01*
X013431Y012987D01*
X013277Y012987D02*
X013201Y012910D01*
X013047Y012910D01*
X012970Y012987D01*
X012977Y012960D02*
X012670Y012960D01*
X012740Y012910D02*
X012510Y012910D01*
X012510Y013370D01*
X012740Y013370D01*
X012817Y013294D01*
X012817Y013217D01*
X012740Y013140D01*
X012510Y013140D01*
X012517Y012960D02*
X012210Y012960D01*
X012210Y013420D01*
X012670Y013267D02*
X012824Y013420D01*
X012824Y012960D01*
X012817Y012987D02*
X012740Y012910D01*
X012817Y012987D02*
X012817Y013063D01*
X012740Y013140D01*
X012970Y013217D02*
X013047Y013140D01*
X013201Y013140D01*
X013277Y013063D01*
X013277Y012987D01*
X013284Y013037D02*
X013284Y013344D01*
X013277Y013294D02*
X013201Y013370D01*
X013047Y013370D01*
X012970Y013294D01*
X012970Y013217D01*
X013131Y013190D02*
X013438Y013190D01*
X013431Y013217D02*
X013508Y013140D01*
X013661Y013140D01*
X013738Y013063D01*
X013738Y013294D02*
X013661Y013370D01*
X013508Y013370D01*
X013431Y013294D01*
X013431Y013217D01*
X013396Y014610D02*
X013243Y014763D01*
X013319Y014610D02*
X013166Y014610D01*
X013089Y014687D01*
X013089Y014994D01*
X013166Y015070D01*
X013319Y015070D01*
X013396Y014994D01*
X013396Y014687D01*
X013319Y014610D01*
X013550Y014687D02*
X013550Y014763D01*
X013626Y014840D01*
X013780Y014840D01*
X013857Y014763D01*
X013857Y014687D01*
X013780Y014610D01*
X013626Y014610D01*
X013550Y014687D01*
X013626Y014840D02*
X013550Y014917D01*
X013550Y014994D01*
X013626Y015070D01*
X013780Y015070D01*
X013857Y014994D01*
X013857Y014917D01*
X013780Y014840D01*
X013277Y015294D02*
X013277Y015370D01*
X012970Y015370D01*
X012817Y015294D02*
X012817Y014987D01*
X012740Y014910D01*
X012587Y014910D01*
X012510Y014987D01*
X012510Y015294D01*
X012587Y015370D01*
X012740Y015370D01*
X012817Y015294D01*
X012663Y015063D02*
X012817Y014910D01*
X012970Y014910D02*
X012970Y014987D01*
X013277Y015294D01*
X013396Y016610D02*
X013089Y016610D01*
X013396Y016917D01*
X013396Y016994D01*
X013319Y017070D01*
X013166Y017070D01*
X013089Y016994D01*
X012782Y017070D02*
X012782Y016610D01*
X012629Y016610D02*
X012936Y016610D01*
X012629Y016917D02*
X012782Y017070D01*
X012475Y016994D02*
X012399Y017070D01*
X012245Y017070D01*
X012168Y016994D01*
X012168Y016917D01*
X012245Y016840D01*
X012399Y016840D01*
X012475Y016763D01*
X012475Y016687D01*
X012399Y016610D01*
X012245Y016610D01*
X012168Y016687D01*
X012015Y016687D02*
X011938Y016610D01*
X011785Y016610D01*
X011708Y016687D01*
X011703Y016536D02*
X011550Y016536D01*
X011473Y016459D01*
X011473Y016382D01*
X011550Y016306D01*
X011780Y016306D01*
X011780Y016459D02*
X011703Y016536D01*
X011780Y016459D02*
X011780Y016152D01*
X011703Y016075D01*
X011550Y016075D01*
X011473Y016152D01*
X011320Y016152D02*
X011243Y016075D01*
X011090Y016075D01*
X011013Y016152D01*
X011013Y016459D01*
X011090Y016536D01*
X011243Y016536D01*
X011320Y016459D01*
X011320Y016152D01*
X011320Y016075D02*
X011166Y016229D01*
X011248Y016610D02*
X011478Y016610D01*
X011555Y016687D01*
X011555Y016763D01*
X011478Y016840D01*
X011248Y016840D01*
X011478Y016840D02*
X011555Y016917D01*
X011555Y016994D01*
X011478Y017070D01*
X011248Y017070D01*
X011248Y016610D01*
X011708Y016917D02*
X011708Y016994D01*
X011785Y017070D01*
X011938Y017070D01*
X012015Y016994D01*
X011938Y016840D02*
X012015Y016763D01*
X012015Y016687D01*
X011938Y016840D02*
X011785Y016840D01*
X011708Y016917D01*
X012666Y017772D02*
X012666Y018233D01*
X012896Y018233D01*
X012973Y018156D01*
X012973Y018002D01*
X012896Y017926D01*
X012666Y017926D01*
X012819Y017926D02*
X012973Y017772D01*
X013126Y017772D02*
X013126Y017849D01*
X013433Y018156D01*
X013433Y018233D01*
X013126Y018233D01*
X013626Y017070D02*
X013780Y017070D01*
X013857Y016994D01*
X013857Y016917D01*
X013780Y016840D01*
X013857Y016763D01*
X013857Y016687D01*
X013780Y016610D01*
X013626Y016610D01*
X013550Y016687D01*
X013703Y016840D02*
X013780Y016840D01*
X013550Y016994D02*
X013626Y017070D01*
X011780Y018152D02*
X011703Y018075D01*
X011550Y018075D01*
X011473Y018152D01*
X011320Y018075D02*
X011013Y018075D01*
X011320Y018382D01*
X011320Y018459D01*
X011243Y018536D01*
X011090Y018536D01*
X011013Y018459D01*
X010706Y018536D02*
X010706Y018075D01*
X010859Y018075D02*
X010552Y018075D01*
X010399Y018152D02*
X010322Y018075D01*
X010169Y018075D01*
X010092Y018152D01*
X009939Y018152D02*
X009862Y018075D01*
X009708Y018075D01*
X009632Y018152D01*
X009478Y018152D02*
X009401Y018075D01*
X009171Y018075D01*
X009171Y018536D01*
X009401Y018536D01*
X009478Y018459D01*
X009478Y018382D01*
X009401Y018306D01*
X009171Y018306D01*
X009401Y018306D02*
X009478Y018229D01*
X009478Y018152D01*
X009632Y018382D02*
X009708Y018306D01*
X009862Y018306D01*
X009939Y018229D01*
X009939Y018152D01*
X010092Y018382D02*
X010169Y018306D01*
X010322Y018306D01*
X010399Y018229D01*
X010399Y018152D01*
X010552Y018382D02*
X010706Y018536D01*
X010399Y018459D02*
X010322Y018536D01*
X010169Y018536D01*
X010092Y018459D01*
X010092Y018382D01*
X009939Y018459D02*
X009862Y018536D01*
X009708Y018536D01*
X009632Y018459D01*
X009632Y018382D01*
X008498Y018590D02*
X008191Y018590D01*
X008038Y018820D02*
X007731Y018820D01*
X007884Y018820D02*
X007884Y018360D01*
X007577Y018437D02*
X007577Y018820D01*
X007577Y018437D02*
X007501Y018360D01*
X007347Y018360D01*
X007270Y018437D01*
X007270Y018820D01*
X007117Y018744D02*
X007040Y018820D01*
X006887Y018820D01*
X006810Y018744D01*
X006810Y018437D01*
X006887Y018360D01*
X007040Y018360D01*
X007117Y018437D01*
X007117Y018744D01*
X008410Y019860D02*
X008717Y019860D01*
X008870Y019937D02*
X008947Y019860D01*
X009101Y019860D01*
X009177Y019937D01*
X009177Y020244D01*
X009101Y020320D01*
X008947Y020320D01*
X008870Y020244D01*
X008870Y019937D01*
X008410Y019860D02*
X008410Y020320D01*
X009331Y020167D02*
X009331Y019860D01*
X009331Y020090D02*
X009638Y020090D01*
X009638Y020167D02*
X009638Y019860D01*
X009791Y019860D02*
X010021Y019860D01*
X010098Y019937D01*
X010098Y020244D01*
X010021Y020320D01*
X009791Y020320D01*
X009791Y019860D01*
X009638Y020167D02*
X009484Y020320D01*
X009331Y020167D01*
X010252Y020090D02*
X010558Y020090D01*
X011550Y018536D02*
X011473Y018459D01*
X011550Y018536D02*
X011703Y018536D01*
X011780Y018459D01*
X011780Y018382D01*
X011703Y018306D01*
X011780Y018229D01*
X011780Y018152D01*
X011703Y018306D02*
X011627Y018306D01*
X015395Y020936D02*
X015395Y021247D01*
X015550Y021247D01*
X015602Y021195D01*
X015602Y021092D01*
X015550Y021040D01*
X015395Y021040D01*
X015717Y021092D02*
X015924Y021092D01*
X015924Y021143D02*
X015924Y020936D01*
X016040Y020936D02*
X016040Y021247D01*
X016246Y020936D01*
X016246Y021247D01*
X016362Y021247D02*
X016362Y020936D01*
X016569Y020936D01*
X016684Y020936D02*
X016891Y020936D01*
X017006Y021092D02*
X017213Y021092D01*
X017110Y021195D02*
X017110Y020988D01*
X016684Y020936D02*
X016684Y021247D01*
X016569Y021247D02*
X016362Y021247D01*
X016362Y021092D02*
X016465Y021092D01*
X015924Y021143D02*
X015821Y021247D01*
X015717Y021143D01*
X015717Y020936D01*
X009024Y013720D02*
X009024Y013260D01*
X009177Y013260D02*
X008870Y013260D01*
X008717Y013260D02*
X008410Y013260D01*
X008410Y013720D01*
X008345Y013644D02*
X008345Y013337D01*
X008498Y013490D02*
X008191Y013490D01*
X008038Y013720D02*
X007731Y013720D01*
X007884Y013720D02*
X007884Y013260D01*
X007577Y013337D02*
X007577Y013720D01*
X007270Y013720D02*
X007270Y013337D01*
X007347Y013260D01*
X007501Y013260D01*
X007577Y013337D01*
X007117Y013337D02*
X007117Y013644D01*
X007040Y013720D01*
X006887Y013720D01*
X006810Y013644D01*
X006810Y013337D01*
X006887Y013260D01*
X007040Y013260D01*
X007117Y013337D01*
X007070Y014339D02*
X006610Y014339D01*
X006610Y014569D01*
X006686Y014646D01*
X006993Y014646D01*
X007070Y014569D01*
X007070Y014339D01*
X007070Y014800D02*
X007070Y015107D01*
X007070Y014953D02*
X006610Y014953D01*
X006763Y014800D01*
X006810Y015260D02*
X006963Y015260D01*
X006887Y015260D02*
X006887Y015720D01*
X006963Y015720D02*
X006810Y015720D01*
X007117Y015720D02*
X007117Y015260D01*
X007424Y015260D02*
X007424Y015720D01*
X007577Y015490D02*
X007884Y015490D01*
X007424Y015260D02*
X007117Y015720D01*
X009024Y013720D02*
X008870Y013567D01*
X009331Y013490D02*
X009638Y013490D01*
X007935Y011815D02*
X007935Y011505D01*
X008141Y011505D01*
X008257Y011660D02*
X008464Y011660D01*
X007819Y011505D02*
X007612Y011505D01*
X007612Y011815D01*
X007819Y011815D01*
X007716Y011660D02*
X007612Y011660D01*
X007497Y011505D02*
X007497Y011815D01*
X007290Y011815D02*
X007497Y011505D01*
X007290Y011505D02*
X007290Y011815D01*
X007175Y011712D02*
X007071Y011815D01*
X006968Y011712D01*
X006968Y011505D01*
X006968Y011660D02*
X007175Y011660D01*
X007175Y011712D02*
X007175Y011505D01*
X006852Y011660D02*
X006801Y011608D01*
X006645Y011608D01*
X006645Y011505D02*
X006645Y011815D01*
X006801Y011815D01*
X006852Y011763D01*
X006852Y011660D01*
X004836Y011714D02*
X004836Y011921D01*
X004836Y011818D02*
X004526Y011818D01*
X004629Y011714D01*
X004578Y011599D02*
X004681Y011599D01*
X004733Y011547D01*
X004733Y011392D01*
X004836Y011392D02*
X004526Y011392D01*
X004526Y011547D01*
X004578Y011599D01*
X004733Y011495D02*
X004836Y011599D01*
X004797Y011171D02*
X004849Y011119D01*
X004849Y011016D01*
X004797Y010964D01*
X004745Y010964D01*
X004694Y011016D01*
X004694Y011119D01*
X004745Y011171D01*
X004797Y011171D01*
X004694Y011119D02*
X004642Y011171D01*
X004590Y011171D01*
X004538Y011119D01*
X004538Y011016D01*
X004590Y010964D01*
X004642Y010964D01*
X004694Y011016D01*
X004694Y010849D02*
X004745Y010797D01*
X004745Y010642D01*
X004745Y010745D02*
X004849Y010849D01*
X004694Y010849D02*
X004590Y010849D01*
X004538Y010797D01*
X004538Y010642D01*
X004849Y010642D01*
X004785Y010493D02*
X004836Y010442D01*
X004836Y010338D01*
X004785Y010286D01*
X004733Y010286D01*
X004681Y010338D01*
X004681Y010442D01*
X004733Y010493D01*
X004785Y010493D01*
X004681Y010442D02*
X004629Y010493D01*
X004578Y010493D01*
X004526Y010442D01*
X004526Y010338D01*
X004578Y010286D01*
X004629Y010286D01*
X004681Y010338D01*
X004629Y010171D02*
X004578Y010171D01*
X004526Y010119D01*
X004526Y010016D01*
X004578Y009964D01*
X004578Y009849D02*
X004681Y009849D01*
X004733Y009797D01*
X004733Y009642D01*
X004733Y009745D02*
X004836Y009849D01*
X004836Y009964D02*
X004629Y010171D01*
X004836Y010171D02*
X004836Y009964D01*
X004578Y009849D02*
X004526Y009797D01*
X004526Y009642D01*
X004836Y009642D01*
X006110Y009386D02*
X006420Y009386D01*
X006420Y009489D02*
X006420Y009282D01*
X006420Y009167D02*
X006110Y008960D01*
X006110Y009167D02*
X006420Y008960D01*
X006535Y008912D02*
X006535Y009119D01*
X006587Y009170D01*
X006690Y009170D01*
X006742Y009119D01*
X006857Y009067D02*
X006961Y009170D01*
X006961Y008860D01*
X007064Y008860D02*
X006857Y008860D01*
X006742Y008912D02*
X006690Y008860D01*
X006587Y008860D01*
X006535Y008912D01*
X006213Y009282D02*
X006110Y009386D01*
X006111Y008561D02*
X006318Y008355D01*
X006370Y008355D01*
X006370Y008239D02*
X006370Y008032D01*
X006370Y008136D02*
X006060Y008136D01*
X006163Y008032D01*
X006111Y007917D02*
X006060Y007865D01*
X006060Y007762D01*
X006111Y007710D01*
X006318Y007710D01*
X006370Y007762D01*
X006370Y007865D01*
X006318Y007917D01*
X006060Y008355D02*
X006060Y008561D01*
X006111Y008561D01*
X005586Y007570D02*
X005586Y007260D01*
X005689Y007260D02*
X005482Y007260D01*
X005367Y007312D02*
X005315Y007260D01*
X005212Y007260D01*
X005160Y007312D01*
X005160Y007519D01*
X005212Y007570D01*
X005315Y007570D01*
X005367Y007519D01*
X005482Y007467D02*
X005586Y007570D01*
X004695Y007570D02*
X004591Y007519D01*
X004488Y007415D01*
X004643Y007415D01*
X004695Y007363D01*
X004695Y007312D01*
X004643Y007260D01*
X004539Y007260D01*
X004488Y007312D01*
X004488Y007415D01*
X004372Y007260D02*
X004165Y007260D01*
X004269Y007260D02*
X004269Y007570D01*
X004165Y007467D01*
X004050Y007519D02*
X003998Y007570D01*
X003895Y007570D01*
X003843Y007519D01*
X003843Y007312D01*
X003895Y007260D01*
X003998Y007260D01*
X004050Y007312D01*
X003917Y006986D02*
X003969Y006934D01*
X003969Y006779D01*
X004072Y006779D02*
X003762Y006779D01*
X003762Y006934D01*
X003814Y006986D01*
X003917Y006986D01*
X003969Y006664D02*
X004021Y006664D01*
X004072Y006612D01*
X004072Y006509D01*
X004021Y006457D01*
X003917Y006509D02*
X003917Y006612D01*
X003969Y006664D01*
X003814Y006664D02*
X003762Y006612D01*
X003762Y006509D01*
X003814Y006457D01*
X003866Y006457D01*
X003917Y006509D01*
X003762Y006346D02*
X003762Y006242D01*
X003762Y006294D02*
X004072Y006294D01*
X004072Y006242D02*
X004072Y006346D01*
X004072Y006127D02*
X003969Y006023D01*
X003969Y006075D02*
X003969Y005920D01*
X004072Y005920D02*
X003762Y005920D01*
X003762Y006075D01*
X003814Y006127D01*
X003917Y006127D01*
X003969Y006075D01*
X003969Y005804D02*
X003762Y005804D01*
X003762Y005598D02*
X003969Y005598D01*
X004072Y005701D01*
X003969Y005804D01*
X003917Y005482D02*
X003917Y005275D01*
X003866Y005275D02*
X003762Y005379D01*
X003866Y005482D01*
X004072Y005482D01*
X004072Y005275D02*
X003866Y005275D01*
X004718Y006100D02*
X004977Y006100D01*
X005029Y006152D01*
X005029Y006255D01*
X004977Y006307D01*
X004718Y006307D01*
X004770Y006422D02*
X004718Y006474D01*
X004718Y006578D01*
X004770Y006629D01*
X004822Y006629D01*
X004874Y006578D01*
X004925Y006629D01*
X004977Y006629D01*
X005029Y006578D01*
X005029Y006474D01*
X004977Y006422D01*
X004874Y006526D02*
X004874Y006578D01*
X005010Y004039D02*
X005061Y004039D01*
X005268Y003832D01*
X005320Y003832D01*
X005268Y003717D02*
X005320Y003665D01*
X005320Y003562D01*
X005268Y003510D01*
X005061Y003510D01*
X005010Y003562D01*
X005010Y003665D01*
X005061Y003717D01*
X005010Y003832D02*
X005010Y004039D01*
X003561Y004034D02*
X003561Y003827D01*
X003354Y004034D01*
X003303Y004034D01*
X003251Y003982D01*
X003251Y003879D01*
X003303Y003827D01*
X003303Y003712D02*
X003251Y003660D01*
X003251Y003557D01*
X003303Y003505D01*
X003509Y003505D01*
X003561Y003557D01*
X003561Y003660D01*
X003509Y003712D01*
X001870Y003686D02*
X001870Y003582D01*
X001870Y003634D02*
X001560Y003634D01*
X001560Y003582D02*
X001560Y003686D01*
X001560Y003797D02*
X001663Y003901D01*
X001560Y004004D01*
X001870Y004004D01*
X001870Y004119D02*
X001560Y004119D01*
X001715Y004119D02*
X001715Y004326D01*
X001560Y004326D02*
X001870Y004326D01*
X001818Y004442D02*
X001870Y004493D01*
X001870Y004597D01*
X001818Y004649D01*
X001611Y004649D01*
X001560Y004597D01*
X001560Y004493D01*
X001611Y004442D01*
X001818Y004442D01*
X001870Y004764D02*
X001560Y004764D01*
X001870Y004764D02*
X001870Y004971D01*
X001870Y005086D02*
X001870Y005241D01*
X001818Y005293D01*
X001611Y005293D01*
X001560Y005241D01*
X001560Y005086D01*
X001870Y005086D01*
X001870Y005408D02*
X001560Y005408D01*
X001560Y005615D01*
X001560Y005731D02*
X001560Y005886D01*
X001611Y005938D01*
X001715Y005938D01*
X001767Y005886D01*
X001767Y005731D01*
X001870Y005731D02*
X001560Y005731D01*
X001767Y005834D02*
X001870Y005938D01*
X001870Y005615D02*
X001870Y005408D01*
X001715Y005408D02*
X001715Y005512D01*
X001870Y003797D02*
X001560Y003797D01*
X001611Y003467D02*
X001560Y003415D01*
X001560Y003312D01*
X001611Y003260D01*
X001663Y003260D01*
X001715Y003312D01*
X001715Y003415D01*
X001767Y003467D01*
X001818Y003467D01*
X001870Y003415D01*
X001870Y003312D01*
X001818Y003260D01*
X001545Y007610D02*
X001451Y007610D01*
X001405Y007657D01*
X001405Y007703D01*
X001451Y007750D01*
X001545Y007750D01*
X001591Y007703D01*
X001591Y007657D01*
X001545Y007610D01*
X001545Y007750D02*
X001591Y007797D01*
X001591Y007844D01*
X001545Y007890D01*
X001451Y007890D01*
X001405Y007844D01*
X001405Y007797D01*
X001451Y007750D01*
X001297Y007657D02*
X001250Y007610D01*
X001157Y007610D01*
X001110Y007657D01*
X001110Y007844D01*
X001157Y007890D01*
X001250Y007890D01*
X001297Y007844D01*
X002056Y007907D02*
X002056Y007627D01*
X002056Y007721D02*
X002196Y007721D01*
X002242Y007767D01*
X002242Y007861D01*
X002196Y007907D01*
X002056Y007907D01*
X002149Y007721D02*
X002242Y007627D01*
X002350Y007674D02*
X002397Y007627D01*
X002490Y007627D01*
X002537Y007674D01*
X002537Y007721D01*
X002490Y007767D01*
X002444Y007767D01*
X002490Y007767D02*
X002537Y007814D01*
X002537Y007861D01*
X002490Y007907D01*
X002397Y007907D01*
X002350Y007861D01*
X007180Y008912D02*
X007180Y008963D01*
X007231Y009015D01*
X007335Y009015D01*
X007386Y008963D01*
X007386Y008912D01*
X007335Y008860D01*
X007231Y008860D01*
X007180Y008912D01*
X007231Y009015D02*
X007180Y009067D01*
X007180Y009119D01*
X007231Y009170D01*
X007335Y009170D01*
X007386Y009119D01*
X007386Y009067D01*
X007335Y009015D01*
X008895Y005808D02*
X009050Y005808D01*
X009102Y005757D01*
X009102Y005653D01*
X009050Y005602D01*
X008895Y005602D01*
X008999Y005602D02*
X009102Y005498D01*
X009218Y005498D02*
X009424Y005705D01*
X009424Y005757D01*
X009373Y005808D01*
X009269Y005808D01*
X009218Y005757D01*
X009218Y005498D02*
X009424Y005498D01*
X009540Y005653D02*
X009747Y005653D01*
X009695Y005498D02*
X009695Y005808D01*
X009540Y005653D01*
X009589Y005220D02*
X009693Y005220D01*
X009745Y005169D01*
X009745Y005117D01*
X009693Y005065D01*
X009745Y005013D01*
X009745Y004962D01*
X009693Y004910D01*
X009589Y004910D01*
X009538Y004962D01*
X009422Y004910D02*
X009215Y004910D01*
X009319Y004910D02*
X009319Y005220D01*
X009215Y005117D01*
X009100Y005169D02*
X009048Y005220D01*
X008945Y005220D01*
X008893Y005169D01*
X008893Y004962D01*
X008945Y004910D01*
X009048Y004910D01*
X009100Y004962D01*
X009044Y004671D02*
X008889Y004671D01*
X008889Y004361D01*
X008889Y004464D02*
X009044Y004464D01*
X009096Y004516D01*
X009096Y004620D01*
X009044Y004671D01*
X009211Y004620D02*
X009263Y004671D01*
X009366Y004671D01*
X009418Y004620D01*
X009418Y004568D01*
X009211Y004361D01*
X009418Y004361D01*
X009534Y004413D02*
X009585Y004361D01*
X009689Y004361D01*
X009740Y004413D01*
X009740Y004516D01*
X009689Y004568D01*
X009637Y004568D01*
X009534Y004516D01*
X009534Y004671D01*
X009740Y004671D01*
X009693Y005065D02*
X009641Y005065D01*
X009538Y005169D02*
X009589Y005220D01*
X008895Y005498D02*
X008895Y005808D01*
X008992Y004464D02*
X009096Y004361D01*
X010460Y004386D02*
X010770Y004386D01*
X010770Y004489D02*
X010770Y004282D01*
X010770Y004167D02*
X010667Y004063D01*
X010770Y004012D02*
X010718Y003960D01*
X010511Y003960D01*
X010460Y004012D01*
X010460Y004115D01*
X010511Y004167D01*
X010718Y004167D01*
X010770Y004115D01*
X010770Y004012D01*
X010563Y004282D02*
X010460Y004386D01*
X008641Y001760D02*
X008641Y001450D01*
X008848Y001450D01*
X008525Y001760D02*
X008319Y001760D01*
X008422Y001760D02*
X008422Y001450D01*
X008100Y001450D02*
X008100Y001760D01*
X008203Y001760D02*
X007996Y001760D01*
X007425Y002384D02*
X007425Y002844D01*
X007655Y002844D01*
X007732Y002767D01*
X007732Y002614D01*
X007655Y002537D01*
X007425Y002537D01*
X007271Y002384D02*
X007271Y002844D01*
X006964Y002844D02*
X007271Y002384D01*
X006964Y002384D02*
X006964Y002844D01*
X006811Y002767D02*
X006734Y002844D01*
X006504Y002844D01*
X006504Y002384D01*
X006734Y002384D01*
X006811Y002460D01*
X006811Y002767D01*
X014560Y007337D02*
X014637Y007260D01*
X014790Y007260D01*
X014867Y007337D01*
X014867Y007490D01*
X014713Y007490D01*
X014560Y007337D02*
X014560Y007644D01*
X014637Y007720D01*
X014790Y007720D01*
X014867Y007644D01*
X015020Y007490D02*
X015327Y007490D01*
X015174Y007337D02*
X015174Y007644D01*
X016160Y007644D02*
X016160Y007337D01*
X016237Y007260D01*
X016390Y007260D01*
X016467Y007337D01*
X016467Y007490D01*
X016313Y007490D01*
X016160Y007644D02*
X016237Y007720D01*
X016390Y007720D01*
X016467Y007644D01*
X016620Y007490D02*
X016927Y007490D01*
X016390Y005920D02*
X016160Y005920D01*
X016160Y005460D01*
X016390Y005460D01*
X016467Y005537D01*
X016467Y005613D01*
X016390Y005690D01*
X016160Y005690D01*
X016390Y005690D02*
X016467Y005767D01*
X016467Y005844D01*
X016390Y005920D01*
X016620Y005690D02*
X016927Y005690D01*
X015427Y005690D02*
X015120Y005690D01*
X014967Y005613D02*
X014967Y005537D01*
X014890Y005460D01*
X014660Y005460D01*
X014660Y005920D01*
X014890Y005920D01*
X014967Y005844D01*
X014967Y005767D01*
X014890Y005690D01*
X014660Y005690D01*
X014890Y005690D02*
X014967Y005613D01*
X015274Y005537D02*
X015274Y005844D01*
X014967Y009160D02*
X014813Y009313D01*
X014890Y009313D02*
X014660Y009313D01*
X014660Y009160D02*
X014660Y009620D01*
X014890Y009620D01*
X014967Y009544D01*
X014967Y009390D01*
X014890Y009313D01*
X015120Y009390D02*
X015427Y009390D01*
X015274Y009237D02*
X015274Y009544D01*
X016160Y009620D02*
X016160Y009160D01*
X016160Y009313D02*
X016390Y009313D01*
X016467Y009390D01*
X016467Y009544D01*
X016390Y009620D01*
X016160Y009620D01*
X016313Y009313D02*
X016467Y009160D01*
X016620Y009390D02*
X016927Y009390D01*
X019852Y012090D02*
X019852Y012401D01*
X020007Y012401D01*
X020059Y012349D01*
X020059Y012245D01*
X020007Y012194D01*
X019852Y012194D01*
X019955Y012194D02*
X020059Y012090D01*
X020174Y012245D02*
X020381Y012245D01*
X020329Y012090D02*
X020329Y012401D01*
X020174Y012245D01*
X021096Y011370D02*
X021096Y011111D01*
X021148Y011060D01*
X021251Y011060D01*
X021303Y011111D01*
X021303Y011370D01*
X021418Y011266D02*
X021522Y011370D01*
X021522Y011060D01*
X021625Y011060D02*
X021418Y011060D01*
X022920Y010100D02*
X022920Y009893D01*
X023075Y009893D01*
X023023Y009997D01*
X023023Y010048D01*
X023075Y010100D01*
X023179Y010100D01*
X023230Y010048D01*
X023230Y009945D01*
X023179Y009893D01*
X023230Y009778D02*
X023127Y009674D01*
X023127Y009726D02*
X023127Y009571D01*
X023122Y009487D02*
X023070Y009435D01*
X023070Y009280D01*
X023174Y009280D01*
X023226Y009332D01*
X023226Y009435D01*
X023174Y009487D01*
X023122Y009487D01*
X023230Y009571D02*
X022920Y009571D01*
X022920Y009726D01*
X022972Y009778D01*
X023075Y009778D01*
X023127Y009726D01*
X022915Y009487D02*
X022967Y009383D01*
X023070Y009280D01*
X023070Y009164D02*
X023122Y009113D01*
X023122Y008958D01*
X023122Y009061D02*
X023226Y009164D01*
X023070Y009164D02*
X022967Y009164D01*
X022915Y009113D01*
X022915Y008958D01*
X023226Y008958D01*
X023083Y008774D02*
X023083Y008464D01*
X022980Y008464D02*
X023187Y008464D01*
X022980Y008671D02*
X023083Y008774D01*
X022864Y008464D02*
X022658Y008464D01*
X022658Y008774D01*
X021429Y008005D02*
X021119Y008005D01*
X021274Y008005D02*
X021274Y007798D01*
X021222Y007682D02*
X021429Y007682D01*
X021429Y007527D01*
X021377Y007475D01*
X021222Y007475D01*
X021170Y007360D02*
X021377Y007360D01*
X021429Y007308D01*
X021429Y007205D01*
X021377Y007153D01*
X021170Y007360D01*
X021119Y007308D01*
X021119Y007205D01*
X021170Y007153D01*
X021377Y007153D01*
X021429Y007038D02*
X021429Y006831D01*
X021429Y006934D02*
X021119Y006934D01*
X021222Y006831D01*
X021119Y007798D02*
X021429Y007798D01*
X019068Y005518D02*
X019068Y005414D01*
X019017Y005363D01*
X019017Y005247D02*
X019068Y005196D01*
X019068Y005092D01*
X019017Y005041D01*
X018810Y005041D01*
X018758Y005092D01*
X018758Y005196D01*
X018810Y005247D01*
X018810Y005363D02*
X018758Y005414D01*
X018758Y005518D01*
X018810Y005570D01*
X018862Y005570D01*
X018913Y005518D01*
X018965Y005570D01*
X019017Y005570D01*
X019068Y005518D01*
X018913Y005518D02*
X018913Y005466D01*
X019802Y004015D02*
X019751Y003963D01*
X019751Y003860D01*
X019802Y003808D01*
X019854Y003808D01*
X019906Y003860D01*
X019906Y004015D01*
X020009Y004015D02*
X019802Y004015D01*
X020009Y004015D02*
X020061Y003963D01*
X020061Y003860D01*
X020009Y003808D01*
X020009Y003693D02*
X020061Y003641D01*
X020061Y003538D01*
X020009Y003486D01*
X019802Y003486D01*
X019751Y003538D01*
X019751Y003641D01*
X019802Y003693D01*
X020162Y003641D02*
X020162Y003538D01*
X020214Y003486D01*
X020421Y003486D01*
X020473Y003538D01*
X020473Y003641D01*
X020421Y003693D01*
X020421Y003808D02*
X020473Y003860D01*
X020473Y003963D01*
X020421Y004015D01*
X020318Y004015D01*
X020266Y003963D01*
X020266Y003912D01*
X020318Y003808D01*
X020162Y003808D01*
X020162Y004015D01*
X020214Y003693D02*
X020162Y003641D01*
X020578Y003646D02*
X020578Y003542D01*
X020630Y003491D01*
X020836Y003491D01*
X020888Y003542D01*
X020888Y003646D01*
X020836Y003697D01*
X020733Y003813D02*
X020578Y003968D01*
X020888Y003968D01*
X020733Y004020D02*
X020733Y003813D01*
X020630Y003697D02*
X020578Y003646D01*
X002438Y018890D02*
X002131Y018890D01*
X001977Y018967D02*
X001977Y019044D01*
X001901Y019120D01*
X001747Y019120D01*
X001670Y019044D01*
X001977Y018967D02*
X001670Y018660D01*
X001977Y018660D01*
X002284Y018737D02*
X002284Y019044D01*
X001517Y018660D02*
X001210Y018660D01*
X001210Y019120D01*
X001110Y021760D02*
X001417Y021760D01*
X001570Y021760D02*
X001877Y022067D01*
X001877Y022144D01*
X001801Y022220D01*
X001647Y022220D01*
X001570Y022144D01*
X001570Y021760D02*
X001877Y021760D01*
X002031Y021990D02*
X002338Y021990D01*
X001110Y022220D02*
X001110Y021760D01*
X006110Y022760D02*
X006417Y022760D01*
X006570Y022837D02*
X006647Y022760D01*
X006801Y022760D01*
X006877Y022837D01*
X006877Y023144D01*
X006801Y023220D01*
X006647Y023220D01*
X006570Y023144D01*
X006570Y022837D01*
X006110Y022760D02*
X006110Y023220D01*
X007031Y023067D02*
X007031Y022760D01*
X007031Y022990D02*
X007338Y022990D01*
X007338Y023067D02*
X007184Y023220D01*
X007031Y023067D01*
X007338Y023067D02*
X007338Y022760D01*
X007491Y022760D02*
X007721Y022760D01*
X007798Y022837D01*
X007798Y023144D01*
X007721Y023220D01*
X007491Y023220D01*
X007491Y022760D01*
X007952Y022990D02*
X008258Y022990D01*
X008105Y022837D02*
X008105Y023144D01*
X002031Y014844D02*
X002031Y014537D01*
X002184Y014690D02*
X001877Y014690D01*
X001724Y014460D02*
X001417Y014920D01*
X001417Y014460D01*
X001263Y014460D02*
X001110Y014460D01*
X001187Y014460D02*
X001187Y014920D01*
X001263Y014920D02*
X001110Y014920D01*
X001724Y014920D02*
X001724Y014460D01*
D13*
X002555Y012825D02*
X002702Y012605D01*
X002702Y012825D01*
X002785Y012825D02*
X002785Y012605D01*
X002932Y012605D01*
X002916Y012475D02*
X002916Y012255D01*
X002916Y012365D02*
X002769Y012365D01*
X002685Y012365D02*
X002612Y012365D01*
X002685Y012365D02*
X002685Y012292D01*
X002649Y012255D01*
X002575Y012255D01*
X002539Y012292D01*
X002539Y012438D01*
X002575Y012475D01*
X002649Y012475D01*
X002685Y012438D01*
X002769Y012475D02*
X002769Y012255D01*
X002746Y012141D02*
X002746Y011921D01*
X002892Y011921D01*
X002976Y011921D02*
X002976Y012141D01*
X003086Y012141D01*
X003123Y012105D01*
X003123Y012031D01*
X003086Y011995D01*
X002976Y011995D01*
X003049Y011995D02*
X003123Y011921D01*
X003100Y011804D02*
X003026Y011804D01*
X002990Y011767D01*
X002990Y011620D01*
X003026Y011584D01*
X003100Y011584D01*
X003136Y011620D01*
X003136Y011694D01*
X003063Y011694D01*
X003136Y011767D02*
X003100Y011804D01*
X002906Y011804D02*
X002906Y011584D01*
X002759Y011804D01*
X002759Y011584D01*
X002679Y011584D02*
X002606Y011584D01*
X002643Y011584D02*
X002643Y011804D01*
X002679Y011804D02*
X002606Y011804D01*
X002523Y011767D02*
X002486Y011804D01*
X002412Y011804D01*
X002376Y011767D01*
X002376Y011620D01*
X002412Y011584D01*
X002486Y011584D01*
X002523Y011620D01*
X002523Y011694D01*
X002449Y011694D01*
X002292Y011694D02*
X002292Y011767D01*
X002256Y011804D01*
X002146Y011804D01*
X002146Y011584D01*
X002146Y011657D02*
X002256Y011657D01*
X002292Y011694D01*
X002219Y011657D02*
X002292Y011584D01*
X002296Y011467D02*
X002406Y011467D01*
X002442Y011430D01*
X002442Y011393D01*
X002406Y011356D01*
X002296Y011356D01*
X002212Y011356D02*
X002065Y011356D01*
X002065Y011393D02*
X002139Y011467D01*
X002212Y011393D01*
X002212Y011246D01*
X002296Y011246D02*
X002406Y011246D01*
X002442Y011283D01*
X002442Y011320D01*
X002406Y011356D01*
X002296Y011246D02*
X002296Y011467D01*
X002526Y011467D02*
X002526Y011246D01*
X002673Y011246D01*
X002756Y011246D02*
X002903Y011246D01*
X002986Y011246D02*
X003096Y011246D01*
X003133Y011283D01*
X003133Y011430D01*
X003096Y011467D01*
X002986Y011467D01*
X002986Y011246D01*
X002829Y011356D02*
X002756Y011356D01*
X002756Y011246D02*
X002756Y011467D01*
X002903Y011467D01*
X002662Y011921D02*
X002589Y011995D01*
X002515Y011921D01*
X002515Y012141D01*
X002432Y012105D02*
X002395Y012141D01*
X002322Y012141D01*
X002285Y012105D01*
X002285Y011958D01*
X002322Y011921D01*
X002395Y011921D01*
X002432Y011958D01*
X002432Y012105D01*
X002422Y012255D02*
X002422Y012475D01*
X002385Y012475D02*
X002459Y012475D01*
X002555Y012605D02*
X002555Y012825D01*
X002785Y012825D02*
X002932Y012825D01*
X003015Y012825D02*
X003162Y012825D01*
X003089Y012825D02*
X003089Y012605D01*
X003072Y012475D02*
X003072Y012255D01*
X002892Y012141D02*
X002746Y012141D01*
X002662Y012141D02*
X002662Y011921D01*
X002746Y012031D02*
X002819Y012031D01*
X002459Y012255D02*
X002385Y012255D01*
X002302Y012255D02*
X002155Y012255D01*
X002155Y012475D01*
X002165Y012141D02*
X002055Y012141D01*
X002055Y011921D01*
X002055Y011995D02*
X002165Y011995D01*
X002202Y012031D01*
X002202Y012105D01*
X002165Y012141D01*
X001989Y011804D02*
X002062Y011731D01*
X002062Y011584D01*
X002062Y011694D02*
X001915Y011694D01*
X001915Y011731D02*
X001989Y011804D01*
X001915Y011731D02*
X001915Y011584D01*
X001832Y011584D02*
X001832Y011804D01*
X001832Y011694D02*
X001685Y011694D01*
X001685Y011584D02*
X001685Y011804D01*
X001602Y011767D02*
X001565Y011804D01*
X001492Y011804D01*
X001455Y011767D01*
X001455Y011620D01*
X001492Y011584D01*
X001565Y011584D01*
X001602Y011620D01*
X001605Y011467D02*
X001605Y011246D01*
X001752Y011246D01*
X001835Y011246D02*
X001835Y011467D01*
X001982Y011246D01*
X001982Y011467D01*
X002065Y011393D02*
X002065Y011246D01*
X001752Y011467D02*
X001605Y011467D01*
X001605Y011356D02*
X001678Y011356D01*
X002999Y012475D02*
X003146Y012475D01*
X002859Y012715D02*
X002785Y012715D01*
X004805Y014405D02*
X004805Y014515D01*
X004842Y014552D01*
X004915Y014552D01*
X004952Y014515D01*
X004952Y014405D01*
X005025Y014405D02*
X004805Y014405D01*
X004952Y014478D02*
X005025Y014552D01*
X005025Y014635D02*
X004878Y014782D01*
X004842Y014782D01*
X004805Y014745D01*
X004805Y014672D01*
X004842Y014635D01*
X005025Y014635D02*
X005025Y014782D01*
X011655Y008747D02*
X011655Y008553D01*
X011703Y008505D01*
X011800Y008505D01*
X011848Y008553D01*
X011848Y008747D01*
X011800Y008795D01*
X011703Y008795D01*
X011655Y008747D01*
X011752Y008602D02*
X011848Y008505D01*
X011950Y008553D02*
X011998Y008505D01*
X012095Y008505D01*
X012143Y008553D01*
X012143Y008602D01*
X012095Y008650D01*
X011950Y008650D01*
X011950Y008553D01*
X011950Y008650D02*
X012046Y008747D01*
X012143Y008795D01*
X012143Y008295D02*
X012046Y008295D01*
X012095Y008295D02*
X012095Y008053D01*
X012046Y008005D01*
X011998Y008005D01*
X011950Y008053D01*
X011848Y008053D02*
X011800Y008005D01*
X011703Y008005D01*
X011655Y008053D01*
X011655Y008247D01*
X011703Y008295D01*
X011800Y008295D01*
X011848Y008247D01*
X012244Y008247D02*
X012293Y008295D01*
X012389Y008295D01*
X012438Y008247D01*
X012438Y008198D01*
X012244Y008005D01*
X012438Y008005D01*
X012539Y008053D02*
X012587Y008005D01*
X012684Y008005D01*
X012732Y008053D01*
X012732Y008102D01*
X012684Y008150D01*
X012636Y008150D01*
X012684Y008150D02*
X012732Y008198D01*
X012732Y008247D01*
X012684Y008295D01*
X012587Y008295D01*
X012539Y008247D01*
X012834Y008247D02*
X012834Y008053D01*
X013027Y008247D01*
X013027Y008053D01*
X012979Y008005D01*
X012882Y008005D01*
X012834Y008053D01*
X012955Y008053D02*
X012955Y008247D01*
X013003Y008295D01*
X013100Y008295D01*
X013148Y008247D01*
X013128Y008247D02*
X013177Y008295D01*
X013273Y008295D01*
X013322Y008247D01*
X013322Y008198D01*
X013128Y008005D01*
X013322Y008005D01*
X013298Y008005D02*
X013346Y008005D01*
X013395Y008053D01*
X013395Y008295D01*
X013443Y008295D02*
X013346Y008295D01*
X013544Y008247D02*
X013593Y008295D01*
X013689Y008295D01*
X013738Y008247D01*
X013738Y008198D01*
X013544Y008005D01*
X013738Y008005D01*
X013839Y008053D02*
X013887Y008005D01*
X013984Y008005D01*
X014032Y008053D01*
X014032Y008102D01*
X013984Y008150D01*
X013936Y008150D01*
X013984Y008150D02*
X014032Y008198D01*
X014032Y008247D01*
X013984Y008295D01*
X013887Y008295D01*
X013839Y008247D01*
X013443Y008553D02*
X013395Y008505D01*
X013298Y008505D01*
X013250Y008553D01*
X013250Y008650D02*
X013346Y008698D01*
X013395Y008698D01*
X013443Y008650D01*
X013443Y008553D01*
X013250Y008650D02*
X013250Y008795D01*
X013443Y008795D01*
X013148Y008747D02*
X013148Y008553D01*
X013100Y008505D01*
X013003Y008505D01*
X012955Y008553D01*
X012955Y008747D01*
X013003Y008795D01*
X013100Y008795D01*
X013148Y008747D01*
X013052Y008602D02*
X013148Y008505D01*
X012979Y008295D02*
X012882Y008295D01*
X012834Y008247D01*
X012979Y008295D02*
X013027Y008247D01*
X012955Y008053D02*
X013003Y008005D01*
X013100Y008005D01*
X013148Y008053D01*
X013250Y008053D02*
X013298Y008005D01*
X014134Y008053D02*
X014327Y008247D01*
X014327Y008053D01*
X014279Y008005D01*
X014182Y008005D01*
X014134Y008053D01*
X014134Y008247D01*
X014182Y008295D01*
X014279Y008295D01*
X014327Y008247D01*
X014428Y008247D02*
X014477Y008295D01*
X014573Y008295D01*
X014622Y008247D01*
X014622Y008198D01*
X014428Y008005D01*
X014622Y008005D01*
X013343Y006847D02*
X013343Y006798D01*
X013295Y006750D01*
X013343Y006702D01*
X013343Y006653D01*
X013295Y006605D01*
X013198Y006605D01*
X013150Y006653D01*
X013048Y006653D02*
X013000Y006605D01*
X012903Y006605D01*
X012855Y006653D01*
X012855Y006847D01*
X012903Y006895D01*
X013000Y006895D01*
X013048Y006847D01*
X013048Y006653D01*
X013048Y006605D02*
X012952Y006702D01*
X013150Y006847D02*
X013198Y006895D01*
X013295Y006895D01*
X013343Y006847D01*
X013295Y006750D02*
X013246Y006750D01*
X013246Y006395D02*
X013343Y006395D01*
X013295Y006395D02*
X013295Y006153D01*
X013246Y006105D01*
X013198Y006105D01*
X013150Y006153D01*
X013222Y006105D02*
X013028Y006105D01*
X013222Y006298D01*
X013222Y006347D01*
X013173Y006395D01*
X013077Y006395D01*
X013028Y006347D01*
X013048Y006347D02*
X013000Y006395D01*
X012903Y006395D01*
X012855Y006347D01*
X012855Y006153D01*
X012903Y006105D01*
X013000Y006105D01*
X013048Y006153D01*
X012927Y006153D02*
X012879Y006105D01*
X012782Y006105D01*
X012734Y006153D01*
X012927Y006347D01*
X012927Y006153D01*
X012734Y006153D02*
X012734Y006347D01*
X012782Y006395D01*
X012879Y006395D01*
X012927Y006347D01*
X012632Y006347D02*
X012584Y006395D01*
X012487Y006395D01*
X012439Y006347D01*
X012338Y006347D02*
X012289Y006395D01*
X012193Y006395D01*
X012144Y006347D01*
X012043Y006395D02*
X011946Y006395D01*
X011995Y006395D02*
X011995Y006153D01*
X011946Y006105D01*
X011898Y006105D01*
X011850Y006153D01*
X011748Y006153D02*
X011700Y006105D01*
X011603Y006105D01*
X011555Y006153D01*
X011555Y006347D01*
X011603Y006395D01*
X011700Y006395D01*
X011748Y006347D01*
X011748Y006605D02*
X011652Y006702D01*
X011748Y006653D02*
X011700Y006605D01*
X011603Y006605D01*
X011555Y006653D01*
X011555Y006847D01*
X011603Y006895D01*
X011700Y006895D01*
X011748Y006847D01*
X011748Y006653D01*
X011850Y006750D02*
X011995Y006895D01*
X011995Y006605D01*
X012043Y006750D02*
X011850Y006750D01*
X012338Y006347D02*
X012338Y006298D01*
X012144Y006105D01*
X012338Y006105D01*
X012439Y006153D02*
X012487Y006105D01*
X012584Y006105D01*
X012632Y006153D01*
X012632Y006202D01*
X012584Y006250D01*
X012536Y006250D01*
X012584Y006250D02*
X012632Y006298D01*
X012632Y006347D01*
X013444Y006347D02*
X013493Y006395D01*
X013589Y006395D01*
X013638Y006347D01*
X013638Y006298D01*
X013444Y006105D01*
X013638Y006105D01*
X013739Y006153D02*
X013787Y006105D01*
X013884Y006105D01*
X013932Y006153D01*
X013932Y006202D01*
X013884Y006250D01*
X013836Y006250D01*
X013884Y006250D02*
X013932Y006298D01*
X013932Y006347D01*
X013884Y006395D01*
X013787Y006395D01*
X013739Y006347D01*
X014034Y006347D02*
X014082Y006395D01*
X014179Y006395D01*
X014227Y006347D01*
X014034Y006153D01*
X014082Y006105D01*
X014179Y006105D01*
X014227Y006153D01*
X014227Y006347D01*
X014328Y006347D02*
X014377Y006395D01*
X014473Y006395D01*
X014522Y006347D01*
X014522Y006298D01*
X014328Y006105D01*
X014522Y006105D01*
X014034Y006153D02*
X014034Y006347D01*
X013984Y004595D02*
X013887Y004595D01*
X013839Y004547D01*
X013738Y004547D02*
X013689Y004595D01*
X013593Y004595D01*
X013544Y004547D01*
X013443Y004595D02*
X013346Y004595D01*
X013395Y004595D02*
X013395Y004353D01*
X013346Y004305D01*
X013298Y004305D01*
X013250Y004353D01*
X013322Y004305D02*
X013128Y004305D01*
X013322Y004498D01*
X013322Y004547D01*
X013273Y004595D01*
X013177Y004595D01*
X013128Y004547D01*
X013148Y004547D02*
X013100Y004595D01*
X013003Y004595D01*
X012955Y004547D01*
X012955Y004353D01*
X013003Y004305D01*
X013100Y004305D01*
X013148Y004353D01*
X013027Y004353D02*
X012979Y004305D01*
X012882Y004305D01*
X012834Y004353D01*
X013027Y004547D01*
X013027Y004353D01*
X012834Y004353D02*
X012834Y004547D01*
X012882Y004595D01*
X012979Y004595D01*
X013027Y004547D01*
X012732Y004547D02*
X012732Y004498D01*
X012684Y004450D01*
X012732Y004402D01*
X012732Y004353D01*
X012684Y004305D01*
X012587Y004305D01*
X012539Y004353D01*
X012438Y004305D02*
X012244Y004305D01*
X012438Y004498D01*
X012438Y004547D01*
X012389Y004595D01*
X012293Y004595D01*
X012244Y004547D01*
X012143Y004595D02*
X012046Y004595D01*
X012095Y004595D02*
X012095Y004353D01*
X012046Y004305D01*
X011998Y004305D01*
X011950Y004353D01*
X011848Y004353D02*
X011800Y004305D01*
X011703Y004305D01*
X011655Y004353D01*
X011655Y004547D01*
X011703Y004595D01*
X011800Y004595D01*
X011848Y004547D01*
X011848Y004805D02*
X011752Y004902D01*
X011848Y004853D02*
X011848Y005047D01*
X011800Y005095D01*
X011703Y005095D01*
X011655Y005047D01*
X011655Y004853D01*
X011703Y004805D01*
X011800Y004805D01*
X011848Y004853D01*
X011950Y004805D02*
X012143Y004998D01*
X012143Y005047D01*
X012095Y005095D01*
X011998Y005095D01*
X011950Y005047D01*
X011950Y004805D02*
X012143Y004805D01*
X012539Y004547D02*
X012587Y004595D01*
X012684Y004595D01*
X012732Y004547D01*
X012684Y004450D02*
X012636Y004450D01*
X013544Y004305D02*
X013738Y004498D01*
X013738Y004547D01*
X013839Y004353D02*
X013887Y004305D01*
X013984Y004305D01*
X014032Y004353D01*
X014032Y004402D01*
X013984Y004450D01*
X013936Y004450D01*
X013984Y004450D02*
X014032Y004498D01*
X014032Y004547D01*
X013984Y004595D01*
X014134Y004547D02*
X014134Y004353D01*
X014327Y004547D01*
X014327Y004353D01*
X014279Y004305D01*
X014182Y004305D01*
X014134Y004353D01*
X014134Y004547D02*
X014182Y004595D01*
X014279Y004595D01*
X014327Y004547D01*
X014428Y004547D02*
X014477Y004595D01*
X014573Y004595D01*
X014622Y004547D01*
X014622Y004498D01*
X014428Y004305D01*
X014622Y004305D01*
X013738Y004305D02*
X013544Y004305D01*
X021576Y008656D02*
X021723Y008803D01*
X021723Y008840D01*
X021686Y008877D01*
X021613Y008877D01*
X021576Y008840D01*
X021576Y008656D02*
X021723Y008656D01*
X021806Y008766D02*
X021953Y008766D01*
X022036Y008730D02*
X022146Y008803D01*
X022036Y008730D02*
X022146Y008656D01*
X022036Y008656D02*
X022036Y008877D01*
X021916Y008877D02*
X021806Y008766D01*
X021916Y008656D02*
X021916Y008877D01*
X022265Y008693D02*
X022265Y008656D01*
X022301Y008656D01*
X022301Y008693D01*
X022265Y008693D01*
X022301Y008656D02*
X022228Y008583D01*
X022382Y008656D02*
X022528Y008656D01*
X022455Y008656D02*
X022455Y008877D01*
X022382Y008803D01*
X022612Y008840D02*
X022612Y008877D01*
X022648Y008877D01*
X022648Y008840D01*
X022612Y008840D01*
X022612Y008656D02*
X022795Y008877D01*
X022795Y008693D02*
X022795Y008656D01*
X022759Y008656D01*
X022759Y008693D01*
X022795Y008693D01*
X022803Y009268D02*
X022766Y009268D01*
X022766Y009304D01*
X022803Y009304D01*
X022803Y009268D01*
X022620Y009268D02*
X022803Y009488D01*
X022656Y009488D02*
X022656Y009451D01*
X022620Y009451D01*
X022620Y009488D01*
X022656Y009488D01*
X022463Y009488D02*
X022463Y009268D01*
X022536Y009268D02*
X022389Y009268D01*
X022309Y009268D02*
X022273Y009268D01*
X022273Y009304D01*
X022309Y009304D01*
X022309Y009268D01*
X022236Y009194D01*
X022154Y009268D02*
X022044Y009341D01*
X022154Y009415D01*
X022044Y009488D02*
X022044Y009268D01*
X021961Y009304D02*
X021924Y009268D01*
X021851Y009268D01*
X021814Y009304D01*
X021961Y009451D01*
X021961Y009304D01*
X021814Y009304D02*
X021814Y009451D01*
X021851Y009488D01*
X021924Y009488D01*
X021961Y009451D01*
X021731Y009268D02*
X021584Y009268D01*
X021657Y009268D02*
X021657Y009488D01*
X021584Y009415D01*
X022389Y009415D02*
X022463Y009488D01*
X004762Y005853D02*
X004392Y005853D01*
X004392Y006100D01*
X004577Y005977D02*
X004577Y005853D01*
X004516Y005732D02*
X004762Y005732D01*
X004762Y005547D01*
X004701Y005485D01*
X004516Y005485D01*
X004454Y005364D02*
X004701Y005117D01*
X004762Y005178D01*
X004762Y005302D01*
X004701Y005364D01*
X004454Y005364D01*
X004392Y005302D01*
X004392Y005178D01*
X004454Y005117D01*
X004701Y005117D01*
X004762Y004995D02*
X004762Y004748D01*
X004762Y004872D02*
X004392Y004872D01*
X004516Y004748D01*
X004639Y004259D02*
X004392Y004259D01*
X004639Y004259D02*
X004762Y004135D01*
X004639Y004012D01*
X004392Y004012D01*
X004392Y003890D02*
X004454Y003767D01*
X004577Y003643D01*
X004577Y003829D01*
X004639Y003890D01*
X004701Y003890D01*
X004762Y003829D01*
X004762Y003705D01*
X004701Y003643D01*
X004577Y003643D01*
X004762Y003522D02*
X004762Y003275D01*
X004762Y003399D02*
X004392Y003399D01*
X004516Y003275D01*
D14*
X008540Y007190D02*
X008542Y007214D01*
X008548Y007238D01*
X008557Y007260D01*
X008570Y007280D01*
X008586Y007298D01*
X008605Y007313D01*
X008626Y007326D01*
X008648Y007334D01*
X008672Y007339D01*
X008696Y007340D01*
X008720Y007337D01*
X008743Y007330D01*
X008765Y007320D01*
X008785Y007306D01*
X008802Y007289D01*
X008817Y007270D01*
X008828Y007249D01*
X008836Y007226D01*
X008840Y007202D01*
X008840Y007178D01*
X008836Y007154D01*
X008828Y007131D01*
X008817Y007110D01*
X008802Y007091D01*
X008785Y007074D01*
X008765Y007060D01*
X008743Y007050D01*
X008720Y007043D01*
X008696Y007040D01*
X008672Y007041D01*
X008648Y007046D01*
X008626Y007054D01*
X008605Y007067D01*
X008586Y007082D01*
X008570Y007100D01*
X008557Y007120D01*
X008548Y007142D01*
X008542Y007166D01*
X008540Y007190D01*
D15*
X007590Y007690D02*
X007090Y007690D01*
X007090Y008790D01*
X007590Y008790D01*
X007590Y007690D01*
X006940Y007690D02*
X006440Y007690D01*
X006440Y008790D01*
X006940Y008790D01*
X006940Y007690D01*
X005990Y007640D02*
X004890Y007640D01*
X004890Y008140D01*
X005990Y008140D01*
X005990Y007640D01*
X005824Y008260D02*
X003856Y008260D01*
X003856Y008418D01*
X003690Y008140D02*
X004790Y008140D01*
X004790Y007640D01*
X003690Y007640D01*
X003690Y008140D01*
X002986Y007982D02*
X001886Y007982D01*
X001886Y008482D01*
X002986Y008482D01*
X002986Y007982D01*
X001740Y007990D02*
X001740Y008490D01*
X000640Y008490D01*
X000640Y007990D01*
X001740Y007990D01*
X003365Y009781D02*
X003365Y010281D01*
X004415Y010281D01*
X004415Y009781D01*
X003365Y009781D01*
X003840Y009881D02*
X003840Y010181D01*
X003890Y010106D01*
X003890Y009956D01*
X003940Y010031D01*
X003890Y010106D01*
X003865Y010131D02*
X003865Y009931D01*
X003890Y009956D02*
X003840Y009881D01*
X003856Y009520D02*
X003856Y009362D01*
X003856Y009520D02*
X005824Y009520D01*
X005824Y009362D01*
X006008Y009781D02*
X006008Y010281D01*
X004908Y010281D01*
X004908Y009781D01*
X006008Y009781D01*
X006008Y010569D02*
X006008Y011069D01*
X004908Y011069D01*
X004908Y010569D01*
X006008Y010569D01*
X006008Y011356D02*
X006008Y011856D01*
X004908Y011856D01*
X004908Y011356D01*
X006008Y011356D01*
X004415Y011356D02*
X003365Y011356D01*
X003365Y011856D01*
X004415Y011856D01*
X004415Y011356D01*
X004415Y011069D02*
X004415Y010569D01*
X003365Y010569D01*
X003365Y011069D01*
X004415Y011069D01*
X003940Y010819D02*
X003890Y010894D01*
X003890Y010744D01*
X003940Y010819D01*
X003890Y010894D02*
X003840Y010969D01*
X003840Y010669D01*
X003890Y010744D01*
X003865Y010719D02*
X003865Y010919D01*
X003840Y011456D02*
X003890Y011531D01*
X003890Y011681D01*
X003840Y011756D01*
X003840Y011456D01*
X003865Y011506D02*
X003865Y011706D01*
X003890Y011681D02*
X003940Y011606D01*
X003890Y011531D01*
X004590Y009390D02*
X004590Y008890D01*
X004390Y008890D01*
X004590Y008890D02*
X004590Y008390D01*
X004740Y008490D02*
X004940Y008490D01*
X004940Y009290D01*
X004740Y009290D01*
X004740Y008490D01*
X005090Y008390D02*
X005090Y008890D01*
X005290Y008890D01*
X005090Y008890D02*
X005090Y009390D01*
X005824Y008418D02*
X005824Y008260D01*
X004315Y005015D02*
X003665Y005015D01*
X003665Y003365D01*
X004315Y003365D01*
X004315Y005015D01*
X004440Y004640D02*
X004940Y004640D01*
X004940Y003540D01*
X004440Y003540D01*
X004440Y004640D01*
X003990Y004215D02*
X003990Y004015D01*
X004090Y004115D02*
X003890Y004115D01*
X009944Y004239D02*
X009944Y004739D01*
X011044Y004739D01*
X011044Y004239D01*
X009944Y004239D01*
X009940Y004840D02*
X009940Y005340D01*
X011040Y005340D01*
X011040Y004840D01*
X009940Y004840D01*
X009931Y005446D02*
X009931Y005946D01*
X011031Y005946D01*
X011031Y005446D01*
X009931Y005446D01*
X011465Y006240D02*
X011465Y006590D01*
X011765Y006590D01*
X011965Y006090D02*
X012115Y006090D01*
X012615Y006240D02*
X012615Y006590D01*
X012315Y006590D01*
X012765Y006590D02*
X012765Y006240D01*
X012765Y006590D02*
X013065Y006590D01*
X013615Y006590D02*
X013915Y006590D01*
X013915Y006240D01*
X013415Y006090D02*
X013265Y006090D01*
X013165Y004790D02*
X012865Y004790D01*
X012865Y004440D01*
X012715Y004440D02*
X012715Y004790D01*
X012415Y004790D01*
X012215Y004290D02*
X012065Y004290D01*
X011565Y004440D02*
X011565Y004790D01*
X011865Y004790D01*
X013365Y004290D02*
X013515Y004290D01*
X014015Y004440D02*
X014015Y004790D01*
X013715Y004790D01*
X013515Y007990D02*
X013365Y007990D01*
X012865Y008140D02*
X012865Y008490D01*
X013165Y008490D01*
X012715Y008490D02*
X012715Y008140D01*
X012715Y008490D02*
X012415Y008490D01*
X011865Y008490D02*
X011565Y008490D01*
X011565Y008140D01*
X012065Y007990D02*
X012215Y007990D01*
X013715Y008490D02*
X014015Y008490D01*
X014015Y008140D01*
X017694Y011132D02*
X017694Y011832D01*
X018994Y011832D01*
X018994Y011132D01*
X017694Y011132D01*
X018038Y010480D02*
X018538Y010480D01*
X018538Y009380D01*
X018038Y009380D01*
X018038Y010480D01*
X019126Y011190D02*
X019128Y011210D01*
X019134Y011228D01*
X019143Y011246D01*
X019155Y011261D01*
X019170Y011273D01*
X019188Y011282D01*
X019206Y011288D01*
X019226Y011290D01*
X019246Y011288D01*
X019264Y011282D01*
X019282Y011273D01*
X019297Y011261D01*
X019309Y011246D01*
X019318Y011228D01*
X019324Y011210D01*
X019326Y011190D01*
X019324Y011170D01*
X019318Y011152D01*
X019309Y011134D01*
X019297Y011119D01*
X019282Y011107D01*
X019264Y011098D01*
X019246Y011092D01*
X019226Y011090D01*
X019206Y011092D01*
X019188Y011098D01*
X019170Y011107D01*
X019155Y011119D01*
X019143Y011134D01*
X019134Y011152D01*
X019128Y011170D01*
X019126Y011190D01*
X019376Y011004D02*
X019926Y011004D01*
X020126Y010790D02*
X020153Y010793D01*
X020180Y010799D01*
X020205Y010809D01*
X020229Y010821D01*
X020251Y010837D01*
X020270Y010856D01*
X020288Y010877D01*
X020302Y010900D01*
X020313Y010925D01*
X020321Y010950D01*
X020325Y010977D01*
X020326Y011004D01*
X020876Y011004D01*
X020876Y009075D01*
X019376Y009075D01*
X019376Y011004D01*
X019548Y011260D02*
X019548Y011760D01*
X020648Y011760D01*
X020648Y011260D01*
X019548Y011260D01*
X019926Y011004D02*
X019927Y010977D01*
X019931Y010950D01*
X019939Y010925D01*
X019950Y010900D01*
X019964Y010877D01*
X019982Y010856D01*
X020001Y010837D01*
X020023Y010821D01*
X020047Y010809D01*
X020072Y010799D01*
X020099Y010793D01*
X020126Y010790D01*
X021661Y009466D02*
X021661Y008966D01*
X022761Y008966D01*
X022761Y009466D01*
X021661Y009466D01*
X021669Y009578D02*
X021669Y010078D01*
X022769Y010078D01*
X022769Y009578D01*
X021669Y009578D01*
X021428Y009015D02*
X021503Y008940D01*
X021203Y008640D01*
X021278Y008565D01*
X021428Y008565D01*
X021503Y008640D01*
X021503Y008940D01*
X021428Y009015D02*
X021278Y009015D01*
X021203Y008940D01*
X021203Y008640D01*
X021043Y008565D02*
X020742Y008565D01*
X020893Y008565D02*
X020893Y009015D01*
X020742Y008865D01*
X020582Y008790D02*
X020282Y008790D01*
X020507Y009015D01*
X020507Y008565D01*
X020308Y008719D02*
X020282Y008717D01*
X020257Y008712D01*
X020233Y008704D01*
X020210Y008693D01*
X020188Y008678D01*
X020169Y008661D01*
X020152Y008642D01*
X020137Y008621D01*
X020126Y008597D01*
X020118Y008573D01*
X020113Y008548D01*
X020111Y008522D01*
X020111Y006553D01*
X020113Y006527D01*
X020118Y006502D01*
X020126Y006478D01*
X020137Y006455D01*
X020152Y006433D01*
X020169Y006414D01*
X020188Y006397D01*
X020210Y006382D01*
X020233Y006371D01*
X020257Y006363D01*
X020282Y006358D01*
X020308Y006356D01*
X022277Y006356D01*
X022303Y006358D01*
X022328Y006363D01*
X022352Y006371D01*
X022376Y006382D01*
X022397Y006397D01*
X022416Y006414D01*
X022433Y006433D01*
X022448Y006455D01*
X022459Y006478D01*
X022467Y006502D01*
X022472Y006527D01*
X022474Y006553D01*
X022473Y006553D02*
X022473Y008522D01*
X022474Y008522D02*
X022472Y008548D01*
X022467Y008573D01*
X022459Y008597D01*
X022448Y008621D01*
X022433Y008642D01*
X022416Y008661D01*
X022397Y008678D01*
X022376Y008693D01*
X022352Y008704D01*
X022328Y008712D01*
X022303Y008717D01*
X022277Y008719D01*
X020308Y008719D01*
X020122Y008565D02*
X019822Y008565D01*
X019972Y008565D02*
X019972Y009015D01*
X019822Y008865D01*
X019661Y008940D02*
X019661Y008640D01*
X019586Y008565D01*
X019361Y008565D01*
X019361Y009015D01*
X019586Y009015D01*
X019661Y008940D01*
X019201Y009015D02*
X018901Y009015D01*
X019051Y009015D02*
X019051Y008565D01*
X018477Y007427D02*
X018527Y007377D01*
X018427Y007377D01*
X018377Y007327D01*
X018577Y007327D01*
X018627Y007277D01*
X018327Y007277D01*
X018277Y007227D01*
X018677Y007227D01*
X018727Y007177D01*
X018227Y007177D01*
X018177Y007127D01*
X018777Y007127D01*
X018827Y007077D01*
X018127Y007077D01*
X018077Y007027D01*
X018877Y007027D01*
X018827Y007077D01*
X018777Y007127D02*
X018727Y007177D01*
X018677Y007227D02*
X018627Y007277D01*
X018577Y007327D02*
X018527Y007377D01*
X018477Y007427D02*
X018427Y007377D01*
X018377Y007327D02*
X018327Y007277D01*
X018277Y007227D02*
X018227Y007177D01*
X018177Y007127D02*
X018127Y007077D01*
X019334Y006138D02*
X022984Y006138D01*
X022984Y004438D01*
X019334Y004438D01*
X019334Y006138D01*
X021534Y005288D02*
X021834Y005288D01*
X021684Y005438D02*
X021684Y005138D01*
X022244Y004279D02*
X022244Y002979D01*
X022944Y002979D01*
X022944Y004279D01*
X022244Y004279D01*
X022105Y004229D02*
X022105Y003129D01*
X021605Y003129D01*
X021605Y004229D01*
X022105Y004229D01*
X021494Y004229D02*
X021494Y003129D01*
X020994Y003129D01*
X020994Y004229D01*
X021494Y004229D01*
X012765Y014190D02*
X009115Y014190D01*
X009115Y015890D01*
X012765Y015890D01*
X012765Y014190D01*
X010565Y015040D02*
X010265Y015040D01*
X010415Y014890D02*
X010415Y015190D01*
X006465Y015790D02*
X002815Y015790D01*
X002815Y017490D01*
X006465Y017490D01*
X006465Y015790D01*
X005590Y015490D02*
X005590Y014390D01*
X005090Y014390D01*
X005090Y015490D01*
X005590Y015490D01*
X004265Y016640D02*
X003965Y016640D01*
X004115Y016490D02*
X004115Y016790D01*
X003790Y018915D02*
X003790Y022565D01*
X005490Y022565D01*
X005490Y018915D01*
X003790Y018915D01*
X004640Y021115D02*
X004640Y021415D01*
X004490Y021265D02*
X004790Y021265D01*
D16*
X005312Y014915D02*
X005358Y014845D01*
X005405Y014915D01*
X005405Y014845D02*
X005265Y014845D01*
X005288Y014791D02*
X005382Y014697D01*
X005405Y014721D01*
X005405Y014767D01*
X005382Y014791D01*
X005288Y014791D01*
X005265Y014767D01*
X005265Y014721D01*
X005288Y014697D01*
X005382Y014697D01*
X005405Y014643D02*
X005405Y014550D01*
X005405Y014597D02*
X005265Y014597D01*
X005312Y014550D01*
X006625Y008699D02*
X006625Y008612D01*
X006755Y008612D01*
X006755Y008561D02*
X006690Y008561D01*
X006668Y008539D01*
X006668Y008474D01*
X006755Y008474D01*
X006733Y008422D02*
X006755Y008401D01*
X006755Y008357D01*
X006733Y008336D01*
X006647Y008422D01*
X006733Y008422D01*
X006733Y008336D02*
X006647Y008336D01*
X006625Y008357D01*
X006625Y008401D01*
X006647Y008422D01*
X006647Y008284D02*
X006733Y008198D01*
X006755Y008219D01*
X006755Y008263D01*
X006733Y008284D01*
X006647Y008284D01*
X006625Y008263D01*
X006625Y008219D01*
X006647Y008198D01*
X006733Y008198D01*
X006755Y008146D02*
X006755Y008059D01*
X006755Y008103D02*
X006625Y008103D01*
X006668Y008059D01*
X006690Y008612D02*
X006690Y008655D01*
X007275Y008612D02*
X007275Y008699D01*
X007340Y008655D02*
X007340Y008612D01*
X007340Y008561D02*
X007405Y008561D01*
X007405Y008612D02*
X007275Y008612D01*
X007340Y008561D02*
X007318Y008539D01*
X007318Y008474D01*
X007405Y008474D01*
X007383Y008422D02*
X007297Y008422D01*
X007383Y008336D01*
X007405Y008357D01*
X007405Y008401D01*
X007383Y008422D01*
X007383Y008336D02*
X007297Y008336D01*
X007275Y008357D01*
X007275Y008401D01*
X007297Y008422D01*
X007297Y008284D02*
X007383Y008198D01*
X007405Y008219D01*
X007405Y008263D01*
X007383Y008284D01*
X007297Y008284D01*
X007275Y008263D01*
X007275Y008219D01*
X007297Y008198D01*
X007383Y008198D01*
X007405Y008146D02*
X007405Y008059D01*
X007405Y008103D02*
X007275Y008103D01*
X007318Y008059D01*
X005451Y007955D02*
X005364Y007955D01*
X005364Y007825D01*
X005313Y007847D02*
X005291Y007825D01*
X005226Y007825D01*
X005226Y007782D02*
X005226Y007912D01*
X005291Y007912D01*
X005313Y007890D01*
X005313Y007847D01*
X005364Y007890D02*
X005408Y007890D01*
X005175Y007912D02*
X005175Y007933D01*
X005153Y007955D01*
X005110Y007955D01*
X005088Y007933D01*
X005037Y007933D02*
X005015Y007955D01*
X004972Y007955D01*
X004950Y007933D01*
X005037Y007933D02*
X005037Y007912D01*
X004950Y007825D01*
X005037Y007825D01*
X005088Y007825D02*
X005175Y007912D01*
X005175Y007825D02*
X005088Y007825D01*
X004699Y007955D02*
X004612Y007955D01*
X004612Y007825D01*
X004561Y007847D02*
X004539Y007825D01*
X004474Y007825D01*
X004474Y007782D02*
X004474Y007912D01*
X004539Y007912D01*
X004561Y007890D01*
X004561Y007847D01*
X004612Y007890D02*
X004655Y007890D01*
X004422Y007912D02*
X004422Y007933D01*
X004401Y007955D01*
X004357Y007955D01*
X004336Y007933D01*
X004284Y007933D02*
X004263Y007955D01*
X004219Y007955D01*
X004198Y007933D01*
X004284Y007933D02*
X004284Y007912D01*
X004198Y007825D01*
X004284Y007825D01*
X004336Y007825D02*
X004422Y007912D01*
X004422Y007825D02*
X004336Y007825D01*
X003141Y008480D02*
X003031Y008553D01*
X003141Y008626D01*
X003031Y008700D02*
X003031Y008480D01*
X002957Y008516D02*
X002920Y008480D01*
X002847Y008480D01*
X002810Y008516D01*
X002957Y008663D01*
X002957Y008516D01*
X002810Y008516D02*
X002810Y008663D01*
X002847Y008700D01*
X002920Y008700D01*
X002957Y008663D01*
X002736Y008480D02*
X002589Y008480D01*
X002663Y008480D02*
X002663Y008700D01*
X002589Y008626D01*
X001649Y008305D02*
X001562Y008305D01*
X001562Y008175D01*
X001511Y008175D02*
X001511Y008240D01*
X001489Y008262D01*
X001424Y008262D01*
X001424Y008175D01*
X001372Y008197D02*
X001372Y008283D01*
X001286Y008197D01*
X001307Y008175D01*
X001351Y008175D01*
X001372Y008197D01*
X001286Y008197D02*
X001286Y008283D01*
X001307Y008305D01*
X001351Y008305D01*
X001372Y008283D01*
X001234Y008283D02*
X001148Y008197D01*
X001169Y008175D01*
X001213Y008175D01*
X001234Y008197D01*
X001234Y008283D01*
X001213Y008305D01*
X001169Y008305D01*
X001148Y008283D01*
X001148Y008197D01*
X001096Y008175D02*
X001009Y008175D01*
X001053Y008175D02*
X001053Y008305D01*
X001009Y008262D01*
X001562Y008240D02*
X001605Y008240D01*
X004625Y004549D02*
X004625Y004462D01*
X004755Y004462D01*
X004755Y004411D02*
X004690Y004411D01*
X004668Y004389D01*
X004668Y004324D01*
X004755Y004324D01*
X004733Y004272D02*
X004755Y004251D01*
X004755Y004207D01*
X004733Y004186D01*
X004647Y004272D01*
X004733Y004272D01*
X004733Y004186D02*
X004647Y004186D01*
X004625Y004207D01*
X004625Y004251D01*
X004647Y004272D01*
X004647Y004134D02*
X004733Y004048D01*
X004755Y004069D01*
X004755Y004113D01*
X004733Y004134D01*
X004647Y004134D01*
X004625Y004113D01*
X004625Y004069D01*
X004647Y004048D01*
X004733Y004048D01*
X004755Y003996D02*
X004755Y003909D01*
X004755Y003953D02*
X004625Y003953D01*
X004668Y003909D01*
X004690Y004462D02*
X004690Y004505D01*
X009389Y005953D02*
X009425Y005916D01*
X009499Y005916D01*
X009535Y005953D01*
X009535Y005990D01*
X009499Y006026D01*
X009462Y006026D01*
X009499Y006026D02*
X009535Y006063D01*
X009535Y006100D01*
X009499Y006136D01*
X009425Y006136D01*
X009389Y006100D01*
X009610Y006100D02*
X009646Y006136D01*
X009720Y006136D01*
X009756Y006100D01*
X009756Y005953D01*
X009720Y005916D01*
X009646Y005916D01*
X009610Y005953D01*
X009646Y006026D02*
X009756Y006026D01*
X009831Y005990D02*
X009941Y006063D01*
X009831Y005990D02*
X009941Y005916D01*
X010015Y005843D02*
X010088Y005916D01*
X010052Y005916D01*
X010052Y005953D01*
X010088Y005953D01*
X010088Y005916D01*
X010162Y005916D02*
X010309Y005916D01*
X010236Y005916D02*
X010236Y006136D01*
X010162Y006063D01*
X010383Y006100D02*
X010383Y006136D01*
X010420Y006136D01*
X010420Y006100D01*
X010383Y006100D01*
X010383Y005916D02*
X010567Y006136D01*
X010567Y005953D02*
X010567Y005916D01*
X010530Y005916D01*
X010530Y005953D01*
X010567Y005953D01*
X009831Y005916D02*
X009831Y006136D01*
X009646Y006026D02*
X009610Y006063D01*
X009610Y006100D01*
X010043Y005155D02*
X010043Y005025D01*
X010000Y005025D02*
X010087Y005025D01*
X010138Y005047D02*
X010225Y005133D01*
X010225Y005047D01*
X010203Y005025D01*
X010160Y005025D01*
X010138Y005047D01*
X010138Y005133D01*
X010160Y005155D01*
X010203Y005155D01*
X010225Y005133D01*
X010276Y005133D02*
X010298Y005155D01*
X010341Y005155D01*
X010363Y005133D01*
X010276Y005047D01*
X010298Y005025D01*
X010341Y005025D01*
X010363Y005047D01*
X010363Y005133D01*
X010414Y005112D02*
X010479Y005112D01*
X010501Y005090D01*
X010501Y005025D01*
X010552Y005025D02*
X010552Y005155D01*
X010639Y005155D01*
X010596Y005090D02*
X010552Y005090D01*
X010414Y005112D02*
X010414Y005025D01*
X010276Y005047D02*
X010276Y005133D01*
X010043Y005155D02*
X010000Y005112D01*
X010328Y004169D02*
X010328Y003949D01*
X010401Y003949D02*
X010254Y003949D01*
X010254Y004096D02*
X010328Y004169D01*
X010475Y004133D02*
X010475Y003986D01*
X010622Y004133D01*
X010622Y003986D01*
X010585Y003949D01*
X010512Y003949D01*
X010475Y003986D01*
X010475Y004133D02*
X010512Y004169D01*
X010585Y004169D01*
X010622Y004133D01*
X010696Y004169D02*
X010696Y003949D01*
X010696Y004022D02*
X010806Y003949D01*
X010880Y003876D02*
X010954Y003949D01*
X010917Y003949D01*
X010917Y003986D01*
X010954Y003986D01*
X010954Y003949D01*
X011028Y003949D02*
X011174Y003949D01*
X011101Y003949D02*
X011101Y004169D01*
X011028Y004096D01*
X010806Y004096D02*
X010696Y004022D01*
X011249Y003949D02*
X011432Y004169D01*
X011285Y004169D02*
X011285Y004133D01*
X011249Y004133D01*
X011249Y004169D01*
X011285Y004169D01*
X011395Y003986D02*
X011432Y003986D01*
X011432Y003949D01*
X011395Y003949D01*
X011395Y003986D01*
X018223Y009483D02*
X018353Y009483D01*
X018353Y009440D02*
X018353Y009527D01*
X018332Y009578D02*
X018245Y009665D01*
X018332Y009665D01*
X018353Y009643D01*
X018353Y009600D01*
X018332Y009578D01*
X018245Y009578D01*
X018223Y009600D01*
X018223Y009643D01*
X018245Y009665D01*
X018245Y009716D02*
X018223Y009738D01*
X018223Y009781D01*
X018245Y009803D01*
X018332Y009716D01*
X018353Y009738D01*
X018353Y009781D01*
X018332Y009803D01*
X018245Y009803D01*
X018266Y009854D02*
X018266Y009919D01*
X018288Y009941D01*
X018353Y009941D01*
X018353Y009992D02*
X018223Y009992D01*
X018223Y010079D01*
X018288Y010036D02*
X018288Y009992D01*
X018266Y009854D02*
X018353Y009854D01*
X018332Y009716D02*
X018245Y009716D01*
X018223Y009483D02*
X018266Y009440D01*
X018242Y011392D02*
X018242Y011485D01*
X018296Y011462D02*
X018342Y011462D01*
X018296Y011392D02*
X018296Y011532D01*
X018389Y011532D01*
X018242Y011392D02*
X018172Y011392D01*
X018148Y011415D01*
X018148Y011485D01*
X018094Y011509D02*
X018071Y011532D01*
X018024Y011532D01*
X018001Y011509D01*
X018001Y011415D01*
X018094Y011509D01*
X018094Y011415D01*
X018071Y011392D01*
X018024Y011392D01*
X018001Y011415D01*
X017947Y011392D02*
X017854Y011392D01*
X017900Y011392D02*
X017900Y011532D01*
X017854Y011485D01*
X019944Y011528D02*
X019990Y011575D01*
X019990Y011435D01*
X019944Y011435D02*
X020037Y011435D01*
X020091Y011458D02*
X020184Y011551D01*
X020184Y011458D01*
X020161Y011435D01*
X020114Y011435D01*
X020091Y011458D01*
X020091Y011551D01*
X020114Y011575D01*
X020161Y011575D01*
X020184Y011551D01*
X020238Y011551D02*
X020262Y011575D01*
X020308Y011575D01*
X020332Y011551D01*
X020238Y011458D01*
X020262Y011435D01*
X020308Y011435D01*
X020332Y011458D01*
X020332Y011551D01*
X020385Y011575D02*
X020385Y011435D01*
X020385Y011481D02*
X020456Y011528D01*
X020385Y011481D02*
X020456Y011435D01*
X020238Y011458D02*
X020238Y011551D01*
X020201Y004279D02*
X020054Y004279D01*
X020054Y004058D01*
X019980Y004058D02*
X019980Y004205D01*
X020054Y004169D02*
X020127Y004169D01*
X019980Y004058D02*
X019870Y004058D01*
X019833Y004095D01*
X019833Y004205D01*
X019759Y004242D02*
X019612Y004095D01*
X019649Y004058D01*
X019722Y004058D01*
X019759Y004095D01*
X019759Y004242D01*
X019722Y004279D01*
X019649Y004279D01*
X019612Y004242D01*
X019612Y004095D01*
X019538Y004242D02*
X019391Y004095D01*
X019391Y004058D01*
X019280Y004058D02*
X019280Y004279D01*
X019170Y004169D01*
X019317Y004169D01*
X019391Y004279D02*
X019538Y004279D01*
X019538Y004242D01*
X020496Y004169D02*
X020606Y004169D01*
X020643Y004132D01*
X020643Y004095D01*
X020606Y004058D01*
X020533Y004058D01*
X020496Y004095D01*
X020496Y004169D01*
X020569Y004242D01*
X020643Y004279D01*
X020828Y004242D02*
X020864Y004279D01*
X020938Y004279D01*
X020974Y004242D01*
X020974Y004205D01*
X020938Y004169D01*
X020974Y004132D01*
X020974Y004095D01*
X020938Y004058D01*
X020864Y004058D01*
X020828Y004095D01*
X020754Y004095D02*
X020754Y004058D01*
X020717Y004058D01*
X020717Y004095D01*
X020754Y004095D01*
X020901Y004169D02*
X020938Y004169D01*
X021048Y004132D02*
X021048Y004279D01*
X021048Y004132D02*
X021122Y004058D01*
X021195Y004132D01*
X021195Y004279D01*
X021614Y003647D02*
X021614Y003553D01*
X021754Y003553D01*
X021754Y003500D02*
X021684Y003500D01*
X021661Y003476D01*
X021661Y003406D01*
X021754Y003406D01*
X021731Y003352D02*
X021754Y003329D01*
X021754Y003282D01*
X021731Y003259D01*
X021637Y003352D01*
X021731Y003352D01*
X021731Y003259D02*
X021637Y003259D01*
X021614Y003282D01*
X021614Y003329D01*
X021637Y003352D01*
X021637Y003205D02*
X021731Y003111D01*
X021754Y003135D01*
X021754Y003182D01*
X021731Y003205D01*
X021637Y003205D01*
X021614Y003182D01*
X021614Y003135D01*
X021637Y003111D01*
X021731Y003111D01*
X021754Y003058D02*
X021754Y002964D01*
X021754Y003011D02*
X021614Y003011D01*
X021661Y002964D01*
X021684Y003553D02*
X021684Y003600D01*
X022276Y003529D02*
X022276Y003435D01*
X022416Y003435D01*
X022416Y003381D02*
X022346Y003381D01*
X022323Y003358D01*
X022323Y003288D01*
X022416Y003288D01*
X022393Y003234D02*
X022416Y003211D01*
X022416Y003164D01*
X022393Y003141D01*
X022299Y003234D01*
X022393Y003234D01*
X022393Y003141D02*
X022299Y003141D01*
X022276Y003164D01*
X022276Y003211D01*
X022299Y003234D01*
X022299Y003087D02*
X022393Y002993D01*
X022416Y003017D01*
X022416Y003063D01*
X022393Y003087D01*
X022299Y003087D01*
X022276Y003063D01*
X022276Y003017D01*
X022299Y002993D01*
X022393Y002993D01*
X022416Y002939D02*
X022416Y002846D01*
X022416Y002893D02*
X022276Y002893D01*
X022323Y002846D01*
X022346Y003435D02*
X022346Y003482D01*
X022997Y003546D02*
X022997Y003639D01*
X023067Y003592D02*
X023067Y003546D01*
X023043Y003492D02*
X023137Y003492D01*
X023137Y003422D01*
X023113Y003398D01*
X023043Y003398D01*
X023020Y003344D02*
X023113Y003251D01*
X023137Y003274D01*
X023137Y003321D01*
X023113Y003344D01*
X023020Y003344D01*
X022997Y003321D01*
X022997Y003274D01*
X023020Y003251D01*
X023113Y003251D01*
X023137Y003197D02*
X023137Y003104D01*
X023137Y003150D02*
X022997Y003150D01*
X023043Y003104D01*
X022997Y003546D02*
X023137Y003546D01*
D17*
X008511Y004220D02*
X008511Y006840D01*
X008371Y006980D01*
X005751Y006980D01*
X005751Y004220D01*
X008511Y004220D01*
X008070Y006680D02*
X008072Y006703D01*
X008078Y006726D01*
X008087Y006747D01*
X008100Y006767D01*
X008116Y006784D01*
X008134Y006798D01*
X008154Y006809D01*
X008176Y006817D01*
X008199Y006821D01*
X008223Y006821D01*
X008246Y006817D01*
X008268Y006809D01*
X008288Y006798D01*
X008306Y006784D01*
X008322Y006767D01*
X008335Y006747D01*
X008344Y006726D01*
X008350Y006703D01*
X008352Y006680D01*
X008350Y006657D01*
X008344Y006634D01*
X008335Y006613D01*
X008322Y006593D01*
X008306Y006576D01*
X008288Y006562D01*
X008268Y006551D01*
X008246Y006543D01*
X008223Y006539D01*
X008199Y006539D01*
X008176Y006543D01*
X008154Y006551D01*
X008134Y006562D01*
X008116Y006576D01*
X008100Y006593D01*
X008087Y006613D01*
X008078Y006634D01*
X008072Y006657D01*
X008070Y006680D01*
D18*
X005865Y010226D02*
X005790Y010276D01*
X005865Y010326D01*
X005790Y010376D02*
X005790Y010226D01*
X005743Y010251D02*
X005718Y010226D01*
X005668Y010226D01*
X005643Y010251D01*
X005743Y010351D01*
X005743Y010251D01*
X005643Y010251D02*
X005643Y010351D01*
X005668Y010376D01*
X005718Y010376D01*
X005743Y010351D01*
X005596Y010226D02*
X005496Y010226D01*
X005546Y010226D02*
X005546Y010376D01*
X005496Y010326D01*
X005496Y011014D02*
X005596Y011014D01*
X005546Y011014D02*
X005546Y011164D01*
X005496Y011114D01*
X005643Y011139D02*
X005668Y011164D01*
X005718Y011164D01*
X005743Y011139D01*
X005643Y011039D01*
X005668Y011014D01*
X005718Y011014D01*
X005743Y011039D01*
X005743Y011139D01*
X005790Y011164D02*
X005790Y011014D01*
X005790Y011064D02*
X005865Y011014D01*
X005790Y011064D02*
X005865Y011114D01*
X005643Y011139D02*
X005643Y011039D01*
X005668Y011901D02*
X005643Y011926D01*
X005743Y012026D01*
X005743Y011926D01*
X005718Y011901D01*
X005668Y011901D01*
X005643Y011926D02*
X005643Y012026D01*
X005668Y012051D01*
X005718Y012051D01*
X005743Y012026D01*
X005790Y012051D02*
X005790Y011901D01*
X005790Y011951D02*
X005865Y012001D01*
X005790Y011951D02*
X005865Y011901D01*
X005596Y011901D02*
X005496Y011901D01*
X005546Y011901D02*
X005546Y012051D01*
X005496Y012001D01*
D19*
X005453Y014975D02*
X005453Y015606D01*
X005874Y015606D01*
X005663Y015290D02*
X005453Y015290D01*
X005229Y015395D02*
X005229Y014975D01*
X004914Y014975D01*
X004809Y015080D01*
X004809Y015395D01*
X004584Y015500D02*
X004584Y015080D01*
X004479Y014975D01*
X004269Y014975D01*
X004164Y015080D01*
X004584Y015500D01*
X004479Y015606D01*
X004269Y015606D01*
X004164Y015500D01*
X004164Y015080D01*
X003940Y015500D02*
X003520Y015080D01*
X003520Y014975D01*
X003190Y014975D02*
X003190Y015606D01*
X002875Y015290D01*
X003295Y015290D01*
X003520Y015606D02*
X003940Y015606D01*
X003940Y015500D01*
X003290Y016452D02*
X003290Y016872D01*
X003500Y017096D02*
X003605Y017096D01*
X003500Y017096D02*
X003080Y017517D01*
X002974Y017517D01*
X002974Y017096D01*
X002974Y016767D02*
X003290Y016452D01*
X003605Y016767D02*
X002974Y016767D01*
X003230Y017675D02*
X003440Y017675D01*
X003545Y017780D01*
X003500Y017741D02*
X003605Y017846D01*
X003605Y018056D01*
X003500Y018161D01*
X003080Y018161D01*
X003500Y017741D01*
X003080Y017741D01*
X002974Y017846D01*
X002974Y018056D01*
X003080Y018161D01*
X003125Y018200D02*
X003125Y017780D01*
X003230Y017675D01*
X003125Y018200D02*
X003230Y018306D01*
X003440Y018306D01*
X003545Y018200D01*
X003500Y018385D02*
X003605Y018491D01*
X003605Y018806D01*
X003185Y018806D01*
X003290Y019030D02*
X003290Y019240D01*
X003605Y019030D02*
X002974Y019030D01*
X002974Y019450D01*
X003290Y020319D02*
X003290Y020634D01*
X003395Y020739D01*
X003500Y020739D01*
X003605Y020634D01*
X003605Y020424D01*
X003500Y020319D01*
X003290Y020319D01*
X003080Y020529D01*
X002974Y020739D01*
X003080Y021286D02*
X002974Y021391D01*
X002974Y021601D01*
X003080Y021706D01*
X003185Y021706D01*
X003290Y021601D01*
X003395Y021706D01*
X003500Y021706D01*
X003605Y021601D01*
X003605Y021391D01*
X003500Y021286D01*
X003500Y021069D02*
X003605Y021069D01*
X003605Y020964D01*
X003500Y020964D01*
X003500Y021069D01*
X003290Y021496D02*
X003290Y021601D01*
X003395Y021930D02*
X002974Y021930D01*
X002974Y022351D02*
X003395Y022351D01*
X003605Y022141D01*
X003395Y021930D01*
X005674Y021996D02*
X005674Y021786D01*
X005780Y021680D01*
X005674Y021996D02*
X005780Y022101D01*
X005885Y022101D01*
X006305Y021680D01*
X006305Y022101D01*
X006305Y021456D02*
X006305Y021036D01*
X006305Y021246D02*
X005674Y021246D01*
X005885Y021036D01*
X005780Y020812D02*
X005674Y020707D01*
X005674Y020496D01*
X005780Y020391D01*
X006200Y020391D01*
X006305Y020496D01*
X006305Y020707D01*
X006200Y020812D01*
X004729Y018306D02*
X004519Y018306D01*
X004414Y018200D01*
X004414Y017780D01*
X004834Y018200D01*
X004834Y017780D01*
X004729Y017675D01*
X004519Y017675D01*
X004414Y017780D01*
X004190Y017675D02*
X003770Y017675D01*
X003980Y017675D02*
X003980Y018306D01*
X003770Y018095D01*
X003500Y018385D02*
X003185Y018385D01*
X004729Y018306D02*
X004834Y018200D01*
X006952Y015500D02*
X007163Y015606D01*
X006952Y015500D02*
X006742Y015290D01*
X007058Y015290D01*
X007163Y015185D01*
X007163Y015080D01*
X007058Y014975D01*
X006847Y014975D01*
X006742Y015080D01*
X006742Y015290D01*
X007387Y015080D02*
X007387Y014975D01*
X007492Y014975D01*
X007492Y015080D01*
X007387Y015080D01*
X007709Y015080D02*
X007814Y014975D01*
X008024Y014975D01*
X008129Y015080D01*
X008129Y015185D01*
X008024Y015290D01*
X007919Y015290D01*
X008024Y015290D02*
X008129Y015395D01*
X008129Y015500D01*
X008024Y015606D01*
X007814Y015606D01*
X007709Y015500D01*
X008354Y015606D02*
X008354Y015185D01*
X008564Y014975D01*
X008774Y015185D01*
X008774Y015606D01*
X009425Y016180D02*
X009530Y016075D01*
X009740Y016075D01*
X009845Y016180D01*
X010070Y016180D02*
X010070Y016390D01*
X010385Y016390D01*
X010490Y016285D01*
X010490Y016180D01*
X010385Y016075D01*
X010175Y016075D01*
X010070Y016180D01*
X010070Y016390D02*
X010280Y016600D01*
X010490Y016706D01*
X009845Y016600D02*
X009740Y016706D01*
X009530Y016706D01*
X009425Y016600D01*
X009425Y016180D01*
X009490Y014006D02*
X009175Y013690D01*
X009595Y013690D01*
X009820Y013480D02*
X009820Y013375D01*
X009820Y013480D02*
X010240Y013900D01*
X010240Y014006D01*
X009820Y014006D01*
X009490Y014006D02*
X009490Y013375D01*
X010464Y013480D02*
X010569Y013375D01*
X010779Y013375D01*
X010884Y013480D01*
X010884Y013900D01*
X010464Y013480D01*
X010464Y013900D01*
X010569Y014006D01*
X010779Y014006D01*
X010884Y013900D01*
X011109Y013795D02*
X011109Y013480D01*
X011214Y013375D01*
X011529Y013375D01*
X011529Y013795D01*
X011753Y013690D02*
X011963Y013690D01*
X011753Y013375D02*
X011753Y014006D01*
X012174Y014006D01*
X013042Y013690D02*
X013042Y013480D01*
X013147Y013375D01*
X013358Y013375D01*
X013463Y013480D01*
X013463Y013585D01*
X013358Y013690D01*
X013042Y013690D01*
X013252Y013900D01*
X013463Y014006D01*
X014009Y013900D02*
X014114Y014006D01*
X014324Y014006D01*
X014429Y013900D01*
X014429Y013795D01*
X014324Y013690D01*
X014429Y013585D01*
X014429Y013480D01*
X014324Y013375D01*
X014114Y013375D01*
X014009Y013480D01*
X013792Y013480D02*
X013792Y013375D01*
X013687Y013375D01*
X013687Y013480D01*
X013792Y013480D01*
X014219Y013690D02*
X014324Y013690D01*
X014654Y013585D02*
X014864Y013375D01*
X015074Y013585D01*
X015074Y014006D01*
X014654Y014006D02*
X014654Y013585D01*
D20*
X006140Y014860D03*
M02*
