G75*
%MOIN*%
%OFA0B0*%
%FSLAX24Y24*%
%IPPOS*%
%LPD*%
%AMOC8*
5,1,8,0,0,1.08239X$1,22.5*
%
%ADD10R,0.1181X0.1181*%
%ADD11C,0.1000*%
%ADD12C,0.0740*%
%ADD13C,0.1181*%
%ADD14C,0.0709*%
%ADD15C,0.0515*%
%ADD16C,0.0080*%
%ADD17C,0.0278*%
%ADD18C,0.0060*%
%ADD19C,0.0280*%
%ADD20C,0.0039*%
%ADD21C,0.0079*%
D10*
X007200Y019799D03*
X007594Y019799D03*
X015887Y019799D03*
X016281Y019799D03*
D11*
X007621Y010575D03*
X007621Y008804D03*
X005653Y008804D03*
X005653Y010575D03*
X003684Y010575D03*
X003684Y008804D03*
X003684Y006835D03*
X003684Y004867D03*
X003684Y003095D03*
X003684Y001323D03*
X005653Y001323D03*
X005653Y003095D03*
X005653Y004867D03*
X007621Y004867D03*
X007621Y003095D03*
X007621Y001323D03*
X007621Y006835D03*
X005653Y006835D03*
D12*
X001265Y007717D03*
X001165Y006717D03*
X001165Y008717D03*
X001265Y009717D03*
X001165Y010717D03*
X001265Y011717D03*
D13*
X011558Y022386D03*
X007119Y022595D03*
D14*
X011491Y020642D03*
X013475Y020642D03*
D15*
X011205Y016744D03*
X009512Y016745D03*
X003207Y020965D03*
X003207Y022933D03*
D16*
X003537Y000692D02*
X000729Y000692D01*
X000651Y000770D02*
X003347Y000770D01*
X003322Y000781D02*
X003557Y000683D01*
X003812Y000683D01*
X004047Y000781D01*
X004227Y000961D01*
X004324Y001196D01*
X004324Y001451D01*
X004227Y001686D01*
X004047Y001866D01*
X003812Y001963D01*
X003796Y001963D01*
X003767Y001992D01*
X003767Y002088D01*
X003725Y002190D01*
X003646Y002269D01*
X003543Y002312D01*
X003432Y002312D01*
X003329Y002269D01*
X003250Y002190D01*
X003207Y002088D01*
X003207Y001976D01*
X003250Y001873D01*
X003290Y001834D01*
X003142Y001686D01*
X003044Y001451D01*
X003044Y001196D01*
X003142Y000961D01*
X003322Y000781D01*
X003254Y000849D02*
X000574Y000849D01*
X000577Y000843D02*
X000390Y001168D01*
X000293Y001530D01*
X000281Y001717D01*
X000281Y021796D01*
X000293Y021983D01*
X000390Y022345D01*
X000577Y022669D01*
X000842Y022934D01*
X001167Y023121D01*
X001528Y023218D01*
X001716Y023230D01*
X002942Y023230D01*
X002870Y023159D01*
X002810Y023013D01*
X002810Y022854D01*
X002870Y022708D01*
X002982Y022596D01*
X003128Y022536D01*
X003286Y022536D01*
X003432Y022596D01*
X003544Y022708D01*
X003605Y022854D01*
X003605Y023013D01*
X003544Y023159D01*
X003472Y023230D01*
X006745Y023230D01*
X006705Y023214D01*
X006500Y023009D01*
X006389Y022740D01*
X006389Y022450D01*
X006500Y022181D01*
X006705Y021976D01*
X006974Y021864D01*
X007265Y021864D01*
X007533Y021976D01*
X007739Y022181D01*
X007850Y022450D01*
X007850Y022740D01*
X007739Y023009D01*
X007533Y023214D01*
X007494Y023230D01*
X021794Y023230D01*
X021982Y023218D01*
X022344Y023121D01*
X022668Y022934D01*
X022933Y022669D01*
X023120Y022345D01*
X023217Y021983D01*
X023229Y021796D01*
X023229Y021738D01*
X023229Y021738D01*
X023249Y011760D01*
X023249Y011760D01*
X023224Y011820D01*
X023145Y011898D01*
X023043Y011941D01*
X022932Y011941D01*
X022829Y011898D01*
X022752Y011821D01*
X022279Y011821D01*
X022279Y011984D01*
X022180Y012084D01*
X022180Y012084D01*
X015075Y019189D01*
X014975Y019289D01*
X012454Y019289D01*
X012439Y019303D01*
X015157Y019303D01*
X015157Y019150D01*
X015239Y019068D01*
X016930Y019068D01*
X017012Y019150D01*
X017012Y020447D01*
X016930Y020529D01*
X015239Y020529D01*
X015157Y020447D01*
X015157Y019643D01*
X012157Y019643D01*
X012058Y019543D01*
X011567Y019052D01*
X011204Y019052D01*
X011208Y019063D01*
X011208Y019174D01*
X011166Y019277D01*
X011087Y019356D01*
X010984Y019399D01*
X010873Y019399D01*
X010770Y019356D01*
X010702Y019289D01*
X010145Y019289D01*
X010145Y019292D01*
X010103Y019395D01*
X010024Y019474D01*
X009921Y019517D01*
X009810Y019517D01*
X009707Y019474D01*
X009628Y019395D01*
X009585Y019292D01*
X009585Y019181D01*
X009587Y019177D01*
X009527Y019202D01*
X009416Y019202D01*
X009313Y019159D01*
X009234Y019080D01*
X009192Y018977D01*
X009192Y018866D01*
X009234Y018763D01*
X009313Y018684D01*
X009416Y018642D01*
X009511Y018642D01*
X009691Y018462D01*
X009383Y018462D01*
X009315Y018529D01*
X009212Y018572D01*
X009101Y018572D01*
X008998Y018529D01*
X008919Y018450D01*
X008877Y018347D01*
X008877Y018296D01*
X008825Y018296D01*
X008722Y018254D01*
X008644Y018175D01*
X008601Y018072D01*
X008601Y017960D01*
X008644Y017858D01*
X008722Y017779D01*
X008825Y017736D01*
X008937Y017736D01*
X009040Y017779D01*
X009107Y017846D01*
X010149Y017846D01*
X010176Y017820D01*
X010176Y017724D01*
X010180Y017714D01*
X006173Y017714D01*
X004826Y016367D01*
X004731Y016367D01*
X004628Y016324D01*
X004549Y016246D01*
X004507Y016143D01*
X004507Y016031D01*
X004549Y015928D01*
X004603Y015874D01*
X004549Y015852D01*
X004482Y015785D01*
X000385Y015785D01*
X000286Y015685D01*
X000286Y006371D01*
X000385Y006271D01*
X000819Y005838D01*
X004008Y005838D01*
X005013Y004833D01*
X005013Y004739D01*
X005110Y004504D01*
X005290Y004324D01*
X005525Y004227D01*
X005780Y004227D01*
X006015Y004324D01*
X006195Y004504D01*
X006293Y004739D01*
X006293Y004994D01*
X006195Y005229D01*
X006015Y005409D01*
X005780Y005507D01*
X005525Y005507D01*
X005290Y005409D01*
X005110Y005229D01*
X005106Y005220D01*
X004248Y006079D01*
X004148Y006178D01*
X000959Y006178D01*
X000626Y006512D01*
X000626Y011464D01*
X000700Y011389D01*
X001015Y011074D01*
X001252Y011074D01*
X002748Y009578D01*
X003952Y009578D01*
X003991Y009618D01*
X004494Y009618D01*
X004135Y009258D01*
X004047Y009346D01*
X003812Y009444D01*
X003557Y009444D01*
X003322Y009346D01*
X003142Y009166D01*
X003044Y008931D01*
X003044Y008676D01*
X003142Y008441D01*
X003322Y008261D01*
X003557Y008164D01*
X003812Y008164D01*
X004047Y008261D01*
X004227Y008441D01*
X004324Y008676D01*
X004324Y008931D01*
X004314Y008956D01*
X004673Y009316D01*
X004707Y009235D01*
X004785Y009157D01*
X004888Y009114D01*
X004984Y009114D01*
X005058Y009040D01*
X005013Y008931D01*
X005013Y008676D01*
X005110Y008441D01*
X005290Y008261D01*
X005525Y008164D01*
X005780Y008164D01*
X006015Y008261D01*
X006195Y008441D01*
X006293Y008676D01*
X006293Y008931D01*
X006195Y009166D01*
X006050Y009311D01*
X006142Y009311D01*
X006244Y009354D01*
X006323Y009432D01*
X006366Y009535D01*
X006366Y009578D01*
X008441Y009578D01*
X008404Y009489D01*
X008404Y009394D01*
X008168Y009157D01*
X008164Y009166D01*
X007984Y009346D01*
X007749Y009444D01*
X007494Y009444D01*
X007259Y009346D01*
X007079Y009166D01*
X006981Y008931D01*
X006981Y008837D01*
X006291Y008147D01*
X002298Y008147D01*
X001675Y008770D01*
X001675Y008818D01*
X001597Y009006D01*
X001453Y009149D01*
X001314Y009207D01*
X001366Y009207D01*
X001553Y009285D01*
X001697Y009428D01*
X001775Y009615D01*
X001775Y009818D01*
X001697Y010006D01*
X001553Y010149D01*
X001366Y010227D01*
X001163Y010227D01*
X000976Y010149D01*
X000832Y010006D01*
X000755Y009818D01*
X000755Y009615D01*
X000832Y009428D01*
X000976Y009285D01*
X001115Y009227D01*
X001063Y009227D01*
X000876Y009149D01*
X000732Y009006D01*
X000655Y008818D01*
X000655Y008615D01*
X000732Y008428D01*
X000876Y008285D01*
X001063Y008207D01*
X001115Y008207D01*
X000976Y008149D01*
X000832Y008006D01*
X000755Y007818D01*
X000755Y007615D01*
X000832Y007428D01*
X000976Y007285D01*
X001115Y007227D01*
X001063Y007227D01*
X000876Y007149D01*
X000732Y007006D01*
X000655Y006818D01*
X000655Y006615D01*
X000732Y006428D01*
X000876Y006285D01*
X001063Y006207D01*
X001266Y006207D01*
X001453Y006285D01*
X001597Y006428D01*
X001675Y006615D01*
X001675Y006818D01*
X001597Y007006D01*
X001453Y007149D01*
X001314Y007207D01*
X001366Y007207D01*
X001553Y007285D01*
X001630Y007361D01*
X001636Y007346D01*
X001715Y007267D01*
X001818Y007224D01*
X001929Y007224D01*
X002032Y007267D01*
X002099Y007334D01*
X002511Y007334D01*
X003044Y006802D01*
X003044Y006708D01*
X003142Y006473D01*
X003322Y006292D01*
X003557Y006195D01*
X003812Y006195D01*
X004047Y006292D01*
X004227Y006473D01*
X004324Y006708D01*
X004324Y006962D01*
X004227Y007198D01*
X004047Y007378D01*
X003812Y007475D01*
X003557Y007475D01*
X003322Y007378D01*
X003142Y007198D01*
X003138Y007189D01*
X002756Y007571D01*
X005613Y007571D01*
X005609Y007560D01*
X005609Y007475D01*
X005525Y007475D01*
X005290Y007378D01*
X005110Y007198D01*
X005013Y006962D01*
X005013Y006708D01*
X005110Y006473D01*
X005290Y006292D01*
X005384Y006254D01*
X005337Y006206D01*
X005294Y006103D01*
X005294Y005992D01*
X005337Y005889D01*
X005415Y005810D01*
X005518Y005768D01*
X005614Y005768D01*
X005837Y005544D01*
X005937Y005445D01*
X006370Y005445D01*
X006981Y004833D01*
X006981Y004739D01*
X007079Y004504D01*
X007259Y004324D01*
X007494Y004227D01*
X007749Y004227D01*
X007984Y004324D01*
X008164Y004504D01*
X008261Y004739D01*
X008261Y004994D01*
X008164Y005229D01*
X007984Y005409D01*
X007749Y005507D01*
X007494Y005507D01*
X007259Y005409D01*
X007079Y005229D01*
X007075Y005220D01*
X006511Y005785D01*
X006078Y005785D01*
X005854Y006008D01*
X005854Y006103D01*
X005811Y006206D01*
X005810Y006207D01*
X006015Y006292D01*
X006195Y006473D01*
X006293Y006708D01*
X006293Y006962D01*
X006195Y007198D01*
X006087Y007306D01*
X006126Y007346D01*
X006169Y007449D01*
X006169Y007560D01*
X006165Y007571D01*
X006212Y007571D01*
X006981Y006802D01*
X006981Y006708D01*
X007079Y006473D01*
X007259Y006292D01*
X007494Y006195D01*
X007749Y006195D01*
X007984Y006292D01*
X008164Y006473D01*
X008261Y006708D01*
X008261Y006962D01*
X008164Y007198D01*
X008145Y007216D01*
X008174Y007228D01*
X008252Y007306D01*
X008295Y007409D01*
X008295Y007521D01*
X015081Y007521D01*
X015159Y007443D02*
X008295Y007443D01*
X008295Y007521D02*
X008252Y007624D01*
X008174Y007702D01*
X008071Y007745D01*
X007959Y007745D01*
X007856Y007702D01*
X007778Y007624D01*
X007735Y007521D01*
X006742Y007521D01*
X006664Y007600D02*
X007768Y007600D01*
X007735Y007521D02*
X007735Y007475D01*
X007494Y007475D01*
X007259Y007378D01*
X007079Y007198D01*
X007075Y007189D01*
X006444Y007819D01*
X007075Y008450D01*
X007079Y008441D01*
X007259Y008261D01*
X007494Y008164D01*
X007749Y008164D01*
X007984Y008261D01*
X008164Y008441D01*
X008261Y008676D01*
X008261Y008770D01*
X008645Y009153D01*
X008740Y009153D01*
X008843Y009196D01*
X008922Y009275D01*
X008964Y009378D01*
X008964Y009489D01*
X008927Y009578D01*
X011479Y009578D01*
X011475Y009568D01*
X011475Y009457D01*
X011518Y009354D01*
X011597Y009275D01*
X011699Y009232D01*
X011811Y009232D01*
X011914Y009275D01*
X011981Y009342D01*
X013260Y009342D01*
X020018Y002583D01*
X020018Y002488D01*
X020061Y002385D01*
X020140Y002306D01*
X020243Y002264D01*
X020354Y002264D01*
X020457Y002306D01*
X020536Y002385D01*
X020578Y002488D01*
X020578Y002599D01*
X020536Y002702D01*
X020457Y002781D01*
X020354Y002824D01*
X020259Y002824D01*
X013504Y009578D01*
X018535Y009578D01*
X020018Y008095D01*
X020018Y008000D01*
X020061Y007897D01*
X020140Y007818D01*
X020243Y007776D01*
X020354Y007776D01*
X020457Y007818D01*
X020536Y007897D01*
X020578Y008000D01*
X020578Y008111D01*
X020536Y008214D01*
X020457Y008293D01*
X020354Y008336D01*
X020259Y008336D01*
X018776Y009819D01*
X018676Y009918D01*
X006353Y009918D01*
X006274Y009997D01*
X005930Y009997D01*
X006015Y010033D01*
X006195Y010213D01*
X006293Y010448D01*
X006293Y010542D01*
X007182Y011431D01*
X007144Y011340D01*
X007144Y011228D01*
X007187Y011125D01*
X007227Y011086D01*
X007079Y010938D01*
X006981Y010703D01*
X006981Y010448D01*
X007079Y010213D01*
X007259Y010033D01*
X007494Y009935D01*
X007749Y009935D01*
X007984Y010033D01*
X023252Y010033D01*
X023252Y009955D02*
X007796Y009955D01*
X007984Y010033D02*
X008164Y010213D01*
X008261Y010448D01*
X008261Y010703D01*
X008164Y010938D01*
X007984Y011118D01*
X007749Y011215D01*
X007733Y011215D01*
X007704Y011244D01*
X007704Y011340D01*
X007662Y011442D01*
X007583Y011521D01*
X007480Y011564D01*
X007369Y011564D01*
X007277Y011526D01*
X007810Y012059D01*
X013282Y012059D01*
X013515Y012292D01*
X013526Y012267D01*
X013604Y012188D01*
X013707Y012146D01*
X013819Y012146D01*
X013922Y012188D01*
X013989Y012256D01*
X018958Y012256D01*
X018948Y012245D01*
X018905Y012143D01*
X018905Y012031D01*
X018948Y011929D01*
X019026Y011850D01*
X019129Y011808D01*
X019240Y011808D01*
X019342Y011850D01*
X019398Y011906D01*
X019497Y011905D01*
X019497Y010818D01*
X019440Y010761D01*
X019397Y010658D01*
X019397Y010547D01*
X019440Y010445D01*
X019518Y010366D01*
X019621Y010324D01*
X019732Y010324D01*
X019834Y010366D01*
X019913Y010445D01*
X019955Y010547D01*
X019955Y010658D01*
X019913Y010761D01*
X019856Y010818D01*
X019856Y012082D01*
X019856Y012156D01*
X019856Y012157D01*
X019804Y012209D01*
X019758Y012256D01*
X020702Y012256D01*
X020770Y012188D01*
X020873Y012146D01*
X020984Y012146D01*
X021087Y012188D01*
X021166Y012267D01*
X021208Y012370D01*
X021208Y012481D01*
X021166Y012584D01*
X021087Y012663D01*
X020984Y012706D01*
X020873Y012706D01*
X020770Y012663D01*
X020702Y012596D01*
X013989Y012596D01*
X013922Y012663D01*
X013897Y012673D01*
X014463Y013240D01*
X017101Y013240D01*
X017692Y013830D01*
X017791Y013930D01*
X017791Y014937D01*
X017692Y015037D01*
X017611Y015037D01*
X017544Y015104D01*
X017441Y015147D01*
X017329Y015147D01*
X017226Y015104D01*
X017193Y015070D01*
X017193Y015119D01*
X017150Y015222D01*
X017071Y015301D01*
X016968Y015343D01*
X016873Y015343D01*
X015311Y016905D01*
X015311Y017239D01*
X015378Y017306D01*
X015421Y017409D01*
X015421Y017521D01*
X015378Y017624D01*
X015300Y017702D01*
X015197Y017745D01*
X015085Y017745D01*
X014982Y017702D01*
X014904Y017624D01*
X014861Y017521D01*
X014861Y017409D01*
X014904Y017306D01*
X014971Y017239D01*
X014971Y017049D01*
X014278Y017741D01*
X014278Y017835D01*
X014236Y017938D01*
X014157Y018016D01*
X014055Y018059D01*
X013944Y018059D01*
X013841Y018016D01*
X013763Y017938D01*
X013740Y017884D01*
X013198Y018533D01*
X013198Y018540D01*
X013153Y018587D01*
X013112Y018636D01*
X013105Y018637D01*
X013100Y018642D01*
X013036Y018643D01*
X012972Y018648D01*
X012966Y018644D01*
X011116Y018676D01*
X011130Y018708D01*
X011130Y018712D01*
X011707Y018712D01*
X011807Y018812D01*
X011980Y018985D01*
X011990Y018960D01*
X012069Y018881D01*
X012172Y018839D01*
X012283Y018839D01*
X012386Y018881D01*
X012454Y018949D01*
X014834Y018949D01*
X021939Y011843D01*
X021939Y011823D01*
X021933Y011840D01*
X021854Y011918D01*
X021752Y011961D01*
X021641Y011961D01*
X021538Y011918D01*
X021459Y011840D01*
X021417Y011737D01*
X021417Y011626D01*
X021459Y011523D01*
X021538Y011445D01*
X021641Y011402D01*
X021752Y011402D01*
X021854Y011445D01*
X021911Y011502D01*
X022029Y011502D01*
X022039Y011492D01*
X022180Y011492D01*
X022190Y011502D01*
X022752Y011502D01*
X022829Y011425D01*
X022932Y011383D01*
X023043Y011383D01*
X023145Y011425D01*
X023224Y011504D01*
X023249Y011565D01*
X023259Y006744D01*
X021445Y006744D01*
X021445Y004744D01*
X023263Y004744D01*
X023269Y001642D01*
X023250Y001459D01*
X023140Y001106D01*
X022944Y000793D01*
X022672Y000542D01*
X022345Y000369D01*
X021985Y000287D01*
X021803Y000282D01*
X021797Y000282D01*
X021742Y000284D01*
X021740Y000282D01*
X001716Y000282D01*
X001528Y000294D01*
X001167Y000391D01*
X000842Y000579D01*
X000577Y000843D01*
X000529Y000927D02*
X003175Y000927D01*
X003123Y001006D02*
X000484Y001006D01*
X000439Y001084D02*
X003091Y001084D01*
X003058Y001163D02*
X000393Y001163D01*
X000371Y001241D02*
X003044Y001241D01*
X003044Y001320D02*
X000349Y001320D01*
X000328Y001398D02*
X003044Y001398D01*
X003055Y001477D02*
X000307Y001477D01*
X000292Y001555D02*
X003088Y001555D01*
X003120Y001634D02*
X000286Y001634D01*
X000281Y001712D02*
X003168Y001712D01*
X003247Y001791D02*
X000281Y001791D01*
X000281Y001869D02*
X003254Y001869D01*
X003219Y001948D02*
X000281Y001948D01*
X000281Y002026D02*
X003207Y002026D01*
X003214Y002105D02*
X000281Y002105D01*
X000281Y002183D02*
X003247Y002183D01*
X003321Y002262D02*
X000281Y002262D01*
X000281Y002340D02*
X005695Y002340D01*
X005773Y002262D02*
X003654Y002262D01*
X003728Y002183D02*
X005798Y002183D01*
X005798Y002179D02*
X005730Y002112D01*
X005688Y002009D01*
X005688Y001897D01*
X005730Y001795D01*
X005809Y001716D01*
X005912Y001673D01*
X006023Y001673D01*
X006126Y001716D01*
X006205Y001795D01*
X006248Y001897D01*
X006248Y002009D01*
X006205Y002112D01*
X006138Y002179D01*
X006138Y002378D01*
X006038Y002477D01*
X005979Y002537D01*
X006015Y002552D01*
X006195Y002732D01*
X006293Y002968D01*
X006981Y002968D01*
X007079Y002732D01*
X007097Y002714D01*
X007069Y002702D01*
X006990Y002624D01*
X006948Y002521D01*
X006948Y002409D01*
X006990Y002306D01*
X007069Y002228D01*
X007172Y002185D01*
X007283Y002185D01*
X007386Y002228D01*
X007465Y002306D01*
X007508Y002409D01*
X007508Y002455D01*
X007749Y002455D01*
X007984Y002552D01*
X008164Y002732D01*
X008261Y002968D01*
X019634Y002968D01*
X019712Y002890D02*
X008229Y002890D01*
X008261Y002968D02*
X008261Y003004D01*
X009503Y003004D01*
X010219Y003720D01*
X010315Y003720D01*
X010418Y003763D01*
X010496Y003842D01*
X010539Y003945D01*
X010539Y004056D01*
X010496Y004159D01*
X010418Y004238D01*
X010315Y004280D01*
X010203Y004280D01*
X010100Y004238D01*
X010022Y004159D01*
X009979Y004056D01*
X009979Y003961D01*
X009362Y003344D01*
X008211Y003344D01*
X008164Y003457D01*
X007984Y003637D01*
X007749Y003735D01*
X007494Y003735D01*
X007259Y003637D01*
X007079Y003457D01*
X006981Y003222D01*
X006981Y002968D01*
X006981Y003047D02*
X006293Y003047D01*
X006293Y003125D02*
X006981Y003125D01*
X006981Y003204D02*
X006293Y003204D01*
X006293Y003222D02*
X006195Y003457D01*
X006015Y003637D01*
X005780Y003735D01*
X005525Y003735D01*
X005290Y003637D01*
X005110Y003457D01*
X005013Y003222D01*
X005013Y002968D01*
X004611Y002968D01*
X004591Y003017D02*
X004512Y003096D01*
X004409Y003139D01*
X004324Y003139D01*
X004324Y003222D01*
X004227Y003457D01*
X004047Y003637D01*
X003812Y003735D01*
X003557Y003735D01*
X003322Y003637D01*
X003142Y003457D01*
X003044Y003222D01*
X003044Y002968D01*
X000281Y002968D01*
X000281Y002890D02*
X003077Y002890D01*
X003044Y002968D02*
X003142Y002732D01*
X003322Y002552D01*
X003557Y002455D01*
X003812Y002455D01*
X004047Y002552D01*
X004155Y002661D01*
X004195Y002621D01*
X004298Y002579D01*
X004409Y002579D01*
X004512Y002621D01*
X004591Y002700D01*
X004634Y002803D01*
X004634Y002914D01*
X004591Y003017D01*
X004562Y003047D02*
X005013Y003047D01*
X005013Y003125D02*
X004442Y003125D01*
X004324Y003204D02*
X005013Y003204D01*
X005038Y003282D02*
X004299Y003282D01*
X004267Y003361D02*
X005070Y003361D01*
X005103Y003439D02*
X004234Y003439D01*
X004167Y003518D02*
X005170Y003518D01*
X005249Y003596D02*
X004088Y003596D01*
X003957Y003675D02*
X005380Y003675D01*
X005926Y003675D02*
X007349Y003675D01*
X007217Y003596D02*
X006057Y003596D01*
X006135Y003518D02*
X007139Y003518D01*
X007071Y003439D02*
X006203Y003439D01*
X006235Y003361D02*
X007039Y003361D01*
X007006Y003282D02*
X006268Y003282D01*
X006293Y003222D02*
X006293Y002968D01*
X006260Y002890D02*
X007014Y002890D01*
X007046Y002811D02*
X006228Y002811D01*
X006195Y002733D02*
X007079Y002733D01*
X007021Y002654D02*
X006117Y002654D01*
X006039Y002576D02*
X006970Y002576D01*
X006948Y002497D02*
X006018Y002497D01*
X006097Y002419D02*
X006948Y002419D01*
X006976Y002340D02*
X006138Y002340D01*
X006138Y002262D02*
X007035Y002262D01*
X007420Y002262D02*
X023267Y002262D01*
X023267Y002340D02*
X020491Y002340D01*
X020550Y002419D02*
X023267Y002419D01*
X023267Y002497D02*
X020578Y002497D01*
X020578Y002576D02*
X023267Y002576D01*
X023267Y002654D02*
X020556Y002654D01*
X020505Y002733D02*
X023267Y002733D01*
X023266Y002811D02*
X020384Y002811D01*
X020193Y002890D02*
X023266Y002890D01*
X023266Y002968D02*
X020114Y002968D01*
X020036Y003047D02*
X023266Y003047D01*
X023266Y003125D02*
X019957Y003125D01*
X019879Y003204D02*
X023266Y003204D01*
X023265Y003282D02*
X019800Y003282D01*
X019722Y003361D02*
X023265Y003361D01*
X023265Y003439D02*
X019643Y003439D01*
X019565Y003518D02*
X023265Y003518D01*
X023265Y003596D02*
X019486Y003596D01*
X019408Y003675D02*
X023265Y003675D01*
X023265Y003753D02*
X019329Y003753D01*
X019251Y003832D02*
X023264Y003832D01*
X023264Y003910D02*
X019172Y003910D01*
X019094Y003989D02*
X023264Y003989D01*
X023264Y004067D02*
X019015Y004067D01*
X018937Y004146D02*
X023264Y004146D01*
X023264Y004224D02*
X018858Y004224D01*
X018780Y004303D02*
X023263Y004303D01*
X023263Y004381D02*
X018701Y004381D01*
X018623Y004460D02*
X023263Y004460D01*
X023263Y004538D02*
X018544Y004538D01*
X018466Y004617D02*
X023263Y004617D01*
X023263Y004695D02*
X018387Y004695D01*
X018309Y004774D02*
X021445Y004774D01*
X021445Y004852D02*
X018230Y004852D01*
X018152Y004931D02*
X021445Y004931D01*
X021445Y005009D02*
X018073Y005009D01*
X017995Y005088D02*
X021445Y005088D01*
X021445Y005166D02*
X017916Y005166D01*
X017838Y005245D02*
X021445Y005245D01*
X021445Y005323D02*
X017759Y005323D01*
X017681Y005402D02*
X021445Y005402D01*
X021445Y005480D02*
X017602Y005480D01*
X017524Y005559D02*
X021445Y005559D01*
X021445Y005637D02*
X017445Y005637D01*
X017367Y005716D02*
X021445Y005716D01*
X021445Y005794D02*
X017288Y005794D01*
X017210Y005873D02*
X021445Y005873D01*
X021445Y005951D02*
X017131Y005951D01*
X017053Y006030D02*
X021445Y006030D01*
X021445Y006108D02*
X016974Y006108D01*
X016896Y006187D02*
X021445Y006187D01*
X021445Y006265D02*
X016817Y006265D01*
X016739Y006344D02*
X021445Y006344D01*
X021445Y006422D02*
X016660Y006422D01*
X016582Y006501D02*
X021445Y006501D01*
X021445Y006579D02*
X016503Y006579D01*
X016425Y006658D02*
X021445Y006658D01*
X021445Y006736D02*
X016346Y006736D01*
X016268Y006815D02*
X023259Y006815D01*
X023258Y006893D02*
X016189Y006893D01*
X016111Y006972D02*
X023258Y006972D01*
X023258Y007050D02*
X016032Y007050D01*
X015954Y007129D02*
X023258Y007129D01*
X023258Y007207D02*
X015875Y007207D01*
X015797Y007286D02*
X023258Y007286D01*
X023257Y007364D02*
X015718Y007364D01*
X015640Y007443D02*
X023257Y007443D01*
X023257Y007521D02*
X015561Y007521D01*
X015483Y007600D02*
X023257Y007600D01*
X023257Y007678D02*
X015404Y007678D01*
X015326Y007757D02*
X023257Y007757D01*
X023257Y007835D02*
X020474Y007835D01*
X020543Y007914D02*
X023256Y007914D01*
X023256Y007992D02*
X020575Y007992D01*
X020578Y008071D02*
X023256Y008071D01*
X023256Y008149D02*
X020563Y008149D01*
X020522Y008228D02*
X023256Y008228D01*
X023256Y008306D02*
X020425Y008306D01*
X020210Y008385D02*
X023255Y008385D01*
X023255Y008463D02*
X020131Y008463D01*
X020053Y008542D02*
X023255Y008542D01*
X023255Y008620D02*
X019974Y008620D01*
X019896Y008699D02*
X023255Y008699D01*
X023255Y008777D02*
X019817Y008777D01*
X019739Y008856D02*
X023255Y008856D01*
X023254Y008934D02*
X019660Y008934D01*
X019582Y009013D02*
X023254Y009013D01*
X023254Y009091D02*
X019503Y009091D01*
X019425Y009170D02*
X023254Y009170D01*
X023254Y009248D02*
X019346Y009248D01*
X019268Y009327D02*
X023254Y009327D01*
X023253Y009405D02*
X019189Y009405D01*
X019111Y009484D02*
X023253Y009484D01*
X023253Y009562D02*
X019032Y009562D01*
X018954Y009641D02*
X023253Y009641D01*
X023253Y009719D02*
X018875Y009719D01*
X018797Y009798D02*
X023253Y009798D01*
X023253Y009876D02*
X018718Y009876D01*
X018551Y009562D02*
X013520Y009562D01*
X013599Y009484D02*
X018630Y009484D01*
X018708Y009405D02*
X013677Y009405D01*
X013756Y009327D02*
X018787Y009327D01*
X018865Y009248D02*
X013834Y009248D01*
X013913Y009170D02*
X018944Y009170D01*
X019022Y009091D02*
X013991Y009091D01*
X014070Y009013D02*
X019101Y009013D01*
X019179Y008934D02*
X014148Y008934D01*
X014227Y008856D02*
X019258Y008856D01*
X019336Y008777D02*
X014305Y008777D01*
X014384Y008699D02*
X019415Y008699D01*
X019493Y008620D02*
X014462Y008620D01*
X014541Y008542D02*
X019572Y008542D01*
X019650Y008463D02*
X014619Y008463D01*
X014698Y008385D02*
X019729Y008385D01*
X019807Y008306D02*
X014776Y008306D01*
X014855Y008228D02*
X019886Y008228D01*
X019964Y008149D02*
X014933Y008149D01*
X015012Y008071D02*
X020018Y008071D01*
X020022Y007992D02*
X015090Y007992D01*
X015169Y007914D02*
X020054Y007914D01*
X020123Y007835D02*
X015247Y007835D01*
X015002Y007600D02*
X008262Y007600D01*
X008198Y007678D02*
X014924Y007678D01*
X014845Y007757D02*
X006507Y007757D01*
X006460Y007835D02*
X014767Y007835D01*
X014688Y007914D02*
X006539Y007914D01*
X006617Y007992D02*
X014610Y007992D01*
X014531Y008071D02*
X006696Y008071D01*
X006774Y008149D02*
X014453Y008149D01*
X014374Y008228D02*
X007903Y008228D01*
X008029Y008306D02*
X014296Y008306D01*
X014217Y008385D02*
X008107Y008385D01*
X008173Y008463D02*
X014139Y008463D01*
X014060Y008542D02*
X008206Y008542D01*
X008238Y008620D02*
X013982Y008620D01*
X013903Y008699D02*
X008261Y008699D01*
X008268Y008777D02*
X013825Y008777D01*
X013746Y008856D02*
X008347Y008856D01*
X008425Y008934D02*
X013668Y008934D01*
X013589Y009013D02*
X008504Y009013D01*
X008582Y009091D02*
X013511Y009091D01*
X013432Y009170D02*
X008779Y009170D01*
X008895Y009248D02*
X011661Y009248D01*
X011545Y009327D02*
X008943Y009327D01*
X008964Y009405D02*
X011496Y009405D01*
X011475Y009484D02*
X008964Y009484D01*
X008934Y009562D02*
X011475Y009562D01*
X011849Y009248D02*
X013354Y009248D01*
X013275Y009327D02*
X011966Y009327D01*
X013298Y012074D02*
X018905Y012074D01*
X018909Y012153D02*
X013836Y012153D01*
X013690Y012153D02*
X013376Y012153D01*
X013455Y012231D02*
X013561Y012231D01*
X013209Y012467D02*
X012076Y012467D01*
X012008Y012399D02*
X012889Y013279D01*
X012907Y013279D01*
X012974Y013212D01*
X013077Y013169D01*
X013189Y013169D01*
X013292Y013212D01*
X013370Y013291D01*
X013413Y013394D01*
X013413Y013505D01*
X013370Y013608D01*
X013292Y013687D01*
X013247Y013705D01*
X013292Y013724D01*
X013370Y013802D01*
X013413Y013905D01*
X013413Y014017D01*
X013370Y014120D01*
X013292Y014198D01*
X013189Y014241D01*
X013077Y014241D01*
X012974Y014198D01*
X012896Y014120D01*
X012853Y014017D01*
X012853Y014009D01*
X012008Y014009D01*
X011971Y014010D01*
X011901Y014079D01*
X011799Y014122D01*
X011688Y014122D01*
X011585Y014079D01*
X011507Y014001D01*
X011466Y013902D01*
X011304Y014087D01*
X011359Y014109D01*
X011434Y014185D01*
X011466Y014184D01*
X011470Y014187D01*
X011474Y014188D01*
X011519Y014237D01*
X011566Y014283D01*
X011567Y014288D01*
X011570Y014291D01*
X011567Y014358D01*
X011570Y015071D01*
X011571Y015072D01*
X011571Y015142D01*
X011571Y015212D01*
X011571Y015213D01*
X011521Y015262D01*
X011512Y015271D01*
X012985Y015286D01*
X013404Y014867D01*
X013404Y014771D01*
X013447Y014669D01*
X013526Y014590D01*
X013629Y014547D01*
X013740Y014547D01*
X013843Y014590D01*
X013922Y014669D01*
X013964Y014771D01*
X013964Y014883D01*
X013922Y014986D01*
X013843Y015065D01*
X013740Y015107D01*
X013645Y015107D01*
X013224Y015528D01*
X014349Y015528D01*
X014349Y015520D02*
X014392Y015417D01*
X014471Y015338D01*
X014573Y015295D01*
X014669Y015295D01*
X015058Y014906D01*
X015058Y014811D01*
X015100Y014708D01*
X015179Y014629D01*
X015282Y014587D01*
X015393Y014587D01*
X015496Y014629D01*
X015575Y014708D01*
X015585Y014733D01*
X016633Y013686D01*
X016633Y013590D01*
X016637Y013580D01*
X014322Y013580D01*
X014223Y013480D01*
X013141Y012399D01*
X012008Y012399D01*
X012154Y012545D02*
X013288Y012545D01*
X013366Y012624D02*
X012233Y012624D01*
X012311Y012702D02*
X013445Y012702D01*
X013523Y012781D02*
X012390Y012781D01*
X012468Y012859D02*
X013602Y012859D01*
X013680Y012938D02*
X012547Y012938D01*
X012625Y013016D02*
X013759Y013016D01*
X013837Y013095D02*
X012704Y013095D01*
X012782Y013173D02*
X013068Y013173D01*
X013198Y013173D02*
X013916Y013173D01*
X013994Y013252D02*
X013332Y013252D01*
X013387Y013330D02*
X014073Y013330D01*
X014151Y013409D02*
X013413Y013409D01*
X013413Y013487D02*
X014230Y013487D01*
X014308Y013566D02*
X013388Y013566D01*
X013334Y013644D02*
X016633Y013644D01*
X016596Y013723D02*
X013289Y013723D01*
X013369Y013801D02*
X016517Y013801D01*
X016439Y013880D02*
X013402Y013880D01*
X013413Y013958D02*
X016360Y013958D01*
X016282Y014037D02*
X013405Y014037D01*
X013372Y014115D02*
X016203Y014115D01*
X016125Y014194D02*
X013296Y014194D01*
X012970Y014194D02*
X011480Y014194D01*
X011555Y014272D02*
X016046Y014272D01*
X015968Y014351D02*
X011567Y014351D01*
X011567Y014429D02*
X015889Y014429D01*
X015811Y014508D02*
X011568Y014508D01*
X011568Y014586D02*
X013534Y014586D01*
X013451Y014665D02*
X011568Y014665D01*
X011569Y014743D02*
X013416Y014743D01*
X013404Y014822D02*
X011569Y014822D01*
X011570Y014900D02*
X013371Y014900D01*
X013292Y014979D02*
X011570Y014979D01*
X011570Y015057D02*
X013214Y015057D01*
X013135Y015136D02*
X011571Y015136D01*
X011571Y015212D02*
X011571Y015212D01*
X011569Y015214D02*
X013057Y015214D01*
X013302Y015450D02*
X014378Y015450D01*
X014349Y015520D02*
X014349Y015631D01*
X014355Y015645D01*
X010914Y015667D01*
X010975Y015606D01*
X012983Y015626D01*
X012984Y015627D01*
X013053Y015627D01*
X013123Y015628D01*
X013124Y015627D01*
X013125Y015627D01*
X013174Y015578D01*
X013224Y015529D01*
X013224Y015528D01*
X013145Y015607D02*
X014349Y015607D01*
X014437Y015371D02*
X013381Y015371D01*
X013459Y015293D02*
X014671Y015293D01*
X014750Y015214D02*
X013538Y015214D01*
X013616Y015136D02*
X014828Y015136D01*
X014907Y015057D02*
X013850Y015057D01*
X013925Y014979D02*
X014985Y014979D01*
X015058Y014900D02*
X013957Y014900D01*
X013964Y014822D02*
X015058Y014822D01*
X015086Y014743D02*
X013953Y014743D01*
X013918Y014665D02*
X015144Y014665D01*
X015532Y014665D02*
X015654Y014665D01*
X015732Y014586D02*
X013834Y014586D01*
X012957Y013669D02*
X012907Y013619D01*
X012748Y013619D01*
X012648Y013520D01*
X011763Y012635D01*
X010783Y012635D01*
X010783Y012869D01*
X010851Y012936D01*
X010893Y013039D01*
X010893Y013151D01*
X010851Y013253D01*
X010772Y013332D01*
X010669Y013375D01*
X010558Y013375D01*
X010455Y013332D01*
X010376Y013253D01*
X010333Y013151D01*
X010333Y013039D01*
X010376Y012936D01*
X010443Y012869D01*
X010443Y012635D01*
X009511Y012635D01*
X009515Y012645D01*
X009515Y012757D01*
X009473Y012860D01*
X009394Y012939D01*
X009291Y012981D01*
X009189Y012981D01*
X009158Y013057D01*
X009079Y013135D01*
X008976Y013178D01*
X008888Y013178D01*
X008922Y013212D01*
X008964Y013315D01*
X008964Y013426D01*
X008927Y013515D01*
X009757Y013515D01*
X009825Y013448D01*
X009928Y013405D01*
X010039Y013405D01*
X010142Y013448D01*
X010221Y013527D01*
X010263Y013630D01*
X010263Y013739D01*
X010628Y013737D01*
X010692Y013673D01*
X010794Y013631D01*
X010905Y013631D01*
X011008Y013673D01*
X011050Y013715D01*
X011079Y013684D01*
X011109Y013639D01*
X011123Y013637D01*
X011202Y013552D01*
X011202Y013172D01*
X011125Y013095D01*
X011082Y012993D01*
X011082Y012882D01*
X011125Y012779D01*
X011203Y012701D01*
X011306Y012658D01*
X011417Y012658D01*
X011519Y012701D01*
X011598Y012779D01*
X011640Y012882D01*
X011640Y012993D01*
X011613Y013059D01*
X011692Y012980D01*
X011794Y012938D01*
X011905Y012938D01*
X012008Y012980D01*
X012086Y013059D01*
X012129Y013161D01*
X012129Y013272D01*
X012086Y013375D01*
X012008Y013453D01*
X011905Y013496D01*
X011818Y013496D01*
X011759Y013564D01*
X011799Y013564D01*
X011901Y013606D01*
X011964Y013669D01*
X012006Y013669D01*
X012075Y013668D01*
X012076Y013669D01*
X012957Y013669D01*
X012932Y013644D02*
X011939Y013644D01*
X011803Y013566D02*
X012694Y013566D01*
X012616Y013487D02*
X011926Y013487D01*
X012053Y013409D02*
X012537Y013409D01*
X012459Y013330D02*
X012105Y013330D01*
X012129Y013252D02*
X012380Y013252D01*
X012302Y013173D02*
X012129Y013173D01*
X012101Y013095D02*
X012223Y013095D01*
X012145Y013016D02*
X012043Y013016D01*
X012066Y012938D02*
X011640Y012938D01*
X011631Y013016D02*
X011656Y013016D01*
X011631Y012859D02*
X011988Y012859D01*
X011909Y012781D02*
X011599Y012781D01*
X011521Y012702D02*
X011831Y012702D01*
X011202Y012702D02*
X010783Y012702D01*
X010783Y012781D02*
X011124Y012781D01*
X011092Y012859D02*
X010783Y012859D01*
X010851Y012938D02*
X011082Y012938D01*
X011092Y013016D02*
X010884Y013016D01*
X010893Y013095D02*
X011125Y013095D01*
X011202Y013173D02*
X010884Y013173D01*
X010852Y013252D02*
X011202Y013252D01*
X011202Y013330D02*
X010774Y013330D01*
X010762Y013644D02*
X010263Y013644D01*
X010263Y013723D02*
X010642Y013723D01*
X010937Y013644D02*
X011106Y013644D01*
X011189Y013566D02*
X010237Y013566D01*
X010181Y013487D02*
X011202Y013487D01*
X011202Y013409D02*
X010047Y013409D01*
X009920Y013409D02*
X008964Y013409D01*
X008964Y013330D02*
X010453Y013330D01*
X010375Y013252D02*
X008938Y013252D01*
X008988Y013173D02*
X010343Y013173D01*
X010333Y013095D02*
X009120Y013095D01*
X009175Y013016D02*
X010343Y013016D01*
X010375Y012938D02*
X009395Y012938D01*
X009473Y012859D02*
X010443Y012859D01*
X010443Y012781D02*
X009506Y012781D01*
X009515Y012702D02*
X010443Y012702D01*
X009786Y013487D02*
X008939Y013487D01*
X007897Y013855D02*
X007871Y013855D01*
X007795Y013887D01*
X007684Y013887D01*
X007581Y013844D01*
X007502Y013765D01*
X007459Y013662D01*
X007459Y013551D01*
X007464Y013540D01*
X006716Y013540D01*
X006720Y013551D01*
X006720Y013646D01*
X007161Y014087D01*
X007161Y014118D01*
X007172Y014114D01*
X007267Y014114D01*
X007294Y014087D01*
X007393Y013988D01*
X007897Y013988D01*
X007892Y013977D01*
X007892Y013866D01*
X007897Y013855D01*
X007892Y013880D02*
X007812Y013880D01*
X007892Y013958D02*
X007032Y013958D01*
X006954Y013880D02*
X007667Y013880D01*
X007538Y013801D02*
X006875Y013801D01*
X006797Y013723D02*
X007484Y013723D01*
X007459Y013644D02*
X006720Y013644D01*
X006720Y013566D02*
X007459Y013566D01*
X007252Y013200D02*
X007198Y013147D01*
X006055Y013147D01*
X005955Y013047D01*
X005810Y012902D01*
X005715Y012902D01*
X005612Y012860D01*
X005533Y012781D01*
X005272Y012781D01*
X005272Y012859D02*
X005612Y012859D01*
X005533Y012781D02*
X005491Y012678D01*
X005491Y012567D01*
X005533Y012464D01*
X005612Y012385D01*
X005637Y012375D01*
X005543Y012281D01*
X005377Y012281D01*
X005382Y012291D01*
X005382Y012403D01*
X005339Y012505D01*
X005272Y012573D01*
X005272Y013578D01*
X005339Y013645D01*
X005382Y013748D01*
X005382Y013859D01*
X005377Y013870D01*
X005582Y013870D01*
X006152Y013300D01*
X006252Y013200D01*
X007252Y013200D01*
X007225Y013173D02*
X005272Y013173D01*
X005272Y013095D02*
X006003Y013095D01*
X005924Y013016D02*
X005272Y013016D01*
X005272Y012938D02*
X005846Y012938D01*
X005501Y012702D02*
X005272Y012702D01*
X005272Y012624D02*
X005491Y012624D01*
X005500Y012545D02*
X005299Y012545D01*
X005355Y012467D02*
X005532Y012467D01*
X005609Y012388D02*
X005382Y012388D01*
X005382Y012310D02*
X005572Y012310D01*
X005817Y012074D02*
X007344Y012074D01*
X007266Y011996D02*
X005739Y011996D01*
X005783Y012040D02*
X005684Y011941D01*
X003229Y011941D01*
X003605Y011564D01*
X003701Y011564D01*
X003803Y011521D01*
X003882Y011442D01*
X003925Y011340D01*
X003925Y011228D01*
X003904Y011177D01*
X004047Y011118D01*
X004227Y010938D01*
X004274Y010824D01*
X004600Y010824D01*
X004667Y010891D01*
X004770Y010934D01*
X004882Y010934D01*
X004985Y010891D01*
X005060Y010816D01*
X005110Y010938D01*
X005290Y011118D01*
X005525Y011215D01*
X005780Y011215D01*
X006015Y011118D01*
X006195Y010938D01*
X006199Y010929D01*
X007569Y012299D01*
X007669Y012399D01*
X007936Y012399D01*
X007932Y012409D01*
X007932Y012521D01*
X007936Y012531D01*
X006274Y012531D01*
X005783Y012040D01*
X005896Y012153D02*
X007423Y012153D01*
X007501Y012231D02*
X005974Y012231D01*
X006053Y012310D02*
X007580Y012310D01*
X007658Y012388D02*
X006131Y012388D01*
X006210Y012467D02*
X007932Y012467D01*
X007747Y011996D02*
X018920Y011996D01*
X018959Y011917D02*
X007668Y011917D01*
X007590Y011839D02*
X019055Y011839D01*
X018942Y012231D02*
X013965Y012231D01*
X013961Y012624D02*
X020730Y012624D01*
X020864Y012702D02*
X013926Y012702D01*
X014004Y012781D02*
X021002Y012781D01*
X020992Y012702D02*
X021081Y012702D01*
X021126Y012624D02*
X021159Y012624D01*
X021182Y012545D02*
X021238Y012545D01*
X021208Y012467D02*
X021316Y012467D01*
X021395Y012388D02*
X021208Y012388D01*
X021183Y012310D02*
X021473Y012310D01*
X021552Y012231D02*
X021130Y012231D01*
X021001Y012153D02*
X021630Y012153D01*
X021709Y012074D02*
X019856Y012074D01*
X019856Y011996D02*
X021787Y011996D01*
X021855Y011917D02*
X021866Y011917D01*
X021933Y011839D02*
X021939Y011839D01*
X022279Y011839D02*
X022770Y011839D01*
X022875Y011917D02*
X022279Y011917D01*
X022268Y011996D02*
X023248Y011996D01*
X023248Y012074D02*
X022189Y012074D01*
X022111Y012153D02*
X023248Y012153D01*
X023248Y012231D02*
X022032Y012231D01*
X021954Y012310D02*
X023248Y012310D01*
X023248Y012388D02*
X021875Y012388D01*
X021797Y012467D02*
X023248Y012467D01*
X023247Y012545D02*
X021718Y012545D01*
X021640Y012624D02*
X023247Y012624D01*
X023247Y012702D02*
X021561Y012702D01*
X021483Y012781D02*
X023247Y012781D01*
X023247Y012859D02*
X021404Y012859D01*
X021326Y012938D02*
X023247Y012938D01*
X023246Y013016D02*
X021247Y013016D01*
X021169Y013095D02*
X023246Y013095D01*
X023246Y013173D02*
X021090Y013173D01*
X021012Y013252D02*
X023246Y013252D01*
X023246Y013330D02*
X020933Y013330D01*
X020855Y013409D02*
X023246Y013409D01*
X023246Y013487D02*
X020776Y013487D01*
X020698Y013566D02*
X023245Y013566D01*
X023245Y013644D02*
X020619Y013644D01*
X020541Y013723D02*
X023245Y013723D01*
X023245Y013801D02*
X020462Y013801D01*
X020384Y013880D02*
X023245Y013880D01*
X023245Y013958D02*
X020305Y013958D01*
X020227Y014037D02*
X023244Y014037D01*
X023244Y014115D02*
X020148Y014115D01*
X020070Y014194D02*
X023244Y014194D01*
X023244Y014272D02*
X019991Y014272D01*
X019913Y014351D02*
X023244Y014351D01*
X023244Y014429D02*
X019834Y014429D01*
X019756Y014508D02*
X023244Y014508D01*
X023243Y014586D02*
X019677Y014586D01*
X019599Y014665D02*
X023243Y014665D01*
X023243Y014743D02*
X019520Y014743D01*
X019442Y014822D02*
X023243Y014822D01*
X023243Y014900D02*
X019363Y014900D01*
X019285Y014979D02*
X023243Y014979D01*
X023242Y015057D02*
X019206Y015057D01*
X019128Y015136D02*
X023242Y015136D01*
X023242Y015214D02*
X019049Y015214D01*
X018971Y015293D02*
X023242Y015293D01*
X023242Y015371D02*
X018892Y015371D01*
X018814Y015450D02*
X023242Y015450D01*
X023242Y015528D02*
X018735Y015528D01*
X018657Y015607D02*
X023241Y015607D01*
X023241Y015685D02*
X018578Y015685D01*
X018500Y015764D02*
X023241Y015764D01*
X023241Y015842D02*
X018421Y015842D01*
X018343Y015921D02*
X023241Y015921D01*
X023241Y015999D02*
X018264Y015999D01*
X018186Y016078D02*
X023240Y016078D01*
X023240Y016156D02*
X018107Y016156D01*
X018029Y016235D02*
X023240Y016235D01*
X023240Y016313D02*
X017950Y016313D01*
X017872Y016392D02*
X023240Y016392D01*
X023240Y016470D02*
X017793Y016470D01*
X017715Y016549D02*
X023240Y016549D01*
X023239Y016627D02*
X017636Y016627D01*
X017558Y016706D02*
X023239Y016706D01*
X023239Y016784D02*
X017479Y016784D01*
X017401Y016863D02*
X023239Y016863D01*
X023239Y016941D02*
X017322Y016941D01*
X017244Y017020D02*
X023239Y017020D01*
X023238Y017098D02*
X017165Y017098D01*
X017087Y017177D02*
X023238Y017177D01*
X023238Y017255D02*
X017008Y017255D01*
X016930Y017334D02*
X023238Y017334D01*
X023238Y017412D02*
X016851Y017412D01*
X016773Y017491D02*
X023238Y017491D01*
X023238Y017569D02*
X016694Y017569D01*
X016616Y017648D02*
X023237Y017648D01*
X023237Y017726D02*
X016537Y017726D01*
X016459Y017805D02*
X023237Y017805D01*
X023237Y017883D02*
X016380Y017883D01*
X016302Y017962D02*
X023237Y017962D01*
X023237Y018040D02*
X016223Y018040D01*
X016145Y018119D02*
X023236Y018119D01*
X023236Y018197D02*
X016066Y018197D01*
X015988Y018276D02*
X023236Y018276D01*
X023236Y018354D02*
X015909Y018354D01*
X015831Y018433D02*
X023236Y018433D01*
X023236Y018511D02*
X015752Y018511D01*
X015674Y018590D02*
X023236Y018590D01*
X023235Y018668D02*
X015595Y018668D01*
X015517Y018747D02*
X023235Y018747D01*
X023235Y018825D02*
X015438Y018825D01*
X015360Y018904D02*
X023235Y018904D01*
X023235Y018982D02*
X015281Y018982D01*
X015203Y019061D02*
X023235Y019061D01*
X023234Y019139D02*
X017001Y019139D01*
X017012Y019218D02*
X023234Y019218D01*
X023234Y019296D02*
X017012Y019296D01*
X017012Y019375D02*
X023234Y019375D01*
X023234Y019453D02*
X017012Y019453D01*
X017012Y019532D02*
X023234Y019532D01*
X023234Y019610D02*
X017012Y019610D01*
X017012Y019689D02*
X023233Y019689D01*
X023233Y019767D02*
X017012Y019767D01*
X017012Y019846D02*
X023233Y019846D01*
X023233Y019924D02*
X017012Y019924D01*
X017012Y020003D02*
X023233Y020003D01*
X023233Y020081D02*
X017012Y020081D01*
X017012Y020160D02*
X023232Y020160D01*
X023232Y020238D02*
X017012Y020238D01*
X017012Y020317D02*
X023232Y020317D01*
X023232Y020395D02*
X017012Y020395D01*
X016985Y020474D02*
X023232Y020474D01*
X023232Y020552D02*
X013970Y020552D01*
X013970Y020544D02*
X013894Y020362D01*
X013755Y020223D01*
X013574Y020148D01*
X013377Y020148D01*
X013195Y020223D01*
X013056Y020362D01*
X012981Y020544D01*
X012981Y020740D01*
X013056Y020922D01*
X013195Y021061D01*
X013377Y021136D01*
X013574Y021136D01*
X013755Y021061D01*
X013894Y020922D01*
X013970Y020740D01*
X013970Y020544D01*
X013940Y020474D02*
X015183Y020474D01*
X015157Y020395D02*
X013908Y020395D01*
X013849Y020317D02*
X015157Y020317D01*
X015157Y020238D02*
X013770Y020238D01*
X013602Y020160D02*
X015157Y020160D01*
X015157Y020081D02*
X000281Y020081D01*
X000281Y020003D02*
X015157Y020003D01*
X015157Y019924D02*
X000281Y019924D01*
X000281Y019846D02*
X015157Y019846D01*
X015157Y019767D02*
X000281Y019767D01*
X000281Y019689D02*
X015157Y019689D01*
X015157Y019296D02*
X012446Y019296D01*
X012409Y018904D02*
X014879Y018904D01*
X014958Y018825D02*
X011820Y018825D01*
X011807Y018812D02*
X011807Y018812D01*
X011742Y018747D02*
X015036Y018747D01*
X015115Y018668D02*
X011574Y018668D01*
X011575Y019061D02*
X011207Y019061D01*
X011208Y019139D02*
X011653Y019139D01*
X011732Y019218D02*
X011190Y019218D01*
X011147Y019296D02*
X011810Y019296D01*
X011889Y019375D02*
X011042Y019375D01*
X010815Y019375D02*
X010111Y019375D01*
X010144Y019296D02*
X010710Y019296D01*
X010045Y019453D02*
X011967Y019453D01*
X012046Y019532D02*
X000281Y019532D01*
X000281Y019610D02*
X012124Y019610D01*
X012058Y019543D02*
X012058Y019543D01*
X011771Y020223D02*
X011589Y020148D01*
X011393Y020148D01*
X011211Y020223D01*
X011072Y020362D01*
X010997Y020544D01*
X010997Y020740D01*
X011072Y020922D01*
X011211Y021061D01*
X011393Y021136D01*
X011589Y021136D01*
X011771Y021061D01*
X011910Y020922D01*
X011985Y020740D01*
X011985Y020544D01*
X011910Y020362D01*
X011771Y020223D01*
X011786Y020238D02*
X013180Y020238D01*
X013102Y020317D02*
X011865Y020317D01*
X011924Y020395D02*
X013042Y020395D01*
X013010Y020474D02*
X011956Y020474D01*
X011985Y020552D02*
X012981Y020552D01*
X012981Y020631D02*
X011985Y020631D01*
X011985Y020709D02*
X012981Y020709D01*
X013000Y020788D02*
X011966Y020788D01*
X011933Y020866D02*
X013033Y020866D01*
X013079Y020945D02*
X011887Y020945D01*
X011809Y021023D02*
X013157Y021023D01*
X013293Y021102D02*
X011673Y021102D01*
X011309Y021102D02*
X003581Y021102D01*
X003605Y021044D02*
X003544Y021190D01*
X003432Y021302D01*
X003286Y021362D01*
X003128Y021362D01*
X002982Y021302D01*
X002870Y021190D01*
X002810Y021044D01*
X002810Y020886D01*
X002870Y020740D01*
X002982Y020628D01*
X003128Y020567D01*
X003286Y020567D01*
X003432Y020628D01*
X003544Y020740D01*
X003605Y020886D01*
X003605Y021044D01*
X003605Y021023D02*
X011173Y021023D01*
X011094Y020945D02*
X003605Y020945D01*
X003596Y020866D02*
X011049Y020866D01*
X011016Y020788D02*
X003564Y020788D01*
X003513Y020709D02*
X010997Y020709D01*
X010997Y020631D02*
X003435Y020631D01*
X002979Y020631D02*
X000281Y020631D01*
X000281Y020709D02*
X002901Y020709D01*
X002850Y020788D02*
X000281Y020788D01*
X000281Y020866D02*
X002818Y020866D01*
X002810Y020945D02*
X000281Y020945D01*
X000281Y021023D02*
X002810Y021023D01*
X002833Y021102D02*
X000281Y021102D01*
X000281Y021180D02*
X002866Y021180D01*
X002939Y021259D02*
X000281Y021259D01*
X000281Y021337D02*
X003067Y021337D01*
X003347Y021337D02*
X023230Y021337D01*
X023230Y021259D02*
X003475Y021259D01*
X003548Y021180D02*
X023230Y021180D01*
X023231Y021102D02*
X013657Y021102D01*
X013793Y021023D02*
X023231Y021023D01*
X023231Y020945D02*
X013872Y020945D01*
X013917Y020866D02*
X023231Y020866D01*
X023231Y020788D02*
X013950Y020788D01*
X013970Y020709D02*
X023231Y020709D01*
X023232Y020631D02*
X013970Y020631D01*
X013348Y020160D02*
X011618Y020160D01*
X011364Y020160D02*
X000281Y020160D01*
X000281Y020238D02*
X011196Y020238D01*
X011117Y020317D02*
X000281Y020317D01*
X000281Y020395D02*
X011058Y020395D01*
X011026Y020474D02*
X000281Y020474D01*
X000281Y020552D02*
X010997Y020552D01*
X011413Y021656D02*
X011144Y021767D01*
X010939Y021972D01*
X010828Y022241D01*
X010828Y022532D01*
X010939Y022800D01*
X011144Y023006D01*
X011413Y023117D01*
X011704Y023117D01*
X011972Y023006D01*
X012178Y022800D01*
X012289Y022532D01*
X012289Y022241D01*
X012178Y021972D01*
X011972Y021767D01*
X011704Y021656D01*
X011413Y021656D01*
X011234Y021730D02*
X000281Y021730D01*
X000282Y021808D02*
X011103Y021808D01*
X011025Y021887D02*
X007319Y021887D01*
X007508Y021965D02*
X010946Y021965D01*
X010909Y022044D02*
X007601Y022044D01*
X007680Y022122D02*
X010877Y022122D01*
X010844Y022201D02*
X007747Y022201D01*
X007779Y022279D02*
X010828Y022279D01*
X010828Y022358D02*
X007812Y022358D01*
X007844Y022436D02*
X010828Y022436D01*
X010828Y022515D02*
X007850Y022515D01*
X007850Y022593D02*
X010853Y022593D01*
X010886Y022672D02*
X007850Y022672D01*
X007846Y022750D02*
X010918Y022750D01*
X010968Y022829D02*
X007813Y022829D01*
X007781Y022907D02*
X011046Y022907D01*
X011125Y022986D02*
X007748Y022986D01*
X007683Y023064D02*
X011286Y023064D01*
X011831Y023064D02*
X022442Y023064D01*
X022578Y022986D02*
X011992Y022986D01*
X012070Y022907D02*
X022695Y022907D01*
X022773Y022829D02*
X012149Y022829D01*
X012198Y022750D02*
X022852Y022750D01*
X022930Y022672D02*
X012231Y022672D01*
X012263Y022593D02*
X022977Y022593D01*
X023022Y022515D02*
X012289Y022515D01*
X012289Y022436D02*
X023067Y022436D01*
X023113Y022358D02*
X012289Y022358D01*
X012289Y022279D02*
X023138Y022279D01*
X023159Y022201D02*
X012272Y022201D01*
X012240Y022122D02*
X023180Y022122D01*
X023201Y022044D02*
X012207Y022044D01*
X012170Y021965D02*
X023218Y021965D01*
X023223Y021887D02*
X012092Y021887D01*
X012013Y021808D02*
X023228Y021808D01*
X023229Y021730D02*
X011882Y021730D01*
X009686Y019453D02*
X000281Y019453D01*
X000281Y019375D02*
X009619Y019375D01*
X009587Y019296D02*
X000281Y019296D01*
X000281Y019218D02*
X009585Y019218D01*
X009293Y019139D02*
X000281Y019139D01*
X000281Y019061D02*
X009226Y019061D01*
X009194Y018982D02*
X000281Y018982D01*
X000281Y018904D02*
X009192Y018904D01*
X009209Y018825D02*
X000281Y018825D01*
X000281Y018747D02*
X009251Y018747D01*
X009352Y018668D02*
X000281Y018668D01*
X000281Y018590D02*
X009563Y018590D01*
X009642Y018511D02*
X009333Y018511D01*
X008980Y018511D02*
X000281Y018511D01*
X000281Y018433D02*
X008912Y018433D01*
X008879Y018354D02*
X000281Y018354D01*
X000281Y018276D02*
X008776Y018276D01*
X008666Y018197D02*
X000281Y018197D01*
X000281Y018119D02*
X008621Y018119D01*
X008601Y018040D02*
X000281Y018040D01*
X000281Y017962D02*
X008601Y017962D01*
X008633Y017883D02*
X000281Y017883D01*
X000281Y017805D02*
X008697Y017805D01*
X009066Y017805D02*
X010176Y017805D01*
X010176Y017726D02*
X000281Y017726D01*
X000281Y017648D02*
X006107Y017648D01*
X006028Y017569D02*
X000281Y017569D01*
X000281Y017491D02*
X005950Y017491D01*
X005871Y017412D02*
X000281Y017412D01*
X000281Y017334D02*
X005793Y017334D01*
X005714Y017255D02*
X000281Y017255D01*
X000281Y017177D02*
X005636Y017177D01*
X005557Y017098D02*
X000281Y017098D01*
X000281Y017020D02*
X005479Y017020D01*
X005400Y016941D02*
X000281Y016941D01*
X000281Y016863D02*
X005322Y016863D01*
X005243Y016784D02*
X000281Y016784D01*
X000281Y016706D02*
X005165Y016706D01*
X005086Y016627D02*
X000281Y016627D01*
X000281Y016549D02*
X005008Y016549D01*
X004929Y016470D02*
X000281Y016470D01*
X000281Y016392D02*
X004851Y016392D01*
X004617Y016313D02*
X000281Y016313D01*
X000281Y016235D02*
X004545Y016235D01*
X004512Y016156D02*
X000281Y016156D01*
X000281Y016078D02*
X004507Y016078D01*
X004520Y015999D02*
X000281Y015999D01*
X000281Y015921D02*
X004557Y015921D01*
X004540Y015842D02*
X000281Y015842D01*
X000281Y015764D02*
X000365Y015764D01*
X000286Y015685D02*
X000281Y015685D01*
X000281Y015607D02*
X000286Y015607D01*
X000281Y015528D02*
X000286Y015528D01*
X000281Y015450D02*
X000286Y015450D01*
X000281Y015371D02*
X000286Y015371D01*
X000281Y015293D02*
X000286Y015293D01*
X000281Y015214D02*
X000286Y015214D01*
X000281Y015136D02*
X000286Y015136D01*
X000281Y015057D02*
X000286Y015057D01*
X000281Y014979D02*
X000286Y014979D01*
X000281Y014900D02*
X000286Y014900D01*
X000281Y014822D02*
X000286Y014822D01*
X000281Y014743D02*
X000286Y014743D01*
X000281Y014665D02*
X000286Y014665D01*
X000281Y014586D02*
X000286Y014586D01*
X000281Y014508D02*
X000286Y014508D01*
X000281Y014429D02*
X000286Y014429D01*
X000281Y014351D02*
X000286Y014351D01*
X000281Y014272D02*
X000286Y014272D01*
X000281Y014194D02*
X000286Y014194D01*
X000281Y014115D02*
X000286Y014115D01*
X000281Y014037D02*
X000286Y014037D01*
X000281Y013958D02*
X000286Y013958D01*
X000281Y013880D02*
X000286Y013880D01*
X000281Y013801D02*
X000286Y013801D01*
X000281Y013723D02*
X000286Y013723D01*
X000281Y013644D02*
X000286Y013644D01*
X000281Y013566D02*
X000286Y013566D01*
X000281Y013487D02*
X000286Y013487D01*
X000281Y013409D02*
X000286Y013409D01*
X000281Y013330D02*
X000286Y013330D01*
X000281Y013252D02*
X000286Y013252D01*
X000281Y013173D02*
X000286Y013173D01*
X000281Y013095D02*
X000286Y013095D01*
X000281Y013016D02*
X000286Y013016D01*
X000281Y012938D02*
X000286Y012938D01*
X000281Y012859D02*
X000286Y012859D01*
X000281Y012781D02*
X000286Y012781D01*
X000281Y012702D02*
X000286Y012702D01*
X000281Y012624D02*
X000286Y012624D01*
X000281Y012545D02*
X000286Y012545D01*
X000281Y012467D02*
X000286Y012467D01*
X000281Y012388D02*
X000286Y012388D01*
X000281Y012310D02*
X000286Y012310D01*
X000281Y012231D02*
X000286Y012231D01*
X000281Y012153D02*
X000286Y012153D01*
X000281Y012074D02*
X000286Y012074D01*
X000281Y011996D02*
X000286Y011996D01*
X000281Y011917D02*
X000286Y011917D01*
X000281Y011839D02*
X000286Y011839D01*
X000281Y011760D02*
X000286Y011760D01*
X000281Y011682D02*
X000286Y011682D01*
X000281Y011603D02*
X000286Y011603D01*
X000281Y011525D02*
X000286Y011525D01*
X000281Y011446D02*
X000286Y011446D01*
X000281Y011368D02*
X000286Y011368D01*
X000281Y011289D02*
X000286Y011289D01*
X000281Y011211D02*
X000286Y011211D01*
X000281Y011132D02*
X000286Y011132D01*
X000281Y011054D02*
X000286Y011054D01*
X000281Y010975D02*
X000286Y010975D01*
X000281Y010897D02*
X000286Y010897D01*
X000281Y010818D02*
X000286Y010818D01*
X000281Y010740D02*
X000286Y010740D01*
X000281Y010661D02*
X000286Y010661D01*
X000281Y010583D02*
X000286Y010583D01*
X000281Y010504D02*
X000286Y010504D01*
X000281Y010426D02*
X000286Y010426D01*
X000281Y010347D02*
X000286Y010347D01*
X000281Y010269D02*
X000286Y010269D01*
X000281Y010190D02*
X000286Y010190D01*
X000281Y010112D02*
X000286Y010112D01*
X000281Y010033D02*
X000286Y010033D01*
X000281Y009955D02*
X000286Y009955D01*
X000281Y009876D02*
X000286Y009876D01*
X000281Y009798D02*
X000286Y009798D01*
X000281Y009719D02*
X000286Y009719D01*
X000281Y009641D02*
X000286Y009641D01*
X000281Y009562D02*
X000286Y009562D01*
X000281Y009484D02*
X000286Y009484D01*
X000281Y009405D02*
X000286Y009405D01*
X000281Y009327D02*
X000286Y009327D01*
X000281Y009248D02*
X000286Y009248D01*
X000281Y009170D02*
X000286Y009170D01*
X000281Y009091D02*
X000286Y009091D01*
X000281Y009013D02*
X000286Y009013D01*
X000281Y008934D02*
X000286Y008934D01*
X000281Y008856D02*
X000286Y008856D01*
X000281Y008777D02*
X000286Y008777D01*
X000281Y008699D02*
X000286Y008699D01*
X000281Y008620D02*
X000286Y008620D01*
X000281Y008542D02*
X000286Y008542D01*
X000281Y008463D02*
X000286Y008463D01*
X000281Y008385D02*
X000286Y008385D01*
X000281Y008306D02*
X000286Y008306D01*
X000281Y008228D02*
X000286Y008228D01*
X000281Y008149D02*
X000286Y008149D01*
X000281Y008071D02*
X000286Y008071D01*
X000281Y007992D02*
X000286Y007992D01*
X000281Y007914D02*
X000286Y007914D01*
X000281Y007835D02*
X000286Y007835D01*
X000281Y007757D02*
X000286Y007757D01*
X000281Y007678D02*
X000286Y007678D01*
X000281Y007600D02*
X000286Y007600D01*
X000281Y007521D02*
X000286Y007521D01*
X000281Y007443D02*
X000286Y007443D01*
X000281Y007364D02*
X000286Y007364D01*
X000281Y007286D02*
X000286Y007286D01*
X000281Y007207D02*
X000286Y007207D01*
X000281Y007129D02*
X000286Y007129D01*
X000281Y007050D02*
X000286Y007050D01*
X000281Y006972D02*
X000286Y006972D01*
X000281Y006893D02*
X000286Y006893D01*
X000281Y006815D02*
X000286Y006815D01*
X000281Y006736D02*
X000286Y006736D01*
X000281Y006658D02*
X000286Y006658D01*
X000281Y006579D02*
X000286Y006579D01*
X000281Y006501D02*
X000286Y006501D01*
X000281Y006422D02*
X000286Y006422D01*
X000281Y006344D02*
X000313Y006344D01*
X000281Y006265D02*
X000392Y006265D01*
X000470Y006187D02*
X000281Y006187D01*
X000281Y006108D02*
X000549Y006108D01*
X000627Y006030D02*
X000281Y006030D01*
X000281Y005951D02*
X000706Y005951D01*
X000784Y005873D02*
X000281Y005873D01*
X000281Y005794D02*
X004052Y005794D01*
X004130Y005716D02*
X000281Y005716D01*
X000281Y005637D02*
X004209Y005637D01*
X004287Y005559D02*
X000281Y005559D01*
X000281Y005480D02*
X004366Y005480D01*
X004444Y005402D02*
X000281Y005402D01*
X000281Y005323D02*
X004523Y005323D01*
X004601Y005245D02*
X000281Y005245D01*
X000281Y005166D02*
X004680Y005166D01*
X004758Y005088D02*
X000281Y005088D01*
X000281Y005009D02*
X004837Y005009D01*
X004915Y004931D02*
X000281Y004931D01*
X000281Y004852D02*
X004994Y004852D01*
X005013Y004774D02*
X000281Y004774D01*
X000281Y004695D02*
X005031Y004695D01*
X005064Y004617D02*
X000281Y004617D01*
X000281Y004538D02*
X005096Y004538D01*
X005155Y004460D02*
X000281Y004460D01*
X000281Y004381D02*
X005233Y004381D01*
X005342Y004303D02*
X000281Y004303D01*
X000281Y004224D02*
X010087Y004224D01*
X010016Y004146D02*
X000281Y004146D01*
X000281Y004067D02*
X009984Y004067D01*
X009979Y003989D02*
X000281Y003989D01*
X000281Y003910D02*
X009928Y003910D01*
X009850Y003832D02*
X000281Y003832D01*
X000281Y003753D02*
X009771Y003753D01*
X009693Y003675D02*
X007894Y003675D01*
X008025Y003596D02*
X009614Y003596D01*
X009536Y003518D02*
X008104Y003518D01*
X008171Y003439D02*
X009457Y003439D01*
X009379Y003361D02*
X008204Y003361D01*
X008196Y002811D02*
X019791Y002811D01*
X019869Y002733D02*
X008164Y002733D01*
X008086Y002654D02*
X019948Y002654D01*
X020018Y002576D02*
X008007Y002576D01*
X007851Y002497D02*
X020018Y002497D01*
X020047Y002419D02*
X007508Y002419D01*
X007479Y002340D02*
X020106Y002340D01*
X019555Y003047D02*
X009546Y003047D01*
X009624Y003125D02*
X019477Y003125D01*
X019398Y003204D02*
X009703Y003204D01*
X009781Y003282D02*
X019320Y003282D01*
X019241Y003361D02*
X009860Y003361D01*
X009938Y003439D02*
X019163Y003439D01*
X019084Y003518D02*
X010017Y003518D01*
X010095Y003596D02*
X019006Y003596D01*
X018927Y003675D02*
X010174Y003675D01*
X010394Y003753D02*
X018849Y003753D01*
X018770Y003832D02*
X010486Y003832D01*
X010525Y003910D02*
X018692Y003910D01*
X018613Y003989D02*
X010539Y003989D01*
X010534Y004067D02*
X018535Y004067D01*
X018456Y004146D02*
X010502Y004146D01*
X010431Y004224D02*
X018378Y004224D01*
X018299Y004303D02*
X007932Y004303D01*
X008041Y004381D02*
X018221Y004381D01*
X018142Y004460D02*
X008119Y004460D01*
X008178Y004538D02*
X018064Y004538D01*
X017985Y004617D02*
X008210Y004617D01*
X008243Y004695D02*
X017907Y004695D01*
X017828Y004774D02*
X008261Y004774D01*
X008261Y004852D02*
X017750Y004852D01*
X017671Y004931D02*
X008261Y004931D01*
X008255Y005009D02*
X017593Y005009D01*
X017514Y005088D02*
X008222Y005088D01*
X008190Y005166D02*
X017436Y005166D01*
X017357Y005245D02*
X008148Y005245D01*
X008070Y005323D02*
X017279Y005323D01*
X017200Y005402D02*
X007991Y005402D01*
X007812Y005480D02*
X017122Y005480D01*
X017043Y005559D02*
X006736Y005559D01*
X006658Y005637D02*
X016965Y005637D01*
X016886Y005716D02*
X006579Y005716D01*
X006815Y005480D02*
X007430Y005480D01*
X007251Y005402D02*
X006893Y005402D01*
X006972Y005323D02*
X007173Y005323D01*
X007094Y005245D02*
X007050Y005245D01*
X006805Y005009D02*
X006286Y005009D01*
X006293Y004931D02*
X006884Y004931D01*
X006962Y004852D02*
X006293Y004852D01*
X006293Y004774D02*
X006981Y004774D01*
X007000Y004695D02*
X006274Y004695D01*
X006242Y004617D02*
X007032Y004617D01*
X007065Y004538D02*
X006209Y004538D01*
X006151Y004460D02*
X007123Y004460D01*
X007202Y004381D02*
X006072Y004381D01*
X005964Y004303D02*
X007310Y004303D01*
X006727Y005088D02*
X006254Y005088D01*
X006221Y005166D02*
X006648Y005166D01*
X006570Y005245D02*
X006180Y005245D01*
X006101Y005323D02*
X006491Y005323D01*
X006413Y005402D02*
X006023Y005402D01*
X005901Y005480D02*
X005844Y005480D01*
X005823Y005559D02*
X004768Y005559D01*
X004689Y005637D02*
X005744Y005637D01*
X005666Y005716D02*
X004611Y005716D01*
X004532Y005794D02*
X005454Y005794D01*
X005353Y005873D02*
X004454Y005873D01*
X004375Y005951D02*
X005311Y005951D01*
X005294Y006030D02*
X004297Y006030D01*
X004218Y006108D02*
X005296Y006108D01*
X005329Y006187D02*
X000951Y006187D01*
X000923Y006265D02*
X000873Y006265D01*
X000817Y006344D02*
X000794Y006344D01*
X000738Y006422D02*
X000716Y006422D01*
X000702Y006501D02*
X000637Y006501D01*
X000626Y006579D02*
X000670Y006579D01*
X000655Y006658D02*
X000626Y006658D01*
X000626Y006736D02*
X000655Y006736D01*
X000655Y006815D02*
X000626Y006815D01*
X000626Y006893D02*
X000686Y006893D01*
X000718Y006972D02*
X000626Y006972D01*
X000626Y007050D02*
X000777Y007050D01*
X000855Y007129D02*
X000626Y007129D01*
X000626Y007207D02*
X001015Y007207D01*
X000975Y007286D02*
X000626Y007286D01*
X000626Y007364D02*
X000896Y007364D01*
X000826Y007443D02*
X000626Y007443D01*
X000626Y007521D02*
X000794Y007521D01*
X000761Y007600D02*
X000626Y007600D01*
X000626Y007678D02*
X000755Y007678D01*
X000755Y007757D02*
X000626Y007757D01*
X000626Y007835D02*
X000762Y007835D01*
X000794Y007914D02*
X000626Y007914D01*
X000626Y007992D02*
X000827Y007992D01*
X000897Y008071D02*
X000626Y008071D01*
X000626Y008149D02*
X000976Y008149D01*
X001013Y008228D02*
X000626Y008228D01*
X000626Y008306D02*
X000854Y008306D01*
X000776Y008385D02*
X000626Y008385D01*
X000626Y008463D02*
X000718Y008463D01*
X000685Y008542D02*
X000626Y008542D01*
X000626Y008620D02*
X000655Y008620D01*
X000655Y008699D02*
X000626Y008699D01*
X000626Y008777D02*
X000655Y008777D01*
X000670Y008856D02*
X000626Y008856D01*
X000626Y008934D02*
X000703Y008934D01*
X000739Y009013D02*
X000626Y009013D01*
X000626Y009091D02*
X000818Y009091D01*
X000925Y009170D02*
X000626Y009170D01*
X000626Y009248D02*
X001064Y009248D01*
X000934Y009327D02*
X000626Y009327D01*
X000626Y009405D02*
X000855Y009405D01*
X000809Y009484D02*
X000626Y009484D01*
X000626Y009562D02*
X000777Y009562D01*
X000755Y009641D02*
X000626Y009641D01*
X000626Y009719D02*
X000755Y009719D01*
X000755Y009798D02*
X000626Y009798D01*
X000626Y009876D02*
X000779Y009876D01*
X000811Y009955D02*
X000626Y009955D01*
X000626Y010033D02*
X000860Y010033D01*
X000938Y010112D02*
X000626Y010112D01*
X000626Y010190D02*
X001074Y010190D01*
X001455Y010190D02*
X002136Y010190D01*
X002214Y010112D02*
X001591Y010112D01*
X001670Y010033D02*
X002293Y010033D01*
X002371Y009955D02*
X001718Y009955D01*
X001751Y009876D02*
X002450Y009876D01*
X002528Y009798D02*
X001775Y009798D01*
X001775Y009719D02*
X002607Y009719D01*
X002685Y009641D02*
X001775Y009641D01*
X001752Y009562D02*
X004439Y009562D01*
X004360Y009484D02*
X001720Y009484D01*
X001674Y009405D02*
X003464Y009405D01*
X003302Y009327D02*
X001596Y009327D01*
X001466Y009248D02*
X003224Y009248D01*
X003145Y009170D02*
X001404Y009170D01*
X001512Y009091D02*
X003111Y009091D01*
X003078Y009013D02*
X001590Y009013D01*
X001627Y008934D02*
X003046Y008934D01*
X003044Y008856D02*
X001659Y008856D01*
X001675Y008777D02*
X003044Y008777D01*
X003044Y008699D02*
X001746Y008699D01*
X001825Y008620D02*
X003067Y008620D01*
X003100Y008542D02*
X001903Y008542D01*
X001982Y008463D02*
X003133Y008463D01*
X003198Y008385D02*
X002060Y008385D01*
X002139Y008306D02*
X003277Y008306D01*
X003402Y008228D02*
X002217Y008228D01*
X002296Y008149D02*
X006293Y008149D01*
X006372Y008228D02*
X005935Y008228D01*
X006060Y008306D02*
X006450Y008306D01*
X006529Y008385D02*
X006139Y008385D01*
X006204Y008463D02*
X006607Y008463D01*
X006686Y008542D02*
X006237Y008542D01*
X006270Y008620D02*
X006764Y008620D01*
X006843Y008699D02*
X006293Y008699D01*
X006293Y008777D02*
X006921Y008777D01*
X006981Y008856D02*
X006293Y008856D01*
X006291Y008934D02*
X006983Y008934D01*
X007015Y009013D02*
X006259Y009013D01*
X006226Y009091D02*
X007048Y009091D01*
X007082Y009170D02*
X006192Y009170D01*
X006113Y009248D02*
X007161Y009248D01*
X007239Y009327D02*
X006179Y009327D01*
X006296Y009405D02*
X007401Y009405D01*
X007841Y009405D02*
X008404Y009405D01*
X008404Y009484D02*
X006344Y009484D01*
X006366Y009562D02*
X008434Y009562D01*
X008337Y009327D02*
X008003Y009327D01*
X008082Y009248D02*
X008259Y009248D01*
X008180Y009170D02*
X008160Y009170D01*
X008063Y010112D02*
X023252Y010112D01*
X023252Y010190D02*
X008141Y010190D01*
X008187Y010269D02*
X023252Y010269D01*
X023252Y010347D02*
X019789Y010347D01*
X019894Y010426D02*
X023251Y010426D01*
X023251Y010504D02*
X019938Y010504D01*
X019955Y010583D02*
X023251Y010583D01*
X023251Y010661D02*
X019954Y010661D01*
X019922Y010740D02*
X023251Y010740D01*
X023251Y010818D02*
X019856Y010818D01*
X019856Y010897D02*
X023251Y010897D01*
X023250Y010975D02*
X019856Y010975D01*
X019856Y011054D02*
X023250Y011054D01*
X023250Y011132D02*
X019856Y011132D01*
X019856Y011211D02*
X023250Y011211D01*
X023250Y011289D02*
X019856Y011289D01*
X019856Y011368D02*
X023250Y011368D01*
X023250Y011446D02*
X023166Y011446D01*
X023233Y011525D02*
X023249Y011525D01*
X023249Y011839D02*
X023205Y011839D01*
X023249Y011917D02*
X023100Y011917D01*
X022808Y011446D02*
X021855Y011446D01*
X021537Y011446D02*
X019856Y011446D01*
X019856Y011525D02*
X021459Y011525D01*
X021426Y011603D02*
X019856Y011603D01*
X019856Y011682D02*
X021417Y011682D01*
X021427Y011760D02*
X019856Y011760D01*
X019856Y011839D02*
X021459Y011839D01*
X021537Y011917D02*
X019856Y011917D01*
X019856Y012153D02*
X020856Y012153D01*
X020727Y012231D02*
X019782Y012231D01*
X019856Y012157D02*
X019856Y012157D01*
X019497Y011839D02*
X019314Y011839D01*
X019497Y011760D02*
X007511Y011760D01*
X007433Y011682D02*
X019497Y011682D01*
X019497Y011603D02*
X007354Y011603D01*
X007575Y011525D02*
X019497Y011525D01*
X019497Y011446D02*
X007658Y011446D01*
X007693Y011368D02*
X019497Y011368D01*
X019497Y011289D02*
X007704Y011289D01*
X007760Y011211D02*
X019497Y011211D01*
X019497Y011132D02*
X007949Y011132D01*
X008048Y011054D02*
X019497Y011054D01*
X019497Y010975D02*
X008126Y010975D01*
X008181Y010897D02*
X019497Y010897D01*
X019497Y010818D02*
X008213Y010818D01*
X008246Y010740D02*
X019431Y010740D01*
X019399Y010661D02*
X008261Y010661D01*
X008261Y010583D02*
X019397Y010583D01*
X019415Y010504D02*
X008261Y010504D01*
X008252Y010426D02*
X019459Y010426D01*
X019564Y010347D02*
X008220Y010347D01*
X007447Y009955D02*
X006317Y009955D01*
X006094Y010112D02*
X007180Y010112D01*
X007101Y010190D02*
X006173Y010190D01*
X006219Y010269D02*
X007055Y010269D01*
X007023Y010347D02*
X006251Y010347D01*
X006284Y010426D02*
X006990Y010426D01*
X006981Y010504D02*
X006293Y010504D01*
X006334Y010583D02*
X006981Y010583D01*
X006981Y010661D02*
X006412Y010661D01*
X006491Y010740D02*
X006997Y010740D01*
X007029Y010818D02*
X006569Y010818D01*
X006648Y010897D02*
X007062Y010897D01*
X007116Y010975D02*
X006726Y010975D01*
X006805Y011054D02*
X007195Y011054D01*
X007184Y011132D02*
X006883Y011132D01*
X006962Y011211D02*
X007152Y011211D01*
X007144Y011289D02*
X007040Y011289D01*
X007119Y011368D02*
X007156Y011368D01*
X006873Y011603D02*
X003566Y011603D01*
X003487Y011682D02*
X006952Y011682D01*
X007030Y011760D02*
X003409Y011760D01*
X003330Y011839D02*
X007109Y011839D01*
X007187Y011917D02*
X003252Y011917D01*
X003007Y011682D02*
X000941Y011682D01*
X000941Y011630D02*
X000941Y015130D01*
X001968Y015130D01*
X001948Y015080D01*
X001948Y014968D01*
X001990Y014865D01*
X002069Y014787D01*
X002131Y014761D01*
X002118Y014761D01*
X001212Y013855D01*
X001113Y013756D01*
X001113Y012119D01*
X001212Y012019D01*
X002669Y012019D01*
X003365Y011323D01*
X003365Y011228D01*
X003398Y011149D01*
X003322Y011118D01*
X003142Y010938D01*
X003044Y010703D01*
X003044Y010448D01*
X003142Y010213D01*
X003322Y010033D01*
X003557Y009935D01*
X003812Y009935D01*
X003839Y009946D01*
X003811Y009918D01*
X002889Y009918D01*
X001492Y011315D01*
X001392Y011414D01*
X001156Y011414D01*
X000941Y011630D01*
X000968Y011603D02*
X003085Y011603D01*
X003164Y011525D02*
X001046Y011525D01*
X001125Y011446D02*
X003242Y011446D01*
X003321Y011368D02*
X001439Y011368D01*
X001518Y011289D02*
X003365Y011289D01*
X003372Y011211D02*
X001596Y011211D01*
X001675Y011132D02*
X003356Y011132D01*
X003258Y011054D02*
X001753Y011054D01*
X001832Y010975D02*
X003179Y010975D01*
X003125Y010897D02*
X001910Y010897D01*
X001989Y010818D02*
X003092Y010818D01*
X003060Y010740D02*
X002067Y010740D01*
X002146Y010661D02*
X003044Y010661D01*
X003044Y010583D02*
X002224Y010583D01*
X002303Y010504D02*
X003044Y010504D01*
X003053Y010426D02*
X002381Y010426D01*
X002460Y010347D02*
X003086Y010347D01*
X003118Y010269D02*
X002538Y010269D01*
X002617Y010190D02*
X003164Y010190D01*
X003243Y010112D02*
X002695Y010112D01*
X002774Y010033D02*
X003321Y010033D01*
X003510Y009955D02*
X002852Y009955D01*
X002057Y010269D02*
X000626Y010269D01*
X000626Y010347D02*
X001979Y010347D01*
X001900Y010426D02*
X000626Y010426D01*
X000626Y010504D02*
X001822Y010504D01*
X001743Y010583D02*
X000626Y010583D01*
X000626Y010661D02*
X001665Y010661D01*
X001586Y010740D02*
X000626Y010740D01*
X000626Y010818D02*
X001508Y010818D01*
X001429Y010897D02*
X000626Y010897D01*
X000626Y010975D02*
X001351Y010975D01*
X001272Y011054D02*
X000626Y011054D01*
X000626Y011132D02*
X000958Y011132D01*
X000879Y011211D02*
X000626Y011211D01*
X000626Y011289D02*
X000801Y011289D01*
X000722Y011368D02*
X000626Y011368D01*
X000626Y011446D02*
X000644Y011446D01*
X000941Y011760D02*
X002928Y011760D01*
X002850Y011839D02*
X000941Y011839D01*
X000941Y011917D02*
X002771Y011917D01*
X002693Y011996D02*
X000941Y011996D01*
X000941Y012074D02*
X001157Y012074D01*
X001113Y012153D02*
X000941Y012153D01*
X000941Y012231D02*
X001113Y012231D01*
X001113Y012310D02*
X000941Y012310D01*
X000941Y012388D02*
X001113Y012388D01*
X001113Y012467D02*
X000941Y012467D01*
X000941Y012545D02*
X001113Y012545D01*
X001113Y012624D02*
X000941Y012624D01*
X000941Y012702D02*
X001113Y012702D01*
X001113Y012781D02*
X000941Y012781D01*
X000941Y012859D02*
X001113Y012859D01*
X001113Y012938D02*
X000941Y012938D01*
X000941Y013016D02*
X001113Y013016D01*
X001113Y013095D02*
X000941Y013095D01*
X000941Y013173D02*
X001113Y013173D01*
X001113Y013252D02*
X000941Y013252D01*
X000941Y013330D02*
X001113Y013330D01*
X001113Y013409D02*
X000941Y013409D01*
X000941Y013487D02*
X001113Y013487D01*
X001113Y013566D02*
X000941Y013566D01*
X000941Y013644D02*
X001113Y013644D01*
X001113Y013723D02*
X000941Y013723D01*
X000941Y013801D02*
X001158Y013801D01*
X001236Y013880D02*
X000941Y013880D01*
X000941Y013958D02*
X001315Y013958D01*
X001393Y014037D02*
X000941Y014037D01*
X000941Y014115D02*
X001472Y014115D01*
X001550Y014194D02*
X000941Y014194D01*
X000941Y014272D02*
X001629Y014272D01*
X001707Y014351D02*
X000941Y014351D01*
X000941Y014429D02*
X001786Y014429D01*
X001864Y014508D02*
X000941Y014508D01*
X000941Y014586D02*
X001943Y014586D01*
X002021Y014665D02*
X000941Y014665D01*
X000941Y014743D02*
X002100Y014743D01*
X002034Y014822D02*
X000941Y014822D01*
X000941Y014900D02*
X001976Y014900D01*
X001948Y014979D02*
X000941Y014979D01*
X000941Y015057D02*
X001948Y015057D01*
X002259Y014421D02*
X001453Y013615D01*
X001453Y013213D01*
X001463Y013217D01*
X001575Y013217D01*
X001678Y013175D01*
X001756Y013096D01*
X001768Y013068D01*
X001913Y013068D01*
X001908Y013079D01*
X001908Y013190D01*
X001951Y013293D01*
X002030Y013372D01*
X002132Y013414D01*
X002244Y013414D01*
X002347Y013372D01*
X002414Y013304D01*
X004778Y013304D01*
X004826Y013257D01*
X004921Y013257D01*
X004932Y013252D01*
X004932Y013578D01*
X004889Y013620D01*
X004867Y013566D01*
X004788Y013487D01*
X004685Y013445D01*
X004573Y013445D01*
X004471Y013487D01*
X001453Y013487D01*
X001453Y013409D02*
X002119Y013409D01*
X002257Y013409D02*
X004932Y013409D01*
X004932Y013487D02*
X004787Y013487D01*
X004866Y013566D02*
X004932Y013566D01*
X004932Y013330D02*
X002388Y013330D01*
X001988Y013330D02*
X001453Y013330D01*
X001453Y013252D02*
X001934Y013252D01*
X001908Y013173D02*
X001679Y013173D01*
X001757Y013095D02*
X001908Y013095D01*
X001453Y013566D02*
X004392Y013566D01*
X004471Y013487D01*
X004392Y013566D02*
X004349Y013669D01*
X004349Y013780D01*
X004392Y013883D01*
X004459Y013951D01*
X004459Y014185D01*
X004146Y014185D01*
X004079Y014117D01*
X003976Y014075D01*
X003865Y014075D01*
X003762Y014117D01*
X003683Y014196D01*
X003640Y014299D01*
X003640Y014410D01*
X003645Y014421D01*
X002259Y014421D01*
X002188Y014351D02*
X003640Y014351D01*
X003652Y014272D02*
X002110Y014272D01*
X002031Y014194D02*
X003686Y014194D01*
X003767Y014115D02*
X001953Y014115D01*
X001874Y014037D02*
X004459Y014037D01*
X004459Y014115D02*
X004074Y014115D01*
X004390Y013880D02*
X001717Y013880D01*
X001796Y013958D02*
X004459Y013958D01*
X004358Y013801D02*
X001639Y013801D01*
X001560Y013723D02*
X004349Y013723D01*
X004359Y013644D02*
X001482Y013644D01*
X002833Y012728D02*
X002859Y012702D01*
X003248Y012702D01*
X003222Y012728D02*
X003289Y012661D01*
X003392Y012618D01*
X003504Y012618D01*
X003607Y012661D01*
X003685Y012739D01*
X003728Y012842D01*
X003728Y012954D01*
X003724Y012964D01*
X004585Y012964D01*
X004585Y012921D01*
X004628Y012818D01*
X004707Y012739D01*
X004810Y012697D01*
X004921Y012697D01*
X004932Y012701D01*
X004932Y012573D01*
X004864Y012505D01*
X004822Y012403D01*
X004822Y012291D01*
X004826Y012281D01*
X003125Y012281D01*
X002901Y012504D01*
X002901Y012599D01*
X002859Y012702D01*
X002833Y012728D02*
X003222Y012728D01*
X003379Y012624D02*
X002891Y012624D01*
X002901Y012545D02*
X004904Y012545D01*
X004932Y012624D02*
X003517Y012624D01*
X003648Y012702D02*
X004797Y012702D01*
X004665Y012781D02*
X003702Y012781D01*
X003728Y012859D02*
X004611Y012859D01*
X004585Y012938D02*
X003728Y012938D01*
X003096Y012310D02*
X004822Y012310D01*
X004822Y012388D02*
X003017Y012388D01*
X002939Y012467D02*
X004848Y012467D01*
X005272Y013252D02*
X006200Y013252D01*
X006122Y013330D02*
X005272Y013330D01*
X005272Y013409D02*
X006043Y013409D01*
X005965Y013487D02*
X005272Y013487D01*
X005272Y013566D02*
X005886Y013566D01*
X005808Y013644D02*
X005338Y013644D01*
X005371Y013723D02*
X005729Y013723D01*
X005651Y013801D02*
X005382Y013801D01*
X007111Y014037D02*
X007345Y014037D01*
X007169Y014115D02*
X007161Y014115D01*
X008264Y016456D02*
X008264Y017216D01*
X009637Y017216D01*
X010621Y016232D01*
X009069Y016244D01*
X009000Y016313D01*
X008897Y016355D01*
X008786Y016355D01*
X008765Y016346D01*
X008725Y016442D01*
X008646Y016521D01*
X008543Y016564D01*
X008432Y016564D01*
X008329Y016521D01*
X008264Y016456D01*
X008264Y016470D02*
X008278Y016470D01*
X008264Y016549D02*
X008395Y016549D01*
X008264Y016627D02*
X009131Y016627D01*
X009115Y016666D02*
X009175Y016520D01*
X009287Y016408D01*
X009433Y016347D01*
X009591Y016347D01*
X009737Y016408D01*
X009849Y016520D01*
X009910Y016666D01*
X009910Y016824D01*
X009849Y016970D01*
X009737Y017082D01*
X009591Y017142D01*
X009433Y017142D01*
X009287Y017082D01*
X009175Y016970D01*
X009115Y016824D01*
X009115Y016666D01*
X009115Y016706D02*
X008264Y016706D01*
X008264Y016784D02*
X009115Y016784D01*
X009131Y016863D02*
X008264Y016863D01*
X008264Y016941D02*
X009163Y016941D01*
X009225Y017020D02*
X008264Y017020D01*
X008264Y017098D02*
X009326Y017098D01*
X009677Y017177D02*
X008264Y017177D01*
X008580Y016549D02*
X009163Y016549D01*
X009225Y016470D02*
X008697Y016470D01*
X008746Y016392D02*
X009326Y016392D01*
X008999Y016313D02*
X010541Y016313D01*
X010619Y016235D02*
X010296Y016235D01*
X010462Y016392D02*
X009698Y016392D01*
X009800Y016470D02*
X010384Y016470D01*
X010305Y016549D02*
X009861Y016549D01*
X009894Y016627D02*
X010226Y016627D01*
X010148Y016706D02*
X009910Y016706D01*
X009910Y016784D02*
X010069Y016784D01*
X009991Y016863D02*
X009894Y016863D01*
X009912Y016941D02*
X009861Y016941D01*
X009834Y017020D02*
X009800Y017020D01*
X009755Y017098D02*
X009698Y017098D01*
X010974Y015607D02*
X011063Y015607D01*
X011364Y014115D02*
X011671Y014115D01*
X011815Y014115D02*
X012894Y014115D01*
X012861Y014037D02*
X011944Y014037D01*
X011542Y014037D02*
X011348Y014037D01*
X011416Y013958D02*
X011489Y013958D01*
X012861Y013252D02*
X012935Y013252D01*
X014083Y012859D02*
X020924Y012859D01*
X020845Y012938D02*
X014161Y012938D01*
X014240Y013016D02*
X020767Y013016D01*
X020688Y013095D02*
X014318Y013095D01*
X014397Y013173D02*
X020610Y013173D01*
X020531Y013252D02*
X017113Y013252D01*
X017191Y013330D02*
X020453Y013330D01*
X020374Y013409D02*
X017270Y013409D01*
X017348Y013487D02*
X020296Y013487D01*
X020217Y013566D02*
X017427Y013566D01*
X017505Y013644D02*
X020139Y013644D01*
X020060Y013723D02*
X017584Y013723D01*
X017662Y013801D02*
X019982Y013801D01*
X019903Y013880D02*
X017741Y013880D01*
X017791Y013958D02*
X019825Y013958D01*
X019746Y014037D02*
X017791Y014037D01*
X017791Y014115D02*
X019668Y014115D01*
X019589Y014194D02*
X017791Y014194D01*
X017791Y014272D02*
X019511Y014272D01*
X019432Y014351D02*
X017791Y014351D01*
X017791Y014429D02*
X019354Y014429D01*
X019275Y014508D02*
X017791Y014508D01*
X017791Y014586D02*
X019197Y014586D01*
X019118Y014665D02*
X017791Y014665D01*
X017791Y014743D02*
X018024Y014743D01*
X018014Y014747D02*
X018117Y014705D01*
X018228Y014705D01*
X018331Y014747D01*
X018410Y014826D01*
X018452Y014929D01*
X018452Y015040D01*
X018410Y015143D01*
X018331Y015222D01*
X018228Y015265D01*
X018133Y015265D01*
X017831Y015567D01*
X017731Y015666D01*
X017690Y015666D01*
X017622Y015734D01*
X017519Y015776D01*
X017408Y015776D01*
X017305Y015734D01*
X017226Y015655D01*
X017184Y015552D01*
X017184Y015441D01*
X017226Y015338D01*
X017305Y015259D01*
X017408Y015216D01*
X017519Y015216D01*
X017622Y015259D01*
X017640Y015277D01*
X017892Y015024D01*
X017892Y014929D01*
X017935Y014826D01*
X018014Y014747D01*
X017939Y014822D02*
X017791Y014822D01*
X017791Y014900D02*
X017904Y014900D01*
X017892Y014979D02*
X017750Y014979D01*
X017859Y015057D02*
X017590Y015057D01*
X017467Y015136D02*
X017781Y015136D01*
X017702Y015214D02*
X017153Y015214D01*
X017186Y015136D02*
X017303Y015136D01*
X017272Y015293D02*
X017079Y015293D01*
X017213Y015371D02*
X016845Y015371D01*
X016767Y015450D02*
X017184Y015450D01*
X017184Y015528D02*
X016688Y015528D01*
X016610Y015607D02*
X017206Y015607D01*
X017257Y015685D02*
X016531Y015685D01*
X016453Y015764D02*
X017377Y015764D01*
X017550Y015764D02*
X018019Y015764D01*
X017941Y015842D02*
X016374Y015842D01*
X016296Y015921D02*
X017862Y015921D01*
X017784Y015999D02*
X016217Y015999D01*
X016139Y016078D02*
X017705Y016078D01*
X017627Y016156D02*
X016060Y016156D01*
X015982Y016235D02*
X017548Y016235D01*
X017470Y016313D02*
X015903Y016313D01*
X015825Y016392D02*
X017391Y016392D01*
X017313Y016470D02*
X015746Y016470D01*
X015668Y016549D02*
X017234Y016549D01*
X017156Y016627D02*
X015589Y016627D01*
X015511Y016706D02*
X017077Y016706D01*
X016999Y016784D02*
X015432Y016784D01*
X015354Y016863D02*
X016920Y016863D01*
X016842Y016941D02*
X015311Y016941D01*
X015311Y017020D02*
X016763Y017020D01*
X016685Y017098D02*
X015311Y017098D01*
X015311Y017177D02*
X016606Y017177D01*
X016528Y017255D02*
X015327Y017255D01*
X015390Y017334D02*
X016449Y017334D01*
X016371Y017412D02*
X015421Y017412D01*
X015421Y017491D02*
X016292Y017491D01*
X016214Y017569D02*
X015401Y017569D01*
X015354Y017648D02*
X016135Y017648D01*
X016057Y017726D02*
X015242Y017726D01*
X015040Y017726D02*
X014293Y017726D01*
X014278Y017805D02*
X015978Y017805D01*
X015900Y017883D02*
X014258Y017883D01*
X014212Y017962D02*
X015821Y017962D01*
X015743Y018040D02*
X014100Y018040D01*
X013898Y018040D02*
X013610Y018040D01*
X013676Y017962D02*
X013786Y017962D01*
X013544Y018119D02*
X015664Y018119D01*
X015586Y018197D02*
X013479Y018197D01*
X013413Y018276D02*
X015507Y018276D01*
X015429Y018354D02*
X013348Y018354D01*
X013282Y018433D02*
X015350Y018433D01*
X015272Y018511D02*
X013216Y018511D01*
X013151Y018590D02*
X015193Y018590D01*
X015168Y019139D02*
X015124Y019139D01*
X015075Y019189D02*
X015075Y019189D01*
X015046Y019218D02*
X015157Y019218D01*
X014928Y017648D02*
X014372Y017648D01*
X014450Y017569D02*
X014881Y017569D01*
X014861Y017491D02*
X014529Y017491D01*
X014607Y017412D02*
X014861Y017412D01*
X014892Y017334D02*
X014686Y017334D01*
X014764Y017255D02*
X014955Y017255D01*
X014971Y017177D02*
X014843Y017177D01*
X014921Y017098D02*
X014971Y017098D01*
X017671Y015685D02*
X018098Y015685D01*
X018176Y015607D02*
X017791Y015607D01*
X017869Y015528D02*
X018255Y015528D01*
X018333Y015450D02*
X017948Y015450D01*
X018026Y015371D02*
X018412Y015371D01*
X018490Y015293D02*
X018105Y015293D01*
X018339Y015214D02*
X018569Y015214D01*
X018647Y015136D02*
X018413Y015136D01*
X018445Y015057D02*
X018726Y015057D01*
X018804Y014979D02*
X018452Y014979D01*
X018441Y014900D02*
X018883Y014900D01*
X018961Y014822D02*
X018405Y014822D01*
X018321Y014743D02*
X019040Y014743D01*
X023230Y021416D02*
X000281Y021416D01*
X000281Y021494D02*
X023230Y021494D01*
X023230Y021573D02*
X000281Y021573D01*
X000281Y021651D02*
X023230Y021651D01*
X022264Y023143D02*
X007605Y023143D01*
X007516Y023221D02*
X021936Y023221D01*
X012046Y018904D02*
X011899Y018904D01*
X011977Y018982D02*
X011981Y018982D01*
X006920Y021887D02*
X000287Y021887D01*
X000292Y021965D02*
X006730Y021965D01*
X006637Y022044D02*
X000309Y022044D01*
X000331Y022122D02*
X006559Y022122D01*
X006492Y022201D02*
X000352Y022201D01*
X000373Y022279D02*
X006459Y022279D01*
X006427Y022358D02*
X000398Y022358D01*
X000390Y022345D02*
X000390Y022345D01*
X000443Y022436D02*
X006394Y022436D01*
X006389Y022515D02*
X000488Y022515D01*
X000534Y022593D02*
X002990Y022593D01*
X002907Y022672D02*
X000580Y022672D01*
X000659Y022750D02*
X002853Y022750D01*
X002820Y022829D02*
X000737Y022829D01*
X000816Y022907D02*
X002810Y022907D01*
X002810Y022986D02*
X000932Y022986D01*
X001068Y023064D02*
X002831Y023064D01*
X002864Y023143D02*
X001247Y023143D01*
X001574Y023221D02*
X002933Y023221D01*
X003481Y023221D02*
X006722Y023221D01*
X006634Y023143D02*
X003551Y023143D01*
X003583Y023064D02*
X006555Y023064D01*
X006490Y022986D02*
X003605Y022986D01*
X003605Y022907D02*
X006458Y022907D01*
X006425Y022829D02*
X003594Y022829D01*
X003561Y022750D02*
X006393Y022750D01*
X006389Y022672D02*
X003507Y022672D01*
X003424Y022593D02*
X006389Y022593D01*
X006795Y011525D02*
X003795Y011525D01*
X003879Y011446D02*
X006716Y011446D01*
X006638Y011368D02*
X003913Y011368D01*
X003925Y011289D02*
X006559Y011289D01*
X006481Y011211D02*
X005791Y011211D01*
X005981Y011132D02*
X006402Y011132D01*
X006324Y011054D02*
X006079Y011054D01*
X006158Y010975D02*
X006245Y010975D01*
X005515Y011211D02*
X003918Y011211D01*
X004012Y011132D02*
X005325Y011132D01*
X005226Y011054D02*
X004111Y011054D01*
X004189Y010975D02*
X005148Y010975D01*
X005093Y010897D02*
X004972Y010897D01*
X005058Y010818D02*
X005061Y010818D01*
X004680Y010897D02*
X004244Y010897D01*
X004282Y009405D02*
X003904Y009405D01*
X004066Y009327D02*
X004203Y009327D01*
X004448Y009091D02*
X005007Y009091D01*
X005047Y009013D02*
X004370Y009013D01*
X004323Y008934D02*
X005014Y008934D01*
X005013Y008856D02*
X004324Y008856D01*
X004324Y008777D02*
X005013Y008777D01*
X005013Y008699D02*
X004324Y008699D01*
X004301Y008620D02*
X005036Y008620D01*
X005069Y008542D02*
X004269Y008542D01*
X004236Y008463D02*
X005101Y008463D01*
X005167Y008385D02*
X004170Y008385D01*
X004092Y008306D02*
X005245Y008306D01*
X005371Y008228D02*
X003966Y008228D01*
X003890Y007443D02*
X005447Y007443D01*
X005609Y007521D02*
X002805Y007521D01*
X002884Y007443D02*
X003479Y007443D01*
X003308Y007364D02*
X002962Y007364D01*
X003041Y007286D02*
X003230Y007286D01*
X003151Y007207D02*
X003119Y007207D01*
X002874Y006972D02*
X001611Y006972D01*
X001644Y006893D02*
X002953Y006893D01*
X003031Y006815D02*
X001675Y006815D01*
X001675Y006736D02*
X003044Y006736D01*
X003065Y006658D02*
X001675Y006658D01*
X001660Y006579D02*
X003098Y006579D01*
X003130Y006501D02*
X001627Y006501D01*
X001591Y006422D02*
X003192Y006422D01*
X003271Y006344D02*
X001513Y006344D01*
X001407Y006265D02*
X003388Y006265D01*
X003981Y006265D02*
X005356Y006265D01*
X005239Y006344D02*
X004098Y006344D01*
X004176Y006422D02*
X005161Y006422D01*
X005099Y006501D02*
X004238Y006501D01*
X004271Y006579D02*
X005066Y006579D01*
X005034Y006658D02*
X004304Y006658D01*
X004324Y006736D02*
X005013Y006736D01*
X005013Y006815D02*
X004324Y006815D01*
X004324Y006893D02*
X005013Y006893D01*
X005017Y006972D02*
X004320Y006972D01*
X004288Y007050D02*
X005049Y007050D01*
X005082Y007129D02*
X004255Y007129D01*
X004217Y007207D02*
X005120Y007207D01*
X005198Y007286D02*
X004139Y007286D01*
X004060Y007364D02*
X005277Y007364D01*
X006107Y007286D02*
X006497Y007286D01*
X006419Y007364D02*
X006134Y007364D01*
X006166Y007443D02*
X006340Y007443D01*
X006262Y007521D02*
X006169Y007521D01*
X006186Y007207D02*
X006576Y007207D01*
X006654Y007129D02*
X006224Y007129D01*
X006256Y007050D02*
X006733Y007050D01*
X006811Y006972D02*
X006289Y006972D01*
X006293Y006893D02*
X006890Y006893D01*
X006968Y006815D02*
X006293Y006815D01*
X006293Y006736D02*
X006981Y006736D01*
X007002Y006658D02*
X006272Y006658D01*
X006239Y006579D02*
X007035Y006579D01*
X007067Y006501D02*
X006207Y006501D01*
X006145Y006422D02*
X007129Y006422D01*
X007208Y006344D02*
X006066Y006344D01*
X005949Y006265D02*
X007325Y006265D01*
X007918Y006265D02*
X016337Y006265D01*
X016415Y006187D02*
X005820Y006187D01*
X005852Y006108D02*
X016494Y006108D01*
X016572Y006030D02*
X005854Y006030D01*
X005911Y005951D02*
X016651Y005951D01*
X016729Y005873D02*
X005989Y005873D01*
X006068Y005794D02*
X016808Y005794D01*
X016258Y006344D02*
X008035Y006344D01*
X008113Y006422D02*
X016180Y006422D01*
X016101Y006501D02*
X008175Y006501D01*
X008208Y006579D02*
X016023Y006579D01*
X015944Y006658D02*
X008241Y006658D01*
X008261Y006736D02*
X015866Y006736D01*
X015787Y006815D02*
X008261Y006815D01*
X008261Y006893D02*
X015709Y006893D01*
X015630Y006972D02*
X008257Y006972D01*
X008225Y007050D02*
X015552Y007050D01*
X015473Y007129D02*
X008192Y007129D01*
X008154Y007207D02*
X015395Y007207D01*
X015316Y007286D02*
X008232Y007286D01*
X008276Y007364D02*
X015238Y007364D01*
X022038Y000299D02*
X001511Y000299D01*
X001218Y000378D02*
X022361Y000378D01*
X022510Y000456D02*
X001054Y000456D01*
X000918Y000535D02*
X022659Y000535D01*
X022749Y000613D02*
X000808Y000613D01*
X000281Y002419D02*
X005616Y002419D01*
X005580Y002455D02*
X005798Y002237D01*
X005798Y002179D01*
X005727Y002105D02*
X003760Y002105D01*
X003767Y002026D02*
X005695Y002026D01*
X005688Y001948D02*
X003849Y001948D01*
X004039Y001869D02*
X005699Y001869D01*
X005734Y001791D02*
X004122Y001791D01*
X004200Y001712D02*
X005818Y001712D01*
X006118Y001712D02*
X023269Y001712D01*
X023268Y001634D02*
X004248Y001634D01*
X004281Y001555D02*
X023260Y001555D01*
X023251Y001477D02*
X004313Y001477D01*
X004324Y001398D02*
X023231Y001398D01*
X023206Y001320D02*
X004324Y001320D01*
X004324Y001241D02*
X023182Y001241D01*
X023158Y001163D02*
X004310Y001163D01*
X004278Y001084D02*
X023127Y001084D01*
X023077Y001006D02*
X004245Y001006D01*
X004193Y000927D02*
X023028Y000927D01*
X022979Y000849D02*
X004115Y000849D01*
X004021Y000770D02*
X022919Y000770D01*
X022834Y000692D02*
X003832Y000692D01*
X003914Y002497D02*
X005423Y002497D01*
X005525Y002455D02*
X005580Y002455D01*
X005525Y002455D02*
X005290Y002552D01*
X005110Y002732D01*
X005013Y002968D01*
X005045Y002890D02*
X004634Y002890D01*
X004634Y002811D02*
X005078Y002811D01*
X005110Y002733D02*
X004604Y002733D01*
X004545Y002654D02*
X005188Y002654D01*
X005267Y002576D02*
X004070Y002576D01*
X004149Y002654D02*
X004162Y002654D01*
X003455Y002497D02*
X000281Y002497D01*
X000281Y002576D02*
X003298Y002576D01*
X003220Y002654D02*
X000281Y002654D01*
X000281Y002733D02*
X003142Y002733D01*
X003109Y002811D02*
X000281Y002811D01*
X000281Y003047D02*
X003044Y003047D01*
X003044Y003125D02*
X000281Y003125D01*
X000281Y003204D02*
X003044Y003204D01*
X003069Y003282D02*
X000281Y003282D01*
X000281Y003361D02*
X003102Y003361D01*
X003134Y003439D02*
X000281Y003439D01*
X000281Y003518D02*
X003202Y003518D01*
X003280Y003596D02*
X000281Y003596D01*
X000281Y003675D02*
X003412Y003675D01*
X005003Y005323D02*
X005204Y005323D01*
X005126Y005245D02*
X005082Y005245D01*
X004925Y005402D02*
X005283Y005402D01*
X005462Y005480D02*
X004846Y005480D01*
X006821Y007443D02*
X007416Y007443D01*
X007245Y007364D02*
X006899Y007364D01*
X006978Y007286D02*
X007167Y007286D01*
X007088Y007207D02*
X007056Y007207D01*
X006585Y007678D02*
X007832Y007678D01*
X007339Y008228D02*
X006853Y008228D01*
X006931Y008306D02*
X007214Y008306D01*
X007135Y008385D02*
X007010Y008385D01*
X007258Y010033D02*
X006016Y010033D01*
X004773Y009170D02*
X004527Y009170D01*
X004605Y009248D02*
X004701Y009248D01*
X002639Y007207D02*
X001367Y007207D01*
X001474Y007129D02*
X002717Y007129D01*
X002796Y007050D02*
X001553Y007050D01*
X001555Y007286D02*
X001696Y007286D01*
X002051Y007286D02*
X002560Y007286D01*
X006138Y002183D02*
X023268Y002183D01*
X023268Y002105D02*
X006208Y002105D01*
X006241Y002026D02*
X023268Y002026D01*
X023268Y001948D02*
X006248Y001948D01*
X006236Y001869D02*
X023268Y001869D01*
X023268Y001791D02*
X006201Y001791D01*
D17*
X009393Y004276D03*
X009393Y004670D03*
X009393Y005063D03*
X009787Y005063D03*
X009787Y004670D03*
X009787Y004276D03*
X009787Y005457D03*
X009787Y005851D03*
X009787Y006244D03*
X009393Y006244D03*
X009393Y005851D03*
X009393Y005457D03*
X009393Y006638D03*
X009393Y007032D03*
X009393Y007426D03*
X009393Y007819D03*
X009787Y007819D03*
X009787Y007426D03*
X009787Y007032D03*
X009787Y006638D03*
X006814Y010756D03*
X005499Y011898D03*
X005483Y012374D03*
X006633Y012032D03*
X007354Y013646D03*
X006771Y013650D03*
X005480Y013776D03*
X004157Y013382D03*
X004200Y012922D03*
X003665Y014059D03*
X002609Y014280D03*
X008298Y015209D03*
X008448Y015496D03*
X008999Y015276D03*
X010314Y015406D03*
X010369Y014776D03*
X010850Y013910D03*
X011743Y013843D03*
X011850Y013217D03*
X011361Y012937D03*
X011165Y011756D03*
X011165Y011363D03*
X011558Y011363D03*
X011558Y011756D03*
X011952Y011756D03*
X011952Y011363D03*
X012346Y011363D03*
X012346Y011756D03*
X012739Y011756D03*
X012739Y011363D03*
X015102Y012150D03*
X015495Y012150D03*
X015495Y011756D03*
X015889Y011756D03*
X016283Y011756D03*
X016676Y011756D03*
X016676Y012150D03*
X016283Y012150D03*
X015889Y012150D03*
X015889Y012741D03*
X015889Y013134D03*
X016283Y013134D03*
X016676Y013134D03*
X016676Y012741D03*
X016283Y012741D03*
X015495Y012741D03*
X015495Y013134D03*
X015102Y013134D03*
X015102Y012741D03*
X014983Y013685D03*
X014196Y014827D03*
X014586Y016241D03*
X014976Y016445D03*
X013999Y017780D03*
X010417Y019315D03*
X009239Y019323D03*
X009834Y017744D03*
X008775Y017103D03*
X010157Y016441D03*
X010039Y013244D03*
X009680Y012725D03*
X017070Y011756D03*
X019184Y012087D03*
X019676Y010603D03*
X021696Y011681D03*
X022987Y011662D03*
X022976Y010378D03*
X022582Y009788D03*
X022188Y009788D03*
X022188Y010181D03*
X022188Y009394D03*
X022582Y009394D03*
X021283Y007426D03*
X021401Y002111D03*
X021401Y001717D03*
X021794Y001717D03*
X021794Y002111D03*
X022188Y002111D03*
X022582Y002111D03*
X022582Y001717D03*
X022188Y001717D03*
X022188Y001323D03*
X022582Y001323D03*
X022976Y001323D03*
X022976Y001717D03*
X022976Y002111D03*
X021794Y001323D03*
X021401Y001323D03*
X010968Y001323D03*
X010968Y000930D03*
X010968Y000536D03*
X010574Y000536D03*
X010574Y000930D03*
X010180Y000930D03*
X010180Y000536D03*
X010180Y001323D03*
X010574Y001323D03*
X010574Y001717D03*
X010180Y001717D03*
X010968Y001717D03*
X010968Y002111D03*
X019550Y015693D03*
X019039Y018489D03*
D18*
X016281Y019799D02*
X015850Y019788D01*
X015613Y019788D01*
X015298Y019473D01*
X012228Y019473D01*
X011637Y018882D01*
X010968Y018882D01*
X010850Y018764D01*
X010928Y019119D02*
X009983Y019119D01*
X009865Y019237D01*
X009472Y018922D02*
X009865Y018528D01*
X013027Y018473D01*
X014775Y016382D01*
X014775Y016189D01*
X014830Y016134D01*
X015310Y016138D01*
X017385Y014119D01*
X017621Y014000D02*
X017621Y014867D01*
X017385Y014867D01*
X016913Y015063D02*
X015141Y016835D01*
X015141Y017465D01*
X014976Y016804D02*
X013999Y017780D01*
X013684Y017268D02*
X011440Y017268D01*
X011165Y017544D01*
X006243Y017544D01*
X004787Y016087D01*
X004708Y015615D02*
X000456Y015615D01*
X000456Y006441D01*
X000889Y006008D01*
X004078Y006008D01*
X005220Y004867D01*
X005653Y004867D01*
X006007Y005615D02*
X006440Y005615D01*
X007188Y004867D01*
X007621Y004867D01*
X007976Y003174D02*
X007897Y003095D01*
X007621Y003095D01*
X007424Y003095D01*
X007424Y002662D01*
X007228Y002465D01*
X007976Y003174D02*
X009432Y003174D01*
X010259Y004000D01*
X007818Y006835D02*
X007621Y006835D01*
X007188Y006835D01*
X006283Y007741D01*
X001991Y007741D01*
X001913Y007819D01*
X001716Y007819D01*
X001598Y007701D01*
X001283Y007701D01*
X001265Y007717D01*
X001873Y007504D02*
X002582Y007504D01*
X003251Y006835D01*
X003684Y006835D01*
X002228Y007977D02*
X006361Y007977D01*
X007188Y008804D01*
X007621Y008804D01*
X008054Y008804D01*
X008684Y009433D01*
X007621Y010575D02*
X007621Y011087D01*
X007424Y011284D01*
X007739Y012229D02*
X013212Y012229D01*
X014393Y013410D01*
X017031Y013410D01*
X017621Y014000D01*
X016913Y013646D02*
X015180Y015378D01*
X015180Y016048D01*
X011361Y016048D01*
X011125Y016284D01*
X010810Y016284D01*
X009708Y017386D01*
X007621Y017386D01*
X007503Y017268D01*
X007503Y016796D01*
X007661Y016796D01*
X007739Y017150D02*
X008094Y017150D01*
X008094Y016244D01*
X007976Y016126D01*
X006794Y016126D01*
X006794Y015378D01*
X006519Y015103D01*
X006401Y014867D02*
X006637Y014867D01*
X007543Y015772D01*
X007976Y015772D01*
X008487Y016284D01*
X008842Y016075D02*
X011019Y016059D01*
X010751Y015433D02*
X013054Y015457D01*
X013684Y014827D01*
X013133Y013961D02*
X013133Y013839D01*
X012007Y013839D01*
X011743Y013843D01*
X011397Y014355D02*
X011200Y014347D01*
X011397Y014355D02*
X011401Y015142D01*
X011283Y015260D01*
X011046Y015260D01*
X010960Y015189D01*
X010066Y015189D01*
X009983Y015276D01*
X008999Y015276D01*
X009472Y015024D02*
X009078Y014630D01*
X008802Y014394D02*
X009039Y014158D01*
X008802Y014394D02*
X007582Y014394D01*
X007464Y014158D02*
X008448Y014158D01*
X008172Y013922D02*
X010834Y013906D01*
X010850Y013910D01*
X010613Y013095D02*
X010613Y012465D01*
X008212Y012465D01*
X008369Y012662D02*
X008330Y012701D01*
X006204Y012701D01*
X005613Y012111D01*
X003054Y012111D01*
X002621Y012544D01*
X002739Y012189D02*
X003645Y011284D01*
X004235Y010654D02*
X004826Y010654D01*
X004235Y010654D02*
X004157Y010575D01*
X003684Y010575D01*
X003920Y009788D02*
X003881Y009748D01*
X002818Y009748D01*
X001322Y011244D01*
X001086Y011244D01*
X000771Y011559D01*
X000771Y015300D01*
X004944Y015300D01*
X004708Y015615D02*
X005377Y016284D01*
X007779Y016284D01*
X007857Y016363D01*
X008389Y015957D02*
X008531Y015945D01*
X008665Y015851D01*
X014905Y015811D01*
X014629Y015575D02*
X015338Y014867D01*
X014586Y016241D02*
X013684Y017268D01*
X014976Y016804D02*
X014976Y016445D01*
X017464Y015496D02*
X017661Y015496D01*
X018172Y014985D01*
X020928Y012426D02*
X013763Y012426D01*
X013133Y013449D02*
X012818Y013449D01*
X011834Y012465D01*
X010613Y012465D01*
X009983Y013685D02*
X007818Y013685D01*
X007739Y013607D01*
X007424Y012977D02*
X007503Y012898D01*
X008920Y012898D01*
X009196Y012662D02*
X008369Y012662D01*
X007739Y012229D02*
X006086Y010575D01*
X005653Y010575D01*
X005968Y009827D02*
X005928Y009788D01*
X003920Y009788D01*
X004747Y009630D02*
X003920Y008804D01*
X003684Y008804D01*
X004747Y009630D02*
X006046Y009630D01*
X006086Y009591D01*
X006283Y009748D02*
X006204Y009827D01*
X005968Y009827D01*
X006283Y009748D02*
X018606Y009748D01*
X020298Y008056D01*
X022109Y011662D02*
X022109Y011914D01*
X014905Y019119D01*
X012228Y019119D01*
X010850Y018292D02*
X009157Y018292D01*
X008881Y018016D02*
X010220Y018016D01*
X010456Y017780D01*
X008389Y015957D02*
X007515Y015119D01*
X006991Y015024D01*
X006991Y014709D01*
X006361Y014709D01*
X006322Y014748D01*
X002503Y014748D01*
X002228Y015024D01*
X002188Y014591D02*
X001283Y013685D01*
X001283Y012189D01*
X002739Y012189D01*
X003448Y012898D02*
X001558Y012898D01*
X001519Y012937D01*
X002188Y013134D02*
X004708Y013134D01*
X004865Y012977D01*
X005102Y012347D02*
X005102Y013804D01*
X004905Y014040D02*
X005653Y014040D01*
X006322Y013370D01*
X008684Y013370D01*
X009235Y012701D02*
X009196Y012662D01*
X007424Y012977D02*
X006125Y012977D01*
X005771Y012622D01*
X006440Y013607D02*
X006991Y014158D01*
X006991Y014709D01*
X007228Y014394D02*
X007464Y014158D01*
X006480Y014473D02*
X006401Y014552D01*
X005259Y014552D01*
X005220Y014591D01*
X002188Y014591D01*
X002976Y015024D02*
X003015Y015063D01*
X005731Y015063D01*
X005535Y015733D02*
X005535Y015890D01*
X005535Y015733D02*
X006401Y014867D01*
X006519Y015457D02*
X005928Y016048D01*
X005102Y014355D02*
X004629Y014355D01*
X004629Y013725D01*
X004905Y014040D02*
X004865Y014079D01*
X004629Y014355D02*
X003920Y014355D01*
X004944Y009394D02*
X005535Y008804D01*
X005653Y008804D01*
X005889Y007504D02*
X005692Y007307D01*
X005692Y006835D01*
X005653Y006835D01*
X005574Y006048D02*
X006007Y005615D01*
X007818Y006835D02*
X007818Y007268D01*
X008015Y007465D01*
X011755Y009512D02*
X013330Y009512D01*
X020298Y002544D01*
X011184Y015016D02*
X009472Y015024D01*
X002228Y007977D02*
X001480Y008725D01*
X001165Y008725D01*
X001165Y008717D01*
X003684Y003095D02*
X004117Y003095D01*
X004354Y002859D01*
X003487Y002032D02*
X003684Y001835D01*
X003684Y001323D01*
X005653Y002622D02*
X005968Y002307D01*
X005968Y001953D01*
X005653Y002622D02*
X005653Y003095D01*
D19*
X005968Y001953D03*
X007228Y002465D03*
X004354Y002859D03*
X003487Y002032D03*
X005574Y006048D03*
X005889Y007504D03*
X004944Y009394D03*
X006086Y009591D03*
X004826Y010654D03*
X003645Y011284D03*
X002621Y012544D03*
X002188Y013134D03*
X001519Y012937D03*
X003448Y012898D03*
X004629Y013725D03*
X004865Y014079D03*
X005102Y013804D03*
X005102Y014355D03*
X005731Y015063D03*
X006519Y015103D03*
X006519Y015457D03*
X005928Y016048D03*
X005535Y015890D03*
X004944Y015300D03*
X004708Y015615D03*
X004787Y016087D03*
X003920Y014355D03*
X002976Y015024D03*
X002228Y015024D03*
X004865Y012977D03*
X005102Y012347D03*
X005771Y012622D03*
X006440Y013607D03*
X006480Y014473D03*
X007228Y014394D03*
X007582Y014394D03*
X008172Y013922D03*
X008448Y014158D03*
X009039Y014158D03*
X009078Y014630D03*
X009983Y013685D03*
X010613Y013095D03*
X011200Y014347D03*
X011184Y015016D03*
X010751Y015433D03*
X011019Y016059D03*
X010456Y017780D03*
X010850Y018292D03*
X010850Y018764D03*
X010928Y019119D03*
X009865Y019237D03*
X009472Y018922D03*
X009157Y018292D03*
X008881Y018016D03*
X007739Y017150D03*
X007661Y016796D03*
X007857Y016363D03*
X008487Y016284D03*
X008842Y016075D03*
X008531Y015945D03*
X007739Y013607D03*
X007424Y012977D03*
X008212Y012465D03*
X008920Y012898D03*
X009235Y012701D03*
X008684Y013370D03*
X007424Y011284D03*
X008684Y009433D03*
X008015Y007465D03*
X010259Y004000D03*
X011755Y009512D03*
X013763Y012426D03*
X013133Y013449D03*
X013133Y013961D03*
X013684Y014827D03*
X014629Y015575D03*
X014905Y015811D03*
X015338Y014867D03*
X016913Y015063D03*
X017385Y014867D03*
X017464Y015496D03*
X018172Y014985D03*
X017385Y014119D03*
X016913Y013646D03*
X020928Y012426D03*
X020298Y008056D03*
X020298Y002544D03*
X015141Y017465D03*
X012228Y019119D03*
X001873Y007504D03*
D20*
X008743Y014567D02*
X008739Y014748D01*
X008720Y014780D01*
X008692Y014882D01*
X008637Y014969D01*
X008298Y015209D01*
X008448Y015496D02*
X009035Y015524D01*
X009188Y015410D01*
X010314Y015406D01*
X010369Y014776D02*
X010633Y014772D01*
X010873Y014367D01*
X011086Y014095D01*
X011850Y013217D01*
X011361Y012937D02*
X011361Y013615D01*
X011204Y013784D01*
X011145Y013870D01*
X010972Y014071D01*
X010716Y014327D01*
X010271Y014327D01*
X010180Y014410D01*
X008964Y014410D01*
X008743Y014567D01*
X021696Y011681D02*
X021716Y011662D01*
X022109Y011662D01*
X022987Y011662D01*
D21*
X019676Y012083D02*
X019676Y010603D01*
X019676Y012083D02*
X019184Y012087D01*
M02*
