G75*
%MOIN*%
%OFA0B0*%
%FSLAX24Y24*%
%IPPOS*%
%LPD*%
%AMOC8*
5,1,8,0,0,1.08239X$1,22.5*
%
%ADD10C,0.0000*%
%ADD11R,0.0260X0.0760*%
%ADD12R,0.0760X0.0260*%
%ADD13C,0.0088*%
%ADD14R,0.0110X0.0169*%
%ADD15R,0.0472X0.0866*%
%ADD16R,0.0472X0.0787*%
%ADD17R,0.0600X0.0250*%
%ADD18R,0.1000X0.1200*%
%ADD19R,0.1000X0.1250*%
%ADD20R,0.0984X0.1260*%
%ADD21R,0.0354X0.0276*%
%ADD22R,0.1080X0.0850*%
%ADD23C,0.0150*%
%ADD24C,0.0200*%
%ADD25R,0.0169X0.0110*%
%ADD26R,0.1300X0.0800*%
%ADD27R,0.1181X0.1181*%
%ADD28R,0.0240X0.0870*%
%ADD29R,0.1260X0.0866*%
%ADD30R,0.1969X0.1772*%
%ADD31R,0.0945X0.0945*%
%ADD32R,0.0217X0.0472*%
%ADD33R,0.0276X0.0354*%
%ADD34C,0.0740*%
%ADD35R,0.0450X0.0400*%
%ADD36R,0.0400X0.0450*%
%ADD37R,0.0500X0.0500*%
%ADD38R,0.0138X0.0098*%
%ADD39C,0.0075*%
%ADD40C,0.0100*%
%ADD41R,0.0354X0.0315*%
%ADD42C,0.1181*%
%ADD43C,0.0709*%
%ADD44C,0.0515*%
%ADD45R,0.0870X0.0240*%
%ADD46C,0.0059*%
%ADD47R,0.0551X0.0394*%
%ADD48R,0.0591X0.0512*%
%ADD49C,0.0080*%
%ADD50C,0.0060*%
%ADD51C,0.0278*%
%ADD52C,0.0160*%
%ADD53C,0.0079*%
%ADD54C,0.0039*%
%ADD55C,0.0280*%
D10*
X001716Y000142D02*
X021794Y000142D01*
X021795Y000142D02*
X021871Y000141D01*
X021948Y000144D01*
X022024Y000150D01*
X022099Y000160D01*
X022175Y000174D01*
X022249Y000192D01*
X022322Y000213D01*
X022394Y000238D01*
X022465Y000266D01*
X022535Y000298D01*
X022603Y000333D01*
X022669Y000371D01*
X022733Y000413D01*
X022795Y000458D01*
X022854Y000505D01*
X022912Y000556D01*
X022966Y000609D01*
X023018Y000665D01*
X023068Y000723D01*
X023114Y000784D01*
X023157Y000847D01*
X023197Y000912D01*
X023234Y000979D01*
X023268Y001047D01*
X023298Y001118D01*
X023325Y001189D01*
X023348Y001262D01*
X023367Y001336D01*
X023383Y001410D01*
X023396Y001486D01*
X023404Y001562D01*
X023409Y001638D01*
X023369Y021796D01*
X023367Y021873D01*
X023361Y021950D01*
X023352Y022027D01*
X023339Y022103D01*
X023322Y022179D01*
X023301Y022253D01*
X023277Y022327D01*
X023249Y022399D01*
X023218Y022469D01*
X023183Y022538D01*
X023145Y022606D01*
X023104Y022671D01*
X023059Y022734D01*
X023011Y022795D01*
X022961Y022854D01*
X022908Y022910D01*
X022852Y022963D01*
X022793Y023013D01*
X022732Y023061D01*
X022669Y023106D01*
X022604Y023147D01*
X022536Y023185D01*
X022467Y023220D01*
X022397Y023251D01*
X022325Y023279D01*
X022251Y023303D01*
X022177Y023324D01*
X022101Y023341D01*
X022025Y023354D01*
X021948Y023363D01*
X021871Y023369D01*
X021794Y023371D01*
X021794Y023370D02*
X001716Y023370D01*
X001716Y023371D02*
X001639Y023369D01*
X001562Y023363D01*
X001485Y023354D01*
X001409Y023341D01*
X001333Y023324D01*
X001259Y023303D01*
X001185Y023279D01*
X001113Y023251D01*
X001043Y023220D01*
X000974Y023185D01*
X000906Y023147D01*
X000841Y023106D01*
X000778Y023061D01*
X000717Y023013D01*
X000658Y022963D01*
X000602Y022910D01*
X000549Y022854D01*
X000499Y022795D01*
X000451Y022734D01*
X000406Y022671D01*
X000365Y022606D01*
X000327Y022538D01*
X000292Y022469D01*
X000261Y022399D01*
X000233Y022327D01*
X000209Y022253D01*
X000188Y022179D01*
X000171Y022103D01*
X000158Y022027D01*
X000149Y021950D01*
X000143Y021873D01*
X000141Y021796D01*
X000141Y001717D01*
X000143Y001640D01*
X000149Y001563D01*
X000158Y001486D01*
X000171Y001410D01*
X000188Y001334D01*
X000209Y001260D01*
X000233Y001186D01*
X000261Y001114D01*
X000292Y001044D01*
X000327Y000975D01*
X000365Y000907D01*
X000406Y000842D01*
X000451Y000779D01*
X000499Y000718D01*
X000549Y000659D01*
X000602Y000603D01*
X000658Y000550D01*
X000717Y000500D01*
X000778Y000452D01*
X000841Y000407D01*
X000906Y000366D01*
X000974Y000328D01*
X001043Y000293D01*
X001113Y000262D01*
X001185Y000234D01*
X001259Y000210D01*
X001333Y000189D01*
X001409Y000172D01*
X001485Y000159D01*
X001562Y000150D01*
X001639Y000144D01*
X001716Y000142D01*
D11*
X013007Y000985D03*
X013401Y000985D03*
X013794Y000985D03*
X014188Y000985D03*
X014582Y000985D03*
X014976Y000985D03*
X015369Y000985D03*
X015763Y000985D03*
X016157Y000985D03*
X016550Y000985D03*
X016944Y000985D03*
X017338Y000985D03*
X017731Y000985D03*
X018125Y000985D03*
X018519Y000985D03*
X018913Y000985D03*
X019306Y000985D03*
X019306Y010433D03*
X018913Y010433D03*
X018519Y010433D03*
X018125Y010433D03*
X017731Y010433D03*
X017338Y010433D03*
X016944Y010433D03*
X016550Y010433D03*
X016157Y010433D03*
X015763Y010433D03*
X015369Y010433D03*
X014976Y010433D03*
X014582Y010433D03*
X014188Y010433D03*
X013794Y010433D03*
X013401Y010433D03*
X013007Y010433D03*
D12*
X011432Y008859D03*
X011432Y008465D03*
X011432Y008071D03*
X011432Y007678D03*
X011432Y007284D03*
X011432Y006890D03*
X011432Y006496D03*
X011432Y006103D03*
X011432Y005709D03*
X011432Y005315D03*
X011432Y004922D03*
X011432Y004528D03*
X011432Y004134D03*
X011432Y003741D03*
X011432Y003347D03*
X011432Y002953D03*
X011432Y002559D03*
X020881Y002559D03*
X020881Y002953D03*
X020881Y003347D03*
X020881Y003741D03*
X020881Y004134D03*
X020881Y004528D03*
X020881Y004922D03*
X020881Y005315D03*
X020881Y005709D03*
X020881Y006103D03*
X020881Y006496D03*
X020881Y006890D03*
X020881Y007284D03*
X020881Y007678D03*
X020881Y008071D03*
X020881Y008465D03*
X020881Y008859D03*
D13*
X010795Y004733D02*
X010795Y004471D01*
X010533Y004471D01*
X010533Y004733D01*
X010795Y004733D01*
X010795Y004558D02*
X010533Y004558D01*
X010533Y004645D02*
X010795Y004645D01*
X010795Y004732D02*
X010533Y004732D01*
X010795Y004133D02*
X010795Y003871D01*
X010533Y003871D01*
X010533Y004133D01*
X010795Y004133D01*
X010795Y003958D02*
X010533Y003958D01*
X010533Y004045D02*
X010795Y004045D01*
X010795Y004132D02*
X010533Y004132D01*
D14*
X010308Y002905D03*
X010107Y002905D03*
X010113Y002647D03*
X010313Y002647D03*
X010313Y002346D03*
X010113Y002346D03*
X003852Y013753D03*
X003652Y013753D03*
X004190Y014060D03*
X004391Y014060D03*
X004391Y014347D03*
X004191Y014347D03*
X002985Y014015D03*
X002785Y014015D03*
X007560Y017741D03*
X007761Y017741D03*
X012442Y014709D03*
X012643Y014709D03*
X012643Y014119D03*
X012442Y014119D03*
X021718Y018619D03*
X021919Y018619D03*
X021926Y018836D03*
X021726Y018836D03*
X021783Y019735D03*
X021984Y019735D03*
D15*
X007035Y001308D03*
X006011Y001293D03*
X005046Y001308D03*
D16*
X005078Y011249D03*
X006039Y011257D03*
X006968Y011257D03*
D17*
X019077Y018692D03*
X019077Y019192D03*
X019077Y019692D03*
X019077Y020192D03*
X021177Y020192D03*
X021177Y019692D03*
X021177Y019192D03*
X021177Y018692D03*
D18*
X022529Y012998D03*
X003556Y015969D03*
D19*
X001056Y015969D03*
X020029Y012998D03*
D20*
X020171Y016940D03*
X022415Y016940D03*
D21*
X018395Y019052D03*
X018395Y019564D03*
X017785Y014726D03*
X017785Y014214D03*
X014560Y014214D03*
X014560Y014726D03*
X010052Y017669D03*
X010052Y018181D03*
X005595Y014558D03*
X005595Y014046D03*
X005628Y013489D03*
X005628Y012977D03*
X009309Y013056D03*
X009309Y013567D03*
X022149Y011619D03*
X022621Y011619D03*
X022621Y011107D03*
X022149Y011107D03*
X022395Y003824D03*
X022395Y003313D03*
X022995Y003313D03*
X022995Y003824D03*
D22*
X018478Y015759D03*
X018478Y017499D03*
D23*
X021888Y006184D02*
X022638Y006184D01*
X021888Y006184D02*
X021888Y006334D01*
X022638Y006334D01*
X022638Y006184D01*
X022638Y006333D02*
X021888Y006333D01*
X021888Y005084D02*
X022638Y005084D01*
X021888Y005084D02*
X021888Y005234D01*
X022638Y005234D01*
X022638Y005084D01*
X022638Y005233D02*
X021888Y005233D01*
D24*
X021763Y005809D02*
X021563Y005809D01*
X021763Y005809D02*
X021763Y005609D01*
X021563Y005609D01*
X021563Y005809D01*
X021563Y005808D02*
X021763Y005808D01*
X022763Y005809D02*
X022963Y005809D01*
X022963Y005609D01*
X022763Y005609D01*
X022763Y005809D01*
X022763Y005808D02*
X022963Y005808D01*
D25*
X019673Y011002D03*
X019673Y011202D03*
X018975Y011207D03*
X018975Y011006D03*
X018217Y014506D03*
X018217Y014706D03*
X017295Y014577D03*
X017295Y014376D03*
X015568Y014389D03*
X015568Y014590D03*
X015285Y014593D03*
X015285Y014392D03*
X014998Y014403D03*
X014998Y014604D03*
X010553Y018765D03*
X010553Y018966D03*
X010219Y018966D03*
X010219Y018765D03*
X009888Y018765D03*
X009888Y018965D03*
X009037Y018769D03*
X009037Y018568D03*
X008172Y017369D03*
X008172Y017168D03*
X008172Y016345D03*
X008172Y016144D03*
X002362Y013910D03*
X002362Y013709D03*
X001837Y013163D03*
X001837Y012962D03*
X001200Y012931D03*
X001200Y013131D03*
X000586Y013151D03*
X000586Y012950D03*
D26*
X013774Y015973D03*
X013774Y018473D03*
D27*
X015887Y019799D03*
X016281Y019799D03*
X007594Y019799D03*
X007200Y019799D03*
D28*
X015477Y017873D03*
D29*
X016463Y017867D03*
D30*
X016227Y016252D03*
D31*
X015298Y022142D03*
X013566Y022142D03*
X017283Y022144D03*
X019016Y022144D03*
X020377Y022134D03*
X022109Y022134D03*
D32*
X009474Y018476D03*
X008726Y018476D03*
X008726Y017452D03*
X009100Y017452D03*
X009474Y017452D03*
D33*
X010515Y013528D03*
X011027Y013528D03*
X013498Y013585D03*
X013490Y014039D03*
X014002Y014039D03*
X014010Y013585D03*
X021741Y019258D03*
X022252Y019258D03*
X004397Y014742D03*
X003885Y014742D03*
D34*
X001265Y011717D03*
X001165Y010717D03*
X001265Y009717D03*
X001165Y008717D03*
X001265Y007717D03*
X001165Y006717D03*
D35*
X002776Y012972D03*
X002776Y013672D03*
X003576Y013322D03*
X004201Y013027D03*
X004201Y013727D03*
X005001Y013377D03*
X007300Y016446D03*
X007300Y017146D03*
X007116Y017745D03*
X007116Y018445D03*
X006316Y018095D03*
X008100Y016796D03*
D36*
X016141Y014092D03*
X016841Y014092D03*
X016491Y014892D03*
X018783Y012432D03*
X018433Y011632D03*
X019133Y011632D03*
D37*
X010539Y006719D03*
X010539Y005719D03*
X007882Y013131D03*
X006882Y013131D03*
D38*
X006551Y016121D03*
X006551Y016318D03*
X006345Y016316D03*
X006345Y016119D03*
D39*
X001699Y014288D02*
X001699Y014062D01*
X001699Y014288D02*
X001975Y014288D01*
X001975Y014062D01*
X001699Y014062D01*
X001699Y014136D02*
X001975Y014136D01*
X001975Y014210D02*
X001699Y014210D01*
X001699Y014284D02*
X001975Y014284D01*
X001699Y013688D02*
X001699Y013462D01*
X001699Y013688D02*
X001975Y013688D01*
X001975Y013462D01*
X001699Y013462D01*
X001699Y013536D02*
X001975Y013536D01*
X001975Y013610D02*
X001699Y013610D01*
X001699Y013684D02*
X001975Y013684D01*
X001062Y013688D02*
X001062Y013462D01*
X001062Y013688D02*
X001338Y013688D01*
X001338Y013462D01*
X001062Y013462D01*
X001062Y013536D02*
X001338Y013536D01*
X001338Y013610D02*
X001062Y013610D01*
X001062Y013684D02*
X001338Y013684D01*
X001062Y014062D02*
X001062Y014288D01*
X001338Y014288D01*
X001338Y014062D01*
X001062Y014062D01*
X001062Y014136D02*
X001338Y014136D01*
X001338Y014210D02*
X001062Y014210D01*
X001062Y014284D02*
X001338Y014284D01*
X000424Y014288D02*
X000424Y014062D01*
X000424Y014288D02*
X000700Y014288D01*
X000700Y014062D01*
X000424Y014062D01*
X000424Y014136D02*
X000700Y014136D01*
X000700Y014210D02*
X000424Y014210D01*
X000424Y014284D02*
X000700Y014284D01*
X000424Y013688D02*
X000424Y013462D01*
X000424Y013688D02*
X000700Y013688D01*
X000700Y013462D01*
X000424Y013462D01*
X000424Y013536D02*
X000700Y013536D01*
X000700Y013610D02*
X000424Y013610D01*
X000424Y013684D02*
X000700Y013684D01*
D40*
X021920Y004019D02*
X021920Y003719D01*
X021470Y003719D01*
X021470Y004019D01*
X021920Y004019D01*
X021920Y003818D02*
X021470Y003818D01*
X021470Y003917D02*
X021920Y003917D01*
X021920Y004016D02*
X021470Y004016D01*
X021920Y003319D02*
X021920Y003019D01*
X021470Y003019D01*
X021470Y003319D01*
X021920Y003319D01*
X021920Y003118D02*
X021470Y003118D01*
X021470Y003217D02*
X021920Y003217D01*
X021920Y003316D02*
X021470Y003316D01*
D41*
X006717Y016622D03*
X006717Y017055D03*
X006165Y017055D03*
X006165Y016622D03*
D42*
X011558Y022386D03*
X007119Y022595D03*
D43*
X011491Y020642D03*
X013475Y020642D03*
D44*
X011205Y016744D03*
X009512Y016745D03*
X003207Y020965D03*
X003207Y022933D03*
D45*
X009741Y015656D03*
X009741Y015156D03*
X009741Y014656D03*
X009741Y014156D03*
X011801Y014156D03*
X011801Y014656D03*
X011801Y015156D03*
X011801Y015656D03*
D46*
X007847Y015625D02*
X007847Y015565D01*
X007847Y015625D02*
X008065Y015625D01*
X008065Y015565D01*
X007847Y015565D01*
X007847Y015623D02*
X008065Y015623D01*
X007847Y015428D02*
X007847Y015368D01*
X007847Y015428D02*
X008065Y015428D01*
X008065Y015368D01*
X007847Y015368D01*
X007847Y015426D02*
X008065Y015426D01*
X007847Y015231D02*
X007847Y015171D01*
X007847Y015231D02*
X008065Y015231D01*
X008065Y015171D01*
X007847Y015171D01*
X007847Y015229D02*
X008065Y015229D01*
X007847Y015034D02*
X007847Y014974D01*
X007847Y015034D02*
X008065Y015034D01*
X008065Y014974D01*
X007847Y014974D01*
X007847Y015032D02*
X008065Y015032D01*
X007847Y014837D02*
X007847Y014777D01*
X007847Y014837D02*
X008065Y014837D01*
X008065Y014777D01*
X007847Y014777D01*
X007847Y014835D02*
X008065Y014835D01*
X007847Y014641D02*
X007847Y014581D01*
X007847Y014641D02*
X008065Y014641D01*
X008065Y014581D01*
X007847Y014581D01*
X007847Y014639D02*
X008065Y014639D01*
X007847Y014444D02*
X007847Y014384D01*
X007847Y014444D02*
X008065Y014444D01*
X008065Y014384D01*
X007847Y014384D01*
X007847Y014442D02*
X008065Y014442D01*
X007847Y014247D02*
X007847Y014187D01*
X007847Y014247D02*
X008065Y014247D01*
X008065Y014187D01*
X007847Y014187D01*
X007847Y014245D02*
X008065Y014245D01*
X007690Y014090D02*
X007690Y013872D01*
X007690Y014090D02*
X007750Y014090D01*
X007750Y013872D01*
X007690Y013872D01*
X007690Y013930D02*
X007750Y013930D01*
X007750Y013988D02*
X007690Y013988D01*
X007690Y014046D02*
X007750Y014046D01*
X007493Y014090D02*
X007493Y013872D01*
X007493Y014090D02*
X007553Y014090D01*
X007553Y013872D01*
X007493Y013872D01*
X007493Y013930D02*
X007553Y013930D01*
X007553Y013988D02*
X007493Y013988D01*
X007493Y014046D02*
X007553Y014046D01*
X007296Y014090D02*
X007296Y013872D01*
X007296Y014090D02*
X007356Y014090D01*
X007356Y013872D01*
X007296Y013872D01*
X007296Y013930D02*
X007356Y013930D01*
X007356Y013988D02*
X007296Y013988D01*
X007296Y014046D02*
X007356Y014046D01*
X007099Y014090D02*
X007099Y013872D01*
X007099Y014090D02*
X007159Y014090D01*
X007159Y013872D01*
X007099Y013872D01*
X007099Y013930D02*
X007159Y013930D01*
X007159Y013988D02*
X007099Y013988D01*
X007099Y014046D02*
X007159Y014046D01*
X006902Y014090D02*
X006902Y013872D01*
X006902Y014090D02*
X006962Y014090D01*
X006962Y013872D01*
X006902Y013872D01*
X006902Y013930D02*
X006962Y013930D01*
X006962Y013988D02*
X006902Y013988D01*
X006902Y014046D02*
X006962Y014046D01*
X006705Y014090D02*
X006705Y013872D01*
X006705Y014090D02*
X006765Y014090D01*
X006765Y013872D01*
X006705Y013872D01*
X006705Y013930D02*
X006765Y013930D01*
X006765Y013988D02*
X006705Y013988D01*
X006705Y014046D02*
X006765Y014046D01*
X006509Y014090D02*
X006509Y013872D01*
X006509Y014090D02*
X006569Y014090D01*
X006569Y013872D01*
X006509Y013872D01*
X006509Y013930D02*
X006569Y013930D01*
X006569Y013988D02*
X006509Y013988D01*
X006509Y014046D02*
X006569Y014046D01*
X006312Y014090D02*
X006312Y013872D01*
X006312Y014090D02*
X006372Y014090D01*
X006372Y013872D01*
X006312Y013872D01*
X006312Y013930D02*
X006372Y013930D01*
X006372Y013988D02*
X006312Y013988D01*
X006312Y014046D02*
X006372Y014046D01*
X005997Y014187D02*
X005997Y014247D01*
X006215Y014247D01*
X006215Y014187D01*
X005997Y014187D01*
X005997Y014245D02*
X006215Y014245D01*
X005997Y014384D02*
X005997Y014444D01*
X006215Y014444D01*
X006215Y014384D01*
X005997Y014384D01*
X005997Y014442D02*
X006215Y014442D01*
X005997Y014581D02*
X005997Y014641D01*
X006215Y014641D01*
X006215Y014581D01*
X005997Y014581D01*
X005997Y014639D02*
X006215Y014639D01*
X005997Y014777D02*
X005997Y014837D01*
X006215Y014837D01*
X006215Y014777D01*
X005997Y014777D01*
X005997Y014835D02*
X006215Y014835D01*
X005997Y014974D02*
X005997Y015034D01*
X006215Y015034D01*
X006215Y014974D01*
X005997Y014974D01*
X005997Y015032D02*
X006215Y015032D01*
X005997Y015171D02*
X005997Y015231D01*
X006215Y015231D01*
X006215Y015171D01*
X005997Y015171D01*
X005997Y015229D02*
X006215Y015229D01*
X005997Y015368D02*
X005997Y015428D01*
X006215Y015428D01*
X006215Y015368D01*
X005997Y015368D01*
X005997Y015426D02*
X006215Y015426D01*
X005997Y015565D02*
X005997Y015625D01*
X006215Y015625D01*
X006215Y015565D01*
X005997Y015565D01*
X005997Y015623D02*
X006215Y015623D01*
X006312Y015722D02*
X006312Y015940D01*
X006372Y015940D01*
X006372Y015722D01*
X006312Y015722D01*
X006312Y015780D02*
X006372Y015780D01*
X006372Y015838D02*
X006312Y015838D01*
X006312Y015896D02*
X006372Y015896D01*
X006509Y015940D02*
X006509Y015722D01*
X006509Y015940D02*
X006569Y015940D01*
X006569Y015722D01*
X006509Y015722D01*
X006509Y015780D02*
X006569Y015780D01*
X006569Y015838D02*
X006509Y015838D01*
X006509Y015896D02*
X006569Y015896D01*
X006705Y015940D02*
X006705Y015722D01*
X006705Y015940D02*
X006765Y015940D01*
X006765Y015722D01*
X006705Y015722D01*
X006705Y015780D02*
X006765Y015780D01*
X006765Y015838D02*
X006705Y015838D01*
X006705Y015896D02*
X006765Y015896D01*
X006902Y015940D02*
X006902Y015722D01*
X006902Y015940D02*
X006962Y015940D01*
X006962Y015722D01*
X006902Y015722D01*
X006902Y015780D02*
X006962Y015780D01*
X006962Y015838D02*
X006902Y015838D01*
X006902Y015896D02*
X006962Y015896D01*
X007099Y015940D02*
X007099Y015722D01*
X007099Y015940D02*
X007159Y015940D01*
X007159Y015722D01*
X007099Y015722D01*
X007099Y015780D02*
X007159Y015780D01*
X007159Y015838D02*
X007099Y015838D01*
X007099Y015896D02*
X007159Y015896D01*
X007296Y015940D02*
X007296Y015722D01*
X007296Y015940D02*
X007356Y015940D01*
X007356Y015722D01*
X007296Y015722D01*
X007296Y015780D02*
X007356Y015780D01*
X007356Y015838D02*
X007296Y015838D01*
X007296Y015896D02*
X007356Y015896D01*
X007493Y015940D02*
X007493Y015722D01*
X007493Y015940D02*
X007553Y015940D01*
X007553Y015722D01*
X007493Y015722D01*
X007493Y015780D02*
X007553Y015780D01*
X007553Y015838D02*
X007493Y015838D01*
X007493Y015896D02*
X007553Y015896D01*
X007690Y015940D02*
X007690Y015722D01*
X007690Y015940D02*
X007750Y015940D01*
X007750Y015722D01*
X007690Y015722D01*
X007690Y015780D02*
X007750Y015780D01*
X007750Y015838D02*
X007690Y015838D01*
X007690Y015896D02*
X007750Y015896D01*
D47*
X005338Y016304D03*
X005338Y017052D03*
X004472Y016678D03*
D48*
X021204Y011540D03*
X021204Y010792D03*
D49*
X006083Y000692D02*
X000729Y000692D01*
X000651Y000770D02*
X004717Y000770D01*
X004752Y000735D02*
X005341Y000735D01*
X005423Y000817D01*
X005423Y001758D01*
X005626Y001961D01*
X005626Y002728D01*
X007078Y002728D01*
X007094Y002713D01*
X007069Y002702D01*
X006990Y002624D01*
X006948Y002521D01*
X006948Y002425D01*
X006861Y002339D01*
X006861Y001881D01*
X006740Y001881D01*
X006658Y001799D01*
X006658Y000817D01*
X006740Y000735D01*
X007329Y000735D01*
X007411Y000817D01*
X007411Y001799D01*
X007329Y001881D01*
X007201Y001881D01*
X007201Y002185D01*
X007283Y002185D01*
X007386Y002228D01*
X007465Y002306D01*
X007508Y002409D01*
X007508Y002521D01*
X007471Y002610D01*
X009598Y002610D01*
X009677Y002531D01*
X009834Y002531D01*
X009874Y002492D01*
X009920Y002492D01*
X009917Y002489D01*
X009917Y002477D01*
X009834Y002477D01*
X008063Y000706D01*
X006550Y000706D01*
X006387Y000869D01*
X006387Y001784D01*
X006305Y001866D01*
X006235Y001866D01*
X006248Y001897D01*
X006248Y002009D01*
X006205Y002112D01*
X006126Y002191D01*
X006023Y002233D01*
X005912Y002233D01*
X005809Y002191D01*
X005730Y002112D01*
X005688Y002009D01*
X005688Y001897D01*
X005706Y001854D01*
X005635Y001784D01*
X005635Y000801D01*
X005717Y000719D01*
X006055Y000719D01*
X006270Y000505D01*
X006270Y000465D01*
X006370Y000366D01*
X008203Y000366D01*
X008303Y000465D01*
X009975Y002137D01*
X009984Y002137D01*
X009999Y002122D01*
X010426Y002122D01*
X010442Y002137D01*
X010644Y002137D01*
X010802Y002295D01*
X010901Y002395D01*
X010901Y002749D01*
X010915Y002762D01*
X010921Y002756D01*
X010912Y002747D01*
X010912Y002371D01*
X010994Y002289D01*
X011870Y002289D01*
X011945Y002364D01*
X019884Y002364D01*
X019966Y002446D01*
X019966Y006513D01*
X020066Y006412D01*
X020816Y006412D01*
X020916Y006312D01*
X021245Y006312D01*
X021245Y005979D01*
X020443Y005979D01*
X020361Y005897D01*
X020361Y005521D01*
X020443Y005439D01*
X021245Y005439D01*
X021245Y004824D01*
X020612Y004824D01*
X020602Y004832D01*
X020561Y004826D01*
X020537Y004836D01*
X020506Y004824D01*
X020478Y004824D01*
X020473Y004824D01*
X020458Y004813D01*
X020439Y004810D01*
X020430Y004798D01*
X020414Y004796D01*
X020403Y004781D01*
X020385Y004774D01*
X020379Y004759D01*
X020365Y004753D01*
X020358Y004736D01*
X020343Y004725D01*
X020341Y004709D01*
X020328Y004699D01*
X020326Y004681D01*
X020315Y004666D01*
X020315Y004661D01*
X020315Y004633D01*
X020302Y004602D01*
X020312Y004578D01*
X020307Y004537D01*
X020315Y004526D01*
X020315Y003750D01*
X020307Y003740D01*
X020313Y003695D01*
X020303Y003671D01*
X020315Y003641D01*
X020315Y003615D01*
X020318Y003612D01*
X020317Y003603D01*
X020327Y003590D01*
X020329Y003574D01*
X020345Y003561D01*
X020347Y003542D01*
X020361Y003532D01*
X020367Y003516D01*
X020385Y003509D01*
X020393Y003490D01*
X020408Y003484D01*
X020419Y003470D01*
X020438Y003468D01*
X020450Y003452D01*
X020467Y003450D01*
X020480Y003440D01*
X020489Y003441D01*
X020491Y003439D01*
X019966Y003439D01*
X019966Y003361D02*
X023265Y003361D01*
X023265Y003439D02*
X023150Y003439D01*
X023149Y003439D02*
X023152Y003441D01*
X023160Y003440D01*
X023174Y003450D01*
X023190Y003452D01*
X023202Y003468D01*
X023222Y003470D01*
X023232Y003484D01*
X023248Y003490D01*
X023255Y003509D01*
X023265Y003513D01*
X023269Y001642D01*
X023250Y001459D01*
X023140Y001106D01*
X022944Y000793D01*
X022672Y000542D01*
X022345Y000369D01*
X021985Y000287D01*
X021803Y000282D01*
X021797Y000282D01*
X021742Y000284D01*
X021740Y000282D01*
X001716Y000282D01*
X001528Y000294D01*
X001167Y000391D01*
X000842Y000579D01*
X000577Y000843D01*
X000390Y001168D01*
X000293Y001530D01*
X000281Y001717D01*
X000281Y013355D01*
X000351Y013285D01*
X000382Y013285D01*
X000361Y013264D01*
X000361Y013038D01*
X000443Y012956D01*
X000601Y012956D01*
X000601Y012693D01*
X000443Y012535D01*
X000443Y010465D01*
X000543Y010366D01*
X000868Y010041D01*
X000832Y010006D01*
X000755Y009818D01*
X000755Y009615D01*
X000832Y009428D01*
X000976Y009285D01*
X001115Y009227D01*
X001063Y009227D01*
X000876Y009149D01*
X000732Y009006D01*
X000655Y008818D01*
X000655Y008615D01*
X000732Y008428D01*
X000876Y008285D01*
X001063Y008207D01*
X001115Y008207D01*
X000976Y008149D01*
X000832Y008006D01*
X000755Y007818D01*
X000755Y007615D01*
X000832Y007428D01*
X000976Y007285D01*
X001115Y007227D01*
X001063Y007227D01*
X000876Y007149D01*
X000732Y007006D01*
X000655Y006818D01*
X000655Y006615D01*
X000732Y006428D01*
X000876Y006285D01*
X001063Y006207D01*
X001266Y006207D01*
X001270Y006209D01*
X001270Y004009D01*
X001370Y003909D01*
X003207Y002071D01*
X003207Y001976D01*
X003250Y001873D01*
X003329Y001795D01*
X003432Y001752D01*
X003543Y001752D01*
X003646Y001795D01*
X003725Y001873D01*
X003767Y001976D01*
X003767Y002088D01*
X003725Y002190D01*
X003646Y002269D01*
X003543Y002312D01*
X003448Y002312D01*
X001610Y004150D01*
X001610Y006354D01*
X001567Y006398D01*
X001597Y006428D01*
X001675Y006615D01*
X001675Y006711D01*
X001689Y006725D01*
X003264Y008300D01*
X003264Y012686D01*
X003289Y012661D01*
X003392Y012618D01*
X003504Y012618D01*
X003607Y012661D01*
X003685Y012739D01*
X003728Y012842D01*
X003728Y012954D01*
X003716Y012982D01*
X003859Y012982D01*
X003941Y013064D01*
X003941Y013387D01*
X004484Y013387D01*
X004499Y013401D01*
X004499Y013205D01*
X004459Y013165D01*
X004459Y012788D01*
X004577Y012670D01*
X004677Y012571D01*
X004929Y012571D01*
X004864Y012505D01*
X004822Y012403D01*
X004822Y012307D01*
X004441Y011926D01*
X004341Y011827D01*
X004341Y010828D01*
X003925Y011244D01*
X003925Y011340D01*
X003882Y011442D01*
X003803Y011521D01*
X003701Y011564D01*
X003589Y011564D01*
X003486Y011521D01*
X003408Y011442D01*
X003365Y011340D01*
X003365Y011228D01*
X003408Y011125D01*
X003486Y011046D01*
X003589Y011004D01*
X003684Y011004D01*
X004144Y010544D01*
X004144Y007237D01*
X005294Y006087D01*
X005294Y005992D01*
X005337Y005889D01*
X005415Y005810D01*
X005518Y005768D01*
X005630Y005768D01*
X005733Y005810D01*
X005811Y005889D01*
X005854Y005992D01*
X005854Y006103D01*
X005811Y006206D01*
X005733Y006285D01*
X005630Y006328D01*
X005534Y006328D01*
X004484Y007378D01*
X004484Y009614D01*
X004664Y009434D01*
X004664Y009338D01*
X004707Y009235D01*
X004785Y009157D01*
X004888Y009114D01*
X005000Y009114D01*
X005010Y009118D01*
X005010Y007788D01*
X005110Y007689D01*
X009912Y002887D01*
X009912Y002871D01*
X009818Y002871D01*
X009739Y002950D01*
X007337Y002950D01*
X007319Y002968D01*
X009830Y002968D01*
X009799Y002890D02*
X009909Y002890D01*
X009752Y003047D02*
X007241Y003047D01*
X007219Y003068D02*
X005385Y003068D01*
X005346Y003029D01*
X004580Y003029D01*
X004512Y003096D01*
X004409Y003139D01*
X004298Y003139D01*
X004195Y003096D01*
X004116Y003017D01*
X004074Y002914D01*
X004074Y002803D01*
X004116Y002700D01*
X004195Y002621D01*
X004298Y002579D01*
X004409Y002579D01*
X004512Y002621D01*
X004580Y002689D01*
X005286Y002689D01*
X005286Y002102D01*
X005065Y001881D01*
X004752Y001881D01*
X004670Y001799D01*
X004670Y000817D01*
X004752Y000735D01*
X004670Y000849D02*
X000574Y000849D01*
X000529Y000927D02*
X004670Y000927D01*
X004670Y001006D02*
X000484Y001006D01*
X000439Y001084D02*
X004670Y001084D01*
X004670Y001163D02*
X000393Y001163D01*
X000371Y001241D02*
X004670Y001241D01*
X004670Y001320D02*
X000349Y001320D01*
X000328Y001398D02*
X004670Y001398D01*
X004670Y001477D02*
X000307Y001477D01*
X000292Y001555D02*
X004670Y001555D01*
X004670Y001634D02*
X000286Y001634D01*
X000281Y001712D02*
X004670Y001712D01*
X004670Y001791D02*
X003637Y001791D01*
X003721Y001869D02*
X004740Y001869D01*
X005131Y001948D02*
X003756Y001948D01*
X003767Y002026D02*
X005210Y002026D01*
X005286Y002105D02*
X003760Y002105D01*
X003728Y002183D02*
X005286Y002183D01*
X005286Y002262D02*
X003654Y002262D01*
X003420Y002340D02*
X005286Y002340D01*
X005286Y002419D02*
X003341Y002419D01*
X003263Y002497D02*
X005286Y002497D01*
X005286Y002576D02*
X003184Y002576D01*
X003106Y002654D02*
X004162Y002654D01*
X004103Y002733D02*
X003027Y002733D01*
X002949Y002811D02*
X004074Y002811D01*
X004074Y002890D02*
X002870Y002890D01*
X002792Y002968D02*
X004096Y002968D01*
X004146Y003047D02*
X002713Y003047D01*
X002635Y003125D02*
X004265Y003125D01*
X004442Y003125D02*
X009673Y003125D01*
X009595Y003204D02*
X002556Y003204D01*
X002478Y003282D02*
X009516Y003282D01*
X009438Y003361D02*
X002399Y003361D01*
X002321Y003439D02*
X009359Y003439D01*
X009281Y003518D02*
X002242Y003518D01*
X002164Y003596D02*
X009202Y003596D01*
X009124Y003675D02*
X002085Y003675D01*
X002007Y003753D02*
X009045Y003753D01*
X008967Y003832D02*
X001928Y003832D01*
X001850Y003910D02*
X008888Y003910D01*
X008810Y003989D02*
X001771Y003989D01*
X001693Y004067D02*
X008731Y004067D01*
X008653Y004146D02*
X001614Y004146D01*
X001610Y004224D02*
X008574Y004224D01*
X008496Y004303D02*
X001610Y004303D01*
X001610Y004381D02*
X008417Y004381D01*
X008339Y004460D02*
X001610Y004460D01*
X001610Y004538D02*
X008260Y004538D01*
X008182Y004617D02*
X001610Y004617D01*
X001610Y004695D02*
X008103Y004695D01*
X008025Y004774D02*
X001610Y004774D01*
X001610Y004852D02*
X007946Y004852D01*
X007868Y004931D02*
X001610Y004931D01*
X001610Y005009D02*
X007789Y005009D01*
X007711Y005088D02*
X001610Y005088D01*
X001610Y005166D02*
X007632Y005166D01*
X007554Y005245D02*
X001610Y005245D01*
X001610Y005323D02*
X007475Y005323D01*
X007397Y005402D02*
X001610Y005402D01*
X001610Y005480D02*
X007318Y005480D01*
X007240Y005559D02*
X001610Y005559D01*
X001610Y005637D02*
X007161Y005637D01*
X007083Y005716D02*
X001610Y005716D01*
X001610Y005794D02*
X005454Y005794D01*
X005353Y005873D02*
X001610Y005873D01*
X001610Y005951D02*
X005311Y005951D01*
X005294Y006030D02*
X001610Y006030D01*
X001610Y006108D02*
X005273Y006108D01*
X005195Y006187D02*
X001610Y006187D01*
X001610Y006265D02*
X005116Y006265D01*
X005038Y006344D02*
X001610Y006344D01*
X001591Y006422D02*
X004959Y006422D01*
X004881Y006501D02*
X001627Y006501D01*
X001660Y006579D02*
X004802Y006579D01*
X004724Y006658D02*
X001675Y006658D01*
X001700Y006736D02*
X004645Y006736D01*
X004567Y006815D02*
X001778Y006815D01*
X001857Y006893D02*
X004488Y006893D01*
X004410Y006972D02*
X001935Y006972D01*
X002014Y007050D02*
X004331Y007050D01*
X004253Y007129D02*
X002092Y007129D01*
X002171Y007207D02*
X004174Y007207D01*
X004144Y007286D02*
X002249Y007286D01*
X002328Y007364D02*
X004144Y007364D01*
X004144Y007443D02*
X002406Y007443D01*
X002485Y007521D02*
X004144Y007521D01*
X004144Y007600D02*
X002563Y007600D01*
X002642Y007678D02*
X004144Y007678D01*
X004144Y007757D02*
X002720Y007757D01*
X002799Y007835D02*
X004144Y007835D01*
X004144Y007914D02*
X002877Y007914D01*
X002956Y007992D02*
X004144Y007992D01*
X004144Y008071D02*
X003034Y008071D01*
X003113Y008149D02*
X004144Y008149D01*
X004144Y008228D02*
X003191Y008228D01*
X003264Y008306D02*
X004144Y008306D01*
X004144Y008385D02*
X003264Y008385D01*
X003264Y008463D02*
X004144Y008463D01*
X004144Y008542D02*
X003264Y008542D01*
X003264Y008620D02*
X004144Y008620D01*
X004144Y008699D02*
X003264Y008699D01*
X003264Y008777D02*
X004144Y008777D01*
X004144Y008856D02*
X003264Y008856D01*
X003264Y008934D02*
X004144Y008934D01*
X004144Y009013D02*
X003264Y009013D01*
X003264Y009091D02*
X004144Y009091D01*
X004144Y009170D02*
X003264Y009170D01*
X003264Y009248D02*
X004144Y009248D01*
X004144Y009327D02*
X003264Y009327D01*
X003264Y009405D02*
X004144Y009405D01*
X004144Y009484D02*
X003264Y009484D01*
X003264Y009562D02*
X004144Y009562D01*
X004144Y009641D02*
X003264Y009641D01*
X003264Y009719D02*
X004144Y009719D01*
X004144Y009798D02*
X003264Y009798D01*
X003264Y009876D02*
X004144Y009876D01*
X004144Y009955D02*
X003264Y009955D01*
X003264Y010033D02*
X004144Y010033D01*
X004144Y010112D02*
X003264Y010112D01*
X003264Y010190D02*
X004144Y010190D01*
X004144Y010269D02*
X003264Y010269D01*
X003264Y010347D02*
X004144Y010347D01*
X004144Y010426D02*
X003264Y010426D01*
X003264Y010504D02*
X004144Y010504D01*
X004106Y010583D02*
X003264Y010583D01*
X003264Y010661D02*
X004027Y010661D01*
X003949Y010740D02*
X003264Y010740D01*
X003264Y010818D02*
X003870Y010818D01*
X003792Y010897D02*
X003264Y010897D01*
X003264Y010975D02*
X003713Y010975D01*
X003479Y011054D02*
X003264Y011054D01*
X003264Y011132D02*
X003405Y011132D01*
X003372Y011211D02*
X003264Y011211D01*
X003264Y011289D02*
X003365Y011289D01*
X003377Y011368D02*
X003264Y011368D01*
X003264Y011446D02*
X003411Y011446D01*
X003495Y011525D02*
X003264Y011525D01*
X003264Y011603D02*
X004341Y011603D01*
X004341Y011525D02*
X003795Y011525D01*
X003879Y011446D02*
X004341Y011446D01*
X004341Y011368D02*
X003913Y011368D01*
X003925Y011289D02*
X004341Y011289D01*
X004341Y011211D02*
X003958Y011211D01*
X004037Y011132D02*
X004341Y011132D01*
X004341Y011054D02*
X004115Y011054D01*
X004194Y010975D02*
X004341Y010975D01*
X004341Y010897D02*
X004272Y010897D01*
X004681Y010897D02*
X004681Y011686D01*
X005062Y012067D01*
X005157Y012067D01*
X005260Y012109D01*
X005339Y012188D01*
X005382Y012291D01*
X005382Y012403D01*
X005339Y012505D01*
X005274Y012571D01*
X005329Y012571D01*
X005458Y012699D01*
X005499Y012699D01*
X005491Y012678D01*
X005491Y012567D01*
X005533Y012464D01*
X005612Y012385D01*
X005715Y012342D01*
X005827Y012342D01*
X005876Y012363D01*
X005876Y012102D01*
X005622Y011848D01*
X005522Y011748D01*
X005522Y010741D01*
X005680Y010584D01*
X005680Y007691D01*
X005652Y007663D01*
X005641Y007638D01*
X005350Y007929D01*
X005350Y010716D01*
X005372Y010716D01*
X005454Y010798D01*
X005454Y011701D01*
X005372Y011783D01*
X004784Y011783D01*
X004702Y011701D01*
X004702Y010906D01*
X004681Y010897D01*
X004681Y010975D02*
X004702Y010975D01*
X004702Y011054D02*
X004681Y011054D01*
X004681Y011132D02*
X004702Y011132D01*
X004702Y011211D02*
X004681Y011211D01*
X004681Y011289D02*
X004702Y011289D01*
X004702Y011368D02*
X004681Y011368D01*
X004681Y011446D02*
X004702Y011446D01*
X004702Y011525D02*
X004681Y011525D01*
X004681Y011603D02*
X004702Y011603D01*
X004702Y011682D02*
X004681Y011682D01*
X004755Y011760D02*
X004761Y011760D01*
X004834Y011839D02*
X005613Y011839D01*
X005691Y011917D02*
X004912Y011917D01*
X004991Y011996D02*
X005770Y011996D01*
X005848Y012074D02*
X005175Y012074D01*
X005303Y012153D02*
X005876Y012153D01*
X005876Y012231D02*
X005357Y012231D01*
X005382Y012310D02*
X005876Y012310D01*
X005609Y012388D02*
X005382Y012388D01*
X005355Y012467D02*
X005532Y012467D01*
X005500Y012545D02*
X005299Y012545D01*
X005383Y012624D02*
X005491Y012624D01*
X004904Y012545D02*
X003264Y012545D01*
X003264Y012467D02*
X004848Y012467D01*
X004822Y012388D02*
X003264Y012388D01*
X003264Y012310D02*
X004822Y012310D01*
X004745Y012231D02*
X003264Y012231D01*
X003264Y012153D02*
X004667Y012153D01*
X004588Y012074D02*
X003264Y012074D01*
X003264Y011996D02*
X004510Y011996D01*
X004431Y011917D02*
X003264Y011917D01*
X003264Y011839D02*
X004353Y011839D01*
X004341Y011760D02*
X003264Y011760D01*
X003264Y011682D02*
X004341Y011682D01*
X004624Y012624D02*
X003517Y012624D01*
X003379Y012624D02*
X003264Y012624D01*
X002924Y012624D02*
X002891Y012624D01*
X002901Y012599D02*
X002859Y012702D01*
X002924Y012702D01*
X002859Y012702D02*
X002780Y012781D01*
X002677Y012824D01*
X002594Y012824D01*
X002594Y013103D01*
X002692Y013200D01*
X002998Y013200D01*
X002924Y013126D01*
X002924Y008441D01*
X002122Y007639D01*
X002122Y008851D01*
X002122Y008992D01*
X001691Y009423D01*
X001697Y009428D01*
X001775Y009615D01*
X001775Y009818D01*
X001697Y010006D01*
X001553Y010149D01*
X001366Y010227D01*
X001163Y010227D01*
X001163Y010227D01*
X000783Y010606D01*
X000783Y012395D01*
X000941Y012552D01*
X000941Y013261D01*
X000977Y013297D01*
X000989Y013285D01*
X001016Y013285D01*
X000975Y013245D01*
X000975Y012818D01*
X001057Y012736D01*
X001325Y012736D01*
X001360Y012700D01*
X001463Y012657D01*
X001575Y012657D01*
X001678Y012700D01*
X001745Y012767D01*
X001980Y012767D01*
X002019Y012807D01*
X002101Y012807D01*
X002149Y012854D01*
X002244Y012854D01*
X002254Y012859D01*
X002254Y012670D01*
X002341Y012583D01*
X002341Y012488D01*
X002384Y012385D01*
X002463Y012306D01*
X002566Y012264D01*
X002677Y012264D01*
X002780Y012306D01*
X002859Y012385D01*
X002901Y012488D01*
X002901Y012599D01*
X002901Y012545D02*
X002924Y012545D01*
X002924Y012467D02*
X002892Y012467D01*
X002860Y012388D02*
X002924Y012388D01*
X002924Y012310D02*
X002783Y012310D01*
X002924Y012231D02*
X000783Y012231D01*
X000783Y012153D02*
X002924Y012153D01*
X002924Y012074D02*
X000783Y012074D01*
X000783Y011996D02*
X002924Y011996D01*
X002924Y011917D02*
X000783Y011917D01*
X000783Y011839D02*
X002924Y011839D01*
X002924Y011760D02*
X000783Y011760D01*
X000783Y011682D02*
X002924Y011682D01*
X002924Y011603D02*
X000783Y011603D01*
X000783Y011525D02*
X002924Y011525D01*
X002924Y011446D02*
X000783Y011446D01*
X000783Y011368D02*
X002924Y011368D01*
X002924Y011289D02*
X000783Y011289D01*
X000783Y011211D02*
X002924Y011211D01*
X002924Y011132D02*
X000783Y011132D01*
X000783Y011054D02*
X002924Y011054D01*
X002924Y010975D02*
X000783Y010975D01*
X000783Y010897D02*
X002924Y010897D01*
X002924Y010818D02*
X000783Y010818D01*
X000783Y010740D02*
X002924Y010740D01*
X002924Y010661D02*
X000783Y010661D01*
X000807Y010583D02*
X002924Y010583D01*
X002924Y010504D02*
X000885Y010504D01*
X000964Y010426D02*
X002924Y010426D01*
X002924Y010347D02*
X001042Y010347D01*
X001121Y010269D02*
X002924Y010269D01*
X002924Y010190D02*
X001455Y010190D01*
X001591Y010112D02*
X002924Y010112D01*
X002924Y010033D02*
X001670Y010033D01*
X001718Y009955D02*
X002924Y009955D01*
X002924Y009876D02*
X001751Y009876D01*
X001775Y009798D02*
X002924Y009798D01*
X002924Y009719D02*
X001775Y009719D01*
X001775Y009641D02*
X002924Y009641D01*
X002924Y009562D02*
X001752Y009562D01*
X001720Y009484D02*
X002924Y009484D01*
X002924Y009405D02*
X001709Y009405D01*
X001787Y009327D02*
X002924Y009327D01*
X002924Y009248D02*
X001866Y009248D01*
X001944Y009170D02*
X002924Y009170D01*
X002924Y009091D02*
X002023Y009091D01*
X002101Y009013D02*
X002924Y009013D01*
X002924Y008934D02*
X002122Y008934D01*
X002122Y008856D02*
X002924Y008856D01*
X002924Y008777D02*
X002122Y008777D01*
X002122Y008699D02*
X002924Y008699D01*
X002924Y008620D02*
X002122Y008620D01*
X002122Y008542D02*
X002924Y008542D01*
X002924Y008463D02*
X002122Y008463D01*
X002122Y008385D02*
X002867Y008385D01*
X002789Y008306D02*
X002122Y008306D01*
X002122Y008228D02*
X002710Y008228D01*
X002632Y008149D02*
X002122Y008149D01*
X002122Y008071D02*
X002553Y008071D01*
X002475Y007992D02*
X002122Y007992D01*
X002122Y007914D02*
X002396Y007914D01*
X002318Y007835D02*
X002122Y007835D01*
X002122Y007757D02*
X002239Y007757D01*
X002161Y007678D02*
X002122Y007678D01*
X001015Y007207D02*
X000281Y007207D01*
X000281Y007129D02*
X000855Y007129D01*
X000777Y007050D02*
X000281Y007050D01*
X000281Y006972D02*
X000718Y006972D01*
X000686Y006893D02*
X000281Y006893D01*
X000281Y006815D02*
X000655Y006815D01*
X000655Y006736D02*
X000281Y006736D01*
X000281Y006658D02*
X000655Y006658D01*
X000670Y006579D02*
X000281Y006579D01*
X000281Y006501D02*
X000702Y006501D01*
X000738Y006422D02*
X000281Y006422D01*
X000281Y006344D02*
X000817Y006344D01*
X000923Y006265D02*
X000281Y006265D01*
X000281Y006187D02*
X001270Y006187D01*
X001270Y006108D02*
X000281Y006108D01*
X000281Y006030D02*
X001270Y006030D01*
X001270Y005951D02*
X000281Y005951D01*
X000281Y005873D02*
X001270Y005873D01*
X001270Y005794D02*
X000281Y005794D01*
X000281Y005716D02*
X001270Y005716D01*
X001270Y005637D02*
X000281Y005637D01*
X000281Y005559D02*
X001270Y005559D01*
X001270Y005480D02*
X000281Y005480D01*
X000281Y005402D02*
X001270Y005402D01*
X001270Y005323D02*
X000281Y005323D01*
X000281Y005245D02*
X001270Y005245D01*
X001270Y005166D02*
X000281Y005166D01*
X000281Y005088D02*
X001270Y005088D01*
X001270Y005009D02*
X000281Y005009D01*
X000281Y004931D02*
X001270Y004931D01*
X001270Y004852D02*
X000281Y004852D01*
X000281Y004774D02*
X001270Y004774D01*
X001270Y004695D02*
X000281Y004695D01*
X000281Y004617D02*
X001270Y004617D01*
X001270Y004538D02*
X000281Y004538D01*
X000281Y004460D02*
X001270Y004460D01*
X001270Y004381D02*
X000281Y004381D01*
X000281Y004303D02*
X001270Y004303D01*
X001270Y004224D02*
X000281Y004224D01*
X000281Y004146D02*
X001270Y004146D01*
X001270Y004067D02*
X000281Y004067D01*
X000281Y003989D02*
X001290Y003989D01*
X001369Y003910D02*
X000281Y003910D01*
X000281Y003832D02*
X001447Y003832D01*
X001526Y003753D02*
X000281Y003753D01*
X000281Y003675D02*
X001604Y003675D01*
X001683Y003596D02*
X000281Y003596D01*
X000281Y003518D02*
X001761Y003518D01*
X001840Y003439D02*
X000281Y003439D01*
X000281Y003361D02*
X001918Y003361D01*
X001997Y003282D02*
X000281Y003282D01*
X000281Y003204D02*
X002075Y003204D01*
X002154Y003125D02*
X000281Y003125D01*
X000281Y003047D02*
X002232Y003047D01*
X002311Y002968D02*
X000281Y002968D01*
X000281Y002890D02*
X002389Y002890D01*
X002468Y002811D02*
X000281Y002811D01*
X000281Y002733D02*
X002546Y002733D01*
X002625Y002654D02*
X000281Y002654D01*
X000281Y002576D02*
X002703Y002576D01*
X002782Y002497D02*
X000281Y002497D01*
X000281Y002419D02*
X002860Y002419D01*
X002939Y002340D02*
X000281Y002340D01*
X000281Y002262D02*
X003017Y002262D01*
X003096Y002183D02*
X000281Y002183D01*
X000281Y002105D02*
X003174Y002105D01*
X003207Y002026D02*
X000281Y002026D01*
X000281Y001948D02*
X003219Y001948D01*
X003254Y001869D02*
X000281Y001869D01*
X000281Y001791D02*
X003338Y001791D01*
X004545Y002654D02*
X005286Y002654D01*
X005626Y002654D02*
X007021Y002654D01*
X006970Y002576D02*
X005626Y002576D01*
X005626Y002497D02*
X006948Y002497D01*
X006941Y002419D02*
X005626Y002419D01*
X005626Y002340D02*
X006862Y002340D01*
X006861Y002262D02*
X005626Y002262D01*
X005626Y002183D02*
X005802Y002183D01*
X005727Y002105D02*
X005626Y002105D01*
X005626Y002026D02*
X005695Y002026D01*
X005688Y001948D02*
X005612Y001948D01*
X005534Y001869D02*
X005699Y001869D01*
X005642Y001791D02*
X005455Y001791D01*
X005423Y001712D02*
X005635Y001712D01*
X005635Y001634D02*
X005423Y001634D01*
X005423Y001555D02*
X005635Y001555D01*
X005635Y001477D02*
X005423Y001477D01*
X005423Y001398D02*
X005635Y001398D01*
X005635Y001320D02*
X005423Y001320D01*
X005423Y001241D02*
X005635Y001241D01*
X005635Y001163D02*
X005423Y001163D01*
X005423Y001084D02*
X005635Y001084D01*
X005635Y001006D02*
X005423Y001006D01*
X005423Y000927D02*
X005635Y000927D01*
X005635Y000849D02*
X005423Y000849D01*
X005376Y000770D02*
X005666Y000770D01*
X006162Y000613D02*
X000808Y000613D01*
X000918Y000535D02*
X006240Y000535D01*
X006279Y000456D02*
X001054Y000456D01*
X001218Y000378D02*
X006358Y000378D01*
X006486Y000770D02*
X006706Y000770D01*
X006658Y000849D02*
X006407Y000849D01*
X006387Y000927D02*
X006658Y000927D01*
X006658Y001006D02*
X006387Y001006D01*
X006387Y001084D02*
X006658Y001084D01*
X006658Y001163D02*
X006387Y001163D01*
X006387Y001241D02*
X006658Y001241D01*
X006658Y001320D02*
X006387Y001320D01*
X006387Y001398D02*
X006658Y001398D01*
X006658Y001477D02*
X006387Y001477D01*
X006387Y001555D02*
X006658Y001555D01*
X006658Y001634D02*
X006387Y001634D01*
X006387Y001712D02*
X006658Y001712D01*
X006658Y001791D02*
X006380Y001791D01*
X006236Y001869D02*
X006728Y001869D01*
X006861Y001948D02*
X006248Y001948D01*
X006241Y002026D02*
X006861Y002026D01*
X006861Y002105D02*
X006208Y002105D01*
X006134Y002183D02*
X006861Y002183D01*
X007201Y002183D02*
X009540Y002183D01*
X009461Y002105D02*
X007201Y002105D01*
X007201Y002026D02*
X009383Y002026D01*
X009304Y001948D02*
X007201Y001948D01*
X007341Y001869D02*
X009226Y001869D01*
X009147Y001791D02*
X007411Y001791D01*
X007411Y001712D02*
X009069Y001712D01*
X008990Y001634D02*
X007411Y001634D01*
X007411Y001555D02*
X008912Y001555D01*
X008833Y001477D02*
X007411Y001477D01*
X007411Y001398D02*
X008755Y001398D01*
X008676Y001320D02*
X007411Y001320D01*
X007411Y001241D02*
X008598Y001241D01*
X008519Y001163D02*
X007411Y001163D01*
X007411Y001084D02*
X008441Y001084D01*
X008362Y001006D02*
X007411Y001006D01*
X007411Y000927D02*
X008284Y000927D01*
X008205Y000849D02*
X007411Y000849D01*
X007364Y000770D02*
X008127Y000770D01*
X008372Y000535D02*
X012749Y000535D01*
X012737Y000547D02*
X012819Y000465D01*
X013195Y000465D01*
X013204Y000474D01*
X013213Y000465D01*
X013589Y000465D01*
X013598Y000474D01*
X013606Y000465D01*
X013982Y000465D01*
X013991Y000474D01*
X014000Y000465D01*
X014376Y000465D01*
X014458Y000547D01*
X014458Y001423D01*
X014376Y001505D01*
X014000Y001505D01*
X013991Y001496D01*
X013982Y001505D01*
X013606Y001505D01*
X013598Y001496D01*
X013589Y001505D01*
X013213Y001505D01*
X013204Y001496D01*
X013195Y001505D01*
X012819Y001505D01*
X012737Y001423D01*
X012737Y000547D01*
X012737Y000613D02*
X008451Y000613D01*
X008529Y000692D02*
X012737Y000692D01*
X012737Y000770D02*
X008608Y000770D01*
X008686Y000849D02*
X012737Y000849D01*
X012737Y000927D02*
X008765Y000927D01*
X008843Y001006D02*
X012737Y001006D01*
X012737Y001084D02*
X008922Y001084D01*
X009000Y001163D02*
X012737Y001163D01*
X012737Y001241D02*
X009079Y001241D01*
X009157Y001320D02*
X012737Y001320D01*
X012737Y001398D02*
X009236Y001398D01*
X009314Y001477D02*
X012791Y001477D01*
X011921Y002340D02*
X020106Y002340D01*
X020140Y002306D02*
X020243Y002264D01*
X020354Y002264D01*
X020435Y002297D01*
X020443Y002289D01*
X021319Y002289D01*
X021401Y002371D01*
X021401Y002747D01*
X021319Y002829D01*
X020443Y002829D01*
X020413Y002799D01*
X020354Y002824D01*
X020243Y002824D01*
X020140Y002781D01*
X020061Y002702D01*
X020018Y002599D01*
X020018Y002488D01*
X020061Y002385D01*
X020140Y002306D01*
X020047Y002419D02*
X019938Y002419D01*
X019966Y002497D02*
X020018Y002497D01*
X020018Y002576D02*
X019966Y002576D01*
X019966Y002654D02*
X020041Y002654D01*
X020091Y002733D02*
X019966Y002733D01*
X019966Y002811D02*
X020212Y002811D01*
X020384Y002811D02*
X020425Y002811D01*
X019966Y002890D02*
X023266Y002890D01*
X023266Y002968D02*
X019966Y002968D01*
X019966Y003047D02*
X023266Y003047D01*
X023266Y003125D02*
X019966Y003125D01*
X019966Y003204D02*
X023266Y003204D01*
X023265Y003282D02*
X019966Y003282D01*
X019966Y003518D02*
X020366Y003518D01*
X020322Y003596D02*
X019966Y003596D01*
X019966Y003675D02*
X020304Y003675D01*
X020315Y003753D02*
X019966Y003753D01*
X019966Y003832D02*
X020315Y003832D01*
X020315Y003910D02*
X019966Y003910D01*
X019966Y003989D02*
X020315Y003989D01*
X020315Y004067D02*
X019966Y004067D01*
X019966Y004146D02*
X020315Y004146D01*
X020315Y004224D02*
X019966Y004224D01*
X019966Y004303D02*
X020315Y004303D01*
X020315Y004381D02*
X019966Y004381D01*
X019966Y004460D02*
X020315Y004460D01*
X020307Y004538D02*
X019966Y004538D01*
X019966Y004617D02*
X020308Y004617D01*
X020328Y004695D02*
X019966Y004695D01*
X019966Y004774D02*
X020385Y004774D01*
X020512Y004627D02*
X020523Y004636D01*
X020537Y004642D01*
X020551Y004644D01*
X023070Y004644D01*
X023090Y004641D01*
X023108Y004633D01*
X023123Y004622D01*
X023135Y004606D01*
X023143Y004588D01*
X023145Y004569D01*
X023145Y003689D01*
X023143Y003671D01*
X023136Y003654D01*
X023125Y003639D01*
X023110Y003628D01*
X023093Y003621D01*
X023075Y003619D01*
X020566Y003619D01*
X020548Y003621D01*
X020531Y003628D01*
X020516Y003639D01*
X020505Y003654D01*
X020498Y003671D01*
X020495Y003689D01*
X020495Y004588D01*
X020497Y004602D01*
X020503Y004616D01*
X020512Y004627D01*
X020504Y004617D02*
X023127Y004617D01*
X023145Y004538D02*
X020495Y004538D01*
X020495Y004460D02*
X023145Y004460D01*
X023145Y004381D02*
X020495Y004381D01*
X020495Y004303D02*
X023145Y004303D01*
X023145Y004224D02*
X020495Y004224D01*
X020495Y004146D02*
X023145Y004146D01*
X023145Y004067D02*
X020495Y004067D01*
X020495Y003989D02*
X023145Y003989D01*
X023145Y003910D02*
X020495Y003910D01*
X020495Y003832D02*
X023145Y003832D01*
X023145Y003753D02*
X020495Y003753D01*
X020497Y003675D02*
X023143Y003675D01*
X023123Y003439D02*
X023149Y003439D01*
X023123Y003439D02*
X023093Y003426D01*
X023069Y003436D01*
X023024Y003430D01*
X023013Y003439D01*
X020627Y003439D01*
X020616Y003430D01*
X020572Y003436D01*
X020548Y003426D01*
X020518Y003439D01*
X020491Y003439D01*
X021337Y002811D02*
X023266Y002811D01*
X023267Y002733D02*
X021401Y002733D01*
X021401Y002654D02*
X023267Y002654D01*
X023267Y002576D02*
X021401Y002576D01*
X021401Y002497D02*
X023267Y002497D01*
X023267Y002419D02*
X021401Y002419D01*
X021370Y002340D02*
X023267Y002340D01*
X023267Y002262D02*
X010769Y002262D01*
X010847Y002340D02*
X010944Y002340D01*
X010912Y002419D02*
X010901Y002419D01*
X010901Y002497D02*
X010912Y002497D01*
X010901Y002576D02*
X010912Y002576D01*
X010901Y002654D02*
X010912Y002654D01*
X010901Y002733D02*
X010912Y002733D01*
X010690Y002183D02*
X023268Y002183D01*
X023268Y002105D02*
X009942Y002105D01*
X009864Y002026D02*
X023268Y002026D01*
X023268Y001948D02*
X009785Y001948D01*
X009707Y001869D02*
X023268Y001869D01*
X023268Y001791D02*
X009628Y001791D01*
X009550Y001712D02*
X023269Y001712D01*
X023268Y001634D02*
X009471Y001634D01*
X009393Y001555D02*
X023260Y001555D01*
X023251Y001477D02*
X019522Y001477D01*
X019494Y001505D02*
X019118Y001505D01*
X019109Y001496D01*
X019101Y001505D01*
X018725Y001505D01*
X018716Y001496D01*
X018707Y001505D01*
X018331Y001505D01*
X018322Y001496D01*
X018313Y001505D01*
X017937Y001505D01*
X017928Y001496D01*
X017919Y001505D01*
X017544Y001505D01*
X017461Y001423D01*
X017461Y000547D01*
X017544Y000465D01*
X017919Y000465D01*
X017928Y000474D01*
X017937Y000465D01*
X018313Y000465D01*
X018322Y000474D01*
X018331Y000465D01*
X018707Y000465D01*
X018716Y000474D01*
X018725Y000465D01*
X019101Y000465D01*
X019109Y000474D01*
X019118Y000465D01*
X019494Y000465D01*
X019576Y000547D01*
X019576Y001423D01*
X019494Y001505D01*
X019576Y001398D02*
X023231Y001398D01*
X023206Y001320D02*
X019576Y001320D01*
X019576Y001241D02*
X023182Y001241D01*
X023158Y001163D02*
X019576Y001163D01*
X019576Y001084D02*
X023127Y001084D01*
X023077Y001006D02*
X019576Y001006D01*
X019576Y000927D02*
X023028Y000927D01*
X022979Y000849D02*
X019576Y000849D01*
X019576Y000770D02*
X022919Y000770D01*
X022834Y000692D02*
X019576Y000692D01*
X019576Y000613D02*
X022749Y000613D01*
X022659Y000535D02*
X019564Y000535D01*
X017474Y000535D02*
X016808Y000535D01*
X016820Y000547D02*
X016820Y001423D01*
X016738Y001505D01*
X016362Y001505D01*
X016354Y001496D01*
X016345Y001505D01*
X015969Y001505D01*
X015960Y001496D01*
X015951Y001505D01*
X015575Y001505D01*
X015566Y001496D01*
X015557Y001505D01*
X015181Y001505D01*
X015172Y001496D01*
X015164Y001505D01*
X014788Y001505D01*
X014706Y001423D01*
X014706Y000547D01*
X014788Y000465D01*
X015164Y000465D01*
X015172Y000474D01*
X015181Y000465D01*
X015557Y000465D01*
X015566Y000474D01*
X015575Y000465D01*
X015951Y000465D01*
X015960Y000474D01*
X015969Y000465D01*
X016345Y000465D01*
X016354Y000474D01*
X016362Y000465D01*
X016738Y000465D01*
X016820Y000547D01*
X016820Y000613D02*
X017461Y000613D01*
X017461Y000692D02*
X016820Y000692D01*
X016820Y000770D02*
X017461Y000770D01*
X017461Y000849D02*
X016820Y000849D01*
X016820Y000927D02*
X017461Y000927D01*
X017461Y001006D02*
X016820Y001006D01*
X016820Y001084D02*
X017461Y001084D01*
X017461Y001163D02*
X016820Y001163D01*
X016820Y001241D02*
X017461Y001241D01*
X017461Y001320D02*
X016820Y001320D01*
X016820Y001398D02*
X017461Y001398D01*
X017515Y001477D02*
X016766Y001477D01*
X014760Y001477D02*
X014404Y001477D01*
X014458Y001398D02*
X014706Y001398D01*
X014706Y001320D02*
X014458Y001320D01*
X014458Y001241D02*
X014706Y001241D01*
X014706Y001163D02*
X014458Y001163D01*
X014458Y001084D02*
X014706Y001084D01*
X014706Y001006D02*
X014458Y001006D01*
X014458Y000927D02*
X014706Y000927D01*
X014706Y000849D02*
X014458Y000849D01*
X014458Y000770D02*
X014706Y000770D01*
X014706Y000692D02*
X014458Y000692D01*
X014458Y000613D02*
X014706Y000613D01*
X014718Y000535D02*
X014446Y000535D01*
X011812Y004404D02*
X010994Y004404D01*
X010912Y004322D01*
X010912Y004276D01*
X010871Y004317D01*
X010456Y004317D01*
X010389Y004250D01*
X010315Y004280D01*
X010203Y004280D01*
X010100Y004238D01*
X010022Y004159D01*
X009979Y004056D01*
X009979Y003945D01*
X010022Y003842D01*
X010100Y003763D01*
X010203Y003720D01*
X010315Y003720D01*
X010391Y003752D01*
X010456Y003687D01*
X010572Y003687D01*
X010561Y003677D01*
X010561Y003638D01*
X010128Y003205D01*
X010128Y003151D01*
X006023Y007257D01*
X006048Y007267D01*
X006126Y007346D01*
X006169Y007449D01*
X006169Y007560D01*
X006126Y007663D01*
X006048Y007742D01*
X006020Y007753D01*
X006020Y009315D01*
X006030Y009311D01*
X006142Y009311D01*
X006244Y009354D01*
X006323Y009432D01*
X006366Y009535D01*
X006366Y009647D01*
X006323Y009750D01*
X006256Y009817D01*
X006256Y010465D01*
X006571Y010780D01*
X006571Y011748D01*
X006471Y011848D01*
X006374Y011945D01*
X006374Y012566D01*
X007215Y011725D01*
X007215Y011470D01*
X007187Y011442D01*
X007144Y011340D01*
X007144Y011228D01*
X007187Y011125D01*
X007266Y011046D01*
X007369Y011004D01*
X007480Y011004D01*
X007583Y011046D01*
X007662Y011125D01*
X007704Y011228D01*
X007704Y011340D01*
X007662Y011442D01*
X007583Y011521D01*
X007555Y011533D01*
X007555Y011866D01*
X006610Y012811D01*
X006610Y013381D01*
X006678Y013448D01*
X006720Y013551D01*
X006720Y013662D01*
X006703Y013703D01*
X006782Y013703D01*
X006782Y013654D01*
X007244Y013192D01*
X007187Y013135D01*
X007144Y013032D01*
X007144Y012921D01*
X007187Y012818D01*
X007266Y012739D01*
X007369Y012697D01*
X007480Y012697D01*
X007583Y012739D01*
X007585Y012741D01*
X008081Y012741D01*
X008081Y012714D01*
X008053Y012702D01*
X007493Y012702D01*
X007356Y012702D02*
X006719Y012702D01*
X006797Y012624D02*
X007975Y012624D01*
X007974Y012624D02*
X007932Y012521D01*
X007932Y012409D01*
X007974Y012306D01*
X008053Y012228D01*
X008156Y012185D01*
X008268Y012185D01*
X008278Y012189D01*
X008278Y007968D01*
X008055Y007745D01*
X007959Y007745D01*
X007856Y007702D01*
X007778Y007624D01*
X007735Y007521D01*
X006169Y007521D01*
X006166Y007443D02*
X007735Y007443D01*
X007735Y007409D02*
X007778Y007306D01*
X007856Y007228D01*
X007959Y007185D01*
X008071Y007185D01*
X008174Y007228D01*
X008252Y007306D01*
X008295Y007409D01*
X008295Y007505D01*
X008618Y007828D01*
X008618Y009158D01*
X008629Y009153D01*
X008740Y009153D01*
X008843Y009196D01*
X008922Y009275D01*
X008964Y009378D01*
X008964Y009489D01*
X008922Y009592D01*
X008854Y009659D01*
X008854Y012622D01*
X008865Y012618D01*
X008967Y012618D01*
X008998Y012543D01*
X009065Y012475D01*
X009065Y011961D01*
X009165Y011862D01*
X011475Y009552D01*
X011475Y009457D01*
X011518Y009354D01*
X011597Y009275D01*
X011699Y009232D01*
X011811Y009232D01*
X011812Y009233D01*
X011812Y008735D01*
X010994Y008735D01*
X010912Y008653D01*
X010912Y008277D01*
X010921Y008268D01*
X010912Y008259D01*
X010912Y007883D01*
X010921Y007874D01*
X010912Y007866D01*
X010912Y007490D01*
X010921Y007481D01*
X010912Y007472D01*
X010912Y007096D01*
X010921Y007087D01*
X010912Y007078D01*
X010912Y006702D01*
X010921Y006693D01*
X010912Y006684D01*
X010912Y006308D01*
X010921Y006300D01*
X010912Y006291D01*
X010912Y006043D01*
X010847Y006109D01*
X010231Y006109D01*
X010149Y006026D01*
X010149Y005411D01*
X010231Y005329D01*
X010847Y005329D01*
X010912Y005394D01*
X010912Y005127D01*
X010921Y005119D01*
X010912Y005110D01*
X010912Y004734D01*
X010994Y004652D01*
X011812Y004652D01*
X011812Y004404D01*
X011812Y004460D02*
X008820Y004460D01*
X008741Y004538D02*
X011812Y004538D01*
X011812Y004617D02*
X008663Y004617D01*
X008584Y004695D02*
X010951Y004695D01*
X010912Y004774D02*
X008506Y004774D01*
X008427Y004852D02*
X010912Y004852D01*
X010912Y004931D02*
X008349Y004931D01*
X008270Y005009D02*
X010912Y005009D01*
X010912Y005088D02*
X008192Y005088D01*
X008113Y005166D02*
X010912Y005166D01*
X010912Y005245D02*
X008035Y005245D01*
X007956Y005323D02*
X010912Y005323D01*
X010158Y005402D02*
X007878Y005402D01*
X007799Y005480D02*
X010149Y005480D01*
X010149Y005559D02*
X007721Y005559D01*
X007642Y005637D02*
X010149Y005637D01*
X010149Y005716D02*
X007564Y005716D01*
X007485Y005794D02*
X010149Y005794D01*
X010149Y005873D02*
X007407Y005873D01*
X007328Y005951D02*
X010149Y005951D01*
X010152Y006030D02*
X007250Y006030D01*
X007171Y006108D02*
X010231Y006108D01*
X010847Y006108D02*
X010912Y006108D01*
X010912Y006187D02*
X007093Y006187D01*
X007014Y006265D02*
X010912Y006265D01*
X010912Y006344D02*
X006936Y006344D01*
X006857Y006422D02*
X010912Y006422D01*
X010912Y006501D02*
X006779Y006501D01*
X006700Y006579D02*
X010912Y006579D01*
X010912Y006658D02*
X006622Y006658D01*
X006543Y006736D02*
X010912Y006736D01*
X010912Y006815D02*
X006465Y006815D01*
X006386Y006893D02*
X010912Y006893D01*
X010912Y006972D02*
X006308Y006972D01*
X006229Y007050D02*
X010912Y007050D01*
X010912Y007129D02*
X006151Y007129D01*
X006072Y007207D02*
X007906Y007207D01*
X007798Y007286D02*
X006066Y007286D01*
X006134Y007364D02*
X007754Y007364D01*
X007735Y007409D02*
X007735Y007521D01*
X007768Y007600D02*
X006153Y007600D01*
X006111Y007678D02*
X007832Y007678D01*
X008066Y007757D02*
X006020Y007757D01*
X006020Y007835D02*
X008145Y007835D01*
X008223Y007914D02*
X006020Y007914D01*
X006020Y007992D02*
X008278Y007992D01*
X008278Y008071D02*
X006020Y008071D01*
X006020Y008149D02*
X008278Y008149D01*
X008278Y008228D02*
X006020Y008228D01*
X006020Y008306D02*
X008278Y008306D01*
X008278Y008385D02*
X006020Y008385D01*
X006020Y008463D02*
X008278Y008463D01*
X008278Y008542D02*
X006020Y008542D01*
X006020Y008620D02*
X008278Y008620D01*
X008278Y008699D02*
X006020Y008699D01*
X006020Y008777D02*
X008278Y008777D01*
X008278Y008856D02*
X006020Y008856D01*
X006020Y008934D02*
X008278Y008934D01*
X008278Y009013D02*
X006020Y009013D01*
X006020Y009091D02*
X008278Y009091D01*
X008278Y009170D02*
X006020Y009170D01*
X006020Y009248D02*
X008278Y009248D01*
X008278Y009327D02*
X006179Y009327D01*
X006296Y009405D02*
X008278Y009405D01*
X008278Y009484D02*
X006344Y009484D01*
X006366Y009562D02*
X008278Y009562D01*
X008278Y009641D02*
X006366Y009641D01*
X006336Y009719D02*
X008278Y009719D01*
X008278Y009798D02*
X006275Y009798D01*
X006256Y009876D02*
X008278Y009876D01*
X008278Y009955D02*
X006256Y009955D01*
X006256Y010033D02*
X008278Y010033D01*
X008278Y010112D02*
X006256Y010112D01*
X006256Y010190D02*
X008278Y010190D01*
X008278Y010269D02*
X006256Y010269D01*
X006256Y010347D02*
X008278Y010347D01*
X008278Y010426D02*
X006256Y010426D01*
X006295Y010504D02*
X008278Y010504D01*
X008278Y010583D02*
X006373Y010583D01*
X006452Y010661D02*
X008278Y010661D01*
X008278Y010740D02*
X006530Y010740D01*
X006571Y010818D02*
X008278Y010818D01*
X008278Y010897D02*
X006571Y010897D01*
X006571Y010975D02*
X008278Y010975D01*
X008278Y011054D02*
X007590Y011054D01*
X007665Y011132D02*
X008278Y011132D01*
X008278Y011211D02*
X007697Y011211D01*
X007704Y011289D02*
X008278Y011289D01*
X008278Y011368D02*
X007693Y011368D01*
X007658Y011446D02*
X008278Y011446D01*
X008278Y011525D02*
X007575Y011525D01*
X007555Y011603D02*
X008278Y011603D01*
X008278Y011682D02*
X007555Y011682D01*
X007555Y011760D02*
X008278Y011760D01*
X008278Y011839D02*
X007555Y011839D01*
X007504Y011917D02*
X008278Y011917D01*
X008278Y011996D02*
X007425Y011996D01*
X007347Y012074D02*
X008278Y012074D01*
X008278Y012153D02*
X007268Y012153D01*
X007190Y012231D02*
X008050Y012231D01*
X007973Y012310D02*
X007111Y012310D01*
X007033Y012388D02*
X007941Y012388D01*
X007932Y012467D02*
X006954Y012467D01*
X006876Y012545D02*
X007942Y012545D01*
X007974Y012624D02*
X008053Y012702D01*
X008854Y012545D02*
X008997Y012545D01*
X009065Y012467D02*
X008854Y012467D01*
X008854Y012388D02*
X009065Y012388D01*
X009065Y012310D02*
X008854Y012310D01*
X008854Y012231D02*
X009065Y012231D01*
X009065Y012153D02*
X008854Y012153D01*
X008854Y012074D02*
X009065Y012074D01*
X009065Y011996D02*
X008854Y011996D01*
X008854Y011917D02*
X009110Y011917D01*
X009188Y011839D02*
X008854Y011839D01*
X008854Y011760D02*
X009267Y011760D01*
X009345Y011682D02*
X008854Y011682D01*
X008854Y011603D02*
X009424Y011603D01*
X009502Y011525D02*
X008854Y011525D01*
X008854Y011446D02*
X009581Y011446D01*
X009659Y011368D02*
X008854Y011368D01*
X008854Y011289D02*
X009738Y011289D01*
X009816Y011211D02*
X008854Y011211D01*
X008854Y011132D02*
X009895Y011132D01*
X009973Y011054D02*
X008854Y011054D01*
X008854Y010975D02*
X010052Y010975D01*
X010130Y010897D02*
X008854Y010897D01*
X008854Y010818D02*
X010209Y010818D01*
X010287Y010740D02*
X008854Y010740D01*
X008854Y010661D02*
X010366Y010661D01*
X010444Y010583D02*
X008854Y010583D01*
X008854Y010504D02*
X010523Y010504D01*
X010601Y010426D02*
X008854Y010426D01*
X008854Y010347D02*
X010680Y010347D01*
X010758Y010269D02*
X008854Y010269D01*
X008854Y010190D02*
X010837Y010190D01*
X010915Y010112D02*
X008854Y010112D01*
X008854Y010033D02*
X010994Y010033D01*
X011072Y009955D02*
X008854Y009955D01*
X008854Y009876D02*
X011151Y009876D01*
X011229Y009798D02*
X008854Y009798D01*
X008854Y009719D02*
X011308Y009719D01*
X011386Y009641D02*
X008873Y009641D01*
X008934Y009562D02*
X011465Y009562D01*
X011475Y009484D02*
X008964Y009484D01*
X008964Y009405D02*
X011496Y009405D01*
X011545Y009327D02*
X008943Y009327D01*
X008895Y009248D02*
X011661Y009248D01*
X011812Y009170D02*
X008779Y009170D01*
X008618Y009091D02*
X011812Y009091D01*
X011812Y009013D02*
X008618Y009013D01*
X008618Y008934D02*
X011812Y008934D01*
X011812Y008856D02*
X008618Y008856D01*
X008618Y008777D02*
X011812Y008777D01*
X010958Y008699D02*
X008618Y008699D01*
X008618Y008620D02*
X010912Y008620D01*
X010912Y008542D02*
X008618Y008542D01*
X008618Y008463D02*
X010912Y008463D01*
X010912Y008385D02*
X008618Y008385D01*
X008618Y008306D02*
X010912Y008306D01*
X010912Y008228D02*
X008618Y008228D01*
X008618Y008149D02*
X010912Y008149D01*
X010912Y008071D02*
X008618Y008071D01*
X008618Y007992D02*
X010912Y007992D01*
X010912Y007914D02*
X008618Y007914D01*
X008618Y007835D02*
X010912Y007835D01*
X010912Y007757D02*
X008547Y007757D01*
X008469Y007678D02*
X010912Y007678D01*
X010912Y007600D02*
X008390Y007600D01*
X008312Y007521D02*
X010912Y007521D01*
X010912Y007443D02*
X008295Y007443D01*
X008276Y007364D02*
X010912Y007364D01*
X010912Y007286D02*
X008232Y007286D01*
X008124Y007207D02*
X010912Y007207D01*
X011716Y009792D02*
X009405Y012102D01*
X009405Y012475D01*
X009473Y012543D01*
X009515Y012645D01*
X009515Y012757D01*
X009507Y012778D01*
X009545Y012778D01*
X009627Y012860D01*
X009627Y012886D01*
X009677Y012886D01*
X009774Y012788D01*
X009874Y012689D01*
X011078Y012689D01*
X011147Y012758D01*
X011203Y012701D01*
X011306Y012658D01*
X011417Y012658D01*
X011509Y012696D01*
X011628Y012583D01*
X011673Y012538D01*
X011675Y012538D01*
X011677Y012536D01*
X011741Y012538D01*
X012362Y012538D01*
X013946Y010953D01*
X013606Y010953D01*
X013598Y010945D01*
X013589Y010953D01*
X013213Y010953D01*
X013171Y010912D01*
X011894Y010912D01*
X011812Y010830D01*
X011812Y009792D01*
X011811Y009792D01*
X011716Y009792D01*
X011710Y009798D02*
X011812Y009798D01*
X011812Y009876D02*
X011632Y009876D01*
X011553Y009955D02*
X011812Y009955D01*
X011812Y010033D02*
X011475Y010033D01*
X011396Y010112D02*
X011812Y010112D01*
X011812Y010190D02*
X011318Y010190D01*
X011239Y010269D02*
X011812Y010269D01*
X011812Y010347D02*
X011161Y010347D01*
X011082Y010426D02*
X011812Y010426D01*
X011812Y010504D02*
X011004Y010504D01*
X010925Y010583D02*
X011812Y010583D01*
X011812Y010661D02*
X010847Y010661D01*
X010768Y010740D02*
X011812Y010740D01*
X011812Y010818D02*
X010690Y010818D01*
X010611Y010897D02*
X011879Y010897D01*
X012904Y011996D02*
X009512Y011996D01*
X009434Y012074D02*
X012826Y012074D01*
X012747Y012153D02*
X009405Y012153D01*
X009405Y012231D02*
X012669Y012231D01*
X012590Y012310D02*
X009405Y012310D01*
X009405Y012388D02*
X012512Y012388D01*
X012433Y012467D02*
X009405Y012467D01*
X009474Y012545D02*
X011666Y012545D01*
X011585Y012624D02*
X009506Y012624D01*
X009515Y012702D02*
X009860Y012702D01*
X009782Y012781D02*
X009548Y012781D01*
X009626Y012859D02*
X009703Y012859D01*
X009949Y013095D02*
X010333Y013095D01*
X010333Y013151D02*
X010333Y013039D01*
X010338Y013029D01*
X010015Y013029D01*
X009818Y013226D01*
X009627Y013226D01*
X009627Y013251D01*
X009545Y013333D01*
X009130Y013333D01*
X009130Y013893D01*
X009197Y013921D01*
X009276Y013999D01*
X009319Y014102D01*
X009319Y014214D01*
X009276Y014316D01*
X009210Y014382D01*
X009237Y014393D01*
X009315Y014472D01*
X009358Y014575D01*
X009358Y014686D01*
X009315Y014789D01*
X009237Y014868D01*
X009204Y014881D01*
X009285Y014953D01*
X009291Y014953D01*
X009337Y014999D01*
X009385Y015042D01*
X009386Y015048D01*
X009390Y015053D01*
X009390Y015118D01*
X009393Y015183D01*
X009389Y015188D01*
X009386Y015939D01*
X009388Y015956D01*
X009913Y015956D01*
X010206Y015663D01*
X010156Y015642D01*
X010078Y015564D01*
X010035Y015461D01*
X010035Y015350D01*
X010078Y015248D01*
X010134Y015191D01*
X010131Y015158D01*
X010116Y015132D01*
X010125Y015094D01*
X010122Y015055D01*
X010141Y015033D01*
X010159Y014960D01*
X010133Y014934D01*
X010090Y014831D01*
X010090Y014720D01*
X010133Y014618D01*
X010211Y014539D01*
X010314Y014497D01*
X010425Y014497D01*
X010447Y014506D01*
X010447Y014502D01*
X010323Y014414D01*
X010307Y014414D01*
X010267Y014375D01*
X010222Y014343D01*
X010219Y014327D01*
X010207Y014315D01*
X010207Y014259D01*
X010198Y014204D01*
X010207Y014191D01*
X010207Y014150D01*
X010023Y013965D01*
X009928Y013965D01*
X009825Y013923D01*
X009746Y013844D01*
X009703Y013741D01*
X009703Y013630D01*
X009746Y013527D01*
X009825Y013448D01*
X009928Y013405D01*
X010039Y013405D01*
X010142Y013448D01*
X010221Y013527D01*
X010263Y013630D01*
X010263Y013725D01*
X010428Y013890D01*
X010428Y013888D01*
X010421Y013880D01*
X010418Y013880D01*
X010421Y013880D02*
X010428Y013819D01*
X010427Y013759D01*
X010435Y013751D01*
X010436Y013739D01*
X010483Y013701D01*
X010525Y013658D01*
X010537Y013658D01*
X010574Y013627D01*
X010577Y013393D01*
X010561Y013375D01*
X010558Y013375D01*
X010455Y013332D01*
X010376Y013253D01*
X010333Y013151D01*
X010343Y013173D02*
X009870Y013173D01*
X009920Y013409D02*
X009130Y013409D01*
X009130Y013487D02*
X009786Y013487D01*
X009730Y013566D02*
X009130Y013566D01*
X009130Y013644D02*
X009703Y013644D01*
X009703Y013723D02*
X009130Y013723D01*
X009130Y013801D02*
X009728Y013801D01*
X009782Y013880D02*
X009130Y013880D01*
X009235Y013958D02*
X009910Y013958D01*
X010094Y014037D02*
X009291Y014037D01*
X009319Y014115D02*
X010173Y014115D01*
X010205Y014194D02*
X009319Y014194D01*
X009294Y014272D02*
X010207Y014272D01*
X010233Y014351D02*
X009242Y014351D01*
X009273Y014429D02*
X010344Y014429D01*
X010288Y014508D02*
X009330Y014508D01*
X009358Y014586D02*
X010164Y014586D01*
X010113Y014665D02*
X009358Y014665D01*
X009334Y014743D02*
X010090Y014743D01*
X010090Y014822D02*
X009283Y014822D01*
X009226Y014900D02*
X010119Y014900D01*
X010154Y014979D02*
X009317Y014979D01*
X009390Y015057D02*
X010122Y015057D01*
X010118Y015136D02*
X009391Y015136D01*
X009389Y015214D02*
X010111Y015214D01*
X010059Y015293D02*
X009389Y015293D01*
X009389Y015371D02*
X010035Y015371D01*
X010035Y015450D02*
X009388Y015450D01*
X009388Y015528D02*
X010063Y015528D01*
X010120Y015607D02*
X009387Y015607D01*
X009387Y015685D02*
X010184Y015685D01*
X010106Y015764D02*
X009387Y015764D01*
X009386Y015842D02*
X010027Y015842D01*
X009949Y015921D02*
X009386Y015921D01*
X009385Y016296D02*
X009090Y016590D01*
X009090Y016883D01*
X009169Y016961D01*
X009169Y017001D01*
X009188Y017019D01*
X009245Y017076D01*
X009266Y017076D01*
X009287Y017097D01*
X009298Y017086D01*
X009287Y017082D01*
X009175Y016970D01*
X009115Y016824D01*
X009115Y016666D01*
X009175Y016520D01*
X009287Y016408D01*
X009433Y016347D01*
X009591Y016347D01*
X009737Y016408D01*
X009849Y016520D01*
X009910Y016666D01*
X009910Y016824D01*
X009849Y016970D01*
X009737Y017082D01*
X009673Y017109D01*
X009722Y017158D01*
X009722Y017747D01*
X009712Y017757D01*
X009859Y017903D01*
X010204Y017903D01*
X010176Y017836D01*
X010176Y017724D01*
X010219Y017621D01*
X010297Y017543D01*
X010363Y017515D01*
X010353Y016052D01*
X010353Y016051D01*
X010353Y015997D01*
X010153Y016197D01*
X010054Y016296D01*
X009385Y016296D01*
X009368Y016313D02*
X010355Y016313D01*
X010355Y016235D02*
X010116Y016235D01*
X010194Y016156D02*
X010354Y016156D01*
X010353Y016078D02*
X010273Y016078D01*
X010351Y015999D02*
X010353Y015999D01*
X010356Y016392D02*
X009698Y016392D01*
X009800Y016470D02*
X010356Y016470D01*
X010357Y016549D02*
X009861Y016549D01*
X009894Y016627D02*
X010357Y016627D01*
X010358Y016706D02*
X009910Y016706D01*
X009910Y016784D02*
X010358Y016784D01*
X010359Y016863D02*
X009894Y016863D01*
X009861Y016941D02*
X010359Y016941D01*
X010360Y017020D02*
X009800Y017020D01*
X009698Y017098D02*
X010361Y017098D01*
X010361Y017177D02*
X009722Y017177D01*
X009722Y017255D02*
X010362Y017255D01*
X010362Y017334D02*
X009722Y017334D01*
X009722Y017412D02*
X010363Y017412D01*
X010363Y017491D02*
X009722Y017491D01*
X009722Y017569D02*
X010271Y017569D01*
X010208Y017648D02*
X009722Y017648D01*
X009722Y017726D02*
X010176Y017726D01*
X010176Y017805D02*
X009760Y017805D01*
X009839Y017883D02*
X010196Y017883D01*
X010071Y018580D02*
X010041Y018580D01*
X010112Y018651D01*
X010112Y018771D01*
X010262Y018771D01*
X010071Y018580D01*
X010080Y018590D02*
X010051Y018590D01*
X010112Y018668D02*
X010159Y018668D01*
X010112Y018747D02*
X010237Y018747D01*
X010386Y019137D02*
X010362Y019161D01*
X010350Y019161D01*
X010350Y019358D01*
X010775Y019358D01*
X010770Y019356D01*
X010691Y019277D01*
X010648Y019174D01*
X010648Y019161D01*
X010410Y019161D01*
X010386Y019137D01*
X010384Y019139D02*
X010388Y019139D01*
X010350Y019218D02*
X010666Y019218D01*
X010710Y019296D02*
X010350Y019296D01*
X010715Y019995D02*
X010720Y019996D01*
X010722Y019992D01*
X010779Y019976D01*
X010832Y019952D01*
X010837Y019953D01*
X010840Y019949D01*
X010899Y019944D01*
X010956Y019929D01*
X010964Y019934D01*
X011015Y019934D01*
X011081Y019928D01*
X011088Y019934D01*
X012097Y019934D01*
X012105Y019928D01*
X012171Y019934D01*
X012194Y019934D01*
X012208Y019927D01*
X012233Y019934D01*
X012236Y019934D01*
X012238Y019936D01*
X012263Y019943D01*
X012304Y019947D01*
X012309Y019946D01*
X012314Y019948D01*
X012319Y019949D01*
X012322Y019953D01*
X012359Y019973D01*
X012400Y019985D01*
X012405Y019984D01*
X012409Y019988D01*
X012414Y019989D01*
X012416Y019994D01*
X012449Y020020D01*
X012486Y020040D01*
X012491Y020041D01*
X012494Y020045D01*
X012499Y020047D01*
X012500Y020052D01*
X012527Y020085D01*
X012559Y020111D01*
X012564Y020113D01*
X012567Y020117D01*
X012571Y020121D01*
X012571Y020126D01*
X012591Y020163D01*
X012618Y020195D01*
X012622Y020198D01*
X012624Y020203D01*
X012627Y020207D01*
X012627Y020212D01*
X012639Y020252D01*
X012659Y020289D01*
X012663Y020292D01*
X012663Y020298D01*
X012666Y020302D01*
X012664Y020307D01*
X012668Y020349D01*
X012676Y020373D01*
X012677Y020375D01*
X012677Y020379D01*
X012685Y020403D01*
X012677Y020417D01*
X012677Y020441D01*
X012684Y020506D01*
X012677Y020514D01*
X012677Y021980D01*
X012954Y021980D01*
X012954Y021612D01*
X013036Y021530D01*
X014097Y021530D01*
X014179Y021612D01*
X014179Y022673D01*
X014097Y022755D01*
X013036Y022755D01*
X012954Y022673D01*
X012954Y022320D01*
X012677Y022320D01*
X012677Y022858D01*
X012684Y022865D01*
X012677Y022931D01*
X012677Y022951D01*
X012685Y022965D01*
X012677Y022991D01*
X012677Y022997D01*
X012675Y022999D01*
X012668Y023020D01*
X012665Y023057D01*
X012667Y023064D01*
X012664Y023070D01*
X012663Y023076D01*
X012658Y023081D01*
X012640Y023114D01*
X012629Y023150D01*
X012630Y023156D01*
X012625Y023162D01*
X012623Y023168D01*
X012618Y023171D01*
X012594Y023200D01*
X012578Y023230D01*
X021794Y023230D01*
X021982Y023218D01*
X022344Y023121D01*
X022668Y022934D01*
X022933Y022669D01*
X023120Y022345D01*
X023217Y021983D01*
X023229Y021796D01*
X023229Y021738D01*
X023229Y021738D01*
X023241Y016002D01*
X023213Y017367D01*
X023220Y017376D01*
X023213Y017437D01*
X023225Y017462D01*
X023210Y017506D01*
X023209Y017538D01*
X023211Y017547D01*
X023198Y017567D01*
X023196Y017591D01*
X023178Y017605D01*
X023178Y017627D01*
X023161Y017644D01*
X023154Y017666D01*
X023134Y017676D01*
X023129Y017697D01*
X023109Y017710D01*
X023096Y017730D01*
X023074Y017735D01*
X023065Y017755D01*
X023042Y017763D01*
X023026Y017779D01*
X023003Y017779D01*
X022990Y017797D01*
X022966Y017799D01*
X022946Y017812D01*
X022935Y017809D01*
X022932Y017812D01*
X022901Y017812D01*
X022861Y017826D01*
X022836Y017814D01*
X022775Y017821D01*
X022764Y017812D01*
X022487Y017812D01*
X022487Y017989D01*
X022358Y018118D01*
X022133Y018343D01*
X022133Y018698D01*
X022114Y018717D01*
X022114Y018761D01*
X022032Y018843D01*
X021921Y018843D01*
X021921Y018941D01*
X021936Y018941D01*
X022018Y019023D01*
X022018Y019443D01*
X022085Y019510D01*
X022097Y019510D01*
X022179Y019592D01*
X022179Y019877D01*
X022172Y019884D01*
X022172Y019958D01*
X022093Y020036D01*
X022093Y020469D01*
X021079Y021484D01*
X020974Y021588D01*
X020990Y021604D01*
X020990Y022665D01*
X020908Y022747D01*
X019847Y022747D01*
X019765Y022665D01*
X019765Y022320D01*
X019628Y022320D01*
X019628Y022675D01*
X019546Y022757D01*
X018485Y022757D01*
X018403Y022675D01*
X018403Y021614D01*
X018485Y021532D01*
X019546Y021532D01*
X019628Y021614D01*
X019628Y021980D01*
X019765Y021980D01*
X019765Y021604D01*
X019847Y021522D01*
X020419Y021522D01*
X020696Y021244D01*
X019517Y020065D01*
X019517Y020375D01*
X019435Y020457D01*
X018719Y020457D01*
X018637Y020375D01*
X018637Y020009D01*
X018704Y019942D01*
X018637Y019875D01*
X018637Y019836D01*
X018631Y019842D01*
X018160Y019842D01*
X018078Y019760D01*
X018078Y019368D01*
X018160Y019286D01*
X018602Y019286D01*
X018610Y019269D01*
X018604Y019213D01*
X018611Y019205D01*
X018604Y019196D01*
X018610Y019140D01*
X018600Y019120D01*
X018611Y019089D01*
X018611Y019068D01*
X018618Y019061D01*
X018614Y019044D01*
X018622Y019031D01*
X018624Y019015D01*
X018641Y019001D01*
X018643Y018998D01*
X018644Y018995D01*
X018644Y018974D01*
X018655Y018963D01*
X018661Y018947D01*
X018680Y018938D01*
X018682Y018936D01*
X018684Y018933D01*
X018689Y018912D01*
X018702Y018903D01*
X018711Y018890D01*
X018732Y018885D01*
X018734Y018883D01*
X018737Y018881D01*
X018746Y018862D01*
X018761Y018856D01*
X018773Y018845D01*
X018794Y018845D01*
X018797Y018844D01*
X018800Y018842D01*
X018813Y018825D01*
X018829Y018824D01*
X018843Y018815D01*
X018860Y018819D01*
X018866Y018812D01*
X018888Y018812D01*
X018918Y018801D01*
X018939Y018811D01*
X018995Y018805D01*
X019004Y018812D01*
X019332Y018812D01*
X019354Y018810D01*
X019367Y018806D01*
X019379Y018800D01*
X019390Y018791D01*
X019398Y018781D01*
X019405Y018769D01*
X019409Y018756D01*
X019411Y018733D01*
X019411Y017674D01*
X019158Y017674D01*
X019158Y017982D01*
X019076Y018064D01*
X017880Y018064D01*
X017808Y017991D01*
X017594Y018205D01*
X017591Y018208D01*
X017591Y020304D01*
X017594Y020308D01*
X018264Y020977D01*
X018264Y022767D01*
X020897Y022767D01*
X021497Y022168D01*
X021497Y021604D01*
X021579Y021522D01*
X022640Y021522D01*
X022722Y021604D01*
X022722Y022665D01*
X022640Y022747D01*
X021579Y022747D01*
X021497Y022665D01*
X021497Y022649D01*
X021138Y023008D01*
X021038Y023107D01*
X018023Y023107D01*
X017924Y023008D01*
X017924Y021118D01*
X017591Y020785D01*
X017591Y020821D01*
X017598Y020829D01*
X017591Y020900D01*
X017602Y020920D01*
X017591Y020955D01*
X017591Y020975D01*
X017583Y020983D01*
X017582Y020992D01*
X017587Y021009D01*
X017579Y021025D01*
X017577Y021043D01*
X017563Y021054D01*
X017558Y021065D01*
X017554Y021076D01*
X017556Y021094D01*
X017544Y021108D01*
X017539Y021125D01*
X017523Y021134D01*
X017516Y021143D01*
X017510Y021153D01*
X017509Y021171D01*
X017495Y021182D01*
X017486Y021198D01*
X017469Y021204D01*
X017460Y021211D01*
X017452Y021220D01*
X017447Y021237D01*
X017431Y021246D01*
X017420Y021260D01*
X017402Y021262D01*
X017391Y021267D01*
X017382Y021274D01*
X017374Y021290D01*
X017357Y021296D01*
X017343Y021307D01*
X017325Y021305D01*
X017314Y021309D01*
X017303Y021314D01*
X017292Y021328D01*
X017274Y021330D01*
X017258Y021339D01*
X017241Y021333D01*
X017232Y021334D01*
X017224Y021342D01*
X017204Y021342D01*
X017169Y021353D01*
X017149Y021342D01*
X017078Y021349D01*
X017069Y021342D01*
X015473Y021342D01*
X015464Y021349D01*
X015392Y021342D01*
X015368Y021342D01*
X015352Y021351D01*
X015324Y021342D01*
X015319Y021342D01*
X015316Y021340D01*
X015292Y021332D01*
X015249Y021328D01*
X015242Y021330D01*
X015236Y021327D01*
X015229Y021326D01*
X015225Y021321D01*
X015187Y021300D01*
X015145Y021288D01*
X015138Y021289D01*
X015133Y021284D01*
X015126Y021282D01*
X015123Y021276D01*
X015090Y021248D01*
X015051Y021228D01*
X015045Y021227D01*
X015040Y021222D01*
X015034Y021219D01*
X015032Y021212D01*
X015004Y021179D01*
X014971Y021151D01*
X014964Y021149D01*
X014961Y021143D01*
X014956Y021139D01*
X014955Y021132D01*
X014935Y021094D01*
X014907Y021060D01*
X014901Y021057D01*
X014899Y021050D01*
X014895Y021045D01*
X014895Y021038D01*
X014883Y020996D01*
X014862Y020958D01*
X014857Y020954D01*
X014856Y020947D01*
X014853Y020941D01*
X014855Y020934D01*
X014851Y020891D01*
X014843Y020867D01*
X014841Y020864D01*
X014841Y020859D01*
X014832Y020831D01*
X014841Y020815D01*
X014841Y020791D01*
X014834Y020719D01*
X014841Y020710D01*
X014841Y019055D01*
X014834Y019048D01*
X014841Y018974D01*
X014841Y018958D01*
X014832Y018943D01*
X014841Y018911D01*
X014841Y018900D01*
X014845Y018896D01*
X014849Y018880D01*
X014852Y018850D01*
X014848Y018840D01*
X014854Y018828D01*
X014855Y018815D01*
X014863Y018808D01*
X014876Y018780D01*
X014884Y018751D01*
X014882Y018741D01*
X014889Y018730D01*
X014893Y018717D01*
X014902Y018712D01*
X014919Y018687D01*
X014932Y018659D01*
X014932Y018649D01*
X014942Y018640D01*
X014947Y018628D01*
X014957Y018624D01*
X014979Y018603D01*
X014996Y018578D01*
X014998Y018567D01*
X015009Y018560D01*
X015016Y018549D01*
X015026Y018547D01*
X015051Y018530D01*
X015073Y018508D01*
X015077Y018498D01*
X015088Y018493D01*
X015098Y018483D01*
X015108Y018483D01*
X015136Y018471D01*
X015161Y018453D01*
X015166Y018444D01*
X015179Y018441D01*
X015189Y018433D01*
X015200Y018435D01*
X015229Y018427D01*
X015257Y018414D01*
X015261Y018410D01*
X015217Y018366D01*
X015217Y017781D01*
X015181Y017745D01*
X015085Y017745D01*
X014982Y017702D01*
X014904Y017624D01*
X014861Y017521D01*
X014861Y017409D01*
X014879Y017365D01*
X014862Y017367D01*
X014855Y017361D01*
X013424Y017361D01*
X013416Y017367D01*
X013366Y017362D01*
X013348Y017372D01*
X013313Y017361D01*
X013286Y017361D01*
X013278Y017353D01*
X013238Y017349D01*
X013228Y017349D01*
X013207Y017328D01*
X013192Y017323D01*
X013182Y017322D01*
X013178Y017322D01*
X013161Y017331D01*
X013131Y017322D01*
X013116Y017322D01*
X013110Y017316D01*
X013107Y017315D01*
X013089Y017313D01*
X013076Y017317D01*
X013064Y017310D01*
X013050Y017309D01*
X013042Y017299D01*
X013026Y017290D01*
X013009Y017285D01*
X012995Y017286D01*
X012985Y017278D01*
X012972Y017274D01*
X012965Y017262D01*
X012952Y017250D01*
X012936Y017242D01*
X012922Y017241D01*
X012914Y017230D01*
X012901Y017224D01*
X012897Y017210D01*
X012886Y017197D01*
X012873Y017186D01*
X012859Y017182D01*
X012853Y017169D01*
X012842Y017161D01*
X012841Y017147D01*
X012833Y017132D01*
X012822Y017118D01*
X012809Y017111D01*
X012805Y017098D01*
X012480Y017098D01*
X012402Y017177D02*
X012857Y017177D01*
X012805Y017098D02*
X012797Y017088D01*
X012798Y017074D01*
X012793Y017057D01*
X012785Y017041D01*
X012774Y017033D01*
X012773Y017019D01*
X012766Y017007D01*
X012770Y016994D01*
X012768Y016976D01*
X012767Y016973D01*
X012761Y016967D01*
X012761Y016952D01*
X012752Y016922D01*
X012761Y016905D01*
X012761Y016901D01*
X012755Y016836D01*
X012761Y016828D01*
X012761Y016818D01*
X011965Y017614D01*
X011968Y019014D01*
X011990Y018960D01*
X012069Y018881D01*
X012172Y018839D01*
X012283Y018839D01*
X012386Y018881D01*
X012465Y018960D01*
X012508Y019063D01*
X012508Y019174D01*
X012465Y019277D01*
X012386Y019356D01*
X012283Y019399D01*
X012188Y019399D01*
X011886Y019701D01*
X011786Y019800D01*
X008771Y019800D01*
X008672Y019701D01*
X008672Y019189D01*
X008260Y018777D01*
X007613Y018777D01*
X007570Y018820D01*
X007935Y018820D01*
X007943Y018813D01*
X008025Y018820D01*
X008035Y018820D01*
X008052Y018810D01*
X008090Y018820D01*
X008106Y018820D01*
X008112Y018826D01*
X008122Y018828D01*
X008147Y018830D01*
X008160Y018826D01*
X008176Y018833D01*
X008193Y018835D01*
X008202Y018845D01*
X008225Y018856D01*
X008249Y018862D01*
X008263Y018860D01*
X008278Y018870D01*
X008295Y018875D01*
X008302Y018887D01*
X008322Y018901D01*
X008345Y018912D01*
X008359Y018912D01*
X008372Y018924D01*
X008387Y018932D01*
X008392Y018945D01*
X008410Y018963D01*
X008431Y018977D01*
X008444Y018980D01*
X008455Y018994D01*
X008469Y019004D01*
X008471Y019018D01*
X008486Y019038D01*
X008503Y019056D01*
X008517Y019061D01*
X008524Y019077D01*
X008537Y019089D01*
X008537Y019103D01*
X008547Y019126D01*
X008562Y019147D01*
X008574Y019154D01*
X008578Y019171D01*
X008588Y019185D01*
X008586Y019199D01*
X008592Y019223D01*
X008603Y019246D01*
X008614Y019255D01*
X008615Y019273D01*
X008623Y019288D01*
X008618Y019302D01*
X008620Y019327D01*
X008623Y019336D01*
X008629Y019342D01*
X008629Y019358D01*
X008639Y019396D01*
X008629Y019414D01*
X008629Y019424D01*
X008636Y019505D01*
X008629Y019514D01*
X008629Y021429D01*
X010311Y021429D01*
X010311Y020711D01*
X010305Y020704D01*
X010311Y020638D01*
X010311Y020588D01*
X010306Y020579D01*
X010321Y020522D01*
X010326Y020463D01*
X010330Y020460D01*
X010328Y020455D01*
X010353Y020402D01*
X010368Y020345D01*
X010373Y020343D01*
X010372Y020338D01*
X010406Y020290D01*
X010431Y020236D01*
X010435Y020235D01*
X010435Y020229D01*
X010477Y020188D01*
X010511Y020140D01*
X010516Y020139D01*
X010516Y020134D01*
X010565Y020100D01*
X010606Y020059D01*
X010611Y020059D01*
X010613Y020054D01*
X010666Y020029D01*
X010715Y019995D01*
X010704Y020003D02*
X008629Y020003D01*
X008629Y020081D02*
X010584Y020081D01*
X010497Y020160D02*
X008629Y020160D01*
X008629Y020238D02*
X010430Y020238D01*
X010387Y020317D02*
X008629Y020317D01*
X008629Y020395D02*
X010355Y020395D01*
X010325Y020474D02*
X008629Y020474D01*
X008629Y020552D02*
X010313Y020552D01*
X010311Y020631D02*
X008629Y020631D01*
X008629Y020709D02*
X010309Y020709D01*
X010311Y020788D02*
X008629Y020788D01*
X008629Y020866D02*
X010311Y020866D01*
X010311Y020945D02*
X008629Y020945D01*
X008629Y021023D02*
X010311Y021023D01*
X010311Y021102D02*
X008629Y021102D01*
X008629Y021180D02*
X010311Y021180D01*
X010311Y021259D02*
X008629Y021259D01*
X008629Y021337D02*
X010311Y021337D01*
X010311Y021416D02*
X008629Y021416D01*
X008629Y019924D02*
X012761Y019924D01*
X012761Y019846D02*
X008629Y019846D01*
X008629Y019767D02*
X008738Y019767D01*
X008672Y019689D02*
X008629Y019689D01*
X008629Y019610D02*
X008672Y019610D01*
X008672Y019532D02*
X008629Y019532D01*
X008631Y019453D02*
X008672Y019453D01*
X008672Y019375D02*
X008633Y019375D01*
X008620Y019296D02*
X008672Y019296D01*
X008672Y019218D02*
X008591Y019218D01*
X008622Y019139D02*
X008556Y019139D01*
X008543Y019061D02*
X008516Y019061D01*
X008465Y018982D02*
X008446Y018982D01*
X008386Y018904D02*
X008327Y018904D01*
X008308Y018825D02*
X008112Y018825D01*
X008478Y018514D02*
X008400Y018437D01*
X007472Y018437D01*
X007236Y018673D01*
X006983Y018673D01*
X006846Y018536D01*
X006747Y018437D01*
X005350Y018437D01*
X005350Y017388D01*
X005572Y017388D01*
X005661Y017477D01*
X005986Y017802D01*
X005951Y017837D01*
X005951Y018353D01*
X006033Y018435D01*
X006599Y018435D01*
X006681Y018353D01*
X006681Y017837D01*
X006599Y017755D01*
X006374Y017755D01*
X006374Y017710D01*
X006142Y017477D01*
X006471Y017477D01*
X006596Y017353D01*
X006935Y017353D01*
X006935Y017404D01*
X006936Y017405D01*
X006833Y017405D01*
X006751Y017487D01*
X006751Y018003D01*
X006833Y018085D01*
X007371Y018085D01*
X007393Y018107D01*
X007731Y018107D01*
X007831Y018008D01*
X007873Y017965D01*
X007874Y017965D01*
X007956Y017883D01*
X008633Y017883D01*
X008644Y017858D02*
X008722Y017779D01*
X008825Y017736D01*
X008852Y017736D01*
X008852Y017164D01*
X008829Y017142D01*
X008829Y017102D01*
X008750Y017024D01*
X008750Y016674D01*
X008693Y016724D01*
X008693Y017074D01*
X008693Y017076D01*
X008697Y017080D01*
X008697Y017145D01*
X008700Y017211D01*
X008697Y017215D01*
X008697Y017496D01*
X008421Y017772D01*
X008322Y017871D01*
X007956Y017871D01*
X007956Y017883D01*
X007878Y017962D02*
X008601Y017962D01*
X008601Y017960D02*
X008644Y017858D01*
X008697Y017805D02*
X008388Y017805D01*
X008467Y017726D02*
X008852Y017726D01*
X008852Y017648D02*
X008545Y017648D01*
X008624Y017569D02*
X008852Y017569D01*
X008852Y017491D02*
X008697Y017491D01*
X008697Y017412D02*
X008852Y017412D01*
X008852Y017334D02*
X008697Y017334D01*
X008697Y017255D02*
X008852Y017255D01*
X008852Y017177D02*
X008699Y017177D01*
X008697Y017098D02*
X008825Y017098D01*
X008750Y017020D02*
X008693Y017020D01*
X008693Y016941D02*
X008750Y016941D01*
X008750Y016863D02*
X008693Y016863D01*
X008693Y016784D02*
X008750Y016784D01*
X008750Y016706D02*
X008714Y016706D01*
X009090Y016706D02*
X009115Y016706D01*
X009115Y016784D02*
X009090Y016784D01*
X009090Y016863D02*
X009131Y016863D01*
X009149Y016941D02*
X009163Y016941D01*
X009188Y017020D02*
X009225Y017020D01*
X009131Y016627D02*
X009090Y016627D01*
X009132Y016549D02*
X009163Y016549D01*
X009211Y016470D02*
X009225Y016470D01*
X009289Y016392D02*
X009326Y016392D01*
X008357Y017321D02*
X008315Y017363D01*
X008082Y017363D01*
X008067Y017378D01*
X007967Y017477D01*
X007591Y017477D01*
X007583Y017486D01*
X007480Y017486D01*
X007481Y017487D01*
X007481Y017714D01*
X007534Y017767D01*
X007566Y017767D01*
X007566Y017598D01*
X007648Y017516D01*
X007874Y017516D01*
X007889Y017531D01*
X008181Y017531D01*
X008357Y017355D01*
X008357Y017321D01*
X008357Y017334D02*
X008344Y017334D01*
X008300Y017412D02*
X008033Y017412D01*
X008221Y017491D02*
X007481Y017491D01*
X007481Y017569D02*
X007595Y017569D01*
X007566Y017648D02*
X007481Y017648D01*
X007493Y017726D02*
X007566Y017726D01*
X007798Y018040D02*
X008601Y018040D01*
X008601Y018056D02*
X008601Y017960D01*
X008601Y018056D02*
X008554Y018103D01*
X008554Y018106D01*
X008478Y018182D01*
X008478Y018514D01*
X008478Y018511D02*
X008475Y018511D01*
X008478Y018433D02*
X006601Y018433D01*
X006679Y018354D02*
X008478Y018354D01*
X008478Y018276D02*
X006681Y018276D01*
X006681Y018197D02*
X008478Y018197D01*
X008541Y018119D02*
X006681Y018119D01*
X006681Y018040D02*
X006788Y018040D01*
X006751Y017962D02*
X006681Y017962D01*
X006681Y017883D02*
X006751Y017883D01*
X006751Y017805D02*
X006649Y017805D01*
X006751Y017726D02*
X006374Y017726D01*
X006312Y017648D02*
X006751Y017648D01*
X006751Y017569D02*
X006234Y017569D01*
X006155Y017491D02*
X006751Y017491D01*
X006825Y017412D02*
X006537Y017412D01*
X005983Y017805D02*
X005350Y017805D01*
X005350Y017883D02*
X005951Y017883D01*
X005951Y017962D02*
X005350Y017962D01*
X005350Y018040D02*
X005951Y018040D01*
X005951Y018119D02*
X005350Y018119D01*
X005350Y018197D02*
X005951Y018197D01*
X005951Y018276D02*
X005350Y018276D01*
X005350Y018354D02*
X005952Y018354D01*
X006031Y018433D02*
X005350Y018433D01*
X005350Y017726D02*
X005910Y017726D01*
X005831Y017648D02*
X005350Y017648D01*
X005350Y017569D02*
X005753Y017569D01*
X005674Y017491D02*
X005350Y017491D01*
X005350Y017412D02*
X005596Y017412D01*
X006325Y016325D02*
X006401Y016325D01*
X006441Y016365D01*
X006481Y016325D01*
X006952Y016325D01*
X007034Y016407D01*
X007034Y016806D01*
X007381Y016806D01*
X007381Y016740D01*
X007423Y016637D01*
X007461Y016600D01*
X007451Y016590D01*
X007451Y016118D01*
X007442Y016109D01*
X007423Y016109D01*
X007326Y016012D01*
X007229Y016109D01*
X007029Y016109D01*
X006932Y016012D01*
X006835Y016109D01*
X006760Y016109D01*
X006760Y016228D01*
X006678Y016310D01*
X006424Y016310D01*
X006422Y016309D01*
X006341Y016309D01*
X006325Y016325D01*
X006336Y016313D02*
X007451Y016313D01*
X007451Y016235D02*
X006753Y016235D01*
X006760Y016156D02*
X007451Y016156D01*
X007392Y016078D02*
X007260Y016078D01*
X006998Y016078D02*
X006866Y016078D01*
X007019Y016392D02*
X007451Y016392D01*
X007451Y016470D02*
X007034Y016470D01*
X007034Y016549D02*
X007451Y016549D01*
X007433Y016627D02*
X007034Y016627D01*
X007034Y016706D02*
X007395Y016706D01*
X007381Y016784D02*
X007034Y016784D01*
X006821Y018511D02*
X007398Y018511D01*
X007319Y018590D02*
X006900Y018590D01*
X006978Y018668D02*
X007241Y018668D01*
X008816Y018852D02*
X009012Y019048D01*
X009012Y019189D01*
X009012Y019460D01*
X009494Y019460D01*
X009380Y019346D01*
X009380Y019187D01*
X009313Y019159D01*
X009234Y019080D01*
X009192Y018977D01*
X009192Y018866D01*
X009230Y018774D01*
X009226Y018770D01*
X009226Y018717D01*
X009180Y018763D01*
X008974Y018763D01*
X008974Y018770D01*
X008892Y018852D01*
X008816Y018852D01*
X008867Y018904D02*
X009192Y018904D01*
X009194Y018982D02*
X008946Y018982D01*
X009012Y019061D02*
X009226Y019061D01*
X009293Y019139D02*
X009012Y019139D01*
X009012Y019218D02*
X009380Y019218D01*
X009380Y019296D02*
X009012Y019296D01*
X009012Y019375D02*
X009409Y019375D01*
X009487Y019453D02*
X009012Y019453D01*
X008919Y018825D02*
X009209Y018825D01*
X009196Y018747D02*
X009226Y018747D01*
X010681Y020239D02*
X010757Y020185D01*
X010841Y020146D01*
X010930Y020122D01*
X011022Y020114D01*
X012162Y020114D01*
X012227Y020121D01*
X012290Y020140D01*
X012348Y020171D01*
X012399Y020212D01*
X012441Y020263D01*
X012472Y020321D01*
X012491Y020384D01*
X012497Y020450D01*
X012497Y021980D01*
X012377Y021980D01*
X011925Y021528D01*
X011826Y021429D01*
X010491Y021429D01*
X010491Y020646D01*
X010499Y020553D01*
X010523Y020464D01*
X010562Y020380D01*
X010615Y020304D01*
X010681Y020239D01*
X010681Y020238D02*
X012420Y020238D01*
X012469Y020317D02*
X010606Y020317D01*
X010555Y020395D02*
X012492Y020395D01*
X012497Y020474D02*
X010520Y020474D01*
X010499Y020552D02*
X012497Y020552D01*
X012497Y020631D02*
X010492Y020631D01*
X010491Y020709D02*
X012497Y020709D01*
X012497Y020788D02*
X010491Y020788D01*
X010491Y020866D02*
X012497Y020866D01*
X012497Y020945D02*
X010491Y020945D01*
X010491Y021023D02*
X012497Y021023D01*
X012497Y021102D02*
X010491Y021102D01*
X010491Y021180D02*
X012497Y021180D01*
X012497Y021259D02*
X010491Y021259D01*
X010491Y021337D02*
X012497Y021337D01*
X012497Y021416D02*
X010491Y021416D01*
X010491Y021769D02*
X010491Y022922D01*
X010497Y022984D01*
X010515Y023044D01*
X010545Y023100D01*
X010585Y023148D01*
X010633Y023188D01*
X010689Y023218D01*
X010731Y023230D01*
X012258Y023230D01*
X012300Y023218D01*
X012355Y023188D01*
X012403Y023148D01*
X012443Y023100D01*
X012473Y023044D01*
X012491Y022984D01*
X012497Y022922D01*
X012497Y022320D01*
X012236Y022320D01*
X011685Y021769D01*
X010491Y021769D01*
X010491Y021808D02*
X011724Y021808D01*
X011803Y021887D02*
X010491Y021887D01*
X010491Y021965D02*
X011881Y021965D01*
X011960Y022044D02*
X010491Y022044D01*
X010491Y022122D02*
X012038Y022122D01*
X012117Y022201D02*
X010491Y022201D01*
X010491Y022279D02*
X012195Y022279D01*
X012362Y021965D02*
X012497Y021965D01*
X012497Y021887D02*
X012283Y021887D01*
X012205Y021808D02*
X012497Y021808D01*
X012497Y021730D02*
X012126Y021730D01*
X012048Y021651D02*
X012497Y021651D01*
X012497Y021573D02*
X011969Y021573D01*
X011891Y021494D02*
X012497Y021494D01*
X012677Y021494D02*
X014105Y021494D01*
X014105Y021512D02*
X014105Y021322D01*
X013397Y021322D01*
X013390Y021328D01*
X013324Y021322D01*
X013302Y021322D01*
X013289Y021329D01*
X013262Y021322D01*
X013257Y021322D01*
X013255Y021320D01*
X013232Y021314D01*
X013196Y021311D01*
X013189Y021313D01*
X013182Y021310D01*
X013174Y021309D01*
X013169Y021304D01*
X013136Y021288D01*
X013101Y021279D01*
X013094Y021280D01*
X013087Y021275D01*
X013079Y021273D01*
X013076Y021267D01*
X013046Y021246D01*
X013013Y021231D01*
X013006Y021231D01*
X013000Y021225D01*
X012993Y021221D01*
X012990Y021215D01*
X012964Y021189D01*
X012934Y021168D01*
X012928Y021167D01*
X012923Y021160D01*
X012916Y021155D01*
X012915Y021149D01*
X012894Y021119D01*
X012868Y021093D01*
X012862Y021091D01*
X012858Y021083D01*
X012852Y021077D01*
X012852Y021071D01*
X012837Y021037D01*
X012816Y021007D01*
X012810Y021004D01*
X012808Y020996D01*
X012803Y020989D01*
X012804Y020982D01*
X012795Y020947D01*
X012779Y020914D01*
X012774Y020909D01*
X012773Y020901D01*
X012770Y020894D01*
X012772Y020887D01*
X012769Y020851D01*
X012763Y020828D01*
X012761Y020826D01*
X012761Y020821D01*
X012754Y020794D01*
X012761Y020781D01*
X012761Y020759D01*
X012755Y020693D01*
X012761Y020686D01*
X012761Y017968D01*
X012866Y017862D01*
X013731Y017862D01*
X013720Y017835D01*
X013720Y017724D01*
X013763Y017622D01*
X013841Y017543D01*
X013944Y017501D01*
X014055Y017501D01*
X014157Y017543D01*
X014236Y017622D01*
X014278Y017724D01*
X014278Y017835D01*
X014272Y017852D01*
X014301Y017862D01*
X014324Y017862D01*
X014329Y017867D01*
X014344Y017864D01*
X014358Y017873D01*
X014375Y017875D01*
X014389Y017893D01*
X014389Y017893D01*
X014390Y017893D01*
X014412Y017893D01*
X014424Y017905D01*
X014441Y017911D01*
X014451Y017931D01*
X014459Y017933D01*
X014482Y017933D01*
X014564Y018015D01*
X014564Y018081D01*
X014569Y018090D01*
X014566Y018104D01*
X014571Y018109D01*
X014571Y018132D01*
X014582Y018163D01*
X014572Y018183D01*
X014578Y018237D01*
X014571Y018247D01*
X014571Y021217D01*
X014466Y021322D01*
X014445Y021322D01*
X014445Y021371D01*
X014686Y021612D01*
X014686Y021612D01*
X014768Y021530D01*
X015829Y021530D01*
X015911Y021612D01*
X015911Y021980D01*
X016671Y021980D01*
X016671Y021614D01*
X016753Y021532D01*
X017814Y021532D01*
X017896Y021614D01*
X017896Y022675D01*
X017814Y022757D01*
X016753Y022757D01*
X016671Y022675D01*
X016671Y022320D01*
X015911Y022320D01*
X015911Y022673D01*
X015829Y022755D01*
X014768Y022755D01*
X014686Y022673D01*
X014686Y022093D01*
X014204Y021611D01*
X014105Y021512D01*
X014140Y021573D02*
X014166Y021573D01*
X014179Y021651D02*
X014244Y021651D01*
X014179Y021730D02*
X014323Y021730D01*
X014401Y021808D02*
X014179Y021808D01*
X014179Y021887D02*
X014480Y021887D01*
X014558Y021965D02*
X014179Y021965D01*
X014179Y022044D02*
X014637Y022044D01*
X014686Y022122D02*
X014179Y022122D01*
X014179Y022201D02*
X014686Y022201D01*
X014686Y022279D02*
X014179Y022279D01*
X014179Y022358D02*
X014686Y022358D01*
X014686Y022436D02*
X014179Y022436D01*
X014179Y022515D02*
X014686Y022515D01*
X014686Y022593D02*
X014179Y022593D01*
X014179Y022672D02*
X014686Y022672D01*
X014764Y022750D02*
X014101Y022750D01*
X013031Y022750D02*
X012677Y022750D01*
X012677Y022672D02*
X012954Y022672D01*
X012954Y022593D02*
X012677Y022593D01*
X012677Y022515D02*
X012954Y022515D01*
X012954Y022436D02*
X012677Y022436D01*
X012677Y022358D02*
X012954Y022358D01*
X012954Y021965D02*
X012677Y021965D01*
X012677Y021887D02*
X012954Y021887D01*
X012954Y021808D02*
X012677Y021808D01*
X012677Y021730D02*
X012954Y021730D01*
X012954Y021651D02*
X012677Y021651D01*
X012677Y021573D02*
X012993Y021573D01*
X013064Y021259D02*
X012677Y021259D01*
X012677Y021337D02*
X014105Y021337D01*
X014105Y021416D02*
X012677Y021416D01*
X012677Y021180D02*
X012951Y021180D01*
X012877Y021102D02*
X012677Y021102D01*
X012677Y021023D02*
X012827Y021023D01*
X012794Y020945D02*
X012677Y020945D01*
X012677Y020866D02*
X012770Y020866D01*
X012757Y020788D02*
X012677Y020788D01*
X012677Y020709D02*
X012757Y020709D01*
X012761Y020631D02*
X012677Y020631D01*
X012677Y020552D02*
X012761Y020552D01*
X012761Y020474D02*
X012680Y020474D01*
X012682Y020395D02*
X012761Y020395D01*
X012761Y020317D02*
X012665Y020317D01*
X012635Y020238D02*
X012761Y020238D01*
X012761Y020160D02*
X012589Y020160D01*
X012524Y020081D02*
X012761Y020081D01*
X012761Y020003D02*
X012427Y020003D01*
X012328Y020160D02*
X010812Y020160D01*
X011819Y019767D02*
X012761Y019767D01*
X012761Y019689D02*
X011898Y019689D01*
X011976Y019610D02*
X012761Y019610D01*
X012761Y019532D02*
X012055Y019532D01*
X012133Y019453D02*
X012761Y019453D01*
X012761Y019375D02*
X012341Y019375D01*
X012446Y019296D02*
X012761Y019296D01*
X012761Y019218D02*
X012490Y019218D01*
X012508Y019139D02*
X012761Y019139D01*
X012761Y019061D02*
X012507Y019061D01*
X012474Y018982D02*
X012761Y018982D01*
X012761Y018904D02*
X012409Y018904D01*
X012046Y018904D02*
X011967Y018904D01*
X011968Y018982D02*
X011981Y018982D01*
X011967Y018825D02*
X012761Y018825D01*
X012761Y018747D02*
X011967Y018747D01*
X011967Y018668D02*
X012761Y018668D01*
X012761Y018590D02*
X011967Y018590D01*
X011967Y018511D02*
X012761Y018511D01*
X012761Y018433D02*
X011966Y018433D01*
X011966Y018354D02*
X012761Y018354D01*
X012761Y018276D02*
X011966Y018276D01*
X011966Y018197D02*
X012761Y018197D01*
X012761Y018119D02*
X011966Y018119D01*
X011966Y018040D02*
X012761Y018040D01*
X012767Y017962D02*
X011965Y017962D01*
X011965Y017883D02*
X012845Y017883D01*
X012941Y018042D02*
X014250Y018042D01*
X014281Y018046D01*
X014311Y018056D01*
X014338Y018073D01*
X014360Y018095D01*
X014377Y018122D01*
X014387Y018152D01*
X014391Y018184D01*
X014391Y021142D01*
X013331Y021142D01*
X013264Y021136D01*
X013198Y021119D01*
X013136Y021090D01*
X013080Y021051D01*
X013032Y021003D01*
X012993Y020947D01*
X012964Y020885D01*
X012947Y020819D01*
X012941Y020752D01*
X012941Y018042D01*
X012941Y018119D02*
X014375Y018119D01*
X014391Y018197D02*
X012941Y018197D01*
X012941Y018276D02*
X014391Y018276D01*
X014391Y018354D02*
X012941Y018354D01*
X012941Y018433D02*
X014391Y018433D01*
X014391Y018511D02*
X012941Y018511D01*
X012941Y018590D02*
X014391Y018590D01*
X014391Y018668D02*
X012941Y018668D01*
X012941Y018747D02*
X014391Y018747D01*
X014391Y018825D02*
X012941Y018825D01*
X012941Y018904D02*
X014391Y018904D01*
X014391Y018982D02*
X012941Y018982D01*
X012941Y019061D02*
X014391Y019061D01*
X014391Y019139D02*
X012941Y019139D01*
X012941Y019218D02*
X014391Y019218D01*
X014391Y019296D02*
X012941Y019296D01*
X012941Y019375D02*
X014391Y019375D01*
X014391Y019453D02*
X012941Y019453D01*
X012941Y019532D02*
X014391Y019532D01*
X014391Y019610D02*
X012941Y019610D01*
X012941Y019689D02*
X014391Y019689D01*
X014391Y019767D02*
X012941Y019767D01*
X012941Y019846D02*
X014391Y019846D01*
X014391Y019924D02*
X012941Y019924D01*
X012941Y020003D02*
X014391Y020003D01*
X014391Y020081D02*
X012941Y020081D01*
X012941Y020160D02*
X014391Y020160D01*
X014391Y020238D02*
X012941Y020238D01*
X012941Y020317D02*
X014391Y020317D01*
X014391Y020395D02*
X012941Y020395D01*
X012941Y020474D02*
X014391Y020474D01*
X014391Y020552D02*
X012941Y020552D01*
X012941Y020631D02*
X014391Y020631D01*
X014391Y020709D02*
X012941Y020709D01*
X012944Y020788D02*
X014391Y020788D01*
X014391Y020866D02*
X012959Y020866D01*
X012992Y020945D02*
X014391Y020945D01*
X014391Y021023D02*
X013053Y021023D01*
X013162Y021102D02*
X014391Y021102D01*
X014571Y021102D02*
X014939Y021102D01*
X014891Y021023D02*
X014571Y021023D01*
X014571Y020945D02*
X014855Y020945D01*
X014843Y020866D02*
X014571Y020866D01*
X014571Y020788D02*
X014841Y020788D01*
X014841Y020709D02*
X014571Y020709D01*
X014571Y020631D02*
X014841Y020631D01*
X014841Y020552D02*
X014571Y020552D01*
X014571Y020474D02*
X014841Y020474D01*
X014841Y020395D02*
X014571Y020395D01*
X014571Y020317D02*
X014841Y020317D01*
X014841Y020238D02*
X014571Y020238D01*
X014571Y020160D02*
X014841Y020160D01*
X014841Y020081D02*
X014571Y020081D01*
X014571Y020003D02*
X014841Y020003D01*
X014841Y019924D02*
X014571Y019924D01*
X014571Y019846D02*
X014841Y019846D01*
X014841Y019767D02*
X014571Y019767D01*
X014571Y019689D02*
X014841Y019689D01*
X014841Y019610D02*
X014571Y019610D01*
X014571Y019532D02*
X014841Y019532D01*
X014841Y019453D02*
X014571Y019453D01*
X014571Y019375D02*
X014841Y019375D01*
X014841Y019296D02*
X014571Y019296D01*
X014571Y019218D02*
X014841Y019218D01*
X014841Y019139D02*
X014571Y019139D01*
X014571Y019061D02*
X014841Y019061D01*
X014840Y018982D02*
X014571Y018982D01*
X014571Y018904D02*
X014841Y018904D01*
X014854Y018825D02*
X014571Y018825D01*
X014571Y018747D02*
X014883Y018747D01*
X014928Y018668D02*
X014571Y018668D01*
X014571Y018590D02*
X014988Y018590D01*
X015070Y018511D02*
X014571Y018511D01*
X014571Y018433D02*
X015208Y018433D01*
X015217Y018354D02*
X014571Y018354D01*
X014571Y018276D02*
X015217Y018276D01*
X015217Y018197D02*
X014574Y018197D01*
X014571Y018119D02*
X015217Y018119D01*
X015217Y018040D02*
X014564Y018040D01*
X014510Y017962D02*
X015217Y017962D01*
X015217Y017883D02*
X014382Y017883D01*
X014451Y017931D02*
X014451Y017931D01*
X014451Y017931D01*
X014278Y017805D02*
X015217Y017805D01*
X015040Y017726D02*
X014278Y017726D01*
X014246Y017648D02*
X014928Y017648D01*
X014881Y017569D02*
X014183Y017569D01*
X013815Y017569D02*
X012009Y017569D01*
X011965Y017648D02*
X013752Y017648D01*
X013720Y017726D02*
X011965Y017726D01*
X011965Y017805D02*
X013720Y017805D01*
X013238Y017349D02*
X013238Y017349D01*
X013213Y017334D02*
X012245Y017334D01*
X012166Y017412D02*
X014861Y017412D01*
X014861Y017491D02*
X012088Y017491D01*
X012323Y017255D02*
X012957Y017255D01*
X013052Y017100D02*
X013095Y017123D01*
X013142Y017137D01*
X013191Y017142D01*
X017141Y017142D01*
X017190Y017137D01*
X017237Y017123D01*
X017280Y017100D01*
X017318Y017069D01*
X017349Y017031D01*
X017372Y016988D01*
X017386Y016941D01*
X017391Y016892D01*
X017391Y015592D01*
X017386Y015543D01*
X017372Y015496D01*
X017349Y015453D01*
X017318Y015415D01*
X017280Y015384D01*
X017237Y015361D01*
X017190Y015347D01*
X017141Y015342D01*
X016971Y015342D01*
X016968Y015343D01*
X016857Y015343D01*
X016854Y015342D01*
X015114Y015342D01*
X015114Y015625D01*
X015142Y015653D01*
X015185Y015756D01*
X015185Y015867D01*
X015142Y015970D01*
X015098Y016014D01*
X015083Y016188D01*
X015134Y016209D01*
X015212Y016287D01*
X015255Y016390D01*
X015255Y016501D01*
X015212Y016603D01*
X015134Y016682D01*
X015031Y016724D01*
X014920Y016724D01*
X014818Y016682D01*
X014739Y016603D01*
X014697Y016501D01*
X014697Y016497D01*
X014641Y016520D01*
X014530Y016520D01*
X014428Y016477D01*
X014349Y016399D01*
X014307Y016296D01*
X014307Y016185D01*
X014349Y016082D01*
X014428Y016004D01*
X014431Y016003D01*
X014445Y015787D01*
X014392Y015734D01*
X014349Y015631D01*
X014349Y015520D01*
X014392Y015417D01*
X014466Y015342D01*
X013618Y015342D01*
X013618Y015409D01*
X013518Y015509D01*
X013282Y015509D01*
X013106Y015685D01*
X013106Y016472D01*
X013007Y016572D01*
X012941Y016638D01*
X012941Y016892D01*
X012946Y016941D01*
X017386Y016941D01*
X017391Y016863D02*
X012941Y016863D01*
X012946Y016941D02*
X012960Y016988D01*
X012983Y017031D01*
X013014Y017069D01*
X013052Y017100D01*
X013050Y017098D02*
X017282Y017098D01*
X017355Y017020D02*
X012977Y017020D01*
X012773Y017020D02*
X012559Y017020D01*
X012637Y016941D02*
X012758Y016941D01*
X012757Y016863D02*
X012716Y016863D01*
X012941Y016784D02*
X017391Y016784D01*
X017391Y016706D02*
X015076Y016706D01*
X015188Y016627D02*
X017391Y016627D01*
X017391Y016549D02*
X015235Y016549D01*
X015255Y016470D02*
X017391Y016470D01*
X017391Y016392D02*
X015255Y016392D01*
X015223Y016313D02*
X017391Y016313D01*
X017391Y016235D02*
X015160Y016235D01*
X015086Y016156D02*
X017391Y016156D01*
X017391Y016078D02*
X015092Y016078D01*
X015113Y015999D02*
X017391Y015999D01*
X017391Y015921D02*
X015163Y015921D01*
X015185Y015842D02*
X017391Y015842D01*
X017391Y015764D02*
X015185Y015764D01*
X015156Y015685D02*
X017391Y015685D01*
X017391Y015607D02*
X015114Y015607D01*
X015114Y015528D02*
X017382Y015528D01*
X017346Y015450D02*
X015114Y015450D01*
X015114Y015371D02*
X017255Y015371D01*
X017659Y014979D02*
X017892Y014979D01*
X017892Y014929D02*
X017935Y014826D01*
X017992Y014769D01*
X017992Y014494D01*
X017991Y014492D01*
X017549Y014492D01*
X017520Y014462D01*
X017520Y014619D01*
X017544Y014629D01*
X017622Y014708D01*
X017665Y014811D01*
X017665Y014922D01*
X017647Y014967D01*
X017889Y015208D01*
X017988Y015308D01*
X017988Y016934D01*
X019076Y016934D01*
X019158Y017016D01*
X019158Y017334D01*
X019411Y017334D01*
X019411Y016557D01*
X019405Y016549D01*
X019411Y016483D01*
X019411Y016479D01*
X019402Y016462D01*
X019411Y016432D01*
X019411Y016418D01*
X019417Y016411D01*
X019418Y016408D01*
X019420Y016391D01*
X019416Y016377D01*
X019423Y016365D01*
X019424Y016352D01*
X019435Y016343D01*
X019443Y016327D01*
X019448Y016310D01*
X019447Y016297D01*
X019455Y016286D01*
X019459Y016273D01*
X019472Y016266D01*
X019483Y016253D01*
X019491Y016237D01*
X019492Y016224D01*
X019503Y016215D01*
X019509Y016203D01*
X019523Y016199D01*
X019536Y016187D01*
X019547Y016174D01*
X019551Y016161D01*
X019564Y016154D01*
X019572Y016144D01*
X019586Y016142D01*
X019602Y016134D01*
X019615Y016123D01*
X019622Y016111D01*
X019635Y016107D01*
X019645Y016098D01*
X019659Y016099D01*
X019676Y016094D01*
X019692Y016086D01*
X019700Y016075D01*
X019714Y016074D01*
X019726Y016067D01*
X019739Y016071D01*
X019757Y016070D01*
X019760Y016069D01*
X019766Y016062D01*
X019781Y016062D01*
X019811Y016053D01*
X019828Y016062D01*
X019832Y016062D01*
X019898Y016056D01*
X019905Y016062D01*
X020427Y016062D01*
X020434Y016056D01*
X020500Y016062D01*
X020504Y016062D01*
X020521Y016053D01*
X020551Y016062D01*
X020566Y016062D01*
X020572Y016069D01*
X020575Y016070D01*
X020593Y016071D01*
X020606Y016067D01*
X020618Y016074D01*
X020632Y016075D01*
X020640Y016086D01*
X020656Y016094D01*
X020673Y016099D01*
X020686Y016098D01*
X020697Y016107D01*
X020710Y016111D01*
X020717Y016123D01*
X020730Y016134D01*
X020746Y016142D01*
X020751Y016143D01*
X020751Y016134D01*
X020833Y016052D01*
X021656Y016052D01*
X021737Y012819D01*
X021236Y012819D01*
X021225Y012828D01*
X021164Y012821D01*
X021139Y012833D01*
X021099Y012819D01*
X021068Y012819D01*
X021065Y012817D01*
X021054Y012819D01*
X021034Y012807D01*
X021010Y012804D01*
X020997Y012786D01*
X020974Y012786D01*
X020958Y012770D01*
X020935Y012762D01*
X020926Y012742D01*
X020904Y012737D01*
X020891Y012717D01*
X020873Y012706D01*
X020770Y012663D01*
X020691Y012584D01*
X020648Y012481D01*
X020648Y012370D01*
X020691Y012267D01*
X020770Y012188D01*
X020789Y012180D01*
X020789Y011874D01*
X020769Y011854D01*
X020769Y011226D01*
X020851Y011144D01*
X021557Y011144D01*
X021639Y011226D01*
X021639Y011329D01*
X021703Y011329D01*
X021703Y010859D01*
X022884Y009678D01*
X022884Y006744D01*
X021721Y006744D01*
X021721Y007067D01*
X021616Y007172D01*
X020916Y007172D01*
X020816Y007072D01*
X020066Y007072D01*
X019966Y006972D01*
X019966Y010830D01*
X019898Y010898D01*
X019898Y011115D01*
X019816Y011197D01*
X019531Y011197D01*
X019512Y011178D01*
X019503Y011178D01*
X019484Y011197D01*
X019385Y011296D01*
X019227Y011296D01*
X019148Y011375D01*
X019145Y011375D01*
X019118Y011402D01*
X018833Y011402D01*
X018819Y011389D01*
X018773Y011435D01*
X018773Y011909D01*
X018803Y011916D01*
X018858Y011916D01*
X018868Y011925D01*
X018956Y011920D01*
X019026Y011850D01*
X019129Y011808D01*
X019240Y011808D01*
X019342Y011850D01*
X019421Y011929D01*
X019463Y012031D01*
X019463Y012143D01*
X019421Y012245D01*
X019342Y012324D01*
X019240Y012366D01*
X019129Y012366D01*
X019123Y012364D01*
X019123Y012715D01*
X019041Y012797D01*
X018525Y012797D01*
X018443Y012715D01*
X018443Y012149D01*
X018525Y012067D01*
X018604Y012067D01*
X018604Y012021D01*
X018619Y012005D01*
X018621Y011997D01*
X018175Y011997D01*
X018093Y011915D01*
X018093Y011643D01*
X017083Y012653D01*
X017083Y013420D01*
X017150Y013487D01*
X021720Y013487D01*
X021722Y013409D02*
X017083Y013409D01*
X017083Y013330D02*
X021724Y013330D01*
X021726Y013252D02*
X017083Y013252D01*
X017083Y013173D02*
X021728Y013173D01*
X021730Y013095D02*
X017083Y013095D01*
X017083Y013016D02*
X021732Y013016D01*
X021734Y012938D02*
X017083Y012938D01*
X017083Y012859D02*
X021736Y012859D01*
X021718Y013566D02*
X017182Y013566D01*
X017193Y013590D02*
X017193Y013702D01*
X017150Y013805D01*
X017071Y013883D01*
X016968Y013926D01*
X016857Y013926D01*
X016754Y013883D01*
X016675Y013805D01*
X016633Y013702D01*
X016633Y013590D01*
X016675Y013487D01*
X016743Y013420D01*
X016743Y012513D01*
X016842Y012413D01*
X018141Y011114D01*
X018417Y011114D01*
X018577Y010953D01*
X018331Y010953D01*
X018322Y010945D01*
X018313Y010953D01*
X017937Y010953D01*
X017928Y010945D01*
X017919Y010953D01*
X017544Y010953D01*
X017535Y010945D01*
X017526Y010953D01*
X017150Y010953D01*
X017141Y010945D01*
X017132Y010953D01*
X016756Y010953D01*
X016747Y010945D01*
X016738Y010953D01*
X016362Y010953D01*
X016354Y010945D01*
X016345Y010953D01*
X016316Y010953D01*
X016316Y011271D01*
X016223Y011365D01*
X014475Y011365D01*
X013685Y012155D01*
X013707Y012146D01*
X013819Y012146D01*
X013922Y012188D01*
X014000Y012267D01*
X014043Y012370D01*
X014043Y012481D01*
X014000Y012584D01*
X013922Y012663D01*
X013819Y012706D01*
X013711Y012706D01*
X013204Y013176D01*
X013292Y013212D01*
X013348Y013268D01*
X013694Y013268D01*
X013776Y013350D01*
X013776Y013820D01*
X013768Y013828D01*
X013768Y014274D01*
X013686Y014356D01*
X013657Y014356D01*
X013657Y014504D01*
X013618Y014543D01*
X013618Y014552D01*
X013629Y014547D01*
X013724Y014547D01*
X014243Y014028D01*
X014243Y014018D01*
X014325Y013936D01*
X014795Y013936D01*
X014877Y014018D01*
X014877Y014208D01*
X015131Y014208D01*
X015142Y014197D01*
X015423Y014197D01*
X015425Y014194D01*
X014877Y014194D01*
X014877Y014115D02*
X015573Y014115D01*
X015652Y014037D02*
X014877Y014037D01*
X014817Y013958D02*
X015730Y013958D01*
X015798Y013891D02*
X015495Y014194D01*
X015425Y014194D01*
X015509Y014584D02*
X015509Y014642D01*
X015575Y014708D01*
X015618Y014811D01*
X015618Y014922D01*
X015575Y015025D01*
X015496Y015104D01*
X015393Y015147D01*
X015282Y015147D01*
X015179Y015104D01*
X015114Y015039D01*
X015114Y015162D01*
X016151Y015162D01*
X016151Y014609D01*
X016233Y014527D01*
X016749Y014527D01*
X016782Y014560D01*
X017071Y014271D01*
X017071Y014263D01*
X017121Y014213D01*
X017105Y014174D01*
X017105Y014063D01*
X017148Y013960D01*
X017226Y013881D01*
X017329Y013839D01*
X017441Y013839D01*
X017544Y013881D01*
X017599Y013936D01*
X018020Y013936D01*
X018102Y014018D01*
X018102Y014122D01*
X018106Y014127D01*
X018290Y014310D01*
X018360Y014310D01*
X018442Y014392D01*
X018442Y014819D01*
X018417Y014844D01*
X018452Y014929D01*
X018452Y015040D01*
X018410Y015143D01*
X018331Y015222D01*
X018228Y015265D01*
X018117Y015265D01*
X018014Y015222D01*
X017935Y015143D01*
X017892Y015040D01*
X017892Y014929D01*
X017904Y014900D02*
X017665Y014900D01*
X017665Y014822D02*
X017939Y014822D01*
X017992Y014743D02*
X017637Y014743D01*
X017579Y014665D02*
X017992Y014665D01*
X017992Y014586D02*
X017520Y014586D01*
X017520Y014508D02*
X017992Y014508D01*
X018252Y014272D02*
X021701Y014272D01*
X021703Y014194D02*
X018173Y014194D01*
X018102Y014115D02*
X021705Y014115D01*
X021707Y014037D02*
X018102Y014037D01*
X018042Y013958D02*
X021709Y013958D01*
X021711Y013880D02*
X017540Y013880D01*
X017230Y013880D02*
X017075Y013880D01*
X017149Y013958D02*
X016481Y013958D01*
X016481Y013880D02*
X016750Y013880D01*
X016674Y013801D02*
X016473Y013801D01*
X016481Y013809D02*
X016481Y014375D01*
X016399Y014457D01*
X015883Y014457D01*
X015801Y014375D01*
X015801Y014368D01*
X015793Y014376D01*
X015793Y014502D01*
X015711Y014584D01*
X015509Y014584D01*
X015509Y014586D02*
X016174Y014586D01*
X016151Y014665D02*
X015532Y014665D01*
X015590Y014743D02*
X016151Y014743D01*
X016151Y014822D02*
X015618Y014822D01*
X015618Y014900D02*
X016151Y014900D01*
X016151Y014979D02*
X015594Y014979D01*
X015543Y015057D02*
X016151Y015057D01*
X016151Y015136D02*
X015420Y015136D01*
X015256Y015136D02*
X015114Y015136D01*
X015114Y015057D02*
X015132Y015057D01*
X014774Y015057D02*
X013850Y015057D01*
X013843Y015065D02*
X013740Y015107D01*
X013629Y015107D01*
X013618Y015103D01*
X013618Y015162D01*
X014774Y015162D01*
X014774Y014718D01*
X014773Y014717D01*
X014773Y014564D01*
X014716Y014564D01*
X014644Y014492D01*
X014325Y014492D01*
X014292Y014460D01*
X013964Y014788D01*
X013964Y014883D01*
X013922Y014986D01*
X013843Y015065D01*
X013925Y014979D02*
X014774Y014979D01*
X014774Y014900D02*
X013957Y014900D01*
X013964Y014822D02*
X014774Y014822D01*
X014774Y014743D02*
X014009Y014743D01*
X014087Y014665D02*
X014773Y014665D01*
X014773Y014586D02*
X014166Y014586D01*
X014244Y014508D02*
X014660Y014508D01*
X014234Y014037D02*
X013768Y014037D01*
X013768Y014115D02*
X014156Y014115D01*
X014077Y014194D02*
X013768Y014194D01*
X013768Y014272D02*
X013999Y014272D01*
X013920Y014351D02*
X013691Y014351D01*
X013657Y014429D02*
X013842Y014429D01*
X013763Y014508D02*
X013654Y014508D01*
X013768Y013958D02*
X014303Y013958D01*
X013768Y013880D02*
X015801Y013880D01*
X015801Y013887D02*
X015801Y013809D01*
X015883Y013727D01*
X016399Y013727D01*
X016481Y013809D01*
X016641Y013723D02*
X013776Y013723D01*
X013776Y013801D02*
X015809Y013801D01*
X015801Y013887D02*
X015798Y013891D01*
X015793Y014429D02*
X015855Y014429D01*
X015787Y014508D02*
X016834Y014508D01*
X016913Y014429D02*
X016427Y014429D01*
X016481Y014351D02*
X016991Y014351D01*
X017070Y014272D02*
X016481Y014272D01*
X016481Y014194D02*
X017113Y014194D01*
X017105Y014115D02*
X016481Y014115D01*
X016481Y014037D02*
X017116Y014037D01*
X017151Y013801D02*
X021713Y013801D01*
X021714Y013723D02*
X017184Y013723D01*
X017193Y013644D02*
X021716Y013644D01*
X021699Y014351D02*
X018400Y014351D01*
X018442Y014429D02*
X021697Y014429D01*
X021695Y014508D02*
X018442Y014508D01*
X018442Y014586D02*
X021693Y014586D01*
X021691Y014665D02*
X018442Y014665D01*
X018442Y014743D02*
X021689Y014743D01*
X021687Y014822D02*
X018439Y014822D01*
X018441Y014900D02*
X021685Y014900D01*
X021683Y014979D02*
X018452Y014979D01*
X018445Y015057D02*
X021681Y015057D01*
X021679Y015136D02*
X018413Y015136D01*
X018339Y015214D02*
X021677Y015214D01*
X021675Y015293D02*
X017973Y015293D01*
X017988Y015371D02*
X021673Y015371D01*
X021671Y015450D02*
X017988Y015450D01*
X017988Y015528D02*
X021669Y015528D01*
X021667Y015607D02*
X017988Y015607D01*
X017988Y015685D02*
X021665Y015685D01*
X021663Y015764D02*
X017988Y015764D01*
X017988Y015842D02*
X021661Y015842D01*
X021659Y015921D02*
X017988Y015921D01*
X017988Y015999D02*
X021657Y015999D01*
X020807Y016078D02*
X020634Y016078D01*
X020587Y016261D02*
X020540Y016247D01*
X020491Y016242D01*
X019841Y016242D01*
X019792Y016247D01*
X019745Y016261D01*
X019702Y016284D01*
X019664Y016315D01*
X019633Y016353D01*
X019610Y016396D01*
X019596Y016443D01*
X019591Y016492D01*
X019591Y018742D01*
X019586Y018791D01*
X019572Y018838D01*
X019549Y018881D01*
X019518Y018919D01*
X019480Y018950D01*
X019437Y018973D01*
X019390Y018987D01*
X019341Y018992D01*
X018941Y018992D01*
X018908Y018996D01*
X018876Y019007D01*
X018847Y019025D01*
X018824Y019049D01*
X018806Y019077D01*
X018795Y019109D01*
X018791Y019142D01*
X018791Y019267D01*
X018795Y019301D01*
X018806Y019332D01*
X018854Y019332D01*
X018940Y019417D01*
X018941Y019417D01*
X020491Y019417D01*
X020540Y019412D01*
X020587Y019398D01*
X020630Y019375D01*
X020668Y019344D01*
X020699Y019306D01*
X020722Y019263D01*
X020736Y019216D01*
X020737Y019209D01*
X020737Y019009D01*
X020741Y019005D01*
X020741Y018879D01*
X020737Y018875D01*
X020737Y018509D01*
X020741Y018505D01*
X020741Y016492D01*
X020736Y016443D01*
X020722Y016396D01*
X020699Y016353D01*
X020668Y016315D01*
X020630Y016284D01*
X020587Y016261D01*
X020665Y016313D02*
X019667Y016313D01*
X019613Y016392D02*
X020719Y016392D01*
X020739Y016470D02*
X019593Y016470D01*
X019591Y016549D02*
X020741Y016549D01*
X020741Y016627D02*
X019591Y016627D01*
X019591Y016706D02*
X020741Y016706D01*
X020741Y016784D02*
X019591Y016784D01*
X019591Y016863D02*
X020741Y016863D01*
X020741Y016941D02*
X019591Y016941D01*
X019591Y017020D02*
X020741Y017020D01*
X020741Y017098D02*
X019591Y017098D01*
X019591Y017177D02*
X020741Y017177D01*
X020741Y017255D02*
X019591Y017255D01*
X019591Y017334D02*
X020741Y017334D01*
X020741Y017412D02*
X019591Y017412D01*
X019591Y017491D02*
X020741Y017491D01*
X020741Y017569D02*
X019591Y017569D01*
X019591Y017648D02*
X020741Y017648D01*
X020741Y017726D02*
X019591Y017726D01*
X019591Y017805D02*
X020741Y017805D01*
X020741Y017883D02*
X019591Y017883D01*
X019591Y017962D02*
X020741Y017962D01*
X020741Y018040D02*
X019591Y018040D01*
X019591Y018119D02*
X020741Y018119D01*
X020741Y018197D02*
X019591Y018197D01*
X019591Y018276D02*
X020741Y018276D01*
X020741Y018354D02*
X019591Y018354D01*
X019591Y018433D02*
X020741Y018433D01*
X020737Y018511D02*
X019591Y018511D01*
X019591Y018590D02*
X020737Y018590D01*
X020737Y018668D02*
X019591Y018668D01*
X019590Y018747D02*
X020737Y018747D01*
X020737Y018825D02*
X019576Y018825D01*
X019530Y018904D02*
X020741Y018904D01*
X020741Y018982D02*
X019407Y018982D01*
X019410Y018747D02*
X017591Y018747D01*
X017591Y018825D02*
X018815Y018825D01*
X018702Y018904D02*
X017591Y018904D01*
X017591Y018982D02*
X018644Y018982D01*
X018617Y019061D02*
X017591Y019061D01*
X017591Y019139D02*
X018610Y019139D01*
X018604Y019218D02*
X017591Y019218D01*
X017591Y019296D02*
X018151Y019296D01*
X018078Y019375D02*
X017591Y019375D01*
X017591Y019453D02*
X018078Y019453D01*
X018078Y019532D02*
X017591Y019532D01*
X017591Y019610D02*
X018078Y019610D01*
X018078Y019689D02*
X017591Y019689D01*
X017591Y019767D02*
X018086Y019767D01*
X017591Y019846D02*
X018637Y019846D01*
X018686Y019924D02*
X017591Y019924D01*
X017591Y020003D02*
X018643Y020003D01*
X018637Y020081D02*
X017591Y020081D01*
X017591Y020160D02*
X018637Y020160D01*
X018637Y020238D02*
X017591Y020238D01*
X017603Y020317D02*
X018637Y020317D01*
X018657Y020395D02*
X017682Y020395D01*
X017760Y020474D02*
X019925Y020474D01*
X020004Y020552D02*
X017839Y020552D01*
X017917Y020631D02*
X020082Y020631D01*
X020161Y020709D02*
X017996Y020709D01*
X018074Y020788D02*
X020239Y020788D01*
X020318Y020866D02*
X018153Y020866D01*
X018231Y020945D02*
X020396Y020945D01*
X020475Y021023D02*
X018264Y021023D01*
X018264Y021102D02*
X020553Y021102D01*
X020632Y021180D02*
X018264Y021180D01*
X018264Y021259D02*
X020682Y021259D01*
X020603Y021337D02*
X018264Y021337D01*
X018264Y021416D02*
X020525Y021416D01*
X020446Y021494D02*
X018264Y021494D01*
X018264Y021573D02*
X018445Y021573D01*
X018403Y021651D02*
X018264Y021651D01*
X018264Y021730D02*
X018403Y021730D01*
X018403Y021808D02*
X018264Y021808D01*
X018264Y021887D02*
X018403Y021887D01*
X018403Y021965D02*
X018264Y021965D01*
X018264Y022044D02*
X018403Y022044D01*
X018403Y022122D02*
X018264Y022122D01*
X018264Y022201D02*
X018403Y022201D01*
X018403Y022279D02*
X018264Y022279D01*
X018264Y022358D02*
X018403Y022358D01*
X018403Y022436D02*
X018264Y022436D01*
X018264Y022515D02*
X018403Y022515D01*
X018403Y022593D02*
X018264Y022593D01*
X018264Y022672D02*
X018403Y022672D01*
X018479Y022750D02*
X018264Y022750D01*
X017924Y022750D02*
X017821Y022750D01*
X017896Y022672D02*
X017924Y022672D01*
X017924Y022593D02*
X017896Y022593D01*
X017896Y022515D02*
X017924Y022515D01*
X017924Y022436D02*
X017896Y022436D01*
X017896Y022358D02*
X017924Y022358D01*
X017924Y022279D02*
X017896Y022279D01*
X017896Y022201D02*
X017924Y022201D01*
X017924Y022122D02*
X017896Y022122D01*
X017896Y022044D02*
X017924Y022044D01*
X017924Y021965D02*
X017896Y021965D01*
X017896Y021887D02*
X017924Y021887D01*
X017924Y021808D02*
X017896Y021808D01*
X017896Y021730D02*
X017924Y021730D01*
X017924Y021651D02*
X017896Y021651D01*
X017924Y021573D02*
X017855Y021573D01*
X017924Y021494D02*
X014568Y021494D01*
X014490Y021416D02*
X017924Y021416D01*
X017924Y021337D02*
X017260Y021337D01*
X017253Y021337D02*
X017229Y021337D01*
X017190Y021137D02*
X017141Y021142D01*
X015401Y021142D01*
X015331Y021135D01*
X015264Y021115D01*
X015201Y021081D01*
X015147Y021037D01*
X015102Y020982D01*
X015068Y020920D01*
X015048Y020852D01*
X015041Y020782D01*
X015041Y018983D01*
X015047Y018915D01*
X015064Y018849D01*
X015093Y018787D01*
X015132Y018732D01*
X015180Y018683D01*
X015236Y018644D01*
X015298Y018616D01*
X015364Y018598D01*
X015431Y018592D01*
X015591Y018592D01*
X015640Y018587D01*
X015687Y018573D01*
X015730Y018550D01*
X015768Y018519D01*
X015799Y018481D01*
X015822Y018438D01*
X015836Y018391D01*
X015841Y018342D01*
X015841Y017442D01*
X017191Y017442D01*
X017235Y017447D01*
X017278Y017462D01*
X017316Y017486D01*
X017347Y017517D01*
X017371Y017555D01*
X017386Y017598D01*
X017391Y017642D01*
X017391Y020892D01*
X017386Y020941D01*
X017372Y020988D01*
X017349Y021031D01*
X017318Y021069D01*
X017280Y021100D01*
X017237Y021123D01*
X017190Y021137D01*
X017277Y021102D02*
X015239Y021102D01*
X015136Y021023D02*
X017353Y021023D01*
X017385Y020945D02*
X015082Y020945D01*
X015052Y020866D02*
X017391Y020866D01*
X017391Y020788D02*
X015042Y020788D01*
X015041Y020709D02*
X017391Y020709D01*
X017391Y020631D02*
X015041Y020631D01*
X015041Y020552D02*
X017391Y020552D01*
X017391Y020474D02*
X015041Y020474D01*
X015041Y020395D02*
X017391Y020395D01*
X017391Y020317D02*
X015041Y020317D01*
X015041Y020238D02*
X017391Y020238D01*
X017391Y020160D02*
X015041Y020160D01*
X015041Y020081D02*
X017391Y020081D01*
X017391Y020003D02*
X015041Y020003D01*
X015041Y019924D02*
X017391Y019924D01*
X017391Y019846D02*
X015041Y019846D01*
X015041Y019767D02*
X017391Y019767D01*
X017391Y019689D02*
X015041Y019689D01*
X015041Y019610D02*
X017391Y019610D01*
X017391Y019532D02*
X015041Y019532D01*
X015041Y019453D02*
X017391Y019453D01*
X017391Y019375D02*
X015041Y019375D01*
X015041Y019296D02*
X017391Y019296D01*
X017391Y019218D02*
X015041Y019218D01*
X015041Y019139D02*
X017391Y019139D01*
X017391Y019061D02*
X015041Y019061D01*
X015041Y018982D02*
X017391Y018982D01*
X017391Y018904D02*
X015050Y018904D01*
X015076Y018825D02*
X017391Y018825D01*
X017391Y018747D02*
X015122Y018747D01*
X015202Y018668D02*
X017391Y018668D01*
X017391Y018590D02*
X015616Y018590D01*
X015774Y018511D02*
X017391Y018511D01*
X017391Y018433D02*
X015823Y018433D01*
X015840Y018354D02*
X017391Y018354D01*
X017391Y018276D02*
X015841Y018276D01*
X015841Y018197D02*
X017391Y018197D01*
X017391Y018119D02*
X015841Y018119D01*
X015841Y018040D02*
X017391Y018040D01*
X017391Y017962D02*
X015841Y017962D01*
X015841Y017883D02*
X017391Y017883D01*
X017391Y017805D02*
X015841Y017805D01*
X015841Y017726D02*
X017391Y017726D01*
X017391Y017648D02*
X015841Y017648D01*
X015841Y017569D02*
X017376Y017569D01*
X017321Y017491D02*
X015841Y017491D01*
X014875Y016706D02*
X012941Y016706D01*
X012951Y016627D02*
X014763Y016627D01*
X014716Y016549D02*
X013030Y016549D01*
X013106Y016470D02*
X014421Y016470D01*
X014346Y016392D02*
X013106Y016392D01*
X013106Y016313D02*
X014314Y016313D01*
X014307Y016235D02*
X013106Y016235D01*
X013106Y016156D02*
X014319Y016156D01*
X014354Y016078D02*
X013106Y016078D01*
X013106Y015999D02*
X014431Y015999D01*
X014436Y015921D02*
X013106Y015921D01*
X013106Y015842D02*
X014441Y015842D01*
X014422Y015764D02*
X013106Y015764D01*
X013106Y015685D02*
X014372Y015685D01*
X014349Y015607D02*
X013185Y015607D01*
X013263Y015528D02*
X014349Y015528D01*
X014378Y015450D02*
X013578Y015450D01*
X013618Y015371D02*
X014437Y015371D01*
X014774Y015136D02*
X013618Y015136D01*
X013776Y013644D02*
X016633Y013644D01*
X016643Y013566D02*
X013776Y013566D01*
X013776Y013487D02*
X016676Y013487D01*
X016743Y013409D02*
X013776Y013409D01*
X013756Y013330D02*
X016743Y013330D01*
X016743Y013252D02*
X013332Y013252D01*
X013207Y013173D02*
X016743Y013173D01*
X016743Y013095D02*
X013292Y013095D01*
X013376Y013016D02*
X016743Y013016D01*
X016743Y012938D02*
X013461Y012938D01*
X013546Y012859D02*
X016743Y012859D01*
X016743Y012781D02*
X013630Y012781D01*
X013827Y012702D02*
X016743Y012702D01*
X016743Y012624D02*
X013961Y012624D01*
X014017Y012545D02*
X016743Y012545D01*
X016789Y012467D02*
X014043Y012467D01*
X014043Y012388D02*
X016867Y012388D01*
X016946Y012310D02*
X014018Y012310D01*
X013965Y012231D02*
X017024Y012231D01*
X017103Y012153D02*
X013836Y012153D01*
X013765Y012074D02*
X017181Y012074D01*
X017260Y011996D02*
X013844Y011996D01*
X013922Y011917D02*
X017338Y011917D01*
X017417Y011839D02*
X014001Y011839D01*
X014079Y011760D02*
X017495Y011760D01*
X017574Y011682D02*
X014158Y011682D01*
X014236Y011603D02*
X017652Y011603D01*
X017731Y011525D02*
X014315Y011525D01*
X014393Y011446D02*
X017809Y011446D01*
X017888Y011368D02*
X014472Y011368D01*
X013925Y010975D02*
X010533Y010975D01*
X010454Y011054D02*
X013846Y011054D01*
X013768Y011132D02*
X010376Y011132D01*
X010297Y011211D02*
X013689Y011211D01*
X013611Y011289D02*
X010219Y011289D01*
X010140Y011368D02*
X013532Y011368D01*
X013454Y011446D02*
X010062Y011446D01*
X009983Y011525D02*
X013375Y011525D01*
X013297Y011603D02*
X009905Y011603D01*
X009826Y011682D02*
X013218Y011682D01*
X013140Y011760D02*
X009748Y011760D01*
X009669Y011839D02*
X013061Y011839D01*
X012983Y011917D02*
X009591Y011917D01*
X009626Y013252D02*
X010375Y013252D01*
X010453Y013330D02*
X009548Y013330D01*
X010047Y013409D02*
X010576Y013409D01*
X010576Y013487D02*
X010181Y013487D01*
X010237Y013566D02*
X010575Y013566D01*
X010553Y013644D02*
X010263Y013644D01*
X010263Y013723D02*
X010457Y013723D01*
X010427Y013801D02*
X010340Y013801D01*
X011091Y012702D02*
X011202Y012702D01*
X013687Y012153D02*
X013690Y012153D01*
X016298Y011289D02*
X017966Y011289D01*
X018045Y011211D02*
X016316Y011211D01*
X016316Y011132D02*
X018123Y011132D01*
X018477Y011054D02*
X016316Y011054D01*
X016316Y010975D02*
X018556Y010975D01*
X018773Y011446D02*
X020769Y011446D01*
X020769Y011368D02*
X019156Y011368D01*
X019392Y011289D02*
X020769Y011289D01*
X020784Y011211D02*
X019470Y011211D01*
X019880Y011132D02*
X021703Y011132D01*
X021703Y011054D02*
X019898Y011054D01*
X019898Y010975D02*
X021703Y010975D01*
X021703Y010897D02*
X019899Y010897D01*
X019966Y010818D02*
X021744Y010818D01*
X021823Y010740D02*
X019966Y010740D01*
X019966Y010661D02*
X021901Y010661D01*
X021980Y010583D02*
X019966Y010583D01*
X019966Y010504D02*
X022058Y010504D01*
X022137Y010426D02*
X019966Y010426D01*
X019966Y010347D02*
X022215Y010347D01*
X022294Y010269D02*
X019966Y010269D01*
X019966Y010190D02*
X022372Y010190D01*
X022451Y010112D02*
X019966Y010112D01*
X019966Y010033D02*
X022529Y010033D01*
X022608Y009955D02*
X019966Y009955D01*
X019966Y009876D02*
X022686Y009876D01*
X022765Y009798D02*
X019966Y009798D01*
X019966Y009719D02*
X022843Y009719D01*
X022884Y009641D02*
X019966Y009641D01*
X019966Y009562D02*
X022884Y009562D01*
X022884Y009484D02*
X019966Y009484D01*
X019966Y009405D02*
X022884Y009405D01*
X022884Y009327D02*
X019966Y009327D01*
X019966Y009248D02*
X022884Y009248D01*
X022884Y009170D02*
X019966Y009170D01*
X019966Y009091D02*
X020406Y009091D01*
X020443Y009129D02*
X020361Y009047D01*
X020361Y008671D01*
X020370Y008662D01*
X020361Y008653D01*
X020361Y008333D01*
X020354Y008336D01*
X020243Y008336D01*
X020140Y008293D01*
X020061Y008214D01*
X020018Y008111D01*
X020018Y008000D01*
X020061Y007897D01*
X020140Y007818D01*
X020243Y007776D01*
X020354Y007776D01*
X020435Y007809D01*
X020443Y007801D01*
X021319Y007801D01*
X021401Y007883D01*
X021401Y008259D01*
X021392Y008268D01*
X021401Y008277D01*
X021401Y008653D01*
X021392Y008662D01*
X021401Y008671D01*
X021401Y009047D01*
X021319Y009129D01*
X020443Y009129D01*
X020361Y009013D02*
X019966Y009013D01*
X019966Y008934D02*
X020361Y008934D01*
X020361Y008856D02*
X019966Y008856D01*
X019966Y008777D02*
X020361Y008777D01*
X020361Y008699D02*
X019966Y008699D01*
X019966Y008620D02*
X020361Y008620D01*
X020361Y008542D02*
X019966Y008542D01*
X019966Y008463D02*
X020361Y008463D01*
X020361Y008385D02*
X019966Y008385D01*
X019966Y008306D02*
X020172Y008306D01*
X020075Y008228D02*
X019966Y008228D01*
X019966Y008149D02*
X020034Y008149D01*
X020018Y008071D02*
X019966Y008071D01*
X019966Y007992D02*
X020022Y007992D01*
X020054Y007914D02*
X019966Y007914D01*
X019966Y007835D02*
X020123Y007835D01*
X019966Y007757D02*
X022884Y007757D01*
X022884Y007835D02*
X021353Y007835D01*
X021401Y007914D02*
X022884Y007914D01*
X022884Y007992D02*
X021401Y007992D01*
X021401Y008071D02*
X022884Y008071D01*
X022884Y008149D02*
X021401Y008149D01*
X021401Y008228D02*
X022884Y008228D01*
X022884Y008306D02*
X021401Y008306D01*
X021401Y008385D02*
X022884Y008385D01*
X022884Y008463D02*
X021401Y008463D01*
X021401Y008542D02*
X022884Y008542D01*
X022884Y008620D02*
X021401Y008620D01*
X021401Y008699D02*
X022884Y008699D01*
X022884Y008777D02*
X021401Y008777D01*
X021401Y008856D02*
X022884Y008856D01*
X022884Y008934D02*
X021401Y008934D01*
X021401Y009013D02*
X022884Y009013D01*
X022884Y009091D02*
X021357Y009091D01*
X022618Y010426D02*
X023251Y010426D01*
X023251Y010504D02*
X022539Y010504D01*
X022461Y010583D02*
X023251Y010583D01*
X023251Y010661D02*
X022382Y010661D01*
X022304Y010740D02*
X023251Y010740D01*
X023251Y010818D02*
X022225Y010818D01*
X022147Y010897D02*
X023251Y010897D01*
X023250Y010975D02*
X022068Y010975D01*
X022043Y011000D02*
X023125Y009918D01*
X023224Y009819D01*
X023224Y006744D01*
X023259Y006744D01*
X023249Y011456D01*
X023247Y011444D01*
X023227Y011432D01*
X023214Y011411D01*
X023192Y011407D01*
X023183Y011387D01*
X023160Y011379D01*
X023144Y011362D01*
X023121Y011362D01*
X023108Y011345D01*
X023084Y011342D01*
X023064Y011329D01*
X023053Y011332D01*
X023050Y011329D01*
X023019Y011329D01*
X022979Y011315D01*
X022954Y011327D01*
X022893Y011320D01*
X022882Y011329D01*
X022043Y011329D01*
X022043Y011000D01*
X022043Y011054D02*
X023250Y011054D01*
X023250Y011132D02*
X022043Y011132D01*
X022043Y011211D02*
X023250Y011211D01*
X023250Y011289D02*
X022043Y011289D01*
X021703Y011289D02*
X021639Y011289D01*
X021624Y011211D02*
X021703Y011211D01*
X020769Y011525D02*
X018773Y011525D01*
X018773Y011603D02*
X020769Y011603D01*
X020769Y011682D02*
X018773Y011682D01*
X018773Y011760D02*
X020769Y011760D01*
X020769Y011839D02*
X019314Y011839D01*
X019409Y011917D02*
X020789Y011917D01*
X020789Y011996D02*
X019448Y011996D01*
X019463Y012074D02*
X020789Y012074D01*
X020789Y012153D02*
X019459Y012153D01*
X019427Y012231D02*
X020727Y012231D01*
X020673Y012310D02*
X019356Y012310D01*
X019123Y012388D02*
X020648Y012388D01*
X020648Y012467D02*
X019123Y012467D01*
X019123Y012545D02*
X020675Y012545D01*
X020730Y012624D02*
X019123Y012624D01*
X019123Y012702D02*
X020864Y012702D01*
X020873Y012706D02*
X020873Y012706D01*
X020969Y012781D02*
X019058Y012781D01*
X018509Y012781D02*
X017083Y012781D01*
X017083Y012702D02*
X018443Y012702D01*
X018443Y012624D02*
X017112Y012624D01*
X017191Y012545D02*
X018443Y012545D01*
X018443Y012467D02*
X017269Y012467D01*
X017348Y012388D02*
X018443Y012388D01*
X018443Y012310D02*
X017426Y012310D01*
X017505Y012231D02*
X018443Y012231D01*
X018443Y012153D02*
X017583Y012153D01*
X017662Y012074D02*
X018519Y012074D01*
X018773Y011839D02*
X019055Y011839D01*
X018959Y011917D02*
X018859Y011917D01*
X018174Y011996D02*
X017740Y011996D01*
X017819Y011917D02*
X018095Y011917D01*
X018093Y011839D02*
X017897Y011839D01*
X017976Y011760D02*
X018093Y011760D01*
X018093Y011682D02*
X018054Y011682D01*
X017150Y013487D02*
X017193Y013590D01*
X017737Y015057D02*
X017899Y015057D01*
X017932Y015136D02*
X017816Y015136D01*
X017894Y015214D02*
X018006Y015214D01*
X017988Y016078D02*
X019698Y016078D01*
X019560Y016156D02*
X017988Y016156D01*
X017988Y016235D02*
X019491Y016235D01*
X019447Y016313D02*
X017988Y016313D01*
X017988Y016392D02*
X019420Y016392D01*
X019406Y016470D02*
X017988Y016470D01*
X017988Y016549D02*
X019405Y016549D01*
X019411Y016627D02*
X017988Y016627D01*
X017988Y016706D02*
X019411Y016706D01*
X019411Y016784D02*
X017988Y016784D01*
X017988Y016863D02*
X019411Y016863D01*
X019411Y016941D02*
X019084Y016941D01*
X019158Y017020D02*
X019411Y017020D01*
X019411Y017098D02*
X019158Y017098D01*
X019158Y017177D02*
X019411Y017177D01*
X019411Y017255D02*
X019158Y017255D01*
X019158Y017334D02*
X019411Y017334D01*
X019411Y017726D02*
X019158Y017726D01*
X019158Y017805D02*
X019411Y017805D01*
X019411Y017883D02*
X019158Y017883D01*
X019158Y017962D02*
X019411Y017962D01*
X019411Y018040D02*
X019100Y018040D01*
X019411Y018119D02*
X017680Y018119D01*
X017602Y018197D02*
X019411Y018197D01*
X019411Y018276D02*
X017591Y018276D01*
X017591Y018354D02*
X019411Y018354D01*
X019411Y018433D02*
X017591Y018433D01*
X017591Y018511D02*
X019411Y018511D01*
X019411Y018590D02*
X017591Y018590D01*
X017591Y018668D02*
X019411Y018668D01*
X018816Y019061D02*
X020737Y019061D01*
X020737Y019139D02*
X018791Y019139D01*
X018791Y019218D02*
X020736Y019218D01*
X020704Y019296D02*
X018794Y019296D01*
X018897Y019375D02*
X020630Y019375D01*
X019690Y020238D02*
X019517Y020238D01*
X019517Y020160D02*
X019611Y020160D01*
X019533Y020081D02*
X019517Y020081D01*
X019517Y020317D02*
X019768Y020317D01*
X019847Y020395D02*
X019496Y020395D01*
X019587Y021573D02*
X019796Y021573D01*
X019765Y021651D02*
X019628Y021651D01*
X019628Y021730D02*
X019765Y021730D01*
X019765Y021808D02*
X019628Y021808D01*
X019628Y021887D02*
X019765Y021887D01*
X019765Y021965D02*
X019628Y021965D01*
X019628Y022358D02*
X019765Y022358D01*
X019765Y022436D02*
X019628Y022436D01*
X019628Y022515D02*
X019765Y022515D01*
X019765Y022593D02*
X019628Y022593D01*
X019628Y022672D02*
X019772Y022672D01*
X019553Y022750D02*
X020915Y022750D01*
X020983Y022672D02*
X020993Y022672D01*
X020990Y022593D02*
X021072Y022593D01*
X021150Y022515D02*
X020990Y022515D01*
X020990Y022436D02*
X021229Y022436D01*
X021307Y022358D02*
X020990Y022358D01*
X020990Y022279D02*
X021386Y022279D01*
X021464Y022201D02*
X020990Y022201D01*
X020990Y022122D02*
X021497Y022122D01*
X021497Y022044D02*
X020990Y022044D01*
X020990Y021965D02*
X021497Y021965D01*
X021497Y021887D02*
X020990Y021887D01*
X020990Y021808D02*
X021497Y021808D01*
X021497Y021730D02*
X020990Y021730D01*
X020990Y021651D02*
X021497Y021651D01*
X021528Y021573D02*
X020990Y021573D01*
X021069Y021494D02*
X023230Y021494D01*
X023230Y021416D02*
X021147Y021416D01*
X021226Y021337D02*
X023230Y021337D01*
X023230Y021259D02*
X021304Y021259D01*
X021383Y021180D02*
X023230Y021180D01*
X023231Y021102D02*
X021461Y021102D01*
X021540Y021023D02*
X023231Y021023D01*
X023231Y020945D02*
X021618Y020945D01*
X021697Y020866D02*
X023231Y020866D01*
X023231Y020788D02*
X021775Y020788D01*
X021854Y020709D02*
X023231Y020709D01*
X023232Y020631D02*
X021932Y020631D01*
X022011Y020552D02*
X023232Y020552D01*
X023232Y020474D02*
X022089Y020474D01*
X022093Y020395D02*
X023232Y020395D01*
X023232Y020317D02*
X022093Y020317D01*
X022093Y020238D02*
X023232Y020238D01*
X023232Y020160D02*
X022093Y020160D01*
X022093Y020081D02*
X023233Y020081D01*
X023233Y020003D02*
X022127Y020003D01*
X022172Y019924D02*
X023233Y019924D01*
X023233Y019846D02*
X022179Y019846D01*
X022179Y019767D02*
X023233Y019767D01*
X023233Y019689D02*
X022179Y019689D01*
X022179Y019610D02*
X023234Y019610D01*
X023234Y019532D02*
X022119Y019532D01*
X022029Y019453D02*
X023234Y019453D01*
X023234Y019375D02*
X022018Y019375D01*
X022018Y019296D02*
X023234Y019296D01*
X023234Y019218D02*
X022018Y019218D01*
X022018Y019139D02*
X023234Y019139D01*
X023235Y019061D02*
X022018Y019061D01*
X021977Y018982D02*
X023235Y018982D01*
X023235Y018904D02*
X021921Y018904D01*
X022050Y018825D02*
X023235Y018825D01*
X023235Y018747D02*
X022114Y018747D01*
X022133Y018668D02*
X023235Y018668D01*
X023236Y018590D02*
X022133Y018590D01*
X022133Y018511D02*
X023236Y018511D01*
X023236Y018433D02*
X022133Y018433D01*
X022133Y018354D02*
X023236Y018354D01*
X023236Y018276D02*
X022200Y018276D01*
X022279Y018197D02*
X023236Y018197D01*
X023236Y018119D02*
X022357Y018119D01*
X022436Y018040D02*
X023237Y018040D01*
X023237Y017962D02*
X022487Y017962D01*
X022487Y017883D02*
X023237Y017883D01*
X023237Y017805D02*
X022958Y017805D01*
X023098Y017726D02*
X023237Y017726D01*
X023237Y017648D02*
X023160Y017648D01*
X023198Y017569D02*
X023238Y017569D01*
X023209Y017538D02*
X023209Y017538D01*
X023215Y017491D02*
X023238Y017491D01*
X023238Y017412D02*
X023216Y017412D01*
X023213Y017334D02*
X023238Y017334D01*
X023238Y017255D02*
X023215Y017255D01*
X023216Y017177D02*
X023238Y017177D01*
X023238Y017098D02*
X023218Y017098D01*
X023220Y017020D02*
X023239Y017020D01*
X023239Y016941D02*
X023221Y016941D01*
X023223Y016863D02*
X023239Y016863D01*
X023239Y016784D02*
X023225Y016784D01*
X023226Y016706D02*
X023239Y016706D01*
X023228Y016627D02*
X023239Y016627D01*
X023229Y016549D02*
X023240Y016549D01*
X023231Y016470D02*
X023240Y016470D01*
X023233Y016392D02*
X023240Y016392D01*
X023234Y016313D02*
X023240Y016313D01*
X023236Y016235D02*
X023240Y016235D01*
X023237Y016156D02*
X023240Y016156D01*
X023239Y016078D02*
X023240Y016078D01*
X023247Y011446D02*
X023250Y011446D01*
X023250Y011368D02*
X023149Y011368D01*
X023252Y010347D02*
X022696Y010347D01*
X022775Y010269D02*
X023252Y010269D01*
X023252Y010190D02*
X022853Y010190D01*
X022932Y010112D02*
X023252Y010112D01*
X023252Y010033D02*
X023010Y010033D01*
X023089Y009955D02*
X023252Y009955D01*
X023253Y009876D02*
X023167Y009876D01*
X023224Y009798D02*
X023253Y009798D01*
X023253Y009719D02*
X023224Y009719D01*
X023224Y009641D02*
X023253Y009641D01*
X023253Y009562D02*
X023224Y009562D01*
X023224Y009484D02*
X023253Y009484D01*
X023253Y009405D02*
X023224Y009405D01*
X023224Y009327D02*
X023254Y009327D01*
X023254Y009248D02*
X023224Y009248D01*
X023224Y009170D02*
X023254Y009170D01*
X023254Y009091D02*
X023224Y009091D01*
X023224Y009013D02*
X023254Y009013D01*
X023254Y008934D02*
X023224Y008934D01*
X023224Y008856D02*
X023255Y008856D01*
X023255Y008777D02*
X023224Y008777D01*
X023224Y008699D02*
X023255Y008699D01*
X023255Y008620D02*
X023224Y008620D01*
X023224Y008542D02*
X023255Y008542D01*
X023255Y008463D02*
X023224Y008463D01*
X023224Y008385D02*
X023255Y008385D01*
X023256Y008306D02*
X023224Y008306D01*
X023224Y008228D02*
X023256Y008228D01*
X023256Y008149D02*
X023224Y008149D01*
X023224Y008071D02*
X023256Y008071D01*
X023256Y007992D02*
X023224Y007992D01*
X023224Y007914D02*
X023256Y007914D01*
X023257Y007835D02*
X023224Y007835D01*
X023224Y007757D02*
X023257Y007757D01*
X023257Y007678D02*
X023224Y007678D01*
X023224Y007600D02*
X023257Y007600D01*
X023257Y007521D02*
X023224Y007521D01*
X023224Y007443D02*
X023257Y007443D01*
X023257Y007364D02*
X023224Y007364D01*
X023224Y007286D02*
X023258Y007286D01*
X023258Y007207D02*
X023224Y007207D01*
X023224Y007129D02*
X023258Y007129D01*
X023258Y007050D02*
X023224Y007050D01*
X023224Y006972D02*
X023258Y006972D01*
X023258Y006893D02*
X023224Y006893D01*
X023224Y006815D02*
X023259Y006815D01*
X022884Y006815D02*
X021721Y006815D01*
X021721Y006893D02*
X022884Y006893D01*
X022884Y006972D02*
X021721Y006972D01*
X021721Y007050D02*
X022884Y007050D01*
X022884Y007129D02*
X021659Y007129D01*
X020873Y007129D02*
X019966Y007129D01*
X019966Y007207D02*
X022884Y007207D01*
X022884Y007286D02*
X019966Y007286D01*
X019966Y007364D02*
X022884Y007364D01*
X022884Y007443D02*
X019966Y007443D01*
X019966Y007521D02*
X022884Y007521D01*
X022884Y007600D02*
X019966Y007600D01*
X019966Y007678D02*
X022884Y007678D01*
X021245Y006265D02*
X019966Y006265D01*
X019966Y006187D02*
X021245Y006187D01*
X021245Y006108D02*
X019966Y006108D01*
X019966Y006030D02*
X021245Y006030D01*
X020885Y006344D02*
X019966Y006344D01*
X019966Y006422D02*
X020056Y006422D01*
X019978Y006501D02*
X019966Y006501D01*
X019966Y007050D02*
X020044Y007050D01*
X019966Y005951D02*
X020415Y005951D01*
X020361Y005873D02*
X019966Y005873D01*
X019966Y005794D02*
X020361Y005794D01*
X020361Y005716D02*
X019966Y005716D01*
X019966Y005637D02*
X020361Y005637D01*
X020361Y005559D02*
X019966Y005559D01*
X019966Y005480D02*
X020402Y005480D01*
X019966Y005402D02*
X021245Y005402D01*
X021245Y005323D02*
X019966Y005323D01*
X019966Y005245D02*
X021245Y005245D01*
X021245Y005166D02*
X019966Y005166D01*
X019966Y005088D02*
X021245Y005088D01*
X021245Y005009D02*
X019966Y005009D01*
X019966Y004931D02*
X021245Y004931D01*
X021245Y004852D02*
X019966Y004852D01*
X022038Y000299D02*
X001511Y000299D01*
X004562Y003047D02*
X005364Y003047D01*
X007219Y003068D02*
X007319Y002968D01*
X007485Y002576D02*
X009632Y002576D01*
X009775Y002419D02*
X007508Y002419D01*
X007508Y002497D02*
X009868Y002497D01*
X009697Y002340D02*
X007479Y002340D01*
X007420Y002262D02*
X009618Y002262D01*
X010076Y003204D02*
X010128Y003204D01*
X010206Y003282D02*
X009997Y003282D01*
X009919Y003361D02*
X010284Y003361D01*
X010363Y003439D02*
X009840Y003439D01*
X009762Y003518D02*
X010441Y003518D01*
X010520Y003596D02*
X009683Y003596D01*
X009605Y003675D02*
X010561Y003675D01*
X010124Y003753D02*
X009526Y003753D01*
X009448Y003832D02*
X010032Y003832D01*
X009993Y003910D02*
X009369Y003910D01*
X009291Y003989D02*
X009979Y003989D01*
X009984Y004067D02*
X009212Y004067D01*
X009134Y004146D02*
X010016Y004146D01*
X010087Y004224D02*
X009055Y004224D01*
X008977Y004303D02*
X010442Y004303D01*
X010885Y004303D02*
X010912Y004303D01*
X010971Y004381D02*
X008898Y004381D01*
X007004Y005794D02*
X005694Y005794D01*
X005795Y005873D02*
X006926Y005873D01*
X006847Y005951D02*
X005837Y005951D01*
X005854Y006030D02*
X006769Y006030D01*
X006690Y006108D02*
X005852Y006108D01*
X005820Y006187D02*
X006612Y006187D01*
X006533Y006265D02*
X005752Y006265D01*
X005518Y006344D02*
X006455Y006344D01*
X006376Y006422D02*
X005440Y006422D01*
X005361Y006501D02*
X006298Y006501D01*
X006219Y006579D02*
X005283Y006579D01*
X005204Y006658D02*
X006141Y006658D01*
X006062Y006736D02*
X005126Y006736D01*
X005047Y006815D02*
X005984Y006815D01*
X005905Y006893D02*
X004969Y006893D01*
X004890Y006972D02*
X005827Y006972D01*
X005748Y007050D02*
X004812Y007050D01*
X004733Y007129D02*
X005670Y007129D01*
X005591Y007207D02*
X004655Y007207D01*
X004576Y007286D02*
X005513Y007286D01*
X005434Y007364D02*
X004498Y007364D01*
X004484Y007443D02*
X005356Y007443D01*
X005277Y007521D02*
X004484Y007521D01*
X004484Y007600D02*
X005199Y007600D01*
X005120Y007678D02*
X004484Y007678D01*
X004484Y007757D02*
X005042Y007757D01*
X005010Y007835D02*
X004484Y007835D01*
X004484Y007914D02*
X005010Y007914D01*
X005010Y007992D02*
X004484Y007992D01*
X004484Y008071D02*
X005010Y008071D01*
X005010Y008149D02*
X004484Y008149D01*
X004484Y008228D02*
X005010Y008228D01*
X005010Y008306D02*
X004484Y008306D01*
X004484Y008385D02*
X005010Y008385D01*
X005010Y008463D02*
X004484Y008463D01*
X004484Y008542D02*
X005010Y008542D01*
X005010Y008620D02*
X004484Y008620D01*
X004484Y008699D02*
X005010Y008699D01*
X005010Y008777D02*
X004484Y008777D01*
X004484Y008856D02*
X005010Y008856D01*
X005010Y008934D02*
X004484Y008934D01*
X004484Y009013D02*
X005010Y009013D01*
X005010Y009091D02*
X004484Y009091D01*
X004484Y009170D02*
X004773Y009170D01*
X004701Y009248D02*
X004484Y009248D01*
X004484Y009327D02*
X004669Y009327D01*
X004664Y009405D02*
X004484Y009405D01*
X004484Y009484D02*
X004614Y009484D01*
X004536Y009562D02*
X004484Y009562D01*
X005350Y009562D02*
X005680Y009562D01*
X005680Y009484D02*
X005350Y009484D01*
X005350Y009405D02*
X005680Y009405D01*
X005680Y009327D02*
X005350Y009327D01*
X005350Y009248D02*
X005680Y009248D01*
X005680Y009170D02*
X005350Y009170D01*
X005350Y009091D02*
X005680Y009091D01*
X005680Y009013D02*
X005350Y009013D01*
X005350Y008934D02*
X005680Y008934D01*
X005680Y008856D02*
X005350Y008856D01*
X005350Y008777D02*
X005680Y008777D01*
X005680Y008699D02*
X005350Y008699D01*
X005350Y008620D02*
X005680Y008620D01*
X005680Y008542D02*
X005350Y008542D01*
X005350Y008463D02*
X005680Y008463D01*
X005680Y008385D02*
X005350Y008385D01*
X005350Y008306D02*
X005680Y008306D01*
X005680Y008228D02*
X005350Y008228D01*
X005350Y008149D02*
X005680Y008149D01*
X005680Y008071D02*
X005350Y008071D01*
X005350Y007992D02*
X005680Y007992D01*
X005680Y007914D02*
X005366Y007914D01*
X005444Y007835D02*
X005680Y007835D01*
X005680Y007757D02*
X005523Y007757D01*
X005601Y007678D02*
X005667Y007678D01*
X005680Y009641D02*
X005350Y009641D01*
X005350Y009719D02*
X005680Y009719D01*
X005680Y009798D02*
X005350Y009798D01*
X005350Y009876D02*
X005680Y009876D01*
X005680Y009955D02*
X005350Y009955D01*
X005350Y010033D02*
X005680Y010033D01*
X005680Y010112D02*
X005350Y010112D01*
X005350Y010190D02*
X005680Y010190D01*
X005680Y010269D02*
X005350Y010269D01*
X005350Y010347D02*
X005680Y010347D01*
X005680Y010426D02*
X005350Y010426D01*
X005350Y010504D02*
X005680Y010504D01*
X005680Y010583D02*
X005350Y010583D01*
X005350Y010661D02*
X005602Y010661D01*
X005523Y010740D02*
X005396Y010740D01*
X005454Y010818D02*
X005522Y010818D01*
X005522Y010897D02*
X005454Y010897D01*
X005454Y010975D02*
X005522Y010975D01*
X005522Y011054D02*
X005454Y011054D01*
X005454Y011132D02*
X005522Y011132D01*
X005522Y011211D02*
X005454Y011211D01*
X005454Y011289D02*
X005522Y011289D01*
X005522Y011368D02*
X005454Y011368D01*
X005454Y011446D02*
X005522Y011446D01*
X005522Y011525D02*
X005454Y011525D01*
X005454Y011603D02*
X005522Y011603D01*
X005522Y011682D02*
X005454Y011682D01*
X005395Y011760D02*
X005534Y011760D01*
X006374Y011996D02*
X006945Y011996D01*
X007023Y011917D02*
X006402Y011917D01*
X006480Y011839D02*
X007102Y011839D01*
X007180Y011760D02*
X006559Y011760D01*
X006571Y011682D02*
X007215Y011682D01*
X007215Y011603D02*
X006571Y011603D01*
X006571Y011525D02*
X007215Y011525D01*
X007191Y011446D02*
X006571Y011446D01*
X006571Y011368D02*
X007156Y011368D01*
X007144Y011289D02*
X006571Y011289D01*
X006571Y011211D02*
X007152Y011211D01*
X007184Y011132D02*
X006571Y011132D01*
X006571Y011054D02*
X007259Y011054D01*
X006866Y012074D02*
X006374Y012074D01*
X006374Y012153D02*
X006788Y012153D01*
X006709Y012231D02*
X006374Y012231D01*
X006374Y012310D02*
X006631Y012310D01*
X006552Y012388D02*
X006374Y012388D01*
X006374Y012467D02*
X006474Y012467D01*
X006395Y012545D02*
X006374Y012545D01*
X006640Y012781D02*
X007225Y012781D01*
X007170Y012859D02*
X006610Y012859D01*
X006610Y012938D02*
X007144Y012938D01*
X007144Y013016D02*
X006610Y013016D01*
X006610Y013095D02*
X007170Y013095D01*
X007225Y013173D02*
X006610Y013173D01*
X006610Y013252D02*
X007185Y013252D01*
X007106Y013330D02*
X006610Y013330D01*
X006638Y013409D02*
X007028Y013409D01*
X006949Y013487D02*
X006694Y013487D01*
X006720Y013566D02*
X006871Y013566D01*
X006792Y013644D02*
X006720Y013644D01*
X007123Y013794D02*
X007129Y013800D01*
X007226Y013703D01*
X007442Y013703D01*
X007466Y013679D01*
X007459Y013662D01*
X007459Y013551D01*
X007502Y013449D01*
X007492Y013439D01*
X007492Y013425D01*
X007123Y013794D01*
X007195Y013723D02*
X007206Y013723D01*
X007273Y013644D02*
X007459Y013644D01*
X007459Y013566D02*
X007352Y013566D01*
X007430Y013487D02*
X007486Y013487D01*
X005876Y013487D02*
X005366Y013487D01*
X005366Y013409D02*
X005876Y013409D01*
X005876Y013330D02*
X005366Y013330D01*
X005366Y013252D02*
X005390Y013252D01*
X005393Y013255D02*
X005366Y013228D01*
X005366Y013635D01*
X005344Y013657D01*
X005382Y013748D01*
X005382Y013859D01*
X005339Y013962D01*
X005321Y013980D01*
X005487Y014145D01*
X005798Y014145D01*
X005798Y013654D01*
X005876Y013576D01*
X005876Y013241D01*
X005863Y013255D01*
X005393Y013255D01*
X005366Y013566D02*
X005876Y013566D01*
X005808Y013644D02*
X005357Y013644D01*
X005371Y013723D02*
X005798Y013723D01*
X005798Y013801D02*
X005382Y013801D01*
X005373Y013880D02*
X005798Y013880D01*
X005798Y013958D02*
X005341Y013958D01*
X005378Y014037D02*
X005798Y014037D01*
X005798Y014115D02*
X005457Y014115D01*
X005866Y013252D02*
X005876Y013252D01*
X004499Y013252D02*
X003941Y013252D01*
X003941Y013330D02*
X004499Y013330D01*
X004467Y013173D02*
X003941Y013173D01*
X003941Y013095D02*
X004459Y013095D01*
X004459Y013016D02*
X003893Y013016D01*
X003728Y012938D02*
X004459Y012938D01*
X004459Y012859D02*
X003728Y012859D01*
X003702Y012781D02*
X004467Y012781D01*
X004545Y012702D02*
X003648Y012702D01*
X002924Y012781D02*
X002780Y012781D01*
X002924Y012859D02*
X002594Y012859D01*
X002594Y012938D02*
X002924Y012938D01*
X002924Y013016D02*
X002594Y013016D01*
X002594Y013095D02*
X002924Y013095D01*
X002971Y013173D02*
X002664Y013173D01*
X002254Y012781D02*
X001993Y012781D01*
X002254Y012702D02*
X001680Y012702D01*
X001358Y012702D02*
X000941Y012702D01*
X000941Y012624D02*
X002301Y012624D01*
X002341Y012545D02*
X000934Y012545D01*
X000856Y012467D02*
X002350Y012467D01*
X002383Y012388D02*
X000783Y012388D01*
X000783Y012310D02*
X002459Y012310D01*
X001612Y013202D02*
X001575Y013217D01*
X001463Y013217D01*
X001424Y013201D01*
X001424Y013245D01*
X001384Y013285D01*
X001411Y013285D01*
X001515Y013389D01*
X001515Y013761D01*
X001411Y013865D01*
X000989Y013865D01*
X000969Y013846D01*
X000851Y013963D01*
X000876Y013988D01*
X000886Y013988D01*
X000989Y013885D01*
X001411Y013885D01*
X001513Y013988D01*
X001523Y013988D01*
X001626Y013885D01*
X002048Y013885D01*
X002152Y013989D01*
X002152Y014314D01*
X002728Y014890D01*
X002738Y014865D01*
X002806Y014798D01*
X002806Y014240D01*
X002672Y014240D01*
X002590Y014158D01*
X002590Y014012D01*
X002493Y014012D01*
X002411Y013930D01*
X002411Y013904D01*
X002348Y013904D01*
X002345Y013904D01*
X002220Y013904D01*
X002138Y013822D01*
X002138Y013776D01*
X002048Y013865D01*
X001626Y013865D01*
X001522Y013761D01*
X001522Y013389D01*
X001624Y013287D01*
X001612Y013276D01*
X001612Y013202D01*
X001612Y013252D02*
X001417Y013252D01*
X001456Y013330D02*
X001581Y013330D01*
X001522Y013409D02*
X001515Y013409D01*
X001515Y013487D02*
X001522Y013487D01*
X001515Y013566D02*
X001522Y013566D01*
X001515Y013644D02*
X001522Y013644D01*
X001515Y013723D02*
X001522Y013723D01*
X001562Y013801D02*
X001475Y013801D01*
X001484Y013958D02*
X001553Y013958D01*
X002112Y013801D02*
X002138Y013801D01*
X002195Y013880D02*
X000935Y013880D01*
X000916Y013958D02*
X000857Y013958D01*
X000941Y013252D02*
X000982Y013252D01*
X000975Y013173D02*
X000941Y013173D01*
X000941Y013095D02*
X000975Y013095D01*
X000975Y013016D02*
X000941Y013016D01*
X000941Y012938D02*
X000975Y012938D01*
X000975Y012859D02*
X000941Y012859D01*
X000941Y012781D02*
X001012Y012781D01*
X000601Y012781D02*
X000281Y012781D01*
X000281Y012859D02*
X000601Y012859D01*
X000601Y012938D02*
X000281Y012938D01*
X000281Y013016D02*
X000383Y013016D01*
X000361Y013095D02*
X000281Y013095D01*
X000281Y013173D02*
X000361Y013173D01*
X000361Y013252D02*
X000281Y013252D01*
X000281Y013330D02*
X000306Y013330D01*
X000281Y012702D02*
X000601Y012702D01*
X000532Y012624D02*
X000281Y012624D01*
X000281Y012545D02*
X000453Y012545D01*
X000443Y012467D02*
X000281Y012467D01*
X000281Y012388D02*
X000443Y012388D01*
X000443Y012310D02*
X000281Y012310D01*
X000281Y012231D02*
X000443Y012231D01*
X000443Y012153D02*
X000281Y012153D01*
X000281Y012074D02*
X000443Y012074D01*
X000443Y011996D02*
X000281Y011996D01*
X000281Y011917D02*
X000443Y011917D01*
X000443Y011839D02*
X000281Y011839D01*
X000281Y011760D02*
X000443Y011760D01*
X000443Y011682D02*
X000281Y011682D01*
X000281Y011603D02*
X000443Y011603D01*
X000443Y011525D02*
X000281Y011525D01*
X000281Y011446D02*
X000443Y011446D01*
X000443Y011368D02*
X000281Y011368D01*
X000281Y011289D02*
X000443Y011289D01*
X000443Y011211D02*
X000281Y011211D01*
X000281Y011132D02*
X000443Y011132D01*
X000443Y011054D02*
X000281Y011054D01*
X000281Y010975D02*
X000443Y010975D01*
X000443Y010897D02*
X000281Y010897D01*
X000281Y010818D02*
X000443Y010818D01*
X000443Y010740D02*
X000281Y010740D01*
X000281Y010661D02*
X000443Y010661D01*
X000443Y010583D02*
X000281Y010583D01*
X000281Y010504D02*
X000443Y010504D01*
X000483Y010426D02*
X000281Y010426D01*
X000281Y010347D02*
X000562Y010347D01*
X000640Y010269D02*
X000281Y010269D01*
X000281Y010190D02*
X000719Y010190D01*
X000797Y010112D02*
X000281Y010112D01*
X000281Y010033D02*
X000860Y010033D01*
X000811Y009955D02*
X000281Y009955D01*
X000281Y009876D02*
X000779Y009876D01*
X000755Y009798D02*
X000281Y009798D01*
X000281Y009719D02*
X000755Y009719D01*
X000755Y009641D02*
X000281Y009641D01*
X000281Y009562D02*
X000777Y009562D01*
X000809Y009484D02*
X000281Y009484D01*
X000281Y009405D02*
X000855Y009405D01*
X000934Y009327D02*
X000281Y009327D01*
X000281Y009248D02*
X001064Y009248D01*
X000925Y009170D02*
X000281Y009170D01*
X000281Y009091D02*
X000818Y009091D01*
X000739Y009013D02*
X000281Y009013D01*
X000281Y008934D02*
X000703Y008934D01*
X000670Y008856D02*
X000281Y008856D01*
X000281Y008777D02*
X000655Y008777D01*
X000655Y008699D02*
X000281Y008699D01*
X000281Y008620D02*
X000655Y008620D01*
X000685Y008542D02*
X000281Y008542D01*
X000281Y008463D02*
X000718Y008463D01*
X000776Y008385D02*
X000281Y008385D01*
X000281Y008306D02*
X000854Y008306D01*
X001013Y008228D02*
X000281Y008228D01*
X000281Y008149D02*
X000976Y008149D01*
X000897Y008071D02*
X000281Y008071D01*
X000281Y007992D02*
X000827Y007992D01*
X000794Y007914D02*
X000281Y007914D01*
X000281Y007835D02*
X000762Y007835D01*
X000755Y007757D02*
X000281Y007757D01*
X000281Y007678D02*
X000755Y007678D01*
X000761Y007600D02*
X000281Y007600D01*
X000281Y007521D02*
X000794Y007521D01*
X000826Y007443D02*
X000281Y007443D01*
X000281Y007364D02*
X000896Y007364D01*
X000975Y007286D02*
X000281Y007286D01*
X003539Y013662D02*
X003539Y014087D01*
X003673Y014221D01*
X003683Y014196D01*
X003762Y014117D01*
X003865Y014075D01*
X003976Y014075D01*
X003995Y014083D01*
X003995Y014067D01*
X003918Y014067D01*
X003836Y013985D01*
X003836Y013977D01*
X003739Y013977D01*
X003657Y013895D01*
X003657Y013662D01*
X003539Y013662D01*
X003539Y013723D02*
X003657Y013723D01*
X003657Y013801D02*
X003539Y013801D01*
X003539Y013880D02*
X003657Y013880D01*
X003720Y013958D02*
X003539Y013958D01*
X003539Y014037D02*
X003888Y014037D01*
X003767Y014115D02*
X003567Y014115D01*
X003646Y014194D02*
X003686Y014194D01*
X002806Y014272D02*
X002152Y014272D01*
X002152Y014194D02*
X002625Y014194D01*
X002590Y014115D02*
X002152Y014115D01*
X002152Y014037D02*
X002590Y014037D01*
X002439Y013958D02*
X002121Y013958D01*
X002345Y013904D02*
X002345Y013904D01*
X002188Y014351D02*
X002806Y014351D01*
X002806Y014429D02*
X002267Y014429D01*
X002345Y014508D02*
X002806Y014508D01*
X002806Y014586D02*
X002424Y014586D01*
X002502Y014665D02*
X002806Y014665D01*
X002806Y014743D02*
X002581Y014743D01*
X002659Y014822D02*
X002782Y014822D01*
X010491Y022358D02*
X012497Y022358D01*
X012497Y022436D02*
X010491Y022436D01*
X010491Y022515D02*
X012497Y022515D01*
X012497Y022593D02*
X010491Y022593D01*
X010491Y022672D02*
X012497Y022672D01*
X012497Y022750D02*
X010491Y022750D01*
X010491Y022829D02*
X012497Y022829D01*
X012497Y022907D02*
X010491Y022907D01*
X010497Y022986D02*
X012491Y022986D01*
X012462Y023064D02*
X010526Y023064D01*
X010580Y023143D02*
X012408Y023143D01*
X012288Y023221D02*
X010700Y023221D01*
X012583Y023221D02*
X021936Y023221D01*
X022264Y023143D02*
X012631Y023143D01*
X012666Y023064D02*
X017980Y023064D01*
X017924Y022986D02*
X012679Y022986D01*
X012680Y022907D02*
X017924Y022907D01*
X017924Y022829D02*
X012677Y022829D01*
X014445Y021337D02*
X015308Y021337D01*
X015102Y021259D02*
X014529Y021259D01*
X014571Y021180D02*
X015006Y021180D01*
X014725Y021573D02*
X014647Y021573D01*
X015872Y021573D02*
X016712Y021573D01*
X016671Y021651D02*
X015911Y021651D01*
X015911Y021730D02*
X016671Y021730D01*
X016671Y021808D02*
X015911Y021808D01*
X015911Y021887D02*
X016671Y021887D01*
X016671Y021965D02*
X015911Y021965D01*
X015911Y022358D02*
X016671Y022358D01*
X016671Y022436D02*
X015911Y022436D01*
X015911Y022515D02*
X016671Y022515D01*
X016671Y022593D02*
X015911Y022593D01*
X015911Y022672D02*
X016671Y022672D01*
X016746Y022750D02*
X015833Y022750D01*
X017421Y021259D02*
X017924Y021259D01*
X017924Y021180D02*
X017497Y021180D01*
X017550Y021102D02*
X017907Y021102D01*
X017829Y021023D02*
X017580Y021023D01*
X017594Y020945D02*
X017750Y020945D01*
X017672Y020866D02*
X017594Y020866D01*
X017591Y020788D02*
X017593Y020788D01*
X017759Y018040D02*
X017857Y018040D01*
X021474Y022672D02*
X021504Y022672D01*
X021395Y022750D02*
X022852Y022750D01*
X022930Y022672D02*
X022715Y022672D01*
X022722Y022593D02*
X022977Y022593D01*
X023022Y022515D02*
X022722Y022515D01*
X022722Y022436D02*
X023067Y022436D01*
X023113Y022358D02*
X022722Y022358D01*
X022722Y022279D02*
X023138Y022279D01*
X023159Y022201D02*
X022722Y022201D01*
X022722Y022122D02*
X023180Y022122D01*
X023201Y022044D02*
X022722Y022044D01*
X022722Y021965D02*
X023218Y021965D01*
X023223Y021887D02*
X022722Y021887D01*
X022722Y021808D02*
X023228Y021808D01*
X023229Y021730D02*
X022722Y021730D01*
X022722Y021651D02*
X023230Y021651D01*
X023230Y021573D02*
X022691Y021573D01*
X022773Y022829D02*
X021317Y022829D01*
X021238Y022907D02*
X022695Y022907D01*
X022578Y022986D02*
X021160Y022986D01*
X021081Y023064D02*
X022442Y023064D01*
X022344Y023121D02*
X022344Y023121D01*
X022510Y000456D02*
X008294Y000456D01*
X008215Y000378D02*
X022361Y000378D01*
D50*
X020881Y002559D02*
X020850Y002544D01*
X020298Y002544D01*
X022267Y005142D02*
X022263Y005159D01*
X022267Y005142D02*
X022385Y005142D01*
X022385Y005693D01*
X022857Y005693D01*
X022863Y005709D01*
X023251Y006048D02*
X023251Y004827D01*
X023094Y004670D01*
X023090Y004641D01*
X022385Y005693D02*
X022346Y005693D01*
X022346Y006205D01*
X022267Y006284D01*
X022263Y006259D01*
X022228Y006244D01*
X022109Y006244D01*
X022109Y006744D01*
X023054Y006244D02*
X023251Y006048D01*
X023054Y006244D02*
X023054Y009748D01*
X021873Y010930D01*
X021873Y011402D01*
X021952Y011481D01*
X021987Y011549D01*
X021009Y012449D02*
X020928Y012426D01*
X019669Y011008D02*
X019432Y011008D01*
X019314Y011126D01*
X019157Y011126D01*
X019078Y011205D01*
X018999Y011205D01*
X018975Y011207D01*
X018960Y011205D01*
X018960Y011166D01*
X018802Y011166D01*
X018448Y011520D01*
X018448Y011599D01*
X018433Y011632D01*
X018487Y011284D02*
X018212Y011284D01*
X016913Y012583D01*
X016913Y013646D01*
X017385Y014119D02*
X017464Y014197D01*
X017779Y014197D01*
X017785Y014214D01*
X017818Y014197D01*
X017936Y014197D01*
X018212Y014473D01*
X018217Y014506D01*
X018217Y014706D02*
X018212Y014709D01*
X018172Y014709D01*
X018172Y014985D01*
X017818Y015378D02*
X017818Y017741D01*
X017424Y018134D01*
X017391Y018134D01*
X018478Y017499D02*
X018487Y017504D01*
X019591Y017504D01*
X021177Y018692D02*
X021204Y018685D01*
X021716Y018685D01*
X021718Y018619D01*
X021716Y018646D01*
X021716Y018685D01*
X021716Y018804D01*
X021726Y018836D01*
X021919Y018619D02*
X021913Y018607D01*
X021741Y019258D02*
X021755Y019276D01*
X021755Y019433D01*
X021755Y019709D02*
X021783Y019735D01*
X021755Y019709D02*
X021204Y019709D01*
X021177Y019692D01*
X021952Y019709D02*
X021984Y019735D01*
X021952Y019748D01*
X021952Y019709D02*
X021952Y019630D01*
X020968Y021205D02*
X020968Y021244D01*
X020987Y021264D01*
X020377Y021874D02*
X020377Y022134D01*
X020377Y022150D01*
X019039Y022150D01*
X019016Y022144D01*
X018094Y022937D02*
X018094Y021048D01*
X017424Y020378D01*
X017391Y020378D01*
X018395Y019564D02*
X018409Y019552D01*
X018920Y019709D02*
X019039Y019709D01*
X019077Y019692D01*
X019078Y019709D01*
X017283Y022144D02*
X017267Y022150D01*
X015298Y022150D01*
X015298Y022142D01*
X015298Y022150D02*
X014865Y022150D01*
X014865Y022032D01*
X014275Y021441D01*
X014275Y021142D01*
X013566Y022142D02*
X013566Y022150D01*
X012306Y022150D01*
X011755Y021599D01*
X008409Y021599D01*
X008842Y019630D02*
X008842Y019119D01*
X008330Y018607D01*
X007543Y018607D01*
X007306Y018843D01*
X006913Y018843D01*
X006676Y018607D01*
X005180Y018607D01*
X005180Y017071D01*
X005338Y017071D01*
X005338Y017052D01*
X005653Y016756D02*
X004944Y016756D01*
X004905Y016796D01*
X004747Y016638D01*
X004472Y016638D01*
X004472Y016678D01*
X004275Y016678D01*
X003566Y015969D01*
X003556Y015969D01*
X003842Y015260D02*
X002857Y015260D01*
X001873Y014276D01*
X001873Y014197D01*
X001837Y014175D01*
X001834Y014158D01*
X001204Y014158D01*
X001200Y014175D01*
X001165Y014158D01*
X000613Y014158D01*
X000562Y014175D01*
X000574Y014158D01*
X000613Y014158D01*
X000613Y013961D01*
X000850Y013725D01*
X000850Y013410D01*
X000771Y013331D01*
X000771Y012622D01*
X000613Y012465D01*
X000613Y010536D01*
X001283Y009867D01*
X001283Y009748D01*
X001265Y009717D01*
X001283Y009709D01*
X001283Y009591D01*
X001952Y008922D01*
X001952Y007504D01*
X001873Y007504D01*
X001519Y006796D02*
X001165Y006796D01*
X001165Y006717D01*
X001165Y006559D01*
X001440Y006284D01*
X001440Y004079D01*
X003487Y002032D01*
X004354Y002859D02*
X005456Y002859D01*
X005456Y002898D01*
X007149Y002898D01*
X007267Y002780D01*
X009669Y002780D01*
X009747Y002701D01*
X009905Y002701D01*
X009944Y002662D01*
X010102Y002662D01*
X010113Y002647D01*
X010313Y002647D02*
X010338Y002662D01*
X010731Y003056D01*
X010731Y003213D01*
X010850Y003331D01*
X011401Y003331D01*
X011432Y003347D01*
X011401Y003725D02*
X011432Y003741D01*
X011401Y003725D02*
X011361Y003725D01*
X011322Y003764D01*
X011322Y003843D01*
X011046Y003843D01*
X011007Y003804D01*
X010928Y003804D01*
X010731Y003607D01*
X010731Y003567D01*
X010298Y003134D01*
X010298Y002937D01*
X010308Y002905D01*
X010107Y002905D02*
X010102Y002937D01*
X005180Y007859D01*
X005180Y010890D01*
X005062Y011008D01*
X005062Y011244D01*
X005078Y011249D01*
X005102Y010930D01*
X004826Y010654D01*
X004314Y010615D02*
X004314Y007307D01*
X005574Y006048D01*
X005889Y007504D02*
X005850Y007544D01*
X005850Y010654D01*
X005692Y010811D01*
X005692Y011678D01*
X006046Y012032D01*
X006046Y013646D01*
X005968Y013725D01*
X005968Y014079D01*
X006106Y014217D01*
X006106Y014414D02*
X006086Y014433D01*
X005928Y014433D01*
X005810Y014315D01*
X005417Y014315D01*
X005102Y014000D01*
X005102Y013804D01*
X004865Y014079D02*
X004865Y014473D01*
X004983Y014591D01*
X005023Y014591D01*
X005259Y014827D01*
X006086Y014827D01*
X006106Y014807D01*
X006125Y014630D02*
X006106Y014611D01*
X006125Y014630D02*
X006480Y014630D01*
X006480Y014473D01*
X006676Y014237D02*
X006834Y014237D01*
X006834Y015575D01*
X006854Y015595D01*
X006755Y015693D01*
X006755Y015811D01*
X006735Y015831D01*
X006558Y015811D02*
X006539Y015831D01*
X006558Y015851D01*
X006558Y016087D01*
X006551Y016121D01*
X006361Y016087D02*
X006345Y016119D01*
X006322Y016126D01*
X006283Y016126D01*
X006125Y016284D01*
X006125Y016402D01*
X006086Y016441D01*
X006086Y016599D01*
X006125Y016638D01*
X006165Y016638D01*
X006165Y016622D01*
X005928Y016363D02*
X005889Y016402D01*
X005889Y017268D01*
X005928Y017307D01*
X006401Y017307D01*
X006637Y017071D01*
X006716Y017071D01*
X006717Y017055D01*
X007300Y017146D02*
X007306Y017111D01*
X007385Y017189D01*
X007385Y017307D01*
X007661Y017307D01*
X007661Y017229D01*
X007739Y017150D01*
X007661Y017307D02*
X007897Y017307D01*
X008054Y017150D01*
X008172Y017150D01*
X008172Y017168D01*
X008133Y016796D02*
X008100Y016796D01*
X008133Y016796D02*
X008133Y016363D01*
X008172Y016363D01*
X008172Y016345D01*
X008172Y016363D02*
X008251Y016363D01*
X008330Y016284D01*
X008487Y016284D01*
X008291Y016126D02*
X008531Y015945D01*
X008672Y015709D02*
X008381Y015709D01*
X008200Y015886D01*
X008133Y015969D01*
X007976Y016000D01*
X007976Y016244D01*
X007857Y016363D01*
X007621Y016520D02*
X007621Y016048D01*
X007543Y015969D01*
X007543Y015851D01*
X007523Y015831D01*
X007346Y015851D02*
X007326Y015831D01*
X007346Y015851D02*
X007346Y016008D01*
X007334Y016020D01*
X007129Y015831D02*
X007149Y015811D01*
X007149Y015733D01*
X007070Y015654D01*
X007070Y015575D01*
X006873Y015575D01*
X006854Y015595D01*
X006932Y015831D02*
X006952Y015851D01*
X006952Y016008D01*
X006940Y016020D01*
X006558Y015811D02*
X006558Y015496D01*
X006519Y015457D01*
X006519Y015103D02*
X006519Y015024D01*
X006125Y015024D01*
X006106Y015004D01*
X006106Y015201D02*
X006086Y015221D01*
X005968Y015221D01*
X005810Y015063D01*
X005731Y015063D01*
X005574Y015418D02*
X006086Y015418D01*
X006106Y015398D01*
X006086Y015575D02*
X006106Y015595D01*
X006086Y015575D02*
X005141Y015575D01*
X004747Y015969D01*
X004747Y016048D01*
X004787Y016087D01*
X004708Y015615D02*
X004393Y015300D01*
X004393Y014748D01*
X004397Y014742D01*
X004393Y014709D01*
X004393Y014355D01*
X004391Y014347D01*
X004550Y014394D02*
X005200Y015044D01*
X004944Y015300D01*
X005200Y015044D02*
X005574Y015418D01*
X005535Y015890D02*
X005495Y015930D01*
X005495Y016284D01*
X005456Y016323D01*
X005338Y016323D01*
X005338Y016304D01*
X005653Y016756D02*
X005731Y016835D01*
X005731Y017307D01*
X006204Y017780D01*
X006204Y018095D01*
X006316Y018095D01*
X007116Y017745D02*
X007149Y017741D01*
X007267Y017741D01*
X007464Y017937D01*
X007661Y017937D01*
X007779Y017819D01*
X007779Y017741D01*
X007761Y017741D01*
X007779Y017741D02*
X007779Y017701D01*
X008251Y017701D01*
X008527Y017426D01*
X008527Y017150D01*
X008523Y017079D01*
X008523Y016646D01*
X009086Y016158D01*
X009086Y015965D01*
X009216Y015949D01*
X009220Y015122D01*
X008645Y014611D01*
X008566Y014433D01*
X007976Y014433D01*
X007956Y014414D01*
X007956Y014611D02*
X007976Y014630D01*
X008291Y014630D01*
X008420Y014646D01*
X008700Y014835D01*
X008842Y014961D01*
X008999Y015119D01*
X008999Y015276D01*
X008791Y015382D02*
X008791Y015130D01*
X008527Y014867D01*
X008231Y014823D01*
X008172Y014827D01*
X007976Y014827D01*
X007956Y014807D01*
X007964Y014993D02*
X007956Y015004D01*
X007964Y014993D02*
X008476Y014993D01*
X008669Y015205D01*
X008672Y015225D01*
X008672Y015709D01*
X008842Y015536D02*
X008806Y015433D01*
X008791Y015382D01*
X008842Y015536D02*
X008842Y016075D01*
X009235Y016126D02*
X009235Y016205D01*
X008920Y016520D01*
X008920Y016953D01*
X008999Y017032D01*
X008999Y017071D01*
X009117Y017189D01*
X009117Y017426D01*
X009100Y017452D01*
X009472Y017465D02*
X009474Y017452D01*
X009472Y017465D02*
X009472Y017756D01*
X009791Y018075D01*
X010023Y018213D01*
X010052Y018181D01*
X010062Y018213D01*
X010141Y018134D01*
X010220Y018134D01*
X010731Y018646D01*
X010731Y018764D01*
X010850Y018764D01*
X010731Y018764D02*
X010731Y018882D01*
X010653Y018961D01*
X010574Y018961D01*
X010553Y018966D01*
X010535Y018804D02*
X010553Y018765D01*
X010535Y018804D02*
X010141Y018410D01*
X009826Y018410D01*
X009747Y018331D01*
X009747Y018252D01*
X009629Y018134D01*
X009314Y018134D01*
X009275Y018174D01*
X009275Y018213D01*
X009235Y018252D01*
X009235Y018292D01*
X009157Y018292D01*
X009235Y018292D02*
X009235Y018370D01*
X009117Y018489D01*
X009117Y018567D01*
X009039Y018567D01*
X009037Y018568D01*
X008726Y018476D02*
X008724Y018449D01*
X008724Y018174D01*
X008881Y018016D01*
X009474Y018476D02*
X009472Y018489D01*
X009472Y018922D01*
X009708Y018843D02*
X009747Y018804D01*
X009865Y018804D01*
X009888Y018765D01*
X009708Y018843D02*
X009708Y019040D01*
X009550Y019197D01*
X009550Y019276D01*
X009747Y019473D01*
X010180Y019473D01*
X010184Y019528D01*
X011621Y019528D01*
X011712Y019386D01*
X011798Y019386D01*
X011794Y017544D01*
X012936Y016402D01*
X012936Y015615D01*
X013212Y015339D01*
X013448Y015339D01*
X013448Y014473D01*
X013487Y014433D01*
X013487Y014040D01*
X013490Y014039D01*
X013487Y014000D01*
X013172Y014000D01*
X013133Y013961D01*
X013369Y013685D02*
X013487Y013685D01*
X013487Y013607D01*
X013498Y013585D01*
X013369Y013685D02*
X013133Y013449D01*
X012507Y013591D02*
X013763Y012426D01*
X012507Y013591D02*
X012503Y013882D01*
X012661Y014040D01*
X012661Y014119D01*
X012643Y014119D01*
X012661Y014119D02*
X012661Y014197D01*
X012582Y014276D01*
X012582Y014552D01*
X012661Y014630D01*
X012661Y014709D01*
X012643Y014709D01*
X012661Y014709D02*
X012661Y014788D01*
X012582Y014867D01*
X012582Y015378D01*
X012228Y015733D01*
X011991Y015733D01*
X011991Y015693D01*
X011952Y015654D01*
X011834Y015654D01*
X011801Y015656D01*
X011794Y015221D02*
X011361Y015221D01*
X011184Y015016D01*
X010991Y015142D02*
X010991Y015611D01*
X010956Y015646D01*
X010794Y015784D01*
X010771Y017150D01*
X010850Y017229D01*
X010850Y018292D01*
X010456Y017780D02*
X010535Y017701D01*
X010523Y015981D01*
X010661Y015843D01*
X010661Y015607D01*
X010751Y015433D01*
X010523Y015563D02*
X010546Y015201D01*
X010613Y015134D01*
X010613Y015122D01*
X010617Y014414D01*
X010377Y014244D01*
X010377Y014079D01*
X009983Y013685D01*
X010598Y013827D02*
X010743Y013709D01*
X010747Y013331D01*
X010613Y013174D01*
X010613Y013095D01*
X011007Y012859D02*
X011007Y013370D01*
X011046Y013410D01*
X011046Y013528D01*
X011027Y013528D01*
X011046Y013528D02*
X011401Y013528D01*
X011562Y013591D01*
X012507Y013591D01*
X012442Y014119D02*
X011834Y014119D01*
X011801Y014156D01*
X011794Y014158D01*
X011283Y014158D01*
X011200Y014347D01*
X010964Y014162D02*
X010602Y014162D01*
X010598Y013827D01*
X010850Y013910D02*
X011743Y013843D01*
X010964Y014162D02*
X010960Y015083D01*
X010960Y015111D01*
X010991Y015142D01*
X011153Y015528D02*
X011361Y015378D01*
X012267Y015378D01*
X012346Y015300D01*
X012346Y014985D01*
X012188Y014827D01*
X012188Y014709D01*
X011801Y014656D01*
X011834Y014630D01*
X011913Y014709D01*
X012188Y014709D01*
X012442Y014709D01*
X011801Y015156D02*
X011794Y015181D01*
X011794Y015221D01*
X011153Y015528D02*
X011149Y015941D01*
X011019Y016059D01*
X010523Y015563D02*
X010377Y015733D01*
X009983Y016126D01*
X009235Y016126D01*
X008291Y016126D02*
X008172Y016126D01*
X008172Y016144D01*
X007739Y016638D02*
X007621Y016520D01*
X007739Y016638D02*
X007739Y016717D01*
X007661Y016796D01*
X006361Y016087D02*
X006361Y015851D01*
X006342Y015831D01*
X005928Y016048D02*
X005928Y016363D01*
X007228Y015418D02*
X007228Y014394D01*
X006873Y014237D02*
X006873Y014158D01*
X006952Y014079D01*
X006952Y014000D01*
X006932Y013981D01*
X006952Y013961D01*
X006952Y013725D01*
X007503Y013174D01*
X007503Y013016D01*
X007424Y012977D01*
X007464Y013016D01*
X007503Y013016D01*
X007857Y013016D01*
X007857Y013095D01*
X007882Y013131D01*
X008251Y013449D02*
X008251Y012504D01*
X008212Y012465D01*
X008684Y013016D02*
X008684Y009433D01*
X008448Y007898D02*
X008015Y007465D01*
X008448Y007898D02*
X008448Y014158D01*
X008172Y014000D02*
X008172Y013922D01*
X008172Y014000D02*
X007956Y014217D01*
X007720Y013981D02*
X008251Y013449D01*
X008684Y013370D02*
X008802Y013489D01*
X008802Y014355D01*
X009078Y014630D01*
X009039Y014158D02*
X008960Y014079D01*
X008960Y013292D01*
X008684Y013016D01*
X008920Y012898D02*
X009078Y013056D01*
X009309Y013056D01*
X009747Y013056D01*
X009944Y012859D01*
X011007Y012859D01*
X009235Y012701D02*
X009235Y012032D01*
X011755Y009512D01*
X011558Y008735D02*
X011558Y008725D01*
X011401Y005733D02*
X010574Y005733D01*
X010539Y005719D01*
X011401Y005733D02*
X011432Y005709D01*
X011401Y004158D02*
X011432Y004134D01*
X011401Y004158D02*
X011322Y004079D01*
X011322Y004000D01*
X010692Y004000D01*
X010664Y004002D01*
X010653Y004000D01*
X010259Y004000D01*
X010850Y002937D02*
X011401Y002937D01*
X011432Y002953D01*
X010850Y002937D02*
X010731Y002819D01*
X010731Y002465D01*
X010574Y002307D01*
X010338Y002307D01*
X010313Y002346D01*
X010113Y002346D02*
X010102Y002307D01*
X009905Y002307D01*
X008133Y000536D01*
X006440Y000536D01*
X006440Y000575D01*
X006007Y001008D01*
X006007Y001284D01*
X006011Y001293D01*
X006007Y001323D01*
X006007Y001559D01*
X005968Y001599D01*
X005968Y001953D01*
X005653Y001756D02*
X005635Y001784D01*
X005456Y002032D02*
X005062Y001638D01*
X005062Y001323D01*
X005046Y001308D01*
X005456Y002032D02*
X005456Y002859D01*
X007031Y002268D02*
X007228Y002465D01*
X007031Y002268D02*
X007031Y001323D01*
X007035Y001308D01*
X008920Y004315D02*
X008942Y004337D01*
X004944Y009394D02*
X004511Y009827D01*
X004511Y011756D01*
X005102Y012347D01*
X005259Y012741D02*
X004747Y012741D01*
X004629Y012859D01*
X004629Y013095D01*
X004669Y013134D01*
X004669Y013685D01*
X004629Y013725D01*
X004391Y014060D02*
X004393Y014079D01*
X004550Y014237D01*
X004550Y014394D01*
X004196Y014355D02*
X004191Y014347D01*
X004196Y014355D02*
X004196Y014473D01*
X004137Y014532D01*
X004078Y014473D01*
X004039Y014473D01*
X003920Y014355D01*
X004117Y014552D02*
X004117Y014985D01*
X003842Y015260D01*
X003885Y014742D02*
X003881Y014709D01*
X003566Y014394D01*
X003566Y014355D01*
X003369Y014158D01*
X003369Y013685D01*
X003251Y013567D01*
X003251Y013213D01*
X003094Y013056D01*
X003094Y008370D01*
X001519Y006796D01*
X001598Y006126D02*
X001610Y006126D01*
X001322Y003961D02*
X001320Y003959D01*
X006086Y009591D02*
X006086Y010536D01*
X006401Y010851D01*
X006401Y011678D01*
X006204Y011874D01*
X006204Y013725D01*
X006361Y013882D01*
X006361Y013961D01*
X006342Y013981D01*
X006539Y013981D02*
X006558Y014000D01*
X006558Y014119D01*
X006676Y014237D01*
X006834Y014237D02*
X006873Y014237D01*
X007129Y013981D02*
X007149Y013961D01*
X007149Y013804D01*
X007129Y013800D01*
X007523Y013981D02*
X007543Y013961D01*
X007543Y013843D01*
X007739Y013646D01*
X007739Y013607D01*
X007582Y014394D02*
X007582Y015221D01*
X007936Y015221D01*
X007956Y015201D01*
X007956Y015398D02*
X007936Y015418D01*
X007228Y015418D01*
X005595Y014558D02*
X005574Y014552D01*
X005220Y014552D01*
X005102Y014433D01*
X005102Y014355D01*
X004190Y014060D02*
X004196Y014040D01*
X004196Y013764D01*
X004201Y013727D01*
X004196Y013725D01*
X003881Y013725D01*
X003852Y013753D01*
X003566Y013331D02*
X003527Y013331D01*
X003487Y013292D01*
X003487Y012937D01*
X003448Y012898D01*
X003576Y013322D02*
X003566Y013331D01*
X003094Y013410D02*
X003094Y013961D01*
X003015Y014040D01*
X002985Y014015D01*
X002976Y014040D01*
X002976Y015024D01*
X002228Y015024D02*
X001794Y015457D01*
X001598Y015457D01*
X001086Y015969D01*
X001056Y015969D01*
X001046Y015969D01*
X001046Y016244D01*
X001401Y016599D01*
X001401Y020969D01*
X003212Y022780D01*
X003212Y023016D01*
X003207Y022933D01*
X003212Y021048D02*
X003207Y020965D01*
X003212Y020890D02*
X003212Y021048D01*
X003212Y020890D02*
X003291Y020811D01*
X003291Y020772D01*
X005180Y018882D01*
X005180Y018607D01*
X008842Y019630D02*
X011716Y019630D01*
X012228Y019119D01*
X011125Y018922D02*
X011125Y017189D01*
X011165Y017150D01*
X011165Y016993D01*
X011204Y016953D01*
X011204Y016756D01*
X011205Y016744D01*
X011125Y018922D02*
X010928Y019119D01*
X010220Y019040D02*
X010220Y019000D01*
X010219Y018966D01*
X010220Y019040D02*
X010180Y019079D01*
X010180Y019473D01*
X009865Y019237D02*
X009865Y019000D01*
X009888Y018965D01*
X011491Y020642D02*
X011519Y020654D01*
X013999Y018042D02*
X013999Y017780D01*
X015141Y017465D02*
X015495Y017819D01*
X015495Y017859D01*
X015477Y017873D01*
X014976Y016445D02*
X014928Y016296D01*
X014905Y016284D01*
X014944Y015811D01*
X014905Y015811D01*
X014944Y015811D02*
X014944Y014670D01*
X014983Y014630D01*
X014998Y014604D01*
X014998Y014403D02*
X014983Y014394D01*
X014787Y014394D01*
X014590Y014197D01*
X014560Y014214D01*
X014550Y014197D01*
X014314Y014197D01*
X013684Y014827D01*
X014629Y015575D02*
X014586Y016241D01*
X015338Y014867D02*
X015338Y014670D01*
X015298Y014630D01*
X015285Y014593D01*
X015298Y014394D02*
X015285Y014392D01*
X015298Y014394D02*
X015535Y014394D01*
X015568Y014389D01*
X015574Y014355D01*
X015968Y013961D01*
X016125Y013961D01*
X016125Y014079D01*
X016141Y014092D01*
X016480Y014788D02*
X016480Y014867D01*
X016491Y014892D01*
X016480Y014788D02*
X016794Y014788D01*
X016794Y014945D01*
X016913Y015063D01*
X016794Y014788D02*
X017188Y014394D01*
X017267Y014394D01*
X017295Y014376D01*
X017295Y014577D02*
X017306Y014591D01*
X017346Y014591D01*
X017346Y014867D01*
X017385Y014867D01*
X017346Y014867D02*
X017346Y014906D01*
X017818Y015378D01*
X017464Y015496D02*
X017424Y015536D01*
X017386Y015543D01*
X018487Y011284D02*
X018763Y011008D01*
X018960Y011008D01*
X018975Y011006D01*
X019669Y011008D02*
X019673Y011002D01*
X020298Y008056D02*
X020850Y008056D01*
X020881Y008071D01*
X020881Y006496D02*
X020850Y006481D01*
X020810Y006481D01*
X020810Y006412D01*
X020495Y005979D02*
X020495Y005969D01*
X020881Y005709D02*
X020889Y005693D01*
X021637Y005693D01*
X021663Y005709D01*
X007424Y011284D02*
X007385Y011323D01*
X007385Y011796D01*
X006440Y012741D01*
X006440Y013607D01*
X005692Y012977D02*
X005692Y012701D01*
X005771Y012622D01*
X005692Y012977D02*
X005628Y012977D01*
X005495Y012977D01*
X005259Y012741D01*
X004905Y013016D02*
X004905Y013331D01*
X004983Y013410D01*
X005001Y013377D01*
X004905Y013016D02*
X004865Y012977D01*
X004137Y014532D02*
X004117Y014552D01*
X003094Y013410D02*
X003054Y013370D01*
X002621Y013370D01*
X002424Y013174D01*
X002424Y012741D01*
X002621Y012544D01*
X002188Y013134D02*
X002031Y012977D01*
X001873Y012977D01*
X001837Y012962D01*
X001837Y013163D02*
X001834Y013174D01*
X001834Y013567D01*
X001837Y013575D01*
X001204Y013567D02*
X001204Y013134D01*
X001200Y013131D01*
X001204Y012937D02*
X001200Y012931D01*
X001204Y012937D02*
X001519Y012937D01*
X001204Y013567D02*
X001200Y013575D01*
X000574Y013567D02*
X000574Y013174D01*
X000586Y013151D01*
X000574Y013567D02*
X000562Y013575D01*
X002362Y013709D02*
X002385Y013725D01*
X002661Y013725D01*
X002739Y013646D01*
X002776Y013672D01*
X002779Y013685D01*
X002779Y014000D01*
X002785Y014015D01*
X003645Y011284D02*
X004314Y010615D01*
X018094Y022937D02*
X020968Y022937D01*
X021676Y022229D01*
X021676Y022150D01*
X022109Y022150D01*
X022109Y022134D01*
D51*
X019039Y018489D03*
X019550Y015693D03*
X016676Y013134D03*
X016283Y013134D03*
X016283Y012741D03*
X016676Y012741D03*
X016676Y012150D03*
X016283Y012150D03*
X016283Y011756D03*
X016676Y011756D03*
X017070Y011756D03*
X015889Y011756D03*
X015495Y011756D03*
X015495Y012150D03*
X015102Y012150D03*
X015102Y012741D03*
X015102Y013134D03*
X015495Y013134D03*
X015495Y012741D03*
X015889Y012741D03*
X015889Y013134D03*
X015889Y012150D03*
X014983Y013685D03*
X014196Y014827D03*
X014586Y016241D03*
X014976Y016445D03*
X013999Y017780D03*
X010417Y019315D03*
X009239Y019323D03*
X009834Y017744D03*
X008775Y017103D03*
X010157Y016441D03*
X010314Y015406D03*
X010369Y014776D03*
X010850Y013910D03*
X011743Y013843D03*
X011850Y013217D03*
X011361Y012937D03*
X011165Y011756D03*
X011165Y011363D03*
X011558Y011363D03*
X011558Y011756D03*
X011952Y011756D03*
X011952Y011363D03*
X012346Y011363D03*
X012346Y011756D03*
X012739Y011756D03*
X012739Y011363D03*
X010039Y013244D03*
X009680Y012725D03*
X007354Y013646D03*
X006771Y013650D03*
X005480Y013776D03*
X004157Y013382D03*
X004200Y012922D03*
X003665Y014059D03*
X002609Y014280D03*
X005483Y012374D03*
X005499Y011898D03*
X006633Y012032D03*
X006814Y010756D03*
X009393Y007819D03*
X009393Y007426D03*
X009787Y007426D03*
X009787Y007819D03*
X009787Y007032D03*
X009787Y006638D03*
X009787Y006244D03*
X009787Y005851D03*
X009787Y005457D03*
X009787Y005063D03*
X009787Y004670D03*
X009787Y004276D03*
X009393Y004276D03*
X009393Y004670D03*
X009393Y005063D03*
X009393Y005457D03*
X009393Y005851D03*
X009393Y006244D03*
X009393Y006638D03*
X009393Y007032D03*
X010968Y002111D03*
X010968Y001717D03*
X010968Y001323D03*
X010968Y000930D03*
X010968Y000536D03*
X010574Y000536D03*
X010574Y000930D03*
X010180Y000930D03*
X010180Y000536D03*
X010180Y001323D03*
X010574Y001323D03*
X010574Y001717D03*
X010180Y001717D03*
X019676Y010603D03*
X019184Y012087D03*
X021696Y011681D03*
X022987Y011662D03*
X022976Y010378D03*
X022582Y009788D03*
X022188Y009788D03*
X022188Y010181D03*
X022188Y009394D03*
X022582Y009394D03*
X021283Y007426D03*
X021401Y002111D03*
X021401Y001717D03*
X021794Y001717D03*
X021794Y002111D03*
X022188Y002111D03*
X022582Y002111D03*
X022582Y001717D03*
X022188Y001717D03*
X022188Y001323D03*
X022582Y001323D03*
X022976Y001323D03*
X022976Y001717D03*
X022976Y002111D03*
X021794Y001323D03*
X021401Y001323D03*
X008999Y015276D03*
X008448Y015496D03*
X008298Y015209D03*
D52*
X008015Y019040D02*
X006637Y019040D01*
X006569Y019046D01*
X006502Y019064D01*
X006440Y019093D01*
X006384Y019132D01*
X006335Y019180D01*
X006296Y019237D01*
X006267Y019299D01*
X006249Y019365D01*
X006243Y019433D01*
X006243Y022780D01*
X006249Y022848D01*
X006267Y022915D01*
X006296Y022977D01*
X006335Y023033D01*
X006384Y023082D01*
X006440Y023121D01*
X006502Y023150D01*
X006569Y023168D01*
X006606Y023171D01*
X006539Y023104D01*
X006477Y023024D01*
X006427Y022936D01*
X006388Y022843D01*
X006362Y022746D01*
X006351Y022663D01*
X007052Y022663D01*
X007052Y022527D01*
X007187Y022527D01*
X007187Y021827D01*
X007270Y021838D01*
X007368Y021864D01*
X007461Y021902D01*
X007548Y021953D01*
X007628Y022014D01*
X007700Y022086D01*
X007761Y022166D01*
X007812Y022253D01*
X007851Y022347D01*
X007877Y022444D01*
X007888Y022527D01*
X007187Y022527D01*
X007187Y022663D01*
X007888Y022663D01*
X007877Y022746D01*
X007851Y022843D01*
X007812Y022936D01*
X007761Y023024D01*
X007700Y023104D01*
X007630Y023174D01*
X008015Y023174D01*
X008083Y023168D01*
X008150Y023150D01*
X008212Y023121D01*
X008268Y023082D01*
X008317Y023033D01*
X008356Y022977D01*
X008385Y022915D01*
X008403Y022848D01*
X008409Y022780D01*
X008409Y019433D01*
X008403Y019365D01*
X008385Y019299D01*
X008356Y019237D01*
X008324Y019191D01*
X008324Y020447D01*
X008242Y020529D01*
X006551Y020529D01*
X006469Y020447D01*
X006469Y019150D01*
X006551Y019068D01*
X008160Y019068D01*
X008150Y019064D01*
X008083Y019046D01*
X008015Y019040D01*
X008324Y019321D02*
X008391Y019321D01*
X008409Y019479D02*
X008324Y019479D01*
X008324Y019638D02*
X008409Y019638D01*
X008409Y019796D02*
X008324Y019796D01*
X008324Y019955D02*
X008409Y019955D01*
X008409Y020113D02*
X008324Y020113D01*
X008324Y020272D02*
X008409Y020272D01*
X008409Y020430D02*
X008324Y020430D01*
X008409Y020589D02*
X006243Y020589D01*
X006243Y020747D02*
X008409Y020747D01*
X008409Y020906D02*
X006243Y020906D01*
X006243Y021064D02*
X008409Y021064D01*
X008409Y021223D02*
X006243Y021223D01*
X006243Y021381D02*
X008409Y021381D01*
X008409Y021540D02*
X006243Y021540D01*
X006243Y021698D02*
X008409Y021698D01*
X008409Y021857D02*
X007341Y021857D01*
X007187Y021857D02*
X007052Y021857D01*
X007052Y021827D02*
X007052Y022527D01*
X006351Y022527D01*
X006362Y022444D01*
X006388Y022347D01*
X006427Y022253D01*
X006477Y022166D01*
X006539Y022086D01*
X006610Y022014D01*
X006690Y021953D01*
X006778Y021902D01*
X006871Y021864D01*
X006969Y021838D01*
X007052Y021827D01*
X006897Y021857D02*
X006243Y021857D01*
X006243Y022015D02*
X006609Y022015D01*
X006473Y022174D02*
X006243Y022174D01*
X006243Y022332D02*
X006394Y022332D01*
X006356Y022491D02*
X006243Y022491D01*
X006243Y022649D02*
X007052Y022649D01*
X007187Y022649D02*
X008409Y022649D01*
X008409Y022491D02*
X007883Y022491D01*
X007845Y022332D02*
X008409Y022332D01*
X008409Y022174D02*
X007766Y022174D01*
X007629Y022015D02*
X008409Y022015D01*
X008406Y022808D02*
X007860Y022808D01*
X007795Y022966D02*
X008361Y022966D01*
X008204Y023125D02*
X007679Y023125D01*
X007187Y022491D02*
X007052Y022491D01*
X007052Y022332D02*
X007187Y022332D01*
X007187Y022174D02*
X007052Y022174D01*
X007052Y022015D02*
X007187Y022015D01*
X006379Y022808D02*
X006246Y022808D01*
X006291Y022966D02*
X006444Y022966D01*
X006448Y023125D02*
X006559Y023125D01*
X006469Y020430D02*
X006243Y020430D01*
X006243Y020272D02*
X006469Y020272D01*
X006469Y020113D02*
X006243Y020113D01*
X006243Y019955D02*
X006469Y019955D01*
X006469Y019796D02*
X006243Y019796D01*
X006243Y019638D02*
X006469Y019638D01*
X006469Y019479D02*
X006243Y019479D01*
X006261Y019321D02*
X006469Y019321D01*
X006469Y019162D02*
X006354Y019162D01*
X012739Y011756D02*
X012739Y011363D01*
X012739Y010969D01*
X012936Y010969D01*
X012936Y011024D01*
X013011Y011024D01*
X013011Y010433D01*
X013007Y010433D01*
X021013Y011666D02*
X021009Y011699D01*
X021009Y012449D01*
X021013Y012483D01*
X021024Y012514D01*
X021042Y012543D01*
X021066Y012566D01*
X021094Y012584D01*
X021126Y012595D01*
X021159Y012599D01*
X021809Y012599D01*
X021842Y012603D01*
X021874Y012614D01*
X021903Y012632D01*
X021926Y012656D01*
X021944Y012684D01*
X021955Y012716D01*
X021959Y012749D01*
X021841Y017442D01*
X021845Y017476D01*
X021856Y017507D01*
X021874Y017536D01*
X021897Y017559D01*
X021926Y017577D01*
X021958Y017588D01*
X021991Y017592D01*
X022841Y017592D01*
X022874Y017588D01*
X022906Y017577D01*
X021926Y017577D01*
X021842Y017419D02*
X022991Y017419D01*
X022991Y017442D02*
X023104Y011959D01*
X023051Y011981D01*
X022924Y011981D01*
X022807Y011932D01*
X022717Y011843D01*
X022668Y011725D01*
X022668Y011598D01*
X022689Y011549D01*
X021987Y011549D01*
X022015Y011618D01*
X022015Y011745D01*
X021967Y011862D01*
X021877Y011952D01*
X021760Y012001D01*
X021633Y012001D01*
X021515Y011952D01*
X021426Y011862D01*
X021377Y011745D01*
X021377Y011618D01*
X021406Y011549D01*
X021159Y011549D01*
X021126Y011553D01*
X021094Y011564D01*
X021066Y011582D01*
X021042Y011606D01*
X021024Y011634D01*
X021013Y011666D01*
X021009Y011713D02*
X021377Y011713D01*
X021403Y011554D02*
X021122Y011554D01*
X021009Y011871D02*
X021434Y011871D01*
X021009Y012030D02*
X023102Y012030D01*
X023099Y012188D02*
X021009Y012188D01*
X021009Y012347D02*
X023096Y012347D01*
X023092Y012505D02*
X021021Y012505D01*
X021931Y012664D02*
X023089Y012664D01*
X023086Y012822D02*
X021957Y012822D01*
X021953Y012981D02*
X023083Y012981D01*
X023079Y013139D02*
X021949Y013139D01*
X021945Y013298D02*
X023076Y013298D01*
X023073Y013456D02*
X021941Y013456D01*
X021937Y013615D02*
X023070Y013615D01*
X023066Y013773D02*
X021933Y013773D01*
X021929Y013932D02*
X023063Y013932D01*
X023060Y014090D02*
X021925Y014090D01*
X021921Y014249D02*
X023057Y014249D01*
X023053Y014407D02*
X021917Y014407D01*
X021913Y014566D02*
X023050Y014566D01*
X023047Y014724D02*
X021909Y014724D01*
X021905Y014883D02*
X023044Y014883D01*
X023040Y015041D02*
X021901Y015041D01*
X021897Y015200D02*
X023037Y015200D01*
X023034Y015358D02*
X021893Y015358D01*
X021889Y015517D02*
X023031Y015517D01*
X023027Y015675D02*
X021885Y015675D01*
X021881Y015834D02*
X023024Y015834D01*
X023021Y015992D02*
X021877Y015992D01*
X021873Y016151D02*
X023018Y016151D01*
X023014Y016309D02*
X021869Y016309D01*
X021865Y016468D02*
X023011Y016468D01*
X023008Y016626D02*
X021861Y016626D01*
X021857Y016785D02*
X023004Y016785D01*
X023001Y016943D02*
X021854Y016943D01*
X021850Y017102D02*
X022998Y017102D01*
X022995Y017260D02*
X021846Y017260D01*
X022267Y017592D02*
X022267Y017898D01*
X021913Y018252D01*
X021913Y018607D01*
X021952Y019748D02*
X021952Y019867D01*
X021873Y019945D01*
X021873Y020378D01*
X020987Y021264D01*
X020377Y021874D01*
X020968Y021205D02*
X019472Y019709D01*
X019078Y019709D01*
X018920Y019709D02*
X018763Y019552D01*
X018409Y019552D01*
X022906Y017577D02*
X022934Y017559D01*
X022958Y017536D01*
X022976Y017507D01*
X022987Y017476D01*
X022991Y017442D01*
X022746Y011871D02*
X021958Y011871D01*
X022015Y011713D02*
X022668Y011713D01*
X022687Y011554D02*
X021989Y011554D01*
D53*
X019684Y010603D02*
X019684Y010433D01*
X019306Y010433D01*
X019676Y010603D02*
X019684Y010603D01*
X019184Y012087D02*
X018838Y012107D01*
X018783Y012095D01*
X018783Y012432D01*
X021755Y019433D02*
X021952Y019630D01*
X010417Y019315D02*
X010417Y019126D01*
X010385Y019095D01*
X010385Y018985D01*
X010401Y018969D01*
X010401Y018835D01*
X010331Y018765D01*
X010219Y018765D01*
D54*
X007507Y017516D02*
X007436Y017445D01*
X007094Y017445D01*
X007043Y017394D01*
X006905Y017394D01*
X006905Y017304D01*
X006995Y017213D01*
X006995Y016750D01*
X007300Y016446D01*
X007720Y015831D02*
X008043Y015831D01*
X008255Y015619D01*
X008448Y015496D01*
X008184Y015493D02*
X008184Y015229D01*
X008196Y015225D01*
X008275Y015217D01*
X008334Y015189D01*
X008298Y015209D01*
X008184Y015493D02*
X008050Y015595D01*
X007956Y015595D01*
X010314Y015406D02*
X010287Y015107D01*
X010369Y014776D01*
X011850Y013217D02*
X012397Y013217D01*
X014409Y011205D01*
X016157Y011205D01*
X016157Y010433D01*
X015763Y010433D02*
X015763Y011000D01*
X014125Y011000D01*
X012428Y012697D01*
X011739Y012697D01*
X011487Y012937D01*
X011361Y012937D01*
X012739Y011363D02*
X012739Y011304D01*
X013003Y011040D01*
X013003Y011036D01*
X012936Y010969D01*
X019924Y007178D02*
X019924Y006158D01*
X019932Y006146D01*
X020381Y006146D01*
X020381Y006249D01*
X020390Y006279D01*
X020401Y006300D01*
X020390Y006320D01*
X020381Y006351D01*
X020381Y006477D01*
X020861Y006477D01*
X020861Y006516D01*
X020381Y006516D01*
X020381Y006532D01*
X020116Y006532D01*
X020081Y006567D01*
X020081Y006917D01*
X020116Y006952D01*
X020381Y006952D01*
X020381Y007036D01*
X020390Y007066D01*
X020401Y007087D01*
X020390Y007108D01*
X020381Y007138D01*
X020381Y007181D01*
X019952Y007181D01*
X019940Y007193D01*
X019924Y007178D01*
X019933Y007186D02*
X019947Y007186D01*
X019924Y007148D02*
X020381Y007148D01*
X020389Y007110D02*
X019924Y007110D01*
X019924Y007072D02*
X020393Y007072D01*
X020381Y007035D02*
X019924Y007035D01*
X019924Y006997D02*
X020381Y006997D01*
X020381Y006959D02*
X019924Y006959D01*
X019924Y006921D02*
X020085Y006921D01*
X020081Y006883D02*
X019924Y006883D01*
X019924Y006845D02*
X020081Y006845D01*
X020081Y006807D02*
X019924Y006807D01*
X019924Y006769D02*
X020081Y006769D01*
X020081Y006732D02*
X019924Y006732D01*
X019924Y006694D02*
X020081Y006694D01*
X020081Y006656D02*
X019924Y006656D01*
X019924Y006618D02*
X020081Y006618D01*
X020081Y006580D02*
X019924Y006580D01*
X019924Y006542D02*
X020106Y006542D01*
X019924Y006504D02*
X020861Y006504D01*
X020881Y006496D02*
X020881Y006890D01*
X020889Y006870D02*
X020901Y006859D01*
X020901Y007016D01*
X021298Y007414D01*
X020881Y007284D02*
X020881Y007237D01*
X020889Y007229D01*
X020889Y006870D01*
X020901Y006952D02*
X020861Y006952D01*
X020861Y007181D01*
X020901Y007181D01*
X020901Y006952D01*
X020901Y006959D02*
X020861Y006959D01*
X020861Y006997D02*
X020901Y006997D01*
X020901Y007035D02*
X020861Y007035D01*
X020861Y007072D02*
X020901Y007072D01*
X020901Y007110D02*
X020861Y007110D01*
X020861Y007148D02*
X020901Y007148D01*
X020901Y006477D02*
X020901Y006247D01*
X020901Y006146D01*
X020861Y006146D01*
X020861Y006477D01*
X020901Y006477D01*
X020901Y006466D02*
X020861Y006466D01*
X020861Y006429D02*
X020901Y006429D01*
X020901Y006391D02*
X020861Y006391D01*
X020861Y006353D02*
X020901Y006353D01*
X020901Y006315D02*
X020861Y006315D01*
X020861Y006277D02*
X020901Y006277D01*
X020901Y006239D02*
X020861Y006239D01*
X020861Y006201D02*
X020901Y006201D01*
X020901Y006164D02*
X020861Y006164D01*
X020381Y006164D02*
X019924Y006164D01*
X019924Y006201D02*
X020381Y006201D01*
X020381Y006239D02*
X019924Y006239D01*
X019924Y006277D02*
X020389Y006277D01*
X020393Y006315D02*
X019924Y006315D01*
X019924Y006353D02*
X020381Y006353D01*
X020381Y006391D02*
X019924Y006391D01*
X019924Y006429D02*
X020381Y006429D01*
X020381Y006466D02*
X019924Y006466D01*
D55*
X020298Y008056D03*
X020928Y012426D03*
X018172Y014985D03*
X017464Y015496D03*
X017385Y014867D03*
X016913Y015063D03*
X017385Y014119D03*
X016913Y013646D03*
X015338Y014867D03*
X014629Y015575D03*
X014905Y015811D03*
X013684Y014827D03*
X013133Y013961D03*
X013133Y013449D03*
X013763Y012426D03*
X011200Y014347D03*
X011184Y015016D03*
X010751Y015433D03*
X011019Y016059D03*
X010456Y017780D03*
X010850Y018292D03*
X010850Y018764D03*
X010928Y019119D03*
X009865Y019237D03*
X009472Y018922D03*
X009157Y018292D03*
X008881Y018016D03*
X007739Y017150D03*
X007661Y016796D03*
X007857Y016363D03*
X008487Y016284D03*
X008842Y016075D03*
X008531Y015945D03*
X009078Y014630D03*
X009039Y014158D03*
X008448Y014158D03*
X008172Y013922D03*
X007739Y013607D03*
X007424Y012977D03*
X008212Y012465D03*
X008920Y012898D03*
X009235Y012701D03*
X008684Y013370D03*
X007582Y014394D03*
X007228Y014394D03*
X006480Y014473D03*
X006519Y015103D03*
X006519Y015457D03*
X005928Y016048D03*
X005535Y015890D03*
X004944Y015300D03*
X004708Y015615D03*
X004787Y016087D03*
X005731Y015063D03*
X005102Y014355D03*
X004865Y014079D03*
X005102Y013804D03*
X004629Y013725D03*
X004865Y012977D03*
X005102Y012347D03*
X005771Y012622D03*
X006440Y013607D03*
X007424Y011284D03*
X006086Y009591D03*
X004944Y009394D03*
X004826Y010654D03*
X003645Y011284D03*
X002621Y012544D03*
X002188Y013134D03*
X001519Y012937D03*
X003448Y012898D03*
X003920Y014355D03*
X002976Y015024D03*
X002228Y015024D03*
X008684Y009433D03*
X008015Y007465D03*
X005889Y007504D03*
X005574Y006048D03*
X004354Y002859D03*
X003487Y002032D03*
X005968Y001953D03*
X007228Y002465D03*
X010259Y004000D03*
X011755Y009512D03*
X010613Y013095D03*
X009983Y013685D03*
X015141Y017465D03*
X012228Y019119D03*
X001873Y007504D03*
X020298Y002544D03*
M02*
