G75*
%MOIN*%
%OFA0B0*%
%FSLAX24Y24*%
%IPPOS*%
%LPD*%
%AMOC8*
5,1,8,0,0,1.08239X$1,22.5*
%
%ADD10R,0.0260X0.0760*%
%ADD11R,0.0760X0.0260*%
%ADD12C,0.0088*%
%ADD13R,0.0472X0.0866*%
%ADD14R,0.0472X0.0787*%
%ADD15R,0.0600X0.0250*%
%ADD16R,0.1000X0.1200*%
%ADD17R,0.1000X0.1250*%
%ADD18C,0.0100*%
%ADD19R,0.0984X0.1260*%
%ADD20R,0.1080X0.0850*%
%ADD21C,0.0150*%
%ADD22C,0.0200*%
%ADD23R,0.0220X0.0500*%
%ADD24R,0.0500X0.0220*%
%ADD25R,0.1300X0.0800*%
%ADD26R,0.0240X0.0870*%
%ADD27R,0.1260X0.0866*%
%ADD28R,0.1969X0.1772*%
%ADD29R,0.0945X0.0945*%
%ADD30R,0.0472X0.0217*%
%ADD31R,0.0400X0.0450*%
%ADD32R,0.0500X0.0500*%
%ADD33C,0.0075*%
%ADD34R,0.0700X0.0800*%
D10*
X012656Y002006D03*
X013050Y002006D03*
X013443Y002006D03*
X013837Y002006D03*
X014231Y002006D03*
X014625Y002006D03*
X015018Y002006D03*
X015412Y002006D03*
X015806Y002006D03*
X016199Y002006D03*
X016593Y002006D03*
X016987Y002006D03*
X017380Y002006D03*
X017774Y002006D03*
X018168Y002006D03*
X018562Y002006D03*
X018955Y002006D03*
X018955Y011455D03*
X018562Y011455D03*
X018168Y011455D03*
X017774Y011455D03*
X017380Y011455D03*
X016987Y011455D03*
X016593Y011455D03*
X016199Y011455D03*
X015806Y011455D03*
X015412Y011455D03*
X015018Y011455D03*
X014625Y011455D03*
X014231Y011455D03*
X013837Y011455D03*
X013443Y011455D03*
X013050Y011455D03*
X012656Y011455D03*
D11*
X011081Y009880D03*
X011081Y009486D03*
X011081Y009093D03*
X011081Y008699D03*
X011081Y008305D03*
X011081Y007912D03*
X011081Y007518D03*
X011081Y007124D03*
X011081Y006731D03*
X011081Y006337D03*
X011081Y005943D03*
X011081Y005549D03*
X011081Y005156D03*
X011081Y004762D03*
X011081Y004368D03*
X011081Y003975D03*
X011081Y003581D03*
X020530Y003581D03*
X020530Y003975D03*
X020530Y004368D03*
X020530Y004762D03*
X020530Y005156D03*
X020530Y005549D03*
X020530Y005943D03*
X020530Y006337D03*
X020530Y006731D03*
X020530Y007124D03*
X020530Y007518D03*
X020530Y007912D03*
X020530Y008305D03*
X020530Y008699D03*
X020530Y009093D03*
X020530Y009486D03*
X020530Y009880D03*
D12*
X021379Y012648D02*
X021379Y012910D01*
X021379Y012648D02*
X021117Y012648D01*
X021117Y012910D01*
X021379Y012910D01*
X021379Y012735D02*
X021117Y012735D01*
X021117Y012822D02*
X021379Y012822D01*
X021379Y012909D02*
X021117Y012909D01*
X021379Y013248D02*
X021379Y013510D01*
X021379Y013248D02*
X021117Y013248D01*
X021117Y013510D01*
X021379Y013510D01*
X021379Y013335D02*
X021117Y013335D01*
X021117Y013422D02*
X021379Y013422D01*
X021379Y013509D02*
X021117Y013509D01*
X021991Y013510D02*
X021991Y013248D01*
X021729Y013248D01*
X021729Y013510D01*
X021991Y013510D01*
X021991Y013335D02*
X021729Y013335D01*
X021729Y013422D02*
X021991Y013422D01*
X021991Y013509D02*
X021729Y013509D01*
X021991Y012910D02*
X021991Y012648D01*
X021729Y012648D01*
X021729Y012910D01*
X021991Y012910D01*
X021991Y012735D02*
X021729Y012735D01*
X021729Y012822D02*
X021991Y012822D01*
X021991Y012909D02*
X021729Y012909D01*
X017626Y014043D02*
X017626Y014305D01*
X017626Y014043D02*
X017364Y014043D01*
X017364Y014305D01*
X017626Y014305D01*
X017626Y014130D02*
X017364Y014130D01*
X017364Y014217D02*
X017626Y014217D01*
X017626Y014304D02*
X017364Y014304D01*
X017626Y014643D02*
X017626Y014905D01*
X017626Y014643D02*
X017364Y014643D01*
X017364Y014905D01*
X017626Y014905D01*
X017626Y014730D02*
X017364Y014730D01*
X017364Y014817D02*
X017626Y014817D01*
X017626Y014904D02*
X017364Y014904D01*
X015440Y014918D02*
X015440Y014656D01*
X015440Y014918D02*
X015702Y014918D01*
X015702Y014656D01*
X015440Y014656D01*
X015440Y014743D02*
X015702Y014743D01*
X015702Y014830D02*
X015440Y014830D01*
X015440Y014917D02*
X015702Y014917D01*
X015440Y014318D02*
X015440Y014056D01*
X015440Y014318D02*
X015702Y014318D01*
X015702Y014056D01*
X015440Y014056D01*
X015440Y014143D02*
X015702Y014143D01*
X015702Y014230D02*
X015440Y014230D01*
X015440Y014317D02*
X015702Y014317D01*
X015025Y014321D02*
X015025Y014059D01*
X014763Y014059D01*
X014763Y014321D01*
X015025Y014321D01*
X015025Y014146D02*
X014763Y014146D01*
X014763Y014233D02*
X015025Y014233D01*
X015025Y014320D02*
X014763Y014320D01*
X015025Y014659D02*
X015025Y014921D01*
X015025Y014659D02*
X014763Y014659D01*
X014763Y014921D01*
X015025Y014921D01*
X015025Y014746D02*
X014763Y014746D01*
X014763Y014833D02*
X015025Y014833D01*
X015025Y014920D02*
X014763Y014920D01*
X018423Y018899D02*
X018423Y019161D01*
X018423Y018899D02*
X018161Y018899D01*
X018161Y019161D01*
X018423Y019161D01*
X018423Y018986D02*
X018161Y018986D01*
X018161Y019073D02*
X018423Y019073D01*
X018423Y019160D02*
X018161Y019160D01*
X018423Y019499D02*
X018423Y019761D01*
X018423Y019499D02*
X018161Y019499D01*
X018161Y019761D01*
X018423Y019761D01*
X018423Y019586D02*
X018161Y019586D01*
X018161Y019673D02*
X018423Y019673D01*
X018423Y019760D02*
X018161Y019760D01*
X019671Y021041D02*
X019933Y021041D01*
X019933Y020779D01*
X019671Y020779D01*
X019671Y021041D01*
X019671Y020866D02*
X019933Y020866D01*
X019933Y020953D02*
X019671Y020953D01*
X019671Y021040D02*
X019933Y021040D01*
X020271Y021041D02*
X020533Y021041D01*
X020533Y020779D01*
X020271Y020779D01*
X020271Y021041D01*
X020271Y020866D02*
X020533Y020866D01*
X020533Y020953D02*
X020271Y020953D01*
X020271Y021040D02*
X020533Y021040D01*
X021792Y019097D02*
X022054Y019097D01*
X021792Y019097D02*
X021792Y019359D01*
X022054Y019359D01*
X022054Y019097D01*
X022054Y019184D02*
X021792Y019184D01*
X021792Y019271D02*
X022054Y019271D01*
X022054Y019358D02*
X021792Y019358D01*
X022392Y019097D02*
X022654Y019097D01*
X022392Y019097D02*
X022392Y019359D01*
X022654Y019359D01*
X022654Y019097D01*
X022654Y019184D02*
X022392Y019184D01*
X022392Y019271D02*
X022654Y019271D01*
X022654Y019358D02*
X022392Y019358D01*
X022384Y018485D02*
X022646Y018485D01*
X022384Y018485D02*
X022384Y018747D01*
X022646Y018747D01*
X022646Y018485D01*
X022646Y018572D02*
X022384Y018572D01*
X022384Y018659D02*
X022646Y018659D01*
X022646Y018746D02*
X022384Y018746D01*
X022046Y018485D02*
X021784Y018485D01*
X021784Y018747D01*
X022046Y018747D01*
X022046Y018485D01*
X022046Y018572D02*
X021784Y018572D01*
X021784Y018659D02*
X022046Y018659D01*
X022046Y018746D02*
X021784Y018746D01*
X010321Y016822D02*
X010059Y016822D01*
X010321Y016822D02*
X010321Y016560D01*
X010059Y016560D01*
X010059Y016822D01*
X010059Y016647D02*
X010321Y016647D01*
X010321Y016734D02*
X010059Y016734D01*
X010059Y016821D02*
X010321Y016821D01*
X010325Y016221D02*
X010063Y016221D01*
X010325Y016221D02*
X010325Y015959D01*
X010063Y015959D01*
X010063Y016221D01*
X010063Y016046D02*
X010325Y016046D01*
X010325Y016133D02*
X010063Y016133D01*
X010063Y016220D02*
X010325Y016220D01*
X009725Y016221D02*
X009463Y016221D01*
X009725Y016221D02*
X009725Y015959D01*
X009463Y015959D01*
X009463Y016221D01*
X009463Y016046D02*
X009725Y016046D01*
X009725Y016133D02*
X009463Y016133D01*
X009463Y016220D02*
X009725Y016220D01*
X009721Y016822D02*
X009459Y016822D01*
X009721Y016822D02*
X009721Y016560D01*
X009459Y016560D01*
X009459Y016822D01*
X009459Y016647D02*
X009721Y016647D01*
X009721Y016734D02*
X009459Y016734D01*
X009459Y016821D02*
X009721Y016821D01*
X009424Y017451D02*
X009162Y017451D01*
X009424Y017451D02*
X009424Y017189D01*
X009162Y017189D01*
X009162Y017451D01*
X009162Y017276D02*
X009424Y017276D01*
X009424Y017363D02*
X009162Y017363D01*
X009162Y017450D02*
X009424Y017450D01*
X008824Y017451D02*
X008562Y017451D01*
X008824Y017451D02*
X008824Y017189D01*
X008562Y017189D01*
X008562Y017451D01*
X008562Y017276D02*
X008824Y017276D01*
X008824Y017363D02*
X008562Y017363D01*
X008562Y017450D02*
X008824Y017450D01*
X007863Y017471D02*
X007863Y017209D01*
X007863Y017471D02*
X008125Y017471D01*
X008125Y017209D01*
X007863Y017209D01*
X007863Y017296D02*
X008125Y017296D01*
X008125Y017383D02*
X007863Y017383D01*
X007863Y017470D02*
X008125Y017470D01*
X007863Y017809D02*
X007863Y018071D01*
X008125Y018071D01*
X008125Y017809D01*
X007863Y017809D01*
X007863Y017896D02*
X008125Y017896D01*
X008125Y017983D02*
X007863Y017983D01*
X007863Y018070D02*
X008125Y018070D01*
X007213Y018071D02*
X007213Y017809D01*
X007213Y018071D02*
X007475Y018071D01*
X007475Y017809D01*
X007213Y017809D01*
X007213Y017896D02*
X007475Y017896D01*
X007475Y017983D02*
X007213Y017983D01*
X007213Y018070D02*
X007475Y018070D01*
X007213Y017471D02*
X007213Y017209D01*
X007213Y017471D02*
X007475Y017471D01*
X007475Y017209D01*
X007213Y017209D01*
X007213Y017296D02*
X007475Y017296D01*
X007475Y017383D02*
X007213Y017383D01*
X007213Y017470D02*
X007475Y017470D01*
X006563Y017471D02*
X006563Y017209D01*
X006563Y017471D02*
X006825Y017471D01*
X006825Y017209D01*
X006563Y017209D01*
X006563Y017296D02*
X006825Y017296D01*
X006825Y017383D02*
X006563Y017383D01*
X006563Y017470D02*
X006825Y017470D01*
X006563Y017809D02*
X006563Y018071D01*
X006825Y018071D01*
X006825Y017809D01*
X006563Y017809D01*
X006563Y017896D02*
X006825Y017896D01*
X006825Y017983D02*
X006563Y017983D01*
X006563Y018070D02*
X006825Y018070D01*
X005875Y017159D02*
X005613Y017159D01*
X005613Y017421D01*
X005875Y017421D01*
X005875Y017159D01*
X005875Y017246D02*
X005613Y017246D01*
X005613Y017333D02*
X005875Y017333D01*
X005875Y017420D02*
X005613Y017420D01*
X005275Y017159D02*
X005013Y017159D01*
X005013Y017421D01*
X005275Y017421D01*
X005275Y017159D01*
X005275Y017246D02*
X005013Y017246D01*
X005013Y017333D02*
X005275Y017333D01*
X005275Y017420D02*
X005013Y017420D01*
X004675Y017421D02*
X004413Y017421D01*
X004675Y017421D02*
X004675Y017159D01*
X004413Y017159D01*
X004413Y017421D01*
X004413Y017246D02*
X004675Y017246D01*
X004675Y017333D02*
X004413Y017333D01*
X004413Y017420D02*
X004675Y017420D01*
X004075Y017421D02*
X003813Y017421D01*
X004075Y017421D02*
X004075Y017159D01*
X003813Y017159D01*
X003813Y017421D01*
X003813Y017246D02*
X004075Y017246D01*
X004075Y017333D02*
X003813Y017333D01*
X003813Y017420D02*
X004075Y017420D01*
X002871Y017501D02*
X002609Y017501D01*
X002609Y017763D01*
X002871Y017763D01*
X002871Y017501D01*
X002871Y017588D02*
X002609Y017588D01*
X002609Y017675D02*
X002871Y017675D01*
X002871Y017762D02*
X002609Y017762D01*
X002271Y017501D02*
X002009Y017501D01*
X002009Y017763D01*
X002271Y017763D01*
X002271Y017501D01*
X002271Y017588D02*
X002009Y017588D01*
X002009Y017675D02*
X002271Y017675D01*
X002271Y017762D02*
X002009Y017762D01*
X002013Y018109D02*
X002275Y018109D01*
X002013Y018109D02*
X002013Y018371D01*
X002275Y018371D01*
X002275Y018109D01*
X002275Y018196D02*
X002013Y018196D01*
X002013Y018283D02*
X002275Y018283D01*
X002275Y018370D02*
X002013Y018370D01*
X002011Y018943D02*
X002273Y018943D01*
X002273Y018681D01*
X002011Y018681D01*
X002011Y018943D01*
X002011Y018768D02*
X002273Y018768D01*
X002273Y018855D02*
X002011Y018855D01*
X002011Y018942D02*
X002273Y018942D01*
X002611Y018943D02*
X002873Y018943D01*
X002873Y018681D01*
X002611Y018681D01*
X002611Y018943D01*
X002611Y018768D02*
X002873Y018768D01*
X002873Y018855D02*
X002611Y018855D01*
X002611Y018942D02*
X002873Y018942D01*
X002875Y018109D02*
X002613Y018109D01*
X002613Y018371D01*
X002875Y018371D01*
X002875Y018109D01*
X002875Y018196D02*
X002613Y018196D01*
X002613Y018283D02*
X002875Y018283D01*
X002875Y018370D02*
X002613Y018370D01*
X001625Y018109D02*
X001363Y018109D01*
X001363Y018371D01*
X001625Y018371D01*
X001625Y018109D01*
X001625Y018196D02*
X001363Y018196D01*
X001363Y018283D02*
X001625Y018283D01*
X001625Y018370D02*
X001363Y018370D01*
X001358Y018943D02*
X001620Y018943D01*
X001620Y018681D01*
X001358Y018681D01*
X001358Y018943D01*
X001358Y018768D02*
X001620Y018768D01*
X001620Y018855D02*
X001358Y018855D01*
X001358Y018942D02*
X001620Y018942D01*
X001020Y018943D02*
X000758Y018943D01*
X001020Y018943D02*
X001020Y018681D01*
X000758Y018681D01*
X000758Y018943D01*
X000758Y018768D02*
X001020Y018768D01*
X001020Y018855D02*
X000758Y018855D01*
X000758Y018942D02*
X001020Y018942D01*
X001025Y018109D02*
X000763Y018109D01*
X000763Y018371D01*
X001025Y018371D01*
X001025Y018109D01*
X001025Y018196D02*
X000763Y018196D01*
X000763Y018283D02*
X001025Y018283D01*
X001025Y018370D02*
X000763Y018370D01*
X000763Y017771D02*
X001025Y017771D01*
X001025Y017509D01*
X000763Y017509D01*
X000763Y017771D01*
X000763Y017596D02*
X001025Y017596D01*
X001025Y017683D02*
X000763Y017683D01*
X000763Y017770D02*
X001025Y017770D01*
X001363Y017771D02*
X001625Y017771D01*
X001625Y017509D01*
X001363Y017509D01*
X001363Y017771D01*
X001363Y017596D02*
X001625Y017596D01*
X001625Y017683D02*
X001363Y017683D01*
X001363Y017770D02*
X001625Y017770D01*
X005031Y019562D02*
X005293Y019562D01*
X005293Y019300D01*
X005031Y019300D01*
X005031Y019562D01*
X005031Y019387D02*
X005293Y019387D01*
X005293Y019474D02*
X005031Y019474D01*
X005031Y019561D02*
X005293Y019561D01*
X005631Y019562D02*
X005893Y019562D01*
X005893Y019300D01*
X005631Y019300D01*
X005631Y019562D01*
X005631Y019387D02*
X005893Y019387D01*
X005893Y019474D02*
X005631Y019474D01*
X005631Y019561D02*
X005893Y019561D01*
X005893Y020350D02*
X005631Y020350D01*
X005893Y020350D02*
X005893Y020088D01*
X005631Y020088D01*
X005631Y020350D01*
X005631Y020175D02*
X005893Y020175D01*
X005893Y020262D02*
X005631Y020262D01*
X005631Y020349D02*
X005893Y020349D01*
X005893Y021137D02*
X005631Y021137D01*
X005893Y021137D02*
X005893Y020875D01*
X005631Y020875D01*
X005631Y021137D01*
X005631Y020962D02*
X005893Y020962D01*
X005893Y021049D02*
X005631Y021049D01*
X005631Y021136D02*
X005893Y021136D01*
X005893Y021663D02*
X005631Y021663D01*
X005631Y021925D01*
X005893Y021925D01*
X005893Y021663D01*
X005893Y021750D02*
X005631Y021750D01*
X005631Y021837D02*
X005893Y021837D01*
X005893Y021924D02*
X005631Y021924D01*
X005293Y021663D02*
X005031Y021663D01*
X005031Y021925D01*
X005293Y021925D01*
X005293Y021663D01*
X005293Y021750D02*
X005031Y021750D01*
X005031Y021837D02*
X005293Y021837D01*
X005293Y021924D02*
X005031Y021924D01*
X005031Y022450D02*
X005293Y022450D01*
X005031Y022450D02*
X005031Y022712D01*
X005293Y022712D01*
X005293Y022450D01*
X005293Y022537D02*
X005031Y022537D01*
X005031Y022624D02*
X005293Y022624D01*
X005293Y022711D02*
X005031Y022711D01*
X005631Y022450D02*
X005893Y022450D01*
X005631Y022450D02*
X005631Y022712D01*
X005893Y022712D01*
X005893Y022450D01*
X005893Y022537D02*
X005631Y022537D01*
X005631Y022624D02*
X005893Y022624D01*
X005893Y022711D02*
X005631Y022711D01*
X005293Y021137D02*
X005031Y021137D01*
X005293Y021137D02*
X005293Y020875D01*
X005031Y020875D01*
X005031Y021137D01*
X005031Y020962D02*
X005293Y020962D01*
X005293Y021049D02*
X005031Y021049D01*
X005031Y021136D02*
X005293Y021136D01*
X005293Y020350D02*
X005031Y020350D01*
X005293Y020350D02*
X005293Y020088D01*
X005031Y020088D01*
X005031Y020350D01*
X005031Y020175D02*
X005293Y020175D01*
X005293Y020262D02*
X005031Y020262D01*
X005031Y020349D02*
X005293Y020349D01*
X009472Y015353D02*
X009734Y015353D01*
X009472Y015353D02*
X009472Y015615D01*
X009734Y015615D01*
X009734Y015353D01*
X009734Y015440D02*
X009472Y015440D01*
X009472Y015527D02*
X009734Y015527D01*
X009734Y015614D02*
X009472Y015614D01*
X009463Y015021D02*
X009725Y015021D01*
X009725Y014759D01*
X009463Y014759D01*
X009463Y015021D01*
X009463Y014846D02*
X009725Y014846D01*
X009725Y014933D02*
X009463Y014933D01*
X009463Y015020D02*
X009725Y015020D01*
X010063Y015021D02*
X010325Y015021D01*
X010325Y014759D01*
X010063Y014759D01*
X010063Y015021D01*
X010063Y014846D02*
X010325Y014846D01*
X010325Y014933D02*
X010063Y014933D01*
X010063Y015020D02*
X010325Y015020D01*
X010334Y015353D02*
X010072Y015353D01*
X010072Y015615D01*
X010334Y015615D01*
X010334Y015353D01*
X010334Y015440D02*
X010072Y015440D01*
X010072Y015527D02*
X010334Y015527D01*
X010334Y015614D02*
X010072Y015614D01*
X010069Y014414D02*
X010331Y014414D01*
X010331Y014152D01*
X010069Y014152D01*
X010069Y014414D01*
X010069Y014239D02*
X010331Y014239D01*
X010331Y014326D02*
X010069Y014326D01*
X010069Y014413D02*
X010331Y014413D01*
X010331Y013558D02*
X010069Y013558D01*
X010069Y013820D01*
X010331Y013820D01*
X010331Y013558D01*
X010331Y013645D02*
X010069Y013645D01*
X010069Y013732D02*
X010331Y013732D01*
X010331Y013819D02*
X010069Y013819D01*
X009731Y013558D02*
X009469Y013558D01*
X009469Y013820D01*
X009731Y013820D01*
X009731Y013558D01*
X009731Y013645D02*
X009469Y013645D01*
X009469Y013732D02*
X009731Y013732D01*
X009731Y013819D02*
X009469Y013819D01*
X009469Y014414D02*
X009731Y014414D01*
X009731Y014152D01*
X009469Y014152D01*
X009469Y014414D01*
X009469Y014239D02*
X009731Y014239D01*
X009731Y014326D02*
X009469Y014326D01*
X009469Y014413D02*
X009731Y014413D01*
X009275Y012771D02*
X009013Y012771D01*
X009275Y012771D02*
X009275Y012509D01*
X009013Y012509D01*
X009013Y012771D01*
X009013Y012596D02*
X009275Y012596D01*
X009275Y012683D02*
X009013Y012683D01*
X009013Y012770D02*
X009275Y012770D01*
X008675Y012771D02*
X008413Y012771D01*
X008675Y012771D02*
X008675Y012509D01*
X008413Y012509D01*
X008413Y012771D01*
X008413Y012596D02*
X008675Y012596D01*
X008675Y012683D02*
X008413Y012683D01*
X008413Y012770D02*
X008675Y012770D01*
X009563Y011559D02*
X009825Y011559D01*
X009563Y011559D02*
X009563Y011821D01*
X009825Y011821D01*
X009825Y011559D01*
X009825Y011646D02*
X009563Y011646D01*
X009563Y011733D02*
X009825Y011733D01*
X009825Y011820D02*
X009563Y011820D01*
X010163Y011559D02*
X010425Y011559D01*
X010163Y011559D02*
X010163Y011821D01*
X010425Y011821D01*
X010425Y011559D01*
X010425Y011646D02*
X010163Y011646D01*
X010163Y011733D02*
X010425Y011733D01*
X010425Y011820D02*
X010163Y011820D01*
X004563Y013059D02*
X004563Y013321D01*
X004825Y013321D01*
X004825Y013059D01*
X004563Y013059D01*
X004563Y013146D02*
X004825Y013146D01*
X004825Y013233D02*
X004563Y013233D01*
X004563Y013320D02*
X004825Y013320D01*
X004563Y013659D02*
X004563Y013921D01*
X004825Y013921D01*
X004825Y013659D01*
X004563Y013659D01*
X004563Y013746D02*
X004825Y013746D01*
X004825Y013833D02*
X004563Y013833D01*
X004563Y013920D02*
X004825Y013920D01*
X009437Y004668D02*
X009699Y004668D01*
X009699Y004406D01*
X009437Y004406D01*
X009437Y004668D01*
X009437Y004493D02*
X009699Y004493D01*
X009699Y004580D02*
X009437Y004580D01*
X009437Y004667D02*
X009699Y004667D01*
X010037Y004668D02*
X010299Y004668D01*
X010299Y004406D01*
X010037Y004406D01*
X010037Y004668D01*
X010037Y004493D02*
X010299Y004493D01*
X010299Y004580D02*
X010037Y004580D01*
X010037Y004667D02*
X010299Y004667D01*
X010293Y003825D02*
X010031Y003825D01*
X010031Y004087D01*
X010293Y004087D01*
X010293Y003825D01*
X010293Y003912D02*
X010031Y003912D01*
X010031Y003999D02*
X010293Y003999D01*
X010293Y004086D02*
X010031Y004086D01*
X009693Y003825D02*
X009431Y003825D01*
X009431Y004087D01*
X009693Y004087D01*
X009693Y003825D01*
X009693Y003912D02*
X009431Y003912D01*
X009431Y003999D02*
X009693Y003999D01*
X009693Y004086D02*
X009431Y004086D01*
X009431Y003237D02*
X009693Y003237D01*
X009431Y003237D02*
X009431Y003499D01*
X009693Y003499D01*
X009693Y003237D01*
X009693Y003324D02*
X009431Y003324D01*
X009431Y003411D02*
X009693Y003411D01*
X009693Y003498D02*
X009431Y003498D01*
X009424Y002636D02*
X009686Y002636D01*
X009424Y002636D02*
X009424Y002898D01*
X009686Y002898D01*
X009686Y002636D01*
X009686Y002723D02*
X009424Y002723D01*
X009424Y002810D02*
X009686Y002810D01*
X009686Y002897D02*
X009424Y002897D01*
X010024Y002636D02*
X010286Y002636D01*
X010024Y002636D02*
X010024Y002898D01*
X010286Y002898D01*
X010286Y002636D01*
X010286Y002723D02*
X010024Y002723D01*
X010024Y002810D02*
X010286Y002810D01*
X010286Y002897D02*
X010024Y002897D01*
X010031Y003237D02*
X010293Y003237D01*
X010031Y003237D02*
X010031Y003499D01*
X010293Y003499D01*
X010293Y003237D01*
X010293Y003324D02*
X010031Y003324D01*
X010031Y003411D02*
X010293Y003411D01*
X010293Y003498D02*
X010031Y003498D01*
X022175Y004159D02*
X022175Y004421D01*
X022175Y004159D02*
X021913Y004159D01*
X021913Y004421D01*
X022175Y004421D01*
X022175Y004246D02*
X021913Y004246D01*
X021913Y004333D02*
X022175Y004333D01*
X022175Y004420D02*
X021913Y004420D01*
X022175Y004759D02*
X022175Y005021D01*
X022175Y004759D02*
X021913Y004759D01*
X021913Y005021D01*
X022175Y005021D01*
X022175Y004846D02*
X021913Y004846D01*
X021913Y004933D02*
X022175Y004933D01*
X022175Y005020D02*
X021913Y005020D01*
X022775Y005021D02*
X022775Y004759D01*
X022513Y004759D01*
X022513Y005021D01*
X022775Y005021D01*
X022775Y004846D02*
X022513Y004846D01*
X022513Y004933D02*
X022775Y004933D01*
X022775Y005020D02*
X022513Y005020D01*
X022775Y004421D02*
X022775Y004159D01*
X022513Y004159D01*
X022513Y004421D01*
X022775Y004421D01*
X022775Y004246D02*
X022513Y004246D01*
X022513Y004333D02*
X022775Y004333D01*
X022775Y004420D02*
X022513Y004420D01*
D13*
X005050Y001306D03*
X006014Y001290D03*
X007038Y001306D03*
D14*
X006971Y011255D03*
X006042Y011255D03*
X005081Y011247D03*
D15*
X019080Y018690D03*
X019080Y019190D03*
X019080Y019690D03*
X019080Y020190D03*
X021180Y020190D03*
X021180Y019690D03*
X021180Y019190D03*
X021180Y018690D03*
D16*
X022414Y014688D03*
D17*
X019914Y014688D03*
D18*
X022823Y013529D02*
X022823Y013229D01*
X022373Y013229D01*
X022373Y013529D01*
X022823Y013529D01*
X022823Y013328D02*
X022373Y013328D01*
X022373Y013427D02*
X022823Y013427D01*
X022823Y013526D02*
X022373Y013526D01*
X022823Y012829D02*
X022823Y012529D01*
X022373Y012529D01*
X022373Y012829D01*
X022823Y012829D01*
X022823Y012628D02*
X022373Y012628D01*
X022373Y012727D02*
X022823Y012727D01*
X022823Y012826D02*
X022373Y012826D01*
X021569Y005040D02*
X021569Y004740D01*
X021119Y004740D01*
X021119Y005040D01*
X021569Y005040D01*
X021569Y004839D02*
X021119Y004839D01*
X021119Y004938D02*
X021569Y004938D01*
X021569Y005037D02*
X021119Y005037D01*
X021569Y004340D02*
X021569Y004040D01*
X021119Y004040D01*
X021119Y004340D01*
X021569Y004340D01*
X021569Y004139D02*
X021119Y004139D01*
X021119Y004238D02*
X021569Y004238D01*
X021569Y004337D02*
X021119Y004337D01*
X009194Y011965D02*
X008894Y011965D01*
X009194Y011965D02*
X009194Y011515D01*
X008894Y011515D01*
X008894Y011965D01*
X008894Y011614D02*
X009194Y011614D01*
X009194Y011713D02*
X008894Y011713D01*
X008894Y011812D02*
X009194Y011812D01*
X009194Y011911D02*
X008894Y011911D01*
X008494Y011965D02*
X008194Y011965D01*
X008494Y011965D02*
X008494Y011515D01*
X008194Y011515D01*
X008194Y011965D01*
X008194Y011614D02*
X008494Y011614D01*
X008494Y011713D02*
X008194Y011713D01*
X008194Y011812D02*
X008494Y011812D01*
X008494Y011911D02*
X008194Y011911D01*
X017848Y020657D02*
X018148Y020657D01*
X017848Y020657D02*
X017848Y021107D01*
X018148Y021107D01*
X018148Y020657D01*
X018148Y020756D02*
X017848Y020756D01*
X017848Y020855D02*
X018148Y020855D01*
X018148Y020954D02*
X017848Y020954D01*
X017848Y021053D02*
X018148Y021053D01*
X018548Y020657D02*
X018848Y020657D01*
X018548Y020657D02*
X018548Y021107D01*
X018848Y021107D01*
X018848Y020657D01*
X018848Y020756D02*
X018548Y020756D01*
X018548Y020855D02*
X018848Y020855D01*
X018848Y020954D02*
X018548Y020954D01*
X018548Y021053D02*
X018848Y021053D01*
D19*
X020175Y016937D03*
X022419Y016937D03*
D20*
X018482Y017497D03*
X018482Y015757D03*
D21*
X021537Y007206D02*
X022287Y007206D01*
X021537Y007206D02*
X021537Y007356D01*
X022287Y007356D01*
X022287Y007206D01*
X022287Y007355D02*
X021537Y007355D01*
X021537Y006106D02*
X022287Y006106D01*
X021537Y006106D02*
X021537Y006256D01*
X022287Y006256D01*
X022287Y006106D01*
X022287Y006255D02*
X021537Y006255D01*
D22*
X021412Y006831D02*
X021212Y006831D01*
X021412Y006831D02*
X021412Y006631D01*
X021212Y006631D01*
X021212Y006831D01*
X021212Y006830D02*
X021412Y006830D01*
X022412Y006831D02*
X022612Y006831D01*
X022612Y006631D01*
X022412Y006631D01*
X022412Y006831D01*
X022412Y006830D02*
X022612Y006830D01*
D23*
X008238Y013310D03*
X007923Y013310D03*
X007608Y013310D03*
X007293Y013310D03*
X006978Y013310D03*
X006663Y013310D03*
X006348Y013310D03*
X006033Y013310D03*
X006033Y016690D03*
X006348Y016690D03*
X006663Y016690D03*
X006978Y016690D03*
X007293Y016690D03*
X007608Y016690D03*
X007923Y016690D03*
X008238Y016690D03*
D24*
X008826Y016102D03*
X008826Y015787D03*
X008826Y015472D03*
X008826Y015157D03*
X008826Y014842D03*
X008826Y014527D03*
X008826Y014212D03*
X008826Y013897D03*
X005446Y013897D03*
X005446Y014212D03*
X005446Y014527D03*
X005446Y014842D03*
X005446Y015157D03*
X005446Y015472D03*
X005446Y015787D03*
X005446Y016102D03*
D25*
X013677Y016021D03*
X013677Y018521D03*
D26*
X015480Y017871D03*
D27*
X016466Y017864D03*
D28*
X016230Y016250D03*
D29*
X015302Y022140D03*
X013569Y022140D03*
X017287Y022142D03*
X019019Y022142D03*
D30*
X010729Y013034D03*
X010729Y012286D03*
X009705Y012286D03*
X009705Y012660D03*
X009705Y013034D03*
D31*
X009344Y017890D03*
X008644Y017890D03*
X008994Y018690D03*
X002794Y019440D03*
X002094Y019440D03*
X001544Y019440D03*
X000844Y019440D03*
X001194Y020240D03*
X002444Y020240D03*
X016144Y014090D03*
X016844Y014090D03*
X016494Y014890D03*
D32*
X009794Y007740D03*
X009794Y006740D03*
X003994Y013090D03*
X003994Y014090D03*
D33*
X004081Y019293D02*
X004307Y019293D01*
X004081Y019293D02*
X004081Y019569D01*
X004307Y019569D01*
X004307Y019293D01*
X004307Y019367D02*
X004081Y019367D01*
X004081Y019441D02*
X004307Y019441D01*
X004307Y019515D02*
X004081Y019515D01*
X003707Y019293D02*
X003481Y019293D01*
X003481Y019569D01*
X003707Y019569D01*
X003707Y019293D01*
X003707Y019367D02*
X003481Y019367D01*
X003481Y019441D02*
X003707Y019441D01*
X003707Y019515D02*
X003481Y019515D01*
X003481Y020081D02*
X003707Y020081D01*
X003481Y020081D02*
X003481Y020357D01*
X003707Y020357D01*
X003707Y020081D01*
X003707Y020155D02*
X003481Y020155D01*
X003481Y020229D02*
X003707Y020229D01*
X003707Y020303D02*
X003481Y020303D01*
X003481Y020868D02*
X003707Y020868D01*
X003481Y020868D02*
X003481Y021144D01*
X003707Y021144D01*
X003707Y020868D01*
X003707Y020942D02*
X003481Y020942D01*
X003481Y021016D02*
X003707Y021016D01*
X003707Y021090D02*
X003481Y021090D01*
X003481Y021656D02*
X003707Y021656D01*
X003481Y021656D02*
X003481Y021932D01*
X003707Y021932D01*
X003707Y021656D01*
X003707Y021730D02*
X003481Y021730D01*
X003481Y021804D02*
X003707Y021804D01*
X003707Y021878D02*
X003481Y021878D01*
X003481Y022443D02*
X003707Y022443D01*
X003481Y022443D02*
X003481Y022719D01*
X003707Y022719D01*
X003707Y022443D01*
X003707Y022517D02*
X003481Y022517D01*
X003481Y022591D02*
X003707Y022591D01*
X003707Y022665D02*
X003481Y022665D01*
X004081Y022443D02*
X004307Y022443D01*
X004081Y022443D02*
X004081Y022719D01*
X004307Y022719D01*
X004307Y022443D01*
X004307Y022517D02*
X004081Y022517D01*
X004081Y022591D02*
X004307Y022591D01*
X004307Y022665D02*
X004081Y022665D01*
X004081Y021656D02*
X004307Y021656D01*
X004081Y021656D02*
X004081Y021932D01*
X004307Y021932D01*
X004307Y021656D01*
X004307Y021730D02*
X004081Y021730D01*
X004081Y021804D02*
X004307Y021804D01*
X004307Y021878D02*
X004081Y021878D01*
X004081Y020868D02*
X004307Y020868D01*
X004081Y020868D02*
X004081Y021144D01*
X004307Y021144D01*
X004307Y020868D01*
X004307Y020942D02*
X004081Y020942D01*
X004081Y021016D02*
X004307Y021016D01*
X004307Y021090D02*
X004081Y021090D01*
X004081Y020081D02*
X004307Y020081D01*
X004081Y020081D02*
X004081Y020357D01*
X004307Y020357D01*
X004307Y020081D01*
X004307Y020155D02*
X004081Y020155D01*
X004081Y020229D02*
X004307Y020229D01*
X004307Y020303D02*
X004081Y020303D01*
D34*
X003994Y018290D03*
X005694Y018290D03*
M02*
