G75*
%MOIN*%
%OFA0B0*%
%FSLAX24Y24*%
%IPPOS*%
%LPD*%
%AMOC8*
5,1,8,0,0,1.08239X$1,22.5*
%
%ADD10R,0.0260X0.0760*%
%ADD11R,0.0760X0.0260*%
%ADD12C,0.0088*%
%ADD13R,0.0472X0.0866*%
%ADD14R,0.0472X0.0787*%
%ADD15R,0.0600X0.0250*%
%ADD16R,0.1000X0.1200*%
%ADD17R,0.1000X0.1250*%
%ADD18C,0.0100*%
%ADD19R,0.0984X0.1260*%
%ADD20R,0.1080X0.0850*%
%ADD21C,0.0150*%
%ADD22C,0.0200*%
%ADD23R,0.0220X0.0500*%
%ADD24R,0.0500X0.0220*%
%ADD25R,0.1300X0.0800*%
%ADD26R,0.0240X0.0870*%
%ADD27R,0.1260X0.0866*%
%ADD28R,0.1969X0.1772*%
%ADD29R,0.0945X0.0945*%
%ADD30R,0.0472X0.0217*%
%ADD31R,0.0400X0.0450*%
%ADD32R,0.0500X0.0500*%
%ADD33C,0.0075*%
%ADD34R,0.0700X0.0800*%
D10*
X012656Y002911D03*
X013050Y002911D03*
X013443Y002911D03*
X013837Y002911D03*
X014231Y002911D03*
X014625Y002911D03*
X015018Y002911D03*
X015412Y002911D03*
X015806Y002911D03*
X016199Y002911D03*
X016593Y002911D03*
X016987Y002911D03*
X017380Y002911D03*
X017774Y002911D03*
X018168Y002911D03*
X018562Y002911D03*
X018955Y002911D03*
X018955Y012360D03*
X018562Y012360D03*
X018168Y012360D03*
X017774Y012360D03*
X017380Y012360D03*
X016987Y012360D03*
X016593Y012360D03*
X016199Y012360D03*
X015806Y012360D03*
X015412Y012360D03*
X015018Y012360D03*
X014625Y012360D03*
X014231Y012360D03*
X013837Y012360D03*
X013443Y012360D03*
X013050Y012360D03*
X012656Y012360D03*
D11*
X011081Y010785D03*
X011081Y010391D03*
X011081Y009998D03*
X011081Y009604D03*
X011081Y009210D03*
X011081Y008816D03*
X011081Y008423D03*
X011081Y008029D03*
X011081Y007635D03*
X011081Y007242D03*
X011081Y006848D03*
X011081Y006454D03*
X011081Y006061D03*
X011081Y005667D03*
X011081Y005273D03*
X011081Y004879D03*
X011081Y004486D03*
X020530Y004486D03*
X020530Y004879D03*
X020530Y005273D03*
X020530Y005667D03*
X020530Y006061D03*
X020530Y006454D03*
X020530Y006848D03*
X020530Y007242D03*
X020530Y007635D03*
X020530Y008029D03*
X020530Y008423D03*
X020530Y008816D03*
X020530Y009210D03*
X020530Y009604D03*
X020530Y009998D03*
X020530Y010391D03*
X020530Y010785D03*
D12*
X021379Y013552D02*
X021379Y013814D01*
X021379Y013552D02*
X021117Y013552D01*
X021117Y013814D01*
X021379Y013814D01*
X021379Y013639D02*
X021117Y013639D01*
X021117Y013726D02*
X021379Y013726D01*
X021379Y013813D02*
X021117Y013813D01*
X021379Y014152D02*
X021379Y014414D01*
X021379Y014152D02*
X021117Y014152D01*
X021117Y014414D01*
X021379Y014414D01*
X021379Y014239D02*
X021117Y014239D01*
X021117Y014326D02*
X021379Y014326D01*
X021379Y014413D02*
X021117Y014413D01*
X021991Y014414D02*
X021991Y014152D01*
X021729Y014152D01*
X021729Y014414D01*
X021991Y014414D01*
X021991Y014239D02*
X021729Y014239D01*
X021729Y014326D02*
X021991Y014326D01*
X021991Y014413D02*
X021729Y014413D01*
X021991Y013814D02*
X021991Y013552D01*
X021729Y013552D01*
X021729Y013814D01*
X021991Y013814D01*
X021991Y013639D02*
X021729Y013639D01*
X021729Y013726D02*
X021991Y013726D01*
X021991Y013813D02*
X021729Y013813D01*
X017626Y014948D02*
X017626Y015210D01*
X017626Y014948D02*
X017364Y014948D01*
X017364Y015210D01*
X017626Y015210D01*
X017626Y015035D02*
X017364Y015035D01*
X017364Y015122D02*
X017626Y015122D01*
X017626Y015209D02*
X017364Y015209D01*
X017626Y015548D02*
X017626Y015810D01*
X017626Y015548D02*
X017364Y015548D01*
X017364Y015810D01*
X017626Y015810D01*
X017626Y015635D02*
X017364Y015635D01*
X017364Y015722D02*
X017626Y015722D01*
X017626Y015809D02*
X017364Y015809D01*
X016424Y014349D02*
X016424Y014087D01*
X016424Y014349D02*
X016686Y014349D01*
X016686Y014087D01*
X016424Y014087D01*
X016424Y014174D02*
X016686Y014174D01*
X016686Y014261D02*
X016424Y014261D01*
X016424Y014348D02*
X016686Y014348D01*
X016424Y013749D02*
X016424Y013487D01*
X016424Y013749D02*
X016686Y013749D01*
X016686Y013487D01*
X016424Y013487D01*
X016424Y013574D02*
X016686Y013574D01*
X016686Y013661D02*
X016424Y013661D01*
X016424Y013748D02*
X016686Y013748D01*
X015440Y014961D02*
X015440Y015223D01*
X015702Y015223D01*
X015702Y014961D01*
X015440Y014961D01*
X015440Y015048D02*
X015702Y015048D01*
X015702Y015135D02*
X015440Y015135D01*
X015440Y015222D02*
X015702Y015222D01*
X015440Y015561D02*
X015440Y015823D01*
X015702Y015823D01*
X015702Y015561D01*
X015440Y015561D01*
X015440Y015648D02*
X015702Y015648D01*
X015702Y015735D02*
X015440Y015735D01*
X015440Y015822D02*
X015702Y015822D01*
X015025Y015826D02*
X015025Y015564D01*
X014763Y015564D01*
X014763Y015826D01*
X015025Y015826D01*
X015025Y015651D02*
X014763Y015651D01*
X014763Y015738D02*
X015025Y015738D01*
X015025Y015825D02*
X014763Y015825D01*
X015025Y015226D02*
X015025Y014964D01*
X014763Y014964D01*
X014763Y015226D01*
X015025Y015226D01*
X015025Y015051D02*
X014763Y015051D01*
X014763Y015138D02*
X015025Y015138D01*
X015025Y015225D02*
X014763Y015225D01*
X014783Y014349D02*
X014783Y014087D01*
X014783Y014349D02*
X015045Y014349D01*
X015045Y014087D01*
X014783Y014087D01*
X014783Y014174D02*
X015045Y014174D01*
X015045Y014261D02*
X014783Y014261D01*
X014783Y014348D02*
X015045Y014348D01*
X014783Y013749D02*
X014783Y013487D01*
X014783Y013749D02*
X015045Y013749D01*
X015045Y013487D01*
X014783Y013487D01*
X014783Y013574D02*
X015045Y013574D01*
X015045Y013661D02*
X014783Y013661D01*
X014783Y013748D02*
X015045Y013748D01*
X010425Y012464D02*
X010163Y012464D01*
X010163Y012726D01*
X010425Y012726D01*
X010425Y012464D01*
X010425Y012551D02*
X010163Y012551D01*
X010163Y012638D02*
X010425Y012638D01*
X010425Y012725D02*
X010163Y012725D01*
X009825Y012464D02*
X009563Y012464D01*
X009563Y012726D01*
X009825Y012726D01*
X009825Y012464D01*
X009825Y012551D02*
X009563Y012551D01*
X009563Y012638D02*
X009825Y012638D01*
X009825Y012725D02*
X009563Y012725D01*
X009469Y014463D02*
X009731Y014463D01*
X009469Y014463D02*
X009469Y014725D01*
X009731Y014725D01*
X009731Y014463D01*
X009731Y014550D02*
X009469Y014550D01*
X009469Y014637D02*
X009731Y014637D01*
X009731Y014724D02*
X009469Y014724D01*
X009469Y015319D02*
X009731Y015319D01*
X009731Y015057D01*
X009469Y015057D01*
X009469Y015319D01*
X009469Y015144D02*
X009731Y015144D01*
X009731Y015231D02*
X009469Y015231D01*
X009469Y015318D02*
X009731Y015318D01*
X009725Y015926D02*
X009463Y015926D01*
X009725Y015926D02*
X009725Y015664D01*
X009463Y015664D01*
X009463Y015926D01*
X009463Y015751D02*
X009725Y015751D01*
X009725Y015838D02*
X009463Y015838D01*
X009463Y015925D02*
X009725Y015925D01*
X009734Y016258D02*
X009472Y016258D01*
X009472Y016520D01*
X009734Y016520D01*
X009734Y016258D01*
X009734Y016345D02*
X009472Y016345D01*
X009472Y016432D02*
X009734Y016432D01*
X009734Y016519D02*
X009472Y016519D01*
X009463Y017126D02*
X009725Y017126D01*
X009725Y016864D01*
X009463Y016864D01*
X009463Y017126D01*
X009463Y016951D02*
X009725Y016951D01*
X009725Y017038D02*
X009463Y017038D01*
X009463Y017125D02*
X009725Y017125D01*
X010063Y017126D02*
X010325Y017126D01*
X010325Y016864D01*
X010063Y016864D01*
X010063Y017126D01*
X010063Y016951D02*
X010325Y016951D01*
X010325Y017038D02*
X010063Y017038D01*
X010063Y017125D02*
X010325Y017125D01*
X010321Y017727D02*
X010059Y017727D01*
X010321Y017727D02*
X010321Y017465D01*
X010059Y017465D01*
X010059Y017727D01*
X010059Y017552D02*
X010321Y017552D01*
X010321Y017639D02*
X010059Y017639D01*
X010059Y017726D02*
X010321Y017726D01*
X009721Y017727D02*
X009459Y017727D01*
X009721Y017727D02*
X009721Y017465D01*
X009459Y017465D01*
X009459Y017727D01*
X009459Y017552D02*
X009721Y017552D01*
X009721Y017639D02*
X009459Y017639D01*
X009459Y017726D02*
X009721Y017726D01*
X009424Y018356D02*
X009162Y018356D01*
X009424Y018356D02*
X009424Y018094D01*
X009162Y018094D01*
X009162Y018356D01*
X009162Y018181D02*
X009424Y018181D01*
X009424Y018268D02*
X009162Y018268D01*
X009162Y018355D02*
X009424Y018355D01*
X008824Y018356D02*
X008562Y018356D01*
X008824Y018356D02*
X008824Y018094D01*
X008562Y018094D01*
X008562Y018356D01*
X008562Y018181D02*
X008824Y018181D01*
X008824Y018268D02*
X008562Y018268D01*
X008562Y018355D02*
X008824Y018355D01*
X007863Y018376D02*
X007863Y018114D01*
X007863Y018376D02*
X008125Y018376D01*
X008125Y018114D01*
X007863Y018114D01*
X007863Y018201D02*
X008125Y018201D01*
X008125Y018288D02*
X007863Y018288D01*
X007863Y018375D02*
X008125Y018375D01*
X007863Y018714D02*
X007863Y018976D01*
X008125Y018976D01*
X008125Y018714D01*
X007863Y018714D01*
X007863Y018801D02*
X008125Y018801D01*
X008125Y018888D02*
X007863Y018888D01*
X007863Y018975D02*
X008125Y018975D01*
X007213Y018976D02*
X007213Y018714D01*
X007213Y018976D02*
X007475Y018976D01*
X007475Y018714D01*
X007213Y018714D01*
X007213Y018801D02*
X007475Y018801D01*
X007475Y018888D02*
X007213Y018888D01*
X007213Y018975D02*
X007475Y018975D01*
X007213Y018376D02*
X007213Y018114D01*
X007213Y018376D02*
X007475Y018376D01*
X007475Y018114D01*
X007213Y018114D01*
X007213Y018201D02*
X007475Y018201D01*
X007475Y018288D02*
X007213Y018288D01*
X007213Y018375D02*
X007475Y018375D01*
X006563Y018376D02*
X006563Y018114D01*
X006563Y018376D02*
X006825Y018376D01*
X006825Y018114D01*
X006563Y018114D01*
X006563Y018201D02*
X006825Y018201D01*
X006825Y018288D02*
X006563Y018288D01*
X006563Y018375D02*
X006825Y018375D01*
X006563Y018714D02*
X006563Y018976D01*
X006825Y018976D01*
X006825Y018714D01*
X006563Y018714D01*
X006563Y018801D02*
X006825Y018801D01*
X006825Y018888D02*
X006563Y018888D01*
X006563Y018975D02*
X006825Y018975D01*
X005875Y018064D02*
X005613Y018064D01*
X005613Y018326D01*
X005875Y018326D01*
X005875Y018064D01*
X005875Y018151D02*
X005613Y018151D01*
X005613Y018238D02*
X005875Y018238D01*
X005875Y018325D02*
X005613Y018325D01*
X005275Y018064D02*
X005013Y018064D01*
X005013Y018326D01*
X005275Y018326D01*
X005275Y018064D01*
X005275Y018151D02*
X005013Y018151D01*
X005013Y018238D02*
X005275Y018238D01*
X005275Y018325D02*
X005013Y018325D01*
X004675Y018326D02*
X004413Y018326D01*
X004675Y018326D02*
X004675Y018064D01*
X004413Y018064D01*
X004413Y018326D01*
X004413Y018151D02*
X004675Y018151D01*
X004675Y018238D02*
X004413Y018238D01*
X004413Y018325D02*
X004675Y018325D01*
X004075Y018326D02*
X003813Y018326D01*
X004075Y018326D02*
X004075Y018064D01*
X003813Y018064D01*
X003813Y018326D01*
X003813Y018151D02*
X004075Y018151D01*
X004075Y018238D02*
X003813Y018238D01*
X003813Y018325D02*
X004075Y018325D01*
X002871Y018406D02*
X002609Y018406D01*
X002609Y018668D01*
X002871Y018668D01*
X002871Y018406D01*
X002871Y018493D02*
X002609Y018493D01*
X002609Y018580D02*
X002871Y018580D01*
X002871Y018667D02*
X002609Y018667D01*
X002271Y018406D02*
X002009Y018406D01*
X002009Y018668D01*
X002271Y018668D01*
X002271Y018406D01*
X002271Y018493D02*
X002009Y018493D01*
X002009Y018580D02*
X002271Y018580D01*
X002271Y018667D02*
X002009Y018667D01*
X002013Y019014D02*
X002275Y019014D01*
X002013Y019014D02*
X002013Y019276D01*
X002275Y019276D01*
X002275Y019014D01*
X002275Y019101D02*
X002013Y019101D01*
X002013Y019188D02*
X002275Y019188D01*
X002275Y019275D02*
X002013Y019275D01*
X002011Y019848D02*
X002273Y019848D01*
X002273Y019586D01*
X002011Y019586D01*
X002011Y019848D01*
X002011Y019673D02*
X002273Y019673D01*
X002273Y019760D02*
X002011Y019760D01*
X002011Y019847D02*
X002273Y019847D01*
X002611Y019848D02*
X002873Y019848D01*
X002873Y019586D01*
X002611Y019586D01*
X002611Y019848D01*
X002611Y019673D02*
X002873Y019673D01*
X002873Y019760D02*
X002611Y019760D01*
X002611Y019847D02*
X002873Y019847D01*
X002875Y019014D02*
X002613Y019014D01*
X002613Y019276D01*
X002875Y019276D01*
X002875Y019014D01*
X002875Y019101D02*
X002613Y019101D01*
X002613Y019188D02*
X002875Y019188D01*
X002875Y019275D02*
X002613Y019275D01*
X001625Y019014D02*
X001363Y019014D01*
X001363Y019276D01*
X001625Y019276D01*
X001625Y019014D01*
X001625Y019101D02*
X001363Y019101D01*
X001363Y019188D02*
X001625Y019188D01*
X001625Y019275D02*
X001363Y019275D01*
X001358Y019848D02*
X001620Y019848D01*
X001620Y019586D01*
X001358Y019586D01*
X001358Y019848D01*
X001358Y019673D02*
X001620Y019673D01*
X001620Y019760D02*
X001358Y019760D01*
X001358Y019847D02*
X001620Y019847D01*
X001020Y019848D02*
X000758Y019848D01*
X001020Y019848D02*
X001020Y019586D01*
X000758Y019586D01*
X000758Y019848D01*
X000758Y019673D02*
X001020Y019673D01*
X001020Y019760D02*
X000758Y019760D01*
X000758Y019847D02*
X001020Y019847D01*
X001025Y019014D02*
X000763Y019014D01*
X000763Y019276D01*
X001025Y019276D01*
X001025Y019014D01*
X001025Y019101D02*
X000763Y019101D01*
X000763Y019188D02*
X001025Y019188D01*
X001025Y019275D02*
X000763Y019275D01*
X000763Y018676D02*
X001025Y018676D01*
X001025Y018414D01*
X000763Y018414D01*
X000763Y018676D01*
X000763Y018501D02*
X001025Y018501D01*
X001025Y018588D02*
X000763Y018588D01*
X000763Y018675D02*
X001025Y018675D01*
X001363Y018676D02*
X001625Y018676D01*
X001625Y018414D01*
X001363Y018414D01*
X001363Y018676D01*
X001363Y018501D02*
X001625Y018501D01*
X001625Y018588D02*
X001363Y018588D01*
X001363Y018675D02*
X001625Y018675D01*
X005031Y020467D02*
X005293Y020467D01*
X005293Y020205D01*
X005031Y020205D01*
X005031Y020467D01*
X005031Y020292D02*
X005293Y020292D01*
X005293Y020379D02*
X005031Y020379D01*
X005031Y020466D02*
X005293Y020466D01*
X005631Y020467D02*
X005893Y020467D01*
X005893Y020205D01*
X005631Y020205D01*
X005631Y020467D01*
X005631Y020292D02*
X005893Y020292D01*
X005893Y020379D02*
X005631Y020379D01*
X005631Y020466D02*
X005893Y020466D01*
X005893Y021255D02*
X005631Y021255D01*
X005893Y021255D02*
X005893Y020993D01*
X005631Y020993D01*
X005631Y021255D01*
X005631Y021080D02*
X005893Y021080D01*
X005893Y021167D02*
X005631Y021167D01*
X005631Y021254D02*
X005893Y021254D01*
X005893Y022042D02*
X005631Y022042D01*
X005893Y022042D02*
X005893Y021780D01*
X005631Y021780D01*
X005631Y022042D01*
X005631Y021867D02*
X005893Y021867D01*
X005893Y021954D02*
X005631Y021954D01*
X005631Y022041D02*
X005893Y022041D01*
X005893Y022567D02*
X005631Y022567D01*
X005631Y022829D01*
X005893Y022829D01*
X005893Y022567D01*
X005893Y022654D02*
X005631Y022654D01*
X005631Y022741D02*
X005893Y022741D01*
X005893Y022828D02*
X005631Y022828D01*
X005293Y022567D02*
X005031Y022567D01*
X005031Y022829D01*
X005293Y022829D01*
X005293Y022567D01*
X005293Y022654D02*
X005031Y022654D01*
X005031Y022741D02*
X005293Y022741D01*
X005293Y022828D02*
X005031Y022828D01*
X005031Y023355D02*
X005293Y023355D01*
X005031Y023355D02*
X005031Y023617D01*
X005293Y023617D01*
X005293Y023355D01*
X005293Y023442D02*
X005031Y023442D01*
X005031Y023529D02*
X005293Y023529D01*
X005293Y023616D02*
X005031Y023616D01*
X005631Y023355D02*
X005893Y023355D01*
X005631Y023355D02*
X005631Y023617D01*
X005893Y023617D01*
X005893Y023355D01*
X005893Y023442D02*
X005631Y023442D01*
X005631Y023529D02*
X005893Y023529D01*
X005893Y023616D02*
X005631Y023616D01*
X005293Y022042D02*
X005031Y022042D01*
X005293Y022042D02*
X005293Y021780D01*
X005031Y021780D01*
X005031Y022042D01*
X005031Y021867D02*
X005293Y021867D01*
X005293Y021954D02*
X005031Y021954D01*
X005031Y022041D02*
X005293Y022041D01*
X005293Y021255D02*
X005031Y021255D01*
X005293Y021255D02*
X005293Y020993D01*
X005031Y020993D01*
X005031Y021255D01*
X005031Y021080D02*
X005293Y021080D01*
X005293Y021167D02*
X005031Y021167D01*
X005031Y021254D02*
X005293Y021254D01*
X010072Y016258D02*
X010334Y016258D01*
X010072Y016258D02*
X010072Y016520D01*
X010334Y016520D01*
X010334Y016258D01*
X010334Y016345D02*
X010072Y016345D01*
X010072Y016432D02*
X010334Y016432D01*
X010334Y016519D02*
X010072Y016519D01*
X010063Y015926D02*
X010325Y015926D01*
X010325Y015664D01*
X010063Y015664D01*
X010063Y015926D01*
X010063Y015751D02*
X010325Y015751D01*
X010325Y015838D02*
X010063Y015838D01*
X010063Y015925D02*
X010325Y015925D01*
X010331Y015319D02*
X010069Y015319D01*
X010331Y015319D02*
X010331Y015057D01*
X010069Y015057D01*
X010069Y015319D01*
X010069Y015144D02*
X010331Y015144D01*
X010331Y015231D02*
X010069Y015231D01*
X010069Y015318D02*
X010331Y015318D01*
X010331Y014463D02*
X010069Y014463D01*
X010069Y014725D01*
X010331Y014725D01*
X010331Y014463D01*
X010331Y014550D02*
X010069Y014550D01*
X010069Y014637D02*
X010331Y014637D01*
X010331Y014724D02*
X010069Y014724D01*
X004563Y014826D02*
X004563Y014564D01*
X004563Y014826D02*
X004825Y014826D01*
X004825Y014564D01*
X004563Y014564D01*
X004563Y014651D02*
X004825Y014651D01*
X004825Y014738D02*
X004563Y014738D01*
X004563Y014825D02*
X004825Y014825D01*
X004563Y014226D02*
X004563Y013964D01*
X004563Y014226D02*
X004825Y014226D01*
X004825Y013964D01*
X004563Y013964D01*
X004563Y014051D02*
X004825Y014051D01*
X004825Y014138D02*
X004563Y014138D01*
X004563Y014225D02*
X004825Y014225D01*
X009437Y005573D02*
X009699Y005573D01*
X009699Y005311D01*
X009437Y005311D01*
X009437Y005573D01*
X009437Y005398D02*
X009699Y005398D01*
X009699Y005485D02*
X009437Y005485D01*
X009437Y005572D02*
X009699Y005572D01*
X010037Y005573D02*
X010299Y005573D01*
X010299Y005311D01*
X010037Y005311D01*
X010037Y005573D01*
X010037Y005398D02*
X010299Y005398D01*
X010299Y005485D02*
X010037Y005485D01*
X010037Y005572D02*
X010299Y005572D01*
X010293Y004730D02*
X010031Y004730D01*
X010031Y004992D01*
X010293Y004992D01*
X010293Y004730D01*
X010293Y004817D02*
X010031Y004817D01*
X010031Y004904D02*
X010293Y004904D01*
X010293Y004991D02*
X010031Y004991D01*
X009693Y004730D02*
X009431Y004730D01*
X009431Y004992D01*
X009693Y004992D01*
X009693Y004730D01*
X009693Y004817D02*
X009431Y004817D01*
X009431Y004904D02*
X009693Y004904D01*
X009693Y004991D02*
X009431Y004991D01*
X009431Y004142D02*
X009693Y004142D01*
X009431Y004142D02*
X009431Y004404D01*
X009693Y004404D01*
X009693Y004142D01*
X009693Y004229D02*
X009431Y004229D01*
X009431Y004316D02*
X009693Y004316D01*
X009693Y004403D02*
X009431Y004403D01*
X009424Y003541D02*
X009686Y003541D01*
X009424Y003541D02*
X009424Y003803D01*
X009686Y003803D01*
X009686Y003541D01*
X009686Y003628D02*
X009424Y003628D01*
X009424Y003715D02*
X009686Y003715D01*
X009686Y003802D02*
X009424Y003802D01*
X010024Y003541D02*
X010286Y003541D01*
X010024Y003541D02*
X010024Y003803D01*
X010286Y003803D01*
X010286Y003541D01*
X010286Y003628D02*
X010024Y003628D01*
X010024Y003715D02*
X010286Y003715D01*
X010286Y003802D02*
X010024Y003802D01*
X010031Y004142D02*
X010293Y004142D01*
X010031Y004142D02*
X010031Y004404D01*
X010293Y004404D01*
X010293Y004142D01*
X010293Y004229D02*
X010031Y004229D01*
X010031Y004316D02*
X010293Y004316D01*
X010293Y004403D02*
X010031Y004403D01*
X022175Y005064D02*
X022175Y005326D01*
X022175Y005064D02*
X021913Y005064D01*
X021913Y005326D01*
X022175Y005326D01*
X022175Y005151D02*
X021913Y005151D01*
X021913Y005238D02*
X022175Y005238D01*
X022175Y005325D02*
X021913Y005325D01*
X022175Y005664D02*
X022175Y005926D01*
X022175Y005664D02*
X021913Y005664D01*
X021913Y005926D01*
X022175Y005926D01*
X022175Y005751D02*
X021913Y005751D01*
X021913Y005838D02*
X022175Y005838D01*
X022175Y005925D02*
X021913Y005925D01*
X022775Y005926D02*
X022775Y005664D01*
X022513Y005664D01*
X022513Y005926D01*
X022775Y005926D01*
X022775Y005751D02*
X022513Y005751D01*
X022513Y005838D02*
X022775Y005838D01*
X022775Y005925D02*
X022513Y005925D01*
X022775Y005326D02*
X022775Y005064D01*
X022513Y005064D01*
X022513Y005326D01*
X022775Y005326D01*
X022775Y005151D02*
X022513Y005151D01*
X022513Y005238D02*
X022775Y005238D01*
X022775Y005325D02*
X022513Y005325D01*
X022646Y019390D02*
X022384Y019390D01*
X022384Y019652D01*
X022646Y019652D01*
X022646Y019390D01*
X022646Y019477D02*
X022384Y019477D01*
X022384Y019564D02*
X022646Y019564D01*
X022646Y019651D02*
X022384Y019651D01*
X022046Y019390D02*
X021784Y019390D01*
X021784Y019652D01*
X022046Y019652D01*
X022046Y019390D01*
X022046Y019477D02*
X021784Y019477D01*
X021784Y019564D02*
X022046Y019564D01*
X022046Y019651D02*
X021784Y019651D01*
X021792Y020002D02*
X022054Y020002D01*
X021792Y020002D02*
X021792Y020264D01*
X022054Y020264D01*
X022054Y020002D01*
X022054Y020089D02*
X021792Y020089D01*
X021792Y020176D02*
X022054Y020176D01*
X022054Y020263D02*
X021792Y020263D01*
X022392Y020002D02*
X022654Y020002D01*
X022392Y020002D02*
X022392Y020264D01*
X022654Y020264D01*
X022654Y020002D01*
X022654Y020089D02*
X022392Y020089D01*
X022392Y020176D02*
X022654Y020176D01*
X022654Y020263D02*
X022392Y020263D01*
X020533Y021945D02*
X020271Y021945D01*
X020533Y021945D02*
X020533Y021683D01*
X020271Y021683D01*
X020271Y021945D01*
X020271Y021770D02*
X020533Y021770D01*
X020533Y021857D02*
X020271Y021857D01*
X020271Y021944D02*
X020533Y021944D01*
X019933Y021945D02*
X019671Y021945D01*
X019933Y021945D02*
X019933Y021683D01*
X019671Y021683D01*
X019671Y021945D01*
X019671Y021770D02*
X019933Y021770D01*
X019933Y021857D02*
X019671Y021857D01*
X019671Y021944D02*
X019933Y021944D01*
X018423Y020666D02*
X018423Y020404D01*
X018161Y020404D01*
X018161Y020666D01*
X018423Y020666D01*
X018423Y020491D02*
X018161Y020491D01*
X018161Y020578D02*
X018423Y020578D01*
X018423Y020665D02*
X018161Y020665D01*
X018423Y020066D02*
X018423Y019804D01*
X018161Y019804D01*
X018161Y020066D01*
X018423Y020066D01*
X018423Y019891D02*
X018161Y019891D01*
X018161Y019978D02*
X018423Y019978D01*
X018423Y020065D02*
X018161Y020065D01*
D13*
X005050Y002211D03*
X006014Y002195D03*
X007038Y002211D03*
D14*
X006971Y012160D03*
X006042Y012160D03*
X005081Y012152D03*
D15*
X019080Y019594D03*
X019080Y020094D03*
X019080Y020594D03*
X019080Y021094D03*
X021180Y021094D03*
X021180Y020594D03*
X021180Y020094D03*
X021180Y019594D03*
D16*
X022414Y015593D03*
D17*
X019914Y015593D03*
D18*
X017619Y014495D02*
X017619Y014195D01*
X017169Y014195D01*
X017169Y014495D01*
X017619Y014495D01*
X017619Y014294D02*
X017169Y014294D01*
X017169Y014393D02*
X017619Y014393D01*
X017619Y014492D02*
X017169Y014492D01*
X017619Y013795D02*
X017619Y013495D01*
X017169Y013495D01*
X017169Y013795D01*
X017619Y013795D01*
X017619Y013594D02*
X017169Y013594D01*
X017169Y013693D02*
X017619Y013693D01*
X017619Y013792D02*
X017169Y013792D01*
X015969Y013795D02*
X015969Y013495D01*
X015519Y013495D01*
X015519Y013795D01*
X015969Y013795D01*
X015969Y013594D02*
X015519Y013594D01*
X015519Y013693D02*
X015969Y013693D01*
X015969Y013792D02*
X015519Y013792D01*
X015969Y014195D02*
X015969Y014495D01*
X015969Y014195D02*
X015519Y014195D01*
X015519Y014495D01*
X015969Y014495D01*
X015969Y014294D02*
X015519Y014294D01*
X015519Y014393D02*
X015969Y014393D01*
X015969Y014492D02*
X015519Y014492D01*
X022823Y014433D02*
X022823Y014133D01*
X022373Y014133D01*
X022373Y014433D01*
X022823Y014433D01*
X022823Y014232D02*
X022373Y014232D01*
X022373Y014331D02*
X022823Y014331D01*
X022823Y014430D02*
X022373Y014430D01*
X022823Y013733D02*
X022823Y013433D01*
X022373Y013433D01*
X022373Y013733D01*
X022823Y013733D01*
X022823Y013532D02*
X022373Y013532D01*
X022373Y013631D02*
X022823Y013631D01*
X022823Y013730D02*
X022373Y013730D01*
X021569Y005945D02*
X021569Y005645D01*
X021119Y005645D01*
X021119Y005945D01*
X021569Y005945D01*
X021569Y005744D02*
X021119Y005744D01*
X021119Y005843D02*
X021569Y005843D01*
X021569Y005942D02*
X021119Y005942D01*
X021569Y005245D02*
X021569Y004945D01*
X021119Y004945D01*
X021119Y005245D01*
X021569Y005245D01*
X021569Y005044D02*
X021119Y005044D01*
X021119Y005143D02*
X021569Y005143D01*
X021569Y005242D02*
X021119Y005242D01*
X018848Y021562D02*
X018548Y021562D01*
X018548Y022012D01*
X018848Y022012D01*
X018848Y021562D01*
X018848Y021661D02*
X018548Y021661D01*
X018548Y021760D02*
X018848Y021760D01*
X018848Y021859D02*
X018548Y021859D01*
X018548Y021958D02*
X018848Y021958D01*
X018148Y021562D02*
X017848Y021562D01*
X017848Y022012D01*
X018148Y022012D01*
X018148Y021562D01*
X018148Y021661D02*
X017848Y021661D01*
X017848Y021760D02*
X018148Y021760D01*
X018148Y021859D02*
X017848Y021859D01*
X017848Y021958D02*
X018148Y021958D01*
D19*
X020175Y017842D03*
X022419Y017842D03*
D20*
X018482Y018401D03*
X018482Y016661D03*
D21*
X021537Y008110D02*
X022287Y008110D01*
X021537Y008110D02*
X021537Y008260D01*
X022287Y008260D01*
X022287Y008110D01*
X022287Y008259D02*
X021537Y008259D01*
X021537Y007010D02*
X022287Y007010D01*
X021537Y007010D02*
X021537Y007160D01*
X022287Y007160D01*
X022287Y007010D01*
X022287Y007159D02*
X021537Y007159D01*
D22*
X021412Y007735D02*
X021212Y007735D01*
X021412Y007735D02*
X021412Y007535D01*
X021212Y007535D01*
X021212Y007735D01*
X021212Y007734D02*
X021412Y007734D01*
X022412Y007735D02*
X022612Y007735D01*
X022612Y007535D01*
X022412Y007535D01*
X022412Y007735D01*
X022412Y007734D02*
X022612Y007734D01*
D23*
X008238Y014215D03*
X007923Y014215D03*
X007608Y014215D03*
X007293Y014215D03*
X006978Y014215D03*
X006663Y014215D03*
X006348Y014215D03*
X006033Y014215D03*
X006033Y017595D03*
X006348Y017595D03*
X006663Y017595D03*
X006978Y017595D03*
X007293Y017595D03*
X007608Y017595D03*
X007923Y017595D03*
X008238Y017595D03*
D24*
X008826Y017007D03*
X008826Y016692D03*
X008826Y016377D03*
X008826Y016062D03*
X008826Y015747D03*
X008826Y015432D03*
X008826Y015117D03*
X008826Y014802D03*
X005446Y014802D03*
X005446Y015117D03*
X005446Y015432D03*
X005446Y015747D03*
X005446Y016062D03*
X005446Y016377D03*
X005446Y016692D03*
X005446Y017007D03*
D25*
X013677Y016926D03*
X013677Y019426D03*
D26*
X015480Y018776D03*
D27*
X016466Y018769D03*
D28*
X016230Y017155D03*
D29*
X015302Y023045D03*
X013569Y023045D03*
X017287Y023047D03*
X019019Y023047D03*
D30*
X010604Y013889D03*
X010604Y013141D03*
X009580Y013141D03*
X009580Y013515D03*
X009580Y013889D03*
D31*
X009344Y018795D03*
X008644Y018795D03*
X008994Y019595D03*
X002794Y020345D03*
X002094Y020345D03*
X001544Y020345D03*
X000844Y020345D03*
X001194Y021145D03*
X002444Y021145D03*
X016144Y014995D03*
X016844Y014995D03*
X016494Y015795D03*
D32*
X009794Y008645D03*
X009794Y007645D03*
X003994Y013995D03*
X003994Y014995D03*
D33*
X004081Y020198D02*
X004307Y020198D01*
X004081Y020198D02*
X004081Y020474D01*
X004307Y020474D01*
X004307Y020198D01*
X004307Y020272D02*
X004081Y020272D01*
X004081Y020346D02*
X004307Y020346D01*
X004307Y020420D02*
X004081Y020420D01*
X003707Y020198D02*
X003481Y020198D01*
X003481Y020474D01*
X003707Y020474D01*
X003707Y020198D01*
X003707Y020272D02*
X003481Y020272D01*
X003481Y020346D02*
X003707Y020346D01*
X003707Y020420D02*
X003481Y020420D01*
X003481Y020986D02*
X003707Y020986D01*
X003481Y020986D02*
X003481Y021262D01*
X003707Y021262D01*
X003707Y020986D01*
X003707Y021060D02*
X003481Y021060D01*
X003481Y021134D02*
X003707Y021134D01*
X003707Y021208D02*
X003481Y021208D01*
X003481Y021773D02*
X003707Y021773D01*
X003481Y021773D02*
X003481Y022049D01*
X003707Y022049D01*
X003707Y021773D01*
X003707Y021847D02*
X003481Y021847D01*
X003481Y021921D02*
X003707Y021921D01*
X003707Y021995D02*
X003481Y021995D01*
X003481Y022560D02*
X003707Y022560D01*
X003481Y022560D02*
X003481Y022836D01*
X003707Y022836D01*
X003707Y022560D01*
X003707Y022634D02*
X003481Y022634D01*
X003481Y022708D02*
X003707Y022708D01*
X003707Y022782D02*
X003481Y022782D01*
X003481Y023348D02*
X003707Y023348D01*
X003481Y023348D02*
X003481Y023624D01*
X003707Y023624D01*
X003707Y023348D01*
X003707Y023422D02*
X003481Y023422D01*
X003481Y023496D02*
X003707Y023496D01*
X003707Y023570D02*
X003481Y023570D01*
X004081Y023348D02*
X004307Y023348D01*
X004081Y023348D02*
X004081Y023624D01*
X004307Y023624D01*
X004307Y023348D01*
X004307Y023422D02*
X004081Y023422D01*
X004081Y023496D02*
X004307Y023496D01*
X004307Y023570D02*
X004081Y023570D01*
X004081Y022560D02*
X004307Y022560D01*
X004081Y022560D02*
X004081Y022836D01*
X004307Y022836D01*
X004307Y022560D01*
X004307Y022634D02*
X004081Y022634D01*
X004081Y022708D02*
X004307Y022708D01*
X004307Y022782D02*
X004081Y022782D01*
X004081Y021773D02*
X004307Y021773D01*
X004081Y021773D02*
X004081Y022049D01*
X004307Y022049D01*
X004307Y021773D01*
X004307Y021847D02*
X004081Y021847D01*
X004081Y021921D02*
X004307Y021921D01*
X004307Y021995D02*
X004081Y021995D01*
X004081Y020986D02*
X004307Y020986D01*
X004081Y020986D02*
X004081Y021262D01*
X004307Y021262D01*
X004307Y020986D01*
X004307Y021060D02*
X004081Y021060D01*
X004081Y021134D02*
X004307Y021134D01*
X004307Y021208D02*
X004081Y021208D01*
D34*
X003994Y019195D03*
X005694Y019195D03*
M02*
