%
M48
M72
T01C0.0118
T02C0.0120
T03C0.0150
T04C0.0394
T05C0.0400
T06C0.0472
T07C0.0591
%
T01
X10338Y10487
X10594Y10900
X10338Y11806
X10831Y12141
X10594Y12869
X11047Y13204
X9512Y12770
X9512Y11924
X8665Y11629
T02
X6429Y2369
X7429Y2369
X8479Y2369
X10979Y2669
X12079Y2869
X12579Y2869
X12579Y2369
X12079Y2369
X11129Y5419
X11079Y6019
X11079Y6369
X9622Y7625
X11079Y8369
X11079Y9119
X9588Y9559
X12329Y10619
X12729Y10619
X12729Y11119
X12879Y13569
X13079Y14269
X13479Y14269
X13479Y14669
X13079Y14669
X12279Y14369
X12079Y14869
X13329Y16369
X13329Y17119
X13329Y17869
X13329Y18619
X13329Y19369
X12579Y19369
X12579Y18619
X12579Y17869
X11829Y17869
X11829Y18619
X11829Y19369
X10779Y18919
X10529Y16819
X8829Y15869
X8479Y15619
X8829Y15369
X8479Y15119
X8829Y14869
X8829Y14469
X8729Y14069
X8079Y14369
X7629Y14069
X7379Y14369
X6429Y15069
X6229Y15419
X4929Y14269
X4629Y14019
X7079Y12669
X5129Y11469
X9329Y14119
X9682Y13094
X10398Y13830
X8679Y16469
X8279Y16469
X7179Y17869
X7829Y18169
X8429Y18169
X7229Y20019
X6879Y20069
X5929Y20469
X4779Y21219
X5629Y19319
X4629Y19119
X5329Y17869
X4179Y17519
X7229Y21569
X14479Y15319
X14479Y14694
X15079Y14694
X15929Y14569
X15929Y14219
X16029Y15019
X16729Y15019
X18229Y14669
X18279Y15119
X19579Y15369
X20079Y15369
X20579Y15369
X20579Y14869
X20579Y14369
X20079Y14369
X20079Y14869
X19579Y14869
X19429Y13569
X20079Y12869
X20579Y12869
X21079Y12869
X21579Y12869
X22079Y12869
X22079Y12369
X22079Y11919
X21579Y12369
X22529Y13969
X22779Y14219
X23029Y13969
X22579Y15119
X22579Y15619
X22579Y16119
X22079Y16119
X22079Y15619
X22079Y15119
X21579Y16119
X21079Y16119
X20579Y16119
X20529Y18419
X19829Y18419
X19829Y18969
X19179Y18969
X19179Y19469
X19179Y20019
X19179Y20519
X19531Y20566
X20829Y21619
X21329Y21619
X21829Y21619
X22329Y21619
X22829Y21619
X22829Y21119
X23329Y21119
X23329Y20619
X23829Y20619
X23829Y20119
X24329Y20119
X24379Y19469
X24379Y18869
X24279Y18269
X23329Y20119
X22329Y21119
X22329Y22119
X21829Y22119
X21829Y22619
X21329Y22619
X21329Y23119
X20829Y23119
X20329Y23119
X19829Y23119
X19329Y23119
X18829Y23119
X18329Y23119
X17829Y23119
X17329Y23119
X16829Y23119
X16329Y23119
X15829Y23119
X15829Y22619
X15329Y23119
X14829Y23119
X14829Y21669
X16629Y18119
X19179Y18419
X21329Y22119
X23579Y12369
X24079Y12369
X24554Y12369
X24554Y11869
X24079Y11869
X23579Y11869
X23579Y8919
X23579Y8519
X23579Y8119
X24079Y8119
X24079Y8519
X24529Y8119
X24079Y8919
X23079Y8919
X23079Y8519
X23079Y8119
X22579Y8119
X22579Y8519
X22579Y8919
X23179Y5719
X23529Y5519
X23179Y5319
X23079Y3869
X23579Y3869
X24079Y3869
X24079Y3369
X23579Y3369
X23079Y3369
X22579Y3369
X22129Y3419
X22579Y3869
X18579Y1369
X18579Y869
X18079Y869
X18079Y1369
X17579Y1369
X17579Y869
X17079Y869
X17079Y1369
X16579Y1369
X16579Y869
X16079Y869
X16079Y1369
X15579Y1369
X15579Y869
X16829Y12269
X17229Y12269
X18129Y12544
X19454Y12294
T03
X19429Y12994
X12579Y12119
X8429Y17569
T04
X12829Y20869
X14813Y20869
T05
X4313Y16671
X3313Y16671
X3413Y15671
X4413Y15671
X4313Y14671
X3313Y14671
X2702Y11944
X2602Y10944
X2702Y9944
X2602Y8944
X2702Y7944
X2602Y6944
T06
X8638Y20026
X9031Y20026
X17325Y20026
X17719Y20026
T07
X13394Y22506
X8861Y22506
M30
