%
M48
M72
T01C0.0118
T02C0.0120
T03C0.0150
T04C0.0394
T05C0.0400
T06C0.0472
T07C0.0591
%
T01
X7231Y11400
X7999Y12030
X8215Y12542
X9199Y13014
X9396Y11912
T02
X4994Y2140
X5994Y2140
X7044Y2140
X9544Y2440
X10644Y2640
X10644Y2140
X11144Y2140
X11144Y2640
X9694Y5190
X9644Y5790
X9644Y6140
X8188Y7396
X9644Y8140
X9644Y8890
X9644Y9640
X9644Y10390
X10894Y10390
X11294Y10390
X11294Y10890
X11444Y13340
X11644Y14040
X12044Y14040
X12044Y14440
X11644Y14440
X10844Y14140
X10644Y14640
X11894Y16140
X11894Y16890
X11894Y17640
X11144Y17640
X11144Y18390
X11894Y18390
X11894Y19140
X11144Y19140
X10394Y19140
X10394Y18390
X10394Y17640
X9344Y18690
X9094Y16590
X7394Y15640
X7044Y15390
X7394Y15140
X7044Y14890
X7394Y14640
X7394Y14240
X7294Y13840
X6644Y14140
X6194Y13840
X5944Y14140
X4994Y14840
X4794Y15190
X3494Y14040
X3194Y13790
X5644Y12440
X3694Y11240
X7894Y13890
X8169Y12865
X8964Y13601
X7244Y16240
X6844Y16240
X5744Y17640
X6394Y17940
X6994Y17940
X5794Y19790
X5444Y19840
X4494Y20240
X4194Y19090
X3194Y18890
X3894Y17640
X2744Y17290
X3344Y20990
X5794Y21340
X13044Y15090
X13044Y14465
X13644Y14465
X14494Y14340
X14494Y13990
X14594Y14790
X15294Y14790
X16794Y14440
X16844Y14890
X18144Y14640
X18144Y15140
X18644Y15140
X18644Y14640
X18644Y14140
X19144Y14140
X19144Y14640
X19144Y15140
X19144Y15890
X19644Y15890
X20144Y15890
X20644Y15890
X20644Y15390
X20644Y14890
X21144Y14890
X21144Y15390
X21144Y15890
X21344Y13990
X21094Y13740
X21594Y13740
X20644Y12640
X20144Y12640
X19644Y12640
X19144Y12640
X18644Y12640
X18019Y12065
X17994Y13340
X16694Y12315
X15794Y12040
X15394Y12040
X20144Y12140
X20644Y12140
X20644Y11690
X22144Y11640
X22144Y12140
X22644Y12140
X23119Y12140
X23119Y11640
X22644Y11640
X22644Y8690
X22644Y8290
X22644Y7890
X23094Y7890
X22144Y7890
X22144Y8290
X22144Y8690
X21644Y8690
X21644Y8290
X21644Y7890
X21144Y7890
X21144Y8290
X21144Y8690
X21744Y5490
X22094Y5290
X21744Y5090
X21644Y3640
X21144Y3640
X21144Y3140
X20694Y3190
X21644Y3140
X22144Y3140
X22144Y3640
X22644Y3640
X22644Y3140
X17144Y1140
X16644Y1140
X16144Y1140
X15644Y1140
X15144Y1140
X15144Y640
X15644Y640
X16144Y640
X16644Y640
X17144Y640
X14644Y640
X14144Y640
X14144Y1140
X14644Y1140
X8154Y9331
X15194Y17890
X17744Y18190
X17744Y18740
X17744Y19240
X17744Y19790
X17744Y20290
X18394Y18740
X18394Y18190
X19094Y18190
X20894Y20890
X20894Y21390
X20394Y21390
X19894Y21390
X19394Y21390
X19894Y21890
X19894Y22390
X20394Y22390
X20394Y21890
X20894Y21890
X21394Y21390
X21394Y20890
X21894Y20890
X21894Y20390
X21894Y19890
X22394Y19890
X22394Y20390
X22894Y19890
X22944Y19240
X22944Y18640
X22844Y18040
X19894Y22890
X19394Y22890
X18894Y22890
X18394Y22890
X17894Y22890
X17394Y22890
X16894Y22890
X16394Y22890
X15894Y22890
X15394Y22890
X14894Y22890
X14394Y22890
X13894Y22890
X13394Y22890
X14394Y22390
X13394Y21440
T03
X6994Y17340
X11144Y11890
X17994Y12765
T04
X13378Y20640
X11394Y20640
T05
X2879Y16442
X2979Y15442
X1979Y15442
X1879Y14442
X2879Y14442
X1879Y16442
X1268Y11715
X1168Y10715
X1268Y9715
X1168Y8715
X1268Y7715
X1168Y6715
T06
X7203Y19797
X7597Y19797
X15891Y19797
X16284Y19797
T07
X11959Y22277
X7427Y22277
M30
