%
M48
M72
T01C0.0118
T02C0.0120
T03C0.0315
T04C0.0394
T05C0.0400
T06C0.0472
T07C0.0591
%
T01
X9393Y4276
X9393Y4670
X9393Y5063
X9787Y5063
X9787Y4670
X9787Y4276
X9787Y5457
X9787Y5851
X9787Y6244
X9393Y6244
X9393Y5851
X9393Y5457
X9393Y6638
X9393Y7032
X9393Y7426
X9393Y7819
X9787Y7819
X9787Y7426
X9787Y7032
X9787Y6638
X6814Y10756
X5499Y11898
X5483Y12374
X6633Y12032
X7354Y13646
X6771Y13650
X5480Y13776
X4157Y13382
X4200Y12922
X3665Y14059
X2609Y14280
X8298Y15209
X8448Y15496
X8999Y15276
X10314Y15406
X10369Y14776
X10850Y13910
X11743Y13843
X11850Y13217
X11361Y12937
X11165Y11756
X11165Y11363
X11558Y11363
X11558Y11756
X11952Y11756
X11952Y11363
X12346Y11363
X12346Y11756
X12739Y11756
X12739Y11363
X15102Y12150
X15495Y12150
X15495Y11756
X15889Y11756
X16283Y11756
X16676Y11756
X16676Y12150
X16283Y12150
X15889Y12150
X15889Y12741
X15889Y13134
X16283Y13134
X16676Y13134
X16676Y12741
X16283Y12741
X15495Y12741
X15495Y13134
X15102Y13134
X15102Y12741
X14983Y13685
X14196Y14827
X14586Y16241
X14976Y16445
X13999Y17780
X10417Y19315
X9239Y19323
X9834Y17744
X8775Y17103
X10157Y16441
X10039Y13244
X9680Y12725
X17070Y11756
X19184Y12087
X19676Y10603
X21696Y11681
X22987Y11662
X22976Y10378
X22582Y9788
X22188Y9788
X22188Y10181
X22188Y9394
X22582Y9394
X21283Y7426
X21401Y2111
X21401Y1717
X21794Y1717
X21794Y2111
X22188Y2111
X22582Y2111
X22582Y1717
X22188Y1717
X22188Y1323
X22582Y1323
X22976Y1323
X22976Y1717
X22976Y2111
X21794Y1323
X21401Y1323
X10968Y1323
X10968Y930
X10968Y536
X10574Y536
X10574Y930
X10180Y930
X10180Y536
X10180Y1323
X10574Y1323
X10574Y1717
X10180Y1717
X10968Y1717
X10968Y2111
X19550Y15693
X19039Y18489
T02
X3487Y2032
X4354Y2859
X5968Y1953
X7228Y2465
X10259Y4000
X8015Y7465
X8684Y9433
X7424Y11284
X8212Y12465
X8920Y12898
X9235Y12701
X8684Y13370
X8172Y13922
X8448Y14158
X9039Y14158
X9078Y14630
X9983Y13685
X10613Y13095
X11200Y14347
X11184Y15016
X10751Y15433
X11019Y16059
X10456Y17780
X10850Y18292
X10850Y18764
X10928Y19119
X9865Y19237
X9472Y18922
X9157Y18292
X8881Y18016
X7739Y17150
X7661Y16796
X7857Y16363
X8487Y16284
X8842Y16075
X8531Y15945
X7582Y14394
X7228Y14394
X6480Y14473
X6519Y15103
X6519Y15457
X5928Y16048
X5535Y15890
X4944Y15300
X4708Y15615
X4787Y16087
X5731Y15063
X5102Y14355
X4865Y14079
X5102Y13804
X4629Y13725
X4865Y12977
X5102Y12347
X5771Y12622
X6440Y13607
X7424Y12977
X7739Y13607
X4826Y10654
X3645Y11284
X2621Y12544
X2188Y13134
X1519Y12937
X3448Y12898
X3920Y14355
X2976Y15024
X2228Y15024
X6086Y9591
X4944Y9394
X5889Y7504
X5574Y6048
X1873Y7504
X11755Y9512
X13763Y12426
X13133Y13449
X13133Y13961
X13684Y14827
X14629Y15575
X14905Y15811
X15338Y14867
X16913Y15063
X17385Y14867
X17464Y15496
X18172Y14985
X17385Y14119
X16913Y13646
X20928Y12426
X20298Y8056
X20298Y2544
X15141Y17465
X12228Y19119
T03
X11205Y16744
X9512Y16745
X3207Y20965
X3207Y22933
T04
X11491Y20642
X13475Y20642
T05
X1265Y11717
X1165Y10717
X1265Y9717
X1165Y8717
X1265Y7717
X1165Y6717
T06
X7200Y19799
X7594Y19799
X15887Y19799
X16281Y19799
T07
X11558Y22386
X7119Y22595
M30
