%
M48
M72
T01C0.0120
T02C0.0150
T03C0.0394
T04C0.0400
T05C0.0472
T06C0.0591
%
T01
X4994Y3045
X5994Y3045
X7044Y3045
X9544Y3345
X10644Y3545
X10644Y3045
X11144Y3045
X11144Y3545
X9694Y6095
X9644Y6695
X9644Y7045
X8188Y8301
X9644Y9045
X9644Y9795
X9644Y10545
X9644Y11295
X9144Y11295
X8154Y10235
X7194Y12345
X8194Y13745
X8944Y13845
X7894Y14795
X7394Y15145
X7394Y15545
X7044Y15795
X7394Y16045
X7044Y16295
X7394Y16545
X7244Y17145
X6844Y17145
X5744Y18545
X6394Y18845
X6994Y18845
X5794Y20695
X5444Y20745
X4494Y21145
X4194Y19995
X3194Y19795
X3894Y18545
X2744Y18195
X4794Y16095
X4994Y15745
X5944Y15045
X6194Y14745
X6644Y15045
X7294Y14745
X5644Y13345
X3694Y12145
X3194Y14695
X3494Y14945
X8944Y12545
X10894Y11295
X11294Y11295
X11294Y11795
X11444Y14245
X11644Y14945
X12044Y14945
X12044Y15345
X11644Y15345
X10844Y15045
X10644Y15545
X11894Y17045
X11894Y17795
X11894Y18545
X11144Y18545
X11144Y19295
X11144Y20045
X11894Y20045
X11894Y19295
X10394Y19295
X10394Y20045
X9344Y19595
X10394Y18545
X9094Y17495
X13044Y15995
X13044Y15370
X13644Y15370
X14494Y15245
X14494Y14895
X14594Y15695
X15294Y15695
X16794Y15345
X16844Y15795
X18144Y16045
X18144Y15545
X18644Y15545
X18644Y16045
X19144Y16045
X19144Y15545
X19144Y15045
X18644Y15045
X17994Y14245
X18644Y13545
X18019Y12970
X19144Y13545
X19644Y13545
X20144Y13545
X20144Y13045
X20644Y13045
X20644Y12595
X20644Y13545
X21094Y14645
X21344Y14895
X21594Y14645
X21144Y15795
X20644Y15795
X20644Y16295
X21144Y16295
X21144Y16795
X20644Y16795
X20144Y16795
X19644Y16795
X19144Y16795
X19094Y19095
X18394Y19095
X18394Y19645
X17744Y19645
X17744Y20145
X17744Y20695
X17744Y21195
X19394Y22295
X19894Y22295
X19894Y22795
X19894Y23295
X19894Y23795
X19394Y23795
X18894Y23795
X18394Y23795
X17894Y23795
X17394Y23795
X16894Y23795
X16394Y23795
X15894Y23795
X15394Y23795
X14894Y23795
X14394Y23795
X13894Y23795
X13394Y23795
X14394Y23295
X13394Y22345
X15194Y18795
X17744Y19095
X20894Y21795
X20894Y22295
X20394Y22295
X20394Y22795
X20394Y23295
X20894Y22795
X21394Y22295
X21394Y21795
X21894Y21795
X21894Y21295
X21894Y20795
X22394Y20795
X22394Y21295
X22894Y20795
X22944Y20145
X22944Y19545
X22844Y18945
X22644Y13045
X23119Y13045
X23119Y12545
X22644Y12545
X22144Y12545
X22144Y13045
X22144Y9595
X22144Y9195
X22144Y8795
X21644Y8795
X21644Y9195
X21644Y9595
X21144Y9595
X21144Y9195
X21144Y8795
X22644Y8795
X22644Y9195
X22644Y9595
X23094Y8795
X21744Y6395
X21744Y5995
X22094Y6195
X22144Y4545
X21644Y4545
X21144Y4545
X21144Y4045
X20694Y4095
X21644Y4045
X22144Y4045
X22644Y4045
X22644Y4545
X17144Y2045
X16644Y2045
X16144Y2045
X15644Y2045
X15144Y2045
X15144Y1545
X15644Y1545
X16144Y1545
X16644Y1545
X17144Y1545
X14644Y1545
X14144Y1545
X14144Y2045
X14644Y2045
X15394Y12945
X15794Y12945
X16694Y13220
X5794Y22245
X3344Y21895
T02
X6994Y18245
X11144Y12795
X17994Y13670
T03
X13378Y21545
X11394Y21545
T04
X2879Y17347
X2979Y16347
X1979Y16347
X1879Y15347
X2879Y15347
X1879Y17347
X1268Y12620
X1168Y11620
X1268Y10620
X1168Y9620
X1268Y8620
X1168Y7620
T05
X7203Y20701
X7597Y20701
X15891Y20701
X16284Y20701
T06
X11959Y23182
X7427Y23182
M30
