G75*
%MOIN*%
%OFA0B0*%
%FSLAX24Y24*%
%IPPOS*%
%LPD*%
%AMOC8*
5,1,8,0,0,1.08239X$1,22.5*
%
%ADD10C,0.0000*%
%ADD11R,0.0260X0.0760*%
%ADD12R,0.0760X0.0260*%
%ADD13C,0.0088*%
%ADD14R,0.0472X0.0866*%
%ADD15R,0.0472X0.0787*%
%ADD16R,0.0600X0.0250*%
%ADD17R,0.1000X0.1200*%
%ADD18R,0.1000X0.1250*%
%ADD19C,0.0100*%
%ADD20R,0.0984X0.1260*%
%ADD21R,0.1080X0.0850*%
%ADD22C,0.0150*%
%ADD23C,0.0200*%
%ADD24R,0.0220X0.0500*%
%ADD25R,0.0500X0.0220*%
%ADD26OC8,0.0740*%
%ADD27R,0.1300X0.0800*%
%ADD28C,0.1181*%
%ADD29R,0.1181X0.1181*%
%ADD30R,0.0240X0.0870*%
%ADD31R,0.1260X0.0866*%
%ADD32R,0.1969X0.1772*%
%ADD33R,0.0945X0.0945*%
%ADD34R,0.0472X0.0217*%
%ADD35C,0.0740*%
%ADD36R,0.0400X0.0450*%
%ADD37R,0.0500X0.0500*%
%ADD38C,0.0075*%
%ADD39C,0.0709*%
%ADD40R,0.0700X0.0800*%
%ADD41C,0.0280*%
%ADD42C,0.0240*%
%ADD43C,0.0080*%
%ADD44C,0.0320*%
%ADD45C,0.0160*%
%ADD46C,0.0278*%
%ADD47C,0.0660*%
%ADD48C,0.0120*%
%ADD49C,0.0320*%
%ADD50C,0.0400*%
%ADD51C,0.0800*%
%ADD52C,0.0157*%
D10*
X000144Y003290D02*
X000144Y020219D01*
X003294Y023368D01*
X020223Y023368D01*
X023373Y020219D01*
X023373Y003290D01*
X020223Y000140D01*
X003294Y000140D01*
X000144Y003290D01*
D11*
X012656Y002006D03*
X013050Y002006D03*
X013443Y002006D03*
X013837Y002006D03*
X014231Y002006D03*
X014625Y002006D03*
X015018Y002006D03*
X015412Y002006D03*
X015806Y002006D03*
X016199Y002006D03*
X016593Y002006D03*
X016987Y002006D03*
X017380Y002006D03*
X017774Y002006D03*
X018168Y002006D03*
X018562Y002006D03*
X018955Y002006D03*
X018955Y011455D03*
X018562Y011455D03*
X018168Y011455D03*
X017774Y011455D03*
X017380Y011455D03*
X016987Y011455D03*
X016593Y011455D03*
X016199Y011455D03*
X015806Y011455D03*
X015412Y011455D03*
X015018Y011455D03*
X014625Y011455D03*
X014231Y011455D03*
X013837Y011455D03*
X013443Y011455D03*
X013050Y011455D03*
X012656Y011455D03*
D12*
X011081Y009880D03*
X011081Y009486D03*
X011081Y009093D03*
X011081Y008699D03*
X011081Y008305D03*
X011081Y007912D03*
X011081Y007518D03*
X011081Y007124D03*
X011081Y006731D03*
X011081Y006337D03*
X011081Y005943D03*
X011081Y005549D03*
X011081Y005156D03*
X011081Y004762D03*
X011081Y004368D03*
X011081Y003975D03*
X011081Y003581D03*
X020530Y003581D03*
X020530Y003975D03*
X020530Y004368D03*
X020530Y004762D03*
X020530Y005156D03*
X020530Y005549D03*
X020530Y005943D03*
X020530Y006337D03*
X020530Y006731D03*
X020530Y007124D03*
X020530Y007518D03*
X020530Y007912D03*
X020530Y008305D03*
X020530Y008699D03*
X020530Y009093D03*
X020530Y009486D03*
X020530Y009880D03*
D13*
X021379Y012648D02*
X021379Y012910D01*
X021379Y012648D02*
X021117Y012648D01*
X021117Y012910D01*
X021379Y012910D01*
X021379Y012735D02*
X021117Y012735D01*
X021117Y012822D02*
X021379Y012822D01*
X021379Y012909D02*
X021117Y012909D01*
X021379Y013248D02*
X021379Y013510D01*
X021379Y013248D02*
X021117Y013248D01*
X021117Y013510D01*
X021379Y013510D01*
X021379Y013335D02*
X021117Y013335D01*
X021117Y013422D02*
X021379Y013422D01*
X021379Y013509D02*
X021117Y013509D01*
X021991Y013510D02*
X021991Y013248D01*
X021729Y013248D01*
X021729Y013510D01*
X021991Y013510D01*
X021991Y013335D02*
X021729Y013335D01*
X021729Y013422D02*
X021991Y013422D01*
X021991Y013509D02*
X021729Y013509D01*
X021991Y012910D02*
X021991Y012648D01*
X021729Y012648D01*
X021729Y012910D01*
X021991Y012910D01*
X021991Y012735D02*
X021729Y012735D01*
X021729Y012822D02*
X021991Y012822D01*
X021991Y012909D02*
X021729Y012909D01*
X017626Y014043D02*
X017626Y014305D01*
X017626Y014043D02*
X017364Y014043D01*
X017364Y014305D01*
X017626Y014305D01*
X017626Y014130D02*
X017364Y014130D01*
X017364Y014217D02*
X017626Y014217D01*
X017626Y014304D02*
X017364Y014304D01*
X017626Y014643D02*
X017626Y014905D01*
X017626Y014643D02*
X017364Y014643D01*
X017364Y014905D01*
X017626Y014905D01*
X017626Y014730D02*
X017364Y014730D01*
X017364Y014817D02*
X017626Y014817D01*
X017626Y014904D02*
X017364Y014904D01*
X015440Y014918D02*
X015440Y014656D01*
X015440Y014918D02*
X015702Y014918D01*
X015702Y014656D01*
X015440Y014656D01*
X015440Y014743D02*
X015702Y014743D01*
X015702Y014830D02*
X015440Y014830D01*
X015440Y014917D02*
X015702Y014917D01*
X015440Y014318D02*
X015440Y014056D01*
X015440Y014318D02*
X015702Y014318D01*
X015702Y014056D01*
X015440Y014056D01*
X015440Y014143D02*
X015702Y014143D01*
X015702Y014230D02*
X015440Y014230D01*
X015440Y014317D02*
X015702Y014317D01*
X015025Y014321D02*
X015025Y014059D01*
X014763Y014059D01*
X014763Y014321D01*
X015025Y014321D01*
X015025Y014146D02*
X014763Y014146D01*
X014763Y014233D02*
X015025Y014233D01*
X015025Y014320D02*
X014763Y014320D01*
X015025Y014659D02*
X015025Y014921D01*
X015025Y014659D02*
X014763Y014659D01*
X014763Y014921D01*
X015025Y014921D01*
X015025Y014746D02*
X014763Y014746D01*
X014763Y014833D02*
X015025Y014833D01*
X015025Y014920D02*
X014763Y014920D01*
X018423Y018899D02*
X018423Y019161D01*
X018423Y018899D02*
X018161Y018899D01*
X018161Y019161D01*
X018423Y019161D01*
X018423Y018986D02*
X018161Y018986D01*
X018161Y019073D02*
X018423Y019073D01*
X018423Y019160D02*
X018161Y019160D01*
X018423Y019499D02*
X018423Y019761D01*
X018423Y019499D02*
X018161Y019499D01*
X018161Y019761D01*
X018423Y019761D01*
X018423Y019586D02*
X018161Y019586D01*
X018161Y019673D02*
X018423Y019673D01*
X018423Y019760D02*
X018161Y019760D01*
X019671Y021041D02*
X019933Y021041D01*
X019933Y020779D01*
X019671Y020779D01*
X019671Y021041D01*
X019671Y020866D02*
X019933Y020866D01*
X019933Y020953D02*
X019671Y020953D01*
X019671Y021040D02*
X019933Y021040D01*
X020271Y021041D02*
X020533Y021041D01*
X020533Y020779D01*
X020271Y020779D01*
X020271Y021041D01*
X020271Y020866D02*
X020533Y020866D01*
X020533Y020953D02*
X020271Y020953D01*
X020271Y021040D02*
X020533Y021040D01*
X021792Y019097D02*
X022054Y019097D01*
X021792Y019097D02*
X021792Y019359D01*
X022054Y019359D01*
X022054Y019097D01*
X022054Y019184D02*
X021792Y019184D01*
X021792Y019271D02*
X022054Y019271D01*
X022054Y019358D02*
X021792Y019358D01*
X022392Y019097D02*
X022654Y019097D01*
X022392Y019097D02*
X022392Y019359D01*
X022654Y019359D01*
X022654Y019097D01*
X022654Y019184D02*
X022392Y019184D01*
X022392Y019271D02*
X022654Y019271D01*
X022654Y019358D02*
X022392Y019358D01*
X022384Y018485D02*
X022646Y018485D01*
X022384Y018485D02*
X022384Y018747D01*
X022646Y018747D01*
X022646Y018485D01*
X022646Y018572D02*
X022384Y018572D01*
X022384Y018659D02*
X022646Y018659D01*
X022646Y018746D02*
X022384Y018746D01*
X022046Y018485D02*
X021784Y018485D01*
X021784Y018747D01*
X022046Y018747D01*
X022046Y018485D01*
X022046Y018572D02*
X021784Y018572D01*
X021784Y018659D02*
X022046Y018659D01*
X022046Y018746D02*
X021784Y018746D01*
X010321Y016822D02*
X010059Y016822D01*
X010321Y016822D02*
X010321Y016560D01*
X010059Y016560D01*
X010059Y016822D01*
X010059Y016647D02*
X010321Y016647D01*
X010321Y016734D02*
X010059Y016734D01*
X010059Y016821D02*
X010321Y016821D01*
X010325Y016221D02*
X010063Y016221D01*
X010325Y016221D02*
X010325Y015959D01*
X010063Y015959D01*
X010063Y016221D01*
X010063Y016046D02*
X010325Y016046D01*
X010325Y016133D02*
X010063Y016133D01*
X010063Y016220D02*
X010325Y016220D01*
X009725Y016221D02*
X009463Y016221D01*
X009725Y016221D02*
X009725Y015959D01*
X009463Y015959D01*
X009463Y016221D01*
X009463Y016046D02*
X009725Y016046D01*
X009725Y016133D02*
X009463Y016133D01*
X009463Y016220D02*
X009725Y016220D01*
X009721Y016822D02*
X009459Y016822D01*
X009721Y016822D02*
X009721Y016560D01*
X009459Y016560D01*
X009459Y016822D01*
X009459Y016647D02*
X009721Y016647D01*
X009721Y016734D02*
X009459Y016734D01*
X009459Y016821D02*
X009721Y016821D01*
X009424Y017451D02*
X009162Y017451D01*
X009424Y017451D02*
X009424Y017189D01*
X009162Y017189D01*
X009162Y017451D01*
X009162Y017276D02*
X009424Y017276D01*
X009424Y017363D02*
X009162Y017363D01*
X009162Y017450D02*
X009424Y017450D01*
X008824Y017451D02*
X008562Y017451D01*
X008824Y017451D02*
X008824Y017189D01*
X008562Y017189D01*
X008562Y017451D01*
X008562Y017276D02*
X008824Y017276D01*
X008824Y017363D02*
X008562Y017363D01*
X008562Y017450D02*
X008824Y017450D01*
X007863Y017471D02*
X007863Y017209D01*
X007863Y017471D02*
X008125Y017471D01*
X008125Y017209D01*
X007863Y017209D01*
X007863Y017296D02*
X008125Y017296D01*
X008125Y017383D02*
X007863Y017383D01*
X007863Y017470D02*
X008125Y017470D01*
X007863Y017809D02*
X007863Y018071D01*
X008125Y018071D01*
X008125Y017809D01*
X007863Y017809D01*
X007863Y017896D02*
X008125Y017896D01*
X008125Y017983D02*
X007863Y017983D01*
X007863Y018070D02*
X008125Y018070D01*
X007213Y018071D02*
X007213Y017809D01*
X007213Y018071D02*
X007475Y018071D01*
X007475Y017809D01*
X007213Y017809D01*
X007213Y017896D02*
X007475Y017896D01*
X007475Y017983D02*
X007213Y017983D01*
X007213Y018070D02*
X007475Y018070D01*
X007213Y017471D02*
X007213Y017209D01*
X007213Y017471D02*
X007475Y017471D01*
X007475Y017209D01*
X007213Y017209D01*
X007213Y017296D02*
X007475Y017296D01*
X007475Y017383D02*
X007213Y017383D01*
X007213Y017470D02*
X007475Y017470D01*
X006563Y017471D02*
X006563Y017209D01*
X006563Y017471D02*
X006825Y017471D01*
X006825Y017209D01*
X006563Y017209D01*
X006563Y017296D02*
X006825Y017296D01*
X006825Y017383D02*
X006563Y017383D01*
X006563Y017470D02*
X006825Y017470D01*
X006563Y017809D02*
X006563Y018071D01*
X006825Y018071D01*
X006825Y017809D01*
X006563Y017809D01*
X006563Y017896D02*
X006825Y017896D01*
X006825Y017983D02*
X006563Y017983D01*
X006563Y018070D02*
X006825Y018070D01*
X005875Y017159D02*
X005613Y017159D01*
X005613Y017421D01*
X005875Y017421D01*
X005875Y017159D01*
X005875Y017246D02*
X005613Y017246D01*
X005613Y017333D02*
X005875Y017333D01*
X005875Y017420D02*
X005613Y017420D01*
X005275Y017159D02*
X005013Y017159D01*
X005013Y017421D01*
X005275Y017421D01*
X005275Y017159D01*
X005275Y017246D02*
X005013Y017246D01*
X005013Y017333D02*
X005275Y017333D01*
X005275Y017420D02*
X005013Y017420D01*
X004675Y017421D02*
X004413Y017421D01*
X004675Y017421D02*
X004675Y017159D01*
X004413Y017159D01*
X004413Y017421D01*
X004413Y017246D02*
X004675Y017246D01*
X004675Y017333D02*
X004413Y017333D01*
X004413Y017420D02*
X004675Y017420D01*
X004075Y017421D02*
X003813Y017421D01*
X004075Y017421D02*
X004075Y017159D01*
X003813Y017159D01*
X003813Y017421D01*
X003813Y017246D02*
X004075Y017246D01*
X004075Y017333D02*
X003813Y017333D01*
X003813Y017420D02*
X004075Y017420D01*
X002871Y017501D02*
X002609Y017501D01*
X002609Y017763D01*
X002871Y017763D01*
X002871Y017501D01*
X002871Y017588D02*
X002609Y017588D01*
X002609Y017675D02*
X002871Y017675D01*
X002871Y017762D02*
X002609Y017762D01*
X002271Y017501D02*
X002009Y017501D01*
X002009Y017763D01*
X002271Y017763D01*
X002271Y017501D01*
X002271Y017588D02*
X002009Y017588D01*
X002009Y017675D02*
X002271Y017675D01*
X002271Y017762D02*
X002009Y017762D01*
X002013Y018109D02*
X002275Y018109D01*
X002013Y018109D02*
X002013Y018371D01*
X002275Y018371D01*
X002275Y018109D01*
X002275Y018196D02*
X002013Y018196D01*
X002013Y018283D02*
X002275Y018283D01*
X002275Y018370D02*
X002013Y018370D01*
X002011Y018943D02*
X002273Y018943D01*
X002273Y018681D01*
X002011Y018681D01*
X002011Y018943D01*
X002011Y018768D02*
X002273Y018768D01*
X002273Y018855D02*
X002011Y018855D01*
X002011Y018942D02*
X002273Y018942D01*
X002611Y018943D02*
X002873Y018943D01*
X002873Y018681D01*
X002611Y018681D01*
X002611Y018943D01*
X002611Y018768D02*
X002873Y018768D01*
X002873Y018855D02*
X002611Y018855D01*
X002611Y018942D02*
X002873Y018942D01*
X002875Y018109D02*
X002613Y018109D01*
X002613Y018371D01*
X002875Y018371D01*
X002875Y018109D01*
X002875Y018196D02*
X002613Y018196D01*
X002613Y018283D02*
X002875Y018283D01*
X002875Y018370D02*
X002613Y018370D01*
X001625Y018109D02*
X001363Y018109D01*
X001363Y018371D01*
X001625Y018371D01*
X001625Y018109D01*
X001625Y018196D02*
X001363Y018196D01*
X001363Y018283D02*
X001625Y018283D01*
X001625Y018370D02*
X001363Y018370D01*
X001358Y018943D02*
X001620Y018943D01*
X001620Y018681D01*
X001358Y018681D01*
X001358Y018943D01*
X001358Y018768D02*
X001620Y018768D01*
X001620Y018855D02*
X001358Y018855D01*
X001358Y018942D02*
X001620Y018942D01*
X001020Y018943D02*
X000758Y018943D01*
X001020Y018943D02*
X001020Y018681D01*
X000758Y018681D01*
X000758Y018943D01*
X000758Y018768D02*
X001020Y018768D01*
X001020Y018855D02*
X000758Y018855D01*
X000758Y018942D02*
X001020Y018942D01*
X001025Y018109D02*
X000763Y018109D01*
X000763Y018371D01*
X001025Y018371D01*
X001025Y018109D01*
X001025Y018196D02*
X000763Y018196D01*
X000763Y018283D02*
X001025Y018283D01*
X001025Y018370D02*
X000763Y018370D01*
X000763Y017771D02*
X001025Y017771D01*
X001025Y017509D01*
X000763Y017509D01*
X000763Y017771D01*
X000763Y017596D02*
X001025Y017596D01*
X001025Y017683D02*
X000763Y017683D01*
X000763Y017770D02*
X001025Y017770D01*
X001363Y017771D02*
X001625Y017771D01*
X001625Y017509D01*
X001363Y017509D01*
X001363Y017771D01*
X001363Y017596D02*
X001625Y017596D01*
X001625Y017683D02*
X001363Y017683D01*
X001363Y017770D02*
X001625Y017770D01*
X005031Y019562D02*
X005293Y019562D01*
X005293Y019300D01*
X005031Y019300D01*
X005031Y019562D01*
X005031Y019387D02*
X005293Y019387D01*
X005293Y019474D02*
X005031Y019474D01*
X005031Y019561D02*
X005293Y019561D01*
X005631Y019562D02*
X005893Y019562D01*
X005893Y019300D01*
X005631Y019300D01*
X005631Y019562D01*
X005631Y019387D02*
X005893Y019387D01*
X005893Y019474D02*
X005631Y019474D01*
X005631Y019561D02*
X005893Y019561D01*
X005893Y020350D02*
X005631Y020350D01*
X005893Y020350D02*
X005893Y020088D01*
X005631Y020088D01*
X005631Y020350D01*
X005631Y020175D02*
X005893Y020175D01*
X005893Y020262D02*
X005631Y020262D01*
X005631Y020349D02*
X005893Y020349D01*
X005893Y021137D02*
X005631Y021137D01*
X005893Y021137D02*
X005893Y020875D01*
X005631Y020875D01*
X005631Y021137D01*
X005631Y020962D02*
X005893Y020962D01*
X005893Y021049D02*
X005631Y021049D01*
X005631Y021136D02*
X005893Y021136D01*
X005893Y021663D02*
X005631Y021663D01*
X005631Y021925D01*
X005893Y021925D01*
X005893Y021663D01*
X005893Y021750D02*
X005631Y021750D01*
X005631Y021837D02*
X005893Y021837D01*
X005893Y021924D02*
X005631Y021924D01*
X005293Y021663D02*
X005031Y021663D01*
X005031Y021925D01*
X005293Y021925D01*
X005293Y021663D01*
X005293Y021750D02*
X005031Y021750D01*
X005031Y021837D02*
X005293Y021837D01*
X005293Y021924D02*
X005031Y021924D01*
X005031Y022450D02*
X005293Y022450D01*
X005031Y022450D02*
X005031Y022712D01*
X005293Y022712D01*
X005293Y022450D01*
X005293Y022537D02*
X005031Y022537D01*
X005031Y022624D02*
X005293Y022624D01*
X005293Y022711D02*
X005031Y022711D01*
X005631Y022450D02*
X005893Y022450D01*
X005631Y022450D02*
X005631Y022712D01*
X005893Y022712D01*
X005893Y022450D01*
X005893Y022537D02*
X005631Y022537D01*
X005631Y022624D02*
X005893Y022624D01*
X005893Y022711D02*
X005631Y022711D01*
X005293Y021137D02*
X005031Y021137D01*
X005293Y021137D02*
X005293Y020875D01*
X005031Y020875D01*
X005031Y021137D01*
X005031Y020962D02*
X005293Y020962D01*
X005293Y021049D02*
X005031Y021049D01*
X005031Y021136D02*
X005293Y021136D01*
X005293Y020350D02*
X005031Y020350D01*
X005293Y020350D02*
X005293Y020088D01*
X005031Y020088D01*
X005031Y020350D01*
X005031Y020175D02*
X005293Y020175D01*
X005293Y020262D02*
X005031Y020262D01*
X005031Y020349D02*
X005293Y020349D01*
X009472Y015353D02*
X009734Y015353D01*
X009472Y015353D02*
X009472Y015615D01*
X009734Y015615D01*
X009734Y015353D01*
X009734Y015440D02*
X009472Y015440D01*
X009472Y015527D02*
X009734Y015527D01*
X009734Y015614D02*
X009472Y015614D01*
X009463Y015021D02*
X009725Y015021D01*
X009725Y014759D01*
X009463Y014759D01*
X009463Y015021D01*
X009463Y014846D02*
X009725Y014846D01*
X009725Y014933D02*
X009463Y014933D01*
X009463Y015020D02*
X009725Y015020D01*
X010063Y015021D02*
X010325Y015021D01*
X010325Y014759D01*
X010063Y014759D01*
X010063Y015021D01*
X010063Y014846D02*
X010325Y014846D01*
X010325Y014933D02*
X010063Y014933D01*
X010063Y015020D02*
X010325Y015020D01*
X010334Y015353D02*
X010072Y015353D01*
X010072Y015615D01*
X010334Y015615D01*
X010334Y015353D01*
X010334Y015440D02*
X010072Y015440D01*
X010072Y015527D02*
X010334Y015527D01*
X010334Y015614D02*
X010072Y015614D01*
X010069Y014414D02*
X010331Y014414D01*
X010331Y014152D01*
X010069Y014152D01*
X010069Y014414D01*
X010069Y014239D02*
X010331Y014239D01*
X010331Y014326D02*
X010069Y014326D01*
X010069Y014413D02*
X010331Y014413D01*
X010331Y013558D02*
X010069Y013558D01*
X010069Y013820D01*
X010331Y013820D01*
X010331Y013558D01*
X010331Y013645D02*
X010069Y013645D01*
X010069Y013732D02*
X010331Y013732D01*
X010331Y013819D02*
X010069Y013819D01*
X009731Y013558D02*
X009469Y013558D01*
X009469Y013820D01*
X009731Y013820D01*
X009731Y013558D01*
X009731Y013645D02*
X009469Y013645D01*
X009469Y013732D02*
X009731Y013732D01*
X009731Y013819D02*
X009469Y013819D01*
X009469Y014414D02*
X009731Y014414D01*
X009731Y014152D01*
X009469Y014152D01*
X009469Y014414D01*
X009469Y014239D02*
X009731Y014239D01*
X009731Y014326D02*
X009469Y014326D01*
X009469Y014413D02*
X009731Y014413D01*
X009275Y012771D02*
X009013Y012771D01*
X009275Y012771D02*
X009275Y012509D01*
X009013Y012509D01*
X009013Y012771D01*
X009013Y012596D02*
X009275Y012596D01*
X009275Y012683D02*
X009013Y012683D01*
X009013Y012770D02*
X009275Y012770D01*
X008675Y012771D02*
X008413Y012771D01*
X008675Y012771D02*
X008675Y012509D01*
X008413Y012509D01*
X008413Y012771D01*
X008413Y012596D02*
X008675Y012596D01*
X008675Y012683D02*
X008413Y012683D01*
X008413Y012770D02*
X008675Y012770D01*
X009563Y011559D02*
X009825Y011559D01*
X009563Y011559D02*
X009563Y011821D01*
X009825Y011821D01*
X009825Y011559D01*
X009825Y011646D02*
X009563Y011646D01*
X009563Y011733D02*
X009825Y011733D01*
X009825Y011820D02*
X009563Y011820D01*
X010163Y011559D02*
X010425Y011559D01*
X010163Y011559D02*
X010163Y011821D01*
X010425Y011821D01*
X010425Y011559D01*
X010425Y011646D02*
X010163Y011646D01*
X010163Y011733D02*
X010425Y011733D01*
X010425Y011820D02*
X010163Y011820D01*
X004563Y013059D02*
X004563Y013321D01*
X004825Y013321D01*
X004825Y013059D01*
X004563Y013059D01*
X004563Y013146D02*
X004825Y013146D01*
X004825Y013233D02*
X004563Y013233D01*
X004563Y013320D02*
X004825Y013320D01*
X004563Y013659D02*
X004563Y013921D01*
X004825Y013921D01*
X004825Y013659D01*
X004563Y013659D01*
X004563Y013746D02*
X004825Y013746D01*
X004825Y013833D02*
X004563Y013833D01*
X004563Y013920D02*
X004825Y013920D01*
X009437Y004668D02*
X009699Y004668D01*
X009699Y004406D01*
X009437Y004406D01*
X009437Y004668D01*
X009437Y004493D02*
X009699Y004493D01*
X009699Y004580D02*
X009437Y004580D01*
X009437Y004667D02*
X009699Y004667D01*
X010037Y004668D02*
X010299Y004668D01*
X010299Y004406D01*
X010037Y004406D01*
X010037Y004668D01*
X010037Y004493D02*
X010299Y004493D01*
X010299Y004580D02*
X010037Y004580D01*
X010037Y004667D02*
X010299Y004667D01*
X010293Y003825D02*
X010031Y003825D01*
X010031Y004087D01*
X010293Y004087D01*
X010293Y003825D01*
X010293Y003912D02*
X010031Y003912D01*
X010031Y003999D02*
X010293Y003999D01*
X010293Y004086D02*
X010031Y004086D01*
X009693Y003825D02*
X009431Y003825D01*
X009431Y004087D01*
X009693Y004087D01*
X009693Y003825D01*
X009693Y003912D02*
X009431Y003912D01*
X009431Y003999D02*
X009693Y003999D01*
X009693Y004086D02*
X009431Y004086D01*
X009431Y003237D02*
X009693Y003237D01*
X009431Y003237D02*
X009431Y003499D01*
X009693Y003499D01*
X009693Y003237D01*
X009693Y003324D02*
X009431Y003324D01*
X009431Y003411D02*
X009693Y003411D01*
X009693Y003498D02*
X009431Y003498D01*
X009424Y002636D02*
X009686Y002636D01*
X009424Y002636D02*
X009424Y002898D01*
X009686Y002898D01*
X009686Y002636D01*
X009686Y002723D02*
X009424Y002723D01*
X009424Y002810D02*
X009686Y002810D01*
X009686Y002897D02*
X009424Y002897D01*
X010024Y002636D02*
X010286Y002636D01*
X010024Y002636D02*
X010024Y002898D01*
X010286Y002898D01*
X010286Y002636D01*
X010286Y002723D02*
X010024Y002723D01*
X010024Y002810D02*
X010286Y002810D01*
X010286Y002897D02*
X010024Y002897D01*
X010031Y003237D02*
X010293Y003237D01*
X010031Y003237D02*
X010031Y003499D01*
X010293Y003499D01*
X010293Y003237D01*
X010293Y003324D02*
X010031Y003324D01*
X010031Y003411D02*
X010293Y003411D01*
X010293Y003498D02*
X010031Y003498D01*
X022175Y004159D02*
X022175Y004421D01*
X022175Y004159D02*
X021913Y004159D01*
X021913Y004421D01*
X022175Y004421D01*
X022175Y004246D02*
X021913Y004246D01*
X021913Y004333D02*
X022175Y004333D01*
X022175Y004420D02*
X021913Y004420D01*
X022175Y004759D02*
X022175Y005021D01*
X022175Y004759D02*
X021913Y004759D01*
X021913Y005021D01*
X022175Y005021D01*
X022175Y004846D02*
X021913Y004846D01*
X021913Y004933D02*
X022175Y004933D01*
X022175Y005020D02*
X021913Y005020D01*
X022775Y005021D02*
X022775Y004759D01*
X022513Y004759D01*
X022513Y005021D01*
X022775Y005021D01*
X022775Y004846D02*
X022513Y004846D01*
X022513Y004933D02*
X022775Y004933D01*
X022775Y005020D02*
X022513Y005020D01*
X022775Y004421D02*
X022775Y004159D01*
X022513Y004159D01*
X022513Y004421D01*
X022775Y004421D01*
X022775Y004246D02*
X022513Y004246D01*
X022513Y004333D02*
X022775Y004333D01*
X022775Y004420D02*
X022513Y004420D01*
D14*
X007038Y001306D03*
X006014Y001290D03*
X005050Y001306D03*
D15*
X005081Y011247D03*
X006042Y011255D03*
X006971Y011255D03*
D16*
X019080Y018690D03*
X019080Y019190D03*
X019080Y019690D03*
X019080Y020190D03*
X021180Y020190D03*
X021180Y019690D03*
X021180Y019190D03*
X021180Y018690D03*
D17*
X022414Y014688D03*
D18*
X019914Y014688D03*
D19*
X022823Y013529D02*
X022823Y013229D01*
X022373Y013229D01*
X022373Y013529D01*
X022823Y013529D01*
X022823Y013328D02*
X022373Y013328D01*
X022373Y013427D02*
X022823Y013427D01*
X022823Y013526D02*
X022373Y013526D01*
X022823Y012829D02*
X022823Y012529D01*
X022373Y012529D01*
X022373Y012829D01*
X022823Y012829D01*
X022823Y012628D02*
X022373Y012628D01*
X022373Y012727D02*
X022823Y012727D01*
X022823Y012826D02*
X022373Y012826D01*
X021610Y007281D02*
X021453Y007124D01*
X020530Y007124D01*
X020530Y006337D02*
X021447Y006337D01*
X021644Y006140D01*
X021569Y005040D02*
X021569Y004740D01*
X021119Y004740D01*
X021119Y005040D01*
X021569Y005040D01*
X021569Y004839D02*
X021119Y004839D01*
X021119Y004938D02*
X021569Y004938D01*
X021569Y005037D02*
X021119Y005037D01*
X021569Y004340D02*
X021569Y004040D01*
X021119Y004040D01*
X021119Y004340D01*
X021569Y004340D01*
X021569Y004139D02*
X021119Y004139D01*
X021119Y004238D02*
X021569Y004238D01*
X021569Y004337D02*
X021119Y004337D01*
X016194Y012340D02*
X010844Y012340D01*
X010744Y012240D01*
X010740Y012236D01*
X010729Y012286D01*
X010744Y012240D02*
X010758Y012240D01*
X010694Y012540D02*
X010594Y012640D01*
X010594Y012974D01*
X010694Y012540D02*
X014744Y012540D01*
X014914Y012710D01*
X016194Y012340D02*
X016555Y012701D01*
X015994Y015890D02*
X016230Y016126D01*
X019080Y019690D02*
X019080Y019690D01*
X019644Y019690D01*
X019802Y019848D01*
X019802Y020910D01*
X020402Y020910D02*
X020402Y019832D01*
X020544Y019690D01*
X021180Y019690D01*
X021180Y019690D01*
X018848Y020657D02*
X018548Y020657D01*
X018548Y021107D01*
X018848Y021107D01*
X018848Y020657D01*
X018848Y020756D02*
X018548Y020756D01*
X018548Y020855D02*
X018848Y020855D01*
X018848Y020954D02*
X018548Y020954D01*
X018548Y021053D02*
X018848Y021053D01*
X018148Y020657D02*
X017848Y020657D01*
X017848Y021107D01*
X018148Y021107D01*
X018148Y020657D01*
X018148Y020756D02*
X017848Y020756D01*
X017848Y020855D02*
X018148Y020855D01*
X018148Y020954D02*
X017848Y020954D01*
X017848Y021053D02*
X018148Y021053D01*
X009603Y015484D02*
X009294Y015175D01*
X009244Y015125D01*
X009244Y013990D01*
X009152Y013897D01*
X008826Y013897D01*
X008368Y013361D02*
X008238Y013310D01*
X008368Y013361D02*
X009294Y013361D01*
X009543Y013689D01*
X009600Y013689D01*
X009600Y014283D01*
X009705Y012660D02*
X009705Y012640D01*
X009144Y012640D01*
X008544Y012640D02*
X008215Y012542D01*
X007923Y012640D01*
X007923Y013310D01*
X007999Y012030D02*
X007999Y011715D01*
X008319Y011715D01*
X008344Y011740D01*
X008194Y011965D02*
X008494Y011965D01*
X008494Y011515D01*
X008194Y011515D01*
X008194Y011965D01*
X008194Y011614D02*
X008494Y011614D01*
X008494Y011713D02*
X008194Y011713D01*
X008194Y011812D02*
X008494Y011812D01*
X008494Y011911D02*
X008194Y011911D01*
X008894Y011965D02*
X009194Y011965D01*
X009194Y011515D01*
X008894Y011515D01*
X008894Y011965D01*
X008894Y011614D02*
X009194Y011614D01*
X009194Y011713D02*
X008894Y011713D01*
X008894Y011812D02*
X009194Y011812D01*
X009194Y011911D02*
X008894Y011911D01*
X008154Y009331D02*
X007538Y008715D01*
X001168Y008715D01*
X001268Y007715D02*
X007869Y007715D01*
X008188Y007396D01*
X009565Y004540D02*
X009568Y004537D01*
X005074Y011240D02*
X003694Y011240D01*
X005074Y011240D02*
X005081Y011247D01*
X005644Y013840D02*
X006194Y013840D01*
X005644Y013840D02*
X005587Y013897D01*
X005446Y013897D01*
X005468Y014190D02*
X005446Y014212D01*
X005446Y014842D02*
X004997Y014842D01*
X004994Y014840D01*
X002879Y016442D02*
X002140Y017181D01*
X002140Y017632D01*
X002132Y017640D01*
X001494Y017640D01*
X005444Y019840D02*
X005444Y019901D01*
X005762Y020219D01*
X005794Y019790D02*
X005794Y019463D01*
X005762Y019431D01*
X008994Y018690D02*
X009344Y018690D01*
D20*
X020175Y016937D03*
X022419Y016937D03*
D21*
X018482Y017497D03*
X018482Y015757D03*
D22*
X021537Y007206D02*
X022287Y007206D01*
X021537Y007206D02*
X021537Y007356D01*
X022287Y007356D01*
X022287Y007206D01*
X022287Y007355D02*
X021537Y007355D01*
X021537Y006106D02*
X022287Y006106D01*
X021537Y006106D02*
X021537Y006256D01*
X022287Y006256D01*
X022287Y006106D01*
X022287Y006255D02*
X021537Y006255D01*
D23*
X021412Y006831D02*
X021212Y006831D01*
X021412Y006831D02*
X021412Y006631D01*
X021212Y006631D01*
X021212Y006831D01*
X021212Y006830D02*
X021412Y006830D01*
X022412Y006831D02*
X022612Y006831D01*
X022612Y006631D01*
X022412Y006631D01*
X022412Y006831D01*
X022412Y006830D02*
X022612Y006830D01*
X017994Y013340D02*
X017994Y014276D01*
X017495Y014774D01*
X017694Y014973D01*
X017694Y017240D01*
X017070Y017864D01*
X016466Y017864D01*
X011444Y013340D02*
X010194Y013340D01*
X010194Y013684D01*
X010200Y013689D01*
X010194Y013340D02*
X010094Y013240D01*
X010094Y012340D01*
X009990Y012236D01*
X009998Y012236D01*
X010094Y012140D01*
X010094Y012340D01*
X010094Y012140D02*
X010094Y011940D01*
X010294Y011740D01*
X010294Y011690D01*
X009577Y012240D02*
X008232Y012240D01*
X007835Y012440D02*
X005644Y012440D01*
X005794Y012840D02*
X005444Y013190D01*
X004694Y013190D01*
X004044Y013190D02*
X003944Y013090D01*
X003994Y013090D01*
X005794Y012840D02*
X006194Y012840D01*
X006494Y012840D01*
X006348Y012986D01*
X006348Y012994D01*
X006194Y012840D01*
X006348Y012994D02*
X006348Y013310D01*
X006494Y012840D02*
X006894Y012840D01*
X006978Y012924D01*
X006978Y013310D01*
X009794Y006740D02*
X009794Y006690D01*
X009835Y006731D01*
X011081Y006731D01*
D24*
X008238Y013310D03*
X007923Y013310D03*
X007608Y013310D03*
X007293Y013310D03*
X006978Y013310D03*
X006663Y013310D03*
X006348Y013310D03*
X006033Y013310D03*
X006033Y016690D03*
X006348Y016690D03*
X006663Y016690D03*
X006978Y016690D03*
X007293Y016690D03*
X007608Y016690D03*
X007923Y016690D03*
X008238Y016690D03*
D25*
X008826Y016102D03*
X008826Y015787D03*
X008826Y015472D03*
X008826Y015157D03*
X008826Y014842D03*
X008826Y014527D03*
X008826Y014212D03*
X008826Y013897D03*
X005446Y013897D03*
X005446Y014212D03*
X005446Y014527D03*
X005446Y014842D03*
X005446Y015157D03*
X005446Y015472D03*
X005446Y015787D03*
X005446Y016102D03*
D26*
X002979Y015442D03*
X001979Y015442D03*
X001879Y014442D03*
X002879Y014442D03*
X002879Y016442D03*
X001879Y016442D03*
D27*
X013677Y016021D03*
X013677Y018521D03*
D28*
X011959Y022277D03*
X007427Y022277D03*
D29*
X007597Y019797D03*
X007203Y019797D03*
X015891Y019797D03*
X016284Y019797D03*
D30*
X015480Y017871D03*
D31*
X016466Y017864D03*
D32*
X016230Y016250D03*
D33*
X015302Y022140D03*
X013569Y022140D03*
X017287Y022142D03*
X019019Y022142D03*
D34*
X010729Y013034D03*
X010729Y012286D03*
X009705Y012286D03*
X009705Y012660D03*
X009705Y013034D03*
D35*
X001268Y011715D03*
X001168Y010715D03*
X001268Y009715D03*
X001168Y008715D03*
X001268Y007715D03*
X001168Y006715D03*
D36*
X008644Y017890D03*
X009344Y017890D03*
X008994Y018690D03*
X002794Y019440D03*
X002094Y019440D03*
X001544Y019440D03*
X000844Y019440D03*
X001194Y020240D03*
X002444Y020240D03*
X016144Y014090D03*
X016844Y014090D03*
X016494Y014890D03*
D37*
X009794Y007740D03*
X009794Y006740D03*
X003994Y013090D03*
X003994Y014090D03*
D38*
X004081Y019293D02*
X004307Y019293D01*
X004081Y019293D02*
X004081Y019569D01*
X004307Y019569D01*
X004307Y019293D01*
X004307Y019367D02*
X004081Y019367D01*
X004081Y019441D02*
X004307Y019441D01*
X004307Y019515D02*
X004081Y019515D01*
X003707Y019293D02*
X003481Y019293D01*
X003481Y019569D01*
X003707Y019569D01*
X003707Y019293D01*
X003707Y019367D02*
X003481Y019367D01*
X003481Y019441D02*
X003707Y019441D01*
X003707Y019515D02*
X003481Y019515D01*
X003481Y020081D02*
X003707Y020081D01*
X003481Y020081D02*
X003481Y020357D01*
X003707Y020357D01*
X003707Y020081D01*
X003707Y020155D02*
X003481Y020155D01*
X003481Y020229D02*
X003707Y020229D01*
X003707Y020303D02*
X003481Y020303D01*
X003481Y020868D02*
X003707Y020868D01*
X003481Y020868D02*
X003481Y021144D01*
X003707Y021144D01*
X003707Y020868D01*
X003707Y020942D02*
X003481Y020942D01*
X003481Y021016D02*
X003707Y021016D01*
X003707Y021090D02*
X003481Y021090D01*
X003481Y021656D02*
X003707Y021656D01*
X003481Y021656D02*
X003481Y021932D01*
X003707Y021932D01*
X003707Y021656D01*
X003707Y021730D02*
X003481Y021730D01*
X003481Y021804D02*
X003707Y021804D01*
X003707Y021878D02*
X003481Y021878D01*
X003481Y022443D02*
X003707Y022443D01*
X003481Y022443D02*
X003481Y022719D01*
X003707Y022719D01*
X003707Y022443D01*
X003707Y022517D02*
X003481Y022517D01*
X003481Y022591D02*
X003707Y022591D01*
X003707Y022665D02*
X003481Y022665D01*
X004081Y022443D02*
X004307Y022443D01*
X004081Y022443D02*
X004081Y022719D01*
X004307Y022719D01*
X004307Y022443D01*
X004307Y022517D02*
X004081Y022517D01*
X004081Y022591D02*
X004307Y022591D01*
X004307Y022665D02*
X004081Y022665D01*
X004081Y021656D02*
X004307Y021656D01*
X004081Y021656D02*
X004081Y021932D01*
X004307Y021932D01*
X004307Y021656D01*
X004307Y021730D02*
X004081Y021730D01*
X004081Y021804D02*
X004307Y021804D01*
X004307Y021878D02*
X004081Y021878D01*
X004081Y020868D02*
X004307Y020868D01*
X004081Y020868D02*
X004081Y021144D01*
X004307Y021144D01*
X004307Y020868D01*
X004307Y020942D02*
X004081Y020942D01*
X004081Y021016D02*
X004307Y021016D01*
X004307Y021090D02*
X004081Y021090D01*
X004081Y020081D02*
X004307Y020081D01*
X004081Y020081D02*
X004081Y020357D01*
X004307Y020357D01*
X004307Y020081D01*
X004307Y020155D02*
X004081Y020155D01*
X004081Y020229D02*
X004307Y020229D01*
X004307Y020303D02*
X004081Y020303D01*
D39*
X011394Y020640D03*
X013378Y020640D03*
D40*
X005694Y018290D03*
X003994Y018290D03*
D41*
X003894Y017640D03*
X002744Y017290D03*
X003194Y018890D03*
X004194Y019090D03*
X004494Y020240D03*
X005444Y019840D03*
X005794Y019790D03*
X005794Y021340D03*
X003344Y020990D03*
X006394Y017940D03*
X006994Y017940D03*
X005744Y017640D03*
X006844Y016240D03*
X007244Y016240D03*
X007394Y015640D03*
X007044Y015390D03*
X007394Y015140D03*
X007044Y014890D03*
X007394Y014640D03*
X007394Y014240D03*
X007294Y013840D03*
X006644Y014140D03*
X006194Y013840D03*
X005944Y014140D03*
X004994Y014840D03*
X004794Y015190D03*
X003494Y014040D03*
X003194Y013790D03*
X005644Y012440D03*
X003694Y011240D03*
X007894Y013890D03*
X008169Y012865D03*
X008964Y013601D03*
X010844Y014140D03*
X010644Y014640D03*
X011644Y014440D03*
X012044Y014440D03*
X012044Y014040D03*
X011644Y014040D03*
X011444Y013340D03*
X013044Y014465D03*
X013644Y014465D03*
X013044Y015090D03*
X011894Y016140D03*
X011894Y016890D03*
X011894Y017640D03*
X011144Y017640D03*
X011144Y018390D03*
X011894Y018390D03*
X011894Y019140D03*
X011144Y019140D03*
X010394Y019140D03*
X010394Y018390D03*
X010394Y017640D03*
X009344Y018690D03*
X009094Y016590D03*
X013394Y021440D03*
X014394Y022390D03*
X014394Y022890D03*
X013894Y022890D03*
X013394Y022890D03*
X014894Y022890D03*
X015394Y022890D03*
X015894Y022890D03*
X016394Y022890D03*
X016894Y022890D03*
X017394Y022890D03*
X017894Y022890D03*
X018394Y022890D03*
X018894Y022890D03*
X019394Y022890D03*
X019894Y022890D03*
X019894Y022390D03*
X019894Y021890D03*
X019894Y021390D03*
X019394Y021390D03*
X020394Y021390D03*
X020394Y021890D03*
X020394Y022390D03*
X020894Y021890D03*
X020894Y021390D03*
X020894Y020890D03*
X021394Y020890D03*
X021394Y021390D03*
X021894Y020890D03*
X021894Y020390D03*
X021894Y019890D03*
X022394Y019890D03*
X022394Y020390D03*
X022894Y019890D03*
X022944Y019240D03*
X022944Y018640D03*
X022844Y018040D03*
X021144Y015890D03*
X020644Y015890D03*
X020144Y015890D03*
X019644Y015890D03*
X019144Y015890D03*
X019144Y015140D03*
X019144Y014640D03*
X018644Y014640D03*
X018144Y014640D03*
X018144Y015140D03*
X018644Y015140D03*
X018644Y014140D03*
X019144Y014140D03*
X017994Y013340D03*
X018644Y012640D03*
X018019Y012065D03*
X019144Y012640D03*
X019644Y012640D03*
X020144Y012640D03*
X020144Y012140D03*
X020644Y012140D03*
X020644Y011690D03*
X020644Y012640D03*
X021094Y013740D03*
X021344Y013990D03*
X021594Y013740D03*
X021144Y014890D03*
X020644Y014890D03*
X020644Y015390D03*
X021144Y015390D03*
X019094Y018190D03*
X018394Y018190D03*
X018394Y018740D03*
X017744Y018740D03*
X017744Y019240D03*
X017744Y019790D03*
X017744Y020290D03*
X017744Y018190D03*
X015194Y017890D03*
X016844Y014890D03*
X016794Y014440D03*
X015294Y014790D03*
X014594Y014790D03*
X014494Y014340D03*
X014494Y013990D03*
X015394Y012040D03*
X015794Y012040D03*
X016694Y012315D03*
X021144Y008690D03*
X021144Y008290D03*
X021144Y007890D03*
X021644Y007890D03*
X021644Y008290D03*
X021644Y008690D03*
X022144Y008690D03*
X022144Y008290D03*
X022144Y007890D03*
X022644Y007890D03*
X022644Y008290D03*
X022644Y008690D03*
X023094Y007890D03*
X021744Y005490D03*
X022094Y005290D03*
X021744Y005090D03*
X021644Y003640D03*
X021144Y003640D03*
X021144Y003140D03*
X020694Y003190D03*
X021644Y003140D03*
X022144Y003140D03*
X022144Y003640D03*
X022644Y003640D03*
X022644Y003140D03*
X017144Y001140D03*
X016644Y001140D03*
X016144Y001140D03*
X015644Y001140D03*
X015144Y001140D03*
X015144Y000640D03*
X015644Y000640D03*
X016144Y000640D03*
X016644Y000640D03*
X017144Y000640D03*
X014644Y000640D03*
X014144Y000640D03*
X014144Y001140D03*
X014644Y001140D03*
X011144Y002140D03*
X010644Y002140D03*
X010644Y002640D03*
X011144Y002640D03*
X009544Y002440D03*
X007044Y002140D03*
X005994Y002140D03*
X004994Y002140D03*
X009644Y005790D03*
X009644Y006140D03*
X009694Y005190D03*
X008188Y007396D03*
X009644Y008140D03*
X009644Y008890D03*
X009644Y009640D03*
X009644Y010390D03*
X010894Y010390D03*
X011294Y010390D03*
X011294Y010890D03*
X008154Y009331D03*
X022144Y011640D03*
X022144Y012140D03*
X022644Y012140D03*
X023119Y012140D03*
X023119Y011640D03*
X022644Y011640D03*
D42*
X021441Y007518D02*
X020530Y007518D01*
X021441Y007518D02*
X021619Y007340D01*
X021619Y007290D01*
X021610Y007281D01*
X021912Y007281D01*
X021644Y006140D02*
X021447Y005943D01*
X020530Y005943D01*
X016844Y013990D02*
X016844Y014090D01*
X018292Y019630D02*
X018352Y019690D01*
X019080Y019690D01*
X003594Y021006D02*
X003578Y020990D01*
X003344Y020990D01*
X002740Y017632D02*
X002740Y017294D01*
X002744Y017290D01*
D43*
X001843Y001789D02*
X004674Y001789D01*
X004674Y001797D02*
X004674Y000815D01*
X004756Y000733D01*
X005344Y000733D01*
X005426Y000815D01*
X005426Y001797D01*
X005344Y001879D01*
X005230Y001879D01*
X005230Y001980D01*
X005232Y001981D01*
X005274Y002084D01*
X005274Y002165D01*
X006885Y003776D01*
X009247Y003776D01*
X009247Y003748D01*
X009333Y003662D01*
X009247Y003575D01*
X009247Y003548D01*
X007148Y003548D01*
X006020Y002420D01*
X005939Y002420D01*
X005836Y002377D01*
X005757Y002299D01*
X005714Y002196D01*
X005714Y002084D01*
X005757Y001981D01*
X005834Y001904D01*
X005834Y001863D01*
X005720Y001863D01*
X005638Y001781D01*
X005638Y000799D01*
X005720Y000717D01*
X006309Y000717D01*
X006391Y000799D01*
X006391Y001781D01*
X006309Y001863D01*
X006194Y001863D01*
X006194Y001944D01*
X006232Y001981D01*
X006274Y002084D01*
X006274Y002165D01*
X007297Y003188D01*
X009247Y003188D01*
X009247Y003161D01*
X009337Y003071D01*
X009253Y002987D01*
X007580Y002987D01*
X007013Y002420D01*
X006989Y002420D01*
X006886Y002377D01*
X006807Y002299D01*
X006764Y002196D01*
X006764Y002084D01*
X006807Y001981D01*
X006818Y001970D01*
X006818Y001879D01*
X006744Y001879D01*
X006662Y001797D01*
X006662Y000815D01*
X006744Y000733D01*
X007332Y000733D01*
X007414Y000815D01*
X007414Y001797D01*
X007332Y001879D01*
X007258Y001879D01*
X007258Y001958D01*
X007282Y001981D01*
X007324Y002084D01*
X007324Y002109D01*
X007762Y002547D01*
X009253Y002547D01*
X009276Y002524D01*
X009264Y002496D01*
X009264Y002384D01*
X009307Y002281D01*
X009386Y002203D01*
X009489Y002160D01*
X009600Y002160D01*
X009703Y002203D01*
X009782Y002281D01*
X009824Y002384D01*
X009824Y002496D01*
X009819Y002508D01*
X009870Y002560D01*
X009870Y002974D01*
X009781Y003064D01*
X009862Y003146D01*
X009955Y003053D01*
X010369Y003053D01*
X010477Y003161D01*
X010477Y003428D01*
X010561Y003513D01*
X010561Y003393D01*
X010643Y003311D01*
X011519Y003311D01*
X011601Y003393D01*
X011601Y003769D01*
X011592Y003778D01*
X011601Y003787D01*
X011601Y004163D01*
X011592Y004171D01*
X011601Y004180D01*
X011601Y004556D01*
X011592Y004565D01*
X011601Y004574D01*
X011601Y004950D01*
X011592Y004959D01*
X011601Y004968D01*
X011601Y005344D01*
X011519Y005426D01*
X010643Y005426D01*
X010593Y005376D01*
X009904Y005376D01*
X009853Y005427D01*
X009750Y005470D01*
X009639Y005470D01*
X009536Y005427D01*
X009457Y005349D01*
X009414Y005246D01*
X009414Y005134D01*
X009457Y005031D01*
X009536Y004953D01*
X009639Y004910D01*
X009750Y004910D01*
X009812Y004936D01*
X010313Y004936D01*
X010229Y004852D01*
X009961Y004852D01*
X009868Y004759D01*
X009776Y004852D01*
X009361Y004852D01*
X009324Y004815D01*
X009324Y009303D01*
X007877Y010750D01*
X010712Y010750D01*
X010837Y010802D01*
X011337Y011302D01*
X011432Y011397D01*
X011484Y011522D01*
X011484Y011958D01*
X011432Y012083D01*
X011365Y012150D01*
X015137Y012150D01*
X015114Y012096D01*
X015114Y011984D01*
X015118Y011975D01*
X014830Y011975D01*
X014821Y011966D01*
X014813Y011975D01*
X014437Y011975D01*
X014428Y011966D01*
X014419Y011975D01*
X014043Y011975D01*
X014034Y011966D01*
X014025Y011975D01*
X013649Y011975D01*
X013640Y011966D01*
X013631Y011975D01*
X013255Y011975D01*
X013247Y011966D01*
X013238Y011975D01*
X012862Y011975D01*
X012780Y011893D01*
X012780Y011017D01*
X012862Y010935D01*
X013238Y010935D01*
X013247Y010944D01*
X013255Y010935D01*
X013631Y010935D01*
X013640Y010944D01*
X013649Y010935D01*
X014025Y010935D01*
X014034Y010944D01*
X014043Y010935D01*
X014419Y010935D01*
X014428Y010944D01*
X014437Y010935D01*
X014813Y010935D01*
X014821Y010944D01*
X014830Y010935D01*
X015206Y010935D01*
X015215Y010944D01*
X015224Y010935D01*
X015600Y010935D01*
X015609Y010944D01*
X015618Y010935D01*
X015994Y010935D01*
X016002Y010944D01*
X016011Y010935D01*
X016387Y010935D01*
X016396Y010944D01*
X016405Y010935D01*
X016781Y010935D01*
X016790Y010944D01*
X016799Y010935D01*
X017175Y010935D01*
X017184Y010944D01*
X017192Y010935D01*
X017568Y010935D01*
X017577Y010944D01*
X017586Y010935D01*
X017962Y010935D01*
X017971Y010944D01*
X017980Y010935D01*
X018356Y010935D01*
X018365Y010944D01*
X018374Y010935D01*
X018750Y010935D01*
X018758Y010944D01*
X018767Y010935D01*
X019143Y010935D01*
X019225Y011017D01*
X019225Y011893D01*
X019149Y011969D01*
X019149Y011990D01*
X019044Y012095D01*
X019004Y012135D01*
X019300Y012135D01*
X020914Y010521D01*
X020914Y010150D01*
X020092Y010150D01*
X020010Y010068D01*
X020010Y009692D01*
X020019Y009683D01*
X020010Y009674D01*
X020010Y009298D01*
X020019Y009290D01*
X020010Y009281D01*
X020010Y008905D01*
X020092Y008823D01*
X020968Y008823D01*
X021050Y008905D01*
X021050Y008913D01*
X021072Y008913D01*
X021169Y009010D01*
X021274Y009115D01*
X021274Y010670D01*
X021169Y010775D01*
X019449Y012495D01*
X018205Y012495D01*
X018749Y013039D01*
X020893Y013039D01*
X020896Y013035D01*
X020919Y013033D01*
X020939Y013020D01*
X020950Y013023D01*
X020953Y013020D01*
X020984Y013020D01*
X021024Y013006D01*
X021049Y013018D01*
X021110Y013011D01*
X021121Y013020D01*
X022767Y013020D01*
X022778Y013011D01*
X022839Y013018D01*
X022864Y013006D01*
X022904Y013020D01*
X022935Y013020D01*
X022938Y013023D01*
X022949Y013020D01*
X022969Y013033D01*
X022993Y013035D01*
X023007Y013053D01*
X023029Y013053D01*
X023046Y013069D01*
X023068Y013077D01*
X023078Y013097D01*
X023099Y013102D01*
X023112Y013122D01*
X023132Y013135D01*
X023137Y013157D01*
X023157Y013166D01*
X023165Y013189D01*
X023181Y013205D01*
X023181Y013228D01*
X023199Y013241D01*
X023202Y013265D01*
X023214Y013285D01*
X023212Y013296D01*
X023214Y013299D01*
X023214Y013330D01*
X023228Y013370D01*
X023216Y013395D01*
X023223Y013456D01*
X023214Y013467D01*
X023214Y017363D01*
X023223Y017374D01*
X023216Y017435D01*
X023228Y017460D01*
X023214Y017500D01*
X023214Y017531D01*
X023212Y017534D01*
X023214Y017545D01*
X023202Y017565D01*
X023199Y017589D01*
X023181Y017602D01*
X023181Y017625D01*
X023165Y017641D01*
X023157Y017664D01*
X023137Y017673D01*
X023132Y017695D01*
X023112Y017708D01*
X023099Y017728D01*
X023078Y017733D01*
X023068Y017753D01*
X023046Y017761D01*
X023029Y017777D01*
X023007Y017777D01*
X022993Y017795D01*
X022969Y017797D01*
X022949Y017810D01*
X022938Y017807D01*
X022935Y017810D01*
X022904Y017810D01*
X022864Y017824D01*
X022839Y017812D01*
X022778Y017819D01*
X022767Y017810D01*
X022715Y017810D01*
X022715Y018301D01*
X022722Y018301D01*
X022830Y018409D01*
X022830Y018824D01*
X022722Y018931D01*
X022308Y018931D01*
X022215Y018839D01*
X022136Y018918D01*
X022238Y019020D01*
X022238Y019435D01*
X022130Y019543D01*
X021716Y019543D01*
X021608Y019435D01*
X021608Y019385D01*
X021553Y019440D01*
X021620Y019507D01*
X021620Y019873D01*
X021553Y019940D01*
X021620Y020007D01*
X021620Y020373D01*
X021538Y020455D01*
X020822Y020455D01*
X020740Y020373D01*
X020740Y020007D01*
X020807Y019940D01*
X020747Y019880D01*
X020623Y019880D01*
X020592Y019910D01*
X020592Y020595D01*
X020610Y020595D01*
X020717Y020702D01*
X020717Y021117D01*
X020610Y021225D01*
X020195Y021225D01*
X020102Y021132D01*
X020010Y021225D01*
X019930Y021225D01*
X019870Y021250D01*
X019034Y021250D01*
X019034Y021449D01*
X019115Y021530D01*
X019549Y021530D01*
X019631Y021612D01*
X019631Y022673D01*
X019549Y022755D01*
X018489Y022755D01*
X018407Y022673D01*
X018407Y021783D01*
X018406Y021783D01*
X018354Y021658D01*
X018354Y020831D01*
X018004Y020481D01*
X017952Y020356D01*
X017952Y019562D01*
X017977Y019502D01*
X017977Y019422D01*
X018085Y019315D01*
X018164Y019315D01*
X018225Y019290D01*
X018360Y019290D01*
X018420Y019315D01*
X018500Y019315D01*
X018607Y019422D01*
X018607Y019430D01*
X018647Y019430D01*
X018647Y019412D01*
X018646Y019409D01*
X018644Y019406D01*
X018627Y019393D01*
X018626Y019376D01*
X018617Y019363D01*
X018621Y019346D01*
X018614Y019340D01*
X018614Y019318D01*
X018603Y019287D01*
X018613Y019267D01*
X018607Y019211D01*
X018614Y019202D01*
X018607Y019194D01*
X018613Y019138D01*
X018603Y019118D01*
X018614Y019087D01*
X018614Y019065D01*
X018621Y019059D01*
X018617Y019042D01*
X018626Y019029D01*
X018627Y019012D01*
X018644Y018999D01*
X018646Y018996D01*
X018647Y018993D01*
X018647Y018972D01*
X018658Y018960D01*
X018664Y018945D01*
X018683Y018936D01*
X018685Y018934D01*
X018687Y018931D01*
X018692Y018910D01*
X018706Y018901D01*
X018714Y018888D01*
X018735Y018883D01*
X018738Y018881D01*
X018740Y018879D01*
X018749Y018860D01*
X018765Y018854D01*
X018776Y018843D01*
X018797Y018843D01*
X018801Y018842D01*
X018803Y018840D01*
X018817Y018823D01*
X018833Y018821D01*
X018847Y018813D01*
X018863Y018817D01*
X018870Y018810D01*
X018891Y018810D01*
X018922Y018799D01*
X018942Y018809D01*
X018998Y018803D01*
X019007Y018810D01*
X019335Y018810D01*
X019358Y018808D01*
X019371Y018804D01*
X019383Y018797D01*
X019393Y018789D01*
X019402Y018778D01*
X019408Y018766D01*
X019412Y018753D01*
X019414Y018731D01*
X019414Y017407D01*
X019236Y017407D01*
X019162Y017481D01*
X019162Y017980D01*
X019080Y018062D01*
X017884Y018062D01*
X017802Y017980D01*
X017802Y017472D01*
X017599Y017674D01*
X017602Y017700D01*
X017594Y017710D01*
X017594Y020818D01*
X017601Y020827D01*
X017594Y020898D01*
X017605Y020918D01*
X017594Y020953D01*
X017594Y020973D01*
X017586Y020981D01*
X017585Y020990D01*
X017591Y021007D01*
X017582Y021023D01*
X017580Y021041D01*
X017566Y021052D01*
X017561Y021063D01*
X017557Y021074D01*
X017559Y021092D01*
X017548Y021106D01*
X017543Y021123D01*
X017527Y021132D01*
X017519Y021141D01*
X017514Y021151D01*
X017512Y021169D01*
X017498Y021180D01*
X017489Y021196D01*
X017472Y021201D01*
X017463Y021209D01*
X017456Y021218D01*
X017450Y021235D01*
X017435Y021244D01*
X017423Y021258D01*
X017405Y021259D01*
X017395Y021265D01*
X017386Y021272D01*
X017377Y021288D01*
X017360Y021294D01*
X017346Y021305D01*
X017328Y021303D01*
X017317Y021307D01*
X017307Y021312D01*
X017295Y021326D01*
X017277Y021328D01*
X017261Y021336D01*
X017244Y021331D01*
X017235Y021332D01*
X017227Y021340D01*
X017207Y021340D01*
X017172Y021351D01*
X017152Y021340D01*
X017081Y021347D01*
X017073Y021340D01*
X015500Y021340D01*
X015492Y021346D01*
X015419Y021340D01*
X015364Y021340D01*
X015354Y021346D01*
X015291Y021329D01*
X015251Y021325D01*
X015453Y021528D01*
X015832Y021528D01*
X015905Y021600D01*
X016686Y021600D01*
X016756Y021530D01*
X017817Y021530D01*
X017899Y021612D01*
X017899Y022673D01*
X017817Y022755D01*
X016756Y022755D01*
X016682Y022680D01*
X015905Y022680D01*
X015832Y022752D01*
X014771Y022752D01*
X014689Y022670D01*
X013074Y022670D01*
X013074Y022748D02*
X014767Y022748D01*
X014689Y022670D02*
X014689Y022291D01*
X013718Y021320D01*
X013314Y021320D01*
X013307Y021326D01*
X013241Y021320D01*
X013176Y021320D01*
X013169Y021324D01*
X013112Y021309D01*
X013054Y021304D01*
X013045Y021294D01*
X013033Y021298D01*
X012980Y021273D01*
X012923Y021258D01*
X012917Y021247D01*
X012904Y021249D01*
X012856Y021216D01*
X012803Y021191D01*
X012798Y021179D01*
X012785Y021179D01*
X012744Y021137D01*
X012696Y021103D01*
X012693Y021091D01*
X012681Y021089D01*
X012647Y021040D01*
X012606Y020999D01*
X012606Y020986D01*
X012594Y020982D01*
X012569Y020928D01*
X012535Y020880D01*
X012537Y020867D01*
X012526Y020861D01*
X012511Y020804D01*
X012486Y020751D01*
X012490Y020739D01*
X012481Y020731D01*
X012475Y020672D01*
X012460Y020615D01*
X012464Y020608D01*
X012464Y020544D01*
X012458Y020477D01*
X012464Y020470D01*
X012464Y018084D01*
X012324Y017944D01*
X012240Y017860D01*
X012194Y017750D01*
X012194Y015814D01*
X012170Y015790D01*
X010419Y015790D01*
X010411Y015799D01*
X009996Y015799D01*
X009903Y015706D01*
X009818Y015791D01*
X009909Y015883D01*
X009909Y016297D01*
X009814Y016393D01*
X009905Y016484D01*
X009905Y016898D01*
X009797Y017006D01*
X009383Y017006D01*
X009275Y016898D01*
X009275Y016805D01*
X009253Y016827D01*
X009150Y016870D01*
X009039Y016870D01*
X008936Y016827D01*
X008878Y016770D01*
X008620Y016770D01*
X008514Y016665D01*
X008488Y016638D01*
X008488Y016998D01*
X008406Y017080D01*
X008256Y017080D01*
X008309Y017133D01*
X008309Y017547D01*
X008217Y017640D01*
X008304Y017728D01*
X008304Y017607D01*
X008381Y017531D01*
X008378Y017528D01*
X008378Y017113D01*
X008485Y017005D01*
X008900Y017005D01*
X009008Y017113D01*
X009008Y017528D01*
X008956Y017579D01*
X008984Y017607D01*
X008984Y018173D01*
X008902Y018255D01*
X008386Y018255D01*
X008304Y018173D01*
X008304Y018152D01*
X008202Y018255D01*
X007787Y018255D01*
X007679Y018147D01*
X007679Y017733D01*
X007772Y017640D01*
X007679Y017547D01*
X007679Y017133D01*
X007743Y017069D01*
X007743Y017068D01*
X007673Y016998D01*
X007673Y016420D01*
X007543Y016420D01*
X007543Y016998D01*
X007516Y017025D01*
X007552Y017025D01*
X007659Y017133D01*
X007659Y017547D01*
X007552Y017655D01*
X007422Y017655D01*
X007362Y017680D01*
X006927Y017680D01*
X006866Y017655D01*
X006487Y017655D01*
X006379Y017547D01*
X006379Y017133D01*
X006432Y017080D01*
X005865Y017080D01*
X005783Y016998D01*
X005783Y016906D01*
X005459Y017230D01*
X005459Y017497D01*
X005352Y017605D01*
X005324Y017605D01*
X005324Y017665D01*
X005409Y017750D01*
X006102Y017750D01*
X006184Y017832D01*
X006184Y018748D01*
X006102Y018830D01*
X005286Y018830D01*
X005204Y018748D01*
X005204Y018055D01*
X004964Y017815D01*
X004964Y017605D01*
X004937Y017605D01*
X004844Y017512D01*
X004752Y017605D01*
X004724Y017605D01*
X004724Y017815D01*
X004484Y018055D01*
X004484Y018748D01*
X004402Y018830D01*
X003586Y018830D01*
X003504Y018748D01*
X003504Y017832D01*
X003586Y017750D01*
X004280Y017750D01*
X004364Y017665D01*
X004364Y017605D01*
X004337Y017605D01*
X004229Y017497D01*
X004229Y017083D01*
X004337Y016975D01*
X004605Y016975D01*
X004770Y016810D01*
X005070Y016810D01*
X005527Y016352D01*
X005138Y016352D01*
X005056Y016270D01*
X005056Y015970D01*
X004919Y015970D01*
X003374Y017515D01*
X003374Y018141D01*
X003269Y018246D01*
X003095Y018420D01*
X003059Y018420D01*
X003059Y018447D01*
X002952Y018555D01*
X002537Y018555D01*
X002444Y018462D01*
X002379Y018527D01*
X002457Y018605D01*
X002457Y019020D01*
X002377Y019100D01*
X002434Y019157D01*
X002434Y019723D01*
X002352Y019805D01*
X001836Y019805D01*
X001754Y019723D01*
X001754Y019157D01*
X001836Y019075D01*
X001882Y019075D01*
X001827Y019020D01*
X001827Y018605D01*
X001907Y018525D01*
X001829Y018447D01*
X001829Y018210D01*
X001809Y018230D01*
X001809Y018447D01*
X001702Y018555D01*
X001287Y018555D01*
X001194Y018462D01*
X001128Y018529D01*
X001204Y018605D01*
X001204Y019020D01*
X001125Y019098D01*
X001184Y019157D01*
X001184Y019723D01*
X001102Y019805D01*
X000586Y019805D01*
X000504Y019723D01*
X000504Y019157D01*
X000586Y019075D01*
X000629Y019075D01*
X000574Y019020D01*
X000574Y018605D01*
X000655Y018524D01*
X000579Y018447D01*
X000579Y018033D01*
X000672Y017940D01*
X000579Y017847D01*
X000579Y017580D01*
X000520Y017520D01*
X000414Y017415D01*
X000414Y007214D01*
X000520Y007108D01*
X000703Y006925D01*
X000658Y006816D01*
X000658Y006613D01*
X000735Y006426D01*
X000879Y006282D01*
X001066Y006205D01*
X001269Y006205D01*
X001457Y006282D01*
X001600Y006426D01*
X001678Y006613D01*
X001678Y006816D01*
X001600Y007004D01*
X001457Y007147D01*
X001318Y007205D01*
X001369Y007205D01*
X001557Y007282D01*
X001700Y007426D01*
X001741Y007525D01*
X007791Y007525D01*
X007908Y007408D01*
X007908Y007341D01*
X007951Y007238D01*
X008029Y007159D01*
X008132Y007116D01*
X008244Y007116D01*
X008347Y007159D01*
X008425Y007238D01*
X008468Y007341D01*
X008468Y007452D01*
X008425Y007555D01*
X008347Y007634D01*
X008244Y007676D01*
X008964Y007676D01*
X008964Y007598D02*
X008383Y007598D01*
X008440Y007519D02*
X008964Y007519D01*
X008964Y007441D02*
X008468Y007441D01*
X008468Y007362D02*
X008964Y007362D01*
X008964Y007284D02*
X008444Y007284D01*
X008393Y007205D02*
X008964Y007205D01*
X008964Y007127D02*
X008268Y007127D01*
X008108Y007127D02*
X001477Y007127D01*
X001556Y007048D02*
X008964Y007048D01*
X008964Y006970D02*
X001614Y006970D01*
X001647Y006891D02*
X008964Y006891D01*
X008964Y006813D02*
X001678Y006813D01*
X001678Y006734D02*
X008964Y006734D01*
X008964Y006656D02*
X001678Y006656D01*
X001663Y006577D02*
X008964Y006577D01*
X008964Y006499D02*
X001630Y006499D01*
X001594Y006420D02*
X008964Y006420D01*
X008964Y006342D02*
X001516Y006342D01*
X001410Y006263D02*
X008964Y006263D01*
X008964Y006185D02*
X000284Y006185D01*
X000284Y006263D02*
X000926Y006263D01*
X000820Y006342D02*
X000284Y006342D01*
X000284Y006420D02*
X000741Y006420D01*
X000705Y006499D02*
X000284Y006499D01*
X000284Y006577D02*
X000673Y006577D01*
X000658Y006656D02*
X000284Y006656D01*
X000284Y006734D02*
X000658Y006734D01*
X000658Y006813D02*
X000284Y006813D01*
X000284Y006891D02*
X000689Y006891D01*
X000659Y006970D02*
X000284Y006970D01*
X000284Y007048D02*
X000580Y007048D01*
X000502Y007127D02*
X000284Y007127D01*
X000284Y007205D02*
X000423Y007205D01*
X000414Y007284D02*
X000284Y007284D01*
X000284Y007362D02*
X000414Y007362D01*
X000414Y007441D02*
X000284Y007441D01*
X000284Y007519D02*
X000414Y007519D01*
X000414Y007598D02*
X000284Y007598D01*
X000284Y007676D02*
X000414Y007676D01*
X000414Y007755D02*
X000284Y007755D01*
X000284Y007833D02*
X000414Y007833D01*
X000414Y007912D02*
X000284Y007912D01*
X000284Y007990D02*
X000414Y007990D01*
X000414Y008069D02*
X000284Y008069D01*
X000284Y008147D02*
X000414Y008147D01*
X000414Y008226D02*
X000284Y008226D01*
X000284Y008304D02*
X000414Y008304D01*
X000414Y008383D02*
X000284Y008383D01*
X000284Y008461D02*
X000414Y008461D01*
X000414Y008540D02*
X000284Y008540D01*
X000284Y008618D02*
X000414Y008618D01*
X000414Y008697D02*
X000284Y008697D01*
X000284Y008775D02*
X000414Y008775D01*
X000414Y008854D02*
X000284Y008854D01*
X000284Y008932D02*
X000414Y008932D01*
X000414Y009011D02*
X000284Y009011D01*
X000284Y009089D02*
X000414Y009089D01*
X000414Y009168D02*
X000284Y009168D01*
X000284Y009246D02*
X000414Y009246D01*
X000414Y009325D02*
X000284Y009325D01*
X000284Y009403D02*
X000414Y009403D01*
X000414Y009482D02*
X000284Y009482D01*
X000284Y009560D02*
X000414Y009560D01*
X000414Y009639D02*
X000284Y009639D01*
X000284Y009717D02*
X000414Y009717D01*
X000414Y009796D02*
X000284Y009796D01*
X000284Y009874D02*
X000414Y009874D01*
X000414Y009953D02*
X000284Y009953D01*
X000284Y010031D02*
X000414Y010031D01*
X000414Y010110D02*
X000284Y010110D01*
X000284Y010188D02*
X000414Y010188D01*
X000414Y010267D02*
X000284Y010267D01*
X000284Y010345D02*
X000414Y010345D01*
X000414Y010424D02*
X000284Y010424D01*
X000284Y010502D02*
X000414Y010502D01*
X000414Y010581D02*
X000284Y010581D01*
X000284Y010659D02*
X000414Y010659D01*
X000414Y010738D02*
X000284Y010738D01*
X000284Y010816D02*
X000414Y010816D01*
X000414Y010895D02*
X000284Y010895D01*
X000284Y010973D02*
X000414Y010973D01*
X000414Y011052D02*
X000284Y011052D01*
X000284Y011130D02*
X000414Y011130D01*
X000414Y011209D02*
X000284Y011209D01*
X000284Y011287D02*
X000414Y011287D01*
X000414Y011366D02*
X000284Y011366D01*
X000284Y011444D02*
X000414Y011444D01*
X000414Y011523D02*
X000284Y011523D01*
X000284Y011601D02*
X000414Y011601D01*
X000414Y011680D02*
X000284Y011680D01*
X000284Y011758D02*
X000414Y011758D01*
X000414Y011837D02*
X000284Y011837D01*
X000284Y011915D02*
X000414Y011915D01*
X000414Y011994D02*
X000284Y011994D01*
X000284Y012072D02*
X000414Y012072D01*
X000414Y012151D02*
X000284Y012151D01*
X000284Y012229D02*
X000414Y012229D01*
X000414Y012308D02*
X000284Y012308D01*
X000284Y012386D02*
X000414Y012386D01*
X000414Y012465D02*
X000284Y012465D01*
X000284Y012543D02*
X000414Y012543D01*
X000414Y012622D02*
X000284Y012622D01*
X000284Y012700D02*
X000414Y012700D01*
X000414Y012779D02*
X000284Y012779D01*
X000284Y012857D02*
X000414Y012857D01*
X000414Y012936D02*
X000284Y012936D01*
X000284Y013014D02*
X000414Y013014D01*
X000414Y013093D02*
X000284Y013093D01*
X000284Y013171D02*
X000414Y013171D01*
X000414Y013250D02*
X000284Y013250D01*
X000284Y013328D02*
X000414Y013328D01*
X000414Y013407D02*
X000284Y013407D01*
X000284Y013485D02*
X000414Y013485D01*
X000414Y013564D02*
X000284Y013564D01*
X000284Y013642D02*
X000414Y013642D01*
X000414Y013721D02*
X000284Y013721D01*
X000284Y013799D02*
X000414Y013799D01*
X000414Y013878D02*
X000284Y013878D01*
X000284Y013956D02*
X000414Y013956D01*
X000414Y014035D02*
X000284Y014035D01*
X000284Y014113D02*
X000414Y014113D01*
X000414Y014192D02*
X000284Y014192D01*
X000284Y014270D02*
X000414Y014270D01*
X000414Y014349D02*
X000284Y014349D01*
X000284Y014427D02*
X000414Y014427D01*
X000414Y014506D02*
X000284Y014506D01*
X000284Y014584D02*
X000414Y014584D01*
X000414Y014663D02*
X000284Y014663D01*
X000284Y014741D02*
X000414Y014741D01*
X000414Y014820D02*
X000284Y014820D01*
X000284Y014898D02*
X000414Y014898D01*
X000414Y014977D02*
X000284Y014977D01*
X000284Y015055D02*
X000414Y015055D01*
X000414Y015134D02*
X000284Y015134D01*
X000284Y015212D02*
X000414Y015212D01*
X000414Y015291D02*
X000284Y015291D01*
X000284Y015369D02*
X000414Y015369D01*
X000414Y015448D02*
X000284Y015448D01*
X000284Y015526D02*
X000414Y015526D01*
X000414Y015605D02*
X000284Y015605D01*
X000284Y015683D02*
X000414Y015683D01*
X000414Y015762D02*
X000284Y015762D01*
X000284Y015840D02*
X000414Y015840D01*
X000414Y015919D02*
X000284Y015919D01*
X000284Y015997D02*
X000414Y015997D01*
X000414Y016076D02*
X000284Y016076D01*
X000284Y016154D02*
X000414Y016154D01*
X000414Y016233D02*
X000284Y016233D01*
X000284Y016311D02*
X000414Y016311D01*
X000414Y016390D02*
X000284Y016390D01*
X000284Y016468D02*
X000414Y016468D01*
X000414Y016547D02*
X000284Y016547D01*
X000284Y016625D02*
X000414Y016625D01*
X000414Y016704D02*
X000284Y016704D01*
X000284Y016782D02*
X000414Y016782D01*
X000414Y016861D02*
X000284Y016861D01*
X000284Y016939D02*
X000414Y016939D01*
X000414Y017018D02*
X000284Y017018D01*
X000284Y017096D02*
X000414Y017096D01*
X000414Y017175D02*
X000284Y017175D01*
X000284Y017253D02*
X000414Y017253D01*
X000414Y017332D02*
X000284Y017332D01*
X000284Y017410D02*
X000414Y017410D01*
X000488Y017489D02*
X000284Y017489D01*
X000284Y017567D02*
X000567Y017567D01*
X000579Y017646D02*
X000284Y017646D01*
X000284Y017724D02*
X000579Y017724D01*
X000579Y017803D02*
X000284Y017803D01*
X000284Y017881D02*
X000613Y017881D01*
X000652Y017960D02*
X000284Y017960D01*
X000284Y018038D02*
X000579Y018038D01*
X000579Y018117D02*
X000284Y018117D01*
X000284Y018195D02*
X000579Y018195D01*
X000579Y018274D02*
X000284Y018274D01*
X000284Y018352D02*
X000579Y018352D01*
X000579Y018431D02*
X000284Y018431D01*
X000284Y018509D02*
X000641Y018509D01*
X000591Y018588D02*
X000284Y018588D01*
X000284Y018666D02*
X000574Y018666D01*
X000574Y018745D02*
X000284Y018745D01*
X000284Y018823D02*
X000574Y018823D01*
X000574Y018902D02*
X000284Y018902D01*
X000284Y018980D02*
X000574Y018980D01*
X000613Y019059D02*
X000284Y019059D01*
X000284Y019137D02*
X000524Y019137D01*
X000504Y019216D02*
X000284Y019216D01*
X000284Y019294D02*
X000504Y019294D01*
X000504Y019373D02*
X000284Y019373D01*
X000284Y019451D02*
X000504Y019451D01*
X000504Y019530D02*
X000284Y019530D01*
X000284Y019608D02*
X000504Y019608D01*
X000504Y019687D02*
X000284Y019687D01*
X000284Y019765D02*
X000546Y019765D01*
X000284Y019844D02*
X003736Y019844D01*
X003740Y019840D02*
X003714Y019815D01*
X003646Y019746D01*
X003408Y019746D01*
X003304Y019642D01*
X003304Y019220D01*
X003408Y019116D01*
X003780Y019116D01*
X003884Y019220D01*
X003884Y019475D01*
X003969Y019560D01*
X004779Y019560D01*
X004847Y019492D01*
X004847Y019224D01*
X004955Y019116D01*
X005370Y019116D01*
X005462Y019209D01*
X005555Y019116D01*
X005970Y019116D01*
X006077Y019224D01*
X006077Y019639D01*
X006047Y019669D01*
X006074Y019734D01*
X006074Y019846D01*
X006032Y019949D01*
X006023Y019957D01*
X006077Y020011D01*
X006077Y020360D01*
X006169Y020360D01*
X006419Y020610D01*
X006524Y020715D01*
X006524Y022074D01*
X006077Y022521D01*
X006077Y022788D01*
X005970Y022896D01*
X005555Y022896D01*
X005462Y022803D01*
X005370Y022896D01*
X004955Y022896D01*
X004847Y022788D01*
X004847Y022761D01*
X004484Y022761D01*
X004484Y022792D01*
X004380Y022896D01*
X004008Y022896D01*
X003904Y022792D01*
X003904Y022370D01*
X004008Y022266D01*
X004380Y022266D01*
X004484Y022370D01*
X004484Y022401D01*
X004847Y022401D01*
X004847Y022374D01*
X004955Y022266D01*
X005370Y022266D01*
X005462Y022359D01*
X005555Y022266D01*
X005823Y022266D01*
X006164Y021924D01*
X006164Y021646D01*
X006077Y021733D01*
X006077Y022001D01*
X005970Y022109D01*
X005555Y022109D01*
X005462Y022016D01*
X005370Y022109D01*
X004955Y022109D01*
X004847Y022001D01*
X004847Y021974D01*
X004484Y021974D01*
X004484Y022005D01*
X004380Y022109D01*
X004008Y022109D01*
X003904Y022005D01*
X003904Y021583D01*
X004008Y021479D01*
X004380Y021479D01*
X004484Y021583D01*
X004484Y021614D01*
X004847Y021614D01*
X004847Y021586D01*
X004955Y021479D01*
X005370Y021479D01*
X005462Y021571D01*
X005555Y021479D01*
X005823Y021479D01*
X006014Y021287D01*
X006014Y020915D01*
X005970Y020870D01*
X005477Y020870D01*
X005477Y021214D01*
X005370Y021321D01*
X004955Y021321D01*
X004847Y021214D01*
X004847Y021186D01*
X004484Y021186D01*
X004484Y021217D01*
X004380Y021321D01*
X004008Y021321D01*
X003904Y021217D01*
X003904Y020870D01*
X003884Y020870D01*
X003884Y021217D01*
X003814Y021287D01*
X003814Y021513D01*
X003884Y021583D01*
X003884Y022005D01*
X003814Y022075D01*
X003814Y022300D01*
X003884Y022370D01*
X003884Y022792D01*
X003780Y022896D01*
X003408Y022896D01*
X003304Y022792D01*
X003304Y022370D01*
X003374Y022300D01*
X003374Y022075D01*
X003304Y022005D01*
X003304Y021583D01*
X003374Y021513D01*
X003374Y021287D01*
X003357Y021270D01*
X003289Y021270D01*
X003186Y021227D01*
X003107Y021149D01*
X003064Y021046D01*
X003064Y020934D01*
X003091Y020870D01*
X001570Y020870D01*
X001464Y020765D01*
X001464Y020765D01*
X001305Y020605D01*
X000936Y020605D01*
X000854Y020523D01*
X000854Y019957D01*
X000936Y019875D01*
X001452Y019875D01*
X001534Y019957D01*
X001534Y020325D01*
X001719Y020510D01*
X002104Y020510D01*
X002104Y019957D01*
X002186Y019875D01*
X002702Y019875D01*
X002784Y019957D01*
X002784Y020325D01*
X002819Y020360D01*
X003304Y020360D01*
X003304Y020008D01*
X003408Y019904D01*
X003676Y019904D01*
X003714Y019865D01*
X003740Y019840D01*
X003665Y019765D02*
X002392Y019765D01*
X002434Y019687D02*
X003348Y019687D01*
X003304Y019608D02*
X002434Y019608D01*
X002434Y019530D02*
X003304Y019530D01*
X003304Y019451D02*
X002434Y019451D01*
X002434Y019373D02*
X003304Y019373D01*
X003304Y019294D02*
X002434Y019294D01*
X002434Y019216D02*
X003309Y019216D01*
X003387Y019137D02*
X002414Y019137D01*
X002418Y019059D02*
X012464Y019059D01*
X012464Y019137D02*
X005990Y019137D01*
X006069Y019216D02*
X012464Y019216D01*
X012464Y019294D02*
X006077Y019294D01*
X006077Y019373D02*
X012464Y019373D01*
X012464Y019451D02*
X006077Y019451D01*
X006077Y019530D02*
X012464Y019530D01*
X012464Y019608D02*
X006077Y019608D01*
X006054Y019687D02*
X012464Y019687D01*
X012464Y019765D02*
X006074Y019765D01*
X006074Y019844D02*
X012464Y019844D01*
X012464Y019922D02*
X006043Y019922D01*
X006067Y020001D02*
X010193Y020001D01*
X010188Y020004D02*
X010199Y019996D01*
X010212Y019997D01*
X010229Y019992D01*
X010245Y019984D01*
X010254Y019973D01*
X010267Y019972D01*
X010279Y019965D01*
X010293Y019969D01*
X010310Y019967D01*
X010313Y019966D01*
X010320Y019960D01*
X010335Y019960D01*
X010365Y019951D01*
X010382Y019960D01*
X010385Y019960D01*
X010451Y019954D01*
X010459Y019960D01*
X011830Y019960D01*
X011838Y019954D01*
X011903Y019960D01*
X011907Y019960D01*
X011924Y019951D01*
X011954Y019960D01*
X011969Y019960D01*
X011975Y019966D01*
X011978Y019967D01*
X011996Y019969D01*
X012009Y019965D01*
X012021Y019972D01*
X012035Y019973D01*
X012044Y019984D01*
X012059Y019992D01*
X012076Y019997D01*
X012090Y019996D01*
X012100Y020004D01*
X012113Y020008D01*
X012120Y020021D01*
X012134Y020032D01*
X012149Y020040D01*
X012163Y020041D01*
X012172Y020052D01*
X012184Y020059D01*
X012188Y020072D01*
X012199Y020085D01*
X012213Y020097D01*
X012226Y020101D01*
X012232Y020113D01*
X012243Y020121D01*
X012244Y020135D01*
X012252Y020151D01*
X012264Y020164D01*
X012276Y020171D01*
X012280Y020184D01*
X012289Y020195D01*
X012287Y020208D01*
X012292Y020225D01*
X012301Y020241D01*
X012311Y020249D01*
X012313Y020263D01*
X012319Y020275D01*
X012315Y020288D01*
X012317Y020306D01*
X012318Y020309D01*
X012324Y020315D01*
X012324Y020330D01*
X012333Y020360D01*
X012324Y020377D01*
X012324Y020381D01*
X012331Y020447D01*
X012324Y020454D01*
X012324Y021131D01*
X012326Y021153D01*
X012330Y021166D01*
X012337Y021178D01*
X012785Y021178D01*
X012785Y021223D02*
X012794Y021234D01*
X012809Y021242D01*
X012826Y021247D01*
X012840Y021246D01*
X012850Y021254D01*
X012863Y021258D01*
X012870Y021271D01*
X012884Y021282D01*
X012899Y021290D01*
X012913Y021291D01*
X012922Y021302D01*
X012934Y021309D01*
X012938Y021322D01*
X012949Y021335D01*
X013733Y021335D01*
X013812Y021414D02*
X013013Y021414D01*
X013014Y021414D02*
X013026Y021421D01*
X013030Y021434D01*
X013039Y021445D01*
X013037Y021458D01*
X013042Y021475D01*
X013051Y021491D01*
X013061Y021499D01*
X013063Y021513D01*
X013069Y021525D01*
X013065Y021538D01*
X013067Y021556D01*
X013068Y021559D01*
X013074Y021565D01*
X013074Y021580D01*
X013083Y021610D01*
X013074Y021627D01*
X013074Y021631D01*
X013081Y021697D01*
X013074Y021704D01*
X013074Y022826D01*
X013081Y022833D01*
X013074Y022899D01*
X013074Y022903D01*
X013083Y022920D01*
X013074Y022950D01*
X013074Y022965D01*
X013068Y022971D01*
X013067Y022974D01*
X013065Y022992D01*
X013069Y023005D01*
X013063Y023017D01*
X013061Y023031D01*
X013051Y023039D01*
X013042Y023055D01*
X013037Y023072D01*
X013039Y023085D01*
X013030Y023096D01*
X013026Y023109D01*
X013014Y023116D01*
X013002Y023129D01*
X012994Y023145D01*
X012993Y023159D01*
X012982Y023167D01*
X012976Y023179D01*
X012963Y023183D01*
X012949Y023195D01*
X012938Y023208D01*
X012934Y023221D01*
X012922Y023228D01*
X012921Y023228D01*
X020165Y023228D01*
X023233Y020161D01*
X023233Y007765D01*
X020894Y007765D01*
X020894Y007145D01*
X020820Y007070D01*
X020070Y007070D01*
X019969Y006970D01*
X019969Y010828D01*
X019887Y010910D01*
X011897Y010910D01*
X011815Y010828D01*
X011815Y002444D01*
X011897Y002362D01*
X012386Y002362D01*
X012386Y001568D01*
X012468Y001486D01*
X012844Y001486D01*
X012853Y001495D01*
X012862Y001486D01*
X013238Y001486D01*
X013247Y001495D01*
X013255Y001486D01*
X013631Y001486D01*
X013640Y001495D01*
X013649Y001486D01*
X014025Y001486D01*
X014107Y001568D01*
X014107Y002362D01*
X014355Y002362D01*
X014355Y001568D01*
X014437Y001486D01*
X014813Y001486D01*
X014821Y001495D01*
X014830Y001486D01*
X015206Y001486D01*
X015215Y001495D01*
X015224Y001486D01*
X015600Y001486D01*
X015609Y001495D01*
X015618Y001486D01*
X015994Y001486D01*
X016002Y001495D01*
X016011Y001486D01*
X016387Y001486D01*
X016469Y001568D01*
X016469Y002362D01*
X017110Y002362D01*
X017110Y001568D01*
X017192Y001486D01*
X017568Y001486D01*
X017577Y001495D01*
X017586Y001486D01*
X017962Y001486D01*
X017971Y001495D01*
X017980Y001486D01*
X018356Y001486D01*
X018365Y001495D01*
X018374Y001486D01*
X018750Y001486D01*
X018758Y001495D01*
X018767Y001486D01*
X019143Y001486D01*
X019225Y001568D01*
X019225Y002362D01*
X019887Y002362D01*
X019969Y002444D01*
X019969Y004620D01*
X019976Y004612D01*
X019978Y004595D01*
X019994Y004583D01*
X019996Y004563D01*
X020010Y004553D01*
X020016Y004538D01*
X020034Y004530D01*
X020042Y004512D01*
X020057Y004505D01*
X020068Y004492D01*
X020087Y004489D01*
X020099Y004474D01*
X020116Y004471D01*
X020129Y004461D01*
X020138Y004462D01*
X020140Y004460D01*
X020167Y004460D01*
X020197Y004448D01*
X020221Y004458D01*
X020265Y004452D01*
X020276Y004460D01*
X022662Y004460D01*
X022673Y004452D01*
X022717Y004458D01*
X022742Y004448D01*
X022772Y004460D01*
X022798Y004460D01*
X022801Y004462D01*
X022809Y004461D01*
X022823Y004471D01*
X022839Y004474D01*
X022851Y004489D01*
X022871Y004492D01*
X022881Y004505D01*
X022897Y004512D01*
X022904Y004530D01*
X022923Y004538D01*
X022929Y004553D01*
X022942Y004563D01*
X022945Y004583D01*
X022961Y004595D01*
X022963Y004612D01*
X022973Y004625D01*
X022972Y004634D01*
X022974Y004636D01*
X022974Y004662D01*
X022987Y004692D01*
X022977Y004717D01*
X022982Y004761D01*
X022974Y004772D01*
X022974Y005529D01*
X022982Y005540D01*
X022976Y005585D01*
X022986Y005609D01*
X022974Y005639D01*
X022974Y005665D01*
X022971Y005668D01*
X022972Y005678D01*
X022963Y005691D01*
X022960Y005707D01*
X022944Y005720D01*
X022941Y005740D01*
X022928Y005750D01*
X022922Y005765D01*
X023233Y005765D01*
X023233Y003348D01*
X020165Y000280D01*
X003352Y000280D01*
X000284Y003348D01*
X000284Y020161D01*
X003352Y023228D01*
X010117Y023228D01*
X010105Y023221D01*
X010101Y023208D01*
X010090Y023195D01*
X010076Y023183D01*
X010063Y023179D01*
X010056Y023167D01*
X010046Y023159D01*
X010044Y023145D01*
X010036Y023129D01*
X010025Y023116D01*
X010013Y023109D01*
X010009Y023096D01*
X010000Y023085D01*
X010001Y023072D01*
X009996Y023055D01*
X009988Y023039D01*
X009977Y023031D01*
X009976Y023017D01*
X009969Y023005D01*
X009973Y022992D01*
X009972Y022974D01*
X009971Y022971D01*
X009964Y022965D01*
X009964Y022950D01*
X009955Y022920D01*
X009964Y022903D01*
X009964Y022899D01*
X009958Y022833D01*
X009964Y022826D01*
X009964Y020454D01*
X009958Y020447D01*
X009964Y020381D01*
X009964Y020377D01*
X009955Y020360D01*
X009964Y020330D01*
X009964Y020315D01*
X009971Y020309D01*
X009972Y020306D01*
X009973Y020288D01*
X009969Y020275D01*
X009976Y020263D01*
X009977Y020249D01*
X009988Y020241D01*
X009996Y020225D01*
X010001Y020208D01*
X010000Y020195D01*
X010009Y020184D01*
X010013Y020171D01*
X010025Y020164D01*
X010036Y020151D01*
X010044Y020135D01*
X010046Y020121D01*
X010056Y020113D01*
X010063Y020101D01*
X010076Y020097D01*
X010090Y020085D01*
X010101Y020072D01*
X010105Y020059D01*
X010117Y020052D01*
X010126Y020041D01*
X010139Y020040D01*
X010155Y020032D01*
X010168Y020021D01*
X010175Y020008D01*
X010188Y020004D01*
X010095Y020079D02*
X006077Y020079D01*
X006077Y020158D02*
X010030Y020158D01*
X009990Y020236D02*
X006077Y020236D01*
X006077Y020315D02*
X009965Y020315D01*
X009963Y020393D02*
X006202Y020393D01*
X006280Y020472D02*
X009964Y020472D01*
X009964Y020550D02*
X006359Y020550D01*
X006437Y020629D02*
X009964Y020629D01*
X009964Y020707D02*
X006516Y020707D01*
X006524Y020786D02*
X009964Y020786D01*
X009964Y020864D02*
X006524Y020864D01*
X006524Y020943D02*
X009964Y020943D01*
X009964Y021021D02*
X006524Y021021D01*
X006524Y021100D02*
X009964Y021100D01*
X009964Y021178D02*
X006524Y021178D01*
X006524Y021257D02*
X009964Y021257D01*
X009964Y021335D02*
X006524Y021335D01*
X006524Y021414D02*
X009964Y021414D01*
X009964Y021492D02*
X006524Y021492D01*
X006524Y021571D02*
X009964Y021571D01*
X009964Y021649D02*
X006524Y021649D01*
X006524Y021728D02*
X009964Y021728D01*
X009964Y021806D02*
X006524Y021806D01*
X006524Y021885D02*
X009964Y021885D01*
X009964Y021963D02*
X006524Y021963D01*
X006524Y022042D02*
X009964Y022042D01*
X009964Y022120D02*
X006478Y022120D01*
X006399Y022199D02*
X009964Y022199D01*
X009964Y022277D02*
X006321Y022277D01*
X006242Y022356D02*
X009964Y022356D01*
X009964Y022434D02*
X006164Y022434D01*
X006085Y022513D02*
X009964Y022513D01*
X009964Y022591D02*
X006077Y022591D01*
X006077Y022670D02*
X009964Y022670D01*
X009964Y022748D02*
X006077Y022748D01*
X006039Y022827D02*
X009963Y022827D01*
X009963Y022905D02*
X003029Y022905D01*
X003107Y022984D02*
X009973Y022984D01*
X009998Y023062D02*
X003186Y023062D01*
X003264Y023141D02*
X010042Y023141D01*
X010104Y023219D02*
X003343Y023219D01*
X003339Y022827D02*
X002950Y022827D01*
X002872Y022748D02*
X003304Y022748D01*
X003304Y022670D02*
X002793Y022670D01*
X002715Y022591D02*
X003304Y022591D01*
X003304Y022513D02*
X002636Y022513D01*
X002558Y022434D02*
X003304Y022434D01*
X003319Y022356D02*
X002479Y022356D01*
X002401Y022277D02*
X003374Y022277D01*
X003374Y022199D02*
X002322Y022199D01*
X002244Y022120D02*
X003374Y022120D01*
X003341Y022042D02*
X002165Y022042D01*
X002087Y021963D02*
X003304Y021963D01*
X003304Y021885D02*
X002008Y021885D01*
X001930Y021806D02*
X003304Y021806D01*
X003304Y021728D02*
X001851Y021728D01*
X001773Y021649D02*
X003304Y021649D01*
X003316Y021571D02*
X001694Y021571D01*
X001616Y021492D02*
X003374Y021492D01*
X003374Y021414D02*
X001537Y021414D01*
X001459Y021335D02*
X003374Y021335D01*
X003256Y021257D02*
X001380Y021257D01*
X001302Y021178D02*
X003136Y021178D01*
X003087Y021100D02*
X001223Y021100D01*
X001145Y021021D02*
X003064Y021021D01*
X003064Y020943D02*
X001066Y020943D01*
X000988Y020864D02*
X001564Y020864D01*
X001485Y020786D02*
X000909Y020786D01*
X000831Y020707D02*
X001407Y020707D01*
X001328Y020629D02*
X000752Y020629D01*
X000674Y020550D02*
X000881Y020550D01*
X000854Y020472D02*
X000595Y020472D01*
X000517Y020393D02*
X000854Y020393D01*
X000854Y020315D02*
X000438Y020315D01*
X000360Y020236D02*
X000854Y020236D01*
X000854Y020158D02*
X000284Y020158D01*
X000284Y020079D02*
X000854Y020079D01*
X000854Y020001D02*
X000284Y020001D01*
X000284Y019922D02*
X000889Y019922D01*
X001142Y019765D02*
X001796Y019765D01*
X001754Y019687D02*
X001184Y019687D01*
X001184Y019608D02*
X001754Y019608D01*
X001754Y019530D02*
X001184Y019530D01*
X001184Y019451D02*
X001754Y019451D01*
X001754Y019373D02*
X001184Y019373D01*
X001184Y019294D02*
X001754Y019294D01*
X001754Y019216D02*
X001184Y019216D01*
X001164Y019137D02*
X001774Y019137D01*
X001866Y019059D02*
X001165Y019059D01*
X001204Y018980D02*
X001827Y018980D01*
X001827Y018902D02*
X001204Y018902D01*
X001204Y018823D02*
X001827Y018823D01*
X001827Y018745D02*
X001204Y018745D01*
X001204Y018666D02*
X001827Y018666D01*
X001844Y018588D02*
X001186Y018588D01*
X001148Y018509D02*
X001241Y018509D01*
X001494Y018240D02*
X001544Y018240D01*
X001844Y017940D01*
X002994Y017940D01*
X003044Y017890D01*
X003044Y017340D01*
X004894Y015490D01*
X005428Y015490D01*
X005446Y015472D01*
X006562Y015472D01*
X006894Y015140D01*
X007394Y015140D01*
X007544Y014890D02*
X007044Y014890D01*
X006785Y014995D02*
X006764Y014946D01*
X006764Y014834D01*
X006807Y014731D01*
X006886Y014653D01*
X006989Y014610D01*
X007100Y014610D01*
X007114Y014616D01*
X007114Y014584D01*
X006455Y014584D01*
X006533Y014506D02*
X007147Y014506D01*
X007157Y014481D02*
X007198Y014440D01*
X007157Y014399D01*
X007114Y014296D01*
X007114Y014184D01*
X007157Y014081D01*
X007236Y014003D01*
X007339Y013960D01*
X007450Y013960D01*
X007553Y014003D01*
X007632Y014081D01*
X007661Y014152D01*
X007674Y014165D01*
X008436Y014927D01*
X008436Y013729D01*
X008518Y013647D01*
X009134Y013647D01*
X009194Y013707D01*
X009230Y013707D01*
X009285Y013762D01*
X009285Y013663D01*
X009200Y013551D01*
X008488Y013551D01*
X008488Y013618D01*
X008406Y013700D01*
X007440Y013700D01*
X007358Y013618D01*
X007358Y013002D01*
X007440Y012920D01*
X007733Y012920D01*
X007733Y012680D01*
X007074Y012680D01*
X007114Y012720D01*
X007182Y012788D01*
X007218Y012876D01*
X007218Y012992D01*
X007228Y013002D01*
X007228Y013618D01*
X007146Y013700D01*
X006439Y013700D01*
X006474Y013784D01*
X006474Y013896D01*
X006461Y013927D01*
X006486Y013903D01*
X006589Y013860D01*
X006700Y013860D01*
X006803Y013903D01*
X006882Y013981D01*
X006924Y014084D01*
X006924Y014196D01*
X006882Y014299D01*
X006803Y014377D01*
X006700Y014420D01*
X006619Y014420D01*
X006331Y014707D01*
X005836Y014707D01*
X005836Y015292D01*
X006487Y015292D01*
X006714Y015065D01*
X006785Y014995D01*
X006777Y014977D02*
X005836Y014977D01*
X005836Y015055D02*
X006725Y015055D01*
X006646Y015134D02*
X005836Y015134D01*
X005836Y015212D02*
X006568Y015212D01*
X006489Y015291D02*
X005836Y015291D01*
X005836Y014898D02*
X006764Y014898D01*
X006770Y014820D02*
X005836Y014820D01*
X005836Y014741D02*
X006803Y014741D01*
X006876Y014663D02*
X006376Y014663D01*
X006257Y014527D02*
X006644Y014140D01*
X006546Y013878D02*
X006474Y013878D01*
X006474Y013799D02*
X008436Y013799D01*
X008436Y013878D02*
X006742Y013878D01*
X006856Y013956D02*
X008436Y013956D01*
X008436Y014035D02*
X007585Y014035D01*
X007645Y014113D02*
X008436Y014113D01*
X008436Y014192D02*
X007700Y014192D01*
X007779Y014270D02*
X008436Y014270D01*
X008436Y014349D02*
X007857Y014349D01*
X007936Y014427D02*
X008436Y014427D01*
X008436Y014506D02*
X008014Y014506D01*
X008093Y014584D02*
X008436Y014584D01*
X008436Y014663D02*
X008171Y014663D01*
X008250Y014741D02*
X008436Y014741D01*
X008436Y014820D02*
X008328Y014820D01*
X008407Y014898D02*
X008436Y014898D01*
X008412Y015157D02*
X007494Y014240D01*
X007394Y014240D01*
X007136Y014349D02*
X006832Y014349D01*
X006893Y014270D02*
X007114Y014270D01*
X007114Y014192D02*
X006924Y014192D01*
X006924Y014113D02*
X007144Y014113D01*
X007204Y014035D02*
X006904Y014035D01*
X007185Y014427D02*
X006612Y014427D01*
X006257Y014527D02*
X005446Y014527D01*
X005446Y014212D02*
X005122Y014212D01*
X003394Y015940D01*
X002477Y015940D01*
X001979Y015442D01*
X001469Y015448D02*
X000774Y015448D01*
X000774Y015526D02*
X001469Y015526D01*
X001469Y015605D02*
X000774Y015605D01*
X000774Y015683D02*
X001498Y015683D01*
X001469Y015654D02*
X001469Y015231D01*
X001748Y014952D01*
X001668Y014952D01*
X001369Y014654D01*
X001369Y014231D01*
X001654Y013946D01*
X001654Y010582D01*
X001297Y010225D01*
X001166Y010225D01*
X000979Y010147D01*
X000835Y010004D01*
X000774Y009856D01*
X000774Y017265D01*
X000834Y017325D01*
X001102Y017325D01*
X001194Y017418D01*
X001287Y017325D01*
X001702Y017325D01*
X001809Y017433D01*
X001809Y017450D01*
X001825Y017450D01*
X001825Y017425D01*
X001933Y017317D01*
X001950Y017317D01*
X001950Y017103D01*
X002384Y016669D01*
X002369Y016654D01*
X002369Y016231D01*
X002480Y016120D01*
X002402Y016120D01*
X002212Y015930D01*
X002190Y015952D01*
X001768Y015952D01*
X001469Y015654D01*
X001577Y015762D02*
X000774Y015762D01*
X000774Y015840D02*
X001655Y015840D01*
X001734Y015919D02*
X000774Y015919D01*
X000774Y015997D02*
X002279Y015997D01*
X002358Y016076D02*
X000774Y016076D01*
X000774Y016154D02*
X002446Y016154D01*
X002369Y016233D02*
X000774Y016233D01*
X000774Y016311D02*
X002369Y016311D01*
X002369Y016390D02*
X000774Y016390D01*
X000774Y016468D02*
X002369Y016468D01*
X002369Y016547D02*
X000774Y016547D01*
X000774Y016625D02*
X002369Y016625D01*
X002349Y016704D02*
X000774Y016704D01*
X000774Y016782D02*
X002270Y016782D01*
X002192Y016861D02*
X000774Y016861D01*
X000774Y016939D02*
X002113Y016939D01*
X002035Y017018D02*
X000774Y017018D01*
X000774Y017096D02*
X001956Y017096D01*
X001950Y017175D02*
X000774Y017175D01*
X000774Y017253D02*
X001950Y017253D01*
X001918Y017332D02*
X001708Y017332D01*
X001787Y017410D02*
X001840Y017410D01*
X001280Y017332D02*
X001108Y017332D01*
X001187Y017410D02*
X001202Y017410D01*
X000894Y017640D02*
X000594Y017340D01*
X000594Y007288D01*
X001168Y006715D01*
X001370Y007205D02*
X007983Y007205D01*
X007932Y007284D02*
X001558Y007284D01*
X001636Y007362D02*
X007908Y007362D01*
X007875Y007441D02*
X001706Y007441D01*
X001739Y007519D02*
X007797Y007519D01*
X008098Y007755D02*
X008964Y007755D01*
X008964Y007833D02*
X008020Y007833D01*
X007948Y007905D02*
X001741Y007905D01*
X001700Y008004D01*
X001557Y008147D01*
X008964Y008147D01*
X008964Y008069D02*
X001635Y008069D01*
X001706Y007990D02*
X008964Y007990D01*
X008964Y007912D02*
X001738Y007912D01*
X001557Y008147D02*
X001369Y008225D01*
X001318Y008225D01*
X001457Y008282D01*
X001600Y008426D01*
X001641Y008525D01*
X007617Y008525D01*
X008142Y009051D01*
X008209Y009051D01*
X008312Y009093D01*
X008391Y009172D01*
X008434Y009275D01*
X008434Y009386D01*
X008391Y009489D01*
X008312Y009568D01*
X008209Y009611D01*
X008098Y009611D01*
X007995Y009568D01*
X007916Y009489D01*
X007874Y009386D01*
X007874Y009319D01*
X007459Y008905D01*
X001641Y008905D01*
X001600Y009004D01*
X001457Y009147D01*
X001318Y009205D01*
X001369Y009205D01*
X001557Y009282D01*
X001700Y009426D01*
X001778Y009613D01*
X001778Y009744D01*
X002282Y010249D01*
X002334Y010374D01*
X002334Y012749D01*
X002335Y012750D01*
X003636Y012750D01*
X003686Y012700D01*
X002334Y012700D01*
X002334Y012622D02*
X004354Y012622D01*
X004354Y012700D02*
X004302Y012700D01*
X004352Y012750D01*
X004354Y012750D01*
X004354Y012222D01*
X004406Y012097D01*
X004502Y012002D01*
X004755Y011749D01*
X004705Y011699D01*
X004705Y011430D01*
X003900Y011430D01*
X003853Y011477D01*
X003750Y011520D01*
X003639Y011520D01*
X003536Y011477D01*
X003457Y011399D01*
X003414Y011296D01*
X003414Y011184D01*
X003457Y011081D01*
X003536Y011003D01*
X003639Y010960D01*
X003750Y010960D01*
X003853Y011003D01*
X003900Y011050D01*
X004705Y011050D01*
X004705Y010795D01*
X004787Y010713D01*
X004914Y010713D01*
X004914Y010665D01*
X005020Y010560D01*
X005120Y010460D01*
X007658Y010460D01*
X008964Y009154D01*
X008964Y004565D01*
X009070Y004460D01*
X009170Y004360D01*
X009253Y004360D01*
X009253Y004329D01*
X009333Y004249D01*
X009247Y004163D01*
X009247Y004136D01*
X006735Y004136D01*
X005020Y002420D01*
X004939Y002420D01*
X004836Y002377D01*
X004757Y002299D01*
X004714Y002196D01*
X004714Y002084D01*
X004757Y001981D01*
X004836Y001903D01*
X004870Y001888D01*
X004870Y001879D01*
X004756Y001879D01*
X004674Y001797D01*
X004674Y001710D02*
X001922Y001710D01*
X002000Y001632D02*
X004674Y001632D01*
X004674Y001553D02*
X002079Y001553D01*
X002157Y001475D02*
X004674Y001475D01*
X004674Y001396D02*
X002236Y001396D01*
X002314Y001318D02*
X004674Y001318D01*
X004674Y001239D02*
X002393Y001239D01*
X002471Y001161D02*
X004674Y001161D01*
X004674Y001082D02*
X002550Y001082D01*
X002628Y001004D02*
X004674Y001004D01*
X004674Y000925D02*
X002707Y000925D01*
X002785Y000847D02*
X004674Y000847D01*
X004721Y000768D02*
X002864Y000768D01*
X002942Y000690D02*
X020574Y000690D01*
X020653Y000768D02*
X007367Y000768D01*
X007414Y000847D02*
X020731Y000847D01*
X020810Y000925D02*
X007414Y000925D01*
X007414Y001004D02*
X020888Y001004D01*
X020967Y001082D02*
X007414Y001082D01*
X007414Y001161D02*
X021045Y001161D01*
X021124Y001239D02*
X007414Y001239D01*
X007414Y001318D02*
X021202Y001318D01*
X021281Y001396D02*
X007414Y001396D01*
X007414Y001475D02*
X021359Y001475D01*
X021438Y001553D02*
X019210Y001553D01*
X019225Y001632D02*
X021516Y001632D01*
X021595Y001710D02*
X019225Y001710D01*
X019225Y001789D02*
X021673Y001789D01*
X021752Y001867D02*
X019225Y001867D01*
X019225Y001946D02*
X021830Y001946D01*
X021909Y002024D02*
X019225Y002024D01*
X019225Y002103D02*
X021987Y002103D01*
X022066Y002181D02*
X019225Y002181D01*
X019225Y002260D02*
X022144Y002260D01*
X022223Y002338D02*
X019225Y002338D01*
X019942Y002417D02*
X022301Y002417D01*
X022380Y002495D02*
X019969Y002495D01*
X019969Y002574D02*
X022458Y002574D01*
X022537Y002652D02*
X019969Y002652D01*
X019969Y002731D02*
X022615Y002731D01*
X022694Y002809D02*
X019969Y002809D01*
X019969Y002888D02*
X022772Y002888D01*
X022851Y002966D02*
X020866Y002966D01*
X020853Y002953D02*
X020932Y003031D01*
X020974Y003134D01*
X020974Y003246D01*
X020947Y003311D01*
X020968Y003311D01*
X021050Y003393D01*
X021050Y003769D01*
X020968Y003851D01*
X020092Y003851D01*
X020010Y003769D01*
X020010Y003393D01*
X020092Y003311D01*
X020441Y003311D01*
X020414Y003246D01*
X020414Y003134D01*
X020457Y003031D01*
X020536Y002953D01*
X020639Y002910D01*
X020750Y002910D01*
X020853Y002953D01*
X020937Y003045D02*
X022929Y003045D01*
X023008Y003123D02*
X020970Y003123D01*
X020974Y003202D02*
X023086Y003202D01*
X023165Y003280D02*
X020960Y003280D01*
X021016Y003359D02*
X023233Y003359D01*
X023233Y003437D02*
X021050Y003437D01*
X021050Y003516D02*
X023233Y003516D01*
X023233Y003594D02*
X021050Y003594D01*
X021050Y003673D02*
X023233Y003673D01*
X023233Y003751D02*
X021050Y003751D01*
X020989Y003830D02*
X023233Y003830D01*
X023233Y003908D02*
X019969Y003908D01*
X019969Y003830D02*
X020071Y003830D01*
X020010Y003751D02*
X019969Y003751D01*
X019969Y003673D02*
X020010Y003673D01*
X020010Y003594D02*
X019969Y003594D01*
X019969Y003516D02*
X020010Y003516D01*
X020010Y003437D02*
X019969Y003437D01*
X019969Y003359D02*
X020044Y003359D01*
X019969Y003280D02*
X020428Y003280D01*
X020414Y003202D02*
X019969Y003202D01*
X019969Y003123D02*
X020419Y003123D01*
X020451Y003045D02*
X019969Y003045D01*
X019969Y002966D02*
X020522Y002966D01*
X020694Y003190D02*
X020694Y003540D01*
X020644Y003590D01*
X020539Y003590D01*
X020530Y003581D01*
X019969Y003987D02*
X023233Y003987D01*
X023233Y004065D02*
X019969Y004065D01*
X019969Y004144D02*
X023233Y004144D01*
X023233Y004222D02*
X019969Y004222D01*
X019969Y004301D02*
X023233Y004301D01*
X023233Y004379D02*
X019969Y004379D01*
X019969Y004458D02*
X020173Y004458D01*
X020221Y004458D02*
X020222Y004458D01*
X020273Y004458D02*
X022666Y004458D01*
X022716Y004458D02*
X022718Y004458D01*
X022766Y004458D02*
X023233Y004458D01*
X023233Y004536D02*
X022919Y004536D01*
X022965Y004615D02*
X023233Y004615D01*
X023233Y004693D02*
X022986Y004693D01*
X022974Y004772D02*
X023233Y004772D01*
X023233Y004850D02*
X022974Y004850D01*
X022974Y004929D02*
X023233Y004929D01*
X023233Y005007D02*
X022974Y005007D01*
X022974Y005086D02*
X023233Y005086D01*
X023233Y005164D02*
X022974Y005164D01*
X022974Y005243D02*
X023233Y005243D01*
X023233Y005321D02*
X022974Y005321D01*
X022974Y005400D02*
X023233Y005400D01*
X023233Y005478D02*
X022974Y005478D01*
X022980Y005557D02*
X023233Y005557D01*
X023233Y005635D02*
X022976Y005635D01*
X022952Y005714D02*
X023233Y005714D01*
X022792Y005609D02*
X022794Y005590D01*
X022794Y004711D01*
X022792Y004692D01*
X022785Y004675D01*
X022774Y004661D01*
X022759Y004649D01*
X022742Y004642D01*
X022724Y004640D01*
X020215Y004640D01*
X020197Y004642D01*
X020180Y004649D01*
X020165Y004661D01*
X020154Y004675D01*
X020147Y004692D01*
X020144Y004711D01*
X020144Y005609D01*
X020146Y005624D01*
X020152Y005637D01*
X020161Y005649D01*
X020172Y005658D01*
X020186Y005663D01*
X020200Y005665D01*
X022719Y005665D01*
X022739Y005662D01*
X022757Y005655D01*
X022772Y005643D01*
X022784Y005628D01*
X022792Y005609D01*
X022778Y005635D02*
X020151Y005635D01*
X020144Y005557D02*
X022794Y005557D01*
X022794Y005478D02*
X020144Y005478D01*
X020144Y005400D02*
X022794Y005400D01*
X022794Y005321D02*
X020144Y005321D01*
X020144Y005243D02*
X022794Y005243D01*
X022794Y005164D02*
X020144Y005164D01*
X020144Y005086D02*
X022794Y005086D01*
X022794Y005007D02*
X020144Y005007D01*
X020144Y004929D02*
X022794Y004929D01*
X022794Y004850D02*
X020144Y004850D01*
X020144Y004772D02*
X022794Y004772D01*
X022792Y004693D02*
X020147Y004693D01*
X019974Y004615D02*
X019969Y004615D01*
X019969Y004536D02*
X020020Y004536D01*
X019969Y005695D02*
X019969Y006510D01*
X020070Y006410D01*
X020820Y006410D01*
X020894Y006335D01*
X020894Y005845D01*
X020261Y005845D01*
X020251Y005853D01*
X020210Y005848D01*
X020186Y005858D01*
X020154Y005845D01*
X020127Y005845D01*
X020122Y005846D01*
X020107Y005834D01*
X020088Y005832D01*
X020079Y005819D01*
X020063Y005817D01*
X020052Y005802D01*
X020034Y005795D01*
X020028Y005781D01*
X020014Y005775D01*
X020007Y005757D01*
X019992Y005746D01*
X019990Y005731D01*
X019977Y005721D01*
X019975Y005702D01*
X019969Y005695D01*
X019969Y005714D02*
X019976Y005714D01*
X019969Y005792D02*
X020033Y005792D01*
X019969Y005871D02*
X020894Y005871D01*
X020894Y005949D02*
X019969Y005949D01*
X019969Y006028D02*
X020894Y006028D01*
X020894Y006106D02*
X019969Y006106D01*
X019969Y006185D02*
X020894Y006185D01*
X020894Y006263D02*
X019969Y006263D01*
X019969Y006342D02*
X020888Y006342D01*
X020876Y007127D02*
X019969Y007127D01*
X019969Y007205D02*
X020894Y007205D01*
X020894Y007284D02*
X019969Y007284D01*
X019969Y007362D02*
X020894Y007362D01*
X020894Y007441D02*
X019969Y007441D01*
X019969Y007519D02*
X020894Y007519D01*
X020894Y007598D02*
X019969Y007598D01*
X019969Y007676D02*
X020894Y007676D01*
X020894Y007755D02*
X019969Y007755D01*
X019969Y007833D02*
X023233Y007833D01*
X023233Y007912D02*
X019969Y007912D01*
X019969Y007990D02*
X023233Y007990D01*
X023233Y008069D02*
X019969Y008069D01*
X019969Y008147D02*
X023233Y008147D01*
X023233Y008226D02*
X019969Y008226D01*
X019969Y008304D02*
X023233Y008304D01*
X023233Y008383D02*
X019969Y008383D01*
X019969Y008461D02*
X023233Y008461D01*
X023233Y008540D02*
X019969Y008540D01*
X019969Y008618D02*
X023233Y008618D01*
X023233Y008697D02*
X019969Y008697D01*
X019969Y008775D02*
X023233Y008775D01*
X023233Y008854D02*
X020999Y008854D01*
X021091Y008932D02*
X023233Y008932D01*
X023233Y009011D02*
X021169Y009011D01*
X021248Y009089D02*
X023233Y009089D01*
X023233Y009168D02*
X021274Y009168D01*
X021274Y009246D02*
X023233Y009246D01*
X023233Y009325D02*
X021274Y009325D01*
X021274Y009403D02*
X023233Y009403D01*
X023233Y009482D02*
X021274Y009482D01*
X021274Y009560D02*
X023233Y009560D01*
X023233Y009639D02*
X021274Y009639D01*
X021274Y009717D02*
X023233Y009717D01*
X023233Y009796D02*
X021274Y009796D01*
X021274Y009874D02*
X023233Y009874D01*
X023233Y009953D02*
X021274Y009953D01*
X021274Y010031D02*
X023233Y010031D01*
X023233Y010110D02*
X021274Y010110D01*
X021274Y010188D02*
X023233Y010188D01*
X023233Y010267D02*
X021274Y010267D01*
X021274Y010345D02*
X023233Y010345D01*
X023233Y010424D02*
X021274Y010424D01*
X021274Y010502D02*
X023233Y010502D01*
X023233Y010581D02*
X021274Y010581D01*
X021274Y010659D02*
X023233Y010659D01*
X023233Y010738D02*
X021206Y010738D01*
X021128Y010816D02*
X023233Y010816D01*
X023233Y010895D02*
X021049Y010895D01*
X020971Y010973D02*
X023233Y010973D01*
X023233Y011052D02*
X020892Y011052D01*
X020814Y011130D02*
X023233Y011130D01*
X023233Y011209D02*
X020735Y011209D01*
X020657Y011287D02*
X023233Y011287D01*
X023233Y011366D02*
X020578Y011366D01*
X020500Y011444D02*
X023233Y011444D01*
X023233Y011523D02*
X020421Y011523D01*
X020343Y011601D02*
X023233Y011601D01*
X023233Y011680D02*
X020264Y011680D01*
X020186Y011758D02*
X023233Y011758D01*
X023233Y011837D02*
X020107Y011837D01*
X020029Y011915D02*
X023233Y011915D01*
X023233Y011994D02*
X019950Y011994D01*
X019872Y012072D02*
X023233Y012072D01*
X023233Y012151D02*
X019793Y012151D01*
X019715Y012229D02*
X023233Y012229D01*
X023233Y012308D02*
X019636Y012308D01*
X019558Y012386D02*
X023233Y012386D01*
X023233Y012465D02*
X019479Y012465D01*
X019374Y012315D02*
X021094Y010595D01*
X021094Y009190D01*
X020997Y009093D01*
X020530Y009093D01*
X020010Y009089D02*
X019969Y009089D01*
X019969Y009011D02*
X020010Y009011D01*
X020010Y008932D02*
X019969Y008932D01*
X019969Y008854D02*
X020061Y008854D01*
X020010Y009168D02*
X019969Y009168D01*
X019969Y009246D02*
X020010Y009246D01*
X020010Y009325D02*
X019969Y009325D01*
X019969Y009403D02*
X020010Y009403D01*
X020010Y009482D02*
X019969Y009482D01*
X019969Y009560D02*
X020010Y009560D01*
X020010Y009639D02*
X019969Y009639D01*
X019969Y009717D02*
X020010Y009717D01*
X020010Y009796D02*
X019969Y009796D01*
X019969Y009874D02*
X020010Y009874D01*
X020010Y009953D02*
X019969Y009953D01*
X019969Y010031D02*
X020010Y010031D01*
X019969Y010110D02*
X020051Y010110D01*
X019969Y010188D02*
X020914Y010188D01*
X020914Y010267D02*
X019969Y010267D01*
X019969Y010345D02*
X020914Y010345D01*
X020914Y010424D02*
X019969Y010424D01*
X019969Y010502D02*
X020914Y010502D01*
X020854Y010581D02*
X019969Y010581D01*
X019969Y010659D02*
X020776Y010659D01*
X020697Y010738D02*
X019969Y010738D01*
X019969Y010816D02*
X020619Y010816D01*
X020540Y010895D02*
X019903Y010895D01*
X020226Y011209D02*
X019225Y011209D01*
X019225Y011287D02*
X020148Y011287D01*
X020069Y011366D02*
X019225Y011366D01*
X019225Y011444D02*
X019991Y011444D01*
X019912Y011523D02*
X019225Y011523D01*
X019225Y011601D02*
X019834Y011601D01*
X019755Y011680D02*
X019225Y011680D01*
X019225Y011758D02*
X019677Y011758D01*
X019598Y011837D02*
X019225Y011837D01*
X019203Y011915D02*
X019520Y011915D01*
X019441Y011994D02*
X019145Y011994D01*
X019067Y012072D02*
X019363Y012072D01*
X019374Y012315D02*
X016694Y012315D01*
X016910Y012495D02*
X016853Y012552D01*
X016756Y012592D01*
X016774Y012610D01*
X016774Y013287D01*
X016775Y013288D01*
X016775Y013470D01*
X016714Y013531D01*
X016714Y014481D01*
X016670Y014525D01*
X016752Y014525D01*
X016825Y014598D01*
X017180Y014243D01*
X017180Y013967D01*
X017288Y013859D01*
X017703Y013859D01*
X017754Y013911D01*
X017754Y013492D01*
X017714Y013396D01*
X017714Y013284D01*
X017757Y013181D01*
X017836Y013103D01*
X017847Y013098D01*
X017706Y012958D01*
X017654Y012833D01*
X017654Y012697D01*
X017706Y012572D01*
X017783Y012495D01*
X016910Y012495D01*
X016862Y012543D02*
X017735Y012543D01*
X017686Y012622D02*
X016774Y012622D01*
X016774Y012700D02*
X017654Y012700D01*
X017654Y012779D02*
X016774Y012779D01*
X016774Y012857D02*
X017664Y012857D01*
X017697Y012936D02*
X016774Y012936D01*
X016774Y013014D02*
X017762Y013014D01*
X017841Y013093D02*
X016774Y013093D01*
X016774Y013171D02*
X017767Y013171D01*
X017729Y013250D02*
X016774Y013250D01*
X016775Y013328D02*
X017714Y013328D01*
X017719Y013407D02*
X016775Y013407D01*
X016760Y013485D02*
X017751Y013485D01*
X017754Y013564D02*
X016714Y013564D01*
X016714Y013642D02*
X017754Y013642D01*
X017754Y013721D02*
X016714Y013721D01*
X016714Y013799D02*
X017754Y013799D01*
X017754Y013878D02*
X017721Y013878D01*
X017270Y013878D02*
X016714Y013878D01*
X016714Y013956D02*
X017191Y013956D01*
X017180Y014035D02*
X016714Y014035D01*
X016714Y014113D02*
X017180Y014113D01*
X017180Y014192D02*
X016714Y014192D01*
X016714Y014270D02*
X017153Y014270D01*
X017075Y014349D02*
X016714Y014349D01*
X016714Y014427D02*
X016996Y014427D01*
X016918Y014506D02*
X016690Y014506D01*
X016811Y014584D02*
X016839Y014584D01*
X016144Y014090D02*
X016047Y014187D01*
X015571Y014187D01*
X015568Y014190D01*
X014894Y014190D01*
X015209Y014370D02*
X015209Y014397D01*
X015117Y014490D01*
X015209Y014583D01*
X015209Y014997D01*
X015102Y015105D01*
X014687Y015105D01*
X014651Y015069D01*
X014650Y015070D01*
X014539Y015070D01*
X014436Y015027D01*
X014357Y014949D01*
X014314Y014846D01*
X014314Y014734D01*
X014357Y014631D01*
X014436Y014553D01*
X014539Y014510D01*
X014650Y014510D01*
X014651Y014511D01*
X014672Y014490D01*
X014579Y014397D01*
X014579Y013983D01*
X014687Y013875D01*
X015102Y013875D01*
X015209Y013983D01*
X015209Y014010D01*
X015256Y014010D01*
X015256Y013980D01*
X015364Y013872D01*
X015779Y013872D01*
X015804Y013898D01*
X015804Y013807D01*
X015886Y013725D01*
X016274Y013725D01*
X016274Y013349D01*
X016336Y013287D01*
X016336Y012751D01*
X016116Y012530D01*
X015044Y012530D01*
X015133Y012619D01*
X015133Y013413D01*
X015127Y013420D01*
X014999Y013548D01*
X013134Y013548D01*
X012794Y013887D01*
X012794Y015429D01*
X012796Y015425D01*
X012801Y015408D01*
X012800Y015395D01*
X012809Y015384D01*
X012813Y015371D01*
X012825Y015364D01*
X012836Y015351D01*
X012844Y015335D01*
X012846Y015321D01*
X012856Y015313D01*
X012863Y015301D01*
X012876Y015297D01*
X012890Y015285D01*
X012901Y015272D01*
X012905Y015259D01*
X012917Y015252D01*
X012926Y015241D01*
X012939Y015240D01*
X012955Y015232D01*
X012968Y015221D01*
X012975Y015208D01*
X012988Y015204D01*
X012999Y015196D01*
X013012Y015197D01*
X013029Y015192D01*
X013045Y015184D01*
X013054Y015173D01*
X013067Y015172D01*
X013079Y015165D01*
X013093Y015169D01*
X013110Y015167D01*
X013113Y015166D01*
X013120Y015160D01*
X013135Y015160D01*
X013165Y015151D01*
X013182Y015160D01*
X013185Y015160D01*
X013251Y015154D01*
X013259Y015160D01*
X015824Y015160D01*
X015824Y014549D01*
X015918Y014455D01*
X015886Y014455D01*
X015856Y014425D01*
X015779Y014502D01*
X015364Y014502D01*
X015256Y014394D01*
X015256Y014370D01*
X015209Y014370D01*
X015180Y014427D02*
X015289Y014427D01*
X015132Y014506D02*
X015868Y014506D01*
X015858Y014427D02*
X015854Y014427D01*
X015824Y014584D02*
X015209Y014584D01*
X015209Y014663D02*
X015824Y014663D01*
X015824Y014741D02*
X015209Y014741D01*
X015209Y014820D02*
X015824Y014820D01*
X015824Y014898D02*
X015209Y014898D01*
X015209Y014977D02*
X015824Y014977D01*
X015824Y015055D02*
X015152Y015055D01*
X014894Y014790D02*
X014594Y014790D01*
X014336Y014898D02*
X012794Y014898D01*
X012794Y014820D02*
X014314Y014820D01*
X014314Y014741D02*
X012794Y014741D01*
X012794Y014663D02*
X014344Y014663D01*
X014404Y014584D02*
X012794Y014584D01*
X012794Y014506D02*
X014656Y014506D01*
X014609Y014427D02*
X012794Y014427D01*
X012794Y014349D02*
X014579Y014349D01*
X014579Y014270D02*
X012794Y014270D01*
X012794Y014192D02*
X014579Y014192D01*
X014579Y014113D02*
X012794Y014113D01*
X012794Y014035D02*
X014579Y014035D01*
X014606Y013956D02*
X012794Y013956D01*
X012804Y013878D02*
X014684Y013878D01*
X015104Y013878D02*
X015359Y013878D01*
X015280Y013956D02*
X015183Y013956D01*
X015061Y013485D02*
X016274Y013485D01*
X016274Y013407D02*
X015133Y013407D01*
X015133Y013328D02*
X016295Y013328D01*
X016336Y013250D02*
X015133Y013250D01*
X015133Y013171D02*
X016336Y013171D01*
X016336Y013093D02*
X015133Y013093D01*
X015133Y013014D02*
X016336Y013014D01*
X016336Y012936D02*
X015133Y012936D01*
X015133Y012857D02*
X016336Y012857D01*
X016336Y012779D02*
X015133Y012779D01*
X015133Y012700D02*
X016286Y012700D01*
X016207Y012622D02*
X015133Y012622D01*
X015057Y012543D02*
X016129Y012543D01*
X015794Y012040D02*
X015806Y012029D01*
X015806Y011455D01*
X015412Y011455D02*
X015412Y012022D01*
X015394Y012040D01*
X015114Y012072D02*
X011437Y012072D01*
X011469Y011994D02*
X015114Y011994D01*
X014666Y012730D02*
X010784Y012730D01*
X010784Y012780D01*
X010790Y012786D01*
X011023Y012786D01*
X011105Y012868D01*
X011105Y013100D01*
X011292Y013100D01*
X011389Y013060D01*
X011500Y013060D01*
X011603Y013103D01*
X011682Y013181D01*
X011724Y013284D01*
X011724Y013396D01*
X011682Y013499D01*
X011603Y013577D01*
X011500Y013620D01*
X011389Y013620D01*
X011292Y013580D01*
X010515Y013580D01*
X010515Y013896D01*
X010407Y014004D01*
X010074Y014004D01*
X010074Y015100D01*
X010143Y015169D01*
X010411Y015169D01*
X010432Y015190D01*
X012170Y015190D01*
X012194Y015166D01*
X012194Y013704D01*
X012240Y013593D01*
X012774Y013059D01*
X012885Y013013D01*
X013004Y013013D01*
X013114Y013059D01*
X013165Y013110D01*
X014696Y013110D01*
X014696Y012760D01*
X014666Y012730D01*
X014696Y012779D02*
X010784Y012779D01*
X011094Y012857D02*
X014696Y012857D01*
X014696Y012936D02*
X011105Y012936D01*
X011105Y013014D02*
X012883Y013014D01*
X013006Y013014D02*
X014696Y013014D01*
X014696Y013093D02*
X013148Y013093D01*
X012741Y013093D02*
X011578Y013093D01*
X011671Y013171D02*
X012662Y013171D01*
X012584Y013250D02*
X011710Y013250D01*
X011724Y013328D02*
X012505Y013328D01*
X012427Y013407D02*
X011720Y013407D01*
X011687Y013485D02*
X012348Y013485D01*
X012270Y013564D02*
X011617Y013564D01*
X011310Y013093D02*
X011105Y013093D01*
X010515Y013642D02*
X012220Y013642D01*
X012194Y013721D02*
X010515Y013721D01*
X010515Y013799D02*
X012194Y013799D01*
X012194Y013878D02*
X010515Y013878D01*
X010455Y013956D02*
X012194Y013956D01*
X012194Y014035D02*
X010074Y014035D01*
X010074Y014113D02*
X012194Y014113D01*
X012194Y014192D02*
X010074Y014192D01*
X010074Y014270D02*
X012194Y014270D01*
X012194Y014349D02*
X010074Y014349D01*
X010074Y014427D02*
X012194Y014427D01*
X012194Y014506D02*
X010074Y014506D01*
X010074Y014584D02*
X012194Y014584D01*
X012194Y014663D02*
X010074Y014663D01*
X010074Y014741D02*
X012194Y014741D01*
X012194Y014820D02*
X010074Y014820D01*
X010074Y014898D02*
X012194Y014898D01*
X012194Y014977D02*
X010074Y014977D01*
X010074Y015055D02*
X012194Y015055D01*
X012194Y015134D02*
X010108Y015134D01*
X009894Y015175D02*
X010203Y015484D01*
X009959Y015762D02*
X009848Y015762D01*
X009867Y015840D02*
X012194Y015840D01*
X012194Y015919D02*
X009909Y015919D01*
X009909Y015997D02*
X012194Y015997D01*
X012194Y016076D02*
X009909Y016076D01*
X009909Y016154D02*
X012194Y016154D01*
X012194Y016233D02*
X009909Y016233D01*
X009896Y016311D02*
X012194Y016311D01*
X012194Y016390D02*
X009817Y016390D01*
X009890Y016468D02*
X012194Y016468D01*
X012194Y016547D02*
X009905Y016547D01*
X009905Y016625D02*
X012194Y016625D01*
X012194Y016704D02*
X009905Y016704D01*
X009905Y016782D02*
X012194Y016782D01*
X012194Y016861D02*
X009905Y016861D01*
X009864Y016939D02*
X012194Y016939D01*
X012194Y017018D02*
X008912Y017018D01*
X008991Y017096D02*
X012194Y017096D01*
X012194Y017175D02*
X009008Y017175D01*
X009008Y017253D02*
X012194Y017253D01*
X012194Y017332D02*
X009008Y017332D01*
X009008Y017410D02*
X012194Y017410D01*
X012194Y017489D02*
X009008Y017489D01*
X008968Y017567D02*
X012194Y017567D01*
X012194Y017646D02*
X008984Y017646D01*
X008984Y017724D02*
X012194Y017724D01*
X012216Y017803D02*
X008984Y017803D01*
X008984Y017881D02*
X012261Y017881D01*
X012340Y017960D02*
X008984Y017960D01*
X008984Y018038D02*
X012418Y018038D01*
X012464Y018117D02*
X008984Y018117D01*
X008962Y018195D02*
X012464Y018195D01*
X012464Y018274D02*
X006184Y018274D01*
X006184Y018352D02*
X008709Y018352D01*
X008736Y018325D02*
X009252Y018325D01*
X009334Y018407D01*
X009334Y018410D01*
X009400Y018410D01*
X009503Y018453D01*
X009582Y018531D01*
X009624Y018634D01*
X009624Y018746D01*
X009582Y018849D01*
X009503Y018927D01*
X009400Y018970D01*
X009334Y018970D01*
X009334Y018973D01*
X009252Y019055D01*
X008736Y019055D01*
X008654Y018973D01*
X008654Y018407D01*
X008736Y018325D01*
X008654Y018431D02*
X006184Y018431D01*
X006184Y018509D02*
X008654Y018509D01*
X008654Y018588D02*
X006184Y018588D01*
X006184Y018666D02*
X008654Y018666D01*
X008654Y018745D02*
X006184Y018745D01*
X006109Y018823D02*
X008654Y018823D01*
X008654Y018902D02*
X002457Y018902D01*
X002457Y018980D02*
X008661Y018980D01*
X009327Y018980D02*
X012464Y018980D01*
X012464Y018902D02*
X009529Y018902D01*
X009592Y018823D02*
X012464Y018823D01*
X012464Y018745D02*
X009624Y018745D01*
X009624Y018666D02*
X012464Y018666D01*
X012464Y018588D02*
X009605Y018588D01*
X009559Y018509D02*
X012464Y018509D01*
X012464Y018431D02*
X009450Y018431D01*
X009279Y018352D02*
X012464Y018352D01*
X012644Y018352D02*
X014394Y018352D01*
X014394Y018274D02*
X012644Y018274D01*
X012644Y018195D02*
X014394Y018195D01*
X014394Y018181D02*
X014391Y018150D01*
X014380Y018120D01*
X014363Y018093D01*
X014341Y018071D01*
X014314Y018054D01*
X014284Y018044D01*
X014253Y018040D01*
X012644Y018040D01*
X012644Y020536D01*
X012653Y020641D01*
X012681Y020742D01*
X012725Y020838D01*
X012786Y020924D01*
X012860Y020999D01*
X012946Y021059D01*
X013042Y021104D01*
X013143Y021131D01*
X013248Y021140D01*
X014394Y021140D01*
X014394Y018181D01*
X014378Y018117D02*
X012644Y018117D01*
X012644Y018431D02*
X014394Y018431D01*
X014394Y018509D02*
X012644Y018509D01*
X012644Y018588D02*
X014394Y018588D01*
X014394Y018666D02*
X012644Y018666D01*
X012644Y018745D02*
X014394Y018745D01*
X014394Y018823D02*
X012644Y018823D01*
X012644Y018902D02*
X014394Y018902D01*
X014394Y018980D02*
X012644Y018980D01*
X012644Y019059D02*
X014394Y019059D01*
X014394Y019137D02*
X012644Y019137D01*
X012644Y019216D02*
X014394Y019216D01*
X014394Y019294D02*
X012644Y019294D01*
X012644Y019373D02*
X014394Y019373D01*
X014394Y019451D02*
X012644Y019451D01*
X012644Y019530D02*
X014394Y019530D01*
X014394Y019608D02*
X012644Y019608D01*
X012644Y019687D02*
X014394Y019687D01*
X014394Y019765D02*
X012644Y019765D01*
X012644Y019844D02*
X014394Y019844D01*
X014394Y019922D02*
X012644Y019922D01*
X012644Y020001D02*
X014394Y020001D01*
X014394Y020079D02*
X012644Y020079D01*
X012644Y020158D02*
X014394Y020158D01*
X014394Y020236D02*
X012644Y020236D01*
X012644Y020315D02*
X014394Y020315D01*
X014394Y020393D02*
X012644Y020393D01*
X012644Y020472D02*
X014394Y020472D01*
X014394Y020550D02*
X012645Y020550D01*
X012652Y020629D02*
X014394Y020629D01*
X014394Y020707D02*
X012671Y020707D01*
X012701Y020786D02*
X014394Y020786D01*
X014394Y020864D02*
X012743Y020864D01*
X012804Y020943D02*
X014394Y020943D01*
X014394Y021021D02*
X012892Y021021D01*
X013033Y021100D02*
X014394Y021100D01*
X014922Y020848D02*
X014879Y020756D01*
X014853Y020658D01*
X014844Y020557D01*
X014844Y018840D01*
X014849Y018791D01*
X014863Y018744D01*
X014886Y018701D01*
X014917Y018663D01*
X014955Y018632D01*
X014999Y018609D01*
X015045Y018595D01*
X015094Y018590D01*
X015594Y018590D01*
X015643Y018585D01*
X015690Y018571D01*
X015733Y018548D01*
X015771Y018517D01*
X015802Y018479D01*
X015825Y018436D01*
X015839Y018389D01*
X015844Y018340D01*
X015844Y017440D01*
X017194Y017440D01*
X017239Y017445D01*
X017281Y017460D01*
X017319Y017484D01*
X017351Y017515D01*
X017374Y017553D01*
X017389Y017595D01*
X017394Y017640D01*
X017394Y020890D01*
X017389Y020939D01*
X017375Y020986D01*
X017352Y021029D01*
X017321Y021067D01*
X017283Y021098D01*
X017240Y021121D01*
X017193Y021135D01*
X017144Y021140D01*
X015427Y021140D01*
X015326Y021131D01*
X015228Y021105D01*
X015136Y021062D01*
X015053Y021004D01*
X014981Y020932D01*
X014922Y020848D01*
X014933Y020864D02*
X017394Y020864D01*
X017394Y020786D02*
X014893Y020786D01*
X014866Y020707D02*
X017394Y020707D01*
X017394Y020629D02*
X014850Y020629D01*
X014844Y020550D02*
X017394Y020550D01*
X017394Y020472D02*
X014844Y020472D01*
X014844Y020393D02*
X017394Y020393D01*
X017394Y020315D02*
X014844Y020315D01*
X014844Y020236D02*
X017394Y020236D01*
X017394Y020158D02*
X014844Y020158D01*
X014844Y020079D02*
X017394Y020079D01*
X017394Y020001D02*
X014844Y020001D01*
X014844Y019922D02*
X017394Y019922D01*
X017394Y019844D02*
X014844Y019844D01*
X014844Y019765D02*
X017394Y019765D01*
X017394Y019687D02*
X014844Y019687D01*
X014844Y019608D02*
X017394Y019608D01*
X017394Y019530D02*
X014844Y019530D01*
X014844Y019451D02*
X017394Y019451D01*
X017394Y019373D02*
X014844Y019373D01*
X014844Y019294D02*
X017394Y019294D01*
X017394Y019216D02*
X014844Y019216D01*
X014844Y019137D02*
X017394Y019137D01*
X017394Y019059D02*
X014844Y019059D01*
X014844Y018980D02*
X017394Y018980D01*
X017394Y018902D02*
X014844Y018902D01*
X014846Y018823D02*
X017394Y018823D01*
X017394Y018745D02*
X014863Y018745D01*
X014915Y018666D02*
X017394Y018666D01*
X017394Y018588D02*
X015619Y018588D01*
X015777Y018509D02*
X017394Y018509D01*
X017394Y018431D02*
X015827Y018431D01*
X015843Y018352D02*
X017394Y018352D01*
X017394Y018274D02*
X015844Y018274D01*
X015844Y018195D02*
X017394Y018195D01*
X017394Y018117D02*
X015844Y018117D01*
X015844Y018038D02*
X017394Y018038D01*
X017394Y017960D02*
X015844Y017960D01*
X015844Y017881D02*
X017394Y017881D01*
X017394Y017803D02*
X015844Y017803D01*
X015844Y017724D02*
X017394Y017724D01*
X017394Y017646D02*
X015844Y017646D01*
X015844Y017567D02*
X017379Y017567D01*
X017324Y017489D02*
X015844Y017489D01*
X016151Y016316D02*
X015946Y016110D01*
X015903Y016110D01*
X015774Y015981D01*
X015774Y015799D01*
X015824Y015749D01*
X015824Y015340D01*
X013194Y015340D01*
X013166Y015343D01*
X013100Y015370D01*
X013078Y015370D01*
X013055Y015382D01*
X013017Y015413D01*
X012986Y015451D01*
X012963Y015494D01*
X012949Y015541D01*
X012944Y015590D01*
X012944Y016890D01*
X012949Y016939D01*
X017389Y016939D01*
X017394Y016890D01*
X017394Y015590D01*
X017389Y015541D01*
X017375Y015494D01*
X017352Y015451D01*
X017321Y015413D01*
X017283Y015382D01*
X017240Y015359D01*
X017193Y015345D01*
X017144Y015340D01*
X016264Y015340D01*
X016264Y015891D01*
X016420Y016047D01*
X016420Y016205D01*
X016309Y016316D01*
X016151Y016316D01*
X016147Y016311D02*
X012944Y016311D01*
X012944Y016233D02*
X016068Y016233D01*
X015990Y016154D02*
X012944Y016154D01*
X012944Y016076D02*
X015869Y016076D01*
X015790Y015997D02*
X012944Y015997D01*
X012944Y015919D02*
X015774Y015919D01*
X015774Y015840D02*
X012944Y015840D01*
X012944Y015762D02*
X015812Y015762D01*
X015824Y015683D02*
X012944Y015683D01*
X012944Y015605D02*
X015824Y015605D01*
X015824Y015526D02*
X012954Y015526D01*
X012989Y015448D02*
X015824Y015448D01*
X015824Y015369D02*
X013102Y015369D01*
X012973Y015212D02*
X012794Y015212D01*
X012794Y015134D02*
X015824Y015134D01*
X016264Y015369D02*
X017259Y015369D01*
X017349Y015448D02*
X016264Y015448D01*
X016264Y015526D02*
X017385Y015526D01*
X017394Y015605D02*
X016264Y015605D01*
X016264Y015683D02*
X017394Y015683D01*
X017394Y015762D02*
X016264Y015762D01*
X016264Y015840D02*
X017394Y015840D01*
X017394Y015919D02*
X016291Y015919D01*
X016370Y015997D02*
X017394Y015997D01*
X017394Y016076D02*
X016420Y016076D01*
X016420Y016154D02*
X017394Y016154D01*
X017394Y016233D02*
X016392Y016233D01*
X016314Y016311D02*
X017394Y016311D01*
X017394Y016390D02*
X012944Y016390D01*
X012944Y016468D02*
X017394Y016468D01*
X017394Y016547D02*
X012944Y016547D01*
X012944Y016625D02*
X017394Y016625D01*
X017394Y016704D02*
X012944Y016704D01*
X012944Y016782D02*
X017394Y016782D01*
X017394Y016861D02*
X012944Y016861D01*
X012949Y016939D02*
X012963Y016986D01*
X012986Y017029D01*
X013017Y017067D01*
X013055Y017098D01*
X013099Y017121D01*
X013145Y017135D01*
X013194Y017140D01*
X017144Y017140D01*
X017193Y017135D01*
X017240Y017121D01*
X017283Y017098D01*
X017321Y017067D01*
X017352Y017029D01*
X017375Y016986D01*
X017389Y016939D01*
X017358Y017018D02*
X012980Y017018D01*
X013053Y017096D02*
X017285Y017096D01*
X017707Y017567D02*
X017802Y017567D01*
X017802Y017489D02*
X017785Y017489D01*
X017802Y017646D02*
X017628Y017646D01*
X017594Y017724D02*
X017802Y017724D01*
X017802Y017803D02*
X017594Y017803D01*
X017594Y017881D02*
X017802Y017881D01*
X017802Y017960D02*
X017594Y017960D01*
X017594Y018038D02*
X017860Y018038D01*
X017594Y018117D02*
X019414Y018117D01*
X019414Y018195D02*
X017594Y018195D01*
X017594Y018274D02*
X019414Y018274D01*
X019414Y018352D02*
X017594Y018352D01*
X017594Y018431D02*
X019414Y018431D01*
X019414Y018509D02*
X017594Y018509D01*
X017594Y018588D02*
X019414Y018588D01*
X019414Y018666D02*
X017594Y018666D01*
X017594Y018745D02*
X019413Y018745D01*
X019594Y018745D02*
X020740Y018745D01*
X020740Y018823D02*
X019579Y018823D01*
X019575Y018836D02*
X019552Y018879D01*
X019521Y018917D01*
X019483Y018948D01*
X019440Y018971D01*
X019393Y018985D01*
X019344Y018990D01*
X018944Y018990D01*
X018911Y018994D01*
X018879Y019005D01*
X018851Y019023D01*
X018827Y019046D01*
X018809Y019075D01*
X018798Y019107D01*
X018794Y019140D01*
X018794Y019265D01*
X018798Y019298D01*
X018809Y019330D01*
X018827Y019359D01*
X018851Y019382D01*
X018879Y019400D01*
X018911Y019411D01*
X018944Y019415D01*
X020494Y019415D01*
X020543Y019410D01*
X020590Y019396D01*
X020633Y019373D01*
X020671Y019342D01*
X020702Y019304D01*
X020725Y019261D01*
X020739Y019214D01*
X020740Y019207D01*
X020740Y019007D01*
X020744Y019002D01*
X020744Y018877D01*
X020740Y018873D01*
X020740Y018507D01*
X020744Y018502D01*
X020744Y016490D01*
X020739Y016441D01*
X020725Y016394D01*
X020702Y016351D01*
X020671Y016313D01*
X020633Y016282D01*
X020590Y016259D01*
X020543Y016245D01*
X020494Y016240D01*
X019844Y016240D01*
X019795Y016245D01*
X019749Y016259D01*
X019705Y016282D01*
X019667Y016313D01*
X019636Y016351D01*
X019613Y016394D01*
X019599Y016441D01*
X019594Y016490D01*
X019594Y018740D01*
X019589Y018789D01*
X019575Y018836D01*
X019533Y018902D02*
X020744Y018902D01*
X020744Y018980D02*
X019410Y018980D01*
X019594Y018666D02*
X020740Y018666D01*
X020740Y018588D02*
X019594Y018588D01*
X019594Y018509D02*
X020740Y018509D01*
X020744Y018431D02*
X019594Y018431D01*
X019594Y018352D02*
X020744Y018352D01*
X020744Y018274D02*
X019594Y018274D01*
X019594Y018195D02*
X020744Y018195D01*
X020744Y018117D02*
X019594Y018117D01*
X019594Y018038D02*
X020744Y018038D01*
X020744Y017960D02*
X019594Y017960D01*
X019594Y017881D02*
X020744Y017881D01*
X020744Y017803D02*
X019594Y017803D01*
X019594Y017724D02*
X020744Y017724D01*
X020744Y017646D02*
X019594Y017646D01*
X019594Y017567D02*
X020744Y017567D01*
X020744Y017489D02*
X019594Y017489D01*
X019594Y017410D02*
X020744Y017410D01*
X020744Y017332D02*
X019594Y017332D01*
X019594Y017253D02*
X020744Y017253D01*
X020744Y017175D02*
X019594Y017175D01*
X019594Y017096D02*
X020744Y017096D01*
X020744Y017018D02*
X019594Y017018D01*
X019594Y016939D02*
X020744Y016939D01*
X020744Y016861D02*
X019594Y016861D01*
X019594Y016782D02*
X020744Y016782D01*
X020744Y016704D02*
X019594Y016704D01*
X019594Y016625D02*
X020744Y016625D01*
X020744Y016547D02*
X019594Y016547D01*
X019596Y016468D02*
X020742Y016468D01*
X020723Y016390D02*
X019616Y016390D01*
X019670Y016311D02*
X020668Y016311D01*
X020749Y016140D02*
X020754Y016141D01*
X020754Y016132D01*
X020836Y016050D01*
X021624Y016050D01*
X021624Y014510D01*
X021121Y014510D01*
X021110Y014519D01*
X021049Y014512D01*
X021024Y014524D01*
X020984Y014510D01*
X020953Y014510D01*
X020950Y014507D01*
X020939Y014510D01*
X020919Y014497D01*
X020896Y014495D01*
X020882Y014477D01*
X020860Y014477D01*
X020843Y014461D01*
X020820Y014453D01*
X020811Y014433D01*
X020789Y014428D01*
X020777Y014408D01*
X020756Y014395D01*
X020752Y014373D01*
X020732Y014364D01*
X020724Y014341D01*
X020707Y014325D01*
X020707Y014302D01*
X020690Y014289D01*
X020687Y014265D01*
X020674Y014245D01*
X020677Y014234D01*
X020674Y014231D01*
X020674Y014200D01*
X020660Y014160D01*
X020672Y014135D01*
X020665Y014074D01*
X020674Y014063D01*
X020674Y013719D01*
X018540Y013719D01*
X018415Y013667D01*
X018236Y013488D01*
X018234Y013492D01*
X018234Y014323D01*
X018198Y014412D01*
X017835Y014774D01*
X017898Y014837D01*
X017934Y014926D01*
X017934Y016932D01*
X018382Y016932D01*
X018775Y016539D01*
X018947Y016467D01*
X019409Y016467D01*
X019405Y016460D01*
X019414Y016430D01*
X019414Y016415D01*
X019421Y016409D01*
X019422Y016406D01*
X019423Y016388D01*
X019419Y016375D01*
X019426Y016363D01*
X019427Y016349D01*
X019438Y016341D01*
X019446Y016325D01*
X019451Y016308D01*
X019450Y016295D01*
X019459Y016284D01*
X019463Y016271D01*
X019475Y016264D01*
X019486Y016251D01*
X019494Y016235D01*
X019496Y016221D01*
X019506Y016213D01*
X019513Y016201D01*
X019526Y016197D01*
X019540Y016185D01*
X019551Y016172D01*
X019555Y016159D01*
X019567Y016152D01*
X019576Y016141D01*
X019589Y016140D01*
X019605Y016132D01*
X019618Y016121D01*
X019625Y016108D01*
X019638Y016104D01*
X019649Y016096D01*
X019662Y016097D01*
X019679Y016092D01*
X019695Y016084D01*
X019704Y016073D01*
X019717Y016072D01*
X019729Y016065D01*
X019743Y016069D01*
X019760Y016067D01*
X019763Y016066D01*
X019770Y016060D01*
X019785Y016060D01*
X019815Y016051D01*
X019832Y016060D01*
X019835Y016060D01*
X019901Y016054D01*
X019909Y016060D01*
X020430Y016060D01*
X020438Y016054D01*
X020503Y016060D01*
X020507Y016060D01*
X020524Y016051D01*
X020554Y016060D01*
X020569Y016060D01*
X020575Y016066D01*
X020578Y016067D01*
X020596Y016069D01*
X020609Y016065D01*
X020621Y016072D01*
X020635Y016073D01*
X020644Y016084D01*
X020659Y016092D01*
X020676Y016097D01*
X020690Y016096D01*
X020700Y016104D01*
X020713Y016108D01*
X020720Y016121D01*
X020734Y016132D01*
X020749Y016140D01*
X020811Y016076D02*
X020637Y016076D01*
X019701Y016076D02*
X017934Y016076D01*
X017934Y016154D02*
X019563Y016154D01*
X019495Y016233D02*
X017934Y016233D01*
X017934Y016311D02*
X019450Y016311D01*
X019423Y016390D02*
X017934Y016390D01*
X017934Y016468D02*
X018946Y016468D01*
X018767Y016547D02*
X017934Y016547D01*
X017934Y016625D02*
X018689Y016625D01*
X018610Y016704D02*
X017934Y016704D01*
X017934Y016782D02*
X018532Y016782D01*
X018453Y016861D02*
X017934Y016861D01*
X017934Y015997D02*
X021624Y015997D01*
X021624Y015919D02*
X017934Y015919D01*
X017934Y015840D02*
X021624Y015840D01*
X021624Y015762D02*
X017934Y015762D01*
X017934Y015683D02*
X021624Y015683D01*
X021624Y015605D02*
X017934Y015605D01*
X017934Y015526D02*
X021624Y015526D01*
X021624Y015448D02*
X017934Y015448D01*
X017934Y015369D02*
X021624Y015369D01*
X021624Y015291D02*
X017934Y015291D01*
X017934Y015212D02*
X021624Y015212D01*
X021624Y015134D02*
X017934Y015134D01*
X017934Y015055D02*
X021624Y015055D01*
X021624Y014977D02*
X017934Y014977D01*
X017923Y014898D02*
X021624Y014898D01*
X021624Y014820D02*
X017880Y014820D01*
X017868Y014741D02*
X021624Y014741D01*
X021624Y014663D02*
X017947Y014663D01*
X018025Y014584D02*
X021624Y014584D01*
X020932Y014506D02*
X018104Y014506D01*
X018182Y014427D02*
X020789Y014427D01*
X020726Y014349D02*
X018224Y014349D01*
X018234Y014270D02*
X020687Y014270D01*
X020671Y014192D02*
X018234Y014192D01*
X018234Y014113D02*
X020670Y014113D01*
X020674Y014035D02*
X018234Y014035D01*
X018234Y013956D02*
X020674Y013956D01*
X020674Y013878D02*
X018234Y013878D01*
X018234Y013799D02*
X020674Y013799D01*
X020674Y013721D02*
X018234Y013721D01*
X018234Y013642D02*
X018390Y013642D01*
X018312Y013564D02*
X018234Y013564D01*
X018724Y013014D02*
X021001Y013014D01*
X021041Y013014D02*
X021085Y013014D01*
X021114Y013014D02*
X022775Y013014D01*
X022804Y013014D02*
X022848Y013014D01*
X022887Y013014D02*
X023233Y013014D01*
X023233Y012936D02*
X018646Y012936D01*
X018567Y012857D02*
X023233Y012857D01*
X023233Y012779D02*
X018489Y012779D01*
X018410Y012700D02*
X023233Y012700D01*
X023233Y012622D02*
X018332Y012622D01*
X018253Y012543D02*
X023233Y012543D01*
X023233Y013093D02*
X023075Y013093D01*
X023159Y013171D02*
X023233Y013171D01*
X023233Y013250D02*
X023200Y013250D01*
X023214Y013328D02*
X023233Y013328D01*
X023233Y013407D02*
X023217Y013407D01*
X023214Y013485D02*
X023233Y013485D01*
X023233Y013564D02*
X023214Y013564D01*
X023214Y013642D02*
X023233Y013642D01*
X023233Y013721D02*
X023214Y013721D01*
X023214Y013799D02*
X023233Y013799D01*
X023233Y013878D02*
X023214Y013878D01*
X023214Y013956D02*
X023233Y013956D01*
X023233Y014035D02*
X023214Y014035D01*
X023214Y014113D02*
X023233Y014113D01*
X023233Y014192D02*
X023214Y014192D01*
X023214Y014270D02*
X023233Y014270D01*
X023233Y014349D02*
X023214Y014349D01*
X023214Y014427D02*
X023233Y014427D01*
X023233Y014506D02*
X023214Y014506D01*
X023214Y014584D02*
X023233Y014584D01*
X023233Y014663D02*
X023214Y014663D01*
X023214Y014741D02*
X023233Y014741D01*
X023233Y014820D02*
X023214Y014820D01*
X023214Y014898D02*
X023233Y014898D01*
X023233Y014977D02*
X023214Y014977D01*
X023214Y015055D02*
X023233Y015055D01*
X023233Y015134D02*
X023214Y015134D01*
X023214Y015212D02*
X023233Y015212D01*
X023233Y015291D02*
X023214Y015291D01*
X023214Y015369D02*
X023233Y015369D01*
X023233Y015448D02*
X023214Y015448D01*
X023214Y015526D02*
X023233Y015526D01*
X023233Y015605D02*
X023214Y015605D01*
X023214Y015683D02*
X023233Y015683D01*
X023233Y015762D02*
X023214Y015762D01*
X023214Y015840D02*
X023233Y015840D01*
X023233Y015919D02*
X023214Y015919D01*
X023214Y015997D02*
X023233Y015997D01*
X023233Y016076D02*
X023214Y016076D01*
X023214Y016154D02*
X023233Y016154D01*
X023233Y016233D02*
X023214Y016233D01*
X023214Y016311D02*
X023233Y016311D01*
X023233Y016390D02*
X023214Y016390D01*
X023214Y016468D02*
X023233Y016468D01*
X023233Y016547D02*
X023214Y016547D01*
X023214Y016625D02*
X023233Y016625D01*
X023233Y016704D02*
X023214Y016704D01*
X023214Y016782D02*
X023233Y016782D01*
X023233Y016861D02*
X023214Y016861D01*
X023214Y016939D02*
X023233Y016939D01*
X023233Y017018D02*
X023214Y017018D01*
X023214Y017096D02*
X023233Y017096D01*
X023233Y017175D02*
X023214Y017175D01*
X023214Y017253D02*
X023233Y017253D01*
X023233Y017332D02*
X023214Y017332D01*
X023219Y017410D02*
X023233Y017410D01*
X023233Y017489D02*
X023218Y017489D01*
X023201Y017567D02*
X023233Y017567D01*
X023233Y017646D02*
X023163Y017646D01*
X023102Y017724D02*
X023233Y017724D01*
X023233Y017803D02*
X022961Y017803D01*
X022715Y017881D02*
X023233Y017881D01*
X023233Y017960D02*
X022715Y017960D01*
X022715Y018038D02*
X023233Y018038D01*
X023233Y018117D02*
X022715Y018117D01*
X022715Y018195D02*
X023233Y018195D01*
X023233Y018274D02*
X022715Y018274D01*
X022773Y018352D02*
X023233Y018352D01*
X023233Y018431D02*
X022830Y018431D01*
X022830Y018509D02*
X023233Y018509D01*
X023233Y018588D02*
X022830Y018588D01*
X022830Y018666D02*
X023233Y018666D01*
X023233Y018745D02*
X022830Y018745D01*
X022830Y018823D02*
X023233Y018823D01*
X023233Y018902D02*
X022752Y018902D01*
X022278Y018902D02*
X022152Y018902D01*
X022198Y018980D02*
X023233Y018980D01*
X023233Y019059D02*
X022238Y019059D01*
X022238Y019137D02*
X023233Y019137D01*
X023233Y019216D02*
X022238Y019216D01*
X022238Y019294D02*
X023233Y019294D01*
X023233Y019373D02*
X022238Y019373D01*
X022222Y019451D02*
X023233Y019451D01*
X023233Y019530D02*
X022144Y019530D01*
X021702Y019530D02*
X021620Y019530D01*
X021620Y019608D02*
X023233Y019608D01*
X023233Y019687D02*
X021620Y019687D01*
X021620Y019765D02*
X023233Y019765D01*
X023233Y019844D02*
X021620Y019844D01*
X021571Y019922D02*
X023233Y019922D01*
X023233Y020001D02*
X021614Y020001D01*
X021620Y020079D02*
X023233Y020079D01*
X023233Y020158D02*
X021620Y020158D01*
X021620Y020236D02*
X023157Y020236D01*
X023079Y020315D02*
X021620Y020315D01*
X021600Y020393D02*
X023000Y020393D01*
X022922Y020472D02*
X020592Y020472D01*
X020592Y020550D02*
X022843Y020550D01*
X022765Y020629D02*
X020644Y020629D01*
X020717Y020707D02*
X022686Y020707D01*
X022608Y020786D02*
X020717Y020786D01*
X020717Y020864D02*
X022529Y020864D01*
X022451Y020943D02*
X020717Y020943D01*
X020717Y021021D02*
X022372Y021021D01*
X022294Y021100D02*
X020717Y021100D01*
X020656Y021178D02*
X022215Y021178D01*
X022137Y021257D02*
X019034Y021257D01*
X019034Y021335D02*
X022058Y021335D01*
X021980Y021414D02*
X019034Y021414D01*
X019077Y021492D02*
X021901Y021492D01*
X021823Y021571D02*
X019590Y021571D01*
X019631Y021649D02*
X021744Y021649D01*
X021666Y021728D02*
X019631Y021728D01*
X019631Y021806D02*
X021587Y021806D01*
X021509Y021885D02*
X019631Y021885D01*
X019631Y021963D02*
X021430Y021963D01*
X021352Y022042D02*
X019631Y022042D01*
X019631Y022120D02*
X021273Y022120D01*
X021195Y022199D02*
X019631Y022199D01*
X019631Y022277D02*
X021116Y022277D01*
X021038Y022356D02*
X019631Y022356D01*
X019631Y022434D02*
X020959Y022434D01*
X020881Y022513D02*
X019631Y022513D01*
X019631Y022591D02*
X020802Y022591D01*
X020724Y022670D02*
X019631Y022670D01*
X019556Y022748D02*
X020645Y022748D01*
X020567Y022827D02*
X013075Y022827D01*
X013076Y022905D02*
X020488Y022905D01*
X020410Y022984D02*
X013066Y022984D01*
X013040Y023062D02*
X020331Y023062D01*
X020253Y023141D02*
X012996Y023141D01*
X012934Y023219D02*
X020174Y023219D01*
X018482Y022748D02*
X017824Y022748D01*
X017899Y022670D02*
X018407Y022670D01*
X018407Y022591D02*
X017899Y022591D01*
X017899Y022513D02*
X018407Y022513D01*
X018407Y022434D02*
X017899Y022434D01*
X017899Y022356D02*
X018407Y022356D01*
X018407Y022277D02*
X017899Y022277D01*
X017899Y022199D02*
X018407Y022199D01*
X018407Y022120D02*
X017899Y022120D01*
X017899Y022042D02*
X018407Y022042D01*
X018407Y021963D02*
X017899Y021963D01*
X017899Y021885D02*
X018407Y021885D01*
X018407Y021806D02*
X017899Y021806D01*
X017899Y021728D02*
X018383Y021728D01*
X018354Y021649D02*
X017899Y021649D01*
X017858Y021571D02*
X018354Y021571D01*
X018354Y021492D02*
X015417Y021492D01*
X015339Y021414D02*
X018354Y021414D01*
X018354Y021335D02*
X017264Y021335D01*
X017257Y021335D02*
X017232Y021335D01*
X017424Y021257D02*
X018354Y021257D01*
X018354Y021178D02*
X017501Y021178D01*
X017553Y021100D02*
X018354Y021100D01*
X018354Y021021D02*
X017583Y021021D01*
X017597Y020943D02*
X018354Y020943D01*
X018354Y020864D02*
X017598Y020864D01*
X017594Y020786D02*
X018309Y020786D01*
X018230Y020707D02*
X017594Y020707D01*
X017594Y020629D02*
X018152Y020629D01*
X018073Y020550D02*
X017594Y020550D01*
X017594Y020472D02*
X018000Y020472D01*
X017968Y020393D02*
X017594Y020393D01*
X017594Y020315D02*
X017952Y020315D01*
X017952Y020236D02*
X017594Y020236D01*
X017594Y020158D02*
X017952Y020158D01*
X017952Y020079D02*
X017594Y020079D01*
X017594Y020001D02*
X017952Y020001D01*
X017952Y019922D02*
X017594Y019922D01*
X017594Y019844D02*
X017952Y019844D01*
X017952Y019765D02*
X017594Y019765D01*
X017594Y019687D02*
X017952Y019687D01*
X017952Y019608D02*
X017594Y019608D01*
X017594Y019530D02*
X017966Y019530D01*
X017977Y019451D02*
X017594Y019451D01*
X017594Y019373D02*
X018027Y019373D01*
X018214Y019294D02*
X017594Y019294D01*
X017594Y019216D02*
X018608Y019216D01*
X018606Y019294D02*
X018370Y019294D01*
X018558Y019373D02*
X018623Y019373D01*
X018797Y019294D02*
X020707Y019294D01*
X020739Y019216D02*
X018794Y019216D01*
X018795Y019137D02*
X020740Y019137D01*
X020740Y019059D02*
X018819Y019059D01*
X018647Y018980D02*
X017594Y018980D01*
X017594Y018902D02*
X018705Y018902D01*
X018818Y018823D02*
X017594Y018823D01*
X017594Y019059D02*
X018621Y019059D01*
X018613Y019137D02*
X017594Y019137D01*
X018841Y019373D02*
X020633Y019373D01*
X020592Y019922D02*
X020790Y019922D01*
X020746Y020001D02*
X020592Y020001D01*
X020592Y020079D02*
X020740Y020079D01*
X020740Y020158D02*
X020592Y020158D01*
X020592Y020236D02*
X020740Y020236D01*
X020740Y020315D02*
X020592Y020315D01*
X020592Y020393D02*
X020761Y020393D01*
X020149Y021178D02*
X020056Y021178D01*
X021564Y019451D02*
X021624Y019451D01*
X019414Y018038D02*
X019103Y018038D01*
X019162Y017960D02*
X019414Y017960D01*
X019414Y017881D02*
X019162Y017881D01*
X019162Y017803D02*
X019414Y017803D01*
X019414Y017724D02*
X019162Y017724D01*
X019162Y017646D02*
X019414Y017646D01*
X019414Y017567D02*
X019162Y017567D01*
X019162Y017489D02*
X019414Y017489D01*
X019414Y017410D02*
X019233Y017410D01*
X017388Y020943D02*
X014991Y020943D01*
X015077Y021021D02*
X017356Y021021D01*
X017280Y021100D02*
X015217Y021100D01*
X015260Y021335D02*
X015314Y021335D01*
X015875Y021571D02*
X016716Y021571D01*
X016750Y022748D02*
X015837Y022748D01*
X014689Y022591D02*
X013074Y022591D01*
X013074Y022513D02*
X014689Y022513D01*
X014689Y022434D02*
X013074Y022434D01*
X013074Y022356D02*
X014689Y022356D01*
X014675Y022277D02*
X013074Y022277D01*
X013074Y022199D02*
X014597Y022199D01*
X014518Y022120D02*
X013074Y022120D01*
X013074Y022042D02*
X014440Y022042D01*
X014361Y021963D02*
X013074Y021963D01*
X013074Y021885D02*
X014283Y021885D01*
X014204Y021806D02*
X013074Y021806D01*
X013074Y021728D02*
X014126Y021728D01*
X014047Y021649D02*
X013076Y021649D01*
X013074Y021571D02*
X013969Y021571D01*
X013890Y021492D02*
X013052Y021492D01*
X013014Y021414D02*
X013002Y021401D01*
X012994Y021385D01*
X012993Y021371D01*
X012982Y021363D01*
X012976Y021351D01*
X012963Y021347D01*
X012949Y021335D01*
X012922Y021257D02*
X012857Y021257D01*
X012785Y021223D02*
X012771Y021222D01*
X012759Y021215D01*
X012746Y021219D01*
X012728Y021217D01*
X012725Y021216D01*
X012719Y021210D01*
X012704Y021210D01*
X012674Y021201D01*
X012657Y021210D01*
X012653Y021210D01*
X012588Y021204D01*
X012580Y021210D01*
X012403Y021210D01*
X012381Y021208D01*
X012368Y021204D01*
X012356Y021197D01*
X012345Y021189D01*
X012337Y021178D01*
X012324Y021100D02*
X012695Y021100D01*
X012628Y021021D02*
X012324Y021021D01*
X012324Y020943D02*
X012575Y020943D01*
X012531Y020864D02*
X012324Y020864D01*
X012324Y020786D02*
X012502Y020786D01*
X012479Y020707D02*
X012324Y020707D01*
X012324Y020629D02*
X012464Y020629D01*
X012464Y020550D02*
X012324Y020550D01*
X012324Y020472D02*
X012463Y020472D01*
X012464Y020393D02*
X012325Y020393D01*
X012323Y020315D02*
X012464Y020315D01*
X012464Y020236D02*
X012298Y020236D01*
X012258Y020158D02*
X012464Y020158D01*
X012464Y020079D02*
X012194Y020079D01*
X012096Y020001D02*
X012464Y020001D01*
X012102Y020251D02*
X012071Y020213D01*
X012033Y020182D01*
X011990Y020159D01*
X011943Y020145D01*
X011894Y020140D01*
X010394Y020140D01*
X010345Y020145D01*
X010299Y020159D01*
X010255Y020182D01*
X010217Y020213D01*
X010186Y020251D01*
X010163Y020294D01*
X010149Y020341D01*
X010144Y020390D01*
X010144Y022890D01*
X010149Y022939D01*
X010163Y022986D01*
X010186Y023029D01*
X010217Y023067D01*
X010255Y023098D01*
X010299Y023121D01*
X010345Y023135D01*
X010394Y023140D01*
X012644Y023140D01*
X012693Y023135D01*
X012740Y023121D01*
X012783Y023098D01*
X012821Y023067D01*
X012852Y023029D01*
X012875Y022986D01*
X012889Y022939D01*
X012894Y022890D01*
X012894Y021640D01*
X012889Y021591D01*
X012875Y021544D01*
X012852Y021501D01*
X012821Y021463D01*
X012783Y021432D01*
X012740Y021409D01*
X012693Y021395D01*
X012644Y021390D01*
X012394Y021390D01*
X012345Y021385D01*
X012299Y021371D01*
X012255Y021348D01*
X012217Y021317D01*
X012186Y021279D01*
X012163Y021236D01*
X012149Y021189D01*
X012144Y021140D01*
X012144Y020390D01*
X012139Y020341D01*
X012125Y020294D01*
X012102Y020251D01*
X012090Y020236D02*
X010199Y020236D01*
X010157Y020315D02*
X012131Y020315D01*
X012144Y020393D02*
X010144Y020393D01*
X010144Y020472D02*
X012144Y020472D01*
X012144Y020550D02*
X010144Y020550D01*
X010144Y020629D02*
X012144Y020629D01*
X012144Y020707D02*
X010144Y020707D01*
X010144Y020786D02*
X012144Y020786D01*
X012144Y020864D02*
X010144Y020864D01*
X010144Y020943D02*
X012144Y020943D01*
X012144Y021021D02*
X010144Y021021D01*
X010144Y021100D02*
X012144Y021100D01*
X012148Y021178D02*
X010144Y021178D01*
X010144Y021257D02*
X012174Y021257D01*
X012240Y021335D02*
X010144Y021335D01*
X010144Y021414D02*
X012748Y021414D01*
X012845Y021492D02*
X010144Y021492D01*
X010144Y021571D02*
X012883Y021571D01*
X012894Y021649D02*
X010144Y021649D01*
X010144Y021728D02*
X012894Y021728D01*
X012894Y021806D02*
X010144Y021806D01*
X010144Y021885D02*
X012894Y021885D01*
X012894Y021963D02*
X010144Y021963D01*
X010144Y022042D02*
X012894Y022042D01*
X012894Y022120D02*
X010144Y022120D01*
X010144Y022199D02*
X012894Y022199D01*
X012894Y022277D02*
X010144Y022277D01*
X010144Y022356D02*
X012894Y022356D01*
X012894Y022434D02*
X010144Y022434D01*
X010144Y022513D02*
X012894Y022513D01*
X012894Y022591D02*
X010144Y022591D01*
X010144Y022670D02*
X012894Y022670D01*
X012894Y022748D02*
X010144Y022748D01*
X010144Y022827D02*
X012894Y022827D01*
X012893Y022905D02*
X010146Y022905D01*
X010163Y022984D02*
X012876Y022984D01*
X012825Y023062D02*
X010214Y023062D01*
X010117Y023228D02*
X010117Y023228D01*
X010303Y020158D02*
X011985Y020158D01*
X008644Y017890D02*
X008644Y017369D01*
X008693Y017320D01*
X008378Y017332D02*
X008309Y017332D01*
X008309Y017410D02*
X008378Y017410D01*
X008378Y017489D02*
X008309Y017489D01*
X008290Y017567D02*
X008344Y017567D01*
X008304Y017646D02*
X008222Y017646D01*
X008301Y017724D02*
X008304Y017724D01*
X008594Y017940D02*
X008644Y017890D01*
X008594Y017940D02*
X007994Y017940D01*
X007679Y017960D02*
X006184Y017960D01*
X006184Y018038D02*
X007679Y018038D01*
X007679Y018117D02*
X006184Y018117D01*
X006184Y018195D02*
X007727Y018195D01*
X007679Y017881D02*
X006184Y017881D01*
X006155Y017803D02*
X007679Y017803D01*
X007688Y017724D02*
X005383Y017724D01*
X005324Y017646D02*
X006477Y017646D01*
X006399Y017567D02*
X005390Y017567D01*
X005459Y017489D02*
X006379Y017489D01*
X006379Y017410D02*
X005459Y017410D01*
X005459Y017332D02*
X006379Y017332D01*
X006379Y017253D02*
X005459Y017253D01*
X005514Y017175D02*
X006379Y017175D01*
X006416Y017096D02*
X005593Y017096D01*
X005671Y017018D02*
X005803Y017018D01*
X005783Y016939D02*
X005750Y016939D01*
X005744Y016690D02*
X005144Y017290D01*
X005144Y017740D01*
X005694Y018290D01*
X005204Y018274D02*
X004484Y018274D01*
X004484Y018352D02*
X005204Y018352D01*
X005204Y018431D02*
X004484Y018431D01*
X004484Y018509D02*
X005204Y018509D01*
X005204Y018588D02*
X004484Y018588D01*
X004484Y018666D02*
X005204Y018666D01*
X005204Y018745D02*
X004484Y018745D01*
X004409Y018823D02*
X005279Y018823D01*
X005390Y019137D02*
X005534Y019137D01*
X005762Y019431D02*
X005744Y019449D01*
X005162Y019431D02*
X004854Y019740D01*
X003894Y019740D01*
X003594Y019440D01*
X003594Y019431D01*
X003884Y019451D02*
X004847Y019451D01*
X004847Y019373D02*
X003884Y019373D01*
X003884Y019294D02*
X004847Y019294D01*
X004856Y019216D02*
X003879Y019216D01*
X003801Y019137D02*
X004934Y019137D01*
X004810Y019530D02*
X003938Y019530D01*
X003894Y019940D02*
X004884Y019940D01*
X005162Y020219D01*
X004847Y020236D02*
X003884Y020236D01*
X003884Y020205D02*
X003969Y020120D01*
X004809Y020120D01*
X004847Y020158D01*
X004847Y020360D01*
X003884Y020360D01*
X003884Y020205D01*
X003931Y020158D02*
X004847Y020158D01*
X004847Y020315D02*
X003884Y020315D01*
X003615Y020219D02*
X003894Y019940D01*
X003615Y020219D02*
X003594Y020219D01*
X003311Y020001D02*
X002784Y020001D01*
X002784Y020079D02*
X003304Y020079D01*
X003304Y020158D02*
X002784Y020158D01*
X002784Y020236D02*
X003304Y020236D01*
X003304Y020315D02*
X002784Y020315D01*
X002744Y020540D02*
X002444Y020240D01*
X002139Y019922D02*
X001499Y019922D01*
X001534Y020001D02*
X002104Y020001D01*
X002104Y020079D02*
X001534Y020079D01*
X001534Y020158D02*
X002104Y020158D01*
X002104Y020236D02*
X001534Y020236D01*
X001534Y020315D02*
X002104Y020315D01*
X002104Y020393D02*
X001602Y020393D01*
X001680Y020472D02*
X002104Y020472D01*
X001644Y020690D02*
X006044Y020690D01*
X006194Y020840D01*
X006194Y021362D01*
X005762Y021794D01*
X006077Y021806D02*
X006164Y021806D01*
X006164Y021728D02*
X006083Y021728D01*
X006161Y021649D02*
X006164Y021649D01*
X006164Y021885D02*
X006077Y021885D01*
X006077Y021963D02*
X006126Y021963D01*
X006047Y022042D02*
X006037Y022042D01*
X005969Y022120D02*
X003814Y022120D01*
X003814Y022199D02*
X005890Y022199D01*
X005544Y022277D02*
X005381Y022277D01*
X005459Y022356D02*
X005465Y022356D01*
X005488Y022042D02*
X005437Y022042D01*
X005162Y021794D02*
X004194Y021794D01*
X003904Y021806D02*
X003884Y021806D01*
X003884Y021728D02*
X003904Y021728D01*
X003904Y021649D02*
X003884Y021649D01*
X003872Y021571D02*
X003916Y021571D01*
X003995Y021492D02*
X003814Y021492D01*
X003814Y021414D02*
X005888Y021414D01*
X005966Y021335D02*
X003814Y021335D01*
X003845Y021257D02*
X003944Y021257D01*
X003904Y021178D02*
X003884Y021178D01*
X003884Y021100D02*
X003904Y021100D01*
X003904Y021021D02*
X003884Y021021D01*
X003884Y020943D02*
X003904Y020943D01*
X004194Y021006D02*
X005162Y021006D01*
X004890Y021257D02*
X004445Y021257D01*
X004394Y021492D02*
X004941Y021492D01*
X004863Y021571D02*
X004472Y021571D01*
X004447Y022042D02*
X004888Y022042D01*
X004944Y022277D02*
X004391Y022277D01*
X004470Y022356D02*
X004865Y022356D01*
X005162Y022581D02*
X004194Y022581D01*
X003904Y022591D02*
X003884Y022591D01*
X003884Y022513D02*
X003904Y022513D01*
X003904Y022434D02*
X003884Y022434D01*
X003870Y022356D02*
X003919Y022356D01*
X003997Y022277D02*
X003814Y022277D01*
X003847Y022042D02*
X003941Y022042D01*
X003904Y021963D02*
X003884Y021963D01*
X003884Y021885D02*
X003904Y021885D01*
X003884Y022670D02*
X003904Y022670D01*
X003904Y022748D02*
X003884Y022748D01*
X003850Y022827D02*
X003939Y022827D01*
X004450Y022827D02*
X004886Y022827D01*
X005439Y022827D02*
X005486Y022827D01*
X005762Y022581D02*
X006344Y021999D01*
X006344Y020790D01*
X006094Y020540D01*
X002744Y020540D01*
X002749Y019922D02*
X003390Y019922D01*
X003579Y018823D02*
X002457Y018823D01*
X002457Y018745D02*
X003504Y018745D01*
X003504Y018666D02*
X002457Y018666D01*
X002439Y018588D02*
X003504Y018588D01*
X003504Y018509D02*
X002998Y018509D01*
X003059Y018431D02*
X003504Y018431D01*
X003504Y018352D02*
X003163Y018352D01*
X003242Y018274D02*
X003504Y018274D01*
X003504Y018195D02*
X003320Y018195D01*
X003374Y018117D02*
X003504Y018117D01*
X003504Y018038D02*
X003374Y018038D01*
X003374Y017960D02*
X003504Y017960D01*
X003504Y017881D02*
X003374Y017881D01*
X003374Y017803D02*
X003534Y017803D01*
X003374Y017724D02*
X004306Y017724D01*
X004364Y017646D02*
X003374Y017646D01*
X003374Y017567D02*
X004299Y017567D01*
X004229Y017489D02*
X003400Y017489D01*
X003479Y017410D02*
X004229Y017410D01*
X004229Y017332D02*
X003557Y017332D01*
X003636Y017253D02*
X004229Y017253D01*
X004229Y017175D02*
X003714Y017175D01*
X003793Y017096D02*
X004229Y017096D01*
X004294Y017018D02*
X003871Y017018D01*
X003950Y016939D02*
X004641Y016939D01*
X004719Y016861D02*
X004028Y016861D01*
X004107Y016782D02*
X005098Y016782D01*
X005176Y016704D02*
X004185Y016704D01*
X004264Y016625D02*
X005255Y016625D01*
X005333Y016547D02*
X004342Y016547D01*
X004421Y016468D02*
X005412Y016468D01*
X005490Y016390D02*
X004499Y016390D01*
X004578Y016311D02*
X005096Y016311D01*
X005056Y016233D02*
X004656Y016233D01*
X004735Y016154D02*
X005056Y016154D01*
X005056Y016076D02*
X004813Y016076D01*
X004892Y015997D02*
X005056Y015997D01*
X004844Y015790D02*
X005443Y015790D01*
X005446Y015787D01*
X006647Y015787D01*
X007044Y015390D01*
X007394Y015640D02*
X008044Y015640D01*
X008506Y016102D01*
X008826Y016102D01*
X008826Y015787D02*
X008441Y015787D01*
X007544Y014890D01*
X007594Y014640D02*
X007394Y014640D01*
X007594Y014640D02*
X008427Y015472D01*
X008826Y015472D01*
X008826Y015157D02*
X008412Y015157D01*
X008044Y015940D02*
X006744Y015940D01*
X006582Y016102D01*
X005446Y016102D01*
X005458Y016090D01*
X005844Y016290D02*
X005144Y016990D01*
X004844Y016990D01*
X004544Y017290D01*
X004544Y017740D01*
X003994Y018290D01*
X004484Y018195D02*
X005204Y018195D01*
X005204Y018117D02*
X004484Y018117D01*
X004501Y018038D02*
X005188Y018038D01*
X005109Y017960D02*
X004579Y017960D01*
X004658Y017881D02*
X005031Y017881D01*
X004964Y017803D02*
X004724Y017803D01*
X004724Y017724D02*
X004964Y017724D01*
X004964Y017646D02*
X004724Y017646D01*
X004790Y017567D02*
X004899Y017567D01*
X005744Y016690D02*
X006033Y016690D01*
X006348Y016690D02*
X006348Y016394D01*
X006244Y016290D01*
X005844Y016290D01*
X006491Y016282D02*
X006509Y016300D01*
X006831Y016300D01*
X006913Y016382D01*
X006913Y016998D01*
X006900Y017011D01*
X006927Y017000D01*
X007045Y017000D01*
X007043Y016998D01*
X007043Y016435D01*
X007007Y016399D01*
X006964Y016296D01*
X006964Y016184D01*
X006991Y016120D01*
X006819Y016120D01*
X006762Y016177D01*
X006657Y016282D01*
X006491Y016282D01*
X006706Y016233D02*
X006964Y016233D01*
X006971Y016311D02*
X006842Y016311D01*
X006913Y016390D02*
X007003Y016390D01*
X007043Y016468D02*
X006913Y016468D01*
X006913Y016547D02*
X007043Y016547D01*
X007043Y016625D02*
X006913Y016625D01*
X006913Y016704D02*
X007043Y016704D01*
X007043Y016782D02*
X006913Y016782D01*
X006913Y016861D02*
X007043Y016861D01*
X007043Y016939D02*
X006913Y016939D01*
X007523Y017018D02*
X007693Y017018D01*
X007716Y017096D02*
X007623Y017096D01*
X007659Y017175D02*
X007679Y017175D01*
X007679Y017253D02*
X007659Y017253D01*
X007659Y017332D02*
X007679Y017332D01*
X007679Y017410D02*
X007659Y017410D01*
X007659Y017489D02*
X007679Y017489D01*
X007699Y017567D02*
X007640Y017567D01*
X007561Y017646D02*
X007766Y017646D01*
X007994Y017340D02*
X007923Y017269D01*
X007923Y016690D01*
X007673Y016704D02*
X007543Y016704D01*
X007543Y016782D02*
X007673Y016782D01*
X007673Y016861D02*
X007543Y016861D01*
X007543Y016939D02*
X007673Y016939D01*
X007673Y016625D02*
X007543Y016625D01*
X007543Y016547D02*
X007673Y016547D01*
X007673Y016468D02*
X007543Y016468D01*
X007244Y016240D02*
X008094Y016240D01*
X008238Y016384D01*
X008238Y016690D01*
X008238Y016734D01*
X008294Y016790D01*
X008488Y016782D02*
X008890Y016782D01*
X009016Y016861D02*
X008488Y016861D01*
X008488Y016939D02*
X009316Y016939D01*
X009275Y016861D02*
X009173Y016861D01*
X009094Y016590D02*
X008694Y016590D01*
X008044Y015940D01*
X008488Y016704D02*
X008553Y016704D01*
X008473Y017018D02*
X008468Y017018D01*
X008395Y017096D02*
X008273Y017096D01*
X008309Y017175D02*
X008378Y017175D01*
X008378Y017253D02*
X008309Y017253D01*
X008326Y018195D02*
X008262Y018195D01*
X006977Y016154D02*
X006785Y016154D01*
X005446Y015157D02*
X004827Y015157D01*
X004794Y015190D01*
X004844Y015790D02*
X003194Y017440D01*
X003194Y018066D01*
X003021Y018240D01*
X002744Y018240D01*
X002491Y018509D02*
X002398Y018509D01*
X002144Y018240D02*
X002144Y018810D01*
X002142Y018812D01*
X002142Y019392D01*
X002094Y019440D01*
X001194Y020240D02*
X001644Y020690D01*
X000844Y019440D02*
X000889Y019395D01*
X000889Y018812D01*
X000894Y018807D01*
X000894Y018240D01*
X001748Y018509D02*
X001891Y018509D01*
X001829Y018431D02*
X001809Y018431D01*
X001809Y018352D02*
X001829Y018352D01*
X001829Y018274D02*
X001809Y018274D01*
X001469Y015369D02*
X000774Y015369D01*
X000774Y015291D02*
X001469Y015291D01*
X001488Y015212D02*
X000774Y015212D01*
X000774Y015134D02*
X001566Y015134D01*
X001645Y015055D02*
X000774Y015055D01*
X000774Y014977D02*
X001723Y014977D01*
X001613Y014898D02*
X000774Y014898D01*
X000774Y014820D02*
X001535Y014820D01*
X001456Y014741D02*
X000774Y014741D01*
X000774Y014663D02*
X001378Y014663D01*
X001369Y014584D02*
X000774Y014584D01*
X000774Y014506D02*
X001369Y014506D01*
X001369Y014427D02*
X000774Y014427D01*
X000774Y014349D02*
X001369Y014349D01*
X001369Y014270D02*
X000774Y014270D01*
X000774Y014192D02*
X001408Y014192D01*
X001487Y014113D02*
X000774Y014113D01*
X000774Y014035D02*
X001565Y014035D01*
X001644Y013956D02*
X000774Y013956D01*
X000774Y013878D02*
X001654Y013878D01*
X001654Y013799D02*
X000774Y013799D01*
X000774Y013721D02*
X001654Y013721D01*
X001654Y013642D02*
X000774Y013642D01*
X000774Y013564D02*
X001654Y013564D01*
X001654Y013485D02*
X000774Y013485D01*
X000774Y013407D02*
X001654Y013407D01*
X001654Y013328D02*
X000774Y013328D01*
X000774Y013250D02*
X001654Y013250D01*
X001654Y013171D02*
X000774Y013171D01*
X000774Y013093D02*
X001654Y013093D01*
X001654Y013014D02*
X000774Y013014D01*
X000774Y012936D02*
X001654Y012936D01*
X001654Y012857D02*
X000774Y012857D01*
X000774Y012779D02*
X001654Y012779D01*
X001654Y012700D02*
X000774Y012700D01*
X000774Y012622D02*
X001654Y012622D01*
X001654Y012543D02*
X000774Y012543D01*
X000774Y012465D02*
X001654Y012465D01*
X001654Y012386D02*
X000774Y012386D01*
X000774Y012308D02*
X001654Y012308D01*
X001654Y012229D02*
X000774Y012229D01*
X000774Y012151D02*
X001654Y012151D01*
X001654Y012072D02*
X000774Y012072D01*
X000774Y011994D02*
X001654Y011994D01*
X001654Y011915D02*
X000774Y011915D01*
X000774Y011837D02*
X001654Y011837D01*
X001654Y011758D02*
X000774Y011758D01*
X000774Y011680D02*
X001654Y011680D01*
X001654Y011601D02*
X000774Y011601D01*
X000774Y011523D02*
X001654Y011523D01*
X001654Y011444D02*
X000774Y011444D01*
X000774Y011366D02*
X001654Y011366D01*
X001654Y011287D02*
X000774Y011287D01*
X000774Y011209D02*
X001654Y011209D01*
X001654Y011130D02*
X000774Y011130D01*
X000774Y011052D02*
X001654Y011052D01*
X001654Y010973D02*
X000774Y010973D01*
X000774Y010895D02*
X001654Y010895D01*
X001654Y010816D02*
X000774Y010816D01*
X000774Y010738D02*
X001654Y010738D01*
X001654Y010659D02*
X000774Y010659D01*
X000774Y010581D02*
X001653Y010581D01*
X001574Y010502D02*
X000774Y010502D01*
X000774Y010424D02*
X001496Y010424D01*
X001417Y010345D02*
X000774Y010345D01*
X000774Y010267D02*
X001339Y010267D01*
X001078Y010188D02*
X000774Y010188D01*
X000774Y010110D02*
X000941Y010110D01*
X000863Y010031D02*
X000774Y010031D01*
X000774Y009953D02*
X000814Y009953D01*
X000782Y009874D02*
X000774Y009874D01*
X001469Y009246D02*
X007800Y009246D01*
X007874Y009325D02*
X001599Y009325D01*
X001677Y009403D02*
X007881Y009403D01*
X007913Y009482D02*
X001723Y009482D01*
X001756Y009560D02*
X007987Y009560D01*
X008244Y009874D02*
X001908Y009874D01*
X001986Y009953D02*
X008166Y009953D01*
X008087Y010031D02*
X002065Y010031D01*
X002143Y010110D02*
X008009Y010110D01*
X007930Y010188D02*
X002222Y010188D01*
X002290Y010267D02*
X007852Y010267D01*
X007773Y010345D02*
X002322Y010345D01*
X002334Y010424D02*
X007695Y010424D01*
X007733Y010640D02*
X005194Y010640D01*
X005094Y010740D01*
X005094Y011234D01*
X005081Y011247D01*
X004705Y011444D02*
X003886Y011444D01*
X003502Y011444D02*
X002334Y011444D01*
X002334Y011366D02*
X003443Y011366D01*
X003414Y011287D02*
X002334Y011287D01*
X002334Y011209D02*
X003414Y011209D01*
X003437Y011130D02*
X002334Y011130D01*
X002334Y011052D02*
X003487Y011052D01*
X003607Y010973D02*
X002334Y010973D01*
X002334Y010895D02*
X004705Y010895D01*
X004705Y010973D02*
X003781Y010973D01*
X004705Y010816D02*
X002334Y010816D01*
X002334Y010738D02*
X004763Y010738D01*
X004921Y010659D02*
X002334Y010659D01*
X002334Y010581D02*
X004999Y010581D01*
X005020Y010560D02*
X005020Y010560D01*
X005078Y010502D02*
X002334Y010502D01*
X001829Y009796D02*
X008323Y009796D01*
X008401Y009717D02*
X001778Y009717D01*
X001778Y009639D02*
X008480Y009639D01*
X008558Y009560D02*
X008320Y009560D01*
X008394Y009482D02*
X008637Y009482D01*
X008715Y009403D02*
X008427Y009403D01*
X008434Y009325D02*
X008794Y009325D01*
X008872Y009246D02*
X008422Y009246D01*
X008387Y009168D02*
X008951Y009168D01*
X008964Y009089D02*
X008302Y009089D01*
X008102Y009011D02*
X008964Y009011D01*
X008964Y008932D02*
X008024Y008932D01*
X007945Y008854D02*
X008964Y008854D01*
X008964Y008775D02*
X007867Y008775D01*
X007788Y008697D02*
X008964Y008697D01*
X008964Y008618D02*
X007710Y008618D01*
X007631Y008540D02*
X008964Y008540D01*
X008964Y008461D02*
X001615Y008461D01*
X001557Y008383D02*
X008964Y008383D01*
X008964Y008304D02*
X001478Y008304D01*
X001319Y008226D02*
X008964Y008226D01*
X009324Y008226D02*
X010561Y008226D01*
X010561Y008304D02*
X009324Y008304D01*
X009324Y008383D02*
X010561Y008383D01*
X010561Y008461D02*
X009324Y008461D01*
X009324Y008540D02*
X010561Y008540D01*
X010561Y008511D02*
X010570Y008502D01*
X010561Y008493D01*
X010561Y008117D01*
X010570Y008109D01*
X010561Y008100D01*
X010561Y007724D01*
X010570Y007715D01*
X010561Y007706D01*
X010561Y007330D01*
X010570Y007321D01*
X010561Y007312D01*
X010561Y006971D01*
X010184Y006971D01*
X010184Y007048D01*
X010561Y007048D01*
X010561Y007127D02*
X010106Y007127D01*
X010102Y007130D02*
X010184Y007048D01*
X010102Y007130D02*
X009486Y007130D01*
X009404Y007048D01*
X009404Y006432D01*
X009486Y006350D01*
X010102Y006350D01*
X010184Y006432D01*
X010184Y006491D01*
X010561Y006491D01*
X010561Y006149D01*
X010570Y006140D01*
X010561Y006131D01*
X010561Y005755D01*
X010643Y005673D01*
X011519Y005673D01*
X011601Y005755D01*
X011601Y006131D01*
X011592Y006140D01*
X011601Y006149D01*
X011601Y006525D01*
X011592Y006534D01*
X011601Y006543D01*
X011601Y006919D01*
X011592Y006927D01*
X011601Y006936D01*
X011601Y007312D01*
X011592Y007321D01*
X011601Y007330D01*
X011601Y007706D01*
X011592Y007715D01*
X011601Y007724D01*
X011601Y008100D01*
X011592Y008109D01*
X011601Y008117D01*
X011601Y008493D01*
X011592Y008502D01*
X011601Y008511D01*
X011601Y008887D01*
X011592Y008896D01*
X011601Y008905D01*
X011601Y009281D01*
X011592Y009290D01*
X011601Y009298D01*
X011601Y009674D01*
X011519Y009756D01*
X010643Y009756D01*
X010561Y009674D01*
X010561Y009298D01*
X010570Y009290D01*
X010561Y009281D01*
X010561Y008905D01*
X010570Y008896D01*
X010561Y008887D01*
X010561Y008511D01*
X010561Y008618D02*
X009324Y008618D01*
X009324Y008697D02*
X010561Y008697D01*
X010561Y008775D02*
X009324Y008775D01*
X009324Y008854D02*
X010561Y008854D01*
X010561Y008932D02*
X009324Y008932D01*
X009324Y009011D02*
X010561Y009011D01*
X010561Y009089D02*
X009324Y009089D01*
X009324Y009168D02*
X010561Y009168D01*
X010561Y009246D02*
X009324Y009246D01*
X009303Y009325D02*
X010561Y009325D01*
X010561Y009403D02*
X009224Y009403D01*
X009146Y009482D02*
X010561Y009482D01*
X010561Y009560D02*
X009067Y009560D01*
X008989Y009639D02*
X010561Y009639D01*
X010604Y009717D02*
X008910Y009717D01*
X008832Y009796D02*
X011815Y009796D01*
X011815Y009874D02*
X008753Y009874D01*
X008675Y009953D02*
X011815Y009953D01*
X011815Y010031D02*
X008596Y010031D01*
X008518Y010110D02*
X011815Y010110D01*
X011815Y010188D02*
X008439Y010188D01*
X008361Y010267D02*
X011815Y010267D01*
X011815Y010345D02*
X008282Y010345D01*
X008204Y010424D02*
X011815Y010424D01*
X011815Y010502D02*
X008125Y010502D01*
X008047Y010581D02*
X011815Y010581D01*
X011815Y010659D02*
X007968Y010659D01*
X007890Y010738D02*
X011815Y010738D01*
X011815Y010816D02*
X010851Y010816D01*
X010930Y010895D02*
X011882Y010895D01*
X011401Y011366D02*
X012780Y011366D01*
X012780Y011444D02*
X011452Y011444D01*
X011484Y011523D02*
X012780Y011523D01*
X012780Y011601D02*
X011484Y011601D01*
X011484Y011680D02*
X012780Y011680D01*
X012780Y011758D02*
X011484Y011758D01*
X011484Y011837D02*
X012780Y011837D01*
X012802Y011915D02*
X011484Y011915D01*
X011322Y011287D02*
X012780Y011287D01*
X012780Y011209D02*
X011244Y011209D01*
X011165Y011130D02*
X012780Y011130D01*
X012780Y011052D02*
X011087Y011052D01*
X011008Y010973D02*
X012824Y010973D01*
X011815Y009717D02*
X011559Y009717D01*
X011601Y009639D02*
X011815Y009639D01*
X011815Y009560D02*
X011601Y009560D01*
X011601Y009482D02*
X011815Y009482D01*
X011815Y009403D02*
X011601Y009403D01*
X011601Y009325D02*
X011815Y009325D01*
X011815Y009246D02*
X011601Y009246D01*
X011601Y009168D02*
X011815Y009168D01*
X011815Y009089D02*
X011601Y009089D01*
X011601Y009011D02*
X011815Y009011D01*
X011815Y008932D02*
X011601Y008932D01*
X011601Y008854D02*
X011815Y008854D01*
X011815Y008775D02*
X011601Y008775D01*
X011601Y008697D02*
X011815Y008697D01*
X011815Y008618D02*
X011601Y008618D01*
X011601Y008540D02*
X011815Y008540D01*
X011815Y008461D02*
X011601Y008461D01*
X011601Y008383D02*
X011815Y008383D01*
X011815Y008304D02*
X011601Y008304D01*
X011601Y008226D02*
X011815Y008226D01*
X011815Y008147D02*
X011601Y008147D01*
X011601Y008069D02*
X011815Y008069D01*
X011815Y007990D02*
X011601Y007990D01*
X011601Y007912D02*
X011815Y007912D01*
X011815Y007833D02*
X011601Y007833D01*
X011601Y007755D02*
X011815Y007755D01*
X011815Y007676D02*
X011601Y007676D01*
X011601Y007598D02*
X011815Y007598D01*
X011815Y007519D02*
X011601Y007519D01*
X011601Y007441D02*
X011815Y007441D01*
X011815Y007362D02*
X011601Y007362D01*
X011601Y007284D02*
X011815Y007284D01*
X011815Y007205D02*
X011601Y007205D01*
X011601Y007127D02*
X011815Y007127D01*
X011815Y007048D02*
X011601Y007048D01*
X011601Y006970D02*
X011815Y006970D01*
X011815Y006891D02*
X011601Y006891D01*
X011601Y006813D02*
X011815Y006813D01*
X011815Y006734D02*
X011601Y006734D01*
X011601Y006656D02*
X011815Y006656D01*
X011815Y006577D02*
X011601Y006577D01*
X011601Y006499D02*
X011815Y006499D01*
X011815Y006420D02*
X011601Y006420D01*
X011601Y006342D02*
X011815Y006342D01*
X011815Y006263D02*
X011601Y006263D01*
X011601Y006185D02*
X011815Y006185D01*
X011815Y006106D02*
X011601Y006106D01*
X011601Y006028D02*
X011815Y006028D01*
X011815Y005949D02*
X011601Y005949D01*
X011601Y005871D02*
X011815Y005871D01*
X011815Y005792D02*
X011601Y005792D01*
X011560Y005714D02*
X011815Y005714D01*
X011815Y005635D02*
X009324Y005635D01*
X009324Y005557D02*
X011815Y005557D01*
X011815Y005478D02*
X009324Y005478D01*
X009324Y005400D02*
X009508Y005400D01*
X009445Y005321D02*
X009324Y005321D01*
X009324Y005243D02*
X009414Y005243D01*
X009414Y005164D02*
X009324Y005164D01*
X009324Y005086D02*
X009434Y005086D01*
X009481Y005007D02*
X009324Y005007D01*
X009324Y004929D02*
X009594Y004929D01*
X009777Y004850D02*
X009959Y004850D01*
X009881Y004772D02*
X009856Y004772D01*
X009795Y004929D02*
X010305Y004929D01*
X010393Y004762D02*
X010168Y004537D01*
X010393Y004762D02*
X011081Y004762D01*
X011081Y004368D02*
X010575Y004368D01*
X010162Y003956D01*
X010162Y003368D02*
X010769Y003975D01*
X011081Y003975D01*
X010561Y003437D02*
X010486Y003437D01*
X010477Y003359D02*
X010596Y003359D01*
X010477Y003280D02*
X011815Y003280D01*
X011815Y003202D02*
X010477Y003202D01*
X010439Y003123D02*
X011815Y003123D01*
X011815Y003045D02*
X009800Y003045D01*
X009839Y003123D02*
X009885Y003123D01*
X009870Y002966D02*
X011815Y002966D01*
X011815Y002888D02*
X009870Y002888D01*
X009870Y002809D02*
X011815Y002809D01*
X011815Y002731D02*
X009870Y002731D01*
X009870Y002652D02*
X011815Y002652D01*
X011815Y002574D02*
X009870Y002574D01*
X009824Y002495D02*
X011815Y002495D01*
X011843Y002417D02*
X009824Y002417D01*
X009805Y002338D02*
X012386Y002338D01*
X012386Y002260D02*
X009760Y002260D01*
X009651Y002181D02*
X012386Y002181D01*
X012386Y002103D02*
X007324Y002103D01*
X007299Y002024D02*
X012386Y002024D01*
X012386Y001946D02*
X007258Y001946D01*
X007344Y001867D02*
X012386Y001867D01*
X012386Y001789D02*
X007414Y001789D01*
X007414Y001710D02*
X012386Y001710D01*
X012386Y001632D02*
X007414Y001632D01*
X007414Y001553D02*
X012401Y001553D01*
X014092Y001553D02*
X014370Y001553D01*
X014355Y001632D02*
X014107Y001632D01*
X014107Y001710D02*
X014355Y001710D01*
X014355Y001789D02*
X014107Y001789D01*
X014107Y001867D02*
X014355Y001867D01*
X014355Y001946D02*
X014107Y001946D01*
X014107Y002024D02*
X014355Y002024D01*
X014355Y002103D02*
X014107Y002103D01*
X014107Y002181D02*
X014355Y002181D01*
X014355Y002260D02*
X014107Y002260D01*
X014107Y002338D02*
X014355Y002338D01*
X016469Y002338D02*
X017110Y002338D01*
X017110Y002260D02*
X016469Y002260D01*
X016469Y002181D02*
X017110Y002181D01*
X017110Y002103D02*
X016469Y002103D01*
X016469Y002024D02*
X017110Y002024D01*
X017110Y001946D02*
X016469Y001946D01*
X016469Y001867D02*
X017110Y001867D01*
X017110Y001789D02*
X016469Y001789D01*
X016469Y001710D02*
X017110Y001710D01*
X017110Y001632D02*
X016469Y001632D01*
X016454Y001553D02*
X017126Y001553D01*
X020182Y000297D02*
X003335Y000297D01*
X003256Y000376D02*
X020260Y000376D01*
X020339Y000454D02*
X003178Y000454D01*
X003099Y000533D02*
X020417Y000533D01*
X020496Y000611D02*
X003021Y000611D01*
X001765Y001867D02*
X004743Y001867D01*
X004793Y001946D02*
X001686Y001946D01*
X001608Y002024D02*
X004739Y002024D01*
X004714Y002103D02*
X001529Y002103D01*
X001451Y002181D02*
X004714Y002181D01*
X004741Y002260D02*
X001372Y002260D01*
X001294Y002338D02*
X004796Y002338D01*
X004930Y002417D02*
X001215Y002417D01*
X001137Y002495D02*
X005095Y002495D01*
X005173Y002574D02*
X001058Y002574D01*
X000980Y002652D02*
X005252Y002652D01*
X005330Y002731D02*
X000901Y002731D01*
X000823Y002809D02*
X005409Y002809D01*
X005487Y002888D02*
X000744Y002888D01*
X000666Y002966D02*
X005566Y002966D01*
X005644Y003045D02*
X000587Y003045D01*
X000509Y003123D02*
X005723Y003123D01*
X005801Y003202D02*
X000430Y003202D01*
X000352Y003280D02*
X005880Y003280D01*
X005958Y003359D02*
X000284Y003359D01*
X000284Y003437D02*
X006037Y003437D01*
X006115Y003516D02*
X000284Y003516D01*
X000284Y003594D02*
X006194Y003594D01*
X006272Y003673D02*
X000284Y003673D01*
X000284Y003751D02*
X006351Y003751D01*
X006429Y003830D02*
X000284Y003830D01*
X000284Y003908D02*
X006508Y003908D01*
X006586Y003987D02*
X000284Y003987D01*
X000284Y004065D02*
X006665Y004065D01*
X006810Y003956D02*
X004994Y002140D01*
X005050Y002084D01*
X005050Y001306D01*
X005426Y001318D02*
X005638Y001318D01*
X005638Y001396D02*
X005426Y001396D01*
X005426Y001475D02*
X005638Y001475D01*
X005638Y001553D02*
X005426Y001553D01*
X005426Y001632D02*
X005638Y001632D01*
X005638Y001710D02*
X005426Y001710D01*
X005426Y001789D02*
X005645Y001789D01*
X005834Y001867D02*
X005356Y001867D01*
X005230Y001946D02*
X005793Y001946D01*
X005739Y002024D02*
X005249Y002024D01*
X005274Y002103D02*
X005714Y002103D01*
X005714Y002181D02*
X005290Y002181D01*
X005368Y002260D02*
X005741Y002260D01*
X005796Y002338D02*
X005447Y002338D01*
X005525Y002417D02*
X005930Y002417D01*
X006095Y002495D02*
X005604Y002495D01*
X005682Y002574D02*
X006173Y002574D01*
X006252Y002652D02*
X005761Y002652D01*
X005839Y002731D02*
X006330Y002731D01*
X006409Y002809D02*
X005918Y002809D01*
X005996Y002888D02*
X006487Y002888D01*
X006566Y002966D02*
X006075Y002966D01*
X006153Y003045D02*
X006644Y003045D01*
X006723Y003123D02*
X006232Y003123D01*
X006310Y003202D02*
X006801Y003202D01*
X006880Y003280D02*
X006389Y003280D01*
X006467Y003359D02*
X006958Y003359D01*
X007037Y003437D02*
X006546Y003437D01*
X006624Y003516D02*
X007115Y003516D01*
X007222Y003368D02*
X005994Y002140D01*
X006014Y002120D01*
X006014Y001290D01*
X006391Y001318D02*
X006662Y001318D01*
X006662Y001396D02*
X006391Y001396D01*
X006391Y001475D02*
X006662Y001475D01*
X006662Y001553D02*
X006391Y001553D01*
X006391Y001632D02*
X006662Y001632D01*
X006662Y001710D02*
X006391Y001710D01*
X006383Y001789D02*
X006662Y001789D01*
X006732Y001867D02*
X006194Y001867D01*
X006196Y001946D02*
X006818Y001946D01*
X006789Y002024D02*
X006249Y002024D01*
X006274Y002103D02*
X006764Y002103D01*
X006764Y002181D02*
X006290Y002181D01*
X006368Y002260D02*
X006791Y002260D01*
X006846Y002338D02*
X006447Y002338D01*
X006525Y002417D02*
X006980Y002417D01*
X007088Y002495D02*
X006604Y002495D01*
X006682Y002574D02*
X007167Y002574D01*
X007245Y002652D02*
X006761Y002652D01*
X006839Y002731D02*
X007324Y002731D01*
X007402Y002809D02*
X006918Y002809D01*
X006996Y002888D02*
X007481Y002888D01*
X007559Y002966D02*
X007075Y002966D01*
X007153Y003045D02*
X009311Y003045D01*
X009285Y003123D02*
X007232Y003123D01*
X007222Y003368D02*
X009562Y003368D01*
X009266Y003594D02*
X006703Y003594D01*
X006781Y003673D02*
X009323Y003673D01*
X009247Y003751D02*
X006860Y003751D01*
X006810Y003956D02*
X009562Y003956D01*
X009247Y004144D02*
X000284Y004144D01*
X000284Y004222D02*
X009306Y004222D01*
X009282Y004301D02*
X000284Y004301D01*
X000284Y004379D02*
X009151Y004379D01*
X009072Y004458D02*
X000284Y004458D01*
X000284Y004536D02*
X008994Y004536D01*
X008964Y004615D02*
X000284Y004615D01*
X000284Y004693D02*
X008964Y004693D01*
X008964Y004772D02*
X000284Y004772D01*
X000284Y004850D02*
X008964Y004850D01*
X008964Y004929D02*
X000284Y004929D01*
X000284Y005007D02*
X008964Y005007D01*
X008964Y005086D02*
X000284Y005086D01*
X000284Y005164D02*
X008964Y005164D01*
X008964Y005243D02*
X000284Y005243D01*
X000284Y005321D02*
X008964Y005321D01*
X008964Y005400D02*
X000284Y005400D01*
X000284Y005478D02*
X008964Y005478D01*
X008964Y005557D02*
X000284Y005557D01*
X000284Y005635D02*
X008964Y005635D01*
X008964Y005714D02*
X000284Y005714D01*
X000284Y005792D02*
X008964Y005792D01*
X008964Y005871D02*
X000284Y005871D01*
X000284Y005949D02*
X008964Y005949D01*
X008964Y006028D02*
X000284Y006028D01*
X000284Y006106D02*
X008964Y006106D01*
X009324Y006106D02*
X010561Y006106D01*
X010561Y006028D02*
X009324Y006028D01*
X009324Y005949D02*
X010561Y005949D01*
X010561Y005871D02*
X009324Y005871D01*
X009324Y005792D02*
X010561Y005792D01*
X010603Y005714D02*
X009324Y005714D01*
X009324Y006185D02*
X010561Y006185D01*
X010561Y006263D02*
X009324Y006263D01*
X009324Y006342D02*
X010561Y006342D01*
X010561Y006420D02*
X010172Y006420D01*
X010561Y007205D02*
X009324Y007205D01*
X009324Y007127D02*
X009483Y007127D01*
X009404Y007048D02*
X009324Y007048D01*
X009324Y006970D02*
X009404Y006970D01*
X009404Y006891D02*
X009324Y006891D01*
X009324Y006813D02*
X009404Y006813D01*
X009404Y006734D02*
X009324Y006734D01*
X009324Y006656D02*
X009404Y006656D01*
X009404Y006577D02*
X009324Y006577D01*
X009324Y006499D02*
X009404Y006499D01*
X009416Y006420D02*
X009324Y006420D01*
X009324Y007284D02*
X010561Y007284D01*
X010561Y007362D02*
X009324Y007362D01*
X009324Y007441D02*
X010561Y007441D01*
X010561Y007519D02*
X009324Y007519D01*
X009324Y007598D02*
X010561Y007598D01*
X010561Y007676D02*
X009324Y007676D01*
X009324Y007755D02*
X010561Y007755D01*
X010561Y007833D02*
X009324Y007833D01*
X009324Y007912D02*
X010561Y007912D01*
X010561Y007990D02*
X009324Y007990D01*
X009324Y008069D02*
X010561Y008069D01*
X010561Y008147D02*
X009324Y008147D01*
X009144Y009228D02*
X007733Y010640D01*
X007458Y010820D02*
X007381Y010897D01*
X007329Y011022D01*
X007329Y011650D01*
X006418Y011650D01*
X006418Y010820D01*
X007458Y010820D01*
X007384Y010895D02*
X006418Y010895D01*
X006418Y010973D02*
X007350Y010973D01*
X007329Y011052D02*
X006418Y011052D01*
X006418Y011130D02*
X007329Y011130D01*
X007329Y011209D02*
X006418Y011209D01*
X006418Y011287D02*
X007329Y011287D01*
X007329Y011366D02*
X006418Y011366D01*
X006418Y011444D02*
X007329Y011444D01*
X007329Y011523D02*
X006418Y011523D01*
X006418Y011601D02*
X007329Y011601D01*
X007094Y012700D02*
X007733Y012700D01*
X007733Y012779D02*
X007172Y012779D01*
X007210Y012857D02*
X007733Y012857D01*
X007424Y012936D02*
X007218Y012936D01*
X007228Y013014D02*
X007358Y013014D01*
X007358Y013093D02*
X007228Y013093D01*
X007228Y013171D02*
X007358Y013171D01*
X007358Y013250D02*
X007228Y013250D01*
X007228Y013328D02*
X007358Y013328D01*
X007358Y013407D02*
X007228Y013407D01*
X007228Y013485D02*
X007358Y013485D01*
X007358Y013564D02*
X007228Y013564D01*
X007204Y013642D02*
X007382Y013642D01*
X008169Y012865D02*
X008294Y012865D01*
X008744Y013240D01*
X009744Y013240D01*
X009894Y013390D01*
X009894Y015175D01*
X009600Y014884D02*
X009594Y014890D01*
X009600Y014884D02*
X009600Y014283D01*
X009285Y013721D02*
X009243Y013721D01*
X009269Y013642D02*
X008464Y013642D01*
X008445Y013721D02*
X006448Y013721D01*
X006033Y013451D02*
X006033Y013390D01*
X005933Y013490D01*
X002794Y013490D01*
X002394Y013890D01*
X002394Y014858D01*
X002979Y015442D01*
X002929Y014492D02*
X002879Y014442D01*
X002929Y014492D02*
X004592Y014492D01*
X005187Y013897D01*
X005446Y013897D01*
X005468Y014190D02*
X005894Y014190D01*
X005944Y014140D01*
X006033Y013390D02*
X006033Y013310D01*
X005115Y013670D02*
X002869Y013670D01*
X002574Y013965D01*
X002574Y014026D01*
X002668Y013932D01*
X003090Y013932D01*
X003389Y014231D01*
X003389Y014312D01*
X004517Y014312D01*
X005056Y013774D01*
X005056Y013729D01*
X005115Y013670D01*
X005065Y013721D02*
X002818Y013721D01*
X002740Y013799D02*
X005031Y013799D01*
X004952Y013878D02*
X002661Y013878D01*
X002644Y013956D02*
X002583Y013956D01*
X003114Y013956D02*
X004874Y013956D01*
X004795Y014035D02*
X003192Y014035D01*
X003271Y014113D02*
X004717Y014113D01*
X004638Y014192D02*
X003349Y014192D01*
X003389Y014270D02*
X004560Y014270D01*
X004302Y012700D02*
X003686Y012700D01*
X004354Y012543D02*
X002334Y012543D01*
X002334Y012465D02*
X004354Y012465D01*
X004354Y012386D02*
X002334Y012386D01*
X002334Y012308D02*
X004354Y012308D01*
X004354Y012229D02*
X002334Y012229D01*
X002334Y012151D02*
X004384Y012151D01*
X004431Y012072D02*
X002334Y012072D01*
X002334Y011994D02*
X004510Y011994D01*
X004588Y011915D02*
X002334Y011915D01*
X002334Y011837D02*
X004667Y011837D01*
X004745Y011758D02*
X002334Y011758D01*
X002334Y011680D02*
X004705Y011680D01*
X004705Y011601D02*
X002334Y011601D01*
X002334Y011523D02*
X004705Y011523D01*
X007486Y008932D02*
X001630Y008932D01*
X001593Y009011D02*
X007565Y009011D01*
X007643Y009089D02*
X001515Y009089D01*
X001408Y009168D02*
X007722Y009168D01*
X007948Y007905D02*
X008177Y007676D01*
X008244Y007676D01*
X009144Y009228D02*
X009144Y004640D01*
X009244Y004540D01*
X009565Y004540D01*
X009359Y004850D02*
X009324Y004850D01*
X009881Y005400D02*
X010617Y005400D01*
X011545Y005400D02*
X011815Y005400D01*
X011815Y005321D02*
X011601Y005321D01*
X011601Y005243D02*
X011815Y005243D01*
X011815Y005164D02*
X011601Y005164D01*
X011601Y005086D02*
X011815Y005086D01*
X011815Y005007D02*
X011601Y005007D01*
X011601Y004929D02*
X011815Y004929D01*
X011815Y004850D02*
X011601Y004850D01*
X011601Y004772D02*
X011815Y004772D01*
X011815Y004693D02*
X011601Y004693D01*
X011601Y004615D02*
X011815Y004615D01*
X011815Y004536D02*
X011601Y004536D01*
X011601Y004458D02*
X011815Y004458D01*
X011815Y004379D02*
X011601Y004379D01*
X011601Y004301D02*
X011815Y004301D01*
X011815Y004222D02*
X011601Y004222D01*
X011601Y004144D02*
X011815Y004144D01*
X011815Y004065D02*
X011601Y004065D01*
X011601Y003987D02*
X011815Y003987D01*
X011815Y003908D02*
X011601Y003908D01*
X011601Y003830D02*
X011815Y003830D01*
X011815Y003751D02*
X011601Y003751D01*
X011601Y003673D02*
X011815Y003673D01*
X011815Y003594D02*
X011601Y003594D01*
X011601Y003516D02*
X011815Y003516D01*
X011815Y003437D02*
X011601Y003437D01*
X011567Y003359D02*
X011815Y003359D01*
X009438Y002181D02*
X007396Y002181D01*
X007475Y002260D02*
X009329Y002260D01*
X009283Y002338D02*
X007553Y002338D01*
X007632Y002417D02*
X009264Y002417D01*
X009264Y002495D02*
X007710Y002495D01*
X006662Y001239D02*
X006391Y001239D01*
X006391Y001161D02*
X006662Y001161D01*
X006662Y001082D02*
X006391Y001082D01*
X006391Y001004D02*
X006662Y001004D01*
X006662Y000925D02*
X006391Y000925D01*
X006391Y000847D02*
X006662Y000847D01*
X006709Y000768D02*
X006359Y000768D01*
X005669Y000768D02*
X005379Y000768D01*
X005426Y000847D02*
X005638Y000847D01*
X005638Y000925D02*
X005426Y000925D01*
X005426Y001004D02*
X005638Y001004D01*
X005638Y001082D02*
X005426Y001082D01*
X005426Y001161D02*
X005638Y001161D01*
X005638Y001239D02*
X005426Y001239D01*
X008678Y011430D02*
X008684Y011436D01*
X008684Y012000D01*
X009624Y012000D01*
X009666Y012017D01*
X009854Y012017D01*
X009854Y011892D01*
X009891Y011804D01*
X009958Y011737D01*
X009979Y011716D01*
X009979Y011483D01*
X010032Y011430D01*
X008678Y011430D01*
X008684Y011444D02*
X010018Y011444D01*
X009979Y011523D02*
X008684Y011523D01*
X008684Y011601D02*
X009979Y011601D01*
X009979Y011680D02*
X008684Y011680D01*
X008684Y011758D02*
X009937Y011758D01*
X009877Y011837D02*
X008684Y011837D01*
X008684Y011915D02*
X009854Y011915D01*
X009854Y011994D02*
X008684Y011994D01*
X008844Y012862D02*
X008752Y012955D01*
X008683Y012955D01*
X008809Y013060D01*
X009819Y013060D01*
X009854Y013095D01*
X009854Y012908D01*
X009411Y012908D01*
X009405Y012902D01*
X009352Y012955D01*
X008937Y012955D01*
X008844Y012862D01*
X008771Y012936D02*
X008917Y012936D01*
X008754Y013014D02*
X009854Y013014D01*
X009854Y012936D02*
X009371Y012936D01*
X009851Y013093D02*
X009854Y013093D01*
X009209Y013564D02*
X008488Y013564D01*
X007157Y014481D02*
X007114Y014584D01*
X012794Y014977D02*
X014385Y014977D01*
X014502Y015055D02*
X012794Y015055D01*
X012794Y015291D02*
X012883Y015291D01*
X012816Y015369D02*
X012794Y015369D01*
X012883Y013799D02*
X015812Y013799D01*
X015804Y013878D02*
X015784Y013878D01*
X016274Y013721D02*
X012961Y013721D01*
X013040Y013642D02*
X016274Y013642D01*
X016274Y013564D02*
X013118Y013564D01*
X018019Y012065D02*
X018819Y012065D01*
X018969Y011915D01*
X018969Y011469D01*
X018955Y011455D01*
X019225Y011130D02*
X020305Y011130D01*
X020383Y011052D02*
X019225Y011052D01*
X019181Y010973D02*
X020462Y010973D01*
X020048Y007048D02*
X019969Y007048D01*
X019969Y006499D02*
X019981Y006499D01*
X019969Y006420D02*
X020060Y006420D01*
X005762Y020219D02*
X005744Y020237D01*
X005477Y020943D02*
X006014Y020943D01*
X006014Y021021D02*
X005477Y021021D01*
X005477Y021100D02*
X006014Y021100D01*
X006014Y021178D02*
X005477Y021178D01*
X005434Y021257D02*
X006014Y021257D01*
X005541Y021492D02*
X005383Y021492D01*
X005462Y021571D02*
X005463Y021571D01*
D44*
X010210Y015490D02*
X012294Y015490D01*
X012494Y015290D01*
X012494Y013763D01*
X012944Y013313D01*
X012494Y015290D02*
X012494Y015690D01*
X012294Y015490D01*
X012494Y015690D02*
X012494Y017690D01*
X013325Y018521D01*
X010210Y015490D02*
X010203Y015484D01*
X021912Y007281D02*
X022356Y007281D01*
X022519Y007117D01*
X022519Y008165D01*
X022644Y008290D01*
X022519Y007117D02*
X022519Y006723D01*
X022512Y006731D01*
X022519Y006723D02*
X022519Y006340D01*
X022360Y006181D01*
X021912Y006181D01*
D45*
X021871Y006140D01*
X021644Y006140D01*
X021312Y006731D02*
X020530Y006731D01*
X021044Y013240D02*
X021011Y013244D01*
X020979Y013255D01*
X020951Y013273D01*
X020927Y013296D01*
X020909Y013325D01*
X020898Y013357D01*
X020894Y013390D01*
X020894Y014140D01*
X020898Y014173D01*
X020909Y014205D01*
X020927Y014234D01*
X020951Y014257D01*
X020979Y014275D01*
X021011Y014286D01*
X021044Y014290D01*
X021694Y014290D01*
X021728Y014294D01*
X021759Y014305D01*
X021788Y014323D01*
X021811Y014346D01*
X021829Y014375D01*
X021840Y014407D01*
X021844Y014440D01*
X021844Y017440D01*
X021848Y017473D01*
X021859Y017505D01*
X021877Y017534D01*
X021901Y017557D01*
X021929Y017575D01*
X022909Y017575D01*
X022938Y017557D01*
X022961Y017534D01*
X022979Y017505D01*
X022990Y017473D01*
X022994Y017440D01*
X022994Y013390D01*
X022990Y013357D01*
X022979Y013325D01*
X022961Y013296D01*
X020928Y013296D01*
X021044Y013240D02*
X022844Y013240D01*
X022878Y013244D01*
X022909Y013255D01*
X022938Y013273D01*
X022961Y013296D01*
X022994Y013454D02*
X020894Y013454D01*
X020894Y013613D02*
X022994Y013613D01*
X022994Y013771D02*
X020894Y013771D01*
X020894Y013930D02*
X022994Y013930D01*
X022994Y014088D02*
X020894Y014088D01*
X020940Y014247D02*
X022994Y014247D01*
X022994Y014405D02*
X021840Y014405D01*
X021844Y014564D02*
X022994Y014564D01*
X022994Y014722D02*
X021844Y014722D01*
X021844Y014881D02*
X022994Y014881D01*
X022994Y015039D02*
X021844Y015039D01*
X021844Y015198D02*
X022994Y015198D01*
X022994Y015356D02*
X021844Y015356D01*
X021844Y015515D02*
X022994Y015515D01*
X022994Y015673D02*
X021844Y015673D01*
X021844Y015832D02*
X022994Y015832D01*
X022994Y015990D02*
X021844Y015990D01*
X021844Y016149D02*
X022994Y016149D01*
X022994Y016307D02*
X021844Y016307D01*
X021844Y016466D02*
X022994Y016466D01*
X022994Y016624D02*
X021844Y016624D01*
X021844Y016783D02*
X022994Y016783D01*
X022994Y016941D02*
X021844Y016941D01*
X021844Y017100D02*
X022994Y017100D01*
X022994Y017258D02*
X021844Y017258D01*
X021844Y017417D02*
X022994Y017417D01*
X022909Y017575D02*
X022878Y017586D01*
X022844Y017590D01*
X021994Y017590D01*
X021961Y017586D01*
X021929Y017575D01*
X017494Y014240D02*
X017494Y014176D01*
X017495Y014174D01*
X017494Y014240D02*
X016844Y014890D01*
X016494Y014890D01*
X016394Y014490D02*
X016194Y014490D01*
X016044Y014640D01*
X016044Y015840D01*
X015994Y015890D01*
X016394Y014490D02*
X016494Y014390D01*
X016494Y013440D01*
X016555Y013379D01*
X015480Y017871D02*
X015461Y017890D01*
X015194Y017890D01*
X003594Y021006D02*
X003594Y021794D01*
X003594Y022581D01*
X009694Y005190D02*
X009728Y005156D01*
X011081Y005156D01*
X009555Y002767D02*
X009544Y002756D01*
X009544Y002440D01*
X009555Y002767D02*
X007671Y002767D01*
X007044Y002140D01*
X007038Y002134D01*
X007038Y001306D01*
D46*
X007231Y011400D03*
X007999Y012030D03*
X008215Y012542D03*
X009199Y013014D03*
X009396Y011912D03*
D47*
X018482Y017497D02*
X019041Y016937D01*
X020175Y016937D01*
D48*
X021915Y018616D02*
X021915Y019220D01*
X021923Y019228D01*
X021842Y018690D02*
X021915Y018616D01*
X021842Y018690D02*
X021180Y018690D01*
X022515Y018616D02*
X022515Y017034D01*
X022419Y016937D01*
X009594Y016687D02*
X009594Y016090D01*
X009603Y016081D01*
X009603Y015484D01*
X009594Y016687D02*
X009590Y016691D01*
X007344Y017340D02*
X007293Y017289D01*
X007293Y016690D01*
X006663Y016690D02*
X006663Y017340D01*
X006694Y017340D01*
X006994Y017340D01*
X007294Y017340D02*
X007344Y017340D01*
D49*
X006994Y017340D03*
X011144Y011890D03*
X017994Y012765D03*
D50*
X018608Y013379D01*
X021248Y013379D01*
X018292Y019630D02*
X018292Y020288D01*
X018694Y020690D01*
X018694Y021590D01*
X018994Y021890D01*
X018994Y022118D01*
X019019Y022142D01*
X018765Y020910D02*
X019802Y020910D01*
X018765Y020910D02*
X018746Y020908D01*
X018729Y020903D01*
X018712Y020894D01*
X018698Y020882D01*
X011144Y011890D02*
X011144Y011590D01*
X010644Y011090D01*
X007669Y011090D01*
X007669Y011793D01*
X007472Y011990D01*
X004994Y011990D01*
X004694Y012290D01*
X004694Y013090D01*
X003944Y013090D01*
X002194Y013090D01*
X001994Y012890D01*
X001994Y010441D01*
X001268Y009715D01*
X001994Y012890D02*
X001994Y013290D01*
X002194Y013090D01*
X002144Y013090D01*
X001994Y013290D02*
X001994Y014340D01*
X001892Y014442D01*
X001879Y014442D01*
X004694Y013190D02*
X004694Y013090D01*
X006994Y017340D02*
X007294Y017340D01*
D51*
X011394Y020640D02*
X011394Y021712D01*
X011959Y022277D01*
X013378Y020640D02*
X013802Y020640D01*
X015302Y022140D01*
X017284Y022140D01*
X017287Y022142D01*
X017267Y022162D01*
D52*
X016555Y013379D02*
X016555Y012701D01*
X014914Y012710D02*
X014914Y013323D01*
X014908Y013329D01*
X012940Y013329D01*
X010729Y013034D02*
X010669Y012974D01*
X010594Y012974D01*
X009990Y012236D02*
X009755Y012236D01*
X009705Y012286D01*
X009659Y012240D01*
X009577Y012240D01*
X008232Y012240D02*
X007835Y012440D01*
M02*
