G75*
%MOIN*%
%OFA0B0*%
%FSLAX24Y24*%
%IPPOS*%
%LPD*%
%AMOC8*
5,1,8,0,0,1.08239X$1,22.5*
%
%ADD10C,0.0000*%
%ADD11R,0.0296X0.0006*%
%ADD12R,0.0038X0.0006*%
%ADD13R,0.0088X0.0006*%
%ADD14R,0.0252X0.0006*%
%ADD15R,0.0113X0.0006*%
%ADD16R,0.0214X0.0006*%
%ADD17R,0.0132X0.0006*%
%ADD18R,0.0183X0.0006*%
%ADD19R,0.0145X0.0006*%
%ADD20R,0.0164X0.0006*%
%ADD21R,0.0157X0.0006*%
%ADD22R,0.0151X0.0006*%
%ADD23R,0.0170X0.0006*%
%ADD24R,0.0176X0.0006*%
%ADD25R,0.0120X0.0006*%
%ADD26R,0.0094X0.0006*%
%ADD27R,0.0031X0.0006*%
%ADD28R,0.0069X0.0006*%
%ADD29R,0.0107X0.0006*%
%ADD30R,0.0025X0.0006*%
%ADD31R,0.0019X0.0006*%
%ADD32R,0.0101X0.0006*%
%ADD33R,0.0063X0.0006*%
%ADD34R,0.0057X0.0006*%
%ADD35R,0.0139X0.0006*%
%ADD36R,0.0302X0.0006*%
%ADD37R,0.0208X0.0006*%
%ADD38R,0.0006X0.0006*%
%ADD39R,0.0050X0.0006*%
%ADD40R,0.0202X0.0006*%
%ADD41R,0.0246X0.0006*%
%ADD42R,0.0013X0.0006*%
%ADD43R,0.0220X0.0006*%
%ADD44R,0.0044X0.0006*%
%ADD45R,0.0271X0.0006*%
%ADD46R,0.0321X0.0006*%
%ADD47R,0.0126X0.0006*%
%ADD48R,0.0082X0.0006*%
%ADD49R,0.0076X0.0006*%
%ADD50R,0.0189X0.0006*%
%ADD51R,0.0195X0.0006*%
%ADD52R,0.0510X0.0006*%
%ADD53R,0.0504X0.0006*%
%ADD54R,0.0346X0.0006*%
%ADD55R,0.0328X0.0006*%
%ADD56R,0.0265X0.0006*%
%ADD57R,0.0315X0.0006*%
%ADD58R,0.0894X0.0006*%
%ADD59R,0.1159X0.0006*%
%ADD60R,0.1808X0.0006*%
%ADD61R,0.3250X0.0006*%
%ADD62R,0.1814X0.0006*%
%ADD63R,0.5254X0.0006*%
%ADD64R,0.5247X0.0006*%
%ADD65R,0.5241X0.0006*%
%ADD66R,0.5235X0.0006*%
%ADD67R,0.5228X0.0006*%
%ADD68R,0.5222X0.0006*%
%ADD69R,0.5216X0.0006*%
%ADD70R,0.5209X0.0006*%
%ADD71R,0.5203X0.0006*%
%ADD72R,0.5197X0.0006*%
%ADD73R,0.5191X0.0006*%
%ADD74R,0.5184X0.0006*%
%ADD75R,0.5178X0.0006*%
%ADD76R,0.5172X0.0006*%
%ADD77R,0.5165X0.0006*%
%ADD78R,0.5159X0.0006*%
%ADD79R,0.5153X0.0006*%
%ADD80R,0.5146X0.0006*%
%ADD81R,0.5140X0.0006*%
%ADD82R,0.5134X0.0006*%
%ADD83R,0.5128X0.0006*%
%ADD84R,0.5121X0.0006*%
%ADD85R,0.5115X0.0006*%
%ADD86R,0.5109X0.0006*%
%ADD87R,0.5102X0.0006*%
%ADD88R,0.5096X0.0006*%
%ADD89R,0.5090X0.0006*%
%ADD90R,0.5083X0.0006*%
%ADD91R,0.5077X0.0006*%
%ADD92R,0.5071X0.0006*%
%ADD93R,0.5065X0.0006*%
%ADD94R,0.5058X0.0006*%
%ADD95R,0.5052X0.0006*%
%ADD96R,0.1606X0.0006*%
%ADD97R,0.1587X0.0006*%
%ADD98R,0.1581X0.0006*%
%ADD99R,0.1575X0.0006*%
%ADD100R,0.1569X0.0006*%
%ADD101R,0.1556X0.0006*%
%ADD102R,0.1550X0.0006*%
%ADD103R,0.1537X0.0006*%
%ADD104R,0.1531X0.0006*%
%ADD105R,0.1518X0.0006*%
%ADD106R,0.1506X0.0006*%
%ADD107R,0.1493X0.0006*%
%ADD108R,0.1480X0.0006*%
%ADD109R,0.1468X0.0006*%
%ADD110R,0.1455X0.0006*%
%ADD111R,0.1443X0.0006*%
%ADD112R,0.1424X0.0006*%
%ADD113R,0.1405X0.0006*%
%ADD114R,0.1386X0.0006*%
%ADD115R,0.1361X0.0006*%
%ADD116R,0.1329X0.0006*%
%ADD117R,0.1291X0.0006*%
%ADD118R,0.4542X0.0006*%
%ADD119R,0.6545X0.0006*%
%ADD120R,0.0888X0.0006*%
%ADD121R,0.6539X0.0006*%
%ADD122R,0.6532X0.0006*%
%ADD123R,0.6526X0.0006*%
%ADD124R,0.6520X0.0006*%
%ADD125R,0.6513X0.0006*%
%ADD126R,0.6507X0.0006*%
%ADD127R,0.6501X0.0006*%
%ADD128R,0.6494X0.0006*%
%ADD129R,0.6488X0.0006*%
%ADD130R,0.6482X0.0006*%
%ADD131R,0.6476X0.0006*%
%ADD132R,0.6469X0.0006*%
%ADD133R,0.6463X0.0006*%
%ADD134R,0.6457X0.0006*%
%ADD135R,0.6450X0.0006*%
%ADD136R,0.6444X0.0006*%
%ADD137R,0.6438X0.0006*%
%ADD138R,0.6431X0.0006*%
%ADD139R,0.6425X0.0006*%
%ADD140R,0.6419X0.0006*%
%ADD141R,0.6413X0.0006*%
%ADD142R,0.6406X0.0006*%
%ADD143R,0.6400X0.0006*%
%ADD144R,0.6394X0.0006*%
%ADD145R,0.6387X0.0006*%
%ADD146R,0.6381X0.0006*%
%ADD147R,0.6375X0.0006*%
%ADD148R,0.6369X0.0006*%
%ADD149R,0.6362X0.0006*%
%ADD150R,0.6356X0.0006*%
%ADD151R,0.6343X0.0006*%
%ADD152R,0.6337X0.0006*%
%ADD153R,0.1594X0.0006*%
%ADD154R,0.1562X0.0006*%
%ADD155R,0.1543X0.0006*%
%ADD156R,0.1512X0.0006*%
%ADD157R,0.1499X0.0006*%
%ADD158R,0.1487X0.0006*%
%ADD159R,0.1474X0.0006*%
%ADD160R,0.1461X0.0006*%
%ADD161R,0.1430X0.0006*%
%ADD162R,0.1411X0.0006*%
%ADD163R,0.1367X0.0006*%
%ADD164R,0.1335X0.0006*%
%ADD165R,0.5858X0.0006*%
%ADD166R,0.7861X0.0006*%
%ADD167R,0.7855X0.0006*%
%ADD168R,0.7849X0.0006*%
%ADD169R,0.7843X0.0006*%
%ADD170R,0.7836X0.0006*%
%ADD171R,0.7830X0.0006*%
%ADD172R,0.7824X0.0006*%
%ADD173R,0.7817X0.0006*%
%ADD174R,0.7811X0.0006*%
%ADD175R,0.7805X0.0006*%
%ADD176R,0.7798X0.0006*%
%ADD177R,0.7792X0.0006*%
%ADD178R,0.7786X0.0006*%
%ADD179R,0.7780X0.0006*%
%ADD180R,0.7773X0.0006*%
%ADD181R,0.7767X0.0006*%
%ADD182R,0.7761X0.0006*%
%ADD183R,0.7754X0.0006*%
%ADD184R,0.7748X0.0006*%
%ADD185R,0.7742X0.0006*%
%ADD186R,0.7735X0.0006*%
%ADD187R,0.7729X0.0006*%
%ADD188R,0.7723X0.0006*%
%ADD189R,0.7717X0.0006*%
%ADD190R,0.7710X0.0006*%
%ADD191R,0.7704X0.0006*%
%ADD192R,0.7698X0.0006*%
%ADD193R,0.7691X0.0006*%
%ADD194R,0.7685X0.0006*%
%ADD195R,0.7679X0.0006*%
%ADD196R,0.7672X0.0006*%
%ADD197R,0.7666X0.0006*%
%ADD198R,0.7660X0.0006*%
%ADD199R,0.1600X0.0006*%
%ADD200R,0.1524X0.0006*%
%ADD201R,0.1436X0.0006*%
%ADD202R,0.1417X0.0006*%
%ADD203R,0.1398X0.0006*%
%ADD204R,0.1380X0.0006*%
%ADD205R,0.1354X0.0006*%
%ADD206R,0.1323X0.0006*%
%ADD207R,0.1260X0.0006*%
%ADD208C,0.0080*%
%ADD209C,0.0040*%
%ADD210C,0.0030*%
%ADD211C,0.0100*%
%ADD212C,0.0120*%
%ADD213C,0.0050*%
%ADD214C,0.0020*%
%ADD215R,0.0300X0.0800*%
%ADD216C,0.0060*%
%ADD217C,0.0010*%
D10*
X023373Y020219D02*
X020223Y023368D01*
D11*
X018840Y004095D03*
X017863Y003824D03*
X017863Y003818D03*
X017441Y004076D03*
X017441Y004083D03*
X016635Y003824D03*
X016635Y003818D03*
X014317Y004076D03*
X014317Y004083D03*
D12*
X013885Y004782D03*
X013885Y004788D03*
X015491Y003824D03*
X015662Y004070D03*
X015662Y004076D03*
X015662Y004083D03*
X015863Y004561D03*
X015863Y004568D03*
X016714Y004127D03*
X016783Y004083D03*
X017942Y004127D03*
X018011Y004083D03*
X018748Y004637D03*
X019006Y004127D03*
X019000Y004120D03*
X019296Y004171D03*
X019296Y004177D03*
X019384Y004083D03*
X019573Y004580D03*
X019391Y004643D03*
X019378Y004637D03*
X019365Y004631D03*
X019359Y004624D03*
D13*
X019321Y004498D03*
X019328Y004486D03*
X019542Y004631D03*
X019599Y004227D03*
X019599Y004221D03*
X019599Y004215D03*
X019321Y004108D03*
X019000Y004530D03*
X018994Y004549D03*
X018988Y004555D03*
X018988Y004561D03*
X018641Y004536D03*
X018635Y004530D03*
X018635Y004523D03*
X018200Y004108D03*
X016972Y004108D03*
X015876Y004618D03*
X015668Y004146D03*
X015491Y003831D03*
X013860Y004700D03*
D14*
X014736Y004089D03*
X015126Y004089D03*
X016638Y003831D03*
X017866Y003831D03*
D15*
X017873Y004177D03*
X017873Y004183D03*
X017873Y004190D03*
X017873Y004196D03*
X017873Y004511D03*
X017873Y004517D03*
X017854Y004662D03*
X018257Y004561D03*
X018263Y004555D03*
X018269Y004542D03*
X018276Y004536D03*
X018276Y004530D03*
X018282Y004523D03*
X018282Y004517D03*
X018288Y004511D03*
X018288Y004505D03*
X018295Y004492D03*
X018301Y004473D03*
X018307Y004448D03*
X018314Y004416D03*
X018314Y004322D03*
X018314Y004316D03*
X018314Y004309D03*
X018314Y004303D03*
X018307Y004284D03*
X018307Y004278D03*
X018307Y004271D03*
X018301Y004265D03*
X018301Y004259D03*
X018301Y004253D03*
X018295Y004240D03*
X018295Y004234D03*
X018288Y004221D03*
X018282Y004209D03*
X018276Y004196D03*
X018603Y004366D03*
X018603Y004372D03*
X018603Y004379D03*
X018603Y004385D03*
X018603Y004391D03*
X018603Y004397D03*
X018603Y004404D03*
X018603Y004410D03*
X018603Y004416D03*
X018603Y004423D03*
X018610Y004429D03*
X018610Y004435D03*
X018610Y004442D03*
X019340Y004467D03*
X019347Y004460D03*
X019529Y004643D03*
X019586Y004265D03*
X017444Y004158D03*
X017444Y004152D03*
X017444Y004146D03*
X017079Y004271D03*
X017079Y004278D03*
X017079Y004284D03*
X017073Y004265D03*
X017073Y004259D03*
X017073Y004253D03*
X017066Y004240D03*
X017066Y004234D03*
X017060Y004221D03*
X017054Y004209D03*
X017047Y004196D03*
X017085Y004303D03*
X017085Y004309D03*
X017085Y004316D03*
X017085Y004322D03*
X017085Y004416D03*
X017079Y004448D03*
X017073Y004473D03*
X017066Y004492D03*
X017060Y004505D03*
X017060Y004511D03*
X017054Y004517D03*
X017054Y004523D03*
X017047Y004530D03*
X017047Y004536D03*
X017041Y004542D03*
X017035Y004555D03*
X017028Y004561D03*
X017438Y004568D03*
X017438Y004574D03*
X017438Y004580D03*
X017444Y004983D03*
X016625Y004662D03*
X016644Y004517D03*
X016644Y004511D03*
X016644Y004196D03*
X016644Y004190D03*
X016644Y004183D03*
X016644Y004177D03*
X015668Y004177D03*
X015599Y004334D03*
X015586Y004366D03*
X015573Y004397D03*
X015567Y004410D03*
X015567Y004416D03*
X015561Y004429D03*
X015554Y004442D03*
X015554Y004448D03*
X015548Y004460D03*
X015548Y004467D03*
X015542Y004473D03*
X015542Y004479D03*
X015536Y004492D03*
X015536Y004498D03*
X015529Y004505D03*
X015529Y004511D03*
X015529Y004517D03*
X015523Y004523D03*
X015523Y004530D03*
X015517Y004542D03*
X015069Y004618D03*
X015057Y004624D03*
X014742Y004530D03*
X014736Y004171D03*
X014736Y004164D03*
X014736Y004158D03*
X014736Y004152D03*
X014736Y004146D03*
X015126Y004146D03*
X015126Y004152D03*
X015126Y004158D03*
X015126Y004164D03*
X015126Y004171D03*
X015491Y003837D03*
X014320Y004146D03*
X014320Y004152D03*
X014320Y004158D03*
X014314Y004568D03*
X014314Y004574D03*
X014314Y004580D03*
X014320Y004983D03*
X013847Y004675D03*
X013860Y004152D03*
X013860Y004146D03*
X013860Y004139D03*
D16*
X014988Y004637D03*
X016638Y003837D03*
X017866Y003837D03*
X019441Y004391D03*
X019460Y004379D03*
X019466Y004372D03*
D17*
X018833Y004649D03*
X018613Y004290D03*
X018619Y004265D03*
X018625Y004246D03*
X018632Y004234D03*
X018632Y004227D03*
X018638Y004221D03*
X018638Y004215D03*
X018644Y004209D03*
X018651Y004196D03*
X018657Y004190D03*
X018669Y004171D03*
X017882Y004146D03*
X017882Y004139D03*
X017863Y003875D03*
X017863Y003868D03*
X017441Y004127D03*
X017428Y004599D03*
X017876Y004561D03*
X017876Y004555D03*
X016647Y004555D03*
X016647Y004561D03*
X016654Y004146D03*
X016654Y004139D03*
X016635Y003875D03*
X016635Y003868D03*
X015495Y003843D03*
X015501Y004593D03*
X015501Y004599D03*
X014991Y004649D03*
X014745Y004561D03*
X014720Y004599D03*
X014304Y004599D03*
X014317Y004127D03*
X013945Y004070D03*
X013888Y004101D03*
X013882Y004108D03*
X014732Y004127D03*
D18*
X014739Y004101D03*
X015129Y004101D03*
X015507Y003887D03*
X016635Y003843D03*
X017863Y003843D03*
X018758Y004108D03*
X019526Y004328D03*
D19*
X019369Y004442D03*
X018701Y004139D03*
X018695Y004146D03*
X018688Y004152D03*
X017863Y003862D03*
X017876Y004568D03*
X017844Y004624D03*
X017422Y004612D03*
X016647Y004568D03*
X016616Y004624D03*
X016635Y003862D03*
X015495Y003849D03*
X015501Y004605D03*
X014745Y004574D03*
X014714Y004612D03*
X014298Y004612D03*
X013901Y004095D03*
D20*
X014320Y004108D03*
X014736Y004108D03*
X015126Y004108D03*
X015498Y003862D03*
X014704Y004618D03*
X014288Y004618D03*
X016600Y004637D03*
X016600Y004656D03*
X016638Y003849D03*
X017444Y004108D03*
X017866Y003849D03*
X017828Y004637D03*
X017828Y004656D03*
X017413Y004618D03*
X018729Y004120D03*
X018843Y004070D03*
X019384Y004429D03*
X019542Y004316D03*
D21*
X019551Y004309D03*
X019375Y004435D03*
X018720Y004127D03*
X017882Y004586D03*
X017416Y004637D03*
X016654Y004586D03*
X015879Y004637D03*
X015501Y004618D03*
X015495Y003856D03*
X014291Y004637D03*
D22*
X014704Y004637D03*
X014736Y004114D03*
X015126Y004114D03*
X015498Y004612D03*
X016613Y004631D03*
X016651Y004580D03*
X016651Y004574D03*
X016871Y004649D03*
X017444Y004114D03*
X017866Y003856D03*
X017879Y004574D03*
X017879Y004580D03*
X017841Y004631D03*
X018099Y004649D03*
X018710Y004133D03*
X019554Y004303D03*
X016638Y003856D03*
X014320Y004114D03*
D23*
X015501Y003868D03*
X015501Y004624D03*
X016654Y004593D03*
X017882Y004593D03*
X018745Y004114D03*
X019394Y004423D03*
X019532Y004322D03*
D24*
X019403Y004416D03*
X018093Y004076D03*
X017885Y004599D03*
X017444Y004101D03*
X016865Y004076D03*
X016657Y004599D03*
X015504Y003881D03*
X015504Y003875D03*
X014988Y004643D03*
X014320Y004101D03*
X013948Y004076D03*
D25*
X013869Y004120D03*
X013869Y004127D03*
X013863Y004133D03*
X014317Y004139D03*
X014310Y004586D03*
X014317Y004946D03*
X014317Y004952D03*
X014317Y004958D03*
X014317Y004964D03*
X014317Y004971D03*
X014317Y004977D03*
X013844Y004668D03*
X014726Y004586D03*
X014726Y004580D03*
X014739Y004542D03*
X014739Y004536D03*
X015507Y004568D03*
X015507Y004574D03*
X015514Y004561D03*
X015514Y004555D03*
X015514Y004549D03*
X015520Y004536D03*
X015665Y004190D03*
X015665Y004183D03*
X016647Y004171D03*
X016647Y004164D03*
X016635Y003894D03*
X016635Y003887D03*
X016635Y003881D03*
X017082Y004290D03*
X017082Y004297D03*
X017088Y004328D03*
X017088Y004334D03*
X017088Y004341D03*
X017088Y004347D03*
X017088Y004353D03*
X017088Y004360D03*
X017088Y004366D03*
X017088Y004372D03*
X017088Y004379D03*
X017088Y004385D03*
X017088Y004391D03*
X017088Y004397D03*
X017088Y004404D03*
X017088Y004410D03*
X017082Y004423D03*
X017082Y004429D03*
X017082Y004435D03*
X017082Y004442D03*
X017076Y004454D03*
X017076Y004460D03*
X017076Y004467D03*
X017069Y004479D03*
X017069Y004486D03*
X017063Y004498D03*
X017435Y004586D03*
X017441Y004946D03*
X017441Y004952D03*
X017441Y004958D03*
X017441Y004964D03*
X017441Y004971D03*
X017441Y004977D03*
X017869Y004530D03*
X017869Y004523D03*
X017876Y004171D03*
X017876Y004164D03*
X017863Y003894D03*
X017863Y003887D03*
X017863Y003881D03*
X017441Y004139D03*
X016641Y004523D03*
X016641Y004530D03*
X018291Y004498D03*
X018298Y004486D03*
X018298Y004479D03*
X018304Y004467D03*
X018304Y004460D03*
X018304Y004454D03*
X018310Y004442D03*
X018310Y004435D03*
X018310Y004429D03*
X018310Y004423D03*
X018317Y004410D03*
X018317Y004404D03*
X018317Y004397D03*
X018317Y004391D03*
X018317Y004385D03*
X018317Y004379D03*
X018317Y004372D03*
X018317Y004366D03*
X018317Y004360D03*
X018317Y004353D03*
X018317Y004347D03*
X018317Y004341D03*
X018317Y004334D03*
X018317Y004328D03*
X018310Y004297D03*
X018310Y004290D03*
X018606Y004322D03*
X018606Y004328D03*
X018606Y004334D03*
X018606Y004341D03*
X018606Y004347D03*
X018606Y004353D03*
X018606Y004360D03*
X019463Y004070D03*
X019583Y004271D03*
X019577Y004278D03*
D26*
X019595Y004240D03*
X019595Y004234D03*
X019325Y004101D03*
X019331Y004479D03*
X019539Y004637D03*
X019003Y004523D03*
X019003Y004517D03*
X018997Y004536D03*
X018997Y004542D03*
X019010Y004492D03*
X019010Y004486D03*
X018632Y004517D03*
X018625Y004505D03*
X018228Y004133D03*
X018222Y004127D03*
X018216Y004120D03*
X018210Y004114D03*
X018191Y004101D03*
X018178Y004095D03*
X018165Y004089D03*
X018153Y004083D03*
X017441Y004927D03*
X017441Y005002D03*
X017000Y004133D03*
X016994Y004127D03*
X016988Y004120D03*
X016981Y004114D03*
X016962Y004101D03*
X016950Y004095D03*
X016937Y004089D03*
X016925Y004083D03*
X015665Y004152D03*
X015665Y004158D03*
X015469Y003894D03*
X014317Y004927D03*
X014317Y005002D03*
X013857Y004694D03*
D27*
X013888Y004794D03*
X013888Y004801D03*
X013888Y004807D03*
X013888Y004813D03*
X014317Y004908D03*
X014317Y005021D03*
X014884Y004631D03*
X015658Y004064D03*
X015658Y004057D03*
X015595Y003906D03*
X015589Y003900D03*
X015583Y003894D03*
X015854Y004530D03*
X015860Y004542D03*
X015860Y004549D03*
X015860Y004555D03*
X016723Y004120D03*
X016729Y004114D03*
X016736Y004108D03*
X016767Y004089D03*
X017441Y004908D03*
X017441Y005021D03*
X017951Y004120D03*
X017958Y004114D03*
X017964Y004108D03*
X017995Y004089D03*
X019016Y004133D03*
X019022Y004139D03*
X019293Y004183D03*
X019293Y004190D03*
X019400Y004076D03*
X019577Y004568D03*
X019577Y004574D03*
D28*
X019318Y004523D03*
X018953Y004605D03*
X018947Y004612D03*
X018940Y004618D03*
X018928Y004624D03*
X018890Y004643D03*
X018676Y004586D03*
X018669Y004580D03*
X018846Y004064D03*
X019312Y004127D03*
X019589Y004146D03*
X019595Y004158D03*
X019595Y004164D03*
X019595Y004171D03*
X018102Y004656D03*
X016874Y004656D03*
X015873Y004605D03*
X015665Y004127D03*
X015665Y004120D03*
X015463Y003900D03*
X013869Y004719D03*
X013869Y004725D03*
D29*
X013851Y004681D03*
X014317Y004643D03*
X014317Y004561D03*
X014317Y004555D03*
X014317Y004549D03*
X014317Y004542D03*
X014317Y004933D03*
X014317Y004939D03*
X014317Y004990D03*
X014726Y004643D03*
X014739Y004523D03*
X014739Y004517D03*
X014739Y004511D03*
X014739Y004505D03*
X014739Y004498D03*
X014739Y004492D03*
X014739Y004486D03*
X015079Y004612D03*
X015085Y004605D03*
X015091Y004599D03*
X015098Y004593D03*
X015104Y004586D03*
X015110Y004574D03*
X015117Y004561D03*
X015117Y004555D03*
X015123Y004542D03*
X015123Y004536D03*
X015123Y004530D03*
X015123Y004523D03*
X015123Y004517D03*
X015539Y004486D03*
X015551Y004454D03*
X015558Y004435D03*
X015564Y004423D03*
X015570Y004404D03*
X015577Y004391D03*
X015577Y004385D03*
X015583Y004379D03*
X015583Y004372D03*
X015589Y004360D03*
X015589Y004353D03*
X015595Y004347D03*
X015595Y004341D03*
X015602Y004328D03*
X015602Y004322D03*
X015608Y004316D03*
X015608Y004309D03*
X015608Y004303D03*
X015614Y004297D03*
X015614Y004290D03*
X015621Y004284D03*
X015621Y004278D03*
X015621Y004271D03*
X015627Y004265D03*
X015627Y004259D03*
X015633Y004253D03*
X015633Y004246D03*
X015640Y004234D03*
X015640Y004227D03*
X015646Y004215D03*
X015652Y004202D03*
X015652Y004196D03*
X015665Y004171D03*
X015665Y004164D03*
X015129Y004177D03*
X014732Y004177D03*
X014317Y004177D03*
X014317Y004171D03*
X014317Y004164D03*
X013857Y004164D03*
X013857Y004158D03*
X013857Y004171D03*
X016641Y004202D03*
X016641Y004209D03*
X016641Y004215D03*
X016641Y004221D03*
X016641Y004227D03*
X016641Y004234D03*
X016641Y004240D03*
X016641Y004467D03*
X016641Y004473D03*
X016641Y004479D03*
X016641Y004486D03*
X016641Y004492D03*
X016641Y004498D03*
X016641Y004505D03*
X017006Y004586D03*
X017013Y004580D03*
X017019Y004574D03*
X017025Y004568D03*
X017038Y004549D03*
X017069Y004246D03*
X017063Y004227D03*
X017057Y004215D03*
X017051Y004202D03*
X017044Y004190D03*
X017038Y004183D03*
X017038Y004177D03*
X017032Y004171D03*
X017019Y004152D03*
X017013Y004146D03*
X017441Y004164D03*
X017441Y004171D03*
X017441Y004177D03*
X017441Y004542D03*
X017441Y004549D03*
X017441Y004555D03*
X017441Y004561D03*
X017441Y004643D03*
X017441Y004933D03*
X017441Y004939D03*
X017441Y004990D03*
X017869Y004505D03*
X017869Y004498D03*
X017869Y004492D03*
X017869Y004486D03*
X017869Y004479D03*
X017869Y004473D03*
X017869Y004467D03*
X017869Y004240D03*
X017869Y004234D03*
X017869Y004227D03*
X017869Y004221D03*
X017869Y004215D03*
X017869Y004209D03*
X017869Y004202D03*
X017863Y003963D03*
X017863Y003957D03*
X017863Y003950D03*
X017863Y003944D03*
X017863Y003938D03*
X017863Y003931D03*
X017863Y003925D03*
X017863Y003919D03*
X017863Y003912D03*
X017863Y003906D03*
X017863Y003900D03*
X018241Y004146D03*
X018247Y004152D03*
X018260Y004171D03*
X018266Y004177D03*
X018266Y004183D03*
X018273Y004190D03*
X018279Y004202D03*
X018285Y004215D03*
X018291Y004227D03*
X018298Y004246D03*
X018619Y004479D03*
X018619Y004486D03*
X018266Y004549D03*
X018254Y004568D03*
X018247Y004574D03*
X018241Y004580D03*
X018235Y004586D03*
X019589Y004259D03*
X016635Y003963D03*
X016635Y003957D03*
X016635Y003950D03*
X016635Y003944D03*
X016635Y003938D03*
X016635Y003931D03*
X016635Y003925D03*
X016635Y003919D03*
X016635Y003912D03*
X016635Y003906D03*
X016635Y003900D03*
D30*
X016745Y004101D03*
X016758Y004095D03*
X015838Y004486D03*
X015844Y004505D03*
X015851Y004517D03*
X015851Y004523D03*
X015857Y004536D03*
X015825Y004454D03*
X015813Y004423D03*
X015655Y004051D03*
X015655Y004045D03*
X015655Y004038D03*
X015649Y004026D03*
X015643Y004007D03*
X015630Y003975D03*
X015605Y003919D03*
X015599Y003912D03*
X015460Y003906D03*
X014868Y004624D03*
X014055Y004095D03*
X013891Y004820D03*
X013891Y004826D03*
X017973Y004101D03*
X017986Y004095D03*
X019032Y004146D03*
X019038Y004158D03*
X019044Y004164D03*
X019051Y004177D03*
X019290Y004196D03*
X019290Y004202D03*
X019580Y004555D03*
X019580Y004561D03*
D31*
X019583Y004549D03*
X019583Y004542D03*
X019583Y004536D03*
X019287Y004221D03*
X019287Y004215D03*
X019287Y004209D03*
X019287Y004089D03*
X019060Y004196D03*
X019060Y004202D03*
X019066Y004215D03*
X019054Y004183D03*
X019047Y004171D03*
X019035Y004152D03*
X015847Y004511D03*
X015841Y004498D03*
X015841Y004492D03*
X015835Y004479D03*
X015835Y004473D03*
X015828Y004467D03*
X015828Y004460D03*
X015822Y004448D03*
X015822Y004442D03*
X015816Y004435D03*
X015816Y004429D03*
X015810Y004416D03*
X015810Y004410D03*
X015803Y004404D03*
X015803Y004397D03*
X015797Y004391D03*
X015797Y004385D03*
X015797Y004379D03*
X015791Y004372D03*
X015791Y004366D03*
X015784Y004360D03*
X015784Y004353D03*
X015784Y004347D03*
X015778Y004341D03*
X015778Y004334D03*
X015772Y004328D03*
X015772Y004322D03*
X015772Y004316D03*
X015765Y004309D03*
X015765Y004303D03*
X015759Y004297D03*
X015759Y004290D03*
X015759Y004284D03*
X015753Y004278D03*
X015753Y004271D03*
X015747Y004265D03*
X015747Y004259D03*
X015740Y004246D03*
X015740Y004240D03*
X015734Y004234D03*
X015734Y004227D03*
X015728Y004215D03*
X015728Y004209D03*
X015721Y004202D03*
X015721Y004196D03*
X015652Y004032D03*
X015646Y004020D03*
X015646Y004013D03*
X015640Y004001D03*
X015640Y003994D03*
X015633Y003988D03*
X015633Y003982D03*
X015627Y003969D03*
X015627Y003963D03*
X015621Y003957D03*
X015621Y003950D03*
X015614Y003944D03*
X015614Y003938D03*
X015608Y003931D03*
X015608Y003925D03*
X014858Y004618D03*
X014846Y004612D03*
X014827Y004599D03*
X014821Y004593D03*
X014814Y004586D03*
X014808Y004580D03*
X014065Y004101D03*
D32*
X013854Y004177D03*
X013854Y004183D03*
X013854Y004190D03*
X013854Y004196D03*
X013854Y004202D03*
X013854Y004209D03*
X013854Y004215D03*
X013854Y004221D03*
X013854Y004227D03*
X013854Y004234D03*
X013854Y004240D03*
X013854Y004246D03*
X013854Y004253D03*
X013854Y004259D03*
X013854Y004265D03*
X013854Y004271D03*
X013854Y004278D03*
X013854Y004284D03*
X013854Y004290D03*
X013854Y004297D03*
X013854Y004303D03*
X013854Y004309D03*
X013854Y004316D03*
X013854Y004322D03*
X013854Y004328D03*
X013854Y004334D03*
X013854Y004341D03*
X013854Y004347D03*
X013854Y004353D03*
X013854Y004360D03*
X013854Y004366D03*
X013854Y004372D03*
X013854Y004379D03*
X013854Y004385D03*
X013854Y004391D03*
X013854Y004397D03*
X013854Y004404D03*
X013854Y004410D03*
X013854Y004416D03*
X013854Y004423D03*
X013854Y004429D03*
X013854Y004435D03*
X013854Y004442D03*
X013854Y004448D03*
X013854Y004454D03*
X013854Y004460D03*
X013854Y004467D03*
X013854Y004473D03*
X013854Y004479D03*
X013854Y004486D03*
X013854Y004492D03*
X013854Y004498D03*
X013854Y004505D03*
X013854Y004511D03*
X013854Y004517D03*
X013854Y004523D03*
X013854Y004530D03*
X013854Y004536D03*
X013854Y004542D03*
X013854Y004549D03*
X013854Y004555D03*
X013854Y004561D03*
X013854Y004568D03*
X013854Y004574D03*
X013854Y004580D03*
X013854Y004586D03*
X013854Y004593D03*
X013854Y004599D03*
X013854Y004605D03*
X013854Y004612D03*
X013854Y004618D03*
X013854Y004624D03*
X013854Y004687D03*
X014320Y004536D03*
X014320Y004530D03*
X014320Y004523D03*
X014320Y004517D03*
X014320Y004511D03*
X014320Y004505D03*
X014320Y004498D03*
X014320Y004492D03*
X014320Y004486D03*
X014320Y004479D03*
X014320Y004473D03*
X014320Y004467D03*
X014320Y004460D03*
X014320Y004454D03*
X014320Y004448D03*
X014320Y004442D03*
X014320Y004435D03*
X014320Y004429D03*
X014320Y004423D03*
X014320Y004416D03*
X014320Y004410D03*
X014320Y004404D03*
X014320Y004397D03*
X014320Y004391D03*
X014320Y004385D03*
X014320Y004379D03*
X014320Y004372D03*
X014320Y004366D03*
X014320Y004360D03*
X014320Y004353D03*
X014320Y004347D03*
X014320Y004341D03*
X014320Y004334D03*
X014320Y004328D03*
X014320Y004322D03*
X014320Y004316D03*
X014320Y004309D03*
X014320Y004303D03*
X014320Y004297D03*
X014320Y004290D03*
X014320Y004284D03*
X014320Y004278D03*
X014320Y004271D03*
X014320Y004265D03*
X014320Y004259D03*
X014320Y004253D03*
X014320Y004246D03*
X014320Y004240D03*
X014320Y004234D03*
X014320Y004227D03*
X014320Y004221D03*
X014320Y004215D03*
X014320Y004209D03*
X014320Y004202D03*
X014320Y004196D03*
X014320Y004190D03*
X014320Y004183D03*
X014736Y004183D03*
X014736Y004190D03*
X014736Y004196D03*
X014736Y004202D03*
X014736Y004209D03*
X014736Y004215D03*
X014736Y004221D03*
X014736Y004227D03*
X014736Y004234D03*
X014736Y004240D03*
X014736Y004246D03*
X014736Y004253D03*
X014736Y004259D03*
X014736Y004265D03*
X014736Y004271D03*
X014736Y004278D03*
X014736Y004284D03*
X014736Y004290D03*
X014736Y004297D03*
X014736Y004303D03*
X014736Y004309D03*
X014736Y004316D03*
X014736Y004322D03*
X014736Y004328D03*
X014736Y004334D03*
X014736Y004341D03*
X014736Y004347D03*
X014736Y004353D03*
X014736Y004360D03*
X014736Y004366D03*
X014736Y004372D03*
X014736Y004379D03*
X014736Y004385D03*
X014736Y004391D03*
X014736Y004397D03*
X014736Y004404D03*
X014736Y004410D03*
X014736Y004416D03*
X014736Y004423D03*
X014736Y004429D03*
X014736Y004435D03*
X014736Y004442D03*
X014736Y004448D03*
X014736Y004454D03*
X014736Y004460D03*
X014736Y004467D03*
X014736Y004473D03*
X014736Y004479D03*
X015107Y004580D03*
X015114Y004568D03*
X015120Y004549D03*
X015126Y004511D03*
X015126Y004505D03*
X015126Y004498D03*
X015126Y004492D03*
X015126Y004486D03*
X015126Y004479D03*
X015126Y004473D03*
X015126Y004467D03*
X015126Y004460D03*
X015126Y004454D03*
X015126Y004448D03*
X015126Y004442D03*
X015126Y004435D03*
X015126Y004429D03*
X015126Y004423D03*
X015126Y004416D03*
X015126Y004410D03*
X015126Y004404D03*
X015126Y004397D03*
X015126Y004391D03*
X015126Y004385D03*
X015126Y004379D03*
X015126Y004372D03*
X015126Y004366D03*
X015126Y004360D03*
X015126Y004353D03*
X015126Y004347D03*
X015126Y004341D03*
X015126Y004334D03*
X015126Y004328D03*
X015126Y004322D03*
X015126Y004316D03*
X015126Y004309D03*
X015126Y004303D03*
X015126Y004297D03*
X015126Y004290D03*
X015126Y004284D03*
X015126Y004278D03*
X015126Y004271D03*
X015126Y004265D03*
X015126Y004259D03*
X015126Y004253D03*
X015126Y004246D03*
X015126Y004240D03*
X015126Y004234D03*
X015126Y004227D03*
X015126Y004221D03*
X015126Y004215D03*
X015126Y004209D03*
X015126Y004202D03*
X015126Y004196D03*
X015126Y004190D03*
X015126Y004183D03*
X015636Y004240D03*
X015643Y004221D03*
X015649Y004209D03*
X015876Y004624D03*
X016638Y004460D03*
X016638Y004454D03*
X016638Y004448D03*
X016638Y004442D03*
X016638Y004435D03*
X016638Y004429D03*
X016638Y004423D03*
X016638Y004416D03*
X016638Y004410D03*
X016638Y004404D03*
X016638Y004397D03*
X016638Y004391D03*
X016638Y004385D03*
X016638Y004379D03*
X016638Y004372D03*
X016638Y004366D03*
X016638Y004360D03*
X016638Y004353D03*
X016638Y004347D03*
X016638Y004341D03*
X016638Y004334D03*
X016638Y004328D03*
X016638Y004322D03*
X016638Y004316D03*
X016638Y004309D03*
X016638Y004303D03*
X016638Y004297D03*
X016638Y004290D03*
X016638Y004284D03*
X016638Y004278D03*
X016638Y004271D03*
X016638Y004265D03*
X016638Y004259D03*
X016638Y004253D03*
X016638Y004246D03*
X016638Y004127D03*
X016638Y004120D03*
X016638Y004114D03*
X016638Y004108D03*
X016638Y004101D03*
X016638Y004095D03*
X016638Y004089D03*
X016638Y004083D03*
X016638Y004076D03*
X016638Y004070D03*
X016638Y004064D03*
X016638Y004057D03*
X016638Y004051D03*
X016638Y004045D03*
X016638Y004038D03*
X016638Y004032D03*
X016638Y004026D03*
X016638Y004020D03*
X016638Y004013D03*
X016638Y004007D03*
X016638Y004001D03*
X016638Y003994D03*
X016638Y003988D03*
X016638Y003982D03*
X016638Y003975D03*
X016638Y003969D03*
X017010Y004139D03*
X017022Y004158D03*
X017028Y004164D03*
X017444Y004183D03*
X017444Y004190D03*
X017444Y004196D03*
X017444Y004202D03*
X017444Y004209D03*
X017444Y004215D03*
X017444Y004221D03*
X017444Y004227D03*
X017444Y004234D03*
X017444Y004240D03*
X017444Y004246D03*
X017444Y004253D03*
X017444Y004259D03*
X017444Y004265D03*
X017444Y004271D03*
X017444Y004278D03*
X017444Y004284D03*
X017444Y004290D03*
X017444Y004297D03*
X017444Y004303D03*
X017444Y004309D03*
X017444Y004316D03*
X017444Y004322D03*
X017444Y004328D03*
X017444Y004334D03*
X017444Y004341D03*
X017444Y004347D03*
X017444Y004353D03*
X017444Y004360D03*
X017444Y004366D03*
X017444Y004372D03*
X017444Y004379D03*
X017444Y004385D03*
X017444Y004391D03*
X017444Y004397D03*
X017444Y004404D03*
X017444Y004410D03*
X017444Y004416D03*
X017444Y004423D03*
X017444Y004429D03*
X017444Y004435D03*
X017444Y004442D03*
X017444Y004448D03*
X017444Y004454D03*
X017444Y004460D03*
X017444Y004467D03*
X017444Y004473D03*
X017444Y004479D03*
X017444Y004486D03*
X017444Y004492D03*
X017444Y004498D03*
X017444Y004505D03*
X017444Y004511D03*
X017444Y004517D03*
X017444Y004523D03*
X017444Y004530D03*
X017444Y004536D03*
X017866Y004460D03*
X017866Y004454D03*
X017866Y004448D03*
X017866Y004442D03*
X017866Y004435D03*
X017866Y004429D03*
X017866Y004423D03*
X017866Y004416D03*
X017866Y004410D03*
X017866Y004404D03*
X017866Y004397D03*
X017866Y004391D03*
X017866Y004385D03*
X017866Y004379D03*
X017866Y004372D03*
X017866Y004366D03*
X017866Y004360D03*
X017866Y004353D03*
X017866Y004347D03*
X017866Y004341D03*
X017866Y004334D03*
X017866Y004328D03*
X017866Y004322D03*
X017866Y004316D03*
X017866Y004309D03*
X017866Y004303D03*
X017866Y004297D03*
X017866Y004290D03*
X017866Y004284D03*
X017866Y004278D03*
X017866Y004271D03*
X017866Y004265D03*
X017866Y004259D03*
X017866Y004253D03*
X017866Y004246D03*
X017866Y004127D03*
X017866Y004120D03*
X017866Y004114D03*
X017866Y004108D03*
X017866Y004101D03*
X017866Y004095D03*
X017866Y004089D03*
X017866Y004083D03*
X017866Y004076D03*
X017866Y004070D03*
X017866Y004064D03*
X017866Y004057D03*
X017866Y004051D03*
X017866Y004045D03*
X017866Y004038D03*
X017866Y004032D03*
X017866Y004026D03*
X017866Y004020D03*
X017866Y004013D03*
X017866Y004007D03*
X017866Y004001D03*
X017866Y003994D03*
X017866Y003988D03*
X017866Y003982D03*
X017866Y003975D03*
X017866Y003969D03*
X018238Y004139D03*
X018251Y004158D03*
X018257Y004164D03*
X018616Y004473D03*
X018622Y004492D03*
X018622Y004498D03*
X018628Y004511D03*
X018232Y004593D03*
X018225Y004599D03*
X018219Y004605D03*
X018206Y004612D03*
X018200Y004618D03*
X018188Y004624D03*
X018175Y004631D03*
X018162Y004637D03*
X017444Y004996D03*
X017003Y004593D03*
X016997Y004599D03*
X016991Y004605D03*
X016978Y004612D03*
X016972Y004618D03*
X016959Y004624D03*
X016947Y004631D03*
X016934Y004637D03*
X019006Y004511D03*
X019006Y004505D03*
X019006Y004498D03*
X019013Y004479D03*
X019013Y004473D03*
X019334Y004473D03*
X019592Y004253D03*
X019592Y004246D03*
X019328Y004095D03*
X014320Y004996D03*
D33*
X013873Y004731D03*
X013948Y004064D03*
X014988Y004656D03*
X016651Y004668D03*
X016732Y004618D03*
X016745Y004624D03*
X016758Y004631D03*
X016777Y004637D03*
X016865Y004064D03*
X017879Y004668D03*
X017961Y004618D03*
X017973Y004624D03*
X017986Y004631D03*
X018005Y004637D03*
X018093Y004064D03*
X018685Y004593D03*
X018691Y004599D03*
X018698Y004605D03*
X018906Y004637D03*
X018918Y004631D03*
X019315Y004549D03*
X019315Y004542D03*
X019315Y004536D03*
X019315Y004530D03*
X019561Y004612D03*
X019592Y004152D03*
X019586Y004139D03*
X019309Y004133D03*
X018975Y004108D03*
D34*
X019306Y004139D03*
X019306Y004146D03*
X019463Y004064D03*
X019570Y004114D03*
X019577Y004127D03*
X019583Y004133D03*
X019564Y004605D03*
X019325Y004580D03*
X019318Y004568D03*
X019318Y004561D03*
X019318Y004555D03*
X018833Y004656D03*
X018714Y004618D03*
X018707Y004612D03*
X017466Y004649D03*
X017441Y004914D03*
X017441Y005015D03*
X015873Y004599D03*
X015873Y004593D03*
X015665Y004114D03*
X015665Y004108D03*
X015665Y004101D03*
X014751Y004649D03*
X014342Y004649D03*
X014317Y004914D03*
X014317Y005015D03*
X013876Y004744D03*
X013876Y004738D03*
D35*
X013835Y004656D03*
X014301Y004605D03*
X014717Y004605D03*
X014742Y004568D03*
X014736Y004120D03*
X015126Y004120D03*
X015126Y004127D03*
X014320Y004120D03*
X016657Y004133D03*
X016865Y004070D03*
X017444Y004120D03*
X017885Y004133D03*
X018093Y004070D03*
X018647Y004202D03*
X018660Y004183D03*
X018666Y004177D03*
X018673Y004164D03*
X018679Y004158D03*
X019359Y004448D03*
X019561Y004297D03*
X019567Y004290D03*
X017847Y004618D03*
X017425Y004605D03*
X016619Y004618D03*
D36*
X015126Y004083D03*
X015126Y004076D03*
X014736Y004076D03*
X014736Y004083D03*
D37*
X014739Y004095D03*
X015129Y004095D03*
X014323Y004095D03*
X017447Y004095D03*
X018840Y004076D03*
X019432Y004397D03*
X019451Y004385D03*
X019476Y004366D03*
X019482Y004360D03*
D38*
X019589Y004505D03*
X019280Y004259D03*
X019280Y004253D03*
X019280Y004246D03*
X019280Y004076D03*
X017901Y004675D03*
X017491Y004656D03*
X016673Y004675D03*
X014651Y006161D03*
X014247Y007623D03*
X014367Y004656D03*
X014102Y004139D03*
D39*
X013879Y004750D03*
X013879Y004757D03*
X015662Y004095D03*
X015869Y004586D03*
X018723Y004624D03*
X018736Y004631D03*
X018988Y004114D03*
X019302Y004152D03*
X019510Y004076D03*
X019529Y004083D03*
X019548Y004095D03*
X019554Y004101D03*
X019561Y004108D03*
X019573Y004120D03*
X019567Y004593D03*
X019567Y004599D03*
X019328Y004586D03*
X019321Y004574D03*
D40*
X019422Y004404D03*
X019491Y004353D03*
X017885Y004612D03*
X017810Y004643D03*
X017810Y004649D03*
X016657Y004612D03*
X016581Y004643D03*
X016581Y004649D03*
X013948Y004083D03*
D41*
X014323Y004089D03*
X017447Y004089D03*
X018840Y004083D03*
D42*
X019057Y004190D03*
X019063Y004209D03*
X019069Y004221D03*
X019284Y004227D03*
X019284Y004234D03*
X019284Y004240D03*
X019284Y004083D03*
X019586Y004511D03*
X019586Y004517D03*
X019586Y004523D03*
X019586Y004530D03*
X015743Y004253D03*
X015731Y004221D03*
X014836Y004605D03*
X014773Y004656D03*
X014099Y004133D03*
X014093Y004127D03*
X014087Y004120D03*
X014080Y004114D03*
X014074Y004108D03*
D43*
X013951Y004089D03*
X015501Y004637D03*
D44*
X015866Y004580D03*
X015866Y004574D03*
X015665Y004089D03*
X013882Y004763D03*
X013882Y004769D03*
X013882Y004775D03*
X018764Y004643D03*
X019331Y004593D03*
X019337Y004599D03*
X019337Y004605D03*
X019343Y004612D03*
X019350Y004618D03*
X019570Y004586D03*
X019539Y004089D03*
X019369Y004089D03*
X019299Y004158D03*
X019299Y004164D03*
D45*
X018840Y004089D03*
D46*
X018840Y004101D03*
D47*
X018628Y004240D03*
X018622Y004253D03*
X018622Y004259D03*
X018616Y004271D03*
X018616Y004278D03*
X018616Y004284D03*
X018610Y004297D03*
X018610Y004303D03*
X018610Y004309D03*
X018610Y004316D03*
X017879Y004158D03*
X017879Y004152D03*
X017873Y004536D03*
X017873Y004542D03*
X017873Y004549D03*
X017432Y004593D03*
X017444Y004133D03*
X016651Y004152D03*
X016651Y004158D03*
X016644Y004536D03*
X016644Y004542D03*
X016644Y004549D03*
X015876Y004631D03*
X015504Y004586D03*
X015504Y004580D03*
X015044Y004631D03*
X014742Y004555D03*
X014742Y004549D03*
X014723Y004593D03*
X014307Y004593D03*
X014320Y004133D03*
X014736Y004133D03*
X014736Y004139D03*
X015126Y004139D03*
X015126Y004133D03*
X013879Y004114D03*
X013841Y004662D03*
X019353Y004454D03*
X019573Y004284D03*
D48*
X019602Y004209D03*
X019602Y004202D03*
X019602Y004196D03*
X019318Y004114D03*
X019325Y004492D03*
X019318Y004505D03*
X018984Y004568D03*
X018978Y004574D03*
X018978Y004580D03*
X018972Y004586D03*
X018965Y004593D03*
X018959Y004599D03*
X018657Y004561D03*
X018651Y004555D03*
X018651Y004549D03*
X018644Y004542D03*
X017441Y004920D03*
X017441Y005009D03*
X015665Y004139D03*
X015665Y004133D03*
X014317Y004920D03*
X014317Y005009D03*
X013863Y004706D03*
D49*
X013866Y004712D03*
X015876Y004612D03*
X018660Y004568D03*
X018666Y004574D03*
X019315Y004517D03*
X019315Y004511D03*
X019454Y004656D03*
X019548Y004624D03*
X019554Y004618D03*
X019599Y004190D03*
X019599Y004183D03*
X019599Y004177D03*
X019315Y004120D03*
D50*
X019517Y004334D03*
X019510Y004341D03*
X017885Y004605D03*
X016657Y004605D03*
X015876Y004643D03*
X015876Y004649D03*
X015498Y004631D03*
X014685Y004631D03*
D51*
X014688Y004624D03*
X014273Y004624D03*
X014273Y004631D03*
X016868Y004643D03*
X017397Y004631D03*
X017397Y004624D03*
X018096Y004643D03*
X019413Y004410D03*
X019501Y004347D03*
X019488Y004649D03*
D52*
X018808Y004448D03*
D53*
X018811Y004454D03*
X018811Y004460D03*
X018811Y004467D03*
D54*
X013901Y004631D03*
X013901Y004637D03*
D55*
X013910Y004643D03*
D56*
X015504Y004643D03*
X015504Y004649D03*
D57*
X013917Y004649D03*
D58*
X015095Y005683D03*
X015095Y005689D03*
X015095Y005695D03*
X015095Y005701D03*
X015095Y005708D03*
X015095Y005714D03*
X015095Y005720D03*
X015095Y005727D03*
X015095Y005733D03*
X015095Y005739D03*
X015095Y005746D03*
X015095Y005752D03*
X015095Y005758D03*
X015095Y005764D03*
X015095Y005771D03*
X015095Y005777D03*
X015095Y005783D03*
X015095Y005790D03*
X015095Y005796D03*
X015095Y005802D03*
X015095Y005809D03*
X015095Y005815D03*
X015095Y005821D03*
X015095Y005827D03*
X015095Y005834D03*
X015095Y005840D03*
X015095Y005846D03*
X015095Y005853D03*
X015095Y005859D03*
X015095Y005865D03*
X015095Y005871D03*
X015095Y005878D03*
X015095Y005884D03*
X015095Y005890D03*
X015095Y005897D03*
X015095Y005903D03*
X015095Y005909D03*
X015095Y005916D03*
X015095Y005922D03*
X015095Y005928D03*
X015095Y005934D03*
X015095Y005941D03*
X015095Y005947D03*
X015095Y005953D03*
X015095Y005960D03*
X015095Y005966D03*
X015095Y005972D03*
X015095Y005979D03*
X015095Y005985D03*
X015095Y005991D03*
X015095Y005997D03*
X015095Y006004D03*
X015095Y006010D03*
X015095Y006016D03*
X015095Y006023D03*
X015095Y006029D03*
X015095Y006035D03*
X015095Y006042D03*
X015095Y006048D03*
X015095Y006054D03*
X015095Y006060D03*
X015095Y006067D03*
X015095Y006073D03*
X015095Y006079D03*
X015095Y006086D03*
X015095Y006092D03*
X015095Y006098D03*
X015095Y006105D03*
X015095Y006111D03*
X015095Y006117D03*
X015095Y006123D03*
X015095Y006130D03*
X015095Y006136D03*
X015095Y006142D03*
X015095Y006149D03*
X015095Y006155D03*
X013803Y007144D03*
X013803Y007150D03*
X013803Y007157D03*
X013803Y007163D03*
X013803Y007169D03*
X013803Y007175D03*
X013803Y007182D03*
X013803Y007188D03*
X013803Y007194D03*
X013803Y007201D03*
X013803Y007207D03*
X013803Y007213D03*
X013803Y007220D03*
X013803Y007226D03*
X013803Y007232D03*
X013803Y007238D03*
X013803Y007245D03*
X013803Y007251D03*
X013803Y007257D03*
X013803Y007264D03*
X013803Y007270D03*
X013803Y007276D03*
X013803Y007283D03*
X013803Y007289D03*
X013803Y007295D03*
X013803Y007301D03*
X013803Y007308D03*
X013803Y007314D03*
X013803Y007320D03*
X013803Y007327D03*
X013803Y007333D03*
X013803Y007339D03*
X013803Y007346D03*
X013803Y007352D03*
X013803Y007358D03*
X013803Y007364D03*
X013803Y007371D03*
X013803Y007377D03*
X013803Y007383D03*
X013803Y007390D03*
X013803Y007396D03*
X013803Y007402D03*
X013803Y007409D03*
X013803Y007415D03*
X013803Y007421D03*
X013803Y007427D03*
X013803Y007434D03*
X013803Y007440D03*
X013803Y007446D03*
X013803Y007453D03*
X013803Y007459D03*
X013803Y007465D03*
X013803Y007471D03*
X013803Y007478D03*
X013803Y007484D03*
X013803Y007490D03*
X013803Y007497D03*
X013803Y007503D03*
X013803Y007509D03*
X013803Y007516D03*
X013803Y007522D03*
X013803Y007528D03*
X013803Y007534D03*
X013803Y007541D03*
X013803Y007547D03*
X013803Y007553D03*
X013803Y007560D03*
X013803Y007566D03*
X013803Y007572D03*
X013803Y007579D03*
X013803Y007585D03*
X013803Y007591D03*
X013803Y007597D03*
X013803Y007604D03*
X013803Y007610D03*
X013803Y007616D03*
D59*
X013803Y007629D03*
X013803Y007635D03*
X013803Y007642D03*
X013803Y007648D03*
X013803Y007654D03*
X013803Y007660D03*
X013803Y007667D03*
X013803Y007673D03*
X013803Y007679D03*
X013803Y007686D03*
X013803Y007692D03*
X013803Y007698D03*
X013803Y007705D03*
X013803Y007711D03*
X013803Y007717D03*
X013803Y007723D03*
X013803Y007730D03*
X013803Y007736D03*
X013803Y007742D03*
X013803Y007749D03*
X013803Y007755D03*
X013803Y007761D03*
X013803Y007768D03*
X013803Y007774D03*
X013803Y007780D03*
X013803Y007786D03*
X013803Y007793D03*
X013803Y007799D03*
X013803Y007805D03*
X013803Y007812D03*
X013803Y007818D03*
X013803Y007824D03*
X013803Y007831D03*
X013803Y007837D03*
X013803Y007843D03*
X013803Y007849D03*
X013803Y007856D03*
X013803Y007862D03*
X013803Y007868D03*
X013803Y007875D03*
X013803Y007881D03*
X013803Y007887D03*
X013803Y007894D03*
X013803Y007900D03*
X013803Y007906D03*
X013803Y007912D03*
X013803Y007919D03*
X013803Y007925D03*
X013803Y007931D03*
X013803Y007938D03*
X013803Y007944D03*
X013803Y007950D03*
X013803Y007957D03*
X013803Y007963D03*
X013803Y007969D03*
X013803Y007975D03*
X013803Y007982D03*
X013803Y007988D03*
X013803Y007994D03*
X013803Y008001D03*
X013803Y008007D03*
X013803Y008013D03*
X013803Y008020D03*
X013803Y008026D03*
X013803Y008032D03*
X013803Y008038D03*
X013803Y008045D03*
X013803Y008051D03*
X013803Y008057D03*
X013803Y008064D03*
X013803Y008070D03*
X013803Y008076D03*
X013803Y008083D03*
X013803Y008089D03*
X013803Y008095D03*
X013803Y008101D03*
X013803Y008108D03*
X013803Y008114D03*
X013803Y008120D03*
X013803Y008127D03*
X013803Y008133D03*
X013803Y008139D03*
X013803Y008146D03*
X013803Y008152D03*
X013803Y008158D03*
X013803Y008164D03*
X013803Y008171D03*
X013803Y008177D03*
X013803Y008183D03*
X013803Y008190D03*
X013803Y008196D03*
X013803Y008202D03*
X013803Y008209D03*
X013803Y008215D03*
X013803Y008221D03*
X013803Y008227D03*
X013803Y008234D03*
X013803Y008240D03*
X013803Y008246D03*
X013803Y008253D03*
X013803Y008259D03*
X013803Y008265D03*
X013803Y008271D03*
X013803Y008278D03*
X013803Y008284D03*
X013803Y008290D03*
X012487Y009040D03*
X012487Y009046D03*
X012487Y009053D03*
X012487Y009059D03*
X012487Y009065D03*
X012487Y009071D03*
X012487Y009078D03*
X012487Y009084D03*
X012487Y009090D03*
X012487Y009097D03*
X012487Y009103D03*
X012487Y009109D03*
X012487Y009116D03*
X012487Y009122D03*
X012487Y009128D03*
X012487Y009134D03*
X012487Y009141D03*
X012487Y009147D03*
X012487Y009153D03*
X012487Y009160D03*
X012487Y009166D03*
X012487Y009172D03*
X012487Y009179D03*
X012487Y009185D03*
X012487Y009191D03*
X012487Y009197D03*
X012487Y009204D03*
X012487Y009210D03*
X012487Y009216D03*
X012487Y009223D03*
X012487Y009229D03*
X012487Y009235D03*
X012487Y009242D03*
X012487Y009248D03*
X012487Y009254D03*
X012487Y009260D03*
X012487Y009267D03*
X012487Y009273D03*
X012487Y009279D03*
X012487Y009286D03*
X012487Y009292D03*
X012487Y009298D03*
X012487Y009305D03*
X012487Y009311D03*
X012487Y009317D03*
X012487Y009323D03*
X012487Y009330D03*
X012487Y009336D03*
X012487Y009342D03*
X012487Y009349D03*
X012487Y009355D03*
X012487Y009361D03*
X012487Y009368D03*
X012487Y009374D03*
X012487Y009380D03*
X012487Y009386D03*
X012487Y009393D03*
X012487Y009399D03*
X012487Y009405D03*
X012487Y009412D03*
X012487Y009418D03*
X012487Y009424D03*
X012487Y009431D03*
X012487Y009437D03*
X012487Y009443D03*
X012487Y009449D03*
X012487Y009456D03*
X012487Y009462D03*
X012487Y009468D03*
X012487Y009475D03*
X012487Y009481D03*
X012487Y009487D03*
X012487Y009494D03*
X012487Y009500D03*
X012487Y009506D03*
X012487Y009512D03*
X012487Y009519D03*
X012487Y009525D03*
X012487Y009531D03*
X012487Y009538D03*
X012487Y009544D03*
X012487Y009550D03*
X012487Y009557D03*
X012487Y009563D03*
X012487Y009569D03*
X012487Y009575D03*
X012487Y009582D03*
X012487Y009588D03*
X012487Y009594D03*
X012487Y009601D03*
X012487Y009607D03*
X012487Y009613D03*
X012487Y009620D03*
X012487Y009626D03*
X012487Y009632D03*
X012487Y009638D03*
X012487Y009645D03*
X012487Y009651D03*
X012487Y009657D03*
X012487Y009664D03*
X012487Y009670D03*
X012487Y009676D03*
X012487Y009683D03*
X012487Y009689D03*
X012487Y009695D03*
X012487Y009701D03*
X015095Y006829D03*
X015095Y006823D03*
X015095Y006816D03*
X015095Y006810D03*
X015095Y006804D03*
X015095Y006797D03*
X015095Y006791D03*
X015095Y006785D03*
X015095Y006779D03*
X015095Y006772D03*
X015095Y006766D03*
X015095Y006760D03*
X015095Y006753D03*
X015095Y006747D03*
X015095Y006741D03*
X015095Y006734D03*
X015095Y006728D03*
X015095Y006722D03*
X015095Y006716D03*
X015095Y006709D03*
X015095Y006703D03*
X015095Y006697D03*
X015095Y006690D03*
X015095Y006684D03*
X015095Y006678D03*
X015095Y006671D03*
X015095Y006665D03*
X015095Y006659D03*
X015095Y006653D03*
X015095Y006646D03*
X015095Y006640D03*
X015095Y006634D03*
X015095Y006627D03*
X015095Y006621D03*
X015095Y006615D03*
X015095Y006609D03*
X015095Y006602D03*
X015095Y006596D03*
X015095Y006590D03*
X015095Y006583D03*
X015095Y006577D03*
X015095Y006571D03*
X015095Y006564D03*
X015095Y006558D03*
X015095Y006552D03*
X015095Y006546D03*
X015095Y006539D03*
X015095Y006533D03*
X015095Y006527D03*
X015095Y006520D03*
X015095Y006514D03*
X015095Y006508D03*
X015095Y006501D03*
X015095Y006495D03*
X015095Y006489D03*
X015095Y006483D03*
X015095Y006476D03*
X015095Y006470D03*
X015095Y006464D03*
X015095Y006457D03*
X015095Y006451D03*
X015095Y006445D03*
X015095Y006438D03*
X015095Y006432D03*
X015095Y006426D03*
X015095Y006420D03*
X015095Y006413D03*
X015095Y006407D03*
X015095Y006401D03*
X015095Y006394D03*
X015095Y006388D03*
X015095Y006382D03*
X015095Y006375D03*
X015095Y006369D03*
X015095Y006363D03*
X015095Y006357D03*
X015095Y006350D03*
X015095Y006344D03*
X015095Y006338D03*
X015095Y006331D03*
X015095Y006325D03*
X015095Y006319D03*
X015095Y006312D03*
X015095Y006306D03*
X015095Y006300D03*
X015095Y006294D03*
X015095Y006287D03*
X015095Y006281D03*
X015095Y006275D03*
X015095Y006268D03*
X015095Y006262D03*
X015095Y006256D03*
X015095Y006249D03*
X015095Y006243D03*
X015095Y006237D03*
X015095Y006231D03*
X015095Y006224D03*
X015095Y006218D03*
X015095Y006212D03*
X015095Y006205D03*
X015095Y006199D03*
X015095Y006193D03*
X015095Y006186D03*
X015095Y006180D03*
X015095Y006174D03*
X015095Y006168D03*
D60*
X015419Y006835D03*
X015419Y006842D03*
X015419Y006848D03*
X015419Y006854D03*
X015419Y006860D03*
X015419Y006867D03*
X015419Y006873D03*
X015419Y006879D03*
X015419Y006886D03*
X015419Y006892D03*
X015419Y006898D03*
X015419Y006905D03*
X015419Y006911D03*
X015419Y006917D03*
X015419Y006923D03*
X015419Y006930D03*
X015419Y006936D03*
X015419Y006942D03*
X015419Y006949D03*
X015419Y006955D03*
X015419Y006961D03*
X014128Y008297D03*
X014128Y008303D03*
X014128Y008309D03*
X014128Y008316D03*
X014128Y008322D03*
X014128Y008328D03*
X014128Y008334D03*
X014128Y008341D03*
X014128Y008347D03*
X014128Y008353D03*
X014128Y008360D03*
X014128Y008366D03*
X014128Y008372D03*
X014128Y008379D03*
X014128Y008385D03*
X014128Y008391D03*
X014128Y008397D03*
X014128Y008404D03*
X014128Y008410D03*
X014128Y008416D03*
X014128Y008423D03*
X014128Y008429D03*
X012811Y009708D03*
X012811Y009714D03*
X012811Y009720D03*
X012811Y009727D03*
X012811Y009733D03*
X012811Y009739D03*
X012811Y009746D03*
X012811Y009752D03*
X012811Y009758D03*
X012811Y009764D03*
X012811Y009771D03*
X012811Y009777D03*
X012811Y009783D03*
X012811Y009790D03*
X012811Y009796D03*
X012811Y009802D03*
X012811Y009809D03*
X012811Y009815D03*
X012811Y009821D03*
X012811Y009827D03*
X012811Y009834D03*
D61*
X018143Y007988D03*
X018143Y007982D03*
X018143Y007975D03*
X018143Y007969D03*
X018143Y007963D03*
X018143Y007957D03*
X018143Y007950D03*
X018143Y007944D03*
X018143Y007938D03*
X018143Y007931D03*
X018143Y007925D03*
X018143Y007919D03*
X018143Y007912D03*
X018143Y007906D03*
X018143Y007900D03*
X018143Y007894D03*
X018143Y007887D03*
X018143Y007881D03*
X018143Y007875D03*
X018143Y007868D03*
X018143Y007862D03*
X018143Y007856D03*
X018143Y006968D03*
X018143Y006961D03*
X018143Y006955D03*
X018143Y006949D03*
X018143Y006942D03*
X018143Y006936D03*
X018143Y006930D03*
X018143Y006923D03*
X018143Y006917D03*
X018143Y006911D03*
X018143Y006905D03*
X018143Y006898D03*
X018143Y006892D03*
X018143Y006886D03*
X018143Y006879D03*
X018143Y006873D03*
X018143Y006867D03*
X018143Y006860D03*
X018143Y006854D03*
X018143Y006848D03*
D62*
X015422Y006968D03*
D63*
X017142Y006974D03*
X017142Y006980D03*
X017142Y006986D03*
X017142Y006993D03*
X017142Y006999D03*
X017142Y007005D03*
X017142Y007012D03*
X017142Y007018D03*
X017142Y007024D03*
X017142Y007031D03*
X017142Y007037D03*
X017142Y007043D03*
X017142Y007049D03*
X017142Y007056D03*
X017142Y007062D03*
X017142Y007068D03*
X017142Y007075D03*
X017142Y007081D03*
X017142Y007087D03*
X017142Y007094D03*
X017142Y007100D03*
X017142Y007106D03*
X017142Y007112D03*
X017142Y007119D03*
X017142Y007125D03*
X017142Y007131D03*
X017142Y007138D03*
X017142Y007144D03*
X017142Y007150D03*
X017142Y007157D03*
X017142Y007163D03*
X017142Y007169D03*
X017142Y007175D03*
X017142Y007182D03*
X017142Y007188D03*
X017142Y007194D03*
X017142Y007201D03*
X017142Y007207D03*
X017142Y007213D03*
X017142Y007220D03*
X017142Y007226D03*
X017142Y007232D03*
X017142Y007238D03*
X017142Y007245D03*
X017142Y007251D03*
X017142Y007257D03*
X017142Y007264D03*
X017142Y007270D03*
X017142Y007276D03*
X017142Y007283D03*
X017142Y007289D03*
X017142Y007295D03*
X017142Y007301D03*
X017142Y007308D03*
X017142Y007314D03*
X017142Y007320D03*
X017142Y007327D03*
X017142Y007333D03*
X017142Y007339D03*
X017142Y007346D03*
X017142Y007352D03*
X017142Y007358D03*
X017142Y007364D03*
X017142Y007371D03*
X017142Y007377D03*
X017142Y007383D03*
X017142Y007390D03*
X017142Y007396D03*
X017142Y007402D03*
X017142Y007409D03*
X017142Y007415D03*
X017142Y007421D03*
X017142Y007427D03*
X017142Y007434D03*
X017142Y007440D03*
X017142Y007446D03*
D64*
X017145Y007453D03*
X017145Y007459D03*
X017145Y007465D03*
X017145Y007471D03*
X017145Y007478D03*
X017145Y007484D03*
X017145Y007490D03*
X017145Y007497D03*
X017145Y007503D03*
D65*
X017148Y007509D03*
X017148Y007516D03*
X017148Y007522D03*
X017148Y007528D03*
X017148Y007534D03*
D66*
X017151Y007541D03*
X017151Y007547D03*
X017151Y007553D03*
X017151Y007560D03*
D67*
X017154Y007566D03*
X017154Y007572D03*
X017154Y007579D03*
D68*
X017158Y007585D03*
X017158Y007591D03*
X017158Y007597D03*
D69*
X017161Y007604D03*
X017161Y007610D03*
X017161Y007616D03*
D70*
X017164Y007623D03*
X017164Y007629D03*
X017164Y007635D03*
D71*
X017167Y007642D03*
X017167Y007648D03*
D72*
X017170Y007654D03*
X017170Y007660D03*
D73*
X017173Y007667D03*
X017173Y007673D03*
D74*
X017177Y007679D03*
X017177Y007686D03*
D75*
X017180Y007692D03*
X017180Y007698D03*
D76*
X017183Y007705D03*
D77*
X017186Y007711D03*
X017186Y007717D03*
D78*
X017189Y007723D03*
X017189Y007730D03*
D79*
X017192Y007736D03*
D80*
X017195Y007742D03*
D81*
X017199Y007749D03*
X017199Y007755D03*
D82*
X017202Y007761D03*
D83*
X017205Y007768D03*
D84*
X017208Y007774D03*
X017208Y007780D03*
D85*
X017211Y007786D03*
D86*
X017214Y007793D03*
D87*
X017217Y007799D03*
D88*
X017221Y007805D03*
D89*
X017224Y007812D03*
D90*
X017227Y007818D03*
D91*
X017230Y007824D03*
D92*
X017233Y007831D03*
D93*
X017236Y007837D03*
D94*
X017240Y007843D03*
D95*
X017243Y007849D03*
D96*
X015526Y007856D03*
D97*
X015529Y007862D03*
X014238Y009330D03*
X012921Y010734D03*
D98*
X012925Y010741D03*
X015532Y007868D03*
D99*
X015536Y007875D03*
X014244Y009336D03*
X012928Y010747D03*
D100*
X014247Y009342D03*
X015539Y007881D03*
D101*
X015545Y007887D03*
X012937Y010760D03*
D102*
X012940Y010766D03*
X014257Y009355D03*
X015548Y007894D03*
D103*
X015554Y007900D03*
X012947Y010772D03*
D104*
X014266Y009368D03*
X015558Y007906D03*
D105*
X015564Y007912D03*
X014273Y009374D03*
X012956Y010785D03*
D106*
X012962Y010791D03*
X015570Y007919D03*
D107*
X015577Y007925D03*
X012969Y010797D03*
D108*
X012975Y010804D03*
X015583Y007931D03*
D109*
X015589Y007938D03*
X012981Y010810D03*
D110*
X012988Y010816D03*
X015595Y007944D03*
D111*
X015602Y007950D03*
X014310Y009412D03*
D112*
X015611Y007957D03*
D113*
X015621Y007963D03*
D114*
X015630Y007969D03*
X014339Y009431D03*
D115*
X015643Y007975D03*
D116*
X015658Y007982D03*
D117*
X015677Y007988D03*
X014386Y009449D03*
D118*
X017498Y009449D03*
X017498Y009443D03*
X017498Y009437D03*
X017498Y009431D03*
X017498Y009424D03*
X017498Y009418D03*
X017498Y009412D03*
X017498Y009405D03*
X017498Y009399D03*
X017498Y009393D03*
X017498Y009386D03*
X017498Y009380D03*
X017498Y009374D03*
X017498Y009368D03*
X017498Y009361D03*
X017498Y009355D03*
X017498Y009349D03*
X017498Y009342D03*
X017498Y009336D03*
X017498Y009330D03*
X017498Y009323D03*
X017498Y008429D03*
X017498Y008423D03*
X017498Y008416D03*
X017498Y008410D03*
X017498Y008404D03*
X017498Y008397D03*
X017498Y008391D03*
X017498Y008385D03*
X017498Y008379D03*
X017498Y008372D03*
X017498Y008366D03*
X017498Y008360D03*
X017498Y008353D03*
X017498Y008347D03*
X017498Y008341D03*
X017498Y008334D03*
X017498Y008328D03*
X017498Y008322D03*
X017498Y008316D03*
X017498Y008309D03*
D119*
X016496Y008435D03*
X016496Y008442D03*
X016496Y008448D03*
X016496Y008454D03*
X016496Y008460D03*
X016496Y008467D03*
X016496Y008473D03*
X016496Y008479D03*
X016496Y008486D03*
X016496Y008492D03*
X016496Y008498D03*
X016496Y008505D03*
X016496Y008511D03*
X016496Y008517D03*
X016496Y008523D03*
X016496Y008530D03*
X016496Y008536D03*
X016496Y008542D03*
X016496Y008549D03*
X016496Y008555D03*
X016496Y008561D03*
X016496Y008568D03*
X016496Y008574D03*
X016496Y008580D03*
X016496Y008586D03*
X016496Y008593D03*
X016496Y008599D03*
X016496Y008605D03*
X016496Y008612D03*
X016496Y008618D03*
X016496Y008624D03*
X016496Y008631D03*
X016496Y008637D03*
X016496Y008643D03*
X016496Y008649D03*
X016496Y008656D03*
X016496Y008662D03*
X016496Y008668D03*
X016496Y008675D03*
X016496Y008681D03*
X016496Y008687D03*
X016496Y008694D03*
X016496Y008700D03*
X016496Y008706D03*
X016496Y008712D03*
X016496Y008719D03*
X016496Y008725D03*
X016496Y008731D03*
X016496Y008738D03*
X016496Y008744D03*
X016496Y008750D03*
X016496Y008757D03*
X016496Y008763D03*
X016496Y008769D03*
X016496Y008775D03*
X016496Y008782D03*
X016496Y008788D03*
X016496Y008794D03*
X016496Y008801D03*
X016496Y008807D03*
X016496Y008813D03*
X016496Y008820D03*
X016496Y008826D03*
X016496Y008832D03*
X016496Y008838D03*
X016496Y008845D03*
X016496Y008851D03*
X016496Y008857D03*
X016496Y008864D03*
X016496Y008870D03*
X016496Y008876D03*
X016496Y008883D03*
X016496Y008889D03*
X016496Y008895D03*
X016496Y008901D03*
X016496Y008908D03*
X016496Y008914D03*
X016496Y008920D03*
X016496Y008927D03*
X016496Y008933D03*
X016496Y008939D03*
D120*
X012484Y008939D03*
X012484Y008933D03*
X012484Y008927D03*
X012484Y008920D03*
X012484Y008914D03*
X012484Y008908D03*
X012484Y008901D03*
X012484Y008895D03*
X012484Y008889D03*
X012484Y008883D03*
X012484Y008876D03*
X012484Y008870D03*
X012484Y008864D03*
X012484Y008857D03*
X012484Y008851D03*
X012484Y008845D03*
X012484Y008838D03*
X012484Y008832D03*
X012484Y008826D03*
X012484Y008820D03*
X012484Y008813D03*
X012484Y008807D03*
X012484Y008801D03*
X012484Y008794D03*
X012484Y008788D03*
X012484Y008782D03*
X012484Y008775D03*
X012484Y008769D03*
X012484Y008763D03*
X012484Y008757D03*
X012484Y008750D03*
X012484Y008744D03*
X012484Y008738D03*
X012484Y008731D03*
X012484Y008725D03*
X012484Y008719D03*
X012484Y008712D03*
X012484Y008706D03*
X012484Y008700D03*
X012484Y008694D03*
X012484Y008687D03*
X012484Y008681D03*
X012484Y008675D03*
X012484Y008668D03*
X012484Y008662D03*
X012484Y008656D03*
X012484Y008649D03*
X012484Y008643D03*
X012484Y008637D03*
X012484Y008631D03*
X012484Y008624D03*
X012484Y008618D03*
X012484Y008612D03*
X012484Y008605D03*
X012484Y008599D03*
X012484Y008593D03*
X012484Y008586D03*
X012484Y008580D03*
X012484Y008574D03*
X012484Y008568D03*
X012484Y008561D03*
X012484Y008555D03*
X012484Y008946D03*
X012484Y008952D03*
X012484Y008958D03*
X012484Y008964D03*
X012484Y008971D03*
X012484Y008977D03*
X012484Y008983D03*
X012484Y008990D03*
X012484Y008996D03*
X012484Y009002D03*
X012484Y009009D03*
X012484Y009015D03*
X012484Y009021D03*
X012484Y009027D03*
D121*
X016499Y008983D03*
X016499Y008977D03*
X016499Y008971D03*
X016499Y008964D03*
X016499Y008958D03*
X016499Y008952D03*
X016499Y008946D03*
D122*
X016502Y008990D03*
X016502Y008996D03*
X016502Y009002D03*
X016502Y009009D03*
D123*
X016506Y009015D03*
X016506Y009021D03*
X016506Y009027D03*
X016506Y009034D03*
D124*
X016509Y009040D03*
X016509Y009046D03*
X016509Y009053D03*
D125*
X016512Y009059D03*
X016512Y009065D03*
X016512Y009071D03*
D126*
X016515Y009078D03*
X016515Y009084D03*
D127*
X016518Y009090D03*
X016518Y009097D03*
X016518Y009103D03*
D128*
X016521Y009109D03*
X016521Y009116D03*
D129*
X016525Y009122D03*
X016525Y009128D03*
D130*
X016528Y009134D03*
X016528Y009141D03*
D131*
X016531Y009147D03*
X016531Y009153D03*
D132*
X016534Y009160D03*
X016534Y009166D03*
D133*
X016537Y009172D03*
D134*
X016540Y009179D03*
X016540Y009185D03*
D135*
X016543Y009191D03*
D136*
X016547Y009197D03*
X016547Y009204D03*
D137*
X016550Y009210D03*
D138*
X016553Y009216D03*
X016553Y009223D03*
D139*
X016556Y009229D03*
D140*
X016559Y009235D03*
D141*
X016562Y009242D03*
D142*
X016565Y009248D03*
D143*
X016569Y009254D03*
X016569Y009260D03*
D144*
X016572Y009267D03*
D145*
X016575Y009273D03*
D146*
X016578Y009279D03*
D147*
X016581Y009286D03*
D148*
X016584Y009292D03*
D149*
X016588Y009298D03*
D150*
X016591Y009305D03*
D151*
X016597Y009311D03*
D152*
X016600Y009317D03*
D153*
X014235Y009323D03*
D154*
X014251Y009349D03*
X012934Y010753D03*
D155*
X014260Y009361D03*
D156*
X014276Y009380D03*
D157*
X014282Y009386D03*
D158*
X014288Y009393D03*
D159*
X014295Y009399D03*
D160*
X014301Y009405D03*
D161*
X014317Y009418D03*
D162*
X014326Y009424D03*
D163*
X014348Y009437D03*
D164*
X014364Y009443D03*
D165*
X016840Y009714D03*
X016840Y009720D03*
X016840Y009727D03*
X016840Y009733D03*
X016840Y009739D03*
X016840Y009746D03*
X016840Y009752D03*
X016840Y009758D03*
X016840Y009764D03*
X016840Y009771D03*
X016840Y009777D03*
X016840Y009783D03*
X016840Y009790D03*
X016840Y009796D03*
X016840Y009802D03*
X016840Y009809D03*
X016840Y009815D03*
X016840Y009821D03*
X016840Y009827D03*
X016840Y009834D03*
X016840Y010728D03*
X016840Y010734D03*
X016840Y010741D03*
X016840Y010747D03*
X016840Y010753D03*
X016840Y010760D03*
X016840Y010766D03*
X016840Y010772D03*
X016840Y010779D03*
X016840Y010785D03*
X016840Y010791D03*
X016840Y010797D03*
X016840Y010804D03*
X016840Y010810D03*
X016840Y010816D03*
X016840Y010823D03*
X016840Y010829D03*
X016840Y010835D03*
X016840Y010842D03*
X016840Y010848D03*
X016840Y010854D03*
X016840Y010860D03*
D166*
X015838Y010344D03*
X015838Y010338D03*
X015838Y010331D03*
X015838Y010325D03*
X015838Y010319D03*
X015838Y010312D03*
X015838Y010306D03*
X015838Y010300D03*
X015838Y010294D03*
X015838Y010287D03*
X015838Y010281D03*
X015838Y010275D03*
X015838Y010268D03*
X015838Y010262D03*
X015838Y010256D03*
X015838Y010249D03*
X015838Y010243D03*
X015838Y010237D03*
X015838Y010231D03*
X015838Y010224D03*
X015838Y010218D03*
X015838Y010212D03*
X015838Y010205D03*
X015838Y010199D03*
X015838Y010193D03*
X015838Y010186D03*
X015838Y010180D03*
X015838Y010174D03*
X015838Y010168D03*
X015838Y010161D03*
X015838Y010155D03*
X015838Y010149D03*
X015838Y010142D03*
X015838Y010136D03*
X015838Y010130D03*
X015838Y010123D03*
X015838Y010117D03*
X015838Y010111D03*
X015838Y010105D03*
X015838Y010098D03*
X015838Y010092D03*
X015838Y010086D03*
X015838Y010079D03*
X015838Y010073D03*
X015838Y010067D03*
X015838Y010060D03*
X015838Y010054D03*
X015838Y010048D03*
X015838Y010042D03*
X015838Y010035D03*
X015838Y010029D03*
X015838Y010023D03*
X015838Y010016D03*
X015838Y010010D03*
X015838Y010004D03*
X015838Y009997D03*
X015838Y009991D03*
X015838Y009985D03*
X015838Y009979D03*
X015838Y009972D03*
X015838Y009966D03*
X015838Y009960D03*
X015838Y009953D03*
X015838Y009947D03*
X015838Y009941D03*
X015838Y009934D03*
X015838Y009928D03*
X015838Y009922D03*
X015838Y009916D03*
X015838Y009909D03*
X015838Y009903D03*
X015838Y009897D03*
X015838Y009890D03*
X015838Y009884D03*
X015838Y009878D03*
X015838Y009871D03*
X015838Y009865D03*
X015838Y009859D03*
X015838Y009853D03*
X015838Y009846D03*
X015838Y009840D03*
D167*
X015841Y010350D03*
X015841Y010357D03*
X015841Y010363D03*
X015841Y010369D03*
X015841Y010375D03*
X015841Y010382D03*
X015841Y010388D03*
D168*
X015844Y010394D03*
X015844Y010401D03*
X015844Y010407D03*
X015844Y010413D03*
D169*
X015847Y010420D03*
X015847Y010426D03*
X015847Y010432D03*
X015847Y010438D03*
D170*
X015851Y010445D03*
X015851Y010451D03*
X015851Y010457D03*
D171*
X015854Y010464D03*
X015854Y010470D03*
X015854Y010476D03*
D172*
X015857Y010483D03*
X015857Y010489D03*
X015857Y010495D03*
D173*
X015860Y010501D03*
X015860Y010508D03*
D174*
X015863Y010514D03*
X015863Y010520D03*
D175*
X015866Y010527D03*
X015866Y010533D03*
D176*
X015869Y010539D03*
X015869Y010546D03*
D177*
X015873Y010552D03*
X015873Y010558D03*
D178*
X015876Y010564D03*
X015876Y010571D03*
D179*
X015879Y010577D03*
X015879Y010583D03*
D180*
X015882Y010590D03*
D181*
X015885Y010596D03*
X015885Y010602D03*
D182*
X015888Y010609D03*
D183*
X015891Y010615D03*
X015891Y010621D03*
D184*
X015895Y010627D03*
D185*
X015898Y010634D03*
D186*
X015901Y010640D03*
X015901Y010646D03*
D187*
X015904Y010653D03*
D188*
X015907Y010659D03*
D189*
X015910Y010665D03*
D190*
X015914Y010671D03*
D191*
X015917Y010678D03*
D192*
X015920Y010684D03*
D193*
X015923Y010690D03*
D194*
X015926Y010697D03*
D195*
X015929Y010703D03*
D196*
X015932Y010709D03*
D197*
X015936Y010716D03*
D198*
X015939Y010722D03*
D199*
X012915Y010728D03*
D200*
X012953Y010779D03*
D201*
X012997Y010823D03*
D202*
X013006Y010829D03*
D203*
X013016Y010835D03*
D204*
X013025Y010842D03*
D205*
X013038Y010848D03*
D206*
X013054Y010854D03*
D207*
X013085Y010860D03*
D208*
X002142Y012625D02*
X002142Y001432D01*
X002182Y001432D02*
X002682Y001432D01*
X002682Y000932D01*
X003420Y000932D01*
X007751Y000932D02*
X008432Y000932D01*
X008432Y001432D01*
X008932Y001432D01*
X008932Y012625D01*
X002142Y012625D01*
X001718Y011965D02*
X001718Y011465D01*
X001468Y011215D01*
X000968Y011215D01*
X000718Y011465D01*
X000718Y011965D01*
X000968Y012215D01*
X001468Y012215D01*
X001718Y011965D01*
X001468Y011215D02*
X001718Y010965D01*
X001718Y010465D01*
X001468Y010215D01*
X000968Y010215D01*
X000718Y010465D01*
X000718Y010965D01*
X000968Y011215D01*
X000968Y010215D02*
X000718Y009965D01*
X000718Y009465D01*
X000968Y009215D01*
X001468Y009215D01*
X001718Y008965D01*
X001718Y008465D01*
X001468Y008215D01*
X000968Y008215D01*
X000718Y008465D01*
X000718Y008965D01*
X000968Y009215D01*
X001468Y009215D02*
X001718Y009465D01*
X001718Y009965D01*
X001468Y010215D01*
X001468Y008215D02*
X001718Y007965D01*
X001718Y007465D01*
X001468Y007215D01*
X000968Y007215D01*
X000718Y007465D01*
X000718Y007965D01*
X000968Y008215D01*
X000968Y007215D02*
X000718Y006965D01*
X000718Y006465D01*
X000968Y006215D01*
X001468Y006215D01*
X001718Y006465D01*
X001718Y006965D01*
X001468Y007215D01*
X001629Y013942D02*
X001379Y014192D01*
X001379Y014692D01*
X001629Y014942D01*
X003129Y014942D01*
X003379Y015192D01*
X003379Y015692D01*
X003129Y015942D01*
X001629Y015942D01*
X001379Y016192D01*
X001379Y016692D01*
X001629Y016942D01*
X003129Y016942D01*
X003379Y016692D01*
X003379Y016192D01*
X003129Y015942D01*
X003129Y014942D02*
X003379Y014692D01*
X003379Y014192D01*
X003129Y013942D01*
X001629Y013942D01*
X001629Y014942D02*
X001379Y015192D01*
X001379Y015692D01*
X001629Y015942D01*
X003511Y014692D02*
X003511Y014192D01*
X010891Y022283D02*
X010891Y022697D01*
X010684Y022490D02*
X011098Y022490D01*
X008869Y022497D02*
X008455Y022497D01*
X014360Y022534D02*
X014360Y021746D01*
X014762Y022140D01*
X014360Y022534D01*
X018077Y022536D02*
X018077Y021749D01*
X018480Y022142D01*
X018077Y022536D01*
X017781Y017477D02*
X019182Y017477D01*
X019182Y015776D01*
X017781Y015776D01*
X017781Y017477D01*
X016883Y017231D02*
X016885Y017246D01*
X016891Y017259D01*
X016900Y017271D01*
X016911Y017280D01*
X016925Y017286D01*
X016940Y017288D01*
X016955Y017286D01*
X016968Y017280D01*
X016980Y017271D01*
X016989Y017260D01*
X016995Y017246D01*
X016997Y017231D01*
X016995Y017216D01*
X016989Y017203D01*
X016980Y017191D01*
X016969Y017182D01*
X016955Y017176D01*
X016940Y017174D01*
X016925Y017176D01*
X016912Y017182D01*
X016900Y017191D01*
X016891Y017202D01*
X016885Y017216D01*
X016883Y017231D01*
D209*
X018301Y018023D02*
X018456Y018023D01*
X018508Y018074D01*
X018508Y018281D01*
X018456Y018333D01*
X018301Y018333D01*
X018301Y018023D01*
X018623Y018074D02*
X018623Y018126D01*
X018675Y018178D01*
X018778Y018178D01*
X018830Y018126D01*
X018830Y018074D01*
X018778Y018023D01*
X018675Y018023D01*
X018623Y018074D01*
X018675Y018178D02*
X018623Y018229D01*
X018623Y018281D01*
X018675Y018333D01*
X018778Y018333D01*
X018830Y018281D01*
X018830Y018229D01*
X018778Y018178D01*
X017922Y018901D02*
X017871Y018850D01*
X017664Y018850D01*
X017612Y018901D01*
X017612Y019005D01*
X017664Y019057D01*
X017664Y019172D02*
X017612Y019224D01*
X017612Y019327D01*
X017664Y019379D01*
X017716Y019379D01*
X017922Y019172D01*
X017922Y019379D01*
X017767Y019494D02*
X017767Y019701D01*
X017922Y019649D02*
X017612Y019649D01*
X017767Y019494D01*
X017871Y019057D02*
X017922Y019005D01*
X017922Y018901D01*
X017869Y020102D02*
X017973Y020102D01*
X018025Y020154D01*
X018140Y020102D02*
X018347Y020102D01*
X018243Y020102D02*
X018243Y020412D01*
X018140Y020309D01*
X018025Y020360D02*
X017973Y020412D01*
X017869Y020412D01*
X017818Y020360D01*
X017818Y020154D01*
X017869Y020102D01*
X018462Y020102D02*
X018669Y020102D01*
X018566Y020102D02*
X018566Y020412D01*
X018462Y020309D01*
X019043Y021392D02*
X017263Y021392D01*
X017114Y021195D02*
X017114Y020988D01*
X017011Y021092D02*
X017217Y021092D01*
X016895Y020936D02*
X016688Y020936D01*
X016688Y021247D01*
X016573Y021247D02*
X016366Y021247D01*
X016366Y020936D01*
X016573Y020936D01*
X016470Y021092D02*
X016366Y021092D01*
X016251Y020936D02*
X016251Y021247D01*
X016044Y021247D02*
X016251Y020936D01*
X016044Y020936D02*
X016044Y021247D01*
X015928Y021143D02*
X015928Y020936D01*
X015928Y021092D02*
X015722Y021092D01*
X015722Y021143D02*
X015825Y021247D01*
X015928Y021143D01*
X015722Y021143D02*
X015722Y020936D01*
X015606Y021092D02*
X015554Y021040D01*
X015399Y021040D01*
X015399Y020936D02*
X015399Y021247D01*
X015554Y021247D01*
X015606Y021195D01*
X015606Y021092D01*
X015326Y021390D02*
X013546Y021390D01*
X012640Y020820D02*
X012640Y020510D01*
X012743Y020510D02*
X012536Y020510D01*
X012536Y020717D02*
X012640Y020820D01*
X012421Y020820D02*
X012214Y020820D01*
X012214Y020510D01*
X012214Y020665D02*
X012318Y020665D01*
X013546Y022890D02*
X015326Y022890D01*
X015936Y022374D02*
X016092Y022218D01*
X016092Y022425D01*
X016247Y022374D02*
X015936Y022374D01*
X015988Y022103D02*
X015936Y022051D01*
X015936Y021896D01*
X016247Y021896D01*
X016247Y022051D01*
X016195Y022103D01*
X015988Y022103D01*
X016366Y022056D02*
X016366Y021901D01*
X016677Y021901D01*
X016677Y022056D01*
X016625Y022108D01*
X016418Y022108D01*
X016366Y022056D01*
X016418Y022224D02*
X016366Y022275D01*
X016366Y022379D01*
X016418Y022430D01*
X016470Y022430D01*
X016677Y022224D01*
X016677Y022430D01*
X017263Y022892D02*
X019043Y022892D01*
X019856Y021801D02*
X020011Y021801D01*
X020063Y021749D01*
X020063Y021645D01*
X020011Y021594D01*
X019856Y021594D01*
X019959Y021594D02*
X020063Y021490D01*
X020178Y021645D02*
X020385Y021645D01*
X020333Y021490D02*
X020333Y021801D01*
X020178Y021645D01*
X019856Y021490D02*
X019856Y021801D01*
X021100Y020770D02*
X021100Y020511D01*
X021152Y020460D01*
X021255Y020460D01*
X021307Y020511D01*
X021307Y020770D01*
X021422Y020666D02*
X021526Y020770D01*
X021526Y020460D01*
X021629Y020460D02*
X021422Y020460D01*
X022924Y019500D02*
X022924Y019293D01*
X023079Y019293D01*
X023028Y019397D01*
X023028Y019448D01*
X023079Y019500D01*
X023183Y019500D01*
X023234Y019448D01*
X023234Y019345D01*
X023183Y019293D01*
X023234Y019178D02*
X023131Y019074D01*
X023131Y019126D02*
X023131Y018971D01*
X023126Y018887D02*
X023075Y018835D01*
X023075Y018680D01*
X023178Y018680D01*
X023230Y018732D01*
X023230Y018835D01*
X023178Y018887D01*
X023126Y018887D01*
X023234Y018971D02*
X022924Y018971D01*
X022924Y019126D01*
X022976Y019178D01*
X023079Y019178D01*
X023131Y019126D01*
X022919Y018887D02*
X022971Y018783D01*
X023075Y018680D01*
X023075Y018564D02*
X023126Y018513D01*
X023126Y018358D01*
X023126Y018461D02*
X023230Y018564D01*
X023075Y018564D02*
X022971Y018564D01*
X022919Y018513D01*
X022919Y018358D01*
X023230Y018358D01*
X023088Y018174D02*
X022984Y018071D01*
X023088Y018174D02*
X023088Y017864D01*
X023191Y017864D02*
X022984Y017864D01*
X022869Y017864D02*
X022662Y017864D01*
X022662Y018174D01*
X021433Y017405D02*
X021123Y017405D01*
X021278Y017405D02*
X021278Y017198D01*
X021226Y017082D02*
X021433Y017082D01*
X021433Y016927D01*
X021381Y016875D01*
X021226Y016875D01*
X021175Y016760D02*
X021381Y016553D01*
X021433Y016605D01*
X021433Y016708D01*
X021381Y016760D01*
X021175Y016760D01*
X021123Y016708D01*
X021123Y016605D01*
X021175Y016553D01*
X021381Y016553D01*
X021433Y016438D02*
X021433Y016231D01*
X021433Y016334D02*
X021123Y016334D01*
X021226Y016231D01*
X021123Y017198D02*
X021433Y017198D01*
X019073Y014918D02*
X019073Y014814D01*
X019021Y014763D01*
X019021Y014647D02*
X019073Y014596D01*
X019073Y014492D01*
X019021Y014441D01*
X018814Y014441D01*
X018762Y014492D01*
X018762Y014596D01*
X018814Y014647D01*
X018814Y014763D02*
X018762Y014814D01*
X018762Y014918D01*
X018814Y014970D01*
X018866Y014970D01*
X018918Y014918D01*
X018969Y014970D01*
X019021Y014970D01*
X019073Y014918D01*
X018918Y014918D02*
X018918Y014866D01*
X019807Y013415D02*
X019755Y013363D01*
X019755Y013260D01*
X019807Y013208D01*
X019858Y013208D01*
X019910Y013260D01*
X019910Y013415D01*
X020013Y013415D02*
X019807Y013415D01*
X020013Y013415D02*
X020065Y013363D01*
X020065Y013260D01*
X020013Y013208D01*
X020013Y013093D02*
X020065Y013041D01*
X020065Y012938D01*
X020013Y012886D01*
X019807Y012886D01*
X019755Y012938D01*
X019755Y013041D01*
X019807Y013093D01*
X020167Y013041D02*
X020167Y012938D01*
X020218Y012886D01*
X020425Y012886D01*
X020477Y012938D01*
X020477Y013041D01*
X020425Y013093D01*
X020425Y013208D02*
X020477Y013260D01*
X020477Y013363D01*
X020425Y013415D01*
X020322Y013415D01*
X020270Y013363D01*
X020270Y013312D01*
X020322Y013208D01*
X020167Y013208D01*
X020167Y013415D01*
X020218Y013093D02*
X020167Y013041D01*
X020582Y013046D02*
X020582Y012942D01*
X020634Y012891D01*
X020841Y012891D01*
X020892Y012942D01*
X020892Y013046D01*
X020841Y013097D01*
X020737Y013213D02*
X020737Y013420D01*
X020582Y013368D02*
X020737Y013213D01*
X020634Y013097D02*
X020582Y013046D01*
X020582Y013368D02*
X020892Y013368D01*
X020101Y011982D02*
X019998Y011982D01*
X019946Y011930D01*
X019831Y011982D02*
X019831Y011723D01*
X019779Y011671D01*
X019675Y011671D01*
X019624Y011723D01*
X019624Y011982D01*
X019946Y011671D02*
X020153Y011878D01*
X020153Y011930D01*
X020101Y011982D01*
X020153Y011671D02*
X019946Y011671D01*
X022832Y007121D02*
X023142Y007121D01*
X023142Y007224D02*
X023142Y007017D01*
X022935Y007017D02*
X022832Y007121D01*
X022832Y006902D02*
X022832Y006695D01*
X022832Y006799D02*
X023142Y006799D01*
X023142Y006580D02*
X022832Y006580D01*
X022832Y006373D02*
X023142Y006580D01*
X023142Y006373D02*
X022832Y006373D01*
X022935Y006257D02*
X022832Y006154D01*
X022935Y006051D01*
X023142Y006051D01*
X022987Y006051D02*
X022987Y006257D01*
X022935Y006257D02*
X023142Y006257D01*
X022524Y003761D02*
X022524Y003555D01*
X022524Y003658D02*
X022214Y003658D01*
X022317Y003555D01*
X022317Y003439D02*
X022266Y003439D01*
X022214Y003387D01*
X022214Y003284D01*
X022266Y003232D01*
X022266Y003117D02*
X022214Y003065D01*
X022214Y002962D01*
X022266Y002910D01*
X022473Y002910D01*
X022524Y002962D01*
X022524Y003065D01*
X022473Y003117D01*
X022524Y003232D02*
X022317Y003439D01*
X022524Y003439D02*
X022524Y003232D01*
X022024Y003232D02*
X021817Y003439D01*
X021766Y003439D01*
X021714Y003387D01*
X021714Y003284D01*
X021766Y003232D01*
X021766Y003117D02*
X021714Y003065D01*
X021714Y002962D01*
X021766Y002910D01*
X021973Y002910D01*
X022024Y002962D01*
X022024Y003065D01*
X021973Y003117D01*
X022024Y003232D02*
X022024Y003439D01*
X022024Y003555D02*
X021817Y003761D01*
X021766Y003761D01*
X021714Y003710D01*
X021714Y003606D01*
X021766Y003555D01*
X021524Y003606D02*
X021524Y003710D01*
X021473Y003761D01*
X021266Y003761D01*
X021214Y003710D01*
X021214Y003606D01*
X021266Y003555D01*
X021317Y003555D01*
X021369Y003606D01*
X021369Y003761D01*
X021524Y003606D02*
X021473Y003555D01*
X021524Y003439D02*
X021524Y003232D01*
X021524Y003336D02*
X021214Y003336D01*
X021317Y003232D01*
X021266Y003117D02*
X021214Y003065D01*
X021214Y002962D01*
X021266Y002910D01*
X021473Y002910D01*
X021524Y002962D01*
X021524Y003065D01*
X021473Y003117D01*
X022024Y003555D02*
X022024Y003761D01*
X013773Y013910D02*
X013566Y013910D01*
X013514Y013962D01*
X013514Y014065D01*
X013566Y014117D01*
X013773Y014117D01*
X013824Y014065D01*
X013824Y013962D01*
X013773Y013910D01*
X013721Y014013D02*
X013824Y014117D01*
X013824Y014232D02*
X013824Y014439D01*
X013824Y014336D02*
X013514Y014336D01*
X013617Y014232D01*
X013397Y014235D02*
X013397Y014442D01*
X013397Y014339D02*
X013087Y014339D01*
X013190Y014235D01*
X013139Y014120D02*
X013242Y014120D01*
X013294Y014068D01*
X013294Y013913D01*
X013397Y013913D02*
X013087Y013913D01*
X013087Y014068D01*
X013139Y014120D01*
X013294Y014016D02*
X013397Y014120D01*
X013345Y014558D02*
X013139Y014558D01*
X013087Y014609D01*
X013087Y014713D01*
X013139Y014764D01*
X013345Y014558D01*
X013397Y014609D01*
X013397Y014713D01*
X013345Y014764D01*
X013139Y014764D01*
X012924Y014761D02*
X012924Y014555D01*
X012717Y014761D01*
X012666Y014761D01*
X012614Y014710D01*
X012614Y014606D01*
X012666Y014555D01*
X012666Y014439D02*
X012614Y014387D01*
X012614Y014284D01*
X012666Y014232D01*
X012666Y014117D02*
X012769Y014117D01*
X012821Y014065D01*
X012821Y013910D01*
X012924Y013910D02*
X012614Y013910D01*
X012614Y014065D01*
X012666Y014117D01*
X012821Y014013D02*
X012924Y014117D01*
X012924Y014232D02*
X012717Y014439D01*
X012666Y014439D01*
X012924Y014439D02*
X012924Y014232D01*
X013962Y014292D02*
X014014Y014240D01*
X014065Y014240D01*
X014117Y014292D01*
X014117Y014447D01*
X014014Y014447D02*
X013962Y014395D01*
X013962Y014292D01*
X014014Y014447D02*
X014221Y014447D01*
X014272Y014395D01*
X014272Y014292D01*
X014221Y014240D01*
X014272Y014125D02*
X014169Y014021D01*
X014169Y014073D02*
X014169Y013918D01*
X014272Y013918D02*
X013962Y013918D01*
X013962Y014073D01*
X014014Y014125D01*
X014117Y014125D01*
X014169Y014073D01*
X012749Y016136D02*
X012439Y016136D01*
X012439Y016292D01*
X012490Y016343D01*
X012594Y016343D01*
X012646Y016292D01*
X012646Y016136D01*
X012646Y016240D02*
X012749Y016343D01*
X012697Y016459D02*
X012749Y016510D01*
X012749Y016614D01*
X012697Y016665D01*
X012646Y016665D01*
X012594Y016614D01*
X012594Y016510D01*
X012542Y016459D01*
X012490Y016459D01*
X012439Y016510D01*
X012439Y016614D01*
X012490Y016665D01*
X012439Y016781D02*
X012749Y016781D01*
X012749Y016988D01*
X012749Y017103D02*
X012439Y017103D01*
X012749Y017310D01*
X012439Y017310D01*
X012490Y017425D02*
X012542Y017425D01*
X012594Y017477D01*
X012594Y017581D01*
X012646Y017632D01*
X012697Y017632D01*
X012749Y017581D01*
X012749Y017477D01*
X012697Y017425D01*
X012490Y017425D02*
X012439Y017477D01*
X012439Y017581D01*
X012490Y017632D01*
X012439Y017748D02*
X012749Y017748D01*
X012749Y017955D01*
X012594Y017851D02*
X012594Y017748D01*
X012439Y017748D02*
X012439Y017955D01*
X012439Y016988D02*
X012439Y016781D01*
X012594Y016781D02*
X012594Y016884D01*
X011420Y016819D02*
X011213Y016819D01*
X011213Y016664D01*
X011316Y016716D01*
X011368Y016716D01*
X011420Y016664D01*
X011420Y016561D01*
X011368Y016509D01*
X011265Y016509D01*
X011213Y016561D01*
X011097Y016509D02*
X010891Y016509D01*
X011097Y016716D01*
X011097Y016768D01*
X011046Y016819D01*
X010942Y016819D01*
X010891Y016768D01*
X010775Y016768D02*
X010775Y016664D01*
X010723Y016612D01*
X010568Y016612D01*
X010568Y016509D02*
X010568Y016819D01*
X010723Y016819D01*
X010775Y016768D01*
X010672Y016612D02*
X010775Y016509D01*
X010719Y016270D02*
X010616Y016270D01*
X010564Y016219D01*
X010564Y016012D01*
X010616Y015960D01*
X010719Y015960D01*
X010771Y016012D01*
X010886Y015960D02*
X011093Y015960D01*
X010990Y015960D02*
X010990Y016270D01*
X010886Y016167D01*
X010771Y016219D02*
X010719Y016270D01*
X011209Y016219D02*
X011260Y016270D01*
X011364Y016270D01*
X011416Y016219D01*
X011416Y016167D01*
X011364Y016115D01*
X011416Y016063D01*
X011416Y016012D01*
X011364Y015960D01*
X011260Y015960D01*
X011209Y016012D01*
X011312Y016115D02*
X011364Y016115D01*
X011362Y015682D02*
X011207Y015527D01*
X011413Y015527D01*
X011362Y015372D02*
X011362Y015682D01*
X011091Y015630D02*
X011039Y015682D01*
X010936Y015682D01*
X010884Y015630D01*
X010769Y015630D02*
X010769Y015527D01*
X010717Y015475D01*
X010562Y015475D01*
X010562Y015372D02*
X010562Y015682D01*
X010717Y015682D01*
X010769Y015630D01*
X010665Y015475D02*
X010769Y015372D01*
X010884Y015372D02*
X011091Y015579D01*
X011091Y015630D01*
X011091Y015372D02*
X010884Y015372D01*
X010990Y015070D02*
X010990Y014760D01*
X011093Y014760D02*
X010886Y014760D01*
X010771Y014812D02*
X010719Y014760D01*
X010616Y014760D01*
X010564Y014812D01*
X010564Y015019D01*
X010616Y015070D01*
X010719Y015070D01*
X010771Y015019D01*
X010886Y014967D02*
X010990Y015070D01*
X011209Y014915D02*
X011416Y014915D01*
X011364Y014760D02*
X011364Y015070D01*
X011209Y014915D01*
X011203Y014527D02*
X011410Y014527D01*
X011410Y014475D01*
X011203Y014269D01*
X011203Y014217D01*
X011088Y014217D02*
X010881Y014217D01*
X011088Y014424D01*
X011088Y014475D01*
X011036Y014527D01*
X010933Y014527D01*
X010881Y014475D01*
X010766Y014475D02*
X010766Y014372D01*
X010714Y014320D01*
X010559Y014320D01*
X010559Y014217D02*
X010559Y014527D01*
X010714Y014527D01*
X010766Y014475D01*
X010662Y014320D02*
X010766Y014217D01*
X010707Y014009D02*
X010552Y014009D01*
X010552Y013698D01*
X010552Y013802D02*
X010707Y013802D01*
X010758Y013854D01*
X010758Y013957D01*
X010707Y014009D01*
X010874Y013957D02*
X010926Y014009D01*
X011029Y014009D01*
X011081Y013957D01*
X011081Y013905D01*
X010874Y013698D01*
X011081Y013698D01*
X011196Y013750D02*
X011248Y013698D01*
X011351Y013698D01*
X011403Y013750D01*
X011403Y013802D01*
X011351Y013854D01*
X011196Y013854D01*
X011196Y013750D01*
X011196Y013854D02*
X011300Y013957D01*
X011403Y014009D01*
X010758Y013698D02*
X010655Y013802D01*
X011141Y012817D02*
X011296Y012662D01*
X011296Y012869D01*
X011451Y012817D02*
X011141Y012817D01*
X011141Y012547D02*
X011399Y012547D01*
X011451Y012495D01*
X011451Y012392D01*
X011399Y012340D01*
X011141Y012340D01*
X010243Y011370D02*
X010140Y011319D01*
X010036Y011215D01*
X010192Y011215D01*
X010243Y011163D01*
X010243Y011112D01*
X010192Y011060D01*
X010088Y011060D01*
X010036Y011112D01*
X010036Y011215D01*
X009921Y011112D02*
X009869Y011060D01*
X009766Y011060D01*
X009714Y011112D01*
X009714Y011319D01*
X009766Y011370D01*
X009869Y011370D01*
X009921Y011319D01*
X009447Y011435D02*
X008987Y011128D01*
X009140Y010975D02*
X009447Y010975D01*
X009447Y011128D02*
X008987Y011435D01*
X009217Y011589D02*
X009217Y011895D01*
X009064Y012049D02*
X008987Y012126D01*
X008987Y012279D01*
X009064Y012356D01*
X009140Y012356D01*
X009217Y012279D01*
X009294Y012356D01*
X009371Y012356D01*
X009447Y012279D01*
X009447Y012126D01*
X009371Y012049D01*
X009217Y012202D02*
X009217Y012279D01*
X009371Y012509D02*
X009447Y012509D01*
X009371Y012509D02*
X009064Y012816D01*
X008987Y012816D01*
X008987Y012509D01*
X009064Y012970D02*
X008987Y013046D01*
X008987Y013200D01*
X009064Y013277D01*
X009140Y013277D01*
X009447Y012970D01*
X009447Y013277D01*
X009447Y011819D02*
X008987Y011819D01*
X009217Y011589D01*
X009217Y010975D02*
X009217Y010668D01*
X009140Y010668D02*
X009447Y010668D01*
X009447Y010514D02*
X008987Y010514D01*
X009140Y010361D01*
X008987Y010207D01*
X009447Y010207D01*
X009140Y010668D02*
X008987Y010821D01*
X009140Y010975D01*
X009080Y007681D02*
X009080Y007475D01*
X009235Y007475D01*
X009184Y007578D01*
X009184Y007630D01*
X009235Y007681D01*
X009339Y007681D01*
X009390Y007630D01*
X009390Y007526D01*
X009339Y007475D01*
X009390Y007359D02*
X009390Y007152D01*
X009390Y007256D02*
X009080Y007256D01*
X009184Y007152D01*
X009132Y007037D02*
X009080Y006985D01*
X009080Y006882D01*
X009132Y006830D01*
X009339Y006830D01*
X009390Y006882D01*
X009390Y006985D01*
X009339Y007037D01*
X009427Y005629D02*
X009582Y005629D01*
X009634Y005578D01*
X009634Y005474D01*
X009582Y005422D01*
X009427Y005422D01*
X009427Y005319D02*
X009427Y005629D01*
X009531Y005422D02*
X009634Y005319D01*
X009749Y005319D02*
X009956Y005319D01*
X009853Y005319D02*
X009853Y005629D01*
X009749Y005526D01*
X010072Y005526D02*
X010123Y005474D01*
X010279Y005474D01*
X010279Y005371D02*
X010279Y005578D01*
X010227Y005629D01*
X010123Y005629D01*
X010072Y005578D01*
X010072Y005526D01*
X010072Y005371D02*
X010123Y005319D01*
X010227Y005319D01*
X010279Y005371D01*
X010213Y005206D02*
X010264Y005154D01*
X010264Y005103D01*
X010213Y005051D01*
X010109Y005051D01*
X010057Y005103D01*
X010057Y005154D01*
X010109Y005206D01*
X010213Y005206D01*
X010213Y005051D02*
X010264Y004999D01*
X010264Y004948D01*
X010213Y004896D01*
X010109Y004896D01*
X010057Y004948D01*
X010057Y004999D01*
X010109Y005051D01*
X009942Y004896D02*
X009735Y004896D01*
X009839Y004896D02*
X009839Y005206D01*
X009735Y005103D01*
X009620Y005154D02*
X009568Y005206D01*
X009413Y005206D01*
X009413Y004896D01*
X009413Y004999D02*
X009568Y004999D01*
X009620Y005051D01*
X009620Y005154D01*
X009516Y004999D02*
X009620Y004896D01*
X009553Y002389D02*
X009397Y002389D01*
X009397Y002079D01*
X009397Y002182D02*
X009553Y002182D01*
X009604Y002234D01*
X009604Y002337D01*
X009553Y002389D01*
X009720Y002285D02*
X009823Y002389D01*
X009823Y002079D01*
X009720Y002079D02*
X009927Y002079D01*
X010042Y002079D02*
X010042Y002130D01*
X010249Y002337D01*
X010249Y002389D01*
X010042Y002389D01*
X010097Y001947D02*
X010200Y001947D01*
X010252Y001896D01*
X010045Y001689D01*
X010097Y001637D01*
X010200Y001637D01*
X010252Y001689D01*
X010252Y001896D01*
X010097Y001947D02*
X010045Y001896D01*
X010045Y001689D01*
X009930Y001637D02*
X009723Y001637D01*
X009930Y001844D01*
X009930Y001896D01*
X009878Y001947D01*
X009774Y001947D01*
X009723Y001896D01*
X009607Y001896D02*
X009556Y001947D01*
X009452Y001947D01*
X009400Y001896D01*
X009400Y001689D01*
X009452Y001637D01*
X009556Y001637D01*
X009607Y001689D01*
X009604Y002079D02*
X009501Y002182D01*
X002448Y006235D02*
X002448Y006465D01*
X002371Y006542D01*
X002064Y006542D01*
X001987Y006465D01*
X001987Y006235D01*
X002448Y006235D01*
X002448Y006695D02*
X001987Y006695D01*
X002448Y007002D01*
X001987Y007002D01*
X001987Y007156D02*
X001987Y007386D01*
X002064Y007463D01*
X002218Y007463D01*
X002294Y007386D01*
X002294Y007156D01*
X002448Y007156D02*
X001987Y007156D01*
X001874Y005938D02*
X001771Y005834D01*
X001771Y005886D02*
X001771Y005731D01*
X001874Y005731D02*
X001564Y005731D01*
X001564Y005886D01*
X001616Y005938D01*
X001719Y005938D01*
X001771Y005886D01*
X001874Y005615D02*
X001874Y005408D01*
X001564Y005408D01*
X001564Y005615D01*
X001719Y005512D02*
X001719Y005408D01*
X001616Y005293D02*
X001823Y005293D01*
X001874Y005241D01*
X001874Y005086D01*
X001564Y005086D01*
X001564Y005241D01*
X001616Y005293D01*
X001364Y005260D02*
X001054Y005260D01*
X001054Y005157D02*
X001054Y005364D01*
X001054Y005479D02*
X001054Y005686D01*
X001054Y005583D02*
X001364Y005583D01*
X001364Y005801D02*
X001054Y005801D01*
X001364Y005801D02*
X001364Y006008D01*
X001874Y004971D02*
X001874Y004764D01*
X001564Y004764D01*
X001616Y004649D02*
X001564Y004597D01*
X001564Y004493D01*
X001616Y004442D01*
X001823Y004442D01*
X001874Y004493D01*
X001874Y004597D01*
X001823Y004649D01*
X001616Y004649D01*
X001564Y004326D02*
X001874Y004326D01*
X001719Y004326D02*
X001719Y004119D01*
X001874Y004119D02*
X001564Y004119D01*
X001564Y004004D02*
X001874Y004004D01*
X001874Y003797D02*
X001564Y003797D01*
X001667Y003901D01*
X001564Y004004D01*
X001564Y003686D02*
X001564Y003582D01*
X001564Y003634D02*
X001874Y003634D01*
X001874Y003582D02*
X001874Y003686D01*
X001823Y003467D02*
X001874Y003415D01*
X001874Y003312D01*
X001823Y003260D01*
X001719Y003312D02*
X001667Y003260D01*
X001616Y003260D01*
X001564Y003312D01*
X001564Y003415D01*
X001616Y003467D01*
X001719Y003415D02*
X001771Y003467D01*
X001823Y003467D01*
X001719Y003415D02*
X001719Y003312D01*
X003307Y012905D02*
X003514Y012905D01*
X003565Y012957D01*
X003565Y013060D01*
X003514Y013112D01*
X003565Y013227D02*
X003359Y013434D01*
X003307Y013434D01*
X003255Y013382D01*
X003255Y013279D01*
X003307Y013227D01*
X003307Y013112D02*
X003255Y013060D01*
X003255Y012957D01*
X003307Y012905D01*
X003565Y013227D02*
X003565Y013434D01*
X003870Y014675D02*
X003766Y014779D01*
X003870Y014882D01*
X004077Y014882D01*
X003973Y014998D02*
X004077Y015101D01*
X003973Y015204D01*
X003766Y015204D01*
X003766Y015320D02*
X003766Y015475D01*
X003818Y015527D01*
X003921Y015527D01*
X003973Y015475D01*
X003973Y015320D01*
X003973Y015423D02*
X004077Y015527D01*
X004077Y015642D02*
X004077Y015746D01*
X004077Y015694D02*
X003766Y015694D01*
X003766Y015642D02*
X003766Y015746D01*
X003818Y015857D02*
X003766Y015909D01*
X003766Y016012D01*
X003818Y016064D01*
X003921Y016012D02*
X003973Y016064D01*
X004025Y016064D01*
X004077Y016012D01*
X004077Y015909D01*
X004025Y015857D01*
X003921Y015909D02*
X003921Y016012D01*
X003921Y015909D02*
X003870Y015857D01*
X003818Y015857D01*
X003766Y016179D02*
X003766Y016334D01*
X003818Y016386D01*
X003921Y016386D01*
X003973Y016334D01*
X003973Y016179D01*
X004077Y016179D02*
X003766Y016179D01*
X003899Y016660D02*
X004003Y016660D01*
X004054Y016712D01*
X004170Y016660D02*
X004377Y016660D01*
X004273Y016660D02*
X004273Y016970D01*
X004170Y016867D01*
X004054Y016919D02*
X004003Y016970D01*
X003899Y016970D01*
X003847Y016919D01*
X003847Y016712D01*
X003899Y016660D01*
X004492Y016712D02*
X004544Y016660D01*
X004647Y016660D01*
X004699Y016712D01*
X004699Y016763D01*
X004647Y016815D01*
X004492Y016815D01*
X004492Y016712D01*
X004492Y016815D02*
X004595Y016919D01*
X004699Y016970D01*
X005164Y016919D02*
X005164Y016712D01*
X005216Y016660D01*
X005319Y016660D01*
X005371Y016712D01*
X005486Y016660D02*
X005693Y016660D01*
X005590Y016660D02*
X005590Y016970D01*
X005486Y016867D01*
X005371Y016919D02*
X005319Y016970D01*
X005216Y016970D01*
X005164Y016919D01*
X004981Y016029D02*
X004929Y016029D01*
X004878Y015978D01*
X004878Y015926D01*
X004878Y015978D02*
X004826Y016029D01*
X004774Y016029D01*
X004723Y015978D01*
X004723Y015874D01*
X004774Y015822D01*
X004723Y015707D02*
X004981Y015707D01*
X005033Y015655D01*
X005033Y015552D01*
X004981Y015500D01*
X004723Y015500D01*
X004981Y015822D02*
X005033Y015874D01*
X005033Y015978D01*
X004981Y016029D01*
X004077Y015320D02*
X003766Y015320D01*
X003766Y014998D02*
X003973Y014998D01*
X003921Y014882D02*
X003921Y014675D01*
X003870Y014675D02*
X004077Y014675D01*
X005014Y013439D02*
X005066Y013439D01*
X005273Y013232D01*
X005324Y013232D01*
X005273Y013117D02*
X005324Y013065D01*
X005324Y012962D01*
X005273Y012910D01*
X005066Y012910D01*
X005014Y012962D01*
X005014Y013065D01*
X005066Y013117D01*
X005014Y013232D02*
X005014Y013439D01*
X006116Y017110D02*
X006323Y017110D01*
X006374Y017162D01*
X006374Y017265D01*
X006323Y017317D01*
X006374Y017432D02*
X006374Y017639D01*
X006374Y017536D02*
X006064Y017536D01*
X006167Y017432D01*
X006116Y017317D02*
X006064Y017265D01*
X006064Y017162D01*
X006116Y017110D01*
X006064Y017755D02*
X006064Y017961D01*
X006116Y017961D01*
X006323Y017755D01*
X006374Y017755D01*
X006591Y018260D02*
X006694Y018260D01*
X006746Y018312D01*
X006861Y018260D02*
X007068Y018260D01*
X006965Y018260D02*
X006965Y018570D01*
X006861Y018467D01*
X006746Y018519D02*
X006694Y018570D01*
X006591Y018570D01*
X006539Y018519D01*
X006539Y018312D01*
X006591Y018260D01*
X006424Y018360D02*
X006114Y018567D01*
X006217Y018682D02*
X006114Y018786D01*
X006424Y018786D01*
X006424Y018889D02*
X006424Y018682D01*
X006424Y018567D02*
X006114Y018360D01*
X007184Y018363D02*
X007235Y018415D01*
X007339Y018415D01*
X007391Y018363D01*
X007391Y018312D01*
X007339Y018260D01*
X007235Y018260D01*
X007184Y018312D01*
X007184Y018363D01*
X007235Y018415D02*
X007184Y018467D01*
X007184Y018519D01*
X007235Y018570D01*
X007339Y018570D01*
X007391Y018519D01*
X007391Y018467D01*
X007339Y018415D01*
X007489Y018363D02*
X007644Y018363D01*
X007696Y018415D01*
X007696Y018519D01*
X007644Y018570D01*
X007489Y018570D01*
X007489Y018260D01*
X007593Y018363D02*
X007696Y018260D01*
X007811Y018260D02*
X008018Y018260D01*
X007915Y018260D02*
X007915Y018570D01*
X007811Y018467D01*
X008134Y018519D02*
X008185Y018570D01*
X008289Y018570D01*
X008341Y018519D01*
X008341Y018467D01*
X008134Y018260D01*
X008341Y018260D01*
X009664Y018232D02*
X009664Y018439D01*
X009716Y018439D01*
X009923Y018232D01*
X009974Y018232D01*
X009974Y018117D02*
X009871Y018013D01*
X009923Y017910D02*
X009716Y017910D01*
X009664Y017962D01*
X009664Y018065D01*
X009716Y018117D01*
X009923Y018117D01*
X009974Y018065D01*
X009974Y017962D01*
X009923Y017910D01*
X009973Y017653D02*
X009973Y017446D01*
X009766Y017653D01*
X009714Y017653D01*
X009662Y017601D01*
X009662Y017497D01*
X009714Y017446D01*
X009714Y017330D02*
X009818Y017330D01*
X009869Y017279D01*
X009869Y017123D01*
X009973Y017123D02*
X009662Y017123D01*
X009662Y017279D01*
X009714Y017330D01*
X009869Y017227D02*
X009973Y017330D01*
X008146Y020905D02*
X007939Y020905D01*
X007939Y021215D01*
X007823Y021215D02*
X007616Y021215D01*
X007616Y020905D01*
X007823Y020905D01*
X007720Y021060D02*
X007616Y021060D01*
X007501Y020905D02*
X007501Y021215D01*
X007294Y021215D02*
X007294Y020905D01*
X007179Y020905D02*
X007179Y021112D01*
X007075Y021215D01*
X006972Y021112D01*
X006972Y020905D01*
X006972Y021060D02*
X007179Y021060D01*
X007294Y021215D02*
X007501Y020905D01*
X006857Y021060D02*
X006805Y021008D01*
X006650Y021008D01*
X006650Y020905D02*
X006650Y021215D01*
X006805Y021215D01*
X006857Y021163D01*
X006857Y021060D01*
X006433Y022178D02*
X006123Y022178D01*
X006123Y022333D01*
X006175Y022385D01*
X006278Y022385D01*
X006330Y022333D01*
X006330Y022178D01*
X006330Y022282D02*
X006433Y022385D01*
X006433Y022500D02*
X006433Y022707D01*
X006433Y022604D02*
X006123Y022604D01*
X006226Y022500D01*
X006278Y022823D02*
X006123Y022823D01*
X006123Y023030D01*
X006226Y022978D02*
X006278Y023030D01*
X006382Y023030D01*
X006433Y022978D01*
X006433Y022874D01*
X006382Y022823D01*
X006278Y022823D02*
X006226Y022926D01*
X006226Y022978D01*
X004821Y022228D02*
X004821Y022124D01*
X004769Y022073D01*
X004666Y022073D01*
X004666Y022228D01*
X004717Y022280D01*
X004769Y022280D01*
X004821Y022228D01*
X004666Y022073D02*
X004562Y022176D01*
X004510Y022280D01*
X004821Y021957D02*
X004821Y021750D01*
X004821Y021854D02*
X004510Y021854D01*
X004614Y021750D01*
X004666Y021635D02*
X004717Y021583D01*
X004717Y021428D01*
X004717Y021532D02*
X004821Y021635D01*
X004666Y021635D02*
X004562Y021635D01*
X004510Y021583D01*
X004510Y021428D01*
X004821Y021428D01*
X004840Y021321D02*
X004840Y021114D01*
X004840Y021218D02*
X004530Y021218D01*
X004634Y021114D01*
X004685Y020999D02*
X004737Y020947D01*
X004737Y020792D01*
X004737Y020895D02*
X004840Y020999D01*
X004685Y020999D02*
X004582Y020999D01*
X004530Y020947D01*
X004530Y020792D01*
X004840Y020792D01*
X004801Y020571D02*
X004853Y020519D01*
X004853Y020416D01*
X004801Y020364D01*
X004750Y020364D01*
X004698Y020416D01*
X004698Y020519D01*
X004750Y020571D01*
X004801Y020571D01*
X004698Y020519D02*
X004646Y020571D01*
X004594Y020571D01*
X004543Y020519D01*
X004543Y020416D01*
X004594Y020364D01*
X004646Y020364D01*
X004698Y020416D01*
X004698Y020249D02*
X004750Y020197D01*
X004750Y020042D01*
X004853Y020042D02*
X004543Y020042D01*
X004543Y020197D01*
X004594Y020249D01*
X004698Y020249D01*
X004750Y020145D02*
X004853Y020249D01*
X004789Y019893D02*
X004841Y019842D01*
X004841Y019738D01*
X004789Y019686D01*
X004737Y019686D01*
X004685Y019738D01*
X004685Y019842D01*
X004737Y019893D01*
X004789Y019893D01*
X004685Y019842D02*
X004634Y019893D01*
X004582Y019893D01*
X004530Y019842D01*
X004530Y019738D01*
X004582Y019686D01*
X004634Y019686D01*
X004685Y019738D01*
X004634Y019571D02*
X004582Y019571D01*
X004530Y019519D01*
X004530Y019416D01*
X004582Y019364D01*
X004582Y019249D02*
X004685Y019249D01*
X004737Y019197D01*
X004737Y019042D01*
X004737Y019145D02*
X004841Y019249D01*
X004841Y019364D02*
X004634Y019571D01*
X004841Y019571D02*
X004841Y019364D01*
X004582Y019249D02*
X004530Y019197D01*
X004530Y019042D01*
X004841Y019042D01*
X003397Y019112D02*
X003086Y019112D01*
X003242Y018957D01*
X003242Y019164D01*
X003397Y018841D02*
X003397Y018635D01*
X003397Y018738D02*
X003086Y018738D01*
X003190Y018635D01*
X003242Y018519D02*
X003293Y018467D01*
X003293Y018312D01*
X003397Y018312D02*
X003086Y018312D01*
X003086Y018467D01*
X003138Y018519D01*
X003242Y018519D01*
X003293Y018416D02*
X003397Y018519D01*
X003373Y018161D02*
X003166Y018161D01*
X003373Y017955D01*
X003424Y018006D01*
X003424Y018110D01*
X003373Y018161D01*
X003373Y017955D02*
X003166Y017955D01*
X003114Y018006D01*
X003114Y018110D01*
X003166Y018161D01*
X003166Y017839D02*
X003114Y017787D01*
X003114Y017684D01*
X003166Y017632D01*
X003166Y017517D02*
X003269Y017517D01*
X003321Y017465D01*
X003321Y017310D01*
X003424Y017310D02*
X003114Y017310D01*
X003114Y017465D01*
X003166Y017517D01*
X003321Y017413D02*
X003424Y017517D01*
X003424Y017632D02*
X003217Y017839D01*
X003166Y017839D01*
X003424Y017839D02*
X003424Y017632D01*
X002541Y017261D02*
X002541Y017214D01*
X002495Y017167D01*
X002541Y017121D01*
X002541Y017074D01*
X002495Y017027D01*
X002401Y017027D01*
X002355Y017074D01*
X002247Y017027D02*
X002153Y017121D01*
X002200Y017121D02*
X002060Y017121D01*
X002060Y017027D02*
X002060Y017307D01*
X002200Y017307D01*
X002247Y017261D01*
X002247Y017167D01*
X002200Y017121D01*
X002355Y017261D02*
X002401Y017307D01*
X002495Y017307D01*
X002541Y017261D01*
X002495Y017167D02*
X002448Y017167D01*
X001596Y017197D02*
X001549Y017150D01*
X001456Y017150D01*
X001409Y017197D01*
X001409Y017244D01*
X001456Y017290D01*
X001549Y017290D01*
X001596Y017244D01*
X001596Y017197D01*
X001549Y017150D02*
X001596Y017103D01*
X001596Y017057D01*
X001549Y017010D01*
X001456Y017010D01*
X001409Y017057D01*
X001409Y017103D01*
X001456Y017150D01*
X001301Y017057D02*
X001254Y017010D01*
X001161Y017010D01*
X001114Y017057D01*
X001114Y017244D01*
X001161Y017290D01*
X001254Y017290D01*
X001301Y017244D01*
X000574Y017610D02*
X000264Y017610D01*
X000264Y017765D01*
X000316Y017817D01*
X000419Y017817D01*
X000471Y017765D01*
X000471Y017610D01*
X000471Y017713D02*
X000574Y017817D01*
X000574Y017932D02*
X000367Y018139D01*
X000316Y018139D01*
X000264Y018087D01*
X000264Y017984D01*
X000316Y017932D01*
X000574Y017932D02*
X000574Y018139D01*
X000574Y018255D02*
X000574Y018461D01*
X000574Y018358D02*
X000264Y018358D01*
X000367Y018255D01*
X000443Y018615D02*
X000443Y018770D01*
X000392Y018822D01*
X000288Y018822D01*
X000236Y018770D01*
X000236Y018615D01*
X000547Y018615D01*
X000443Y018719D02*
X000547Y018822D01*
X000547Y018938D02*
X000547Y019144D01*
X000547Y019041D02*
X000236Y019041D01*
X000340Y018938D01*
X000288Y019260D02*
X000236Y019312D01*
X000236Y019415D01*
X000288Y019467D01*
X000340Y019467D01*
X000392Y019415D01*
X000443Y019467D01*
X000495Y019467D01*
X000547Y019415D01*
X000547Y019312D01*
X000495Y019260D01*
X000392Y019363D02*
X000392Y019415D01*
X001514Y020207D02*
X001561Y020160D01*
X001654Y020160D01*
X001701Y020207D01*
X001701Y020394D01*
X001654Y020440D01*
X001561Y020440D01*
X001514Y020394D01*
X001514Y020207D01*
X001608Y020253D02*
X001701Y020160D01*
X001809Y020207D02*
X001856Y020160D01*
X001949Y020160D01*
X001996Y020207D01*
X001996Y020253D01*
X001949Y020300D01*
X001809Y020300D01*
X001809Y020207D01*
X001809Y020300D02*
X001902Y020394D01*
X001996Y020440D01*
X002714Y020394D02*
X002714Y020207D01*
X002761Y020160D01*
X002854Y020160D01*
X002901Y020207D01*
X002901Y020394D01*
X002854Y020440D01*
X002761Y020440D01*
X002714Y020394D01*
X002808Y020253D02*
X002901Y020160D01*
X003009Y020207D02*
X003056Y020160D01*
X003149Y020160D01*
X003196Y020207D01*
X003196Y020300D01*
X003149Y020347D01*
X003102Y020347D01*
X003009Y020300D01*
X003009Y020440D01*
X003196Y020440D01*
X008261Y021060D02*
X008468Y021060D01*
X014865Y017003D02*
X014865Y016796D01*
X015020Y016796D01*
X014968Y016900D01*
X014968Y016952D01*
X015020Y017003D01*
X015123Y017003D01*
X015175Y016952D01*
X015175Y016848D01*
X015123Y016796D01*
X015123Y016681D02*
X014865Y016681D01*
X014865Y016474D02*
X015123Y016474D01*
X015175Y016526D01*
X015175Y016629D01*
X015123Y016681D01*
D210*
X016058Y014545D02*
X016009Y014497D01*
X016009Y014303D01*
X016058Y014255D01*
X016154Y014255D01*
X016203Y014303D01*
X016304Y014303D02*
X016352Y014255D01*
X016401Y014255D01*
X016449Y014303D01*
X016449Y014545D01*
X016401Y014545D02*
X016497Y014545D01*
X016599Y014497D02*
X016647Y014545D01*
X016744Y014545D01*
X016792Y014497D01*
X016792Y014448D01*
X016599Y014255D01*
X016792Y014255D01*
X016893Y014303D02*
X016942Y014255D01*
X017038Y014255D01*
X017087Y014303D01*
X017087Y014352D01*
X017038Y014400D01*
X016990Y014400D01*
X017038Y014400D02*
X017087Y014448D01*
X017087Y014497D01*
X017038Y014545D01*
X016942Y014545D01*
X016893Y014497D01*
X017188Y014497D02*
X017188Y014303D01*
X017381Y014497D01*
X017381Y014303D01*
X017333Y014255D01*
X017236Y014255D01*
X017188Y014303D01*
X017188Y014497D02*
X017236Y014545D01*
X017333Y014545D01*
X017381Y014497D01*
X017482Y014497D02*
X017531Y014545D01*
X017628Y014545D01*
X017676Y014497D01*
X017676Y014448D01*
X017482Y014255D01*
X017676Y014255D01*
X016203Y014497D02*
X016154Y014545D01*
X016058Y014545D01*
X021580Y018056D02*
X021727Y018203D01*
X021727Y018240D01*
X021690Y018277D01*
X021617Y018277D01*
X021580Y018240D01*
X021580Y018056D02*
X021727Y018056D01*
X021810Y018166D02*
X021957Y018166D01*
X022040Y018130D02*
X022151Y018203D01*
X022040Y018130D02*
X022151Y018056D01*
X022232Y017983D02*
X022306Y018056D01*
X022269Y018056D01*
X022269Y018093D01*
X022306Y018093D01*
X022306Y018056D01*
X022386Y018056D02*
X022533Y018056D01*
X022459Y018056D02*
X022459Y018277D01*
X022386Y018203D01*
X022616Y018240D02*
X022616Y018277D01*
X022653Y018277D01*
X022653Y018240D01*
X022616Y018240D01*
X022616Y018056D02*
X022799Y018277D01*
X022799Y018093D02*
X022799Y018056D01*
X022763Y018056D01*
X022763Y018093D01*
X022799Y018093D01*
X022240Y018594D02*
X022314Y018668D01*
X022277Y018668D01*
X022277Y018704D01*
X022314Y018704D01*
X022314Y018668D01*
X022394Y018668D02*
X022540Y018668D01*
X022467Y018668D02*
X022467Y018888D01*
X022394Y018815D01*
X022624Y018851D02*
X022624Y018888D01*
X022661Y018888D01*
X022661Y018851D01*
X022624Y018851D01*
X022624Y018668D02*
X022807Y018888D01*
X022807Y018704D02*
X022807Y018668D01*
X022771Y018668D01*
X022771Y018704D01*
X022807Y018704D01*
X022158Y018668D02*
X022048Y018741D01*
X022158Y018815D01*
X022048Y018888D02*
X022048Y018668D01*
X021965Y018704D02*
X021928Y018668D01*
X021855Y018668D01*
X021818Y018704D01*
X021965Y018851D01*
X021965Y018704D01*
X021818Y018704D02*
X021818Y018851D01*
X021855Y018888D01*
X021928Y018888D01*
X021965Y018851D01*
X021735Y018668D02*
X021588Y018668D01*
X021661Y018668D02*
X021661Y018888D01*
X021588Y018815D01*
X021920Y018277D02*
X021810Y018166D01*
X021920Y018056D02*
X021920Y018277D01*
X022040Y018277D02*
X022040Y018056D01*
X018733Y022984D02*
X018733Y023274D01*
X018588Y023129D01*
X018781Y023129D01*
X018487Y023129D02*
X018487Y023033D01*
X018438Y022984D01*
X018342Y022984D01*
X018293Y023033D01*
X018293Y023129D02*
X018390Y023178D01*
X018438Y023178D01*
X018487Y023129D01*
X018487Y023274D02*
X018293Y023274D01*
X018293Y023129D01*
X018192Y023081D02*
X018192Y023033D01*
X018144Y022984D01*
X018047Y022984D01*
X017998Y023033D01*
X017897Y023033D02*
X017849Y022984D01*
X017752Y022984D01*
X017704Y023033D01*
X017752Y023129D02*
X017704Y023178D01*
X017704Y023226D01*
X017752Y023274D01*
X017849Y023274D01*
X017897Y023226D01*
X017998Y023226D02*
X017998Y023178D01*
X018047Y023129D01*
X018144Y023129D01*
X018192Y023081D01*
X018192Y023226D02*
X018144Y023274D01*
X018047Y023274D01*
X017998Y023226D01*
X017897Y023081D02*
X017897Y023033D01*
X017897Y023081D02*
X017849Y023129D01*
X017752Y023129D01*
X015182Y023110D02*
X014989Y023110D01*
X015134Y023255D01*
X015134Y022965D01*
X014888Y023013D02*
X014839Y022965D01*
X014743Y022965D01*
X014694Y023013D01*
X014694Y023110D02*
X014791Y023158D01*
X014839Y023158D01*
X014888Y023110D01*
X014888Y023013D01*
X014694Y023110D02*
X014694Y023255D01*
X014888Y023255D01*
X014593Y023207D02*
X014545Y023255D01*
X014448Y023255D01*
X014400Y023207D01*
X014400Y023158D01*
X014448Y023110D01*
X014545Y023110D01*
X014593Y023062D01*
X014593Y023013D01*
X014545Y022965D01*
X014448Y022965D01*
X014400Y023013D01*
X014299Y023013D02*
X014250Y022965D01*
X014153Y022965D01*
X014105Y023013D01*
X014153Y023110D02*
X014250Y023110D01*
X014299Y023062D01*
X014299Y023013D01*
X014153Y023110D02*
X014105Y023158D01*
X014105Y023207D01*
X014153Y023255D01*
X014250Y023255D01*
X014299Y023207D01*
X009833Y018345D02*
X009881Y018297D01*
X009881Y018248D01*
X009833Y018200D01*
X009881Y018152D01*
X009881Y018103D01*
X009833Y018055D01*
X009736Y018055D01*
X009688Y018103D01*
X009587Y018055D02*
X009393Y018055D01*
X009490Y018055D02*
X009490Y018345D01*
X009393Y018248D01*
X009292Y018297D02*
X009099Y018103D01*
X009147Y018055D01*
X009244Y018055D01*
X009292Y018103D01*
X009292Y018297D01*
X009244Y018345D01*
X009147Y018345D01*
X009099Y018297D01*
X009099Y018103D01*
X008997Y018103D02*
X008997Y018297D01*
X008949Y018345D01*
X008852Y018345D01*
X008804Y018297D01*
X008804Y018248D01*
X008852Y018200D01*
X008997Y018200D01*
X008997Y018103D02*
X008949Y018055D01*
X008852Y018055D01*
X008804Y018103D01*
X008703Y018103D02*
X008654Y018055D01*
X008558Y018055D01*
X008509Y018103D01*
X008558Y018200D02*
X008654Y018200D01*
X008703Y018152D01*
X008703Y018103D01*
X008558Y018200D02*
X008509Y018248D01*
X008509Y018297D01*
X008558Y018345D01*
X008654Y018345D01*
X008703Y018297D01*
X009688Y018297D02*
X009736Y018345D01*
X009833Y018345D01*
X009833Y018200D02*
X009785Y018200D01*
X004767Y015253D02*
X004396Y015253D01*
X004396Y015500D01*
X004581Y015377D02*
X004581Y015253D01*
X004520Y015132D02*
X004767Y015132D01*
X004767Y014947D01*
X004705Y014885D01*
X004520Y014885D01*
X004458Y014764D02*
X004705Y014517D01*
X004767Y014578D01*
X004767Y014702D01*
X004705Y014764D01*
X004458Y014764D01*
X004396Y014702D01*
X004396Y014578D01*
X004458Y014517D01*
X004705Y014517D01*
X004767Y014395D02*
X004767Y014148D01*
X004767Y014272D02*
X004396Y014272D01*
X004520Y014148D01*
X004643Y013659D02*
X004396Y013659D01*
X004643Y013659D02*
X004767Y013535D01*
X004643Y013412D01*
X004396Y013412D01*
X004396Y013290D02*
X004458Y013167D01*
X004581Y013043D01*
X004581Y013229D01*
X004643Y013290D01*
X004705Y013290D01*
X004767Y013229D01*
X004767Y013105D01*
X004705Y013043D01*
X004581Y013043D01*
X004767Y012922D02*
X004767Y012675D01*
X004767Y012799D02*
X004396Y012799D01*
X004520Y012675D01*
X008719Y012325D02*
X008719Y012105D01*
X008719Y012178D02*
X008829Y012178D01*
X008865Y012215D01*
X008865Y012288D01*
X008829Y012325D01*
X008719Y012325D01*
X008792Y012178D02*
X008865Y012105D01*
X008949Y012105D02*
X009096Y012252D01*
X009096Y012288D01*
X009059Y012325D01*
X008986Y012325D01*
X008949Y012288D01*
X008949Y012105D02*
X009096Y012105D01*
X009179Y012142D02*
X009216Y012105D01*
X009289Y012105D01*
X009326Y012142D01*
X009326Y012178D01*
X009289Y012215D01*
X009252Y012215D01*
X009289Y012215D02*
X009326Y012252D01*
X009326Y012288D01*
X009289Y012325D01*
X009216Y012325D01*
X009179Y012288D01*
X009163Y011325D02*
X009260Y011325D01*
X009308Y011277D01*
X009308Y011228D01*
X009260Y011180D01*
X009308Y011132D01*
X009308Y011083D01*
X009260Y011035D01*
X009163Y011035D01*
X009115Y011083D01*
X009013Y011035D02*
X008820Y011035D01*
X009013Y011228D01*
X009013Y011277D01*
X008965Y011325D01*
X008868Y011325D01*
X008820Y011277D01*
X008719Y011277D02*
X008670Y011325D01*
X008574Y011325D01*
X008525Y011277D01*
X008525Y011083D01*
X008574Y011035D01*
X008670Y011035D01*
X008719Y011083D01*
X009115Y011277D02*
X009163Y011325D01*
X009211Y011180D02*
X009260Y011180D01*
X010196Y009150D02*
X010196Y008903D01*
X010567Y008903D01*
X010567Y008782D02*
X010320Y008782D01*
X010381Y008903D02*
X010381Y009027D01*
X010567Y008782D02*
X010567Y008597D01*
X010505Y008535D01*
X010320Y008535D01*
X010258Y008414D02*
X010505Y008167D01*
X010567Y008228D01*
X010567Y008352D01*
X010505Y008414D01*
X010258Y008414D01*
X010196Y008352D01*
X010196Y008228D01*
X010258Y008167D01*
X010505Y008167D01*
X010567Y008045D02*
X010567Y007798D01*
X010567Y007922D02*
X010196Y007922D01*
X010320Y007798D01*
X010443Y007309D02*
X010196Y007309D01*
X010443Y007309D02*
X010567Y007185D01*
X010443Y007062D01*
X010196Y007062D01*
X010196Y006940D02*
X010258Y006817D01*
X010381Y006693D01*
X010381Y006879D01*
X010443Y006940D01*
X010505Y006940D01*
X010567Y006879D01*
X010567Y006755D01*
X010505Y006693D01*
X010381Y006693D01*
X010567Y006572D02*
X010567Y006325D01*
X010567Y006449D02*
X010196Y006449D01*
X010320Y006325D01*
X012561Y000992D02*
X012684Y000746D01*
X012808Y000992D01*
X012929Y001054D02*
X012991Y001116D01*
X013114Y001116D01*
X013176Y001054D01*
X013176Y000992D01*
X012929Y000746D01*
X013176Y000746D01*
X013297Y000746D02*
X013359Y000746D01*
X013359Y000807D01*
X013297Y000807D01*
X013297Y000746D01*
X013482Y000746D02*
X013482Y000807D01*
X013728Y001054D01*
X013728Y001116D01*
X013482Y001116D01*
X014218Y000931D02*
X014342Y000931D01*
X014464Y000931D02*
X014525Y000992D01*
X014649Y000992D01*
X014711Y000931D01*
X014711Y000869D01*
X014464Y000869D01*
X014464Y000807D02*
X014464Y000931D01*
X014464Y000807D02*
X014525Y000746D01*
X014649Y000746D01*
X014832Y000746D02*
X015017Y000746D01*
X015079Y000807D01*
X015079Y000931D01*
X015017Y000992D01*
X014832Y000992D01*
X014832Y001116D02*
X014832Y000746D01*
X015200Y000746D02*
X015200Y000992D01*
X015200Y000869D02*
X015324Y000992D01*
X015386Y000992D01*
X015507Y000992D02*
X015507Y000807D01*
X015569Y000746D01*
X015754Y000746D01*
X015754Y000992D01*
X015937Y000992D02*
X016061Y000992D01*
X016123Y000931D01*
X016123Y000746D01*
X015937Y000746D01*
X015876Y000807D01*
X015937Y000869D01*
X016123Y000869D01*
X016244Y000869D02*
X016367Y000992D01*
X016429Y000992D01*
X016551Y000992D02*
X016551Y000807D01*
X016613Y000746D01*
X016798Y000746D01*
X016798Y000684D02*
X016736Y000622D01*
X016674Y000622D01*
X016798Y000684D02*
X016798Y000992D01*
X017288Y001054D02*
X017349Y001116D01*
X017473Y001116D01*
X017534Y001054D01*
X017534Y000992D01*
X017288Y000746D01*
X017534Y000746D01*
X017656Y000807D02*
X017903Y001054D01*
X017903Y000807D01*
X017841Y000746D01*
X017718Y000746D01*
X017656Y000807D01*
X017656Y001054D01*
X017718Y001116D01*
X017841Y001116D01*
X017903Y001054D01*
X018024Y000992D02*
X018148Y001116D01*
X018148Y000746D01*
X018271Y000746D02*
X018024Y000746D01*
X018392Y000931D02*
X018639Y000931D01*
X018578Y000746D02*
X018578Y001116D01*
X018392Y000931D01*
X016244Y000992D02*
X016244Y000746D01*
X014342Y001116D02*
X014280Y001054D01*
X014280Y000746D01*
X003283Y019605D02*
X003186Y019605D01*
X003138Y019653D01*
X003037Y019605D02*
X002843Y019605D01*
X002940Y019605D02*
X002940Y019895D01*
X002843Y019798D01*
X002742Y019847D02*
X002549Y019653D01*
X002597Y019605D01*
X002694Y019605D01*
X002742Y019653D01*
X002742Y019847D01*
X002694Y019895D01*
X002597Y019895D01*
X002549Y019847D01*
X002549Y019653D01*
X002447Y019653D02*
X002447Y019847D01*
X002399Y019895D01*
X002302Y019895D01*
X002254Y019847D01*
X002254Y019798D01*
X002302Y019750D01*
X002447Y019750D01*
X002447Y019653D02*
X002399Y019605D01*
X002302Y019605D01*
X002254Y019653D01*
X002153Y019653D02*
X002104Y019605D01*
X002008Y019605D01*
X001959Y019653D01*
X001936Y019605D02*
X001888Y019653D01*
X001936Y019605D02*
X002033Y019605D01*
X002081Y019653D01*
X002081Y019702D01*
X002033Y019750D01*
X001985Y019750D01*
X002008Y019750D02*
X002104Y019750D01*
X002153Y019702D01*
X002153Y019653D01*
X002033Y019750D02*
X002081Y019798D01*
X002081Y019847D01*
X002033Y019895D01*
X001936Y019895D01*
X001888Y019847D01*
X001959Y019847D02*
X001959Y019798D01*
X002008Y019750D01*
X001959Y019847D02*
X002008Y019895D01*
X002104Y019895D01*
X002153Y019847D01*
X001787Y019605D02*
X001593Y019605D01*
X001690Y019605D02*
X001690Y019895D01*
X001593Y019798D01*
X001492Y019847D02*
X001492Y019653D01*
X001444Y019605D01*
X001347Y019605D01*
X001299Y019653D01*
X001492Y019847D01*
X001444Y019895D01*
X001347Y019895D01*
X001299Y019847D01*
X001299Y019653D01*
X001197Y019653D02*
X001197Y019847D01*
X001149Y019895D01*
X001052Y019895D01*
X001004Y019847D01*
X001004Y019798D01*
X001052Y019750D01*
X001197Y019750D01*
X001197Y019653D02*
X001149Y019605D01*
X001052Y019605D01*
X001004Y019653D01*
X000903Y019653D02*
X000854Y019605D01*
X000758Y019605D01*
X000709Y019653D01*
X000758Y019750D02*
X000854Y019750D01*
X000903Y019702D01*
X000903Y019653D01*
X000758Y019750D02*
X000709Y019798D01*
X000709Y019847D01*
X000758Y019895D01*
X000854Y019895D01*
X000903Y019847D01*
X001609Y020646D02*
X001756Y020646D01*
X001839Y020646D02*
X001839Y020867D01*
X001986Y020646D01*
X001986Y020867D01*
X002070Y020793D02*
X002143Y020867D01*
X002216Y020793D01*
X002216Y020646D01*
X002300Y020646D02*
X002410Y020646D01*
X002447Y020683D01*
X002447Y020720D01*
X002410Y020756D01*
X002300Y020756D01*
X002216Y020756D02*
X002070Y020756D01*
X002070Y020793D02*
X002070Y020646D01*
X002300Y020646D02*
X002300Y020867D01*
X002410Y020867D01*
X002447Y020830D01*
X002447Y020793D01*
X002410Y020756D01*
X002530Y020646D02*
X002677Y020646D01*
X002760Y020646D02*
X002907Y020646D01*
X002990Y020646D02*
X003100Y020646D01*
X003137Y020683D01*
X003137Y020830D01*
X003100Y020867D01*
X002990Y020867D01*
X002990Y020646D01*
X002834Y020756D02*
X002760Y020756D01*
X002760Y020646D02*
X002760Y020867D01*
X002907Y020867D01*
X002910Y020984D02*
X002910Y021204D01*
X002994Y021167D02*
X002994Y021020D01*
X003031Y020984D01*
X003104Y020984D01*
X003141Y021020D01*
X003141Y021094D01*
X003067Y021094D01*
X002994Y021167D02*
X003031Y021204D01*
X003104Y021204D01*
X003141Y021167D01*
X003127Y021321D02*
X003053Y021395D01*
X003090Y021395D02*
X002980Y021395D01*
X002980Y021321D02*
X002980Y021541D01*
X003090Y021541D01*
X003127Y021505D01*
X003127Y021431D01*
X003090Y021395D01*
X002897Y021321D02*
X002750Y021321D01*
X002750Y021541D01*
X002897Y021541D01*
X002920Y021655D02*
X002920Y021875D01*
X003003Y021875D02*
X003150Y021875D01*
X003077Y021875D02*
X003077Y021655D01*
X002920Y021765D02*
X002773Y021765D01*
X002690Y021765D02*
X002616Y021765D01*
X002690Y021765D02*
X002690Y021692D01*
X002653Y021655D01*
X002580Y021655D01*
X002543Y021692D01*
X002543Y021838D01*
X002580Y021875D01*
X002653Y021875D01*
X002690Y021838D01*
X002773Y021875D02*
X002773Y021655D01*
X002666Y021541D02*
X002666Y021321D01*
X002593Y021395D01*
X002520Y021321D01*
X002520Y021541D01*
X002436Y021505D02*
X002400Y021541D01*
X002326Y021541D01*
X002289Y021505D01*
X002289Y021358D01*
X002326Y021321D01*
X002400Y021321D01*
X002436Y021358D01*
X002436Y021505D01*
X002426Y021655D02*
X002426Y021875D01*
X002389Y021875D02*
X002463Y021875D01*
X002559Y022005D02*
X002559Y022225D01*
X002706Y022005D01*
X002706Y022225D01*
X002789Y022225D02*
X002789Y022005D01*
X002936Y022005D01*
X002863Y022115D02*
X002789Y022115D01*
X002789Y022225D02*
X002936Y022225D01*
X003020Y022225D02*
X003166Y022225D01*
X003093Y022225D02*
X003093Y022005D01*
X002823Y021431D02*
X002750Y021431D01*
X002764Y021204D02*
X002910Y020984D01*
X002764Y020984D02*
X002764Y021204D01*
X002684Y021204D02*
X002610Y021204D01*
X002647Y021204D02*
X002647Y020984D01*
X002610Y020984D02*
X002684Y020984D01*
X002527Y021020D02*
X002527Y021094D01*
X002453Y021094D01*
X002380Y021167D02*
X002380Y021020D01*
X002417Y020984D01*
X002490Y020984D01*
X002527Y021020D01*
X002527Y021167D02*
X002490Y021204D01*
X002417Y021204D01*
X002380Y021167D01*
X002297Y021167D02*
X002297Y021094D01*
X002260Y021057D01*
X002150Y021057D01*
X002223Y021057D02*
X002297Y020984D01*
X002150Y020984D02*
X002150Y021204D01*
X002260Y021204D01*
X002297Y021167D01*
X002066Y021131D02*
X002066Y020984D01*
X002066Y021094D02*
X001920Y021094D01*
X001920Y021131D02*
X001993Y021204D01*
X002066Y021131D01*
X001920Y021131D02*
X001920Y020984D01*
X001836Y020984D02*
X001836Y021204D01*
X001836Y021094D02*
X001689Y021094D01*
X001689Y020984D02*
X001689Y021204D01*
X001606Y021167D02*
X001569Y021204D01*
X001496Y021204D01*
X001459Y021167D01*
X001459Y021020D01*
X001496Y020984D01*
X001569Y020984D01*
X001606Y021020D01*
X001609Y020867D02*
X001609Y020646D01*
X001609Y020756D02*
X001683Y020756D01*
X001756Y020867D02*
X001609Y020867D01*
X002059Y021321D02*
X002059Y021541D01*
X002169Y021541D01*
X002206Y021505D01*
X002206Y021431D01*
X002169Y021395D01*
X002059Y021395D01*
X002159Y021655D02*
X002306Y021655D01*
X002389Y021655D02*
X002463Y021655D01*
X002159Y021655D02*
X002159Y021875D01*
X002530Y020867D02*
X002530Y020646D01*
X003186Y019895D02*
X003283Y019895D01*
X003331Y019847D01*
X003331Y019798D01*
X003283Y019750D01*
X003331Y019702D01*
X003331Y019653D01*
X003283Y019605D01*
X003283Y019750D02*
X003235Y019750D01*
X003138Y019847D02*
X003186Y019895D01*
X003296Y022896D02*
X003259Y022933D01*
X003296Y022896D02*
X003369Y022896D01*
X003406Y022933D01*
X003406Y022969D01*
X003369Y023006D01*
X003296Y023006D01*
X003259Y023043D01*
X003259Y023079D01*
X003296Y023116D01*
X003369Y023116D01*
X003406Y023079D01*
X003489Y023116D02*
X003636Y023116D01*
X003563Y023116D02*
X003563Y022896D01*
X003720Y022896D02*
X003720Y023043D01*
X003793Y023116D01*
X003866Y023043D01*
X003866Y022896D01*
X003866Y023006D02*
X003720Y023006D01*
X003950Y023116D02*
X004097Y023116D01*
X004023Y023116D02*
X004023Y022896D01*
X004180Y022933D02*
X004217Y022896D01*
X004290Y022896D01*
X004327Y022933D01*
X004327Y023116D01*
X004410Y023079D02*
X004410Y023043D01*
X004447Y023006D01*
X004520Y023006D01*
X004557Y022969D01*
X004557Y022933D01*
X004520Y022896D01*
X004447Y022896D01*
X004410Y022933D01*
X004410Y023079D02*
X004447Y023116D01*
X004520Y023116D01*
X004557Y023079D01*
X004180Y023116D02*
X004180Y022933D01*
D211*
X008544Y016590D02*
X008546Y016614D01*
X008552Y016638D01*
X008561Y016660D01*
X008574Y016680D01*
X008590Y016698D01*
X008609Y016713D01*
X008630Y016726D01*
X008652Y016734D01*
X008676Y016739D01*
X008700Y016740D01*
X008724Y016737D01*
X008747Y016730D01*
X008769Y016720D01*
X008789Y016706D01*
X008806Y016689D01*
X008821Y016670D01*
X008832Y016649D01*
X008840Y016626D01*
X008844Y016602D01*
X008844Y016578D01*
X008840Y016554D01*
X008832Y016531D01*
X008821Y016510D01*
X008806Y016491D01*
X008789Y016474D01*
X008769Y016460D01*
X008747Y016450D01*
X008724Y016443D01*
X008700Y016440D01*
X008676Y016441D01*
X008652Y016446D01*
X008630Y016454D01*
X008609Y016467D01*
X008590Y016482D01*
X008574Y016500D01*
X008561Y016520D01*
X008552Y016542D01*
X008546Y016566D01*
X008544Y016590D01*
D212*
X020590Y011691D02*
X020592Y011717D01*
X020598Y011743D01*
X020607Y011767D01*
X020621Y011790D01*
X020637Y011811D01*
X020656Y011829D01*
X020678Y011843D01*
X020702Y011855D01*
X020727Y011863D01*
X020753Y011867D01*
X020779Y011867D01*
X020805Y011863D01*
X020830Y011855D01*
X020854Y011843D01*
X020876Y011829D01*
X020895Y011811D01*
X020911Y011790D01*
X020925Y011767D01*
X020934Y011743D01*
X020940Y011717D01*
X020942Y011691D01*
X020940Y011665D01*
X020934Y011639D01*
X020925Y011615D01*
X020911Y011592D01*
X020895Y011571D01*
X020876Y011553D01*
X020854Y011539D01*
X020830Y011527D01*
X020805Y011519D01*
X020779Y011515D01*
X020753Y011515D01*
X020727Y011519D01*
X020702Y011527D01*
X020678Y011539D01*
X020656Y011553D01*
X020637Y011571D01*
X020621Y011592D01*
X020607Y011615D01*
X020598Y011639D01*
X020592Y011665D01*
X020590Y011691D01*
D213*
X020530Y011455D02*
X019152Y011455D01*
X020530Y011455D02*
X020530Y010077D01*
X022248Y012379D02*
X022248Y013679D01*
X022948Y013679D01*
X022948Y012379D01*
X022248Y012379D01*
X022110Y012529D02*
X021610Y012529D01*
X021610Y013629D01*
X022110Y013629D01*
X022110Y012529D01*
X021498Y012529D02*
X020998Y012529D01*
X020998Y013629D01*
X021498Y013629D01*
X021498Y012529D01*
X022989Y013838D02*
X022989Y015538D01*
X019339Y015538D01*
X019339Y013838D01*
X022989Y013838D01*
X021839Y014688D02*
X021539Y014688D01*
X021689Y014838D02*
X021689Y014538D01*
X022281Y015756D02*
X020312Y015756D01*
X020286Y015758D01*
X020261Y015763D01*
X020237Y015771D01*
X020214Y015782D01*
X020192Y015797D01*
X020173Y015814D01*
X020156Y015833D01*
X020141Y015855D01*
X020130Y015878D01*
X020122Y015902D01*
X020117Y015927D01*
X020115Y015953D01*
X020115Y017922D01*
X020126Y017965D02*
X019826Y017965D01*
X019976Y017965D02*
X019976Y018415D01*
X019826Y018265D01*
X019666Y018340D02*
X019591Y018415D01*
X019365Y018415D01*
X019365Y017965D01*
X019591Y017965D01*
X019666Y018040D01*
X019666Y018340D01*
X019380Y018475D02*
X019380Y020404D01*
X019930Y020404D01*
X020130Y020190D02*
X020157Y020193D01*
X020184Y020199D01*
X020209Y020209D01*
X020233Y020221D01*
X020255Y020237D01*
X020274Y020256D01*
X020292Y020277D01*
X020306Y020300D01*
X020317Y020325D01*
X020325Y020350D01*
X020329Y020377D01*
X020330Y020404D01*
X020880Y020404D01*
X020880Y018475D01*
X019380Y018475D01*
X019205Y018415D02*
X018905Y018415D01*
X019055Y018415D02*
X019055Y017965D01*
X018542Y018780D02*
X018042Y018780D01*
X018042Y019880D01*
X018542Y019880D01*
X018542Y018780D01*
X020286Y018190D02*
X020586Y018190D01*
X020747Y018265D02*
X020897Y018415D01*
X020897Y017965D01*
X020747Y017965D02*
X021047Y017965D01*
X021207Y018040D02*
X021507Y018340D01*
X021507Y018040D01*
X021432Y017965D01*
X021282Y017965D01*
X021207Y018040D01*
X021207Y018340D01*
X021282Y018415D01*
X021432Y018415D01*
X021507Y018340D01*
X021665Y018366D02*
X021665Y018866D01*
X022765Y018866D01*
X022765Y018366D01*
X021665Y018366D01*
X021673Y018978D02*
X021673Y019478D01*
X022773Y019478D01*
X022773Y018978D01*
X021673Y018978D01*
X022281Y018119D02*
X020312Y018119D01*
X020286Y018190D02*
X020511Y018415D01*
X020511Y017965D01*
X020312Y018119D02*
X020286Y018117D01*
X020261Y018112D01*
X020237Y018104D01*
X020214Y018093D01*
X020192Y018078D01*
X020173Y018061D01*
X020156Y018042D01*
X020141Y018021D01*
X020130Y017997D01*
X020122Y017973D01*
X020117Y017948D01*
X020115Y017922D01*
X018732Y016577D02*
X018682Y016627D01*
X018282Y016627D01*
X018332Y016677D01*
X018632Y016677D01*
X018582Y016727D01*
X018382Y016727D01*
X018432Y016777D01*
X018532Y016777D01*
X018582Y016727D01*
X018532Y016777D02*
X018482Y016827D01*
X018432Y016777D01*
X018382Y016727D02*
X018332Y016677D01*
X018282Y016627D02*
X018232Y016577D01*
X018732Y016577D01*
X018782Y016527D01*
X018182Y016527D01*
X018232Y016577D01*
X018182Y016527D02*
X018132Y016477D01*
X018832Y016477D01*
X018782Y016527D01*
X018832Y016477D02*
X018882Y016427D01*
X018082Y016427D01*
X018132Y016477D01*
X018632Y016677D02*
X018682Y016627D01*
X017745Y015024D02*
X017245Y015024D01*
X017245Y013924D01*
X017745Y013924D01*
X017745Y015024D01*
X017069Y014740D02*
X017069Y014390D01*
X017069Y014740D02*
X016769Y014740D01*
X016569Y014240D02*
X016419Y014240D01*
X015919Y014390D02*
X015919Y014740D01*
X016219Y014740D01*
X015821Y015037D02*
X015321Y015037D01*
X015321Y013937D01*
X015821Y013937D01*
X015821Y015037D01*
X015144Y015040D02*
X015144Y013940D01*
X014644Y013940D01*
X014644Y015040D01*
X015144Y015040D01*
X014427Y015521D02*
X012927Y015521D01*
X012927Y019021D01*
X014427Y019021D01*
X014427Y015521D01*
X014363Y013553D02*
X010426Y013553D01*
X010426Y019459D01*
X010894Y019459D01*
X010894Y020640D01*
X011894Y020640D01*
X011894Y019459D01*
X012894Y019459D01*
X012894Y020640D01*
X013894Y020640D01*
X013894Y019459D01*
X014363Y019459D01*
X014363Y013553D01*
X012459Y011455D02*
X011081Y011455D01*
X011081Y010077D01*
X010544Y011440D02*
X009444Y011440D01*
X009444Y011940D01*
X010544Y011940D01*
X010544Y011440D01*
X009344Y011390D02*
X008044Y011390D01*
X008044Y012090D01*
X009344Y012090D01*
X009344Y011390D01*
X009394Y012390D02*
X008294Y012390D01*
X008294Y012890D01*
X009394Y012890D01*
X009394Y012390D01*
X009350Y013439D02*
X009350Y013939D01*
X010450Y013939D01*
X010450Y013439D01*
X009350Y013439D01*
X009350Y014033D02*
X009350Y014533D01*
X010450Y014533D01*
X010450Y014033D01*
X009350Y014033D01*
X009344Y014640D02*
X009344Y015140D01*
X010444Y015140D01*
X010444Y014640D01*
X009344Y014640D01*
X009353Y015234D02*
X009353Y015734D01*
X010453Y015734D01*
X010453Y015234D01*
X009353Y015234D01*
X009344Y015840D02*
X009344Y016340D01*
X010444Y016340D01*
X010444Y015840D01*
X009344Y015840D01*
X009340Y016441D02*
X009340Y016941D01*
X010440Y016941D01*
X010440Y016441D01*
X009340Y016441D01*
X009543Y017070D02*
X009543Y017570D01*
X008443Y017570D01*
X008443Y017070D01*
X009543Y017070D01*
X009069Y018040D02*
X008919Y018040D01*
X008419Y018190D02*
X008419Y018540D01*
X008719Y018540D01*
X008244Y018190D02*
X007744Y018190D01*
X007744Y017090D01*
X008244Y017090D01*
X008244Y018190D01*
X007594Y018190D02*
X007094Y018190D01*
X007094Y017090D01*
X007594Y017090D01*
X007594Y018190D01*
X006944Y018190D02*
X006444Y018190D01*
X006444Y017090D01*
X006944Y017090D01*
X006944Y018190D01*
X005994Y017540D02*
X005994Y017040D01*
X004894Y017040D01*
X004894Y017540D01*
X005994Y017540D01*
X005828Y017660D02*
X005828Y017818D01*
X005828Y017660D02*
X003860Y017660D01*
X003860Y017818D01*
X003694Y017540D02*
X004794Y017540D01*
X004794Y017040D01*
X003694Y017040D01*
X003694Y017540D01*
X002990Y017382D02*
X001890Y017382D01*
X001890Y017882D01*
X002990Y017882D01*
X002990Y017382D01*
X002994Y017990D02*
X001894Y017990D01*
X001894Y018490D01*
X002994Y018490D01*
X002994Y017990D01*
X002992Y018562D02*
X002992Y019062D01*
X001892Y019062D01*
X001892Y018562D01*
X002992Y018562D01*
X003369Y019181D02*
X003369Y019681D01*
X004419Y019681D01*
X004419Y019181D01*
X003369Y019181D01*
X003844Y019281D02*
X003844Y019581D01*
X003894Y019506D01*
X003894Y019356D01*
X003944Y019431D01*
X003894Y019506D01*
X003869Y019531D02*
X003869Y019331D01*
X003894Y019356D02*
X003844Y019281D01*
X003860Y018920D02*
X003860Y018762D01*
X003860Y018920D02*
X005828Y018920D01*
X005828Y018762D01*
X006012Y019181D02*
X006012Y019681D01*
X004912Y019681D01*
X004912Y019181D01*
X006012Y019181D01*
X006012Y019969D02*
X006012Y020469D01*
X004912Y020469D01*
X004912Y019969D01*
X006012Y019969D01*
X006012Y020756D02*
X006012Y021256D01*
X004912Y021256D01*
X004912Y020756D01*
X006012Y020756D01*
X006012Y021544D02*
X004912Y021544D01*
X004912Y022044D01*
X006012Y022044D01*
X006012Y021544D01*
X006012Y022331D02*
X004912Y022331D01*
X004912Y022831D01*
X006012Y022831D01*
X006012Y022331D01*
X004419Y022331D02*
X003369Y022331D01*
X003369Y022831D01*
X004419Y022831D01*
X004419Y022331D01*
X004419Y022044D02*
X004419Y021544D01*
X003369Y021544D01*
X003369Y022044D01*
X004419Y022044D01*
X003944Y021794D02*
X003894Y021869D01*
X003894Y021719D01*
X003944Y021794D01*
X003894Y021869D02*
X003844Y021944D01*
X003844Y021644D01*
X003894Y021719D01*
X003869Y021694D02*
X003869Y021894D01*
X003369Y021256D02*
X003369Y020756D01*
X004419Y020756D01*
X004419Y021256D01*
X003369Y021256D01*
X003844Y021156D02*
X003844Y020856D01*
X003894Y020931D01*
X003894Y021081D01*
X003844Y021156D01*
X003869Y021106D02*
X003869Y020906D01*
X003894Y020931D02*
X003944Y021006D01*
X003894Y021081D01*
X003844Y020369D02*
X003894Y020294D01*
X003894Y020144D01*
X003944Y020219D01*
X003894Y020294D01*
X003869Y020319D02*
X003869Y020119D01*
X003894Y020144D02*
X003844Y020069D01*
X003844Y020369D01*
X003369Y020469D02*
X003369Y019969D01*
X004419Y019969D01*
X004419Y020469D01*
X003369Y020469D01*
X003019Y020090D02*
X002719Y020090D01*
X003019Y020090D02*
X003019Y019740D01*
X002519Y019590D02*
X002369Y019590D01*
X002169Y020090D02*
X001869Y020090D01*
X001869Y019740D01*
X001769Y019740D02*
X001769Y020090D01*
X001469Y020090D01*
X001269Y019590D02*
X001119Y019590D01*
X000619Y019740D02*
X000619Y020090D01*
X000919Y020090D01*
X000639Y019062D02*
X001739Y019062D01*
X001739Y018562D01*
X000639Y018562D01*
X000639Y019062D01*
X000644Y018490D02*
X000644Y017990D01*
X001744Y017990D01*
X001744Y018490D01*
X000644Y018490D01*
X000644Y017890D02*
X001744Y017890D01*
X001744Y017390D01*
X000644Y017390D01*
X000644Y017890D01*
X003669Y014415D02*
X004319Y014415D01*
X004319Y012765D01*
X003669Y012765D01*
X003669Y014415D01*
X004444Y014040D02*
X004944Y014040D01*
X004944Y012940D01*
X004444Y012940D01*
X004444Y014040D01*
X003994Y013615D02*
X003994Y013415D01*
X004094Y013515D02*
X003894Y013515D01*
X004594Y017790D02*
X004594Y018290D01*
X004394Y018290D01*
X004594Y018290D02*
X004594Y018790D01*
X004744Y018690D02*
X004744Y017890D01*
X004944Y017890D01*
X004944Y018690D01*
X004744Y018690D01*
X005094Y018790D02*
X005094Y018290D01*
X005294Y018290D01*
X005094Y018290D02*
X005094Y017790D01*
X009269Y018540D02*
X009569Y018540D01*
X009569Y018190D01*
X003844Y022431D02*
X003894Y022506D01*
X003894Y022656D01*
X003844Y022731D01*
X003844Y022431D01*
X003869Y022481D02*
X003869Y022681D01*
X003894Y022656D02*
X003944Y022581D01*
X003894Y022506D01*
X017698Y021232D02*
X017698Y020532D01*
X018998Y020532D01*
X018998Y021232D01*
X017698Y021232D01*
X019130Y020590D02*
X019132Y020610D01*
X019138Y020628D01*
X019147Y020646D01*
X019159Y020661D01*
X019174Y020673D01*
X019192Y020682D01*
X019210Y020688D01*
X019230Y020690D01*
X019250Y020688D01*
X019268Y020682D01*
X019286Y020673D01*
X019301Y020661D01*
X019313Y020646D01*
X019322Y020628D01*
X019328Y020610D01*
X019330Y020590D01*
X019328Y020570D01*
X019322Y020552D01*
X019313Y020534D01*
X019301Y020519D01*
X019286Y020507D01*
X019268Y020498D01*
X019250Y020492D01*
X019230Y020490D01*
X019210Y020492D01*
X019192Y020498D01*
X019174Y020507D01*
X019159Y020519D01*
X019147Y020534D01*
X019138Y020552D01*
X019132Y020570D01*
X019130Y020590D01*
X019552Y020660D02*
X019552Y021160D01*
X020652Y021160D01*
X020652Y020660D01*
X019552Y020660D01*
X019930Y020404D02*
X019931Y020377D01*
X019935Y020350D01*
X019943Y020325D01*
X019954Y020300D01*
X019968Y020277D01*
X019986Y020256D01*
X020005Y020237D01*
X020027Y020221D01*
X020051Y020209D01*
X020076Y020199D01*
X020103Y020193D01*
X020130Y020190D01*
X022281Y018119D02*
X022307Y018117D01*
X022332Y018112D01*
X022356Y018104D01*
X022380Y018093D01*
X022401Y018078D01*
X022420Y018061D01*
X022437Y018042D01*
X022452Y018021D01*
X022463Y017997D01*
X022471Y017973D01*
X022476Y017948D01*
X022478Y017922D01*
X022478Y015953D01*
X022476Y015927D01*
X022471Y015902D01*
X022463Y015878D01*
X022452Y015855D01*
X022437Y015833D01*
X022420Y015814D01*
X022401Y015797D01*
X022380Y015782D01*
X022356Y015771D01*
X022332Y015763D01*
X022307Y015758D01*
X022281Y015756D01*
X022462Y007531D02*
X021362Y007531D01*
X021362Y007031D01*
X021362Y006431D02*
X021362Y005931D01*
X022462Y005931D01*
X022462Y006431D01*
X022462Y007031D02*
X022462Y007531D01*
X021694Y005190D02*
X020994Y005190D01*
X020994Y003890D01*
X021694Y003890D01*
X021694Y005190D01*
X021794Y005140D02*
X022294Y005140D01*
X022294Y004040D01*
X021794Y004040D01*
X021794Y005140D01*
X022394Y005140D02*
X022894Y005140D01*
X022894Y004040D01*
X022394Y004040D01*
X022394Y005140D01*
X020530Y003384D02*
X020530Y002006D01*
X019152Y002006D01*
X012459Y002006D02*
X011081Y002006D01*
X011081Y003384D01*
X010412Y003618D02*
X010412Y003118D01*
X009312Y003118D01*
X009312Y003618D01*
X010412Y003618D01*
X010412Y003706D02*
X009312Y003706D01*
X009312Y004206D01*
X010412Y004206D01*
X010412Y003706D01*
X010418Y004287D02*
X010418Y004787D01*
X009318Y004787D01*
X009318Y004287D01*
X010418Y004287D01*
X010405Y003017D02*
X009305Y003017D01*
X009305Y002517D01*
X010405Y002517D01*
X010405Y003017D01*
X010119Y006415D02*
X009469Y006415D01*
X009469Y008065D01*
X010119Y008065D01*
X010119Y006415D01*
X009794Y007065D02*
X009794Y007265D01*
X009894Y007165D02*
X009694Y007165D01*
D214*
X009228Y004604D02*
X009182Y004558D01*
X009182Y004581D02*
X009182Y004511D01*
X009228Y004511D02*
X009088Y004511D01*
X009088Y004581D01*
X009112Y004604D01*
X009158Y004604D01*
X009182Y004581D01*
X009228Y004457D02*
X009228Y004364D01*
X009135Y004457D01*
X009112Y004457D01*
X009088Y004434D01*
X009088Y004387D01*
X009112Y004364D01*
X009112Y004310D02*
X009088Y004286D01*
X009088Y004240D01*
X009112Y004216D01*
X009112Y004310D02*
X009135Y004310D01*
X009228Y004216D01*
X009228Y004310D01*
X009246Y004049D02*
X009200Y004003D01*
X009200Y004026D02*
X009200Y003956D01*
X009246Y003956D02*
X009106Y003956D01*
X009106Y004026D01*
X009130Y004049D01*
X009176Y004049D01*
X009200Y004026D01*
X009246Y003902D02*
X009246Y003808D01*
X009153Y003902D01*
X009130Y003902D01*
X009106Y003879D01*
X009106Y003832D01*
X009130Y003808D01*
X009130Y003755D02*
X009106Y003731D01*
X009106Y003685D01*
X009130Y003661D01*
X009104Y003671D02*
X009127Y003695D01*
X009174Y003695D01*
X009198Y003671D01*
X009198Y003601D01*
X009244Y003601D02*
X009104Y003601D01*
X009104Y003671D01*
X009130Y003755D02*
X009153Y003755D01*
X009246Y003661D01*
X009246Y003755D01*
X009244Y003695D02*
X009198Y003648D01*
X009244Y003547D02*
X009244Y003454D01*
X009151Y003547D01*
X009127Y003547D01*
X009104Y003524D01*
X009104Y003477D01*
X009127Y003454D01*
X009127Y003400D02*
X009104Y003377D01*
X009104Y003330D01*
X009127Y003307D01*
X009127Y003400D02*
X009151Y003400D01*
X009244Y003307D01*
X009244Y003400D01*
X009885Y003201D02*
X009931Y003248D01*
X009931Y003107D01*
X009885Y003107D02*
X009978Y003107D01*
X010032Y003131D02*
X010125Y003224D01*
X010125Y003131D01*
X010102Y003107D01*
X010055Y003107D01*
X010032Y003131D01*
X010032Y003224D01*
X010055Y003248D01*
X010102Y003248D01*
X010125Y003224D01*
X010179Y003224D02*
X010203Y003248D01*
X010249Y003248D01*
X010273Y003224D01*
X010179Y003131D01*
X010203Y003107D01*
X010249Y003107D01*
X010273Y003131D01*
X010273Y003224D01*
X010327Y003201D02*
X010397Y003201D01*
X010420Y003178D01*
X010420Y003107D01*
X010474Y003107D02*
X010474Y003248D01*
X010567Y003248D01*
X010521Y003178D02*
X010474Y003178D01*
X010327Y003201D02*
X010327Y003107D01*
X010179Y003131D02*
X010179Y003224D01*
X010057Y011625D02*
X010057Y011755D01*
X010143Y011755D01*
X010100Y011690D02*
X010057Y011690D01*
X010005Y011690D02*
X010005Y011625D01*
X010005Y011690D02*
X009984Y011712D01*
X009919Y011712D01*
X009919Y011625D01*
X009867Y011647D02*
X009846Y011625D01*
X009802Y011625D01*
X009780Y011647D01*
X009867Y011733D01*
X009867Y011647D01*
X009867Y011733D02*
X009846Y011755D01*
X009802Y011755D01*
X009780Y011733D01*
X009780Y011647D01*
X009729Y011647D02*
X009707Y011625D01*
X009664Y011625D01*
X009642Y011647D01*
X009729Y011733D01*
X009729Y011647D01*
X009729Y011733D02*
X009707Y011755D01*
X009664Y011755D01*
X009642Y011733D01*
X009642Y011647D01*
X009591Y011625D02*
X009504Y011625D01*
X009548Y011625D02*
X009548Y011755D01*
X009504Y011712D01*
X009150Y011830D02*
X009057Y011830D01*
X009057Y011690D01*
X009003Y011690D02*
X009003Y011760D01*
X008980Y011783D01*
X008910Y011783D01*
X008910Y011690D01*
X008856Y011713D02*
X008832Y011690D01*
X008786Y011690D01*
X008762Y011713D01*
X008856Y011807D01*
X008856Y011713D01*
X008762Y011713D02*
X008762Y011807D01*
X008786Y011830D01*
X008832Y011830D01*
X008856Y011807D01*
X008708Y011807D02*
X008615Y011713D01*
X008638Y011690D01*
X008685Y011690D01*
X008708Y011713D01*
X008708Y011807D01*
X008685Y011830D01*
X008638Y011830D01*
X008615Y011807D01*
X008615Y011713D01*
X008561Y011690D02*
X008468Y011690D01*
X008514Y011690D02*
X008514Y011830D01*
X008468Y011783D01*
X009057Y011760D02*
X009104Y011760D01*
X009131Y012565D02*
X009131Y012705D01*
X009078Y012682D02*
X008984Y012588D01*
X009007Y012565D01*
X009054Y012565D01*
X009078Y012588D01*
X009078Y012682D01*
X009054Y012705D01*
X009007Y012705D01*
X008984Y012682D01*
X008984Y012588D01*
X008930Y012565D02*
X008837Y012565D01*
X008884Y012565D02*
X008884Y012705D01*
X008837Y012658D01*
X009131Y012612D02*
X009202Y012658D01*
X009131Y012612D02*
X009202Y012565D01*
X010160Y013186D02*
X010196Y013149D01*
X010270Y013149D01*
X010307Y013186D01*
X010307Y013222D01*
X010270Y013259D01*
X010233Y013259D01*
X010270Y013259D02*
X010307Y013296D01*
X010307Y013333D01*
X010270Y013369D01*
X010196Y013369D01*
X010160Y013333D01*
X010381Y013333D02*
X010381Y013296D01*
X010417Y013259D01*
X010528Y013259D01*
X010528Y013186D02*
X010528Y013333D01*
X010491Y013369D01*
X010417Y013369D01*
X010381Y013333D01*
X010381Y013186D02*
X010417Y013149D01*
X010491Y013149D01*
X010528Y013186D01*
X010602Y013222D02*
X010712Y013296D01*
X010602Y013369D02*
X010602Y013149D01*
X010602Y013222D02*
X010712Y013149D01*
X010786Y013076D02*
X010859Y013149D01*
X010823Y013149D01*
X010823Y013186D01*
X010859Y013186D01*
X010859Y013149D01*
X010933Y013149D02*
X011080Y013149D01*
X011007Y013149D02*
X011007Y013369D01*
X010933Y013296D01*
X011154Y013333D02*
X011154Y013369D01*
X011191Y013369D01*
X011191Y013333D01*
X011154Y013333D01*
X011154Y013149D02*
X011338Y013369D01*
X011338Y013186D02*
X011338Y013149D01*
X011301Y013149D01*
X011301Y013186D01*
X011338Y013186D01*
X010498Y013803D02*
X010461Y013803D01*
X010461Y013840D01*
X010498Y013840D01*
X010498Y013803D01*
X010315Y013803D02*
X010498Y014023D01*
X010351Y014023D02*
X010351Y013987D01*
X010315Y013987D01*
X010315Y014023D01*
X010351Y014023D01*
X010167Y014023D02*
X010167Y013803D01*
X010094Y013803D02*
X010240Y013803D01*
X010094Y013950D02*
X010167Y014023D01*
X010020Y013840D02*
X009983Y013840D01*
X009983Y013803D01*
X010020Y013803D01*
X010020Y013840D01*
X010020Y013803D02*
X009946Y013730D01*
X009872Y013803D02*
X009762Y013877D01*
X009872Y013950D01*
X009762Y014023D02*
X009762Y013803D01*
X009688Y013840D02*
X009651Y013803D01*
X009578Y013803D01*
X009541Y013840D01*
X009688Y013987D01*
X009688Y013840D01*
X009688Y013987D02*
X009651Y014023D01*
X009578Y014023D01*
X009541Y013987D01*
X009541Y013840D01*
X009467Y013803D02*
X009320Y013803D01*
X009393Y013803D02*
X009393Y014023D01*
X009320Y013950D01*
X009714Y014825D02*
X009800Y014825D01*
X009757Y014825D02*
X009757Y014955D01*
X009714Y014912D01*
X009852Y014933D02*
X009873Y014955D01*
X009917Y014955D01*
X009938Y014933D01*
X009852Y014847D01*
X009873Y014825D01*
X009917Y014825D01*
X009938Y014847D01*
X009938Y014933D01*
X009990Y014933D02*
X010012Y014955D01*
X010055Y014955D01*
X010077Y014933D01*
X009990Y014847D01*
X010012Y014825D01*
X010055Y014825D01*
X010077Y014847D01*
X010077Y014933D01*
X010128Y014912D02*
X010193Y014912D01*
X010215Y014890D01*
X010215Y014825D01*
X010266Y014825D02*
X010266Y014955D01*
X010353Y014955D01*
X010389Y014970D02*
X010463Y015044D01*
X010426Y015044D01*
X010426Y015080D01*
X010463Y015080D01*
X010463Y015044D01*
X010537Y015044D02*
X010684Y015044D01*
X010758Y015044D02*
X010941Y015264D01*
X010794Y015264D02*
X010794Y015227D01*
X010758Y015227D01*
X010758Y015264D01*
X010794Y015264D01*
X010610Y015264D02*
X010610Y015044D01*
X010537Y015190D02*
X010610Y015264D01*
X010315Y015190D02*
X010205Y015117D01*
X010315Y015044D01*
X010205Y015044D02*
X010205Y015264D01*
X010131Y015227D02*
X010131Y015080D01*
X010094Y015044D01*
X010021Y015044D01*
X009984Y015080D01*
X009910Y015080D02*
X009910Y015117D01*
X009873Y015154D01*
X009837Y015154D01*
X009873Y015154D02*
X009910Y015190D01*
X009910Y015227D01*
X009873Y015264D01*
X009800Y015264D01*
X009763Y015227D01*
X009763Y015080D02*
X009800Y015044D01*
X009873Y015044D01*
X009910Y015080D01*
X009984Y015190D02*
X010021Y015154D01*
X010131Y015154D01*
X010131Y015227D02*
X010094Y015264D01*
X010021Y015264D01*
X009984Y015227D01*
X009984Y015190D01*
X009990Y014933D02*
X009990Y014847D01*
X009852Y014847D02*
X009852Y014933D01*
X010128Y014912D02*
X010128Y014825D01*
X010266Y014890D02*
X010309Y014890D01*
X010905Y015044D02*
X010941Y015044D01*
X010941Y015080D01*
X010905Y015080D01*
X010905Y015044D01*
X010266Y016025D02*
X010266Y016155D01*
X010353Y016155D01*
X010309Y016090D02*
X010266Y016090D01*
X010215Y016090D02*
X010215Y016025D01*
X010215Y016090D02*
X010193Y016112D01*
X010128Y016112D01*
X010128Y016025D01*
X010077Y016047D02*
X010055Y016025D01*
X010012Y016025D01*
X009990Y016047D01*
X010077Y016133D01*
X010077Y016047D01*
X010077Y016133D02*
X010055Y016155D01*
X010012Y016155D01*
X009990Y016133D01*
X009990Y016047D01*
X009938Y016047D02*
X009917Y016025D01*
X009873Y016025D01*
X009852Y016047D01*
X009938Y016133D01*
X009938Y016047D01*
X009852Y016047D02*
X009852Y016133D01*
X009873Y016155D01*
X009917Y016155D01*
X009938Y016133D01*
X009800Y016025D02*
X009714Y016025D01*
X009757Y016025D02*
X009757Y016155D01*
X009714Y016112D01*
X009524Y016938D02*
X009597Y017011D01*
X009561Y017011D01*
X009561Y017048D01*
X009597Y017048D01*
X009597Y017011D01*
X009671Y017011D02*
X009818Y017011D01*
X009745Y017011D02*
X009745Y017231D01*
X009671Y017158D01*
X009450Y017158D02*
X009340Y017084D01*
X009450Y017011D01*
X009340Y017011D02*
X009340Y017231D01*
X009266Y017194D02*
X009229Y017231D01*
X009156Y017231D01*
X009119Y017194D01*
X009119Y017048D01*
X009266Y017194D01*
X009266Y017048D01*
X009229Y017011D01*
X009156Y017011D01*
X009119Y017048D01*
X009045Y017011D02*
X008898Y017011D01*
X008971Y017011D02*
X008971Y017231D01*
X008898Y017158D01*
X008069Y017780D02*
X008069Y017873D01*
X008069Y017827D02*
X007929Y017827D01*
X007976Y017780D01*
X008023Y017927D02*
X007976Y017997D01*
X008023Y017927D02*
X008069Y017997D01*
X008069Y017927D02*
X007929Y017927D01*
X007409Y017961D02*
X007344Y017961D01*
X007322Y017939D01*
X007322Y017874D01*
X007409Y017874D01*
X007388Y017822D02*
X007409Y017801D01*
X007409Y017757D01*
X007388Y017736D01*
X007301Y017822D01*
X007388Y017822D01*
X007388Y017736D02*
X007301Y017736D01*
X007279Y017757D01*
X007279Y017801D01*
X007301Y017822D01*
X007301Y017684D02*
X007388Y017598D01*
X007409Y017619D01*
X007409Y017663D01*
X007388Y017684D01*
X007301Y017684D01*
X007279Y017663D01*
X007279Y017619D01*
X007301Y017598D01*
X007388Y017598D01*
X007409Y017546D02*
X007409Y017459D01*
X007409Y017503D02*
X007279Y017503D01*
X007322Y017459D01*
X007344Y018012D02*
X007344Y018055D01*
X007409Y018012D02*
X007279Y018012D01*
X007279Y018099D01*
X006759Y018012D02*
X006629Y018012D01*
X006629Y018099D01*
X006694Y018055D02*
X006694Y018012D01*
X006694Y017961D02*
X006759Y017961D01*
X006694Y017961D02*
X006672Y017939D01*
X006672Y017874D01*
X006759Y017874D01*
X006738Y017822D02*
X006759Y017801D01*
X006759Y017757D01*
X006738Y017736D01*
X006651Y017822D01*
X006738Y017822D01*
X006738Y017736D02*
X006651Y017736D01*
X006629Y017757D01*
X006629Y017801D01*
X006651Y017822D01*
X006651Y017684D02*
X006738Y017598D01*
X006759Y017619D01*
X006759Y017663D01*
X006738Y017684D01*
X006651Y017684D01*
X006629Y017663D01*
X006629Y017619D01*
X006651Y017598D01*
X006738Y017598D01*
X006759Y017546D02*
X006759Y017459D01*
X006759Y017503D02*
X006629Y017503D01*
X006672Y017459D01*
X005455Y017355D02*
X005369Y017355D01*
X005369Y017225D01*
X005317Y017247D02*
X005296Y017225D01*
X005230Y017225D01*
X005230Y017182D02*
X005230Y017312D01*
X005296Y017312D01*
X005317Y017290D01*
X005317Y017247D01*
X005369Y017290D02*
X005412Y017290D01*
X005179Y017312D02*
X005179Y017333D01*
X005157Y017355D01*
X005114Y017355D01*
X005092Y017333D01*
X005041Y017333D02*
X005019Y017355D01*
X004976Y017355D01*
X004954Y017333D01*
X005041Y017333D02*
X005041Y017312D01*
X004954Y017225D01*
X005041Y017225D01*
X005092Y017225D02*
X005179Y017312D01*
X005179Y017225D02*
X005092Y017225D01*
X004703Y017355D02*
X004616Y017355D01*
X004616Y017225D01*
X004565Y017247D02*
X004543Y017225D01*
X004478Y017225D01*
X004478Y017182D02*
X004478Y017312D01*
X004543Y017312D01*
X004565Y017290D01*
X004565Y017247D01*
X004616Y017290D02*
X004659Y017290D01*
X004427Y017312D02*
X004427Y017333D01*
X004405Y017355D01*
X004362Y017355D01*
X004340Y017333D01*
X004288Y017333D02*
X004267Y017355D01*
X004223Y017355D01*
X004202Y017333D01*
X004288Y017333D02*
X004288Y017312D01*
X004202Y017225D01*
X004288Y017225D01*
X004340Y017225D02*
X004427Y017312D01*
X004427Y017225D02*
X004340Y017225D01*
X003146Y017880D02*
X003036Y017953D01*
X003146Y018026D01*
X003036Y018100D02*
X003036Y017880D01*
X002961Y017916D02*
X002925Y017880D01*
X002851Y017880D01*
X002815Y017916D01*
X002961Y018063D01*
X002961Y017916D01*
X002815Y017916D02*
X002815Y018063D01*
X002851Y018100D01*
X002925Y018100D01*
X002961Y018063D01*
X002740Y017880D02*
X002594Y017880D01*
X002667Y017880D02*
X002667Y018100D01*
X002594Y018026D01*
X002272Y018175D02*
X002202Y018222D01*
X002272Y018268D01*
X002202Y018315D02*
X002202Y018175D01*
X002148Y018175D02*
X002054Y018175D01*
X002101Y018175D02*
X002101Y018315D01*
X002054Y018268D01*
X001653Y017705D02*
X001566Y017705D01*
X001566Y017575D01*
X001515Y017575D02*
X001515Y017640D01*
X001493Y017662D01*
X001428Y017662D01*
X001428Y017575D01*
X001377Y017597D02*
X001355Y017575D01*
X001312Y017575D01*
X001290Y017597D01*
X001377Y017683D01*
X001377Y017597D01*
X001377Y017683D02*
X001355Y017705D01*
X001312Y017705D01*
X001290Y017683D01*
X001290Y017597D01*
X001238Y017597D02*
X001217Y017575D01*
X001173Y017575D01*
X001152Y017597D01*
X001238Y017683D01*
X001238Y017597D01*
X001152Y017597D02*
X001152Y017683D01*
X001173Y017705D01*
X001217Y017705D01*
X001238Y017683D01*
X001100Y017575D02*
X001014Y017575D01*
X001057Y017575D02*
X001057Y017705D01*
X001014Y017662D01*
X001566Y017640D02*
X001609Y017640D01*
X001022Y018175D02*
X000952Y018222D01*
X001022Y018268D01*
X000952Y018315D02*
X000952Y018175D01*
X000898Y018175D02*
X000804Y018175D01*
X000851Y018175D02*
X000851Y018315D01*
X000804Y018268D01*
X004629Y013949D02*
X004629Y013862D01*
X004759Y013862D01*
X004759Y013811D02*
X004694Y013811D01*
X004672Y013789D01*
X004672Y013724D01*
X004759Y013724D01*
X004738Y013672D02*
X004651Y013672D01*
X004738Y013586D01*
X004759Y013607D01*
X004759Y013651D01*
X004738Y013672D01*
X004738Y013586D02*
X004651Y013586D01*
X004629Y013607D01*
X004629Y013651D01*
X004651Y013672D01*
X004651Y013534D02*
X004738Y013448D01*
X004759Y013469D01*
X004759Y013513D01*
X004738Y013534D01*
X004651Y013534D01*
X004629Y013513D01*
X004629Y013469D01*
X004651Y013448D01*
X004738Y013448D01*
X004759Y013396D02*
X004759Y013309D01*
X004759Y013353D02*
X004629Y013353D01*
X004672Y013309D01*
X004694Y013862D02*
X004694Y013905D01*
X009892Y017011D02*
X010076Y017231D01*
X009929Y017231D02*
X009929Y017194D01*
X009892Y017194D01*
X009892Y017231D01*
X009929Y017231D01*
X010039Y017048D02*
X010076Y017048D01*
X010076Y017011D01*
X010039Y017011D01*
X010039Y017048D01*
X012858Y017076D02*
X012858Y017149D01*
X012895Y017186D01*
X013041Y017039D01*
X013078Y017076D01*
X013078Y017149D01*
X013041Y017186D01*
X012895Y017186D01*
X012895Y017260D02*
X012858Y017297D01*
X012858Y017370D01*
X012895Y017407D01*
X013041Y017260D01*
X013078Y017297D01*
X013078Y017370D01*
X013041Y017407D01*
X012895Y017407D01*
X012895Y017481D02*
X012858Y017518D01*
X012858Y017591D01*
X012895Y017628D01*
X012931Y017628D01*
X012968Y017591D01*
X013005Y017628D01*
X013041Y017628D01*
X013078Y017591D01*
X013078Y017518D01*
X013041Y017481D01*
X012968Y017554D02*
X012968Y017591D01*
X013005Y017702D02*
X013005Y017812D01*
X012968Y017849D01*
X012895Y017849D01*
X012858Y017812D01*
X012858Y017702D01*
X013078Y017702D01*
X013005Y017775D02*
X013078Y017849D01*
X013152Y017923D02*
X013078Y017996D01*
X013078Y017960D01*
X013041Y017960D01*
X013041Y017996D01*
X013078Y017996D01*
X013078Y018070D02*
X013078Y018217D01*
X013078Y018144D02*
X012858Y018144D01*
X012931Y018070D01*
X012895Y018291D02*
X012858Y018291D01*
X012858Y018328D01*
X012895Y018328D01*
X012895Y018291D01*
X013078Y018291D02*
X012858Y018475D01*
X013041Y018475D02*
X013078Y018475D01*
X013078Y018438D01*
X013041Y018438D01*
X013041Y018475D01*
X013041Y017260D02*
X012895Y017260D01*
X012858Y017076D02*
X012895Y017039D01*
X013041Y017039D01*
X013041Y016965D02*
X013078Y016965D01*
X013078Y016929D01*
X013041Y016929D01*
X013041Y016965D01*
X013041Y016854D02*
X013078Y016818D01*
X013078Y016744D01*
X013041Y016708D01*
X012895Y016854D01*
X013041Y016854D01*
X012895Y016854D02*
X012858Y016818D01*
X012858Y016744D01*
X012895Y016708D01*
X013041Y016708D01*
X015098Y014673D02*
X015172Y014563D01*
X015245Y014673D01*
X015245Y014563D02*
X015025Y014563D01*
X015062Y014489D02*
X015208Y014342D01*
X015245Y014379D01*
X015245Y014452D01*
X015208Y014489D01*
X015062Y014489D01*
X015025Y014452D01*
X015025Y014379D01*
X015062Y014342D01*
X015208Y014342D01*
X015208Y014268D02*
X015245Y014231D01*
X015245Y014158D01*
X015208Y014121D01*
X015062Y014268D01*
X015208Y014268D01*
X015062Y014268D02*
X015025Y014231D01*
X015025Y014158D01*
X015062Y014121D01*
X015208Y014121D01*
X015245Y014047D02*
X015245Y013900D01*
X015245Y013973D02*
X015025Y013973D01*
X015098Y013900D01*
X014959Y014100D02*
X014959Y014193D01*
X014959Y014147D02*
X014819Y014147D01*
X014866Y014100D01*
X014913Y014247D02*
X014866Y014317D01*
X014913Y014247D02*
X014959Y014317D01*
X014959Y014247D02*
X014819Y014247D01*
X017543Y013810D02*
X017763Y013810D01*
X017690Y013810D02*
X017616Y013920D01*
X017690Y013810D02*
X017763Y013920D01*
X017726Y013736D02*
X017579Y013736D01*
X017726Y013589D01*
X017763Y013626D01*
X017763Y013699D01*
X017726Y013736D01*
X017579Y013736D02*
X017543Y013699D01*
X017543Y013626D01*
X017579Y013589D01*
X017726Y013589D01*
X017763Y013515D02*
X017763Y013368D01*
X017763Y013442D02*
X017543Y013442D01*
X017616Y013368D01*
X019174Y013569D02*
X019321Y013569D01*
X019395Y013495D02*
X019395Y013458D01*
X019395Y013495D02*
X019542Y013642D01*
X019542Y013679D01*
X019395Y013679D01*
X019284Y013679D02*
X019174Y013569D01*
X019284Y013679D02*
X019284Y013458D01*
X019616Y013495D02*
X019763Y013642D01*
X019763Y013495D01*
X019726Y013458D01*
X019653Y013458D01*
X019616Y013495D01*
X019616Y013642D01*
X019653Y013679D01*
X019726Y013679D01*
X019763Y013642D01*
X019837Y013605D02*
X019837Y013495D01*
X019874Y013458D01*
X019984Y013458D01*
X019984Y013605D01*
X020058Y013569D02*
X020132Y013569D01*
X020058Y013679D02*
X020205Y013679D01*
X020058Y013679D02*
X020058Y013458D01*
X020500Y013495D02*
X020537Y013458D01*
X020610Y013458D01*
X020647Y013495D01*
X020647Y013532D01*
X020610Y013569D01*
X020500Y013569D01*
X020500Y013495D01*
X020500Y013569D02*
X020574Y013642D01*
X020647Y013679D01*
X020832Y013642D02*
X020868Y013679D01*
X020942Y013679D01*
X020979Y013642D01*
X020979Y013605D01*
X020942Y013569D01*
X020979Y013532D01*
X020979Y013495D01*
X020942Y013458D01*
X020868Y013458D01*
X020832Y013495D01*
X020758Y013495D02*
X020758Y013458D01*
X020721Y013458D01*
X020721Y013495D01*
X020758Y013495D01*
X020905Y013569D02*
X020942Y013569D01*
X021053Y013532D02*
X021126Y013458D01*
X021200Y013532D01*
X021200Y013679D01*
X021053Y013679D02*
X021053Y013532D01*
X021618Y013047D02*
X021618Y012953D01*
X021758Y012953D01*
X021758Y012900D02*
X021688Y012900D01*
X021665Y012876D01*
X021665Y012806D01*
X021758Y012806D01*
X021735Y012752D02*
X021758Y012729D01*
X021758Y012682D01*
X021735Y012659D01*
X021641Y012752D01*
X021735Y012752D01*
X021735Y012659D02*
X021641Y012659D01*
X021618Y012682D01*
X021618Y012729D01*
X021641Y012752D01*
X021641Y012605D02*
X021735Y012511D01*
X021758Y012535D01*
X021758Y012582D01*
X021735Y012605D01*
X021641Y012605D01*
X021618Y012582D01*
X021618Y012535D01*
X021641Y012511D01*
X021735Y012511D01*
X021758Y012458D02*
X021758Y012364D01*
X021758Y012411D02*
X021618Y012411D01*
X021665Y012364D01*
X021688Y012953D02*
X021688Y013000D01*
X022280Y012929D02*
X022280Y012835D01*
X022420Y012835D01*
X022420Y012781D02*
X022350Y012781D01*
X022327Y012758D01*
X022327Y012688D01*
X022420Y012688D01*
X022397Y012634D02*
X022420Y012611D01*
X022420Y012564D01*
X022397Y012541D01*
X022304Y012634D01*
X022397Y012634D01*
X022397Y012541D02*
X022304Y012541D01*
X022280Y012564D01*
X022280Y012611D01*
X022304Y012634D01*
X022304Y012487D02*
X022397Y012393D01*
X022420Y012417D01*
X022420Y012463D01*
X022397Y012487D01*
X022304Y012487D01*
X022280Y012463D01*
X022280Y012417D01*
X022304Y012393D01*
X022397Y012393D01*
X022420Y012339D02*
X022420Y012246D01*
X022420Y012293D02*
X022280Y012293D01*
X022327Y012246D01*
X022350Y012835D02*
X022350Y012882D01*
X023001Y012946D02*
X023001Y013039D01*
X023071Y012992D02*
X023071Y012946D01*
X023048Y012892D02*
X023141Y012892D01*
X023141Y012822D01*
X023118Y012798D01*
X023048Y012798D01*
X023024Y012744D02*
X023118Y012651D01*
X023141Y012674D01*
X023141Y012721D01*
X023118Y012744D01*
X023024Y012744D01*
X023001Y012721D01*
X023001Y012674D01*
X023024Y012651D01*
X023118Y012651D01*
X023141Y012597D02*
X023141Y012504D01*
X023141Y012550D02*
X023001Y012550D01*
X023048Y012504D01*
X023001Y012946D02*
X023141Y012946D01*
X018357Y018840D02*
X018357Y018927D01*
X018357Y018883D02*
X018227Y018883D01*
X018271Y018840D01*
X018249Y018978D02*
X018227Y019000D01*
X018227Y019043D01*
X018249Y019065D01*
X018336Y018978D01*
X018357Y019000D01*
X018357Y019043D01*
X018336Y019065D01*
X018249Y019065D01*
X018249Y019116D02*
X018227Y019138D01*
X018227Y019181D01*
X018249Y019203D01*
X018336Y019116D01*
X018357Y019138D01*
X018357Y019181D01*
X018336Y019203D01*
X018249Y019203D01*
X018271Y019254D02*
X018271Y019319D01*
X018292Y019341D01*
X018357Y019341D01*
X018357Y019392D02*
X018227Y019392D01*
X018227Y019479D01*
X018292Y019436D02*
X018292Y019392D01*
X018271Y019254D02*
X018357Y019254D01*
X018336Y019116D02*
X018249Y019116D01*
X018249Y018978D02*
X018336Y018978D01*
X018300Y020792D02*
X018300Y020932D01*
X018393Y020932D01*
X018346Y020862D02*
X018300Y020862D01*
X018246Y020885D02*
X018246Y020792D01*
X018176Y020792D01*
X018152Y020815D01*
X018152Y020885D01*
X018099Y020909D02*
X018005Y020815D01*
X018028Y020792D01*
X018075Y020792D01*
X018099Y020815D01*
X018099Y020909D01*
X018075Y020932D01*
X018028Y020932D01*
X018005Y020909D01*
X018005Y020815D01*
X017951Y020792D02*
X017858Y020792D01*
X017904Y020792D02*
X017904Y020932D01*
X017858Y020885D01*
X019948Y020928D02*
X019994Y020975D01*
X019994Y020835D01*
X019948Y020835D02*
X020041Y020835D01*
X020095Y020858D02*
X020188Y020951D01*
X020188Y020858D01*
X020165Y020835D01*
X020118Y020835D01*
X020095Y020858D01*
X020095Y020951D01*
X020118Y020975D01*
X020165Y020975D01*
X020188Y020951D01*
X020242Y020951D02*
X020266Y020975D01*
X020312Y020975D01*
X020336Y020951D01*
X020242Y020858D01*
X020266Y020835D01*
X020312Y020835D01*
X020336Y020858D01*
X020336Y020951D01*
X020390Y020975D02*
X020390Y020835D01*
X020390Y020881D02*
X020460Y020928D01*
X020390Y020881D02*
X020460Y020835D01*
X020242Y020858D02*
X020242Y020951D01*
X021979Y004739D02*
X021979Y004652D01*
X022109Y004652D01*
X022109Y004601D02*
X022044Y004601D01*
X022022Y004579D01*
X022022Y004514D01*
X022109Y004514D01*
X022088Y004463D02*
X022109Y004441D01*
X022109Y004398D01*
X022088Y004376D01*
X022001Y004463D01*
X022088Y004463D01*
X022088Y004376D02*
X022001Y004376D01*
X021979Y004398D01*
X021979Y004441D01*
X022001Y004463D01*
X022001Y004325D02*
X022088Y004238D01*
X022109Y004260D01*
X022109Y004303D01*
X022088Y004325D01*
X022001Y004325D01*
X021979Y004303D01*
X021979Y004260D01*
X022001Y004238D01*
X022088Y004238D01*
X022109Y004187D02*
X022109Y004100D01*
X022109Y004143D02*
X021979Y004143D01*
X022022Y004100D01*
X022044Y004652D02*
X022044Y004696D01*
X022579Y004652D02*
X022579Y004739D01*
X022644Y004696D02*
X022644Y004652D01*
X022644Y004601D02*
X022709Y004601D01*
X022709Y004652D02*
X022579Y004652D01*
X022644Y004601D02*
X022622Y004579D01*
X022622Y004514D01*
X022709Y004514D01*
X022688Y004463D02*
X022601Y004463D01*
X022688Y004376D01*
X022709Y004398D01*
X022709Y004441D01*
X022688Y004463D01*
X022688Y004376D02*
X022601Y004376D01*
X022579Y004398D01*
X022579Y004441D01*
X022601Y004463D01*
X022601Y004325D02*
X022688Y004238D01*
X022709Y004260D01*
X022709Y004303D01*
X022688Y004325D01*
X022601Y004325D01*
X022579Y004303D01*
X022579Y004260D01*
X022601Y004238D01*
X022688Y004238D01*
X022709Y004187D02*
X022709Y004100D01*
X022709Y004143D02*
X022579Y004143D01*
X022622Y004100D01*
X021434Y004097D02*
X021294Y004097D01*
X021341Y004050D01*
X021434Y004050D02*
X021434Y004143D01*
X021411Y004197D02*
X021317Y004291D01*
X021411Y004291D01*
X021434Y004267D01*
X021434Y004221D01*
X021411Y004197D01*
X021317Y004197D01*
X021294Y004221D01*
X021294Y004267D01*
X021317Y004291D01*
X021341Y004345D02*
X021411Y004345D01*
X021434Y004368D01*
X021434Y004438D01*
X021341Y004438D01*
X021364Y004492D02*
X021364Y004539D01*
X021294Y004585D02*
X021294Y004492D01*
X021434Y004492D01*
D215*
X021212Y006731D03*
D216*
X017160Y016131D02*
X017160Y017551D01*
X015300Y017551D02*
X015300Y016131D01*
X010536Y013220D02*
X010536Y013183D01*
X010536Y013220D02*
X009898Y013220D01*
X009898Y013183D01*
X009898Y012866D02*
X009898Y012829D01*
X009898Y012492D02*
X009898Y012455D01*
X009898Y012137D02*
X009898Y012100D01*
X010536Y012100D01*
X010536Y012137D01*
X010536Y012455D02*
X010536Y012866D01*
X008515Y013620D02*
X008515Y016240D01*
X008376Y016380D01*
X005756Y016380D01*
X005756Y013620D01*
X008515Y013620D01*
X008075Y016080D02*
X008077Y016103D01*
X008083Y016126D01*
X008092Y016147D01*
X008105Y016167D01*
X008121Y016184D01*
X008139Y016198D01*
X008159Y016209D01*
X008181Y016217D01*
X008204Y016221D01*
X008228Y016221D01*
X008251Y016217D01*
X008273Y016209D01*
X008293Y016198D01*
X008311Y016184D01*
X008327Y016167D01*
X008340Y016147D01*
X008349Y016126D01*
X008355Y016103D01*
X008357Y016080D01*
X008355Y016057D01*
X008349Y016034D01*
X008340Y016013D01*
X008327Y015993D01*
X008311Y015976D01*
X008293Y015962D01*
X008273Y015951D01*
X008251Y015943D01*
X008228Y015939D01*
X008204Y015939D01*
X008181Y015943D01*
X008159Y015951D01*
X008139Y015962D01*
X008121Y015976D01*
X008105Y015993D01*
X008092Y016013D01*
X008083Y016034D01*
X008077Y016057D01*
X008075Y016080D01*
D217*
X008880Y017876D02*
X008980Y017876D01*
X008930Y017876D02*
X008930Y018026D01*
X008880Y017976D01*
X009027Y018001D02*
X009027Y017901D01*
X009127Y018001D01*
X009127Y017901D01*
X009102Y017876D01*
X009052Y017876D01*
X009027Y017901D01*
X009027Y018001D02*
X009052Y018026D01*
X009102Y018026D01*
X009127Y018001D01*
X009174Y018001D02*
X009199Y018026D01*
X009249Y018026D01*
X009274Y018001D01*
X009174Y017901D01*
X009199Y017876D01*
X009249Y017876D01*
X009274Y017901D01*
X009274Y018001D01*
X009322Y018026D02*
X009322Y017876D01*
X009322Y017926D02*
X009397Y017976D01*
X009322Y017926D02*
X009397Y017876D01*
X009174Y017901D02*
X009174Y018001D01*
X005870Y019626D02*
X005795Y019676D01*
X005870Y019726D01*
X005795Y019776D02*
X005795Y019626D01*
X005747Y019651D02*
X005722Y019626D01*
X005672Y019626D01*
X005647Y019651D01*
X005747Y019751D01*
X005747Y019651D01*
X005647Y019651D02*
X005647Y019751D01*
X005672Y019776D01*
X005722Y019776D01*
X005747Y019751D01*
X005600Y019626D02*
X005500Y019626D01*
X005550Y019626D02*
X005550Y019776D01*
X005500Y019726D01*
X005500Y020414D02*
X005600Y020414D01*
X005550Y020414D02*
X005550Y020564D01*
X005500Y020514D01*
X005647Y020539D02*
X005647Y020439D01*
X005747Y020539D01*
X005747Y020439D01*
X005722Y020414D01*
X005672Y020414D01*
X005647Y020439D01*
X005647Y020539D02*
X005672Y020564D01*
X005722Y020564D01*
X005747Y020539D01*
X005795Y020564D02*
X005795Y020414D01*
X005795Y020464D02*
X005870Y020514D01*
X005795Y020464D02*
X005870Y020414D01*
X005870Y021301D02*
X005795Y021351D01*
X005870Y021401D01*
X005795Y021451D02*
X005795Y021301D01*
X005747Y021326D02*
X005722Y021301D01*
X005672Y021301D01*
X005647Y021326D01*
X005747Y021426D01*
X005747Y021326D01*
X005647Y021326D02*
X005647Y021426D01*
X005672Y021451D01*
X005722Y021451D01*
X005747Y021426D01*
X005600Y021301D02*
X005500Y021301D01*
X005550Y021301D02*
X005550Y021451D01*
X005500Y021401D01*
X005717Y022049D02*
X005817Y022049D01*
X005767Y022049D02*
X005767Y022199D01*
X005717Y022149D01*
X005865Y022174D02*
X005890Y022199D01*
X005940Y022199D01*
X005965Y022174D01*
X005865Y022074D01*
X005890Y022049D01*
X005940Y022049D01*
X005965Y022074D01*
X005965Y022174D01*
X006012Y022199D02*
X006012Y022049D01*
X006012Y022099D02*
X006087Y022149D01*
X006012Y022099D02*
X006087Y022049D01*
X005865Y022074D02*
X005865Y022174D01*
X005890Y022836D02*
X005865Y022861D01*
X005965Y022961D01*
X005965Y022861D01*
X005940Y022836D01*
X005890Y022836D01*
X005865Y022861D02*
X005865Y022961D01*
X005890Y022986D01*
X005940Y022986D01*
X005965Y022961D01*
X006012Y022986D02*
X006012Y022836D01*
X006012Y022886D02*
X006087Y022836D01*
X006012Y022886D02*
X006087Y022936D01*
X005817Y022836D02*
X005717Y022836D01*
X005767Y022836D02*
X005767Y022986D01*
X005717Y022936D01*
X002149Y018508D02*
X002074Y018457D01*
X002149Y018407D01*
X002074Y018407D02*
X002074Y018558D01*
X002027Y018533D02*
X001927Y018432D01*
X001952Y018407D01*
X002002Y018407D01*
X002027Y018432D01*
X002027Y018533D01*
X002002Y018558D01*
X001952Y018558D01*
X001927Y018533D01*
X001927Y018432D01*
X001880Y018432D02*
X001855Y018407D01*
X001804Y018407D01*
X001779Y018432D01*
X001880Y018533D01*
X001880Y018432D01*
X001880Y018533D02*
X001855Y018558D01*
X001804Y018558D01*
X001779Y018533D01*
X001779Y018432D01*
X001732Y018407D02*
X001632Y018407D01*
X001682Y018407D02*
X001682Y018558D01*
X001632Y018508D01*
X000896Y018508D02*
X000821Y018457D01*
X000896Y018407D01*
X000821Y018407D02*
X000821Y018558D01*
X000774Y018533D02*
X000674Y018432D01*
X000699Y018407D01*
X000749Y018407D01*
X000774Y018432D01*
X000774Y018533D01*
X000749Y018558D01*
X000699Y018558D01*
X000674Y018533D01*
X000674Y018432D01*
X000627Y018432D02*
X000602Y018407D01*
X000552Y018407D01*
X000526Y018432D01*
X000627Y018533D01*
X000627Y018432D01*
X000526Y018432D02*
X000526Y018533D01*
X000552Y018558D01*
X000602Y018558D01*
X000627Y018533D01*
X000479Y018407D02*
X000379Y018407D01*
X000429Y018407D02*
X000429Y018558D01*
X000379Y018508D01*
X015164Y017061D02*
X015164Y017036D01*
X015189Y017011D01*
X015239Y017011D01*
X015264Y016986D01*
X015264Y016961D01*
X015239Y016936D01*
X015189Y016936D01*
X015164Y016961D01*
X015164Y017061D02*
X015189Y017086D01*
X015239Y017086D01*
X015264Y017061D01*
X015311Y017086D02*
X015361Y017086D01*
X015336Y017086D02*
X015336Y016936D01*
X015311Y016936D02*
X015361Y016936D01*
X015409Y017011D02*
X015509Y017011D01*
X015556Y017011D02*
X015657Y017011D01*
X015704Y017061D02*
X015729Y017086D01*
X015779Y017086D01*
X015804Y017061D01*
X015804Y017036D01*
X015779Y017011D01*
X015804Y016986D01*
X015804Y016961D01*
X015779Y016936D01*
X015729Y016936D01*
X015704Y016961D01*
X015754Y017011D02*
X015779Y017011D01*
X015851Y017011D02*
X015901Y017036D01*
X015926Y017036D01*
X015951Y017011D01*
X015951Y016961D01*
X015926Y016936D01*
X015876Y016936D01*
X015851Y016961D01*
X015851Y017011D02*
X015851Y017086D01*
X015951Y017086D01*
X015998Y017086D02*
X016073Y017086D01*
X016099Y017061D01*
X016099Y017011D01*
X016073Y016986D01*
X015998Y016986D01*
X015998Y016936D02*
X015998Y017086D01*
X016146Y017061D02*
X016146Y016961D01*
X016171Y016936D01*
X016221Y016936D01*
X016246Y016961D01*
X016246Y017061D01*
X016221Y017086D01*
X016171Y017086D01*
X016146Y017061D01*
X016293Y017086D02*
X016293Y016936D01*
X016343Y016986D01*
X016393Y016936D01*
X016393Y017086D01*
X016440Y017086D02*
X016440Y016936D01*
X016540Y016936D01*
X016588Y016936D02*
X016588Y017086D01*
X016663Y017086D01*
X016688Y017061D01*
X016688Y017011D01*
X016663Y016986D01*
X016588Y016986D01*
X016638Y016986D02*
X016688Y016936D01*
X016540Y017086D02*
X016440Y017086D01*
X016440Y017011D02*
X016490Y017011D01*
X015632Y016936D02*
X015632Y017086D01*
X015556Y017011D01*
X015484Y017086D02*
X015409Y017011D01*
X015484Y016936D02*
X015484Y017086D01*
M02*
