G75*
%MOIN*%
%OFA0B0*%
%FSLAX24Y24*%
%IPPOS*%
%LPD*%
%AMOC8*
5,1,8,0,0,1.08239X$1,22.5*
%
%ADD10C,0.0000*%
%ADD11R,0.0296X0.0006*%
%ADD12R,0.0038X0.0006*%
%ADD13R,0.0088X0.0006*%
%ADD14R,0.0252X0.0006*%
%ADD15R,0.0113X0.0006*%
%ADD16R,0.0214X0.0006*%
%ADD17R,0.0132X0.0006*%
%ADD18R,0.0183X0.0006*%
%ADD19R,0.0145X0.0006*%
%ADD20R,0.0164X0.0006*%
%ADD21R,0.0157X0.0006*%
%ADD22R,0.0151X0.0006*%
%ADD23R,0.0170X0.0006*%
%ADD24R,0.0176X0.0006*%
%ADD25R,0.0120X0.0006*%
%ADD26R,0.0094X0.0006*%
%ADD27R,0.0031X0.0006*%
%ADD28R,0.0069X0.0006*%
%ADD29R,0.0107X0.0006*%
%ADD30R,0.0025X0.0006*%
%ADD31R,0.0019X0.0006*%
%ADD32R,0.0101X0.0006*%
%ADD33R,0.0063X0.0006*%
%ADD34R,0.0057X0.0006*%
%ADD35R,0.0139X0.0006*%
%ADD36R,0.0302X0.0006*%
%ADD37R,0.0208X0.0006*%
%ADD38R,0.0006X0.0006*%
%ADD39R,0.0050X0.0006*%
%ADD40R,0.0202X0.0006*%
%ADD41R,0.0246X0.0006*%
%ADD42R,0.0013X0.0006*%
%ADD43R,0.0220X0.0006*%
%ADD44R,0.0044X0.0006*%
%ADD45R,0.0271X0.0006*%
%ADD46R,0.0321X0.0006*%
%ADD47R,0.0126X0.0006*%
%ADD48R,0.0082X0.0006*%
%ADD49R,0.0076X0.0006*%
%ADD50R,0.0189X0.0006*%
%ADD51R,0.0195X0.0006*%
%ADD52R,0.0510X0.0006*%
%ADD53R,0.0504X0.0006*%
%ADD54R,0.0346X0.0006*%
%ADD55R,0.0328X0.0006*%
%ADD56R,0.0265X0.0006*%
%ADD57R,0.0315X0.0006*%
%ADD58R,0.0894X0.0006*%
%ADD59R,0.1159X0.0006*%
%ADD60R,0.1808X0.0006*%
%ADD61R,0.3250X0.0006*%
%ADD62R,0.1814X0.0006*%
%ADD63R,0.5254X0.0006*%
%ADD64R,0.5247X0.0006*%
%ADD65R,0.5241X0.0006*%
%ADD66R,0.5235X0.0006*%
%ADD67R,0.5228X0.0006*%
%ADD68R,0.5222X0.0006*%
%ADD69R,0.5216X0.0006*%
%ADD70R,0.5209X0.0006*%
%ADD71R,0.5203X0.0006*%
%ADD72R,0.5197X0.0006*%
%ADD73R,0.5191X0.0006*%
%ADD74R,0.5184X0.0006*%
%ADD75R,0.5178X0.0006*%
%ADD76R,0.5172X0.0006*%
%ADD77R,0.5165X0.0006*%
%ADD78R,0.5159X0.0006*%
%ADD79R,0.5153X0.0006*%
%ADD80R,0.5146X0.0006*%
%ADD81R,0.5140X0.0006*%
%ADD82R,0.5134X0.0006*%
%ADD83R,0.5128X0.0006*%
%ADD84R,0.5121X0.0006*%
%ADD85R,0.5115X0.0006*%
%ADD86R,0.5109X0.0006*%
%ADD87R,0.5102X0.0006*%
%ADD88R,0.5096X0.0006*%
%ADD89R,0.5090X0.0006*%
%ADD90R,0.5083X0.0006*%
%ADD91R,0.5077X0.0006*%
%ADD92R,0.5071X0.0006*%
%ADD93R,0.5065X0.0006*%
%ADD94R,0.5058X0.0006*%
%ADD95R,0.5052X0.0006*%
%ADD96R,0.1606X0.0006*%
%ADD97R,0.1587X0.0006*%
%ADD98R,0.1581X0.0006*%
%ADD99R,0.1575X0.0006*%
%ADD100R,0.1569X0.0006*%
%ADD101R,0.1556X0.0006*%
%ADD102R,0.1550X0.0006*%
%ADD103R,0.1537X0.0006*%
%ADD104R,0.1531X0.0006*%
%ADD105R,0.1518X0.0006*%
%ADD106R,0.1506X0.0006*%
%ADD107R,0.1493X0.0006*%
%ADD108R,0.1480X0.0006*%
%ADD109R,0.1468X0.0006*%
%ADD110R,0.1455X0.0006*%
%ADD111R,0.1443X0.0006*%
%ADD112R,0.1424X0.0006*%
%ADD113R,0.1405X0.0006*%
%ADD114R,0.1386X0.0006*%
%ADD115R,0.1361X0.0006*%
%ADD116R,0.1329X0.0006*%
%ADD117R,0.1291X0.0006*%
%ADD118R,0.4542X0.0006*%
%ADD119R,0.6545X0.0006*%
%ADD120R,0.0888X0.0006*%
%ADD121R,0.6539X0.0006*%
%ADD122R,0.6532X0.0006*%
%ADD123R,0.6526X0.0006*%
%ADD124R,0.6520X0.0006*%
%ADD125R,0.6513X0.0006*%
%ADD126R,0.6507X0.0006*%
%ADD127R,0.6501X0.0006*%
%ADD128R,0.6494X0.0006*%
%ADD129R,0.6488X0.0006*%
%ADD130R,0.6482X0.0006*%
%ADD131R,0.6476X0.0006*%
%ADD132R,0.6469X0.0006*%
%ADD133R,0.6463X0.0006*%
%ADD134R,0.6457X0.0006*%
%ADD135R,0.6450X0.0006*%
%ADD136R,0.6444X0.0006*%
%ADD137R,0.6438X0.0006*%
%ADD138R,0.6431X0.0006*%
%ADD139R,0.6425X0.0006*%
%ADD140R,0.6419X0.0006*%
%ADD141R,0.6413X0.0006*%
%ADD142R,0.6406X0.0006*%
%ADD143R,0.6400X0.0006*%
%ADD144R,0.6394X0.0006*%
%ADD145R,0.6387X0.0006*%
%ADD146R,0.6381X0.0006*%
%ADD147R,0.6375X0.0006*%
%ADD148R,0.6369X0.0006*%
%ADD149R,0.6362X0.0006*%
%ADD150R,0.6356X0.0006*%
%ADD151R,0.6343X0.0006*%
%ADD152R,0.6337X0.0006*%
%ADD153R,0.1594X0.0006*%
%ADD154R,0.1562X0.0006*%
%ADD155R,0.1543X0.0006*%
%ADD156R,0.1512X0.0006*%
%ADD157R,0.1499X0.0006*%
%ADD158R,0.1487X0.0006*%
%ADD159R,0.1474X0.0006*%
%ADD160R,0.1461X0.0006*%
%ADD161R,0.1430X0.0006*%
%ADD162R,0.1411X0.0006*%
%ADD163R,0.1367X0.0006*%
%ADD164R,0.1335X0.0006*%
%ADD165R,0.5858X0.0006*%
%ADD166R,0.7861X0.0006*%
%ADD167R,0.7855X0.0006*%
%ADD168R,0.7849X0.0006*%
%ADD169R,0.7843X0.0006*%
%ADD170R,0.7836X0.0006*%
%ADD171R,0.7830X0.0006*%
%ADD172R,0.7824X0.0006*%
%ADD173R,0.7817X0.0006*%
%ADD174R,0.7811X0.0006*%
%ADD175R,0.7805X0.0006*%
%ADD176R,0.7798X0.0006*%
%ADD177R,0.7792X0.0006*%
%ADD178R,0.7786X0.0006*%
%ADD179R,0.7780X0.0006*%
%ADD180R,0.7773X0.0006*%
%ADD181R,0.7767X0.0006*%
%ADD182R,0.7761X0.0006*%
%ADD183R,0.7754X0.0006*%
%ADD184R,0.7748X0.0006*%
%ADD185R,0.7742X0.0006*%
%ADD186R,0.7735X0.0006*%
%ADD187R,0.7729X0.0006*%
%ADD188R,0.7723X0.0006*%
%ADD189R,0.7717X0.0006*%
%ADD190R,0.7710X0.0006*%
%ADD191R,0.7704X0.0006*%
%ADD192R,0.7698X0.0006*%
%ADD193R,0.7691X0.0006*%
%ADD194R,0.7685X0.0006*%
%ADD195R,0.7679X0.0006*%
%ADD196R,0.7672X0.0006*%
%ADD197R,0.7666X0.0006*%
%ADD198R,0.7660X0.0006*%
%ADD199R,0.1600X0.0006*%
%ADD200R,0.1524X0.0006*%
%ADD201R,0.1436X0.0006*%
%ADD202R,0.1417X0.0006*%
%ADD203R,0.1398X0.0006*%
%ADD204R,0.1380X0.0006*%
%ADD205R,0.1354X0.0006*%
%ADD206R,0.1323X0.0006*%
%ADD207R,0.1260X0.0006*%
%ADD208C,0.0080*%
%ADD209C,0.0040*%
%ADD210C,0.0030*%
%ADD211C,0.0100*%
%ADD212C,0.0120*%
%ADD213C,0.0050*%
%ADD214C,0.0020*%
%ADD215R,0.0300X0.0800*%
%ADD216C,0.0060*%
%ADD217C,0.0010*%
D10*
X023373Y021124D02*
X020223Y024273D01*
D11*
X018840Y005000D03*
X017863Y004729D03*
X017863Y004723D03*
X017441Y004981D03*
X017441Y004987D03*
X016635Y004729D03*
X016635Y004723D03*
X014317Y004981D03*
X014317Y004987D03*
D12*
X013885Y005687D03*
X013885Y005693D03*
X015491Y004729D03*
X015662Y004975D03*
X015662Y004981D03*
X015662Y004987D03*
X015863Y005466D03*
X015863Y005472D03*
X016714Y005031D03*
X016783Y004987D03*
X017942Y005031D03*
X018011Y004987D03*
X018748Y005542D03*
X019006Y005031D03*
X019000Y005025D03*
X019296Y005076D03*
X019296Y005082D03*
X019384Y004987D03*
X019573Y005485D03*
X019391Y005548D03*
X019378Y005542D03*
X019365Y005535D03*
X019359Y005529D03*
D13*
X019321Y005403D03*
X019328Y005390D03*
X019542Y005535D03*
X019599Y005132D03*
X019599Y005126D03*
X019599Y005120D03*
X019321Y005013D03*
X019000Y005435D03*
X018994Y005453D03*
X018988Y005460D03*
X018988Y005466D03*
X018641Y005441D03*
X018635Y005435D03*
X018635Y005428D03*
X018200Y005013D03*
X016972Y005013D03*
X015876Y005523D03*
X015668Y005050D03*
X015491Y004735D03*
X013860Y005605D03*
D14*
X014736Y004994D03*
X015126Y004994D03*
X016638Y004735D03*
X017866Y004735D03*
D15*
X017873Y005082D03*
X017873Y005088D03*
X017873Y005094D03*
X017873Y005101D03*
X017873Y005416D03*
X017873Y005422D03*
X017854Y005567D03*
X018257Y005466D03*
X018263Y005460D03*
X018269Y005447D03*
X018276Y005441D03*
X018276Y005435D03*
X018282Y005428D03*
X018282Y005422D03*
X018288Y005416D03*
X018288Y005409D03*
X018295Y005397D03*
X018301Y005378D03*
X018307Y005353D03*
X018314Y005321D03*
X018314Y005227D03*
X018314Y005220D03*
X018314Y005214D03*
X018314Y005208D03*
X018307Y005189D03*
X018307Y005183D03*
X018307Y005176D03*
X018301Y005170D03*
X018301Y005164D03*
X018301Y005157D03*
X018295Y005145D03*
X018295Y005139D03*
X018288Y005126D03*
X018282Y005113D03*
X018276Y005101D03*
X018603Y005271D03*
X018603Y005277D03*
X018603Y005283D03*
X018603Y005290D03*
X018603Y005296D03*
X018603Y005302D03*
X018603Y005309D03*
X018603Y005315D03*
X018603Y005321D03*
X018603Y005327D03*
X018610Y005334D03*
X018610Y005340D03*
X018610Y005346D03*
X019340Y005372D03*
X019347Y005365D03*
X019529Y005548D03*
X019586Y005170D03*
X017444Y005063D03*
X017444Y005057D03*
X017444Y005050D03*
X017079Y005176D03*
X017079Y005183D03*
X017079Y005189D03*
X017085Y005208D03*
X017085Y005214D03*
X017085Y005220D03*
X017085Y005227D03*
X017073Y005170D03*
X017073Y005164D03*
X017073Y005157D03*
X017066Y005145D03*
X017066Y005139D03*
X017060Y005126D03*
X017054Y005113D03*
X017047Y005101D03*
X017085Y005321D03*
X017079Y005353D03*
X017073Y005378D03*
X017066Y005397D03*
X017060Y005409D03*
X017060Y005416D03*
X017054Y005422D03*
X017054Y005428D03*
X017047Y005435D03*
X017047Y005441D03*
X017041Y005447D03*
X017035Y005460D03*
X017028Y005466D03*
X017438Y005472D03*
X017438Y005479D03*
X017438Y005485D03*
X017444Y005888D03*
X016625Y005567D03*
X016644Y005422D03*
X016644Y005416D03*
X016644Y005101D03*
X016644Y005094D03*
X016644Y005088D03*
X016644Y005082D03*
X015668Y005082D03*
X015599Y005239D03*
X015586Y005271D03*
X015573Y005302D03*
X015567Y005315D03*
X015567Y005321D03*
X015561Y005334D03*
X015554Y005346D03*
X015554Y005353D03*
X015548Y005365D03*
X015548Y005372D03*
X015542Y005378D03*
X015542Y005384D03*
X015536Y005397D03*
X015536Y005403D03*
X015529Y005409D03*
X015529Y005416D03*
X015529Y005422D03*
X015523Y005428D03*
X015523Y005435D03*
X015517Y005447D03*
X015069Y005523D03*
X015057Y005529D03*
X014742Y005435D03*
X014736Y005076D03*
X014736Y005069D03*
X014736Y005063D03*
X014736Y005057D03*
X014736Y005050D03*
X015126Y005050D03*
X015126Y005057D03*
X015126Y005063D03*
X015126Y005069D03*
X015126Y005076D03*
X015491Y004742D03*
X014320Y005050D03*
X014320Y005057D03*
X014320Y005063D03*
X014314Y005472D03*
X014314Y005479D03*
X014314Y005485D03*
X014320Y005888D03*
X013847Y005579D03*
X013860Y005057D03*
X013860Y005050D03*
X013860Y005044D03*
D16*
X014988Y005542D03*
X016638Y004742D03*
X017866Y004742D03*
X019441Y005296D03*
X019460Y005283D03*
X019466Y005277D03*
D17*
X018833Y005554D03*
X018613Y005195D03*
X018619Y005170D03*
X018625Y005151D03*
X018632Y005139D03*
X018632Y005132D03*
X018638Y005126D03*
X018638Y005120D03*
X018644Y005113D03*
X018651Y005101D03*
X018657Y005094D03*
X018669Y005076D03*
X017882Y005050D03*
X017882Y005044D03*
X017863Y004779D03*
X017863Y004773D03*
X017441Y005031D03*
X017428Y005504D03*
X017876Y005466D03*
X017876Y005460D03*
X016647Y005460D03*
X016647Y005466D03*
X016654Y005050D03*
X016654Y005044D03*
X016635Y004779D03*
X016635Y004773D03*
X015495Y004748D03*
X015501Y005498D03*
X015501Y005504D03*
X014991Y005554D03*
X014745Y005466D03*
X014720Y005504D03*
X014304Y005504D03*
X014317Y005031D03*
X013945Y004975D03*
X013888Y005006D03*
X013882Y005013D03*
X014732Y005031D03*
D18*
X014739Y005006D03*
X015129Y005006D03*
X015507Y004792D03*
X016635Y004748D03*
X017863Y004748D03*
X018758Y005013D03*
X019526Y005233D03*
D19*
X019369Y005346D03*
X018701Y005044D03*
X018695Y005050D03*
X018688Y005057D03*
X017863Y004767D03*
X017876Y005472D03*
X017844Y005529D03*
X017422Y005516D03*
X016647Y005472D03*
X016616Y005529D03*
X016635Y004767D03*
X015495Y004754D03*
X015501Y005510D03*
X014745Y005479D03*
X014714Y005516D03*
X014298Y005516D03*
X013901Y005000D03*
D20*
X014320Y005013D03*
X014736Y005013D03*
X015126Y005013D03*
X015498Y004767D03*
X014704Y005523D03*
X014288Y005523D03*
X016600Y005542D03*
X016600Y005561D03*
X016638Y004754D03*
X017444Y005013D03*
X017866Y004754D03*
X017828Y005542D03*
X017828Y005561D03*
X017413Y005523D03*
X018729Y005025D03*
X018843Y004975D03*
X019384Y005334D03*
X019542Y005220D03*
D21*
X019551Y005214D03*
X019375Y005340D03*
X018720Y005031D03*
X017882Y005491D03*
X017416Y005542D03*
X016654Y005491D03*
X015879Y005542D03*
X015501Y005523D03*
X015495Y004761D03*
X014291Y005542D03*
D22*
X014704Y005542D03*
X014736Y005019D03*
X015126Y005019D03*
X015498Y005516D03*
X016613Y005535D03*
X016651Y005485D03*
X016651Y005479D03*
X016871Y005554D03*
X017444Y005019D03*
X017866Y004761D03*
X017879Y005479D03*
X017879Y005485D03*
X017841Y005535D03*
X018099Y005554D03*
X018710Y005038D03*
X019554Y005208D03*
X016638Y004761D03*
X014320Y005019D03*
D23*
X015501Y004773D03*
X015501Y005529D03*
X016654Y005498D03*
X017882Y005498D03*
X018745Y005019D03*
X019394Y005327D03*
X019532Y005227D03*
D24*
X019403Y005321D03*
X018093Y004981D03*
X017885Y005504D03*
X017444Y005006D03*
X016865Y004981D03*
X016657Y005504D03*
X015504Y004786D03*
X015504Y004779D03*
X014988Y005548D03*
X014320Y005006D03*
X013948Y004981D03*
D25*
X013869Y005025D03*
X013869Y005031D03*
X013863Y005038D03*
X014317Y005044D03*
X014310Y005491D03*
X014317Y005850D03*
X014317Y005857D03*
X014317Y005863D03*
X014317Y005869D03*
X014317Y005876D03*
X014317Y005882D03*
X013844Y005573D03*
X014726Y005491D03*
X014726Y005485D03*
X014739Y005447D03*
X014739Y005441D03*
X015507Y005472D03*
X015507Y005479D03*
X015514Y005466D03*
X015514Y005460D03*
X015514Y005453D03*
X015520Y005441D03*
X015665Y005094D03*
X015665Y005088D03*
X016647Y005076D03*
X016647Y005069D03*
X016635Y004798D03*
X016635Y004792D03*
X016635Y004786D03*
X017082Y005195D03*
X017082Y005201D03*
X017088Y005233D03*
X017088Y005239D03*
X017088Y005246D03*
X017088Y005252D03*
X017088Y005258D03*
X017088Y005264D03*
X017088Y005271D03*
X017088Y005277D03*
X017088Y005283D03*
X017088Y005290D03*
X017088Y005296D03*
X017088Y005302D03*
X017088Y005309D03*
X017088Y005315D03*
X017082Y005327D03*
X017082Y005334D03*
X017082Y005340D03*
X017082Y005346D03*
X017076Y005359D03*
X017076Y005365D03*
X017076Y005372D03*
X017069Y005384D03*
X017069Y005390D03*
X017063Y005403D03*
X017435Y005491D03*
X017441Y005850D03*
X017441Y005857D03*
X017441Y005863D03*
X017441Y005869D03*
X017441Y005876D03*
X017441Y005882D03*
X017869Y005435D03*
X017869Y005428D03*
X017876Y005076D03*
X017876Y005069D03*
X017863Y004798D03*
X017863Y004792D03*
X017863Y004786D03*
X017441Y005044D03*
X016641Y005428D03*
X016641Y005435D03*
X018291Y005403D03*
X018298Y005390D03*
X018298Y005384D03*
X018304Y005372D03*
X018304Y005365D03*
X018304Y005359D03*
X018310Y005346D03*
X018310Y005340D03*
X018310Y005334D03*
X018310Y005327D03*
X018317Y005315D03*
X018317Y005309D03*
X018317Y005302D03*
X018317Y005296D03*
X018317Y005290D03*
X018317Y005283D03*
X018317Y005277D03*
X018317Y005271D03*
X018317Y005264D03*
X018317Y005258D03*
X018317Y005252D03*
X018317Y005246D03*
X018317Y005239D03*
X018317Y005233D03*
X018310Y005201D03*
X018310Y005195D03*
X018606Y005227D03*
X018606Y005233D03*
X018606Y005239D03*
X018606Y005246D03*
X018606Y005252D03*
X018606Y005258D03*
X018606Y005264D03*
X019463Y004975D03*
X019583Y005176D03*
X019577Y005183D03*
D26*
X019595Y005145D03*
X019595Y005139D03*
X019325Y005006D03*
X019331Y005384D03*
X019539Y005542D03*
X019003Y005428D03*
X019003Y005422D03*
X018997Y005441D03*
X018997Y005447D03*
X019010Y005397D03*
X019010Y005390D03*
X018632Y005422D03*
X018625Y005409D03*
X018228Y005038D03*
X018222Y005031D03*
X018216Y005025D03*
X018210Y005019D03*
X018191Y005006D03*
X018178Y005000D03*
X018165Y004994D03*
X018153Y004987D03*
X017441Y005831D03*
X017441Y005907D03*
X017000Y005038D03*
X016994Y005031D03*
X016988Y005025D03*
X016981Y005019D03*
X016962Y005006D03*
X016950Y005000D03*
X016937Y004994D03*
X016925Y004987D03*
X015665Y005057D03*
X015665Y005063D03*
X015469Y004798D03*
X014317Y005831D03*
X014317Y005907D03*
X013857Y005598D03*
D27*
X013888Y005699D03*
X013888Y005705D03*
X013888Y005712D03*
X013888Y005718D03*
X014317Y005813D03*
X014317Y005926D03*
X014884Y005535D03*
X015658Y004968D03*
X015658Y004962D03*
X015595Y004811D03*
X015589Y004805D03*
X015583Y004798D03*
X015854Y005435D03*
X015860Y005447D03*
X015860Y005453D03*
X015860Y005460D03*
X016723Y005025D03*
X016729Y005019D03*
X016736Y005013D03*
X016767Y004994D03*
X017441Y005813D03*
X017441Y005926D03*
X017951Y005025D03*
X017958Y005019D03*
X017964Y005013D03*
X017995Y004994D03*
X019016Y005038D03*
X019022Y005044D03*
X019293Y005088D03*
X019293Y005094D03*
X019400Y004981D03*
X019577Y005472D03*
X019577Y005479D03*
D28*
X019318Y005428D03*
X018953Y005510D03*
X018947Y005516D03*
X018940Y005523D03*
X018928Y005529D03*
X018890Y005548D03*
X018676Y005491D03*
X018669Y005485D03*
X018846Y004968D03*
X019312Y005031D03*
X019589Y005050D03*
X019595Y005063D03*
X019595Y005069D03*
X019595Y005076D03*
X018102Y005561D03*
X016874Y005561D03*
X015873Y005510D03*
X015665Y005031D03*
X015665Y005025D03*
X015463Y004805D03*
X013869Y005624D03*
X013869Y005630D03*
D29*
X013851Y005586D03*
X014317Y005548D03*
X014317Y005466D03*
X014317Y005460D03*
X014317Y005453D03*
X014317Y005447D03*
X014317Y005838D03*
X014317Y005844D03*
X014317Y005894D03*
X014726Y005548D03*
X014739Y005428D03*
X014739Y005422D03*
X014739Y005416D03*
X014739Y005409D03*
X014739Y005403D03*
X014739Y005397D03*
X014739Y005390D03*
X014732Y005082D03*
X015129Y005082D03*
X015123Y005422D03*
X015123Y005428D03*
X015123Y005435D03*
X015123Y005441D03*
X015123Y005447D03*
X015117Y005460D03*
X015117Y005466D03*
X015110Y005479D03*
X015104Y005491D03*
X015098Y005498D03*
X015091Y005504D03*
X015085Y005510D03*
X015079Y005516D03*
X015539Y005390D03*
X015551Y005359D03*
X015558Y005340D03*
X015564Y005327D03*
X015570Y005309D03*
X015577Y005296D03*
X015577Y005290D03*
X015583Y005283D03*
X015583Y005277D03*
X015589Y005264D03*
X015589Y005258D03*
X015595Y005252D03*
X015595Y005246D03*
X015602Y005233D03*
X015602Y005227D03*
X015608Y005220D03*
X015608Y005214D03*
X015608Y005208D03*
X015614Y005201D03*
X015614Y005195D03*
X015621Y005189D03*
X015621Y005183D03*
X015621Y005176D03*
X015627Y005170D03*
X015627Y005164D03*
X015633Y005157D03*
X015633Y005151D03*
X015640Y005139D03*
X015640Y005132D03*
X015646Y005120D03*
X015652Y005107D03*
X015652Y005101D03*
X015665Y005076D03*
X015665Y005069D03*
X016641Y005107D03*
X016641Y005113D03*
X016641Y005120D03*
X016641Y005126D03*
X016641Y005132D03*
X016641Y005139D03*
X016641Y005145D03*
X016641Y005372D03*
X016641Y005378D03*
X016641Y005384D03*
X016641Y005390D03*
X016641Y005397D03*
X016641Y005403D03*
X016641Y005409D03*
X017006Y005491D03*
X017013Y005485D03*
X017019Y005479D03*
X017025Y005472D03*
X017038Y005453D03*
X017441Y005453D03*
X017441Y005447D03*
X017441Y005460D03*
X017441Y005466D03*
X017441Y005548D03*
X017441Y005838D03*
X017441Y005844D03*
X017441Y005894D03*
X017869Y005409D03*
X017869Y005403D03*
X017869Y005397D03*
X017869Y005390D03*
X017869Y005384D03*
X017869Y005378D03*
X017869Y005372D03*
X017869Y005145D03*
X017869Y005139D03*
X017869Y005132D03*
X017869Y005126D03*
X017869Y005120D03*
X017869Y005113D03*
X017869Y005107D03*
X017863Y004868D03*
X017863Y004861D03*
X017863Y004855D03*
X017863Y004849D03*
X017863Y004842D03*
X017863Y004836D03*
X017863Y004830D03*
X017863Y004824D03*
X017863Y004817D03*
X017863Y004811D03*
X017863Y004805D03*
X018241Y005050D03*
X018247Y005057D03*
X018260Y005076D03*
X018266Y005082D03*
X018266Y005088D03*
X018273Y005094D03*
X018279Y005107D03*
X018285Y005120D03*
X018291Y005132D03*
X018298Y005151D03*
X018619Y005384D03*
X018619Y005390D03*
X018266Y005453D03*
X018254Y005472D03*
X018247Y005479D03*
X018241Y005485D03*
X018235Y005491D03*
X017441Y005082D03*
X017441Y005076D03*
X017441Y005069D03*
X017069Y005151D03*
X017063Y005132D03*
X017057Y005120D03*
X017051Y005107D03*
X017044Y005094D03*
X017038Y005088D03*
X017038Y005082D03*
X017032Y005076D03*
X017019Y005057D03*
X017013Y005050D03*
X016635Y004868D03*
X016635Y004861D03*
X016635Y004855D03*
X016635Y004849D03*
X016635Y004842D03*
X016635Y004836D03*
X016635Y004830D03*
X016635Y004824D03*
X016635Y004817D03*
X016635Y004811D03*
X016635Y004805D03*
X014317Y005069D03*
X014317Y005076D03*
X014317Y005082D03*
X013857Y005076D03*
X013857Y005069D03*
X013857Y005063D03*
X019589Y005164D03*
D30*
X019290Y005107D03*
X019290Y005101D03*
X019051Y005082D03*
X019044Y005069D03*
X019038Y005063D03*
X019032Y005050D03*
X019580Y005460D03*
X019580Y005466D03*
X017986Y005000D03*
X017973Y005006D03*
X016758Y005000D03*
X016745Y005006D03*
X015838Y005390D03*
X015844Y005409D03*
X015851Y005422D03*
X015851Y005428D03*
X015857Y005441D03*
X015825Y005359D03*
X015813Y005327D03*
X015655Y004956D03*
X015655Y004950D03*
X015655Y004943D03*
X015649Y004931D03*
X015643Y004912D03*
X015630Y004880D03*
X015605Y004824D03*
X015599Y004817D03*
X015460Y004811D03*
X014868Y005529D03*
X014055Y005000D03*
X013891Y005724D03*
X013891Y005731D03*
D31*
X014065Y005006D03*
X014808Y005485D03*
X014814Y005491D03*
X014821Y005498D03*
X014827Y005504D03*
X014846Y005516D03*
X014858Y005523D03*
X015747Y005170D03*
X015747Y005164D03*
X015753Y005176D03*
X015753Y005183D03*
X015759Y005189D03*
X015759Y005195D03*
X015759Y005201D03*
X015765Y005208D03*
X015765Y005214D03*
X015772Y005220D03*
X015772Y005227D03*
X015772Y005233D03*
X015778Y005239D03*
X015778Y005246D03*
X015784Y005252D03*
X015784Y005258D03*
X015784Y005264D03*
X015791Y005271D03*
X015791Y005277D03*
X015797Y005283D03*
X015797Y005290D03*
X015797Y005296D03*
X015803Y005302D03*
X015803Y005309D03*
X015810Y005315D03*
X015810Y005321D03*
X015816Y005334D03*
X015816Y005340D03*
X015822Y005346D03*
X015822Y005353D03*
X015828Y005365D03*
X015828Y005372D03*
X015835Y005378D03*
X015835Y005384D03*
X015841Y005397D03*
X015841Y005403D03*
X015847Y005416D03*
X015740Y005151D03*
X015740Y005145D03*
X015734Y005139D03*
X015734Y005132D03*
X015728Y005120D03*
X015728Y005113D03*
X015721Y005107D03*
X015721Y005101D03*
X015652Y004937D03*
X015646Y004924D03*
X015646Y004918D03*
X015640Y004905D03*
X015640Y004899D03*
X015633Y004893D03*
X015633Y004887D03*
X015627Y004874D03*
X015627Y004868D03*
X015621Y004861D03*
X015621Y004855D03*
X015614Y004849D03*
X015614Y004842D03*
X015608Y004836D03*
X015608Y004830D03*
X019035Y005057D03*
X019047Y005076D03*
X019054Y005088D03*
X019060Y005101D03*
X019060Y005107D03*
X019066Y005120D03*
X019287Y005120D03*
X019287Y005126D03*
X019287Y005113D03*
X019287Y004994D03*
X019583Y005441D03*
X019583Y005447D03*
X019583Y005453D03*
D32*
X019334Y005378D03*
X019013Y005378D03*
X019013Y005384D03*
X019006Y005403D03*
X019006Y005409D03*
X019006Y005416D03*
X019328Y005000D03*
X019592Y005151D03*
X019592Y005157D03*
X018628Y005416D03*
X018622Y005403D03*
X018622Y005397D03*
X018616Y005378D03*
X018232Y005498D03*
X018225Y005504D03*
X018219Y005510D03*
X018206Y005516D03*
X018200Y005523D03*
X018188Y005529D03*
X018175Y005535D03*
X018162Y005542D03*
X017866Y005365D03*
X017866Y005359D03*
X017866Y005353D03*
X017866Y005346D03*
X017866Y005340D03*
X017866Y005334D03*
X017866Y005327D03*
X017866Y005321D03*
X017866Y005315D03*
X017866Y005309D03*
X017866Y005302D03*
X017866Y005296D03*
X017866Y005290D03*
X017866Y005283D03*
X017866Y005277D03*
X017866Y005271D03*
X017866Y005264D03*
X017866Y005258D03*
X017866Y005252D03*
X017866Y005246D03*
X017866Y005239D03*
X017866Y005233D03*
X017866Y005227D03*
X017866Y005220D03*
X017866Y005214D03*
X017866Y005208D03*
X017866Y005201D03*
X017866Y005195D03*
X017866Y005189D03*
X017866Y005183D03*
X017866Y005176D03*
X017866Y005170D03*
X017866Y005164D03*
X017866Y005157D03*
X017866Y005151D03*
X017866Y005031D03*
X017866Y005025D03*
X017866Y005019D03*
X017866Y005013D03*
X017866Y005006D03*
X017866Y005000D03*
X017866Y004994D03*
X017866Y004987D03*
X017866Y004981D03*
X017866Y004975D03*
X017866Y004968D03*
X017866Y004962D03*
X017866Y004956D03*
X017866Y004950D03*
X017866Y004943D03*
X017866Y004937D03*
X017866Y004931D03*
X017866Y004924D03*
X017866Y004918D03*
X017866Y004912D03*
X017866Y004905D03*
X017866Y004899D03*
X017866Y004893D03*
X017866Y004887D03*
X017866Y004880D03*
X017866Y004874D03*
X018238Y005044D03*
X018251Y005063D03*
X018257Y005069D03*
X017444Y005088D03*
X017444Y005094D03*
X017444Y005101D03*
X017444Y005107D03*
X017444Y005113D03*
X017444Y005120D03*
X017444Y005126D03*
X017444Y005132D03*
X017444Y005139D03*
X017444Y005145D03*
X017444Y005151D03*
X017444Y005157D03*
X017444Y005164D03*
X017444Y005170D03*
X017444Y005176D03*
X017444Y005183D03*
X017444Y005189D03*
X017444Y005195D03*
X017444Y005201D03*
X017444Y005208D03*
X017444Y005214D03*
X017444Y005220D03*
X017444Y005227D03*
X017444Y005233D03*
X017444Y005239D03*
X017444Y005246D03*
X017444Y005252D03*
X017444Y005258D03*
X017444Y005264D03*
X017444Y005271D03*
X017444Y005277D03*
X017444Y005283D03*
X017444Y005290D03*
X017444Y005296D03*
X017444Y005302D03*
X017444Y005309D03*
X017444Y005315D03*
X017444Y005321D03*
X017444Y005327D03*
X017444Y005334D03*
X017444Y005340D03*
X017444Y005346D03*
X017444Y005353D03*
X017444Y005359D03*
X017444Y005365D03*
X017444Y005372D03*
X017444Y005378D03*
X017444Y005384D03*
X017444Y005390D03*
X017444Y005397D03*
X017444Y005403D03*
X017444Y005409D03*
X017444Y005416D03*
X017444Y005422D03*
X017444Y005428D03*
X017444Y005435D03*
X017444Y005441D03*
X017444Y005901D03*
X017003Y005498D03*
X016997Y005504D03*
X016991Y005510D03*
X016978Y005516D03*
X016972Y005523D03*
X016959Y005529D03*
X016947Y005535D03*
X016934Y005542D03*
X016638Y005365D03*
X016638Y005359D03*
X016638Y005353D03*
X016638Y005346D03*
X016638Y005340D03*
X016638Y005334D03*
X016638Y005327D03*
X016638Y005321D03*
X016638Y005315D03*
X016638Y005309D03*
X016638Y005302D03*
X016638Y005296D03*
X016638Y005290D03*
X016638Y005283D03*
X016638Y005277D03*
X016638Y005271D03*
X016638Y005264D03*
X016638Y005258D03*
X016638Y005252D03*
X016638Y005246D03*
X016638Y005239D03*
X016638Y005233D03*
X016638Y005227D03*
X016638Y005220D03*
X016638Y005214D03*
X016638Y005208D03*
X016638Y005201D03*
X016638Y005195D03*
X016638Y005189D03*
X016638Y005183D03*
X016638Y005176D03*
X016638Y005170D03*
X016638Y005164D03*
X016638Y005157D03*
X016638Y005151D03*
X016638Y005031D03*
X016638Y005025D03*
X016638Y005019D03*
X016638Y005013D03*
X016638Y005006D03*
X016638Y005000D03*
X016638Y004994D03*
X016638Y004987D03*
X016638Y004981D03*
X016638Y004975D03*
X016638Y004968D03*
X016638Y004962D03*
X016638Y004956D03*
X016638Y004950D03*
X016638Y004943D03*
X016638Y004937D03*
X016638Y004931D03*
X016638Y004924D03*
X016638Y004918D03*
X016638Y004912D03*
X016638Y004905D03*
X016638Y004899D03*
X016638Y004893D03*
X016638Y004887D03*
X016638Y004880D03*
X016638Y004874D03*
X017010Y005044D03*
X017022Y005063D03*
X017028Y005069D03*
X015876Y005529D03*
X015636Y005145D03*
X015643Y005126D03*
X015649Y005113D03*
X015126Y005113D03*
X015126Y005107D03*
X015126Y005101D03*
X015126Y005094D03*
X015126Y005088D03*
X015126Y005120D03*
X015126Y005126D03*
X015126Y005132D03*
X015126Y005139D03*
X015126Y005145D03*
X015126Y005151D03*
X015126Y005157D03*
X015126Y005164D03*
X015126Y005170D03*
X015126Y005176D03*
X015126Y005183D03*
X015126Y005189D03*
X015126Y005195D03*
X015126Y005201D03*
X015126Y005208D03*
X015126Y005214D03*
X015126Y005220D03*
X015126Y005227D03*
X015126Y005233D03*
X015126Y005239D03*
X015126Y005246D03*
X015126Y005252D03*
X015126Y005258D03*
X015126Y005264D03*
X015126Y005271D03*
X015126Y005277D03*
X015126Y005283D03*
X015126Y005290D03*
X015126Y005296D03*
X015126Y005302D03*
X015126Y005309D03*
X015126Y005315D03*
X015126Y005321D03*
X015126Y005327D03*
X015126Y005334D03*
X015126Y005340D03*
X015126Y005346D03*
X015126Y005353D03*
X015126Y005359D03*
X015126Y005365D03*
X015126Y005372D03*
X015126Y005378D03*
X015126Y005384D03*
X015126Y005390D03*
X015126Y005397D03*
X015126Y005403D03*
X015126Y005409D03*
X015126Y005416D03*
X015120Y005453D03*
X015114Y005472D03*
X015107Y005485D03*
X014736Y005384D03*
X014736Y005378D03*
X014736Y005372D03*
X014736Y005365D03*
X014736Y005359D03*
X014736Y005353D03*
X014736Y005346D03*
X014736Y005340D03*
X014736Y005334D03*
X014736Y005327D03*
X014736Y005321D03*
X014736Y005315D03*
X014736Y005309D03*
X014736Y005302D03*
X014736Y005296D03*
X014736Y005290D03*
X014736Y005283D03*
X014736Y005277D03*
X014736Y005271D03*
X014736Y005264D03*
X014736Y005258D03*
X014736Y005252D03*
X014736Y005246D03*
X014736Y005239D03*
X014736Y005233D03*
X014736Y005227D03*
X014736Y005220D03*
X014736Y005214D03*
X014736Y005208D03*
X014736Y005201D03*
X014736Y005195D03*
X014736Y005189D03*
X014736Y005183D03*
X014736Y005176D03*
X014736Y005170D03*
X014736Y005164D03*
X014736Y005157D03*
X014736Y005151D03*
X014736Y005145D03*
X014736Y005139D03*
X014736Y005132D03*
X014736Y005126D03*
X014736Y005120D03*
X014736Y005113D03*
X014736Y005107D03*
X014736Y005101D03*
X014736Y005094D03*
X014736Y005088D03*
X014320Y005088D03*
X014320Y005094D03*
X014320Y005101D03*
X014320Y005107D03*
X014320Y005113D03*
X014320Y005120D03*
X014320Y005126D03*
X014320Y005132D03*
X014320Y005139D03*
X014320Y005145D03*
X014320Y005151D03*
X014320Y005157D03*
X014320Y005164D03*
X014320Y005170D03*
X014320Y005176D03*
X014320Y005183D03*
X014320Y005189D03*
X014320Y005195D03*
X014320Y005201D03*
X014320Y005208D03*
X014320Y005214D03*
X014320Y005220D03*
X014320Y005227D03*
X014320Y005233D03*
X014320Y005239D03*
X014320Y005246D03*
X014320Y005252D03*
X014320Y005258D03*
X014320Y005264D03*
X014320Y005271D03*
X014320Y005277D03*
X014320Y005283D03*
X014320Y005290D03*
X014320Y005296D03*
X014320Y005302D03*
X014320Y005309D03*
X014320Y005315D03*
X014320Y005321D03*
X014320Y005327D03*
X014320Y005334D03*
X014320Y005340D03*
X014320Y005346D03*
X014320Y005353D03*
X014320Y005359D03*
X014320Y005365D03*
X014320Y005372D03*
X014320Y005378D03*
X014320Y005384D03*
X014320Y005390D03*
X014320Y005397D03*
X014320Y005403D03*
X014320Y005409D03*
X014320Y005416D03*
X014320Y005422D03*
X014320Y005428D03*
X014320Y005435D03*
X014320Y005441D03*
X014320Y005901D03*
X013854Y005592D03*
X013854Y005529D03*
X013854Y005523D03*
X013854Y005516D03*
X013854Y005510D03*
X013854Y005504D03*
X013854Y005498D03*
X013854Y005491D03*
X013854Y005485D03*
X013854Y005479D03*
X013854Y005472D03*
X013854Y005466D03*
X013854Y005460D03*
X013854Y005453D03*
X013854Y005447D03*
X013854Y005441D03*
X013854Y005435D03*
X013854Y005428D03*
X013854Y005422D03*
X013854Y005416D03*
X013854Y005409D03*
X013854Y005403D03*
X013854Y005397D03*
X013854Y005390D03*
X013854Y005384D03*
X013854Y005378D03*
X013854Y005372D03*
X013854Y005365D03*
X013854Y005359D03*
X013854Y005353D03*
X013854Y005346D03*
X013854Y005340D03*
X013854Y005334D03*
X013854Y005327D03*
X013854Y005321D03*
X013854Y005315D03*
X013854Y005309D03*
X013854Y005302D03*
X013854Y005296D03*
X013854Y005290D03*
X013854Y005283D03*
X013854Y005277D03*
X013854Y005271D03*
X013854Y005264D03*
X013854Y005258D03*
X013854Y005252D03*
X013854Y005246D03*
X013854Y005239D03*
X013854Y005233D03*
X013854Y005227D03*
X013854Y005220D03*
X013854Y005214D03*
X013854Y005208D03*
X013854Y005201D03*
X013854Y005195D03*
X013854Y005189D03*
X013854Y005183D03*
X013854Y005176D03*
X013854Y005170D03*
X013854Y005164D03*
X013854Y005157D03*
X013854Y005151D03*
X013854Y005145D03*
X013854Y005139D03*
X013854Y005132D03*
X013854Y005126D03*
X013854Y005120D03*
X013854Y005113D03*
X013854Y005107D03*
X013854Y005101D03*
X013854Y005094D03*
X013854Y005088D03*
X013854Y005082D03*
D33*
X013948Y004968D03*
X013873Y005636D03*
X014988Y005561D03*
X016651Y005573D03*
X016732Y005523D03*
X016745Y005529D03*
X016758Y005535D03*
X016777Y005542D03*
X016865Y004968D03*
X017879Y005573D03*
X017961Y005523D03*
X017973Y005529D03*
X017986Y005535D03*
X018005Y005542D03*
X018093Y004968D03*
X018685Y005498D03*
X018691Y005504D03*
X018698Y005510D03*
X018906Y005542D03*
X018918Y005535D03*
X019315Y005453D03*
X019315Y005447D03*
X019315Y005441D03*
X019315Y005435D03*
X019561Y005516D03*
X019592Y005057D03*
X019586Y005044D03*
X019309Y005038D03*
X018975Y005013D03*
D34*
X019306Y005044D03*
X019306Y005050D03*
X019463Y004968D03*
X019570Y005019D03*
X019577Y005031D03*
X019583Y005038D03*
X019564Y005510D03*
X019325Y005485D03*
X019318Y005472D03*
X019318Y005466D03*
X019318Y005460D03*
X018833Y005561D03*
X018714Y005523D03*
X018707Y005516D03*
X017466Y005554D03*
X017441Y005819D03*
X017441Y005920D03*
X015873Y005504D03*
X015873Y005498D03*
X015665Y005019D03*
X015665Y005013D03*
X015665Y005006D03*
X014751Y005554D03*
X014342Y005554D03*
X014317Y005819D03*
X014317Y005920D03*
X013876Y005649D03*
X013876Y005642D03*
D35*
X013835Y005561D03*
X014301Y005510D03*
X014717Y005510D03*
X014742Y005472D03*
X014736Y005025D03*
X015126Y005025D03*
X015126Y005031D03*
X014320Y005025D03*
X016657Y005038D03*
X016865Y004975D03*
X017444Y005025D03*
X017885Y005038D03*
X018093Y004975D03*
X018647Y005107D03*
X018660Y005088D03*
X018666Y005082D03*
X018673Y005069D03*
X018679Y005063D03*
X019359Y005353D03*
X019561Y005201D03*
X019567Y005195D03*
X017847Y005523D03*
X017425Y005510D03*
X016619Y005523D03*
D36*
X015126Y004987D03*
X015126Y004981D03*
X014736Y004981D03*
X014736Y004987D03*
D37*
X014739Y005000D03*
X015129Y005000D03*
X014323Y005000D03*
X017447Y005000D03*
X018840Y004981D03*
X019432Y005302D03*
X019451Y005290D03*
X019476Y005271D03*
X019482Y005264D03*
D38*
X019589Y005409D03*
X019280Y005164D03*
X019280Y005157D03*
X019280Y005151D03*
X019280Y004981D03*
X017901Y005579D03*
X017491Y005561D03*
X016673Y005579D03*
X014651Y007066D03*
X014247Y008527D03*
X014367Y005561D03*
X014102Y005044D03*
D39*
X013879Y005655D03*
X013879Y005661D03*
X015662Y005000D03*
X015869Y005491D03*
X018723Y005529D03*
X018736Y005535D03*
X018988Y005019D03*
X019302Y005057D03*
X019510Y004981D03*
X019529Y004987D03*
X019548Y005000D03*
X019554Y005006D03*
X019561Y005013D03*
X019573Y005025D03*
X019567Y005498D03*
X019567Y005504D03*
X019328Y005491D03*
X019321Y005479D03*
D40*
X019422Y005309D03*
X019491Y005258D03*
X017885Y005516D03*
X017810Y005548D03*
X017810Y005554D03*
X016657Y005516D03*
X016581Y005548D03*
X016581Y005554D03*
X013948Y004987D03*
D41*
X014323Y004994D03*
X017447Y004994D03*
X018840Y004987D03*
D42*
X019057Y005094D03*
X019063Y005113D03*
X019069Y005126D03*
X019284Y005132D03*
X019284Y005139D03*
X019284Y005145D03*
X019284Y004987D03*
X019586Y005416D03*
X019586Y005422D03*
X019586Y005428D03*
X019586Y005435D03*
X015743Y005157D03*
X015731Y005126D03*
X014836Y005510D03*
X014773Y005561D03*
X014099Y005038D03*
X014093Y005031D03*
X014087Y005025D03*
X014080Y005019D03*
X014074Y005013D03*
D43*
X013951Y004994D03*
X015501Y005542D03*
D44*
X015866Y005485D03*
X015866Y005479D03*
X015665Y004994D03*
X013882Y005668D03*
X013882Y005674D03*
X013882Y005680D03*
X018764Y005548D03*
X019331Y005498D03*
X019337Y005504D03*
X019337Y005510D03*
X019343Y005516D03*
X019350Y005523D03*
X019570Y005491D03*
X019539Y004994D03*
X019369Y004994D03*
X019299Y005063D03*
X019299Y005069D03*
D45*
X018840Y004994D03*
D46*
X018840Y005006D03*
D47*
X018628Y005145D03*
X018622Y005157D03*
X018622Y005164D03*
X018616Y005176D03*
X018616Y005183D03*
X018616Y005189D03*
X018610Y005201D03*
X018610Y005208D03*
X018610Y005214D03*
X018610Y005220D03*
X017879Y005063D03*
X017879Y005057D03*
X017873Y005441D03*
X017873Y005447D03*
X017873Y005453D03*
X017432Y005498D03*
X017444Y005038D03*
X016651Y005057D03*
X016651Y005063D03*
X016644Y005441D03*
X016644Y005447D03*
X016644Y005453D03*
X015876Y005535D03*
X015504Y005491D03*
X015504Y005485D03*
X015044Y005535D03*
X014742Y005460D03*
X014742Y005453D03*
X014723Y005498D03*
X014307Y005498D03*
X014320Y005038D03*
X014736Y005038D03*
X014736Y005044D03*
X015126Y005044D03*
X015126Y005038D03*
X013879Y005019D03*
X013841Y005567D03*
X019353Y005359D03*
X019573Y005189D03*
D48*
X019602Y005113D03*
X019602Y005107D03*
X019602Y005101D03*
X019318Y005019D03*
X019325Y005397D03*
X019318Y005409D03*
X018984Y005472D03*
X018978Y005479D03*
X018978Y005485D03*
X018972Y005491D03*
X018965Y005498D03*
X018959Y005504D03*
X018657Y005466D03*
X018651Y005460D03*
X018651Y005453D03*
X018644Y005447D03*
X017441Y005825D03*
X017441Y005913D03*
X015665Y005044D03*
X015665Y005038D03*
X014317Y005825D03*
X014317Y005913D03*
X013863Y005611D03*
D49*
X013866Y005617D03*
X015876Y005516D03*
X018660Y005472D03*
X018666Y005479D03*
X019315Y005422D03*
X019315Y005416D03*
X019454Y005561D03*
X019548Y005529D03*
X019554Y005523D03*
X019599Y005094D03*
X019599Y005088D03*
X019599Y005082D03*
X019315Y005025D03*
D50*
X019517Y005239D03*
X019510Y005246D03*
X017885Y005510D03*
X016657Y005510D03*
X015876Y005548D03*
X015876Y005554D03*
X015498Y005535D03*
X014685Y005535D03*
D51*
X014688Y005529D03*
X014273Y005529D03*
X014273Y005535D03*
X016868Y005548D03*
X017397Y005535D03*
X017397Y005529D03*
X018096Y005548D03*
X019413Y005315D03*
X019501Y005252D03*
X019488Y005554D03*
D52*
X018808Y005353D03*
D53*
X018811Y005359D03*
X018811Y005365D03*
X018811Y005372D03*
D54*
X013901Y005535D03*
X013901Y005542D03*
D55*
X013910Y005548D03*
D56*
X015504Y005548D03*
X015504Y005554D03*
D57*
X013917Y005554D03*
D58*
X015095Y006587D03*
X015095Y006594D03*
X015095Y006600D03*
X015095Y006606D03*
X015095Y006613D03*
X015095Y006619D03*
X015095Y006625D03*
X015095Y006631D03*
X015095Y006638D03*
X015095Y006644D03*
X015095Y006650D03*
X015095Y006657D03*
X015095Y006663D03*
X015095Y006669D03*
X015095Y006676D03*
X015095Y006682D03*
X015095Y006688D03*
X015095Y006694D03*
X015095Y006701D03*
X015095Y006707D03*
X015095Y006713D03*
X015095Y006720D03*
X015095Y006726D03*
X015095Y006732D03*
X015095Y006739D03*
X015095Y006745D03*
X015095Y006751D03*
X015095Y006757D03*
X015095Y006764D03*
X015095Y006770D03*
X015095Y006776D03*
X015095Y006783D03*
X015095Y006789D03*
X015095Y006795D03*
X015095Y006801D03*
X015095Y006808D03*
X015095Y006814D03*
X015095Y006820D03*
X015095Y006827D03*
X015095Y006833D03*
X015095Y006839D03*
X015095Y006846D03*
X015095Y006852D03*
X015095Y006858D03*
X015095Y006864D03*
X015095Y006871D03*
X015095Y006877D03*
X015095Y006883D03*
X015095Y006890D03*
X015095Y006896D03*
X015095Y006902D03*
X015095Y006909D03*
X015095Y006915D03*
X015095Y006921D03*
X015095Y006927D03*
X015095Y006934D03*
X015095Y006940D03*
X015095Y006946D03*
X015095Y006953D03*
X015095Y006959D03*
X015095Y006965D03*
X015095Y006972D03*
X015095Y006978D03*
X015095Y006984D03*
X015095Y006990D03*
X015095Y006997D03*
X015095Y007003D03*
X015095Y007009D03*
X015095Y007016D03*
X015095Y007022D03*
X015095Y007028D03*
X015095Y007035D03*
X015095Y007041D03*
X015095Y007047D03*
X015095Y007053D03*
X015095Y007060D03*
X013803Y008049D03*
X013803Y008055D03*
X013803Y008061D03*
X013803Y008068D03*
X013803Y008074D03*
X013803Y008080D03*
X013803Y008087D03*
X013803Y008093D03*
X013803Y008099D03*
X013803Y008105D03*
X013803Y008112D03*
X013803Y008118D03*
X013803Y008124D03*
X013803Y008131D03*
X013803Y008137D03*
X013803Y008143D03*
X013803Y008150D03*
X013803Y008156D03*
X013803Y008162D03*
X013803Y008168D03*
X013803Y008175D03*
X013803Y008181D03*
X013803Y008187D03*
X013803Y008194D03*
X013803Y008200D03*
X013803Y008206D03*
X013803Y008213D03*
X013803Y008219D03*
X013803Y008225D03*
X013803Y008231D03*
X013803Y008238D03*
X013803Y008244D03*
X013803Y008250D03*
X013803Y008257D03*
X013803Y008263D03*
X013803Y008269D03*
X013803Y008276D03*
X013803Y008282D03*
X013803Y008288D03*
X013803Y008294D03*
X013803Y008301D03*
X013803Y008307D03*
X013803Y008313D03*
X013803Y008320D03*
X013803Y008326D03*
X013803Y008332D03*
X013803Y008339D03*
X013803Y008345D03*
X013803Y008351D03*
X013803Y008357D03*
X013803Y008364D03*
X013803Y008370D03*
X013803Y008376D03*
X013803Y008383D03*
X013803Y008389D03*
X013803Y008395D03*
X013803Y008401D03*
X013803Y008408D03*
X013803Y008414D03*
X013803Y008420D03*
X013803Y008427D03*
X013803Y008433D03*
X013803Y008439D03*
X013803Y008446D03*
X013803Y008452D03*
X013803Y008458D03*
X013803Y008464D03*
X013803Y008471D03*
X013803Y008477D03*
X013803Y008483D03*
X013803Y008490D03*
X013803Y008496D03*
X013803Y008502D03*
X013803Y008509D03*
X013803Y008515D03*
X013803Y008521D03*
D59*
X013803Y008534D03*
X013803Y008540D03*
X013803Y008546D03*
X013803Y008553D03*
X013803Y008559D03*
X013803Y008565D03*
X013803Y008572D03*
X013803Y008578D03*
X013803Y008584D03*
X013803Y008590D03*
X013803Y008597D03*
X013803Y008603D03*
X013803Y008609D03*
X013803Y008616D03*
X013803Y008622D03*
X013803Y008628D03*
X013803Y008635D03*
X013803Y008641D03*
X013803Y008647D03*
X013803Y008653D03*
X013803Y008660D03*
X013803Y008666D03*
X013803Y008672D03*
X013803Y008679D03*
X013803Y008685D03*
X013803Y008691D03*
X013803Y008698D03*
X013803Y008704D03*
X013803Y008710D03*
X013803Y008716D03*
X013803Y008723D03*
X013803Y008729D03*
X013803Y008735D03*
X013803Y008742D03*
X013803Y008748D03*
X013803Y008754D03*
X013803Y008761D03*
X013803Y008767D03*
X013803Y008773D03*
X013803Y008779D03*
X013803Y008786D03*
X013803Y008792D03*
X013803Y008798D03*
X013803Y008805D03*
X013803Y008811D03*
X013803Y008817D03*
X013803Y008824D03*
X013803Y008830D03*
X013803Y008836D03*
X013803Y008842D03*
X013803Y008849D03*
X013803Y008855D03*
X013803Y008861D03*
X013803Y008868D03*
X013803Y008874D03*
X013803Y008880D03*
X013803Y008887D03*
X013803Y008893D03*
X013803Y008899D03*
X013803Y008905D03*
X013803Y008912D03*
X013803Y008918D03*
X013803Y008924D03*
X013803Y008931D03*
X013803Y008937D03*
X013803Y008943D03*
X013803Y008950D03*
X013803Y008956D03*
X013803Y008962D03*
X013803Y008968D03*
X013803Y008975D03*
X013803Y008981D03*
X013803Y008987D03*
X013803Y008994D03*
X013803Y009000D03*
X013803Y009006D03*
X013803Y009013D03*
X013803Y009019D03*
X013803Y009025D03*
X013803Y009031D03*
X013803Y009038D03*
X013803Y009044D03*
X013803Y009050D03*
X013803Y009057D03*
X013803Y009063D03*
X013803Y009069D03*
X013803Y009076D03*
X013803Y009082D03*
X013803Y009088D03*
X013803Y009094D03*
X013803Y009101D03*
X013803Y009107D03*
X013803Y009113D03*
X013803Y009120D03*
X013803Y009126D03*
X013803Y009132D03*
X013803Y009139D03*
X013803Y009145D03*
X013803Y009151D03*
X013803Y009157D03*
X013803Y009164D03*
X013803Y009170D03*
X013803Y009176D03*
X013803Y009183D03*
X013803Y009189D03*
X013803Y009195D03*
X012487Y009945D03*
X012487Y009951D03*
X012487Y009957D03*
X012487Y009964D03*
X012487Y009970D03*
X012487Y009976D03*
X012487Y009983D03*
X012487Y009989D03*
X012487Y009995D03*
X012487Y010001D03*
X012487Y010008D03*
X012487Y010014D03*
X012487Y010020D03*
X012487Y010027D03*
X012487Y010033D03*
X012487Y010039D03*
X012487Y010046D03*
X012487Y010052D03*
X012487Y010058D03*
X012487Y010064D03*
X012487Y010071D03*
X012487Y010077D03*
X012487Y010083D03*
X012487Y010090D03*
X012487Y010096D03*
X012487Y010102D03*
X012487Y010109D03*
X012487Y010115D03*
X012487Y010121D03*
X012487Y010127D03*
X012487Y010134D03*
X012487Y010140D03*
X012487Y010146D03*
X012487Y010153D03*
X012487Y010159D03*
X012487Y010165D03*
X012487Y010172D03*
X012487Y010178D03*
X012487Y010184D03*
X012487Y010190D03*
X012487Y010197D03*
X012487Y010203D03*
X012487Y010209D03*
X012487Y010216D03*
X012487Y010222D03*
X012487Y010228D03*
X012487Y010235D03*
X012487Y010241D03*
X012487Y010247D03*
X012487Y010253D03*
X012487Y010260D03*
X012487Y010266D03*
X012487Y010272D03*
X012487Y010279D03*
X012487Y010285D03*
X012487Y010291D03*
X012487Y010298D03*
X012487Y010304D03*
X012487Y010310D03*
X012487Y010316D03*
X012487Y010323D03*
X012487Y010329D03*
X012487Y010335D03*
X012487Y010342D03*
X012487Y010348D03*
X012487Y010354D03*
X012487Y010361D03*
X012487Y010367D03*
X012487Y010373D03*
X012487Y010379D03*
X012487Y010386D03*
X012487Y010392D03*
X012487Y010398D03*
X012487Y010405D03*
X012487Y010411D03*
X012487Y010417D03*
X012487Y010424D03*
X012487Y010430D03*
X012487Y010436D03*
X012487Y010442D03*
X012487Y010449D03*
X012487Y010455D03*
X012487Y010461D03*
X012487Y010468D03*
X012487Y010474D03*
X012487Y010480D03*
X012487Y010487D03*
X012487Y010493D03*
X012487Y010499D03*
X012487Y010505D03*
X012487Y010512D03*
X012487Y010518D03*
X012487Y010524D03*
X012487Y010531D03*
X012487Y010537D03*
X012487Y010543D03*
X012487Y010550D03*
X012487Y010556D03*
X012487Y010562D03*
X012487Y010568D03*
X012487Y010575D03*
X012487Y010581D03*
X012487Y010587D03*
X012487Y010594D03*
X012487Y010600D03*
X012487Y010606D03*
X015095Y007734D03*
X015095Y007727D03*
X015095Y007721D03*
X015095Y007715D03*
X015095Y007709D03*
X015095Y007702D03*
X015095Y007696D03*
X015095Y007690D03*
X015095Y007683D03*
X015095Y007677D03*
X015095Y007671D03*
X015095Y007664D03*
X015095Y007658D03*
X015095Y007652D03*
X015095Y007646D03*
X015095Y007639D03*
X015095Y007633D03*
X015095Y007627D03*
X015095Y007620D03*
X015095Y007614D03*
X015095Y007608D03*
X015095Y007601D03*
X015095Y007595D03*
X015095Y007589D03*
X015095Y007583D03*
X015095Y007576D03*
X015095Y007570D03*
X015095Y007564D03*
X015095Y007557D03*
X015095Y007551D03*
X015095Y007545D03*
X015095Y007539D03*
X015095Y007532D03*
X015095Y007526D03*
X015095Y007520D03*
X015095Y007513D03*
X015095Y007507D03*
X015095Y007501D03*
X015095Y007494D03*
X015095Y007488D03*
X015095Y007482D03*
X015095Y007476D03*
X015095Y007469D03*
X015095Y007463D03*
X015095Y007457D03*
X015095Y007450D03*
X015095Y007444D03*
X015095Y007438D03*
X015095Y007431D03*
X015095Y007425D03*
X015095Y007419D03*
X015095Y007413D03*
X015095Y007406D03*
X015095Y007400D03*
X015095Y007394D03*
X015095Y007387D03*
X015095Y007381D03*
X015095Y007375D03*
X015095Y007368D03*
X015095Y007362D03*
X015095Y007356D03*
X015095Y007350D03*
X015095Y007343D03*
X015095Y007337D03*
X015095Y007331D03*
X015095Y007324D03*
X015095Y007318D03*
X015095Y007312D03*
X015095Y007305D03*
X015095Y007299D03*
X015095Y007293D03*
X015095Y007287D03*
X015095Y007280D03*
X015095Y007274D03*
X015095Y007268D03*
X015095Y007261D03*
X015095Y007255D03*
X015095Y007249D03*
X015095Y007242D03*
X015095Y007236D03*
X015095Y007230D03*
X015095Y007224D03*
X015095Y007217D03*
X015095Y007211D03*
X015095Y007205D03*
X015095Y007198D03*
X015095Y007192D03*
X015095Y007186D03*
X015095Y007179D03*
X015095Y007173D03*
X015095Y007167D03*
X015095Y007161D03*
X015095Y007154D03*
X015095Y007148D03*
X015095Y007142D03*
X015095Y007135D03*
X015095Y007129D03*
X015095Y007123D03*
X015095Y007116D03*
X015095Y007110D03*
X015095Y007104D03*
X015095Y007098D03*
X015095Y007091D03*
X015095Y007085D03*
X015095Y007079D03*
X015095Y007072D03*
D60*
X015419Y007740D03*
X015419Y007746D03*
X015419Y007753D03*
X015419Y007759D03*
X015419Y007765D03*
X015419Y007772D03*
X015419Y007778D03*
X015419Y007784D03*
X015419Y007790D03*
X015419Y007797D03*
X015419Y007803D03*
X015419Y007809D03*
X015419Y007816D03*
X015419Y007822D03*
X015419Y007828D03*
X015419Y007835D03*
X015419Y007841D03*
X015419Y007847D03*
X015419Y007853D03*
X015419Y007860D03*
X015419Y007866D03*
X014128Y009201D03*
X014128Y009208D03*
X014128Y009214D03*
X014128Y009220D03*
X014128Y009227D03*
X014128Y009233D03*
X014128Y009239D03*
X014128Y009246D03*
X014128Y009252D03*
X014128Y009258D03*
X014128Y009264D03*
X014128Y009271D03*
X014128Y009277D03*
X014128Y009283D03*
X014128Y009290D03*
X014128Y009296D03*
X014128Y009302D03*
X014128Y009309D03*
X014128Y009315D03*
X014128Y009321D03*
X014128Y009327D03*
X014128Y009334D03*
X012811Y010613D03*
X012811Y010619D03*
X012811Y010625D03*
X012811Y010631D03*
X012811Y010638D03*
X012811Y010644D03*
X012811Y010650D03*
X012811Y010657D03*
X012811Y010663D03*
X012811Y010669D03*
X012811Y010676D03*
X012811Y010682D03*
X012811Y010688D03*
X012811Y010694D03*
X012811Y010701D03*
X012811Y010707D03*
X012811Y010713D03*
X012811Y010720D03*
X012811Y010726D03*
X012811Y010732D03*
X012811Y010739D03*
D61*
X018143Y008893D03*
X018143Y008887D03*
X018143Y008880D03*
X018143Y008874D03*
X018143Y008868D03*
X018143Y008861D03*
X018143Y008855D03*
X018143Y008849D03*
X018143Y008842D03*
X018143Y008836D03*
X018143Y008830D03*
X018143Y008824D03*
X018143Y008817D03*
X018143Y008811D03*
X018143Y008805D03*
X018143Y008798D03*
X018143Y008792D03*
X018143Y008786D03*
X018143Y008779D03*
X018143Y008773D03*
X018143Y008767D03*
X018143Y008761D03*
X018143Y007872D03*
X018143Y007866D03*
X018143Y007860D03*
X018143Y007853D03*
X018143Y007847D03*
X018143Y007841D03*
X018143Y007835D03*
X018143Y007828D03*
X018143Y007822D03*
X018143Y007816D03*
X018143Y007809D03*
X018143Y007803D03*
X018143Y007797D03*
X018143Y007790D03*
X018143Y007784D03*
X018143Y007778D03*
X018143Y007772D03*
X018143Y007765D03*
X018143Y007759D03*
X018143Y007753D03*
D62*
X015422Y007872D03*
D63*
X017142Y007879D03*
X017142Y007885D03*
X017142Y007891D03*
X017142Y007898D03*
X017142Y007904D03*
X017142Y007910D03*
X017142Y007916D03*
X017142Y007923D03*
X017142Y007929D03*
X017142Y007935D03*
X017142Y007942D03*
X017142Y007948D03*
X017142Y007954D03*
X017142Y007961D03*
X017142Y007967D03*
X017142Y007973D03*
X017142Y007979D03*
X017142Y007986D03*
X017142Y007992D03*
X017142Y007998D03*
X017142Y008005D03*
X017142Y008011D03*
X017142Y008017D03*
X017142Y008024D03*
X017142Y008030D03*
X017142Y008036D03*
X017142Y008042D03*
X017142Y008049D03*
X017142Y008055D03*
X017142Y008061D03*
X017142Y008068D03*
X017142Y008074D03*
X017142Y008080D03*
X017142Y008087D03*
X017142Y008093D03*
X017142Y008099D03*
X017142Y008105D03*
X017142Y008112D03*
X017142Y008118D03*
X017142Y008124D03*
X017142Y008131D03*
X017142Y008137D03*
X017142Y008143D03*
X017142Y008150D03*
X017142Y008156D03*
X017142Y008162D03*
X017142Y008168D03*
X017142Y008175D03*
X017142Y008181D03*
X017142Y008187D03*
X017142Y008194D03*
X017142Y008200D03*
X017142Y008206D03*
X017142Y008213D03*
X017142Y008219D03*
X017142Y008225D03*
X017142Y008231D03*
X017142Y008238D03*
X017142Y008244D03*
X017142Y008250D03*
X017142Y008257D03*
X017142Y008263D03*
X017142Y008269D03*
X017142Y008276D03*
X017142Y008282D03*
X017142Y008288D03*
X017142Y008294D03*
X017142Y008301D03*
X017142Y008307D03*
X017142Y008313D03*
X017142Y008320D03*
X017142Y008326D03*
X017142Y008332D03*
X017142Y008339D03*
X017142Y008345D03*
X017142Y008351D03*
D64*
X017145Y008357D03*
X017145Y008364D03*
X017145Y008370D03*
X017145Y008376D03*
X017145Y008383D03*
X017145Y008389D03*
X017145Y008395D03*
X017145Y008401D03*
X017145Y008408D03*
D65*
X017148Y008414D03*
X017148Y008420D03*
X017148Y008427D03*
X017148Y008433D03*
X017148Y008439D03*
D66*
X017151Y008446D03*
X017151Y008452D03*
X017151Y008458D03*
X017151Y008464D03*
D67*
X017154Y008471D03*
X017154Y008477D03*
X017154Y008483D03*
D68*
X017158Y008490D03*
X017158Y008496D03*
X017158Y008502D03*
D69*
X017161Y008509D03*
X017161Y008515D03*
X017161Y008521D03*
D70*
X017164Y008527D03*
X017164Y008534D03*
X017164Y008540D03*
D71*
X017167Y008546D03*
X017167Y008553D03*
D72*
X017170Y008559D03*
X017170Y008565D03*
D73*
X017173Y008572D03*
X017173Y008578D03*
D74*
X017177Y008584D03*
X017177Y008590D03*
D75*
X017180Y008597D03*
X017180Y008603D03*
D76*
X017183Y008609D03*
D77*
X017186Y008616D03*
X017186Y008622D03*
D78*
X017189Y008628D03*
X017189Y008635D03*
D79*
X017192Y008641D03*
D80*
X017195Y008647D03*
D81*
X017199Y008653D03*
X017199Y008660D03*
D82*
X017202Y008666D03*
D83*
X017205Y008672D03*
D84*
X017208Y008679D03*
X017208Y008685D03*
D85*
X017211Y008691D03*
D86*
X017214Y008698D03*
D87*
X017217Y008704D03*
D88*
X017221Y008710D03*
D89*
X017224Y008716D03*
D90*
X017227Y008723D03*
D91*
X017230Y008729D03*
D92*
X017233Y008735D03*
D93*
X017236Y008742D03*
D94*
X017240Y008748D03*
D95*
X017243Y008754D03*
D96*
X015526Y008761D03*
D97*
X015529Y008767D03*
X014238Y010235D03*
X012921Y011639D03*
D98*
X012925Y011646D03*
X015532Y008773D03*
D99*
X015536Y008779D03*
X014244Y010241D03*
X012928Y011652D03*
D100*
X014247Y010247D03*
X015539Y008786D03*
D101*
X015545Y008792D03*
X012937Y011664D03*
D102*
X012940Y011671D03*
X014257Y010260D03*
X015548Y008798D03*
D103*
X015554Y008805D03*
X012947Y011677D03*
D104*
X014266Y010272D03*
X015558Y008811D03*
D105*
X015564Y008817D03*
X014273Y010279D03*
X012956Y011690D03*
D106*
X012962Y011696D03*
X015570Y008824D03*
D107*
X015577Y008830D03*
X012969Y011702D03*
D108*
X012975Y011709D03*
X015583Y008836D03*
D109*
X015589Y008842D03*
X012981Y011715D03*
D110*
X012988Y011721D03*
X015595Y008849D03*
D111*
X015602Y008855D03*
X014310Y010316D03*
D112*
X015611Y008861D03*
D113*
X015621Y008868D03*
D114*
X015630Y008874D03*
X014339Y010335D03*
D115*
X015643Y008880D03*
D116*
X015658Y008887D03*
D117*
X015677Y008893D03*
X014386Y010354D03*
D118*
X017498Y010354D03*
X017498Y010348D03*
X017498Y010342D03*
X017498Y010335D03*
X017498Y010329D03*
X017498Y010323D03*
X017498Y010316D03*
X017498Y010310D03*
X017498Y010304D03*
X017498Y010298D03*
X017498Y010291D03*
X017498Y010285D03*
X017498Y010279D03*
X017498Y010272D03*
X017498Y010266D03*
X017498Y010260D03*
X017498Y010253D03*
X017498Y010247D03*
X017498Y010241D03*
X017498Y010235D03*
X017498Y010228D03*
X017498Y009334D03*
X017498Y009327D03*
X017498Y009321D03*
X017498Y009315D03*
X017498Y009309D03*
X017498Y009302D03*
X017498Y009296D03*
X017498Y009290D03*
X017498Y009283D03*
X017498Y009277D03*
X017498Y009271D03*
X017498Y009264D03*
X017498Y009258D03*
X017498Y009252D03*
X017498Y009246D03*
X017498Y009239D03*
X017498Y009233D03*
X017498Y009227D03*
X017498Y009220D03*
X017498Y009214D03*
D119*
X016496Y009340D03*
X016496Y009346D03*
X016496Y009353D03*
X016496Y009359D03*
X016496Y009365D03*
X016496Y009372D03*
X016496Y009378D03*
X016496Y009384D03*
X016496Y009390D03*
X016496Y009397D03*
X016496Y009403D03*
X016496Y009409D03*
X016496Y009416D03*
X016496Y009422D03*
X016496Y009428D03*
X016496Y009435D03*
X016496Y009441D03*
X016496Y009447D03*
X016496Y009453D03*
X016496Y009460D03*
X016496Y009466D03*
X016496Y009472D03*
X016496Y009479D03*
X016496Y009485D03*
X016496Y009491D03*
X016496Y009498D03*
X016496Y009504D03*
X016496Y009510D03*
X016496Y009516D03*
X016496Y009523D03*
X016496Y009529D03*
X016496Y009535D03*
X016496Y009542D03*
X016496Y009548D03*
X016496Y009554D03*
X016496Y009561D03*
X016496Y009567D03*
X016496Y009573D03*
X016496Y009579D03*
X016496Y009586D03*
X016496Y009592D03*
X016496Y009598D03*
X016496Y009605D03*
X016496Y009611D03*
X016496Y009617D03*
X016496Y009624D03*
X016496Y009630D03*
X016496Y009636D03*
X016496Y009642D03*
X016496Y009649D03*
X016496Y009655D03*
X016496Y009661D03*
X016496Y009668D03*
X016496Y009674D03*
X016496Y009680D03*
X016496Y009687D03*
X016496Y009693D03*
X016496Y009699D03*
X016496Y009705D03*
X016496Y009712D03*
X016496Y009718D03*
X016496Y009724D03*
X016496Y009731D03*
X016496Y009737D03*
X016496Y009743D03*
X016496Y009750D03*
X016496Y009756D03*
X016496Y009762D03*
X016496Y009768D03*
X016496Y009775D03*
X016496Y009781D03*
X016496Y009787D03*
X016496Y009794D03*
X016496Y009800D03*
X016496Y009806D03*
X016496Y009813D03*
X016496Y009819D03*
X016496Y009825D03*
X016496Y009831D03*
X016496Y009838D03*
X016496Y009844D03*
D120*
X012484Y009844D03*
X012484Y009838D03*
X012484Y009831D03*
X012484Y009825D03*
X012484Y009819D03*
X012484Y009813D03*
X012484Y009806D03*
X012484Y009800D03*
X012484Y009794D03*
X012484Y009787D03*
X012484Y009781D03*
X012484Y009775D03*
X012484Y009768D03*
X012484Y009762D03*
X012484Y009756D03*
X012484Y009750D03*
X012484Y009743D03*
X012484Y009737D03*
X012484Y009731D03*
X012484Y009724D03*
X012484Y009718D03*
X012484Y009712D03*
X012484Y009705D03*
X012484Y009699D03*
X012484Y009693D03*
X012484Y009687D03*
X012484Y009680D03*
X012484Y009674D03*
X012484Y009668D03*
X012484Y009661D03*
X012484Y009655D03*
X012484Y009649D03*
X012484Y009642D03*
X012484Y009636D03*
X012484Y009630D03*
X012484Y009624D03*
X012484Y009617D03*
X012484Y009611D03*
X012484Y009605D03*
X012484Y009598D03*
X012484Y009592D03*
X012484Y009586D03*
X012484Y009579D03*
X012484Y009573D03*
X012484Y009567D03*
X012484Y009561D03*
X012484Y009554D03*
X012484Y009548D03*
X012484Y009542D03*
X012484Y009535D03*
X012484Y009529D03*
X012484Y009523D03*
X012484Y009516D03*
X012484Y009510D03*
X012484Y009504D03*
X012484Y009498D03*
X012484Y009491D03*
X012484Y009485D03*
X012484Y009479D03*
X012484Y009472D03*
X012484Y009466D03*
X012484Y009460D03*
X012484Y009850D03*
X012484Y009857D03*
X012484Y009863D03*
X012484Y009869D03*
X012484Y009876D03*
X012484Y009882D03*
X012484Y009888D03*
X012484Y009894D03*
X012484Y009901D03*
X012484Y009907D03*
X012484Y009913D03*
X012484Y009920D03*
X012484Y009926D03*
X012484Y009932D03*
D121*
X016499Y009888D03*
X016499Y009882D03*
X016499Y009876D03*
X016499Y009869D03*
X016499Y009863D03*
X016499Y009857D03*
X016499Y009850D03*
D122*
X016502Y009894D03*
X016502Y009901D03*
X016502Y009907D03*
X016502Y009913D03*
D123*
X016506Y009920D03*
X016506Y009926D03*
X016506Y009932D03*
X016506Y009939D03*
D124*
X016509Y009945D03*
X016509Y009951D03*
X016509Y009957D03*
D125*
X016512Y009964D03*
X016512Y009970D03*
X016512Y009976D03*
D126*
X016515Y009983D03*
X016515Y009989D03*
D127*
X016518Y009995D03*
X016518Y010001D03*
X016518Y010008D03*
D128*
X016521Y010014D03*
X016521Y010020D03*
D129*
X016525Y010027D03*
X016525Y010033D03*
D130*
X016528Y010039D03*
X016528Y010046D03*
D131*
X016531Y010052D03*
X016531Y010058D03*
D132*
X016534Y010064D03*
X016534Y010071D03*
D133*
X016537Y010077D03*
D134*
X016540Y010083D03*
X016540Y010090D03*
D135*
X016543Y010096D03*
D136*
X016547Y010102D03*
X016547Y010109D03*
D137*
X016550Y010115D03*
D138*
X016553Y010121D03*
X016553Y010127D03*
D139*
X016556Y010134D03*
D140*
X016559Y010140D03*
D141*
X016562Y010146D03*
D142*
X016565Y010153D03*
D143*
X016569Y010159D03*
X016569Y010165D03*
D144*
X016572Y010172D03*
D145*
X016575Y010178D03*
D146*
X016578Y010184D03*
D147*
X016581Y010190D03*
D148*
X016584Y010197D03*
D149*
X016588Y010203D03*
D150*
X016591Y010209D03*
D151*
X016597Y010216D03*
D152*
X016600Y010222D03*
D153*
X014235Y010228D03*
D154*
X014251Y010253D03*
X012934Y011658D03*
D155*
X014260Y010266D03*
D156*
X014276Y010285D03*
D157*
X014282Y010291D03*
D158*
X014288Y010298D03*
D159*
X014295Y010304D03*
D160*
X014301Y010310D03*
D161*
X014317Y010323D03*
D162*
X014326Y010329D03*
D163*
X014348Y010342D03*
D164*
X014364Y010348D03*
D165*
X016840Y010619D03*
X016840Y010625D03*
X016840Y010631D03*
X016840Y010638D03*
X016840Y010644D03*
X016840Y010650D03*
X016840Y010657D03*
X016840Y010663D03*
X016840Y010669D03*
X016840Y010676D03*
X016840Y010682D03*
X016840Y010688D03*
X016840Y010694D03*
X016840Y010701D03*
X016840Y010707D03*
X016840Y010713D03*
X016840Y010720D03*
X016840Y010726D03*
X016840Y010732D03*
X016840Y010739D03*
X016840Y011633D03*
X016840Y011639D03*
X016840Y011646D03*
X016840Y011652D03*
X016840Y011658D03*
X016840Y011664D03*
X016840Y011671D03*
X016840Y011677D03*
X016840Y011683D03*
X016840Y011690D03*
X016840Y011696D03*
X016840Y011702D03*
X016840Y011709D03*
X016840Y011715D03*
X016840Y011721D03*
X016840Y011727D03*
X016840Y011734D03*
X016840Y011740D03*
X016840Y011746D03*
X016840Y011753D03*
X016840Y011759D03*
X016840Y011765D03*
D166*
X015838Y011249D03*
X015838Y011242D03*
X015838Y011236D03*
X015838Y011230D03*
X015838Y011224D03*
X015838Y011217D03*
X015838Y011211D03*
X015838Y011205D03*
X015838Y011198D03*
X015838Y011192D03*
X015838Y011186D03*
X015838Y011179D03*
X015838Y011173D03*
X015838Y011167D03*
X015838Y011161D03*
X015838Y011154D03*
X015838Y011148D03*
X015838Y011142D03*
X015838Y011135D03*
X015838Y011129D03*
X015838Y011123D03*
X015838Y011116D03*
X015838Y011110D03*
X015838Y011104D03*
X015838Y011098D03*
X015838Y011091D03*
X015838Y011085D03*
X015838Y011079D03*
X015838Y011072D03*
X015838Y011066D03*
X015838Y011060D03*
X015838Y011053D03*
X015838Y011047D03*
X015838Y011041D03*
X015838Y011035D03*
X015838Y011028D03*
X015838Y011022D03*
X015838Y011016D03*
X015838Y011009D03*
X015838Y011003D03*
X015838Y010997D03*
X015838Y010990D03*
X015838Y010984D03*
X015838Y010978D03*
X015838Y010972D03*
X015838Y010965D03*
X015838Y010959D03*
X015838Y010953D03*
X015838Y010946D03*
X015838Y010940D03*
X015838Y010934D03*
X015838Y010927D03*
X015838Y010921D03*
X015838Y010915D03*
X015838Y010909D03*
X015838Y010902D03*
X015838Y010896D03*
X015838Y010890D03*
X015838Y010883D03*
X015838Y010877D03*
X015838Y010871D03*
X015838Y010864D03*
X015838Y010858D03*
X015838Y010852D03*
X015838Y010846D03*
X015838Y010839D03*
X015838Y010833D03*
X015838Y010827D03*
X015838Y010820D03*
X015838Y010814D03*
X015838Y010808D03*
X015838Y010801D03*
X015838Y010795D03*
X015838Y010789D03*
X015838Y010783D03*
X015838Y010776D03*
X015838Y010770D03*
X015838Y010764D03*
X015838Y010757D03*
X015838Y010751D03*
X015838Y010745D03*
D167*
X015841Y011255D03*
X015841Y011261D03*
X015841Y011268D03*
X015841Y011274D03*
X015841Y011280D03*
X015841Y011287D03*
X015841Y011293D03*
D168*
X015844Y011299D03*
X015844Y011305D03*
X015844Y011312D03*
X015844Y011318D03*
D169*
X015847Y011324D03*
X015847Y011331D03*
X015847Y011337D03*
X015847Y011343D03*
D170*
X015851Y011350D03*
X015851Y011356D03*
X015851Y011362D03*
D171*
X015854Y011368D03*
X015854Y011375D03*
X015854Y011381D03*
D172*
X015857Y011387D03*
X015857Y011394D03*
X015857Y011400D03*
D173*
X015860Y011406D03*
X015860Y011413D03*
D174*
X015863Y011419D03*
X015863Y011425D03*
D175*
X015866Y011431D03*
X015866Y011438D03*
D176*
X015869Y011444D03*
X015869Y011450D03*
D177*
X015873Y011457D03*
X015873Y011463D03*
D178*
X015876Y011469D03*
X015876Y011476D03*
D179*
X015879Y011482D03*
X015879Y011488D03*
D180*
X015882Y011494D03*
D181*
X015885Y011501D03*
X015885Y011507D03*
D182*
X015888Y011513D03*
D183*
X015891Y011520D03*
X015891Y011526D03*
D184*
X015895Y011532D03*
D185*
X015898Y011539D03*
D186*
X015901Y011545D03*
X015901Y011551D03*
D187*
X015904Y011557D03*
D188*
X015907Y011564D03*
D189*
X015910Y011570D03*
D190*
X015914Y011576D03*
D191*
X015917Y011583D03*
D192*
X015920Y011589D03*
D193*
X015923Y011595D03*
D194*
X015926Y011601D03*
D195*
X015929Y011608D03*
D196*
X015932Y011614D03*
D197*
X015936Y011620D03*
D198*
X015939Y011627D03*
D199*
X012915Y011633D03*
D200*
X012953Y011683D03*
D201*
X012997Y011727D03*
D202*
X013006Y011734D03*
D203*
X013016Y011740D03*
D204*
X013025Y011746D03*
D205*
X013038Y011753D03*
D206*
X013054Y011759D03*
D207*
X013085Y011765D03*
D208*
X002142Y013530D02*
X002142Y002337D01*
X002182Y002337D02*
X002682Y002337D01*
X002682Y001837D01*
X003420Y001837D01*
X007751Y001837D02*
X008432Y001837D01*
X008432Y002337D01*
X008932Y002337D01*
X008932Y013530D01*
X002142Y013530D01*
X001718Y012870D02*
X001718Y012370D01*
X001468Y012120D01*
X000968Y012120D01*
X000718Y012370D01*
X000718Y012870D01*
X000968Y013120D01*
X001468Y013120D01*
X001718Y012870D01*
X001468Y012120D02*
X001718Y011870D01*
X001718Y011370D01*
X001468Y011120D01*
X000968Y011120D01*
X000718Y011370D01*
X000718Y011870D01*
X000968Y012120D01*
X000968Y011120D02*
X000718Y010870D01*
X000718Y010370D01*
X000968Y010120D01*
X001468Y010120D01*
X001718Y009870D01*
X001718Y009370D01*
X001468Y009120D01*
X000968Y009120D01*
X000718Y009370D01*
X000718Y009870D01*
X000968Y010120D01*
X001468Y010120D02*
X001718Y010370D01*
X001718Y010870D01*
X001468Y011120D01*
X001468Y009120D02*
X001718Y008870D01*
X001718Y008370D01*
X001468Y008120D01*
X000968Y008120D01*
X000718Y008370D01*
X000718Y008870D01*
X000968Y009120D01*
X000968Y008120D02*
X000718Y007870D01*
X000718Y007370D01*
X000968Y007120D01*
X001468Y007120D01*
X001718Y007370D01*
X001718Y007870D01*
X001468Y008120D01*
X001629Y014847D02*
X001379Y015097D01*
X001379Y015597D01*
X001629Y015847D01*
X003129Y015847D01*
X003379Y016097D01*
X003379Y016597D01*
X003129Y016847D01*
X001629Y016847D01*
X001379Y017097D01*
X001379Y017597D01*
X001629Y017847D01*
X003129Y017847D01*
X003379Y017597D01*
X003379Y017097D01*
X003129Y016847D01*
X003129Y015847D02*
X003379Y015597D01*
X003379Y015097D01*
X003129Y014847D01*
X001629Y014847D01*
X001629Y015847D02*
X001379Y016097D01*
X001379Y016597D01*
X001629Y016847D01*
X003511Y015597D02*
X003511Y015097D01*
X010891Y023188D02*
X010891Y023602D01*
X010684Y023395D02*
X011098Y023395D01*
X008869Y023402D02*
X008455Y023402D01*
X014360Y023439D02*
X014360Y022651D01*
X014762Y023045D01*
X014360Y023439D01*
X018077Y023441D02*
X018077Y022653D01*
X018480Y023047D01*
X018077Y023441D01*
X017781Y018382D02*
X019182Y018382D01*
X019182Y016681D01*
X017781Y016681D01*
X017781Y018382D01*
X016883Y018136D02*
X016885Y018151D01*
X016891Y018164D01*
X016900Y018176D01*
X016911Y018185D01*
X016925Y018191D01*
X016940Y018193D01*
X016955Y018191D01*
X016968Y018185D01*
X016980Y018176D01*
X016989Y018165D01*
X016995Y018151D01*
X016997Y018136D01*
X016995Y018121D01*
X016989Y018108D01*
X016980Y018096D01*
X016969Y018087D01*
X016955Y018081D01*
X016940Y018079D01*
X016925Y018081D01*
X016912Y018087D01*
X016900Y018096D01*
X016891Y018107D01*
X016885Y018121D01*
X016883Y018136D01*
D209*
X018301Y018927D02*
X018456Y018927D01*
X018508Y018979D01*
X018508Y019186D01*
X018456Y019238D01*
X018301Y019238D01*
X018301Y018927D01*
X018623Y018979D02*
X018623Y019031D01*
X018675Y019083D01*
X018778Y019083D01*
X018830Y019031D01*
X018830Y018979D01*
X018778Y018927D01*
X018675Y018927D01*
X018623Y018979D01*
X018675Y019083D02*
X018623Y019134D01*
X018623Y019186D01*
X018675Y019238D01*
X018778Y019238D01*
X018830Y019186D01*
X018830Y019134D01*
X018778Y019083D01*
X017922Y019806D02*
X017871Y019755D01*
X017664Y019755D01*
X017612Y019806D01*
X017612Y019910D01*
X017664Y019961D01*
X017664Y020077D02*
X017612Y020129D01*
X017612Y020232D01*
X017664Y020284D01*
X017716Y020284D01*
X017922Y020077D01*
X017922Y020284D01*
X017767Y020399D02*
X017767Y020606D01*
X017922Y020554D02*
X017612Y020554D01*
X017767Y020399D01*
X017871Y019961D02*
X017922Y019910D01*
X017922Y019806D01*
X017869Y021007D02*
X017973Y021007D01*
X018025Y021058D01*
X018140Y021007D02*
X018347Y021007D01*
X018243Y021007D02*
X018243Y021317D01*
X018140Y021214D01*
X018025Y021265D02*
X017973Y021317D01*
X017869Y021317D01*
X017818Y021265D01*
X017818Y021058D01*
X017869Y021007D01*
X018462Y021007D02*
X018669Y021007D01*
X018566Y021007D02*
X018566Y021317D01*
X018462Y021214D01*
X019043Y022297D02*
X017263Y022297D01*
X017114Y022100D02*
X017114Y021893D01*
X017011Y021996D02*
X017217Y021996D01*
X016895Y021841D02*
X016688Y021841D01*
X016688Y022151D01*
X016573Y022151D02*
X016366Y022151D01*
X016366Y021841D01*
X016573Y021841D01*
X016470Y021996D02*
X016366Y021996D01*
X016251Y021841D02*
X016251Y022151D01*
X016044Y022151D02*
X016044Y021841D01*
X015928Y021841D02*
X015928Y022048D01*
X015825Y022151D01*
X015722Y022048D01*
X015722Y021841D01*
X015722Y021996D02*
X015928Y021996D01*
X016044Y022151D02*
X016251Y021841D01*
X015606Y021996D02*
X015554Y021945D01*
X015399Y021945D01*
X015399Y021841D02*
X015399Y022151D01*
X015554Y022151D01*
X015606Y022100D01*
X015606Y021996D01*
X015326Y022295D02*
X013546Y022295D01*
X012640Y021725D02*
X012640Y021415D01*
X012743Y021415D02*
X012536Y021415D01*
X012536Y021622D02*
X012640Y021725D01*
X012421Y021725D02*
X012214Y021725D01*
X012214Y021415D01*
X012214Y021570D02*
X012318Y021570D01*
X013546Y023795D02*
X015326Y023795D01*
X015075Y023915D02*
X015075Y024375D01*
X014845Y024145D01*
X015152Y024145D01*
X014692Y024145D02*
X014692Y023992D01*
X014615Y023915D01*
X014462Y023915D01*
X014385Y023992D01*
X014385Y024145D02*
X014538Y024222D01*
X014615Y024222D01*
X014692Y024145D01*
X014692Y024375D02*
X014385Y024375D01*
X014385Y024145D01*
X014231Y024068D02*
X014231Y023992D01*
X014155Y023915D01*
X014001Y023915D01*
X013924Y023992D01*
X013771Y023992D02*
X013694Y023915D01*
X013541Y023915D01*
X013464Y023992D01*
X013541Y024145D02*
X013464Y024222D01*
X013464Y024298D01*
X013541Y024375D01*
X013694Y024375D01*
X013771Y024298D01*
X013924Y024298D02*
X013924Y024222D01*
X014001Y024145D01*
X014155Y024145D01*
X014231Y024068D01*
X014231Y024298D02*
X014155Y024375D01*
X014001Y024375D01*
X013924Y024298D01*
X013694Y024145D02*
X013771Y024068D01*
X013771Y023992D01*
X013694Y024145D02*
X013541Y024145D01*
X015936Y023278D02*
X016092Y023123D01*
X016092Y023330D01*
X016247Y023278D02*
X015936Y023278D01*
X015988Y023008D02*
X015936Y022956D01*
X015936Y022801D01*
X016247Y022801D01*
X016247Y022956D01*
X016195Y023008D01*
X015988Y023008D01*
X016366Y022961D02*
X016366Y022806D01*
X016677Y022806D01*
X016677Y022961D01*
X016625Y023013D01*
X016418Y023013D01*
X016366Y022961D01*
X016418Y023128D02*
X016366Y023180D01*
X016366Y023284D01*
X016418Y023335D01*
X016470Y023335D01*
X016677Y023128D01*
X016677Y023335D01*
X017263Y023797D02*
X019043Y023797D01*
X018793Y023917D02*
X018793Y024378D01*
X018562Y024147D01*
X018869Y024147D01*
X018409Y024147D02*
X018409Y023994D01*
X018332Y023917D01*
X018179Y023917D01*
X018102Y023994D01*
X018102Y024147D02*
X018256Y024224D01*
X018332Y024224D01*
X018409Y024147D01*
X018409Y024378D02*
X018102Y024378D01*
X018102Y024147D01*
X017949Y024071D02*
X017949Y023994D01*
X017872Y023917D01*
X017718Y023917D01*
X017642Y023994D01*
X017488Y023994D02*
X017412Y023917D01*
X017258Y023917D01*
X017181Y023994D01*
X017258Y024147D02*
X017181Y024224D01*
X017181Y024301D01*
X017258Y024378D01*
X017412Y024378D01*
X017488Y024301D01*
X017642Y024301D02*
X017642Y024224D01*
X017718Y024147D01*
X017872Y024147D01*
X017949Y024071D01*
X017949Y024301D02*
X017872Y024378D01*
X017718Y024378D01*
X017642Y024301D01*
X017412Y024147D02*
X017488Y024071D01*
X017488Y023994D01*
X017412Y024147D02*
X017258Y024147D01*
X019856Y022705D02*
X019856Y022395D01*
X019856Y022499D02*
X020011Y022499D01*
X020063Y022550D01*
X020063Y022654D01*
X020011Y022705D01*
X019856Y022705D01*
X019959Y022499D02*
X020063Y022395D01*
X020178Y022550D02*
X020385Y022550D01*
X020333Y022395D02*
X020333Y022705D01*
X020178Y022550D01*
X021100Y021675D02*
X021100Y021416D01*
X021152Y021364D01*
X021255Y021364D01*
X021307Y021416D01*
X021307Y021675D01*
X021422Y021571D02*
X021526Y021675D01*
X021526Y021364D01*
X021629Y021364D02*
X021422Y021364D01*
X022924Y020405D02*
X022924Y020198D01*
X023079Y020198D01*
X023028Y020302D01*
X023028Y020353D01*
X023079Y020405D01*
X023183Y020405D01*
X023234Y020353D01*
X023234Y020250D01*
X023183Y020198D01*
X023234Y020083D02*
X023131Y019979D01*
X023131Y020031D02*
X023131Y019876D01*
X023126Y019792D02*
X023075Y019740D01*
X023075Y019585D01*
X023178Y019585D01*
X023230Y019636D01*
X023230Y019740D01*
X023178Y019792D01*
X023126Y019792D01*
X023234Y019876D02*
X022924Y019876D01*
X022924Y020031D01*
X022976Y020083D01*
X023079Y020083D01*
X023131Y020031D01*
X022919Y019792D02*
X022971Y019688D01*
X023075Y019585D01*
X023075Y019469D02*
X023126Y019418D01*
X023126Y019262D01*
X023230Y019262D02*
X022919Y019262D01*
X022919Y019418D01*
X022971Y019469D01*
X023075Y019469D01*
X023126Y019366D02*
X023230Y019469D01*
X023088Y019079D02*
X023088Y018769D01*
X023191Y018769D02*
X022984Y018769D01*
X022869Y018769D02*
X022662Y018769D01*
X022662Y019079D01*
X022984Y018975D02*
X023088Y019079D01*
X021433Y018309D02*
X021123Y018309D01*
X021278Y018309D02*
X021278Y018102D01*
X021226Y017987D02*
X021433Y017987D01*
X021433Y017832D01*
X021381Y017780D01*
X021226Y017780D01*
X021175Y017665D02*
X021381Y017458D01*
X021433Y017510D01*
X021433Y017613D01*
X021381Y017665D01*
X021175Y017665D01*
X021123Y017613D01*
X021123Y017510D01*
X021175Y017458D01*
X021381Y017458D01*
X021433Y017343D02*
X021433Y017136D01*
X021433Y017239D02*
X021123Y017239D01*
X021226Y017136D01*
X021123Y018102D02*
X021433Y018102D01*
X019073Y015823D02*
X019073Y015719D01*
X019021Y015668D01*
X019021Y015552D02*
X019073Y015500D01*
X019073Y015397D01*
X019021Y015345D01*
X018814Y015345D01*
X018762Y015397D01*
X018762Y015500D01*
X018814Y015552D01*
X018814Y015668D02*
X018762Y015719D01*
X018762Y015823D01*
X018814Y015874D01*
X018866Y015874D01*
X018918Y015823D01*
X018969Y015874D01*
X019021Y015874D01*
X019073Y015823D01*
X018918Y015823D02*
X018918Y015771D01*
X019807Y014320D02*
X019755Y014268D01*
X019755Y014165D01*
X019807Y014113D01*
X019858Y014113D01*
X019910Y014165D01*
X019910Y014320D01*
X020013Y014320D02*
X019807Y014320D01*
X020013Y014320D02*
X020065Y014268D01*
X020065Y014165D01*
X020013Y014113D01*
X020013Y013998D02*
X020065Y013946D01*
X020065Y013843D01*
X020013Y013791D01*
X019807Y013791D01*
X019755Y013843D01*
X019755Y013946D01*
X019807Y013998D01*
X020167Y013946D02*
X020167Y013843D01*
X020218Y013791D01*
X020425Y013791D01*
X020477Y013843D01*
X020477Y013946D01*
X020425Y013998D01*
X020425Y014113D02*
X020477Y014165D01*
X020477Y014268D01*
X020425Y014320D01*
X020322Y014320D01*
X020270Y014268D01*
X020270Y014216D01*
X020322Y014113D01*
X020167Y014113D01*
X020167Y014320D01*
X020218Y013998D02*
X020167Y013946D01*
X020582Y013950D02*
X020582Y013847D01*
X020634Y013795D01*
X020841Y013795D01*
X020892Y013847D01*
X020892Y013950D01*
X020841Y014002D01*
X020737Y014118D02*
X020737Y014324D01*
X020582Y014273D02*
X020737Y014118D01*
X020634Y014002D02*
X020582Y013950D01*
X020582Y014273D02*
X020892Y014273D01*
X020101Y012886D02*
X019998Y012886D01*
X019946Y012835D01*
X019831Y012886D02*
X019831Y012628D01*
X019779Y012576D01*
X019675Y012576D01*
X019624Y012628D01*
X019624Y012886D01*
X019946Y012576D02*
X020153Y012783D01*
X020153Y012835D01*
X020101Y012886D01*
X020153Y012576D02*
X019946Y012576D01*
X022832Y008026D02*
X023142Y008026D01*
X023142Y008129D02*
X023142Y007922D01*
X022935Y007922D02*
X022832Y008026D01*
X022832Y007807D02*
X022832Y007600D01*
X022832Y007703D02*
X023142Y007703D01*
X023142Y007484D02*
X022832Y007484D01*
X022832Y007278D02*
X023142Y007484D01*
X023142Y007278D02*
X022832Y007278D01*
X022935Y007162D02*
X022832Y007059D01*
X022935Y006955D01*
X023142Y006955D01*
X022987Y006955D02*
X022987Y007162D01*
X022935Y007162D02*
X023142Y007162D01*
X022524Y004666D02*
X022524Y004459D01*
X022524Y004563D02*
X022214Y004563D01*
X022317Y004459D01*
X022317Y004344D02*
X022266Y004344D01*
X022214Y004292D01*
X022214Y004189D01*
X022266Y004137D01*
X022266Y004022D02*
X022214Y003970D01*
X022214Y003867D01*
X022266Y003815D01*
X022473Y003815D01*
X022524Y003867D01*
X022524Y003970D01*
X022473Y004022D01*
X022524Y004137D02*
X022317Y004344D01*
X022524Y004344D02*
X022524Y004137D01*
X022024Y004137D02*
X021817Y004344D01*
X021766Y004344D01*
X021714Y004292D01*
X021714Y004189D01*
X021766Y004137D01*
X021766Y004022D02*
X021714Y003970D01*
X021714Y003867D01*
X021766Y003815D01*
X021973Y003815D01*
X022024Y003867D01*
X022024Y003970D01*
X021973Y004022D01*
X022024Y004137D02*
X022024Y004344D01*
X022024Y004459D02*
X021817Y004666D01*
X021766Y004666D01*
X021714Y004614D01*
X021714Y004511D01*
X021766Y004459D01*
X021524Y004511D02*
X021524Y004614D01*
X021473Y004666D01*
X021266Y004666D01*
X021214Y004614D01*
X021214Y004511D01*
X021266Y004459D01*
X021317Y004459D01*
X021369Y004511D01*
X021369Y004666D01*
X021524Y004511D02*
X021473Y004459D01*
X021524Y004344D02*
X021524Y004137D01*
X021524Y004241D02*
X021214Y004241D01*
X021317Y004137D01*
X021266Y004022D02*
X021214Y003970D01*
X021214Y003867D01*
X021266Y003815D01*
X021473Y003815D01*
X021524Y003867D01*
X021524Y003970D01*
X021473Y004022D01*
X022024Y004459D02*
X022024Y004666D01*
X017741Y001999D02*
X017741Y001688D01*
X017793Y001844D02*
X017586Y001844D01*
X017741Y001999D01*
X017367Y001999D02*
X017367Y001688D01*
X017264Y001688D02*
X017471Y001688D01*
X017264Y001895D02*
X017367Y001999D01*
X017148Y001947D02*
X016941Y001740D01*
X016993Y001688D01*
X017097Y001688D01*
X017148Y001740D01*
X017148Y001947D01*
X017097Y001999D01*
X016993Y001999D01*
X016941Y001947D01*
X016941Y001740D01*
X016826Y001688D02*
X016619Y001688D01*
X016826Y001895D01*
X016826Y001947D01*
X016774Y001999D01*
X016671Y001999D01*
X016619Y001947D01*
X016181Y001895D02*
X016181Y001637D01*
X016130Y001585D01*
X016078Y001585D01*
X016026Y001688D02*
X016181Y001688D01*
X016026Y001688D02*
X015975Y001740D01*
X015975Y001895D01*
X015861Y001895D02*
X015809Y001895D01*
X015706Y001792D01*
X015706Y001895D02*
X015706Y001688D01*
X015591Y001688D02*
X015591Y001844D01*
X015539Y001895D01*
X015435Y001895D01*
X015435Y001792D02*
X015591Y001792D01*
X015591Y001688D02*
X015435Y001688D01*
X015384Y001740D01*
X015435Y001792D01*
X015268Y001688D02*
X015268Y001895D01*
X015061Y001895D02*
X015061Y001740D01*
X015113Y001688D01*
X015268Y001688D01*
X014946Y001688D02*
X014946Y001844D01*
X014894Y001895D01*
X014739Y001895D01*
X014739Y001688D01*
X014624Y001688D02*
X014624Y001844D01*
X014572Y001895D01*
X014469Y001895D01*
X014469Y001792D02*
X014624Y001792D01*
X014624Y001688D02*
X014469Y001688D01*
X014417Y001740D01*
X014469Y001792D01*
X014250Y001740D02*
X014198Y001688D01*
X014146Y001688D01*
X014095Y001740D01*
X014250Y001740D02*
X014250Y001999D01*
X014198Y001999D02*
X014302Y001999D01*
X013661Y001740D02*
X013661Y001688D01*
X013609Y001688D01*
X013609Y001740D01*
X013661Y001740D01*
X013661Y001688D02*
X013558Y001585D01*
X013442Y001740D02*
X013442Y001792D01*
X013390Y001844D01*
X013235Y001844D01*
X013235Y001740D01*
X013287Y001688D01*
X013390Y001688D01*
X013442Y001740D01*
X013339Y001947D02*
X013235Y001844D01*
X013339Y001947D02*
X013442Y001999D01*
X013126Y001740D02*
X013126Y001688D01*
X013074Y001688D01*
X013074Y001740D01*
X013126Y001740D01*
X012959Y001688D02*
X012752Y001688D01*
X012959Y001895D01*
X012959Y001947D01*
X012907Y001999D01*
X012804Y001999D01*
X012752Y001947D01*
X012636Y001895D02*
X012533Y001688D01*
X012430Y001895D01*
X010252Y002593D02*
X010200Y002542D01*
X010097Y002542D01*
X010045Y002593D01*
X010252Y002800D01*
X010252Y002593D01*
X010045Y002593D02*
X010045Y002800D01*
X010097Y002852D01*
X010200Y002852D01*
X010252Y002800D01*
X010042Y002983D02*
X010042Y003035D01*
X010249Y003242D01*
X010249Y003294D01*
X010042Y003294D01*
X009823Y003294D02*
X009823Y002983D01*
X009720Y002983D02*
X009927Y002983D01*
X009878Y002852D02*
X009774Y002852D01*
X009723Y002800D01*
X009607Y002800D02*
X009556Y002852D01*
X009452Y002852D01*
X009400Y002800D01*
X009400Y002593D01*
X009452Y002542D01*
X009556Y002542D01*
X009607Y002593D01*
X009723Y002542D02*
X009930Y002749D01*
X009930Y002800D01*
X009878Y002852D01*
X009604Y002983D02*
X009501Y003087D01*
X009553Y003087D02*
X009397Y003087D01*
X009397Y002983D02*
X009397Y003294D01*
X009553Y003294D01*
X009604Y003242D01*
X009604Y003138D01*
X009553Y003087D01*
X009720Y003190D02*
X009823Y003294D01*
X009723Y002542D02*
X009930Y002542D01*
X009942Y005801D02*
X009735Y005801D01*
X009839Y005801D02*
X009839Y006111D01*
X009735Y006007D01*
X009620Y005956D02*
X009568Y005904D01*
X009413Y005904D01*
X009516Y005904D02*
X009620Y005801D01*
X009620Y005956D02*
X009620Y006059D01*
X009568Y006111D01*
X009413Y006111D01*
X009413Y005801D01*
X009427Y006224D02*
X009427Y006534D01*
X009582Y006534D01*
X009634Y006482D01*
X009634Y006379D01*
X009582Y006327D01*
X009427Y006327D01*
X009531Y006327D02*
X009634Y006224D01*
X009749Y006224D02*
X009956Y006224D01*
X009853Y006224D02*
X009853Y006534D01*
X009749Y006431D01*
X010072Y006431D02*
X010123Y006379D01*
X010279Y006379D01*
X010279Y006276D02*
X010279Y006482D01*
X010227Y006534D01*
X010123Y006534D01*
X010072Y006482D01*
X010072Y006431D01*
X010072Y006276D02*
X010123Y006224D01*
X010227Y006224D01*
X010279Y006276D01*
X010213Y006111D02*
X010109Y006111D01*
X010057Y006059D01*
X010057Y006007D01*
X010109Y005956D01*
X010213Y005956D01*
X010264Y005904D01*
X010264Y005852D01*
X010213Y005801D01*
X010109Y005801D01*
X010057Y005852D01*
X010057Y005904D01*
X010109Y005956D01*
X010213Y005956D02*
X010264Y006007D01*
X010264Y006059D01*
X010213Y006111D01*
X009339Y007735D02*
X009132Y007735D01*
X009080Y007787D01*
X009080Y007890D01*
X009132Y007942D01*
X009184Y008057D02*
X009080Y008161D01*
X009390Y008161D01*
X009390Y008264D02*
X009390Y008057D01*
X009339Y007942D02*
X009390Y007890D01*
X009390Y007787D01*
X009339Y007735D01*
X009339Y008379D02*
X009390Y008431D01*
X009390Y008535D01*
X009339Y008586D01*
X009235Y008586D01*
X009184Y008535D01*
X009184Y008483D01*
X009235Y008379D01*
X009080Y008379D01*
X009080Y008586D01*
X008862Y011062D02*
X009015Y011216D01*
X008862Y011369D01*
X009322Y011369D01*
X009322Y011523D02*
X009015Y011523D01*
X008862Y011676D01*
X009015Y011829D01*
X009322Y011829D01*
X009322Y011983D02*
X008862Y012290D01*
X009092Y012443D02*
X009092Y012750D01*
X008939Y012904D02*
X008862Y012980D01*
X008862Y013134D01*
X008939Y013211D01*
X009015Y013211D01*
X009092Y013134D01*
X009169Y013211D01*
X009246Y013211D01*
X009322Y013134D01*
X009322Y012980D01*
X009246Y012904D01*
X009092Y013057D02*
X009092Y013134D01*
X009246Y013364D02*
X009322Y013364D01*
X009246Y013364D02*
X008939Y013671D01*
X008862Y013671D01*
X008862Y013364D01*
X008939Y013824D02*
X008862Y013901D01*
X008862Y014055D01*
X008939Y014131D01*
X009015Y014131D01*
X009322Y013824D01*
X009322Y014131D01*
X010552Y014603D02*
X010552Y014913D01*
X010707Y014913D01*
X010758Y014862D01*
X010758Y014758D01*
X010707Y014707D01*
X010552Y014707D01*
X010655Y014707D02*
X010758Y014603D01*
X010874Y014603D02*
X011081Y014810D01*
X011081Y014862D01*
X011029Y014913D01*
X010926Y014913D01*
X010874Y014862D01*
X010874Y014603D02*
X011081Y014603D01*
X011196Y014655D02*
X011248Y014603D01*
X011351Y014603D01*
X011403Y014655D01*
X011403Y014707D01*
X011351Y014758D01*
X011196Y014758D01*
X011196Y014655D01*
X011196Y014758D02*
X011300Y014862D01*
X011403Y014913D01*
X011203Y015122D02*
X011203Y015173D01*
X011410Y015380D01*
X011410Y015432D01*
X011203Y015432D01*
X011088Y015380D02*
X011036Y015432D01*
X010933Y015432D01*
X010881Y015380D01*
X010766Y015380D02*
X010766Y015277D01*
X010714Y015225D01*
X010559Y015225D01*
X010662Y015225D02*
X010766Y015122D01*
X010881Y015122D02*
X011088Y015329D01*
X011088Y015380D01*
X011088Y015122D02*
X010881Y015122D01*
X010766Y015380D02*
X010714Y015432D01*
X010559Y015432D01*
X010559Y015122D01*
X010616Y015665D02*
X010719Y015665D01*
X010771Y015717D01*
X010886Y015665D02*
X011093Y015665D01*
X010990Y015665D02*
X010990Y015975D01*
X010886Y015872D01*
X010771Y015923D02*
X010719Y015975D01*
X010616Y015975D01*
X010564Y015923D01*
X010564Y015717D01*
X010616Y015665D01*
X010562Y016277D02*
X010562Y016587D01*
X010717Y016587D01*
X010769Y016535D01*
X010769Y016432D01*
X010717Y016380D01*
X010562Y016380D01*
X010665Y016380D02*
X010769Y016277D01*
X010884Y016277D02*
X011091Y016483D01*
X011091Y016535D01*
X011039Y016587D01*
X010936Y016587D01*
X010884Y016535D01*
X010884Y016277D02*
X011091Y016277D01*
X011207Y016432D02*
X011413Y016432D01*
X011362Y016277D02*
X011362Y016587D01*
X011207Y016432D01*
X011260Y016865D02*
X011209Y016917D01*
X011260Y016865D02*
X011364Y016865D01*
X011416Y016917D01*
X011416Y016968D01*
X011364Y017020D01*
X011312Y017020D01*
X011364Y017020D02*
X011416Y017072D01*
X011416Y017123D01*
X011364Y017175D01*
X011260Y017175D01*
X011209Y017123D01*
X010990Y017175D02*
X010990Y016865D01*
X011093Y016865D02*
X010886Y016865D01*
X010771Y016917D02*
X010719Y016865D01*
X010616Y016865D01*
X010564Y016917D01*
X010564Y017123D01*
X010616Y017175D01*
X010719Y017175D01*
X010771Y017123D01*
X010886Y017072D02*
X010990Y017175D01*
X010891Y017414D02*
X011097Y017621D01*
X011097Y017672D01*
X011046Y017724D01*
X010942Y017724D01*
X010891Y017672D01*
X010775Y017672D02*
X010775Y017569D01*
X010723Y017517D01*
X010568Y017517D01*
X010568Y017414D02*
X010568Y017724D01*
X010723Y017724D01*
X010775Y017672D01*
X010672Y017517D02*
X010775Y017414D01*
X010891Y017414D02*
X011097Y017414D01*
X011213Y017466D02*
X011265Y017414D01*
X011368Y017414D01*
X011420Y017466D01*
X011420Y017569D01*
X011368Y017621D01*
X011316Y017621D01*
X011213Y017569D01*
X011213Y017724D01*
X011420Y017724D01*
X012439Y017686D02*
X012749Y017686D01*
X012749Y017893D01*
X012749Y018008D02*
X012439Y018008D01*
X012749Y018215D01*
X012439Y018215D01*
X012490Y018330D02*
X012542Y018330D01*
X012594Y018382D01*
X012594Y018485D01*
X012646Y018537D01*
X012697Y018537D01*
X012749Y018485D01*
X012749Y018382D01*
X012697Y018330D01*
X012490Y018330D02*
X012439Y018382D01*
X012439Y018485D01*
X012490Y018537D01*
X012439Y018653D02*
X012749Y018653D01*
X012749Y018859D01*
X012594Y018756D02*
X012594Y018653D01*
X012439Y018653D02*
X012439Y018859D01*
X012439Y017893D02*
X012439Y017686D01*
X012490Y017570D02*
X012439Y017519D01*
X012439Y017415D01*
X012490Y017363D01*
X012542Y017363D01*
X012594Y017415D01*
X012594Y017519D01*
X012646Y017570D01*
X012697Y017570D01*
X012749Y017519D01*
X012749Y017415D01*
X012697Y017363D01*
X012749Y017248D02*
X012646Y017145D01*
X012646Y017196D02*
X012646Y017041D01*
X012749Y017041D02*
X012439Y017041D01*
X012439Y017196D01*
X012490Y017248D01*
X012594Y017248D01*
X012646Y017196D01*
X012594Y017686D02*
X012594Y017789D01*
X011364Y015975D02*
X011209Y015820D01*
X011416Y015820D01*
X011364Y015665D02*
X011364Y015975D01*
X012614Y015614D02*
X012614Y015511D01*
X012666Y015459D01*
X012666Y015344D02*
X012614Y015292D01*
X012614Y015189D01*
X012666Y015137D01*
X012666Y015022D02*
X012769Y015022D01*
X012821Y014970D01*
X012821Y014815D01*
X012924Y014815D02*
X012614Y014815D01*
X012614Y014970D01*
X012666Y015022D01*
X012821Y014918D02*
X012924Y015022D01*
X012924Y015137D02*
X012717Y015344D01*
X012666Y015344D01*
X012924Y015344D02*
X012924Y015137D01*
X013087Y015243D02*
X013397Y015243D01*
X013397Y015140D02*
X013397Y015347D01*
X013345Y015462D02*
X013139Y015669D01*
X013345Y015669D01*
X013397Y015617D01*
X013397Y015514D01*
X013345Y015462D01*
X013139Y015462D01*
X013087Y015514D01*
X013087Y015617D01*
X013139Y015669D01*
X012924Y015666D02*
X012924Y015459D01*
X012717Y015666D01*
X012666Y015666D01*
X012614Y015614D01*
X013087Y015243D02*
X013190Y015140D01*
X013139Y015025D02*
X013242Y015025D01*
X013294Y014973D01*
X013294Y014818D01*
X013397Y014818D02*
X013087Y014818D01*
X013087Y014973D01*
X013139Y015025D01*
X013294Y014921D02*
X013397Y015025D01*
X013514Y014970D02*
X013566Y015022D01*
X013773Y015022D01*
X013824Y014970D01*
X013824Y014867D01*
X013773Y014815D01*
X013566Y014815D01*
X013514Y014867D01*
X013514Y014970D01*
X013617Y015137D02*
X013514Y015241D01*
X013824Y015241D01*
X013824Y015344D02*
X013824Y015137D01*
X013824Y015022D02*
X013721Y014918D01*
X013962Y014978D02*
X014014Y015029D01*
X014117Y015029D01*
X014169Y014978D01*
X014169Y014822D01*
X014272Y014822D02*
X013962Y014822D01*
X013962Y014978D01*
X014014Y015145D02*
X014065Y015145D01*
X014117Y015196D01*
X014117Y015352D01*
X014014Y015352D02*
X013962Y015300D01*
X013962Y015196D01*
X014014Y015145D01*
X014221Y015145D02*
X014272Y015196D01*
X014272Y015300D01*
X014221Y015352D01*
X014014Y015352D01*
X014272Y015029D02*
X014169Y014926D01*
X014223Y014216D02*
X014016Y014216D01*
X014223Y014009D01*
X014274Y014061D01*
X014274Y014164D01*
X014223Y014216D01*
X014223Y014009D02*
X014016Y014009D01*
X013964Y014061D01*
X013964Y014164D01*
X014016Y014216D01*
X014274Y013894D02*
X014274Y013687D01*
X014274Y013791D02*
X013964Y013791D01*
X014067Y013687D01*
X014016Y013572D02*
X013964Y013520D01*
X013964Y013417D01*
X014016Y013365D01*
X014223Y013365D01*
X014274Y013417D01*
X014274Y013520D01*
X014223Y013572D01*
X013814Y013573D02*
X013710Y013470D01*
X013710Y013522D02*
X013710Y013367D01*
X013814Y013367D02*
X013503Y013367D01*
X013503Y013522D01*
X013555Y013573D01*
X013658Y013573D01*
X013710Y013522D01*
X013762Y013689D02*
X013814Y013689D01*
X013762Y013689D02*
X013555Y013896D01*
X013503Y013896D01*
X013503Y013689D01*
X013374Y013687D02*
X013374Y013894D01*
X013374Y013791D02*
X013064Y013791D01*
X013167Y013687D01*
X013116Y013572D02*
X013064Y013520D01*
X013064Y013417D01*
X013116Y013365D01*
X013323Y013365D01*
X013374Y013417D01*
X013374Y013520D01*
X013323Y013572D01*
X012904Y013598D02*
X012801Y013495D01*
X012801Y013547D02*
X012801Y013392D01*
X012904Y013392D02*
X012594Y013392D01*
X012594Y013547D01*
X012646Y013598D01*
X012749Y013598D01*
X012801Y013547D01*
X012904Y013714D02*
X012904Y013921D01*
X012904Y013817D02*
X012594Y013817D01*
X012697Y013714D01*
X012697Y014036D02*
X012594Y014140D01*
X012904Y014140D01*
X012904Y014243D02*
X012904Y014036D01*
X013064Y014061D02*
X013064Y014164D01*
X013116Y014216D01*
X013167Y014216D01*
X013374Y014009D01*
X013374Y014216D01*
X013116Y014009D02*
X013064Y014061D01*
X011326Y013672D02*
X011016Y013672D01*
X011171Y013517D01*
X011171Y013724D01*
X011274Y013402D02*
X011016Y013402D01*
X011016Y013195D02*
X011274Y013195D01*
X011326Y013246D01*
X011326Y013350D01*
X011274Y013402D01*
X010243Y012275D02*
X010140Y012223D01*
X010036Y012120D01*
X010192Y012120D01*
X010243Y012068D01*
X010243Y012017D01*
X010192Y011965D01*
X010088Y011965D01*
X010036Y012017D01*
X010036Y012120D01*
X009921Y012223D02*
X009869Y012275D01*
X009766Y012275D01*
X009714Y012223D01*
X009714Y012017D01*
X009766Y011965D01*
X009869Y011965D01*
X009921Y012017D01*
X009322Y012290D02*
X008862Y011983D01*
X009092Y011829D02*
X009092Y011523D01*
X009322Y011062D02*
X008862Y011062D01*
X009092Y012443D02*
X008862Y012674D01*
X009322Y012674D01*
X005324Y013867D02*
X005273Y013815D01*
X005066Y013815D01*
X005014Y013867D01*
X005014Y013970D01*
X005066Y014022D01*
X005014Y014137D02*
X005014Y014344D01*
X005066Y014344D01*
X005273Y014137D01*
X005324Y014137D01*
X005273Y014022D02*
X005324Y013970D01*
X005324Y013867D01*
X003565Y013862D02*
X003565Y013965D01*
X003514Y014017D01*
X003565Y014132D02*
X003359Y014339D01*
X003307Y014339D01*
X003255Y014287D01*
X003255Y014184D01*
X003307Y014132D01*
X003307Y014017D02*
X003255Y013965D01*
X003255Y013862D01*
X003307Y013810D01*
X003514Y013810D01*
X003565Y013862D01*
X003565Y014132D02*
X003565Y014339D01*
X003870Y015580D02*
X003766Y015684D01*
X003870Y015787D01*
X004077Y015787D01*
X003973Y015902D02*
X004077Y016006D01*
X003973Y016109D01*
X003766Y016109D01*
X003766Y016225D02*
X003766Y016380D01*
X003818Y016432D01*
X003921Y016432D01*
X003973Y016380D01*
X003973Y016225D01*
X003973Y016328D02*
X004077Y016432D01*
X004077Y016547D02*
X004077Y016650D01*
X004077Y016599D02*
X003766Y016599D01*
X003766Y016650D02*
X003766Y016547D01*
X003818Y016762D02*
X003870Y016762D01*
X003921Y016814D01*
X003921Y016917D01*
X003973Y016969D01*
X004025Y016969D01*
X004077Y016917D01*
X004077Y016814D01*
X004025Y016762D01*
X003818Y016762D02*
X003766Y016814D01*
X003766Y016917D01*
X003818Y016969D01*
X003766Y017084D02*
X003766Y017239D01*
X003818Y017291D01*
X003921Y017291D01*
X003973Y017239D01*
X003973Y017084D01*
X004077Y017084D02*
X003766Y017084D01*
X003899Y017565D02*
X004003Y017565D01*
X004054Y017617D01*
X004170Y017565D02*
X004377Y017565D01*
X004273Y017565D02*
X004273Y017875D01*
X004170Y017772D01*
X004054Y017823D02*
X004003Y017875D01*
X003899Y017875D01*
X003847Y017823D01*
X003847Y017617D01*
X003899Y017565D01*
X003424Y018215D02*
X003114Y018215D01*
X003114Y018370D01*
X003166Y018422D01*
X003269Y018422D01*
X003321Y018370D01*
X003321Y018215D01*
X003321Y018318D02*
X003424Y018422D01*
X003424Y018537D02*
X003217Y018744D01*
X003166Y018744D01*
X003114Y018692D01*
X003114Y018589D01*
X003166Y018537D01*
X003424Y018537D02*
X003424Y018744D01*
X003373Y018859D02*
X003166Y018859D01*
X003114Y018911D01*
X003114Y019014D01*
X003166Y019066D01*
X003373Y018859D01*
X003424Y018911D01*
X003424Y019014D01*
X003373Y019066D01*
X003166Y019066D01*
X003086Y019217D02*
X003086Y019372D01*
X003138Y019424D01*
X003242Y019424D01*
X003293Y019372D01*
X003293Y019217D01*
X003293Y019321D02*
X003397Y019424D01*
X003397Y019539D02*
X003397Y019746D01*
X003397Y019643D02*
X003086Y019643D01*
X003190Y019539D01*
X003242Y019862D02*
X003242Y020069D01*
X003397Y020017D02*
X003086Y020017D01*
X003242Y019862D01*
X003397Y019217D02*
X003086Y019217D01*
X002495Y018212D02*
X002541Y018165D01*
X002541Y018119D01*
X002495Y018072D01*
X002541Y018025D01*
X002541Y017979D01*
X002495Y017932D01*
X002401Y017932D01*
X002355Y017979D01*
X002247Y017932D02*
X002153Y018025D01*
X002200Y018025D02*
X002060Y018025D01*
X002060Y017932D02*
X002060Y018212D01*
X002200Y018212D01*
X002247Y018165D01*
X002247Y018072D01*
X002200Y018025D01*
X002355Y018165D02*
X002401Y018212D01*
X002495Y018212D01*
X002495Y018072D02*
X002448Y018072D01*
X001596Y018102D02*
X001549Y018055D01*
X001456Y018055D01*
X001409Y018102D01*
X001409Y018148D01*
X001456Y018195D01*
X001549Y018195D01*
X001596Y018148D01*
X001596Y018102D01*
X001549Y018055D02*
X001596Y018008D01*
X001596Y017962D01*
X001549Y017915D01*
X001456Y017915D01*
X001409Y017962D01*
X001409Y018008D01*
X001456Y018055D01*
X001301Y018148D02*
X001254Y018195D01*
X001161Y018195D01*
X001114Y018148D01*
X001114Y017962D01*
X001161Y017915D01*
X001254Y017915D01*
X001301Y017962D01*
X000574Y018515D02*
X000264Y018515D01*
X000264Y018670D01*
X000316Y018722D01*
X000419Y018722D01*
X000471Y018670D01*
X000471Y018515D01*
X000471Y018618D02*
X000574Y018722D01*
X000574Y018837D02*
X000367Y019044D01*
X000316Y019044D01*
X000264Y018992D01*
X000264Y018889D01*
X000316Y018837D01*
X000574Y018837D02*
X000574Y019044D01*
X000574Y019159D02*
X000574Y019366D01*
X000574Y019263D02*
X000264Y019263D01*
X000367Y019159D01*
X000443Y019520D02*
X000443Y019675D01*
X000392Y019727D01*
X000288Y019727D01*
X000236Y019675D01*
X000236Y019520D01*
X000547Y019520D01*
X000443Y019624D02*
X000547Y019727D01*
X000547Y019842D02*
X000547Y020049D01*
X000547Y019946D02*
X000236Y019946D01*
X000340Y019842D01*
X000288Y020165D02*
X000236Y020216D01*
X000236Y020320D01*
X000288Y020372D01*
X000340Y020372D01*
X000392Y020320D01*
X000443Y020372D01*
X000495Y020372D01*
X000547Y020320D01*
X000547Y020216D01*
X000495Y020165D01*
X000392Y020268D02*
X000392Y020320D01*
X001514Y021112D02*
X001561Y021065D01*
X001654Y021065D01*
X001701Y021112D01*
X001701Y021298D01*
X001654Y021345D01*
X001561Y021345D01*
X001514Y021298D01*
X001514Y021112D01*
X001608Y021158D02*
X001701Y021065D01*
X001809Y021112D02*
X001856Y021065D01*
X001949Y021065D01*
X001996Y021112D01*
X001996Y021158D01*
X001949Y021205D01*
X001809Y021205D01*
X001809Y021112D01*
X001809Y021205D02*
X001902Y021298D01*
X001996Y021345D01*
X002714Y021298D02*
X002714Y021112D01*
X002761Y021065D01*
X002854Y021065D01*
X002901Y021112D01*
X002901Y021298D01*
X002854Y021345D01*
X002761Y021345D01*
X002714Y021298D01*
X002808Y021158D02*
X002901Y021065D01*
X003009Y021112D02*
X003056Y021065D01*
X003149Y021065D01*
X003196Y021112D01*
X003196Y021205D01*
X003149Y021252D01*
X003102Y021252D01*
X003009Y021205D01*
X003009Y021345D01*
X003196Y021345D01*
X004543Y021321D02*
X004543Y021424D01*
X004594Y021476D01*
X004646Y021476D01*
X004698Y021424D01*
X004698Y021321D01*
X004646Y021269D01*
X004594Y021269D01*
X004543Y021321D01*
X004698Y021321D02*
X004750Y021269D01*
X004801Y021269D01*
X004853Y021321D01*
X004853Y021424D01*
X004801Y021476D01*
X004750Y021476D01*
X004698Y021424D01*
X004698Y021154D02*
X004750Y021102D01*
X004750Y020947D01*
X004853Y020947D02*
X004543Y020947D01*
X004543Y021102D01*
X004594Y021154D01*
X004698Y021154D01*
X004750Y021050D02*
X004853Y021154D01*
X004789Y020798D02*
X004841Y020746D01*
X004841Y020643D01*
X004789Y020591D01*
X004737Y020591D01*
X004685Y020643D01*
X004685Y020746D01*
X004737Y020798D01*
X004789Y020798D01*
X004685Y020746D02*
X004634Y020798D01*
X004582Y020798D01*
X004530Y020746D01*
X004530Y020643D01*
X004582Y020591D01*
X004634Y020591D01*
X004685Y020643D01*
X004634Y020476D02*
X004582Y020476D01*
X004530Y020424D01*
X004530Y020321D01*
X004582Y020269D01*
X004582Y020154D02*
X004685Y020154D01*
X004737Y020102D01*
X004737Y019947D01*
X004737Y020050D02*
X004841Y020154D01*
X004841Y020269D02*
X004634Y020476D01*
X004841Y020476D02*
X004841Y020269D01*
X004582Y020154D02*
X004530Y020102D01*
X004530Y019947D01*
X004841Y019947D01*
X006114Y019691D02*
X006424Y019691D01*
X006424Y019794D02*
X006424Y019587D01*
X006424Y019472D02*
X006114Y019265D01*
X006114Y019472D02*
X006424Y019265D01*
X006539Y019217D02*
X006539Y019423D01*
X006591Y019475D01*
X006694Y019475D01*
X006746Y019423D01*
X006861Y019372D02*
X006965Y019475D01*
X006965Y019165D01*
X007068Y019165D02*
X006861Y019165D01*
X006746Y019217D02*
X006694Y019165D01*
X006591Y019165D01*
X006539Y019217D01*
X006217Y019587D02*
X006114Y019691D01*
X006116Y018866D02*
X006323Y018659D01*
X006374Y018659D01*
X006374Y018544D02*
X006374Y018337D01*
X006374Y018441D02*
X006064Y018441D01*
X006167Y018337D01*
X006116Y018222D02*
X006064Y018170D01*
X006064Y018067D01*
X006116Y018015D01*
X006323Y018015D01*
X006374Y018067D01*
X006374Y018170D01*
X006323Y018222D01*
X006064Y018659D02*
X006064Y018866D01*
X006116Y018866D01*
X005590Y017875D02*
X005590Y017565D01*
X005693Y017565D02*
X005486Y017565D01*
X005371Y017617D02*
X005319Y017565D01*
X005216Y017565D01*
X005164Y017617D01*
X005164Y017823D01*
X005216Y017875D01*
X005319Y017875D01*
X005371Y017823D01*
X005486Y017772D02*
X005590Y017875D01*
X004699Y017875D02*
X004595Y017823D01*
X004492Y017720D01*
X004647Y017720D01*
X004699Y017668D01*
X004699Y017617D01*
X004647Y017565D01*
X004544Y017565D01*
X004492Y017617D01*
X004492Y017720D01*
X004774Y016934D02*
X004723Y016882D01*
X004723Y016779D01*
X004774Y016727D01*
X004723Y016612D02*
X004981Y016612D01*
X005033Y016560D01*
X005033Y016457D01*
X004981Y016405D01*
X004723Y016405D01*
X004981Y016727D02*
X005033Y016779D01*
X005033Y016882D01*
X004981Y016934D01*
X004929Y016934D01*
X004878Y016882D01*
X004878Y016831D01*
X004878Y016882D02*
X004826Y016934D01*
X004774Y016934D01*
X004077Y016225D02*
X003766Y016225D01*
X003766Y015902D02*
X003973Y015902D01*
X003921Y015787D02*
X003921Y015580D01*
X003870Y015580D02*
X004077Y015580D01*
X007235Y019165D02*
X007184Y019217D01*
X007184Y019268D01*
X007235Y019320D01*
X007339Y019320D01*
X007391Y019268D01*
X007391Y019217D01*
X007339Y019165D01*
X007235Y019165D01*
X007235Y019320D02*
X007184Y019372D01*
X007184Y019423D01*
X007235Y019475D01*
X007339Y019475D01*
X007391Y019423D01*
X007391Y019372D01*
X007339Y019320D01*
X007489Y019268D02*
X007644Y019268D01*
X007696Y019320D01*
X007696Y019423D01*
X007644Y019475D01*
X007489Y019475D01*
X007489Y019165D01*
X007593Y019268D02*
X007696Y019165D01*
X007811Y019165D02*
X008018Y019165D01*
X007915Y019165D02*
X007915Y019475D01*
X007811Y019372D01*
X008134Y019423D02*
X008185Y019475D01*
X008289Y019475D01*
X008341Y019423D01*
X008341Y019372D01*
X008134Y019165D01*
X008341Y019165D01*
X009664Y019137D02*
X009664Y019344D01*
X009716Y019344D01*
X009923Y019137D01*
X009974Y019137D01*
X009974Y019022D02*
X009871Y018918D01*
X009923Y018815D02*
X009716Y018815D01*
X009664Y018867D01*
X009664Y018970D01*
X009716Y019022D01*
X009923Y019022D01*
X009974Y018970D01*
X009974Y018867D01*
X009923Y018815D01*
X009973Y018557D02*
X009973Y018350D01*
X009766Y018557D01*
X009714Y018557D01*
X009662Y018506D01*
X009662Y018402D01*
X009714Y018350D01*
X009714Y018235D02*
X009662Y018183D01*
X009662Y018028D01*
X009973Y018028D01*
X009869Y018028D02*
X009869Y018183D01*
X009818Y018235D01*
X009714Y018235D01*
X009869Y018132D02*
X009973Y018235D01*
X008146Y021810D02*
X007939Y021810D01*
X007939Y022120D01*
X007823Y022120D02*
X007616Y022120D01*
X007616Y021810D01*
X007823Y021810D01*
X007720Y021965D02*
X007616Y021965D01*
X007501Y021810D02*
X007501Y022120D01*
X007294Y022120D02*
X007294Y021810D01*
X007179Y021810D02*
X007179Y022017D01*
X007075Y022120D01*
X006972Y022017D01*
X006972Y021810D01*
X006972Y021965D02*
X007179Y021965D01*
X007294Y022120D02*
X007501Y021810D01*
X006857Y021965D02*
X006805Y021913D01*
X006650Y021913D01*
X006650Y021810D02*
X006650Y022120D01*
X006805Y022120D01*
X006857Y022068D01*
X006857Y021965D01*
X006433Y023083D02*
X006123Y023083D01*
X006123Y023238D01*
X006175Y023290D01*
X006278Y023290D01*
X006330Y023238D01*
X006330Y023083D01*
X006330Y023186D02*
X006433Y023290D01*
X006433Y023405D02*
X006433Y023612D01*
X006433Y023509D02*
X006123Y023509D01*
X006226Y023405D01*
X006278Y023727D02*
X006123Y023727D01*
X006123Y023934D01*
X006226Y023883D02*
X006278Y023934D01*
X006382Y023934D01*
X006433Y023883D01*
X006433Y023779D01*
X006382Y023727D01*
X006278Y023727D02*
X006226Y023831D01*
X006226Y023883D01*
X004821Y023133D02*
X004769Y023184D01*
X004717Y023184D01*
X004666Y023133D01*
X004666Y022977D01*
X004769Y022977D01*
X004821Y023029D01*
X004821Y023133D01*
X004666Y022977D02*
X004562Y023081D01*
X004510Y023184D01*
X004510Y022759D02*
X004821Y022759D01*
X004821Y022862D02*
X004821Y022655D01*
X004821Y022540D02*
X004717Y022436D01*
X004717Y022488D02*
X004717Y022333D01*
X004821Y022333D02*
X004510Y022333D01*
X004510Y022488D01*
X004562Y022540D01*
X004666Y022540D01*
X004717Y022488D01*
X004614Y022655D02*
X004510Y022759D01*
X004840Y022226D02*
X004840Y022019D01*
X004840Y022122D02*
X004530Y022122D01*
X004634Y022019D01*
X004685Y021904D02*
X004737Y021852D01*
X004737Y021697D01*
X004737Y021800D02*
X004840Y021904D01*
X004685Y021904D02*
X004582Y021904D01*
X004530Y021852D01*
X004530Y021697D01*
X004840Y021697D01*
X008261Y021965D02*
X008468Y021965D01*
X014865Y017908D02*
X014865Y017701D01*
X015020Y017701D01*
X014968Y017805D01*
X014968Y017856D01*
X015020Y017908D01*
X015123Y017908D01*
X015175Y017856D01*
X015175Y017753D01*
X015123Y017701D01*
X015123Y017586D02*
X014865Y017586D01*
X014865Y017379D02*
X015123Y017379D01*
X015175Y017431D01*
X015175Y017534D01*
X015123Y017586D01*
X002448Y008060D02*
X001987Y008060D01*
X001987Y008291D01*
X002064Y008367D01*
X002218Y008367D01*
X002294Y008291D01*
X002294Y008060D01*
X002448Y007907D02*
X001987Y007907D01*
X001987Y007600D02*
X002448Y007907D01*
X002448Y007600D02*
X001987Y007600D01*
X002064Y007447D02*
X001987Y007370D01*
X001987Y007140D01*
X002448Y007140D01*
X002448Y007370D01*
X002371Y007447D01*
X002064Y007447D01*
X001874Y006842D02*
X001771Y006739D01*
X001771Y006791D02*
X001771Y006636D01*
X001874Y006636D02*
X001564Y006636D01*
X001564Y006791D01*
X001616Y006842D01*
X001719Y006842D01*
X001771Y006791D01*
X001874Y006520D02*
X001874Y006313D01*
X001564Y006313D01*
X001564Y006520D01*
X001719Y006417D02*
X001719Y006313D01*
X001616Y006198D02*
X001823Y006198D01*
X001874Y006146D01*
X001874Y005991D01*
X001564Y005991D01*
X001564Y006146D01*
X001616Y006198D01*
X001364Y006165D02*
X001054Y006165D01*
X001054Y006062D02*
X001054Y006268D01*
X001054Y006384D02*
X001054Y006591D01*
X001054Y006487D02*
X001364Y006487D01*
X001364Y006706D02*
X001054Y006706D01*
X001364Y006706D02*
X001364Y006913D01*
X001874Y005876D02*
X001874Y005669D01*
X001564Y005669D01*
X001616Y005553D02*
X001564Y005502D01*
X001564Y005398D01*
X001616Y005346D01*
X001823Y005346D01*
X001874Y005398D01*
X001874Y005502D01*
X001823Y005553D01*
X001616Y005553D01*
X001564Y005231D02*
X001874Y005231D01*
X001719Y005231D02*
X001719Y005024D01*
X001874Y005024D02*
X001564Y005024D01*
X001564Y004909D02*
X001874Y004909D01*
X001874Y004702D02*
X001564Y004702D01*
X001667Y004805D01*
X001564Y004909D01*
X001564Y004591D02*
X001564Y004487D01*
X001564Y004539D02*
X001874Y004539D01*
X001874Y004487D02*
X001874Y004591D01*
X001823Y004372D02*
X001874Y004320D01*
X001874Y004217D01*
X001823Y004165D01*
X001719Y004217D02*
X001667Y004165D01*
X001616Y004165D01*
X001564Y004217D01*
X001564Y004320D01*
X001616Y004372D01*
X001719Y004320D02*
X001771Y004372D01*
X001823Y004372D01*
X001719Y004320D02*
X001719Y004217D01*
D210*
X010196Y007353D02*
X010567Y007353D01*
X010567Y007230D02*
X010567Y007477D01*
X010505Y007598D02*
X010567Y007660D01*
X010567Y007783D01*
X010505Y007845D01*
X010443Y007845D01*
X010381Y007783D01*
X010381Y007598D01*
X010505Y007598D01*
X010381Y007598D02*
X010258Y007722D01*
X010196Y007845D01*
X010196Y007967D02*
X010443Y007967D01*
X010567Y008090D01*
X010443Y008213D01*
X010196Y008213D01*
X010320Y008703D02*
X010196Y008827D01*
X010567Y008827D01*
X010567Y008950D02*
X010567Y008703D01*
X010505Y009071D02*
X010258Y009071D01*
X010196Y009133D01*
X010196Y009257D01*
X010258Y009318D01*
X010505Y009071D01*
X010567Y009133D01*
X010567Y009257D01*
X010505Y009318D01*
X010258Y009318D01*
X010320Y009440D02*
X010505Y009440D01*
X010567Y009501D01*
X010567Y009687D01*
X010320Y009687D01*
X010381Y009808D02*
X010381Y009932D01*
X010196Y009808D02*
X010196Y010055D01*
X010196Y009808D02*
X010567Y009808D01*
X010196Y007353D02*
X010320Y007230D01*
X004767Y013580D02*
X004767Y013827D01*
X004767Y013703D02*
X004396Y013703D01*
X004520Y013580D01*
X004581Y013948D02*
X004458Y014072D01*
X004396Y014195D01*
X004396Y014317D02*
X004643Y014317D01*
X004767Y014440D01*
X004643Y014563D01*
X004396Y014563D01*
X004643Y014195D02*
X004581Y014133D01*
X004581Y013948D01*
X004705Y013948D01*
X004767Y014010D01*
X004767Y014133D01*
X004705Y014195D01*
X004643Y014195D01*
X004520Y015053D02*
X004396Y015177D01*
X004767Y015177D01*
X004767Y015300D02*
X004767Y015053D01*
X004705Y015421D02*
X004458Y015421D01*
X004396Y015483D01*
X004396Y015607D01*
X004458Y015668D01*
X004705Y015421D01*
X004767Y015483D01*
X004767Y015607D01*
X004705Y015668D01*
X004458Y015668D01*
X004520Y015790D02*
X004705Y015790D01*
X004767Y015851D01*
X004767Y016037D01*
X004520Y016037D01*
X004581Y016158D02*
X004581Y016282D01*
X004396Y016158D02*
X004396Y016405D01*
X004396Y016158D02*
X004767Y016158D01*
X008509Y019008D02*
X008558Y018960D01*
X008654Y018960D01*
X008703Y019008D01*
X008703Y019057D01*
X008654Y019105D01*
X008558Y019105D01*
X008509Y019153D01*
X008509Y019202D01*
X008558Y019250D01*
X008654Y019250D01*
X008703Y019202D01*
X008804Y019202D02*
X008804Y019153D01*
X008852Y019105D01*
X008997Y019105D01*
X008997Y019202D02*
X008949Y019250D01*
X008852Y019250D01*
X008804Y019202D01*
X008997Y019202D02*
X008997Y019008D01*
X008949Y018960D01*
X008852Y018960D01*
X008804Y019008D01*
X009099Y019008D02*
X009099Y019202D01*
X009147Y019250D01*
X009244Y019250D01*
X009292Y019202D01*
X009099Y019008D01*
X009147Y018960D01*
X009244Y018960D01*
X009292Y019008D01*
X009292Y019202D01*
X009393Y019153D02*
X009490Y019250D01*
X009490Y018960D01*
X009393Y018960D02*
X009587Y018960D01*
X009688Y019008D02*
X009736Y018960D01*
X009833Y018960D01*
X009881Y019008D01*
X009881Y019057D01*
X009833Y019105D01*
X009785Y019105D01*
X009833Y019105D02*
X009881Y019153D01*
X009881Y019202D01*
X009833Y019250D01*
X009736Y019250D01*
X009688Y019202D01*
X004557Y023837D02*
X004520Y023801D01*
X004447Y023801D01*
X004410Y023837D01*
X004447Y023911D02*
X004520Y023911D01*
X004557Y023874D01*
X004557Y023837D01*
X004447Y023911D02*
X004410Y023948D01*
X004410Y023984D01*
X004447Y024021D01*
X004520Y024021D01*
X004557Y023984D01*
X004327Y024021D02*
X004327Y023837D01*
X004290Y023801D01*
X004217Y023801D01*
X004180Y023837D01*
X004180Y024021D01*
X004097Y024021D02*
X003950Y024021D01*
X004023Y024021D02*
X004023Y023801D01*
X003866Y023801D02*
X003866Y023948D01*
X003793Y024021D01*
X003720Y023948D01*
X003720Y023801D01*
X003720Y023911D02*
X003866Y023911D01*
X003636Y024021D02*
X003489Y024021D01*
X003563Y024021D02*
X003563Y023801D01*
X003406Y023837D02*
X003369Y023801D01*
X003296Y023801D01*
X003259Y023837D01*
X003296Y023911D02*
X003369Y023911D01*
X003406Y023874D01*
X003406Y023837D01*
X003296Y023911D02*
X003259Y023948D01*
X003259Y023984D01*
X003296Y024021D01*
X003369Y024021D01*
X003406Y023984D01*
X003166Y023130D02*
X003020Y023130D01*
X003093Y023130D02*
X003093Y022910D01*
X003077Y022780D02*
X003077Y022560D01*
X003090Y022446D02*
X002980Y022446D01*
X002980Y022226D01*
X002980Y022299D02*
X003090Y022299D01*
X003127Y022336D01*
X003127Y022409D01*
X003090Y022446D01*
X003053Y022299D02*
X003127Y022226D01*
X003104Y022109D02*
X003031Y022109D01*
X002994Y022072D01*
X002994Y021925D01*
X003031Y021889D01*
X003104Y021889D01*
X003141Y021925D01*
X003141Y021999D01*
X003067Y021999D01*
X003141Y022072D02*
X003104Y022109D01*
X002910Y022109D02*
X002910Y021889D01*
X002764Y022109D01*
X002764Y021889D01*
X002684Y021889D02*
X002610Y021889D01*
X002647Y021889D02*
X002647Y022109D01*
X002610Y022109D02*
X002684Y022109D01*
X002666Y022226D02*
X002666Y022446D01*
X002750Y022446D02*
X002750Y022226D01*
X002897Y022226D01*
X002823Y022336D02*
X002750Y022336D01*
X002750Y022446D02*
X002897Y022446D01*
X002920Y022560D02*
X002920Y022780D01*
X003003Y022780D02*
X003150Y022780D01*
X002936Y022910D02*
X002789Y022910D01*
X002789Y023130D01*
X002936Y023130D01*
X002863Y023020D02*
X002789Y023020D01*
X002706Y022910D02*
X002706Y023130D01*
X002559Y023130D02*
X002559Y022910D01*
X002580Y022780D02*
X002543Y022743D01*
X002543Y022597D01*
X002580Y022560D01*
X002653Y022560D01*
X002690Y022597D01*
X002690Y022670D01*
X002616Y022670D01*
X002690Y022743D02*
X002653Y022780D01*
X002580Y022780D01*
X002463Y022780D02*
X002389Y022780D01*
X002426Y022780D02*
X002426Y022560D01*
X002389Y022560D02*
X002463Y022560D01*
X002520Y022446D02*
X002520Y022226D01*
X002593Y022299D01*
X002666Y022226D01*
X002527Y022072D02*
X002490Y022109D01*
X002417Y022109D01*
X002380Y022072D01*
X002380Y021925D01*
X002417Y021889D01*
X002490Y021889D01*
X002527Y021925D01*
X002527Y021999D01*
X002453Y021999D01*
X002297Y021999D02*
X002260Y021962D01*
X002150Y021962D01*
X002223Y021962D02*
X002297Y021889D01*
X002297Y021999D02*
X002297Y022072D01*
X002260Y022109D01*
X002150Y022109D01*
X002150Y021889D01*
X002066Y021889D02*
X002066Y022035D01*
X001993Y022109D01*
X001920Y022035D01*
X001920Y021889D01*
X001836Y021889D02*
X001836Y022109D01*
X001836Y021999D02*
X001689Y021999D01*
X001689Y021889D02*
X001689Y022109D01*
X001606Y022072D02*
X001569Y022109D01*
X001496Y022109D01*
X001459Y022072D01*
X001459Y021925D01*
X001496Y021889D01*
X001569Y021889D01*
X001606Y021925D01*
X001609Y021771D02*
X001609Y021551D01*
X001756Y021551D01*
X001839Y021551D02*
X001839Y021771D01*
X001986Y021551D01*
X001986Y021771D01*
X002070Y021698D02*
X002143Y021771D01*
X002216Y021698D01*
X002216Y021551D01*
X002300Y021551D02*
X002410Y021551D01*
X002447Y021588D01*
X002447Y021625D01*
X002410Y021661D01*
X002300Y021661D01*
X002216Y021661D02*
X002070Y021661D01*
X002070Y021698D02*
X002070Y021551D01*
X002300Y021551D02*
X002300Y021771D01*
X002410Y021771D01*
X002447Y021735D01*
X002447Y021698D01*
X002410Y021661D01*
X002530Y021551D02*
X002677Y021551D01*
X002760Y021551D02*
X002907Y021551D01*
X002990Y021551D02*
X003100Y021551D01*
X003137Y021588D01*
X003137Y021735D01*
X003100Y021771D01*
X002990Y021771D01*
X002990Y021551D01*
X002834Y021661D02*
X002760Y021661D01*
X002760Y021771D02*
X002760Y021551D01*
X002760Y021771D02*
X002907Y021771D01*
X002530Y021771D02*
X002530Y021551D01*
X002066Y021999D02*
X001920Y021999D01*
X002059Y022226D02*
X002059Y022446D01*
X002169Y022446D01*
X002206Y022409D01*
X002206Y022336D01*
X002169Y022299D01*
X002059Y022299D01*
X002289Y022263D02*
X002326Y022226D01*
X002400Y022226D01*
X002436Y022263D01*
X002436Y022409D01*
X002400Y022446D01*
X002326Y022446D01*
X002289Y022409D01*
X002289Y022263D01*
X002306Y022560D02*
X002159Y022560D01*
X002159Y022780D01*
X002559Y023130D02*
X002706Y022910D01*
X002773Y022780D02*
X002773Y022560D01*
X002773Y022670D02*
X002920Y022670D01*
X001756Y021771D02*
X001609Y021771D01*
X001609Y021661D02*
X001683Y021661D01*
X001690Y020800D02*
X001690Y020510D01*
X001593Y020510D02*
X001787Y020510D01*
X001888Y020558D02*
X001936Y020510D01*
X002033Y020510D01*
X002081Y020558D01*
X002081Y020607D01*
X002033Y020655D01*
X001985Y020655D01*
X002008Y020655D02*
X002104Y020655D01*
X002153Y020607D01*
X002153Y020558D01*
X002104Y020510D01*
X002008Y020510D01*
X001959Y020558D01*
X002008Y020655D02*
X001959Y020703D01*
X001959Y020752D01*
X002008Y020800D01*
X002104Y020800D01*
X002153Y020752D01*
X002081Y020752D02*
X002081Y020703D01*
X002033Y020655D01*
X002081Y020752D02*
X002033Y020800D01*
X001936Y020800D01*
X001888Y020752D01*
X001690Y020800D02*
X001593Y020703D01*
X001492Y020752D02*
X001492Y020558D01*
X001444Y020510D01*
X001347Y020510D01*
X001299Y020558D01*
X001492Y020752D01*
X001444Y020800D01*
X001347Y020800D01*
X001299Y020752D01*
X001299Y020558D01*
X001197Y020558D02*
X001197Y020752D01*
X001149Y020800D01*
X001052Y020800D01*
X001004Y020752D01*
X001004Y020703D01*
X001052Y020655D01*
X001197Y020655D01*
X001197Y020558D02*
X001149Y020510D01*
X001052Y020510D01*
X001004Y020558D01*
X000903Y020558D02*
X000854Y020510D01*
X000758Y020510D01*
X000709Y020558D01*
X000758Y020655D02*
X000854Y020655D01*
X000903Y020607D01*
X000903Y020558D01*
X000758Y020655D02*
X000709Y020703D01*
X000709Y020752D01*
X000758Y020800D01*
X000854Y020800D01*
X000903Y020752D01*
X002254Y020752D02*
X002254Y020703D01*
X002302Y020655D01*
X002447Y020655D01*
X002447Y020558D02*
X002447Y020752D01*
X002399Y020800D01*
X002302Y020800D01*
X002254Y020752D01*
X002254Y020558D02*
X002302Y020510D01*
X002399Y020510D01*
X002447Y020558D01*
X002549Y020558D02*
X002742Y020752D01*
X002742Y020558D01*
X002694Y020510D01*
X002597Y020510D01*
X002549Y020558D01*
X002549Y020752D01*
X002597Y020800D01*
X002694Y020800D01*
X002742Y020752D01*
X002843Y020703D02*
X002940Y020800D01*
X002940Y020510D01*
X002843Y020510D02*
X003037Y020510D01*
X003138Y020558D02*
X003186Y020510D01*
X003283Y020510D01*
X003331Y020558D01*
X003331Y020607D01*
X003283Y020655D01*
X003235Y020655D01*
X003283Y020655D02*
X003331Y020703D01*
X003331Y020752D01*
X003283Y020800D01*
X003186Y020800D01*
X003138Y020752D01*
X016009Y015402D02*
X016009Y015208D01*
X016058Y015160D01*
X016154Y015160D01*
X016203Y015208D01*
X016304Y015208D02*
X016352Y015160D01*
X016401Y015160D01*
X016449Y015208D01*
X016449Y015450D01*
X016401Y015450D02*
X016497Y015450D01*
X016599Y015402D02*
X016647Y015450D01*
X016744Y015450D01*
X016792Y015402D01*
X016792Y015353D01*
X016599Y015160D01*
X016792Y015160D01*
X016893Y015208D02*
X016942Y015160D01*
X017038Y015160D01*
X017087Y015208D01*
X017087Y015257D01*
X017038Y015305D01*
X016990Y015305D01*
X017038Y015305D02*
X017087Y015353D01*
X017087Y015402D01*
X017038Y015450D01*
X016942Y015450D01*
X016893Y015402D01*
X017188Y015402D02*
X017188Y015208D01*
X017381Y015402D01*
X017381Y015208D01*
X017333Y015160D01*
X017236Y015160D01*
X017188Y015208D01*
X017188Y015402D02*
X017236Y015450D01*
X017333Y015450D01*
X017381Y015402D01*
X017482Y015402D02*
X017531Y015450D01*
X017628Y015450D01*
X017676Y015402D01*
X017676Y015353D01*
X017482Y015160D01*
X017676Y015160D01*
X016203Y015402D02*
X016154Y015450D01*
X016058Y015450D01*
X016009Y015402D01*
X021580Y018961D02*
X021727Y019108D01*
X021727Y019145D01*
X021690Y019181D01*
X021617Y019181D01*
X021580Y019145D01*
X021580Y018961D02*
X021727Y018961D01*
X021810Y019071D02*
X021957Y019071D01*
X022040Y019035D02*
X022151Y018961D01*
X022232Y018888D02*
X022306Y018961D01*
X022269Y018961D01*
X022269Y018998D01*
X022306Y018998D01*
X022306Y018961D01*
X022386Y018961D02*
X022533Y018961D01*
X022459Y018961D02*
X022459Y019181D01*
X022386Y019108D01*
X022616Y019145D02*
X022616Y019181D01*
X022653Y019181D01*
X022653Y019145D01*
X022616Y019145D01*
X022616Y018961D02*
X022799Y019181D01*
X022799Y018998D02*
X022799Y018961D01*
X022763Y018961D01*
X022763Y018998D01*
X022799Y018998D01*
X022240Y019499D02*
X022314Y019573D01*
X022277Y019573D01*
X022277Y019609D01*
X022314Y019609D01*
X022314Y019573D01*
X022394Y019573D02*
X022540Y019573D01*
X022467Y019573D02*
X022467Y019793D01*
X022394Y019719D01*
X022624Y019756D02*
X022624Y019793D01*
X022661Y019793D01*
X022661Y019756D01*
X022624Y019756D01*
X022624Y019573D02*
X022807Y019793D01*
X022807Y019609D02*
X022807Y019573D01*
X022771Y019573D01*
X022771Y019609D01*
X022807Y019609D01*
X022158Y019573D02*
X022048Y019646D01*
X022158Y019719D01*
X022048Y019793D02*
X022048Y019573D01*
X021965Y019609D02*
X021928Y019573D01*
X021855Y019573D01*
X021818Y019609D01*
X021965Y019756D01*
X021965Y019609D01*
X021818Y019609D02*
X021818Y019756D01*
X021855Y019793D01*
X021928Y019793D01*
X021965Y019756D01*
X021735Y019573D02*
X021588Y019573D01*
X021661Y019573D02*
X021661Y019793D01*
X021588Y019719D01*
X021920Y019181D02*
X021810Y019071D01*
X021920Y018961D02*
X021920Y019181D01*
X022040Y019181D02*
X022040Y018961D01*
X022040Y019035D02*
X022151Y019108D01*
X021312Y004049D02*
X021119Y004049D01*
X021312Y003856D01*
X021361Y003904D01*
X021361Y004001D01*
X021312Y004049D01*
X021119Y004049D02*
X021070Y004001D01*
X021070Y003904D01*
X021119Y003856D01*
X021312Y003856D01*
X021312Y003755D02*
X021361Y003706D01*
X021361Y003609D01*
X021312Y003561D01*
X021119Y003755D01*
X021312Y003755D01*
X021119Y003755D02*
X021070Y003706D01*
X021070Y003609D01*
X021119Y003561D01*
X021312Y003561D01*
X021312Y003460D02*
X021119Y003460D01*
X021070Y003412D01*
X021070Y003315D01*
X021119Y003266D01*
X021167Y003266D01*
X021216Y003315D01*
X021216Y003460D01*
X021312Y003460D02*
X021361Y003412D01*
X021361Y003315D01*
X021312Y003266D01*
X021361Y003165D02*
X021070Y003165D01*
X021167Y003068D01*
X021070Y002972D01*
X021361Y002972D01*
X021361Y002872D02*
X021361Y002775D01*
X021361Y002824D02*
X021070Y002824D01*
X021070Y002872D02*
X021070Y002775D01*
X021119Y002674D02*
X021070Y002626D01*
X021070Y002529D01*
X021119Y002481D01*
X021167Y002481D01*
X021216Y002529D01*
X021216Y002626D01*
X021264Y002674D01*
X021312Y002674D01*
X021361Y002626D01*
X021361Y002529D01*
X021312Y002481D01*
X021409Y002380D02*
X021409Y002186D01*
X021361Y002036D02*
X021070Y002036D01*
X021216Y001891D01*
X021216Y002085D01*
X021216Y001790D02*
X021312Y001790D01*
X021361Y001742D01*
X021361Y001645D01*
X021312Y001597D01*
X021216Y001597D02*
X021167Y001693D01*
X021167Y001742D01*
X021216Y001790D01*
X021070Y001790D02*
X021070Y001597D01*
X021216Y001597D01*
X021264Y001496D02*
X021070Y001496D01*
X021264Y001496D02*
X021361Y001399D01*
X021264Y001302D01*
X021070Y001302D01*
X021409Y001201D02*
X021409Y001007D01*
X021312Y000906D02*
X021361Y000858D01*
X021361Y000761D01*
X021312Y000713D01*
X021312Y000612D02*
X021361Y000563D01*
X021361Y000466D01*
X021312Y000418D01*
X021119Y000418D01*
X021070Y000466D01*
X021070Y000563D01*
X021119Y000612D01*
X021119Y000713D02*
X021167Y000713D01*
X021216Y000761D01*
X021216Y000858D01*
X021264Y000906D01*
X021312Y000906D01*
X021119Y000906D02*
X021070Y000858D01*
X021070Y000761D01*
X021119Y000713D01*
X021070Y000318D02*
X021070Y000222D01*
X021070Y000270D02*
X021361Y000270D01*
X021361Y000222D02*
X021361Y000318D01*
D211*
X008544Y017495D02*
X008546Y017519D01*
X008552Y017543D01*
X008561Y017565D01*
X008574Y017585D01*
X008590Y017603D01*
X008609Y017618D01*
X008630Y017631D01*
X008652Y017639D01*
X008676Y017644D01*
X008700Y017645D01*
X008724Y017642D01*
X008747Y017635D01*
X008769Y017625D01*
X008789Y017611D01*
X008806Y017594D01*
X008821Y017575D01*
X008832Y017554D01*
X008840Y017531D01*
X008844Y017507D01*
X008844Y017483D01*
X008840Y017459D01*
X008832Y017436D01*
X008821Y017415D01*
X008806Y017396D01*
X008789Y017379D01*
X008769Y017365D01*
X008747Y017355D01*
X008724Y017348D01*
X008700Y017345D01*
X008676Y017346D01*
X008652Y017351D01*
X008630Y017359D01*
X008609Y017372D01*
X008590Y017387D01*
X008574Y017405D01*
X008561Y017425D01*
X008552Y017447D01*
X008546Y017471D01*
X008544Y017495D01*
D212*
X020590Y012596D02*
X020592Y012622D01*
X020598Y012648D01*
X020607Y012672D01*
X020621Y012695D01*
X020637Y012716D01*
X020656Y012734D01*
X020678Y012748D01*
X020702Y012760D01*
X020727Y012768D01*
X020753Y012772D01*
X020779Y012772D01*
X020805Y012768D01*
X020830Y012760D01*
X020854Y012748D01*
X020876Y012734D01*
X020895Y012716D01*
X020911Y012695D01*
X020925Y012672D01*
X020934Y012648D01*
X020940Y012622D01*
X020942Y012596D01*
X020940Y012570D01*
X020934Y012544D01*
X020925Y012520D01*
X020911Y012497D01*
X020895Y012476D01*
X020876Y012458D01*
X020854Y012444D01*
X020830Y012432D01*
X020805Y012424D01*
X020779Y012420D01*
X020753Y012420D01*
X020727Y012424D01*
X020702Y012432D01*
X020678Y012444D01*
X020656Y012458D01*
X020637Y012476D01*
X020621Y012497D01*
X020607Y012520D01*
X020598Y012544D01*
X020592Y012570D01*
X020590Y012596D01*
D213*
X020530Y012360D02*
X019152Y012360D01*
X020530Y012360D02*
X020530Y010982D01*
X022248Y013283D02*
X022248Y014583D01*
X022948Y014583D01*
X022948Y013283D01*
X022248Y013283D01*
X022110Y013433D02*
X021610Y013433D01*
X021610Y014533D01*
X022110Y014533D01*
X022110Y013433D01*
X021498Y013433D02*
X020998Y013433D01*
X020998Y014533D01*
X021498Y014533D01*
X021498Y013433D01*
X022989Y014743D02*
X022989Y016443D01*
X019339Y016443D01*
X019339Y014743D01*
X022989Y014743D01*
X021839Y015593D02*
X021539Y015593D01*
X021689Y015743D02*
X021689Y015443D01*
X022281Y016661D02*
X020312Y016661D01*
X020286Y016663D01*
X020261Y016668D01*
X020237Y016676D01*
X020214Y016687D01*
X020192Y016702D01*
X020173Y016719D01*
X020156Y016738D01*
X020141Y016760D01*
X020130Y016783D01*
X020122Y016807D01*
X020117Y016832D01*
X020115Y016858D01*
X020115Y018826D01*
X020126Y018869D02*
X019826Y018869D01*
X019976Y018869D02*
X019976Y019320D01*
X019826Y019170D01*
X019666Y019245D02*
X019591Y019320D01*
X019365Y019320D01*
X019365Y018869D01*
X019591Y018869D01*
X019666Y018944D01*
X019666Y019245D01*
X019380Y019380D02*
X019380Y021309D01*
X019930Y021309D01*
X020130Y021095D02*
X020157Y021098D01*
X020184Y021104D01*
X020209Y021114D01*
X020233Y021126D01*
X020255Y021142D01*
X020274Y021161D01*
X020292Y021182D01*
X020306Y021205D01*
X020317Y021230D01*
X020325Y021255D01*
X020329Y021282D01*
X020330Y021309D01*
X020880Y021309D01*
X020880Y019380D01*
X019380Y019380D01*
X019205Y019320D02*
X018905Y019320D01*
X019055Y019320D02*
X019055Y018869D01*
X018542Y019685D02*
X018042Y019685D01*
X018042Y020785D01*
X018542Y020785D01*
X018542Y019685D01*
X018998Y021437D02*
X017698Y021437D01*
X017698Y022137D01*
X018998Y022137D01*
X018998Y021437D01*
X019130Y021494D02*
X019132Y021514D01*
X019138Y021532D01*
X019147Y021550D01*
X019159Y021565D01*
X019174Y021577D01*
X019192Y021586D01*
X019210Y021592D01*
X019230Y021594D01*
X019250Y021592D01*
X019268Y021586D01*
X019286Y021577D01*
X019301Y021565D01*
X019313Y021550D01*
X019322Y021532D01*
X019328Y021514D01*
X019330Y021494D01*
X019328Y021474D01*
X019322Y021456D01*
X019313Y021438D01*
X019301Y021423D01*
X019286Y021411D01*
X019268Y021402D01*
X019250Y021396D01*
X019230Y021394D01*
X019210Y021396D01*
X019192Y021402D01*
X019174Y021411D01*
X019159Y021423D01*
X019147Y021438D01*
X019138Y021456D01*
X019132Y021474D01*
X019130Y021494D01*
X019552Y021564D02*
X019552Y022064D01*
X020652Y022064D01*
X020652Y021564D01*
X019552Y021564D01*
X019930Y021309D02*
X019931Y021282D01*
X019935Y021255D01*
X019943Y021230D01*
X019954Y021205D01*
X019968Y021182D01*
X019986Y021161D01*
X020005Y021142D01*
X020027Y021126D01*
X020051Y021114D01*
X020076Y021104D01*
X020103Y021098D01*
X020130Y021095D01*
X021673Y020383D02*
X021673Y019883D01*
X022773Y019883D01*
X022773Y020383D01*
X021673Y020383D01*
X021665Y019771D02*
X021665Y019271D01*
X022765Y019271D01*
X022765Y019771D01*
X021665Y019771D01*
X021432Y019320D02*
X021507Y019245D01*
X021207Y018944D01*
X021282Y018869D01*
X021432Y018869D01*
X021507Y018944D01*
X021507Y019245D01*
X021432Y019320D02*
X021282Y019320D01*
X021207Y019245D01*
X021207Y018944D01*
X021047Y018869D02*
X020747Y018869D01*
X020897Y018869D02*
X020897Y019320D01*
X020747Y019170D01*
X020586Y019095D02*
X020286Y019095D01*
X020511Y019320D01*
X020511Y018869D01*
X020312Y019023D02*
X020286Y019021D01*
X020261Y019016D01*
X020237Y019008D01*
X020214Y018997D01*
X020192Y018982D01*
X020173Y018965D01*
X020156Y018946D01*
X020141Y018925D01*
X020130Y018901D01*
X020122Y018877D01*
X020117Y018852D01*
X020115Y018826D01*
X020312Y019023D02*
X022281Y019023D01*
X022307Y019021D01*
X022332Y019016D01*
X022356Y019008D01*
X022380Y018997D01*
X022401Y018982D01*
X022420Y018965D01*
X022437Y018946D01*
X022452Y018925D01*
X022463Y018901D01*
X022471Y018877D01*
X022476Y018852D01*
X022478Y018826D01*
X022478Y016858D01*
X022476Y016832D01*
X022471Y016807D01*
X022463Y016783D01*
X022452Y016760D01*
X022437Y016738D01*
X022420Y016719D01*
X022401Y016702D01*
X022380Y016687D01*
X022356Y016676D01*
X022332Y016668D01*
X022307Y016663D01*
X022281Y016661D01*
X018882Y017331D02*
X018082Y017331D01*
X018132Y017381D01*
X018832Y017381D01*
X018782Y017431D01*
X018182Y017431D01*
X018232Y017481D01*
X018732Y017481D01*
X018682Y017531D01*
X018282Y017531D01*
X018332Y017581D01*
X018632Y017581D01*
X018582Y017631D01*
X018382Y017631D01*
X018432Y017681D01*
X018532Y017681D01*
X018582Y017631D01*
X018632Y017581D02*
X018682Y017531D01*
X018732Y017481D02*
X018782Y017431D01*
X018832Y017381D02*
X018882Y017331D01*
X018532Y017681D02*
X018482Y017731D01*
X018432Y017681D01*
X018382Y017631D02*
X018332Y017581D01*
X018282Y017531D02*
X018232Y017481D01*
X018182Y017431D02*
X018132Y017381D01*
X017745Y015929D02*
X017245Y015929D01*
X017245Y014829D01*
X017745Y014829D01*
X017745Y015929D01*
X017069Y015645D02*
X017069Y015295D01*
X017069Y015645D02*
X016769Y015645D01*
X016569Y015145D02*
X016419Y015145D01*
X015919Y015295D02*
X015919Y015645D01*
X016219Y015645D01*
X015821Y015942D02*
X015321Y015942D01*
X015321Y014842D01*
X015821Y014842D01*
X015821Y015942D01*
X015144Y015945D02*
X015144Y014845D01*
X014644Y014845D01*
X014644Y015945D01*
X015144Y015945D01*
X014427Y016426D02*
X012927Y016426D01*
X012927Y019926D01*
X014427Y019926D01*
X014427Y016426D01*
X015394Y014645D02*
X015394Y013345D01*
X016094Y013345D01*
X016094Y014645D01*
X015394Y014645D01*
X015164Y014468D02*
X014664Y014468D01*
X014664Y013368D01*
X015164Y013368D01*
X015164Y014468D01*
X014363Y014458D02*
X010426Y014458D01*
X010426Y020364D01*
X010894Y020364D01*
X010894Y021545D01*
X011894Y021545D01*
X011894Y020364D01*
X012894Y020364D01*
X012894Y021545D01*
X013894Y021545D01*
X013894Y020364D01*
X014363Y020364D01*
X014363Y014458D01*
X012459Y012360D02*
X011081Y012360D01*
X011081Y010982D01*
X010544Y012345D02*
X009444Y012345D01*
X009444Y012845D01*
X010544Y012845D01*
X010544Y012345D01*
X010450Y014344D02*
X009350Y014344D01*
X009350Y014844D01*
X010450Y014844D01*
X010450Y014344D01*
X010450Y014938D02*
X010450Y015438D01*
X009350Y015438D01*
X009350Y014938D01*
X010450Y014938D01*
X010444Y015545D02*
X010444Y016045D01*
X009344Y016045D01*
X009344Y015545D01*
X010444Y015545D01*
X010453Y016139D02*
X009353Y016139D01*
X009353Y016639D01*
X010453Y016639D01*
X010453Y016139D01*
X010444Y016745D02*
X010444Y017245D01*
X009344Y017245D01*
X009344Y016745D01*
X010444Y016745D01*
X010440Y017346D02*
X010440Y017846D01*
X009340Y017846D01*
X009340Y017346D01*
X010440Y017346D01*
X009543Y017975D02*
X009543Y018475D01*
X008443Y018475D01*
X008443Y017975D01*
X009543Y017975D01*
X009069Y018945D02*
X008919Y018945D01*
X008419Y019095D02*
X008419Y019445D01*
X008719Y019445D01*
X008244Y019095D02*
X007744Y019095D01*
X007744Y017995D01*
X008244Y017995D01*
X008244Y019095D01*
X007594Y019095D02*
X007094Y019095D01*
X007094Y017995D01*
X007594Y017995D01*
X007594Y019095D01*
X006944Y019095D02*
X006444Y019095D01*
X006444Y017995D01*
X006944Y017995D01*
X006944Y019095D01*
X005994Y018445D02*
X005994Y017945D01*
X004894Y017945D01*
X004894Y018445D01*
X005994Y018445D01*
X005828Y018565D02*
X003860Y018565D01*
X003860Y018722D01*
X003694Y018445D02*
X004794Y018445D01*
X004794Y017945D01*
X003694Y017945D01*
X003694Y018445D01*
X002990Y018287D02*
X001890Y018287D01*
X001890Y018787D01*
X002990Y018787D01*
X002990Y018287D01*
X002994Y018895D02*
X001894Y018895D01*
X001894Y019395D01*
X002994Y019395D01*
X002994Y018895D01*
X002992Y019467D02*
X002992Y019967D01*
X001892Y019967D01*
X001892Y019467D01*
X002992Y019467D01*
X003369Y020086D02*
X003369Y020586D01*
X004419Y020586D01*
X004419Y020086D01*
X003369Y020086D01*
X003844Y020186D02*
X003894Y020261D01*
X003894Y020411D01*
X003844Y020486D01*
X003844Y020186D01*
X003869Y020236D02*
X003869Y020436D01*
X003894Y020411D02*
X003944Y020336D01*
X003894Y020261D01*
X003860Y019825D02*
X003860Y019667D01*
X003860Y019825D02*
X005828Y019825D01*
X005828Y019667D01*
X006012Y020086D02*
X006012Y020586D01*
X004912Y020586D01*
X004912Y020086D01*
X006012Y020086D01*
X006012Y020874D02*
X006012Y021374D01*
X004912Y021374D01*
X004912Y020874D01*
X006012Y020874D01*
X006012Y021661D02*
X006012Y022161D01*
X004912Y022161D01*
X004912Y021661D01*
X006012Y021661D01*
X006012Y022448D02*
X004912Y022448D01*
X004912Y022948D01*
X006012Y022948D01*
X006012Y022448D01*
X006012Y023236D02*
X004912Y023236D01*
X004912Y023736D01*
X006012Y023736D01*
X006012Y023236D01*
X004419Y023236D02*
X003369Y023236D01*
X003369Y023736D01*
X004419Y023736D01*
X004419Y023236D01*
X004419Y022948D02*
X004419Y022448D01*
X003369Y022448D01*
X003369Y022948D01*
X004419Y022948D01*
X003944Y022698D02*
X003894Y022773D01*
X003894Y022623D01*
X003944Y022698D01*
X003894Y022623D02*
X003844Y022548D01*
X003844Y022848D01*
X003894Y022773D01*
X003869Y022798D02*
X003869Y022598D01*
X003844Y022061D02*
X003894Y021986D01*
X003894Y021836D01*
X003944Y021911D01*
X003894Y021986D01*
X003869Y022011D02*
X003869Y021811D01*
X003894Y021836D02*
X003844Y021761D01*
X003844Y022061D01*
X003369Y022161D02*
X003369Y021661D01*
X004419Y021661D01*
X004419Y022161D01*
X003369Y022161D01*
X003369Y021374D02*
X003369Y020874D01*
X004419Y020874D01*
X004419Y021374D01*
X003369Y021374D01*
X003844Y021274D02*
X003844Y020974D01*
X003894Y021049D01*
X003894Y021199D01*
X003844Y021274D01*
X003869Y021224D02*
X003869Y021024D01*
X003894Y021049D02*
X003944Y021124D01*
X003894Y021199D01*
X003019Y020995D02*
X003019Y020645D01*
X003019Y020995D02*
X002719Y020995D01*
X002169Y020995D02*
X001869Y020995D01*
X001869Y020645D01*
X001769Y020645D02*
X001769Y020995D01*
X001469Y020995D01*
X001269Y020495D02*
X001119Y020495D01*
X000619Y020645D02*
X000619Y020995D01*
X000919Y020995D01*
X000639Y019967D02*
X001739Y019967D01*
X001739Y019467D01*
X000639Y019467D01*
X000639Y019967D01*
X000644Y019395D02*
X000644Y018895D01*
X001744Y018895D01*
X001744Y019395D01*
X000644Y019395D01*
X000644Y018795D02*
X001744Y018795D01*
X001744Y018295D01*
X000644Y018295D01*
X000644Y018795D01*
X002369Y020495D02*
X002519Y020495D01*
X004394Y019195D02*
X004594Y019195D01*
X004594Y019695D01*
X004744Y019595D02*
X004744Y018795D01*
X004944Y018795D01*
X004944Y019595D01*
X004744Y019595D01*
X005094Y019695D02*
X005094Y019195D01*
X005294Y019195D01*
X005094Y019195D02*
X005094Y018695D01*
X004594Y018695D02*
X004594Y019195D01*
X005828Y018722D02*
X005828Y018565D01*
X004319Y015320D02*
X003669Y015320D01*
X003669Y013670D01*
X004319Y013670D01*
X004319Y015320D01*
X004444Y014945D02*
X004944Y014945D01*
X004944Y013845D01*
X004444Y013845D01*
X004444Y014945D01*
X003994Y014520D02*
X003994Y014320D01*
X004094Y014420D02*
X003894Y014420D01*
X009269Y019445D02*
X009569Y019445D01*
X009569Y019095D01*
X003844Y023336D02*
X003894Y023411D01*
X003894Y023561D01*
X003844Y023636D01*
X003844Y023336D01*
X003869Y023386D02*
X003869Y023586D01*
X003894Y023561D02*
X003944Y023486D01*
X003894Y023411D01*
X016305Y014468D02*
X016305Y013368D01*
X016805Y013368D01*
X016805Y014468D01*
X016305Y014468D01*
X017044Y014645D02*
X017044Y013345D01*
X017744Y013345D01*
X017744Y014645D01*
X017044Y014645D01*
X021362Y008435D02*
X021362Y007935D01*
X021362Y008435D02*
X022462Y008435D01*
X022462Y007935D01*
X022462Y007335D02*
X022462Y006835D01*
X021362Y006835D01*
X021362Y007335D01*
X021694Y006095D02*
X020994Y006095D01*
X020994Y004795D01*
X021694Y004795D01*
X021694Y006095D01*
X021794Y006045D02*
X022294Y006045D01*
X022294Y004945D01*
X021794Y004945D01*
X021794Y006045D01*
X022394Y006045D02*
X022894Y006045D01*
X022894Y004945D01*
X022394Y004945D01*
X022394Y006045D01*
X020530Y004289D02*
X020530Y002911D01*
X019152Y002911D01*
X012459Y002911D02*
X011081Y002911D01*
X011081Y004289D01*
X010412Y004523D02*
X010412Y004023D01*
X009312Y004023D01*
X009312Y004523D01*
X010412Y004523D01*
X010412Y004611D02*
X009312Y004611D01*
X009312Y005111D01*
X010412Y005111D01*
X010412Y004611D01*
X010418Y005192D02*
X010418Y005692D01*
X009318Y005692D01*
X009318Y005192D01*
X010418Y005192D01*
X010405Y003922D02*
X009305Y003922D01*
X009305Y003422D01*
X010405Y003422D01*
X010405Y003922D01*
X010119Y007320D02*
X009469Y007320D01*
X009469Y008970D01*
X010119Y008970D01*
X010119Y007320D01*
X009794Y007970D02*
X009794Y008170D01*
X009894Y008070D02*
X009694Y008070D01*
D214*
X009228Y005509D02*
X009182Y005462D01*
X009182Y005486D02*
X009182Y005416D01*
X009228Y005416D02*
X009088Y005416D01*
X009088Y005486D01*
X009112Y005509D01*
X009158Y005509D01*
X009182Y005486D01*
X009228Y005362D02*
X009228Y005268D01*
X009135Y005362D01*
X009112Y005362D01*
X009088Y005338D01*
X009088Y005292D01*
X009112Y005268D01*
X009112Y005215D02*
X009088Y005191D01*
X009088Y005144D01*
X009112Y005121D01*
X009112Y005215D02*
X009135Y005215D01*
X009228Y005121D01*
X009228Y005215D01*
X009246Y004954D02*
X009200Y004907D01*
X009200Y004931D02*
X009200Y004861D01*
X009246Y004861D02*
X009106Y004861D01*
X009106Y004931D01*
X009130Y004954D01*
X009176Y004954D01*
X009200Y004931D01*
X009246Y004807D02*
X009246Y004713D01*
X009153Y004807D01*
X009130Y004807D01*
X009106Y004783D01*
X009106Y004737D01*
X009130Y004713D01*
X009130Y004659D02*
X009106Y004636D01*
X009106Y004589D01*
X009130Y004566D01*
X009104Y004576D02*
X009127Y004600D01*
X009174Y004600D01*
X009198Y004576D01*
X009198Y004506D01*
X009244Y004506D02*
X009104Y004506D01*
X009104Y004576D01*
X009130Y004659D02*
X009153Y004659D01*
X009246Y004566D01*
X009246Y004659D01*
X009244Y004600D02*
X009198Y004553D01*
X009244Y004452D02*
X009244Y004359D01*
X009151Y004452D01*
X009127Y004452D01*
X009104Y004429D01*
X009104Y004382D01*
X009127Y004359D01*
X009127Y004305D02*
X009104Y004282D01*
X009104Y004235D01*
X009127Y004211D01*
X009127Y004305D02*
X009151Y004305D01*
X009244Y004211D01*
X009244Y004305D01*
X009885Y004106D02*
X009931Y004152D01*
X009931Y004012D01*
X009885Y004012D02*
X009978Y004012D01*
X010032Y004036D02*
X010125Y004129D01*
X010125Y004036D01*
X010102Y004012D01*
X010055Y004012D01*
X010032Y004036D01*
X010032Y004129D01*
X010055Y004152D01*
X010102Y004152D01*
X010125Y004129D01*
X010179Y004129D02*
X010203Y004152D01*
X010249Y004152D01*
X010273Y004129D01*
X010179Y004036D01*
X010203Y004012D01*
X010249Y004012D01*
X010273Y004036D01*
X010273Y004129D01*
X010327Y004106D02*
X010397Y004106D01*
X010420Y004082D01*
X010420Y004012D01*
X010474Y004012D02*
X010474Y004152D01*
X010567Y004152D01*
X010521Y004082D02*
X010474Y004082D01*
X010327Y004106D02*
X010327Y004012D01*
X010179Y004036D02*
X010179Y004129D01*
X010057Y012530D02*
X010057Y012660D01*
X010143Y012660D01*
X010100Y012595D02*
X010057Y012595D01*
X010005Y012595D02*
X010005Y012530D01*
X010005Y012595D02*
X009984Y012617D01*
X009919Y012617D01*
X009919Y012530D01*
X009867Y012551D02*
X009846Y012530D01*
X009802Y012530D01*
X009780Y012551D01*
X009867Y012638D01*
X009867Y012551D01*
X009780Y012551D02*
X009780Y012638D01*
X009802Y012660D01*
X009846Y012660D01*
X009867Y012638D01*
X009729Y012638D02*
X009642Y012551D01*
X009664Y012530D01*
X009707Y012530D01*
X009729Y012551D01*
X009729Y012638D01*
X009707Y012660D01*
X009664Y012660D01*
X009642Y012638D01*
X009642Y012551D01*
X009591Y012530D02*
X009504Y012530D01*
X009548Y012530D02*
X009548Y012660D01*
X009504Y012617D01*
X010196Y014054D02*
X010160Y014091D01*
X010196Y014054D02*
X010270Y014054D01*
X010307Y014091D01*
X010307Y014127D01*
X010270Y014164D01*
X010233Y014164D01*
X010270Y014164D02*
X010307Y014201D01*
X010307Y014237D01*
X010270Y014274D01*
X010196Y014274D01*
X010160Y014237D01*
X010381Y014237D02*
X010381Y014201D01*
X010417Y014164D01*
X010528Y014164D01*
X010528Y014237D02*
X010491Y014274D01*
X010417Y014274D01*
X010381Y014237D01*
X010381Y014091D02*
X010417Y014054D01*
X010491Y014054D01*
X010528Y014091D01*
X010528Y014237D01*
X010602Y014274D02*
X010602Y014054D01*
X010602Y014127D02*
X010712Y014201D01*
X010602Y014127D02*
X010712Y014054D01*
X010786Y013980D02*
X010859Y014054D01*
X010823Y014054D01*
X010823Y014091D01*
X010859Y014091D01*
X010859Y014054D01*
X010933Y014054D02*
X011080Y014054D01*
X011007Y014054D02*
X011007Y014274D01*
X010933Y014201D01*
X011154Y014237D02*
X011154Y014274D01*
X011191Y014274D01*
X011191Y014237D01*
X011154Y014237D01*
X011154Y014054D02*
X011338Y014274D01*
X011338Y014091D02*
X011338Y014054D01*
X011301Y014054D01*
X011301Y014091D01*
X011338Y014091D01*
X010498Y014708D02*
X010461Y014708D01*
X010461Y014745D01*
X010498Y014745D01*
X010498Y014708D01*
X010315Y014708D02*
X010498Y014928D01*
X010351Y014928D02*
X010351Y014891D01*
X010315Y014891D01*
X010315Y014928D01*
X010351Y014928D01*
X010167Y014928D02*
X010167Y014708D01*
X010094Y014708D02*
X010240Y014708D01*
X010094Y014855D02*
X010167Y014928D01*
X010020Y014745D02*
X009983Y014745D01*
X009983Y014708D01*
X010020Y014708D01*
X010020Y014745D01*
X010020Y014708D02*
X009946Y014635D01*
X009872Y014708D02*
X009762Y014781D01*
X009872Y014855D01*
X009762Y014928D02*
X009762Y014708D01*
X009688Y014745D02*
X009651Y014708D01*
X009578Y014708D01*
X009541Y014745D01*
X009688Y014891D01*
X009688Y014745D01*
X009688Y014891D02*
X009651Y014928D01*
X009578Y014928D01*
X009541Y014891D01*
X009541Y014745D01*
X009467Y014708D02*
X009320Y014708D01*
X009393Y014708D02*
X009393Y014928D01*
X009320Y014855D01*
X009714Y015730D02*
X009800Y015730D01*
X009757Y015730D02*
X009757Y015860D01*
X009714Y015817D01*
X009852Y015838D02*
X009873Y015860D01*
X009917Y015860D01*
X009938Y015838D01*
X009852Y015751D01*
X009873Y015730D01*
X009917Y015730D01*
X009938Y015751D01*
X009938Y015838D01*
X009990Y015838D02*
X010012Y015860D01*
X010055Y015860D01*
X010077Y015838D01*
X009990Y015751D01*
X010012Y015730D01*
X010055Y015730D01*
X010077Y015751D01*
X010077Y015838D01*
X010128Y015817D02*
X010193Y015817D01*
X010215Y015795D01*
X010215Y015730D01*
X010266Y015730D02*
X010266Y015860D01*
X010353Y015860D01*
X010389Y015875D02*
X010463Y015949D01*
X010426Y015949D01*
X010426Y015985D01*
X010463Y015985D01*
X010463Y015949D01*
X010537Y015949D02*
X010684Y015949D01*
X010758Y015949D02*
X010941Y016169D01*
X010794Y016169D02*
X010794Y016132D01*
X010758Y016132D01*
X010758Y016169D01*
X010794Y016169D01*
X010610Y016169D02*
X010610Y015949D01*
X010537Y016095D02*
X010610Y016169D01*
X010315Y016095D02*
X010205Y016022D01*
X010315Y015949D01*
X010205Y015949D02*
X010205Y016169D01*
X010131Y016132D02*
X010131Y015985D01*
X010094Y015949D01*
X010021Y015949D01*
X009984Y015985D01*
X009910Y015985D02*
X009873Y015949D01*
X009800Y015949D01*
X009763Y015985D01*
X009837Y016059D02*
X009873Y016059D01*
X009910Y016022D01*
X009910Y015985D01*
X009873Y016059D02*
X009910Y016095D01*
X009910Y016132D01*
X009873Y016169D01*
X009800Y016169D01*
X009763Y016132D01*
X009984Y016132D02*
X009984Y016095D01*
X010021Y016059D01*
X010131Y016059D01*
X010131Y016132D02*
X010094Y016169D01*
X010021Y016169D01*
X009984Y016132D01*
X009990Y015838D02*
X009990Y015751D01*
X009852Y015751D02*
X009852Y015838D01*
X010128Y015817D02*
X010128Y015730D01*
X010266Y015795D02*
X010309Y015795D01*
X010905Y015949D02*
X010941Y015949D01*
X010941Y015985D01*
X010905Y015985D01*
X010905Y015949D01*
X010266Y016930D02*
X010266Y017060D01*
X010353Y017060D01*
X010309Y016995D02*
X010266Y016995D01*
X010215Y016995D02*
X010215Y016930D01*
X010215Y016995D02*
X010193Y017017D01*
X010128Y017017D01*
X010128Y016930D01*
X010077Y016951D02*
X010055Y016930D01*
X010012Y016930D01*
X009990Y016951D01*
X010077Y017038D01*
X010077Y016951D01*
X009990Y016951D02*
X009990Y017038D01*
X010012Y017060D01*
X010055Y017060D01*
X010077Y017038D01*
X009938Y017038D02*
X009852Y016951D01*
X009873Y016930D01*
X009917Y016930D01*
X009938Y016951D01*
X009938Y017038D01*
X009917Y017060D01*
X009873Y017060D01*
X009852Y017038D01*
X009852Y016951D01*
X009800Y016930D02*
X009714Y016930D01*
X009757Y016930D02*
X009757Y017060D01*
X009714Y017017D01*
X009524Y017842D02*
X009597Y017916D01*
X009561Y017916D01*
X009561Y017952D01*
X009597Y017952D01*
X009597Y017916D01*
X009671Y017916D02*
X009818Y017916D01*
X009745Y017916D02*
X009745Y018136D01*
X009671Y018063D01*
X009450Y018063D02*
X009340Y017989D01*
X009450Y017916D01*
X009340Y017916D02*
X009340Y018136D01*
X009266Y018099D02*
X009119Y017952D01*
X009156Y017916D01*
X009229Y017916D01*
X009266Y017952D01*
X009266Y018099D01*
X009229Y018136D01*
X009156Y018136D01*
X009119Y018099D01*
X009119Y017952D01*
X009045Y017916D02*
X008898Y017916D01*
X008971Y017916D02*
X008971Y018136D01*
X008898Y018063D01*
X008069Y018685D02*
X008069Y018778D01*
X008069Y018731D02*
X007929Y018731D01*
X007976Y018685D01*
X008023Y018832D02*
X007976Y018902D01*
X008023Y018832D02*
X008069Y018902D01*
X008069Y018832D02*
X007929Y018832D01*
X007409Y018865D02*
X007344Y018865D01*
X007322Y018844D01*
X007322Y018779D01*
X007409Y018779D01*
X007388Y018727D02*
X007301Y018727D01*
X007388Y018640D01*
X007409Y018662D01*
X007409Y018706D01*
X007388Y018727D01*
X007388Y018640D02*
X007301Y018640D01*
X007279Y018662D01*
X007279Y018706D01*
X007301Y018727D01*
X007301Y018589D02*
X007388Y018502D01*
X007409Y018524D01*
X007409Y018567D01*
X007388Y018589D01*
X007301Y018589D01*
X007279Y018567D01*
X007279Y018524D01*
X007301Y018502D01*
X007388Y018502D01*
X007409Y018451D02*
X007409Y018364D01*
X007409Y018408D02*
X007279Y018408D01*
X007322Y018364D01*
X007344Y018917D02*
X007344Y018960D01*
X007409Y018917D02*
X007279Y018917D01*
X007279Y019003D01*
X006759Y018917D02*
X006629Y018917D01*
X006629Y019003D01*
X006694Y018960D02*
X006694Y018917D01*
X006694Y018865D02*
X006759Y018865D01*
X006694Y018865D02*
X006672Y018844D01*
X006672Y018779D01*
X006759Y018779D01*
X006738Y018727D02*
X006759Y018706D01*
X006759Y018662D01*
X006738Y018640D01*
X006651Y018727D01*
X006738Y018727D01*
X006738Y018640D02*
X006651Y018640D01*
X006629Y018662D01*
X006629Y018706D01*
X006651Y018727D01*
X006651Y018589D02*
X006738Y018502D01*
X006759Y018524D01*
X006759Y018567D01*
X006738Y018589D01*
X006651Y018589D01*
X006629Y018567D01*
X006629Y018524D01*
X006651Y018502D01*
X006738Y018502D01*
X006759Y018451D02*
X006759Y018364D01*
X006759Y018408D02*
X006629Y018408D01*
X006672Y018364D01*
X005455Y018260D02*
X005369Y018260D01*
X005369Y018130D01*
X005317Y018151D02*
X005296Y018130D01*
X005230Y018130D01*
X005230Y018086D02*
X005230Y018217D01*
X005296Y018217D01*
X005317Y018195D01*
X005317Y018151D01*
X005369Y018195D02*
X005412Y018195D01*
X005179Y018217D02*
X005179Y018238D01*
X005157Y018260D01*
X005114Y018260D01*
X005092Y018238D01*
X005041Y018238D02*
X005019Y018260D01*
X004976Y018260D01*
X004954Y018238D01*
X005041Y018238D02*
X005041Y018217D01*
X004954Y018130D01*
X005041Y018130D01*
X005092Y018130D02*
X005179Y018217D01*
X005179Y018130D02*
X005092Y018130D01*
X004703Y018260D02*
X004616Y018260D01*
X004616Y018130D01*
X004565Y018151D02*
X004543Y018130D01*
X004478Y018130D01*
X004478Y018086D02*
X004478Y018217D01*
X004543Y018217D01*
X004565Y018195D01*
X004565Y018151D01*
X004616Y018195D02*
X004659Y018195D01*
X004427Y018217D02*
X004427Y018238D01*
X004405Y018260D01*
X004362Y018260D01*
X004340Y018238D01*
X004288Y018238D02*
X004267Y018260D01*
X004223Y018260D01*
X004202Y018238D01*
X004288Y018238D02*
X004288Y018217D01*
X004202Y018130D01*
X004288Y018130D01*
X004340Y018130D02*
X004427Y018217D01*
X004427Y018130D02*
X004340Y018130D01*
X003146Y018784D02*
X003036Y018858D01*
X003146Y018931D01*
X003036Y019005D02*
X003036Y018784D01*
X002961Y018821D02*
X002925Y018784D01*
X002851Y018784D01*
X002815Y018821D01*
X002961Y018968D01*
X002961Y018821D01*
X002815Y018821D02*
X002815Y018968D01*
X002851Y019005D01*
X002925Y019005D01*
X002961Y018968D01*
X002740Y018784D02*
X002594Y018784D01*
X002667Y018784D02*
X002667Y019005D01*
X002594Y018931D01*
X002272Y019080D02*
X002202Y019127D01*
X002272Y019173D01*
X002202Y019220D02*
X002202Y019080D01*
X002148Y019080D02*
X002054Y019080D01*
X002101Y019080D02*
X002101Y019220D01*
X002054Y019173D01*
X001653Y018610D02*
X001566Y018610D01*
X001566Y018480D01*
X001515Y018480D02*
X001515Y018545D01*
X001493Y018567D01*
X001428Y018567D01*
X001428Y018480D01*
X001377Y018501D02*
X001377Y018588D01*
X001290Y018501D01*
X001312Y018480D01*
X001355Y018480D01*
X001377Y018501D01*
X001290Y018501D02*
X001290Y018588D01*
X001312Y018610D01*
X001355Y018610D01*
X001377Y018588D01*
X001238Y018588D02*
X001152Y018501D01*
X001173Y018480D01*
X001217Y018480D01*
X001238Y018501D01*
X001238Y018588D01*
X001217Y018610D01*
X001173Y018610D01*
X001152Y018588D01*
X001152Y018501D01*
X001100Y018480D02*
X001014Y018480D01*
X001057Y018480D02*
X001057Y018610D01*
X001014Y018567D01*
X001022Y019080D02*
X000952Y019127D01*
X001022Y019173D01*
X000952Y019220D02*
X000952Y019080D01*
X000898Y019080D02*
X000804Y019080D01*
X000851Y019080D02*
X000851Y019220D01*
X000804Y019173D01*
X001566Y018545D02*
X001609Y018545D01*
X004629Y014853D02*
X004629Y014767D01*
X004759Y014767D01*
X004759Y014715D02*
X004694Y014715D01*
X004672Y014694D01*
X004672Y014629D01*
X004759Y014629D01*
X004738Y014577D02*
X004759Y014556D01*
X004759Y014512D01*
X004738Y014490D01*
X004651Y014577D01*
X004738Y014577D01*
X004738Y014490D02*
X004651Y014490D01*
X004629Y014512D01*
X004629Y014556D01*
X004651Y014577D01*
X004651Y014439D02*
X004738Y014352D01*
X004759Y014374D01*
X004759Y014417D01*
X004738Y014439D01*
X004651Y014439D01*
X004629Y014417D01*
X004629Y014374D01*
X004651Y014352D01*
X004738Y014352D01*
X004759Y014301D02*
X004759Y014214D01*
X004759Y014258D02*
X004629Y014258D01*
X004672Y014214D01*
X004694Y014767D02*
X004694Y014810D01*
X009892Y017916D02*
X010076Y018136D01*
X009929Y018136D02*
X009929Y018099D01*
X009892Y018099D01*
X009892Y018136D01*
X009929Y018136D01*
X010039Y017952D02*
X010076Y017952D01*
X010076Y017916D01*
X010039Y017916D01*
X010039Y017952D01*
X012858Y017981D02*
X012858Y018054D01*
X012895Y018091D01*
X013041Y017944D01*
X013078Y017981D01*
X013078Y018054D01*
X013041Y018091D01*
X012895Y018091D01*
X012895Y018165D02*
X012858Y018202D01*
X012858Y018275D01*
X012895Y018312D01*
X013041Y018165D01*
X013078Y018202D01*
X013078Y018275D01*
X013041Y018312D01*
X012895Y018312D01*
X012895Y018386D02*
X012858Y018423D01*
X012858Y018496D01*
X012895Y018533D01*
X012931Y018533D01*
X012968Y018496D01*
X013005Y018533D01*
X013041Y018533D01*
X013078Y018496D01*
X013078Y018423D01*
X013041Y018386D01*
X012968Y018459D02*
X012968Y018496D01*
X013005Y018607D02*
X013005Y018717D01*
X012968Y018754D01*
X012895Y018754D01*
X012858Y018717D01*
X012858Y018607D01*
X013078Y018607D01*
X013005Y018680D02*
X013078Y018754D01*
X013152Y018828D02*
X013078Y018901D01*
X013078Y018865D01*
X013041Y018865D01*
X013041Y018901D01*
X013078Y018901D01*
X013078Y018975D02*
X013078Y019122D01*
X013078Y019049D02*
X012858Y019049D01*
X012931Y018975D01*
X012895Y019196D02*
X012858Y019196D01*
X012858Y019233D01*
X012895Y019233D01*
X012895Y019196D01*
X013078Y019196D02*
X012858Y019380D01*
X013041Y019380D02*
X013078Y019380D01*
X013078Y019343D01*
X013041Y019343D01*
X013041Y019380D01*
X013041Y018165D02*
X012895Y018165D01*
X012858Y017981D02*
X012895Y017944D01*
X013041Y017944D01*
X013041Y017870D02*
X013078Y017870D01*
X013078Y017833D01*
X013041Y017833D01*
X013041Y017870D01*
X013041Y017759D02*
X012895Y017759D01*
X013041Y017612D01*
X013078Y017649D01*
X013078Y017723D01*
X013041Y017759D01*
X012895Y017759D02*
X012858Y017723D01*
X012858Y017649D01*
X012895Y017612D01*
X013041Y017612D01*
X015098Y015578D02*
X015172Y015468D01*
X015245Y015578D01*
X015245Y015468D02*
X015025Y015468D01*
X015062Y015393D02*
X015208Y015247D01*
X015245Y015283D01*
X015245Y015357D01*
X015208Y015393D01*
X015062Y015393D01*
X015025Y015357D01*
X015025Y015283D01*
X015062Y015247D01*
X015208Y015247D01*
X015208Y015173D02*
X015245Y015136D01*
X015245Y015062D01*
X015208Y015026D01*
X015062Y015173D01*
X015208Y015173D01*
X015062Y015173D02*
X015025Y015136D01*
X015025Y015062D01*
X015062Y015026D01*
X015208Y015026D01*
X015245Y014952D02*
X015245Y014805D01*
X015245Y014878D02*
X015025Y014878D01*
X015098Y014805D01*
X014959Y015005D02*
X014959Y015098D01*
X014959Y015052D02*
X014819Y015052D01*
X014866Y015005D01*
X014913Y015152D02*
X014866Y015222D01*
X014913Y015152D02*
X014959Y015222D01*
X014959Y015152D02*
X014819Y015152D01*
X014896Y014275D02*
X014943Y014205D01*
X014989Y014275D01*
X014989Y014205D02*
X014849Y014205D01*
X014873Y014151D02*
X014966Y014058D01*
X014989Y014081D01*
X014989Y014128D01*
X014966Y014151D01*
X014873Y014151D01*
X014849Y014128D01*
X014849Y014081D01*
X014873Y014058D01*
X014966Y014058D01*
X014989Y014004D02*
X014989Y013911D01*
X014989Y013957D02*
X014849Y013957D01*
X014896Y013911D01*
X015694Y013870D02*
X015694Y013823D01*
X015717Y013799D01*
X015811Y013799D01*
X015717Y013893D01*
X015811Y013893D01*
X015834Y013870D01*
X015834Y013823D01*
X015811Y013799D01*
X015811Y013746D02*
X015834Y013722D01*
X015834Y013675D01*
X015811Y013652D01*
X015717Y013746D01*
X015811Y013746D01*
X015717Y013746D02*
X015694Y013722D01*
X015694Y013675D01*
X015717Y013652D01*
X015811Y013652D01*
X015834Y013598D02*
X015834Y013505D01*
X015834Y013552D02*
X015694Y013552D01*
X015741Y013505D01*
X015694Y013870D02*
X015717Y013893D01*
X015741Y013947D02*
X015741Y014017D01*
X015764Y014040D01*
X015834Y014040D01*
X015834Y014094D02*
X015694Y014094D01*
X015694Y014188D01*
X015764Y014141D02*
X015764Y014094D01*
X015741Y013947D02*
X015834Y013947D01*
X016490Y013957D02*
X016630Y013957D01*
X016630Y013911D02*
X016630Y014004D01*
X016607Y014058D02*
X016513Y014151D01*
X016607Y014151D01*
X016630Y014128D01*
X016630Y014081D01*
X016607Y014058D01*
X016513Y014058D01*
X016490Y014081D01*
X016490Y014128D01*
X016513Y014151D01*
X016490Y014205D02*
X016630Y014205D01*
X016583Y014205D02*
X016536Y014275D01*
X016583Y014205D02*
X016630Y014275D01*
X016490Y013957D02*
X016536Y013911D01*
X017344Y013870D02*
X017344Y013823D01*
X017367Y013799D01*
X017461Y013799D01*
X017367Y013893D01*
X017461Y013893D01*
X017484Y013870D01*
X017484Y013823D01*
X017461Y013799D01*
X017461Y013746D02*
X017484Y013722D01*
X017484Y013675D01*
X017461Y013652D01*
X017367Y013746D01*
X017461Y013746D01*
X017367Y013746D02*
X017344Y013722D01*
X017344Y013675D01*
X017367Y013652D01*
X017461Y013652D01*
X017484Y013598D02*
X017484Y013505D01*
X017484Y013552D02*
X017344Y013552D01*
X017391Y013505D01*
X017344Y013870D02*
X017367Y013893D01*
X017391Y013947D02*
X017391Y014017D01*
X017414Y014040D01*
X017484Y014040D01*
X017484Y014094D02*
X017344Y014094D01*
X017344Y014188D01*
X017414Y014141D02*
X017414Y014094D01*
X017391Y013947D02*
X017484Y013947D01*
X017616Y014273D02*
X017543Y014347D01*
X017763Y014347D01*
X017763Y014420D02*
X017763Y014273D01*
X017726Y014494D02*
X017579Y014494D01*
X017543Y014531D01*
X017543Y014604D01*
X017579Y014641D01*
X017726Y014494D01*
X017763Y014531D01*
X017763Y014604D01*
X017726Y014641D01*
X017579Y014641D01*
X017543Y014715D02*
X017763Y014715D01*
X017690Y014715D02*
X017616Y014825D01*
X017690Y014715D02*
X017763Y014825D01*
X019174Y014473D02*
X019321Y014473D01*
X019395Y014400D02*
X019395Y014363D01*
X019395Y014400D02*
X019542Y014547D01*
X019542Y014583D01*
X019395Y014583D01*
X019284Y014583D02*
X019174Y014473D01*
X019284Y014363D02*
X019284Y014583D01*
X019616Y014547D02*
X019653Y014583D01*
X019726Y014583D01*
X019763Y014547D01*
X019616Y014400D01*
X019653Y014363D01*
X019726Y014363D01*
X019763Y014400D01*
X019763Y014547D01*
X019837Y014510D02*
X019837Y014400D01*
X019874Y014363D01*
X019984Y014363D01*
X019984Y014510D01*
X020058Y014473D02*
X020132Y014473D01*
X020058Y014363D02*
X020058Y014583D01*
X020205Y014583D01*
X020500Y014473D02*
X020610Y014473D01*
X020647Y014437D01*
X020647Y014400D01*
X020610Y014363D01*
X020537Y014363D01*
X020500Y014400D01*
X020500Y014473D01*
X020574Y014547D01*
X020647Y014583D01*
X020832Y014547D02*
X020868Y014583D01*
X020942Y014583D01*
X020979Y014547D01*
X020979Y014510D01*
X020942Y014473D01*
X020979Y014437D01*
X020979Y014400D01*
X020942Y014363D01*
X020868Y014363D01*
X020832Y014400D01*
X020758Y014400D02*
X020758Y014363D01*
X020721Y014363D01*
X020721Y014400D01*
X020758Y014400D01*
X020905Y014473D02*
X020942Y014473D01*
X021053Y014437D02*
X021053Y014583D01*
X021053Y014437D02*
X021126Y014363D01*
X021200Y014437D01*
X021200Y014583D01*
X021618Y013952D02*
X021618Y013858D01*
X021758Y013858D01*
X021758Y013804D02*
X021688Y013804D01*
X021665Y013781D01*
X021665Y013711D01*
X021758Y013711D01*
X021735Y013657D02*
X021758Y013634D01*
X021758Y013587D01*
X021735Y013564D01*
X021641Y013657D01*
X021735Y013657D01*
X021735Y013564D02*
X021641Y013564D01*
X021618Y013587D01*
X021618Y013634D01*
X021641Y013657D01*
X021641Y013510D02*
X021735Y013416D01*
X021758Y013440D01*
X021758Y013486D01*
X021735Y013510D01*
X021641Y013510D01*
X021618Y013486D01*
X021618Y013440D01*
X021641Y013416D01*
X021735Y013416D01*
X021758Y013362D02*
X021758Y013269D01*
X021758Y013316D02*
X021618Y013316D01*
X021665Y013269D01*
X021688Y013858D02*
X021688Y013905D01*
X022280Y013834D02*
X022280Y013740D01*
X022420Y013740D01*
X022420Y013686D02*
X022350Y013686D01*
X022327Y013663D01*
X022327Y013593D01*
X022420Y013593D01*
X022397Y013539D02*
X022420Y013516D01*
X022420Y013469D01*
X022397Y013446D01*
X022304Y013539D01*
X022397Y013539D01*
X022304Y013539D02*
X022280Y013516D01*
X022280Y013469D01*
X022304Y013446D01*
X022397Y013446D01*
X022397Y013392D02*
X022420Y013368D01*
X022420Y013322D01*
X022397Y013298D01*
X022304Y013392D01*
X022397Y013392D01*
X022304Y013392D02*
X022280Y013368D01*
X022280Y013322D01*
X022304Y013298D01*
X022397Y013298D01*
X022420Y013244D02*
X022420Y013151D01*
X022420Y013198D02*
X022280Y013198D01*
X022327Y013151D01*
X022350Y013740D02*
X022350Y013787D01*
X023001Y013850D02*
X023001Y013944D01*
X023071Y013897D02*
X023071Y013850D01*
X023048Y013796D02*
X023141Y013796D01*
X023141Y013726D01*
X023118Y013703D01*
X023048Y013703D01*
X023024Y013649D02*
X023118Y013556D01*
X023141Y013579D01*
X023141Y013626D01*
X023118Y013649D01*
X023024Y013649D01*
X023001Y013626D01*
X023001Y013579D01*
X023024Y013556D01*
X023118Y013556D01*
X023141Y013502D02*
X023141Y013408D01*
X023141Y013455D02*
X023001Y013455D01*
X023048Y013408D01*
X023001Y013850D02*
X023141Y013850D01*
X019616Y014400D02*
X019616Y014547D01*
X018357Y019745D02*
X018357Y019831D01*
X018357Y019788D02*
X018227Y019788D01*
X018271Y019745D01*
X018249Y019883D02*
X018227Y019904D01*
X018227Y019948D01*
X018249Y019969D01*
X018336Y019883D01*
X018357Y019904D01*
X018357Y019948D01*
X018336Y019969D01*
X018249Y019969D01*
X018249Y020021D02*
X018227Y020042D01*
X018227Y020086D01*
X018249Y020108D01*
X018336Y020021D01*
X018357Y020042D01*
X018357Y020086D01*
X018336Y020108D01*
X018249Y020108D01*
X018271Y020159D02*
X018271Y020224D01*
X018292Y020246D01*
X018357Y020246D01*
X018357Y020297D02*
X018227Y020297D01*
X018227Y020384D01*
X018292Y020340D02*
X018292Y020297D01*
X018271Y020159D02*
X018357Y020159D01*
X018336Y020021D02*
X018249Y020021D01*
X018249Y019883D02*
X018336Y019883D01*
X018300Y021697D02*
X018300Y021837D01*
X018393Y021837D01*
X018346Y021767D02*
X018300Y021767D01*
X018246Y021790D02*
X018246Y021697D01*
X018176Y021697D01*
X018152Y021720D01*
X018152Y021790D01*
X018099Y021814D02*
X018005Y021720D01*
X018028Y021697D01*
X018075Y021697D01*
X018099Y021720D01*
X018099Y021814D01*
X018075Y021837D01*
X018028Y021837D01*
X018005Y021814D01*
X018005Y021720D01*
X017951Y021697D02*
X017858Y021697D01*
X017904Y021697D02*
X017904Y021837D01*
X017858Y021790D01*
X019948Y021833D02*
X019994Y021880D01*
X019994Y021739D01*
X019948Y021739D02*
X020041Y021739D01*
X020095Y021763D02*
X020188Y021856D01*
X020188Y021763D01*
X020165Y021739D01*
X020118Y021739D01*
X020095Y021763D01*
X020095Y021856D01*
X020118Y021880D01*
X020165Y021880D01*
X020188Y021856D01*
X020242Y021856D02*
X020266Y021880D01*
X020312Y021880D01*
X020336Y021856D01*
X020242Y021763D01*
X020266Y021739D01*
X020312Y021739D01*
X020336Y021763D01*
X020336Y021856D01*
X020390Y021880D02*
X020390Y021739D01*
X020390Y021786D02*
X020460Y021833D01*
X020390Y021786D02*
X020460Y021739D01*
X020242Y021763D02*
X020242Y021856D01*
X021979Y005644D02*
X021979Y005557D01*
X022109Y005557D01*
X022109Y005506D02*
X022044Y005506D01*
X022022Y005484D01*
X022022Y005419D01*
X022109Y005419D01*
X022088Y005368D02*
X022109Y005346D01*
X022109Y005303D01*
X022088Y005281D01*
X022001Y005368D01*
X022088Y005368D01*
X022088Y005281D02*
X022001Y005281D01*
X021979Y005303D01*
X021979Y005346D01*
X022001Y005368D01*
X022001Y005230D02*
X022088Y005143D01*
X022109Y005165D01*
X022109Y005208D01*
X022088Y005230D01*
X022001Y005230D01*
X021979Y005208D01*
X021979Y005165D01*
X022001Y005143D01*
X022088Y005143D01*
X022109Y005092D02*
X022109Y005005D01*
X022109Y005048D02*
X021979Y005048D01*
X022022Y005005D01*
X022044Y005557D02*
X022044Y005601D01*
X022579Y005557D02*
X022579Y005644D01*
X022644Y005601D02*
X022644Y005557D01*
X022644Y005506D02*
X022709Y005506D01*
X022709Y005557D02*
X022579Y005557D01*
X022644Y005506D02*
X022622Y005484D01*
X022622Y005419D01*
X022709Y005419D01*
X022688Y005368D02*
X022709Y005346D01*
X022709Y005303D01*
X022688Y005281D01*
X022601Y005368D01*
X022688Y005368D01*
X022688Y005281D02*
X022601Y005281D01*
X022579Y005303D01*
X022579Y005346D01*
X022601Y005368D01*
X022601Y005230D02*
X022688Y005143D01*
X022709Y005165D01*
X022709Y005208D01*
X022688Y005230D01*
X022601Y005230D01*
X022579Y005208D01*
X022579Y005165D01*
X022601Y005143D01*
X022688Y005143D01*
X022709Y005092D02*
X022709Y005005D01*
X022709Y005048D02*
X022579Y005048D01*
X022622Y005005D01*
X021434Y005002D02*
X021294Y005002D01*
X021341Y004955D01*
X021434Y004955D02*
X021434Y005048D01*
X021411Y005102D02*
X021317Y005196D01*
X021411Y005196D01*
X021434Y005172D01*
X021434Y005125D01*
X021411Y005102D01*
X021317Y005102D01*
X021294Y005125D01*
X021294Y005172D01*
X021317Y005196D01*
X021341Y005249D02*
X021411Y005249D01*
X021434Y005273D01*
X021434Y005343D01*
X021341Y005343D01*
X021364Y005397D02*
X021364Y005443D01*
X021294Y005397D02*
X021294Y005490D01*
X021294Y005397D02*
X021434Y005397D01*
D215*
X021212Y007635D03*
D216*
X017160Y017036D02*
X017160Y018455D01*
X015300Y018455D02*
X015300Y017036D01*
X010411Y014075D02*
X010411Y014038D01*
X010411Y014075D02*
X009773Y014075D01*
X009773Y014038D01*
X009773Y013720D02*
X009773Y013683D01*
X009773Y013346D02*
X009773Y013309D01*
X009773Y012992D02*
X009773Y012955D01*
X010411Y012955D01*
X010411Y012992D01*
X010411Y013309D02*
X010411Y013720D01*
X008515Y014525D02*
X008515Y017145D01*
X008376Y017285D01*
X005756Y017285D01*
X005756Y014525D01*
X008515Y014525D01*
X008075Y016985D02*
X008077Y017008D01*
X008083Y017031D01*
X008092Y017052D01*
X008105Y017072D01*
X008121Y017089D01*
X008139Y017103D01*
X008159Y017114D01*
X008181Y017122D01*
X008204Y017126D01*
X008228Y017126D01*
X008251Y017122D01*
X008273Y017114D01*
X008293Y017103D01*
X008311Y017089D01*
X008327Y017072D01*
X008340Y017052D01*
X008349Y017031D01*
X008355Y017008D01*
X008357Y016985D01*
X008355Y016962D01*
X008349Y016939D01*
X008340Y016918D01*
X008327Y016898D01*
X008311Y016881D01*
X008293Y016867D01*
X008273Y016856D01*
X008251Y016848D01*
X008228Y016844D01*
X008204Y016844D01*
X008181Y016848D01*
X008159Y016856D01*
X008139Y016867D01*
X008121Y016881D01*
X008105Y016898D01*
X008092Y016918D01*
X008083Y016939D01*
X008077Y016962D01*
X008075Y016985D01*
D217*
X008880Y018781D02*
X008980Y018781D01*
X008930Y018781D02*
X008930Y018931D01*
X008880Y018881D01*
X009027Y018906D02*
X009052Y018931D01*
X009102Y018931D01*
X009127Y018906D01*
X009027Y018806D01*
X009052Y018781D01*
X009102Y018781D01*
X009127Y018806D01*
X009127Y018906D01*
X009174Y018906D02*
X009199Y018931D01*
X009249Y018931D01*
X009274Y018906D01*
X009174Y018806D01*
X009199Y018781D01*
X009249Y018781D01*
X009274Y018806D01*
X009274Y018906D01*
X009322Y018931D02*
X009322Y018781D01*
X009322Y018831D02*
X009397Y018881D01*
X009322Y018831D02*
X009397Y018781D01*
X009174Y018806D02*
X009174Y018906D01*
X009027Y018906D02*
X009027Y018806D01*
X005870Y020531D02*
X005795Y020581D01*
X005870Y020631D01*
X005795Y020681D02*
X005795Y020531D01*
X005747Y020556D02*
X005722Y020531D01*
X005672Y020531D01*
X005647Y020556D01*
X005747Y020656D01*
X005747Y020556D01*
X005647Y020556D02*
X005647Y020656D01*
X005672Y020681D01*
X005722Y020681D01*
X005747Y020656D01*
X005600Y020531D02*
X005500Y020531D01*
X005550Y020531D02*
X005550Y020681D01*
X005500Y020631D01*
X005500Y021319D02*
X005600Y021319D01*
X005550Y021319D02*
X005550Y021469D01*
X005500Y021419D01*
X005647Y021444D02*
X005672Y021469D01*
X005722Y021469D01*
X005747Y021444D01*
X005647Y021344D01*
X005672Y021319D01*
X005722Y021319D01*
X005747Y021344D01*
X005747Y021444D01*
X005795Y021469D02*
X005795Y021319D01*
X005795Y021369D02*
X005870Y021419D01*
X005795Y021369D02*
X005870Y021319D01*
X005647Y021344D02*
X005647Y021444D01*
X005672Y022206D02*
X005647Y022231D01*
X005747Y022331D01*
X005747Y022231D01*
X005722Y022206D01*
X005672Y022206D01*
X005647Y022231D02*
X005647Y022331D01*
X005672Y022356D01*
X005722Y022356D01*
X005747Y022331D01*
X005795Y022356D02*
X005795Y022206D01*
X005795Y022256D02*
X005870Y022206D01*
X005795Y022256D02*
X005870Y022306D01*
X005600Y022206D02*
X005500Y022206D01*
X005550Y022206D02*
X005550Y022356D01*
X005500Y022306D01*
X005717Y022953D02*
X005817Y022953D01*
X005767Y022953D02*
X005767Y023103D01*
X005717Y023053D01*
X005865Y023078D02*
X005890Y023103D01*
X005940Y023103D01*
X005965Y023078D01*
X005865Y022978D01*
X005890Y022953D01*
X005940Y022953D01*
X005965Y022978D01*
X005965Y023078D01*
X006012Y023103D02*
X006012Y022953D01*
X006012Y023003D02*
X006087Y022953D01*
X006012Y023003D02*
X006087Y023053D01*
X005865Y023078D02*
X005865Y022978D01*
X005890Y023741D02*
X005865Y023766D01*
X005965Y023866D01*
X005965Y023766D01*
X005940Y023741D01*
X005890Y023741D01*
X005865Y023766D02*
X005865Y023866D01*
X005890Y023891D01*
X005940Y023891D01*
X005965Y023866D01*
X006012Y023891D02*
X006012Y023741D01*
X006012Y023791D02*
X006087Y023841D01*
X006012Y023791D02*
X006087Y023741D01*
X005817Y023741D02*
X005717Y023741D01*
X005767Y023741D02*
X005767Y023891D01*
X005717Y023841D01*
X002149Y019412D02*
X002074Y019362D01*
X002149Y019312D01*
X002074Y019312D02*
X002074Y019462D01*
X002027Y019437D02*
X001927Y019337D01*
X001952Y019312D01*
X002002Y019312D01*
X002027Y019337D01*
X002027Y019437D01*
X002002Y019462D01*
X001952Y019462D01*
X001927Y019437D01*
X001927Y019337D01*
X001880Y019337D02*
X001855Y019312D01*
X001804Y019312D01*
X001779Y019337D01*
X001880Y019437D01*
X001880Y019337D01*
X001880Y019437D02*
X001855Y019462D01*
X001804Y019462D01*
X001779Y019437D01*
X001779Y019337D01*
X001732Y019312D02*
X001632Y019312D01*
X001682Y019312D02*
X001682Y019462D01*
X001632Y019412D01*
X000896Y019412D02*
X000821Y019362D01*
X000896Y019312D01*
X000821Y019312D02*
X000821Y019462D01*
X000774Y019437D02*
X000674Y019337D01*
X000699Y019312D01*
X000749Y019312D01*
X000774Y019337D01*
X000774Y019437D01*
X000749Y019462D01*
X000699Y019462D01*
X000674Y019437D01*
X000674Y019337D01*
X000627Y019337D02*
X000602Y019312D01*
X000552Y019312D01*
X000526Y019337D01*
X000627Y019437D01*
X000627Y019337D01*
X000627Y019437D02*
X000602Y019462D01*
X000552Y019462D01*
X000526Y019437D01*
X000526Y019337D01*
X000479Y019312D02*
X000379Y019312D01*
X000429Y019312D02*
X000429Y019462D01*
X000379Y019412D01*
X015164Y017966D02*
X015164Y017941D01*
X015189Y017916D01*
X015239Y017916D01*
X015264Y017891D01*
X015264Y017866D01*
X015239Y017841D01*
X015189Y017841D01*
X015164Y017866D01*
X015164Y017966D02*
X015189Y017991D01*
X015239Y017991D01*
X015264Y017966D01*
X015311Y017991D02*
X015361Y017991D01*
X015336Y017991D02*
X015336Y017841D01*
X015311Y017841D02*
X015361Y017841D01*
X015409Y017916D02*
X015509Y017916D01*
X015556Y017916D02*
X015657Y017916D01*
X015704Y017966D02*
X015729Y017991D01*
X015779Y017991D01*
X015804Y017966D01*
X015804Y017941D01*
X015779Y017916D01*
X015804Y017891D01*
X015804Y017866D01*
X015779Y017841D01*
X015729Y017841D01*
X015704Y017866D01*
X015754Y017916D02*
X015779Y017916D01*
X015851Y017916D02*
X015901Y017941D01*
X015926Y017941D01*
X015951Y017916D01*
X015951Y017866D01*
X015926Y017841D01*
X015876Y017841D01*
X015851Y017866D01*
X015851Y017916D02*
X015851Y017991D01*
X015951Y017991D01*
X015998Y017991D02*
X016073Y017991D01*
X016099Y017966D01*
X016099Y017916D01*
X016073Y017891D01*
X015998Y017891D01*
X015998Y017841D02*
X015998Y017991D01*
X016146Y017966D02*
X016146Y017866D01*
X016171Y017841D01*
X016221Y017841D01*
X016246Y017866D01*
X016246Y017966D01*
X016221Y017991D01*
X016171Y017991D01*
X016146Y017966D01*
X016293Y017991D02*
X016293Y017841D01*
X016343Y017891D01*
X016393Y017841D01*
X016393Y017991D01*
X016440Y017991D02*
X016440Y017841D01*
X016540Y017841D01*
X016588Y017841D02*
X016588Y017991D01*
X016663Y017991D01*
X016688Y017966D01*
X016688Y017916D01*
X016663Y017891D01*
X016588Y017891D01*
X016638Y017891D02*
X016688Y017841D01*
X016540Y017991D02*
X016440Y017991D01*
X016440Y017916D02*
X016490Y017916D01*
X015632Y017991D02*
X015556Y017916D01*
X015484Y017991D02*
X015409Y017916D01*
X015484Y017841D02*
X015484Y017991D01*
X015632Y017991D02*
X015632Y017841D01*
M02*
