G75*
%MOIN*%
%OFA0B0*%
%FSLAX24Y24*%
%IPPOS*%
%LPD*%
%AMOC8*
5,1,8,0,0,1.08239X$1,22.5*
%
%ADD10C,0.0000*%
%ADD11R,0.0260X0.0760*%
%ADD12R,0.0760X0.0260*%
%ADD13C,0.0088*%
%ADD14R,0.0472X0.0866*%
%ADD15R,0.0472X0.0787*%
%ADD16R,0.0600X0.0250*%
%ADD17R,0.1000X0.1200*%
%ADD18R,0.1000X0.1250*%
%ADD19C,0.0100*%
%ADD20R,0.0984X0.1260*%
%ADD21R,0.1080X0.0850*%
%ADD22C,0.0150*%
%ADD23C,0.0200*%
%ADD24R,0.0220X0.0500*%
%ADD25R,0.0500X0.0220*%
%ADD26OC8,0.0740*%
%ADD27R,0.1300X0.0800*%
%ADD28C,0.1181*%
%ADD29R,0.1181X0.1181*%
%ADD30R,0.0240X0.0870*%
%ADD31R,0.1260X0.0866*%
%ADD32R,0.1969X0.1772*%
%ADD33R,0.0945X0.0945*%
%ADD34R,0.0472X0.0217*%
%ADD35C,0.0740*%
%ADD36R,0.0400X0.0450*%
%ADD37R,0.0500X0.0500*%
%ADD38C,0.0075*%
%ADD39C,0.0709*%
%ADD40R,0.0700X0.0800*%
%ADD41C,0.0280*%
%ADD42C,0.0240*%
%ADD43C,0.0080*%
%ADD44C,0.0320*%
%ADD45C,0.0160*%
%ADD46C,0.0660*%
%ADD47C,0.0120*%
%ADD48C,0.0320*%
%ADD49C,0.0400*%
%ADD50C,0.0800*%
D10*
X003294Y001045D02*
X000144Y004194D01*
X000144Y021124D01*
X003294Y024273D01*
X020223Y024273D01*
X023373Y021124D01*
X023373Y004194D01*
X020223Y001045D01*
X003294Y001045D01*
D11*
X012656Y002911D03*
X013050Y002911D03*
X013443Y002911D03*
X013837Y002911D03*
X014231Y002911D03*
X014625Y002911D03*
X015018Y002911D03*
X015412Y002911D03*
X015806Y002911D03*
X016199Y002911D03*
X016593Y002911D03*
X016987Y002911D03*
X017380Y002911D03*
X017774Y002911D03*
X018168Y002911D03*
X018562Y002911D03*
X018955Y002911D03*
X018955Y012360D03*
X018562Y012360D03*
X018168Y012360D03*
X017774Y012360D03*
X017380Y012360D03*
X016987Y012360D03*
X016593Y012360D03*
X016199Y012360D03*
X015806Y012360D03*
X015412Y012360D03*
X015018Y012360D03*
X014625Y012360D03*
X014231Y012360D03*
X013837Y012360D03*
X013443Y012360D03*
X013050Y012360D03*
X012656Y012360D03*
D12*
X011081Y010785D03*
X011081Y010391D03*
X011081Y009998D03*
X011081Y009604D03*
X011081Y009210D03*
X011081Y008816D03*
X011081Y008423D03*
X011081Y008029D03*
X011081Y007635D03*
X011081Y007242D03*
X011081Y006848D03*
X011081Y006454D03*
X011081Y006061D03*
X011081Y005667D03*
X011081Y005273D03*
X011081Y004879D03*
X011081Y004486D03*
X020530Y004486D03*
X020530Y004879D03*
X020530Y005273D03*
X020530Y005667D03*
X020530Y006061D03*
X020530Y006454D03*
X020530Y006848D03*
X020530Y007242D03*
X020530Y007635D03*
X020530Y008029D03*
X020530Y008423D03*
X020530Y008816D03*
X020530Y009210D03*
X020530Y009604D03*
X020530Y009998D03*
X020530Y010391D03*
X020530Y010785D03*
D13*
X021379Y013552D02*
X021379Y013814D01*
X021379Y013552D02*
X021117Y013552D01*
X021117Y013814D01*
X021379Y013814D01*
X021379Y013639D02*
X021117Y013639D01*
X021117Y013726D02*
X021379Y013726D01*
X021379Y013813D02*
X021117Y013813D01*
X021379Y014152D02*
X021379Y014414D01*
X021379Y014152D02*
X021117Y014152D01*
X021117Y014414D01*
X021379Y014414D01*
X021379Y014239D02*
X021117Y014239D01*
X021117Y014326D02*
X021379Y014326D01*
X021379Y014413D02*
X021117Y014413D01*
X021991Y014414D02*
X021991Y014152D01*
X021729Y014152D01*
X021729Y014414D01*
X021991Y014414D01*
X021991Y014239D02*
X021729Y014239D01*
X021729Y014326D02*
X021991Y014326D01*
X021991Y014413D02*
X021729Y014413D01*
X021991Y013814D02*
X021991Y013552D01*
X021729Y013552D01*
X021729Y013814D01*
X021991Y013814D01*
X021991Y013639D02*
X021729Y013639D01*
X021729Y013726D02*
X021991Y013726D01*
X021991Y013813D02*
X021729Y013813D01*
X017626Y014948D02*
X017626Y015210D01*
X017626Y014948D02*
X017364Y014948D01*
X017364Y015210D01*
X017626Y015210D01*
X017626Y015035D02*
X017364Y015035D01*
X017364Y015122D02*
X017626Y015122D01*
X017626Y015209D02*
X017364Y015209D01*
X017626Y015548D02*
X017626Y015810D01*
X017626Y015548D02*
X017364Y015548D01*
X017364Y015810D01*
X017626Y015810D01*
X017626Y015635D02*
X017364Y015635D01*
X017364Y015722D02*
X017626Y015722D01*
X017626Y015809D02*
X017364Y015809D01*
X016424Y014349D02*
X016424Y014087D01*
X016424Y014349D02*
X016686Y014349D01*
X016686Y014087D01*
X016424Y014087D01*
X016424Y014174D02*
X016686Y014174D01*
X016686Y014261D02*
X016424Y014261D01*
X016424Y014348D02*
X016686Y014348D01*
X016424Y013749D02*
X016424Y013487D01*
X016424Y013749D02*
X016686Y013749D01*
X016686Y013487D01*
X016424Y013487D01*
X016424Y013574D02*
X016686Y013574D01*
X016686Y013661D02*
X016424Y013661D01*
X016424Y013748D02*
X016686Y013748D01*
X015440Y014961D02*
X015440Y015223D01*
X015702Y015223D01*
X015702Y014961D01*
X015440Y014961D01*
X015440Y015048D02*
X015702Y015048D01*
X015702Y015135D02*
X015440Y015135D01*
X015440Y015222D02*
X015702Y015222D01*
X015440Y015561D02*
X015440Y015823D01*
X015702Y015823D01*
X015702Y015561D01*
X015440Y015561D01*
X015440Y015648D02*
X015702Y015648D01*
X015702Y015735D02*
X015440Y015735D01*
X015440Y015822D02*
X015702Y015822D01*
X015025Y015826D02*
X015025Y015564D01*
X014763Y015564D01*
X014763Y015826D01*
X015025Y015826D01*
X015025Y015651D02*
X014763Y015651D01*
X014763Y015738D02*
X015025Y015738D01*
X015025Y015825D02*
X014763Y015825D01*
X015025Y015226D02*
X015025Y014964D01*
X014763Y014964D01*
X014763Y015226D01*
X015025Y015226D01*
X015025Y015051D02*
X014763Y015051D01*
X014763Y015138D02*
X015025Y015138D01*
X015025Y015225D02*
X014763Y015225D01*
X014783Y014349D02*
X014783Y014087D01*
X014783Y014349D02*
X015045Y014349D01*
X015045Y014087D01*
X014783Y014087D01*
X014783Y014174D02*
X015045Y014174D01*
X015045Y014261D02*
X014783Y014261D01*
X014783Y014348D02*
X015045Y014348D01*
X014783Y013749D02*
X014783Y013487D01*
X014783Y013749D02*
X015045Y013749D01*
X015045Y013487D01*
X014783Y013487D01*
X014783Y013574D02*
X015045Y013574D01*
X015045Y013661D02*
X014783Y013661D01*
X014783Y013748D02*
X015045Y013748D01*
X010425Y012464D02*
X010163Y012464D01*
X010163Y012726D01*
X010425Y012726D01*
X010425Y012464D01*
X010425Y012551D02*
X010163Y012551D01*
X010163Y012638D02*
X010425Y012638D01*
X010425Y012725D02*
X010163Y012725D01*
X009825Y012464D02*
X009563Y012464D01*
X009563Y012726D01*
X009825Y012726D01*
X009825Y012464D01*
X009825Y012551D02*
X009563Y012551D01*
X009563Y012638D02*
X009825Y012638D01*
X009825Y012725D02*
X009563Y012725D01*
X009469Y014463D02*
X009731Y014463D01*
X009469Y014463D02*
X009469Y014725D01*
X009731Y014725D01*
X009731Y014463D01*
X009731Y014550D02*
X009469Y014550D01*
X009469Y014637D02*
X009731Y014637D01*
X009731Y014724D02*
X009469Y014724D01*
X009469Y015319D02*
X009731Y015319D01*
X009731Y015057D01*
X009469Y015057D01*
X009469Y015319D01*
X009469Y015144D02*
X009731Y015144D01*
X009731Y015231D02*
X009469Y015231D01*
X009469Y015318D02*
X009731Y015318D01*
X009725Y015926D02*
X009463Y015926D01*
X009725Y015926D02*
X009725Y015664D01*
X009463Y015664D01*
X009463Y015926D01*
X009463Y015751D02*
X009725Y015751D01*
X009725Y015838D02*
X009463Y015838D01*
X009463Y015925D02*
X009725Y015925D01*
X009734Y016258D02*
X009472Y016258D01*
X009472Y016520D01*
X009734Y016520D01*
X009734Y016258D01*
X009734Y016345D02*
X009472Y016345D01*
X009472Y016432D02*
X009734Y016432D01*
X009734Y016519D02*
X009472Y016519D01*
X009463Y017126D02*
X009725Y017126D01*
X009725Y016864D01*
X009463Y016864D01*
X009463Y017126D01*
X009463Y016951D02*
X009725Y016951D01*
X009725Y017038D02*
X009463Y017038D01*
X009463Y017125D02*
X009725Y017125D01*
X010063Y017126D02*
X010325Y017126D01*
X010325Y016864D01*
X010063Y016864D01*
X010063Y017126D01*
X010063Y016951D02*
X010325Y016951D01*
X010325Y017038D02*
X010063Y017038D01*
X010063Y017125D02*
X010325Y017125D01*
X010321Y017727D02*
X010059Y017727D01*
X010321Y017727D02*
X010321Y017465D01*
X010059Y017465D01*
X010059Y017727D01*
X010059Y017552D02*
X010321Y017552D01*
X010321Y017639D02*
X010059Y017639D01*
X010059Y017726D02*
X010321Y017726D01*
X009721Y017727D02*
X009459Y017727D01*
X009721Y017727D02*
X009721Y017465D01*
X009459Y017465D01*
X009459Y017727D01*
X009459Y017552D02*
X009721Y017552D01*
X009721Y017639D02*
X009459Y017639D01*
X009459Y017726D02*
X009721Y017726D01*
X009424Y018356D02*
X009162Y018356D01*
X009424Y018356D02*
X009424Y018094D01*
X009162Y018094D01*
X009162Y018356D01*
X009162Y018181D02*
X009424Y018181D01*
X009424Y018268D02*
X009162Y018268D01*
X009162Y018355D02*
X009424Y018355D01*
X008824Y018356D02*
X008562Y018356D01*
X008824Y018356D02*
X008824Y018094D01*
X008562Y018094D01*
X008562Y018356D01*
X008562Y018181D02*
X008824Y018181D01*
X008824Y018268D02*
X008562Y018268D01*
X008562Y018355D02*
X008824Y018355D01*
X007863Y018376D02*
X007863Y018114D01*
X007863Y018376D02*
X008125Y018376D01*
X008125Y018114D01*
X007863Y018114D01*
X007863Y018201D02*
X008125Y018201D01*
X008125Y018288D02*
X007863Y018288D01*
X007863Y018375D02*
X008125Y018375D01*
X007863Y018714D02*
X007863Y018976D01*
X008125Y018976D01*
X008125Y018714D01*
X007863Y018714D01*
X007863Y018801D02*
X008125Y018801D01*
X008125Y018888D02*
X007863Y018888D01*
X007863Y018975D02*
X008125Y018975D01*
X007213Y018976D02*
X007213Y018714D01*
X007213Y018976D02*
X007475Y018976D01*
X007475Y018714D01*
X007213Y018714D01*
X007213Y018801D02*
X007475Y018801D01*
X007475Y018888D02*
X007213Y018888D01*
X007213Y018975D02*
X007475Y018975D01*
X007213Y018376D02*
X007213Y018114D01*
X007213Y018376D02*
X007475Y018376D01*
X007475Y018114D01*
X007213Y018114D01*
X007213Y018201D02*
X007475Y018201D01*
X007475Y018288D02*
X007213Y018288D01*
X007213Y018375D02*
X007475Y018375D01*
X006563Y018376D02*
X006563Y018114D01*
X006563Y018376D02*
X006825Y018376D01*
X006825Y018114D01*
X006563Y018114D01*
X006563Y018201D02*
X006825Y018201D01*
X006825Y018288D02*
X006563Y018288D01*
X006563Y018375D02*
X006825Y018375D01*
X006563Y018714D02*
X006563Y018976D01*
X006825Y018976D01*
X006825Y018714D01*
X006563Y018714D01*
X006563Y018801D02*
X006825Y018801D01*
X006825Y018888D02*
X006563Y018888D01*
X006563Y018975D02*
X006825Y018975D01*
X005875Y018064D02*
X005613Y018064D01*
X005613Y018326D01*
X005875Y018326D01*
X005875Y018064D01*
X005875Y018151D02*
X005613Y018151D01*
X005613Y018238D02*
X005875Y018238D01*
X005875Y018325D02*
X005613Y018325D01*
X005275Y018064D02*
X005013Y018064D01*
X005013Y018326D01*
X005275Y018326D01*
X005275Y018064D01*
X005275Y018151D02*
X005013Y018151D01*
X005013Y018238D02*
X005275Y018238D01*
X005275Y018325D02*
X005013Y018325D01*
X004675Y018326D02*
X004413Y018326D01*
X004675Y018326D02*
X004675Y018064D01*
X004413Y018064D01*
X004413Y018326D01*
X004413Y018151D02*
X004675Y018151D01*
X004675Y018238D02*
X004413Y018238D01*
X004413Y018325D02*
X004675Y018325D01*
X004075Y018326D02*
X003813Y018326D01*
X004075Y018326D02*
X004075Y018064D01*
X003813Y018064D01*
X003813Y018326D01*
X003813Y018151D02*
X004075Y018151D01*
X004075Y018238D02*
X003813Y018238D01*
X003813Y018325D02*
X004075Y018325D01*
X002871Y018406D02*
X002609Y018406D01*
X002609Y018668D01*
X002871Y018668D01*
X002871Y018406D01*
X002871Y018493D02*
X002609Y018493D01*
X002609Y018580D02*
X002871Y018580D01*
X002871Y018667D02*
X002609Y018667D01*
X002271Y018406D02*
X002009Y018406D01*
X002009Y018668D01*
X002271Y018668D01*
X002271Y018406D01*
X002271Y018493D02*
X002009Y018493D01*
X002009Y018580D02*
X002271Y018580D01*
X002271Y018667D02*
X002009Y018667D01*
X002013Y019014D02*
X002275Y019014D01*
X002013Y019014D02*
X002013Y019276D01*
X002275Y019276D01*
X002275Y019014D01*
X002275Y019101D02*
X002013Y019101D01*
X002013Y019188D02*
X002275Y019188D01*
X002275Y019275D02*
X002013Y019275D01*
X002011Y019848D02*
X002273Y019848D01*
X002273Y019586D01*
X002011Y019586D01*
X002011Y019848D01*
X002011Y019673D02*
X002273Y019673D01*
X002273Y019760D02*
X002011Y019760D01*
X002011Y019847D02*
X002273Y019847D01*
X002611Y019848D02*
X002873Y019848D01*
X002873Y019586D01*
X002611Y019586D01*
X002611Y019848D01*
X002611Y019673D02*
X002873Y019673D01*
X002873Y019760D02*
X002611Y019760D01*
X002611Y019847D02*
X002873Y019847D01*
X002875Y019014D02*
X002613Y019014D01*
X002613Y019276D01*
X002875Y019276D01*
X002875Y019014D01*
X002875Y019101D02*
X002613Y019101D01*
X002613Y019188D02*
X002875Y019188D01*
X002875Y019275D02*
X002613Y019275D01*
X001625Y019014D02*
X001363Y019014D01*
X001363Y019276D01*
X001625Y019276D01*
X001625Y019014D01*
X001625Y019101D02*
X001363Y019101D01*
X001363Y019188D02*
X001625Y019188D01*
X001625Y019275D02*
X001363Y019275D01*
X001358Y019848D02*
X001620Y019848D01*
X001620Y019586D01*
X001358Y019586D01*
X001358Y019848D01*
X001358Y019673D02*
X001620Y019673D01*
X001620Y019760D02*
X001358Y019760D01*
X001358Y019847D02*
X001620Y019847D01*
X001020Y019848D02*
X000758Y019848D01*
X001020Y019848D02*
X001020Y019586D01*
X000758Y019586D01*
X000758Y019848D01*
X000758Y019673D02*
X001020Y019673D01*
X001020Y019760D02*
X000758Y019760D01*
X000758Y019847D02*
X001020Y019847D01*
X001025Y019014D02*
X000763Y019014D01*
X000763Y019276D01*
X001025Y019276D01*
X001025Y019014D01*
X001025Y019101D02*
X000763Y019101D01*
X000763Y019188D02*
X001025Y019188D01*
X001025Y019275D02*
X000763Y019275D01*
X000763Y018676D02*
X001025Y018676D01*
X001025Y018414D01*
X000763Y018414D01*
X000763Y018676D01*
X000763Y018501D02*
X001025Y018501D01*
X001025Y018588D02*
X000763Y018588D01*
X000763Y018675D02*
X001025Y018675D01*
X001363Y018676D02*
X001625Y018676D01*
X001625Y018414D01*
X001363Y018414D01*
X001363Y018676D01*
X001363Y018501D02*
X001625Y018501D01*
X001625Y018588D02*
X001363Y018588D01*
X001363Y018675D02*
X001625Y018675D01*
X005031Y020467D02*
X005293Y020467D01*
X005293Y020205D01*
X005031Y020205D01*
X005031Y020467D01*
X005031Y020292D02*
X005293Y020292D01*
X005293Y020379D02*
X005031Y020379D01*
X005031Y020466D02*
X005293Y020466D01*
X005631Y020467D02*
X005893Y020467D01*
X005893Y020205D01*
X005631Y020205D01*
X005631Y020467D01*
X005631Y020292D02*
X005893Y020292D01*
X005893Y020379D02*
X005631Y020379D01*
X005631Y020466D02*
X005893Y020466D01*
X005893Y021255D02*
X005631Y021255D01*
X005893Y021255D02*
X005893Y020993D01*
X005631Y020993D01*
X005631Y021255D01*
X005631Y021080D02*
X005893Y021080D01*
X005893Y021167D02*
X005631Y021167D01*
X005631Y021254D02*
X005893Y021254D01*
X005893Y022042D02*
X005631Y022042D01*
X005893Y022042D02*
X005893Y021780D01*
X005631Y021780D01*
X005631Y022042D01*
X005631Y021867D02*
X005893Y021867D01*
X005893Y021954D02*
X005631Y021954D01*
X005631Y022041D02*
X005893Y022041D01*
X005893Y022567D02*
X005631Y022567D01*
X005631Y022829D01*
X005893Y022829D01*
X005893Y022567D01*
X005893Y022654D02*
X005631Y022654D01*
X005631Y022741D02*
X005893Y022741D01*
X005893Y022828D02*
X005631Y022828D01*
X005293Y022567D02*
X005031Y022567D01*
X005031Y022829D01*
X005293Y022829D01*
X005293Y022567D01*
X005293Y022654D02*
X005031Y022654D01*
X005031Y022741D02*
X005293Y022741D01*
X005293Y022828D02*
X005031Y022828D01*
X005031Y023355D02*
X005293Y023355D01*
X005031Y023355D02*
X005031Y023617D01*
X005293Y023617D01*
X005293Y023355D01*
X005293Y023442D02*
X005031Y023442D01*
X005031Y023529D02*
X005293Y023529D01*
X005293Y023616D02*
X005031Y023616D01*
X005631Y023355D02*
X005893Y023355D01*
X005631Y023355D02*
X005631Y023617D01*
X005893Y023617D01*
X005893Y023355D01*
X005893Y023442D02*
X005631Y023442D01*
X005631Y023529D02*
X005893Y023529D01*
X005893Y023616D02*
X005631Y023616D01*
X005293Y022042D02*
X005031Y022042D01*
X005293Y022042D02*
X005293Y021780D01*
X005031Y021780D01*
X005031Y022042D01*
X005031Y021867D02*
X005293Y021867D01*
X005293Y021954D02*
X005031Y021954D01*
X005031Y022041D02*
X005293Y022041D01*
X005293Y021255D02*
X005031Y021255D01*
X005293Y021255D02*
X005293Y020993D01*
X005031Y020993D01*
X005031Y021255D01*
X005031Y021080D02*
X005293Y021080D01*
X005293Y021167D02*
X005031Y021167D01*
X005031Y021254D02*
X005293Y021254D01*
X010072Y016258D02*
X010334Y016258D01*
X010072Y016258D02*
X010072Y016520D01*
X010334Y016520D01*
X010334Y016258D01*
X010334Y016345D02*
X010072Y016345D01*
X010072Y016432D02*
X010334Y016432D01*
X010334Y016519D02*
X010072Y016519D01*
X010063Y015926D02*
X010325Y015926D01*
X010325Y015664D01*
X010063Y015664D01*
X010063Y015926D01*
X010063Y015751D02*
X010325Y015751D01*
X010325Y015838D02*
X010063Y015838D01*
X010063Y015925D02*
X010325Y015925D01*
X010331Y015319D02*
X010069Y015319D01*
X010331Y015319D02*
X010331Y015057D01*
X010069Y015057D01*
X010069Y015319D01*
X010069Y015144D02*
X010331Y015144D01*
X010331Y015231D02*
X010069Y015231D01*
X010069Y015318D02*
X010331Y015318D01*
X010331Y014463D02*
X010069Y014463D01*
X010069Y014725D01*
X010331Y014725D01*
X010331Y014463D01*
X010331Y014550D02*
X010069Y014550D01*
X010069Y014637D02*
X010331Y014637D01*
X010331Y014724D02*
X010069Y014724D01*
X004563Y014826D02*
X004563Y014564D01*
X004563Y014826D02*
X004825Y014826D01*
X004825Y014564D01*
X004563Y014564D01*
X004563Y014651D02*
X004825Y014651D01*
X004825Y014738D02*
X004563Y014738D01*
X004563Y014825D02*
X004825Y014825D01*
X004563Y014226D02*
X004563Y013964D01*
X004563Y014226D02*
X004825Y014226D01*
X004825Y013964D01*
X004563Y013964D01*
X004563Y014051D02*
X004825Y014051D01*
X004825Y014138D02*
X004563Y014138D01*
X004563Y014225D02*
X004825Y014225D01*
X009437Y005573D02*
X009699Y005573D01*
X009699Y005311D01*
X009437Y005311D01*
X009437Y005573D01*
X009437Y005398D02*
X009699Y005398D01*
X009699Y005485D02*
X009437Y005485D01*
X009437Y005572D02*
X009699Y005572D01*
X010037Y005573D02*
X010299Y005573D01*
X010299Y005311D01*
X010037Y005311D01*
X010037Y005573D01*
X010037Y005398D02*
X010299Y005398D01*
X010299Y005485D02*
X010037Y005485D01*
X010037Y005572D02*
X010299Y005572D01*
X010293Y004730D02*
X010031Y004730D01*
X010031Y004992D01*
X010293Y004992D01*
X010293Y004730D01*
X010293Y004817D02*
X010031Y004817D01*
X010031Y004904D02*
X010293Y004904D01*
X010293Y004991D02*
X010031Y004991D01*
X009693Y004730D02*
X009431Y004730D01*
X009431Y004992D01*
X009693Y004992D01*
X009693Y004730D01*
X009693Y004817D02*
X009431Y004817D01*
X009431Y004904D02*
X009693Y004904D01*
X009693Y004991D02*
X009431Y004991D01*
X009431Y004142D02*
X009693Y004142D01*
X009431Y004142D02*
X009431Y004404D01*
X009693Y004404D01*
X009693Y004142D01*
X009693Y004229D02*
X009431Y004229D01*
X009431Y004316D02*
X009693Y004316D01*
X009693Y004403D02*
X009431Y004403D01*
X009424Y003541D02*
X009686Y003541D01*
X009424Y003541D02*
X009424Y003803D01*
X009686Y003803D01*
X009686Y003541D01*
X009686Y003628D02*
X009424Y003628D01*
X009424Y003715D02*
X009686Y003715D01*
X009686Y003802D02*
X009424Y003802D01*
X010024Y003541D02*
X010286Y003541D01*
X010024Y003541D02*
X010024Y003803D01*
X010286Y003803D01*
X010286Y003541D01*
X010286Y003628D02*
X010024Y003628D01*
X010024Y003715D02*
X010286Y003715D01*
X010286Y003802D02*
X010024Y003802D01*
X010031Y004142D02*
X010293Y004142D01*
X010031Y004142D02*
X010031Y004404D01*
X010293Y004404D01*
X010293Y004142D01*
X010293Y004229D02*
X010031Y004229D01*
X010031Y004316D02*
X010293Y004316D01*
X010293Y004403D02*
X010031Y004403D01*
X022175Y005064D02*
X022175Y005326D01*
X022175Y005064D02*
X021913Y005064D01*
X021913Y005326D01*
X022175Y005326D01*
X022175Y005151D02*
X021913Y005151D01*
X021913Y005238D02*
X022175Y005238D01*
X022175Y005325D02*
X021913Y005325D01*
X022175Y005664D02*
X022175Y005926D01*
X022175Y005664D02*
X021913Y005664D01*
X021913Y005926D01*
X022175Y005926D01*
X022175Y005751D02*
X021913Y005751D01*
X021913Y005838D02*
X022175Y005838D01*
X022175Y005925D02*
X021913Y005925D01*
X022775Y005926D02*
X022775Y005664D01*
X022513Y005664D01*
X022513Y005926D01*
X022775Y005926D01*
X022775Y005751D02*
X022513Y005751D01*
X022513Y005838D02*
X022775Y005838D01*
X022775Y005925D02*
X022513Y005925D01*
X022775Y005326D02*
X022775Y005064D01*
X022513Y005064D01*
X022513Y005326D01*
X022775Y005326D01*
X022775Y005151D02*
X022513Y005151D01*
X022513Y005238D02*
X022775Y005238D01*
X022775Y005325D02*
X022513Y005325D01*
X022646Y019390D02*
X022384Y019390D01*
X022384Y019652D01*
X022646Y019652D01*
X022646Y019390D01*
X022646Y019477D02*
X022384Y019477D01*
X022384Y019564D02*
X022646Y019564D01*
X022646Y019651D02*
X022384Y019651D01*
X022046Y019390D02*
X021784Y019390D01*
X021784Y019652D01*
X022046Y019652D01*
X022046Y019390D01*
X022046Y019477D02*
X021784Y019477D01*
X021784Y019564D02*
X022046Y019564D01*
X022046Y019651D02*
X021784Y019651D01*
X021792Y020002D02*
X022054Y020002D01*
X021792Y020002D02*
X021792Y020264D01*
X022054Y020264D01*
X022054Y020002D01*
X022054Y020089D02*
X021792Y020089D01*
X021792Y020176D02*
X022054Y020176D01*
X022054Y020263D02*
X021792Y020263D01*
X022392Y020002D02*
X022654Y020002D01*
X022392Y020002D02*
X022392Y020264D01*
X022654Y020264D01*
X022654Y020002D01*
X022654Y020089D02*
X022392Y020089D01*
X022392Y020176D02*
X022654Y020176D01*
X022654Y020263D02*
X022392Y020263D01*
X020533Y021945D02*
X020271Y021945D01*
X020533Y021945D02*
X020533Y021683D01*
X020271Y021683D01*
X020271Y021945D01*
X020271Y021770D02*
X020533Y021770D01*
X020533Y021857D02*
X020271Y021857D01*
X020271Y021944D02*
X020533Y021944D01*
X019933Y021945D02*
X019671Y021945D01*
X019933Y021945D02*
X019933Y021683D01*
X019671Y021683D01*
X019671Y021945D01*
X019671Y021770D02*
X019933Y021770D01*
X019933Y021857D02*
X019671Y021857D01*
X019671Y021944D02*
X019933Y021944D01*
X018423Y020666D02*
X018423Y020404D01*
X018161Y020404D01*
X018161Y020666D01*
X018423Y020666D01*
X018423Y020491D02*
X018161Y020491D01*
X018161Y020578D02*
X018423Y020578D01*
X018423Y020665D02*
X018161Y020665D01*
X018423Y020066D02*
X018423Y019804D01*
X018161Y019804D01*
X018161Y020066D01*
X018423Y020066D01*
X018423Y019891D02*
X018161Y019891D01*
X018161Y019978D02*
X018423Y019978D01*
X018423Y020065D02*
X018161Y020065D01*
D14*
X007038Y002211D03*
X006014Y002195D03*
X005050Y002211D03*
D15*
X005081Y012152D03*
X006042Y012160D03*
X006971Y012160D03*
D16*
X019080Y019594D03*
X019080Y020094D03*
X019080Y020594D03*
X019080Y021094D03*
X021180Y021094D03*
X021180Y020594D03*
X021180Y020094D03*
X021180Y019594D03*
D17*
X022414Y015593D03*
D18*
X019914Y015593D03*
D19*
X017619Y014495D02*
X017619Y014195D01*
X017169Y014195D01*
X017169Y014495D01*
X017619Y014495D01*
X017619Y014294D02*
X017169Y014294D01*
X017169Y014393D02*
X017619Y014393D01*
X017619Y014492D02*
X017169Y014492D01*
X017619Y013795D02*
X017619Y013495D01*
X017169Y013495D01*
X017169Y013795D01*
X017619Y013795D01*
X017619Y013594D02*
X017169Y013594D01*
X017169Y013693D02*
X017619Y013693D01*
X017619Y013792D02*
X017169Y013792D01*
X017367Y013618D02*
X017394Y013645D01*
X017367Y013618D02*
X016555Y013618D01*
X016555Y013605D01*
X016194Y013245D01*
X010844Y013245D01*
X010744Y013145D01*
X010740Y013141D01*
X010604Y013141D01*
X010744Y013145D02*
X010758Y013145D01*
X010694Y013445D02*
X010594Y013545D01*
X010594Y013879D01*
X010604Y013889D01*
X010750Y013889D01*
X010694Y013445D02*
X014744Y013445D01*
X014914Y013615D01*
X014914Y013618D01*
X015717Y013618D01*
X015744Y013645D01*
X015969Y013795D02*
X015969Y013495D01*
X015519Y013495D01*
X015519Y013795D01*
X015969Y013795D01*
X015969Y013594D02*
X015519Y013594D01*
X015519Y013693D02*
X015969Y013693D01*
X015969Y013792D02*
X015519Y013792D01*
X015969Y014195D02*
X015969Y014495D01*
X015969Y014195D02*
X015519Y014195D01*
X015519Y014495D01*
X015969Y014495D01*
X015969Y014294D02*
X015519Y014294D01*
X015519Y014393D02*
X015969Y014393D01*
X015969Y014492D02*
X015519Y014492D01*
X015994Y016795D02*
X016230Y017031D01*
X016230Y017155D01*
X019080Y020594D02*
X019080Y020595D01*
X019644Y020595D01*
X019802Y020753D01*
X019802Y021814D01*
X020402Y021814D02*
X020402Y020737D01*
X020544Y020595D01*
X021180Y020595D01*
X021180Y020594D01*
X018848Y021562D02*
X018548Y021562D01*
X018548Y022012D01*
X018848Y022012D01*
X018848Y021562D01*
X018848Y021661D02*
X018548Y021661D01*
X018548Y021760D02*
X018848Y021760D01*
X018848Y021859D02*
X018548Y021859D01*
X018548Y021958D02*
X018848Y021958D01*
X018148Y021562D02*
X017848Y021562D01*
X017848Y022012D01*
X018148Y022012D01*
X018148Y021562D01*
X018148Y021661D02*
X017848Y021661D01*
X017848Y021760D02*
X018148Y021760D01*
X018148Y021859D02*
X017848Y021859D01*
X017848Y021958D02*
X018148Y021958D01*
X022823Y014433D02*
X022823Y014133D01*
X022373Y014133D01*
X022373Y014433D01*
X022823Y014433D01*
X022823Y014232D02*
X022373Y014232D01*
X022373Y014331D02*
X022823Y014331D01*
X022823Y014430D02*
X022373Y014430D01*
X022823Y013733D02*
X022823Y013433D01*
X022373Y013433D01*
X022373Y013733D01*
X022823Y013733D01*
X022823Y013532D02*
X022373Y013532D01*
X022373Y013631D02*
X022823Y013631D01*
X022823Y013730D02*
X022373Y013730D01*
X021610Y008185D02*
X021453Y008029D01*
X020530Y008029D01*
X020530Y007242D02*
X021447Y007242D01*
X021644Y007045D01*
X021569Y005945D02*
X021569Y005645D01*
X021119Y005645D01*
X021119Y005945D01*
X021569Y005945D01*
X021569Y005744D02*
X021119Y005744D01*
X021119Y005843D02*
X021569Y005843D01*
X021569Y005942D02*
X021119Y005942D01*
X021569Y005245D02*
X021569Y004945D01*
X021119Y004945D01*
X021119Y005245D01*
X021569Y005245D01*
X021569Y005044D02*
X021119Y005044D01*
X021119Y005143D02*
X021569Y005143D01*
X021569Y005242D02*
X021119Y005242D01*
X009568Y005442D02*
X009565Y005445D01*
X008188Y008301D02*
X007869Y008620D01*
X001268Y008620D01*
X001168Y009620D02*
X007538Y009620D01*
X008154Y010235D01*
X005081Y012152D02*
X005074Y012145D01*
X003694Y012145D01*
X005446Y014802D02*
X005587Y014802D01*
X005644Y014745D01*
X006194Y014745D01*
X005468Y015095D02*
X005446Y015117D01*
X005446Y015747D02*
X004997Y015747D01*
X004994Y015745D01*
X002879Y017347D02*
X002140Y018086D01*
X002140Y018537D01*
X002132Y018545D01*
X001494Y018545D01*
X005444Y020745D02*
X005444Y020805D01*
X005762Y021124D01*
X005794Y020695D02*
X005794Y020368D01*
X005762Y020336D01*
X008994Y019595D02*
X009344Y019595D01*
X009603Y016389D02*
X009294Y016079D01*
X009244Y016029D01*
X009244Y014895D01*
X009152Y014802D01*
X008826Y014802D01*
X008368Y014345D02*
X008238Y014215D01*
X008368Y014345D02*
X009294Y014345D01*
X009543Y014594D01*
X009600Y014594D01*
X009600Y015188D01*
D20*
X020175Y017842D03*
X022419Y017842D03*
D21*
X018482Y018401D03*
X018482Y016661D03*
D22*
X021537Y008110D02*
X022287Y008110D01*
X021537Y008110D02*
X021537Y008260D01*
X022287Y008260D01*
X022287Y008110D01*
X022287Y008259D02*
X021537Y008259D01*
X021537Y007010D02*
X022287Y007010D01*
X021537Y007010D02*
X021537Y007160D01*
X022287Y007160D01*
X022287Y007010D01*
X022287Y007159D02*
X021537Y007159D01*
D23*
X021412Y007735D02*
X021212Y007735D01*
X021412Y007735D02*
X021412Y007535D01*
X021212Y007535D01*
X021212Y007735D01*
X021212Y007734D02*
X021412Y007734D01*
X022412Y007735D02*
X022612Y007735D01*
X022612Y007535D01*
X022412Y007535D01*
X022412Y007735D01*
X022412Y007734D02*
X022612Y007734D01*
X017994Y014245D02*
X017994Y015180D01*
X017495Y015679D01*
X017694Y015878D01*
X017694Y018145D01*
X017070Y018769D01*
X016466Y018769D01*
X011444Y014245D02*
X010194Y014245D01*
X010194Y014588D01*
X010200Y014594D01*
X010194Y014245D02*
X010094Y014145D01*
X010094Y013245D01*
X009990Y013141D01*
X009998Y013141D01*
X010094Y013045D01*
X010094Y013245D01*
X009990Y013141D02*
X009580Y013141D01*
X009577Y013145D01*
X008094Y013145D01*
X007894Y013345D01*
X005644Y013345D01*
X005794Y013745D02*
X005444Y014095D01*
X004694Y014095D01*
X004044Y014095D02*
X003944Y013995D01*
X003994Y013995D01*
X005794Y013745D02*
X006194Y013745D01*
X006494Y013745D01*
X006348Y013891D01*
X006348Y013899D01*
X006194Y013745D01*
X006348Y013899D02*
X006348Y014215D01*
X006494Y013745D02*
X006894Y013745D01*
X006978Y013829D01*
X006978Y014215D01*
X010094Y013045D02*
X010094Y012845D01*
X010294Y012645D01*
X010294Y012595D01*
X009794Y007645D02*
X009794Y007595D01*
X009835Y007635D01*
X011081Y007635D01*
D24*
X008238Y014215D03*
X007923Y014215D03*
X007608Y014215D03*
X007293Y014215D03*
X006978Y014215D03*
X006663Y014215D03*
X006348Y014215D03*
X006033Y014215D03*
X006033Y017595D03*
X006348Y017595D03*
X006663Y017595D03*
X006978Y017595D03*
X007293Y017595D03*
X007608Y017595D03*
X007923Y017595D03*
X008238Y017595D03*
D25*
X008826Y017007D03*
X008826Y016692D03*
X008826Y016377D03*
X008826Y016062D03*
X008826Y015747D03*
X008826Y015432D03*
X008826Y015117D03*
X008826Y014802D03*
X005446Y014802D03*
X005446Y015117D03*
X005446Y015432D03*
X005446Y015747D03*
X005446Y016062D03*
X005446Y016377D03*
X005446Y016692D03*
X005446Y017007D03*
D26*
X002979Y016347D03*
X001979Y016347D03*
X001879Y015347D03*
X002879Y015347D03*
X002879Y017347D03*
X001879Y017347D03*
D27*
X013677Y016926D03*
X013677Y019426D03*
D28*
X011959Y023182D03*
X007427Y023182D03*
D29*
X007597Y020701D03*
X007203Y020701D03*
X015891Y020701D03*
X016284Y020701D03*
D30*
X015480Y018776D03*
D31*
X016466Y018769D03*
D32*
X016230Y017155D03*
D33*
X015302Y023045D03*
X013569Y023045D03*
X017287Y023047D03*
X019019Y023047D03*
D34*
X010604Y013889D03*
X010604Y013141D03*
X009580Y013141D03*
X009580Y013515D03*
X009580Y013889D03*
D35*
X001268Y012620D03*
X001168Y011620D03*
X001268Y010620D03*
X001168Y009620D03*
X001268Y008620D03*
X001168Y007620D03*
D36*
X008644Y018795D03*
X009344Y018795D03*
X008994Y019595D03*
X002794Y020345D03*
X002094Y020345D03*
X001544Y020345D03*
X000844Y020345D03*
X001194Y021145D03*
X002444Y021145D03*
X016144Y014995D03*
X016844Y014995D03*
X016494Y015795D03*
D37*
X009794Y008645D03*
X009794Y007645D03*
X003994Y013995D03*
X003994Y014995D03*
D38*
X004081Y020198D02*
X004307Y020198D01*
X004081Y020198D02*
X004081Y020474D01*
X004307Y020474D01*
X004307Y020198D01*
X004307Y020272D02*
X004081Y020272D01*
X004081Y020346D02*
X004307Y020346D01*
X004307Y020420D02*
X004081Y020420D01*
X003707Y020198D02*
X003481Y020198D01*
X003481Y020474D01*
X003707Y020474D01*
X003707Y020198D01*
X003707Y020272D02*
X003481Y020272D01*
X003481Y020346D02*
X003707Y020346D01*
X003707Y020420D02*
X003481Y020420D01*
X003481Y020986D02*
X003707Y020986D01*
X003481Y020986D02*
X003481Y021262D01*
X003707Y021262D01*
X003707Y020986D01*
X003707Y021060D02*
X003481Y021060D01*
X003481Y021134D02*
X003707Y021134D01*
X003707Y021208D02*
X003481Y021208D01*
X003481Y021773D02*
X003707Y021773D01*
X003481Y021773D02*
X003481Y022049D01*
X003707Y022049D01*
X003707Y021773D01*
X003707Y021847D02*
X003481Y021847D01*
X003481Y021921D02*
X003707Y021921D01*
X003707Y021995D02*
X003481Y021995D01*
X003481Y022560D02*
X003707Y022560D01*
X003481Y022560D02*
X003481Y022836D01*
X003707Y022836D01*
X003707Y022560D01*
X003707Y022634D02*
X003481Y022634D01*
X003481Y022708D02*
X003707Y022708D01*
X003707Y022782D02*
X003481Y022782D01*
X003481Y023348D02*
X003707Y023348D01*
X003481Y023348D02*
X003481Y023624D01*
X003707Y023624D01*
X003707Y023348D01*
X003707Y023422D02*
X003481Y023422D01*
X003481Y023496D02*
X003707Y023496D01*
X003707Y023570D02*
X003481Y023570D01*
X004081Y023348D02*
X004307Y023348D01*
X004081Y023348D02*
X004081Y023624D01*
X004307Y023624D01*
X004307Y023348D01*
X004307Y023422D02*
X004081Y023422D01*
X004081Y023496D02*
X004307Y023496D01*
X004307Y023570D02*
X004081Y023570D01*
X004081Y022560D02*
X004307Y022560D01*
X004081Y022560D02*
X004081Y022836D01*
X004307Y022836D01*
X004307Y022560D01*
X004307Y022634D02*
X004081Y022634D01*
X004081Y022708D02*
X004307Y022708D01*
X004307Y022782D02*
X004081Y022782D01*
X004081Y021773D02*
X004307Y021773D01*
X004081Y021773D02*
X004081Y022049D01*
X004307Y022049D01*
X004307Y021773D01*
X004307Y021847D02*
X004081Y021847D01*
X004081Y021921D02*
X004307Y021921D01*
X004307Y021995D02*
X004081Y021995D01*
X004081Y020986D02*
X004307Y020986D01*
X004081Y020986D02*
X004081Y021262D01*
X004307Y021262D01*
X004307Y020986D01*
X004307Y021060D02*
X004081Y021060D01*
X004081Y021134D02*
X004307Y021134D01*
X004307Y021208D02*
X004081Y021208D01*
D39*
X011394Y021545D03*
X013378Y021545D03*
D40*
X005694Y019195D03*
X003994Y019195D03*
D41*
X003894Y018545D03*
X002744Y018195D03*
X003194Y019795D03*
X004194Y019995D03*
X004494Y021145D03*
X005444Y020745D03*
X005794Y020695D03*
X005794Y022245D03*
X003344Y021895D03*
X005744Y018545D03*
X006394Y018845D03*
X006994Y018845D03*
X006844Y017145D03*
X007244Y017145D03*
X007394Y016545D03*
X007044Y016295D03*
X007394Y016045D03*
X007044Y015795D03*
X007394Y015545D03*
X007394Y015145D03*
X007294Y014745D03*
X006644Y015045D03*
X006194Y014745D03*
X005944Y015045D03*
X004994Y015745D03*
X004794Y016095D03*
X003494Y014945D03*
X003194Y014695D03*
X003694Y012145D03*
X005644Y013345D03*
X007194Y012345D03*
X008194Y013745D03*
X008944Y013845D03*
X007894Y014795D03*
X008944Y012545D03*
X009144Y011295D03*
X009644Y011295D03*
X009644Y010545D03*
X009644Y009795D03*
X009644Y009045D03*
X008188Y008301D03*
X009644Y007045D03*
X009644Y006695D03*
X009694Y006095D03*
X010644Y003545D03*
X010644Y003045D03*
X011144Y003045D03*
X011144Y003545D03*
X009544Y003345D03*
X007044Y003045D03*
X005994Y003045D03*
X004994Y003045D03*
X008154Y010235D03*
X010894Y011295D03*
X011294Y011295D03*
X011294Y011795D03*
X011444Y014245D03*
X011644Y014945D03*
X012044Y014945D03*
X012044Y015345D03*
X011644Y015345D03*
X010844Y015045D03*
X010644Y015545D03*
X011894Y017045D03*
X011894Y017795D03*
X011894Y018545D03*
X011144Y018545D03*
X011144Y019295D03*
X011144Y020045D03*
X011894Y020045D03*
X011894Y019295D03*
X010394Y019295D03*
X010394Y020045D03*
X009344Y019595D03*
X010394Y018545D03*
X009094Y017495D03*
X013044Y015995D03*
X013044Y015370D03*
X013644Y015370D03*
X014494Y015245D03*
X014494Y014895D03*
X014594Y015695D03*
X015294Y015695D03*
X016794Y015345D03*
X016844Y015795D03*
X018144Y016045D03*
X018144Y015545D03*
X018644Y015545D03*
X018644Y016045D03*
X019144Y016045D03*
X019144Y015545D03*
X019144Y015045D03*
X018644Y015045D03*
X017994Y014245D03*
X018644Y013545D03*
X018019Y012970D03*
X019144Y013545D03*
X019644Y013545D03*
X020144Y013545D03*
X020144Y013045D03*
X020644Y013045D03*
X020644Y012595D03*
X020644Y013545D03*
X021094Y014645D03*
X021344Y014895D03*
X021594Y014645D03*
X021144Y015795D03*
X020644Y015795D03*
X020644Y016295D03*
X021144Y016295D03*
X021144Y016795D03*
X020644Y016795D03*
X020144Y016795D03*
X019644Y016795D03*
X019144Y016795D03*
X019094Y019095D03*
X018394Y019095D03*
X018394Y019645D03*
X017744Y019645D03*
X017744Y020145D03*
X017744Y020695D03*
X017744Y021195D03*
X019394Y022295D03*
X019894Y022295D03*
X019894Y022795D03*
X019894Y023295D03*
X019894Y023795D03*
X019394Y023795D03*
X018894Y023795D03*
X018394Y023795D03*
X017894Y023795D03*
X017394Y023795D03*
X016894Y023795D03*
X016394Y023795D03*
X015894Y023795D03*
X015394Y023795D03*
X014894Y023795D03*
X014394Y023795D03*
X013894Y023795D03*
X013394Y023795D03*
X014394Y023295D03*
X013394Y022345D03*
X015194Y018795D03*
X017744Y019095D03*
X020894Y021795D03*
X020894Y022295D03*
X020394Y022295D03*
X020394Y022795D03*
X020394Y023295D03*
X020894Y022795D03*
X021394Y022295D03*
X021394Y021795D03*
X021894Y021795D03*
X021894Y021295D03*
X021894Y020795D03*
X022394Y020795D03*
X022394Y021295D03*
X022894Y020795D03*
X022944Y020145D03*
X022944Y019545D03*
X022844Y018945D03*
X022644Y013045D03*
X023119Y013045D03*
X023119Y012545D03*
X022644Y012545D03*
X022144Y012545D03*
X022144Y013045D03*
X022144Y009595D03*
X022144Y009195D03*
X022144Y008795D03*
X021644Y008795D03*
X021644Y009195D03*
X021644Y009595D03*
X021144Y009595D03*
X021144Y009195D03*
X021144Y008795D03*
X022644Y008795D03*
X022644Y009195D03*
X022644Y009595D03*
X023094Y008795D03*
X021744Y006395D03*
X021744Y005995D03*
X022094Y006195D03*
X022144Y004545D03*
X021644Y004545D03*
X021144Y004545D03*
X021144Y004045D03*
X020694Y004095D03*
X021644Y004045D03*
X022144Y004045D03*
X022644Y004045D03*
X022644Y004545D03*
X017144Y002045D03*
X016644Y002045D03*
X016144Y002045D03*
X015644Y002045D03*
X015144Y002045D03*
X015144Y001545D03*
X015644Y001545D03*
X016144Y001545D03*
X016644Y001545D03*
X017144Y001545D03*
X014644Y001545D03*
X014144Y001545D03*
X014144Y002045D03*
X014644Y002045D03*
X015394Y012945D03*
X015794Y012945D03*
X016694Y013220D03*
D42*
X017394Y014345D02*
X016844Y014895D01*
X016844Y014995D01*
X018292Y020535D02*
X018352Y020594D01*
X019080Y020594D01*
X020530Y008423D02*
X021441Y008423D01*
X021619Y008245D01*
X021619Y008195D01*
X021610Y008185D01*
X021912Y008185D01*
X021644Y007045D02*
X021447Y006848D01*
X020530Y006848D01*
X003594Y021911D02*
X003578Y021895D01*
X003344Y021895D01*
X002740Y018537D02*
X002740Y018199D01*
X002744Y018195D01*
D43*
X002236Y002301D02*
X004674Y002301D01*
X004674Y002379D02*
X002157Y002379D01*
X002079Y002458D02*
X004674Y002458D01*
X004674Y002536D02*
X002000Y002536D01*
X001922Y002615D02*
X004674Y002615D01*
X004674Y002693D02*
X001843Y002693D01*
X001765Y002772D02*
X004743Y002772D01*
X004756Y002784D02*
X004674Y002702D01*
X004674Y001720D01*
X004756Y001638D01*
X005344Y001638D01*
X005426Y001720D01*
X005426Y002702D01*
X005344Y002784D01*
X005230Y002784D01*
X005230Y002884D01*
X005232Y002886D01*
X005274Y002989D01*
X005274Y003070D01*
X006885Y004681D01*
X009247Y004681D01*
X009247Y004653D01*
X009333Y004567D01*
X009247Y004480D01*
X009247Y004453D01*
X007148Y004453D01*
X006020Y003325D01*
X005939Y003325D01*
X005836Y003282D01*
X005757Y003203D01*
X005714Y003101D01*
X005714Y002989D01*
X005757Y002886D01*
X005834Y002809D01*
X005834Y002768D01*
X005720Y002768D01*
X005638Y002686D01*
X005638Y001704D01*
X005720Y001622D01*
X006309Y001622D01*
X006391Y001704D01*
X006391Y002686D01*
X006309Y002768D01*
X006194Y002768D01*
X006194Y002849D01*
X006232Y002886D01*
X006274Y002989D01*
X006274Y003070D01*
X007297Y004093D01*
X009247Y004093D01*
X009247Y004065D01*
X009337Y003976D01*
X009253Y003892D01*
X007580Y003892D01*
X007013Y003325D01*
X006989Y003325D01*
X006886Y003282D01*
X006807Y003203D01*
X006764Y003101D01*
X006764Y002989D01*
X006807Y002886D01*
X006818Y002875D01*
X006818Y002784D01*
X006744Y002784D01*
X006662Y002702D01*
X006662Y001720D01*
X006744Y001638D01*
X007332Y001638D01*
X007414Y001720D01*
X007414Y002702D01*
X007332Y002784D01*
X007258Y002784D01*
X007258Y002863D01*
X007282Y002886D01*
X007324Y002989D01*
X007324Y003014D01*
X007762Y003452D01*
X009253Y003452D01*
X009276Y003429D01*
X009264Y003401D01*
X009264Y003289D01*
X009307Y003186D01*
X009386Y003107D01*
X009489Y003065D01*
X009600Y003065D01*
X009703Y003107D01*
X009782Y003186D01*
X009824Y003289D01*
X009824Y003401D01*
X009819Y003413D01*
X009870Y003464D01*
X009870Y003879D01*
X009781Y003969D01*
X009862Y004050D01*
X009955Y003958D01*
X010369Y003958D01*
X010477Y004065D01*
X010477Y004333D01*
X010561Y004417D01*
X010561Y004298D01*
X010643Y004216D01*
X011519Y004216D01*
X011601Y004298D01*
X011601Y004674D01*
X011592Y004683D01*
X011601Y004691D01*
X011601Y005067D01*
X011592Y005076D01*
X011601Y005085D01*
X011601Y005461D01*
X011592Y005470D01*
X011601Y005479D01*
X011601Y005855D01*
X011592Y005864D01*
X011601Y005873D01*
X011601Y006249D01*
X011519Y006331D01*
X010643Y006331D01*
X010593Y006281D01*
X009904Y006281D01*
X009853Y006332D01*
X009750Y006375D01*
X009639Y006375D01*
X009536Y006332D01*
X009457Y006253D01*
X009414Y006151D01*
X009414Y006039D01*
X009457Y005936D01*
X009536Y005857D01*
X009639Y005815D01*
X009750Y005815D01*
X009812Y005841D01*
X010313Y005841D01*
X010229Y005757D01*
X009961Y005757D01*
X009868Y005664D01*
X009776Y005757D01*
X009361Y005757D01*
X009324Y005720D01*
X009324Y010208D01*
X007913Y011619D01*
X007807Y011725D01*
X006418Y011725D01*
X006418Y012555D01*
X007553Y012555D01*
X008306Y011802D01*
X008402Y011707D01*
X008527Y011655D01*
X010712Y011655D01*
X010837Y011707D01*
X011337Y012207D01*
X011432Y012302D01*
X011484Y012427D01*
X011484Y012862D01*
X011432Y012987D01*
X011365Y013055D01*
X015137Y013055D01*
X015114Y013001D01*
X015114Y012889D01*
X015118Y012880D01*
X014830Y012880D01*
X014821Y012871D01*
X014813Y012880D01*
X014437Y012880D01*
X014428Y012871D01*
X014419Y012880D01*
X014043Y012880D01*
X014034Y012871D01*
X014025Y012880D01*
X013649Y012880D01*
X013640Y012871D01*
X013631Y012880D01*
X013255Y012880D01*
X013247Y012871D01*
X013238Y012880D01*
X012862Y012880D01*
X012780Y012798D01*
X012780Y011922D01*
X012862Y011840D01*
X013238Y011840D01*
X013247Y011849D01*
X013255Y011840D01*
X013631Y011840D01*
X013640Y011849D01*
X013649Y011840D01*
X014025Y011840D01*
X014034Y011849D01*
X014043Y011840D01*
X014419Y011840D01*
X014428Y011849D01*
X014437Y011840D01*
X014813Y011840D01*
X014821Y011849D01*
X014830Y011840D01*
X015206Y011840D01*
X015215Y011849D01*
X015224Y011840D01*
X015600Y011840D01*
X015609Y011849D01*
X015618Y011840D01*
X015994Y011840D01*
X016002Y011849D01*
X016011Y011840D01*
X016387Y011840D01*
X016396Y011849D01*
X016405Y011840D01*
X016781Y011840D01*
X016790Y011849D01*
X016799Y011840D01*
X017175Y011840D01*
X017184Y011849D01*
X017192Y011840D01*
X017568Y011840D01*
X017577Y011849D01*
X017586Y011840D01*
X017962Y011840D01*
X017971Y011849D01*
X017980Y011840D01*
X018356Y011840D01*
X018365Y011849D01*
X018374Y011840D01*
X018750Y011840D01*
X018758Y011849D01*
X018767Y011840D01*
X019143Y011840D01*
X019225Y011922D01*
X019225Y012798D01*
X019149Y012874D01*
X019149Y012894D01*
X019044Y013000D01*
X019004Y013040D01*
X019300Y013040D01*
X020914Y011425D01*
X020914Y011055D01*
X020092Y011055D01*
X020010Y010973D01*
X020010Y010597D01*
X020019Y010588D01*
X020010Y010579D01*
X020010Y010203D01*
X020019Y010194D01*
X020010Y010186D01*
X020010Y009810D01*
X020092Y009728D01*
X020968Y009728D01*
X021050Y009810D01*
X021050Y009818D01*
X021072Y009818D01*
X021169Y009915D01*
X021274Y010020D01*
X021274Y011574D01*
X021169Y011680D01*
X019449Y013400D01*
X018205Y013400D01*
X018749Y013943D01*
X020893Y013943D01*
X020896Y013940D01*
X020919Y013938D01*
X020939Y013925D01*
X020950Y013927D01*
X020953Y013925D01*
X020984Y013925D01*
X021024Y013911D01*
X021049Y013923D01*
X021110Y013916D01*
X021121Y013925D01*
X022767Y013925D01*
X022778Y013916D01*
X022839Y013923D01*
X022864Y013911D01*
X022904Y013925D01*
X022935Y013925D01*
X022938Y013927D01*
X022949Y013925D01*
X022969Y013938D01*
X022993Y013940D01*
X023007Y013958D01*
X023029Y013958D01*
X023046Y013974D01*
X023068Y013982D01*
X023078Y014002D01*
X023099Y014007D01*
X023112Y014027D01*
X023132Y014040D01*
X023137Y014061D01*
X023157Y014071D01*
X023165Y014093D01*
X023181Y014110D01*
X023181Y014132D01*
X023199Y014146D01*
X023202Y014170D01*
X023214Y014190D01*
X023212Y014201D01*
X023214Y014204D01*
X023214Y014235D01*
X023228Y014275D01*
X023216Y014300D01*
X023223Y014361D01*
X023214Y014372D01*
X023214Y018268D01*
X023223Y018279D01*
X023216Y018340D01*
X023228Y018365D01*
X023214Y018405D01*
X023214Y018436D01*
X023212Y018439D01*
X023214Y018450D01*
X023202Y018470D01*
X023199Y018493D01*
X023181Y018507D01*
X023181Y018529D01*
X023165Y018546D01*
X023157Y018569D01*
X023137Y018578D01*
X023132Y018600D01*
X023112Y018612D01*
X023099Y018633D01*
X023078Y018637D01*
X023068Y018658D01*
X023046Y018665D01*
X023029Y018682D01*
X023007Y018682D01*
X022993Y018699D01*
X022969Y018702D01*
X022949Y018715D01*
X022938Y018712D01*
X022935Y018715D01*
X022904Y018715D01*
X022864Y018729D01*
X022839Y018717D01*
X022778Y018724D01*
X022767Y018715D01*
X022715Y018715D01*
X022715Y019206D01*
X022722Y019206D01*
X022830Y019314D01*
X022830Y019729D01*
X022722Y019836D01*
X022308Y019836D01*
X022215Y019744D01*
X022136Y019823D01*
X022238Y019925D01*
X022238Y020340D01*
X022130Y020448D01*
X021716Y020448D01*
X021608Y020340D01*
X021608Y020289D01*
X021553Y020344D01*
X021620Y020411D01*
X021620Y020777D01*
X021553Y020844D01*
X021620Y020911D01*
X021620Y021277D01*
X021538Y021359D01*
X020822Y021359D01*
X020740Y021277D01*
X020740Y020911D01*
X020807Y020844D01*
X020747Y020785D01*
X020623Y020785D01*
X020592Y020815D01*
X020592Y021499D01*
X020610Y021499D01*
X020717Y021607D01*
X020717Y022022D01*
X020610Y022129D01*
X020195Y022129D01*
X020102Y022037D01*
X020010Y022129D01*
X019930Y022129D01*
X019870Y022154D01*
X019034Y022154D01*
X019034Y022354D01*
X019115Y022435D01*
X019549Y022435D01*
X019631Y022517D01*
X019631Y023578D01*
X019549Y023660D01*
X018489Y023660D01*
X018407Y023578D01*
X018407Y022688D01*
X018406Y022687D01*
X018354Y022562D01*
X018354Y021736D01*
X018004Y021386D01*
X017952Y021261D01*
X017952Y020467D01*
X017977Y020407D01*
X017977Y020327D01*
X018085Y020220D01*
X018164Y020220D01*
X018225Y020195D01*
X018360Y020195D01*
X018420Y020220D01*
X018500Y020220D01*
X018607Y020327D01*
X018607Y020334D01*
X018647Y020334D01*
X018647Y020317D01*
X018646Y020313D01*
X018644Y020311D01*
X018627Y020297D01*
X018626Y020281D01*
X018617Y020268D01*
X018621Y020251D01*
X018614Y020244D01*
X018614Y020223D01*
X018603Y020192D01*
X018613Y020172D01*
X018607Y020116D01*
X018614Y020107D01*
X018607Y020099D01*
X018613Y020043D01*
X018603Y020022D01*
X018614Y019992D01*
X018614Y019970D01*
X018621Y019964D01*
X018617Y019947D01*
X018626Y019933D01*
X018627Y019917D01*
X018644Y019904D01*
X018646Y019901D01*
X018647Y019898D01*
X018647Y019877D01*
X018658Y019865D01*
X018664Y019850D01*
X018683Y019841D01*
X018685Y019838D01*
X018687Y019836D01*
X018692Y019815D01*
X018706Y019806D01*
X018714Y019792D01*
X018735Y019788D01*
X018738Y019786D01*
X018740Y019784D01*
X018749Y019764D01*
X018765Y019759D01*
X018776Y019748D01*
X018797Y019748D01*
X018801Y019746D01*
X018803Y019745D01*
X018817Y019728D01*
X018833Y019726D01*
X018847Y019718D01*
X018863Y019721D01*
X018870Y019715D01*
X018891Y019715D01*
X018922Y019704D01*
X018942Y019714D01*
X018998Y019708D01*
X019007Y019715D01*
X019335Y019715D01*
X019358Y019713D01*
X019371Y019709D01*
X019383Y019702D01*
X019393Y019694D01*
X019402Y019683D01*
X019408Y019671D01*
X019412Y019658D01*
X019414Y019636D01*
X019414Y018312D01*
X019236Y018312D01*
X019162Y018386D01*
X019162Y018884D01*
X019080Y018966D01*
X017884Y018966D01*
X017802Y018884D01*
X017802Y018377D01*
X017599Y018579D01*
X017602Y018605D01*
X017594Y018615D01*
X017594Y021723D01*
X017601Y021732D01*
X017594Y021803D01*
X017605Y021822D01*
X017594Y021857D01*
X017594Y021878D01*
X017586Y021886D01*
X017585Y021894D01*
X017591Y021912D01*
X017582Y021928D01*
X017580Y021946D01*
X017566Y021957D01*
X017561Y021967D01*
X017557Y021979D01*
X017559Y021997D01*
X017548Y022011D01*
X017543Y022028D01*
X017527Y022036D01*
X017519Y022045D01*
X017514Y022056D01*
X017512Y022074D01*
X017498Y022085D01*
X017489Y022101D01*
X017472Y022106D01*
X017463Y022114D01*
X017456Y022123D01*
X017450Y022140D01*
X017435Y022149D01*
X017423Y022162D01*
X017405Y022164D01*
X017395Y022170D01*
X017386Y022177D01*
X017377Y022193D01*
X017360Y022198D01*
X017346Y022210D01*
X017328Y022208D01*
X017317Y022211D01*
X017307Y022217D01*
X017295Y022231D01*
X017277Y022233D01*
X017261Y022241D01*
X017244Y022236D01*
X017235Y022237D01*
X017227Y022245D01*
X017207Y022245D01*
X017172Y022255D01*
X017152Y022245D01*
X017081Y022252D01*
X017073Y022245D01*
X015500Y022245D01*
X015492Y022251D01*
X015419Y022245D01*
X015364Y022245D01*
X015354Y022251D01*
X015291Y022234D01*
X015251Y022230D01*
X015453Y022432D01*
X015832Y022432D01*
X015905Y022505D01*
X016686Y022505D01*
X016756Y022435D01*
X017817Y022435D01*
X017899Y022517D01*
X017899Y023578D01*
X017817Y023660D01*
X016756Y023660D01*
X016682Y023585D01*
X015905Y023585D01*
X015832Y023657D01*
X014771Y023657D01*
X014689Y023575D01*
X014689Y023196D01*
X013718Y022225D01*
X013314Y022225D01*
X013307Y022231D01*
X013241Y022225D01*
X013176Y022225D01*
X013169Y022229D01*
X013112Y022214D01*
X013054Y022208D01*
X013045Y022199D01*
X013033Y022203D01*
X012980Y022178D01*
X012923Y022163D01*
X012917Y022152D01*
X012904Y022154D01*
X012856Y022120D01*
X012803Y022095D01*
X012798Y022083D01*
X012785Y022083D01*
X012337Y022083D01*
X012345Y022094D01*
X012356Y022102D01*
X012368Y022109D01*
X012381Y022113D01*
X012403Y022115D01*
X012580Y022115D01*
X012588Y022108D01*
X012653Y022115D01*
X012657Y022115D01*
X012674Y022106D01*
X012704Y022115D01*
X012719Y022115D01*
X012725Y022121D01*
X012728Y022122D01*
X012746Y022124D01*
X012759Y022120D01*
X012771Y022126D01*
X012785Y022128D01*
X012794Y022138D01*
X012809Y022147D01*
X012826Y022152D01*
X012840Y022150D01*
X012850Y022159D01*
X012863Y022163D01*
X012870Y022175D01*
X012884Y022187D01*
X012899Y022195D01*
X012913Y022196D01*
X012922Y022207D01*
X012934Y022213D01*
X012938Y022227D01*
X012949Y022240D01*
X012963Y022251D01*
X012976Y022255D01*
X012982Y022267D01*
X012993Y022276D01*
X012994Y022290D01*
X013002Y022305D01*
X013014Y022319D01*
X013026Y022326D01*
X013030Y022339D01*
X013039Y022349D01*
X013037Y022363D01*
X013042Y022380D01*
X013051Y022395D01*
X013061Y022404D01*
X013063Y022418D01*
X013069Y022430D01*
X013065Y022443D01*
X013067Y022461D01*
X013068Y022464D01*
X013074Y022470D01*
X013074Y022485D01*
X013083Y022515D01*
X013074Y022532D01*
X013074Y022536D01*
X013081Y022601D01*
X013074Y022609D01*
X013074Y023730D01*
X013081Y023738D01*
X013074Y023804D01*
X013074Y023807D01*
X013083Y023824D01*
X013074Y023854D01*
X013074Y023869D01*
X013068Y023876D01*
X013067Y023879D01*
X013065Y023896D01*
X013069Y023910D01*
X013063Y023922D01*
X013061Y023935D01*
X013051Y023944D01*
X013042Y023960D01*
X013037Y023977D01*
X013039Y023990D01*
X013030Y024001D01*
X013026Y024014D01*
X013014Y024021D01*
X013002Y024034D01*
X012994Y024050D01*
X012993Y024063D01*
X012982Y024072D01*
X012976Y024084D01*
X012963Y024088D01*
X012949Y024099D01*
X012938Y024113D01*
X012934Y024126D01*
X012922Y024133D01*
X012921Y024133D01*
X020165Y024133D01*
X023233Y021066D01*
X023233Y008670D01*
X020894Y008670D01*
X020894Y008049D01*
X020820Y007975D01*
X020070Y007975D01*
X019969Y007874D01*
X019969Y011733D01*
X019887Y011815D01*
X011897Y011815D01*
X011815Y011733D01*
X011815Y003349D01*
X011897Y003267D01*
X012386Y003267D01*
X012386Y002473D01*
X012468Y002391D01*
X012844Y002391D01*
X012853Y002400D01*
X012862Y002391D01*
X013238Y002391D01*
X013247Y002400D01*
X013255Y002391D01*
X013631Y002391D01*
X013640Y002400D01*
X013649Y002391D01*
X014025Y002391D01*
X014107Y002473D01*
X014107Y003267D01*
X014355Y003267D01*
X014355Y002473D01*
X014437Y002391D01*
X014813Y002391D01*
X014821Y002400D01*
X014830Y002391D01*
X015206Y002391D01*
X015215Y002400D01*
X015224Y002391D01*
X015600Y002391D01*
X015609Y002400D01*
X015618Y002391D01*
X015994Y002391D01*
X016002Y002400D01*
X016011Y002391D01*
X016387Y002391D01*
X016469Y002473D01*
X016469Y003267D01*
X017110Y003267D01*
X017110Y002473D01*
X017192Y002391D01*
X017568Y002391D01*
X017577Y002400D01*
X017586Y002391D01*
X017962Y002391D01*
X017971Y002400D01*
X017980Y002391D01*
X018356Y002391D01*
X018365Y002400D01*
X018374Y002391D01*
X018750Y002391D01*
X018758Y002400D01*
X018767Y002391D01*
X019143Y002391D01*
X019225Y002473D01*
X019225Y003267D01*
X019887Y003267D01*
X019969Y003349D01*
X019969Y005525D01*
X019976Y005516D01*
X019978Y005500D01*
X019994Y005488D01*
X019996Y005468D01*
X020010Y005458D01*
X020016Y005442D01*
X020034Y005435D01*
X020042Y005417D01*
X020057Y005410D01*
X020068Y005397D01*
X020087Y005394D01*
X020099Y005378D01*
X020116Y005376D01*
X020129Y005366D01*
X020138Y005367D01*
X020140Y005365D01*
X020167Y005365D01*
X020197Y005352D01*
X020221Y005362D01*
X020265Y005357D01*
X020276Y005365D01*
X022662Y005365D01*
X022673Y005357D01*
X022717Y005362D01*
X022716Y005362D02*
X022718Y005362D01*
X022717Y005362D02*
X022742Y005352D01*
X022772Y005365D01*
X022798Y005365D01*
X022801Y005367D01*
X022809Y005366D01*
X022823Y005376D01*
X022839Y005378D01*
X022851Y005394D01*
X022871Y005397D01*
X022881Y005410D01*
X022897Y005417D01*
X022904Y005435D01*
X022923Y005442D01*
X022929Y005458D01*
X022942Y005468D01*
X022945Y005488D01*
X022961Y005500D01*
X022963Y005516D01*
X022973Y005530D01*
X022972Y005539D01*
X022974Y005541D01*
X022974Y005567D01*
X022987Y005597D01*
X022977Y005622D01*
X022982Y005666D01*
X022974Y005677D01*
X022974Y006434D01*
X022982Y006444D01*
X022976Y006490D01*
X022986Y006514D01*
X022974Y006544D01*
X022974Y006569D01*
X022971Y006573D01*
X022972Y006583D01*
X022963Y006596D01*
X022960Y006612D01*
X022944Y006624D01*
X022941Y006645D01*
X022928Y006655D01*
X022922Y006670D01*
X023233Y006670D01*
X023233Y004252D01*
X020165Y001185D01*
X003352Y001185D01*
X000284Y004252D01*
X000284Y021066D01*
X003352Y024133D01*
X010117Y024133D01*
X010117Y024133D01*
X010105Y024126D01*
X010101Y024113D01*
X010090Y024099D01*
X010076Y024088D01*
X010063Y024084D01*
X010056Y024072D01*
X010046Y024063D01*
X010044Y024050D01*
X010036Y024034D01*
X010025Y024021D01*
X010013Y024014D01*
X010009Y024001D01*
X010000Y023990D01*
X010001Y023977D01*
X009996Y023960D01*
X009988Y023944D01*
X009977Y023935D01*
X009976Y023922D01*
X009969Y023910D01*
X009973Y023896D01*
X009972Y023879D01*
X009971Y023876D01*
X009964Y023869D01*
X009964Y023854D01*
X009955Y023824D01*
X009964Y023807D01*
X009964Y023804D01*
X009958Y023738D01*
X009964Y023730D01*
X009964Y021359D01*
X009958Y021351D01*
X009964Y021286D01*
X009964Y021282D01*
X009955Y021265D01*
X009964Y021235D01*
X009964Y021220D01*
X009971Y021214D01*
X009972Y021211D01*
X009973Y021193D01*
X009969Y021180D01*
X009976Y021168D01*
X009977Y021154D01*
X009988Y021145D01*
X009996Y021130D01*
X010001Y021113D01*
X010000Y021099D01*
X010009Y021089D01*
X010013Y021076D01*
X010025Y021069D01*
X010036Y021055D01*
X010044Y021040D01*
X010046Y021026D01*
X010056Y021017D01*
X010063Y021005D01*
X010076Y021001D01*
X010090Y020990D01*
X010101Y020977D01*
X010105Y020963D01*
X010117Y020957D01*
X010126Y020946D01*
X010139Y020945D01*
X010155Y020937D01*
X010168Y020925D01*
X010175Y020913D01*
X010188Y020909D01*
X010199Y020900D01*
X010212Y020902D01*
X010229Y020897D01*
X010245Y020888D01*
X010254Y020878D01*
X010267Y020876D01*
X010279Y020870D01*
X010293Y020874D01*
X010310Y020872D01*
X010313Y020871D01*
X010320Y020865D01*
X010335Y020865D01*
X010365Y020856D01*
X010382Y020865D01*
X010385Y020865D01*
X010451Y020858D01*
X010459Y020865D01*
X011830Y020865D01*
X011838Y020858D01*
X011903Y020865D01*
X011907Y020865D01*
X011924Y020856D01*
X011954Y020865D01*
X011969Y020865D01*
X011975Y020871D01*
X011978Y020872D01*
X011996Y020874D01*
X012009Y020870D01*
X012021Y020876D01*
X012035Y020878D01*
X012044Y020888D01*
X012059Y020897D01*
X012076Y020902D01*
X012090Y020900D01*
X012100Y020909D01*
X012113Y020913D01*
X012120Y020925D01*
X012134Y020937D01*
X012149Y020945D01*
X012163Y020946D01*
X012172Y020957D01*
X012184Y020963D01*
X012188Y020977D01*
X012199Y020990D01*
X012213Y021001D01*
X012226Y021005D01*
X012232Y021017D01*
X012243Y021026D01*
X012244Y021040D01*
X012252Y021055D01*
X012264Y021069D01*
X012276Y021076D01*
X012280Y021089D01*
X012289Y021099D01*
X012287Y021113D01*
X012292Y021130D01*
X012301Y021145D01*
X012311Y021154D01*
X012313Y021168D01*
X012319Y021180D01*
X012315Y021193D01*
X012317Y021211D01*
X012318Y021214D01*
X012324Y021220D01*
X012324Y021235D01*
X012333Y021265D01*
X012324Y021282D01*
X012324Y021286D01*
X012331Y021351D01*
X012324Y021359D01*
X012324Y022036D01*
X012326Y022058D01*
X012330Y022071D01*
X012337Y022083D01*
X012324Y022004D02*
X012695Y022004D01*
X012696Y022008D02*
X012693Y021996D01*
X012681Y021993D01*
X012647Y021945D01*
X012606Y021904D01*
X012606Y021891D01*
X012594Y021886D01*
X012569Y021833D01*
X012535Y021785D01*
X012537Y021772D01*
X012526Y021766D01*
X012511Y021709D01*
X012486Y021656D01*
X012490Y021644D01*
X012481Y021636D01*
X012475Y021577D01*
X012460Y021520D01*
X012464Y021513D01*
X012464Y021449D01*
X012458Y021382D01*
X012464Y021375D01*
X012464Y018989D01*
X012324Y018849D01*
X012240Y018765D01*
X012194Y018654D01*
X012194Y016719D01*
X012170Y016695D01*
X010419Y016695D01*
X010411Y016704D01*
X009996Y016704D01*
X009903Y016611D01*
X009818Y016696D01*
X009909Y016787D01*
X009909Y017202D01*
X009814Y017297D01*
X009905Y017388D01*
X009905Y017803D01*
X009797Y017911D01*
X009383Y017911D01*
X009275Y017803D01*
X009275Y017710D01*
X009253Y017732D01*
X009150Y017775D01*
X009039Y017775D01*
X008936Y017732D01*
X008878Y017675D01*
X008620Y017675D01*
X008514Y017569D01*
X008488Y017543D01*
X008488Y017903D01*
X008406Y017985D01*
X008256Y017985D01*
X008309Y018037D01*
X008309Y018452D01*
X008217Y018545D01*
X008304Y018632D01*
X008304Y018512D01*
X008381Y018435D01*
X008378Y018432D01*
X008378Y018018D01*
X008485Y017910D01*
X008900Y017910D01*
X009008Y018018D01*
X009008Y018432D01*
X008956Y018484D01*
X008984Y018512D01*
X008984Y019078D01*
X008902Y019160D01*
X008386Y019160D01*
X008304Y019078D01*
X008304Y019057D01*
X008202Y019160D01*
X007787Y019160D01*
X007679Y019052D01*
X007679Y018637D01*
X007772Y018545D01*
X007679Y018452D01*
X007679Y018037D01*
X007743Y017974D01*
X007743Y017973D01*
X007673Y017903D01*
X007673Y017325D01*
X007543Y017325D01*
X007543Y017903D01*
X007516Y017930D01*
X007552Y017930D01*
X007659Y018037D01*
X007659Y018452D01*
X007552Y018560D01*
X007422Y018560D01*
X007362Y018585D01*
X006927Y018585D01*
X006866Y018560D01*
X006487Y018560D01*
X006379Y018452D01*
X006379Y018037D01*
X006432Y017985D01*
X005865Y017985D01*
X005783Y017903D01*
X005783Y017810D01*
X005459Y018134D01*
X005459Y018402D01*
X005352Y018510D01*
X005324Y018510D01*
X005324Y018570D01*
X005409Y018655D01*
X006102Y018655D01*
X006184Y018737D01*
X006184Y019653D01*
X006102Y019735D01*
X005286Y019735D01*
X005204Y019653D01*
X005204Y018959D01*
X004964Y018719D01*
X004964Y018510D01*
X004937Y018510D01*
X004844Y018417D01*
X004752Y018510D01*
X004724Y018510D01*
X004724Y018719D01*
X004484Y018959D01*
X004484Y019653D01*
X004402Y019735D01*
X003586Y019735D01*
X003504Y019653D01*
X003504Y018737D01*
X003586Y018655D01*
X004280Y018655D01*
X004364Y018570D01*
X004364Y018510D01*
X004337Y018510D01*
X004229Y018402D01*
X004229Y017987D01*
X004337Y017880D01*
X004605Y017880D01*
X004770Y017715D01*
X005070Y017715D01*
X005527Y017257D01*
X005138Y017257D01*
X005056Y017175D01*
X005056Y016875D01*
X004919Y016875D01*
X003374Y018419D01*
X003374Y019046D01*
X003269Y019151D01*
X003095Y019325D01*
X003059Y019325D01*
X003059Y019352D01*
X002952Y019460D01*
X002537Y019460D01*
X002444Y019367D01*
X002379Y019432D01*
X002457Y019510D01*
X002457Y019925D01*
X002377Y020005D01*
X002434Y020062D01*
X002434Y020628D01*
X002352Y020710D01*
X001836Y020710D01*
X001754Y020628D01*
X001754Y020062D01*
X001836Y019980D01*
X001882Y019980D01*
X001827Y019925D01*
X001827Y019510D01*
X001907Y019430D01*
X001829Y019352D01*
X001829Y019114D01*
X001809Y019134D01*
X001809Y019352D01*
X001702Y019460D01*
X001287Y019460D01*
X001194Y019367D01*
X001128Y019434D01*
X001204Y019510D01*
X001204Y019925D01*
X001125Y020003D01*
X001184Y020062D01*
X001184Y020628D01*
X001102Y020710D01*
X000586Y020710D01*
X000504Y020628D01*
X000504Y020062D01*
X000586Y019980D01*
X000629Y019980D01*
X000574Y019925D01*
X000574Y019510D01*
X000655Y019428D01*
X000579Y019352D01*
X000579Y018937D01*
X000672Y018845D01*
X000579Y018752D01*
X000579Y018484D01*
X000520Y018425D01*
X000414Y018319D01*
X000414Y008119D01*
X000520Y008013D01*
X000703Y007830D01*
X000658Y007721D01*
X000658Y007518D01*
X000735Y007331D01*
X000879Y007187D01*
X001066Y007110D01*
X001269Y007110D01*
X001457Y007187D01*
X001600Y007331D01*
X001678Y007518D01*
X001678Y007721D01*
X001600Y007909D01*
X001457Y008052D01*
X001318Y008110D01*
X001369Y008110D01*
X001557Y008187D01*
X001700Y008331D01*
X001741Y008430D01*
X007791Y008430D01*
X007908Y008312D01*
X007908Y008245D01*
X007951Y008142D01*
X008029Y008064D01*
X008132Y008021D01*
X008244Y008021D01*
X008347Y008064D01*
X008425Y008142D01*
X008468Y008245D01*
X008468Y008357D01*
X008425Y008460D01*
X008347Y008538D01*
X008244Y008581D01*
X008964Y008581D01*
X008964Y008659D02*
X008098Y008659D01*
X008177Y008581D02*
X007948Y008810D01*
X001741Y008810D01*
X001700Y008909D01*
X001557Y009052D01*
X008964Y009052D01*
X008964Y009130D02*
X001319Y009130D01*
X001318Y009130D02*
X001457Y009187D01*
X001600Y009331D01*
X001641Y009430D01*
X007617Y009430D01*
X008142Y009955D01*
X008209Y009955D01*
X008312Y009998D01*
X008391Y010077D01*
X008434Y010180D01*
X008434Y010291D01*
X008391Y010394D01*
X008312Y010473D01*
X008209Y010515D01*
X008098Y010515D01*
X007995Y010473D01*
X007916Y010394D01*
X007874Y010291D01*
X007874Y010224D01*
X007459Y009810D01*
X001641Y009810D01*
X001600Y009909D01*
X001457Y010052D01*
X001318Y010110D01*
X001369Y010110D01*
X001557Y010187D01*
X001700Y010331D01*
X001778Y010518D01*
X001778Y010649D01*
X002282Y011153D01*
X002334Y011278D01*
X002334Y013654D01*
X002335Y013655D01*
X003636Y013655D01*
X003686Y013605D01*
X002334Y013605D01*
X002334Y013526D02*
X004354Y013526D01*
X004354Y013448D02*
X002334Y013448D01*
X002334Y013369D02*
X004354Y013369D01*
X004354Y013291D02*
X002334Y013291D01*
X002334Y013212D02*
X004354Y013212D01*
X004354Y013134D02*
X002334Y013134D01*
X002334Y013055D02*
X004384Y013055D01*
X004406Y013002D02*
X004502Y012907D01*
X004755Y012653D01*
X004705Y012604D01*
X004705Y012335D01*
X003900Y012335D01*
X003853Y012382D01*
X003750Y012425D01*
X003639Y012425D01*
X003536Y012382D01*
X003457Y012303D01*
X003414Y012201D01*
X003414Y012089D01*
X003457Y011986D01*
X003536Y011907D01*
X003639Y011865D01*
X003750Y011865D01*
X003853Y011907D01*
X003900Y011955D01*
X004705Y011955D01*
X004705Y011700D01*
X004787Y011618D01*
X004914Y011618D01*
X004914Y011570D01*
X005020Y011465D01*
X005120Y011365D01*
X007658Y011365D01*
X008964Y010059D01*
X008964Y005470D01*
X009064Y005370D01*
X009170Y005265D01*
X009253Y005265D01*
X009253Y005234D01*
X009333Y005154D01*
X009247Y005068D01*
X009247Y005041D01*
X006735Y005041D01*
X005020Y003325D01*
X004939Y003325D01*
X004836Y003282D01*
X004757Y003203D01*
X004714Y003101D01*
X004714Y002989D01*
X004757Y002886D01*
X004836Y002807D01*
X004870Y002793D01*
X004870Y002784D01*
X004756Y002784D01*
X004793Y002850D02*
X001686Y002850D01*
X001608Y002929D02*
X004739Y002929D01*
X004714Y003007D02*
X001529Y003007D01*
X001451Y003086D02*
X004714Y003086D01*
X004741Y003164D02*
X001372Y003164D01*
X001294Y003243D02*
X004796Y003243D01*
X004930Y003321D02*
X001215Y003321D01*
X001137Y003400D02*
X005095Y003400D01*
X005173Y003478D02*
X001058Y003478D01*
X000980Y003557D02*
X005252Y003557D01*
X005330Y003635D02*
X000901Y003635D01*
X000823Y003714D02*
X005409Y003714D01*
X005487Y003792D02*
X000744Y003792D01*
X000666Y003871D02*
X005566Y003871D01*
X005644Y003949D02*
X000587Y003949D01*
X000509Y004028D02*
X005723Y004028D01*
X005801Y004106D02*
X000430Y004106D01*
X000352Y004185D02*
X005880Y004185D01*
X005958Y004263D02*
X000284Y004263D01*
X000284Y004342D02*
X006037Y004342D01*
X006115Y004420D02*
X000284Y004420D01*
X000284Y004499D02*
X006194Y004499D01*
X006272Y004577D02*
X000284Y004577D01*
X000284Y004656D02*
X006351Y004656D01*
X006429Y004734D02*
X000284Y004734D01*
X000284Y004813D02*
X006508Y004813D01*
X006586Y004891D02*
X000284Y004891D01*
X000284Y004970D02*
X006665Y004970D01*
X006810Y004861D02*
X004994Y003045D01*
X005050Y002989D01*
X005050Y002211D01*
X005426Y002222D02*
X005638Y002222D01*
X005638Y002144D02*
X005426Y002144D01*
X005426Y002065D02*
X005638Y002065D01*
X005638Y001987D02*
X005426Y001987D01*
X005426Y001908D02*
X005638Y001908D01*
X005638Y001830D02*
X005426Y001830D01*
X005426Y001751D02*
X005638Y001751D01*
X005669Y001673D02*
X005379Y001673D01*
X005426Y002301D02*
X005638Y002301D01*
X005638Y002379D02*
X005426Y002379D01*
X005426Y002458D02*
X005638Y002458D01*
X005638Y002536D02*
X005426Y002536D01*
X005426Y002615D02*
X005638Y002615D01*
X005645Y002693D02*
X005426Y002693D01*
X005356Y002772D02*
X005834Y002772D01*
X005793Y002850D02*
X005230Y002850D01*
X005249Y002929D02*
X005739Y002929D01*
X005714Y003007D02*
X005274Y003007D01*
X005290Y003086D02*
X005714Y003086D01*
X005741Y003164D02*
X005368Y003164D01*
X005447Y003243D02*
X005796Y003243D01*
X005930Y003321D02*
X005525Y003321D01*
X005604Y003400D02*
X006095Y003400D01*
X006173Y003478D02*
X005682Y003478D01*
X005761Y003557D02*
X006252Y003557D01*
X006330Y003635D02*
X005839Y003635D01*
X005918Y003714D02*
X006409Y003714D01*
X006487Y003792D02*
X005996Y003792D01*
X006075Y003871D02*
X006566Y003871D01*
X006644Y003949D02*
X006153Y003949D01*
X006232Y004028D02*
X006723Y004028D01*
X006801Y004106D02*
X006310Y004106D01*
X006389Y004185D02*
X006880Y004185D01*
X006958Y004263D02*
X006467Y004263D01*
X006546Y004342D02*
X007037Y004342D01*
X007115Y004420D02*
X006624Y004420D01*
X006703Y004499D02*
X009266Y004499D01*
X009323Y004577D02*
X006781Y004577D01*
X006860Y004656D02*
X009247Y004656D01*
X009562Y004861D02*
X006810Y004861D01*
X007222Y004273D02*
X005994Y003045D01*
X006014Y003025D01*
X006014Y002195D01*
X006391Y002222D02*
X006662Y002222D01*
X006662Y002144D02*
X006391Y002144D01*
X006391Y002065D02*
X006662Y002065D01*
X006662Y001987D02*
X006391Y001987D01*
X006391Y001908D02*
X006662Y001908D01*
X006662Y001830D02*
X006391Y001830D01*
X006391Y001751D02*
X006662Y001751D01*
X006709Y001673D02*
X006359Y001673D01*
X006391Y002301D02*
X006662Y002301D01*
X006662Y002379D02*
X006391Y002379D01*
X006391Y002458D02*
X006662Y002458D01*
X006662Y002536D02*
X006391Y002536D01*
X006391Y002615D02*
X006662Y002615D01*
X006662Y002693D02*
X006383Y002693D01*
X006194Y002772D02*
X006732Y002772D01*
X006818Y002850D02*
X006196Y002850D01*
X006249Y002929D02*
X006789Y002929D01*
X006764Y003007D02*
X006274Y003007D01*
X006290Y003086D02*
X006764Y003086D01*
X006791Y003164D02*
X006368Y003164D01*
X006447Y003243D02*
X006846Y003243D01*
X006980Y003321D02*
X006525Y003321D01*
X006604Y003400D02*
X007088Y003400D01*
X007167Y003478D02*
X006682Y003478D01*
X006761Y003557D02*
X007245Y003557D01*
X007324Y003635D02*
X006839Y003635D01*
X006918Y003714D02*
X007402Y003714D01*
X007481Y003792D02*
X006996Y003792D01*
X007075Y003871D02*
X007559Y003871D01*
X007232Y004028D02*
X009285Y004028D01*
X009311Y003949D02*
X007153Y003949D01*
X007222Y004273D02*
X009562Y004273D01*
X009839Y004028D02*
X009885Y004028D01*
X009800Y003949D02*
X011815Y003949D01*
X011815Y003871D02*
X009870Y003871D01*
X009870Y003792D02*
X011815Y003792D01*
X011815Y003714D02*
X009870Y003714D01*
X009870Y003635D02*
X011815Y003635D01*
X011815Y003557D02*
X009870Y003557D01*
X009870Y003478D02*
X011815Y003478D01*
X011815Y003400D02*
X009824Y003400D01*
X009824Y003321D02*
X011843Y003321D01*
X012386Y003243D02*
X009805Y003243D01*
X009760Y003164D02*
X012386Y003164D01*
X012386Y003086D02*
X009651Y003086D01*
X009438Y003086D02*
X007396Y003086D01*
X007324Y003007D02*
X012386Y003007D01*
X012386Y002929D02*
X007299Y002929D01*
X007258Y002850D02*
X012386Y002850D01*
X012386Y002772D02*
X007344Y002772D01*
X007414Y002693D02*
X012386Y002693D01*
X012386Y002615D02*
X007414Y002615D01*
X007414Y002536D02*
X012386Y002536D01*
X012401Y002458D02*
X007414Y002458D01*
X007414Y002379D02*
X021359Y002379D01*
X021281Y002301D02*
X007414Y002301D01*
X007414Y002222D02*
X021202Y002222D01*
X021124Y002144D02*
X007414Y002144D01*
X007414Y002065D02*
X021045Y002065D01*
X020967Y001987D02*
X007414Y001987D01*
X007414Y001908D02*
X020888Y001908D01*
X020810Y001830D02*
X007414Y001830D01*
X007414Y001751D02*
X020731Y001751D01*
X020653Y001673D02*
X007367Y001673D01*
X007475Y003164D02*
X009329Y003164D01*
X009283Y003243D02*
X007553Y003243D01*
X007632Y003321D02*
X009264Y003321D01*
X009264Y003400D02*
X007710Y003400D01*
X009247Y005048D02*
X000284Y005048D01*
X000284Y005127D02*
X009306Y005127D01*
X009282Y005205D02*
X000284Y005205D01*
X000284Y005284D02*
X009151Y005284D01*
X009072Y005362D02*
X000284Y005362D01*
X000284Y005441D02*
X008994Y005441D01*
X008964Y005519D02*
X000284Y005519D01*
X000284Y005598D02*
X008964Y005598D01*
X008964Y005676D02*
X000284Y005676D01*
X000284Y005755D02*
X008964Y005755D01*
X008964Y005833D02*
X000284Y005833D01*
X000284Y005912D02*
X008964Y005912D01*
X008964Y005990D02*
X000284Y005990D01*
X000284Y006069D02*
X008964Y006069D01*
X008964Y006147D02*
X000284Y006147D01*
X000284Y006226D02*
X008964Y006226D01*
X008964Y006304D02*
X000284Y006304D01*
X000284Y006383D02*
X008964Y006383D01*
X008964Y006461D02*
X000284Y006461D01*
X000284Y006540D02*
X008964Y006540D01*
X008964Y006618D02*
X000284Y006618D01*
X000284Y006697D02*
X008964Y006697D01*
X008964Y006775D02*
X000284Y006775D01*
X000284Y006854D02*
X008964Y006854D01*
X008964Y006932D02*
X000284Y006932D01*
X000284Y007011D02*
X008964Y007011D01*
X008964Y007089D02*
X000284Y007089D01*
X000284Y007168D02*
X000926Y007168D01*
X000820Y007246D02*
X000284Y007246D01*
X000284Y007325D02*
X000741Y007325D01*
X000705Y007403D02*
X000284Y007403D01*
X000284Y007482D02*
X000673Y007482D01*
X000658Y007560D02*
X000284Y007560D01*
X000284Y007639D02*
X000658Y007639D01*
X000658Y007717D02*
X000284Y007717D01*
X000284Y007796D02*
X000689Y007796D01*
X000659Y007874D02*
X000284Y007874D01*
X000284Y007953D02*
X000580Y007953D01*
X000502Y008031D02*
X000284Y008031D01*
X000284Y008110D02*
X000423Y008110D01*
X000414Y008188D02*
X000284Y008188D01*
X000284Y008267D02*
X000414Y008267D01*
X000414Y008345D02*
X000284Y008345D01*
X000284Y008424D02*
X000414Y008424D01*
X000414Y008502D02*
X000284Y008502D01*
X000284Y008581D02*
X000414Y008581D01*
X000414Y008659D02*
X000284Y008659D01*
X000284Y008738D02*
X000414Y008738D01*
X000414Y008816D02*
X000284Y008816D01*
X000284Y008895D02*
X000414Y008895D01*
X000414Y008973D02*
X000284Y008973D01*
X000284Y009052D02*
X000414Y009052D01*
X000414Y009130D02*
X000284Y009130D01*
X000284Y009209D02*
X000414Y009209D01*
X000414Y009287D02*
X000284Y009287D01*
X000284Y009366D02*
X000414Y009366D01*
X000414Y009444D02*
X000284Y009444D01*
X000284Y009523D02*
X000414Y009523D01*
X000414Y009601D02*
X000284Y009601D01*
X000284Y009680D02*
X000414Y009680D01*
X000414Y009758D02*
X000284Y009758D01*
X000284Y009837D02*
X000414Y009837D01*
X000414Y009915D02*
X000284Y009915D01*
X000284Y009994D02*
X000414Y009994D01*
X000414Y010072D02*
X000284Y010072D01*
X000284Y010151D02*
X000414Y010151D01*
X000414Y010229D02*
X000284Y010229D01*
X000284Y010308D02*
X000414Y010308D01*
X000414Y010386D02*
X000284Y010386D01*
X000284Y010465D02*
X000414Y010465D01*
X000414Y010543D02*
X000284Y010543D01*
X000284Y010622D02*
X000414Y010622D01*
X000414Y010700D02*
X000284Y010700D01*
X000284Y010779D02*
X000414Y010779D01*
X000414Y010857D02*
X000284Y010857D01*
X000284Y010936D02*
X000414Y010936D01*
X000414Y011014D02*
X000284Y011014D01*
X000284Y011093D02*
X000414Y011093D01*
X000414Y011171D02*
X000284Y011171D01*
X000284Y011250D02*
X000414Y011250D01*
X000414Y011328D02*
X000284Y011328D01*
X000284Y011407D02*
X000414Y011407D01*
X000414Y011485D02*
X000284Y011485D01*
X000284Y011564D02*
X000414Y011564D01*
X000414Y011642D02*
X000284Y011642D01*
X000284Y011721D02*
X000414Y011721D01*
X000414Y011799D02*
X000284Y011799D01*
X000284Y011878D02*
X000414Y011878D01*
X000414Y011956D02*
X000284Y011956D01*
X000284Y012035D02*
X000414Y012035D01*
X000414Y012113D02*
X000284Y012113D01*
X000284Y012192D02*
X000414Y012192D01*
X000414Y012270D02*
X000284Y012270D01*
X000284Y012349D02*
X000414Y012349D01*
X000414Y012427D02*
X000284Y012427D01*
X000284Y012506D02*
X000414Y012506D01*
X000414Y012584D02*
X000284Y012584D01*
X000284Y012663D02*
X000414Y012663D01*
X000414Y012741D02*
X000284Y012741D01*
X000284Y012820D02*
X000414Y012820D01*
X000414Y012898D02*
X000284Y012898D01*
X000284Y012977D02*
X000414Y012977D01*
X000414Y013055D02*
X000284Y013055D01*
X000284Y013134D02*
X000414Y013134D01*
X000414Y013212D02*
X000284Y013212D01*
X000284Y013291D02*
X000414Y013291D01*
X000414Y013369D02*
X000284Y013369D01*
X000284Y013448D02*
X000414Y013448D01*
X000414Y013526D02*
X000284Y013526D01*
X000284Y013605D02*
X000414Y013605D01*
X000414Y013683D02*
X000284Y013683D01*
X000284Y013762D02*
X000414Y013762D01*
X000414Y013840D02*
X000284Y013840D01*
X000284Y013919D02*
X000414Y013919D01*
X000414Y013997D02*
X000284Y013997D01*
X000284Y014076D02*
X000414Y014076D01*
X000414Y014154D02*
X000284Y014154D01*
X000284Y014233D02*
X000414Y014233D01*
X000414Y014311D02*
X000284Y014311D01*
X000284Y014390D02*
X000414Y014390D01*
X000414Y014468D02*
X000284Y014468D01*
X000284Y014547D02*
X000414Y014547D01*
X000414Y014625D02*
X000284Y014625D01*
X000284Y014704D02*
X000414Y014704D01*
X000414Y014782D02*
X000284Y014782D01*
X000284Y014861D02*
X000414Y014861D01*
X000414Y014939D02*
X000284Y014939D01*
X000284Y015018D02*
X000414Y015018D01*
X000414Y015096D02*
X000284Y015096D01*
X000284Y015175D02*
X000414Y015175D01*
X000414Y015253D02*
X000284Y015253D01*
X000284Y015332D02*
X000414Y015332D01*
X000414Y015410D02*
X000284Y015410D01*
X000284Y015489D02*
X000414Y015489D01*
X000414Y015567D02*
X000284Y015567D01*
X000284Y015646D02*
X000414Y015646D01*
X000414Y015724D02*
X000284Y015724D01*
X000284Y015803D02*
X000414Y015803D01*
X000414Y015881D02*
X000284Y015881D01*
X000284Y015960D02*
X000414Y015960D01*
X000414Y016038D02*
X000284Y016038D01*
X000284Y016117D02*
X000414Y016117D01*
X000414Y016195D02*
X000284Y016195D01*
X000284Y016274D02*
X000414Y016274D01*
X000414Y016352D02*
X000284Y016352D01*
X000284Y016431D02*
X000414Y016431D01*
X000414Y016509D02*
X000284Y016509D01*
X000284Y016588D02*
X000414Y016588D01*
X000414Y016666D02*
X000284Y016666D01*
X000284Y016745D02*
X000414Y016745D01*
X000414Y016823D02*
X000284Y016823D01*
X000284Y016902D02*
X000414Y016902D01*
X000414Y016980D02*
X000284Y016980D01*
X000284Y017059D02*
X000414Y017059D01*
X000414Y017137D02*
X000284Y017137D01*
X000284Y017216D02*
X000414Y017216D01*
X000414Y017294D02*
X000284Y017294D01*
X000284Y017373D02*
X000414Y017373D01*
X000414Y017451D02*
X000284Y017451D01*
X000284Y017530D02*
X000414Y017530D01*
X000414Y017608D02*
X000284Y017608D01*
X000284Y017687D02*
X000414Y017687D01*
X000414Y017765D02*
X000284Y017765D01*
X000284Y017844D02*
X000414Y017844D01*
X000414Y017922D02*
X000284Y017922D01*
X000284Y018001D02*
X000414Y018001D01*
X000414Y018079D02*
X000284Y018079D01*
X000284Y018158D02*
X000414Y018158D01*
X000414Y018236D02*
X000284Y018236D01*
X000284Y018315D02*
X000414Y018315D01*
X000488Y018393D02*
X000284Y018393D01*
X000284Y018472D02*
X000567Y018472D01*
X000579Y018550D02*
X000284Y018550D01*
X000284Y018629D02*
X000579Y018629D01*
X000579Y018707D02*
X000284Y018707D01*
X000284Y018786D02*
X000613Y018786D01*
X000652Y018864D02*
X000284Y018864D01*
X000284Y018943D02*
X000579Y018943D01*
X000579Y019021D02*
X000284Y019021D01*
X000284Y019100D02*
X000579Y019100D01*
X000579Y019178D02*
X000284Y019178D01*
X000284Y019257D02*
X000579Y019257D01*
X000579Y019335D02*
X000284Y019335D01*
X000284Y019414D02*
X000641Y019414D01*
X000591Y019492D02*
X000284Y019492D01*
X000284Y019571D02*
X000574Y019571D01*
X000574Y019649D02*
X000284Y019649D01*
X000284Y019728D02*
X000574Y019728D01*
X000574Y019806D02*
X000284Y019806D01*
X000284Y019885D02*
X000574Y019885D01*
X000613Y019963D02*
X000284Y019963D01*
X000284Y020042D02*
X000524Y020042D01*
X000504Y020120D02*
X000284Y020120D01*
X000284Y020199D02*
X000504Y020199D01*
X000504Y020277D02*
X000284Y020277D01*
X000284Y020356D02*
X000504Y020356D01*
X000504Y020434D02*
X000284Y020434D01*
X000284Y020513D02*
X000504Y020513D01*
X000504Y020591D02*
X000284Y020591D01*
X000284Y020670D02*
X000546Y020670D01*
X000284Y020748D02*
X003736Y020748D01*
X003740Y020745D02*
X003714Y020770D01*
X003676Y020809D01*
X003408Y020809D01*
X003304Y020913D01*
X003304Y021265D01*
X002819Y021265D01*
X002784Y021230D01*
X002784Y020862D01*
X002702Y020780D01*
X002186Y020780D01*
X002104Y020862D01*
X002104Y021415D01*
X001719Y021415D01*
X001534Y021230D01*
X001534Y020862D01*
X001452Y020780D01*
X000936Y020780D01*
X000854Y020862D01*
X000854Y021428D01*
X000936Y021510D01*
X001305Y021510D01*
X001464Y021669D01*
X001570Y021775D01*
X003091Y021775D01*
X003064Y021839D01*
X003064Y021951D01*
X003107Y022053D01*
X003186Y022132D01*
X003289Y022175D01*
X003357Y022175D01*
X003374Y022192D01*
X003374Y022417D01*
X003304Y022487D01*
X003304Y022909D01*
X003374Y022979D01*
X003374Y023205D01*
X003304Y023275D01*
X003304Y023697D01*
X003408Y023801D01*
X003780Y023801D01*
X003884Y023697D01*
X003884Y023275D01*
X003814Y023205D01*
X003814Y022979D01*
X003884Y022909D01*
X003884Y022487D01*
X003814Y022417D01*
X003814Y022192D01*
X003884Y022122D01*
X003884Y021775D01*
X003904Y021775D01*
X003904Y022122D01*
X004008Y022226D01*
X004380Y022226D01*
X004484Y022122D01*
X004484Y022091D01*
X004847Y022091D01*
X004847Y022118D01*
X004955Y022226D01*
X005370Y022226D01*
X005477Y022118D01*
X005477Y021775D01*
X005970Y021775D01*
X006014Y021819D01*
X006014Y022192D01*
X005823Y022383D01*
X005555Y022383D01*
X005462Y022476D01*
X005370Y022383D01*
X004955Y022383D01*
X004847Y022491D01*
X004847Y022518D01*
X004484Y022518D01*
X004484Y022487D01*
X004380Y022383D01*
X004008Y022383D01*
X003904Y022487D01*
X003904Y022909D01*
X004008Y023013D01*
X004380Y023013D01*
X004484Y022909D01*
X004484Y022878D01*
X004847Y022878D01*
X004847Y022906D01*
X004955Y023013D01*
X005370Y023013D01*
X005462Y022921D01*
X005555Y023013D01*
X005970Y023013D01*
X006077Y022906D01*
X006077Y022638D01*
X006164Y022551D01*
X006164Y022829D01*
X005823Y023171D01*
X005555Y023171D01*
X005462Y023263D01*
X005370Y023171D01*
X004955Y023171D01*
X004847Y023278D01*
X004847Y023306D01*
X004484Y023306D01*
X004484Y023275D01*
X004380Y023171D01*
X004008Y023171D01*
X003904Y023275D01*
X003904Y023697D01*
X004008Y023801D01*
X004380Y023801D01*
X004484Y023697D01*
X004484Y023666D01*
X004847Y023666D01*
X004847Y023693D01*
X004955Y023801D01*
X005370Y023801D01*
X005462Y023708D01*
X005555Y023801D01*
X005970Y023801D01*
X006077Y023693D01*
X006077Y023425D01*
X006524Y022978D01*
X006524Y021620D01*
X006419Y021515D01*
X006169Y021265D01*
X006077Y021265D01*
X006077Y020916D01*
X006023Y020862D01*
X006032Y020853D01*
X006074Y020751D01*
X006074Y020639D01*
X006047Y020574D01*
X006077Y020544D01*
X006077Y020129D01*
X005970Y020021D01*
X005555Y020021D01*
X005462Y020114D01*
X005370Y020021D01*
X004955Y020021D01*
X004847Y020129D01*
X004847Y020397D01*
X004779Y020465D01*
X003969Y020465D01*
X003884Y020380D01*
X003884Y020125D01*
X003780Y020021D01*
X003408Y020021D01*
X003304Y020125D01*
X003304Y020547D01*
X003408Y020651D01*
X003646Y020651D01*
X003714Y020719D01*
X003740Y020745D01*
X003665Y020670D02*
X002392Y020670D01*
X002434Y020591D02*
X003348Y020591D01*
X003304Y020513D02*
X002434Y020513D01*
X002434Y020434D02*
X003304Y020434D01*
X003304Y020356D02*
X002434Y020356D01*
X002434Y020277D02*
X003304Y020277D01*
X003304Y020199D02*
X002434Y020199D01*
X002434Y020120D02*
X003309Y020120D01*
X003387Y020042D02*
X002414Y020042D01*
X002418Y019963D02*
X012464Y019963D01*
X012464Y019885D02*
X009327Y019885D01*
X009334Y019878D02*
X009252Y019960D01*
X008736Y019960D01*
X008654Y019878D01*
X008654Y019312D01*
X008736Y019230D01*
X009252Y019230D01*
X009334Y019312D01*
X009334Y019315D01*
X009400Y019315D01*
X009503Y019357D01*
X009582Y019436D01*
X009624Y019539D01*
X009624Y019651D01*
X009582Y019753D01*
X009503Y019832D01*
X009400Y019875D01*
X009334Y019875D01*
X009334Y019878D01*
X009529Y019806D02*
X012464Y019806D01*
X012464Y019728D02*
X009592Y019728D01*
X009624Y019649D02*
X012464Y019649D01*
X012464Y019571D02*
X009624Y019571D01*
X009605Y019492D02*
X012464Y019492D01*
X012464Y019414D02*
X009559Y019414D01*
X009450Y019335D02*
X012464Y019335D01*
X012464Y019257D02*
X009279Y019257D01*
X008984Y019021D02*
X012464Y019021D01*
X012464Y019100D02*
X008962Y019100D01*
X008984Y018943D02*
X012418Y018943D01*
X012340Y018864D02*
X008984Y018864D01*
X008984Y018786D02*
X012261Y018786D01*
X012216Y018707D02*
X008984Y018707D01*
X008984Y018629D02*
X012194Y018629D01*
X012194Y018550D02*
X008984Y018550D01*
X008968Y018472D02*
X012194Y018472D01*
X012194Y018393D02*
X009008Y018393D01*
X009008Y018315D02*
X012194Y018315D01*
X012194Y018236D02*
X009008Y018236D01*
X009008Y018158D02*
X012194Y018158D01*
X012194Y018079D02*
X009008Y018079D01*
X008991Y018001D02*
X012194Y018001D01*
X012194Y017922D02*
X008912Y017922D01*
X009016Y017765D02*
X008488Y017765D01*
X008488Y017687D02*
X008890Y017687D01*
X008694Y017495D02*
X009094Y017495D01*
X009173Y017765D02*
X009275Y017765D01*
X009316Y017844D02*
X008488Y017844D01*
X008473Y017922D02*
X008468Y017922D01*
X008395Y018001D02*
X008273Y018001D01*
X008309Y018079D02*
X008378Y018079D01*
X008378Y018158D02*
X008309Y018158D01*
X008309Y018236D02*
X008378Y018236D01*
X008378Y018315D02*
X008309Y018315D01*
X008309Y018393D02*
X008378Y018393D01*
X008344Y018472D02*
X008290Y018472D01*
X008304Y018550D02*
X008222Y018550D01*
X008301Y018629D02*
X008304Y018629D01*
X008594Y018845D02*
X008644Y018795D01*
X008644Y018274D01*
X008693Y018225D01*
X008553Y017608D02*
X008488Y017608D01*
X008294Y017695D02*
X008238Y017639D01*
X008238Y017595D01*
X008238Y017289D01*
X008094Y017145D01*
X007244Y017145D01*
X007043Y017340D02*
X007007Y017303D01*
X006964Y017201D01*
X006964Y017089D01*
X006991Y017025D01*
X006819Y017025D01*
X006762Y017082D01*
X006657Y017187D01*
X006491Y017187D01*
X006509Y017205D01*
X006831Y017205D01*
X006913Y017287D01*
X006913Y017903D01*
X006900Y017916D01*
X006927Y017905D01*
X007045Y017905D01*
X007043Y017903D01*
X007043Y017340D01*
X007043Y017373D02*
X006913Y017373D01*
X006913Y017451D02*
X007043Y017451D01*
X007043Y017530D02*
X006913Y017530D01*
X006913Y017608D02*
X007043Y017608D01*
X007043Y017687D02*
X006913Y017687D01*
X006913Y017765D02*
X007043Y017765D01*
X007043Y017844D02*
X006913Y017844D01*
X006416Y018001D02*
X005593Y018001D01*
X005671Y017922D02*
X005803Y017922D01*
X005783Y017844D02*
X005750Y017844D01*
X005744Y017595D02*
X005144Y018195D01*
X005144Y018645D01*
X005694Y019195D01*
X005204Y019178D02*
X004484Y019178D01*
X004484Y019100D02*
X005204Y019100D01*
X005204Y019021D02*
X004484Y019021D01*
X004501Y018943D02*
X005188Y018943D01*
X005109Y018864D02*
X004579Y018864D01*
X004658Y018786D02*
X005031Y018786D01*
X004964Y018707D02*
X004724Y018707D01*
X004724Y018629D02*
X004964Y018629D01*
X004964Y018550D02*
X004724Y018550D01*
X004790Y018472D02*
X004899Y018472D01*
X004544Y018645D02*
X004544Y018195D01*
X004844Y017895D01*
X005144Y017895D01*
X005844Y017195D01*
X006244Y017195D01*
X006348Y017299D01*
X006348Y017595D01*
X006033Y017595D02*
X005744Y017595D01*
X005490Y017294D02*
X004499Y017294D01*
X004578Y017216D02*
X005096Y017216D01*
X005056Y017137D02*
X004656Y017137D01*
X004735Y017059D02*
X005056Y017059D01*
X005056Y016980D02*
X004813Y016980D01*
X004892Y016902D02*
X005056Y016902D01*
X004844Y016695D02*
X005443Y016695D01*
X005446Y016692D01*
X006647Y016692D01*
X007044Y016295D01*
X006894Y016045D02*
X007394Y016045D01*
X007544Y015795D02*
X007044Y015795D01*
X006785Y015900D02*
X006764Y015851D01*
X006764Y015739D01*
X006807Y015636D01*
X006886Y015557D01*
X006989Y015515D01*
X007100Y015515D01*
X007114Y015521D01*
X007114Y015489D01*
X007157Y015386D01*
X007198Y015345D01*
X007157Y015303D01*
X007114Y015201D01*
X007114Y015089D01*
X007157Y014986D01*
X007236Y014907D01*
X007339Y014865D01*
X007450Y014865D01*
X007553Y014907D01*
X007632Y014986D01*
X007661Y015057D01*
X007674Y015070D01*
X008436Y015832D01*
X008436Y014634D01*
X008518Y014552D01*
X009134Y014552D01*
X009194Y014612D01*
X009230Y014612D01*
X009285Y014667D01*
X009285Y014604D01*
X009216Y014535D01*
X008476Y014535D01*
X008406Y014605D01*
X007440Y014605D01*
X007358Y014523D01*
X007358Y013907D01*
X007440Y013825D01*
X007743Y013825D01*
X007743Y013585D01*
X007074Y013585D01*
X007114Y013625D01*
X007182Y013693D01*
X007218Y013781D01*
X007218Y013897D01*
X007228Y013907D01*
X007228Y014523D01*
X007146Y014605D01*
X006439Y014605D01*
X006474Y014689D01*
X006474Y014801D01*
X006461Y014832D01*
X006486Y014807D01*
X006589Y014765D01*
X006700Y014765D01*
X006803Y014807D01*
X006882Y014886D01*
X006924Y014989D01*
X006924Y015101D01*
X006882Y015203D01*
X006803Y015282D01*
X006700Y015325D01*
X006619Y015325D01*
X006331Y015612D01*
X005836Y015612D01*
X005836Y016197D01*
X006487Y016197D01*
X006714Y015970D01*
X006785Y015900D01*
X006777Y015881D02*
X005836Y015881D01*
X005836Y015803D02*
X006764Y015803D01*
X006770Y015724D02*
X005836Y015724D01*
X005836Y015646D02*
X006803Y015646D01*
X006876Y015567D02*
X006376Y015567D01*
X006455Y015489D02*
X007114Y015489D01*
X007147Y015410D02*
X006533Y015410D01*
X006612Y015332D02*
X007185Y015332D01*
X007136Y015253D02*
X006832Y015253D01*
X006893Y015175D02*
X007114Y015175D01*
X007114Y015096D02*
X006924Y015096D01*
X006924Y015018D02*
X007144Y015018D01*
X007204Y014939D02*
X006904Y014939D01*
X006856Y014861D02*
X008436Y014861D01*
X008436Y014939D02*
X007585Y014939D01*
X007645Y015018D02*
X008436Y015018D01*
X008436Y015096D02*
X007700Y015096D01*
X007779Y015175D02*
X008436Y015175D01*
X008436Y015253D02*
X007857Y015253D01*
X007936Y015332D02*
X008436Y015332D01*
X008436Y015410D02*
X008014Y015410D01*
X008093Y015489D02*
X008436Y015489D01*
X008436Y015567D02*
X008171Y015567D01*
X008250Y015646D02*
X008436Y015646D01*
X008436Y015724D02*
X008328Y015724D01*
X008407Y015803D02*
X008436Y015803D01*
X008412Y016062D02*
X007494Y015145D01*
X007394Y015145D01*
X007394Y015545D02*
X007594Y015545D01*
X008427Y016377D01*
X008826Y016377D01*
X008826Y016062D02*
X008412Y016062D01*
X008044Y016545D02*
X007394Y016545D01*
X006894Y016045D02*
X006562Y016377D01*
X005446Y016377D01*
X005428Y016395D01*
X004894Y016395D01*
X003044Y018245D01*
X003044Y018795D01*
X002994Y018845D01*
X001844Y018845D01*
X001544Y019145D01*
X001494Y019145D01*
X001809Y019178D02*
X001829Y019178D01*
X001829Y019257D02*
X001809Y019257D01*
X001809Y019335D02*
X001829Y019335D01*
X001891Y019414D02*
X001748Y019414D01*
X001844Y019492D02*
X001186Y019492D01*
X001204Y019571D02*
X001827Y019571D01*
X001827Y019649D02*
X001204Y019649D01*
X001204Y019728D02*
X001827Y019728D01*
X001827Y019806D02*
X001204Y019806D01*
X001204Y019885D02*
X001827Y019885D01*
X001866Y019963D02*
X001165Y019963D01*
X001164Y020042D02*
X001774Y020042D01*
X001754Y020120D02*
X001184Y020120D01*
X001184Y020199D02*
X001754Y020199D01*
X001754Y020277D02*
X001184Y020277D01*
X001184Y020356D02*
X001754Y020356D01*
X001754Y020434D02*
X001184Y020434D01*
X001184Y020513D02*
X001754Y020513D01*
X001754Y020591D02*
X001184Y020591D01*
X001142Y020670D02*
X001796Y020670D01*
X001499Y020827D02*
X002139Y020827D01*
X002104Y020905D02*
X001534Y020905D01*
X001534Y020984D02*
X002104Y020984D01*
X002104Y021062D02*
X001534Y021062D01*
X001534Y021141D02*
X002104Y021141D01*
X002104Y021219D02*
X001534Y021219D01*
X001602Y021298D02*
X002104Y021298D01*
X002104Y021376D02*
X001680Y021376D01*
X001644Y021595D02*
X006044Y021595D01*
X006194Y021745D01*
X006194Y022266D01*
X005762Y022698D01*
X006077Y022711D02*
X006164Y022711D01*
X006164Y022789D02*
X006077Y022789D01*
X006077Y022868D02*
X006126Y022868D01*
X006047Y022946D02*
X006037Y022946D01*
X005969Y023025D02*
X003814Y023025D01*
X003814Y023103D02*
X005890Y023103D01*
X005544Y023182D02*
X005381Y023182D01*
X005459Y023260D02*
X005465Y023260D01*
X005762Y023486D02*
X006344Y022904D01*
X006344Y021695D01*
X006094Y021445D01*
X002744Y021445D01*
X002444Y021145D01*
X002784Y021141D02*
X003304Y021141D01*
X003304Y021219D02*
X002784Y021219D01*
X002784Y021062D02*
X003304Y021062D01*
X003304Y020984D02*
X002784Y020984D01*
X002784Y020905D02*
X003311Y020905D01*
X003390Y020827D02*
X002749Y020827D01*
X002142Y020297D02*
X002094Y020345D01*
X002142Y020297D02*
X002142Y019717D01*
X002144Y019715D01*
X002144Y019145D01*
X002398Y019414D02*
X002491Y019414D01*
X002439Y019492D02*
X003504Y019492D01*
X003504Y019414D02*
X002998Y019414D01*
X003059Y019335D02*
X003504Y019335D01*
X003504Y019257D02*
X003163Y019257D01*
X003242Y019178D02*
X003504Y019178D01*
X003504Y019100D02*
X003320Y019100D01*
X003374Y019021D02*
X003504Y019021D01*
X003504Y018943D02*
X003374Y018943D01*
X003374Y018864D02*
X003504Y018864D01*
X003504Y018786D02*
X003374Y018786D01*
X003374Y018707D02*
X003534Y018707D01*
X003374Y018629D02*
X004306Y018629D01*
X004364Y018550D02*
X003374Y018550D01*
X003374Y018472D02*
X004299Y018472D01*
X004229Y018393D02*
X003400Y018393D01*
X003479Y018315D02*
X004229Y018315D01*
X004229Y018236D02*
X003557Y018236D01*
X003636Y018158D02*
X004229Y018158D01*
X004229Y018079D02*
X003714Y018079D01*
X003793Y018001D02*
X004229Y018001D01*
X004294Y017922D02*
X003871Y017922D01*
X003950Y017844D02*
X004641Y017844D01*
X004719Y017765D02*
X004028Y017765D01*
X004107Y017687D02*
X005098Y017687D01*
X005176Y017608D02*
X004185Y017608D01*
X004264Y017530D02*
X005255Y017530D01*
X005333Y017451D02*
X004342Y017451D01*
X004421Y017373D02*
X005412Y017373D01*
X005446Y017007D02*
X006582Y017007D01*
X006744Y016845D01*
X008044Y016845D01*
X008694Y017495D01*
X008826Y017007D02*
X008506Y017007D01*
X008044Y016545D01*
X008441Y016692D02*
X007544Y015795D01*
X006725Y015960D02*
X005836Y015960D01*
X005836Y016038D02*
X006646Y016038D01*
X006568Y016117D02*
X005836Y016117D01*
X005836Y016195D02*
X006489Y016195D01*
X006257Y015432D02*
X006644Y015045D01*
X006546Y014782D02*
X006474Y014782D01*
X006474Y014704D02*
X008436Y014704D01*
X008436Y014782D02*
X006742Y014782D01*
X006448Y014625D02*
X008445Y014625D01*
X008464Y014547D02*
X009228Y014547D01*
X009243Y014625D02*
X009285Y014625D01*
X009600Y015188D02*
X009600Y015789D01*
X009594Y015795D01*
X009894Y016079D02*
X010203Y016389D01*
X010143Y016074D02*
X010411Y016074D01*
X010432Y016095D01*
X012170Y016095D01*
X012194Y016071D01*
X012194Y014608D01*
X012240Y014498D01*
X012774Y013964D01*
X012885Y013918D01*
X014692Y013918D01*
X014599Y013825D01*
X014599Y013635D01*
X010784Y013635D01*
X010784Y013641D01*
X010898Y013641D01*
X010980Y013723D01*
X010980Y014005D01*
X011292Y014005D01*
X011389Y013965D01*
X011500Y013965D01*
X011603Y014007D01*
X011682Y014086D01*
X011724Y014189D01*
X011724Y014301D01*
X011682Y014403D01*
X011603Y014482D01*
X011500Y014525D01*
X011389Y014525D01*
X011292Y014485D01*
X010515Y014485D01*
X010515Y014801D01*
X010407Y014909D01*
X010074Y014909D01*
X010074Y016005D01*
X010143Y016074D01*
X010108Y016038D02*
X012194Y016038D01*
X012194Y015960D02*
X010074Y015960D01*
X010074Y015881D02*
X012194Y015881D01*
X012194Y015803D02*
X010074Y015803D01*
X010074Y015724D02*
X012194Y015724D01*
X012194Y015646D02*
X010074Y015646D01*
X010074Y015567D02*
X012194Y015567D01*
X012194Y015489D02*
X010074Y015489D01*
X010074Y015410D02*
X012194Y015410D01*
X012194Y015332D02*
X010074Y015332D01*
X010074Y015253D02*
X012194Y015253D01*
X012194Y015175D02*
X010074Y015175D01*
X010074Y015096D02*
X012194Y015096D01*
X012194Y015018D02*
X010074Y015018D01*
X010074Y014939D02*
X012194Y014939D01*
X012194Y014861D02*
X010455Y014861D01*
X010515Y014782D02*
X012194Y014782D01*
X012194Y014704D02*
X010515Y014704D01*
X010515Y014625D02*
X012194Y014625D01*
X012220Y014547D02*
X010515Y014547D01*
X010980Y013997D02*
X011310Y013997D01*
X010980Y013919D02*
X012883Y013919D01*
X012741Y013997D02*
X011578Y013997D01*
X011671Y014076D02*
X012662Y014076D01*
X012584Y014154D02*
X011710Y014154D01*
X011724Y014233D02*
X012505Y014233D01*
X012427Y014311D02*
X011720Y014311D01*
X011687Y014390D02*
X012348Y014390D01*
X012270Y014468D02*
X011617Y014468D01*
X010980Y013840D02*
X014614Y013840D01*
X014599Y013762D02*
X010980Y013762D01*
X010941Y013683D02*
X014599Y013683D01*
X015137Y013918D02*
X015229Y013825D01*
X015229Y013808D01*
X015329Y013808D01*
X015329Y013874D01*
X015441Y013985D01*
X016048Y013985D01*
X016159Y013874D01*
X016159Y013479D01*
X016240Y013559D01*
X016240Y013825D01*
X016332Y013918D01*
X016240Y014011D01*
X016240Y014425D01*
X016274Y014460D01*
X016274Y014630D01*
X015886Y014630D01*
X015804Y014712D01*
X015804Y014802D01*
X015779Y014777D01*
X015364Y014777D01*
X015256Y014884D01*
X015256Y014915D01*
X015209Y014915D01*
X015209Y014887D01*
X015102Y014780D01*
X014687Y014780D01*
X014579Y014887D01*
X014579Y015302D01*
X014672Y015395D01*
X014651Y015415D01*
X014650Y015415D01*
X014539Y015415D01*
X014436Y015457D01*
X014357Y015536D01*
X014314Y015639D01*
X014314Y015751D01*
X014357Y015853D01*
X014436Y015932D01*
X014539Y015975D01*
X014650Y015975D01*
X014651Y015974D01*
X014687Y016010D01*
X015102Y016010D01*
X015209Y015902D01*
X015209Y015487D01*
X015117Y015395D01*
X015209Y015302D01*
X015209Y015275D01*
X015256Y015275D01*
X015256Y015299D01*
X015364Y015407D01*
X015779Y015407D01*
X015856Y015330D01*
X015886Y015360D01*
X015918Y015360D01*
X015824Y015454D01*
X015824Y016065D01*
X013259Y016065D01*
X013251Y016058D01*
X013185Y016065D01*
X013182Y016065D01*
X013165Y016056D01*
X013135Y016065D01*
X013120Y016065D01*
X013113Y016071D01*
X013110Y016072D01*
X013093Y016074D01*
X013079Y016070D01*
X013067Y016076D01*
X013054Y016078D01*
X013045Y016088D01*
X013029Y016097D01*
X013012Y016102D01*
X012999Y016100D01*
X012988Y016109D01*
X012975Y016113D01*
X012968Y016125D01*
X012955Y016137D01*
X012939Y016145D01*
X012926Y016146D01*
X012917Y016157D01*
X012905Y016163D01*
X012901Y016177D01*
X012890Y016190D01*
X012876Y016201D01*
X012863Y016205D01*
X012856Y016217D01*
X012846Y016226D01*
X012844Y016240D01*
X012836Y016255D01*
X012825Y016269D01*
X012813Y016276D01*
X012809Y016289D01*
X012800Y016299D01*
X012801Y016313D01*
X012796Y016330D01*
X012794Y016334D01*
X012794Y014792D01*
X013068Y014518D01*
X014692Y014518D01*
X014707Y014533D01*
X015122Y014533D01*
X015229Y014425D01*
X015229Y014011D01*
X015137Y013918D01*
X015137Y013919D02*
X015375Y013919D01*
X015329Y013840D02*
X015214Y013840D01*
X015216Y013997D02*
X016253Y013997D01*
X016240Y014076D02*
X015229Y014076D01*
X015229Y014154D02*
X016240Y014154D01*
X016240Y014233D02*
X015229Y014233D01*
X015229Y014311D02*
X016240Y014311D01*
X016240Y014390D02*
X015229Y014390D01*
X015186Y014468D02*
X016274Y014468D01*
X016274Y014547D02*
X013040Y014547D01*
X012961Y014625D02*
X016274Y014625D01*
X016144Y014995D02*
X016047Y015092D01*
X015571Y015092D01*
X015568Y015095D01*
X014894Y015095D01*
X015180Y015332D02*
X015289Y015332D01*
X015132Y015410D02*
X015868Y015410D01*
X015858Y015332D02*
X015854Y015332D01*
X015824Y015489D02*
X015209Y015489D01*
X015209Y015567D02*
X015824Y015567D01*
X015824Y015646D02*
X015209Y015646D01*
X015209Y015724D02*
X015824Y015724D01*
X015824Y015803D02*
X015209Y015803D01*
X015209Y015881D02*
X015824Y015881D01*
X015824Y015960D02*
X015152Y015960D01*
X014894Y015695D02*
X014594Y015695D01*
X014336Y015803D02*
X012794Y015803D01*
X012794Y015881D02*
X014385Y015881D01*
X014502Y015960D02*
X012794Y015960D01*
X012794Y016038D02*
X015824Y016038D01*
X016670Y015430D02*
X016752Y015430D01*
X016825Y015503D01*
X017180Y015147D01*
X017180Y014872D01*
X017288Y014764D01*
X017703Y014764D01*
X017754Y014816D01*
X017754Y014397D01*
X017714Y014301D01*
X017714Y014189D01*
X017757Y014086D01*
X017836Y014007D01*
X017847Y014003D01*
X017763Y013920D01*
X017698Y013985D01*
X017091Y013985D01*
X016979Y013874D01*
X016979Y013808D01*
X016870Y013808D01*
X016870Y013825D01*
X016777Y013918D01*
X016870Y014011D01*
X016870Y014425D01*
X016762Y014533D01*
X016714Y014533D01*
X016714Y015386D01*
X016670Y015430D01*
X016690Y015410D02*
X016918Y015410D01*
X016996Y015332D02*
X016714Y015332D01*
X016714Y015253D02*
X017075Y015253D01*
X017153Y015175D02*
X016714Y015175D01*
X016714Y015096D02*
X017180Y015096D01*
X017180Y015018D02*
X016714Y015018D01*
X016714Y014939D02*
X017180Y014939D01*
X017191Y014861D02*
X016714Y014861D01*
X016714Y014782D02*
X017270Y014782D01*
X017721Y014782D02*
X017754Y014782D01*
X017754Y014704D02*
X016714Y014704D01*
X016714Y014625D02*
X017754Y014625D01*
X017754Y014547D02*
X016714Y014547D01*
X016827Y014468D02*
X017754Y014468D01*
X017751Y014390D02*
X016870Y014390D01*
X016870Y014311D02*
X017719Y014311D01*
X017714Y014233D02*
X016870Y014233D01*
X016870Y014154D02*
X017729Y014154D01*
X017767Y014076D02*
X016870Y014076D01*
X016857Y013997D02*
X017841Y013997D01*
X018236Y014393D02*
X018234Y014397D01*
X018234Y015228D01*
X018198Y015316D01*
X017835Y015679D01*
X017898Y015742D01*
X017934Y015830D01*
X017934Y017836D01*
X018382Y017836D01*
X018775Y017444D01*
X018947Y017372D01*
X019409Y017372D01*
X019405Y017365D01*
X019414Y017335D01*
X019414Y017320D01*
X019421Y017314D01*
X019422Y017311D01*
X019423Y017293D01*
X019419Y017280D01*
X019426Y017268D01*
X019427Y017254D01*
X019438Y017245D01*
X019446Y017230D01*
X019451Y017213D01*
X019450Y017199D01*
X019459Y017189D01*
X019463Y017176D01*
X019475Y017169D01*
X019486Y017155D01*
X019494Y017140D01*
X019496Y017126D01*
X019506Y017117D01*
X019513Y017105D01*
X019526Y017101D01*
X019540Y017090D01*
X019551Y017077D01*
X019555Y017063D01*
X019567Y017057D01*
X019576Y017046D01*
X019589Y017045D01*
X019605Y017037D01*
X019618Y017025D01*
X019625Y017013D01*
X019638Y017009D01*
X019649Y017000D01*
X019662Y017002D01*
X019679Y016997D01*
X019695Y016988D01*
X019704Y016978D01*
X019717Y016976D01*
X019729Y016970D01*
X019743Y016974D01*
X019760Y016972D01*
X019763Y016971D01*
X019770Y016965D01*
X019785Y016965D01*
X019815Y016956D01*
X019832Y016965D01*
X019835Y016965D01*
X019901Y016958D01*
X019909Y016965D01*
X020430Y016965D01*
X020438Y016958D01*
X020503Y016965D01*
X020507Y016965D01*
X020524Y016956D01*
X020554Y016965D01*
X020569Y016965D01*
X020575Y016971D01*
X020578Y016972D01*
X020596Y016974D01*
X020609Y016970D01*
X020621Y016976D01*
X020635Y016978D01*
X020644Y016988D01*
X020659Y016997D01*
X020676Y017002D01*
X020690Y017000D01*
X020700Y017009D01*
X020713Y017013D01*
X020720Y017025D01*
X020734Y017037D01*
X020749Y017045D01*
X020754Y017045D01*
X020754Y017037D01*
X020836Y016955D01*
X021624Y016955D01*
X021624Y015415D01*
X021121Y015415D01*
X021110Y015424D01*
X021049Y015417D01*
X021024Y015429D01*
X020984Y015415D01*
X020953Y015415D01*
X020950Y015412D01*
X020939Y015415D01*
X020919Y015402D01*
X020896Y015399D01*
X020882Y015382D01*
X020860Y015382D01*
X020843Y015365D01*
X020820Y015358D01*
X020811Y015337D01*
X020789Y015333D01*
X020777Y015312D01*
X020756Y015300D01*
X020752Y015278D01*
X020732Y015269D01*
X020724Y015246D01*
X020707Y015229D01*
X020707Y015207D01*
X020690Y015193D01*
X020687Y015170D01*
X020674Y015150D01*
X020677Y015139D01*
X020674Y015136D01*
X020674Y015105D01*
X020660Y015065D01*
X020672Y015040D01*
X020665Y014979D01*
X020674Y014968D01*
X020674Y014623D01*
X018540Y014623D01*
X018415Y014572D01*
X018236Y014393D01*
X018234Y014468D02*
X018312Y014468D01*
X018234Y014547D02*
X018390Y014547D01*
X018234Y014625D02*
X020674Y014625D01*
X020674Y014704D02*
X018234Y014704D01*
X018234Y014782D02*
X020674Y014782D01*
X020674Y014861D02*
X018234Y014861D01*
X018234Y014939D02*
X020674Y014939D01*
X020670Y015018D02*
X018234Y015018D01*
X018234Y015096D02*
X020671Y015096D01*
X020687Y015175D02*
X018234Y015175D01*
X018224Y015253D02*
X020726Y015253D01*
X020789Y015332D02*
X018182Y015332D01*
X018104Y015410D02*
X020932Y015410D01*
X021624Y015489D02*
X018025Y015489D01*
X017947Y015567D02*
X021624Y015567D01*
X021624Y015646D02*
X017868Y015646D01*
X017880Y015724D02*
X021624Y015724D01*
X021624Y015803D02*
X017923Y015803D01*
X017934Y015881D02*
X021624Y015881D01*
X021624Y015960D02*
X017934Y015960D01*
X017934Y016038D02*
X021624Y016038D01*
X021624Y016117D02*
X017934Y016117D01*
X017934Y016195D02*
X021624Y016195D01*
X021624Y016274D02*
X017934Y016274D01*
X017934Y016352D02*
X021624Y016352D01*
X021624Y016431D02*
X017934Y016431D01*
X017934Y016509D02*
X021624Y016509D01*
X021624Y016588D02*
X017934Y016588D01*
X017934Y016666D02*
X021624Y016666D01*
X021624Y016745D02*
X017934Y016745D01*
X017934Y016823D02*
X021624Y016823D01*
X021624Y016902D02*
X017934Y016902D01*
X017934Y016980D02*
X019701Y016980D01*
X019563Y017059D02*
X017934Y017059D01*
X017934Y017137D02*
X019495Y017137D01*
X019450Y017216D02*
X017934Y017216D01*
X017934Y017294D02*
X019423Y017294D01*
X019599Y017346D02*
X019594Y017395D01*
X019594Y019645D01*
X019589Y019694D01*
X019575Y019740D01*
X019552Y019784D01*
X019521Y019822D01*
X019483Y019853D01*
X019440Y019876D01*
X019393Y019890D01*
X019344Y019895D01*
X018944Y019895D01*
X018911Y019899D01*
X018879Y019910D01*
X018851Y019928D01*
X018827Y019951D01*
X018809Y019980D01*
X018798Y020011D01*
X018794Y020045D01*
X018794Y020170D01*
X018798Y020203D01*
X018809Y020235D01*
X018827Y020263D01*
X018851Y020287D01*
X018879Y020305D01*
X018911Y020316D01*
X018944Y020320D01*
X020494Y020320D01*
X020543Y020315D01*
X020590Y020301D01*
X020633Y020278D01*
X020671Y020247D01*
X020702Y020209D01*
X020725Y020165D01*
X020739Y020119D01*
X020740Y020112D01*
X020740Y019911D01*
X020744Y019907D01*
X020744Y019782D01*
X020740Y019777D01*
X020740Y019411D01*
X020744Y019407D01*
X020744Y017395D01*
X020739Y017346D01*
X020725Y017299D01*
X020702Y017256D01*
X020671Y017218D01*
X020633Y017187D01*
X020590Y017164D01*
X020543Y017150D01*
X020494Y017145D01*
X019844Y017145D01*
X019795Y017150D01*
X019749Y017164D01*
X019705Y017187D01*
X019667Y017218D01*
X019636Y017256D01*
X019613Y017299D01*
X019599Y017346D01*
X019596Y017373D02*
X020742Y017373D01*
X020744Y017451D02*
X019594Y017451D01*
X019594Y017530D02*
X020744Y017530D01*
X020744Y017608D02*
X019594Y017608D01*
X019594Y017687D02*
X020744Y017687D01*
X020744Y017765D02*
X019594Y017765D01*
X019594Y017844D02*
X020744Y017844D01*
X020744Y017922D02*
X019594Y017922D01*
X019594Y018001D02*
X020744Y018001D01*
X020744Y018079D02*
X019594Y018079D01*
X019594Y018158D02*
X020744Y018158D01*
X020744Y018236D02*
X019594Y018236D01*
X019594Y018315D02*
X020744Y018315D01*
X020744Y018393D02*
X019594Y018393D01*
X019594Y018472D02*
X020744Y018472D01*
X020744Y018550D02*
X019594Y018550D01*
X019594Y018629D02*
X020744Y018629D01*
X020744Y018707D02*
X019594Y018707D01*
X019594Y018786D02*
X020744Y018786D01*
X020744Y018864D02*
X019594Y018864D01*
X019594Y018943D02*
X020744Y018943D01*
X020744Y019021D02*
X019594Y019021D01*
X019594Y019100D02*
X020744Y019100D01*
X020744Y019178D02*
X019594Y019178D01*
X019594Y019257D02*
X020744Y019257D01*
X020744Y019335D02*
X019594Y019335D01*
X019594Y019414D02*
X020740Y019414D01*
X020740Y019492D02*
X019594Y019492D01*
X019594Y019571D02*
X020740Y019571D01*
X020740Y019649D02*
X019594Y019649D01*
X019579Y019728D02*
X020740Y019728D01*
X020744Y019806D02*
X019533Y019806D01*
X019410Y019885D02*
X020744Y019885D01*
X020740Y019963D02*
X018819Y019963D01*
X018795Y020042D02*
X020740Y020042D01*
X020739Y020120D02*
X018794Y020120D01*
X018797Y020199D02*
X020707Y020199D01*
X020633Y020277D02*
X018841Y020277D01*
X018623Y020277D02*
X018558Y020277D01*
X018606Y020199D02*
X018370Y020199D01*
X018214Y020199D02*
X017594Y020199D01*
X017594Y020277D02*
X018027Y020277D01*
X017977Y020356D02*
X017594Y020356D01*
X017594Y020434D02*
X017966Y020434D01*
X017952Y020513D02*
X017594Y020513D01*
X017594Y020591D02*
X017952Y020591D01*
X017952Y020670D02*
X017594Y020670D01*
X017594Y020748D02*
X017952Y020748D01*
X017952Y020827D02*
X017594Y020827D01*
X017594Y020905D02*
X017952Y020905D01*
X017952Y020984D02*
X017594Y020984D01*
X017594Y021062D02*
X017952Y021062D01*
X017952Y021141D02*
X017594Y021141D01*
X017594Y021219D02*
X017952Y021219D01*
X017968Y021298D02*
X017594Y021298D01*
X017594Y021376D02*
X018000Y021376D01*
X018073Y021455D02*
X017594Y021455D01*
X017594Y021533D02*
X018152Y021533D01*
X018230Y021612D02*
X017594Y021612D01*
X017594Y021690D02*
X018309Y021690D01*
X018354Y021769D02*
X017598Y021769D01*
X017597Y021847D02*
X018354Y021847D01*
X018354Y021926D02*
X017583Y021926D01*
X017553Y022004D02*
X018354Y022004D01*
X018354Y022083D02*
X017501Y022083D01*
X017424Y022161D02*
X018354Y022161D01*
X018354Y022240D02*
X017264Y022240D01*
X017257Y022240D02*
X017232Y022240D01*
X017193Y022040D02*
X017240Y022026D01*
X017283Y022003D01*
X017321Y021972D01*
X017352Y021934D01*
X017375Y021890D01*
X017389Y021844D01*
X017394Y021795D01*
X017394Y018545D01*
X017389Y018500D01*
X017374Y018458D01*
X017351Y018420D01*
X017319Y018388D01*
X017281Y018365D01*
X017239Y018350D01*
X017194Y018345D01*
X015844Y018345D01*
X015844Y019245D01*
X015839Y019294D01*
X015825Y019340D01*
X015802Y019384D01*
X015771Y019422D01*
X015733Y019453D01*
X015690Y019476D01*
X015643Y019490D01*
X015594Y019495D01*
X015094Y019495D01*
X015045Y019500D01*
X014999Y019514D01*
X014955Y019537D01*
X014917Y019568D01*
X014886Y019606D01*
X014863Y019649D01*
X014849Y019696D01*
X014844Y019745D01*
X014844Y021462D01*
X014853Y021563D01*
X014879Y021661D01*
X014922Y021753D01*
X014981Y021837D01*
X015053Y021908D01*
X015136Y021967D01*
X015228Y022010D01*
X015326Y022036D01*
X015427Y022045D01*
X017144Y022045D01*
X017193Y022040D01*
X017280Y022004D02*
X015217Y022004D01*
X015077Y021926D02*
X017356Y021926D01*
X017388Y021847D02*
X014991Y021847D01*
X014933Y021769D02*
X017394Y021769D01*
X017394Y021690D02*
X014893Y021690D01*
X014866Y021612D02*
X017394Y021612D01*
X017394Y021533D02*
X014850Y021533D01*
X014844Y021455D02*
X017394Y021455D01*
X017394Y021376D02*
X014844Y021376D01*
X014844Y021298D02*
X017394Y021298D01*
X017394Y021219D02*
X014844Y021219D01*
X014844Y021141D02*
X017394Y021141D01*
X017394Y021062D02*
X014844Y021062D01*
X014844Y020984D02*
X017394Y020984D01*
X017394Y020905D02*
X014844Y020905D01*
X014844Y020827D02*
X017394Y020827D01*
X017394Y020748D02*
X014844Y020748D01*
X014844Y020670D02*
X017394Y020670D01*
X017394Y020591D02*
X014844Y020591D01*
X014844Y020513D02*
X017394Y020513D01*
X017394Y020434D02*
X014844Y020434D01*
X014844Y020356D02*
X017394Y020356D01*
X017394Y020277D02*
X014844Y020277D01*
X014844Y020199D02*
X017394Y020199D01*
X017394Y020120D02*
X014844Y020120D01*
X014844Y020042D02*
X017394Y020042D01*
X017394Y019963D02*
X014844Y019963D01*
X014844Y019885D02*
X017394Y019885D01*
X017394Y019806D02*
X014844Y019806D01*
X014846Y019728D02*
X017394Y019728D01*
X017394Y019649D02*
X014863Y019649D01*
X014915Y019571D02*
X017394Y019571D01*
X017394Y019492D02*
X015619Y019492D01*
X015777Y019414D02*
X017394Y019414D01*
X017394Y019335D02*
X015827Y019335D01*
X015843Y019257D02*
X017394Y019257D01*
X017394Y019178D02*
X015844Y019178D01*
X015844Y019100D02*
X017394Y019100D01*
X017394Y019021D02*
X015844Y019021D01*
X015844Y018943D02*
X017394Y018943D01*
X017394Y018864D02*
X015844Y018864D01*
X015844Y018786D02*
X017394Y018786D01*
X017394Y018707D02*
X015844Y018707D01*
X015844Y018629D02*
X017394Y018629D01*
X017394Y018550D02*
X015844Y018550D01*
X015844Y018472D02*
X017379Y018472D01*
X017324Y018393D02*
X015844Y018393D01*
X017144Y018045D02*
X017193Y018040D01*
X017240Y018026D01*
X017283Y018003D01*
X017321Y017972D01*
X017352Y017934D01*
X017375Y017890D01*
X017389Y017844D01*
X012949Y017844D01*
X012963Y017890D01*
X012986Y017934D01*
X013017Y017972D01*
X013055Y018003D01*
X013099Y018026D01*
X013145Y018040D01*
X013194Y018045D01*
X017144Y018045D01*
X017285Y018001D02*
X013053Y018001D01*
X012980Y017922D02*
X017358Y017922D01*
X017389Y017844D02*
X017394Y017795D01*
X017394Y016495D01*
X017389Y016446D01*
X017375Y016399D01*
X017352Y016356D01*
X017321Y016318D01*
X017283Y016287D01*
X017240Y016264D01*
X017193Y016250D01*
X017144Y016245D01*
X013194Y016245D01*
X013166Y016248D01*
X013100Y016275D01*
X013078Y016275D01*
X013055Y016287D01*
X013017Y016318D01*
X012986Y016356D01*
X012963Y016399D01*
X012949Y016446D01*
X012944Y016495D01*
X012944Y017795D01*
X012949Y017844D01*
X012944Y017765D02*
X017394Y017765D01*
X017394Y017687D02*
X012944Y017687D01*
X012944Y017608D02*
X017394Y017608D01*
X017394Y017530D02*
X012944Y017530D01*
X012944Y017451D02*
X017394Y017451D01*
X017394Y017373D02*
X012944Y017373D01*
X012944Y017294D02*
X017394Y017294D01*
X017394Y017216D02*
X012944Y017216D01*
X012944Y017137D02*
X017394Y017137D01*
X017394Y017059D02*
X012944Y017059D01*
X012944Y016980D02*
X017394Y016980D01*
X017394Y016902D02*
X012944Y016902D01*
X012944Y016823D02*
X017394Y016823D01*
X017394Y016745D02*
X012944Y016745D01*
X012944Y016666D02*
X017394Y016666D01*
X017394Y016588D02*
X012944Y016588D01*
X012944Y016509D02*
X017394Y016509D01*
X017385Y016431D02*
X012954Y016431D01*
X012989Y016352D02*
X017349Y016352D01*
X017259Y016274D02*
X013102Y016274D01*
X012973Y016117D02*
X012794Y016117D01*
X012794Y016195D02*
X012883Y016195D01*
X012816Y016274D02*
X012794Y016274D01*
X012794Y015724D02*
X014314Y015724D01*
X014314Y015646D02*
X012794Y015646D01*
X012794Y015567D02*
X014344Y015567D01*
X014404Y015489D02*
X012794Y015489D01*
X012794Y015410D02*
X014656Y015410D01*
X014609Y015332D02*
X012794Y015332D01*
X012794Y015253D02*
X014579Y015253D01*
X014579Y015175D02*
X012794Y015175D01*
X012794Y015096D02*
X014579Y015096D01*
X014579Y015018D02*
X012794Y015018D01*
X012794Y014939D02*
X014579Y014939D01*
X014606Y014861D02*
X012794Y014861D01*
X012804Y014782D02*
X014684Y014782D01*
X015104Y014782D02*
X015359Y014782D01*
X015280Y014861D02*
X015183Y014861D01*
X015784Y014782D02*
X015804Y014782D01*
X015812Y014704D02*
X012883Y014704D01*
X011437Y012977D02*
X015114Y012977D01*
X015114Y012898D02*
X011469Y012898D01*
X011484Y012820D02*
X012802Y012820D01*
X012780Y012741D02*
X011484Y012741D01*
X011484Y012663D02*
X012780Y012663D01*
X012780Y012584D02*
X011484Y012584D01*
X011484Y012506D02*
X012780Y012506D01*
X012780Y012427D02*
X011484Y012427D01*
X011452Y012349D02*
X012780Y012349D01*
X012780Y012270D02*
X011401Y012270D01*
X011322Y012192D02*
X012780Y012192D01*
X012780Y012113D02*
X011244Y012113D01*
X011165Y012035D02*
X012780Y012035D01*
X012780Y011956D02*
X011087Y011956D01*
X011008Y011878D02*
X012824Y011878D01*
X011882Y011799D02*
X010930Y011799D01*
X010851Y011721D02*
X011815Y011721D01*
X011815Y011642D02*
X007890Y011642D01*
X007968Y011564D02*
X011815Y011564D01*
X011815Y011485D02*
X008047Y011485D01*
X008125Y011407D02*
X011815Y011407D01*
X011815Y011328D02*
X008204Y011328D01*
X008282Y011250D02*
X011815Y011250D01*
X011815Y011171D02*
X008361Y011171D01*
X008439Y011093D02*
X011815Y011093D01*
X011815Y011014D02*
X008518Y011014D01*
X008596Y010936D02*
X011815Y010936D01*
X011815Y010857D02*
X008675Y010857D01*
X008753Y010779D02*
X011815Y010779D01*
X011815Y010700D02*
X008832Y010700D01*
X008910Y010622D02*
X010604Y010622D01*
X010643Y010661D02*
X010561Y010579D01*
X010561Y010203D01*
X010570Y010194D01*
X010561Y010186D01*
X010561Y009810D01*
X010570Y009801D01*
X010561Y009792D01*
X010561Y009416D01*
X010570Y009407D01*
X010561Y009398D01*
X010561Y009022D01*
X010570Y009013D01*
X010561Y009004D01*
X010561Y008628D01*
X010570Y008620D01*
X010561Y008611D01*
X010561Y008235D01*
X010570Y008226D01*
X010561Y008217D01*
X010561Y007875D01*
X010184Y007875D01*
X010184Y007953D01*
X010561Y007953D01*
X010561Y008031D02*
X010106Y008031D01*
X010102Y008035D02*
X009486Y008035D01*
X009404Y007953D01*
X009404Y007337D01*
X009486Y007255D01*
X010102Y007255D01*
X010184Y007337D01*
X010184Y007395D01*
X010561Y007395D01*
X010561Y007054D01*
X010570Y007045D01*
X010561Y007036D01*
X010561Y006660D01*
X010643Y006578D01*
X011519Y006578D01*
X011601Y006660D01*
X011601Y007036D01*
X011592Y007045D01*
X011601Y007054D01*
X011601Y007430D01*
X011592Y007439D01*
X011601Y007447D01*
X011601Y007823D01*
X011592Y007832D01*
X011601Y007841D01*
X011601Y008217D01*
X011592Y008226D01*
X011601Y008235D01*
X011601Y008611D01*
X011592Y008620D01*
X011601Y008628D01*
X011601Y009004D01*
X011592Y009013D01*
X011601Y009022D01*
X011601Y009398D01*
X011592Y009407D01*
X011601Y009416D01*
X011601Y009792D01*
X011592Y009801D01*
X011601Y009810D01*
X011601Y010186D01*
X011592Y010194D01*
X011601Y010203D01*
X011601Y010579D01*
X011519Y010661D01*
X010643Y010661D01*
X010561Y010543D02*
X008989Y010543D01*
X009067Y010465D02*
X010561Y010465D01*
X010561Y010386D02*
X009146Y010386D01*
X009224Y010308D02*
X010561Y010308D01*
X010561Y010229D02*
X009303Y010229D01*
X009324Y010151D02*
X010561Y010151D01*
X010561Y010072D02*
X009324Y010072D01*
X009324Y009994D02*
X010561Y009994D01*
X010561Y009915D02*
X009324Y009915D01*
X009324Y009837D02*
X010561Y009837D01*
X010561Y009758D02*
X009324Y009758D01*
X009324Y009680D02*
X010561Y009680D01*
X010561Y009601D02*
X009324Y009601D01*
X009324Y009523D02*
X010561Y009523D01*
X010561Y009444D02*
X009324Y009444D01*
X009324Y009366D02*
X010561Y009366D01*
X010561Y009287D02*
X009324Y009287D01*
X009324Y009209D02*
X010561Y009209D01*
X010561Y009130D02*
X009324Y009130D01*
X009324Y009052D02*
X010561Y009052D01*
X010561Y008973D02*
X009324Y008973D01*
X009324Y008895D02*
X010561Y008895D01*
X010561Y008816D02*
X009324Y008816D01*
X009324Y008738D02*
X010561Y008738D01*
X010561Y008659D02*
X009324Y008659D01*
X009324Y008581D02*
X010561Y008581D01*
X010561Y008502D02*
X009324Y008502D01*
X009324Y008424D02*
X010561Y008424D01*
X010561Y008345D02*
X009324Y008345D01*
X009324Y008267D02*
X010561Y008267D01*
X010561Y008188D02*
X009324Y008188D01*
X009324Y008110D02*
X010561Y008110D01*
X010184Y007953D02*
X010102Y008035D01*
X009483Y008031D02*
X009324Y008031D01*
X009324Y007953D02*
X009404Y007953D01*
X009404Y007874D02*
X009324Y007874D01*
X009324Y007796D02*
X009404Y007796D01*
X009404Y007717D02*
X009324Y007717D01*
X009324Y007639D02*
X009404Y007639D01*
X009404Y007560D02*
X009324Y007560D01*
X009324Y007482D02*
X009404Y007482D01*
X009404Y007403D02*
X009324Y007403D01*
X009324Y007325D02*
X009416Y007325D01*
X009324Y007246D02*
X010561Y007246D01*
X010561Y007168D02*
X009324Y007168D01*
X009324Y007089D02*
X010561Y007089D01*
X010561Y007011D02*
X009324Y007011D01*
X009324Y006932D02*
X010561Y006932D01*
X010561Y006854D02*
X009324Y006854D01*
X009324Y006775D02*
X010561Y006775D01*
X010561Y006697D02*
X009324Y006697D01*
X009324Y006618D02*
X010603Y006618D01*
X010617Y006304D02*
X009881Y006304D01*
X009508Y006304D02*
X009324Y006304D01*
X009324Y006226D02*
X009445Y006226D01*
X009414Y006147D02*
X009324Y006147D01*
X009324Y006069D02*
X009414Y006069D01*
X009434Y005990D02*
X009324Y005990D01*
X009324Y005912D02*
X009481Y005912D01*
X009594Y005833D02*
X009324Y005833D01*
X009324Y005755D02*
X009359Y005755D01*
X009144Y005545D02*
X009144Y010133D01*
X007733Y011545D01*
X005194Y011545D01*
X005094Y011645D01*
X005094Y012139D01*
X005081Y012152D01*
X004705Y012349D02*
X003886Y012349D01*
X003502Y012349D02*
X002334Y012349D01*
X002334Y012427D02*
X004705Y012427D01*
X004705Y012506D02*
X002334Y012506D01*
X002334Y012584D02*
X004705Y012584D01*
X004745Y012663D02*
X002334Y012663D01*
X002334Y012741D02*
X004667Y012741D01*
X004588Y012820D02*
X002334Y012820D01*
X002334Y012898D02*
X004510Y012898D01*
X004431Y012977D02*
X002334Y012977D01*
X001654Y012977D02*
X000774Y012977D01*
X000774Y013055D02*
X001654Y013055D01*
X001654Y013134D02*
X000774Y013134D01*
X000774Y013212D02*
X001654Y013212D01*
X001654Y013291D02*
X000774Y013291D01*
X000774Y013369D02*
X001654Y013369D01*
X001654Y013448D02*
X000774Y013448D01*
X000774Y013526D02*
X001654Y013526D01*
X001654Y013605D02*
X000774Y013605D01*
X000774Y013683D02*
X001654Y013683D01*
X001654Y013762D02*
X000774Y013762D01*
X000774Y013840D02*
X001654Y013840D01*
X001654Y013919D02*
X000774Y013919D01*
X000774Y013997D02*
X001654Y013997D01*
X001654Y014076D02*
X000774Y014076D01*
X000774Y014154D02*
X001654Y014154D01*
X001654Y014233D02*
X000774Y014233D01*
X000774Y014311D02*
X001654Y014311D01*
X001654Y014390D02*
X000774Y014390D01*
X000774Y014468D02*
X001654Y014468D01*
X001654Y014547D02*
X000774Y014547D01*
X000774Y014625D02*
X001654Y014625D01*
X001654Y014704D02*
X000774Y014704D01*
X000774Y014782D02*
X001654Y014782D01*
X001654Y014851D02*
X001654Y011487D01*
X001297Y011130D01*
X001166Y011130D01*
X000979Y011052D01*
X000835Y010909D01*
X000774Y010761D01*
X000774Y018170D01*
X000834Y018230D01*
X001102Y018230D01*
X001194Y018322D01*
X001287Y018230D01*
X001702Y018230D01*
X001809Y018337D01*
X001809Y018355D01*
X001825Y018355D01*
X001825Y018330D01*
X001933Y018222D01*
X001950Y018222D01*
X001950Y018007D01*
X002384Y017573D01*
X002369Y017558D01*
X002369Y017136D01*
X002480Y017025D01*
X002402Y017025D01*
X002212Y016835D01*
X002190Y016857D01*
X001768Y016857D01*
X001469Y016558D01*
X001469Y016136D01*
X001748Y015857D01*
X001668Y015857D01*
X001369Y015558D01*
X001369Y015136D01*
X001654Y014851D01*
X001644Y014861D02*
X000774Y014861D01*
X000774Y014939D02*
X001565Y014939D01*
X001487Y015018D02*
X000774Y015018D01*
X000774Y015096D02*
X001408Y015096D01*
X001369Y015175D02*
X000774Y015175D01*
X000774Y015253D02*
X001369Y015253D01*
X001369Y015332D02*
X000774Y015332D01*
X000774Y015410D02*
X001369Y015410D01*
X001369Y015489D02*
X000774Y015489D01*
X000774Y015567D02*
X001378Y015567D01*
X001456Y015646D02*
X000774Y015646D01*
X000774Y015724D02*
X001535Y015724D01*
X001613Y015803D02*
X000774Y015803D01*
X000774Y015881D02*
X001723Y015881D01*
X001645Y015960D02*
X000774Y015960D01*
X000774Y016038D02*
X001566Y016038D01*
X001488Y016117D02*
X000774Y016117D01*
X000774Y016195D02*
X001469Y016195D01*
X001469Y016274D02*
X000774Y016274D01*
X000774Y016352D02*
X001469Y016352D01*
X001469Y016431D02*
X000774Y016431D01*
X000774Y016509D02*
X001469Y016509D01*
X001498Y016588D02*
X000774Y016588D01*
X000774Y016666D02*
X001577Y016666D01*
X001655Y016745D02*
X000774Y016745D01*
X000774Y016823D02*
X001734Y016823D01*
X001979Y016347D02*
X002477Y016845D01*
X003394Y016845D01*
X005122Y015117D01*
X005446Y015117D01*
X005468Y015095D02*
X005894Y015095D01*
X005944Y015045D01*
X006257Y015432D02*
X005446Y015432D01*
X005446Y014802D02*
X005187Y014802D01*
X004592Y015397D01*
X002929Y015397D01*
X002879Y015347D01*
X003271Y015018D02*
X004717Y015018D01*
X004795Y014939D02*
X003192Y014939D01*
X003114Y014861D02*
X004874Y014861D01*
X004952Y014782D02*
X002661Y014782D01*
X002668Y014837D02*
X002574Y014931D01*
X002574Y014869D01*
X002869Y014575D01*
X005115Y014575D01*
X005056Y014634D01*
X005056Y014679D01*
X004517Y015217D01*
X003389Y015217D01*
X003389Y015136D01*
X003090Y014837D01*
X002668Y014837D01*
X002644Y014861D02*
X002583Y014861D01*
X002394Y014795D02*
X002794Y014395D01*
X005933Y014395D01*
X006033Y014295D01*
X006033Y014356D01*
X006033Y014295D02*
X006033Y014215D01*
X005065Y014625D02*
X002818Y014625D01*
X002740Y014704D02*
X005031Y014704D01*
X004638Y015096D02*
X003349Y015096D01*
X003389Y015175D02*
X004560Y015175D01*
X004827Y016062D02*
X004794Y016095D01*
X004827Y016062D02*
X005446Y016062D01*
X004844Y016695D02*
X003194Y018345D01*
X003194Y018971D01*
X003021Y019145D01*
X002744Y019145D01*
X002457Y019571D02*
X003504Y019571D01*
X003504Y019649D02*
X002457Y019649D01*
X002457Y019728D02*
X003579Y019728D01*
X003801Y020042D02*
X004934Y020042D01*
X004856Y020120D02*
X003879Y020120D01*
X003884Y020199D02*
X004847Y020199D01*
X004847Y020277D02*
X003884Y020277D01*
X003884Y020356D02*
X004847Y020356D01*
X004810Y020434D02*
X003938Y020434D01*
X003894Y020645D02*
X004854Y020645D01*
X005162Y020336D01*
X005390Y020042D02*
X005534Y020042D01*
X005762Y020336D02*
X005744Y020354D01*
X006077Y020356D02*
X012464Y020356D01*
X012464Y020434D02*
X006077Y020434D01*
X006077Y020513D02*
X012464Y020513D01*
X012464Y020591D02*
X006054Y020591D01*
X006074Y020670D02*
X012464Y020670D01*
X012464Y020748D02*
X006074Y020748D01*
X006043Y020827D02*
X012464Y020827D01*
X012464Y020905D02*
X012096Y020905D01*
X012194Y020984D02*
X012464Y020984D01*
X012464Y021062D02*
X012258Y021062D01*
X012298Y021141D02*
X012464Y021141D01*
X012464Y021219D02*
X012323Y021219D01*
X012325Y021298D02*
X012464Y021298D01*
X012463Y021376D02*
X012324Y021376D01*
X012324Y021455D02*
X012464Y021455D01*
X012464Y021533D02*
X012324Y021533D01*
X012324Y021612D02*
X012479Y021612D01*
X012502Y021690D02*
X012324Y021690D01*
X012324Y021769D02*
X012531Y021769D01*
X012575Y021847D02*
X012324Y021847D01*
X012324Y021926D02*
X012628Y021926D01*
X012696Y022008D02*
X012744Y022042D01*
X012785Y022083D01*
X012857Y022161D02*
X012922Y022161D01*
X012949Y022240D02*
X013733Y022240D01*
X013812Y022318D02*
X013013Y022318D01*
X013052Y022397D02*
X013890Y022397D01*
X013969Y022475D02*
X013074Y022475D01*
X013076Y022554D02*
X014047Y022554D01*
X014126Y022632D02*
X013074Y022632D01*
X013074Y022711D02*
X014204Y022711D01*
X014283Y022789D02*
X013074Y022789D01*
X013074Y022868D02*
X014361Y022868D01*
X014440Y022946D02*
X013074Y022946D01*
X013074Y023025D02*
X014518Y023025D01*
X014597Y023103D02*
X013074Y023103D01*
X013074Y023182D02*
X014675Y023182D01*
X014689Y023260D02*
X013074Y023260D01*
X013074Y023339D02*
X014689Y023339D01*
X014689Y023417D02*
X013074Y023417D01*
X013074Y023496D02*
X014689Y023496D01*
X014689Y023574D02*
X013074Y023574D01*
X013074Y023653D02*
X014767Y023653D01*
X015837Y023653D02*
X016750Y023653D01*
X016716Y022475D02*
X015875Y022475D01*
X015417Y022397D02*
X018354Y022397D01*
X018354Y022475D02*
X017858Y022475D01*
X017899Y022554D02*
X018354Y022554D01*
X018383Y022632D02*
X017899Y022632D01*
X017899Y022711D02*
X018407Y022711D01*
X018407Y022789D02*
X017899Y022789D01*
X017899Y022868D02*
X018407Y022868D01*
X018407Y022946D02*
X017899Y022946D01*
X017899Y023025D02*
X018407Y023025D01*
X018407Y023103D02*
X017899Y023103D01*
X017899Y023182D02*
X018407Y023182D01*
X018407Y023260D02*
X017899Y023260D01*
X017899Y023339D02*
X018407Y023339D01*
X018407Y023417D02*
X017899Y023417D01*
X017899Y023496D02*
X018407Y023496D01*
X018407Y023574D02*
X017899Y023574D01*
X017824Y023653D02*
X018482Y023653D01*
X019556Y023653D02*
X020645Y023653D01*
X020567Y023731D02*
X013075Y023731D01*
X013076Y023810D02*
X020488Y023810D01*
X020410Y023888D02*
X013066Y023888D01*
X013040Y023967D02*
X020331Y023967D01*
X020253Y024045D02*
X012996Y024045D01*
X012934Y024124D02*
X020174Y024124D01*
X019631Y023574D02*
X020724Y023574D01*
X020802Y023496D02*
X019631Y023496D01*
X019631Y023417D02*
X020881Y023417D01*
X020959Y023339D02*
X019631Y023339D01*
X019631Y023260D02*
X021038Y023260D01*
X021116Y023182D02*
X019631Y023182D01*
X019631Y023103D02*
X021195Y023103D01*
X021273Y023025D02*
X019631Y023025D01*
X019631Y022946D02*
X021352Y022946D01*
X021430Y022868D02*
X019631Y022868D01*
X019631Y022789D02*
X021509Y022789D01*
X021587Y022711D02*
X019631Y022711D01*
X019631Y022632D02*
X021666Y022632D01*
X021744Y022554D02*
X019631Y022554D01*
X019590Y022475D02*
X021823Y022475D01*
X021901Y022397D02*
X019077Y022397D01*
X019034Y022318D02*
X021980Y022318D01*
X022058Y022240D02*
X019034Y022240D01*
X019034Y022161D02*
X022137Y022161D01*
X022215Y022083D02*
X020656Y022083D01*
X020717Y022004D02*
X022294Y022004D01*
X022372Y021926D02*
X020717Y021926D01*
X020717Y021847D02*
X022451Y021847D01*
X022529Y021769D02*
X020717Y021769D01*
X020717Y021690D02*
X022608Y021690D01*
X022686Y021612D02*
X020717Y021612D01*
X020644Y021533D02*
X022765Y021533D01*
X022843Y021455D02*
X020592Y021455D01*
X020592Y021376D02*
X022922Y021376D01*
X023000Y021298D02*
X021600Y021298D01*
X021620Y021219D02*
X023079Y021219D01*
X023157Y021141D02*
X021620Y021141D01*
X021620Y021062D02*
X023233Y021062D01*
X023233Y020984D02*
X021620Y020984D01*
X021614Y020905D02*
X023233Y020905D01*
X023233Y020827D02*
X021571Y020827D01*
X021620Y020748D02*
X023233Y020748D01*
X023233Y020670D02*
X021620Y020670D01*
X021620Y020591D02*
X023233Y020591D01*
X023233Y020513D02*
X021620Y020513D01*
X021620Y020434D02*
X021702Y020434D01*
X021624Y020356D02*
X021564Y020356D01*
X022144Y020434D02*
X023233Y020434D01*
X023233Y020356D02*
X022222Y020356D01*
X022238Y020277D02*
X023233Y020277D01*
X023233Y020199D02*
X022238Y020199D01*
X022238Y020120D02*
X023233Y020120D01*
X023233Y020042D02*
X022238Y020042D01*
X022238Y019963D02*
X023233Y019963D01*
X023233Y019885D02*
X022198Y019885D01*
X022152Y019806D02*
X022278Y019806D01*
X022752Y019806D02*
X023233Y019806D01*
X023233Y019728D02*
X022830Y019728D01*
X022830Y019649D02*
X023233Y019649D01*
X023233Y019571D02*
X022830Y019571D01*
X022830Y019492D02*
X023233Y019492D01*
X023233Y019414D02*
X022830Y019414D01*
X022830Y019335D02*
X023233Y019335D01*
X023233Y019257D02*
X022773Y019257D01*
X022715Y019178D02*
X023233Y019178D01*
X023233Y019100D02*
X022715Y019100D01*
X022715Y019021D02*
X023233Y019021D01*
X023233Y018943D02*
X022715Y018943D01*
X022715Y018864D02*
X023233Y018864D01*
X023233Y018786D02*
X022715Y018786D01*
X022961Y018707D02*
X023233Y018707D01*
X023233Y018629D02*
X023102Y018629D01*
X023163Y018550D02*
X023233Y018550D01*
X023233Y018472D02*
X023201Y018472D01*
X023218Y018393D02*
X023233Y018393D01*
X023233Y018315D02*
X023219Y018315D01*
X023214Y018236D02*
X023233Y018236D01*
X023233Y018158D02*
X023214Y018158D01*
X023214Y018079D02*
X023233Y018079D01*
X023233Y018001D02*
X023214Y018001D01*
X023214Y017922D02*
X023233Y017922D01*
X023233Y017844D02*
X023214Y017844D01*
X023214Y017765D02*
X023233Y017765D01*
X023233Y017687D02*
X023214Y017687D01*
X023214Y017608D02*
X023233Y017608D01*
X023233Y017530D02*
X023214Y017530D01*
X023214Y017451D02*
X023233Y017451D01*
X023233Y017373D02*
X023214Y017373D01*
X023214Y017294D02*
X023233Y017294D01*
X023233Y017216D02*
X023214Y017216D01*
X023214Y017137D02*
X023233Y017137D01*
X023233Y017059D02*
X023214Y017059D01*
X023214Y016980D02*
X023233Y016980D01*
X023233Y016902D02*
X023214Y016902D01*
X023214Y016823D02*
X023233Y016823D01*
X023233Y016745D02*
X023214Y016745D01*
X023214Y016666D02*
X023233Y016666D01*
X023233Y016588D02*
X023214Y016588D01*
X023214Y016509D02*
X023233Y016509D01*
X023233Y016431D02*
X023214Y016431D01*
X023214Y016352D02*
X023233Y016352D01*
X023233Y016274D02*
X023214Y016274D01*
X023214Y016195D02*
X023233Y016195D01*
X023233Y016117D02*
X023214Y016117D01*
X023214Y016038D02*
X023233Y016038D01*
X023233Y015960D02*
X023214Y015960D01*
X023214Y015881D02*
X023233Y015881D01*
X023233Y015803D02*
X023214Y015803D01*
X023214Y015724D02*
X023233Y015724D01*
X023233Y015646D02*
X023214Y015646D01*
X023214Y015567D02*
X023233Y015567D01*
X023233Y015489D02*
X023214Y015489D01*
X023214Y015410D02*
X023233Y015410D01*
X023233Y015332D02*
X023214Y015332D01*
X023214Y015253D02*
X023233Y015253D01*
X023233Y015175D02*
X023214Y015175D01*
X023214Y015096D02*
X023233Y015096D01*
X023233Y015018D02*
X023214Y015018D01*
X023214Y014939D02*
X023233Y014939D01*
X023233Y014861D02*
X023214Y014861D01*
X023214Y014782D02*
X023233Y014782D01*
X023233Y014704D02*
X023214Y014704D01*
X023214Y014625D02*
X023233Y014625D01*
X023233Y014547D02*
X023214Y014547D01*
X023214Y014468D02*
X023233Y014468D01*
X023233Y014390D02*
X023214Y014390D01*
X023217Y014311D02*
X023233Y014311D01*
X023233Y014233D02*
X023214Y014233D01*
X023200Y014154D02*
X023233Y014154D01*
X023233Y014076D02*
X023159Y014076D01*
X023233Y013997D02*
X023075Y013997D01*
X023233Y013919D02*
X022887Y013919D01*
X022848Y013919D02*
X022804Y013919D01*
X022775Y013919D02*
X021114Y013919D01*
X021085Y013919D02*
X021041Y013919D01*
X021001Y013919D02*
X018724Y013919D01*
X018646Y013840D02*
X023233Y013840D01*
X023233Y013762D02*
X018567Y013762D01*
X018489Y013683D02*
X023233Y013683D01*
X023233Y013605D02*
X018410Y013605D01*
X018332Y013526D02*
X023233Y013526D01*
X023233Y013448D02*
X018253Y013448D01*
X018019Y012970D02*
X018819Y012970D01*
X018969Y012820D01*
X018969Y012374D01*
X018955Y012360D01*
X019225Y012349D02*
X019991Y012349D01*
X020069Y012270D02*
X019225Y012270D01*
X019225Y012192D02*
X020148Y012192D01*
X020226Y012113D02*
X019225Y012113D01*
X019225Y012035D02*
X020305Y012035D01*
X020383Y011956D02*
X019225Y011956D01*
X019181Y011878D02*
X020462Y011878D01*
X020540Y011799D02*
X019903Y011799D01*
X019969Y011721D02*
X020619Y011721D01*
X020697Y011642D02*
X019969Y011642D01*
X019969Y011564D02*
X020776Y011564D01*
X020854Y011485D02*
X019969Y011485D01*
X019969Y011407D02*
X020914Y011407D01*
X020914Y011328D02*
X019969Y011328D01*
X019969Y011250D02*
X020914Y011250D01*
X020914Y011171D02*
X019969Y011171D01*
X019969Y011093D02*
X020914Y011093D01*
X021274Y011093D02*
X023233Y011093D01*
X023233Y011171D02*
X021274Y011171D01*
X021274Y011250D02*
X023233Y011250D01*
X023233Y011328D02*
X021274Y011328D01*
X021274Y011407D02*
X023233Y011407D01*
X023233Y011485D02*
X021274Y011485D01*
X021274Y011564D02*
X023233Y011564D01*
X023233Y011642D02*
X021206Y011642D01*
X021128Y011721D02*
X023233Y011721D01*
X023233Y011799D02*
X021049Y011799D01*
X020971Y011878D02*
X023233Y011878D01*
X023233Y011956D02*
X020892Y011956D01*
X020814Y012035D02*
X023233Y012035D01*
X023233Y012113D02*
X020735Y012113D01*
X020657Y012192D02*
X023233Y012192D01*
X023233Y012270D02*
X020578Y012270D01*
X020500Y012349D02*
X023233Y012349D01*
X023233Y012427D02*
X020421Y012427D01*
X020343Y012506D02*
X023233Y012506D01*
X023233Y012584D02*
X020264Y012584D01*
X020186Y012663D02*
X023233Y012663D01*
X023233Y012741D02*
X020107Y012741D01*
X020029Y012820D02*
X023233Y012820D01*
X023233Y012898D02*
X019950Y012898D01*
X019872Y012977D02*
X023233Y012977D01*
X023233Y013055D02*
X019793Y013055D01*
X019715Y013134D02*
X023233Y013134D01*
X023233Y013212D02*
X019636Y013212D01*
X019558Y013291D02*
X023233Y013291D01*
X023233Y013369D02*
X019479Y013369D01*
X019374Y013220D02*
X021094Y011500D01*
X021094Y010095D01*
X020997Y009998D01*
X020530Y009998D01*
X020010Y009994D02*
X019969Y009994D01*
X019969Y010072D02*
X020010Y010072D01*
X020010Y010151D02*
X019969Y010151D01*
X019969Y010229D02*
X020010Y010229D01*
X020010Y010308D02*
X019969Y010308D01*
X019969Y010386D02*
X020010Y010386D01*
X020010Y010465D02*
X019969Y010465D01*
X019969Y010543D02*
X020010Y010543D01*
X020010Y010622D02*
X019969Y010622D01*
X019969Y010700D02*
X020010Y010700D01*
X020010Y010779D02*
X019969Y010779D01*
X019969Y010857D02*
X020010Y010857D01*
X020010Y010936D02*
X019969Y010936D01*
X019969Y011014D02*
X020051Y011014D01*
X020010Y009915D02*
X019969Y009915D01*
X019969Y009837D02*
X020010Y009837D01*
X019969Y009758D02*
X020061Y009758D01*
X019969Y009680D02*
X023233Y009680D01*
X023233Y009758D02*
X020999Y009758D01*
X021091Y009837D02*
X023233Y009837D01*
X023233Y009915D02*
X021169Y009915D01*
X021248Y009994D02*
X023233Y009994D01*
X023233Y010072D02*
X021274Y010072D01*
X021274Y010151D02*
X023233Y010151D01*
X023233Y010229D02*
X021274Y010229D01*
X021274Y010308D02*
X023233Y010308D01*
X023233Y010386D02*
X021274Y010386D01*
X021274Y010465D02*
X023233Y010465D01*
X023233Y010543D02*
X021274Y010543D01*
X021274Y010622D02*
X023233Y010622D01*
X023233Y010700D02*
X021274Y010700D01*
X021274Y010779D02*
X023233Y010779D01*
X023233Y010857D02*
X021274Y010857D01*
X021274Y010936D02*
X023233Y010936D01*
X023233Y011014D02*
X021274Y011014D01*
X019969Y009601D02*
X023233Y009601D01*
X023233Y009523D02*
X019969Y009523D01*
X019969Y009444D02*
X023233Y009444D01*
X023233Y009366D02*
X019969Y009366D01*
X019969Y009287D02*
X023233Y009287D01*
X023233Y009209D02*
X019969Y009209D01*
X019969Y009130D02*
X023233Y009130D01*
X023233Y009052D02*
X019969Y009052D01*
X019969Y008973D02*
X023233Y008973D01*
X023233Y008895D02*
X019969Y008895D01*
X019969Y008816D02*
X023233Y008816D01*
X023233Y008738D02*
X019969Y008738D01*
X019969Y008659D02*
X020894Y008659D01*
X020894Y008581D02*
X019969Y008581D01*
X019969Y008502D02*
X020894Y008502D01*
X020894Y008424D02*
X019969Y008424D01*
X019969Y008345D02*
X020894Y008345D01*
X020894Y008267D02*
X019969Y008267D01*
X019969Y008188D02*
X020894Y008188D01*
X020894Y008110D02*
X019969Y008110D01*
X019969Y008031D02*
X020876Y008031D01*
X020820Y007315D02*
X020894Y007240D01*
X020894Y006750D01*
X020261Y006750D01*
X020251Y006758D01*
X020210Y006753D01*
X020186Y006763D01*
X020154Y006750D01*
X020127Y006750D01*
X020122Y006751D01*
X020107Y006739D01*
X020088Y006737D01*
X020079Y006724D01*
X020063Y006722D01*
X020052Y006707D01*
X020034Y006700D01*
X020028Y006686D01*
X020014Y006680D01*
X020007Y006662D01*
X019992Y006651D01*
X019990Y006635D01*
X019977Y006626D01*
X019975Y006607D01*
X019969Y006600D01*
X019969Y007415D01*
X020070Y007315D01*
X020820Y007315D01*
X020888Y007246D02*
X019969Y007246D01*
X019969Y007168D02*
X020894Y007168D01*
X020894Y007089D02*
X019969Y007089D01*
X019969Y007011D02*
X020894Y007011D01*
X020894Y006932D02*
X019969Y006932D01*
X019969Y006854D02*
X020894Y006854D01*
X020894Y006775D02*
X019969Y006775D01*
X019969Y006697D02*
X020033Y006697D01*
X019976Y006618D02*
X019969Y006618D01*
X020152Y006542D02*
X020161Y006553D01*
X020172Y006562D01*
X020186Y006568D01*
X020200Y006570D01*
X022719Y006570D01*
X022739Y006567D01*
X022757Y006560D01*
X022772Y006548D01*
X022784Y006532D01*
X022792Y006514D01*
X022794Y006495D01*
X022794Y005616D01*
X022792Y005597D01*
X022785Y005580D01*
X022774Y005566D01*
X022759Y005554D01*
X022742Y005547D01*
X022724Y005545D01*
X020215Y005545D01*
X020197Y005547D01*
X020180Y005554D01*
X020165Y005566D01*
X020154Y005580D01*
X020147Y005597D01*
X020144Y005616D01*
X020144Y006514D01*
X020146Y006528D01*
X020152Y006542D01*
X020151Y006540D02*
X022778Y006540D01*
X022794Y006461D02*
X020144Y006461D01*
X020144Y006383D02*
X022794Y006383D01*
X022794Y006304D02*
X020144Y006304D01*
X020144Y006226D02*
X022794Y006226D01*
X022794Y006147D02*
X020144Y006147D01*
X020144Y006069D02*
X022794Y006069D01*
X022794Y005990D02*
X020144Y005990D01*
X020144Y005912D02*
X022794Y005912D01*
X022794Y005833D02*
X020144Y005833D01*
X020144Y005755D02*
X022794Y005755D01*
X022794Y005676D02*
X020144Y005676D01*
X020147Y005598D02*
X022792Y005598D01*
X022965Y005519D02*
X023233Y005519D01*
X023233Y005441D02*
X022919Y005441D01*
X022986Y005598D02*
X023233Y005598D01*
X023233Y005676D02*
X022974Y005676D01*
X022974Y005755D02*
X023233Y005755D01*
X023233Y005833D02*
X022974Y005833D01*
X022974Y005912D02*
X023233Y005912D01*
X023233Y005990D02*
X022974Y005990D01*
X022974Y006069D02*
X023233Y006069D01*
X023233Y006147D02*
X022974Y006147D01*
X022974Y006226D02*
X023233Y006226D01*
X023233Y006304D02*
X022974Y006304D01*
X022974Y006383D02*
X023233Y006383D01*
X023233Y006461D02*
X022980Y006461D01*
X022976Y006540D02*
X023233Y006540D01*
X023233Y006618D02*
X022952Y006618D01*
X022766Y005362D02*
X023233Y005362D01*
X023233Y005284D02*
X019969Y005284D01*
X019969Y005362D02*
X020173Y005362D01*
X020221Y005362D02*
X020222Y005362D01*
X020273Y005362D02*
X022666Y005362D01*
X023233Y005205D02*
X019969Y005205D01*
X019969Y005127D02*
X023233Y005127D01*
X023233Y005048D02*
X019969Y005048D01*
X019969Y004970D02*
X023233Y004970D01*
X023233Y004891D02*
X019969Y004891D01*
X019969Y004813D02*
X023233Y004813D01*
X023233Y004734D02*
X020989Y004734D01*
X020968Y004756D02*
X020092Y004756D01*
X020010Y004674D01*
X020010Y004298D01*
X020092Y004216D01*
X020441Y004216D01*
X020414Y004151D01*
X020414Y004039D01*
X020457Y003936D01*
X020536Y003857D01*
X020639Y003815D01*
X020750Y003815D01*
X020853Y003857D01*
X020932Y003936D01*
X020974Y004039D01*
X020974Y004151D01*
X020947Y004216D01*
X020968Y004216D01*
X021050Y004298D01*
X021050Y004674D01*
X020968Y004756D01*
X021050Y004656D02*
X023233Y004656D01*
X023233Y004577D02*
X021050Y004577D01*
X021050Y004499D02*
X023233Y004499D01*
X023233Y004420D02*
X021050Y004420D01*
X021050Y004342D02*
X023233Y004342D01*
X023233Y004263D02*
X021016Y004263D01*
X020960Y004185D02*
X023165Y004185D01*
X023086Y004106D02*
X020974Y004106D01*
X020970Y004028D02*
X023008Y004028D01*
X022929Y003949D02*
X020937Y003949D01*
X020866Y003871D02*
X022851Y003871D01*
X022772Y003792D02*
X019969Y003792D01*
X019969Y003714D02*
X022694Y003714D01*
X022615Y003635D02*
X019969Y003635D01*
X019969Y003557D02*
X022537Y003557D01*
X022458Y003478D02*
X019969Y003478D01*
X019969Y003400D02*
X022380Y003400D01*
X022301Y003321D02*
X019942Y003321D01*
X019969Y003871D02*
X020522Y003871D01*
X020451Y003949D02*
X019969Y003949D01*
X019969Y004028D02*
X020419Y004028D01*
X020414Y004106D02*
X019969Y004106D01*
X019969Y004185D02*
X020428Y004185D01*
X020694Y004095D02*
X020694Y004445D01*
X020644Y004495D01*
X020539Y004495D01*
X020530Y004486D01*
X020010Y004499D02*
X019969Y004499D01*
X019969Y004577D02*
X020010Y004577D01*
X020010Y004656D02*
X019969Y004656D01*
X019969Y004734D02*
X020071Y004734D01*
X020010Y004420D02*
X019969Y004420D01*
X019969Y004342D02*
X020010Y004342D01*
X020044Y004263D02*
X019969Y004263D01*
X019225Y003243D02*
X022223Y003243D01*
X022144Y003164D02*
X019225Y003164D01*
X019225Y003086D02*
X022066Y003086D01*
X021987Y003007D02*
X019225Y003007D01*
X019225Y002929D02*
X021909Y002929D01*
X021830Y002850D02*
X019225Y002850D01*
X019225Y002772D02*
X021752Y002772D01*
X021673Y002693D02*
X019225Y002693D01*
X019225Y002615D02*
X021595Y002615D01*
X021516Y002536D02*
X019225Y002536D01*
X019210Y002458D02*
X021438Y002458D01*
X020574Y001594D02*
X002942Y001594D01*
X002864Y001673D02*
X004721Y001673D01*
X004674Y001751D02*
X002785Y001751D01*
X002707Y001830D02*
X004674Y001830D01*
X004674Y001908D02*
X002628Y001908D01*
X002550Y001987D02*
X004674Y001987D01*
X004674Y002065D02*
X002471Y002065D01*
X002393Y002144D02*
X004674Y002144D01*
X004674Y002222D02*
X002314Y002222D01*
X003021Y001516D02*
X020496Y001516D01*
X020417Y001437D02*
X003099Y001437D01*
X003178Y001359D02*
X020339Y001359D01*
X020260Y001280D02*
X003256Y001280D01*
X003335Y001202D02*
X020182Y001202D01*
X017126Y002458D02*
X016454Y002458D01*
X016469Y002536D02*
X017110Y002536D01*
X017110Y002615D02*
X016469Y002615D01*
X016469Y002693D02*
X017110Y002693D01*
X017110Y002772D02*
X016469Y002772D01*
X016469Y002850D02*
X017110Y002850D01*
X017110Y002929D02*
X016469Y002929D01*
X016469Y003007D02*
X017110Y003007D01*
X017110Y003086D02*
X016469Y003086D01*
X016469Y003164D02*
X017110Y003164D01*
X017110Y003243D02*
X016469Y003243D01*
X014355Y003243D02*
X014107Y003243D01*
X014107Y003164D02*
X014355Y003164D01*
X014355Y003086D02*
X014107Y003086D01*
X014107Y003007D02*
X014355Y003007D01*
X014355Y002929D02*
X014107Y002929D01*
X014107Y002850D02*
X014355Y002850D01*
X014355Y002772D02*
X014107Y002772D01*
X014107Y002693D02*
X014355Y002693D01*
X014355Y002615D02*
X014107Y002615D01*
X014107Y002536D02*
X014355Y002536D01*
X014370Y002458D02*
X014092Y002458D01*
X011815Y004028D02*
X010439Y004028D01*
X010477Y004106D02*
X011815Y004106D01*
X011815Y004185D02*
X010477Y004185D01*
X010477Y004263D02*
X010596Y004263D01*
X010561Y004342D02*
X010486Y004342D01*
X010162Y004273D02*
X010769Y004879D01*
X011081Y004879D01*
X011081Y005273D02*
X010575Y005273D01*
X010162Y004861D01*
X010168Y005442D02*
X010393Y005667D01*
X011081Y005667D01*
X011601Y005676D02*
X011815Y005676D01*
X011815Y005598D02*
X011601Y005598D01*
X011601Y005519D02*
X011815Y005519D01*
X011815Y005441D02*
X011601Y005441D01*
X011601Y005362D02*
X011815Y005362D01*
X011815Y005284D02*
X011601Y005284D01*
X011601Y005205D02*
X011815Y005205D01*
X011815Y005127D02*
X011601Y005127D01*
X011601Y005048D02*
X011815Y005048D01*
X011815Y004970D02*
X011601Y004970D01*
X011601Y004891D02*
X011815Y004891D01*
X011815Y004813D02*
X011601Y004813D01*
X011601Y004734D02*
X011815Y004734D01*
X011815Y004656D02*
X011601Y004656D01*
X011601Y004577D02*
X011815Y004577D01*
X011815Y004499D02*
X011601Y004499D01*
X011601Y004420D02*
X011815Y004420D01*
X011815Y004342D02*
X011601Y004342D01*
X011567Y004263D02*
X011815Y004263D01*
X011815Y005755D02*
X011601Y005755D01*
X011601Y005833D02*
X011815Y005833D01*
X011815Y005912D02*
X011601Y005912D01*
X011601Y005990D02*
X011815Y005990D01*
X011815Y006069D02*
X011601Y006069D01*
X011601Y006147D02*
X011815Y006147D01*
X011815Y006226D02*
X011601Y006226D01*
X011545Y006304D02*
X011815Y006304D01*
X011815Y006383D02*
X009324Y006383D01*
X009324Y006461D02*
X011815Y006461D01*
X011815Y006540D02*
X009324Y006540D01*
X008964Y007168D02*
X001410Y007168D01*
X001516Y007246D02*
X008964Y007246D01*
X008964Y007325D02*
X001594Y007325D01*
X001630Y007403D02*
X008964Y007403D01*
X008964Y007482D02*
X001663Y007482D01*
X001678Y007560D02*
X008964Y007560D01*
X008964Y007639D02*
X001678Y007639D01*
X001678Y007717D02*
X008964Y007717D01*
X008964Y007796D02*
X001647Y007796D01*
X001614Y007874D02*
X008964Y007874D01*
X008964Y007953D02*
X001556Y007953D01*
X001477Y008031D02*
X008108Y008031D01*
X007983Y008110D02*
X001370Y008110D01*
X001558Y008188D02*
X007932Y008188D01*
X007908Y008267D02*
X001636Y008267D01*
X001706Y008345D02*
X007875Y008345D01*
X007797Y008424D02*
X001739Y008424D01*
X001738Y008816D02*
X008964Y008816D01*
X008964Y008738D02*
X008020Y008738D01*
X008177Y008581D02*
X008244Y008581D01*
X008383Y008502D02*
X008964Y008502D01*
X008964Y008424D02*
X008440Y008424D01*
X008468Y008345D02*
X008964Y008345D01*
X008964Y008267D02*
X008468Y008267D01*
X008444Y008188D02*
X008964Y008188D01*
X008964Y008110D02*
X008393Y008110D01*
X008268Y008031D02*
X008964Y008031D01*
X008964Y008895D02*
X001706Y008895D01*
X001635Y008973D02*
X008964Y008973D01*
X008964Y009209D02*
X001478Y009209D01*
X001557Y009287D02*
X008964Y009287D01*
X008964Y009366D02*
X001615Y009366D01*
X001557Y009052D02*
X001369Y009130D01*
X001318Y009130D01*
X001630Y009837D02*
X007486Y009837D01*
X007565Y009915D02*
X001593Y009915D01*
X001515Y009994D02*
X007643Y009994D01*
X007722Y010072D02*
X001408Y010072D01*
X001469Y010151D02*
X007800Y010151D01*
X007874Y010229D02*
X001599Y010229D01*
X001677Y010308D02*
X007881Y010308D01*
X007913Y010386D02*
X001723Y010386D01*
X001756Y010465D02*
X007987Y010465D01*
X008244Y010779D02*
X001908Y010779D01*
X001986Y010857D02*
X008166Y010857D01*
X008087Y010936D02*
X002065Y010936D01*
X002143Y011014D02*
X008009Y011014D01*
X007930Y011093D02*
X002222Y011093D01*
X002290Y011171D02*
X007852Y011171D01*
X007773Y011250D02*
X002322Y011250D01*
X002334Y011328D02*
X007695Y011328D01*
X007811Y011721D02*
X008387Y011721D01*
X008309Y011799D02*
X006418Y011799D01*
X006418Y011878D02*
X008230Y011878D01*
X008306Y011802D02*
X008306Y011802D01*
X008152Y011956D02*
X006418Y011956D01*
X006418Y012035D02*
X008073Y012035D01*
X007995Y012113D02*
X006418Y012113D01*
X006418Y012192D02*
X007916Y012192D01*
X007838Y012270D02*
X006418Y012270D01*
X006418Y012349D02*
X007759Y012349D01*
X007681Y012427D02*
X006418Y012427D01*
X006418Y012506D02*
X007602Y012506D01*
X008165Y012905D02*
X009274Y012905D01*
X009286Y012893D01*
X009854Y012893D01*
X009854Y012797D01*
X009891Y012709D01*
X009958Y012641D01*
X009979Y012620D01*
X009979Y012387D01*
X010032Y012335D01*
X008735Y012335D01*
X008165Y012905D01*
X008172Y012898D02*
X009280Y012898D01*
X009854Y012820D02*
X008250Y012820D01*
X008329Y012741D02*
X009877Y012741D01*
X009937Y012663D02*
X008407Y012663D01*
X008486Y012584D02*
X009979Y012584D01*
X009979Y012506D02*
X008564Y012506D01*
X008643Y012427D02*
X009979Y012427D01*
X010018Y012349D02*
X008721Y012349D01*
X008075Y013495D02*
X009560Y013495D01*
X009580Y013515D01*
X009854Y013763D02*
X009286Y013763D01*
X009204Y013681D01*
X009204Y013675D01*
X008529Y013675D01*
X008819Y013965D01*
X009819Y013965D01*
X009854Y014000D01*
X009854Y013763D01*
X009854Y013840D02*
X008694Y013840D01*
X008616Y013762D02*
X009285Y013762D01*
X009206Y013683D02*
X008537Y013683D01*
X008344Y013745D02*
X008744Y014145D01*
X009744Y014145D01*
X009894Y014295D01*
X009894Y016079D01*
X009848Y016666D02*
X009959Y016666D01*
X009867Y016745D02*
X012194Y016745D01*
X012194Y016823D02*
X009909Y016823D01*
X009909Y016902D02*
X012194Y016902D01*
X012194Y016980D02*
X009909Y016980D01*
X009909Y017059D02*
X012194Y017059D01*
X012194Y017137D02*
X009909Y017137D01*
X009896Y017216D02*
X012194Y017216D01*
X012194Y017294D02*
X009817Y017294D01*
X009890Y017373D02*
X012194Y017373D01*
X012194Y017451D02*
X009905Y017451D01*
X009905Y017530D02*
X012194Y017530D01*
X012194Y017608D02*
X009905Y017608D01*
X009905Y017687D02*
X012194Y017687D01*
X012194Y017765D02*
X009905Y017765D01*
X009864Y017844D02*
X012194Y017844D01*
X012644Y018945D02*
X012644Y021441D01*
X012653Y021546D01*
X012681Y021647D01*
X012725Y021743D01*
X012786Y021829D01*
X012860Y021903D01*
X012946Y021964D01*
X013042Y022008D01*
X013143Y022036D01*
X013248Y022045D01*
X014394Y022045D01*
X014394Y019086D01*
X014391Y019055D01*
X014380Y019025D01*
X014363Y018998D01*
X014341Y018976D01*
X014314Y018959D01*
X014284Y018948D01*
X014253Y018945D01*
X012644Y018945D01*
X012644Y019021D02*
X014378Y019021D01*
X014394Y019100D02*
X012644Y019100D01*
X012644Y019178D02*
X014394Y019178D01*
X014394Y019257D02*
X012644Y019257D01*
X012644Y019335D02*
X014394Y019335D01*
X014394Y019414D02*
X012644Y019414D01*
X012644Y019492D02*
X014394Y019492D01*
X014394Y019571D02*
X012644Y019571D01*
X012644Y019649D02*
X014394Y019649D01*
X014394Y019728D02*
X012644Y019728D01*
X012644Y019806D02*
X014394Y019806D01*
X014394Y019885D02*
X012644Y019885D01*
X012644Y019963D02*
X014394Y019963D01*
X014394Y020042D02*
X012644Y020042D01*
X012644Y020120D02*
X014394Y020120D01*
X014394Y020199D02*
X012644Y020199D01*
X012644Y020277D02*
X014394Y020277D01*
X014394Y020356D02*
X012644Y020356D01*
X012644Y020434D02*
X014394Y020434D01*
X014394Y020513D02*
X012644Y020513D01*
X012644Y020591D02*
X014394Y020591D01*
X014394Y020670D02*
X012644Y020670D01*
X012644Y020748D02*
X014394Y020748D01*
X014394Y020827D02*
X012644Y020827D01*
X012644Y020905D02*
X014394Y020905D01*
X014394Y020984D02*
X012644Y020984D01*
X012644Y021062D02*
X014394Y021062D01*
X014394Y021141D02*
X012644Y021141D01*
X012644Y021219D02*
X014394Y021219D01*
X014394Y021298D02*
X012644Y021298D01*
X012644Y021376D02*
X014394Y021376D01*
X014394Y021455D02*
X012645Y021455D01*
X012652Y021533D02*
X014394Y021533D01*
X014394Y021612D02*
X012671Y021612D01*
X012701Y021690D02*
X014394Y021690D01*
X014394Y021769D02*
X012743Y021769D01*
X012804Y021847D02*
X014394Y021847D01*
X014394Y021926D02*
X012892Y021926D01*
X013033Y022004D02*
X014394Y022004D01*
X015260Y022240D02*
X015314Y022240D01*
X015339Y022318D02*
X018354Y022318D01*
X020056Y022083D02*
X020149Y022083D01*
X020592Y021298D02*
X020761Y021298D01*
X020740Y021219D02*
X020592Y021219D01*
X020592Y021141D02*
X020740Y021141D01*
X020740Y021062D02*
X020592Y021062D01*
X020592Y020984D02*
X020740Y020984D01*
X020746Y020905D02*
X020592Y020905D01*
X020592Y020827D02*
X020790Y020827D01*
X019413Y019649D02*
X017594Y019649D01*
X017594Y019571D02*
X019414Y019571D01*
X019414Y019492D02*
X017594Y019492D01*
X017594Y019414D02*
X019414Y019414D01*
X019414Y019335D02*
X017594Y019335D01*
X017594Y019257D02*
X019414Y019257D01*
X019414Y019178D02*
X017594Y019178D01*
X017594Y019100D02*
X019414Y019100D01*
X019414Y019021D02*
X017594Y019021D01*
X017594Y018943D02*
X017860Y018943D01*
X017802Y018864D02*
X017594Y018864D01*
X017594Y018786D02*
X017802Y018786D01*
X017802Y018707D02*
X017594Y018707D01*
X017594Y018629D02*
X017802Y018629D01*
X017802Y018550D02*
X017628Y018550D01*
X017707Y018472D02*
X017802Y018472D01*
X017802Y018393D02*
X017785Y018393D01*
X017934Y017765D02*
X018453Y017765D01*
X018532Y017687D02*
X017934Y017687D01*
X017934Y017608D02*
X018610Y017608D01*
X018689Y017530D02*
X017934Y017530D01*
X017934Y017451D02*
X018767Y017451D01*
X018946Y017373D02*
X017934Y017373D01*
X019162Y018393D02*
X019414Y018393D01*
X019414Y018315D02*
X019233Y018315D01*
X019162Y018472D02*
X019414Y018472D01*
X019414Y018550D02*
X019162Y018550D01*
X019162Y018629D02*
X019414Y018629D01*
X019414Y018707D02*
X019162Y018707D01*
X019162Y018786D02*
X019414Y018786D01*
X019414Y018864D02*
X019162Y018864D01*
X019103Y018943D02*
X019414Y018943D01*
X018818Y019728D02*
X017594Y019728D01*
X017594Y019806D02*
X018705Y019806D01*
X018647Y019885D02*
X017594Y019885D01*
X017594Y019963D02*
X018621Y019963D01*
X018613Y020042D02*
X017594Y020042D01*
X017594Y020120D02*
X018608Y020120D01*
X019616Y017294D02*
X020723Y017294D01*
X020668Y017216D02*
X019670Y017216D01*
X020637Y016980D02*
X020811Y016980D01*
X019374Y013220D02*
X016694Y013220D01*
X016207Y013526D02*
X016159Y013526D01*
X016159Y013605D02*
X016240Y013605D01*
X016240Y013683D02*
X016159Y013683D01*
X016159Y013762D02*
X016240Y013762D01*
X016255Y013840D02*
X016159Y013840D01*
X016114Y013919D02*
X016332Y013919D01*
X016778Y013919D02*
X017025Y013919D01*
X016979Y013840D02*
X016855Y013840D01*
X015806Y012933D02*
X015794Y012945D01*
X015806Y012933D02*
X015806Y012360D01*
X015412Y012360D02*
X015412Y012927D01*
X015394Y012945D01*
X016811Y015489D02*
X016839Y015489D01*
X019067Y012977D02*
X019363Y012977D01*
X019441Y012898D02*
X019145Y012898D01*
X019203Y012820D02*
X019520Y012820D01*
X019598Y012741D02*
X019225Y012741D01*
X019225Y012663D02*
X019677Y012663D01*
X019755Y012584D02*
X019225Y012584D01*
X019225Y012506D02*
X019834Y012506D01*
X019912Y012427D02*
X019225Y012427D01*
X019969Y007953D02*
X020048Y007953D01*
X019981Y007403D02*
X019969Y007403D01*
X019969Y007325D02*
X020060Y007325D01*
X019969Y005519D02*
X019974Y005519D01*
X019969Y005441D02*
X020020Y005441D01*
X011815Y006618D02*
X011560Y006618D01*
X011601Y006697D02*
X011815Y006697D01*
X011815Y006775D02*
X011601Y006775D01*
X011601Y006854D02*
X011815Y006854D01*
X011815Y006932D02*
X011601Y006932D01*
X011601Y007011D02*
X011815Y007011D01*
X011815Y007089D02*
X011601Y007089D01*
X011601Y007168D02*
X011815Y007168D01*
X011815Y007246D02*
X011601Y007246D01*
X011601Y007325D02*
X011815Y007325D01*
X011815Y007403D02*
X011601Y007403D01*
X011601Y007482D02*
X011815Y007482D01*
X011815Y007560D02*
X011601Y007560D01*
X011601Y007639D02*
X011815Y007639D01*
X011815Y007717D02*
X011601Y007717D01*
X011601Y007796D02*
X011815Y007796D01*
X011815Y007874D02*
X011601Y007874D01*
X011601Y007953D02*
X011815Y007953D01*
X011815Y008031D02*
X011601Y008031D01*
X011601Y008110D02*
X011815Y008110D01*
X011815Y008188D02*
X011601Y008188D01*
X011601Y008267D02*
X011815Y008267D01*
X011815Y008345D02*
X011601Y008345D01*
X011601Y008424D02*
X011815Y008424D01*
X011815Y008502D02*
X011601Y008502D01*
X011601Y008581D02*
X011815Y008581D01*
X011815Y008659D02*
X011601Y008659D01*
X011601Y008738D02*
X011815Y008738D01*
X011815Y008816D02*
X011601Y008816D01*
X011601Y008895D02*
X011815Y008895D01*
X011815Y008973D02*
X011601Y008973D01*
X011601Y009052D02*
X011815Y009052D01*
X011815Y009130D02*
X011601Y009130D01*
X011601Y009209D02*
X011815Y009209D01*
X011815Y009287D02*
X011601Y009287D01*
X011601Y009366D02*
X011815Y009366D01*
X011815Y009444D02*
X011601Y009444D01*
X011601Y009523D02*
X011815Y009523D01*
X011815Y009601D02*
X011601Y009601D01*
X011601Y009680D02*
X011815Y009680D01*
X011815Y009758D02*
X011601Y009758D01*
X011601Y009837D02*
X011815Y009837D01*
X011815Y009915D02*
X011601Y009915D01*
X011601Y009994D02*
X011815Y009994D01*
X011815Y010072D02*
X011601Y010072D01*
X011601Y010151D02*
X011815Y010151D01*
X011815Y010229D02*
X011601Y010229D01*
X011601Y010308D02*
X011815Y010308D01*
X011815Y010386D02*
X011601Y010386D01*
X011601Y010465D02*
X011815Y010465D01*
X011815Y010543D02*
X011601Y010543D01*
X011559Y010622D02*
X011815Y010622D01*
X008951Y010072D02*
X008387Y010072D01*
X008422Y010151D02*
X008872Y010151D01*
X008794Y010229D02*
X008434Y010229D01*
X008427Y010308D02*
X008715Y010308D01*
X008637Y010386D02*
X008394Y010386D01*
X008320Y010465D02*
X008558Y010465D01*
X008480Y010543D02*
X001778Y010543D01*
X001778Y010622D02*
X008401Y010622D01*
X008323Y010700D02*
X001829Y010700D01*
X001339Y011171D02*
X000774Y011171D01*
X000774Y011093D02*
X001078Y011093D01*
X000941Y011014D02*
X000774Y011014D01*
X000774Y010936D02*
X000863Y010936D01*
X000814Y010857D02*
X000774Y010857D01*
X000774Y010779D02*
X000782Y010779D01*
X000774Y011250D02*
X001417Y011250D01*
X001496Y011328D02*
X000774Y011328D01*
X000774Y011407D02*
X001574Y011407D01*
X001653Y011485D02*
X000774Y011485D01*
X000774Y011564D02*
X001654Y011564D01*
X001654Y011642D02*
X000774Y011642D01*
X000774Y011721D02*
X001654Y011721D01*
X001654Y011799D02*
X000774Y011799D01*
X000774Y011878D02*
X001654Y011878D01*
X001654Y011956D02*
X000774Y011956D01*
X000774Y012035D02*
X001654Y012035D01*
X001654Y012113D02*
X000774Y012113D01*
X000774Y012192D02*
X001654Y012192D01*
X001654Y012270D02*
X000774Y012270D01*
X000774Y012349D02*
X001654Y012349D01*
X001654Y012427D02*
X000774Y012427D01*
X000774Y012506D02*
X001654Y012506D01*
X001654Y012584D02*
X000774Y012584D01*
X000774Y012663D02*
X001654Y012663D01*
X001654Y012741D02*
X000774Y012741D01*
X000774Y012820D02*
X001654Y012820D01*
X001654Y012898D02*
X000774Y012898D01*
X002334Y012270D02*
X003443Y012270D01*
X003414Y012192D02*
X002334Y012192D01*
X002334Y012113D02*
X003414Y012113D01*
X003437Y012035D02*
X002334Y012035D01*
X002334Y011956D02*
X003487Y011956D01*
X003607Y011878D02*
X002334Y011878D01*
X002334Y011799D02*
X004705Y011799D01*
X004705Y011721D02*
X002334Y011721D01*
X002334Y011642D02*
X004763Y011642D01*
X004921Y011564D02*
X002334Y011564D01*
X002334Y011485D02*
X004999Y011485D01*
X005078Y011407D02*
X002334Y011407D01*
X003781Y011878D02*
X004705Y011878D01*
X004406Y013002D02*
X004354Y013127D01*
X004354Y013655D01*
X004352Y013655D01*
X004302Y013605D01*
X003686Y013605D01*
X004302Y013605D02*
X004354Y013605D01*
X002394Y014795D02*
X002394Y015763D01*
X002979Y016347D01*
X002358Y016980D02*
X000774Y016980D01*
X000774Y016902D02*
X002279Y016902D01*
X002446Y017059D02*
X000774Y017059D01*
X000774Y017137D02*
X002369Y017137D01*
X002369Y017216D02*
X000774Y017216D01*
X000774Y017294D02*
X002369Y017294D01*
X002369Y017373D02*
X000774Y017373D01*
X000774Y017451D02*
X002369Y017451D01*
X002369Y017530D02*
X000774Y017530D01*
X000774Y017608D02*
X002349Y017608D01*
X002270Y017687D02*
X000774Y017687D01*
X000774Y017765D02*
X002192Y017765D01*
X002113Y017844D02*
X000774Y017844D01*
X000774Y017922D02*
X002035Y017922D01*
X001956Y018001D02*
X000774Y018001D01*
X000774Y018079D02*
X001950Y018079D01*
X001950Y018158D02*
X000774Y018158D01*
X000594Y018245D02*
X000594Y008193D01*
X001168Y007620D01*
X007094Y013605D02*
X007743Y013605D01*
X007743Y013683D02*
X007172Y013683D01*
X007210Y013762D02*
X007743Y013762D01*
X007923Y013647D02*
X007923Y014215D01*
X008194Y013745D02*
X008344Y013745D01*
X008075Y013495D02*
X007923Y013647D01*
X007424Y013840D02*
X007218Y013840D01*
X007228Y013919D02*
X007358Y013919D01*
X007358Y013997D02*
X007228Y013997D01*
X007228Y014076D02*
X007358Y014076D01*
X007358Y014154D02*
X007228Y014154D01*
X007228Y014233D02*
X007358Y014233D01*
X007358Y014311D02*
X007228Y014311D01*
X007228Y014390D02*
X007358Y014390D01*
X007358Y014468D02*
X007228Y014468D01*
X007204Y014547D02*
X007382Y014547D01*
X008773Y013919D02*
X009854Y013919D01*
X009851Y013997D02*
X009854Y013997D01*
X008826Y016692D02*
X008441Y016692D01*
X007673Y017373D02*
X007543Y017373D01*
X007543Y017451D02*
X007673Y017451D01*
X007673Y017530D02*
X007543Y017530D01*
X007543Y017608D02*
X007673Y017608D01*
X007673Y017687D02*
X007543Y017687D01*
X007543Y017765D02*
X007673Y017765D01*
X007673Y017844D02*
X007543Y017844D01*
X007523Y017922D02*
X007693Y017922D01*
X007716Y018001D02*
X007623Y018001D01*
X007659Y018079D02*
X007679Y018079D01*
X007679Y018158D02*
X007659Y018158D01*
X007659Y018236D02*
X007679Y018236D01*
X007679Y018315D02*
X007659Y018315D01*
X007659Y018393D02*
X007679Y018393D01*
X007699Y018472D02*
X007640Y018472D01*
X007561Y018550D02*
X007766Y018550D01*
X007688Y018629D02*
X005383Y018629D01*
X005324Y018550D02*
X006477Y018550D01*
X006399Y018472D02*
X005390Y018472D01*
X005459Y018393D02*
X006379Y018393D01*
X006379Y018315D02*
X005459Y018315D01*
X005459Y018236D02*
X006379Y018236D01*
X006379Y018158D02*
X005459Y018158D01*
X005514Y018079D02*
X006379Y018079D01*
X006155Y018707D02*
X007679Y018707D01*
X007679Y018786D02*
X006184Y018786D01*
X006184Y018864D02*
X007679Y018864D01*
X007679Y018943D02*
X006184Y018943D01*
X006184Y019021D02*
X007679Y019021D01*
X007727Y019100D02*
X006184Y019100D01*
X006184Y019178D02*
X012464Y019178D01*
X012464Y020042D02*
X005990Y020042D01*
X006069Y020120D02*
X012464Y020120D01*
X012464Y020199D02*
X006077Y020199D01*
X006077Y020277D02*
X012464Y020277D01*
X012033Y021087D02*
X011990Y021064D01*
X011943Y021050D01*
X011894Y021045D01*
X010394Y021045D01*
X010345Y021050D01*
X010299Y021064D01*
X010255Y021087D01*
X010217Y021118D01*
X010186Y021156D01*
X010163Y021199D01*
X010149Y021246D01*
X010144Y021295D01*
X010144Y023795D01*
X010149Y023844D01*
X010163Y023890D01*
X010186Y023934D01*
X010217Y023972D01*
X010255Y024003D01*
X010299Y024026D01*
X010345Y024040D01*
X010394Y024045D01*
X012644Y024045D01*
X012693Y024040D01*
X012740Y024026D01*
X012783Y024003D01*
X012821Y023972D01*
X012852Y023934D01*
X012875Y023890D01*
X012889Y023844D01*
X012894Y023795D01*
X012894Y022545D01*
X012889Y022496D01*
X012875Y022449D01*
X012852Y022406D01*
X012821Y022368D01*
X012783Y022337D01*
X012740Y022314D01*
X012693Y022300D01*
X012644Y022295D01*
X012394Y022295D01*
X012345Y022290D01*
X012299Y022276D01*
X012255Y022253D01*
X012217Y022222D01*
X012186Y022184D01*
X012163Y022140D01*
X012149Y022094D01*
X012144Y022045D01*
X012144Y021295D01*
X012139Y021246D01*
X012125Y021199D01*
X012102Y021156D01*
X012071Y021118D01*
X012033Y021087D01*
X011985Y021062D02*
X010303Y021062D01*
X010199Y021141D02*
X012090Y021141D01*
X012131Y021219D02*
X010157Y021219D01*
X010144Y021298D02*
X012144Y021298D01*
X012144Y021376D02*
X010144Y021376D01*
X010144Y021455D02*
X012144Y021455D01*
X012144Y021533D02*
X010144Y021533D01*
X010144Y021612D02*
X012144Y021612D01*
X012144Y021690D02*
X010144Y021690D01*
X010144Y021769D02*
X012144Y021769D01*
X012144Y021847D02*
X010144Y021847D01*
X010144Y021926D02*
X012144Y021926D01*
X012144Y022004D02*
X010144Y022004D01*
X010144Y022083D02*
X012148Y022083D01*
X012174Y022161D02*
X010144Y022161D01*
X010144Y022240D02*
X012240Y022240D01*
X012748Y022318D02*
X010144Y022318D01*
X010144Y022397D02*
X012845Y022397D01*
X012883Y022475D02*
X010144Y022475D01*
X010144Y022554D02*
X012894Y022554D01*
X012894Y022632D02*
X010144Y022632D01*
X010144Y022711D02*
X012894Y022711D01*
X012894Y022789D02*
X010144Y022789D01*
X010144Y022868D02*
X012894Y022868D01*
X012894Y022946D02*
X010144Y022946D01*
X010144Y023025D02*
X012894Y023025D01*
X012894Y023103D02*
X010144Y023103D01*
X010144Y023182D02*
X012894Y023182D01*
X012894Y023260D02*
X010144Y023260D01*
X010144Y023339D02*
X012894Y023339D01*
X012894Y023417D02*
X010144Y023417D01*
X010144Y023496D02*
X012894Y023496D01*
X012894Y023574D02*
X010144Y023574D01*
X010144Y023653D02*
X012894Y023653D01*
X012894Y023731D02*
X010144Y023731D01*
X010146Y023810D02*
X012893Y023810D01*
X012876Y023888D02*
X010163Y023888D01*
X010214Y023967D02*
X012825Y023967D01*
X010104Y024124D02*
X003343Y024124D01*
X003264Y024045D02*
X010042Y024045D01*
X009998Y023967D02*
X003186Y023967D01*
X003107Y023888D02*
X009973Y023888D01*
X009963Y023810D02*
X003029Y023810D01*
X002950Y023731D02*
X003339Y023731D01*
X003304Y023653D02*
X002872Y023653D01*
X002793Y023574D02*
X003304Y023574D01*
X003304Y023496D02*
X002715Y023496D01*
X002636Y023417D02*
X003304Y023417D01*
X003304Y023339D02*
X002558Y023339D01*
X002479Y023260D02*
X003319Y023260D01*
X003374Y023182D02*
X002401Y023182D01*
X002322Y023103D02*
X003374Y023103D01*
X003374Y023025D02*
X002244Y023025D01*
X002165Y022946D02*
X003341Y022946D01*
X003304Y022868D02*
X002087Y022868D01*
X002008Y022789D02*
X003304Y022789D01*
X003304Y022711D02*
X001930Y022711D01*
X001851Y022632D02*
X003304Y022632D01*
X003304Y022554D02*
X001773Y022554D01*
X001694Y022475D02*
X003316Y022475D01*
X003374Y022397D02*
X001616Y022397D01*
X001537Y022318D02*
X003374Y022318D01*
X003374Y022240D02*
X001459Y022240D01*
X001380Y022161D02*
X003256Y022161D01*
X003136Y022083D02*
X001302Y022083D01*
X001223Y022004D02*
X003087Y022004D01*
X003064Y021926D02*
X001145Y021926D01*
X001066Y021847D02*
X003064Y021847D01*
X003594Y021124D02*
X003615Y021124D01*
X003894Y020845D01*
X004884Y020845D01*
X005162Y021124D01*
X004847Y021141D02*
X003884Y021141D01*
X003884Y021109D02*
X003969Y021025D01*
X004809Y021025D01*
X004847Y021063D01*
X004847Y021265D01*
X003884Y021265D01*
X003884Y021109D01*
X003931Y021062D02*
X004847Y021062D01*
X004847Y021219D02*
X003884Y021219D01*
X003894Y020645D02*
X003594Y020345D01*
X003594Y020336D01*
X004409Y019728D02*
X005279Y019728D01*
X005204Y019649D02*
X004484Y019649D01*
X004484Y019571D02*
X005204Y019571D01*
X005204Y019492D02*
X004484Y019492D01*
X004484Y019414D02*
X005204Y019414D01*
X005204Y019335D02*
X004484Y019335D01*
X004484Y019257D02*
X005204Y019257D01*
X004544Y018645D02*
X003994Y019195D01*
X002457Y019806D02*
X008654Y019806D01*
X008654Y019728D02*
X006109Y019728D01*
X006184Y019649D02*
X008654Y019649D01*
X008654Y019571D02*
X006184Y019571D01*
X006184Y019492D02*
X008654Y019492D01*
X008654Y019414D02*
X006184Y019414D01*
X006184Y019335D02*
X008654Y019335D01*
X008709Y019257D02*
X006184Y019257D01*
X006067Y020905D02*
X010193Y020905D01*
X010095Y020984D02*
X006077Y020984D01*
X006077Y021062D02*
X010030Y021062D01*
X009990Y021141D02*
X006077Y021141D01*
X006077Y021219D02*
X009965Y021219D01*
X009963Y021298D02*
X006202Y021298D01*
X006280Y021376D02*
X009964Y021376D01*
X009964Y021455D02*
X006359Y021455D01*
X006437Y021533D02*
X009964Y021533D01*
X009964Y021612D02*
X006516Y021612D01*
X006524Y021690D02*
X009964Y021690D01*
X009964Y021769D02*
X006524Y021769D01*
X006524Y021847D02*
X009964Y021847D01*
X009964Y021926D02*
X006524Y021926D01*
X006524Y022004D02*
X009964Y022004D01*
X009964Y022083D02*
X006524Y022083D01*
X006524Y022161D02*
X009964Y022161D01*
X009964Y022240D02*
X006524Y022240D01*
X006524Y022318D02*
X009964Y022318D01*
X009964Y022397D02*
X006524Y022397D01*
X006524Y022475D02*
X009964Y022475D01*
X009964Y022554D02*
X006524Y022554D01*
X006524Y022632D02*
X009964Y022632D01*
X009964Y022711D02*
X006524Y022711D01*
X006524Y022789D02*
X009964Y022789D01*
X009964Y022868D02*
X006524Y022868D01*
X006524Y022946D02*
X009964Y022946D01*
X009964Y023025D02*
X006478Y023025D01*
X006399Y023103D02*
X009964Y023103D01*
X009964Y023182D02*
X006321Y023182D01*
X006242Y023260D02*
X009964Y023260D01*
X009964Y023339D02*
X006164Y023339D01*
X006085Y023417D02*
X009964Y023417D01*
X009964Y023496D02*
X006077Y023496D01*
X006077Y023574D02*
X009964Y023574D01*
X009964Y023653D02*
X006077Y023653D01*
X006039Y023731D02*
X009963Y023731D01*
X006164Y022632D02*
X006083Y022632D01*
X006161Y022554D02*
X006164Y022554D01*
X005966Y022240D02*
X003814Y022240D01*
X003814Y022318D02*
X005888Y022318D01*
X006014Y022161D02*
X005434Y022161D01*
X005477Y022083D02*
X006014Y022083D01*
X006014Y022004D02*
X005477Y022004D01*
X005477Y021926D02*
X006014Y021926D01*
X006014Y021847D02*
X005477Y021847D01*
X005162Y021911D02*
X004194Y021911D01*
X003904Y021926D02*
X003884Y021926D01*
X003884Y022004D02*
X003904Y022004D01*
X003904Y022083D02*
X003884Y022083D01*
X003845Y022161D02*
X003944Y022161D01*
X003995Y022397D02*
X003814Y022397D01*
X003872Y022475D02*
X003916Y022475D01*
X003904Y022554D02*
X003884Y022554D01*
X003884Y022632D02*
X003904Y022632D01*
X003904Y022711D02*
X003884Y022711D01*
X003884Y022789D02*
X003904Y022789D01*
X003904Y022868D02*
X003884Y022868D01*
X003847Y022946D02*
X003941Y022946D01*
X003997Y023182D02*
X003814Y023182D01*
X003870Y023260D02*
X003919Y023260D01*
X003904Y023339D02*
X003884Y023339D01*
X003884Y023417D02*
X003904Y023417D01*
X003904Y023496D02*
X003884Y023496D01*
X003884Y023574D02*
X003904Y023574D01*
X003904Y023653D02*
X003884Y023653D01*
X003850Y023731D02*
X003939Y023731D01*
X004194Y023486D02*
X005162Y023486D01*
X004886Y023731D02*
X004450Y023731D01*
X004470Y023260D02*
X004865Y023260D01*
X004944Y023182D02*
X004391Y023182D01*
X004447Y022946D02*
X004888Y022946D01*
X005162Y022698D02*
X004194Y022698D01*
X004472Y022475D02*
X004863Y022475D01*
X004941Y022397D02*
X004394Y022397D01*
X004445Y022161D02*
X004890Y022161D01*
X005383Y022397D02*
X005541Y022397D01*
X005463Y022475D02*
X005462Y022475D01*
X005437Y022946D02*
X005488Y022946D01*
X005486Y023731D02*
X005439Y023731D01*
X003904Y021847D02*
X003884Y021847D01*
X005744Y021142D02*
X005762Y021124D01*
X007994Y018845D02*
X008594Y018845D01*
X008326Y019100D02*
X008262Y019100D01*
X008661Y019885D02*
X002457Y019885D01*
X001241Y019414D02*
X001148Y019414D01*
X000894Y019145D02*
X000894Y019712D01*
X000889Y019717D01*
X000889Y020300D01*
X000844Y020345D01*
X000889Y020827D02*
X000284Y020827D01*
X000284Y020905D02*
X000854Y020905D01*
X000854Y020984D02*
X000284Y020984D01*
X000284Y021062D02*
X000854Y021062D01*
X000854Y021141D02*
X000360Y021141D01*
X000438Y021219D02*
X000854Y021219D01*
X000854Y021298D02*
X000517Y021298D01*
X000595Y021376D02*
X000854Y021376D01*
X000881Y021455D02*
X000674Y021455D01*
X000752Y021533D02*
X001328Y021533D01*
X001407Y021612D02*
X000831Y021612D01*
X000909Y021690D02*
X001485Y021690D01*
X001564Y021769D02*
X000988Y021769D01*
X001194Y021145D02*
X001644Y021595D01*
X000894Y018545D02*
X000594Y018245D01*
X001108Y018236D02*
X001280Y018236D01*
X001202Y018315D02*
X001187Y018315D01*
X001708Y018236D02*
X001918Y018236D01*
X001840Y018315D02*
X001787Y018315D01*
X005446Y017007D02*
X005458Y016995D01*
X006706Y017137D02*
X006964Y017137D01*
X006971Y017216D02*
X006842Y017216D01*
X006913Y017294D02*
X007003Y017294D01*
X006977Y017059D02*
X006785Y017059D01*
X007923Y017595D02*
X007923Y018174D01*
X007994Y018245D01*
X008302Y009994D02*
X008964Y009994D01*
X008964Y009915D02*
X008102Y009915D01*
X008024Y009837D02*
X008964Y009837D01*
X008964Y009758D02*
X007945Y009758D01*
X007867Y009680D02*
X008964Y009680D01*
X008964Y009601D02*
X007788Y009601D01*
X007710Y009523D02*
X008964Y009523D01*
X008964Y009444D02*
X007631Y009444D01*
X010172Y007325D02*
X010561Y007325D01*
X010305Y005833D02*
X009795Y005833D01*
X009777Y005755D02*
X009959Y005755D01*
X009881Y005676D02*
X009856Y005676D01*
X009565Y005445D02*
X009244Y005445D01*
X009144Y005545D01*
X009064Y005370D02*
X009064Y005370D01*
D44*
X012944Y014218D02*
X012494Y014668D01*
X012494Y016195D01*
X012294Y016395D01*
X012494Y016595D01*
X012494Y016195D01*
X012294Y016395D02*
X010210Y016395D01*
X010203Y016389D01*
X012494Y016595D02*
X012494Y018595D01*
X013325Y019426D01*
X013677Y019426D01*
X012944Y014218D02*
X014914Y014218D01*
X021912Y008185D02*
X022356Y008185D01*
X022519Y008022D01*
X022519Y009070D01*
X022644Y009195D01*
X022519Y008022D02*
X022519Y007628D01*
X022512Y007635D01*
X022519Y007628D02*
X022519Y007245D01*
X022360Y007085D01*
X021912Y007085D01*
D45*
X021871Y007045D01*
X021644Y007045D01*
X021312Y007635D02*
X020530Y007635D01*
X021044Y014145D02*
X021011Y014149D01*
X020979Y014160D01*
X020951Y014178D01*
X020927Y014201D01*
X020909Y014230D01*
X020898Y014261D01*
X020894Y014295D01*
X020894Y015045D01*
X020898Y015078D01*
X020909Y015110D01*
X020927Y015138D01*
X020951Y015162D01*
X020979Y015180D01*
X021011Y015191D01*
X021044Y015195D01*
X021694Y015195D01*
X021728Y015199D01*
X021759Y015210D01*
X021788Y015228D01*
X021811Y015251D01*
X021829Y015280D01*
X021840Y015311D01*
X021844Y015345D01*
X021844Y018345D01*
X021848Y018378D01*
X021859Y018410D01*
X021877Y018438D01*
X021901Y018462D01*
X021929Y018480D01*
X021961Y018491D01*
X021994Y018495D01*
X022844Y018495D01*
X022878Y018491D01*
X022909Y018480D01*
X022938Y018462D01*
X022961Y018438D01*
X022979Y018410D01*
X022990Y018378D01*
X022994Y018345D01*
X022994Y014295D01*
X022990Y014261D01*
X022979Y014230D01*
X022961Y014201D01*
X022938Y014178D01*
X022909Y014160D01*
X022878Y014149D01*
X022844Y014145D01*
X021044Y014145D01*
X020928Y014200D02*
X022961Y014200D01*
X022994Y014359D02*
X020894Y014359D01*
X020894Y014517D02*
X022994Y014517D01*
X022994Y014676D02*
X020894Y014676D01*
X020894Y014834D02*
X022994Y014834D01*
X022994Y014993D02*
X020894Y014993D01*
X020940Y015151D02*
X022994Y015151D01*
X022994Y015310D02*
X021840Y015310D01*
X021844Y015468D02*
X022994Y015468D01*
X022994Y015627D02*
X021844Y015627D01*
X021844Y015785D02*
X022994Y015785D01*
X022994Y015944D02*
X021844Y015944D01*
X021844Y016102D02*
X022994Y016102D01*
X022994Y016261D02*
X021844Y016261D01*
X021844Y016419D02*
X022994Y016419D01*
X022994Y016578D02*
X021844Y016578D01*
X021844Y016736D02*
X022994Y016736D01*
X022994Y016895D02*
X021844Y016895D01*
X021844Y017053D02*
X022994Y017053D01*
X022994Y017212D02*
X021844Y017212D01*
X021844Y017370D02*
X022994Y017370D01*
X022994Y017529D02*
X021844Y017529D01*
X021844Y017687D02*
X022994Y017687D01*
X022994Y017846D02*
X021844Y017846D01*
X021844Y018004D02*
X022994Y018004D01*
X022994Y018163D02*
X021844Y018163D01*
X021844Y018321D02*
X022994Y018321D01*
X022909Y018480D02*
X021929Y018480D01*
X017494Y015145D02*
X017494Y015080D01*
X017495Y015079D01*
X017494Y015145D02*
X016844Y015795D01*
X016494Y015795D01*
X016394Y015395D02*
X016194Y015395D01*
X016044Y015545D01*
X016044Y016745D01*
X015994Y016795D01*
X016394Y015395D02*
X016494Y015295D01*
X016494Y014345D01*
X016555Y014284D01*
X016555Y014218D01*
X015480Y018776D02*
X015461Y018795D01*
X015194Y018795D01*
X003594Y021911D02*
X003594Y022698D01*
X003594Y023486D01*
X009694Y006095D02*
X009728Y006061D01*
X011081Y006061D01*
X009555Y003672D02*
X009544Y003661D01*
X009544Y003345D01*
X009555Y003672D02*
X007671Y003672D01*
X007044Y003045D01*
X007038Y003039D01*
X007038Y002211D01*
D46*
X019041Y017842D02*
X018482Y018401D01*
X019041Y017842D02*
X020175Y017842D01*
D47*
X021180Y019594D02*
X021842Y019594D01*
X021915Y019521D01*
X021915Y020125D01*
X021923Y020133D01*
X022515Y019521D02*
X022515Y017939D01*
X022419Y017842D01*
X009594Y017592D02*
X009594Y016995D01*
X009603Y016986D01*
X009603Y016389D01*
X009594Y017592D02*
X009590Y017596D01*
X007344Y018245D02*
X007293Y018194D01*
X007293Y017595D01*
X006663Y017595D02*
X006663Y018245D01*
X006694Y018245D01*
X006994Y018245D01*
X007294Y018245D02*
X007344Y018245D01*
D48*
X006994Y018245D03*
X011144Y012795D03*
X017994Y013670D03*
D49*
X018608Y014283D01*
X021248Y014283D01*
X018292Y020535D02*
X018292Y021193D01*
X018694Y021595D01*
X018694Y022495D01*
X018994Y022795D01*
X018994Y023022D01*
X019019Y023047D01*
X018765Y021814D02*
X019802Y021814D01*
X018765Y021815D02*
X018746Y021813D01*
X018729Y021808D01*
X018712Y021799D01*
X018698Y021787D01*
X011144Y012795D02*
X011144Y012495D01*
X010644Y011995D01*
X008594Y011995D01*
X007694Y012895D01*
X004994Y012895D01*
X004694Y013195D01*
X004694Y013995D01*
X003944Y013995D01*
X002194Y013995D01*
X001994Y013795D01*
X001994Y011346D01*
X001268Y010620D01*
X001994Y013795D02*
X001994Y014195D01*
X002194Y013995D01*
X002144Y013995D01*
X001994Y014195D02*
X001994Y015245D01*
X001892Y015347D01*
X001879Y015347D01*
X004694Y014095D02*
X004694Y013995D01*
X006994Y018245D02*
X007294Y018245D01*
D50*
X011394Y021545D02*
X011394Y022617D01*
X011959Y023182D01*
X013378Y021545D02*
X013802Y021545D01*
X015302Y023045D01*
X017284Y023045D01*
X017287Y023047D01*
X017267Y023067D01*
M02*
