G75*
%MOIN*%
%OFA0B0*%
%FSLAX24Y24*%
%IPPOS*%
%LPD*%
%AMOC8*
5,1,8,0,0,1.08239X$1,22.5*
%
%ADD10C,0.0000*%
%ADD11C,0.0191*%
%ADD12R,0.0150X0.0598*%
%ADD13C,0.0180*%
%ADD14R,0.0748X0.0748*%
%ADD15R,0.0787X0.0787*%
D10*
X003166Y002437D02*
X003166Y021728D01*
X003165Y021728D02*
X003167Y021814D01*
X003172Y021900D01*
X003182Y021985D01*
X003195Y022070D01*
X003212Y022154D01*
X003232Y022238D01*
X003256Y022320D01*
X003284Y022401D01*
X003315Y022482D01*
X003349Y022560D01*
X003387Y022637D01*
X003429Y022713D01*
X003473Y022786D01*
X003521Y022857D01*
X003572Y022927D01*
X003626Y022994D01*
X003682Y023058D01*
X003742Y023120D01*
X003804Y023180D01*
X003868Y023236D01*
X003935Y023290D01*
X004005Y023341D01*
X004076Y023389D01*
X004150Y023433D01*
X004225Y023475D01*
X004302Y023513D01*
X004380Y023547D01*
X004461Y023578D01*
X004542Y023606D01*
X004624Y023630D01*
X004708Y023650D01*
X004792Y023667D01*
X004877Y023680D01*
X004962Y023690D01*
X005048Y023695D01*
X005134Y023697D01*
X005134Y023696D02*
X024426Y023696D01*
X024426Y023697D02*
X024512Y023695D01*
X024598Y023690D01*
X024683Y023680D01*
X024768Y023667D01*
X024852Y023650D01*
X024936Y023630D01*
X025018Y023606D01*
X025099Y023578D01*
X025180Y023547D01*
X025258Y023513D01*
X025335Y023475D01*
X025411Y023433D01*
X025484Y023389D01*
X025555Y023341D01*
X025625Y023290D01*
X025692Y023236D01*
X025756Y023180D01*
X025818Y023120D01*
X025878Y023058D01*
X025934Y022994D01*
X025988Y022927D01*
X026039Y022857D01*
X026087Y022786D01*
X026131Y022713D01*
X026173Y022637D01*
X026211Y022560D01*
X026245Y022482D01*
X026276Y022401D01*
X026304Y022320D01*
X026328Y022238D01*
X026348Y022154D01*
X026365Y022070D01*
X026378Y021985D01*
X026388Y021900D01*
X026393Y021814D01*
X026395Y021728D01*
X026394Y021728D02*
X026394Y002437D01*
X026395Y002437D02*
X026393Y002351D01*
X026388Y002265D01*
X026378Y002180D01*
X026365Y002095D01*
X026348Y002011D01*
X026328Y001927D01*
X026304Y001845D01*
X026276Y001764D01*
X026245Y001683D01*
X026211Y001605D01*
X026173Y001528D01*
X026131Y001452D01*
X026087Y001379D01*
X026039Y001308D01*
X025988Y001238D01*
X025934Y001171D01*
X025878Y001107D01*
X025818Y001045D01*
X025756Y000985D01*
X025692Y000929D01*
X025625Y000875D01*
X025555Y000824D01*
X025484Y000776D01*
X025411Y000732D01*
X025335Y000690D01*
X025258Y000652D01*
X025180Y000618D01*
X025099Y000587D01*
X025018Y000559D01*
X024936Y000535D01*
X024852Y000515D01*
X024768Y000498D01*
X024683Y000485D01*
X024598Y000475D01*
X024512Y000470D01*
X024426Y000468D01*
X005134Y000468D01*
X005048Y000470D01*
X004962Y000475D01*
X004877Y000485D01*
X004792Y000498D01*
X004708Y000515D01*
X004624Y000535D01*
X004542Y000559D01*
X004461Y000587D01*
X004380Y000618D01*
X004302Y000652D01*
X004225Y000690D01*
X004149Y000732D01*
X004076Y000776D01*
X004005Y000824D01*
X003935Y000875D01*
X003868Y000929D01*
X003804Y000985D01*
X003742Y001045D01*
X003682Y001107D01*
X003626Y001171D01*
X003572Y001238D01*
X003521Y001308D01*
X003473Y001379D01*
X003429Y001453D01*
X003387Y001528D01*
X003349Y001605D01*
X003315Y001683D01*
X003284Y001764D01*
X003256Y001845D01*
X003232Y001927D01*
X003212Y002011D01*
X003195Y002095D01*
X003182Y002180D01*
X003172Y002265D01*
X003167Y002351D01*
X003165Y002437D01*
X023225Y019858D02*
X023227Y019893D01*
X023233Y019928D01*
X023243Y019962D01*
X023256Y019995D01*
X023273Y020026D01*
X023294Y020054D01*
X023317Y020081D01*
X023344Y020104D01*
X023372Y020125D01*
X023403Y020142D01*
X023436Y020155D01*
X023470Y020165D01*
X023505Y020171D01*
X023540Y020173D01*
X023575Y020171D01*
X023610Y020165D01*
X023644Y020155D01*
X023677Y020142D01*
X023708Y020125D01*
X023736Y020104D01*
X023763Y020081D01*
X023786Y020054D01*
X023807Y020026D01*
X023824Y019995D01*
X023837Y019962D01*
X023847Y019928D01*
X023853Y019893D01*
X023855Y019858D01*
X023853Y019823D01*
X023847Y019788D01*
X023837Y019754D01*
X023824Y019721D01*
X023807Y019690D01*
X023786Y019662D01*
X023763Y019635D01*
X023736Y019612D01*
X023708Y019591D01*
X023677Y019574D01*
X023644Y019561D01*
X023610Y019551D01*
X023575Y019545D01*
X023540Y019543D01*
X023505Y019545D01*
X023470Y019551D01*
X023436Y019561D01*
X023403Y019574D01*
X023372Y019591D01*
X023344Y019612D01*
X023317Y019635D01*
X023294Y019662D01*
X023273Y019690D01*
X023256Y019721D01*
X023243Y019754D01*
X023233Y019788D01*
X023227Y019823D01*
X023225Y019858D01*
X023225Y021630D02*
X023227Y021665D01*
X023233Y021700D01*
X023243Y021734D01*
X023256Y021767D01*
X023273Y021798D01*
X023294Y021826D01*
X023317Y021853D01*
X023344Y021876D01*
X023372Y021897D01*
X023403Y021914D01*
X023436Y021927D01*
X023470Y021937D01*
X023505Y021943D01*
X023540Y021945D01*
X023575Y021943D01*
X023610Y021937D01*
X023644Y021927D01*
X023677Y021914D01*
X023708Y021897D01*
X023736Y021876D01*
X023763Y021853D01*
X023786Y021826D01*
X023807Y021798D01*
X023824Y021767D01*
X023837Y021734D01*
X023847Y021700D01*
X023853Y021665D01*
X023855Y021630D01*
X023853Y021595D01*
X023847Y021560D01*
X023837Y021526D01*
X023824Y021493D01*
X023807Y021462D01*
X023786Y021434D01*
X023763Y021407D01*
X023736Y021384D01*
X023708Y021363D01*
X023677Y021346D01*
X023644Y021333D01*
X023610Y021323D01*
X023575Y021317D01*
X023540Y021315D01*
X023505Y021317D01*
X023470Y021323D01*
X023436Y021333D01*
X023403Y021346D01*
X023372Y021363D01*
X023344Y021384D01*
X023317Y021407D01*
X023294Y021434D01*
X023273Y021462D01*
X023256Y021493D01*
X023243Y021526D01*
X023233Y021560D01*
X023227Y021595D01*
X023225Y021630D01*
D11*
X009062Y010805D02*
X009056Y010805D01*
X009062Y010805D02*
X009062Y010799D01*
X009056Y010799D01*
X009056Y010805D01*
X009056Y009033D02*
X009062Y009033D01*
X009062Y009027D01*
X009056Y009027D01*
X009056Y009033D01*
X007093Y009033D02*
X007087Y009033D01*
X007093Y009033D02*
X007093Y009027D01*
X007087Y009027D01*
X007087Y009033D01*
X007087Y010805D02*
X007093Y010805D01*
X007093Y010799D01*
X007087Y010799D01*
X007087Y010805D01*
X005125Y010805D02*
X005119Y010805D01*
X005125Y010805D02*
X005125Y010799D01*
X005119Y010799D01*
X005119Y010805D01*
X005119Y009033D02*
X005125Y009033D01*
X005125Y009027D01*
X005119Y009027D01*
X005119Y009033D01*
X005119Y007065D02*
X005125Y007065D01*
X005125Y007059D01*
X005119Y007059D01*
X005119Y007065D01*
X007087Y007065D02*
X007093Y007065D01*
X007093Y007059D01*
X007087Y007059D01*
X007087Y007065D01*
X007087Y005096D02*
X007093Y005096D01*
X007093Y005090D01*
X007087Y005090D01*
X007087Y005096D01*
X005125Y005096D02*
X005119Y005096D01*
X005125Y005096D02*
X005125Y005090D01*
X005119Y005090D01*
X005119Y005096D01*
X005119Y003325D02*
X005125Y003325D01*
X005125Y003319D01*
X005119Y003319D01*
X005119Y003325D01*
X005119Y001553D02*
X005125Y001553D01*
X005125Y001547D01*
X005119Y001547D01*
X005119Y001553D01*
X007087Y001553D02*
X007093Y001553D01*
X007093Y001547D01*
X007087Y001547D01*
X007087Y001553D01*
X007087Y003325D02*
X007093Y003325D01*
X007093Y003319D01*
X007087Y003319D01*
X007087Y003325D01*
X009056Y003325D02*
X009062Y003325D01*
X009062Y003319D01*
X009056Y003319D01*
X009056Y003325D01*
X009056Y001553D02*
X009062Y001553D01*
X009062Y001547D01*
X009056Y001547D01*
X009056Y001553D01*
X009056Y005096D02*
X009062Y005096D01*
X009062Y005090D01*
X009056Y005090D01*
X009056Y005096D01*
X009056Y007065D02*
X009062Y007065D01*
X009062Y007059D01*
X009056Y007059D01*
X009056Y007065D01*
D12*
X017516Y021411D03*
X017772Y021411D03*
X018028Y021411D03*
X018284Y021411D03*
X018540Y021411D03*
D13*
X018638Y022351D02*
X018218Y022351D01*
X018218Y022771D01*
X018638Y022771D01*
X018638Y022351D01*
X018638Y022530D02*
X018218Y022530D01*
X018218Y022709D02*
X018638Y022709D01*
X017838Y022351D02*
X017418Y022351D01*
X017418Y022771D01*
X017838Y022771D01*
X017838Y022351D01*
X017838Y022530D02*
X017418Y022530D01*
X017418Y022709D02*
X017838Y022709D01*
D14*
X016473Y022561D03*
X019583Y022561D03*
D15*
X021375Y021630D03*
X021375Y019267D03*
X025705Y019267D03*
X025705Y021630D03*
M02*
