G75*
%MOIN*%
%OFA0B0*%
%FSLAX24Y24*%
%IPPOS*%
%LPD*%
%AMOC8*
5,1,8,0,0,1.08239X$1,22.5*
%
%ADD10R,0.0165X0.0017*%
%ADD11R,0.0248X0.0017*%
%ADD12R,0.0761X0.0017*%
%ADD13R,0.0827X0.0017*%
%ADD14R,0.0909X0.0017*%
%ADD15R,0.0976X0.0017*%
%ADD16R,0.1009X0.0017*%
%ADD17R,0.0149X0.0017*%
%ADD18R,0.0694X0.0017*%
%ADD19R,0.0480X0.0017*%
%ADD20R,0.0314X0.0017*%
%ADD21R,0.0198X0.0017*%
%ADD22R,0.0182X0.0017*%
%ADD23R,0.0132X0.0017*%
%ADD24R,0.0215X0.0017*%
%ADD25R,0.0231X0.0017*%
%ADD26R,0.0116X0.0017*%
%ADD27R,0.0099X0.0017*%
%ADD28R,0.0083X0.0017*%
%ADD29R,0.0066X0.0017*%
%ADD30R,0.0265X0.0017*%
%ADD31R,0.0298X0.0017*%
%ADD32R,0.0331X0.0017*%
%ADD33R,0.0364X0.0017*%
%ADD34R,0.0281X0.0017*%
%ADD35R,0.0347X0.0017*%
%ADD36R,0.0380X0.0017*%
%ADD37R,0.0397X0.0017*%
%ADD38R,0.0496X0.0017*%
%ADD39R,0.1571X0.0017*%
%ADD40R,0.1538X0.0017*%
%ADD41R,0.1488X0.0017*%
%ADD42R,0.1422X0.0017*%
%ADD43R,0.1323X0.0017*%
%ADD44R,0.0777X0.0017*%
%ADD45R,0.0860X0.0017*%
%ADD46R,0.1075X0.0017*%
%ADD47R,0.1174X0.0017*%
%ADD48R,0.1257X0.0017*%
%ADD49R,0.1207X0.0017*%
%ADD50R,0.1157X0.0017*%
%ADD51R,0.0645X0.0017*%
%ADD52R,0.0579X0.0017*%
%ADD53R,0.0513X0.0017*%
%ADD54R,0.0463X0.0017*%
%ADD55R,0.0050X0.0017*%
%ADD56R,0.0017X0.0017*%
%ADD57R,0.0529X0.0017*%
%ADD58R,0.0711X0.0017*%
%ADD59R,0.0033X0.0017*%
%ADD60R,0.0562X0.0017*%
%ADD61R,0.0612X0.0017*%
%ADD62R,0.0430X0.0017*%
%ADD63R,0.0446X0.0017*%
%ADD64R,0.0413X0.0017*%
%ADD65R,0.0843X0.0017*%
%ADD66R,0.0678X0.0017*%
%ADD67R,0.0661X0.0017*%
%ADD68R,0.0595X0.0017*%
%ADD69R,0.0628X0.0017*%
%ADD70R,0.0810X0.0017*%
%ADD71R,0.0876X0.0017*%
%ADD72R,0.0926X0.0017*%
%ADD73R,0.0959X0.0017*%
%ADD74R,0.1951X0.0017*%
%ADD75R,0.2133X0.0017*%
%ADD76R,0.2232X0.0017*%
%ADD77R,0.2150X0.0017*%
%ADD78R,0.1935X0.0017*%
%ADD79R,0.1306X0.0017*%
%ADD80R,0.1637X0.0017*%
%ADD81R,0.1736X0.0017*%
%ADD82R,0.1191X0.0017*%
%ADD83R,0.0943X0.0017*%
%ADD84R,0.0893X0.0017*%
%ADD85R,0.0794X0.0017*%
%ADD86R,0.0728X0.0017*%
%ADD87R,0.0546X0.0017*%
%ADD88R,0.1339X0.0017*%
%ADD89R,0.1455X0.0017*%
%ADD90R,0.1554X0.0017*%
%ADD91R,0.1091X0.0017*%
%ADD92R,0.0744X0.0017*%
%ADD93R,0.1439X0.0017*%
%ADD94R,0.1802X0.0017*%
%ADD95R,0.1720X0.0017*%
%ADD96R,0.1141X0.0017*%
%ADD97R,0.1356X0.0017*%
%ADD98R,0.1902X0.0017*%
%ADD99R,0.1505X0.0017*%
%ADD100R,0.1406X0.0017*%
%ADD101R,0.1472X0.0017*%
%ADD102R,0.2001X0.0017*%
%ADD103R,0.2431X0.0017*%
%ADD104R,0.2580X0.0017*%
%ADD105R,0.1042X0.0017*%
%ADD106R,0.1620X0.0017*%
%ADD107R,0.1819X0.0017*%
%ADD108R,0.1604X0.0017*%
%ADD109R,0.1224X0.0017*%
%ADD110R,0.1058X0.0017*%
%ADD111R,0.0992X0.0017*%
%ADD112R,0.1273X0.0017*%
%ADD113R,0.1389X0.0017*%
%ADD114R,0.1984X0.0017*%
%ADD115R,0.2050X0.0017*%
%ADD116C,0.0000*%
%ADD117C,0.0050*%
%ADD118C,0.0040*%
D10*
X011789Y007611D03*
X012054Y007578D03*
X011971Y008107D03*
X011971Y008124D03*
X011905Y008306D03*
X012699Y008438D03*
X013228Y008455D03*
X013310Y008819D03*
X013162Y008934D03*
X013625Y008736D03*
X013939Y008504D03*
X014071Y007380D03*
X013873Y006950D03*
X013641Y006801D03*
X013592Y006619D03*
X013228Y006603D03*
X013162Y006652D03*
X013129Y006702D03*
X012418Y006801D03*
X012153Y006801D03*
X012054Y006917D03*
X012054Y006933D03*
X014253Y006074D03*
X015361Y006388D03*
X016469Y007016D03*
X016518Y007049D03*
X016551Y007066D03*
X016469Y007430D03*
X016667Y007777D03*
X016651Y007793D03*
X016915Y007231D03*
X017676Y008157D03*
X017709Y008141D03*
X017742Y008124D03*
X018916Y008058D03*
X018403Y009397D03*
X018387Y009414D03*
X018023Y010125D03*
X018007Y010141D03*
X018007Y010158D03*
X017990Y010174D03*
X019164Y011167D03*
X019644Y011150D03*
X019726Y011464D03*
X019825Y011530D03*
X019726Y011811D03*
X019958Y011977D03*
X020107Y011844D03*
X020933Y012390D03*
X020966Y012407D03*
X022537Y011679D03*
X022769Y011547D03*
X022934Y011381D03*
X022951Y011365D03*
X022967Y011348D03*
X022686Y011117D03*
X022670Y011133D03*
X022719Y010687D03*
X023265Y011117D03*
X024257Y009662D03*
X025051Y009232D03*
X025067Y008422D03*
X024257Y007777D03*
X024125Y008339D03*
X024224Y008372D03*
X024125Y008554D03*
X024141Y008587D03*
X024158Y008604D03*
X025199Y007132D03*
X025199Y006768D03*
X025199Y006752D03*
X025199Y006537D03*
X025183Y006007D03*
X025249Y005462D03*
X025464Y004585D03*
X024191Y005363D03*
X024290Y005892D03*
X024290Y006289D03*
X024108Y006586D03*
X023215Y006818D03*
X021959Y007545D03*
X020966Y008174D03*
X020933Y009265D03*
X018172Y006685D03*
X018569Y006289D03*
X018519Y006256D03*
X018172Y006107D03*
X017692Y005991D03*
X017692Y005974D03*
X017692Y005958D03*
X017692Y005941D03*
X017676Y005892D03*
X017676Y005875D03*
X017676Y006007D03*
X017676Y006024D03*
X017676Y006041D03*
X017510Y005693D03*
X016303Y004238D03*
X016270Y004255D03*
X014633Y004470D03*
X014270Y004635D03*
X015295Y008901D03*
X015344Y008934D03*
X015377Y008951D03*
X019147Y012208D03*
X019164Y012225D03*
X019181Y012241D03*
X020867Y014358D03*
X020884Y014374D03*
X020570Y014672D03*
X021363Y015962D03*
X020784Y016507D03*
X020454Y016689D03*
X020536Y017086D03*
X020950Y016937D03*
X021082Y018045D03*
X021066Y018062D03*
X019842Y017715D03*
X019809Y017698D03*
X019412Y016293D03*
X019429Y016276D03*
X019445Y016259D03*
X019462Y016243D03*
X019478Y016226D03*
X018899Y015036D03*
X017990Y014904D03*
X017973Y014887D03*
X016700Y015879D03*
X016915Y017004D03*
X015890Y018194D03*
X014253Y017103D03*
X014154Y016838D03*
X014220Y016193D03*
X014451Y015846D03*
X014220Y015681D03*
X014815Y016078D03*
X014832Y016094D03*
X013608Y016226D03*
X013261Y015515D03*
X013277Y015466D03*
X013277Y015449D03*
X013294Y015416D03*
X013443Y015218D03*
X013459Y015201D03*
X013476Y015185D03*
X013492Y015168D03*
X011392Y016673D03*
X011095Y017400D03*
X011062Y017417D03*
X011508Y017715D03*
X011525Y017731D03*
X010334Y017268D03*
X010152Y017268D03*
X009524Y017318D03*
X009392Y017384D03*
X009359Y017400D03*
X009342Y017648D03*
X009077Y017400D03*
X008647Y017483D03*
X008647Y017500D03*
X008350Y017334D03*
X008333Y017367D03*
X008647Y017086D03*
X008416Y018409D03*
X008433Y018426D03*
X004679Y013829D03*
X004464Y013564D03*
X004431Y013349D03*
X004514Y013283D03*
X004960Y013167D03*
X017709Y022146D03*
X017725Y022163D03*
X017742Y022179D03*
X017759Y022196D03*
X017775Y022212D03*
X018767Y022262D03*
X018850Y021948D03*
X019048Y021766D03*
X019065Y021749D03*
X018866Y021617D03*
X019065Y021319D03*
X019164Y021104D03*
X019147Y021088D03*
X018866Y021187D03*
X018800Y020889D03*
X018007Y020741D03*
X017973Y020757D03*
X019561Y021336D03*
X020189Y020823D03*
X020222Y020840D03*
X019825Y020410D03*
X019825Y020393D03*
X019809Y020377D03*
X019809Y020360D03*
X019792Y020344D03*
X019792Y020327D03*
X019792Y020311D03*
X019776Y020294D03*
X019776Y020278D03*
X019776Y020261D03*
X019759Y020228D03*
X019759Y020211D03*
X019759Y020195D03*
X019759Y020178D03*
X019743Y020129D03*
X019743Y020112D03*
X019743Y020096D03*
X020073Y019319D03*
X021132Y019881D03*
X021148Y019897D03*
X021181Y019914D03*
X021198Y019930D03*
X021231Y019947D03*
X021264Y019963D03*
X021264Y020129D03*
X021892Y020542D03*
X022438Y020956D03*
X022736Y021104D03*
X022752Y021121D03*
X022884Y021485D03*
X022934Y022096D03*
X023133Y022675D03*
X022951Y023287D03*
X022951Y023370D03*
X021297Y021452D03*
X021314Y021435D03*
X021132Y020922D03*
X021810Y019104D03*
X022719Y018178D03*
X022703Y018161D03*
X023017Y018641D03*
X023910Y018045D03*
X023926Y017731D03*
X024290Y018376D03*
X024323Y018657D03*
X023893Y019649D03*
X023910Y019666D03*
X024191Y019864D03*
X023926Y020344D03*
X022984Y017450D03*
X022554Y016524D03*
X024224Y016458D03*
X024406Y016937D03*
X023810Y013994D03*
X024224Y013548D03*
X024075Y013316D03*
X019329Y004867D03*
X019313Y004850D03*
X018999Y004470D03*
X018966Y004420D03*
X018949Y004387D03*
X018916Y004337D03*
X021132Y004056D03*
X021429Y004222D03*
X021429Y004238D03*
X021413Y004255D03*
X021380Y004304D03*
X021446Y004205D03*
X021446Y004189D03*
X021462Y004172D03*
X021462Y004156D03*
X021479Y004139D03*
X021479Y004122D03*
X021496Y004106D03*
X021496Y004089D03*
X021512Y004056D03*
X021529Y004023D03*
X021529Y004007D03*
X021545Y003974D03*
X021677Y003775D03*
X021247Y004437D03*
X021148Y004536D03*
X022554Y003841D03*
X022570Y003825D03*
X021281Y002601D03*
X021297Y002138D03*
X020884Y001295D03*
X020057Y000964D03*
X019842Y001080D03*
X019809Y001096D03*
X019313Y001328D03*
X019280Y001344D03*
D11*
X019520Y001229D03*
X019553Y001212D03*
X019586Y001196D03*
X020479Y000964D03*
X021041Y002436D03*
X022678Y003709D03*
X021190Y004453D03*
X019470Y004949D03*
X018346Y006173D03*
X018246Y006140D03*
X017634Y006553D03*
X016328Y007512D03*
X016560Y007843D03*
X017883Y008041D03*
X018279Y009463D03*
X018180Y009513D03*
X019768Y011514D03*
X019768Y011745D03*
X019784Y012109D03*
X019536Y012440D03*
X019288Y012307D03*
X020247Y011745D03*
X022099Y012820D03*
X022579Y011646D03*
X023124Y011216D03*
X023223Y011150D03*
X022562Y010555D03*
X021603Y008918D03*
X021388Y009017D03*
X021372Y009033D03*
X021338Y009050D03*
X021305Y009067D03*
X020859Y008124D03*
X021868Y007479D03*
X023223Y008670D03*
X025224Y008653D03*
X025241Y005644D03*
X025390Y004569D03*
X025357Y004552D03*
X024133Y013349D03*
X024133Y013366D03*
X021454Y015912D03*
X022645Y016458D03*
X022794Y016359D03*
X023009Y017070D03*
X023025Y017516D03*
X024249Y016871D03*
X021818Y018756D03*
X021405Y017847D03*
X021190Y017979D03*
X020049Y017781D03*
X018858Y016822D03*
X016957Y016970D03*
X016080Y018277D03*
X014013Y016904D03*
X013964Y016921D03*
X011665Y017797D03*
X011103Y017219D03*
X010260Y017235D03*
X009334Y017599D03*
X009201Y017483D03*
X008772Y018574D03*
X017982Y022328D03*
X018891Y021865D03*
X018875Y020939D03*
X018131Y020691D03*
X020214Y019252D03*
X020644Y019120D03*
X021322Y019996D03*
X021950Y020311D03*
X021983Y020327D03*
X022000Y020344D03*
X022033Y020360D03*
X022049Y020377D03*
X022926Y021468D03*
X022975Y022146D03*
X020429Y014622D03*
X020727Y014275D03*
X013302Y008802D03*
X013649Y006818D03*
X015568Y006272D03*
D12*
X020470Y008058D03*
X020619Y005296D03*
X020305Y000981D03*
X019280Y014490D03*
X022107Y019186D03*
X021562Y020211D03*
X020768Y020972D03*
D13*
X022851Y020691D03*
X022107Y018822D03*
X018321Y022361D03*
X018536Y015069D03*
X020322Y000997D03*
D14*
X020330Y001014D03*
X018213Y016722D03*
X022182Y019170D03*
X022810Y020674D03*
D15*
X018412Y017136D03*
X019354Y014077D03*
X022777Y015234D03*
X022860Y008570D03*
X020330Y001030D03*
D16*
X020330Y001047D03*
X022198Y018789D03*
X019817Y021270D03*
D17*
X019371Y021253D03*
X019222Y021154D03*
X019205Y021137D03*
X019189Y021121D03*
X019073Y021336D03*
X019090Y021352D03*
X019090Y021369D03*
X019106Y021402D03*
X019057Y021485D03*
X019040Y021501D03*
X019023Y021518D03*
X018990Y021534D03*
X018974Y021551D03*
X018957Y021567D03*
X018858Y021633D03*
X019023Y021782D03*
X018842Y021964D03*
X018858Y021170D03*
X018594Y020707D03*
X017949Y020774D03*
X017916Y020790D03*
X017634Y022047D03*
X017668Y022096D03*
X017684Y022113D03*
X017701Y022130D03*
X019900Y020542D03*
X019867Y020493D03*
X019867Y020476D03*
X019850Y020459D03*
X019850Y020443D03*
X019834Y020426D03*
X019751Y020162D03*
X019751Y020145D03*
X019734Y020079D03*
X019734Y020063D03*
X019734Y020046D03*
X019734Y020030D03*
X020016Y020691D03*
X020115Y020774D03*
X020131Y020790D03*
X020164Y020807D03*
X021157Y020906D03*
X021173Y020889D03*
X021190Y020873D03*
X021272Y020278D03*
X021107Y019864D03*
X021090Y019848D03*
X021074Y019831D03*
X021057Y019815D03*
X021041Y019798D03*
X021024Y019781D03*
X021008Y019765D03*
X020991Y019748D03*
X020975Y019732D03*
X020958Y019699D03*
X020942Y019682D03*
X020909Y019633D03*
X020694Y019104D03*
X020098Y019302D03*
X020049Y019335D03*
X020032Y019352D03*
X020016Y019368D03*
X021024Y018095D03*
X021041Y018078D03*
X021586Y017963D03*
X022645Y018111D03*
X022661Y018128D03*
X022678Y018144D03*
X022893Y018310D03*
X023141Y018525D03*
X023885Y018029D03*
X023918Y017715D03*
X024249Y018012D03*
X024331Y018674D03*
X024348Y018889D03*
X023918Y019682D03*
X023934Y019699D03*
X023951Y019715D03*
X023984Y019748D03*
X024034Y019781D03*
X024331Y020360D03*
X022777Y021154D03*
X022777Y021170D03*
X022794Y021187D03*
X022760Y021137D03*
X022215Y020542D03*
X021934Y020559D03*
X021768Y020013D03*
X021272Y021468D03*
X021256Y021485D03*
X022942Y022245D03*
X022942Y022262D03*
X022942Y022278D03*
X022942Y022295D03*
X022942Y022311D03*
X022942Y022328D03*
X022942Y022344D03*
X022942Y022361D03*
X022942Y022378D03*
X022942Y022394D03*
X022942Y022411D03*
X022942Y022427D03*
X022942Y022444D03*
X022942Y022460D03*
X022942Y022477D03*
X022942Y022493D03*
X022942Y022510D03*
X022942Y022526D03*
X022942Y022543D03*
X022942Y022559D03*
X022942Y022675D03*
X022942Y022692D03*
X022942Y022708D03*
X022942Y022725D03*
X022942Y022741D03*
X022942Y022758D03*
X022942Y022774D03*
X022942Y022791D03*
X022942Y022807D03*
X022942Y022824D03*
X022942Y022841D03*
X022942Y022857D03*
X022942Y022874D03*
X022942Y022890D03*
X022942Y022907D03*
X022942Y022923D03*
X022942Y022940D03*
X022942Y022956D03*
X022942Y022973D03*
X022942Y022989D03*
X022942Y023006D03*
X022942Y023022D03*
X022942Y023039D03*
X022942Y023056D03*
X022942Y023072D03*
X022942Y023089D03*
X022942Y023105D03*
X022942Y023122D03*
X023157Y022692D03*
X023124Y022245D03*
X023108Y022229D03*
X022942Y023386D03*
X022942Y023403D03*
X019784Y017681D03*
X019751Y017665D03*
X019718Y017648D03*
X019701Y017632D03*
X019652Y017599D03*
X019635Y017582D03*
X018825Y016838D03*
X019387Y016326D03*
X019404Y016309D03*
X020297Y016111D03*
X020809Y016491D03*
X021157Y016590D03*
X021173Y016541D03*
X021173Y016524D03*
X021190Y016491D03*
X021190Y016474D03*
X021190Y016458D03*
X021206Y016425D03*
X021206Y016408D03*
X021206Y016392D03*
X021223Y016359D03*
X021223Y016342D03*
X021223Y016326D03*
X021223Y016309D03*
X021239Y016293D03*
X021239Y016276D03*
X021239Y016259D03*
X021239Y016243D03*
X021256Y016210D03*
X021256Y016193D03*
X020991Y016904D03*
X020975Y016921D03*
X022446Y016640D03*
X022479Y016590D03*
X022496Y016574D03*
X022512Y016557D03*
X022529Y016541D03*
X023190Y017152D03*
X024216Y016441D03*
X024282Y016673D03*
X024431Y016954D03*
X024464Y016970D03*
X024282Y017169D03*
X023786Y013978D03*
X024199Y013944D03*
X024232Y013564D03*
X022794Y011530D03*
X022810Y011514D03*
X022827Y011497D03*
X022843Y011481D03*
X022860Y011464D03*
X022876Y011448D03*
X022893Y011431D03*
X022909Y011415D03*
X022926Y011398D03*
X022694Y011100D03*
X022711Y011084D03*
X022512Y011266D03*
X022744Y010704D03*
X024216Y010819D03*
X024216Y011266D03*
X024265Y009315D03*
X024133Y008570D03*
X024116Y008537D03*
X024199Y008207D03*
X024183Y007843D03*
X025175Y007793D03*
X025224Y007430D03*
X025191Y006735D03*
X025191Y006520D03*
X025175Y005991D03*
X025257Y005478D03*
X025241Y005148D03*
X025224Y005131D03*
X025241Y004718D03*
X025257Y004271D03*
X025323Y004172D03*
X025191Y004122D03*
X024083Y005263D03*
X024100Y005280D03*
X024183Y006057D03*
X024298Y006305D03*
X024298Y006322D03*
X023190Y006801D03*
X023174Y006785D03*
X023157Y006768D03*
X023124Y006752D03*
X023108Y006735D03*
X023091Y006719D03*
X023058Y006702D03*
X023042Y006685D03*
X023025Y006669D03*
X022959Y006619D03*
X022942Y006603D03*
X022926Y006586D03*
X021983Y007562D03*
X022000Y007578D03*
X022314Y008455D03*
X020991Y008190D03*
X020909Y009281D03*
X020875Y009298D03*
X019404Y011034D03*
X019619Y011133D03*
X019883Y011282D03*
X019718Y011828D03*
X019718Y011844D03*
X019983Y011960D03*
X019999Y011944D03*
X020065Y011878D03*
X020082Y011861D03*
X019751Y012159D03*
X019685Y012274D03*
X019123Y012192D03*
X019090Y012142D03*
X019123Y011200D03*
X019139Y011183D03*
X018031Y010108D03*
X018031Y010092D03*
X017601Y010125D03*
X017486Y009993D03*
X017469Y009959D03*
X017436Y009910D03*
X017436Y009893D03*
X017420Y009877D03*
X017420Y009860D03*
X017403Y009827D03*
X017386Y009794D03*
X017370Y009744D03*
X018428Y009381D03*
X018445Y009364D03*
X018461Y009348D03*
X018478Y009331D03*
X018494Y009315D03*
X018511Y009298D03*
X018527Y009265D03*
X018544Y009248D03*
X018560Y009215D03*
X018577Y009182D03*
X018594Y009149D03*
X018610Y009116D03*
X018610Y009100D03*
X018643Y009000D03*
X018031Y008141D03*
X018015Y008124D03*
X017998Y008107D03*
X017651Y008174D03*
X017403Y008554D03*
X017403Y008570D03*
X017386Y008587D03*
X017386Y008604D03*
X017370Y008620D03*
X017370Y008637D03*
X017353Y008670D03*
X016692Y007760D03*
X016494Y007413D03*
X016494Y007033D03*
X016444Y007000D03*
X016394Y006967D03*
X016295Y006900D03*
X016179Y006222D03*
X015336Y006404D03*
X015320Y006421D03*
X014890Y006057D03*
X014906Y006007D03*
X014906Y005991D03*
X014906Y005974D03*
X014906Y005958D03*
X014923Y005941D03*
X014923Y005925D03*
X014923Y005908D03*
X014923Y005892D03*
X014923Y005875D03*
X014923Y005859D03*
X015501Y005445D03*
X016196Y004304D03*
X016212Y004288D03*
X016246Y004271D03*
X017056Y004222D03*
X017601Y005363D03*
X017634Y005379D03*
X017816Y005528D03*
X017833Y005544D03*
X017849Y005561D03*
X017866Y005578D03*
X017883Y005611D03*
X017618Y005776D03*
X017668Y005842D03*
X017668Y005859D03*
X017684Y005908D03*
X017684Y005925D03*
X017287Y006107D03*
X017254Y005693D03*
X018544Y006272D03*
X018594Y006305D03*
X018610Y006322D03*
X018627Y006338D03*
X018643Y006355D03*
X019040Y007132D03*
X019288Y004833D03*
X019272Y004817D03*
X019106Y004635D03*
X019090Y004619D03*
X019073Y004585D03*
X019057Y004569D03*
X019057Y004552D03*
X019040Y004536D03*
X019023Y004519D03*
X019023Y004503D03*
X019007Y004486D03*
X018990Y004453D03*
X018974Y004437D03*
X018957Y004404D03*
X018941Y004370D03*
X018924Y004354D03*
X018908Y004321D03*
X018891Y004304D03*
X018875Y004271D03*
X021123Y004073D03*
X021388Y004288D03*
X021405Y004271D03*
X021372Y004321D03*
X021355Y004337D03*
X021338Y004354D03*
X021322Y004370D03*
X021305Y004387D03*
X021289Y004404D03*
X021272Y004420D03*
X021140Y004552D03*
X021140Y004569D03*
X021504Y004073D03*
X021520Y004040D03*
X021537Y003990D03*
X021553Y003957D03*
X021570Y003941D03*
X021570Y003924D03*
X021586Y003891D03*
X021603Y003858D03*
X021620Y003841D03*
X021653Y003792D03*
X022496Y003924D03*
X022529Y003874D03*
X022546Y003858D03*
X021686Y002535D03*
X021305Y002618D03*
X021355Y002188D03*
X021338Y002171D03*
X021322Y002155D03*
X020909Y001460D03*
X020909Y001444D03*
X020909Y001427D03*
X020909Y001411D03*
X020909Y001394D03*
X020892Y001378D03*
X020892Y001361D03*
X020892Y001344D03*
X020892Y001328D03*
X020892Y001311D03*
X020875Y001278D03*
X020875Y001262D03*
X020875Y001245D03*
X020875Y001229D03*
X020859Y001179D03*
X019867Y001063D03*
X019222Y001378D03*
X014245Y004652D03*
X014212Y004668D03*
X014195Y004685D03*
X014179Y004701D03*
X014096Y004784D03*
X014046Y004850D03*
X013980Y004982D03*
X014212Y006041D03*
X014228Y006057D03*
X013881Y006867D03*
X014013Y007099D03*
X014129Y007628D03*
X014129Y007909D03*
X014129Y007926D03*
X014112Y007942D03*
X014096Y007959D03*
X014079Y007975D03*
X013253Y008438D03*
X013170Y008504D03*
X012740Y008488D03*
X012740Y008670D03*
X013170Y008951D03*
X012194Y008306D03*
X012046Y008422D03*
X011880Y008289D03*
X011864Y008273D03*
X011979Y008141D03*
X012079Y007595D03*
X011880Y007430D03*
X012062Y006900D03*
X012062Y006884D03*
X013170Y006636D03*
X015253Y008868D03*
X015270Y008885D03*
X015320Y008918D03*
X016146Y008901D03*
X016163Y008885D03*
X016179Y008868D03*
X020859Y012341D03*
X020875Y012357D03*
X020909Y012374D03*
X020909Y014391D03*
X018924Y015019D03*
X017949Y014870D03*
X017783Y013663D03*
X017833Y013564D03*
X017849Y013531D03*
X017883Y013481D03*
X018709Y013300D03*
X016692Y015863D03*
X016709Y015896D03*
X016709Y015912D03*
X017105Y016458D03*
X017453Y016177D03*
X017816Y016689D03*
X017089Y016904D03*
X015865Y018178D03*
X015832Y018161D03*
X014394Y017020D03*
X014377Y017037D03*
X014344Y017053D03*
X014327Y017070D03*
X014294Y017086D03*
X014179Y016822D03*
X014212Y016805D03*
X014228Y016789D03*
X014724Y016507D03*
X014228Y016177D03*
X014228Y016044D03*
X014228Y016028D03*
X014228Y016011D03*
X014228Y015995D03*
X014228Y015978D03*
X014228Y015962D03*
X014228Y015945D03*
X014228Y015929D03*
X014228Y015912D03*
X014228Y015896D03*
X014228Y015879D03*
X014212Y015664D03*
X014212Y015648D03*
X014195Y015416D03*
X014575Y015598D03*
X014460Y015863D03*
X014476Y015879D03*
X013583Y016210D03*
X013550Y016193D03*
X013253Y015565D03*
X013253Y015548D03*
X013253Y015532D03*
X013269Y015499D03*
X013269Y015482D03*
X013517Y015152D03*
X012062Y016640D03*
X011368Y016689D03*
X011384Y017599D03*
X011401Y017615D03*
X011417Y017632D03*
X011434Y017648D03*
X011450Y017665D03*
X011467Y017681D03*
X011483Y017698D03*
X012277Y017351D03*
X010127Y017285D03*
X009863Y017318D03*
X009681Y017235D03*
X009483Y017334D03*
X009449Y017351D03*
X009416Y017367D03*
X009350Y017665D03*
X009367Y017681D03*
X009383Y017698D03*
X009400Y017715D03*
X009416Y017731D03*
X009433Y017748D03*
X009449Y017764D03*
X009532Y017830D03*
X009069Y017384D03*
X009053Y017367D03*
X008656Y017467D03*
X008639Y017698D03*
X008309Y017450D03*
X008309Y017433D03*
X008325Y017400D03*
X008325Y017384D03*
X008342Y017351D03*
X008342Y017318D03*
X008342Y017301D03*
X008342Y017285D03*
X008689Y017103D03*
X009714Y018227D03*
X009268Y018376D03*
X009119Y018475D03*
X009086Y018492D03*
X009036Y018508D03*
X008391Y018393D03*
X008375Y018376D03*
X004671Y013845D03*
X004853Y013680D03*
X004538Y013614D03*
X004522Y013597D03*
X004489Y013581D03*
X004439Y013548D03*
X004406Y013531D03*
X004538Y013267D03*
X004638Y013085D03*
X015386Y016177D03*
X015650Y015929D03*
D18*
X017047Y016094D03*
X018552Y015102D03*
X013641Y017235D03*
X011905Y017814D03*
X009524Y017582D03*
X015212Y005759D03*
X015212Y005743D03*
X020520Y001063D03*
X023000Y008653D03*
D19*
X018511Y013217D03*
X018329Y015052D03*
X016576Y018393D03*
X013931Y016309D03*
X014377Y015565D03*
X012442Y017334D03*
X018329Y022427D03*
X020545Y019170D03*
X023025Y019070D03*
X017833Y010191D03*
X017453Y006123D03*
X020644Y001080D03*
D20*
X020743Y001096D03*
X022777Y003643D03*
X019883Y005131D03*
X019586Y004999D03*
X017337Y005644D03*
X017287Y005230D03*
X016361Y007463D03*
X016494Y007859D03*
X014030Y007165D03*
X012409Y007148D03*
X011831Y007496D03*
X014625Y004486D03*
X021421Y008984D03*
X021785Y007430D03*
X022595Y010604D03*
X022612Y011613D03*
X021553Y012671D03*
X020231Y011795D03*
X020115Y011431D03*
X020098Y011415D03*
X019751Y011216D03*
X019734Y011200D03*
X019305Y011117D03*
X019817Y012059D03*
X019520Y012423D03*
X020644Y014242D03*
X020528Y016640D03*
X022893Y018690D03*
X024133Y019831D03*
X022380Y020608D03*
X021851Y021187D03*
X021801Y021204D03*
X021719Y021237D03*
X023009Y022212D03*
X023025Y022642D03*
X019569Y021319D03*
X018346Y020625D03*
X016196Y018310D03*
X013947Y017202D03*
X013848Y016954D03*
X014096Y016259D03*
X014311Y015763D03*
X014294Y015747D03*
X015353Y016111D03*
X011086Y017252D03*
X009979Y017334D03*
X008391Y016987D03*
D21*
X008366Y016954D03*
X008614Y017070D03*
X008647Y017516D03*
X008647Y017533D03*
X008631Y017632D03*
X008631Y017648D03*
X009325Y017615D03*
X008515Y018475D03*
X008482Y018459D03*
X011177Y017334D03*
X011922Y017913D03*
X014088Y016871D03*
X014137Y017152D03*
X014203Y016210D03*
X014418Y015830D03*
X014236Y015697D03*
X014220Y015433D03*
X014534Y015581D03*
X014865Y016111D03*
X015427Y016094D03*
X016651Y015846D03*
X016866Y016359D03*
X018040Y014937D03*
X018668Y013283D03*
X019644Y012324D03*
X019660Y012291D03*
X019230Y012274D03*
X019743Y011481D03*
X020156Y011811D03*
X020255Y011729D03*
X021082Y012473D03*
X022984Y011332D03*
X023000Y011315D03*
X023017Y011299D03*
X023033Y011282D03*
X022537Y010538D03*
X022372Y008967D03*
X021942Y007529D03*
X020900Y008141D03*
X018966Y008025D03*
X017891Y008025D03*
X018188Y008984D03*
X018155Y009530D03*
X017659Y010158D03*
X019197Y011150D03*
X016088Y008951D03*
X016601Y007826D03*
X016320Y006933D03*
X015444Y006338D03*
X015410Y006355D03*
X014600Y006239D03*
X014303Y006107D03*
X013608Y006586D03*
X013211Y006619D03*
X013178Y006669D03*
X012434Y006834D03*
X012037Y006967D03*
X012037Y006983D03*
X011955Y007959D03*
X011955Y007975D03*
X011955Y007992D03*
X011955Y008008D03*
X011955Y008025D03*
X011955Y008041D03*
X012732Y008471D03*
X012765Y008686D03*
X012814Y008719D03*
X013211Y008471D03*
X017229Y005197D03*
X016386Y004205D03*
X014336Y004602D03*
X018205Y006123D03*
X018470Y006222D03*
X019412Y004916D03*
X021165Y004503D03*
X021148Y004007D03*
X021247Y002568D03*
X021016Y002419D03*
X019776Y001113D03*
X019743Y001130D03*
X019379Y001295D03*
X024191Y005346D03*
X025199Y005809D03*
X025199Y006322D03*
X025199Y006338D03*
X025216Y006570D03*
X025233Y007413D03*
X025166Y007777D03*
X025233Y008670D03*
X024174Y008835D03*
X024174Y008852D03*
X024174Y008174D03*
X024207Y007810D03*
X025233Y004949D03*
X025249Y004701D03*
X025249Y004685D03*
X025199Y004139D03*
X024207Y011282D03*
X024207Y013515D03*
X021413Y015929D03*
X022587Y016491D03*
X024108Y017930D03*
X024125Y017946D03*
X022984Y018657D03*
X022884Y018293D03*
X021132Y018012D03*
X019974Y017764D03*
X019577Y016160D03*
X020818Y014325D03*
X021297Y019980D03*
X021859Y020526D03*
X022140Y020459D03*
X022686Y021071D03*
X022951Y022113D03*
X022967Y023304D03*
X022967Y023320D03*
X020322Y020889D03*
X019181Y021650D03*
X019131Y021683D03*
X019114Y021700D03*
X018883Y021600D03*
X018866Y021915D03*
X018751Y022278D03*
X017874Y022278D03*
X019015Y021286D03*
X019081Y021038D03*
X018552Y020691D03*
X018040Y020724D03*
X013344Y015333D03*
X013393Y015267D03*
X013559Y015135D03*
X004977Y013746D03*
X004679Y013812D03*
X004497Y013300D03*
X004646Y013118D03*
D22*
X004638Y013101D03*
X004820Y013233D03*
X009102Y017417D03*
X009334Y017632D03*
X008639Y017665D03*
X008639Y017681D03*
X008457Y018442D03*
X010260Y017450D03*
X010260Y017219D03*
X011136Y017202D03*
X011169Y017301D03*
X011169Y017318D03*
X011549Y017748D03*
X011583Y017764D03*
X011434Y016656D03*
X013286Y015433D03*
X013302Y015400D03*
X013319Y015383D03*
X013319Y015367D03*
X013335Y015350D03*
X013352Y015317D03*
X013368Y015300D03*
X013385Y015284D03*
X013401Y015251D03*
X013418Y015234D03*
X014096Y015119D03*
X013649Y016243D03*
X014129Y016855D03*
X014228Y017119D03*
X014179Y017136D03*
X015700Y015912D03*
X016808Y016111D03*
X017006Y016011D03*
X017386Y016144D03*
X017420Y016160D03*
X017072Y016441D03*
X017056Y016921D03*
X015964Y018227D03*
X015931Y018211D03*
X018825Y020906D03*
X018891Y021204D03*
X019040Y021303D03*
X019123Y021071D03*
X019106Y021055D03*
X019156Y021667D03*
X019090Y021716D03*
X019073Y021733D03*
X018858Y021931D03*
X017849Y022262D03*
X017816Y022245D03*
X017800Y022229D03*
X019768Y020244D03*
X020247Y020856D03*
X020280Y020873D03*
X021090Y020939D03*
X021338Y021419D03*
X022198Y020526D03*
X022182Y020509D03*
X022165Y020493D03*
X022149Y020476D03*
X022264Y020575D03*
X022711Y021088D03*
X021686Y020096D03*
X020131Y019285D03*
X021107Y018029D03*
X019933Y017748D03*
X019883Y017731D03*
X020760Y016524D03*
X021388Y015945D03*
X021372Y015102D03*
X020842Y014341D03*
X020528Y014656D03*
X019553Y016177D03*
X019520Y016193D03*
X019503Y016210D03*
X018015Y014920D03*
X019205Y012258D03*
X019768Y012142D03*
X019933Y011993D03*
X020131Y011828D03*
X020264Y011712D03*
X019734Y011795D03*
X019867Y011266D03*
X020991Y012423D03*
X021024Y012440D03*
X021057Y012456D03*
X022413Y012704D03*
X022744Y011563D03*
X022529Y011249D03*
X024067Y012919D03*
X024216Y013531D03*
X024183Y013928D03*
X022794Y016342D03*
X022562Y016507D03*
X022992Y017467D03*
X022744Y018194D03*
X024149Y017963D03*
X024282Y016656D03*
X023885Y019633D03*
X024050Y019798D03*
X024315Y020344D03*
X022959Y022576D03*
X022959Y023337D03*
X022959Y023353D03*
X017634Y010141D03*
X018362Y009430D03*
X018180Y009017D03*
X018180Y009000D03*
X017767Y008107D03*
X016626Y007810D03*
X016295Y007545D03*
X016444Y007446D03*
X016609Y007099D03*
X016576Y007082D03*
X016312Y006917D03*
X015386Y006371D03*
X014278Y006090D03*
X013616Y006570D03*
X013600Y006603D03*
X013153Y006685D03*
X012426Y006818D03*
X012046Y006950D03*
X011797Y007595D03*
X011963Y008058D03*
X011963Y008074D03*
X011963Y008091D03*
X012823Y008736D03*
X013203Y008752D03*
X013186Y008488D03*
X013831Y008570D03*
X014112Y007611D03*
X014079Y007396D03*
X014096Y007181D03*
X015419Y008967D03*
X016113Y008934D03*
X016130Y008918D03*
X018131Y006669D03*
X018494Y006239D03*
X017568Y005346D03*
X017271Y005594D03*
X017023Y004205D03*
X016345Y004222D03*
X014294Y004619D03*
X018941Y008041D03*
X020942Y008157D03*
X020991Y009232D03*
X020958Y009248D03*
X022347Y008471D03*
X024166Y008819D03*
X024183Y008190D03*
X024199Y007826D03*
X024232Y007793D03*
X024265Y007760D03*
X024216Y006619D03*
X024298Y006272D03*
X023835Y006272D03*
X025208Y006553D03*
X025191Y005793D03*
X025175Y005776D03*
X025241Y004999D03*
X025241Y004982D03*
X025241Y004966D03*
X025489Y004602D03*
X025191Y004503D03*
X022612Y003775D03*
X022595Y003792D03*
X022579Y003808D03*
X021140Y004023D03*
X021140Y004040D03*
X021157Y004519D03*
X020975Y005230D03*
X019387Y004900D03*
X019354Y004883D03*
X021272Y002585D03*
X021719Y002552D03*
X021272Y002122D03*
X021239Y002105D03*
X021024Y001989D03*
X020809Y001113D03*
X019338Y001311D03*
X025241Y009447D03*
D23*
X025233Y008686D03*
X025315Y008587D03*
X024240Y008389D03*
X024108Y008322D03*
X024224Y008868D03*
X024174Y009083D03*
X024307Y007727D03*
X024307Y007711D03*
X024174Y007644D03*
X024174Y007628D03*
X024158Y007611D03*
X023232Y006834D03*
X023000Y006652D03*
X022984Y006636D03*
X022901Y006570D03*
X022884Y006553D03*
X022868Y006537D03*
X022851Y006520D03*
X022835Y006504D03*
X022818Y006487D03*
X022802Y006470D03*
X022785Y006454D03*
X022670Y006338D03*
X022653Y006322D03*
X022636Y006305D03*
X022025Y007611D03*
X021049Y008223D03*
X021016Y008207D03*
X020851Y009315D03*
X020834Y009331D03*
X020818Y009348D03*
X020669Y009496D03*
X020619Y009563D03*
X020586Y009612D03*
X020536Y009695D03*
X020520Y009728D03*
X019908Y011299D03*
X019842Y011547D03*
X019859Y011563D03*
X019842Y011729D03*
X019710Y011861D03*
X020024Y011927D03*
X020040Y011911D03*
X020057Y011894D03*
X020685Y012208D03*
X020702Y012225D03*
X020768Y012274D03*
X020784Y012291D03*
X020801Y012307D03*
X020834Y012324D03*
X022438Y012688D03*
X022455Y012671D03*
X024207Y012969D03*
X024075Y013779D03*
X021330Y015085D03*
X020966Y014457D03*
X020950Y014441D03*
X020933Y014424D03*
X020917Y014407D03*
X020603Y014689D03*
X020636Y014705D03*
X021347Y015978D03*
X021330Y015995D03*
X021314Y016028D03*
X021297Y016061D03*
X021281Y016094D03*
X021281Y016111D03*
X021281Y016127D03*
X021264Y016144D03*
X021264Y016160D03*
X021264Y016177D03*
X021247Y016226D03*
X021214Y016375D03*
X021198Y016441D03*
X021181Y016507D03*
X021165Y016557D03*
X021165Y016574D03*
X021148Y016607D03*
X021148Y016623D03*
X021148Y016640D03*
X021132Y016656D03*
X021132Y016673D03*
X021115Y016706D03*
X021115Y016722D03*
X021099Y016739D03*
X021099Y016756D03*
X021082Y016789D03*
X021066Y016805D03*
X021049Y016838D03*
X021033Y016855D03*
X021016Y016888D03*
X020834Y016474D03*
X020851Y016458D03*
X021413Y017830D03*
X021595Y017979D03*
X021595Y017996D03*
X021595Y018012D03*
X020999Y018111D03*
X020983Y018128D03*
X020966Y018144D03*
X020784Y019368D03*
X020801Y019418D03*
X020818Y019451D03*
X020834Y019484D03*
X020834Y019500D03*
X020851Y019517D03*
X020851Y019533D03*
X020867Y019550D03*
X020867Y019567D03*
X020884Y019583D03*
X020884Y019600D03*
X020900Y019616D03*
X020917Y019649D03*
X020933Y019666D03*
X020966Y019715D03*
X021247Y020112D03*
X021777Y019996D03*
X021777Y019980D03*
X021793Y019963D03*
X021793Y019947D03*
X021793Y019930D03*
X021793Y019914D03*
X021810Y019881D03*
X021810Y019864D03*
X021810Y019848D03*
X021810Y019831D03*
X021810Y019815D03*
X021810Y019798D03*
X021959Y020575D03*
X022223Y020559D03*
X022802Y021204D03*
X022802Y021220D03*
X022818Y021253D03*
X022818Y021270D03*
X022901Y021881D03*
X022901Y021898D03*
X022901Y021915D03*
X022901Y021931D03*
X022901Y021948D03*
X022901Y021964D03*
X022918Y022080D03*
X022934Y022229D03*
X023133Y022262D03*
X023149Y022278D03*
X023166Y022295D03*
X023182Y022311D03*
X023182Y022708D03*
X023199Y022725D03*
X022934Y023138D03*
X022934Y023155D03*
X022934Y023171D03*
X022934Y023188D03*
X022934Y023204D03*
X022934Y023270D03*
X022951Y023419D03*
X021214Y021518D03*
X021231Y021501D03*
X020801Y021055D03*
X021214Y020856D03*
X021231Y020823D03*
X021247Y020807D03*
X021264Y020774D03*
X021281Y020741D03*
X021281Y020724D03*
X020090Y020757D03*
X020073Y020741D03*
X020057Y020724D03*
X020040Y020707D03*
X019991Y020658D03*
X019974Y020641D03*
X019958Y020625D03*
X019941Y020608D03*
X019925Y020592D03*
X019925Y020575D03*
X019908Y020559D03*
X019892Y020526D03*
X019875Y020509D03*
X019743Y020013D03*
X019743Y019996D03*
X019743Y019980D03*
X019743Y019963D03*
X019743Y019947D03*
X019743Y019930D03*
X019743Y019914D03*
X019759Y019864D03*
X019759Y019848D03*
X019776Y019798D03*
X019908Y019500D03*
X019941Y019451D03*
X019958Y019434D03*
X019974Y019418D03*
X018784Y020873D03*
X018618Y020724D03*
X018850Y021154D03*
X019098Y021385D03*
X019098Y021419D03*
X019098Y021435D03*
X019081Y021468D03*
X018850Y021650D03*
X018833Y021832D03*
X018833Y021981D03*
X018833Y021997D03*
X018999Y021815D03*
X019015Y021799D03*
X018784Y022245D03*
X017659Y022080D03*
X017643Y022063D03*
X017626Y022030D03*
X017610Y022014D03*
X017610Y021997D03*
X017593Y021964D03*
X017577Y021915D03*
X017874Y020823D03*
X017891Y020807D03*
X019247Y021170D03*
X019263Y021187D03*
X019280Y021204D03*
X019313Y021220D03*
X019329Y021237D03*
X016866Y018293D03*
X015807Y018144D03*
X015758Y018111D03*
X014534Y016888D03*
X014534Y016871D03*
X014551Y016855D03*
X014567Y016838D03*
X014567Y016822D03*
X014584Y016805D03*
X014600Y016772D03*
X014617Y016739D03*
X014518Y016904D03*
X014501Y016921D03*
X014484Y016937D03*
X014468Y016954D03*
X014451Y016970D03*
X014435Y016987D03*
X014418Y017004D03*
X014253Y016772D03*
X014270Y016756D03*
X014501Y016342D03*
X014518Y016276D03*
X014534Y016193D03*
X014534Y016177D03*
X014534Y016028D03*
X014518Y015962D03*
X014501Y015929D03*
X014501Y015912D03*
X014484Y015896D03*
X014220Y015863D03*
X014220Y015846D03*
X014220Y015830D03*
X014203Y015631D03*
X014203Y015615D03*
X014203Y015598D03*
X014203Y015581D03*
X014187Y015400D03*
X014187Y015383D03*
X014187Y015367D03*
X014187Y015350D03*
X014187Y015333D03*
X014187Y015317D03*
X014187Y015300D03*
X014187Y015284D03*
X014187Y015267D03*
X014170Y015234D03*
X014170Y015218D03*
X014170Y015201D03*
X014600Y015615D03*
X014782Y016028D03*
X014782Y016044D03*
X014799Y016061D03*
X015030Y016193D03*
X015361Y016243D03*
X015377Y016210D03*
X015377Y016193D03*
X014699Y016524D03*
X014236Y016160D03*
X014236Y016144D03*
X014236Y016127D03*
X014236Y016111D03*
X014236Y016094D03*
X014236Y016078D03*
X014236Y016061D03*
X013525Y016177D03*
X013244Y015631D03*
X013244Y015615D03*
X013244Y015598D03*
X013244Y015581D03*
X011343Y016706D03*
X011310Y016722D03*
X011293Y016739D03*
X011277Y017450D03*
X011293Y017483D03*
X011310Y017500D03*
X011326Y017533D03*
X011343Y017549D03*
X011359Y017566D03*
X011376Y017582D03*
X012186Y017781D03*
X010351Y017285D03*
X010103Y017301D03*
X009507Y017814D03*
X009491Y017797D03*
X009474Y017781D03*
X009557Y017847D03*
X009573Y017863D03*
X009607Y017880D03*
X009623Y017896D03*
X009392Y018260D03*
X009375Y018277D03*
X009359Y018293D03*
X009342Y018310D03*
X009325Y018326D03*
X009309Y018343D03*
X009292Y018359D03*
X009243Y018393D03*
X009226Y018409D03*
X009193Y018426D03*
X009177Y018442D03*
X009144Y018459D03*
X008350Y018359D03*
X008267Y017582D03*
X008284Y017533D03*
X008284Y017516D03*
X008284Y017500D03*
X008300Y017483D03*
X008300Y017467D03*
X008317Y017417D03*
X008333Y017252D03*
X008714Y017119D03*
X008747Y017136D03*
X008796Y017169D03*
X008846Y017202D03*
X008912Y017252D03*
X008929Y017268D03*
X008978Y017301D03*
X008995Y017318D03*
X009011Y017334D03*
X009028Y017351D03*
X004977Y013763D03*
X004993Y013515D03*
X004977Y013498D03*
X004960Y013481D03*
X004811Y013250D03*
X004629Y013068D03*
X004381Y013515D03*
X011822Y008223D03*
X011839Y008240D03*
X011988Y008157D03*
X011938Y007942D03*
X011789Y007644D03*
X011789Y007628D03*
X011888Y007463D03*
X011888Y007446D03*
X011872Y007413D03*
X011872Y007396D03*
X011872Y007380D03*
X011872Y007363D03*
X011872Y007347D03*
X011872Y007330D03*
X011872Y007314D03*
X011872Y007297D03*
X011872Y007281D03*
X011872Y007264D03*
X011888Y007198D03*
X011922Y007132D03*
X011806Y006900D03*
X011822Y006884D03*
X012269Y006702D03*
X012335Y007132D03*
X012434Y007198D03*
X012500Y007132D03*
X012236Y007231D03*
X012236Y007248D03*
X012103Y007611D03*
X012666Y008422D03*
X012715Y008653D03*
X012847Y008752D03*
X013129Y008918D03*
X013691Y008785D03*
X013972Y008488D03*
X014038Y008240D03*
X014038Y008223D03*
X014055Y008207D03*
X014071Y007992D03*
X014137Y007893D03*
X014104Y007595D03*
X014055Y007363D03*
X013575Y006636D03*
X013327Y006454D03*
X013310Y006470D03*
X013112Y006719D03*
X012980Y006504D03*
X014170Y006007D03*
X014187Y006024D03*
X014848Y006123D03*
X014881Y006090D03*
X014881Y006074D03*
X014898Y006041D03*
X014898Y006024D03*
X014931Y005842D03*
X014931Y005826D03*
X014931Y005809D03*
X014931Y005793D03*
X014931Y005776D03*
X015295Y006437D03*
X015278Y006454D03*
X016287Y006884D03*
X016419Y006983D03*
X016270Y007562D03*
X016700Y007744D03*
X016717Y007727D03*
X016733Y007711D03*
X016766Y007661D03*
X017626Y008207D03*
X017643Y008190D03*
X018040Y008157D03*
X018056Y008174D03*
X018470Y008174D03*
X018470Y008190D03*
X018470Y008207D03*
X018470Y008223D03*
X018470Y008240D03*
X018470Y008256D03*
X018453Y008306D03*
X018453Y008322D03*
X018453Y008339D03*
X018453Y008356D03*
X018453Y008372D03*
X018436Y008405D03*
X018436Y008422D03*
X018436Y008438D03*
X018436Y008455D03*
X018436Y008471D03*
X018420Y008488D03*
X018420Y008504D03*
X018420Y008521D03*
X018420Y008537D03*
X018403Y008570D03*
X018403Y008587D03*
X018403Y008604D03*
X018387Y008637D03*
X018387Y008653D03*
X018387Y008670D03*
X018370Y008686D03*
X018370Y008703D03*
X018370Y008719D03*
X018354Y008736D03*
X018354Y008752D03*
X018337Y008785D03*
X018337Y008802D03*
X018321Y008819D03*
X018321Y008835D03*
X018304Y008852D03*
X018304Y008868D03*
X018288Y008885D03*
X018288Y008901D03*
X018635Y009017D03*
X018635Y009033D03*
X018635Y009050D03*
X018618Y009067D03*
X018618Y009083D03*
X018602Y009133D03*
X018585Y009166D03*
X018569Y009199D03*
X018552Y009232D03*
X018519Y009281D03*
X018651Y008984D03*
X018651Y008967D03*
X018651Y008951D03*
X018668Y008918D03*
X018668Y008901D03*
X018668Y008885D03*
X018668Y008868D03*
X018684Y008819D03*
X018684Y008802D03*
X018684Y008785D03*
X018701Y008719D03*
X018701Y008703D03*
X018850Y008141D03*
X018866Y008124D03*
X018883Y008091D03*
X018899Y008074D03*
X018486Y008074D03*
X018486Y008058D03*
X018486Y008041D03*
X018486Y008025D03*
X018486Y008008D03*
X018486Y007992D03*
X018486Y008091D03*
X018486Y008107D03*
X018503Y007893D03*
X018503Y007876D03*
X018503Y007859D03*
X018503Y007843D03*
X018503Y007826D03*
X018503Y007810D03*
X018503Y007793D03*
X018503Y007777D03*
X018519Y007562D03*
X018519Y007545D03*
X018519Y007529D03*
X018519Y007512D03*
X018519Y007496D03*
X018519Y007479D03*
X018519Y007463D03*
X018519Y007446D03*
X018519Y007430D03*
X018519Y007413D03*
X018519Y007396D03*
X018519Y007380D03*
X018503Y007314D03*
X018503Y007297D03*
X018503Y007281D03*
X018503Y007264D03*
X018238Y006719D03*
X018205Y006702D03*
X018651Y006371D03*
X018668Y006388D03*
X018684Y006404D03*
X018701Y006421D03*
X018155Y006090D03*
X017676Y006074D03*
X017676Y006057D03*
X017659Y005826D03*
X017560Y005726D03*
X017775Y005495D03*
X017792Y005511D03*
X017759Y005478D03*
X017742Y005462D03*
X017725Y005445D03*
X017709Y005429D03*
X017676Y005412D03*
X017659Y005396D03*
X017874Y005594D03*
X017891Y005627D03*
X017907Y005660D03*
X019147Y004701D03*
X019147Y004685D03*
X019131Y004668D03*
X019114Y004652D03*
X019081Y004602D03*
X019164Y004718D03*
X019181Y004734D03*
X019197Y004751D03*
X019214Y004767D03*
X019230Y004784D03*
X019247Y004800D03*
X018883Y004288D03*
X018866Y004255D03*
X018850Y004238D03*
X018833Y004205D03*
X018519Y002700D03*
X018519Y002684D03*
X018850Y001758D03*
X018899Y001692D03*
X019197Y001394D03*
X019247Y001361D03*
X020851Y001163D03*
X020851Y001146D03*
X020851Y001130D03*
X020867Y001196D03*
X020867Y001212D03*
X020917Y001477D03*
X020917Y001493D03*
X020917Y001510D03*
X020917Y001526D03*
X020917Y001543D03*
X020933Y001559D03*
X020933Y001576D03*
X020933Y001593D03*
X020933Y001609D03*
X020933Y001626D03*
X020999Y001973D03*
X020983Y002403D03*
X021314Y002634D03*
X021330Y002651D03*
X021644Y002502D03*
X021661Y002519D03*
X021066Y003279D03*
X021066Y003296D03*
X021066Y003312D03*
X021066Y003329D03*
X021066Y003345D03*
X021066Y003362D03*
X021066Y003378D03*
X021066Y003395D03*
X021066Y003411D03*
X021066Y003428D03*
X021066Y003444D03*
X021066Y003461D03*
X021066Y003478D03*
X021066Y003494D03*
X021595Y003874D03*
X021578Y003907D03*
X021628Y003825D03*
X021644Y003808D03*
X022488Y003941D03*
X022504Y003907D03*
X022521Y003891D03*
X021132Y004585D03*
X020999Y005214D03*
X024009Y005115D03*
X024108Y005296D03*
X024125Y005313D03*
X024158Y005842D03*
X025166Y005974D03*
X025216Y004354D03*
X025233Y004304D03*
X025332Y004189D03*
X022422Y009083D03*
X022422Y009100D03*
X022752Y010720D03*
X022769Y010753D03*
X022736Y011034D03*
X022736Y011051D03*
X022719Y011067D03*
X024125Y010985D03*
X019098Y011216D03*
X019081Y011233D03*
X019065Y011249D03*
X019048Y011266D03*
X019032Y011299D03*
X019015Y011315D03*
X018999Y011348D03*
X018966Y011415D03*
X018949Y011464D03*
X019015Y012026D03*
X019032Y012059D03*
X019048Y012076D03*
X019048Y012093D03*
X019065Y012109D03*
X019081Y012126D03*
X019098Y012159D03*
X019114Y012175D03*
X018718Y013316D03*
X017957Y013399D03*
X017940Y013415D03*
X017924Y013432D03*
X017907Y013448D03*
X017891Y013465D03*
X017874Y013498D03*
X017858Y013515D03*
X017841Y013548D03*
X017825Y013581D03*
X017808Y013597D03*
X017808Y013614D03*
X017792Y013630D03*
X017792Y013647D03*
X017775Y013680D03*
X017775Y013696D03*
X017759Y013713D03*
X017759Y013730D03*
X017759Y013746D03*
X017742Y013763D03*
X017742Y013779D03*
X017742Y013796D03*
X017742Y013812D03*
X017725Y013845D03*
X017725Y013862D03*
X017725Y013878D03*
X017709Y013944D03*
X017709Y013961D03*
X017907Y014821D03*
X017924Y014837D03*
X017940Y014854D03*
X018933Y015003D03*
X019379Y016342D03*
X019362Y016359D03*
X019362Y016375D03*
X019346Y016392D03*
X019329Y016425D03*
X019445Y017367D03*
X019478Y017417D03*
X019495Y017433D03*
X019511Y017467D03*
X019528Y017483D03*
X019544Y017500D03*
X019561Y017516D03*
X019577Y017533D03*
X019594Y017549D03*
X019610Y017566D03*
X019677Y017615D03*
X017494Y016210D03*
X017477Y016193D03*
X016833Y016342D03*
X022405Y016706D03*
X022422Y016689D03*
X022422Y016673D03*
X022438Y016656D03*
X022455Y016623D03*
X022471Y016607D03*
X022967Y017433D03*
X023099Y017533D03*
X022951Y017996D03*
X022951Y018012D03*
X022951Y018029D03*
X022951Y018045D03*
X022951Y018062D03*
X022951Y018078D03*
X022636Y018095D03*
X022620Y018078D03*
X022603Y018062D03*
X022587Y018045D03*
X022570Y018012D03*
X023149Y018492D03*
X023149Y018508D03*
X023166Y018475D03*
X023166Y018459D03*
X023182Y018393D03*
X023199Y018326D03*
X023199Y018310D03*
X023199Y018293D03*
X023050Y018607D03*
X023033Y018624D03*
X024207Y018624D03*
X023959Y019732D03*
X024009Y019765D03*
X023910Y020327D03*
X024736Y017285D03*
X024174Y016607D03*
X024174Y016590D03*
X024174Y016574D03*
X024224Y016425D03*
X018040Y010075D03*
X018040Y010059D03*
X018056Y010026D03*
X017527Y010059D03*
X017510Y010042D03*
X017510Y010026D03*
X017494Y010009D03*
X017477Y009976D03*
X017461Y009943D03*
X017444Y009926D03*
X017411Y009844D03*
X017395Y009811D03*
X017378Y009778D03*
X017378Y009761D03*
X017362Y009728D03*
X017362Y009711D03*
X017345Y009695D03*
X017345Y009678D03*
X017345Y009662D03*
X017329Y009645D03*
X017329Y009629D03*
X017329Y009612D03*
X017329Y009596D03*
X017312Y009579D03*
X017312Y009563D03*
X017312Y009546D03*
X017296Y009480D03*
X017329Y008719D03*
X017345Y008686D03*
X017362Y008653D03*
X017411Y008537D03*
X017428Y008521D03*
X017428Y008504D03*
X016204Y008819D03*
X016188Y008835D03*
X016188Y008852D03*
X015245Y008852D03*
X013955Y005081D03*
X013955Y005065D03*
X013972Y005015D03*
X013972Y004999D03*
X013988Y004966D03*
X013988Y004949D03*
X014005Y004933D03*
X014005Y004916D03*
X014022Y004900D03*
X014022Y004883D03*
X014038Y004867D03*
X014055Y004833D03*
X014071Y004817D03*
X014088Y004800D03*
X014104Y004767D03*
X014121Y004751D03*
X014137Y004734D03*
X014154Y004718D03*
X014865Y004602D03*
X014881Y004619D03*
X014914Y004685D03*
X016072Y004404D03*
X016088Y004387D03*
X016105Y004370D03*
X016122Y004354D03*
X016155Y004337D03*
X016171Y004321D03*
X017064Y004238D03*
D24*
X017519Y005330D03*
X018428Y006206D03*
X016642Y007115D03*
X016328Y006950D03*
X016312Y007529D03*
X016345Y007942D03*
X015468Y008984D03*
X013649Y008769D03*
X012723Y008455D03*
X011814Y007578D03*
X012029Y007000D03*
X013897Y006933D03*
X013897Y006884D03*
X014013Y007115D03*
X014344Y006123D03*
X014790Y006140D03*
X015468Y006322D03*
X015501Y006305D03*
X014807Y004585D03*
X019404Y001278D03*
X019701Y001146D03*
X021041Y002006D03*
X021206Y002089D03*
X021223Y002552D03*
X021752Y002568D03*
X021719Y003759D03*
X021157Y003990D03*
X021173Y004486D03*
X020942Y005247D03*
X022628Y003759D03*
X022645Y003742D03*
X022661Y003726D03*
X024183Y005330D03*
X024265Y005875D03*
X025208Y005826D03*
X025224Y007396D03*
X022380Y008488D03*
X021537Y008951D03*
X021504Y008967D03*
X021024Y009215D03*
X021917Y007512D03*
X018197Y008967D03*
X018329Y009447D03*
X017684Y010174D03*
X019238Y011133D03*
X019668Y011167D03*
X019751Y011497D03*
X019751Y011778D03*
X019784Y012126D03*
X019652Y012307D03*
X019255Y012291D03*
X018627Y013184D03*
X018015Y013382D03*
X018858Y015052D03*
X019602Y016144D03*
X019635Y016127D03*
X020247Y016094D03*
X020479Y016673D03*
X021157Y017996D03*
X020164Y019269D03*
X021289Y020145D03*
X021289Y020261D03*
X022083Y020410D03*
X022099Y020426D03*
X022116Y020443D03*
X021355Y021402D03*
X020346Y020906D03*
X018908Y021220D03*
X018891Y021584D03*
X018875Y021881D03*
X018875Y021898D03*
X018726Y022295D03*
X017899Y022295D03*
X018081Y020707D03*
X015997Y018244D03*
X016940Y016987D03*
X017849Y016706D03*
X015749Y015896D03*
X011616Y017781D03*
X011169Y017351D03*
X009697Y018211D03*
X008970Y018525D03*
X008540Y018492D03*
X008639Y017615D03*
X008639Y017599D03*
X008639Y017582D03*
X008639Y017566D03*
X008639Y017549D03*
X009317Y017417D03*
X004968Y013184D03*
X004836Y013217D03*
X004489Y013316D03*
X004472Y013333D03*
X020479Y014639D03*
X020793Y014308D03*
X022380Y012721D03*
X022562Y011663D03*
X022546Y011233D03*
X023058Y011266D03*
X023075Y011249D03*
X023240Y011133D03*
X024183Y012952D03*
X024183Y013911D03*
X022612Y016474D03*
X023009Y017483D03*
X024232Y017996D03*
X024183Y019848D03*
X022959Y022130D03*
X021123Y012489D03*
D25*
X021165Y012506D03*
X019759Y011762D03*
X017891Y010274D03*
X018205Y008951D03*
X018205Y008934D03*
X018222Y008918D03*
X016055Y008967D03*
X016684Y007132D03*
X015526Y006289D03*
X015179Y005660D03*
X015030Y005462D03*
X016436Y004189D03*
X016998Y004189D03*
X017296Y005611D03*
X018387Y006189D03*
X019445Y004933D03*
X021181Y004470D03*
X021165Y003974D03*
X019478Y001245D03*
X019445Y001262D03*
X019627Y001179D03*
X019660Y001163D03*
X025233Y005627D03*
X025249Y005660D03*
X024191Y006603D03*
X025166Y007760D03*
X024174Y008157D03*
X022884Y008670D03*
X021892Y007496D03*
X021562Y008934D03*
X021066Y009199D03*
X022554Y011216D03*
X023099Y011233D03*
X024158Y011018D03*
X024158Y011001D03*
X025233Y009430D03*
X024125Y014226D03*
X020768Y014292D03*
X019015Y014457D03*
X018073Y014953D03*
X017345Y016127D03*
X019677Y016111D03*
X020024Y015995D03*
X020718Y016541D03*
X022868Y018277D03*
X023017Y017500D03*
X024273Y018359D03*
X023149Y019037D03*
X022074Y020393D03*
X021810Y020509D03*
X022322Y020592D03*
X021578Y021303D03*
X021049Y020956D03*
X020388Y020922D03*
X019048Y021022D03*
X018850Y020922D03*
X018916Y021237D03*
X018701Y022311D03*
X017940Y022311D03*
X016584Y018409D03*
X016039Y018260D03*
X014088Y017169D03*
X014055Y016888D03*
X014187Y016226D03*
X014253Y015714D03*
X014253Y015449D03*
X012285Y017086D03*
X011475Y016640D03*
X011177Y017367D03*
X009673Y017252D03*
X009193Y017500D03*
X008581Y018508D03*
X012798Y008703D03*
X012054Y008405D03*
X013658Y008752D03*
X013906Y006917D03*
X013906Y006900D03*
X013625Y006851D03*
X012269Y006719D03*
X024207Y020592D03*
X024290Y020625D03*
X022984Y022593D03*
D26*
X023207Y022344D03*
X023190Y022328D03*
X022909Y022063D03*
X022909Y022047D03*
X022909Y022030D03*
X022909Y022014D03*
X022909Y021997D03*
X022909Y021981D03*
X022893Y021865D03*
X022893Y021848D03*
X022893Y021832D03*
X022893Y021815D03*
X022893Y021799D03*
X022893Y021782D03*
X022893Y021766D03*
X022893Y021749D03*
X022893Y021733D03*
X022893Y021716D03*
X022876Y021667D03*
X022876Y021650D03*
X022876Y021633D03*
X022860Y021501D03*
X022827Y021319D03*
X022827Y021303D03*
X022827Y021286D03*
X022810Y021237D03*
X021983Y020592D03*
X021289Y020707D03*
X021272Y020658D03*
X021272Y020757D03*
X021256Y020790D03*
X021223Y020840D03*
X021256Y020493D03*
X021256Y020294D03*
X021239Y020096D03*
X021801Y019897D03*
X021818Y019781D03*
X021818Y019765D03*
X021818Y019748D03*
X021818Y019732D03*
X021818Y019715D03*
X021818Y019699D03*
X021818Y019682D03*
X020826Y019467D03*
X020809Y019434D03*
X020793Y019401D03*
X020793Y019385D03*
X020776Y019352D03*
X020776Y019335D03*
X020776Y019319D03*
X020760Y019302D03*
X020760Y019285D03*
X020760Y019269D03*
X020743Y019236D03*
X020743Y019219D03*
X020743Y019203D03*
X020710Y019054D03*
X020710Y019037D03*
X020710Y019021D03*
X020694Y018955D03*
X020694Y018938D03*
X020694Y018922D03*
X020694Y018905D03*
X020694Y018889D03*
X020694Y018872D03*
X020694Y018856D03*
X020694Y018839D03*
X020694Y018822D03*
X020694Y018806D03*
X020710Y018707D03*
X020710Y018690D03*
X020925Y018194D03*
X020942Y018178D03*
X020958Y018161D03*
X020412Y017863D03*
X020512Y017615D03*
X021024Y016871D03*
X021057Y016822D03*
X021090Y016772D03*
X021123Y016689D03*
X020859Y016441D03*
X020875Y016425D03*
X020892Y016408D03*
X020379Y016375D03*
X020379Y016359D03*
X020379Y016342D03*
X020379Y016326D03*
X020330Y016127D03*
X021289Y016078D03*
X021305Y016044D03*
X021322Y016011D03*
X021305Y015069D03*
X021239Y014970D03*
X021223Y014937D03*
X021206Y014904D03*
X021206Y014887D03*
X021190Y014854D03*
X020875Y015003D03*
X020859Y014970D03*
X020809Y014887D03*
X020776Y014837D03*
X020727Y014771D03*
X020710Y014755D03*
X020694Y014738D03*
X020660Y014722D03*
X020991Y014490D03*
X021008Y014507D03*
X018957Y014441D03*
X018957Y014705D03*
X018957Y014722D03*
X018957Y014738D03*
X018957Y014755D03*
X018957Y014771D03*
X018957Y014788D03*
X018957Y014804D03*
X018957Y014953D03*
X018957Y014970D03*
X018941Y014986D03*
X017899Y014804D03*
X017883Y014788D03*
X017866Y014771D03*
X017866Y014755D03*
X017849Y014738D03*
X017833Y014705D03*
X017816Y014672D03*
X017701Y014209D03*
X017701Y014193D03*
X017701Y014176D03*
X017701Y014159D03*
X017701Y014143D03*
X017701Y014126D03*
X017701Y014110D03*
X017701Y014093D03*
X017701Y014077D03*
X017701Y014060D03*
X017701Y014044D03*
X017701Y014027D03*
X017701Y014011D03*
X017701Y013994D03*
X017701Y013978D03*
X017717Y013928D03*
X017717Y013911D03*
X017717Y013895D03*
X017734Y013829D03*
X018726Y013333D03*
X018742Y013349D03*
X018759Y013382D03*
X019023Y012043D03*
X019007Y012010D03*
X019007Y011993D03*
X018990Y011977D03*
X018990Y011960D03*
X018974Y011944D03*
X018974Y011927D03*
X018974Y011911D03*
X018957Y011894D03*
X018957Y011878D03*
X018957Y011861D03*
X018941Y011828D03*
X018941Y011811D03*
X018941Y011795D03*
X018941Y011778D03*
X018924Y011729D03*
X018924Y011712D03*
X018924Y011696D03*
X018924Y011679D03*
X018924Y011663D03*
X018924Y011646D03*
X018924Y011630D03*
X018924Y011613D03*
X018924Y011596D03*
X018924Y011580D03*
X018924Y011563D03*
X018941Y011530D03*
X018941Y011514D03*
X018941Y011497D03*
X018941Y011481D03*
X018957Y011448D03*
X018957Y011431D03*
X018974Y011398D03*
X018974Y011381D03*
X018990Y011365D03*
X019007Y011332D03*
X019040Y011282D03*
X019602Y011117D03*
X019916Y011315D03*
X019933Y011332D03*
X019949Y011348D03*
X019966Y011365D03*
X019983Y011381D03*
X019867Y011696D03*
X019850Y011712D03*
X019701Y011878D03*
X019701Y011894D03*
X020280Y011696D03*
X020462Y011977D03*
X020479Y011993D03*
X020528Y012059D03*
X020545Y012076D03*
X020561Y012093D03*
X020578Y012109D03*
X020594Y012126D03*
X020611Y012142D03*
X020627Y012159D03*
X020644Y012175D03*
X020660Y012192D03*
X020727Y012241D03*
X020743Y012258D03*
X020181Y010902D03*
X020181Y010885D03*
X020181Y010869D03*
X020181Y010852D03*
X020280Y010389D03*
X020313Y010290D03*
X020313Y010274D03*
X020330Y010241D03*
X020330Y010224D03*
X020346Y010191D03*
X020346Y010174D03*
X020363Y010141D03*
X020363Y010125D03*
X020379Y010092D03*
X020379Y010075D03*
X020396Y010042D03*
X020396Y010026D03*
X020412Y009993D03*
X020412Y009976D03*
X020429Y009959D03*
X020429Y009943D03*
X020429Y009926D03*
X020446Y009910D03*
X020446Y009893D03*
X020462Y009877D03*
X020462Y009860D03*
X020462Y009844D03*
X020479Y009827D03*
X020479Y009811D03*
X020495Y009794D03*
X020495Y009778D03*
X020512Y009761D03*
X020512Y009744D03*
X020528Y009711D03*
X020545Y009678D03*
X020561Y009662D03*
X020561Y009645D03*
X020578Y009629D03*
X020594Y009596D03*
X020611Y009579D03*
X020627Y009546D03*
X020644Y009530D03*
X020660Y009513D03*
X020677Y009480D03*
X020694Y009463D03*
X020710Y009447D03*
X020727Y009430D03*
X020743Y009414D03*
X020760Y009397D03*
X020776Y009381D03*
X020793Y009364D03*
X021322Y008967D03*
X021322Y008951D03*
X021322Y008934D03*
X021305Y008885D03*
X022264Y008389D03*
X022264Y008372D03*
X022248Y008356D03*
X022248Y008339D03*
X022231Y008306D03*
X022281Y008405D03*
X022281Y008422D03*
X022297Y008438D03*
X022413Y008984D03*
X022413Y009000D03*
X022413Y009017D03*
X022413Y009033D03*
X022413Y009050D03*
X022413Y009067D03*
X022430Y009116D03*
X022430Y009133D03*
X022430Y009149D03*
X022430Y009166D03*
X022430Y009182D03*
X022430Y009199D03*
X022430Y009215D03*
X022446Y009232D03*
X022446Y009248D03*
X022446Y009265D03*
X022446Y009281D03*
X022446Y009298D03*
X022446Y009315D03*
X022446Y009331D03*
X022463Y009364D03*
X022463Y009381D03*
X022463Y009397D03*
X022463Y009414D03*
X022463Y009430D03*
X022463Y009447D03*
X022479Y009496D03*
X022479Y009513D03*
X022479Y009530D03*
X022479Y009546D03*
X022479Y009563D03*
X022479Y009579D03*
X022496Y009645D03*
X022496Y009662D03*
X022496Y009678D03*
X022496Y009695D03*
X022496Y009711D03*
X022496Y009728D03*
X022512Y009827D03*
X022512Y009844D03*
X022512Y009860D03*
X022512Y009877D03*
X022512Y009893D03*
X022512Y009910D03*
X022512Y009926D03*
X022512Y009943D03*
X022512Y009959D03*
X022512Y009976D03*
X022512Y009993D03*
X022512Y010158D03*
X022512Y010174D03*
X022512Y010191D03*
X022512Y010207D03*
X022512Y010224D03*
X022512Y010241D03*
X022512Y010257D03*
X022512Y010274D03*
X022512Y010290D03*
X022512Y010307D03*
X022512Y010323D03*
X022496Y010439D03*
X022496Y010456D03*
X022760Y010737D03*
X022777Y010770D03*
X022777Y010786D03*
X022777Y010902D03*
X022777Y010919D03*
X022777Y010935D03*
X022777Y010952D03*
X022760Y010968D03*
X022760Y010985D03*
X022760Y011001D03*
X022744Y011018D03*
X022496Y011133D03*
X022496Y011282D03*
X022496Y011299D03*
X023290Y011100D03*
X024216Y011249D03*
X024216Y010836D03*
X024149Y010654D03*
X024282Y009678D03*
X024265Y009331D03*
X024166Y009067D03*
X024083Y008306D03*
X024232Y008141D03*
X024083Y008041D03*
X024298Y007744D03*
X024133Y007595D03*
X024116Y007578D03*
X023240Y006851D03*
X022760Y006437D03*
X022744Y006421D03*
X022727Y006404D03*
X022711Y006388D03*
X022694Y006371D03*
X022678Y006355D03*
X022628Y006289D03*
X022612Y006272D03*
X022595Y006256D03*
X022579Y006239D03*
X022562Y006222D03*
X022562Y006206D03*
X022546Y006189D03*
X022529Y006173D03*
X022512Y006140D03*
X022496Y006123D03*
X022479Y006090D03*
X022463Y006074D03*
X022446Y006041D03*
X021041Y005164D03*
X021041Y005148D03*
X021024Y005181D03*
X021024Y005197D03*
X021057Y005115D03*
X021057Y005098D03*
X021123Y004619D03*
X021123Y004602D03*
X021123Y004106D03*
X021123Y004089D03*
X021223Y003957D03*
X021239Y003941D03*
X021256Y003907D03*
X021272Y003891D03*
X021289Y003858D03*
X021074Y003659D03*
X021074Y003643D03*
X021074Y003626D03*
X021074Y003610D03*
X021074Y003593D03*
X021074Y003577D03*
X021074Y003560D03*
X021074Y003544D03*
X021074Y003527D03*
X021074Y003511D03*
X021057Y003263D03*
X021057Y003246D03*
X021057Y003230D03*
X021057Y003213D03*
X021057Y003196D03*
X021057Y003180D03*
X021405Y002783D03*
X021388Y002750D03*
X021372Y002717D03*
X021355Y002700D03*
X021355Y002684D03*
X021338Y002667D03*
X021570Y002436D03*
X021586Y002452D03*
X021603Y002469D03*
X021620Y002485D03*
X021504Y002353D03*
X021487Y002337D03*
X021438Y002270D03*
X021421Y002254D03*
X021405Y002237D03*
X021388Y002221D03*
X021372Y002204D03*
X020991Y002552D03*
X020942Y001708D03*
X020942Y001692D03*
X020942Y001675D03*
X020942Y001659D03*
X020942Y001642D03*
X019172Y001411D03*
X019156Y001427D03*
X019073Y001493D03*
X019057Y001510D03*
X019040Y001526D03*
X019023Y001543D03*
X019007Y001559D03*
X018974Y001609D03*
X018957Y001626D03*
X018941Y001642D03*
X018924Y001659D03*
X018908Y001675D03*
X018891Y001708D03*
X018875Y001725D03*
X018858Y001741D03*
X018842Y001774D03*
X018825Y001791D03*
X018809Y001807D03*
X018792Y001841D03*
X018775Y001857D03*
X018742Y001907D03*
X018560Y002353D03*
X018560Y002370D03*
X018544Y002419D03*
X018544Y002436D03*
X018544Y002452D03*
X018544Y002469D03*
X018544Y002485D03*
X018527Y002519D03*
X018527Y002535D03*
X018527Y002552D03*
X018527Y002568D03*
X018527Y002585D03*
X018527Y002601D03*
X018527Y002618D03*
X018527Y002634D03*
X018527Y002651D03*
X018527Y002667D03*
X018511Y002717D03*
X018511Y002733D03*
X018511Y002750D03*
X018511Y002767D03*
X018511Y002783D03*
X018511Y002800D03*
X018511Y002816D03*
X018511Y002833D03*
X018511Y002849D03*
X018511Y002866D03*
X018511Y002882D03*
X018511Y002899D03*
X018511Y002915D03*
X018511Y002932D03*
X018511Y002948D03*
X018511Y002965D03*
X018511Y002981D03*
X018511Y002998D03*
X018511Y003015D03*
X018511Y003031D03*
X018511Y003048D03*
X018511Y003064D03*
X018511Y003081D03*
X018511Y003097D03*
X018511Y003114D03*
X018511Y003130D03*
X018511Y003147D03*
X018511Y003163D03*
X018511Y003180D03*
X018792Y004139D03*
X018809Y004172D03*
X018825Y004189D03*
X018842Y004222D03*
X017899Y005644D03*
X017916Y005677D03*
X017916Y005693D03*
X017932Y005710D03*
X017651Y005809D03*
X017585Y006107D03*
X017271Y006090D03*
X017271Y006074D03*
X017254Y005892D03*
X017254Y005875D03*
X017254Y005859D03*
X017254Y005842D03*
X017254Y005826D03*
X017238Y005710D03*
X016246Y006404D03*
X016246Y006421D03*
X016246Y006437D03*
X016246Y006454D03*
X016229Y006355D03*
X016229Y006338D03*
X016229Y006322D03*
X016229Y006305D03*
X016212Y006289D03*
X016212Y006272D03*
X016212Y006256D03*
X016196Y006239D03*
X016279Y006867D03*
X016560Y007330D03*
X016543Y007363D03*
X016510Y007396D03*
X016262Y007446D03*
X016742Y007694D03*
X016758Y007678D03*
X016775Y007644D03*
X016791Y007628D03*
X016791Y007611D03*
X016808Y007578D03*
X016824Y007545D03*
X016824Y007529D03*
X016841Y007479D03*
X016857Y007430D03*
X016857Y007413D03*
X016874Y007347D03*
X016874Y007330D03*
X016874Y007314D03*
X016874Y007297D03*
X016874Y007281D03*
X016874Y007264D03*
X016890Y007248D03*
X017122Y007115D03*
X017138Y007082D03*
X017254Y006669D03*
X018263Y006735D03*
X018279Y006752D03*
X018329Y006801D03*
X018346Y006818D03*
X018362Y006834D03*
X018379Y006867D03*
X018395Y006884D03*
X018395Y006900D03*
X018412Y006917D03*
X018412Y006933D03*
X018428Y006950D03*
X018428Y006967D03*
X018445Y007000D03*
X018445Y007016D03*
X018461Y007049D03*
X018461Y007066D03*
X018461Y007082D03*
X018478Y007115D03*
X018478Y007132D03*
X018478Y007148D03*
X018478Y007165D03*
X018494Y007181D03*
X018494Y007198D03*
X018494Y007215D03*
X018494Y007231D03*
X018494Y007248D03*
X018511Y007330D03*
X018511Y007347D03*
X018511Y007363D03*
X018511Y007578D03*
X018511Y007595D03*
X018511Y007611D03*
X018511Y007628D03*
X018511Y007644D03*
X018511Y007661D03*
X018511Y007678D03*
X018511Y007694D03*
X018511Y007711D03*
X018511Y007727D03*
X018511Y007744D03*
X018511Y007760D03*
X018494Y007909D03*
X018494Y007926D03*
X018494Y007942D03*
X018494Y007959D03*
X018494Y007975D03*
X018478Y008124D03*
X018478Y008141D03*
X018478Y008157D03*
X018461Y008273D03*
X018461Y008289D03*
X018445Y008389D03*
X018412Y008554D03*
X018395Y008620D03*
X018346Y008769D03*
X018676Y008835D03*
X018676Y008852D03*
X018660Y008934D03*
X018693Y008769D03*
X018693Y008752D03*
X018693Y008736D03*
X018709Y008686D03*
X018709Y008670D03*
X018709Y008653D03*
X018709Y008637D03*
X018709Y008620D03*
X018726Y008604D03*
X018726Y008587D03*
X018726Y008570D03*
X018726Y008554D03*
X018726Y008537D03*
X018726Y008521D03*
X018742Y008488D03*
X018742Y008471D03*
X018742Y008455D03*
X018759Y008405D03*
X018759Y008389D03*
X018775Y008339D03*
X018775Y008322D03*
X018792Y008289D03*
X018792Y008273D03*
X018809Y008240D03*
X018809Y008223D03*
X018825Y008207D03*
X018825Y008190D03*
X018842Y008174D03*
X018842Y008157D03*
X018875Y008107D03*
X018081Y008207D03*
X018081Y008223D03*
X018064Y008190D03*
X017883Y008008D03*
X017618Y008223D03*
X017601Y008240D03*
X017436Y008471D03*
X017436Y008488D03*
X017337Y008703D03*
X017320Y008736D03*
X017320Y008752D03*
X017320Y008769D03*
X017304Y008785D03*
X017304Y008802D03*
X017304Y008819D03*
X017287Y008868D03*
X017287Y008885D03*
X017271Y008984D03*
X017271Y009000D03*
X017271Y009265D03*
X017271Y009281D03*
X017271Y009298D03*
X017271Y009315D03*
X017271Y009331D03*
X017271Y009348D03*
X017271Y009364D03*
X017287Y009397D03*
X017287Y009414D03*
X017287Y009430D03*
X017287Y009447D03*
X017287Y009463D03*
X017304Y009496D03*
X017304Y009513D03*
X017304Y009530D03*
X017535Y010075D03*
X017552Y010092D03*
X017568Y010108D03*
X017916Y010290D03*
X018048Y010042D03*
X018064Y010009D03*
X018064Y009993D03*
X018064Y009976D03*
X018064Y009959D03*
X016212Y008802D03*
X016212Y008785D03*
X016229Y008752D03*
X016229Y008736D03*
X016295Y008190D03*
X016295Y008174D03*
X016295Y008157D03*
X016295Y008141D03*
X016295Y008124D03*
X016295Y008107D03*
X016295Y008091D03*
X016295Y008074D03*
X016295Y008058D03*
X016295Y008041D03*
X015220Y008835D03*
X015204Y008819D03*
X014956Y008455D03*
X014939Y008422D03*
X014923Y008389D03*
X014906Y008356D03*
X014890Y008306D03*
X014873Y008256D03*
X014146Y007876D03*
X014063Y008008D03*
X014063Y008190D03*
X014030Y008256D03*
X014013Y008273D03*
X014146Y007644D03*
X014112Y007413D03*
X014146Y007198D03*
X013583Y006867D03*
X013286Y006504D03*
X013302Y006487D03*
X013335Y006437D03*
X013104Y006735D03*
X013087Y006752D03*
X012972Y006520D03*
X012757Y006768D03*
X012757Y006785D03*
X012740Y006801D03*
X012740Y006818D03*
X012740Y006834D03*
X012740Y006851D03*
X012740Y006867D03*
X012740Y006884D03*
X012542Y007082D03*
X012542Y007099D03*
X012525Y007115D03*
X012393Y006851D03*
X012046Y007181D03*
X011913Y007115D03*
X011897Y007181D03*
X011880Y007215D03*
X011880Y007231D03*
X011880Y007248D03*
X011715Y007132D03*
X011731Y007066D03*
X011731Y007049D03*
X011748Y007016D03*
X011748Y007000D03*
X011764Y006967D03*
X011781Y006950D03*
X011781Y006933D03*
X011797Y006917D03*
X011963Y007016D03*
X011946Y007049D03*
X012227Y007264D03*
X012227Y007281D03*
X012227Y007297D03*
X012227Y007314D03*
X012227Y007330D03*
X012227Y007347D03*
X012227Y007363D03*
X012227Y007380D03*
X012227Y007396D03*
X012227Y007413D03*
X012227Y007430D03*
X012112Y007628D03*
X012128Y007644D03*
X012145Y007661D03*
X011963Y007909D03*
X011963Y007926D03*
X011764Y008074D03*
X011781Y008124D03*
X011781Y008141D03*
X011797Y008174D03*
X011814Y008190D03*
X011814Y008207D03*
X011847Y008256D03*
X012211Y008289D03*
X012707Y008637D03*
X013071Y008885D03*
X013087Y008901D03*
X013170Y008967D03*
X013186Y008736D03*
X011781Y007661D03*
X011731Y007463D03*
X011731Y007446D03*
X011715Y007413D03*
X011715Y007396D03*
X011715Y007380D03*
X014063Y005859D03*
X014096Y005908D03*
X014112Y005941D03*
X014129Y005958D03*
X014146Y005974D03*
X014162Y005991D03*
X013931Y005379D03*
X013931Y005363D03*
X013931Y005346D03*
X013931Y005330D03*
X013931Y005313D03*
X013931Y005296D03*
X013931Y005280D03*
X013931Y005263D03*
X013931Y005247D03*
X013931Y005230D03*
X013931Y005214D03*
X013931Y005197D03*
X013931Y005181D03*
X013947Y005164D03*
X013947Y005148D03*
X013947Y005131D03*
X013947Y005115D03*
X013947Y005098D03*
X013964Y005048D03*
X013964Y005032D03*
X014890Y004635D03*
X014906Y004652D03*
X014906Y004668D03*
X014923Y004701D03*
X014923Y004718D03*
X014939Y004751D03*
X014939Y004767D03*
X014939Y004784D03*
X015915Y004569D03*
X015981Y004486D03*
X015997Y004470D03*
X016014Y004453D03*
X016031Y004437D03*
X016047Y004420D03*
X014939Y005627D03*
X014939Y005644D03*
X014939Y005660D03*
X014873Y006107D03*
X015237Y006487D03*
X015253Y006470D03*
X015220Y006504D03*
X015204Y006520D03*
X015187Y006537D03*
X015171Y006553D03*
X018131Y006074D03*
X018709Y006437D03*
X018726Y006454D03*
X018742Y006470D03*
X018742Y006487D03*
X018759Y006504D03*
X018775Y006537D03*
X022016Y007595D03*
X022033Y007628D03*
X022049Y007644D03*
X024050Y006570D03*
X024265Y006570D03*
X024265Y006586D03*
X024166Y006041D03*
X024315Y005908D03*
X024183Y005379D03*
X025175Y005611D03*
X025307Y005677D03*
X025274Y005842D03*
X025241Y006355D03*
X025208Y007148D03*
X025075Y007744D03*
X025125Y008637D03*
X025042Y009215D03*
X024050Y012903D03*
X024050Y013300D03*
X022794Y016326D03*
X022397Y016722D03*
X022397Y016739D03*
X022380Y016756D03*
X022380Y016772D03*
X022380Y016789D03*
X022364Y016805D03*
X022364Y016822D03*
X022364Y016838D03*
X022347Y016871D03*
X022347Y016888D03*
X022331Y016954D03*
X022331Y016970D03*
X022331Y016987D03*
X022314Y017086D03*
X022314Y017103D03*
X022314Y017119D03*
X022314Y017136D03*
X022314Y017152D03*
X022314Y017169D03*
X022314Y017185D03*
X022314Y017202D03*
X022314Y017219D03*
X022314Y017235D03*
X022314Y017252D03*
X022331Y017367D03*
X022331Y017384D03*
X022331Y017400D03*
X022347Y017483D03*
X022364Y017549D03*
X022380Y017615D03*
X022397Y017665D03*
X022413Y017715D03*
X022430Y017748D03*
X022430Y017764D03*
X022446Y017797D03*
X022463Y017830D03*
X022479Y017863D03*
X022496Y017896D03*
X022512Y017930D03*
X022529Y017946D03*
X022529Y017963D03*
X022546Y017979D03*
X022562Y017996D03*
X022579Y018029D03*
X022942Y018095D03*
X022942Y018111D03*
X022942Y018128D03*
X022942Y018144D03*
X022942Y018161D03*
X022942Y018178D03*
X022942Y018194D03*
X022959Y017979D03*
X022959Y017963D03*
X022959Y017946D03*
X022959Y017930D03*
X022959Y017913D03*
X022959Y017896D03*
X022959Y017880D03*
X022959Y017863D03*
X022959Y017847D03*
X022959Y017830D03*
X022959Y017814D03*
X022959Y017797D03*
X022959Y017781D03*
X022959Y017764D03*
X022959Y017748D03*
X022959Y017731D03*
X022959Y017715D03*
X022959Y017698D03*
X022959Y017681D03*
X022959Y017665D03*
X022959Y017648D03*
X022959Y017632D03*
X022959Y017615D03*
X022959Y017599D03*
X023124Y017549D03*
X023141Y017566D03*
X023157Y017582D03*
X023174Y017599D03*
X023190Y017615D03*
X023207Y017648D03*
X023207Y018161D03*
X023207Y018178D03*
X023207Y018194D03*
X023207Y018211D03*
X023207Y018227D03*
X023207Y018244D03*
X023207Y018260D03*
X023207Y018277D03*
X023190Y018343D03*
X023190Y018359D03*
X023190Y018376D03*
X023174Y018409D03*
X023174Y018426D03*
X023174Y018442D03*
X023124Y018541D03*
X023108Y018558D03*
X023091Y018574D03*
X023075Y018591D03*
X024149Y018326D03*
X024348Y018905D03*
X023835Y019616D03*
X024216Y020195D03*
X024348Y020377D03*
X024298Y020641D03*
X022926Y023221D03*
X022926Y023237D03*
X022926Y023254D03*
X022942Y023436D03*
X022942Y023452D03*
X021074Y021683D03*
X021090Y021650D03*
X021206Y021534D03*
X019999Y020674D03*
X019751Y019897D03*
X019751Y019881D03*
X019768Y019831D03*
X019768Y019815D03*
X019784Y019781D03*
X019784Y019765D03*
X019784Y019748D03*
X019801Y019732D03*
X019801Y019715D03*
X019801Y019699D03*
X019817Y019682D03*
X019817Y019666D03*
X019834Y019649D03*
X019834Y019633D03*
X019850Y019616D03*
X019850Y019600D03*
X019867Y019583D03*
X019867Y019567D03*
X019883Y019550D03*
X019883Y019533D03*
X019900Y019517D03*
X019916Y019484D03*
X019933Y019467D03*
X019983Y019401D03*
X019999Y019385D03*
X018643Y020741D03*
X018660Y020757D03*
X018742Y020840D03*
X018759Y020856D03*
X018842Y021137D03*
X019090Y021452D03*
X018842Y021667D03*
X018825Y021766D03*
X018825Y021782D03*
X018825Y021799D03*
X018825Y021815D03*
X018990Y021832D03*
X018825Y022014D03*
X018825Y022030D03*
X018825Y022047D03*
X018825Y022063D03*
X018825Y022080D03*
X018825Y022096D03*
X018792Y022229D03*
X017601Y021981D03*
X017585Y021948D03*
X017585Y021931D03*
X017568Y021898D03*
X017568Y021881D03*
X017568Y021865D03*
X017552Y021848D03*
X017552Y021832D03*
X017552Y021815D03*
X017552Y021799D03*
X017552Y021782D03*
X017535Y021700D03*
X017535Y021683D03*
X017535Y021667D03*
X017816Y020873D03*
X017833Y020856D03*
X017849Y020840D03*
X016808Y018326D03*
X016874Y018277D03*
X016874Y018260D03*
X015783Y018128D03*
X015733Y018095D03*
X015716Y018078D03*
X015402Y017698D03*
X015386Y017665D03*
X015369Y017632D03*
X015303Y017467D03*
X015270Y017351D03*
X014592Y016789D03*
X014609Y016756D03*
X014625Y016722D03*
X014625Y016706D03*
X014642Y016689D03*
X014642Y016673D03*
X014642Y016656D03*
X014658Y016640D03*
X014658Y016623D03*
X014658Y016607D03*
X014675Y016557D03*
X014460Y016474D03*
X014460Y016458D03*
X014460Y016441D03*
X014476Y016425D03*
X014476Y016408D03*
X014493Y016392D03*
X014493Y016375D03*
X014493Y016359D03*
X014509Y016326D03*
X014509Y016309D03*
X014509Y016293D03*
X014526Y016259D03*
X014526Y016243D03*
X014526Y016226D03*
X014526Y016210D03*
X014542Y016160D03*
X014542Y016144D03*
X014542Y016127D03*
X014542Y016111D03*
X014542Y016094D03*
X014542Y016078D03*
X014542Y016061D03*
X014542Y016044D03*
X014526Y016011D03*
X014526Y015995D03*
X014526Y015978D03*
X014509Y015945D03*
X014757Y015978D03*
X014757Y015995D03*
X014774Y016011D03*
X014625Y015631D03*
X014179Y015251D03*
X014162Y015185D03*
X014162Y015168D03*
X013236Y015648D03*
X013236Y015664D03*
X013236Y015681D03*
X013236Y015697D03*
X013501Y016160D03*
X014327Y016689D03*
X014344Y016673D03*
X014377Y016623D03*
X014394Y016590D03*
X014410Y016557D03*
X014427Y016541D03*
X014427Y016524D03*
X014443Y016507D03*
X014443Y016491D03*
X015286Y016408D03*
X015303Y016392D03*
X015303Y016375D03*
X015320Y016342D03*
X015320Y016326D03*
X015336Y016309D03*
X015336Y016293D03*
X015353Y016276D03*
X015353Y016259D03*
X015369Y016226D03*
X015468Y016078D03*
X015485Y016061D03*
X015501Y016044D03*
X015518Y016028D03*
X015534Y016011D03*
X015551Y015995D03*
X015568Y015978D03*
X016709Y015962D03*
X016709Y015945D03*
X016709Y015929D03*
X016775Y016127D03*
X017122Y016474D03*
X017138Y016491D03*
X017519Y016226D03*
X017535Y016243D03*
X017552Y016259D03*
X017568Y016276D03*
X017767Y016656D03*
X017783Y016673D03*
X017105Y016888D03*
X019321Y016458D03*
X019321Y016441D03*
X019338Y016408D03*
X019387Y017252D03*
X019387Y017268D03*
X019404Y017285D03*
X019404Y017301D03*
X019420Y017318D03*
X019420Y017334D03*
X019437Y017351D03*
X019453Y017384D03*
X019470Y017400D03*
X019503Y017450D03*
X021603Y018029D03*
X021603Y018045D03*
X021603Y018062D03*
X024298Y017185D03*
X024282Y016689D03*
X012211Y017698D03*
X012211Y017715D03*
X012211Y017731D03*
X012194Y017748D03*
X012194Y017764D03*
X011318Y017516D03*
X011285Y017467D03*
X011268Y017433D03*
X011252Y017417D03*
X011252Y017400D03*
X010954Y017301D03*
X010938Y017318D03*
X011169Y016954D03*
X011169Y016937D03*
X011186Y016888D03*
X011202Y016855D03*
X011219Y016822D03*
X011235Y016805D03*
X011252Y016789D03*
X011268Y016772D03*
X011285Y016756D03*
X010375Y017301D03*
X010375Y017351D03*
X010094Y017318D03*
X009697Y017946D03*
X009714Y017963D03*
X009664Y017930D03*
X009648Y017913D03*
X009764Y018029D03*
X009400Y018244D03*
X008639Y017715D03*
X008259Y017632D03*
X008259Y017615D03*
X008259Y017599D03*
X008275Y017566D03*
X008275Y017549D03*
X008242Y017665D03*
X008242Y017681D03*
X008242Y017698D03*
X008342Y017268D03*
X008325Y017235D03*
X008309Y017219D03*
X008309Y017202D03*
X008292Y017185D03*
X008275Y017152D03*
X008259Y017119D03*
X008259Y017053D03*
X008772Y017152D03*
X008821Y017185D03*
X008871Y017219D03*
X008887Y017235D03*
X008953Y017285D03*
X008242Y018161D03*
X008242Y018178D03*
X008259Y018211D03*
X008275Y018244D03*
X008275Y018260D03*
X008292Y018277D03*
X008309Y018293D03*
X008309Y018310D03*
X008325Y018326D03*
X008342Y018343D03*
X004671Y013862D03*
X004737Y013796D03*
X004555Y013630D03*
X004357Y013498D03*
X004621Y013052D03*
X004968Y013415D03*
X004952Y013448D03*
X004952Y013465D03*
X022430Y004040D03*
X022446Y004023D03*
X022446Y004007D03*
X022463Y003990D03*
X022463Y003974D03*
X022479Y003957D03*
X025208Y004321D03*
X025208Y004337D03*
X025257Y004288D03*
X025191Y004668D03*
X025224Y005115D03*
X025737Y004916D03*
D27*
X025679Y004883D03*
X025563Y004619D03*
X025299Y004255D03*
X025315Y004238D03*
X025332Y004205D03*
X025266Y004156D03*
X025216Y005098D03*
X025199Y005445D03*
X025249Y005495D03*
X025233Y006024D03*
X025249Y006041D03*
X025150Y006305D03*
X024009Y006553D03*
X023827Y006256D03*
X024257Y005313D03*
X023992Y005098D03*
X022372Y005892D03*
X022372Y005908D03*
X022388Y005925D03*
X022388Y005941D03*
X022405Y005958D03*
X022405Y005974D03*
X022422Y005991D03*
X022422Y006007D03*
X022438Y006024D03*
X022455Y006057D03*
X022488Y006107D03*
X022521Y006156D03*
X022355Y005875D03*
X022355Y005859D03*
X022339Y005842D03*
X022339Y005826D03*
X022339Y005809D03*
X022322Y005793D03*
X022322Y005776D03*
X022322Y005759D03*
X022306Y005743D03*
X022306Y005726D03*
X022306Y005710D03*
X022289Y005693D03*
X022289Y005677D03*
X022289Y005660D03*
X022273Y005627D03*
X022273Y005611D03*
X022273Y005594D03*
X022273Y005578D03*
X022256Y005528D03*
X022256Y005511D03*
X022256Y005495D03*
X022256Y005478D03*
X022256Y005462D03*
X022256Y005445D03*
X022240Y005379D03*
X022240Y005363D03*
X022240Y005346D03*
X022240Y005330D03*
X022240Y005313D03*
X022240Y005296D03*
X022240Y005280D03*
X022240Y005263D03*
X022240Y005247D03*
X022240Y005230D03*
X022240Y005214D03*
X022240Y005197D03*
X022240Y005181D03*
X022240Y005164D03*
X022240Y005148D03*
X022256Y004817D03*
X022339Y004288D03*
X022372Y004189D03*
X022372Y004172D03*
X022388Y004139D03*
X022388Y004122D03*
X022405Y004106D03*
X022405Y004089D03*
X022422Y004073D03*
X022422Y004056D03*
X021363Y003726D03*
X021363Y003709D03*
X021363Y003693D03*
X021380Y003676D03*
X021380Y003659D03*
X021396Y003626D03*
X021396Y003610D03*
X021413Y003577D03*
X021413Y003560D03*
X021429Y003527D03*
X021429Y003511D03*
X021429Y003494D03*
X021446Y003461D03*
X021446Y003444D03*
X021446Y003428D03*
X021446Y003411D03*
X021462Y003378D03*
X021462Y003362D03*
X021462Y003345D03*
X021462Y003329D03*
X021462Y003312D03*
X021462Y003296D03*
X021479Y003213D03*
X021479Y003196D03*
X021479Y003180D03*
X021479Y003163D03*
X021479Y003147D03*
X021479Y003130D03*
X021462Y003031D03*
X021462Y003015D03*
X021462Y002998D03*
X021462Y002981D03*
X021446Y002932D03*
X021446Y002915D03*
X021446Y002899D03*
X021429Y002866D03*
X021429Y002849D03*
X021429Y002833D03*
X021413Y002816D03*
X021413Y002800D03*
X021396Y002767D03*
X021380Y002733D03*
X021049Y002800D03*
X021049Y002816D03*
X021033Y002733D03*
X021033Y002717D03*
X021033Y002700D03*
X021016Y002667D03*
X021016Y002651D03*
X021016Y002634D03*
X021016Y002618D03*
X020999Y002601D03*
X020999Y002585D03*
X020999Y002568D03*
X020950Y002370D03*
X020983Y001956D03*
X020950Y001807D03*
X020950Y001791D03*
X020950Y001774D03*
X020950Y001758D03*
X020950Y001741D03*
X020950Y001725D03*
X021446Y002287D03*
X021462Y002304D03*
X021479Y002320D03*
X021512Y002370D03*
X021529Y002386D03*
X021545Y002403D03*
X021562Y002419D03*
X021066Y002948D03*
X021066Y002965D03*
X021066Y002981D03*
X021066Y002998D03*
X021066Y003015D03*
X021066Y003031D03*
X021066Y003048D03*
X021066Y003064D03*
X021066Y003081D03*
X021066Y003097D03*
X021066Y003114D03*
X021066Y003130D03*
X021066Y003147D03*
X021066Y003163D03*
X021082Y003676D03*
X021082Y003693D03*
X021082Y003709D03*
X021082Y003726D03*
X021082Y003742D03*
X021082Y003759D03*
X021082Y003775D03*
X021082Y003792D03*
X021082Y003808D03*
X021082Y003825D03*
X021082Y003841D03*
X021099Y003891D03*
X021099Y003907D03*
X021099Y003924D03*
X021099Y003941D03*
X021099Y003957D03*
X021247Y003924D03*
X021281Y003874D03*
X021297Y003841D03*
X021314Y003825D03*
X021314Y003808D03*
X021330Y003792D03*
X021330Y003775D03*
X021347Y003759D03*
X021347Y003742D03*
X021115Y004122D03*
X021115Y004635D03*
X021115Y004652D03*
X021082Y004949D03*
X021082Y004966D03*
X021082Y004982D03*
X021082Y004999D03*
X021066Y005032D03*
X021066Y005048D03*
X021066Y005065D03*
X021066Y005081D03*
X021049Y005131D03*
X018800Y004156D03*
X018784Y004122D03*
X018767Y004106D03*
X018751Y004073D03*
X018503Y003279D03*
X018503Y003263D03*
X018503Y003246D03*
X018503Y003230D03*
X018503Y003213D03*
X018503Y003196D03*
X018536Y002502D03*
X018552Y002403D03*
X018552Y002386D03*
X018569Y002337D03*
X018569Y002320D03*
X018569Y002304D03*
X018569Y002287D03*
X018585Y002270D03*
X018585Y002254D03*
X018585Y002237D03*
X018602Y002204D03*
X018602Y002188D03*
X018618Y002155D03*
X018635Y002105D03*
X018651Y002072D03*
X018668Y002039D03*
X018684Y002006D03*
X018701Y001973D03*
X018718Y001940D03*
X018734Y001923D03*
X018751Y001890D03*
X018767Y001874D03*
X018800Y001824D03*
X018982Y001593D03*
X018999Y001576D03*
X019098Y001477D03*
X019114Y001460D03*
X019131Y001444D03*
X017081Y004255D03*
X017097Y004271D03*
X017180Y005181D03*
X017196Y005313D03*
X017196Y005330D03*
X017196Y005346D03*
X017196Y005363D03*
X017196Y005379D03*
X017196Y005396D03*
X017196Y005412D03*
X017196Y005429D03*
X017213Y005478D03*
X017213Y005495D03*
X017213Y005511D03*
X017213Y005528D03*
X017213Y005544D03*
X017213Y005561D03*
X017213Y005578D03*
X017229Y005726D03*
X017246Y005759D03*
X017246Y005776D03*
X017246Y005793D03*
X017246Y005809D03*
X017262Y005908D03*
X017262Y005925D03*
X017262Y005941D03*
X017262Y005958D03*
X017262Y005974D03*
X017262Y005991D03*
X017262Y006007D03*
X017262Y006024D03*
X017262Y006041D03*
X017262Y006057D03*
X017262Y006322D03*
X017262Y006338D03*
X017262Y006355D03*
X017262Y006371D03*
X017676Y006090D03*
X017643Y005793D03*
X017626Y005759D03*
X017940Y005743D03*
X017940Y005726D03*
X017957Y005759D03*
X017957Y005776D03*
X017973Y005809D03*
X017990Y005842D03*
X018089Y006024D03*
X018106Y006041D03*
X018122Y006057D03*
X018767Y006520D03*
X018784Y006553D03*
X018800Y006570D03*
X018800Y006586D03*
X018817Y006603D03*
X018817Y006619D03*
X018833Y006636D03*
X018833Y006652D03*
X018850Y006685D03*
X018370Y006851D03*
X018321Y006785D03*
X018304Y006768D03*
X018436Y006983D03*
X018453Y007033D03*
X018470Y007099D03*
X018089Y008240D03*
X018089Y008256D03*
X018106Y008273D03*
X018106Y008289D03*
X018122Y008339D03*
X017593Y008256D03*
X017577Y008273D03*
X017560Y008289D03*
X017527Y008339D03*
X017510Y008356D03*
X017477Y008405D03*
X017444Y008455D03*
X017296Y008835D03*
X017296Y008852D03*
X017279Y008901D03*
X017279Y008918D03*
X017279Y008934D03*
X017279Y008951D03*
X017279Y008967D03*
X017262Y009017D03*
X017262Y009033D03*
X017262Y009050D03*
X017262Y009067D03*
X017262Y009083D03*
X017262Y009100D03*
X017262Y009116D03*
X017262Y009133D03*
X017262Y009149D03*
X017262Y009166D03*
X017262Y009182D03*
X017262Y009199D03*
X017262Y009215D03*
X017262Y009232D03*
X017262Y009248D03*
X017279Y009381D03*
X018073Y009877D03*
X018073Y009893D03*
X018073Y009910D03*
X018073Y009926D03*
X018073Y009943D03*
X018106Y009381D03*
X018106Y009364D03*
X018106Y009348D03*
X018734Y008504D03*
X018751Y008438D03*
X018751Y008422D03*
X018767Y008372D03*
X018767Y008356D03*
X018784Y008306D03*
X018800Y008256D03*
X017114Y007132D03*
X017130Y007099D03*
X017147Y007066D03*
X017147Y007049D03*
X017163Y007033D03*
X017163Y007016D03*
X017180Y006983D03*
X017180Y006967D03*
X016866Y007363D03*
X016866Y007380D03*
X016866Y007396D03*
X016849Y007446D03*
X016849Y007463D03*
X016833Y007496D03*
X016833Y007512D03*
X016816Y007562D03*
X016799Y007595D03*
X016551Y007347D03*
X016568Y007314D03*
X016518Y007380D03*
X016601Y007215D03*
X016254Y007396D03*
X016254Y007413D03*
X016254Y007430D03*
X016287Y007992D03*
X016287Y008008D03*
X016287Y008025D03*
X016287Y008207D03*
X016287Y008223D03*
X016287Y008240D03*
X016237Y008686D03*
X016237Y008703D03*
X016237Y008719D03*
X016221Y008769D03*
X015196Y008802D03*
X015179Y008785D03*
X015014Y008554D03*
X014997Y008521D03*
X014981Y008504D03*
X014981Y008488D03*
X014964Y008471D03*
X014947Y008438D03*
X014931Y008405D03*
X014914Y008372D03*
X014898Y008339D03*
X014898Y008322D03*
X014881Y008289D03*
X014881Y008273D03*
X014865Y008240D03*
X014865Y008223D03*
X014865Y008207D03*
X014848Y008174D03*
X014848Y008157D03*
X014848Y008141D03*
X014832Y008074D03*
X014005Y008289D03*
X013608Y008719D03*
X013062Y008868D03*
X012699Y008620D03*
X012682Y008604D03*
X012649Y008405D03*
X012401Y008438D03*
X012401Y008455D03*
X012384Y008422D03*
X012368Y008405D03*
X012368Y008389D03*
X012351Y008372D03*
X012236Y008256D03*
X012252Y008190D03*
X012252Y008174D03*
X012252Y008157D03*
X012252Y008141D03*
X012252Y008124D03*
X012252Y008107D03*
X012252Y008091D03*
X012252Y008074D03*
X012252Y008058D03*
X012252Y008041D03*
X012252Y008025D03*
X012252Y008008D03*
X012252Y007992D03*
X012252Y007975D03*
X012252Y007959D03*
X012252Y007942D03*
X012252Y007926D03*
X012236Y007859D03*
X012203Y007760D03*
X012186Y007727D03*
X012170Y007694D03*
X012153Y007678D03*
X012236Y007446D03*
X012269Y007198D03*
X012335Y007115D03*
X012384Y006917D03*
X012384Y006900D03*
X012384Y006884D03*
X012384Y006867D03*
X012566Y007000D03*
X012566Y007016D03*
X012566Y007033D03*
X012550Y007049D03*
X012550Y007066D03*
X012765Y006752D03*
X012765Y006735D03*
X012781Y006719D03*
X012963Y006537D03*
X013079Y006768D03*
X013062Y006818D03*
X014038Y007347D03*
X014137Y007430D03*
X014088Y007578D03*
X014220Y007033D03*
X014203Y007016D03*
X014203Y007000D03*
X014187Y006983D03*
X015080Y006669D03*
X015113Y006619D03*
X015129Y006603D03*
X015146Y006586D03*
X015162Y006570D03*
X015609Y006140D03*
X015592Y006107D03*
X015576Y006057D03*
X015559Y006024D03*
X015559Y006007D03*
X015543Y005958D03*
X015526Y005892D03*
X015526Y005875D03*
X015510Y005793D03*
X015510Y005776D03*
X015510Y005660D03*
X015510Y005644D03*
X015510Y005627D03*
X015510Y005611D03*
X015510Y005594D03*
X015510Y005578D03*
X015510Y005561D03*
X015510Y005544D03*
X015510Y005528D03*
X015510Y005511D03*
X015510Y005495D03*
X015510Y005478D03*
X015510Y005462D03*
X014964Y005363D03*
X014964Y005346D03*
X014964Y005330D03*
X014964Y005313D03*
X014964Y005296D03*
X014964Y005280D03*
X014947Y005495D03*
X014947Y005511D03*
X014947Y005528D03*
X014947Y005544D03*
X014947Y005561D03*
X014947Y005578D03*
X014947Y005594D03*
X014947Y005611D03*
X014964Y004999D03*
X014964Y004982D03*
X014964Y004966D03*
X014964Y004949D03*
X014964Y004933D03*
X014964Y004916D03*
X014964Y004900D03*
X014964Y004883D03*
X014964Y004867D03*
X014947Y004850D03*
X014947Y004833D03*
X014947Y004817D03*
X014947Y004800D03*
X014931Y004734D03*
X015741Y004833D03*
X015791Y004751D03*
X015807Y004718D03*
X015824Y004701D03*
X015840Y004668D03*
X015857Y004652D03*
X015873Y004619D03*
X015890Y004602D03*
X015907Y004585D03*
X015923Y004552D03*
X015940Y004536D03*
X015956Y004519D03*
X015973Y004503D03*
X013939Y005396D03*
X013939Y005412D03*
X013939Y005429D03*
X013939Y005445D03*
X013939Y005462D03*
X013939Y005478D03*
X013939Y005495D03*
X013939Y005511D03*
X013955Y005544D03*
X013955Y005561D03*
X013955Y005578D03*
X013972Y005627D03*
X013972Y005644D03*
X013988Y005677D03*
X013988Y005693D03*
X014005Y005726D03*
X014005Y005743D03*
X014022Y005759D03*
X014022Y005776D03*
X014038Y005809D03*
X014038Y005826D03*
X014055Y005842D03*
X014071Y005875D03*
X014088Y005892D03*
X014104Y005925D03*
X012087Y007016D03*
X012087Y007115D03*
X012087Y007132D03*
X011938Y007066D03*
X011922Y007082D03*
X011922Y007099D03*
X011955Y007033D03*
X011756Y006983D03*
X011740Y007033D03*
X011723Y007082D03*
X011723Y007099D03*
X011723Y007115D03*
X011707Y007148D03*
X011707Y007165D03*
X011707Y007181D03*
X011707Y007198D03*
X011707Y007215D03*
X011707Y007231D03*
X011707Y007248D03*
X011707Y007264D03*
X011707Y007281D03*
X011707Y007297D03*
X011707Y007314D03*
X011707Y007330D03*
X011707Y007347D03*
X011707Y007363D03*
X011723Y007430D03*
X011773Y007678D03*
X011773Y007694D03*
X011773Y007711D03*
X011756Y007727D03*
X011756Y007744D03*
X011756Y007760D03*
X011756Y007777D03*
X011740Y007810D03*
X011740Y007826D03*
X011740Y007843D03*
X011740Y007859D03*
X011740Y007876D03*
X011740Y007893D03*
X011740Y007909D03*
X011740Y007926D03*
X011740Y007942D03*
X011740Y007959D03*
X011740Y007975D03*
X011740Y007992D03*
X011756Y008008D03*
X011756Y008025D03*
X011756Y008041D03*
X011756Y008058D03*
X011773Y008091D03*
X011773Y008107D03*
X011789Y008157D03*
X011971Y007893D03*
X016237Y006388D03*
X016237Y006371D03*
X016254Y006470D03*
X016254Y006487D03*
X016254Y006504D03*
X016254Y006520D03*
X016254Y006537D03*
X020404Y010009D03*
X020388Y010059D03*
X020371Y010108D03*
X020355Y010158D03*
X020338Y010207D03*
X020322Y010257D03*
X020305Y010307D03*
X020305Y010323D03*
X020288Y010340D03*
X020288Y010356D03*
X020288Y010373D03*
X020272Y010406D03*
X020272Y010422D03*
X020272Y010439D03*
X020255Y010456D03*
X020255Y010472D03*
X020255Y010489D03*
X020239Y010522D03*
X020239Y010538D03*
X020239Y010555D03*
X020239Y010571D03*
X020222Y010588D03*
X020222Y010604D03*
X020222Y010621D03*
X020222Y010637D03*
X020206Y010654D03*
X020206Y010670D03*
X020206Y010687D03*
X020206Y010704D03*
X020206Y010720D03*
X020206Y010737D03*
X020189Y010753D03*
X020189Y010770D03*
X020189Y010786D03*
X020189Y010803D03*
X020189Y010819D03*
X020189Y010836D03*
X020173Y010919D03*
X020173Y010935D03*
X020173Y010952D03*
X020173Y010968D03*
X020173Y010985D03*
X020173Y011001D03*
X020173Y011018D03*
X020173Y011034D03*
X020173Y011051D03*
X020173Y011067D03*
X020189Y011200D03*
X020189Y011216D03*
X020206Y011348D03*
X020206Y011365D03*
X020206Y011381D03*
X020222Y011481D03*
X020239Y011497D03*
X020239Y011514D03*
X020255Y011563D03*
X020272Y011613D03*
X020272Y011630D03*
X020288Y011663D03*
X020288Y011679D03*
X020355Y011811D03*
X020371Y011844D03*
X020388Y011878D03*
X020404Y011894D03*
X020421Y011911D03*
X020421Y011927D03*
X020437Y011944D03*
X020454Y011960D03*
X020487Y012010D03*
X020503Y012026D03*
X020520Y012043D03*
X020073Y011481D03*
X019875Y011580D03*
X019875Y011596D03*
X019875Y011679D03*
X019693Y011448D03*
X019677Y011415D03*
X019677Y011398D03*
X019677Y011381D03*
X019677Y011365D03*
X019660Y011315D03*
X019660Y011299D03*
X019660Y011282D03*
X019660Y011266D03*
X018933Y011547D03*
X018933Y011745D03*
X018933Y011762D03*
X018949Y011844D03*
X019693Y011911D03*
X019693Y011927D03*
X019693Y011944D03*
X019710Y011977D03*
X019710Y011993D03*
X019726Y012225D03*
X019726Y012241D03*
X019710Y012258D03*
X019561Y012456D03*
X018751Y013366D03*
X018767Y013399D03*
X018784Y013432D03*
X018933Y014292D03*
X018933Y014308D03*
X018933Y014325D03*
X018933Y014341D03*
X018933Y014358D03*
X018933Y014374D03*
X018933Y014391D03*
X018933Y014407D03*
X018933Y014424D03*
X018949Y014523D03*
X018949Y014540D03*
X018949Y014556D03*
X018949Y014573D03*
X018949Y014589D03*
X018949Y014606D03*
X018949Y014622D03*
X018949Y014639D03*
X018949Y014656D03*
X018949Y014672D03*
X018949Y014689D03*
X018966Y014821D03*
X018966Y014837D03*
X018966Y014854D03*
X018966Y014870D03*
X018966Y014887D03*
X018966Y014904D03*
X018966Y014920D03*
X018966Y014937D03*
X017841Y014722D03*
X017825Y014689D03*
X017808Y014656D03*
X017808Y014639D03*
X017792Y014622D03*
X017792Y014606D03*
X017775Y014589D03*
X017775Y014573D03*
X017759Y014540D03*
X017759Y014523D03*
X017759Y014507D03*
X017742Y014474D03*
X017742Y014457D03*
X017725Y014424D03*
X017725Y014407D03*
X017725Y014391D03*
X017725Y014374D03*
X017725Y014358D03*
X017709Y014341D03*
X017709Y014325D03*
X017709Y014308D03*
X017709Y014292D03*
X017709Y014275D03*
X017709Y014259D03*
X017709Y014242D03*
X017709Y014226D03*
X016717Y015978D03*
X016717Y015995D03*
X016733Y016011D03*
X016766Y016144D03*
X016816Y016326D03*
X017147Y016507D03*
X017163Y016524D03*
X017180Y016557D03*
X017163Y016822D03*
X017147Y016855D03*
X017130Y016871D03*
X016866Y016888D03*
X016866Y016904D03*
X016882Y017268D03*
X016882Y017285D03*
X016882Y017301D03*
X016882Y017318D03*
X016882Y017334D03*
X016882Y017351D03*
X016882Y017367D03*
X016882Y017384D03*
X016882Y017400D03*
X016882Y017417D03*
X016882Y017433D03*
X016882Y017450D03*
X016882Y017467D03*
X016882Y017483D03*
X016882Y017500D03*
X016882Y017516D03*
X016882Y017533D03*
X016882Y017549D03*
X016882Y017566D03*
X016899Y018194D03*
X016899Y018211D03*
X016882Y018227D03*
X016882Y018244D03*
X016849Y018310D03*
X015692Y018062D03*
X015675Y018045D03*
X015659Y018029D03*
X015642Y018012D03*
X015625Y017996D03*
X015609Y017979D03*
X015592Y017963D03*
X015576Y017946D03*
X015559Y017930D03*
X015543Y017913D03*
X015526Y017896D03*
X015526Y017880D03*
X015510Y017863D03*
X015493Y017847D03*
X015477Y017830D03*
X015477Y017814D03*
X015460Y017797D03*
X015444Y017781D03*
X015444Y017764D03*
X015427Y017748D03*
X015427Y017731D03*
X015410Y017715D03*
X015394Y017681D03*
X015377Y017648D03*
X015361Y017615D03*
X015361Y017599D03*
X015344Y017582D03*
X015344Y017566D03*
X015328Y017549D03*
X015328Y017533D03*
X015328Y017516D03*
X015311Y017500D03*
X015311Y017483D03*
X015295Y017450D03*
X015295Y017433D03*
X015295Y017417D03*
X015278Y017400D03*
X015278Y017384D03*
X015278Y017367D03*
X015262Y017334D03*
X015262Y017318D03*
X015262Y017301D03*
X015262Y017285D03*
X015245Y017268D03*
X015245Y017252D03*
X015245Y017235D03*
X015245Y017219D03*
X015245Y017202D03*
X015245Y017185D03*
X015229Y017152D03*
X015229Y017136D03*
X015229Y017119D03*
X015229Y017103D03*
X015229Y017086D03*
X015229Y017070D03*
X015229Y017053D03*
X015229Y017037D03*
X015229Y016805D03*
X015229Y016789D03*
X015229Y016772D03*
X015229Y016756D03*
X015245Y016656D03*
X015245Y016640D03*
X015262Y016574D03*
X015262Y016557D03*
X015311Y016359D03*
X015592Y015962D03*
X015609Y015945D03*
X014749Y015945D03*
X014749Y015929D03*
X014733Y015912D03*
X014733Y015896D03*
X014733Y015879D03*
X014716Y015813D03*
X014749Y015962D03*
X014650Y015664D03*
X014633Y015648D03*
X014154Y015152D03*
X014154Y015135D03*
X013244Y015714D03*
X013244Y015730D03*
X013244Y015747D03*
X013244Y015763D03*
X013244Y015780D03*
X013261Y015830D03*
X013377Y016044D03*
X013426Y016094D03*
X013443Y016111D03*
X013459Y016127D03*
X013476Y016144D03*
X014286Y016739D03*
X014303Y016722D03*
X014319Y016706D03*
X014352Y016656D03*
X014369Y016640D03*
X014385Y016607D03*
X014402Y016574D03*
X014666Y016574D03*
X014666Y016590D03*
X014683Y016541D03*
X012203Y017004D03*
X012186Y016937D03*
X012170Y016871D03*
X012153Y016805D03*
X012136Y016756D03*
X012120Y016706D03*
X012236Y017235D03*
X012236Y017516D03*
X012236Y017533D03*
X012236Y017549D03*
X012236Y017566D03*
X012236Y017582D03*
X012236Y017599D03*
X012219Y017632D03*
X012219Y017648D03*
X012219Y017665D03*
X012219Y017681D03*
X011194Y016871D03*
X011210Y016838D03*
X011177Y016904D03*
X011177Y016921D03*
X011161Y016970D03*
X011161Y016987D03*
X011161Y017004D03*
X011161Y017020D03*
X011161Y017037D03*
X011161Y017053D03*
X011161Y017070D03*
X011161Y017086D03*
X011161Y017103D03*
X011161Y017119D03*
X011177Y017169D03*
X011177Y017185D03*
X010929Y017334D03*
X010913Y017351D03*
X010913Y017367D03*
X010896Y017384D03*
X010896Y017400D03*
X010384Y017334D03*
X010384Y017318D03*
X009722Y017979D03*
X009739Y017996D03*
X009755Y018012D03*
X009772Y018045D03*
X009772Y018062D03*
X009788Y018078D03*
X009788Y018095D03*
X009788Y018111D03*
X009557Y018111D03*
X009441Y018211D03*
X009425Y018227D03*
X008647Y017731D03*
X008664Y017450D03*
X008284Y017169D03*
X008267Y017136D03*
X008251Y017103D03*
X008251Y017086D03*
X008251Y017648D03*
X008234Y017715D03*
X008234Y017731D03*
X008234Y017748D03*
X008234Y017764D03*
X008218Y017781D03*
X008218Y017797D03*
X008218Y017814D03*
X008218Y017830D03*
X008218Y017847D03*
X008218Y017863D03*
X008218Y017880D03*
X008218Y017896D03*
X008218Y017913D03*
X008218Y017930D03*
X008218Y017946D03*
X008218Y017963D03*
X008218Y017979D03*
X008218Y017996D03*
X008218Y018012D03*
X008218Y018029D03*
X008218Y018045D03*
X008218Y018062D03*
X008218Y018078D03*
X008218Y018095D03*
X008234Y018111D03*
X008234Y018128D03*
X008234Y018144D03*
X008251Y018194D03*
X008267Y018227D03*
X004762Y013779D03*
X004778Y013763D03*
X004795Y013746D03*
X004844Y013663D03*
X005010Y013531D03*
X005026Y013548D03*
X005043Y013564D03*
X004960Y013432D03*
X004977Y013399D03*
X004993Y013382D03*
X005043Y013217D03*
X004811Y013267D03*
X004762Y013184D03*
X004745Y013167D03*
X004729Y013151D03*
X004712Y013134D03*
X004563Y013250D03*
X004398Y013366D03*
X017560Y021286D03*
X017560Y021303D03*
X017544Y021336D03*
X017544Y021352D03*
X017544Y021369D03*
X017544Y021385D03*
X017544Y021402D03*
X017527Y021452D03*
X017527Y021567D03*
X017527Y021584D03*
X017527Y021600D03*
X017527Y021617D03*
X017527Y021633D03*
X017527Y021650D03*
X017544Y021716D03*
X017544Y021733D03*
X017544Y021749D03*
X017544Y021766D03*
X017725Y020956D03*
X017742Y020939D03*
X017759Y020922D03*
X017792Y020889D03*
X017873Y020906D03*
X018684Y020774D03*
X018817Y021038D03*
X018817Y021055D03*
X018833Y021104D03*
X018833Y021121D03*
X018850Y021286D03*
X018850Y021303D03*
X018850Y021319D03*
X018850Y021336D03*
X018850Y021352D03*
X018850Y021369D03*
X018850Y021385D03*
X018850Y021402D03*
X018833Y021468D03*
X018833Y021485D03*
X018833Y021501D03*
X018833Y021683D03*
X018833Y021700D03*
X018833Y021716D03*
X018817Y021733D03*
X018817Y021749D03*
X018817Y022113D03*
X018817Y022130D03*
X018817Y022146D03*
X018817Y022163D03*
X018817Y022179D03*
X018817Y022212D03*
X020867Y023337D03*
X020867Y023353D03*
X020867Y023370D03*
X020867Y023386D03*
X020867Y023403D03*
X020867Y023419D03*
X020867Y023436D03*
X020884Y023452D03*
X020884Y023469D03*
X020884Y023485D03*
X020884Y023502D03*
X020884Y023519D03*
X020884Y023535D03*
X021049Y021733D03*
X021066Y021700D03*
X021082Y021667D03*
X021181Y021551D03*
X021281Y020691D03*
X021281Y020674D03*
X021264Y020641D03*
X021264Y020625D03*
X021247Y020542D03*
X021247Y020526D03*
X021247Y020509D03*
X021247Y020344D03*
X021247Y020327D03*
X021247Y020311D03*
X021231Y020079D03*
X021810Y019666D03*
X021810Y019649D03*
X021810Y019633D03*
X021810Y019616D03*
X021810Y019600D03*
X021810Y019583D03*
X021810Y019567D03*
X021810Y019550D03*
X021810Y019533D03*
X021793Y019451D03*
X021793Y019434D03*
X021777Y019087D03*
X021760Y018872D03*
X021744Y018740D03*
X021744Y018723D03*
X021727Y018674D03*
X021727Y018657D03*
X021727Y018641D03*
X021727Y018624D03*
X021727Y018607D03*
X021727Y018591D03*
X021710Y018558D03*
X021710Y018541D03*
X021710Y018525D03*
X021710Y018508D03*
X021694Y018442D03*
X021644Y018227D03*
X021628Y018161D03*
X021628Y018144D03*
X021628Y018128D03*
X021611Y018111D03*
X021611Y018095D03*
X021611Y018078D03*
X020917Y018211D03*
X020900Y018227D03*
X020884Y018244D03*
X020884Y018260D03*
X020867Y018277D03*
X020851Y018293D03*
X020851Y018310D03*
X020834Y018326D03*
X020818Y018359D03*
X020801Y018393D03*
X020784Y018426D03*
X020784Y018442D03*
X020768Y018475D03*
X020751Y018508D03*
X020751Y018525D03*
X020735Y018558D03*
X020735Y018574D03*
X020735Y018591D03*
X020718Y018624D03*
X020718Y018641D03*
X020718Y018657D03*
X020718Y018674D03*
X020702Y018723D03*
X020702Y018740D03*
X020702Y018756D03*
X020702Y018773D03*
X020702Y018789D03*
X020702Y018971D03*
X020702Y018988D03*
X020702Y019004D03*
X020718Y019070D03*
X020718Y019087D03*
X020735Y019186D03*
X020751Y019252D03*
X020470Y017781D03*
X020470Y017764D03*
X020487Y017731D03*
X020487Y017715D03*
X020487Y017698D03*
X020503Y017681D03*
X020503Y017665D03*
X020503Y017648D03*
X020503Y017632D03*
X020520Y017599D03*
X020520Y017582D03*
X020520Y017566D03*
X020520Y017549D03*
X020520Y017533D03*
X020520Y017516D03*
X020520Y017500D03*
X020520Y017483D03*
X020520Y017467D03*
X020520Y017450D03*
X020520Y017433D03*
X020520Y017417D03*
X020520Y017400D03*
X020520Y017384D03*
X020520Y017367D03*
X020520Y017351D03*
X020520Y017334D03*
X020520Y017318D03*
X020520Y017301D03*
X020520Y017285D03*
X020520Y017268D03*
X020520Y017252D03*
X020503Y017169D03*
X020503Y017103D03*
X020487Y016987D03*
X020388Y016491D03*
X020388Y016474D03*
X020388Y016458D03*
X020388Y016441D03*
X020388Y016425D03*
X020388Y016408D03*
X020388Y016392D03*
X020371Y016309D03*
X020371Y016293D03*
X020371Y016276D03*
X020371Y016259D03*
X020371Y016243D03*
X020371Y016226D03*
X020371Y016210D03*
X020355Y016193D03*
X020355Y016177D03*
X020355Y016160D03*
X020900Y016392D03*
X020917Y016375D03*
X020933Y016359D03*
X020933Y016342D03*
X020950Y016326D03*
X020950Y016309D03*
X020966Y016293D03*
X020966Y016276D03*
X020983Y016243D03*
X020999Y016210D03*
X020999Y016193D03*
X021016Y016160D03*
X021016Y016144D03*
X021016Y016127D03*
X021033Y016094D03*
X021033Y016078D03*
X021033Y016061D03*
X021033Y016044D03*
X021049Y016011D03*
X021049Y015995D03*
X021049Y015978D03*
X021049Y015962D03*
X021049Y015945D03*
X021049Y015929D03*
X021049Y015912D03*
X021049Y015896D03*
X021049Y015879D03*
X021066Y015796D03*
X021066Y015780D03*
X020933Y015119D03*
X020917Y015085D03*
X020900Y015052D03*
X020884Y015019D03*
X020867Y014986D03*
X020851Y014953D03*
X020834Y014937D03*
X020834Y014920D03*
X020818Y014904D03*
X020801Y014870D03*
X020784Y014854D03*
X020768Y014821D03*
X020751Y014804D03*
X020735Y014788D03*
X021016Y014523D03*
X021033Y014540D03*
X021049Y014556D03*
X021066Y014589D03*
X021082Y014622D03*
X021099Y014639D03*
X021115Y014672D03*
X021132Y014705D03*
X021132Y014722D03*
X021148Y014755D03*
X021165Y014788D03*
X021165Y014804D03*
X021181Y014821D03*
X021181Y014837D03*
X021198Y014870D03*
X021214Y014920D03*
X021231Y014953D03*
X021247Y014986D03*
X021247Y015003D03*
X021264Y015019D03*
X021264Y015036D03*
X021281Y015052D03*
X020983Y014474D03*
X022471Y012655D03*
X022488Y012638D03*
X022504Y012589D03*
X022504Y012572D03*
X022504Y012556D03*
X022504Y012539D03*
X022504Y012522D03*
X022504Y012506D03*
X022521Y012489D03*
X022521Y012473D03*
X022521Y012456D03*
X022521Y012440D03*
X022521Y012423D03*
X022521Y012407D03*
X022521Y012390D03*
X022521Y012374D03*
X022521Y012357D03*
X022521Y012341D03*
X022521Y012324D03*
X022521Y012307D03*
X022521Y012291D03*
X022521Y012274D03*
X022521Y012258D03*
X022504Y011696D03*
X022504Y011563D03*
X022504Y011547D03*
X022504Y011530D03*
X022504Y011514D03*
X022504Y011497D03*
X022504Y011481D03*
X022504Y011464D03*
X022488Y011398D03*
X022488Y011381D03*
X022488Y011365D03*
X022488Y011348D03*
X022488Y011332D03*
X022488Y011315D03*
X022488Y011117D03*
X022488Y011100D03*
X022488Y011084D03*
X022488Y011067D03*
X022488Y011051D03*
X022488Y011034D03*
X022488Y011018D03*
X022488Y011001D03*
X022488Y010985D03*
X022488Y010968D03*
X022488Y010952D03*
X022488Y010935D03*
X022488Y010919D03*
X022488Y010902D03*
X022488Y010885D03*
X022488Y010869D03*
X022488Y010852D03*
X022488Y010836D03*
X022488Y010819D03*
X022488Y010803D03*
X022488Y010786D03*
X022488Y010770D03*
X022488Y010753D03*
X022488Y010737D03*
X022488Y010720D03*
X022488Y010704D03*
X022488Y010687D03*
X022488Y010522D03*
X022488Y010505D03*
X022488Y010489D03*
X022488Y010472D03*
X022504Y010422D03*
X022504Y010406D03*
X022504Y010389D03*
X022504Y010373D03*
X022504Y010356D03*
X022504Y010340D03*
X022521Y010141D03*
X022521Y010125D03*
X022521Y010108D03*
X022521Y010092D03*
X022521Y010075D03*
X022521Y010059D03*
X022521Y010042D03*
X022521Y010026D03*
X022521Y010009D03*
X022504Y009811D03*
X022504Y009794D03*
X022504Y009778D03*
X022504Y009761D03*
X022504Y009744D03*
X022488Y009629D03*
X022488Y009612D03*
X022488Y009596D03*
X022471Y009480D03*
X022471Y009463D03*
X022455Y009348D03*
X022240Y008322D03*
X022223Y008289D03*
X022223Y008273D03*
X022207Y008240D03*
X022207Y008223D03*
X022190Y008174D03*
X022190Y008157D03*
X022091Y007744D03*
X022091Y007727D03*
X022074Y007711D03*
X022074Y007694D03*
X022058Y007678D03*
X022058Y007661D03*
X021115Y008289D03*
X021099Y008273D03*
X021082Y008256D03*
X021066Y008240D03*
X021148Y008339D03*
X021165Y008372D03*
X021181Y008405D03*
X021181Y008422D03*
X021198Y008438D03*
X021198Y008455D03*
X021198Y008471D03*
X021214Y008488D03*
X021214Y008504D03*
X021214Y008521D03*
X021231Y008554D03*
X021231Y008570D03*
X021231Y008587D03*
X021247Y008604D03*
X021247Y008620D03*
X021247Y008637D03*
X021264Y008686D03*
X021264Y008703D03*
X021264Y008719D03*
X021281Y008752D03*
X021281Y008769D03*
X021281Y008785D03*
X021297Y008819D03*
X021297Y008835D03*
X021297Y008852D03*
X021297Y008868D03*
X021314Y008901D03*
X021314Y008918D03*
X022785Y010803D03*
X022785Y010819D03*
X022785Y010836D03*
X022785Y010852D03*
X022785Y010869D03*
X022785Y010885D03*
X024125Y010737D03*
X024125Y010720D03*
X024141Y010637D03*
X024224Y011034D03*
X024207Y011183D03*
X024207Y009645D03*
X024224Y009298D03*
X024174Y009215D03*
X024174Y009199D03*
X024158Y009182D03*
X024158Y009166D03*
X024141Y009133D03*
X024158Y009050D03*
X024257Y008885D03*
X024075Y008025D03*
X025001Y007512D03*
X025018Y007496D03*
X025051Y007727D03*
X025067Y008405D03*
X025133Y008438D03*
X025315Y008604D03*
X025315Y008620D03*
X025315Y008637D03*
X024224Y012985D03*
X024075Y013763D03*
X024125Y014159D03*
X024158Y014242D03*
X024290Y014556D03*
X024224Y016408D03*
X024191Y016623D03*
X024273Y016706D03*
X024753Y017301D03*
X023893Y017698D03*
X024025Y017913D03*
X024092Y018293D03*
X024125Y018310D03*
X024307Y018393D03*
X024207Y018607D03*
X024257Y018641D03*
X024323Y018690D03*
X023810Y019600D03*
X024207Y020178D03*
X024257Y020327D03*
X024373Y020327D03*
X024373Y020311D03*
X022835Y021336D03*
X022835Y021352D03*
X022835Y021369D03*
X022868Y021567D03*
X022868Y021584D03*
X022868Y021600D03*
X022868Y021617D03*
X022884Y021683D03*
X022884Y021700D03*
X023215Y022361D03*
X023215Y022741D03*
X022951Y023469D03*
X022124Y020989D03*
X022058Y020658D03*
X022041Y020641D03*
X022025Y020625D03*
X022008Y020608D03*
X022918Y018326D03*
X023215Y018144D03*
X023215Y018128D03*
X023215Y018111D03*
X023215Y018095D03*
X023215Y018078D03*
X023215Y018062D03*
X023215Y018045D03*
X023215Y018029D03*
X023215Y017681D03*
X023215Y017665D03*
X023199Y017632D03*
X022951Y017582D03*
X022951Y017566D03*
X022951Y017549D03*
X022951Y017533D03*
X022951Y017417D03*
X022951Y017400D03*
X023215Y017169D03*
X022934Y017053D03*
X022934Y017037D03*
X022934Y017020D03*
X022934Y017004D03*
X022934Y016987D03*
X022934Y016970D03*
X022934Y016954D03*
X022934Y016937D03*
X022934Y016921D03*
X022934Y016904D03*
X022934Y016888D03*
X022934Y016871D03*
X022934Y016855D03*
X022934Y016838D03*
X022934Y016822D03*
X022934Y016805D03*
X022934Y016789D03*
X022934Y016772D03*
X022934Y016756D03*
X022918Y016557D03*
X022918Y016541D03*
X022918Y016524D03*
X022918Y016507D03*
X022918Y016491D03*
X022355Y016855D03*
X022339Y016904D03*
X022339Y016921D03*
X022339Y016937D03*
X022322Y017004D03*
X022322Y017020D03*
X022322Y017037D03*
X022322Y017053D03*
X022322Y017070D03*
X022322Y017268D03*
X022322Y017285D03*
X022322Y017301D03*
X022322Y017318D03*
X022322Y017334D03*
X022322Y017351D03*
X022339Y017417D03*
X022339Y017433D03*
X022339Y017450D03*
X022339Y017467D03*
X022355Y017500D03*
X022355Y017516D03*
X022355Y017533D03*
X022372Y017566D03*
X022372Y017582D03*
X022372Y017599D03*
X022388Y017632D03*
X022388Y017648D03*
X022405Y017681D03*
X022405Y017698D03*
X022422Y017731D03*
X022438Y017781D03*
X022455Y017814D03*
X022471Y017847D03*
X022488Y017880D03*
X022504Y017913D03*
X019379Y017235D03*
X019263Y016822D03*
X019263Y016739D03*
X019296Y016541D03*
X019296Y016524D03*
X019296Y016507D03*
X019313Y016491D03*
X019313Y016474D03*
X017626Y016359D03*
X017610Y016326D03*
X017593Y016309D03*
X017577Y016293D03*
D28*
X017618Y016342D03*
X017634Y016375D03*
X017651Y016392D03*
X017651Y016408D03*
X017668Y016425D03*
X017668Y016441D03*
X017684Y016474D03*
X017684Y016491D03*
X017701Y016524D03*
X017717Y016574D03*
X017734Y016607D03*
X017734Y016623D03*
X017750Y016640D03*
X017205Y016640D03*
X017205Y016656D03*
X017205Y016673D03*
X017205Y016689D03*
X017205Y016706D03*
X017205Y016722D03*
X017188Y016756D03*
X017188Y016772D03*
X017188Y016789D03*
X017172Y016805D03*
X017155Y016838D03*
X017205Y016623D03*
X017188Y016607D03*
X017188Y016590D03*
X017188Y016574D03*
X017172Y016541D03*
X016857Y016822D03*
X016857Y016838D03*
X016857Y016855D03*
X016857Y016871D03*
X016874Y016921D03*
X016874Y017020D03*
X016874Y017070D03*
X016874Y017086D03*
X016874Y017103D03*
X016874Y017119D03*
X016874Y017136D03*
X016874Y017152D03*
X016874Y017169D03*
X016874Y017185D03*
X016890Y017582D03*
X016890Y017599D03*
X016890Y017615D03*
X016890Y017632D03*
X016890Y017648D03*
X016890Y017665D03*
X016890Y017681D03*
X016890Y017698D03*
X016890Y017715D03*
X016890Y017731D03*
X016890Y017748D03*
X016890Y017764D03*
X016890Y017781D03*
X016907Y017830D03*
X016907Y017847D03*
X016907Y017863D03*
X016907Y017880D03*
X016907Y017896D03*
X016907Y017913D03*
X016907Y017930D03*
X016907Y017946D03*
X016907Y017963D03*
X016907Y018178D03*
X015237Y017169D03*
X015220Y017020D03*
X015220Y017004D03*
X015220Y016987D03*
X015220Y016970D03*
X015220Y016954D03*
X015220Y016937D03*
X015220Y016921D03*
X015220Y016904D03*
X015220Y016888D03*
X015220Y016871D03*
X015220Y016855D03*
X015220Y016838D03*
X015220Y016822D03*
X015237Y016739D03*
X015237Y016722D03*
X015237Y016706D03*
X015237Y016689D03*
X015237Y016673D03*
X015253Y016623D03*
X015253Y016607D03*
X015253Y016590D03*
X015270Y016541D03*
X015270Y016524D03*
X015270Y016507D03*
X014724Y015863D03*
X014724Y015846D03*
X014724Y015830D03*
X014708Y015796D03*
X014708Y015780D03*
X014708Y015763D03*
X014691Y015747D03*
X014691Y015730D03*
X014675Y015714D03*
X014675Y015697D03*
X014658Y015681D03*
X013401Y016078D03*
X013385Y016061D03*
X013368Y016028D03*
X013352Y016011D03*
X013335Y015995D03*
X013319Y015962D03*
X013302Y015945D03*
X013302Y015929D03*
X013286Y015912D03*
X013286Y015896D03*
X013269Y015879D03*
X013269Y015863D03*
X013269Y015846D03*
X013253Y015813D03*
X013253Y015796D03*
X012112Y016673D03*
X012112Y016689D03*
X012095Y016656D03*
X012128Y016722D03*
X012128Y016739D03*
X012145Y016772D03*
X012145Y016789D03*
X012161Y016822D03*
X012161Y016838D03*
X012161Y016855D03*
X012178Y016888D03*
X012178Y016904D03*
X012178Y016921D03*
X012194Y016954D03*
X012194Y016970D03*
X012194Y016987D03*
X012211Y017020D03*
X012211Y017103D03*
X012227Y017202D03*
X012227Y017219D03*
X012244Y017367D03*
X012244Y017384D03*
X012244Y017400D03*
X012244Y017417D03*
X012244Y017433D03*
X012244Y017450D03*
X012244Y017467D03*
X012244Y017483D03*
X012244Y017500D03*
X012227Y017615D03*
X011169Y017152D03*
X011169Y017136D03*
X010888Y017417D03*
X009731Y018244D03*
X009449Y018194D03*
X008242Y017070D03*
X004654Y013878D03*
X004555Y013647D03*
X004323Y013481D03*
X004323Y013465D03*
X004323Y013448D03*
X004373Y013382D03*
X004555Y013233D03*
X004555Y013217D03*
X004621Y013035D03*
X004952Y013151D03*
X005051Y013233D03*
X005051Y013250D03*
X005051Y013267D03*
X005051Y013283D03*
X005051Y013300D03*
X005034Y013316D03*
X005034Y013333D03*
X005018Y013349D03*
X005001Y013366D03*
X005051Y013581D03*
X005068Y013597D03*
X005084Y013630D03*
X011748Y007793D03*
X011979Y007876D03*
X012211Y007793D03*
X012211Y007777D03*
X012227Y007810D03*
X012227Y007826D03*
X012227Y007843D03*
X012244Y007876D03*
X012244Y007893D03*
X012244Y007909D03*
X012194Y007744D03*
X012178Y007711D03*
X012244Y007463D03*
X012260Y007215D03*
X012327Y007099D03*
X012393Y006950D03*
X012393Y006933D03*
X012525Y006884D03*
X012525Y006867D03*
X012509Y006851D03*
X012542Y006900D03*
X012542Y006917D03*
X012558Y006933D03*
X012558Y006950D03*
X012558Y006967D03*
X012558Y006983D03*
X012740Y006900D03*
X012790Y006702D03*
X012806Y006685D03*
X012575Y006603D03*
X012575Y006586D03*
X012558Y006619D03*
X012558Y006636D03*
X012558Y006652D03*
X013005Y006487D03*
X013071Y006785D03*
X013071Y006801D03*
X013054Y006834D03*
X013054Y006851D03*
X013550Y006652D03*
X014179Y006950D03*
X014179Y006967D03*
X014228Y007049D03*
X014162Y007215D03*
X014162Y007661D03*
X014146Y007859D03*
X014079Y008174D03*
X013997Y008471D03*
X013385Y008752D03*
X013170Y008984D03*
X013054Y008852D03*
X012757Y008504D03*
X012674Y008587D03*
X012426Y008471D03*
X012343Y008356D03*
X012343Y008339D03*
X012227Y008273D03*
X012244Y008240D03*
X012244Y008223D03*
X012244Y008207D03*
X011996Y008174D03*
X012029Y007198D03*
X012095Y007099D03*
X012095Y007082D03*
X012095Y007066D03*
X012095Y007049D03*
X012095Y007033D03*
X012442Y007215D03*
X013286Y008422D03*
X014823Y008058D03*
X014823Y008041D03*
X014823Y008025D03*
X014823Y008008D03*
X014807Y007942D03*
X014807Y007926D03*
X014807Y007909D03*
X014840Y008091D03*
X014840Y008107D03*
X014840Y008124D03*
X014857Y008190D03*
X015005Y008537D03*
X015022Y008570D03*
X015038Y008587D03*
X015038Y008604D03*
X015055Y008620D03*
X015072Y008637D03*
X015088Y008670D03*
X015105Y008686D03*
X015121Y008703D03*
X015138Y008719D03*
X015138Y008736D03*
X015154Y008752D03*
X015171Y008769D03*
X016246Y008670D03*
X016246Y008653D03*
X016246Y008637D03*
X016246Y008620D03*
X016246Y008604D03*
X016279Y008306D03*
X016279Y008289D03*
X016279Y008273D03*
X016279Y008256D03*
X016279Y007975D03*
X016279Y007959D03*
X016262Y007859D03*
X016262Y007843D03*
X016262Y007826D03*
X016262Y007810D03*
X016262Y007793D03*
X016262Y007777D03*
X016262Y007760D03*
X016246Y007727D03*
X016246Y007711D03*
X016246Y007694D03*
X016246Y007678D03*
X016246Y007661D03*
X016246Y007644D03*
X016246Y007628D03*
X016246Y007611D03*
X016246Y007595D03*
X016246Y007578D03*
X016246Y007380D03*
X016246Y007363D03*
X016246Y007347D03*
X016246Y007330D03*
X016246Y007314D03*
X016246Y007297D03*
X016246Y007281D03*
X016246Y007264D03*
X016246Y007248D03*
X016246Y007231D03*
X016246Y007215D03*
X016246Y007198D03*
X016246Y007181D03*
X016246Y007165D03*
X016246Y007148D03*
X016246Y007132D03*
X016246Y007115D03*
X016246Y007099D03*
X016246Y007082D03*
X016246Y007066D03*
X016262Y006851D03*
X016246Y006636D03*
X016246Y006619D03*
X016246Y006603D03*
X016246Y006586D03*
X016246Y006570D03*
X016246Y006553D03*
X015617Y006156D03*
X015601Y006123D03*
X015584Y006090D03*
X015584Y006074D03*
X015568Y006041D03*
X015551Y005991D03*
X015551Y005974D03*
X015534Y005941D03*
X015534Y005925D03*
X015534Y005908D03*
X015518Y005859D03*
X015518Y005842D03*
X015518Y005826D03*
X015518Y005809D03*
X014956Y005478D03*
X014972Y005263D03*
X014972Y005247D03*
X014972Y005230D03*
X014972Y005214D03*
X014972Y005197D03*
X014972Y005181D03*
X014972Y005164D03*
X014972Y005148D03*
X014972Y005131D03*
X014972Y005115D03*
X014972Y005098D03*
X014972Y005081D03*
X014972Y005065D03*
X014972Y005048D03*
X014972Y005032D03*
X014972Y005015D03*
X015617Y005115D03*
X015650Y005032D03*
X015667Y004999D03*
X015667Y004982D03*
X015683Y004949D03*
X015700Y004916D03*
X015716Y004883D03*
X015716Y004867D03*
X015733Y004850D03*
X015749Y004817D03*
X015766Y004800D03*
X015766Y004784D03*
X015783Y004767D03*
X015799Y004734D03*
X015832Y004685D03*
X015865Y004635D03*
X017138Y004635D03*
X017138Y004619D03*
X017138Y004602D03*
X017138Y004585D03*
X017138Y004569D03*
X017138Y004552D03*
X017138Y004536D03*
X017138Y004519D03*
X017138Y004503D03*
X017138Y004486D03*
X017138Y004470D03*
X017138Y004453D03*
X017138Y004437D03*
X017122Y004337D03*
X017105Y004304D03*
X017105Y004288D03*
X017138Y004652D03*
X017138Y004668D03*
X017138Y004685D03*
X017138Y004701D03*
X017138Y004718D03*
X017138Y004734D03*
X017138Y004751D03*
X017138Y004767D03*
X017138Y004784D03*
X017138Y004800D03*
X017138Y004817D03*
X017138Y004833D03*
X017138Y004850D03*
X017138Y004867D03*
X017138Y004883D03*
X017138Y004900D03*
X017138Y004916D03*
X017138Y004933D03*
X017155Y005065D03*
X017155Y005081D03*
X017155Y005098D03*
X017155Y005115D03*
X017155Y005131D03*
X017205Y005445D03*
X017205Y005462D03*
X017238Y005743D03*
X017519Y005710D03*
X017965Y005793D03*
X017982Y005826D03*
X017998Y005859D03*
X017998Y005875D03*
X018015Y005892D03*
X018031Y005925D03*
X018048Y005958D03*
X018064Y005974D03*
X018064Y005991D03*
X018081Y006007D03*
X017271Y006222D03*
X017271Y006239D03*
X017271Y006256D03*
X017271Y006272D03*
X017271Y006289D03*
X017271Y006305D03*
X017254Y006388D03*
X017254Y006404D03*
X017254Y006421D03*
X017254Y006437D03*
X017254Y006454D03*
X017205Y006834D03*
X017205Y006851D03*
X017205Y006867D03*
X017205Y006884D03*
X017188Y006917D03*
X017188Y006933D03*
X017188Y006950D03*
X017172Y007000D03*
X016609Y007231D03*
X016609Y007248D03*
X017552Y008306D03*
X017535Y008322D03*
X017502Y008372D03*
X017486Y008389D03*
X017469Y008422D03*
X017453Y008438D03*
X018114Y008322D03*
X018114Y008306D03*
X018131Y008356D03*
X018131Y008372D03*
X018131Y008389D03*
X018131Y008405D03*
X018131Y008422D03*
X018147Y008471D03*
X018147Y008488D03*
X018147Y008504D03*
X018147Y008521D03*
X018147Y008537D03*
X018147Y008554D03*
X018147Y008570D03*
X018147Y008587D03*
X018147Y008604D03*
X018147Y008620D03*
X018147Y008637D03*
X018147Y008653D03*
X018147Y008670D03*
X018147Y008686D03*
X018147Y008703D03*
X018147Y008719D03*
X018147Y008736D03*
X018147Y008752D03*
X018147Y008769D03*
X018147Y008785D03*
X018147Y008802D03*
X018147Y008819D03*
X018147Y008835D03*
X018147Y008852D03*
X018147Y008868D03*
X018147Y008885D03*
X018147Y008901D03*
X018114Y009133D03*
X018114Y009149D03*
X018114Y009166D03*
X018114Y009182D03*
X018114Y009199D03*
X018114Y009215D03*
X018114Y009232D03*
X018114Y009248D03*
X018114Y009265D03*
X018114Y009281D03*
X018114Y009298D03*
X018114Y009315D03*
X018114Y009331D03*
X018097Y009397D03*
X018097Y009414D03*
X018097Y009430D03*
X018097Y009447D03*
X018097Y009463D03*
X018097Y009546D03*
X018097Y009563D03*
X018097Y009579D03*
X018097Y009596D03*
X018097Y009612D03*
X018097Y009629D03*
X018081Y009711D03*
X018081Y009728D03*
X018081Y009744D03*
X018081Y009761D03*
X018081Y009778D03*
X018081Y009794D03*
X018081Y009811D03*
X018081Y009827D03*
X018081Y009844D03*
X018081Y009860D03*
X019668Y011332D03*
X019668Y011348D03*
X019685Y011431D03*
X019685Y011580D03*
X019685Y011596D03*
X019685Y011613D03*
X019685Y011630D03*
X019685Y011646D03*
X019685Y011663D03*
X019685Y011679D03*
X019685Y011696D03*
X019685Y011712D03*
X019685Y011729D03*
X019883Y011663D03*
X019883Y011646D03*
X019883Y011630D03*
X019883Y011613D03*
X019701Y011960D03*
X019718Y012175D03*
X019718Y012192D03*
X019718Y012208D03*
X020379Y011861D03*
X020363Y011828D03*
X020280Y011646D03*
X020264Y011596D03*
X020264Y011580D03*
X020247Y011547D03*
X020247Y011530D03*
X020197Y011332D03*
X020197Y011315D03*
X020197Y011299D03*
X020197Y011282D03*
X020197Y011266D03*
X020197Y011249D03*
X020197Y011233D03*
X020181Y011183D03*
X020181Y011167D03*
X020181Y011150D03*
X020181Y011133D03*
X020181Y011117D03*
X020181Y011100D03*
X020181Y011084D03*
X020247Y010505D03*
X021289Y008802D03*
X021272Y008736D03*
X021256Y008670D03*
X021256Y008653D03*
X021223Y008537D03*
X021173Y008389D03*
X021157Y008356D03*
X021140Y008322D03*
X021123Y008306D03*
X022000Y008802D03*
X022215Y008256D03*
X022198Y008207D03*
X022198Y008190D03*
X022182Y008141D03*
X022182Y008124D03*
X022182Y008107D03*
X022182Y008091D03*
X022165Y008074D03*
X022165Y008058D03*
X022165Y008041D03*
X022165Y008025D03*
X022165Y008008D03*
X022149Y007975D03*
X022149Y007959D03*
X022149Y007942D03*
X022132Y007893D03*
X022132Y007876D03*
X022132Y007859D03*
X022116Y007826D03*
X022116Y007810D03*
X022116Y007793D03*
X022099Y007777D03*
X022099Y007760D03*
X023257Y006867D03*
X024166Y006189D03*
X024166Y006173D03*
X024166Y006156D03*
X024183Y006206D03*
X024149Y006090D03*
X024133Y005826D03*
X024133Y005561D03*
X024149Y005544D03*
X024166Y005528D03*
X024183Y005478D03*
X024183Y005462D03*
X024183Y005445D03*
X024166Y005396D03*
X025175Y005429D03*
X025158Y005594D03*
X025125Y005759D03*
X025290Y005859D03*
X025307Y005875D03*
X025191Y005958D03*
X025274Y006057D03*
X025307Y006107D03*
X025257Y006371D03*
X025274Y006586D03*
X025290Y006603D03*
X025257Y006785D03*
X025274Y006801D03*
X025290Y006818D03*
X025307Y006834D03*
X025142Y007115D03*
X025208Y007165D03*
X025125Y007347D03*
X025158Y007380D03*
X024976Y007529D03*
X025026Y007711D03*
X025175Y007810D03*
X025009Y008438D03*
X025042Y008587D03*
X025059Y008604D03*
X025092Y008620D03*
X025340Y009381D03*
X024249Y009348D03*
X024183Y009232D03*
X024149Y009149D03*
X024149Y009116D03*
X024149Y009100D03*
X024149Y009033D03*
X024199Y008620D03*
X024067Y008289D03*
X024133Y010604D03*
X024133Y010621D03*
X024116Y010704D03*
X024133Y010753D03*
X024216Y010852D03*
X024216Y010869D03*
X024249Y011051D03*
X024249Y011067D03*
X024216Y011200D03*
X024216Y011216D03*
X024216Y011233D03*
X024133Y011299D03*
X022496Y011415D03*
X022496Y011431D03*
X022496Y011448D03*
X022496Y011712D03*
X022496Y011729D03*
X022496Y011745D03*
X022496Y011762D03*
X022496Y011778D03*
X022496Y011795D03*
X022512Y012043D03*
X022512Y012059D03*
X022512Y012076D03*
X022512Y012093D03*
X022512Y012109D03*
X022512Y012126D03*
X022512Y012142D03*
X022512Y012159D03*
X022512Y012175D03*
X022512Y012192D03*
X022512Y012208D03*
X022512Y012225D03*
X022512Y012241D03*
X022496Y012605D03*
X022496Y012622D03*
X023769Y013961D03*
X023918Y014159D03*
X024100Y014143D03*
X024265Y014159D03*
X024216Y013961D03*
X024100Y013895D03*
X024149Y013498D03*
X024216Y013382D03*
X024001Y012985D03*
X021107Y014656D03*
X021123Y014689D03*
X021140Y014738D03*
X021157Y014771D03*
X021074Y014606D03*
X021057Y014573D03*
X020892Y015036D03*
X020909Y015069D03*
X020925Y015102D03*
X020942Y015135D03*
X020942Y015152D03*
X020958Y015168D03*
X020958Y015185D03*
X020975Y015218D03*
X021041Y015466D03*
X021057Y015565D03*
X021057Y015581D03*
X021057Y015598D03*
X021057Y015615D03*
X021057Y015631D03*
X021057Y015648D03*
X021057Y015664D03*
X021057Y015681D03*
X021057Y015697D03*
X021057Y015714D03*
X021057Y015730D03*
X021057Y015747D03*
X021057Y015763D03*
X021057Y015813D03*
X021057Y015830D03*
X021057Y015846D03*
X021057Y015863D03*
X021041Y016028D03*
X021024Y016111D03*
X021008Y016177D03*
X020991Y016226D03*
X020975Y016259D03*
X020396Y016507D03*
X020396Y016524D03*
X020396Y016541D03*
X020429Y016772D03*
X020446Y016838D03*
X020446Y016855D03*
X020462Y016904D03*
X020462Y016921D03*
X020462Y016937D03*
X020479Y016954D03*
X020479Y016970D03*
X020495Y017119D03*
X020495Y017136D03*
X020495Y017152D03*
X020512Y017185D03*
X020512Y017202D03*
X020512Y017219D03*
X020512Y017235D03*
X020479Y017748D03*
X020826Y018343D03*
X020809Y018376D03*
X020793Y018409D03*
X020776Y018459D03*
X020760Y018492D03*
X020743Y018541D03*
X020727Y018607D03*
X021669Y018359D03*
X021669Y018343D03*
X021669Y018326D03*
X021669Y018310D03*
X021653Y018293D03*
X021653Y018277D03*
X021653Y018260D03*
X021653Y018244D03*
X021636Y018211D03*
X021636Y018194D03*
X021636Y018178D03*
X021686Y018376D03*
X021686Y018393D03*
X021686Y018409D03*
X021686Y018426D03*
X021702Y018459D03*
X021702Y018475D03*
X021702Y018492D03*
X021719Y018574D03*
X021735Y018690D03*
X021735Y018707D03*
X021752Y018955D03*
X021752Y018971D03*
X021752Y018988D03*
X021752Y019004D03*
X021752Y019021D03*
X021768Y019236D03*
X021785Y019335D03*
X021785Y019352D03*
X021785Y019368D03*
X021785Y019385D03*
X021785Y019401D03*
X021785Y019418D03*
X021801Y019467D03*
X021801Y019484D03*
X021801Y019500D03*
X021801Y019517D03*
X021239Y020063D03*
X021239Y020360D03*
X021239Y020377D03*
X021239Y020393D03*
X021256Y020559D03*
X021256Y020575D03*
X021256Y020592D03*
X021256Y020608D03*
X022066Y020674D03*
X022083Y020691D03*
X022132Y020956D03*
X022132Y020972D03*
X022860Y021518D03*
X022860Y021534D03*
X022860Y021551D03*
X023223Y022378D03*
X023223Y022758D03*
X022942Y023485D03*
X021041Y021766D03*
X021041Y021749D03*
X021057Y021716D03*
X021024Y021782D03*
X021024Y021799D03*
X021008Y021832D03*
X021008Y021848D03*
X020991Y021881D03*
X020991Y021898D03*
X020975Y021948D03*
X020958Y022014D03*
X020942Y022080D03*
X020925Y022146D03*
X020925Y022163D03*
X020909Y022229D03*
X020909Y022245D03*
X020909Y022262D03*
X020892Y022328D03*
X020892Y022344D03*
X020892Y022361D03*
X020875Y022444D03*
X020875Y022460D03*
X020875Y022477D03*
X020875Y022493D03*
X020859Y022593D03*
X020859Y022609D03*
X020859Y022626D03*
X020859Y022642D03*
X020859Y022659D03*
X020859Y022675D03*
X020859Y023221D03*
X020859Y023237D03*
X020859Y023254D03*
X020859Y023270D03*
X020859Y023287D03*
X020859Y023304D03*
X020859Y023320D03*
X018825Y022196D03*
X018825Y021567D03*
X018825Y021551D03*
X018825Y021534D03*
X018825Y021518D03*
X018842Y021452D03*
X018842Y021435D03*
X018842Y021419D03*
X018825Y021088D03*
X018825Y021071D03*
X018809Y021022D03*
X018726Y020823D03*
X018709Y020807D03*
X018693Y020790D03*
X017717Y020972D03*
X017701Y020989D03*
X017684Y021005D03*
X017668Y021038D03*
X017651Y021055D03*
X017634Y021088D03*
X017618Y021121D03*
X017601Y021154D03*
X017585Y021187D03*
X017585Y021204D03*
X017568Y021237D03*
X017568Y021253D03*
X017568Y021270D03*
X017552Y021319D03*
X017535Y021419D03*
X017535Y021435D03*
X017519Y021468D03*
X017519Y021501D03*
X017519Y021518D03*
X017519Y021534D03*
X017519Y021551D03*
X019354Y017169D03*
X019354Y017152D03*
X019272Y016838D03*
X019272Y016722D03*
X019272Y016706D03*
X019272Y016689D03*
X019288Y016607D03*
X019288Y016590D03*
X019288Y016574D03*
X019288Y016557D03*
X018792Y016855D03*
X020346Y016144D03*
X018610Y015152D03*
X018924Y014275D03*
X018924Y014259D03*
X018924Y014242D03*
X018924Y014226D03*
X018924Y014209D03*
X018924Y014193D03*
X018924Y014176D03*
X018924Y014159D03*
X018908Y014060D03*
X018908Y014044D03*
X018908Y014027D03*
X018908Y014011D03*
X018908Y013994D03*
X018908Y013978D03*
X018908Y013961D03*
X018891Y013895D03*
X018891Y013878D03*
X018891Y013862D03*
X018891Y013845D03*
X018891Y013829D03*
X018891Y013812D03*
X018875Y013779D03*
X018875Y013763D03*
X018875Y013746D03*
X018875Y013730D03*
X018858Y013680D03*
X018858Y013663D03*
X018858Y013647D03*
X018842Y013614D03*
X018842Y013597D03*
X018825Y013564D03*
X018825Y013548D03*
X018825Y013531D03*
X018809Y013515D03*
X018809Y013498D03*
X018809Y013481D03*
X018792Y013465D03*
X018792Y013448D03*
X018775Y013415D03*
X017734Y014441D03*
X017750Y014490D03*
X017767Y014556D03*
X016775Y016160D03*
X016775Y016177D03*
X016775Y016193D03*
X016775Y016210D03*
X016791Y016276D03*
X016791Y016293D03*
X016808Y016309D03*
X022909Y016441D03*
X022909Y016458D03*
X022909Y016474D03*
X022926Y016574D03*
X022926Y016590D03*
X022926Y016607D03*
X022926Y016623D03*
X022926Y016640D03*
X022926Y016656D03*
X022926Y016673D03*
X022926Y016689D03*
X022926Y016706D03*
X022926Y016722D03*
X022926Y016739D03*
X022942Y017152D03*
X022942Y017169D03*
X022942Y017185D03*
X022942Y017202D03*
X022942Y017219D03*
X022942Y017235D03*
X022942Y017252D03*
X022942Y017268D03*
X022942Y017285D03*
X022942Y017301D03*
X022942Y017318D03*
X022942Y017334D03*
X022942Y017351D03*
X022942Y017367D03*
X022942Y017384D03*
X023223Y017698D03*
X023223Y017715D03*
X023223Y017731D03*
X023223Y017748D03*
X023223Y017913D03*
X023223Y017930D03*
X023223Y017946D03*
X023223Y017963D03*
X023223Y017979D03*
X023223Y017996D03*
X023223Y018012D03*
X023868Y018012D03*
X023984Y018062D03*
X024001Y017896D03*
X023984Y017880D03*
X024315Y017963D03*
X024050Y018260D03*
X024067Y018277D03*
X024364Y018922D03*
X023802Y019583D03*
X024183Y019881D03*
X024265Y019798D03*
X024001Y020360D03*
X024083Y020559D03*
X024116Y020575D03*
X024381Y020592D03*
X024679Y017268D03*
X024679Y017070D03*
X024629Y017037D03*
X024596Y017020D03*
X024563Y017004D03*
X024530Y016987D03*
X024315Y017202D03*
X024216Y016640D03*
X024216Y016392D03*
X018924Y006884D03*
X018908Y006834D03*
X018891Y006785D03*
X018875Y006752D03*
X018875Y006735D03*
X018858Y006719D03*
X018858Y006702D03*
X018842Y006669D03*
X021074Y005015D03*
X021090Y004933D03*
X021090Y004916D03*
X021090Y004900D03*
X021090Y004883D03*
X021090Y004867D03*
X021090Y004850D03*
X021090Y004833D03*
X021090Y004817D03*
X021107Y004718D03*
X021107Y004701D03*
X021107Y004685D03*
X021107Y004668D03*
X021107Y004437D03*
X021107Y004420D03*
X021107Y004404D03*
X021107Y004387D03*
X021107Y004370D03*
X021107Y004354D03*
X021107Y004337D03*
X021107Y004321D03*
X021107Y004304D03*
X021107Y004288D03*
X021107Y004271D03*
X021107Y004255D03*
X021107Y004238D03*
X021107Y004139D03*
X021090Y003874D03*
X021090Y003858D03*
X021388Y003643D03*
X021405Y003593D03*
X021421Y003544D03*
X021438Y003478D03*
X021454Y003395D03*
X021471Y003279D03*
X021471Y003263D03*
X021471Y003246D03*
X021471Y003230D03*
X021471Y003114D03*
X021471Y003097D03*
X021471Y003081D03*
X021471Y003064D03*
X021471Y003048D03*
X021454Y002965D03*
X021454Y002948D03*
X021438Y002882D03*
X021057Y002882D03*
X021057Y002866D03*
X021057Y002849D03*
X021057Y002833D03*
X021041Y002783D03*
X021041Y002767D03*
X021041Y002750D03*
X021024Y002684D03*
X021057Y002899D03*
X021057Y002915D03*
X021057Y002932D03*
X020958Y002386D03*
X020958Y002353D03*
X020958Y002337D03*
X020958Y002320D03*
X020958Y002304D03*
X020975Y002270D03*
X020975Y002254D03*
X020975Y002237D03*
X020991Y002155D03*
X020991Y002138D03*
X020991Y002122D03*
X020991Y002105D03*
X020975Y002089D03*
X020958Y001923D03*
X020958Y001907D03*
X020958Y001890D03*
X020958Y001874D03*
X020958Y001857D03*
X020958Y001841D03*
X020958Y001824D03*
X018709Y001956D03*
X018693Y001989D03*
X018676Y002022D03*
X018660Y002056D03*
X018643Y002089D03*
X018627Y002122D03*
X018627Y002138D03*
X018610Y002171D03*
X018594Y002221D03*
X018511Y003296D03*
X018511Y003312D03*
X018511Y003329D03*
X018511Y003345D03*
X018511Y003362D03*
X018511Y003395D03*
X018511Y003411D03*
X018527Y003461D03*
X018527Y003478D03*
X018527Y003494D03*
X018544Y003527D03*
X018544Y003544D03*
X018544Y003560D03*
X018709Y004007D03*
X018726Y004023D03*
X018726Y004040D03*
X018742Y004056D03*
X018759Y004089D03*
X022281Y004536D03*
X022281Y004552D03*
X022281Y004569D03*
X022281Y004585D03*
X022281Y004602D03*
X022281Y004619D03*
X022264Y004652D03*
X022264Y004668D03*
X022264Y004685D03*
X022264Y004701D03*
X022264Y004718D03*
X022264Y004734D03*
X022264Y004751D03*
X022264Y004767D03*
X022264Y004784D03*
X022264Y004800D03*
X022248Y004833D03*
X022248Y004850D03*
X022248Y004867D03*
X022248Y004883D03*
X022248Y004900D03*
X022248Y004916D03*
X022248Y004933D03*
X022248Y004949D03*
X022248Y004966D03*
X022248Y004982D03*
X022248Y004999D03*
X022248Y005015D03*
X022248Y005032D03*
X022248Y005048D03*
X022248Y005065D03*
X022248Y005081D03*
X022248Y005098D03*
X022248Y005115D03*
X022248Y005131D03*
X022248Y005396D03*
X022248Y005412D03*
X022248Y005429D03*
X022264Y005544D03*
X022264Y005561D03*
X022281Y005644D03*
X022297Y004503D03*
X022297Y004486D03*
X022297Y004470D03*
X022297Y004453D03*
X022297Y004437D03*
X022314Y004404D03*
X022314Y004387D03*
X022314Y004370D03*
X022331Y004337D03*
X022331Y004321D03*
X022331Y004304D03*
X022347Y004271D03*
X022347Y004255D03*
X022347Y004238D03*
X022364Y004222D03*
X022364Y004205D03*
X022380Y004156D03*
X025142Y004156D03*
X025158Y004189D03*
X025191Y004106D03*
X025323Y004222D03*
X025373Y004156D03*
X025357Y004503D03*
X025175Y004652D03*
X025158Y004635D03*
X025175Y004933D03*
X025191Y005015D03*
X025605Y004817D03*
X025621Y004833D03*
X025638Y004850D03*
X025654Y004867D03*
X025704Y004900D03*
X025753Y004933D03*
X025605Y004635D03*
X015105Y006636D03*
X015088Y006652D03*
X015072Y006685D03*
X015055Y006702D03*
X015055Y006719D03*
X015038Y006735D03*
X015022Y006752D03*
X015022Y006768D03*
X015005Y006785D03*
X014989Y006818D03*
X014972Y006851D03*
X014030Y005793D03*
X013997Y005710D03*
X013980Y005660D03*
X013964Y005611D03*
X013964Y005594D03*
X013947Y005528D03*
D29*
X015096Y005776D03*
X015559Y005346D03*
X015559Y005330D03*
X015559Y005313D03*
X015559Y005296D03*
X015576Y005280D03*
X015576Y005263D03*
X015576Y005247D03*
X015576Y005230D03*
X015592Y005214D03*
X015592Y005197D03*
X015592Y005181D03*
X015609Y005164D03*
X015609Y005148D03*
X015609Y005131D03*
X015625Y005098D03*
X015625Y005081D03*
X015642Y005065D03*
X015642Y005048D03*
X015659Y005015D03*
X015675Y004966D03*
X015692Y004933D03*
X015708Y004900D03*
X017147Y004949D03*
X017147Y004966D03*
X017147Y004982D03*
X017147Y004999D03*
X017147Y005015D03*
X017147Y005032D03*
X017147Y005048D03*
X017163Y005148D03*
X017163Y005164D03*
X017610Y005743D03*
X018023Y005908D03*
X018040Y005941D03*
X017246Y006470D03*
X017246Y006487D03*
X017246Y006504D03*
X017246Y006520D03*
X017229Y006553D03*
X017229Y006570D03*
X017229Y006685D03*
X017229Y006702D03*
X017229Y006719D03*
X017213Y006735D03*
X017213Y006752D03*
X017213Y006768D03*
X017213Y006785D03*
X017213Y006801D03*
X017213Y006818D03*
X017196Y006900D03*
X016601Y007264D03*
X016601Y007281D03*
X016601Y007297D03*
X016254Y007049D03*
X016254Y007033D03*
X016254Y007016D03*
X016254Y007000D03*
X016254Y006983D03*
X016254Y006967D03*
X016254Y006834D03*
X016254Y006818D03*
X016254Y006801D03*
X016254Y006785D03*
X016254Y006768D03*
X016254Y006752D03*
X016254Y006735D03*
X016254Y006719D03*
X016254Y006702D03*
X016254Y006685D03*
X016254Y006669D03*
X016254Y006652D03*
X016254Y007744D03*
X016270Y008322D03*
X016270Y008339D03*
X016270Y008356D03*
X016270Y008372D03*
X016254Y008471D03*
X016254Y008488D03*
X016254Y008504D03*
X016254Y008521D03*
X016254Y008537D03*
X016254Y008554D03*
X016254Y008570D03*
X016254Y008587D03*
X015080Y008653D03*
X014815Y007992D03*
X014815Y007975D03*
X014815Y007959D03*
X014799Y007859D03*
X014799Y007843D03*
X014799Y007826D03*
X014799Y007810D03*
X014799Y007793D03*
X014799Y007777D03*
X014170Y007678D03*
X014154Y007843D03*
X014154Y007446D03*
X014236Y007066D03*
X014170Y006933D03*
X014865Y007132D03*
X014881Y007082D03*
X014898Y007033D03*
X014914Y007000D03*
X014914Y006983D03*
X014931Y006950D03*
X014931Y006933D03*
X014947Y006917D03*
X014947Y006900D03*
X014964Y006884D03*
X014964Y006867D03*
X014981Y006834D03*
X014997Y006801D03*
X014848Y007198D03*
X013575Y006884D03*
X013228Y006586D03*
X013277Y006520D03*
X013029Y006470D03*
X012947Y006553D03*
X012831Y006669D03*
X012583Y006570D03*
X012550Y006669D03*
X012550Y006685D03*
X012384Y006967D03*
X012384Y006983D03*
X011988Y007859D03*
X012335Y008322D03*
X012434Y008488D03*
X013046Y008835D03*
X013178Y008719D03*
X013145Y008521D03*
X013988Y008306D03*
X018089Y009645D03*
X018089Y009662D03*
X018089Y009678D03*
X018089Y009695D03*
X018122Y009116D03*
X018122Y009100D03*
X018122Y009083D03*
X018122Y009067D03*
X018122Y009050D03*
X018122Y009033D03*
X018139Y008455D03*
X018139Y008438D03*
X018982Y007082D03*
X018982Y007066D03*
X018966Y007033D03*
X018966Y007016D03*
X018966Y007000D03*
X018949Y006983D03*
X018949Y006967D03*
X018949Y006950D03*
X018933Y006933D03*
X018933Y006917D03*
X018933Y006900D03*
X018916Y006867D03*
X018916Y006851D03*
X018899Y006818D03*
X018899Y006801D03*
X018883Y006768D03*
X021099Y004800D03*
X021099Y004784D03*
X021099Y004767D03*
X021099Y004751D03*
X021099Y004734D03*
X021099Y004222D03*
X021099Y004205D03*
X021099Y004189D03*
X021099Y004172D03*
X021099Y004156D03*
X022306Y004420D03*
X022322Y004354D03*
X022289Y004519D03*
X022273Y004635D03*
X023976Y005081D03*
X024042Y005131D03*
X024075Y005164D03*
X024092Y005181D03*
X024108Y005214D03*
X024108Y005230D03*
X024125Y005247D03*
X024273Y005296D03*
X024290Y005280D03*
X024174Y005412D03*
X024174Y005429D03*
X024174Y005495D03*
X024174Y005511D03*
X024158Y005578D03*
X024323Y005826D03*
X024323Y005842D03*
X024340Y005925D03*
X024273Y006090D03*
X024240Y006074D03*
X024158Y006107D03*
X024158Y006123D03*
X024158Y006140D03*
X024141Y006074D03*
X024141Y006024D03*
X024191Y006222D03*
X024207Y006239D03*
X024224Y006256D03*
X024290Y006504D03*
X024290Y006520D03*
X024290Y006537D03*
X024290Y006553D03*
X023976Y006537D03*
X023943Y006520D03*
X023926Y006504D03*
X023926Y006289D03*
X023761Y006289D03*
X023265Y006884D03*
X024356Y007661D03*
X024356Y007678D03*
X024340Y007694D03*
X024125Y008058D03*
X024141Y008074D03*
X024273Y008124D03*
X024257Y008223D03*
X024257Y008405D03*
X024224Y008637D03*
X024207Y008802D03*
X024125Y008802D03*
X024108Y008868D03*
X024108Y008885D03*
X024108Y008901D03*
X024141Y009000D03*
X024141Y009017D03*
X024273Y008901D03*
X024290Y008918D03*
X024340Y009215D03*
X024340Y009232D03*
X024340Y009248D03*
X024340Y009265D03*
X024340Y009281D03*
X024207Y009281D03*
X024191Y009265D03*
X024025Y009447D03*
X024042Y009480D03*
X024059Y009496D03*
X024059Y009513D03*
X024075Y009530D03*
X024092Y009563D03*
X024108Y009579D03*
X024125Y009596D03*
X024141Y009612D03*
X024158Y009629D03*
X024307Y009629D03*
X024307Y009645D03*
X024307Y009612D03*
X025067Y009364D03*
X025084Y009381D03*
X025117Y009248D03*
X025034Y009199D03*
X025299Y009463D03*
X025348Y008570D03*
X025348Y008554D03*
X025348Y008537D03*
X025348Y008521D03*
X025348Y008504D03*
X025348Y008488D03*
X025249Y008521D03*
X025233Y008504D03*
X025216Y008488D03*
X025199Y008471D03*
X025183Y008455D03*
X025034Y008570D03*
X025018Y008554D03*
X025001Y008537D03*
X025001Y008521D03*
X025018Y007694D03*
X025001Y007678D03*
X024984Y007661D03*
X024951Y007545D03*
X025133Y007363D03*
X025117Y007330D03*
X025199Y007463D03*
X025216Y007181D03*
X025266Y007115D03*
X025266Y007099D03*
X025266Y007082D03*
X025266Y007066D03*
X025266Y007049D03*
X025249Y007016D03*
X025133Y007099D03*
X025117Y007082D03*
X025100Y007066D03*
X025150Y006785D03*
X025315Y006851D03*
X025332Y006867D03*
X025299Y006619D03*
X025249Y006305D03*
X025249Y006289D03*
X025249Y006272D03*
X025233Y006239D03*
X025315Y006123D03*
X025299Y006090D03*
X025282Y006074D03*
X025133Y006024D03*
X025183Y005941D03*
X025150Y005859D03*
X025150Y005842D03*
X025216Y005759D03*
X025315Y005892D03*
X025249Y005511D03*
X025299Y005445D03*
X025299Y005429D03*
X025299Y005412D03*
X025166Y005412D03*
X025150Y005396D03*
X025199Y005181D03*
X025199Y005164D03*
X025216Y005081D03*
X025216Y005065D03*
X025199Y005048D03*
X025199Y005032D03*
X025299Y005164D03*
X025315Y005181D03*
X025332Y005197D03*
X025547Y004751D03*
X025629Y004652D03*
X025662Y004668D03*
X025315Y004585D03*
X025348Y004486D03*
X025150Y004486D03*
X025133Y004552D03*
X025133Y004569D03*
X025133Y004585D03*
X025150Y004602D03*
X025150Y004619D03*
X025166Y004205D03*
X025150Y004172D03*
X025381Y004139D03*
X025381Y004122D03*
X025398Y004106D03*
X025398Y004089D03*
X025398Y004073D03*
X025414Y004040D03*
X025414Y004023D03*
X025414Y004007D03*
X025414Y003990D03*
X022124Y007843D03*
X022140Y007909D03*
X022140Y007926D03*
X022157Y007992D03*
X024125Y010588D03*
X024125Y010670D03*
X024125Y010687D03*
X024141Y010770D03*
X024273Y010770D03*
X024257Y011084D03*
X024257Y011100D03*
X024257Y011117D03*
X024257Y011133D03*
X024273Y011299D03*
X024092Y011084D03*
X024075Y011034D03*
X022504Y011811D03*
X022504Y011828D03*
X022504Y011844D03*
X022504Y011861D03*
X022504Y011878D03*
X022504Y011894D03*
X022504Y011911D03*
X022504Y011927D03*
X022504Y011944D03*
X022504Y011960D03*
X022504Y011977D03*
X022504Y011993D03*
X022504Y012010D03*
X022504Y012026D03*
X023992Y012969D03*
X024009Y013002D03*
X024025Y013019D03*
X024042Y013035D03*
X024108Y013085D03*
X024125Y013101D03*
X024141Y013118D03*
X024158Y013134D03*
X024224Y013233D03*
X024224Y013399D03*
X024125Y013481D03*
X024108Y013465D03*
X024092Y013432D03*
X024075Y013415D03*
X024059Y013382D03*
X024059Y013746D03*
X024075Y013878D03*
X024273Y013878D03*
X024273Y013862D03*
X024273Y013845D03*
X024273Y014077D03*
X024273Y014093D03*
X024273Y014110D03*
X024273Y014126D03*
X024273Y014143D03*
X024075Y014126D03*
X024059Y014110D03*
X024025Y014093D03*
X024009Y014077D03*
X023893Y014143D03*
X023860Y014126D03*
X023844Y014110D03*
X023827Y014093D03*
X023810Y014077D03*
X023794Y014060D03*
X024207Y016375D03*
X024224Y016474D03*
X024207Y016557D03*
X024207Y016855D03*
X024224Y017152D03*
X024654Y017053D03*
X024703Y017086D03*
X024009Y017748D03*
X023926Y017830D03*
X023943Y017847D03*
X023959Y017863D03*
X023926Y018144D03*
X023943Y018161D03*
X023959Y018178D03*
X023976Y018194D03*
X023992Y018211D03*
X024009Y018227D03*
X024025Y018244D03*
X024257Y018310D03*
X024273Y018326D03*
X024373Y018326D03*
X024373Y018310D03*
X024340Y017946D03*
X024207Y018591D03*
X024389Y018641D03*
X024240Y018822D03*
X024257Y018839D03*
X024273Y018856D03*
X024290Y018872D03*
X024273Y019781D03*
X024009Y019848D03*
X024009Y019930D03*
X024025Y019980D03*
X024191Y020162D03*
X024207Y020294D03*
X024224Y020311D03*
X024389Y020211D03*
X024389Y020195D03*
X023976Y020476D03*
X023992Y020493D03*
X024009Y020509D03*
X024059Y020542D03*
X024406Y020575D03*
X023232Y022394D03*
X023232Y022774D03*
X022951Y023502D03*
X020884Y023552D03*
X020884Y023568D03*
X020884Y023585D03*
X020851Y023204D03*
X020851Y023188D03*
X020851Y023171D03*
X020851Y023155D03*
X020851Y023138D03*
X020851Y023122D03*
X020851Y023105D03*
X020851Y023089D03*
X020851Y023072D03*
X020851Y023056D03*
X020851Y023039D03*
X020851Y023022D03*
X020851Y023006D03*
X020851Y022989D03*
X020851Y022973D03*
X020851Y022956D03*
X020851Y022940D03*
X020851Y022923D03*
X020851Y022907D03*
X020851Y022890D03*
X020851Y022874D03*
X020851Y022857D03*
X020851Y022841D03*
X020851Y022824D03*
X020851Y022807D03*
X020851Y022791D03*
X020851Y022774D03*
X020851Y022758D03*
X020851Y022741D03*
X020851Y022725D03*
X020851Y022708D03*
X020851Y022692D03*
X020867Y022576D03*
X020867Y022559D03*
X020867Y022543D03*
X020867Y022526D03*
X020867Y022510D03*
X020884Y022427D03*
X020884Y022411D03*
X020884Y022394D03*
X020884Y022378D03*
X020900Y022311D03*
X020900Y022295D03*
X020900Y022278D03*
X020917Y022212D03*
X020917Y022196D03*
X020917Y022179D03*
X020933Y022130D03*
X020933Y022113D03*
X020933Y022096D03*
X020950Y022063D03*
X020950Y022047D03*
X020950Y022030D03*
X020966Y021997D03*
X020966Y021981D03*
X020966Y021964D03*
X020983Y021931D03*
X020983Y021915D03*
X020999Y021865D03*
X021016Y021815D03*
X022140Y020939D03*
X022140Y020922D03*
X022140Y020906D03*
X022140Y020889D03*
X022140Y020873D03*
X022140Y020856D03*
X022140Y020840D03*
X022140Y020823D03*
X022140Y020807D03*
X022124Y020774D03*
X022124Y020757D03*
X022107Y020741D03*
X022107Y020724D03*
X022091Y020707D03*
X021777Y019319D03*
X021777Y019302D03*
X021777Y019285D03*
X021777Y019269D03*
X021777Y019252D03*
X021760Y019070D03*
X021760Y019054D03*
X021760Y019037D03*
X021744Y018938D03*
X021744Y018922D03*
X021744Y018905D03*
X021744Y018889D03*
X023232Y017896D03*
X023232Y017880D03*
X023232Y017863D03*
X023232Y017847D03*
X023232Y017830D03*
X023232Y017814D03*
X023232Y017797D03*
X023232Y017781D03*
X023232Y017764D03*
X023232Y017185D03*
X021049Y015548D03*
X021049Y015532D03*
X021049Y015515D03*
X021049Y015499D03*
X021049Y015482D03*
X021033Y015449D03*
X021033Y015433D03*
X021033Y015416D03*
X021033Y015400D03*
X021033Y015383D03*
X021016Y015350D03*
X021016Y015333D03*
X021016Y015317D03*
X020999Y015300D03*
X020999Y015284D03*
X020999Y015267D03*
X020983Y015251D03*
X020983Y015234D03*
X020966Y015201D03*
X020421Y016706D03*
X020421Y016722D03*
X020421Y016739D03*
X020421Y016756D03*
X020437Y016789D03*
X020437Y016805D03*
X020437Y016822D03*
X020454Y016871D03*
X020454Y016888D03*
X019346Y017103D03*
X019346Y017119D03*
X019346Y017136D03*
X019329Y017086D03*
X019329Y017070D03*
X019329Y017053D03*
X019313Y016987D03*
X019296Y016937D03*
X019296Y016921D03*
X019296Y016904D03*
X019280Y016888D03*
X019280Y016871D03*
X019280Y016855D03*
X019280Y016673D03*
X019280Y016656D03*
X019280Y016640D03*
X019280Y016623D03*
X017725Y016590D03*
X017709Y016557D03*
X017709Y016541D03*
X017692Y016507D03*
X017676Y016458D03*
X017196Y016739D03*
X016849Y016756D03*
X016849Y016772D03*
X016849Y016789D03*
X016849Y016805D03*
X016833Y016656D03*
X016816Y016491D03*
X016816Y016474D03*
X016816Y016458D03*
X016816Y016441D03*
X016783Y016259D03*
X016783Y016243D03*
X016783Y016226D03*
X016866Y017037D03*
X016866Y017053D03*
X016899Y017797D03*
X016899Y017814D03*
X016915Y017979D03*
X016915Y017996D03*
X016915Y018012D03*
X016915Y018029D03*
X016915Y018045D03*
X016915Y018062D03*
X016915Y018078D03*
X016915Y018095D03*
X016915Y018111D03*
X016915Y018128D03*
X016915Y018144D03*
X016915Y018161D03*
X017676Y021022D03*
X017643Y021071D03*
X017626Y021104D03*
X017610Y021137D03*
X017593Y021170D03*
X017577Y021220D03*
X017510Y021485D03*
X012219Y017185D03*
X012219Y017169D03*
X012219Y017152D03*
X012219Y017136D03*
X012219Y017119D03*
X013327Y015978D03*
X008350Y016937D03*
X005092Y013680D03*
X005092Y013663D03*
X005092Y013647D03*
X005076Y013614D03*
X004811Y013283D03*
X004563Y013200D03*
X004563Y013184D03*
X004563Y013167D03*
X004580Y013151D03*
X004580Y013134D03*
X004348Y013399D03*
X004348Y013415D03*
X004332Y013432D03*
X004563Y013663D03*
X004563Y013680D03*
X004563Y013696D03*
X004580Y013746D03*
X004580Y013763D03*
X004596Y013796D03*
X017147Y004420D03*
X017130Y004370D03*
X017130Y004354D03*
X017114Y004321D03*
X018585Y003726D03*
X018569Y003676D03*
X018569Y003659D03*
X018569Y003643D03*
X018552Y003626D03*
X018552Y003610D03*
X018552Y003593D03*
X018552Y003577D03*
X018536Y003511D03*
X018519Y003444D03*
X018519Y003428D03*
X018503Y003378D03*
X018651Y003891D03*
X018668Y003924D03*
X018684Y003957D03*
X018701Y003974D03*
X018701Y003990D03*
X020966Y002287D03*
X020983Y002221D03*
X020983Y002204D03*
X020983Y002188D03*
X020983Y002171D03*
X020966Y001940D03*
X019677Y011530D03*
X019677Y011547D03*
X019677Y011563D03*
X018833Y013581D03*
X018850Y013630D03*
X018866Y013696D03*
X018866Y013713D03*
X018883Y013796D03*
X018899Y013911D03*
X018899Y013928D03*
X018899Y013944D03*
D30*
X018106Y014970D03*
X016965Y016954D03*
X016138Y018293D03*
X014022Y017185D03*
X014154Y016243D03*
X013707Y016259D03*
X013625Y015119D03*
X013906Y015003D03*
X015791Y015879D03*
X019792Y012093D03*
X020239Y011762D03*
X021214Y012522D03*
X021413Y012622D03*
X022570Y011200D03*
X023149Y011200D03*
X021132Y009166D03*
X021165Y009149D03*
X021099Y009182D03*
X021247Y009100D03*
X021281Y009083D03*
X022339Y008951D03*
X021843Y007463D03*
X024174Y008356D03*
X024224Y005859D03*
X022703Y003693D03*
X021760Y003742D03*
X021810Y002585D03*
X021066Y002022D03*
X019511Y004966D03*
X017262Y005214D03*
X015989Y006123D03*
X015609Y006256D03*
X016684Y007165D03*
X016684Y007181D03*
X016684Y007198D03*
X016965Y007198D03*
X019015Y008008D03*
X019396Y011051D03*
X024125Y013333D03*
X023133Y015251D03*
X020503Y016656D03*
X020586Y017070D03*
X020338Y017847D03*
X021859Y019120D03*
X022951Y018674D03*
X022851Y018260D03*
X024224Y017979D03*
X024257Y018343D03*
X021925Y020294D03*
X021314Y020244D03*
X021992Y021137D03*
X022041Y021121D03*
X021611Y021286D03*
X020437Y020939D03*
X018933Y021253D03*
X018899Y021848D03*
X018668Y022328D03*
X022984Y022163D03*
X023000Y022609D03*
X011161Y017384D03*
X010929Y017467D03*
X010003Y017351D03*
X008383Y016970D03*
X013840Y008554D03*
X014022Y007132D03*
X014385Y004585D03*
D31*
X014022Y007148D03*
X012401Y007165D03*
X012384Y007181D03*
X012054Y008389D03*
X013277Y008769D03*
X016353Y007479D03*
X016899Y007215D03*
X016981Y007165D03*
X017891Y008058D03*
X018205Y009496D03*
X017874Y010257D03*
X020123Y011448D03*
X020239Y011778D03*
X021462Y012638D03*
X021512Y012655D03*
X022587Y011150D03*
X022587Y010588D03*
X025216Y009397D03*
X020801Y008107D03*
X018271Y006156D03*
X017461Y005313D03*
X019544Y004982D03*
X020884Y005263D03*
X021810Y003726D03*
X022752Y003659D03*
X021082Y002039D03*
X018106Y013349D03*
X018139Y014986D03*
X020355Y014606D03*
X021446Y015119D03*
X022703Y016441D03*
X023033Y017086D03*
X022835Y018227D03*
X021231Y017963D03*
X020272Y019236D03*
X021644Y020079D03*
X021744Y020493D03*
X021892Y021170D03*
X021677Y021253D03*
X021644Y021270D03*
X022124Y021088D03*
X022934Y021385D03*
X023000Y022196D03*
X024273Y020608D03*
X020503Y020956D03*
X018949Y021270D03*
X018899Y020956D03*
X018618Y022344D03*
X018023Y022344D03*
X016981Y016937D03*
X015840Y015863D03*
X011806Y016524D03*
X011095Y017235D03*
X010979Y017433D03*
X010251Y017252D03*
X009673Y017268D03*
X009210Y017467D03*
X008647Y018525D03*
X024257Y016888D03*
D32*
X024257Y016904D03*
X023050Y017103D03*
X022769Y016392D03*
X021512Y015896D03*
X021413Y017863D03*
X022835Y018211D03*
X021363Y020013D03*
X021826Y020244D03*
X022173Y021071D03*
X022438Y020972D03*
X021760Y021220D03*
X023033Y022659D03*
X018916Y020972D03*
X018337Y022444D03*
X016998Y017252D03*
X016932Y016375D03*
X016287Y015730D03*
X018172Y015003D03*
X018139Y013333D03*
X019346Y012324D03*
X019825Y012043D03*
X020090Y011398D03*
X019759Y011233D03*
X021264Y012539D03*
X021363Y012589D03*
X021611Y012688D03*
X022620Y011596D03*
X022603Y010621D03*
X022306Y008934D03*
X021744Y007413D03*
X019842Y005115D03*
X019660Y005032D03*
X019627Y005015D03*
X016932Y004172D03*
X016518Y004172D03*
X015708Y006222D03*
X017891Y008074D03*
X018222Y009480D03*
X015791Y009067D03*
X012054Y008372D03*
X014303Y015482D03*
X014319Y015780D03*
X013773Y016970D03*
X011078Y017268D03*
X009210Y017450D03*
X024108Y014193D03*
X024141Y012936D03*
X025266Y004519D03*
X021099Y002056D03*
D33*
X021115Y002072D03*
X021115Y002502D03*
X020206Y005230D03*
X020305Y005263D03*
X020636Y005346D03*
X019776Y005081D03*
X021661Y007380D03*
X020735Y008091D03*
X022471Y008521D03*
X022620Y010670D03*
X019511Y012407D03*
X020603Y014226D03*
X021843Y015780D03*
X022769Y016408D03*
X023083Y017119D03*
X023083Y017136D03*
X023083Y019054D03*
X020801Y021038D03*
X018949Y021005D03*
X016270Y018326D03*
X016965Y016425D03*
X016965Y016408D03*
X014319Y015499D03*
X013889Y015019D03*
X011078Y017285D03*
X009673Y017285D03*
X009656Y018128D03*
X008399Y017004D03*
X004944Y013713D03*
X004944Y013696D03*
X011955Y006867D03*
X015096Y005445D03*
X016750Y004106D03*
X017891Y008091D03*
X017858Y010241D03*
X020553Y016607D03*
X020834Y016954D03*
D34*
X019734Y016094D03*
X020694Y014259D03*
X021388Y012605D03*
X022595Y011630D03*
X022579Y011183D03*
X022579Y011167D03*
X022579Y010571D03*
X023190Y011183D03*
X023207Y011167D03*
X025224Y009414D03*
X022430Y008504D03*
X021653Y008901D03*
X021405Y009000D03*
X021223Y009116D03*
X021190Y009133D03*
X021818Y007446D03*
X019916Y005148D03*
X018048Y006652D03*
X017370Y006206D03*
X017320Y005627D03*
X016973Y007181D03*
X016345Y007496D03*
X016378Y007926D03*
X016014Y008984D03*
X013864Y008521D03*
X013848Y008537D03*
X013286Y008785D03*
X011814Y007479D03*
X011979Y007165D03*
X011979Y007148D03*
X012277Y006735D03*
X013649Y006834D03*
X014394Y006140D03*
X015650Y006239D03*
X019123Y007148D03*
X022727Y003676D03*
X021057Y002452D03*
X019718Y011183D03*
X020131Y011464D03*
X019801Y012076D03*
X018064Y013366D03*
X016576Y015830D03*
X017287Y016111D03*
X014278Y015730D03*
X014278Y015466D03*
X013931Y016342D03*
X013914Y016937D03*
X012112Y017797D03*
X010954Y017450D03*
X010243Y017433D03*
X009681Y018194D03*
X008540Y017053D03*
X019850Y021253D03*
X021950Y021154D03*
X022083Y021104D03*
X021901Y020278D03*
X021868Y020261D03*
X022992Y022179D03*
X023009Y022626D03*
X022843Y018244D03*
X022777Y016375D03*
X024116Y014209D03*
D35*
X021669Y012704D03*
X022628Y011580D03*
X022612Y010654D03*
X022612Y010637D03*
X019768Y011249D03*
X019404Y011067D03*
X019834Y012010D03*
X019834Y012026D03*
X018180Y013316D03*
X015898Y015846D03*
X016957Y016392D03*
X014327Y015813D03*
X014327Y015796D03*
X011930Y017896D03*
X010227Y017417D03*
X004919Y013730D03*
X011864Y007512D03*
X011963Y006851D03*
X012277Y006752D03*
X014592Y006222D03*
X016394Y007909D03*
X017403Y006189D03*
X017353Y005660D03*
X017304Y005247D03*
X019701Y005048D03*
X019734Y005065D03*
X019817Y005098D03*
X020247Y005247D03*
X021851Y003709D03*
X022810Y003626D03*
X021107Y002485D03*
X021090Y002469D03*
X025274Y004536D03*
X021702Y007396D03*
X020545Y016623D03*
X020627Y017053D03*
X020611Y019137D03*
X020330Y019219D03*
X018941Y020989D03*
X020991Y021633D03*
X024133Y019815D03*
D36*
X021405Y017880D03*
X020297Y017830D03*
X020379Y019203D03*
X022760Y016425D03*
X024265Y016921D03*
X024100Y014176D03*
X021735Y012721D03*
X021355Y012572D03*
X018544Y013200D03*
X018230Y013300D03*
X018213Y015019D03*
X013699Y016987D03*
X009648Y018144D03*
X009631Y018161D03*
X009218Y017433D03*
X004902Y013200D03*
X011880Y007529D03*
X011996Y006834D03*
X012277Y006768D03*
X012046Y008356D03*
X016411Y007893D03*
X017420Y006173D03*
X017370Y005677D03*
X017320Y005263D03*
X020164Y005214D03*
X021620Y007363D03*
X021884Y002601D03*
X021123Y002519D03*
D37*
X021132Y002535D03*
X021909Y003693D03*
X022273Y008918D03*
X019396Y011084D03*
X021330Y012556D03*
X020272Y014589D03*
X020024Y016011D03*
X020784Y016970D03*
X020437Y019186D03*
X021611Y020063D03*
X014336Y015515D03*
X013939Y016326D03*
X009623Y018178D03*
X008780Y018558D03*
X012021Y006818D03*
X014617Y004503D03*
X015973Y006140D03*
D38*
X015956Y006156D03*
X015328Y005363D03*
X021429Y007314D03*
X023050Y002601D03*
X019478Y012357D03*
X020007Y016028D03*
X020685Y017004D03*
X021396Y017913D03*
X019181Y017219D03*
X020784Y021022D03*
X011789Y016557D03*
X010764Y017483D03*
X010169Y017367D03*
X008780Y018541D03*
D39*
X022479Y015218D03*
X022512Y002618D03*
D40*
X022529Y002634D03*
X019701Y007959D03*
D41*
X022554Y002651D03*
X018569Y016772D03*
D42*
X022587Y002667D03*
D43*
X022636Y002684D03*
X022636Y003577D03*
D44*
X022529Y002700D03*
X022959Y008637D03*
X022049Y012754D03*
X020131Y014159D03*
X018544Y015085D03*
X021702Y015135D03*
X022463Y018756D03*
X021570Y020228D03*
X010574Y017500D03*
D45*
X022868Y003511D03*
D46*
X022760Y003527D03*
X020214Y008025D03*
X019619Y014523D03*
X021901Y015152D03*
D47*
X019470Y014093D03*
X022711Y003544D03*
D48*
X022670Y003560D03*
D49*
X022529Y003593D03*
D50*
X022455Y003610D03*
X018354Y016739D03*
D51*
X015154Y016160D03*
X015005Y016491D03*
X011913Y017830D03*
X022661Y008554D03*
X022165Y003626D03*
X016758Y004139D03*
X015898Y006173D03*
X022942Y015929D03*
D52*
X019999Y016044D03*
X018577Y015119D03*
X015055Y016441D03*
X013864Y015069D03*
X011781Y016574D03*
X016543Y018376D03*
X018329Y020674D03*
X018329Y022411D03*
X022083Y012787D03*
X015783Y009033D03*
X016857Y007148D03*
X022083Y003643D03*
D53*
X022016Y003659D03*
X020627Y008074D03*
X014592Y006189D03*
X014609Y004536D03*
X020412Y014193D03*
X016279Y015747D03*
X015088Y016425D03*
X013881Y015052D03*
X012657Y017020D03*
X018346Y020658D03*
X021454Y020426D03*
D54*
X022488Y020625D03*
X023033Y021402D03*
X023033Y021419D03*
X023033Y021435D03*
X023033Y021452D03*
X020272Y017814D03*
X020669Y017020D03*
X020586Y016557D03*
X019495Y012374D03*
X019396Y011100D03*
X022240Y008901D03*
X017444Y006140D03*
X014617Y004519D03*
X015791Y009050D03*
X021959Y003676D03*
X014369Y015548D03*
X010185Y017384D03*
D55*
X011814Y016507D03*
X016824Y016507D03*
X016824Y016524D03*
X016824Y016541D03*
X016824Y016557D03*
X016824Y016574D03*
X016824Y016590D03*
X016824Y016607D03*
X016824Y016623D03*
X016824Y016640D03*
X016841Y016673D03*
X016841Y016689D03*
X016841Y016706D03*
X016841Y016722D03*
X016841Y016739D03*
X019305Y016954D03*
X019305Y016970D03*
X019321Y017004D03*
X019321Y017020D03*
X019321Y017037D03*
X021024Y015367D03*
X023753Y014011D03*
X023769Y014044D03*
X023901Y014011D03*
X023934Y014027D03*
X023968Y014044D03*
X023984Y014060D03*
X024034Y014242D03*
X024067Y014325D03*
X024083Y014358D03*
X024298Y014424D03*
X024315Y014457D03*
X024315Y014474D03*
X024315Y014490D03*
X024315Y014507D03*
X024315Y014523D03*
X024315Y014540D03*
X024298Y014573D03*
X024249Y014540D03*
X024265Y014060D03*
X024265Y014044D03*
X024265Y014027D03*
X024265Y013895D03*
X024199Y013895D03*
X024265Y013829D03*
X024265Y013812D03*
X024265Y013796D03*
X024265Y013779D03*
X024133Y013796D03*
X024050Y013845D03*
X024050Y013862D03*
X024034Y013829D03*
X024034Y013812D03*
X024034Y013796D03*
X024183Y013581D03*
X024100Y013448D03*
X024067Y013399D03*
X024050Y013283D03*
X024166Y013151D03*
X024183Y013167D03*
X024199Y013184D03*
X024216Y013200D03*
X024216Y013217D03*
X024232Y013250D03*
X024232Y013267D03*
X024232Y013283D03*
X024232Y013300D03*
X024232Y013316D03*
X024249Y013415D03*
X024083Y013068D03*
X024067Y013052D03*
X024001Y012952D03*
X024265Y012919D03*
X024265Y012903D03*
X024265Y012886D03*
X024249Y011167D03*
X024249Y011150D03*
X024166Y011167D03*
X024149Y011150D03*
X024133Y011133D03*
X024116Y011117D03*
X024100Y011100D03*
X024083Y011067D03*
X024067Y011051D03*
X024249Y010985D03*
X024216Y010885D03*
X024265Y010803D03*
X024265Y010786D03*
X024265Y010753D03*
X024265Y010737D03*
X024249Y010704D03*
X024232Y010687D03*
X024216Y010670D03*
X024149Y010786D03*
X024166Y010803D03*
X024116Y010571D03*
X024116Y010555D03*
X024116Y010538D03*
X024315Y009596D03*
X024315Y009579D03*
X024298Y009530D03*
X024298Y009513D03*
X024249Y009381D03*
X024249Y009364D03*
X024331Y009298D03*
X024331Y009199D03*
X024232Y009100D03*
X024133Y008984D03*
X024116Y008951D03*
X024116Y008934D03*
X024116Y008918D03*
X024199Y008785D03*
X024183Y008769D03*
X024166Y008736D03*
X024149Y008719D03*
X024133Y008686D03*
X024116Y008653D03*
X024116Y008637D03*
X024100Y008620D03*
X024149Y008521D03*
X024133Y008504D03*
X024133Y008488D03*
X024116Y008471D03*
X024100Y008438D03*
X024083Y008405D03*
X024083Y008389D03*
X024083Y008372D03*
X024282Y008339D03*
X024282Y008322D03*
X024282Y008306D03*
X024282Y008289D03*
X024282Y008273D03*
X024265Y008256D03*
X024265Y008240D03*
X024282Y008107D03*
X024282Y008091D03*
X024282Y008074D03*
X024282Y008058D03*
X024282Y008041D03*
X024282Y008025D03*
X024282Y008008D03*
X024282Y007992D03*
X024265Y007942D03*
X024249Y007893D03*
X024183Y007744D03*
X024166Y007711D03*
X024166Y007694D03*
X024149Y007678D03*
X024232Y007661D03*
X024249Y007678D03*
X024249Y007694D03*
X024364Y007644D03*
X024364Y007628D03*
X024364Y007611D03*
X024067Y008008D03*
X024034Y008058D03*
X024034Y008074D03*
X024050Y008124D03*
X024067Y008141D03*
X024149Y008091D03*
X024166Y008107D03*
X024183Y008124D03*
X024232Y008653D03*
X024298Y008934D03*
X024315Y008951D03*
X024183Y009248D03*
X024017Y009430D03*
X024034Y009463D03*
X024083Y009546D03*
X024993Y009281D03*
X024993Y009265D03*
X024993Y009248D03*
X025009Y009298D03*
X025009Y009315D03*
X025026Y009331D03*
X025042Y009348D03*
X025142Y009265D03*
X025175Y009315D03*
X025191Y009331D03*
X025208Y009348D03*
X025224Y009364D03*
X025241Y009381D03*
X025357Y009364D03*
X025357Y009348D03*
X025373Y009315D03*
X025373Y009298D03*
X025373Y009281D03*
X025373Y009265D03*
X025357Y009199D03*
X025307Y009480D03*
X025307Y009496D03*
X025307Y009513D03*
X025307Y009530D03*
X025307Y009546D03*
X025307Y009563D03*
X025274Y008570D03*
X025274Y008554D03*
X025257Y008537D03*
X025340Y008471D03*
X025340Y008455D03*
X025340Y008438D03*
X025323Y008405D03*
X025290Y008190D03*
X025257Y007744D03*
X025274Y007711D03*
X025257Y007562D03*
X025241Y007529D03*
X025224Y007496D03*
X025208Y007479D03*
X025191Y007446D03*
X025307Y007380D03*
X025307Y007363D03*
X025307Y007347D03*
X025224Y007198D03*
X025109Y007314D03*
X024943Y007562D03*
X024943Y007578D03*
X024943Y007595D03*
X024960Y007611D03*
X024960Y007628D03*
X024976Y007644D03*
X025257Y007033D03*
X025241Y007000D03*
X025241Y006983D03*
X025224Y006967D03*
X025208Y006933D03*
X025175Y006867D03*
X025158Y006834D03*
X025158Y006818D03*
X025158Y006801D03*
X025224Y006719D03*
X025208Y006702D03*
X025175Y006636D03*
X025158Y006603D03*
X025158Y006586D03*
X025224Y006504D03*
X025208Y006487D03*
X025158Y006404D03*
X025142Y006371D03*
X025142Y006355D03*
X025241Y006256D03*
X025224Y006222D03*
X025224Y006206D03*
X025208Y006189D03*
X025191Y006156D03*
X025175Y006140D03*
X025175Y006123D03*
X025158Y006107D03*
X025158Y006090D03*
X025142Y006074D03*
X025142Y006057D03*
X025142Y006041D03*
X025175Y005925D03*
X025175Y005908D03*
X025158Y005892D03*
X025158Y005875D03*
X025208Y005743D03*
X025191Y005726D03*
X025175Y005693D03*
X025158Y005677D03*
X025323Y005693D03*
X025323Y005611D03*
X025307Y005594D03*
X025307Y005578D03*
X025290Y005561D03*
X025274Y005544D03*
X025274Y005528D03*
X025290Y005396D03*
X025290Y005379D03*
X025274Y005346D03*
X025257Y005313D03*
X025241Y005280D03*
X025224Y005247D03*
X025208Y005214D03*
X025208Y005197D03*
X025340Y005214D03*
X025357Y005230D03*
X025307Y005015D03*
X025290Y004933D03*
X025290Y004916D03*
X025274Y004883D03*
X025274Y004867D03*
X025257Y004850D03*
X025241Y004817D03*
X025224Y004784D03*
X025208Y004751D03*
X025340Y004668D03*
X025340Y004652D03*
X025340Y004635D03*
X025340Y004619D03*
X025323Y004602D03*
X025439Y004619D03*
X025489Y004685D03*
X025505Y004701D03*
X025522Y004718D03*
X025538Y004734D03*
X025555Y004767D03*
X025572Y004784D03*
X025588Y004800D03*
X025687Y004685D03*
X025704Y004701D03*
X025720Y004718D03*
X025737Y004734D03*
X025753Y004751D03*
X025340Y004470D03*
X025323Y004453D03*
X025307Y004437D03*
X025290Y004420D03*
X025274Y004387D03*
X025191Y004238D03*
X025175Y004222D03*
X025406Y004056D03*
X025406Y003974D03*
X025406Y003957D03*
X025406Y003941D03*
X025406Y003924D03*
X024695Y005280D03*
X024695Y005296D03*
X024695Y005313D03*
X024315Y005197D03*
X024315Y005181D03*
X024298Y005214D03*
X024298Y005230D03*
X024298Y005247D03*
X024298Y005263D03*
X024100Y005197D03*
X024067Y005148D03*
X023984Y005197D03*
X023984Y005214D03*
X024001Y005230D03*
X024017Y005247D03*
X023968Y005181D03*
X023968Y005164D03*
X023951Y005148D03*
X023951Y005131D03*
X024166Y005594D03*
X024183Y005611D03*
X024199Y005627D03*
X024216Y005644D03*
X024282Y005726D03*
X024298Y005759D03*
X024315Y005776D03*
X024315Y005793D03*
X024315Y005809D03*
X024116Y005875D03*
X024116Y005925D03*
X024116Y005941D03*
X024116Y005958D03*
X024116Y005974D03*
X024116Y005991D03*
X024298Y006107D03*
X024315Y006123D03*
X024315Y006140D03*
X024331Y006156D03*
X024348Y006189D03*
X024348Y006206D03*
X024364Y006239D03*
X024364Y006256D03*
X024282Y006437D03*
X024282Y006454D03*
X024298Y006470D03*
X024298Y006487D03*
X024216Y006553D03*
X024183Y006504D03*
X024166Y006487D03*
X024149Y006470D03*
X023984Y006322D03*
X023951Y006305D03*
X023835Y006421D03*
X023819Y006404D03*
X023802Y006388D03*
X023786Y006371D03*
X023852Y006437D03*
X023868Y006454D03*
X023885Y006470D03*
X023901Y006487D03*
X024331Y006685D03*
X024331Y006702D03*
X024348Y006719D03*
X024348Y006735D03*
X024364Y006752D03*
X024364Y006768D03*
X025340Y006884D03*
X025340Y006140D03*
X023273Y006900D03*
X024993Y008455D03*
X024993Y008471D03*
X024993Y008488D03*
X024993Y008504D03*
X018990Y007115D03*
X018990Y007099D03*
X018974Y007049D03*
X017585Y006090D03*
X017238Y006537D03*
X016262Y008389D03*
X016262Y008405D03*
X016262Y008422D03*
X016262Y008438D03*
X016262Y008455D03*
X014807Y007893D03*
X014807Y007876D03*
X014790Y007760D03*
X014790Y007744D03*
X014790Y007727D03*
X014790Y007611D03*
X014790Y007595D03*
X014790Y007578D03*
X014790Y007562D03*
X014790Y007545D03*
X014790Y007529D03*
X014790Y007512D03*
X014807Y007479D03*
X014807Y007463D03*
X014807Y007446D03*
X014807Y007430D03*
X014807Y007413D03*
X014807Y007396D03*
X014807Y007380D03*
X014807Y007363D03*
X014823Y007347D03*
X014823Y007330D03*
X014823Y007314D03*
X014823Y007297D03*
X014823Y007281D03*
X014840Y007264D03*
X014840Y007248D03*
X014840Y007231D03*
X014840Y007215D03*
X014857Y007181D03*
X014857Y007165D03*
X014857Y007148D03*
X014873Y007115D03*
X014873Y007099D03*
X014890Y007066D03*
X014890Y007049D03*
X014906Y007016D03*
X014923Y006967D03*
X014179Y007231D03*
X014162Y007463D03*
X014245Y007694D03*
X014162Y007826D03*
X014096Y008157D03*
X014013Y008455D03*
X013583Y008703D03*
X012889Y008769D03*
X012459Y008504D03*
X012012Y008190D03*
X012244Y007479D03*
X012327Y007082D03*
X012393Y007000D03*
X012757Y006917D03*
X012542Y006702D03*
X013054Y006867D03*
X013352Y006421D03*
X017138Y004404D03*
X017138Y004387D03*
X018610Y003808D03*
X018610Y003792D03*
X018610Y003775D03*
X018594Y003759D03*
X018594Y003742D03*
X018577Y003709D03*
X018577Y003693D03*
X018627Y003825D03*
X018627Y003841D03*
X018643Y003858D03*
X018643Y003874D03*
X018660Y003907D03*
X018676Y003941D03*
X024216Y016359D03*
X024232Y016491D03*
X024216Y016541D03*
X024133Y016541D03*
X024133Y016557D03*
X024133Y016524D03*
X024133Y016507D03*
X024149Y016491D03*
X024149Y016474D03*
X024298Y016474D03*
X024315Y016507D03*
X024331Y016541D03*
X024348Y016574D03*
X024348Y016590D03*
X024348Y016607D03*
X024348Y016623D03*
X024348Y016640D03*
X024265Y016722D03*
X024315Y016838D03*
X024331Y016855D03*
X024249Y016937D03*
X024116Y016970D03*
X024116Y016987D03*
X024116Y017004D03*
X024133Y017020D03*
X024133Y017037D03*
X024149Y017070D03*
X024166Y017086D03*
X024166Y017103D03*
X024183Y017119D03*
X024199Y017136D03*
X024331Y017136D03*
X024331Y017152D03*
X024331Y017119D03*
X024331Y017103D03*
X024100Y016937D03*
X024646Y017252D03*
X024778Y017318D03*
X024761Y017152D03*
X024745Y017119D03*
X024728Y017103D03*
X024050Y017781D03*
X024034Y017764D03*
X024116Y017847D03*
X024133Y017863D03*
X024265Y018029D03*
X024282Y018062D03*
X024298Y018095D03*
X024348Y018194D03*
X024364Y018227D03*
X024364Y018244D03*
X024364Y018260D03*
X024381Y018277D03*
X024381Y018293D03*
X024331Y018426D03*
X024364Y018492D03*
X024381Y018525D03*
X024397Y018558D03*
X024397Y018574D03*
X024397Y018591D03*
X024397Y018607D03*
X024397Y018624D03*
X024315Y018707D03*
X024331Y018723D03*
X024232Y018806D03*
X024216Y018789D03*
X024199Y018756D03*
X024183Y018723D03*
X024183Y018707D03*
X024183Y018690D03*
X024166Y018674D03*
X024166Y018657D03*
X024166Y018641D03*
X023918Y018128D03*
X023901Y018111D03*
X023885Y018095D03*
X023868Y018078D03*
X024017Y018078D03*
X024348Y017930D03*
X024364Y017913D03*
X024364Y017896D03*
X024364Y017880D03*
X024364Y017863D03*
X023918Y017814D03*
X023901Y017797D03*
X023885Y017781D03*
X023868Y017748D03*
X023951Y019616D03*
X024001Y019864D03*
X024001Y019881D03*
X024001Y019897D03*
X024001Y019914D03*
X024017Y019947D03*
X024017Y019963D03*
X024034Y019996D03*
X024199Y019897D03*
X024216Y019914D03*
X024232Y019930D03*
X024315Y020046D03*
X024331Y020079D03*
X024348Y020096D03*
X024348Y020112D03*
X024364Y020129D03*
X024364Y020145D03*
X024381Y020162D03*
X024381Y020178D03*
X024397Y020228D03*
X024397Y020244D03*
X024397Y020261D03*
X024397Y020278D03*
X024397Y020294D03*
X024282Y020228D03*
X024265Y020211D03*
X024183Y020244D03*
X024183Y020261D03*
X024199Y020278D03*
X024083Y020410D03*
X024067Y020393D03*
X024034Y020377D03*
X023968Y020459D03*
X023951Y020443D03*
X023934Y020426D03*
X023918Y020410D03*
X023901Y020393D03*
X023885Y020360D03*
X023885Y020311D03*
X024034Y020526D03*
X024166Y020476D03*
X024282Y020575D03*
X024414Y020559D03*
X024414Y020542D03*
X024414Y020476D03*
X024397Y020757D03*
X024414Y020790D03*
X024414Y020807D03*
X024431Y020823D03*
X024431Y020840D03*
X024431Y020856D03*
X024282Y019765D03*
X022132Y020790D03*
X023240Y022411D03*
X023240Y022427D03*
X023240Y022791D03*
X020892Y023601D03*
X018346Y020608D03*
X004836Y013647D03*
X004572Y013713D03*
X004572Y013730D03*
X004588Y013779D03*
X004605Y013019D03*
D56*
X004836Y013630D03*
X012393Y007016D03*
X013831Y008587D03*
X014030Y008438D03*
X013401Y008719D03*
X014228Y007661D03*
X014228Y007644D03*
X014195Y007248D03*
X014146Y006900D03*
X014807Y007644D03*
X014807Y007711D03*
X016543Y007281D03*
X016543Y007264D03*
X017585Y006074D03*
X017585Y006057D03*
X017568Y005793D03*
X017601Y005710D03*
X020644Y005363D03*
X023290Y006917D03*
X024298Y006636D03*
X024381Y006801D03*
X024364Y007512D03*
X024364Y007529D03*
X024050Y007992D03*
X024050Y008273D03*
X024050Y008521D03*
X024331Y008967D03*
X024265Y009116D03*
X024282Y009133D03*
X024298Y009149D03*
X023984Y009381D03*
X025290Y008322D03*
X025290Y008306D03*
X025274Y008157D03*
X025274Y007611D03*
X025290Y007297D03*
X025274Y007281D03*
X025274Y007264D03*
X025257Y007248D03*
X025191Y006669D03*
X025191Y006454D03*
X024695Y005330D03*
X024695Y005263D03*
X024695Y005247D03*
X024298Y005081D03*
X024298Y005065D03*
X024282Y005032D03*
X025406Y003907D03*
X025406Y003891D03*
X025786Y004850D03*
X025786Y004867D03*
X025786Y004883D03*
X025786Y004900D03*
X025770Y004949D03*
X025340Y009149D03*
X024100Y010439D03*
X024315Y011315D03*
X023339Y011084D03*
X024249Y012704D03*
X024265Y012721D03*
X024265Y012737D03*
X024265Y012754D03*
X024265Y012770D03*
X024265Y012787D03*
X024199Y013614D03*
X024216Y013647D03*
X024232Y013680D03*
X024232Y013696D03*
X024249Y013730D03*
X024183Y013862D03*
X024232Y014308D03*
X024249Y014325D03*
X024265Y014341D03*
X024282Y014374D03*
X024199Y016309D03*
X024199Y016326D03*
X024265Y016739D03*
X024282Y016772D03*
X024282Y016987D03*
X024298Y017020D03*
X024431Y017004D03*
X024447Y017020D03*
X024464Y017037D03*
X024497Y017086D03*
X024513Y017103D03*
X024546Y017152D03*
X024794Y017235D03*
X024364Y017814D03*
X024364Y017830D03*
X024083Y018128D03*
X024100Y018144D03*
X024116Y018161D03*
X024133Y018178D03*
X024149Y018194D03*
X024166Y018211D03*
X024183Y018227D03*
X024199Y018244D03*
X024348Y018756D03*
X024364Y018789D03*
X023918Y019401D03*
X023934Y019418D03*
X023934Y019434D03*
X023934Y019451D03*
X023951Y019500D03*
X023951Y019517D03*
X023951Y019533D03*
X023951Y019550D03*
X023951Y019567D03*
X023951Y019583D03*
X023951Y019600D03*
X023786Y019567D03*
X024232Y019600D03*
X024249Y019616D03*
X024282Y019682D03*
X024050Y020013D03*
X024381Y020724D03*
X024447Y020922D03*
X023257Y021468D03*
X023257Y022460D03*
X023257Y022477D03*
X023257Y022841D03*
D57*
X022703Y018723D03*
X021396Y017930D03*
X020239Y017797D03*
X020140Y014573D03*
X019478Y012341D03*
X016948Y016028D03*
X011922Y017863D03*
X020636Y005330D03*
X016766Y004122D03*
D58*
X016742Y004156D03*
X022000Y008852D03*
X022066Y012770D03*
X019983Y016078D03*
X016494Y018343D03*
X015138Y016127D03*
X022397Y021038D03*
D59*
X023893Y020377D03*
X024108Y020426D03*
X024125Y020443D03*
X024141Y020459D03*
X024191Y020493D03*
X024207Y020509D03*
X024224Y020526D03*
X024240Y020542D03*
X024257Y020559D03*
X024340Y020658D03*
X024356Y020674D03*
X024356Y020691D03*
X024373Y020707D03*
X024389Y020741D03*
X024406Y020774D03*
X024439Y020873D03*
X024439Y020889D03*
X024439Y020906D03*
X024422Y020526D03*
X024422Y020509D03*
X024422Y020493D03*
X024406Y020459D03*
X024406Y020443D03*
X024406Y020426D03*
X024389Y020410D03*
X024389Y020393D03*
X024340Y020294D03*
X024323Y020278D03*
X024307Y020261D03*
X024307Y020244D03*
X024174Y020228D03*
X024174Y020211D03*
X024323Y020063D03*
X024307Y020030D03*
X024290Y020013D03*
X024290Y019996D03*
X024273Y019980D03*
X024257Y019963D03*
X024240Y019947D03*
X024290Y019748D03*
X024290Y019732D03*
X024290Y019715D03*
X024290Y019699D03*
X024273Y019666D03*
X024273Y019649D03*
X024257Y019633D03*
X023943Y019484D03*
X023943Y019467D03*
X024389Y018938D03*
X024389Y018872D03*
X024389Y018856D03*
X024389Y018839D03*
X024373Y018822D03*
X024373Y018806D03*
X024356Y018773D03*
X024340Y018740D03*
X024207Y018773D03*
X024191Y018740D03*
X024207Y018574D03*
X024373Y018508D03*
X024356Y018475D03*
X024356Y018459D03*
X024340Y018442D03*
X024323Y018409D03*
X024240Y018293D03*
X024224Y018277D03*
X024207Y018260D03*
X024340Y018178D03*
X024340Y018161D03*
X024323Y018144D03*
X024323Y018128D03*
X024307Y018111D03*
X024290Y018078D03*
X024273Y018045D03*
X024174Y017913D03*
X024158Y017896D03*
X024141Y017880D03*
X024108Y017830D03*
X024092Y017814D03*
X024075Y017797D03*
X023877Y017764D03*
X023860Y018062D03*
X024042Y018095D03*
X024059Y018111D03*
X024356Y018211D03*
X024389Y018541D03*
X024373Y017847D03*
X024323Y017219D03*
X024323Y017086D03*
X024323Y017070D03*
X024323Y017053D03*
X024307Y017037D03*
X024290Y017004D03*
X024273Y016970D03*
X024257Y016954D03*
X024307Y016822D03*
X024290Y016805D03*
X024290Y016789D03*
X024273Y016756D03*
X024340Y016557D03*
X024323Y016524D03*
X024307Y016491D03*
X024224Y016507D03*
X024224Y016524D03*
X024207Y016342D03*
X024108Y016954D03*
X024141Y017053D03*
X024422Y016987D03*
X024472Y017053D03*
X024488Y017070D03*
X024522Y017119D03*
X024538Y017136D03*
X024555Y017169D03*
X024571Y017185D03*
X024588Y017202D03*
X024604Y017219D03*
X024621Y017235D03*
X024770Y017169D03*
X024786Y017185D03*
X024786Y017202D03*
X024786Y017219D03*
X024803Y017252D03*
X024803Y017268D03*
X024753Y017136D03*
X023248Y017202D03*
X023248Y015267D03*
X024174Y014474D03*
X024191Y014490D03*
X024207Y014507D03*
X024224Y014523D03*
X024158Y014457D03*
X024141Y014441D03*
X024125Y014424D03*
X024108Y014407D03*
X024108Y014391D03*
X024092Y014374D03*
X024075Y014341D03*
X024059Y014308D03*
X024059Y014292D03*
X024042Y014275D03*
X024042Y014259D03*
X024191Y014259D03*
X024207Y014275D03*
X024224Y014292D03*
X024273Y014358D03*
X024290Y014391D03*
X024290Y014407D03*
X024307Y014441D03*
X024257Y014011D03*
X024257Y013994D03*
X024257Y013978D03*
X024191Y013878D03*
X024174Y013845D03*
X024158Y013829D03*
X024141Y013812D03*
X024257Y013763D03*
X024257Y013746D03*
X024240Y013713D03*
X024224Y013663D03*
X024207Y013630D03*
X024191Y013597D03*
X024273Y013498D03*
X024273Y013481D03*
X024273Y013465D03*
X024257Y013448D03*
X024257Y013432D03*
X024273Y012870D03*
X024273Y012853D03*
X024273Y012837D03*
X024273Y012820D03*
X024273Y012804D03*
X023761Y014027D03*
X024108Y011315D03*
X024240Y010968D03*
X024240Y010952D03*
X024240Y010935D03*
X024224Y010919D03*
X024224Y010902D03*
X024257Y010720D03*
X024108Y010522D03*
X024108Y010505D03*
X024108Y010489D03*
X024108Y010472D03*
X024108Y010456D03*
X024307Y009563D03*
X024307Y009546D03*
X024290Y009496D03*
X024290Y009480D03*
X024290Y009463D03*
X024273Y009447D03*
X024273Y009430D03*
X024257Y009414D03*
X024257Y009397D03*
X024323Y009182D03*
X024307Y009166D03*
X024125Y008967D03*
X024174Y008752D03*
X024141Y008703D03*
X024125Y008670D03*
X024108Y008455D03*
X024092Y008422D03*
X024042Y008107D03*
X024042Y008091D03*
X024273Y007975D03*
X024273Y007959D03*
X024257Y007926D03*
X024257Y007909D03*
X024240Y007876D03*
X024240Y007859D03*
X024174Y007727D03*
X024141Y007661D03*
X024373Y007595D03*
X024373Y007578D03*
X024373Y007562D03*
X024373Y007545D03*
X025018Y007479D03*
X025084Y007297D03*
X025233Y007215D03*
X025249Y007231D03*
X025299Y007314D03*
X025299Y007330D03*
X025233Y007512D03*
X025249Y007545D03*
X025266Y007578D03*
X025266Y007595D03*
X025282Y007628D03*
X025282Y007644D03*
X025282Y007661D03*
X025282Y007678D03*
X025282Y007694D03*
X025266Y007727D03*
X025282Y008174D03*
X025282Y008207D03*
X025299Y008339D03*
X025299Y008356D03*
X025315Y008372D03*
X025315Y008389D03*
X025332Y008422D03*
X025315Y008967D03*
X025315Y008984D03*
X025315Y009000D03*
X025315Y009017D03*
X025348Y009166D03*
X025348Y009182D03*
X025365Y009215D03*
X025365Y009232D03*
X025365Y009248D03*
X025365Y009331D03*
X025166Y009298D03*
X025150Y009281D03*
X025299Y009579D03*
X024009Y009414D03*
X023992Y009397D03*
X025084Y007049D03*
X025216Y006950D03*
X025199Y006917D03*
X025183Y006900D03*
X025183Y006884D03*
X025166Y006851D03*
X025199Y006685D03*
X025183Y006652D03*
X025166Y006619D03*
X025133Y006504D03*
X025199Y006470D03*
X025183Y006437D03*
X025166Y006421D03*
X025150Y006388D03*
X025199Y006173D03*
X025348Y006156D03*
X025332Y005908D03*
X025183Y005710D03*
X025133Y005379D03*
X025266Y005330D03*
X025282Y005363D03*
X025249Y005296D03*
X025233Y005263D03*
X025216Y005230D03*
X025282Y004900D03*
X025249Y004833D03*
X025233Y004800D03*
X025216Y004767D03*
X025199Y004734D03*
X025447Y004635D03*
X025464Y004652D03*
X025481Y004668D03*
X025762Y004767D03*
X025762Y004784D03*
X025778Y004800D03*
X025778Y004817D03*
X025778Y004833D03*
X025282Y004404D03*
X025266Y004370D03*
X025199Y004255D03*
X024290Y005048D03*
X024307Y005098D03*
X024307Y005115D03*
X024307Y005131D03*
X024307Y005148D03*
X024307Y005164D03*
X024224Y005660D03*
X024240Y005677D03*
X024257Y005693D03*
X024273Y005710D03*
X024290Y005743D03*
X024108Y005892D03*
X024108Y005908D03*
X024125Y006007D03*
X024340Y006173D03*
X024356Y006222D03*
X024257Y006338D03*
X024257Y006355D03*
X024273Y006371D03*
X024273Y006388D03*
X024273Y006404D03*
X024273Y006421D03*
X024191Y006520D03*
X024207Y006537D03*
X024141Y006454D03*
X024125Y006437D03*
X024108Y006421D03*
X024092Y006404D03*
X024075Y006388D03*
X024042Y006371D03*
X024025Y006355D03*
X024009Y006338D03*
X023777Y006355D03*
X023761Y006338D03*
X023744Y006322D03*
X023744Y006305D03*
X024307Y006652D03*
X024323Y006669D03*
X024373Y006785D03*
X025315Y006636D03*
X017692Y006107D03*
X017544Y005759D03*
X017544Y005743D03*
X016535Y007297D03*
X014799Y007496D03*
X014799Y007628D03*
X014236Y007678D03*
X014187Y007694D03*
X014055Y007562D03*
X014253Y007082D03*
X014154Y006917D03*
X013559Y006900D03*
X013046Y006454D03*
X012599Y006553D03*
X012021Y007215D03*
X012004Y007843D03*
X012318Y008306D03*
X012666Y008570D03*
X013029Y008819D03*
X013162Y008703D03*
X013393Y008736D03*
X013707Y008802D03*
X013310Y008405D03*
X015807Y009083D03*
X013906Y014986D03*
X009540Y018095D03*
X004629Y013895D03*
X020900Y023618D03*
X022951Y023519D03*
X023248Y022824D03*
X023248Y022807D03*
X023248Y022444D03*
D60*
X021479Y020443D03*
X021380Y017946D03*
X013922Y016293D03*
X021347Y007297D03*
X014584Y006173D03*
X014600Y004552D03*
D61*
X014592Y004569D03*
X018461Y013250D03*
X018312Y016822D03*
X021487Y020162D03*
X022380Y021005D03*
X022595Y018740D03*
D62*
X020570Y019153D03*
X020652Y017037D03*
X020570Y016574D03*
X018585Y015135D03*
X018288Y013283D03*
X020520Y014209D03*
X017841Y010207D03*
X021992Y008819D03*
X020024Y005164D03*
X017362Y005296D03*
X017428Y006156D03*
X014600Y006206D03*
X012037Y008322D03*
X011905Y007562D03*
X014352Y015532D03*
X013608Y017004D03*
X011922Y017880D03*
X018337Y020641D03*
D63*
X021405Y017896D03*
X021934Y018856D03*
X021950Y019219D03*
X022430Y020989D03*
X013881Y015036D03*
X013831Y017219D03*
X008424Y017037D03*
X017420Y006652D03*
X020082Y005181D03*
X021504Y007330D03*
X022546Y008537D03*
X022099Y012804D03*
D64*
X019503Y012390D03*
X019106Y014474D03*
X018263Y015036D03*
X015981Y015830D03*
X015072Y016177D03*
X011797Y016541D03*
X010210Y017400D03*
X009681Y017301D03*
X008408Y017020D03*
X012046Y008339D03*
X011897Y007545D03*
X012277Y006785D03*
X016427Y007876D03*
X017849Y010224D03*
X021570Y007347D03*
X020115Y005197D03*
X017337Y005280D03*
X020561Y016590D03*
X020760Y016987D03*
X022794Y018707D03*
X021405Y020410D03*
D65*
X022926Y008620D03*
X020594Y005280D03*
D66*
X020627Y005313D03*
X015220Y005677D03*
X015220Y005693D03*
X015220Y005710D03*
X015220Y005726D03*
X015138Y016144D03*
X011764Y016607D03*
X018329Y022394D03*
X020776Y020989D03*
X021520Y020178D03*
X022033Y018839D03*
D67*
X021529Y020476D03*
X022388Y021022D03*
X019991Y016061D03*
X018436Y013267D03*
X017031Y016078D03*
X016518Y018359D03*
X013856Y015102D03*
X015774Y009017D03*
X015907Y006206D03*
X015245Y005429D03*
X015245Y005412D03*
X015245Y005396D03*
X015245Y005379D03*
X021231Y007281D03*
D68*
X021992Y008835D03*
X019280Y007165D03*
X014584Y006156D03*
X020288Y014176D03*
X016981Y016044D03*
X015030Y016458D03*
X013443Y017020D03*
X011922Y017847D03*
X020784Y021005D03*
X022967Y019087D03*
D69*
X022041Y019203D03*
X021512Y020030D03*
X021512Y020046D03*
X021512Y020459D03*
X017147Y017235D03*
X017014Y016061D03*
X016270Y015763D03*
X015014Y016474D03*
X013922Y016276D03*
X013856Y015085D03*
X011773Y016590D03*
X017610Y006570D03*
X015907Y006189D03*
D70*
X017601Y006586D03*
X016262Y015796D03*
D71*
X022033Y012737D03*
X019751Y007926D03*
X017634Y006603D03*
X022827Y019120D03*
D72*
X022157Y018806D03*
X022802Y015912D03*
X017659Y006619D03*
D73*
X017676Y006636D03*
X020322Y008041D03*
X019776Y014540D03*
X022785Y020658D03*
D74*
X019958Y007181D03*
D75*
X020049Y007198D03*
D76*
X020115Y007215D03*
X020214Y007231D03*
D77*
X020338Y007248D03*
D78*
X020528Y007264D03*
X020247Y021567D03*
D79*
X019701Y007942D03*
D80*
X019734Y007975D03*
D81*
X019768Y007992D03*
X020793Y021319D03*
D82*
X022670Y015896D03*
X020107Y008008D03*
D83*
X022876Y008587D03*
X021950Y015813D03*
D84*
X016254Y015813D03*
X021992Y008885D03*
X022901Y008604D03*
D85*
X021992Y008868D03*
X019511Y021633D03*
D86*
X021545Y020195D03*
X022901Y020707D03*
X022901Y019104D03*
X021892Y015796D03*
X016270Y015780D03*
X011756Y016623D03*
X015758Y009000D03*
D87*
X018478Y013233D03*
D88*
X019553Y014110D03*
X012839Y017053D03*
D89*
X018585Y016789D03*
X019610Y014126D03*
D90*
X019660Y014143D03*
X018354Y017152D03*
X020156Y021303D03*
D91*
X022240Y018773D03*
X019445Y014507D03*
X012748Y017318D03*
D92*
X018329Y022378D03*
X022397Y021055D03*
X019966Y014556D03*
D93*
X022116Y015168D03*
D94*
X022364Y015185D03*
D95*
X022405Y015201D03*
X022240Y015863D03*
X013046Y017252D03*
X009970Y017533D03*
D96*
X012740Y017070D03*
X022016Y015830D03*
D97*
X022091Y015846D03*
X012881Y017301D03*
D98*
X022314Y015879D03*
D99*
X018560Y016756D03*
X020826Y021352D03*
X012955Y017285D03*
D100*
X009863Y017566D03*
X018610Y016805D03*
D101*
X012905Y017037D03*
D102*
X018279Y017169D03*
X020181Y021600D03*
D103*
X018197Y017185D03*
D104*
X018122Y017202D03*
D105*
X017353Y017219D03*
D106*
X013013Y017268D03*
D107*
X010003Y017516D03*
D108*
X009929Y017549D03*
X020164Y021551D03*
X020809Y021336D03*
D109*
X020884Y021385D03*
X022339Y019137D03*
D110*
X022256Y019153D03*
D111*
X022769Y020641D03*
D112*
X019983Y021286D03*
D113*
X020834Y021369D03*
D114*
X020206Y021584D03*
D115*
X020156Y021617D03*
D116*
X003166Y021728D02*
X003166Y002437D01*
X003165Y002437D02*
X003167Y002351D01*
X003172Y002265D01*
X003182Y002180D01*
X003195Y002095D01*
X003212Y002011D01*
X003232Y001927D01*
X003256Y001845D01*
X003284Y001764D01*
X003315Y001683D01*
X003349Y001605D01*
X003387Y001528D01*
X003429Y001453D01*
X003473Y001379D01*
X003521Y001308D01*
X003572Y001238D01*
X003626Y001171D01*
X003682Y001107D01*
X003742Y001045D01*
X003804Y000985D01*
X003868Y000929D01*
X003935Y000875D01*
X004005Y000824D01*
X004076Y000776D01*
X004149Y000732D01*
X004225Y000690D01*
X004302Y000652D01*
X004380Y000618D01*
X004461Y000587D01*
X004542Y000559D01*
X004624Y000535D01*
X004708Y000515D01*
X004792Y000498D01*
X004877Y000485D01*
X004962Y000475D01*
X005048Y000470D01*
X005134Y000468D01*
X024426Y000468D01*
X024512Y000470D01*
X024598Y000475D01*
X024683Y000485D01*
X024768Y000498D01*
X024852Y000515D01*
X024936Y000535D01*
X025018Y000559D01*
X025099Y000587D01*
X025180Y000618D01*
X025258Y000652D01*
X025335Y000690D01*
X025411Y000732D01*
X025484Y000776D01*
X025555Y000824D01*
X025625Y000875D01*
X025692Y000929D01*
X025756Y000985D01*
X025818Y001045D01*
X025878Y001107D01*
X025934Y001171D01*
X025988Y001238D01*
X026039Y001308D01*
X026087Y001379D01*
X026131Y001452D01*
X026173Y001528D01*
X026211Y001605D01*
X026245Y001683D01*
X026276Y001764D01*
X026304Y001845D01*
X026328Y001927D01*
X026348Y002011D01*
X026365Y002095D01*
X026378Y002180D01*
X026388Y002265D01*
X026393Y002351D01*
X026395Y002437D01*
X026394Y002437D02*
X026394Y021728D01*
X026395Y021728D02*
X026393Y021814D01*
X026388Y021900D01*
X026378Y021985D01*
X026365Y022070D01*
X026348Y022154D01*
X026328Y022238D01*
X026304Y022320D01*
X026276Y022401D01*
X026245Y022482D01*
X026211Y022560D01*
X026173Y022637D01*
X026131Y022713D01*
X026087Y022786D01*
X026039Y022857D01*
X025988Y022927D01*
X025934Y022994D01*
X025878Y023058D01*
X025818Y023120D01*
X025756Y023180D01*
X025692Y023236D01*
X025625Y023290D01*
X025555Y023341D01*
X025484Y023389D01*
X025411Y023433D01*
X025335Y023475D01*
X025258Y023513D01*
X025180Y023547D01*
X025099Y023578D01*
X025018Y023606D01*
X024936Y023630D01*
X024852Y023650D01*
X024768Y023667D01*
X024683Y023680D01*
X024598Y023690D01*
X024512Y023695D01*
X024426Y023697D01*
X024426Y023696D02*
X005134Y023696D01*
X005134Y023697D02*
X005048Y023695D01*
X004962Y023690D01*
X004877Y023680D01*
X004792Y023667D01*
X004708Y023650D01*
X004624Y023630D01*
X004542Y023606D01*
X004461Y023578D01*
X004380Y023547D01*
X004302Y023513D01*
X004225Y023475D01*
X004150Y023433D01*
X004076Y023389D01*
X004005Y023341D01*
X003935Y023290D01*
X003868Y023236D01*
X003804Y023180D01*
X003742Y023120D01*
X003682Y023058D01*
X003626Y022994D01*
X003572Y022927D01*
X003521Y022857D01*
X003473Y022786D01*
X003429Y022713D01*
X003387Y022637D01*
X003349Y022560D01*
X003315Y022482D01*
X003284Y022401D01*
X003256Y022320D01*
X003232Y022238D01*
X003212Y022154D01*
X003195Y022070D01*
X003182Y021985D01*
X003172Y021900D01*
X003167Y021814D01*
X003165Y021728D01*
X023225Y021630D02*
X023227Y021665D01*
X023233Y021700D01*
X023243Y021734D01*
X023256Y021767D01*
X023273Y021798D01*
X023294Y021826D01*
X023317Y021853D01*
X023344Y021876D01*
X023372Y021897D01*
X023403Y021914D01*
X023436Y021927D01*
X023470Y021937D01*
X023505Y021943D01*
X023540Y021945D01*
X023575Y021943D01*
X023610Y021937D01*
X023644Y021927D01*
X023677Y021914D01*
X023708Y021897D01*
X023736Y021876D01*
X023763Y021853D01*
X023786Y021826D01*
X023807Y021798D01*
X023824Y021767D01*
X023837Y021734D01*
X023847Y021700D01*
X023853Y021665D01*
X023855Y021630D01*
X023853Y021595D01*
X023847Y021560D01*
X023837Y021526D01*
X023824Y021493D01*
X023807Y021462D01*
X023786Y021434D01*
X023763Y021407D01*
X023736Y021384D01*
X023708Y021363D01*
X023677Y021346D01*
X023644Y021333D01*
X023610Y021323D01*
X023575Y021317D01*
X023540Y021315D01*
X023505Y021317D01*
X023470Y021323D01*
X023436Y021333D01*
X023403Y021346D01*
X023372Y021363D01*
X023344Y021384D01*
X023317Y021407D01*
X023294Y021434D01*
X023273Y021462D01*
X023256Y021493D01*
X023243Y021526D01*
X023233Y021560D01*
X023227Y021595D01*
X023225Y021630D01*
X023225Y019858D02*
X023227Y019893D01*
X023233Y019928D01*
X023243Y019962D01*
X023256Y019995D01*
X023273Y020026D01*
X023294Y020054D01*
X023317Y020081D01*
X023344Y020104D01*
X023372Y020125D01*
X023403Y020142D01*
X023436Y020155D01*
X023470Y020165D01*
X023505Y020171D01*
X023540Y020173D01*
X023575Y020171D01*
X023610Y020165D01*
X023644Y020155D01*
X023677Y020142D01*
X023708Y020125D01*
X023736Y020104D01*
X023763Y020081D01*
X023786Y020054D01*
X023807Y020026D01*
X023824Y019995D01*
X023837Y019962D01*
X023847Y019928D01*
X023853Y019893D01*
X023855Y019858D01*
X023853Y019823D01*
X023847Y019788D01*
X023837Y019754D01*
X023824Y019721D01*
X023807Y019690D01*
X023786Y019662D01*
X023763Y019635D01*
X023736Y019612D01*
X023708Y019591D01*
X023677Y019574D01*
X023644Y019561D01*
X023610Y019551D01*
X023575Y019545D01*
X023540Y019543D01*
X023505Y019545D01*
X023470Y019551D01*
X023436Y019561D01*
X023403Y019574D01*
X023372Y019591D01*
X023344Y019612D01*
X023317Y019635D01*
X023294Y019662D01*
X023273Y019690D01*
X023256Y019721D01*
X023243Y019754D01*
X023233Y019788D01*
X023227Y019823D01*
X023225Y019858D01*
D117*
X023343Y019070D02*
X022654Y019070D01*
X022654Y018677D01*
X024426Y018677D01*
X024426Y019070D01*
X023737Y019070D01*
X023737Y021826D01*
X023343Y021826D01*
X023343Y019070D01*
X023737Y019070D01*
X024426Y018677D02*
X025016Y018677D01*
X025016Y023598D01*
X025312Y023598D01*
X025312Y017693D01*
X024131Y017693D01*
X024131Y018086D01*
X021768Y018086D01*
X021768Y023598D01*
X022064Y023598D01*
X022064Y018677D01*
X022654Y018677D01*
X019528Y021661D02*
X019528Y023411D01*
X019778Y023661D01*
X016278Y023661D01*
X016528Y023411D01*
X016528Y021661D01*
X016530Y021631D01*
X016535Y021601D01*
X016544Y021572D01*
X016557Y021545D01*
X016572Y021519D01*
X016591Y021495D01*
X016612Y021474D01*
X016636Y021455D01*
X016662Y021440D01*
X016689Y021427D01*
X016718Y021418D01*
X016748Y021413D01*
X016778Y021411D01*
X019278Y021411D01*
X019308Y021413D01*
X019338Y021418D01*
X019367Y021427D01*
X019394Y021440D01*
X019420Y021455D01*
X019444Y021474D01*
X019465Y021495D01*
X019484Y021519D01*
X019499Y021545D01*
X019512Y021572D01*
X019521Y021601D01*
X019526Y021631D01*
X019528Y021661D01*
X019278Y023411D02*
X016778Y023411D01*
X022064Y023598D02*
X025016Y023598D01*
D118*
X017903Y020633D02*
X017851Y020581D01*
X017799Y020581D01*
X017748Y020633D01*
X017748Y020892D01*
X017799Y020892D02*
X017696Y020892D01*
X017580Y020788D02*
X017477Y020892D01*
X017477Y020581D01*
X017580Y020581D02*
X017374Y020581D01*
M02*
