G75*
%MOIN*%
%OFA0B0*%
%FSLAX24Y24*%
%IPPOS*%
%LPD*%
%AMOC8*
5,1,8,0,0,1.08239X$1,22.5*
%
%ADD10C,0.0000*%
%ADD11R,0.0340X0.0840*%
%ADD12R,0.0840X0.0340*%
%ADD13C,0.0107*%
%ADD14R,0.0552X0.0946*%
%ADD15R,0.0552X0.0867*%
%ADD16R,0.0680X0.0330*%
%ADD17R,0.1080X0.1280*%
%ADD18R,0.1080X0.1330*%
%ADD19C,0.0120*%
%ADD20R,0.1064X0.1340*%
%ADD21R,0.1160X0.0930*%
%ADD22C,0.0190*%
%ADD23C,0.0240*%
%ADD24R,0.0300X0.0580*%
%ADD25R,0.0580X0.0300*%
%ADD26OC8,0.0820*%
%ADD27R,0.1380X0.0880*%
%ADD28C,0.1261*%
%ADD29R,0.1261X0.1261*%
%ADD30R,0.0320X0.0950*%
%ADD31R,0.1340X0.0946*%
%ADD32R,0.2049X0.1852*%
%ADD33R,0.1025X0.1025*%
%ADD34R,0.0552X0.0297*%
%ADD35C,0.0820*%
%ADD36R,0.0480X0.0530*%
%ADD37R,0.0580X0.0580*%
%ADD38C,0.0095*%
%ADD39C,0.0789*%
%ADD40R,0.0780X0.0880*%
D10*
X001579Y003519D02*
X001579Y020448D01*
X004728Y023597D01*
X021657Y023597D01*
X024807Y020448D01*
X024807Y003519D01*
X021657Y000369D01*
X004728Y000369D01*
X001579Y003519D01*
D11*
X014090Y002235D03*
X014484Y002235D03*
X014878Y002235D03*
X015272Y002235D03*
X015665Y002235D03*
X016059Y002235D03*
X016453Y002235D03*
X016846Y002235D03*
X017240Y002235D03*
X017634Y002235D03*
X018027Y002235D03*
X018421Y002235D03*
X018815Y002235D03*
X019209Y002235D03*
X019602Y002235D03*
X019996Y002235D03*
X020390Y002235D03*
X020390Y011684D03*
X019996Y011684D03*
X019602Y011684D03*
X019209Y011684D03*
X018815Y011684D03*
X018421Y011684D03*
X018027Y011684D03*
X017634Y011684D03*
X017240Y011684D03*
X016846Y011684D03*
X016453Y011684D03*
X016059Y011684D03*
X015665Y011684D03*
X015272Y011684D03*
X014878Y011684D03*
X014484Y011684D03*
X014090Y011684D03*
D12*
X012516Y010109D03*
X012516Y009715D03*
X012516Y009322D03*
X012516Y008928D03*
X012516Y008534D03*
X012516Y008141D03*
X012516Y007747D03*
X012516Y007353D03*
X012516Y006959D03*
X012516Y006566D03*
X012516Y006172D03*
X012516Y005778D03*
X012516Y005385D03*
X012516Y004991D03*
X012516Y004597D03*
X012516Y004204D03*
X012516Y003810D03*
X021964Y003810D03*
X021964Y004204D03*
X021964Y004597D03*
X021964Y004991D03*
X021964Y005385D03*
X021964Y005778D03*
X021964Y006172D03*
X021964Y006566D03*
X021964Y006959D03*
X021964Y007353D03*
X021964Y007747D03*
X021964Y008141D03*
X021964Y008534D03*
X021964Y008928D03*
X021964Y009322D03*
X021964Y009715D03*
X021964Y010109D03*
D13*
X022843Y012846D02*
X022843Y013168D01*
X022843Y012846D02*
X022521Y012846D01*
X022521Y013168D01*
X022843Y013168D01*
X022843Y012953D02*
X022521Y012953D01*
X022521Y013060D02*
X022843Y013060D01*
X022843Y013167D02*
X022521Y013167D01*
X022843Y013446D02*
X022843Y013768D01*
X022843Y013446D02*
X022521Y013446D01*
X022521Y013768D01*
X022843Y013768D01*
X022843Y013553D02*
X022521Y013553D01*
X022521Y013660D02*
X022843Y013660D01*
X022843Y013767D02*
X022521Y013767D01*
X023455Y013768D02*
X023455Y013446D01*
X023133Y013446D01*
X023133Y013768D01*
X023455Y013768D01*
X023455Y013553D02*
X023133Y013553D01*
X023133Y013660D02*
X023455Y013660D01*
X023455Y013767D02*
X023133Y013767D01*
X023455Y013168D02*
X023455Y012846D01*
X023133Y012846D01*
X023133Y013168D01*
X023455Y013168D01*
X023455Y012953D02*
X023133Y012953D01*
X023133Y013060D02*
X023455Y013060D01*
X023455Y013167D02*
X023133Y013167D01*
X019091Y014242D02*
X019091Y014564D01*
X019091Y014242D02*
X018769Y014242D01*
X018769Y014564D01*
X019091Y014564D01*
X019091Y014349D02*
X018769Y014349D01*
X018769Y014456D02*
X019091Y014456D01*
X019091Y014563D02*
X018769Y014563D01*
X019091Y014842D02*
X019091Y015164D01*
X019091Y014842D02*
X018769Y014842D01*
X018769Y015164D01*
X019091Y015164D01*
X019091Y014949D02*
X018769Y014949D01*
X018769Y015056D02*
X019091Y015056D01*
X019091Y015163D02*
X018769Y015163D01*
X016845Y015177D02*
X016845Y014855D01*
X016845Y015177D02*
X017167Y015177D01*
X017167Y014855D01*
X016845Y014855D01*
X016845Y014962D02*
X017167Y014962D01*
X017167Y015069D02*
X016845Y015069D01*
X016845Y015176D02*
X017167Y015176D01*
X016845Y014577D02*
X016845Y014255D01*
X016845Y014577D02*
X017167Y014577D01*
X017167Y014255D01*
X016845Y014255D01*
X016845Y014362D02*
X017167Y014362D01*
X017167Y014469D02*
X016845Y014469D01*
X016845Y014576D02*
X017167Y014576D01*
X016490Y014580D02*
X016490Y014258D01*
X016168Y014258D01*
X016168Y014580D01*
X016490Y014580D01*
X016490Y014365D02*
X016168Y014365D01*
X016168Y014472D02*
X016490Y014472D01*
X016490Y014579D02*
X016168Y014579D01*
X016490Y014858D02*
X016490Y015180D01*
X016490Y014858D02*
X016168Y014858D01*
X016168Y015180D01*
X016490Y015180D01*
X016490Y014965D02*
X016168Y014965D01*
X016168Y015072D02*
X016490Y015072D01*
X016490Y015179D02*
X016168Y015179D01*
X011790Y015280D02*
X011468Y015280D01*
X011790Y015280D02*
X011790Y014958D01*
X011468Y014958D01*
X011468Y015280D01*
X011468Y015065D02*
X011790Y015065D01*
X011790Y015172D02*
X011468Y015172D01*
X011468Y015279D02*
X011790Y015279D01*
X011799Y015552D02*
X011477Y015552D01*
X011477Y015874D01*
X011799Y015874D01*
X011799Y015552D01*
X011799Y015659D02*
X011477Y015659D01*
X011477Y015766D02*
X011799Y015766D01*
X011799Y015873D02*
X011477Y015873D01*
X011199Y015552D02*
X010877Y015552D01*
X010877Y015874D01*
X011199Y015874D01*
X011199Y015552D01*
X011199Y015659D02*
X010877Y015659D01*
X010877Y015766D02*
X011199Y015766D01*
X011199Y015873D02*
X010877Y015873D01*
X010868Y016480D02*
X011190Y016480D01*
X011190Y016158D01*
X010868Y016158D01*
X010868Y016480D01*
X010868Y016265D02*
X011190Y016265D01*
X011190Y016372D02*
X010868Y016372D01*
X010868Y016479D02*
X011190Y016479D01*
X011468Y016480D02*
X011790Y016480D01*
X011790Y016158D01*
X011468Y016158D01*
X011468Y016480D01*
X011468Y016265D02*
X011790Y016265D01*
X011790Y016372D02*
X011468Y016372D01*
X011468Y016479D02*
X011790Y016479D01*
X011785Y017081D02*
X011463Y017081D01*
X011785Y017081D02*
X011785Y016759D01*
X011463Y016759D01*
X011463Y017081D01*
X011463Y016866D02*
X011785Y016866D01*
X011785Y016973D02*
X011463Y016973D01*
X011463Y017080D02*
X011785Y017080D01*
X011185Y017081D02*
X010863Y017081D01*
X011185Y017081D02*
X011185Y016759D01*
X010863Y016759D01*
X010863Y017081D01*
X010863Y016866D02*
X011185Y016866D01*
X011185Y016973D02*
X010863Y016973D01*
X010863Y017080D02*
X011185Y017080D01*
X010888Y017710D02*
X010566Y017710D01*
X010888Y017710D02*
X010888Y017388D01*
X010566Y017388D01*
X010566Y017710D01*
X010566Y017495D02*
X010888Y017495D01*
X010888Y017602D02*
X010566Y017602D01*
X010566Y017709D02*
X010888Y017709D01*
X010288Y017710D02*
X009966Y017710D01*
X010288Y017710D02*
X010288Y017388D01*
X009966Y017388D01*
X009966Y017710D01*
X009966Y017495D02*
X010288Y017495D01*
X010288Y017602D02*
X009966Y017602D01*
X009966Y017709D02*
X010288Y017709D01*
X009268Y017730D02*
X009268Y017408D01*
X009268Y017730D02*
X009590Y017730D01*
X009590Y017408D01*
X009268Y017408D01*
X009268Y017515D02*
X009590Y017515D01*
X009590Y017622D02*
X009268Y017622D01*
X009268Y017729D02*
X009590Y017729D01*
X009268Y018008D02*
X009268Y018330D01*
X009590Y018330D01*
X009590Y018008D01*
X009268Y018008D01*
X009268Y018115D02*
X009590Y018115D01*
X009590Y018222D02*
X009268Y018222D01*
X009268Y018329D02*
X009590Y018329D01*
X008618Y018330D02*
X008618Y018008D01*
X008618Y018330D02*
X008940Y018330D01*
X008940Y018008D01*
X008618Y018008D01*
X008618Y018115D02*
X008940Y018115D01*
X008940Y018222D02*
X008618Y018222D01*
X008618Y018329D02*
X008940Y018329D01*
X007968Y018330D02*
X007968Y018008D01*
X007968Y018330D02*
X008290Y018330D01*
X008290Y018008D01*
X007968Y018008D01*
X007968Y018115D02*
X008290Y018115D01*
X008290Y018222D02*
X007968Y018222D01*
X007968Y018329D02*
X008290Y018329D01*
X007968Y017730D02*
X007968Y017408D01*
X007968Y017730D02*
X008290Y017730D01*
X008290Y017408D01*
X007968Y017408D01*
X007968Y017515D02*
X008290Y017515D01*
X008290Y017622D02*
X007968Y017622D01*
X007968Y017729D02*
X008290Y017729D01*
X008618Y017730D02*
X008618Y017408D01*
X008618Y017730D02*
X008940Y017730D01*
X008940Y017408D01*
X008618Y017408D01*
X008618Y017515D02*
X008940Y017515D01*
X008940Y017622D02*
X008618Y017622D01*
X008618Y017729D02*
X008940Y017729D01*
X007340Y017358D02*
X007018Y017358D01*
X007018Y017680D01*
X007340Y017680D01*
X007340Y017358D01*
X007340Y017465D02*
X007018Y017465D01*
X007018Y017572D02*
X007340Y017572D01*
X007340Y017679D02*
X007018Y017679D01*
X006740Y017358D02*
X006418Y017358D01*
X006418Y017680D01*
X006740Y017680D01*
X006740Y017358D01*
X006740Y017465D02*
X006418Y017465D01*
X006418Y017572D02*
X006740Y017572D01*
X006740Y017679D02*
X006418Y017679D01*
X006140Y017680D02*
X005818Y017680D01*
X006140Y017680D02*
X006140Y017358D01*
X005818Y017358D01*
X005818Y017680D01*
X005818Y017465D02*
X006140Y017465D01*
X006140Y017572D02*
X005818Y017572D01*
X005818Y017679D02*
X006140Y017679D01*
X005540Y017680D02*
X005218Y017680D01*
X005540Y017680D02*
X005540Y017358D01*
X005218Y017358D01*
X005218Y017680D01*
X005218Y017465D02*
X005540Y017465D01*
X005540Y017572D02*
X005218Y017572D01*
X005218Y017679D02*
X005540Y017679D01*
X004335Y017700D02*
X004013Y017700D01*
X004013Y018022D01*
X004335Y018022D01*
X004335Y017700D01*
X004335Y017807D02*
X004013Y017807D01*
X004013Y017914D02*
X004335Y017914D01*
X004335Y018021D02*
X004013Y018021D01*
X003735Y017700D02*
X003413Y017700D01*
X003413Y018022D01*
X003735Y018022D01*
X003735Y017700D01*
X003735Y017807D02*
X003413Y017807D01*
X003413Y017914D02*
X003735Y017914D01*
X003735Y018021D02*
X003413Y018021D01*
X003418Y018308D02*
X003740Y018308D01*
X003418Y018308D02*
X003418Y018630D01*
X003740Y018630D01*
X003740Y018308D01*
X003740Y018415D02*
X003418Y018415D01*
X003418Y018522D02*
X003740Y018522D01*
X003740Y018629D02*
X003418Y018629D01*
X003415Y019202D02*
X003737Y019202D01*
X003737Y018880D01*
X003415Y018880D01*
X003415Y019202D01*
X003415Y018987D02*
X003737Y018987D01*
X003737Y019094D02*
X003415Y019094D01*
X003415Y019201D02*
X003737Y019201D01*
X004015Y019202D02*
X004337Y019202D01*
X004337Y018880D01*
X004015Y018880D01*
X004015Y019202D01*
X004015Y018987D02*
X004337Y018987D01*
X004337Y019094D02*
X004015Y019094D01*
X004015Y019201D02*
X004337Y019201D01*
X004340Y018308D02*
X004018Y018308D01*
X004018Y018630D01*
X004340Y018630D01*
X004340Y018308D01*
X004340Y018415D02*
X004018Y018415D01*
X004018Y018522D02*
X004340Y018522D01*
X004340Y018629D02*
X004018Y018629D01*
X003090Y018308D02*
X002768Y018308D01*
X002768Y018630D01*
X003090Y018630D01*
X003090Y018308D01*
X003090Y018415D02*
X002768Y018415D01*
X002768Y018522D02*
X003090Y018522D01*
X003090Y018629D02*
X002768Y018629D01*
X002762Y019202D02*
X003084Y019202D01*
X003084Y018880D01*
X002762Y018880D01*
X002762Y019202D01*
X002762Y018987D02*
X003084Y018987D01*
X003084Y019094D02*
X002762Y019094D01*
X002762Y019201D02*
X003084Y019201D01*
X002484Y019202D02*
X002162Y019202D01*
X002484Y019202D02*
X002484Y018880D01*
X002162Y018880D01*
X002162Y019202D01*
X002162Y018987D02*
X002484Y018987D01*
X002484Y019094D02*
X002162Y019094D01*
X002162Y019201D02*
X002484Y019201D01*
X002490Y018308D02*
X002168Y018308D01*
X002168Y018630D01*
X002490Y018630D01*
X002490Y018308D01*
X002490Y018415D02*
X002168Y018415D01*
X002168Y018522D02*
X002490Y018522D01*
X002490Y018629D02*
X002168Y018629D01*
X002168Y018030D02*
X002490Y018030D01*
X002490Y017708D01*
X002168Y017708D01*
X002168Y018030D01*
X002168Y017815D02*
X002490Y017815D01*
X002490Y017922D02*
X002168Y017922D01*
X002168Y018029D02*
X002490Y018029D01*
X002768Y018030D02*
X003090Y018030D01*
X003090Y017708D01*
X002768Y017708D01*
X002768Y018030D01*
X002768Y017815D02*
X003090Y017815D01*
X003090Y017922D02*
X002768Y017922D01*
X002768Y018029D02*
X003090Y018029D01*
X006436Y019821D02*
X006758Y019821D01*
X006758Y019499D01*
X006436Y019499D01*
X006436Y019821D01*
X006436Y019606D02*
X006758Y019606D01*
X006758Y019713D02*
X006436Y019713D01*
X006436Y019820D02*
X006758Y019820D01*
X007036Y019821D02*
X007358Y019821D01*
X007358Y019499D01*
X007036Y019499D01*
X007036Y019821D01*
X007036Y019606D02*
X007358Y019606D01*
X007358Y019713D02*
X007036Y019713D01*
X007036Y019820D02*
X007358Y019820D01*
X007358Y020609D02*
X007036Y020609D01*
X007358Y020609D02*
X007358Y020287D01*
X007036Y020287D01*
X007036Y020609D01*
X007036Y020394D02*
X007358Y020394D01*
X007358Y020501D02*
X007036Y020501D01*
X007036Y020608D02*
X007358Y020608D01*
X007358Y021396D02*
X007036Y021396D01*
X007358Y021396D02*
X007358Y021074D01*
X007036Y021074D01*
X007036Y021396D01*
X007036Y021181D02*
X007358Y021181D01*
X007358Y021288D02*
X007036Y021288D01*
X007036Y021395D02*
X007358Y021395D01*
X007358Y021861D02*
X007036Y021861D01*
X007036Y022183D01*
X007358Y022183D01*
X007358Y021861D01*
X007358Y021968D02*
X007036Y021968D01*
X007036Y022075D02*
X007358Y022075D01*
X007358Y022182D02*
X007036Y022182D01*
X006758Y021861D02*
X006436Y021861D01*
X006436Y022183D01*
X006758Y022183D01*
X006758Y021861D01*
X006758Y021968D02*
X006436Y021968D01*
X006436Y022075D02*
X006758Y022075D01*
X006758Y022182D02*
X006436Y022182D01*
X006436Y022649D02*
X006758Y022649D01*
X006436Y022649D02*
X006436Y022971D01*
X006758Y022971D01*
X006758Y022649D01*
X006758Y022756D02*
X006436Y022756D01*
X006436Y022863D02*
X006758Y022863D01*
X006758Y022970D02*
X006436Y022970D01*
X007036Y022649D02*
X007358Y022649D01*
X007036Y022649D02*
X007036Y022971D01*
X007358Y022971D01*
X007358Y022649D01*
X007358Y022756D02*
X007036Y022756D01*
X007036Y022863D02*
X007358Y022863D01*
X007358Y022970D02*
X007036Y022970D01*
X006758Y021396D02*
X006436Y021396D01*
X006758Y021396D02*
X006758Y021074D01*
X006436Y021074D01*
X006436Y021396D01*
X006436Y021181D02*
X006758Y021181D01*
X006758Y021288D02*
X006436Y021288D01*
X006436Y021395D02*
X006758Y021395D01*
X006758Y020609D02*
X006436Y020609D01*
X006758Y020609D02*
X006758Y020287D01*
X006436Y020287D01*
X006436Y020609D01*
X006436Y020394D02*
X006758Y020394D01*
X006758Y020501D02*
X006436Y020501D01*
X006436Y020608D02*
X006758Y020608D01*
X010868Y015280D02*
X011190Y015280D01*
X011190Y014958D01*
X010868Y014958D01*
X010868Y015280D01*
X010868Y015065D02*
X011190Y015065D01*
X011190Y015172D02*
X010868Y015172D01*
X010868Y015279D02*
X011190Y015279D01*
X011195Y014673D02*
X010873Y014673D01*
X011195Y014673D02*
X011195Y014351D01*
X010873Y014351D01*
X010873Y014673D01*
X010873Y014458D02*
X011195Y014458D01*
X011195Y014565D02*
X010873Y014565D01*
X010873Y014672D02*
X011195Y014672D01*
X011473Y014673D02*
X011795Y014673D01*
X011795Y014351D01*
X011473Y014351D01*
X011473Y014673D01*
X011473Y014458D02*
X011795Y014458D01*
X011795Y014565D02*
X011473Y014565D01*
X011473Y014672D02*
X011795Y014672D01*
X011795Y013757D02*
X011473Y013757D01*
X011473Y014079D01*
X011795Y014079D01*
X011795Y013757D01*
X011795Y013864D02*
X011473Y013864D01*
X011473Y013971D02*
X011795Y013971D01*
X011795Y014078D02*
X011473Y014078D01*
X011195Y013757D02*
X010873Y013757D01*
X010873Y014079D01*
X011195Y014079D01*
X011195Y013757D01*
X011195Y013864D02*
X010873Y013864D01*
X010873Y013971D02*
X011195Y013971D01*
X011195Y014078D02*
X010873Y014078D01*
X010968Y011758D02*
X011290Y011758D01*
X010968Y011758D02*
X010968Y012080D01*
X011290Y012080D01*
X011290Y011758D01*
X011290Y011865D02*
X010968Y011865D01*
X010968Y011972D02*
X011290Y011972D01*
X011290Y012079D02*
X010968Y012079D01*
X011568Y011758D02*
X011890Y011758D01*
X011568Y011758D02*
X011568Y012080D01*
X011890Y012080D01*
X011890Y011758D01*
X011890Y011865D02*
X011568Y011865D01*
X011568Y011972D02*
X011890Y011972D01*
X011890Y012079D02*
X011568Y012079D01*
X011599Y010668D02*
X011921Y010668D01*
X011921Y010346D01*
X011599Y010346D01*
X011599Y010668D01*
X011599Y010453D02*
X011921Y010453D01*
X011921Y010560D02*
X011599Y010560D01*
X011599Y010667D02*
X011921Y010667D01*
X011321Y010668D02*
X010999Y010668D01*
X011321Y010668D02*
X011321Y010346D01*
X010999Y010346D01*
X010999Y010668D01*
X010999Y010453D02*
X011321Y010453D01*
X011321Y010560D02*
X010999Y010560D01*
X010999Y010667D02*
X011321Y010667D01*
X005968Y013258D02*
X005968Y013580D01*
X006290Y013580D01*
X006290Y013258D01*
X005968Y013258D01*
X005968Y013365D02*
X006290Y013365D01*
X006290Y013472D02*
X005968Y013472D01*
X005968Y013579D02*
X006290Y013579D01*
X005968Y013858D02*
X005968Y014180D01*
X006290Y014180D01*
X006290Y013858D01*
X005968Y013858D01*
X005968Y013965D02*
X006290Y013965D01*
X006290Y014072D02*
X005968Y014072D01*
X005968Y014179D02*
X006290Y014179D01*
X010842Y004927D02*
X011164Y004927D01*
X011164Y004605D01*
X010842Y004605D01*
X010842Y004927D01*
X010842Y004712D02*
X011164Y004712D01*
X011164Y004819D02*
X010842Y004819D01*
X010842Y004926D02*
X011164Y004926D01*
X011442Y004927D02*
X011764Y004927D01*
X011764Y004605D01*
X011442Y004605D01*
X011442Y004927D01*
X011442Y004712D02*
X011764Y004712D01*
X011764Y004819D02*
X011442Y004819D01*
X011442Y004926D02*
X011764Y004926D01*
X011757Y004024D02*
X011435Y004024D01*
X011435Y004346D01*
X011757Y004346D01*
X011757Y004024D01*
X011757Y004131D02*
X011435Y004131D01*
X011435Y004238D02*
X011757Y004238D01*
X011757Y004345D02*
X011435Y004345D01*
X011157Y004024D02*
X010835Y004024D01*
X010835Y004346D01*
X011157Y004346D01*
X011157Y004024D01*
X011157Y004131D02*
X010835Y004131D01*
X010835Y004238D02*
X011157Y004238D01*
X011157Y004345D02*
X010835Y004345D01*
X010835Y003436D02*
X011157Y003436D01*
X010835Y003436D02*
X010835Y003758D01*
X011157Y003758D01*
X011157Y003436D01*
X011157Y003543D02*
X010835Y003543D01*
X010835Y003650D02*
X011157Y003650D01*
X011157Y003757D02*
X010835Y003757D01*
X010829Y002835D02*
X011151Y002835D01*
X010829Y002835D02*
X010829Y003157D01*
X011151Y003157D01*
X011151Y002835D01*
X011151Y002942D02*
X010829Y002942D01*
X010829Y003049D02*
X011151Y003049D01*
X011151Y003156D02*
X010829Y003156D01*
X011429Y002835D02*
X011751Y002835D01*
X011429Y002835D02*
X011429Y003157D01*
X011751Y003157D01*
X011751Y002835D01*
X011751Y002942D02*
X011429Y002942D01*
X011429Y003049D02*
X011751Y003049D01*
X011751Y003156D02*
X011429Y003156D01*
X011435Y003436D02*
X011757Y003436D01*
X011435Y003436D02*
X011435Y003758D01*
X011757Y003758D01*
X011757Y003436D01*
X011757Y003543D02*
X011435Y003543D01*
X011435Y003650D02*
X011757Y003650D01*
X011757Y003757D02*
X011435Y003757D01*
X023640Y004358D02*
X023640Y004680D01*
X023640Y004358D02*
X023318Y004358D01*
X023318Y004680D01*
X023640Y004680D01*
X023640Y004465D02*
X023318Y004465D01*
X023318Y004572D02*
X023640Y004572D01*
X023640Y004679D02*
X023318Y004679D01*
X023640Y004958D02*
X023640Y005280D01*
X023640Y004958D02*
X023318Y004958D01*
X023318Y005280D01*
X023640Y005280D01*
X023640Y005065D02*
X023318Y005065D01*
X023318Y005172D02*
X023640Y005172D01*
X023640Y005279D02*
X023318Y005279D01*
X024240Y005280D02*
X024240Y004958D01*
X023918Y004958D01*
X023918Y005280D01*
X024240Y005280D01*
X024240Y005065D02*
X023918Y005065D01*
X023918Y005172D02*
X024240Y005172D01*
X024240Y005279D02*
X023918Y005279D01*
X024240Y004680D02*
X024240Y004358D01*
X023918Y004358D01*
X023918Y004680D01*
X024240Y004680D01*
X024240Y004465D02*
X023918Y004465D01*
X023918Y004572D02*
X024240Y004572D01*
X024240Y004679D02*
X023918Y004679D01*
X023788Y018684D02*
X024110Y018684D01*
X023788Y018684D02*
X023788Y019006D01*
X024110Y019006D01*
X024110Y018684D01*
X024110Y018791D02*
X023788Y018791D01*
X023788Y018898D02*
X024110Y018898D01*
X024110Y019005D02*
X023788Y019005D01*
X023510Y018684D02*
X023188Y018684D01*
X023188Y019006D01*
X023510Y019006D01*
X023510Y018684D01*
X023510Y018791D02*
X023188Y018791D01*
X023188Y018898D02*
X023510Y018898D01*
X023510Y019005D02*
X023188Y019005D01*
X023196Y019296D02*
X023518Y019296D01*
X023196Y019296D02*
X023196Y019618D01*
X023518Y019618D01*
X023518Y019296D01*
X023518Y019403D02*
X023196Y019403D01*
X023196Y019510D02*
X023518Y019510D01*
X023518Y019617D02*
X023196Y019617D01*
X023796Y019296D02*
X024118Y019296D01*
X023796Y019296D02*
X023796Y019618D01*
X024118Y019618D01*
X024118Y019296D01*
X024118Y019403D02*
X023796Y019403D01*
X023796Y019510D02*
X024118Y019510D01*
X024118Y019617D02*
X023796Y019617D01*
X021998Y021300D02*
X021676Y021300D01*
X021998Y021300D02*
X021998Y020978D01*
X021676Y020978D01*
X021676Y021300D01*
X021676Y021085D02*
X021998Y021085D01*
X021998Y021192D02*
X021676Y021192D01*
X021676Y021299D02*
X021998Y021299D01*
X021398Y021300D02*
X021076Y021300D01*
X021398Y021300D02*
X021398Y020978D01*
X021076Y020978D01*
X021076Y021300D01*
X021076Y021085D02*
X021398Y021085D01*
X021398Y021192D02*
X021076Y021192D01*
X021076Y021299D02*
X021398Y021299D01*
X019888Y020020D02*
X019888Y019698D01*
X019566Y019698D01*
X019566Y020020D01*
X019888Y020020D01*
X019888Y019805D02*
X019566Y019805D01*
X019566Y019912D02*
X019888Y019912D01*
X019888Y020019D02*
X019566Y020019D01*
X019888Y019420D02*
X019888Y019098D01*
X019566Y019098D01*
X019566Y019420D01*
X019888Y019420D01*
X019888Y019205D02*
X019566Y019205D01*
X019566Y019312D02*
X019888Y019312D01*
X019888Y019419D02*
X019566Y019419D01*
D14*
X008472Y001535D03*
X007449Y001519D03*
X006484Y001535D03*
D15*
X006516Y011476D03*
X007476Y011484D03*
X008405Y011484D03*
D16*
X020514Y018919D03*
X020514Y019419D03*
X020514Y019919D03*
X020514Y020419D03*
X022614Y020419D03*
X022614Y019919D03*
X022614Y019419D03*
X022614Y018919D03*
D17*
X023848Y014917D03*
D18*
X021348Y014917D03*
D19*
X024287Y013787D02*
X024287Y013427D01*
X023777Y013427D01*
X023777Y013787D01*
X024287Y013787D01*
X024287Y013546D02*
X023777Y013546D01*
X023777Y013665D02*
X024287Y013665D01*
X024287Y013784D02*
X023777Y013784D01*
X024287Y013087D02*
X024287Y012727D01*
X023777Y012727D01*
X023777Y013087D01*
X024287Y013087D01*
X024287Y012846D02*
X023777Y012846D01*
X023777Y012965D02*
X024287Y012965D01*
X024287Y013084D02*
X023777Y013084D01*
X020312Y020856D02*
X019952Y020856D01*
X019952Y021366D01*
X020312Y021366D01*
X020312Y020856D01*
X020312Y020975D02*
X019952Y020975D01*
X019952Y021094D02*
X020312Y021094D01*
X020312Y021213D02*
X019952Y021213D01*
X019952Y021332D02*
X020312Y021332D01*
X019612Y020856D02*
X019252Y020856D01*
X019252Y021366D01*
X019612Y021366D01*
X019612Y020856D01*
X019612Y020975D02*
X019252Y020975D01*
X019252Y021094D02*
X019612Y021094D01*
X019612Y021213D02*
X019252Y021213D01*
X019252Y021332D02*
X019612Y021332D01*
X011962Y010048D02*
X011602Y010048D01*
X011962Y010048D02*
X011962Y009538D01*
X011602Y009538D01*
X011602Y010048D01*
X011602Y009657D02*
X011962Y009657D01*
X011962Y009776D02*
X011602Y009776D01*
X011602Y009895D02*
X011962Y009895D01*
X011962Y010014D02*
X011602Y010014D01*
X011262Y010048D02*
X010902Y010048D01*
X011262Y010048D02*
X011262Y009538D01*
X010902Y009538D01*
X010902Y010048D01*
X010902Y009657D02*
X011262Y009657D01*
X011262Y009776D02*
X010902Y009776D01*
X010902Y009895D02*
X011262Y009895D01*
X011262Y010014D02*
X010902Y010014D01*
X023034Y005299D02*
X023034Y004939D01*
X022524Y004939D01*
X022524Y005299D01*
X023034Y005299D01*
X023034Y005058D02*
X022524Y005058D01*
X022524Y005177D02*
X023034Y005177D01*
X023034Y005296D02*
X022524Y005296D01*
X023034Y004599D02*
X023034Y004239D01*
X022524Y004239D01*
X022524Y004599D01*
X023034Y004599D01*
X023034Y004358D02*
X022524Y004358D01*
X022524Y004477D02*
X023034Y004477D01*
X023034Y004596D02*
X022524Y004596D01*
D20*
X021609Y017166D03*
X023853Y017166D03*
D21*
X019916Y017726D03*
X019916Y015985D03*
D22*
X022951Y007414D02*
X023741Y007414D01*
X022951Y007414D02*
X022951Y007604D01*
X023741Y007604D01*
X023741Y007414D01*
X023741Y007603D02*
X022951Y007603D01*
X022951Y006314D02*
X023741Y006314D01*
X022951Y006314D02*
X022951Y006504D01*
X023741Y006504D01*
X023741Y006314D01*
X023741Y006503D02*
X022951Y006503D01*
D23*
X022866Y007079D02*
X022626Y007079D01*
X022866Y007079D02*
X022866Y006839D01*
X022626Y006839D01*
X022626Y007079D01*
X022626Y007078D02*
X022866Y007078D01*
X023826Y007079D02*
X024066Y007079D01*
X024066Y006839D01*
X023826Y006839D01*
X023826Y007079D01*
X023826Y007078D02*
X024066Y007078D01*
D24*
X009672Y013539D03*
X009357Y013539D03*
X009042Y013539D03*
X008727Y013539D03*
X008412Y013539D03*
X008097Y013539D03*
X007783Y013539D03*
X007468Y013539D03*
X007468Y016919D03*
X007783Y016919D03*
X008097Y016919D03*
X008412Y016919D03*
X008727Y016919D03*
X009042Y016919D03*
X009357Y016919D03*
X009672Y016919D03*
D25*
X010260Y016331D03*
X010260Y016016D03*
X010260Y015701D03*
X010260Y015386D03*
X010260Y015071D03*
X010260Y014756D03*
X010260Y014441D03*
X010260Y014126D03*
X006880Y014126D03*
X006880Y014441D03*
X006880Y014756D03*
X006880Y015071D03*
X006880Y015386D03*
X006880Y015701D03*
X006880Y016016D03*
X006880Y016331D03*
D26*
X004413Y015671D03*
X003413Y015671D03*
X003313Y014671D03*
X004313Y014671D03*
X004313Y016671D03*
X003313Y016671D03*
D27*
X015111Y016250D03*
X015111Y018750D03*
D28*
X013394Y022506D03*
X008861Y022506D03*
D29*
X009031Y020026D03*
X008638Y020026D03*
X017325Y020026D03*
X017719Y020026D03*
D30*
X016914Y018100D03*
D31*
X017901Y018093D03*
D32*
X017664Y016479D03*
D33*
X016736Y022369D03*
X015004Y022369D03*
X018721Y022371D03*
X020453Y022371D03*
D34*
X012163Y013263D03*
X012163Y012515D03*
X011140Y012515D03*
X011140Y012889D03*
X011140Y013263D03*
D35*
X002702Y011944D03*
X002602Y010944D03*
X002702Y009944D03*
X002602Y008944D03*
X002702Y007944D03*
X002602Y006944D03*
D36*
X010079Y018119D03*
X010779Y018119D03*
X010429Y018919D03*
X004229Y019669D03*
X003529Y019669D03*
X002979Y019669D03*
X002279Y019669D03*
X002629Y020469D03*
X003879Y020469D03*
X017579Y014319D03*
X018279Y014319D03*
X017929Y015119D03*
D37*
X011229Y007969D03*
X011229Y006969D03*
X005429Y013319D03*
X005429Y014319D03*
D38*
X005486Y019492D02*
X005772Y019492D01*
X005486Y019492D02*
X005486Y019828D01*
X005772Y019828D01*
X005772Y019492D01*
X005772Y019586D02*
X005486Y019586D01*
X005486Y019680D02*
X005772Y019680D01*
X005772Y019774D02*
X005486Y019774D01*
X005172Y019492D02*
X004886Y019492D01*
X004886Y019828D01*
X005172Y019828D01*
X005172Y019492D01*
X005172Y019586D02*
X004886Y019586D01*
X004886Y019680D02*
X005172Y019680D01*
X005172Y019774D02*
X004886Y019774D01*
X004886Y020280D02*
X005172Y020280D01*
X004886Y020280D02*
X004886Y020616D01*
X005172Y020616D01*
X005172Y020280D01*
X005172Y020374D02*
X004886Y020374D01*
X004886Y020468D02*
X005172Y020468D01*
X005172Y020562D02*
X004886Y020562D01*
X004886Y021067D02*
X005172Y021067D01*
X004886Y021067D02*
X004886Y021403D01*
X005172Y021403D01*
X005172Y021067D01*
X005172Y021161D02*
X004886Y021161D01*
X004886Y021255D02*
X005172Y021255D01*
X005172Y021349D02*
X004886Y021349D01*
X004886Y021854D02*
X005172Y021854D01*
X004886Y021854D02*
X004886Y022190D01*
X005172Y022190D01*
X005172Y021854D01*
X005172Y021948D02*
X004886Y021948D01*
X004886Y022042D02*
X005172Y022042D01*
X005172Y022136D02*
X004886Y022136D01*
X004886Y022642D02*
X005172Y022642D01*
X004886Y022642D02*
X004886Y022978D01*
X005172Y022978D01*
X005172Y022642D01*
X005172Y022736D02*
X004886Y022736D01*
X004886Y022830D02*
X005172Y022830D01*
X005172Y022924D02*
X004886Y022924D01*
X005486Y022642D02*
X005772Y022642D01*
X005486Y022642D02*
X005486Y022978D01*
X005772Y022978D01*
X005772Y022642D01*
X005772Y022736D02*
X005486Y022736D01*
X005486Y022830D02*
X005772Y022830D01*
X005772Y022924D02*
X005486Y022924D01*
X005486Y021854D02*
X005772Y021854D01*
X005486Y021854D02*
X005486Y022190D01*
X005772Y022190D01*
X005772Y021854D01*
X005772Y021948D02*
X005486Y021948D01*
X005486Y022042D02*
X005772Y022042D01*
X005772Y022136D02*
X005486Y022136D01*
X005486Y021067D02*
X005772Y021067D01*
X005486Y021067D02*
X005486Y021403D01*
X005772Y021403D01*
X005772Y021067D01*
X005772Y021161D02*
X005486Y021161D01*
X005486Y021255D02*
X005772Y021255D01*
X005772Y021349D02*
X005486Y021349D01*
X005486Y020280D02*
X005772Y020280D01*
X005486Y020280D02*
X005486Y020616D01*
X005772Y020616D01*
X005772Y020280D01*
X005772Y020374D02*
X005486Y020374D01*
X005486Y020468D02*
X005772Y020468D01*
X005772Y020562D02*
X005486Y020562D01*
D39*
X012829Y020869D03*
X014813Y020869D03*
D40*
X007129Y018519D03*
X005429Y018519D03*
M02*
