G75*
%MOIN*%
%OFA0B0*%
%FSLAX24Y24*%
%IPPOS*%
%LPD*%
%AMOC8*
5,1,8,0,0,1.08239X$1,22.5*
%
%ADD10C,0.0000*%
%ADD11R,0.0296X0.0006*%
%ADD12R,0.0038X0.0006*%
%ADD13R,0.0088X0.0006*%
%ADD14R,0.0252X0.0006*%
%ADD15R,0.0113X0.0006*%
%ADD16R,0.0214X0.0006*%
%ADD17R,0.0132X0.0006*%
%ADD18R,0.0183X0.0006*%
%ADD19R,0.0145X0.0006*%
%ADD20R,0.0164X0.0006*%
%ADD21R,0.0157X0.0006*%
%ADD22R,0.0151X0.0006*%
%ADD23R,0.0170X0.0006*%
%ADD24R,0.0176X0.0006*%
%ADD25R,0.0120X0.0006*%
%ADD26R,0.0094X0.0006*%
%ADD27R,0.0031X0.0006*%
%ADD28R,0.0069X0.0006*%
%ADD29R,0.0107X0.0006*%
%ADD30R,0.0025X0.0006*%
%ADD31R,0.0019X0.0006*%
%ADD32R,0.0101X0.0006*%
%ADD33R,0.0063X0.0006*%
%ADD34R,0.0057X0.0006*%
%ADD35R,0.0139X0.0006*%
%ADD36R,0.0302X0.0006*%
%ADD37R,0.0208X0.0006*%
%ADD38R,0.0006X0.0006*%
%ADD39R,0.0050X0.0006*%
%ADD40R,0.0202X0.0006*%
%ADD41R,0.0246X0.0006*%
%ADD42R,0.0013X0.0006*%
%ADD43R,0.0220X0.0006*%
%ADD44R,0.0044X0.0006*%
%ADD45R,0.0271X0.0006*%
%ADD46R,0.0321X0.0006*%
%ADD47R,0.0126X0.0006*%
%ADD48R,0.0082X0.0006*%
%ADD49R,0.0076X0.0006*%
%ADD50R,0.0189X0.0006*%
%ADD51R,0.0195X0.0006*%
%ADD52R,0.0510X0.0006*%
%ADD53R,0.0504X0.0006*%
%ADD54R,0.0346X0.0006*%
%ADD55R,0.0328X0.0006*%
%ADD56R,0.0265X0.0006*%
%ADD57R,0.0315X0.0006*%
%ADD58R,0.0894X0.0006*%
%ADD59R,0.1159X0.0006*%
%ADD60R,0.1808X0.0006*%
%ADD61R,0.3250X0.0006*%
%ADD62R,0.1814X0.0006*%
%ADD63R,0.5254X0.0006*%
%ADD64R,0.5247X0.0006*%
%ADD65R,0.5241X0.0006*%
%ADD66R,0.5235X0.0006*%
%ADD67R,0.5228X0.0006*%
%ADD68R,0.5222X0.0006*%
%ADD69R,0.5216X0.0006*%
%ADD70R,0.5209X0.0006*%
%ADD71R,0.5203X0.0006*%
%ADD72R,0.5197X0.0006*%
%ADD73R,0.5191X0.0006*%
%ADD74R,0.5184X0.0006*%
%ADD75R,0.5178X0.0006*%
%ADD76R,0.5172X0.0006*%
%ADD77R,0.5165X0.0006*%
%ADD78R,0.5159X0.0006*%
%ADD79R,0.5153X0.0006*%
%ADD80R,0.5146X0.0006*%
%ADD81R,0.5140X0.0006*%
%ADD82R,0.5134X0.0006*%
%ADD83R,0.5128X0.0006*%
%ADD84R,0.5121X0.0006*%
%ADD85R,0.5115X0.0006*%
%ADD86R,0.5109X0.0006*%
%ADD87R,0.5102X0.0006*%
%ADD88R,0.5096X0.0006*%
%ADD89R,0.5090X0.0006*%
%ADD90R,0.5083X0.0006*%
%ADD91R,0.5077X0.0006*%
%ADD92R,0.5071X0.0006*%
%ADD93R,0.5065X0.0006*%
%ADD94R,0.5058X0.0006*%
%ADD95R,0.5052X0.0006*%
%ADD96R,0.1606X0.0006*%
%ADD97R,0.1587X0.0006*%
%ADD98R,0.1581X0.0006*%
%ADD99R,0.1575X0.0006*%
%ADD100R,0.1569X0.0006*%
%ADD101R,0.1556X0.0006*%
%ADD102R,0.1550X0.0006*%
%ADD103R,0.1537X0.0006*%
%ADD104R,0.1531X0.0006*%
%ADD105R,0.1518X0.0006*%
%ADD106R,0.1506X0.0006*%
%ADD107R,0.1493X0.0006*%
%ADD108R,0.1480X0.0006*%
%ADD109R,0.1468X0.0006*%
%ADD110R,0.1455X0.0006*%
%ADD111R,0.1443X0.0006*%
%ADD112R,0.1424X0.0006*%
%ADD113R,0.1405X0.0006*%
%ADD114R,0.1386X0.0006*%
%ADD115R,0.1361X0.0006*%
%ADD116R,0.1329X0.0006*%
%ADD117R,0.1291X0.0006*%
%ADD118R,0.4542X0.0006*%
%ADD119R,0.6545X0.0006*%
%ADD120R,0.0888X0.0006*%
%ADD121R,0.6539X0.0006*%
%ADD122R,0.6532X0.0006*%
%ADD123R,0.6526X0.0006*%
%ADD124R,0.6520X0.0006*%
%ADD125R,0.6513X0.0006*%
%ADD126R,0.6507X0.0006*%
%ADD127R,0.6501X0.0006*%
%ADD128R,0.6494X0.0006*%
%ADD129R,0.6488X0.0006*%
%ADD130R,0.6482X0.0006*%
%ADD131R,0.6476X0.0006*%
%ADD132R,0.6469X0.0006*%
%ADD133R,0.6463X0.0006*%
%ADD134R,0.6457X0.0006*%
%ADD135R,0.6450X0.0006*%
%ADD136R,0.6444X0.0006*%
%ADD137R,0.6438X0.0006*%
%ADD138R,0.6431X0.0006*%
%ADD139R,0.6425X0.0006*%
%ADD140R,0.6419X0.0006*%
%ADD141R,0.6413X0.0006*%
%ADD142R,0.6406X0.0006*%
%ADD143R,0.6400X0.0006*%
%ADD144R,0.6394X0.0006*%
%ADD145R,0.6387X0.0006*%
%ADD146R,0.6381X0.0006*%
%ADD147R,0.6375X0.0006*%
%ADD148R,0.6369X0.0006*%
%ADD149R,0.6362X0.0006*%
%ADD150R,0.6356X0.0006*%
%ADD151R,0.6343X0.0006*%
%ADD152R,0.6337X0.0006*%
%ADD153R,0.1594X0.0006*%
%ADD154R,0.1562X0.0006*%
%ADD155R,0.1543X0.0006*%
%ADD156R,0.1512X0.0006*%
%ADD157R,0.1499X0.0006*%
%ADD158R,0.1487X0.0006*%
%ADD159R,0.1474X0.0006*%
%ADD160R,0.1461X0.0006*%
%ADD161R,0.1430X0.0006*%
%ADD162R,0.1411X0.0006*%
%ADD163R,0.1367X0.0006*%
%ADD164R,0.1335X0.0006*%
%ADD165R,0.5858X0.0006*%
%ADD166R,0.7861X0.0006*%
%ADD167R,0.7855X0.0006*%
%ADD168R,0.7849X0.0006*%
%ADD169R,0.7843X0.0006*%
%ADD170R,0.7836X0.0006*%
%ADD171R,0.7830X0.0006*%
%ADD172R,0.7824X0.0006*%
%ADD173R,0.7817X0.0006*%
%ADD174R,0.7811X0.0006*%
%ADD175R,0.7805X0.0006*%
%ADD176R,0.7798X0.0006*%
%ADD177R,0.7792X0.0006*%
%ADD178R,0.7786X0.0006*%
%ADD179R,0.7780X0.0006*%
%ADD180R,0.7773X0.0006*%
%ADD181R,0.7767X0.0006*%
%ADD182R,0.7761X0.0006*%
%ADD183R,0.7754X0.0006*%
%ADD184R,0.7748X0.0006*%
%ADD185R,0.7742X0.0006*%
%ADD186R,0.7735X0.0006*%
%ADD187R,0.7729X0.0006*%
%ADD188R,0.7723X0.0006*%
%ADD189R,0.7717X0.0006*%
%ADD190R,0.7710X0.0006*%
%ADD191R,0.7704X0.0006*%
%ADD192R,0.7698X0.0006*%
%ADD193R,0.7691X0.0006*%
%ADD194R,0.7685X0.0006*%
%ADD195R,0.7679X0.0006*%
%ADD196R,0.7672X0.0006*%
%ADD197R,0.7666X0.0006*%
%ADD198R,0.7660X0.0006*%
%ADD199R,0.1600X0.0006*%
%ADD200R,0.1524X0.0006*%
%ADD201R,0.1436X0.0006*%
%ADD202R,0.1417X0.0006*%
%ADD203R,0.1398X0.0006*%
%ADD204R,0.1380X0.0006*%
%ADD205R,0.1354X0.0006*%
%ADD206R,0.1323X0.0006*%
%ADD207R,0.1260X0.0006*%
%ADD208C,0.0080*%
%ADD209C,0.0040*%
%ADD210C,0.0030*%
%ADD211C,0.0100*%
%ADD212C,0.0120*%
%ADD213C,0.0050*%
%ADD214R,0.0300X0.0800*%
%ADD215C,0.0060*%
%ADD216C,0.0020*%
D10*
X001579Y003519D02*
X001579Y020448D01*
X004728Y023597D01*
X021657Y023597D01*
X024807Y020448D01*
X021657Y023597D01*
X024807Y020448D02*
X024807Y003519D01*
X021657Y000369D01*
X004728Y000369D01*
X001579Y003519D01*
D11*
X015751Y004305D03*
X015751Y004311D03*
X018069Y004053D03*
X018069Y004047D03*
X018875Y004305D03*
X018875Y004311D03*
X019297Y004053D03*
X019297Y004047D03*
X020274Y004324D03*
D12*
X020434Y004349D03*
X020441Y004356D03*
X020731Y004400D03*
X020731Y004406D03*
X020819Y004311D03*
X021008Y004809D03*
X020825Y004872D03*
X020812Y004866D03*
X020800Y004859D03*
X020794Y004853D03*
X020183Y004866D03*
X019446Y004311D03*
X019376Y004356D03*
X018217Y004311D03*
X018148Y004356D03*
X017297Y004790D03*
X017297Y004796D03*
X017096Y004311D03*
X017096Y004305D03*
X017096Y004299D03*
X016926Y004053D03*
X015320Y005011D03*
X015320Y005017D03*
D13*
X015294Y004929D03*
X016926Y004059D03*
X017102Y004374D03*
X017310Y004847D03*
X018406Y004337D03*
X019634Y004337D03*
X020069Y004752D03*
X020069Y004759D03*
X020075Y004765D03*
X020422Y004784D03*
X020422Y004790D03*
X020428Y004778D03*
X020434Y004759D03*
X020756Y004727D03*
X020762Y004715D03*
X020976Y004859D03*
X021033Y004456D03*
X021033Y004450D03*
X021033Y004444D03*
X020756Y004337D03*
D14*
X019301Y004059D03*
X018072Y004059D03*
X016560Y004318D03*
X016170Y004318D03*
D15*
X016170Y004374D03*
X016170Y004381D03*
X016170Y004387D03*
X016170Y004393D03*
X016170Y004400D03*
X016176Y004759D03*
X016491Y004853D03*
X016504Y004847D03*
X016560Y004400D03*
X016560Y004393D03*
X016560Y004387D03*
X016560Y004381D03*
X016560Y004374D03*
X016926Y004066D03*
X017102Y004406D03*
X017033Y004563D03*
X017020Y004595D03*
X017008Y004626D03*
X017001Y004639D03*
X017001Y004645D03*
X016995Y004658D03*
X016989Y004670D03*
X016989Y004677D03*
X016983Y004689D03*
X016983Y004696D03*
X016976Y004702D03*
X016976Y004708D03*
X016970Y004721D03*
X016970Y004727D03*
X016964Y004733D03*
X016964Y004740D03*
X016964Y004746D03*
X016957Y004752D03*
X016957Y004759D03*
X016951Y004771D03*
X018060Y004891D03*
X018079Y004746D03*
X018079Y004740D03*
X018079Y004425D03*
X018079Y004419D03*
X018079Y004412D03*
X018079Y004406D03*
X018482Y004425D03*
X018488Y004437D03*
X018494Y004450D03*
X018501Y004463D03*
X018501Y004469D03*
X018507Y004481D03*
X018507Y004488D03*
X018507Y004494D03*
X018513Y004500D03*
X018513Y004507D03*
X018513Y004513D03*
X018520Y004532D03*
X018520Y004538D03*
X018520Y004544D03*
X018520Y004551D03*
X018520Y004645D03*
X018513Y004677D03*
X018507Y004702D03*
X018501Y004721D03*
X018494Y004733D03*
X018494Y004740D03*
X018488Y004746D03*
X018488Y004752D03*
X018482Y004759D03*
X018482Y004765D03*
X018475Y004771D03*
X018469Y004784D03*
X018463Y004790D03*
X018872Y004796D03*
X018872Y004803D03*
X018872Y004809D03*
X018879Y005212D03*
X019288Y004891D03*
X019307Y004746D03*
X019307Y004740D03*
X019307Y004425D03*
X019307Y004419D03*
X019307Y004412D03*
X019307Y004406D03*
X019710Y004425D03*
X019716Y004437D03*
X019723Y004450D03*
X019729Y004463D03*
X019729Y004469D03*
X019735Y004481D03*
X019735Y004488D03*
X019735Y004494D03*
X019742Y004500D03*
X019742Y004507D03*
X019742Y004513D03*
X019748Y004532D03*
X019748Y004538D03*
X019748Y004544D03*
X019748Y004551D03*
X019748Y004645D03*
X019742Y004677D03*
X019735Y004702D03*
X019729Y004721D03*
X019723Y004733D03*
X019723Y004740D03*
X019716Y004746D03*
X019716Y004752D03*
X019710Y004759D03*
X019710Y004765D03*
X019704Y004771D03*
X019697Y004784D03*
X019691Y004790D03*
X020044Y004670D03*
X020044Y004664D03*
X020044Y004658D03*
X020038Y004652D03*
X020038Y004645D03*
X020038Y004639D03*
X020038Y004633D03*
X020038Y004626D03*
X020038Y004620D03*
X020038Y004614D03*
X020038Y004607D03*
X020038Y004601D03*
X020038Y004595D03*
X020775Y004696D03*
X020781Y004689D03*
X020964Y004872D03*
X021020Y004494D03*
X018879Y004387D03*
X018879Y004381D03*
X018879Y004374D03*
X015754Y004374D03*
X015754Y004381D03*
X015754Y004387D03*
X015294Y004381D03*
X015294Y004374D03*
X015294Y004368D03*
X015282Y004904D03*
X015748Y004809D03*
X015748Y004803D03*
X015748Y004796D03*
X015754Y005212D03*
D16*
X016422Y004866D03*
X018072Y004066D03*
X019301Y004066D03*
X020875Y004620D03*
X020894Y004607D03*
X020901Y004601D03*
D17*
X020268Y004878D03*
X020047Y004519D03*
X020053Y004494D03*
X020060Y004475D03*
X020066Y004463D03*
X020066Y004456D03*
X020072Y004450D03*
X020072Y004444D03*
X020079Y004437D03*
X020085Y004425D03*
X020091Y004419D03*
X020104Y004400D03*
X019316Y004374D03*
X019316Y004368D03*
X019297Y004104D03*
X019297Y004097D03*
X018875Y004356D03*
X018863Y004828D03*
X019310Y004790D03*
X019310Y004784D03*
X018082Y004784D03*
X018082Y004790D03*
X018088Y004374D03*
X018088Y004368D03*
X018069Y004104D03*
X018069Y004097D03*
X016929Y004072D03*
X016935Y004822D03*
X016935Y004828D03*
X016425Y004878D03*
X016179Y004790D03*
X016154Y004828D03*
X015738Y004828D03*
X015751Y004356D03*
X015379Y004299D03*
X015323Y004330D03*
X015316Y004337D03*
X016167Y004356D03*
D18*
X016173Y004330D03*
X016564Y004330D03*
X016942Y004116D03*
X018069Y004072D03*
X019297Y004072D03*
X020192Y004337D03*
X020960Y004557D03*
D19*
X020803Y004670D03*
X020135Y004368D03*
X020129Y004374D03*
X020123Y004381D03*
X019297Y004091D03*
X019310Y004796D03*
X019279Y004853D03*
X018857Y004841D03*
X018082Y004796D03*
X018050Y004853D03*
X018069Y004091D03*
X016929Y004078D03*
X016935Y004834D03*
X016179Y004803D03*
X016148Y004841D03*
X015732Y004841D03*
X015335Y004324D03*
D20*
X015754Y004337D03*
X016170Y004337D03*
X016560Y004337D03*
X016932Y004091D03*
X016138Y004847D03*
X015723Y004847D03*
X018034Y004866D03*
X018034Y004885D03*
X018072Y004078D03*
X018879Y004337D03*
X019301Y004078D03*
X019263Y004866D03*
X019263Y004885D03*
X018847Y004847D03*
X020164Y004349D03*
X020277Y004299D03*
X020819Y004658D03*
X020976Y004544D03*
D21*
X020986Y004538D03*
X020809Y004664D03*
X020154Y004356D03*
X019316Y004815D03*
X018850Y004866D03*
X018088Y004815D03*
X017313Y004866D03*
X016935Y004847D03*
X016929Y004085D03*
X015726Y004866D03*
D22*
X016138Y004866D03*
X016170Y004343D03*
X016560Y004343D03*
X016932Y004841D03*
X018047Y004859D03*
X018085Y004809D03*
X018085Y004803D03*
X018305Y004878D03*
X018879Y004343D03*
X019301Y004085D03*
X019313Y004803D03*
X019313Y004809D03*
X019275Y004859D03*
X019534Y004878D03*
X020145Y004362D03*
X020989Y004532D03*
X018072Y004085D03*
X015754Y004343D03*
D23*
X016935Y004097D03*
X016935Y004853D03*
X018088Y004822D03*
X019316Y004822D03*
X020179Y004343D03*
X020828Y004652D03*
X020967Y004551D03*
D24*
X020838Y004645D03*
X019527Y004305D03*
X019320Y004828D03*
X018879Y004330D03*
X018299Y004305D03*
X018091Y004828D03*
X016938Y004110D03*
X016938Y004104D03*
X016422Y004872D03*
X015754Y004330D03*
X015383Y004305D03*
D25*
X015304Y004349D03*
X015304Y004356D03*
X015297Y004362D03*
X015751Y004368D03*
X015745Y004815D03*
X015751Y005174D03*
X015751Y005181D03*
X015751Y005187D03*
X015751Y005193D03*
X015751Y005200D03*
X015751Y005206D03*
X015279Y004897D03*
X016160Y004815D03*
X016160Y004809D03*
X016173Y004771D03*
X016173Y004765D03*
X016942Y004796D03*
X016942Y004803D03*
X016948Y004790D03*
X016948Y004784D03*
X016948Y004778D03*
X016954Y004765D03*
X017099Y004419D03*
X017099Y004412D03*
X018082Y004400D03*
X018082Y004393D03*
X018069Y004122D03*
X018069Y004116D03*
X018069Y004110D03*
X018516Y004519D03*
X018516Y004526D03*
X018523Y004557D03*
X018523Y004563D03*
X018523Y004570D03*
X018523Y004576D03*
X018523Y004582D03*
X018523Y004589D03*
X018523Y004595D03*
X018523Y004601D03*
X018523Y004607D03*
X018523Y004614D03*
X018523Y004620D03*
X018523Y004626D03*
X018523Y004633D03*
X018523Y004639D03*
X018516Y004652D03*
X018516Y004658D03*
X018516Y004664D03*
X018516Y004670D03*
X018510Y004683D03*
X018510Y004689D03*
X018510Y004696D03*
X018504Y004708D03*
X018504Y004715D03*
X018497Y004727D03*
X018075Y004752D03*
X018075Y004759D03*
X018869Y004815D03*
X018875Y005174D03*
X018875Y005181D03*
X018875Y005187D03*
X018875Y005193D03*
X018875Y005200D03*
X018875Y005206D03*
X019304Y004759D03*
X019304Y004752D03*
X019726Y004727D03*
X019732Y004715D03*
X019732Y004708D03*
X019738Y004696D03*
X019738Y004689D03*
X019738Y004683D03*
X019745Y004670D03*
X019745Y004664D03*
X019745Y004658D03*
X019745Y004652D03*
X019751Y004639D03*
X019751Y004633D03*
X019751Y004626D03*
X019751Y004620D03*
X019751Y004614D03*
X019751Y004607D03*
X019751Y004601D03*
X019751Y004595D03*
X019751Y004589D03*
X019751Y004582D03*
X019751Y004576D03*
X019751Y004570D03*
X019751Y004563D03*
X019751Y004557D03*
X019745Y004526D03*
X019745Y004519D03*
X020041Y004551D03*
X020041Y004557D03*
X020041Y004563D03*
X020041Y004570D03*
X020041Y004576D03*
X020041Y004582D03*
X020041Y004589D03*
X019310Y004400D03*
X019310Y004393D03*
X019297Y004122D03*
X019297Y004116D03*
X019297Y004110D03*
X018875Y004368D03*
X020897Y004299D03*
X021017Y004500D03*
X021011Y004507D03*
D26*
X021030Y004469D03*
X021030Y004463D03*
X020759Y004330D03*
X020765Y004708D03*
X020973Y004866D03*
X020438Y004752D03*
X020438Y004746D03*
X020431Y004765D03*
X020431Y004771D03*
X020444Y004721D03*
X020444Y004715D03*
X020066Y004746D03*
X020060Y004733D03*
X019663Y004362D03*
X019657Y004356D03*
X019650Y004349D03*
X019644Y004343D03*
X019625Y004330D03*
X019612Y004324D03*
X019600Y004318D03*
X019587Y004311D03*
X018875Y005156D03*
X018875Y005231D03*
X018434Y004362D03*
X018428Y004356D03*
X018422Y004349D03*
X018416Y004343D03*
X018397Y004330D03*
X018384Y004324D03*
X018372Y004318D03*
X018359Y004311D03*
X017099Y004381D03*
X017099Y004387D03*
X016904Y004122D03*
X015751Y005156D03*
X015751Y005231D03*
X015291Y004922D03*
D27*
X015323Y005023D03*
X015323Y005030D03*
X015323Y005036D03*
X015323Y005042D03*
X015751Y005137D03*
X015751Y005250D03*
X016318Y004859D03*
X017093Y004293D03*
X017093Y004286D03*
X017030Y004135D03*
X017023Y004129D03*
X017017Y004122D03*
X017288Y004759D03*
X017294Y004771D03*
X017294Y004778D03*
X017294Y004784D03*
X018157Y004349D03*
X018164Y004343D03*
X018170Y004337D03*
X018201Y004318D03*
X018875Y005137D03*
X018875Y005250D03*
X019386Y004349D03*
X019392Y004343D03*
X019398Y004337D03*
X019430Y004318D03*
X020450Y004362D03*
X020457Y004368D03*
X020727Y004412D03*
X020727Y004419D03*
X020834Y004305D03*
X021011Y004796D03*
X021011Y004803D03*
D28*
X020753Y004752D03*
X020387Y004834D03*
X020381Y004841D03*
X020375Y004847D03*
X020362Y004853D03*
X020324Y004872D03*
X020110Y004815D03*
X020104Y004809D03*
X020280Y004293D03*
X020746Y004356D03*
X021023Y004374D03*
X021030Y004387D03*
X021030Y004393D03*
X021030Y004400D03*
X019537Y004885D03*
X018309Y004885D03*
X017307Y004834D03*
X017099Y004356D03*
X017099Y004349D03*
X016897Y004129D03*
X015304Y004948D03*
X015304Y004954D03*
D29*
X015285Y004910D03*
X015751Y004872D03*
X015751Y004790D03*
X015751Y004784D03*
X015751Y004778D03*
X015751Y004771D03*
X015751Y005162D03*
X015751Y005168D03*
X015751Y005219D03*
X016160Y004872D03*
X016173Y004752D03*
X016173Y004746D03*
X016173Y004740D03*
X016173Y004733D03*
X016173Y004727D03*
X016173Y004721D03*
X016173Y004715D03*
X016167Y004406D03*
X016564Y004406D03*
X016557Y004746D03*
X016557Y004752D03*
X016557Y004759D03*
X016557Y004765D03*
X016557Y004771D03*
X016551Y004784D03*
X016551Y004790D03*
X016545Y004803D03*
X016538Y004815D03*
X016532Y004822D03*
X016526Y004828D03*
X016520Y004834D03*
X016513Y004841D03*
X016973Y004715D03*
X016986Y004683D03*
X016992Y004664D03*
X016998Y004652D03*
X017005Y004633D03*
X017011Y004620D03*
X017011Y004614D03*
X017017Y004607D03*
X017017Y004601D03*
X017023Y004589D03*
X017023Y004582D03*
X017030Y004576D03*
X017030Y004570D03*
X017036Y004557D03*
X017036Y004551D03*
X017042Y004544D03*
X017042Y004538D03*
X017042Y004532D03*
X017049Y004526D03*
X017049Y004519D03*
X017055Y004513D03*
X017055Y004507D03*
X017055Y004500D03*
X017061Y004494D03*
X017061Y004488D03*
X017068Y004481D03*
X017068Y004475D03*
X017074Y004463D03*
X017074Y004456D03*
X017080Y004444D03*
X017086Y004431D03*
X017086Y004425D03*
X017099Y004400D03*
X017099Y004393D03*
X018075Y004431D03*
X018075Y004437D03*
X018075Y004444D03*
X018075Y004450D03*
X018075Y004456D03*
X018075Y004463D03*
X018075Y004469D03*
X018075Y004696D03*
X018075Y004702D03*
X018075Y004708D03*
X018075Y004715D03*
X018075Y004721D03*
X018075Y004727D03*
X018075Y004733D03*
X018441Y004815D03*
X018447Y004809D03*
X018453Y004803D03*
X018460Y004796D03*
X018472Y004778D03*
X018504Y004475D03*
X018497Y004456D03*
X018491Y004444D03*
X018485Y004431D03*
X018479Y004419D03*
X018472Y004412D03*
X018472Y004406D03*
X018466Y004400D03*
X018453Y004381D03*
X018447Y004374D03*
X018069Y004192D03*
X018069Y004185D03*
X018069Y004179D03*
X018069Y004173D03*
X018069Y004167D03*
X018069Y004160D03*
X018069Y004154D03*
X018069Y004148D03*
X018069Y004141D03*
X018069Y004135D03*
X018069Y004129D03*
X018875Y004393D03*
X018875Y004400D03*
X018875Y004406D03*
X018875Y004771D03*
X018875Y004778D03*
X018875Y004784D03*
X018875Y004790D03*
X018875Y004872D03*
X018875Y005162D03*
X018875Y005168D03*
X018875Y005219D03*
X019304Y004733D03*
X019304Y004727D03*
X019304Y004721D03*
X019304Y004715D03*
X019304Y004708D03*
X019304Y004702D03*
X019304Y004696D03*
X019304Y004469D03*
X019304Y004463D03*
X019304Y004456D03*
X019304Y004450D03*
X019304Y004444D03*
X019304Y004437D03*
X019304Y004431D03*
X019297Y004192D03*
X019297Y004185D03*
X019297Y004179D03*
X019297Y004173D03*
X019297Y004167D03*
X019297Y004160D03*
X019297Y004154D03*
X019297Y004148D03*
X019297Y004141D03*
X019297Y004135D03*
X019297Y004129D03*
X019675Y004374D03*
X019682Y004381D03*
X019694Y004400D03*
X019701Y004406D03*
X019701Y004412D03*
X019707Y004419D03*
X019713Y004431D03*
X019720Y004444D03*
X019726Y004456D03*
X019732Y004475D03*
X019701Y004778D03*
X019688Y004796D03*
X019682Y004803D03*
X019675Y004809D03*
X019669Y004815D03*
X020053Y004715D03*
X020053Y004708D03*
X021023Y004488D03*
X015751Y004406D03*
X015751Y004400D03*
X015751Y004393D03*
X015291Y004393D03*
X015291Y004387D03*
X015291Y004400D03*
D30*
X015490Y004324D03*
X015326Y005048D03*
X015326Y005055D03*
X016302Y004853D03*
X016894Y004135D03*
X017033Y004141D03*
X017039Y004148D03*
X017064Y004204D03*
X017077Y004236D03*
X017083Y004255D03*
X017090Y004267D03*
X017090Y004274D03*
X017090Y004280D03*
X017247Y004652D03*
X017260Y004683D03*
X017272Y004715D03*
X017279Y004733D03*
X017285Y004746D03*
X017285Y004752D03*
X017291Y004765D03*
X018179Y004330D03*
X018192Y004324D03*
X019408Y004330D03*
X019420Y004324D03*
X020466Y004374D03*
X020472Y004387D03*
X020479Y004393D03*
X020485Y004406D03*
X020724Y004425D03*
X020724Y004431D03*
X021014Y004784D03*
X021014Y004790D03*
D31*
X021017Y004778D03*
X021017Y004771D03*
X021017Y004765D03*
X020721Y004450D03*
X020721Y004444D03*
X020721Y004437D03*
X020721Y004318D03*
X020494Y004425D03*
X020494Y004431D03*
X020501Y004444D03*
X020488Y004412D03*
X020482Y004400D03*
X020469Y004381D03*
X017282Y004740D03*
X017275Y004727D03*
X017275Y004721D03*
X017269Y004708D03*
X017269Y004702D03*
X017263Y004696D03*
X017263Y004689D03*
X017257Y004677D03*
X017257Y004670D03*
X017250Y004664D03*
X017250Y004658D03*
X017244Y004645D03*
X017244Y004639D03*
X017238Y004633D03*
X017238Y004626D03*
X017231Y004620D03*
X017231Y004614D03*
X017231Y004607D03*
X017225Y004601D03*
X017225Y004595D03*
X017219Y004589D03*
X017219Y004582D03*
X017219Y004576D03*
X017212Y004570D03*
X017212Y004563D03*
X017206Y004557D03*
X017206Y004551D03*
X017206Y004544D03*
X017200Y004538D03*
X017200Y004532D03*
X017194Y004526D03*
X017194Y004519D03*
X017194Y004513D03*
X017187Y004507D03*
X017187Y004500D03*
X017181Y004494D03*
X017181Y004488D03*
X017175Y004475D03*
X017175Y004469D03*
X017168Y004463D03*
X017168Y004456D03*
X017162Y004444D03*
X017162Y004437D03*
X017156Y004431D03*
X017156Y004425D03*
X017086Y004261D03*
X017080Y004248D03*
X017080Y004242D03*
X017074Y004230D03*
X017074Y004223D03*
X017068Y004217D03*
X017068Y004211D03*
X017061Y004198D03*
X017061Y004192D03*
X017055Y004185D03*
X017055Y004179D03*
X017049Y004173D03*
X017049Y004167D03*
X017042Y004160D03*
X017042Y004154D03*
X016293Y004847D03*
X016280Y004841D03*
X016261Y004828D03*
X016255Y004822D03*
X016249Y004815D03*
X016242Y004809D03*
X015499Y004330D03*
D32*
X015288Y004406D03*
X015288Y004412D03*
X015288Y004419D03*
X015288Y004425D03*
X015288Y004431D03*
X015288Y004437D03*
X015288Y004444D03*
X015288Y004450D03*
X015288Y004456D03*
X015288Y004463D03*
X015288Y004469D03*
X015288Y004475D03*
X015288Y004481D03*
X015288Y004488D03*
X015288Y004494D03*
X015288Y004500D03*
X015288Y004507D03*
X015288Y004513D03*
X015288Y004519D03*
X015288Y004526D03*
X015288Y004532D03*
X015288Y004538D03*
X015288Y004544D03*
X015288Y004551D03*
X015288Y004557D03*
X015288Y004563D03*
X015288Y004570D03*
X015288Y004576D03*
X015288Y004582D03*
X015288Y004589D03*
X015288Y004595D03*
X015288Y004601D03*
X015288Y004607D03*
X015288Y004614D03*
X015288Y004620D03*
X015288Y004626D03*
X015288Y004633D03*
X015288Y004639D03*
X015288Y004645D03*
X015288Y004652D03*
X015288Y004658D03*
X015288Y004664D03*
X015288Y004670D03*
X015288Y004677D03*
X015288Y004683D03*
X015288Y004689D03*
X015288Y004696D03*
X015288Y004702D03*
X015288Y004708D03*
X015288Y004715D03*
X015288Y004721D03*
X015288Y004727D03*
X015288Y004733D03*
X015288Y004740D03*
X015288Y004746D03*
X015288Y004752D03*
X015288Y004759D03*
X015288Y004765D03*
X015288Y004771D03*
X015288Y004778D03*
X015288Y004784D03*
X015288Y004790D03*
X015288Y004796D03*
X015288Y004803D03*
X015288Y004809D03*
X015288Y004815D03*
X015288Y004822D03*
X015288Y004828D03*
X015288Y004834D03*
X015288Y004841D03*
X015288Y004847D03*
X015288Y004853D03*
X015288Y004916D03*
X015754Y004765D03*
X015754Y004759D03*
X015754Y004752D03*
X015754Y004746D03*
X015754Y004740D03*
X015754Y004733D03*
X015754Y004727D03*
X015754Y004721D03*
X015754Y004715D03*
X015754Y004708D03*
X015754Y004702D03*
X015754Y004696D03*
X015754Y004689D03*
X015754Y004683D03*
X015754Y004677D03*
X015754Y004670D03*
X015754Y004664D03*
X015754Y004658D03*
X015754Y004652D03*
X015754Y004645D03*
X015754Y004639D03*
X015754Y004633D03*
X015754Y004626D03*
X015754Y004620D03*
X015754Y004614D03*
X015754Y004607D03*
X015754Y004601D03*
X015754Y004595D03*
X015754Y004589D03*
X015754Y004582D03*
X015754Y004576D03*
X015754Y004570D03*
X015754Y004563D03*
X015754Y004557D03*
X015754Y004551D03*
X015754Y004544D03*
X015754Y004538D03*
X015754Y004532D03*
X015754Y004526D03*
X015754Y004519D03*
X015754Y004513D03*
X015754Y004507D03*
X015754Y004500D03*
X015754Y004494D03*
X015754Y004488D03*
X015754Y004481D03*
X015754Y004475D03*
X015754Y004469D03*
X015754Y004463D03*
X015754Y004456D03*
X015754Y004450D03*
X015754Y004444D03*
X015754Y004437D03*
X015754Y004431D03*
X015754Y004425D03*
X015754Y004419D03*
X015754Y004412D03*
X016170Y004412D03*
X016170Y004419D03*
X016170Y004425D03*
X016170Y004431D03*
X016170Y004437D03*
X016170Y004444D03*
X016170Y004450D03*
X016170Y004456D03*
X016170Y004463D03*
X016170Y004469D03*
X016170Y004475D03*
X016170Y004481D03*
X016170Y004488D03*
X016170Y004494D03*
X016170Y004500D03*
X016170Y004507D03*
X016170Y004513D03*
X016170Y004519D03*
X016170Y004526D03*
X016170Y004532D03*
X016170Y004538D03*
X016170Y004544D03*
X016170Y004551D03*
X016170Y004557D03*
X016170Y004563D03*
X016170Y004570D03*
X016170Y004576D03*
X016170Y004582D03*
X016170Y004589D03*
X016170Y004595D03*
X016170Y004601D03*
X016170Y004607D03*
X016170Y004614D03*
X016170Y004620D03*
X016170Y004626D03*
X016170Y004633D03*
X016170Y004639D03*
X016170Y004645D03*
X016170Y004652D03*
X016170Y004658D03*
X016170Y004664D03*
X016170Y004670D03*
X016170Y004677D03*
X016170Y004683D03*
X016170Y004689D03*
X016170Y004696D03*
X016170Y004702D03*
X016170Y004708D03*
X016542Y004809D03*
X016548Y004796D03*
X016554Y004778D03*
X016560Y004740D03*
X016560Y004733D03*
X016560Y004727D03*
X016560Y004721D03*
X016560Y004715D03*
X016560Y004708D03*
X016560Y004702D03*
X016560Y004696D03*
X016560Y004689D03*
X016560Y004683D03*
X016560Y004677D03*
X016560Y004670D03*
X016560Y004664D03*
X016560Y004658D03*
X016560Y004652D03*
X016560Y004645D03*
X016560Y004639D03*
X016560Y004633D03*
X016560Y004626D03*
X016560Y004620D03*
X016560Y004614D03*
X016560Y004607D03*
X016560Y004601D03*
X016560Y004595D03*
X016560Y004589D03*
X016560Y004582D03*
X016560Y004576D03*
X016560Y004570D03*
X016560Y004563D03*
X016560Y004557D03*
X016560Y004551D03*
X016560Y004544D03*
X016560Y004538D03*
X016560Y004532D03*
X016560Y004526D03*
X016560Y004519D03*
X016560Y004513D03*
X016560Y004507D03*
X016560Y004500D03*
X016560Y004494D03*
X016560Y004488D03*
X016560Y004481D03*
X016560Y004475D03*
X016560Y004469D03*
X016560Y004463D03*
X016560Y004456D03*
X016560Y004450D03*
X016560Y004444D03*
X016560Y004437D03*
X016560Y004431D03*
X016560Y004425D03*
X016560Y004419D03*
X016560Y004412D03*
X017071Y004469D03*
X017077Y004450D03*
X017083Y004437D03*
X017310Y004853D03*
X018072Y004689D03*
X018072Y004683D03*
X018072Y004677D03*
X018072Y004670D03*
X018072Y004664D03*
X018072Y004658D03*
X018072Y004652D03*
X018072Y004645D03*
X018072Y004639D03*
X018072Y004633D03*
X018072Y004626D03*
X018072Y004620D03*
X018072Y004614D03*
X018072Y004607D03*
X018072Y004601D03*
X018072Y004595D03*
X018072Y004589D03*
X018072Y004582D03*
X018072Y004576D03*
X018072Y004570D03*
X018072Y004563D03*
X018072Y004557D03*
X018072Y004551D03*
X018072Y004544D03*
X018072Y004538D03*
X018072Y004532D03*
X018072Y004526D03*
X018072Y004519D03*
X018072Y004513D03*
X018072Y004507D03*
X018072Y004500D03*
X018072Y004494D03*
X018072Y004488D03*
X018072Y004481D03*
X018072Y004475D03*
X018072Y004356D03*
X018072Y004349D03*
X018072Y004343D03*
X018072Y004337D03*
X018072Y004330D03*
X018072Y004324D03*
X018072Y004318D03*
X018072Y004311D03*
X018072Y004305D03*
X018072Y004299D03*
X018072Y004293D03*
X018072Y004286D03*
X018072Y004280D03*
X018072Y004274D03*
X018072Y004267D03*
X018072Y004261D03*
X018072Y004255D03*
X018072Y004248D03*
X018072Y004242D03*
X018072Y004236D03*
X018072Y004230D03*
X018072Y004223D03*
X018072Y004217D03*
X018072Y004211D03*
X018072Y004204D03*
X018072Y004198D03*
X018444Y004368D03*
X018457Y004387D03*
X018463Y004393D03*
X018879Y004412D03*
X018879Y004419D03*
X018879Y004425D03*
X018879Y004431D03*
X018879Y004437D03*
X018879Y004444D03*
X018879Y004450D03*
X018879Y004456D03*
X018879Y004463D03*
X018879Y004469D03*
X018879Y004475D03*
X018879Y004481D03*
X018879Y004488D03*
X018879Y004494D03*
X018879Y004500D03*
X018879Y004507D03*
X018879Y004513D03*
X018879Y004519D03*
X018879Y004526D03*
X018879Y004532D03*
X018879Y004538D03*
X018879Y004544D03*
X018879Y004551D03*
X018879Y004557D03*
X018879Y004563D03*
X018879Y004570D03*
X018879Y004576D03*
X018879Y004582D03*
X018879Y004589D03*
X018879Y004595D03*
X018879Y004601D03*
X018879Y004607D03*
X018879Y004614D03*
X018879Y004620D03*
X018879Y004626D03*
X018879Y004633D03*
X018879Y004639D03*
X018879Y004645D03*
X018879Y004652D03*
X018879Y004658D03*
X018879Y004664D03*
X018879Y004670D03*
X018879Y004677D03*
X018879Y004683D03*
X018879Y004689D03*
X018879Y004696D03*
X018879Y004702D03*
X018879Y004708D03*
X018879Y004715D03*
X018879Y004721D03*
X018879Y004727D03*
X018879Y004733D03*
X018879Y004740D03*
X018879Y004746D03*
X018879Y004752D03*
X018879Y004759D03*
X018879Y004765D03*
X018879Y005225D03*
X018438Y004822D03*
X018431Y004828D03*
X018425Y004834D03*
X018412Y004841D03*
X018406Y004847D03*
X018394Y004853D03*
X018381Y004859D03*
X018368Y004866D03*
X019301Y004689D03*
X019301Y004683D03*
X019301Y004677D03*
X019301Y004670D03*
X019301Y004664D03*
X019301Y004658D03*
X019301Y004652D03*
X019301Y004645D03*
X019301Y004639D03*
X019301Y004633D03*
X019301Y004626D03*
X019301Y004620D03*
X019301Y004614D03*
X019301Y004607D03*
X019301Y004601D03*
X019301Y004595D03*
X019301Y004589D03*
X019301Y004582D03*
X019301Y004576D03*
X019301Y004570D03*
X019301Y004563D03*
X019301Y004557D03*
X019301Y004551D03*
X019301Y004544D03*
X019301Y004538D03*
X019301Y004532D03*
X019301Y004526D03*
X019301Y004519D03*
X019301Y004513D03*
X019301Y004507D03*
X019301Y004500D03*
X019301Y004494D03*
X019301Y004488D03*
X019301Y004481D03*
X019301Y004475D03*
X019301Y004356D03*
X019301Y004349D03*
X019301Y004343D03*
X019301Y004337D03*
X019301Y004330D03*
X019301Y004324D03*
X019301Y004318D03*
X019301Y004311D03*
X019301Y004305D03*
X019301Y004299D03*
X019301Y004293D03*
X019301Y004286D03*
X019301Y004280D03*
X019301Y004274D03*
X019301Y004267D03*
X019301Y004261D03*
X019301Y004255D03*
X019301Y004248D03*
X019301Y004242D03*
X019301Y004236D03*
X019301Y004230D03*
X019301Y004223D03*
X019301Y004217D03*
X019301Y004211D03*
X019301Y004204D03*
X019301Y004198D03*
X019672Y004368D03*
X019685Y004387D03*
X019691Y004393D03*
X019666Y004822D03*
X019660Y004828D03*
X019653Y004834D03*
X019641Y004841D03*
X019634Y004847D03*
X019622Y004853D03*
X019609Y004859D03*
X019597Y004866D03*
X020057Y004727D03*
X020057Y004721D03*
X020063Y004740D03*
X020050Y004702D03*
X020441Y004727D03*
X020441Y004733D03*
X020441Y004740D03*
X020447Y004708D03*
X020447Y004702D03*
X020768Y004702D03*
X021027Y004481D03*
X021027Y004475D03*
X020762Y004324D03*
X015754Y005225D03*
D33*
X015307Y004960D03*
X015383Y004293D03*
X016422Y004885D03*
X018085Y004897D03*
X018167Y004847D03*
X018179Y004853D03*
X018192Y004859D03*
X018211Y004866D03*
X018299Y004293D03*
X019313Y004897D03*
X019395Y004847D03*
X019408Y004853D03*
X019420Y004859D03*
X019439Y004866D03*
X019527Y004293D03*
X020120Y004822D03*
X020126Y004828D03*
X020132Y004834D03*
X020340Y004866D03*
X020353Y004859D03*
X020749Y004778D03*
X020749Y004771D03*
X020749Y004765D03*
X020749Y004759D03*
X020995Y004841D03*
X021027Y004381D03*
X021020Y004368D03*
X020743Y004362D03*
X020409Y004337D03*
D34*
X020740Y004368D03*
X020740Y004374D03*
X020897Y004293D03*
X021005Y004343D03*
X021011Y004356D03*
X021017Y004362D03*
X020998Y004834D03*
X020759Y004809D03*
X020753Y004796D03*
X020753Y004790D03*
X020753Y004784D03*
X020268Y004885D03*
X020148Y004847D03*
X020142Y004841D03*
X018901Y004878D03*
X018875Y005143D03*
X018875Y005244D03*
X017307Y004828D03*
X017307Y004822D03*
X017099Y004343D03*
X017099Y004337D03*
X017099Y004330D03*
X016186Y004878D03*
X015776Y004878D03*
X015751Y005143D03*
X015751Y005244D03*
X015310Y004973D03*
X015310Y004967D03*
D35*
X015269Y004885D03*
X015735Y004834D03*
X016151Y004834D03*
X016176Y004796D03*
X016170Y004349D03*
X016560Y004349D03*
X016560Y004356D03*
X015754Y004349D03*
X018091Y004362D03*
X018299Y004299D03*
X018879Y004349D03*
X019320Y004362D03*
X019527Y004299D03*
X019282Y004847D03*
X018860Y004834D03*
X018053Y004847D03*
X020082Y004431D03*
X020094Y004412D03*
X020101Y004406D03*
X020107Y004393D03*
X020113Y004387D03*
X020794Y004677D03*
X020995Y004526D03*
X021001Y004519D03*
D36*
X016560Y004311D03*
X016560Y004305D03*
X016170Y004305D03*
X016170Y004311D03*
D37*
X016173Y004324D03*
X016564Y004324D03*
X015757Y004324D03*
X018882Y004324D03*
X020274Y004305D03*
X020866Y004626D03*
X020885Y004614D03*
X020910Y004595D03*
X020916Y004589D03*
D38*
X021023Y004733D03*
X020715Y004488D03*
X020715Y004481D03*
X020715Y004475D03*
X020715Y004305D03*
X019335Y004904D03*
X018926Y004885D03*
X018107Y004904D03*
X016085Y006390D03*
X015801Y004885D03*
X015537Y004368D03*
X015682Y007852D03*
D39*
X015313Y004985D03*
X015313Y004979D03*
X017096Y004324D03*
X017304Y004815D03*
X020157Y004853D03*
X020170Y004859D03*
X020422Y004343D03*
X020737Y004381D03*
X020945Y004305D03*
X020964Y004311D03*
X020983Y004324D03*
X020989Y004330D03*
X020995Y004337D03*
X021008Y004349D03*
X021001Y004822D03*
X021001Y004828D03*
X020762Y004815D03*
X020756Y004803D03*
D40*
X020857Y004633D03*
X020926Y004582D03*
X019320Y004841D03*
X019244Y004872D03*
X019244Y004878D03*
X018091Y004841D03*
X018016Y004872D03*
X018016Y004878D03*
X015383Y004311D03*
D41*
X015757Y004318D03*
X018882Y004318D03*
X020274Y004311D03*
D42*
X020491Y004419D03*
X020497Y004437D03*
X020504Y004450D03*
X020718Y004456D03*
X020718Y004463D03*
X020718Y004469D03*
X020718Y004311D03*
X021020Y004740D03*
X021020Y004746D03*
X021020Y004752D03*
X021020Y004759D03*
X017178Y004481D03*
X017165Y004450D03*
X016271Y004834D03*
X016208Y004885D03*
X015534Y004362D03*
X015527Y004356D03*
X015521Y004349D03*
X015515Y004343D03*
X015509Y004337D03*
D43*
X015386Y004318D03*
X016935Y004866D03*
D44*
X017301Y004809D03*
X017301Y004803D03*
X017099Y004318D03*
X015316Y004992D03*
X015316Y004998D03*
X015316Y005004D03*
X020198Y004872D03*
X020765Y004822D03*
X020772Y004828D03*
X020772Y004834D03*
X020778Y004841D03*
X020784Y004847D03*
X021005Y004815D03*
X020973Y004318D03*
X020803Y004318D03*
X020734Y004387D03*
X020734Y004393D03*
D45*
X020274Y004318D03*
D46*
X020274Y004330D03*
D47*
X020063Y004469D03*
X020057Y004481D03*
X020057Y004488D03*
X020050Y004500D03*
X020050Y004507D03*
X020050Y004513D03*
X020044Y004526D03*
X020044Y004532D03*
X020044Y004538D03*
X020044Y004544D03*
X019313Y004387D03*
X019313Y004381D03*
X019307Y004765D03*
X019307Y004771D03*
X019307Y004778D03*
X018866Y004822D03*
X018879Y004362D03*
X018085Y004381D03*
X018085Y004387D03*
X018079Y004765D03*
X018079Y004771D03*
X018079Y004778D03*
X017310Y004859D03*
X016938Y004815D03*
X016938Y004809D03*
X016479Y004859D03*
X016176Y004784D03*
X016176Y004778D03*
X016157Y004822D03*
X015742Y004822D03*
X015754Y004362D03*
X015313Y004343D03*
X015275Y004891D03*
X016170Y004368D03*
X016170Y004362D03*
X016560Y004362D03*
X016560Y004368D03*
X020787Y004683D03*
X021008Y004513D03*
D48*
X021036Y004437D03*
X021036Y004431D03*
X021036Y004425D03*
X020753Y004343D03*
X020759Y004721D03*
X020753Y004733D03*
X020419Y004796D03*
X020412Y004803D03*
X020412Y004809D03*
X020406Y004815D03*
X020400Y004822D03*
X020394Y004828D03*
X020091Y004790D03*
X020085Y004784D03*
X020085Y004778D03*
X020079Y004771D03*
X018875Y005149D03*
X018875Y005237D03*
X017099Y004368D03*
X017099Y004362D03*
X015751Y005149D03*
X015751Y005237D03*
X015297Y004935D03*
D49*
X015301Y004941D03*
X017310Y004841D03*
X020094Y004796D03*
X020101Y004803D03*
X020749Y004746D03*
X020749Y004740D03*
X020888Y004885D03*
X020983Y004853D03*
X020989Y004847D03*
X021033Y004419D03*
X021033Y004412D03*
X021033Y004406D03*
X020749Y004349D03*
D50*
X020951Y004563D03*
X020945Y004570D03*
X019320Y004834D03*
X018091Y004834D03*
X017310Y004872D03*
X017310Y004878D03*
X016932Y004859D03*
X016120Y004859D03*
D51*
X016123Y004853D03*
X015707Y004853D03*
X015707Y004859D03*
X018302Y004872D03*
X018831Y004859D03*
X018831Y004853D03*
X019531Y004872D03*
X020847Y004639D03*
X020935Y004576D03*
X020923Y004878D03*
D52*
X020242Y004677D03*
D53*
X020246Y004683D03*
X020246Y004689D03*
X020246Y004696D03*
D54*
X015335Y004859D03*
X015335Y004866D03*
D55*
X015345Y004872D03*
D56*
X016938Y004872D03*
X016938Y004878D03*
D57*
X015351Y004878D03*
D58*
X016529Y005911D03*
X016529Y005918D03*
X016529Y005924D03*
X016529Y005930D03*
X016529Y005937D03*
X016529Y005943D03*
X016529Y005949D03*
X016529Y005956D03*
X016529Y005962D03*
X016529Y005968D03*
X016529Y005974D03*
X016529Y005981D03*
X016529Y005987D03*
X016529Y005993D03*
X016529Y006000D03*
X016529Y006006D03*
X016529Y006012D03*
X016529Y006019D03*
X016529Y006025D03*
X016529Y006031D03*
X016529Y006037D03*
X016529Y006044D03*
X016529Y006050D03*
X016529Y006056D03*
X016529Y006063D03*
X016529Y006069D03*
X016529Y006075D03*
X016529Y006081D03*
X016529Y006088D03*
X016529Y006094D03*
X016529Y006100D03*
X016529Y006107D03*
X016529Y006113D03*
X016529Y006119D03*
X016529Y006126D03*
X016529Y006132D03*
X016529Y006138D03*
X016529Y006144D03*
X016529Y006151D03*
X016529Y006157D03*
X016529Y006163D03*
X016529Y006170D03*
X016529Y006176D03*
X016529Y006182D03*
X016529Y006189D03*
X016529Y006195D03*
X016529Y006201D03*
X016529Y006207D03*
X016529Y006214D03*
X016529Y006220D03*
X016529Y006226D03*
X016529Y006233D03*
X016529Y006239D03*
X016529Y006245D03*
X016529Y006252D03*
X016529Y006258D03*
X016529Y006264D03*
X016529Y006270D03*
X016529Y006277D03*
X016529Y006283D03*
X016529Y006289D03*
X016529Y006296D03*
X016529Y006302D03*
X016529Y006308D03*
X016529Y006315D03*
X016529Y006321D03*
X016529Y006327D03*
X016529Y006333D03*
X016529Y006340D03*
X016529Y006346D03*
X016529Y006352D03*
X016529Y006359D03*
X016529Y006365D03*
X016529Y006371D03*
X016529Y006378D03*
X016529Y006384D03*
X015238Y007373D03*
X015238Y007379D03*
X015238Y007385D03*
X015238Y007392D03*
X015238Y007398D03*
X015238Y007404D03*
X015238Y007411D03*
X015238Y007417D03*
X015238Y007423D03*
X015238Y007430D03*
X015238Y007436D03*
X015238Y007442D03*
X015238Y007448D03*
X015238Y007455D03*
X015238Y007461D03*
X015238Y007467D03*
X015238Y007474D03*
X015238Y007480D03*
X015238Y007486D03*
X015238Y007493D03*
X015238Y007499D03*
X015238Y007505D03*
X015238Y007511D03*
X015238Y007518D03*
X015238Y007524D03*
X015238Y007530D03*
X015238Y007537D03*
X015238Y007543D03*
X015238Y007549D03*
X015238Y007556D03*
X015238Y007562D03*
X015238Y007568D03*
X015238Y007574D03*
X015238Y007581D03*
X015238Y007587D03*
X015238Y007593D03*
X015238Y007600D03*
X015238Y007606D03*
X015238Y007612D03*
X015238Y007619D03*
X015238Y007625D03*
X015238Y007631D03*
X015238Y007637D03*
X015238Y007644D03*
X015238Y007650D03*
X015238Y007656D03*
X015238Y007663D03*
X015238Y007669D03*
X015238Y007675D03*
X015238Y007681D03*
X015238Y007688D03*
X015238Y007694D03*
X015238Y007700D03*
X015238Y007707D03*
X015238Y007713D03*
X015238Y007719D03*
X015238Y007726D03*
X015238Y007732D03*
X015238Y007738D03*
X015238Y007744D03*
X015238Y007751D03*
X015238Y007757D03*
X015238Y007763D03*
X015238Y007770D03*
X015238Y007776D03*
X015238Y007782D03*
X015238Y007789D03*
X015238Y007795D03*
X015238Y007801D03*
X015238Y007807D03*
X015238Y007814D03*
X015238Y007820D03*
X015238Y007826D03*
X015238Y007833D03*
X015238Y007839D03*
X015238Y007845D03*
D59*
X015238Y007858D03*
X015238Y007864D03*
X015238Y007870D03*
X015238Y007877D03*
X015238Y007883D03*
X015238Y007889D03*
X015238Y007896D03*
X015238Y007902D03*
X015238Y007908D03*
X015238Y007915D03*
X015238Y007921D03*
X015238Y007927D03*
X015238Y007933D03*
X015238Y007940D03*
X015238Y007946D03*
X015238Y007952D03*
X015238Y007959D03*
X015238Y007965D03*
X015238Y007971D03*
X015238Y007978D03*
X015238Y007984D03*
X015238Y007990D03*
X015238Y007996D03*
X015238Y008003D03*
X015238Y008009D03*
X015238Y008015D03*
X015238Y008022D03*
X015238Y008028D03*
X015238Y008034D03*
X015238Y008041D03*
X015238Y008047D03*
X015238Y008053D03*
X015238Y008059D03*
X015238Y008066D03*
X015238Y008072D03*
X015238Y008078D03*
X015238Y008085D03*
X015238Y008091D03*
X015238Y008097D03*
X015238Y008104D03*
X015238Y008110D03*
X015238Y008116D03*
X015238Y008122D03*
X015238Y008129D03*
X015238Y008135D03*
X015238Y008141D03*
X015238Y008148D03*
X015238Y008154D03*
X015238Y008160D03*
X015238Y008167D03*
X015238Y008173D03*
X015238Y008179D03*
X015238Y008185D03*
X015238Y008192D03*
X015238Y008198D03*
X015238Y008204D03*
X015238Y008211D03*
X015238Y008217D03*
X015238Y008223D03*
X015238Y008230D03*
X015238Y008236D03*
X015238Y008242D03*
X015238Y008248D03*
X015238Y008255D03*
X015238Y008261D03*
X015238Y008267D03*
X015238Y008274D03*
X015238Y008280D03*
X015238Y008286D03*
X015238Y008293D03*
X015238Y008299D03*
X015238Y008305D03*
X015238Y008311D03*
X015238Y008318D03*
X015238Y008324D03*
X015238Y008330D03*
X015238Y008337D03*
X015238Y008343D03*
X015238Y008349D03*
X015238Y008356D03*
X015238Y008362D03*
X015238Y008368D03*
X015238Y008374D03*
X015238Y008381D03*
X015238Y008387D03*
X015238Y008393D03*
X015238Y008400D03*
X015238Y008406D03*
X015238Y008412D03*
X015238Y008419D03*
X015238Y008425D03*
X015238Y008431D03*
X015238Y008437D03*
X015238Y008444D03*
X015238Y008450D03*
X015238Y008456D03*
X015238Y008463D03*
X015238Y008469D03*
X015238Y008475D03*
X015238Y008481D03*
X015238Y008488D03*
X015238Y008494D03*
X015238Y008500D03*
X015238Y008507D03*
X015238Y008513D03*
X015238Y008519D03*
X013921Y009269D03*
X013921Y009275D03*
X013921Y009281D03*
X013921Y009288D03*
X013921Y009294D03*
X013921Y009300D03*
X013921Y009307D03*
X013921Y009313D03*
X013921Y009319D03*
X013921Y009326D03*
X013921Y009332D03*
X013921Y009338D03*
X013921Y009344D03*
X013921Y009351D03*
X013921Y009357D03*
X013921Y009363D03*
X013921Y009370D03*
X013921Y009376D03*
X013921Y009382D03*
X013921Y009389D03*
X013921Y009395D03*
X013921Y009401D03*
X013921Y009407D03*
X013921Y009414D03*
X013921Y009420D03*
X013921Y009426D03*
X013921Y009433D03*
X013921Y009439D03*
X013921Y009445D03*
X013921Y009452D03*
X013921Y009458D03*
X013921Y009464D03*
X013921Y009470D03*
X013921Y009477D03*
X013921Y009483D03*
X013921Y009489D03*
X013921Y009496D03*
X013921Y009502D03*
X013921Y009508D03*
X013921Y009515D03*
X013921Y009521D03*
X013921Y009527D03*
X013921Y009533D03*
X013921Y009540D03*
X013921Y009546D03*
X013921Y009552D03*
X013921Y009559D03*
X013921Y009565D03*
X013921Y009571D03*
X013921Y009578D03*
X013921Y009584D03*
X013921Y009590D03*
X013921Y009596D03*
X013921Y009603D03*
X013921Y009609D03*
X013921Y009615D03*
X013921Y009622D03*
X013921Y009628D03*
X013921Y009634D03*
X013921Y009641D03*
X013921Y009647D03*
X013921Y009653D03*
X013921Y009659D03*
X013921Y009666D03*
X013921Y009672D03*
X013921Y009678D03*
X013921Y009685D03*
X013921Y009691D03*
X013921Y009697D03*
X013921Y009704D03*
X013921Y009710D03*
X013921Y009716D03*
X013921Y009722D03*
X013921Y009729D03*
X013921Y009735D03*
X013921Y009741D03*
X013921Y009748D03*
X013921Y009754D03*
X013921Y009760D03*
X013921Y009767D03*
X013921Y009773D03*
X013921Y009779D03*
X013921Y009785D03*
X013921Y009792D03*
X013921Y009798D03*
X013921Y009804D03*
X013921Y009811D03*
X013921Y009817D03*
X013921Y009823D03*
X013921Y009830D03*
X013921Y009836D03*
X013921Y009842D03*
X013921Y009848D03*
X013921Y009855D03*
X013921Y009861D03*
X013921Y009867D03*
X013921Y009874D03*
X013921Y009880D03*
X013921Y009886D03*
X013921Y009893D03*
X013921Y009899D03*
X013921Y009905D03*
X013921Y009911D03*
X013921Y009918D03*
X013921Y009924D03*
X013921Y009930D03*
X016529Y007058D03*
X016529Y007052D03*
X016529Y007045D03*
X016529Y007039D03*
X016529Y007033D03*
X016529Y007026D03*
X016529Y007020D03*
X016529Y007014D03*
X016529Y007007D03*
X016529Y007001D03*
X016529Y006995D03*
X016529Y006989D03*
X016529Y006982D03*
X016529Y006976D03*
X016529Y006970D03*
X016529Y006963D03*
X016529Y006957D03*
X016529Y006951D03*
X016529Y006944D03*
X016529Y006938D03*
X016529Y006932D03*
X016529Y006926D03*
X016529Y006919D03*
X016529Y006913D03*
X016529Y006907D03*
X016529Y006900D03*
X016529Y006894D03*
X016529Y006888D03*
X016529Y006881D03*
X016529Y006875D03*
X016529Y006869D03*
X016529Y006863D03*
X016529Y006856D03*
X016529Y006850D03*
X016529Y006844D03*
X016529Y006837D03*
X016529Y006831D03*
X016529Y006825D03*
X016529Y006819D03*
X016529Y006812D03*
X016529Y006806D03*
X016529Y006800D03*
X016529Y006793D03*
X016529Y006787D03*
X016529Y006781D03*
X016529Y006774D03*
X016529Y006768D03*
X016529Y006762D03*
X016529Y006756D03*
X016529Y006749D03*
X016529Y006743D03*
X016529Y006737D03*
X016529Y006730D03*
X016529Y006724D03*
X016529Y006718D03*
X016529Y006711D03*
X016529Y006705D03*
X016529Y006699D03*
X016529Y006693D03*
X016529Y006686D03*
X016529Y006680D03*
X016529Y006674D03*
X016529Y006667D03*
X016529Y006661D03*
X016529Y006655D03*
X016529Y006648D03*
X016529Y006642D03*
X016529Y006636D03*
X016529Y006630D03*
X016529Y006623D03*
X016529Y006617D03*
X016529Y006611D03*
X016529Y006604D03*
X016529Y006598D03*
X016529Y006592D03*
X016529Y006585D03*
X016529Y006579D03*
X016529Y006573D03*
X016529Y006567D03*
X016529Y006560D03*
X016529Y006554D03*
X016529Y006548D03*
X016529Y006541D03*
X016529Y006535D03*
X016529Y006529D03*
X016529Y006522D03*
X016529Y006516D03*
X016529Y006510D03*
X016529Y006504D03*
X016529Y006497D03*
X016529Y006491D03*
X016529Y006485D03*
X016529Y006478D03*
X016529Y006472D03*
X016529Y006466D03*
X016529Y006459D03*
X016529Y006453D03*
X016529Y006447D03*
X016529Y006441D03*
X016529Y006434D03*
X016529Y006428D03*
X016529Y006422D03*
X016529Y006415D03*
X016529Y006409D03*
X016529Y006403D03*
X016529Y006396D03*
D60*
X016853Y007064D03*
X016853Y007070D03*
X016853Y007077D03*
X016853Y007083D03*
X016853Y007089D03*
X016853Y007096D03*
X016853Y007102D03*
X016853Y007108D03*
X016853Y007115D03*
X016853Y007121D03*
X016853Y007127D03*
X016853Y007133D03*
X016853Y007140D03*
X016853Y007146D03*
X016853Y007152D03*
X016853Y007159D03*
X016853Y007165D03*
X016853Y007171D03*
X016853Y007178D03*
X016853Y007184D03*
X016853Y007190D03*
X015562Y008526D03*
X015562Y008532D03*
X015562Y008538D03*
X015562Y008544D03*
X015562Y008551D03*
X015562Y008557D03*
X015562Y008563D03*
X015562Y008570D03*
X015562Y008576D03*
X015562Y008582D03*
X015562Y008589D03*
X015562Y008595D03*
X015562Y008601D03*
X015562Y008607D03*
X015562Y008614D03*
X015562Y008620D03*
X015562Y008626D03*
X015562Y008633D03*
X015562Y008639D03*
X015562Y008645D03*
X015562Y008652D03*
X015562Y008658D03*
X014246Y009937D03*
X014246Y009943D03*
X014246Y009949D03*
X014246Y009956D03*
X014246Y009962D03*
X014246Y009968D03*
X014246Y009974D03*
X014246Y009981D03*
X014246Y009987D03*
X014246Y009993D03*
X014246Y010000D03*
X014246Y010006D03*
X014246Y010012D03*
X014246Y010019D03*
X014246Y010025D03*
X014246Y010031D03*
X014246Y010037D03*
X014246Y010044D03*
X014246Y010050D03*
X014246Y010056D03*
X014246Y010063D03*
D61*
X019578Y008217D03*
X019578Y008211D03*
X019578Y008204D03*
X019578Y008198D03*
X019578Y008192D03*
X019578Y008185D03*
X019578Y008179D03*
X019578Y008173D03*
X019578Y008167D03*
X019578Y008160D03*
X019578Y008154D03*
X019578Y008148D03*
X019578Y008141D03*
X019578Y008135D03*
X019578Y008129D03*
X019578Y008122D03*
X019578Y008116D03*
X019578Y008110D03*
X019578Y008104D03*
X019578Y008097D03*
X019578Y008091D03*
X019578Y008085D03*
X019578Y007196D03*
X019578Y007190D03*
X019578Y007184D03*
X019578Y007178D03*
X019578Y007171D03*
X019578Y007165D03*
X019578Y007159D03*
X019578Y007152D03*
X019578Y007146D03*
X019578Y007140D03*
X019578Y007133D03*
X019578Y007127D03*
X019578Y007121D03*
X019578Y007115D03*
X019578Y007108D03*
X019578Y007102D03*
X019578Y007096D03*
X019578Y007089D03*
X019578Y007083D03*
X019578Y007077D03*
D62*
X016857Y007196D03*
D63*
X018576Y007203D03*
X018576Y007209D03*
X018576Y007215D03*
X018576Y007222D03*
X018576Y007228D03*
X018576Y007234D03*
X018576Y007241D03*
X018576Y007247D03*
X018576Y007253D03*
X018576Y007259D03*
X018576Y007266D03*
X018576Y007272D03*
X018576Y007278D03*
X018576Y007285D03*
X018576Y007291D03*
X018576Y007297D03*
X018576Y007304D03*
X018576Y007310D03*
X018576Y007316D03*
X018576Y007322D03*
X018576Y007329D03*
X018576Y007335D03*
X018576Y007341D03*
X018576Y007348D03*
X018576Y007354D03*
X018576Y007360D03*
X018576Y007367D03*
X018576Y007373D03*
X018576Y007379D03*
X018576Y007385D03*
X018576Y007392D03*
X018576Y007398D03*
X018576Y007404D03*
X018576Y007411D03*
X018576Y007417D03*
X018576Y007423D03*
X018576Y007430D03*
X018576Y007436D03*
X018576Y007442D03*
X018576Y007448D03*
X018576Y007455D03*
X018576Y007461D03*
X018576Y007467D03*
X018576Y007474D03*
X018576Y007480D03*
X018576Y007486D03*
X018576Y007493D03*
X018576Y007499D03*
X018576Y007505D03*
X018576Y007511D03*
X018576Y007518D03*
X018576Y007524D03*
X018576Y007530D03*
X018576Y007537D03*
X018576Y007543D03*
X018576Y007549D03*
X018576Y007556D03*
X018576Y007562D03*
X018576Y007568D03*
X018576Y007574D03*
X018576Y007581D03*
X018576Y007587D03*
X018576Y007593D03*
X018576Y007600D03*
X018576Y007606D03*
X018576Y007612D03*
X018576Y007619D03*
X018576Y007625D03*
X018576Y007631D03*
X018576Y007637D03*
X018576Y007644D03*
X018576Y007650D03*
X018576Y007656D03*
X018576Y007663D03*
X018576Y007669D03*
X018576Y007675D03*
D64*
X018579Y007681D03*
X018579Y007688D03*
X018579Y007694D03*
X018579Y007700D03*
X018579Y007707D03*
X018579Y007713D03*
X018579Y007719D03*
X018579Y007726D03*
X018579Y007732D03*
D65*
X018583Y007738D03*
X018583Y007744D03*
X018583Y007751D03*
X018583Y007757D03*
X018583Y007763D03*
D66*
X018586Y007770D03*
X018586Y007776D03*
X018586Y007782D03*
X018586Y007789D03*
D67*
X018589Y007795D03*
X018589Y007801D03*
X018589Y007807D03*
D68*
X018592Y007814D03*
X018592Y007820D03*
X018592Y007826D03*
D69*
X018595Y007833D03*
X018595Y007839D03*
X018595Y007845D03*
D70*
X018598Y007852D03*
X018598Y007858D03*
X018598Y007864D03*
D71*
X018601Y007870D03*
X018601Y007877D03*
D72*
X018605Y007883D03*
X018605Y007889D03*
D73*
X018608Y007896D03*
X018608Y007902D03*
D74*
X018611Y007908D03*
X018611Y007915D03*
D75*
X018614Y007921D03*
X018614Y007927D03*
D76*
X018617Y007933D03*
D77*
X018620Y007940D03*
X018620Y007946D03*
D78*
X018623Y007952D03*
X018623Y007959D03*
D79*
X018627Y007965D03*
D80*
X018630Y007971D03*
D81*
X018633Y007978D03*
X018633Y007984D03*
D82*
X018636Y007990D03*
D83*
X018639Y007996D03*
D84*
X018642Y008003D03*
X018642Y008009D03*
D85*
X018646Y008015D03*
D86*
X018649Y008022D03*
D87*
X018652Y008028D03*
D88*
X018655Y008034D03*
D89*
X018658Y008041D03*
D90*
X018661Y008047D03*
D91*
X018664Y008053D03*
D92*
X018668Y008059D03*
D93*
X018671Y008066D03*
D94*
X018674Y008072D03*
D95*
X018677Y008078D03*
D96*
X016960Y008085D03*
D97*
X016964Y008091D03*
X015672Y009559D03*
X014356Y010963D03*
D98*
X014359Y010970D03*
X016967Y008097D03*
D99*
X016970Y008104D03*
X015679Y009565D03*
X014362Y010976D03*
D100*
X015682Y009571D03*
X016973Y008110D03*
D101*
X016979Y008116D03*
X014372Y010989D03*
D102*
X014375Y010995D03*
X015691Y009584D03*
X016983Y008122D03*
D103*
X016989Y008129D03*
X014381Y011001D03*
D104*
X015701Y009596D03*
X016992Y008135D03*
D105*
X016998Y008141D03*
X015707Y009603D03*
X014390Y011014D03*
D106*
X014397Y011020D03*
X017005Y008148D03*
D107*
X017011Y008154D03*
X014403Y011026D03*
D108*
X014409Y011033D03*
X017017Y008160D03*
D109*
X017023Y008167D03*
X014416Y011039D03*
D110*
X014422Y011045D03*
X017030Y008173D03*
D111*
X017036Y008179D03*
X015745Y009641D03*
D112*
X017046Y008185D03*
D113*
X017055Y008192D03*
D114*
X017064Y008198D03*
X015773Y009659D03*
D115*
X017077Y008204D03*
D116*
X017093Y008211D03*
D117*
X017112Y008217D03*
X015820Y009678D03*
D118*
X018932Y009678D03*
X018932Y009672D03*
X018932Y009666D03*
X018932Y009659D03*
X018932Y009653D03*
X018932Y009647D03*
X018932Y009641D03*
X018932Y009634D03*
X018932Y009628D03*
X018932Y009622D03*
X018932Y009615D03*
X018932Y009609D03*
X018932Y009603D03*
X018932Y009596D03*
X018932Y009590D03*
X018932Y009584D03*
X018932Y009578D03*
X018932Y009571D03*
X018932Y009565D03*
X018932Y009559D03*
X018932Y009552D03*
X018932Y008658D03*
X018932Y008652D03*
X018932Y008645D03*
X018932Y008639D03*
X018932Y008633D03*
X018932Y008626D03*
X018932Y008620D03*
X018932Y008614D03*
X018932Y008607D03*
X018932Y008601D03*
X018932Y008595D03*
X018932Y008589D03*
X018932Y008582D03*
X018932Y008576D03*
X018932Y008570D03*
X018932Y008563D03*
X018932Y008557D03*
X018932Y008551D03*
X018932Y008544D03*
X018932Y008538D03*
D119*
X017931Y008664D03*
X017931Y008670D03*
X017931Y008677D03*
X017931Y008683D03*
X017931Y008689D03*
X017931Y008696D03*
X017931Y008702D03*
X017931Y008708D03*
X017931Y008715D03*
X017931Y008721D03*
X017931Y008727D03*
X017931Y008733D03*
X017931Y008740D03*
X017931Y008746D03*
X017931Y008752D03*
X017931Y008759D03*
X017931Y008765D03*
X017931Y008771D03*
X017931Y008778D03*
X017931Y008784D03*
X017931Y008790D03*
X017931Y008796D03*
X017931Y008803D03*
X017931Y008809D03*
X017931Y008815D03*
X017931Y008822D03*
X017931Y008828D03*
X017931Y008834D03*
X017931Y008841D03*
X017931Y008847D03*
X017931Y008853D03*
X017931Y008859D03*
X017931Y008866D03*
X017931Y008872D03*
X017931Y008878D03*
X017931Y008885D03*
X017931Y008891D03*
X017931Y008897D03*
X017931Y008904D03*
X017931Y008910D03*
X017931Y008916D03*
X017931Y008922D03*
X017931Y008929D03*
X017931Y008935D03*
X017931Y008941D03*
X017931Y008948D03*
X017931Y008954D03*
X017931Y008960D03*
X017931Y008967D03*
X017931Y008973D03*
X017931Y008979D03*
X017931Y008985D03*
X017931Y008992D03*
X017931Y008998D03*
X017931Y009004D03*
X017931Y009011D03*
X017931Y009017D03*
X017931Y009023D03*
X017931Y009030D03*
X017931Y009036D03*
X017931Y009042D03*
X017931Y009048D03*
X017931Y009055D03*
X017931Y009061D03*
X017931Y009067D03*
X017931Y009074D03*
X017931Y009080D03*
X017931Y009086D03*
X017931Y009093D03*
X017931Y009099D03*
X017931Y009105D03*
X017931Y009111D03*
X017931Y009118D03*
X017931Y009124D03*
X017931Y009130D03*
X017931Y009137D03*
X017931Y009143D03*
X017931Y009149D03*
X017931Y009156D03*
X017931Y009162D03*
X017931Y009168D03*
D120*
X013918Y009168D03*
X013918Y009162D03*
X013918Y009156D03*
X013918Y009149D03*
X013918Y009143D03*
X013918Y009137D03*
X013918Y009130D03*
X013918Y009124D03*
X013918Y009118D03*
X013918Y009111D03*
X013918Y009105D03*
X013918Y009099D03*
X013918Y009093D03*
X013918Y009086D03*
X013918Y009080D03*
X013918Y009074D03*
X013918Y009067D03*
X013918Y009061D03*
X013918Y009055D03*
X013918Y009048D03*
X013918Y009042D03*
X013918Y009036D03*
X013918Y009030D03*
X013918Y009023D03*
X013918Y009017D03*
X013918Y009011D03*
X013918Y009004D03*
X013918Y008998D03*
X013918Y008992D03*
X013918Y008985D03*
X013918Y008979D03*
X013918Y008973D03*
X013918Y008967D03*
X013918Y008960D03*
X013918Y008954D03*
X013918Y008948D03*
X013918Y008941D03*
X013918Y008935D03*
X013918Y008929D03*
X013918Y008922D03*
X013918Y008916D03*
X013918Y008910D03*
X013918Y008904D03*
X013918Y008897D03*
X013918Y008891D03*
X013918Y008885D03*
X013918Y008878D03*
X013918Y008872D03*
X013918Y008866D03*
X013918Y008859D03*
X013918Y008853D03*
X013918Y008847D03*
X013918Y008841D03*
X013918Y008834D03*
X013918Y008828D03*
X013918Y008822D03*
X013918Y008815D03*
X013918Y008809D03*
X013918Y008803D03*
X013918Y008796D03*
X013918Y008790D03*
X013918Y008784D03*
X013918Y009174D03*
X013918Y009181D03*
X013918Y009187D03*
X013918Y009193D03*
X013918Y009200D03*
X013918Y009206D03*
X013918Y009212D03*
X013918Y009219D03*
X013918Y009225D03*
X013918Y009231D03*
X013918Y009237D03*
X013918Y009244D03*
X013918Y009250D03*
X013918Y009256D03*
D121*
X017934Y009212D03*
X017934Y009206D03*
X017934Y009200D03*
X017934Y009193D03*
X017934Y009187D03*
X017934Y009181D03*
X017934Y009174D03*
D122*
X017937Y009219D03*
X017937Y009225D03*
X017937Y009231D03*
X017937Y009237D03*
D123*
X017940Y009244D03*
X017940Y009250D03*
X017940Y009256D03*
X017940Y009263D03*
D124*
X017943Y009269D03*
X017943Y009275D03*
X017943Y009281D03*
D125*
X017946Y009288D03*
X017946Y009294D03*
X017946Y009300D03*
D126*
X017949Y009307D03*
X017949Y009313D03*
D127*
X017953Y009319D03*
X017953Y009326D03*
X017953Y009332D03*
D128*
X017956Y009338D03*
X017956Y009344D03*
D129*
X017959Y009351D03*
X017959Y009357D03*
D130*
X017962Y009363D03*
X017962Y009370D03*
D131*
X017965Y009376D03*
X017965Y009382D03*
D132*
X017968Y009389D03*
X017968Y009395D03*
D133*
X017972Y009401D03*
D134*
X017975Y009407D03*
X017975Y009414D03*
D135*
X017978Y009420D03*
D136*
X017981Y009426D03*
X017981Y009433D03*
D137*
X017984Y009439D03*
D138*
X017987Y009445D03*
X017987Y009452D03*
D139*
X017990Y009458D03*
D140*
X017994Y009464D03*
D141*
X017997Y009470D03*
D142*
X018000Y009477D03*
D143*
X018003Y009483D03*
X018003Y009489D03*
D144*
X018006Y009496D03*
D145*
X018009Y009502D03*
D146*
X018012Y009508D03*
D147*
X018016Y009515D03*
D148*
X018019Y009521D03*
D149*
X018022Y009527D03*
D150*
X018025Y009533D03*
D151*
X018031Y009540D03*
D152*
X018034Y009546D03*
D153*
X015669Y009552D03*
D154*
X015685Y009578D03*
X014368Y010982D03*
D155*
X015694Y009590D03*
D156*
X015710Y009609D03*
D157*
X015716Y009615D03*
D158*
X015723Y009622D03*
D159*
X015729Y009628D03*
D160*
X015735Y009634D03*
D161*
X015751Y009647D03*
D162*
X015760Y009653D03*
D163*
X015783Y009666D03*
D164*
X015798Y009672D03*
D165*
X018274Y009943D03*
X018274Y009949D03*
X018274Y009956D03*
X018274Y009962D03*
X018274Y009968D03*
X018274Y009974D03*
X018274Y009981D03*
X018274Y009987D03*
X018274Y009993D03*
X018274Y010000D03*
X018274Y010006D03*
X018274Y010012D03*
X018274Y010019D03*
X018274Y010025D03*
X018274Y010031D03*
X018274Y010037D03*
X018274Y010044D03*
X018274Y010050D03*
X018274Y010056D03*
X018274Y010063D03*
X018274Y010957D03*
X018274Y010963D03*
X018274Y010970D03*
X018274Y010976D03*
X018274Y010982D03*
X018274Y010989D03*
X018274Y010995D03*
X018274Y011001D03*
X018274Y011007D03*
X018274Y011014D03*
X018274Y011020D03*
X018274Y011026D03*
X018274Y011033D03*
X018274Y011039D03*
X018274Y011045D03*
X018274Y011052D03*
X018274Y011058D03*
X018274Y011064D03*
X018274Y011070D03*
X018274Y011077D03*
X018274Y011083D03*
X018274Y011089D03*
D166*
X017272Y010573D03*
X017272Y010567D03*
X017272Y010560D03*
X017272Y010554D03*
X017272Y010548D03*
X017272Y010541D03*
X017272Y010535D03*
X017272Y010529D03*
X017272Y010522D03*
X017272Y010516D03*
X017272Y010510D03*
X017272Y010504D03*
X017272Y010497D03*
X017272Y010491D03*
X017272Y010485D03*
X017272Y010478D03*
X017272Y010472D03*
X017272Y010466D03*
X017272Y010459D03*
X017272Y010453D03*
X017272Y010447D03*
X017272Y010441D03*
X017272Y010434D03*
X017272Y010428D03*
X017272Y010422D03*
X017272Y010415D03*
X017272Y010409D03*
X017272Y010403D03*
X017272Y010396D03*
X017272Y010390D03*
X017272Y010384D03*
X017272Y010378D03*
X017272Y010371D03*
X017272Y010365D03*
X017272Y010359D03*
X017272Y010352D03*
X017272Y010346D03*
X017272Y010340D03*
X017272Y010333D03*
X017272Y010327D03*
X017272Y010321D03*
X017272Y010315D03*
X017272Y010308D03*
X017272Y010302D03*
X017272Y010296D03*
X017272Y010289D03*
X017272Y010283D03*
X017272Y010277D03*
X017272Y010270D03*
X017272Y010264D03*
X017272Y010258D03*
X017272Y010252D03*
X017272Y010245D03*
X017272Y010239D03*
X017272Y010233D03*
X017272Y010226D03*
X017272Y010220D03*
X017272Y010214D03*
X017272Y010207D03*
X017272Y010201D03*
X017272Y010195D03*
X017272Y010189D03*
X017272Y010182D03*
X017272Y010176D03*
X017272Y010170D03*
X017272Y010163D03*
X017272Y010157D03*
X017272Y010151D03*
X017272Y010144D03*
X017272Y010138D03*
X017272Y010132D03*
X017272Y010126D03*
X017272Y010119D03*
X017272Y010113D03*
X017272Y010107D03*
X017272Y010100D03*
X017272Y010094D03*
X017272Y010088D03*
X017272Y010081D03*
X017272Y010075D03*
X017272Y010069D03*
D167*
X017275Y010579D03*
X017275Y010585D03*
X017275Y010592D03*
X017275Y010598D03*
X017275Y010604D03*
X017275Y010611D03*
X017275Y010617D03*
D168*
X017279Y010623D03*
X017279Y010630D03*
X017279Y010636D03*
X017279Y010642D03*
D169*
X017282Y010648D03*
X017282Y010655D03*
X017282Y010661D03*
X017282Y010667D03*
D170*
X017285Y010674D03*
X017285Y010680D03*
X017285Y010686D03*
D171*
X017288Y010693D03*
X017288Y010699D03*
X017288Y010705D03*
D172*
X017291Y010711D03*
X017291Y010718D03*
X017291Y010724D03*
D173*
X017294Y010730D03*
X017294Y010737D03*
D174*
X017297Y010743D03*
X017297Y010749D03*
D175*
X017301Y010756D03*
X017301Y010762D03*
D176*
X017304Y010768D03*
X017304Y010774D03*
D177*
X017307Y010781D03*
X017307Y010787D03*
D178*
X017310Y010793D03*
X017310Y010800D03*
D179*
X017313Y010806D03*
X017313Y010812D03*
D180*
X017316Y010819D03*
D181*
X017320Y010825D03*
X017320Y010831D03*
D182*
X017323Y010837D03*
D183*
X017326Y010844D03*
X017326Y010850D03*
D184*
X017329Y010856D03*
D185*
X017332Y010863D03*
D186*
X017335Y010869D03*
X017335Y010875D03*
D187*
X017338Y010881D03*
D188*
X017342Y010888D03*
D189*
X017345Y010894D03*
D190*
X017348Y010900D03*
D191*
X017351Y010907D03*
D192*
X017354Y010913D03*
D193*
X017357Y010919D03*
D194*
X017360Y010926D03*
D195*
X017364Y010932D03*
D196*
X017367Y010938D03*
D197*
X017370Y010944D03*
D198*
X017373Y010951D03*
D199*
X014349Y010957D03*
D200*
X014387Y011007D03*
D201*
X014431Y011052D03*
D202*
X014441Y011058D03*
D203*
X014450Y011064D03*
D204*
X014460Y011070D03*
D205*
X014472Y011077D03*
D206*
X014488Y011083D03*
D207*
X014520Y011089D03*
D208*
X010366Y012854D02*
X010366Y001661D01*
X009866Y001661D01*
X009866Y001161D01*
X009185Y001161D01*
X004854Y001161D02*
X004116Y001161D01*
X004116Y001661D01*
X003616Y001661D01*
X003577Y001661D02*
X003577Y012854D01*
X010366Y012854D01*
X004945Y014421D02*
X004945Y014921D01*
X004813Y014921D02*
X004813Y014421D01*
X004563Y014171D01*
X003063Y014171D01*
X002813Y014421D01*
X002813Y014921D01*
X003063Y015171D01*
X004563Y015171D01*
X004813Y015421D01*
X004813Y015921D01*
X004563Y016171D01*
X003063Y016171D01*
X002813Y016421D01*
X002813Y016921D01*
X003063Y017171D01*
X004563Y017171D01*
X004813Y016921D01*
X004813Y016421D01*
X004563Y016171D01*
X004563Y015171D02*
X004813Y014921D01*
X003063Y015171D02*
X002813Y015421D01*
X002813Y015921D01*
X003063Y016171D01*
X002902Y012444D02*
X002402Y012444D01*
X002152Y012194D01*
X002152Y011694D01*
X002402Y011444D01*
X002902Y011444D01*
X003152Y011194D01*
X003152Y010694D01*
X002902Y010444D01*
X002402Y010444D01*
X002152Y010694D01*
X002152Y011194D01*
X002402Y011444D01*
X002902Y011444D02*
X003152Y011694D01*
X003152Y012194D01*
X002902Y012444D01*
X002902Y010444D02*
X003152Y010194D01*
X003152Y009694D01*
X002902Y009444D01*
X002402Y009444D01*
X002152Y009694D01*
X002152Y010194D01*
X002402Y010444D01*
X002402Y009444D02*
X002152Y009194D01*
X002152Y008694D01*
X002402Y008444D01*
X002902Y008444D01*
X003152Y008194D01*
X003152Y007694D01*
X002902Y007444D01*
X002402Y007444D01*
X002152Y007694D01*
X002152Y008194D01*
X002402Y008444D01*
X002902Y008444D02*
X003152Y008694D01*
X003152Y009194D01*
X002902Y009444D01*
X002902Y007444D02*
X003152Y007194D01*
X003152Y006694D01*
X002902Y006444D01*
X002402Y006444D01*
X002152Y006694D01*
X002152Y007194D01*
X002402Y007444D01*
X015794Y021975D02*
X015794Y022763D01*
X016197Y022369D01*
X015794Y021975D01*
X012532Y022719D02*
X012119Y022719D01*
X012325Y022926D02*
X012325Y022512D01*
X010303Y022726D02*
X009889Y022726D01*
X018317Y017460D02*
X018319Y017475D01*
X018325Y017488D01*
X018334Y017500D01*
X018345Y017509D01*
X018359Y017515D01*
X018374Y017517D01*
X018389Y017515D01*
X018402Y017509D01*
X018414Y017500D01*
X018423Y017489D01*
X018429Y017475D01*
X018431Y017460D01*
X018429Y017445D01*
X018423Y017432D01*
X018414Y017420D01*
X018403Y017411D01*
X018389Y017405D01*
X018374Y017403D01*
X018359Y017405D01*
X018346Y017411D01*
X018334Y017420D01*
X018325Y017431D01*
X018319Y017445D01*
X018317Y017460D01*
X019215Y017706D02*
X020617Y017706D01*
X020617Y016005D01*
X019215Y016005D01*
X019215Y017706D01*
X019511Y021978D02*
X019511Y022765D01*
X019914Y022371D01*
X019511Y021978D01*
D209*
X018697Y021621D02*
X020477Y021621D01*
X021290Y021719D02*
X021290Y022029D01*
X021445Y022029D01*
X021497Y021978D01*
X021497Y021874D01*
X021445Y021823D01*
X021290Y021823D01*
X021394Y021823D02*
X021497Y021719D01*
X021613Y021874D02*
X021819Y021874D01*
X021768Y021719D02*
X021768Y022029D01*
X021613Y021874D01*
X022534Y020999D02*
X022534Y020740D01*
X022586Y020689D01*
X022690Y020689D01*
X022741Y020740D01*
X022741Y020999D01*
X022857Y020895D02*
X022960Y020999D01*
X022960Y020689D01*
X022857Y020689D02*
X023064Y020689D01*
X024359Y019729D02*
X024359Y019522D01*
X024514Y019522D01*
X024462Y019626D01*
X024462Y019677D01*
X024514Y019729D01*
X024617Y019729D01*
X024669Y019677D01*
X024669Y019574D01*
X024617Y019522D01*
X024669Y019407D02*
X024565Y019303D01*
X024565Y019355D02*
X024565Y019200D01*
X024561Y019116D02*
X024509Y019064D01*
X024509Y018909D01*
X024612Y018909D01*
X024664Y018961D01*
X024664Y019064D01*
X024612Y019116D01*
X024561Y019116D01*
X024669Y019200D02*
X024359Y019200D01*
X024359Y019355D01*
X024410Y019407D01*
X024514Y019407D01*
X024565Y019355D01*
X024354Y019116D02*
X024406Y019012D01*
X024509Y018909D01*
X024509Y018793D02*
X024561Y018742D01*
X024561Y018587D01*
X024561Y018690D02*
X024664Y018793D01*
X024509Y018793D02*
X024406Y018793D01*
X024354Y018742D01*
X024354Y018587D01*
X024664Y018587D01*
X024522Y018403D02*
X024522Y018093D01*
X024419Y018093D02*
X024625Y018093D01*
X024419Y018299D02*
X024522Y018403D01*
X024303Y018093D02*
X024096Y018093D01*
X024096Y018403D01*
X020507Y015147D02*
X020507Y015043D01*
X020455Y014992D01*
X020455Y014876D02*
X020507Y014825D01*
X020507Y014721D01*
X020455Y014669D01*
X020248Y014669D01*
X020197Y014721D01*
X020197Y014825D01*
X020248Y014876D01*
X020248Y014992D02*
X020197Y015043D01*
X020197Y015147D01*
X020248Y015199D01*
X020300Y015199D01*
X020352Y015147D01*
X020404Y015199D01*
X020455Y015199D01*
X020507Y015147D01*
X020352Y015147D02*
X020352Y015095D01*
X021241Y013644D02*
X021189Y013592D01*
X021189Y013489D01*
X021241Y013437D01*
X021293Y013437D01*
X021344Y013489D01*
X021344Y013644D01*
X021241Y013644D02*
X021448Y013644D01*
X021500Y013592D01*
X021500Y013489D01*
X021448Y013437D01*
X021448Y013322D02*
X021500Y013270D01*
X021500Y013167D01*
X021448Y013115D01*
X021241Y013115D01*
X021189Y013167D01*
X021189Y013270D01*
X021241Y013322D01*
X021601Y013270D02*
X021601Y013167D01*
X021653Y013115D01*
X021860Y013115D01*
X021911Y013167D01*
X021911Y013270D01*
X021860Y013322D01*
X021860Y013437D02*
X021911Y013489D01*
X021911Y013592D01*
X021860Y013644D01*
X021756Y013644D01*
X021705Y013592D01*
X021705Y013541D01*
X021756Y013437D01*
X021601Y013437D01*
X021601Y013644D01*
X021653Y013322D02*
X021601Y013270D01*
X022016Y013275D02*
X022016Y013171D01*
X022068Y013119D01*
X022275Y013119D01*
X022327Y013171D01*
X022327Y013275D01*
X022275Y013326D01*
X022172Y013442D02*
X022172Y013649D01*
X022327Y013597D02*
X022016Y013597D01*
X022172Y013442D01*
X022068Y013326D02*
X022016Y013275D01*
X021535Y012211D02*
X021432Y012211D01*
X021380Y012159D01*
X021265Y012211D02*
X021265Y011952D01*
X021213Y011900D01*
X021110Y011900D01*
X021058Y011952D01*
X021058Y012211D01*
X021380Y011900D02*
X021587Y012107D01*
X021587Y012159D01*
X021535Y012211D01*
X021587Y011900D02*
X021380Y011900D01*
X024576Y007453D02*
X024576Y007246D01*
X024576Y007350D02*
X024266Y007350D01*
X024369Y007246D01*
X024266Y007131D02*
X024266Y006924D01*
X024266Y007027D02*
X024576Y007027D01*
X024576Y006809D02*
X024266Y006809D01*
X024266Y006602D02*
X024576Y006809D01*
X024576Y006602D02*
X024266Y006602D01*
X024369Y006486D02*
X024266Y006383D01*
X024369Y006279D01*
X024576Y006279D01*
X024421Y006279D02*
X024421Y006486D01*
X024369Y006486D02*
X024576Y006486D01*
X023959Y003990D02*
X023959Y003783D01*
X023959Y003887D02*
X023648Y003887D01*
X023752Y003783D01*
X023752Y003668D02*
X023700Y003668D01*
X023648Y003616D01*
X023648Y003513D01*
X023700Y003461D01*
X023700Y003346D02*
X023648Y003294D01*
X023648Y003191D01*
X023700Y003139D01*
X023907Y003139D01*
X023959Y003191D01*
X023959Y003294D01*
X023907Y003346D01*
X023959Y003461D02*
X023752Y003668D01*
X023959Y003668D02*
X023959Y003461D01*
X023459Y003461D02*
X023252Y003668D01*
X023200Y003668D01*
X023148Y003616D01*
X023148Y003513D01*
X023200Y003461D01*
X023200Y003346D02*
X023148Y003294D01*
X023148Y003191D01*
X023200Y003139D01*
X023407Y003139D01*
X023459Y003191D01*
X023459Y003294D01*
X023407Y003346D01*
X023459Y003461D02*
X023459Y003668D01*
X023459Y003783D02*
X023252Y003990D01*
X023200Y003990D01*
X023148Y003939D01*
X023148Y003835D01*
X023200Y003783D01*
X022959Y003835D02*
X022959Y003939D01*
X022907Y003990D01*
X022700Y003990D01*
X022648Y003939D01*
X022648Y003835D01*
X022700Y003783D01*
X022752Y003783D01*
X022803Y003835D01*
X022803Y003990D01*
X022959Y003835D02*
X022907Y003783D01*
X022959Y003668D02*
X022959Y003461D01*
X022959Y003565D02*
X022648Y003565D01*
X022752Y003461D01*
X022700Y003346D02*
X022648Y003294D01*
X022648Y003191D01*
X022700Y003139D01*
X022907Y003139D01*
X022959Y003191D01*
X022959Y003294D01*
X022907Y003346D01*
X023459Y003783D02*
X023459Y003990D01*
X020138Y001382D02*
X020138Y000922D01*
X020215Y001152D02*
X019908Y001152D01*
X020138Y001382D01*
X019601Y001382D02*
X019601Y000922D01*
X019448Y000922D02*
X019755Y000922D01*
X019448Y001229D02*
X019601Y001382D01*
X019294Y001305D02*
X019294Y000998D01*
X019217Y000922D01*
X019064Y000922D01*
X018987Y000998D01*
X019294Y001305D01*
X019217Y001382D01*
X019064Y001382D01*
X018987Y001305D01*
X018987Y000998D01*
X018834Y000922D02*
X018527Y000922D01*
X018834Y001229D01*
X018834Y001305D01*
X018757Y001382D01*
X018604Y001382D01*
X018527Y001305D01*
X017913Y001152D02*
X017913Y000922D01*
X017913Y001152D02*
X017836Y001229D01*
X017683Y001229D01*
X017606Y001152D01*
X017453Y001229D02*
X017222Y001229D01*
X017146Y001152D01*
X017146Y000998D01*
X017222Y000922D01*
X017453Y000922D01*
X017606Y000922D02*
X017606Y001382D01*
X016992Y001229D02*
X016915Y001229D01*
X016762Y001075D01*
X016762Y000922D02*
X016762Y001229D01*
X016609Y001152D02*
X016609Y000922D01*
X016378Y000922D01*
X016302Y000998D01*
X016378Y001075D01*
X016609Y001075D01*
X016609Y001152D02*
X016532Y001229D01*
X016378Y001229D01*
X016148Y001152D02*
X016148Y000922D01*
X015995Y000922D02*
X015995Y001152D01*
X016071Y001229D01*
X016148Y001152D01*
X015995Y001152D02*
X015918Y001229D01*
X015841Y001229D01*
X015841Y000922D01*
X015227Y000998D02*
X015151Y000922D01*
X014997Y000922D01*
X014920Y000998D01*
X014920Y001075D01*
X014997Y001152D01*
X015151Y001152D01*
X015227Y001075D01*
X015227Y000998D01*
X015151Y001152D02*
X015227Y001229D01*
X015227Y001305D01*
X015151Y001382D01*
X014997Y001382D01*
X014920Y001305D01*
X014920Y001229D01*
X014997Y001152D01*
X014767Y000998D02*
X014767Y000922D01*
X014690Y000922D01*
X014690Y000998D01*
X014767Y000998D01*
X014537Y000922D02*
X014230Y000922D01*
X014537Y001229D01*
X014537Y001305D01*
X014460Y001382D01*
X014307Y001382D01*
X014230Y001305D01*
X014076Y001229D02*
X013923Y000922D01*
X013769Y001229D01*
X011686Y001918D02*
X011634Y001866D01*
X011531Y001866D01*
X011479Y001918D01*
X011686Y002124D01*
X011686Y001918D01*
X011686Y002124D02*
X011634Y002176D01*
X011531Y002176D01*
X011479Y002124D01*
X011479Y001918D01*
X011364Y001866D02*
X011157Y001866D01*
X011364Y002073D01*
X011364Y002124D01*
X011312Y002176D01*
X011209Y002176D01*
X011157Y002124D01*
X011042Y002124D02*
X010990Y002176D01*
X010887Y002176D01*
X010835Y002124D01*
X010835Y001918D01*
X010887Y001866D01*
X010990Y001866D01*
X011042Y001918D01*
X011039Y002307D02*
X010935Y002411D01*
X010987Y002411D02*
X010832Y002411D01*
X010832Y002307D02*
X010832Y002618D01*
X010987Y002618D01*
X011039Y002566D01*
X011039Y002463D01*
X010987Y002411D01*
X011154Y002514D02*
X011258Y002618D01*
X011258Y002307D01*
X011361Y002307D02*
X011154Y002307D01*
X011476Y002307D02*
X011476Y002359D01*
X011683Y002566D01*
X011683Y002618D01*
X011476Y002618D01*
X011543Y005125D02*
X011492Y005176D01*
X011492Y005228D01*
X011543Y005280D01*
X011647Y005280D01*
X011699Y005228D01*
X011699Y005176D01*
X011647Y005125D01*
X011543Y005125D01*
X011543Y005280D02*
X011492Y005332D01*
X011492Y005383D01*
X011543Y005435D01*
X011647Y005435D01*
X011699Y005383D01*
X011699Y005332D01*
X011647Y005280D01*
X011661Y005548D02*
X011713Y005600D01*
X011713Y005807D01*
X011661Y005858D01*
X011558Y005858D01*
X011506Y005807D01*
X011506Y005755D01*
X011558Y005703D01*
X011713Y005703D01*
X011661Y005548D02*
X011558Y005548D01*
X011506Y005600D01*
X011391Y005548D02*
X011184Y005548D01*
X011287Y005548D02*
X011287Y005858D01*
X011184Y005755D01*
X011068Y005807D02*
X011068Y005703D01*
X011017Y005651D01*
X010862Y005651D01*
X010965Y005651D02*
X011068Y005548D01*
X011002Y005435D02*
X011054Y005383D01*
X011054Y005280D01*
X011002Y005228D01*
X010847Y005228D01*
X010847Y005125D02*
X010847Y005435D01*
X011002Y005435D01*
X010862Y005548D02*
X010862Y005858D01*
X011017Y005858D01*
X011068Y005807D01*
X011273Y005435D02*
X011273Y005125D01*
X011376Y005125D02*
X011169Y005125D01*
X011054Y005125D02*
X010951Y005228D01*
X011169Y005332D02*
X011273Y005435D01*
X010773Y007059D02*
X010825Y007111D01*
X010825Y007214D01*
X010773Y007266D01*
X010825Y007381D02*
X010825Y007588D01*
X010825Y007485D02*
X010514Y007485D01*
X010618Y007381D01*
X010566Y007266D02*
X010514Y007214D01*
X010514Y007111D01*
X010566Y007059D01*
X010773Y007059D01*
X010773Y007704D02*
X010825Y007755D01*
X010825Y007859D01*
X010773Y007910D01*
X010670Y007910D01*
X010618Y007859D01*
X010618Y007807D01*
X010670Y007704D01*
X010514Y007704D01*
X010514Y007910D01*
X011200Y011289D02*
X011304Y011289D01*
X011355Y011341D01*
X011471Y011341D02*
X011523Y011289D01*
X011626Y011289D01*
X011678Y011341D01*
X011678Y011392D01*
X011626Y011444D01*
X011471Y011444D01*
X011471Y011341D01*
X011471Y011444D02*
X011574Y011547D01*
X011678Y011599D01*
X011355Y011547D02*
X011304Y011599D01*
X011200Y011599D01*
X011149Y011547D01*
X011149Y011341D01*
X011200Y011289D01*
X012575Y012569D02*
X012834Y012569D01*
X012886Y012621D01*
X012886Y012724D01*
X012834Y012776D01*
X012575Y012776D01*
X012730Y012891D02*
X012730Y013098D01*
X012575Y013046D02*
X012730Y012891D01*
X012886Y013046D02*
X012575Y013046D01*
X012515Y013927D02*
X012308Y013927D01*
X012515Y014134D01*
X012515Y014186D01*
X012463Y014238D01*
X012360Y014238D01*
X012308Y014186D01*
X012193Y014186D02*
X012193Y014082D01*
X012141Y014031D01*
X011986Y014031D01*
X012089Y014031D02*
X012193Y013927D01*
X011986Y013927D02*
X011986Y014238D01*
X012141Y014238D01*
X012193Y014186D01*
X012200Y014446D02*
X012097Y014549D01*
X012148Y014549D02*
X011993Y014549D01*
X011993Y014446D02*
X011993Y014756D01*
X012148Y014756D01*
X012200Y014704D01*
X012200Y014601D01*
X012148Y014549D01*
X012315Y014446D02*
X012522Y014653D01*
X012522Y014704D01*
X012470Y014756D01*
X012367Y014756D01*
X012315Y014704D01*
X012315Y014446D02*
X012522Y014446D01*
X012638Y014446D02*
X012638Y014497D01*
X012844Y014704D01*
X012844Y014756D01*
X012638Y014756D01*
X012528Y014989D02*
X012321Y014989D01*
X012424Y014989D02*
X012424Y015299D01*
X012321Y015196D01*
X012205Y015247D02*
X012154Y015299D01*
X012050Y015299D01*
X011999Y015247D01*
X011999Y015041D01*
X012050Y014989D01*
X012154Y014989D01*
X012205Y015041D01*
X012643Y015144D02*
X012850Y015144D01*
X012798Y014989D02*
X012798Y015299D01*
X012643Y015144D01*
X012526Y015601D02*
X012319Y015601D01*
X012526Y015808D01*
X012526Y015859D01*
X012474Y015911D01*
X012370Y015911D01*
X012319Y015859D01*
X012203Y015859D02*
X012203Y015756D01*
X012152Y015704D01*
X011996Y015704D01*
X011996Y015601D02*
X011996Y015911D01*
X012152Y015911D01*
X012203Y015859D01*
X012100Y015704D02*
X012203Y015601D01*
X012641Y015756D02*
X012848Y015756D01*
X012796Y015911D02*
X012641Y015756D01*
X012796Y015601D02*
X012796Y015911D01*
X012798Y016189D02*
X012695Y016189D01*
X012643Y016241D01*
X012528Y016189D02*
X012321Y016189D01*
X012424Y016189D02*
X012424Y016499D01*
X012321Y016396D01*
X012205Y016447D02*
X012154Y016499D01*
X012050Y016499D01*
X011999Y016447D01*
X011999Y016241D01*
X012050Y016189D01*
X012154Y016189D01*
X012205Y016241D01*
X012643Y016447D02*
X012695Y016499D01*
X012798Y016499D01*
X012850Y016447D01*
X012850Y016396D01*
X012798Y016344D01*
X012850Y016292D01*
X012850Y016241D01*
X012798Y016189D01*
X012798Y016344D02*
X012747Y016344D01*
X012699Y016738D02*
X012647Y016790D01*
X012699Y016738D02*
X012802Y016738D01*
X012854Y016790D01*
X012854Y016893D01*
X012802Y016945D01*
X012751Y016945D01*
X012647Y016893D01*
X012647Y017048D01*
X012854Y017048D01*
X012532Y016996D02*
X012480Y017048D01*
X012377Y017048D01*
X012325Y016996D01*
X012210Y016996D02*
X012210Y016893D01*
X012158Y016841D01*
X012003Y016841D01*
X012003Y016738D02*
X012003Y017048D01*
X012158Y017048D01*
X012210Y016996D01*
X012106Y016841D02*
X012210Y016738D01*
X012325Y016738D02*
X012532Y016945D01*
X012532Y016996D01*
X012532Y016738D02*
X012325Y016738D01*
X011407Y017352D02*
X011097Y017352D01*
X011097Y017507D01*
X011148Y017559D01*
X011252Y017559D01*
X011304Y017507D01*
X011304Y017352D01*
X011304Y017456D02*
X011407Y017559D01*
X011407Y017675D02*
X011200Y017881D01*
X011148Y017881D01*
X011097Y017830D01*
X011097Y017726D01*
X011148Y017675D01*
X011407Y017675D02*
X011407Y017881D01*
X011502Y018478D02*
X011554Y018530D01*
X011554Y018633D01*
X011502Y018685D01*
X011295Y018685D01*
X011244Y018633D01*
X011244Y018530D01*
X011295Y018478D01*
X011502Y018478D01*
X011450Y018581D02*
X011554Y018685D01*
X011554Y018800D02*
X011502Y018800D01*
X011295Y019007D01*
X011244Y019007D01*
X011244Y018800D01*
X009580Y021134D02*
X009373Y021134D01*
X009373Y021444D01*
X009258Y021444D02*
X009051Y021444D01*
X009051Y021134D01*
X009258Y021134D01*
X009154Y021289D02*
X009051Y021289D01*
X008935Y021134D02*
X008935Y021444D01*
X008729Y021444D02*
X008935Y021134D01*
X008729Y021134D02*
X008729Y021444D01*
X008613Y021341D02*
X008613Y021134D01*
X008613Y021289D02*
X008406Y021289D01*
X008406Y021341D02*
X008510Y021444D01*
X008613Y021341D01*
X008406Y021341D02*
X008406Y021134D01*
X008291Y021289D02*
X008239Y021237D01*
X008084Y021237D01*
X008084Y021134D02*
X008084Y021444D01*
X008239Y021444D01*
X008291Y021392D01*
X008291Y021289D01*
X009695Y021289D02*
X009902Y021289D01*
X007859Y019118D02*
X007859Y018911D01*
X007859Y019015D02*
X007548Y019015D01*
X007652Y018911D01*
X007548Y018796D02*
X007859Y018589D01*
X007859Y018796D02*
X007548Y018589D01*
X006416Y016258D02*
X006467Y016206D01*
X006467Y016103D01*
X006416Y016051D01*
X006416Y015936D02*
X006157Y015936D01*
X006209Y016051D02*
X006157Y016103D01*
X006157Y016206D01*
X006209Y016258D01*
X006260Y016258D01*
X006312Y016206D01*
X006364Y016258D01*
X006416Y016258D01*
X006312Y016206D02*
X006312Y016155D01*
X006416Y015936D02*
X006467Y015884D01*
X006467Y015781D01*
X006416Y015729D01*
X006157Y015729D01*
X004859Y017539D02*
X004548Y017539D01*
X004548Y017694D01*
X004600Y017746D01*
X004703Y017746D01*
X004755Y017694D01*
X004755Y017539D01*
X004755Y017642D02*
X004859Y017746D01*
X004859Y017861D02*
X004652Y018068D01*
X004600Y018068D01*
X004548Y018016D01*
X004548Y017913D01*
X004600Y017861D01*
X004859Y017861D02*
X004859Y018068D01*
X004807Y018183D02*
X004600Y018390D01*
X004807Y018390D01*
X004859Y018339D01*
X004859Y018235D01*
X004807Y018183D01*
X004600Y018183D01*
X004548Y018235D01*
X004548Y018339D01*
X004600Y018390D01*
X004521Y018541D02*
X004521Y018696D01*
X004572Y018748D01*
X004676Y018748D01*
X004728Y018696D01*
X004728Y018541D01*
X004831Y018541D02*
X004521Y018541D01*
X004728Y018645D02*
X004831Y018748D01*
X004831Y018864D02*
X004831Y019070D01*
X004831Y018967D02*
X004521Y018967D01*
X004624Y018864D01*
X004676Y019186D02*
X004676Y019393D01*
X004831Y019341D02*
X004521Y019341D01*
X004676Y019186D01*
X004583Y020389D02*
X004490Y020389D01*
X004443Y020436D01*
X004443Y020529D02*
X004537Y020576D01*
X004583Y020576D01*
X004630Y020529D01*
X004630Y020436D01*
X004583Y020389D01*
X004443Y020529D02*
X004443Y020669D01*
X004630Y020669D01*
X004335Y020622D02*
X004335Y020436D01*
X004289Y020389D01*
X004195Y020389D01*
X004149Y020436D01*
X004149Y020622D01*
X004195Y020669D01*
X004289Y020669D01*
X004335Y020622D01*
X004242Y020482D02*
X004335Y020389D01*
X003430Y020436D02*
X003383Y020389D01*
X003290Y020389D01*
X003243Y020436D01*
X003243Y020529D01*
X003383Y020529D01*
X003430Y020482D01*
X003430Y020436D01*
X003337Y020622D02*
X003243Y020529D01*
X003337Y020622D02*
X003430Y020669D01*
X003135Y020622D02*
X003135Y020436D01*
X003089Y020389D01*
X002995Y020389D01*
X002949Y020436D01*
X002949Y020622D01*
X002995Y020669D01*
X003089Y020669D01*
X003135Y020622D01*
X003042Y020482D02*
X003135Y020389D01*
X001981Y019644D02*
X001981Y019540D01*
X001929Y019489D01*
X001981Y019373D02*
X001981Y019166D01*
X001981Y019270D02*
X001671Y019270D01*
X001774Y019166D01*
X001722Y019051D02*
X001826Y019051D01*
X001878Y018999D01*
X001878Y018844D01*
X001981Y018844D02*
X001671Y018844D01*
X001671Y018999D01*
X001722Y019051D01*
X001878Y018948D02*
X001981Y019051D01*
X002009Y018690D02*
X002009Y018483D01*
X002009Y018587D02*
X001698Y018587D01*
X001802Y018483D01*
X001802Y018368D02*
X001750Y018368D01*
X001698Y018316D01*
X001698Y018213D01*
X001750Y018161D01*
X001750Y018046D02*
X001853Y018046D01*
X001905Y017994D01*
X001905Y017839D01*
X001905Y017942D02*
X002009Y018046D01*
X002009Y018161D02*
X001802Y018368D01*
X002009Y018368D02*
X002009Y018161D01*
X002009Y017839D02*
X001698Y017839D01*
X001698Y017994D01*
X001750Y018046D01*
X002549Y017472D02*
X002549Y017286D01*
X002595Y017239D01*
X002689Y017239D01*
X002735Y017286D01*
X002843Y017286D02*
X002843Y017332D01*
X002890Y017379D01*
X002983Y017379D01*
X003030Y017332D01*
X003030Y017286D01*
X002983Y017239D01*
X002890Y017239D01*
X002843Y017286D01*
X002890Y017379D02*
X002843Y017426D01*
X002843Y017472D01*
X002890Y017519D01*
X002983Y017519D01*
X003030Y017472D01*
X003030Y017426D01*
X002983Y017379D01*
X002735Y017472D02*
X002689Y017519D01*
X002595Y017519D01*
X002549Y017472D01*
X003494Y017536D02*
X003494Y017256D01*
X003494Y017349D02*
X003634Y017349D01*
X003681Y017396D01*
X003681Y017490D01*
X003634Y017536D01*
X003494Y017536D01*
X003588Y017349D02*
X003681Y017256D01*
X003789Y017303D02*
X003836Y017256D01*
X003929Y017256D01*
X003976Y017303D01*
X003976Y017349D01*
X003929Y017396D01*
X003882Y017396D01*
X003929Y017396D02*
X003976Y017443D01*
X003976Y017490D01*
X003929Y017536D01*
X003836Y017536D01*
X003789Y017490D01*
X002518Y016483D02*
X002518Y016327D01*
X002622Y016327D02*
X002311Y016327D01*
X002311Y016483D01*
X002363Y016534D01*
X002466Y016534D01*
X002518Y016483D01*
X002518Y016212D02*
X002466Y016160D01*
X002466Y016057D01*
X002415Y016005D01*
X002363Y016005D01*
X002311Y016057D01*
X002311Y016160D01*
X002363Y016212D01*
X002518Y016212D02*
X002570Y016212D01*
X002622Y016160D01*
X002622Y016057D01*
X002570Y016005D01*
X002622Y015894D02*
X002622Y015790D01*
X002622Y015842D02*
X002311Y015842D01*
X002311Y015790D02*
X002311Y015894D01*
X002363Y015675D02*
X002466Y015675D01*
X002518Y015623D01*
X002518Y015468D01*
X002518Y015572D02*
X002622Y015675D01*
X002622Y015468D02*
X002311Y015468D01*
X002311Y015623D01*
X002363Y015675D01*
X002311Y015353D02*
X002518Y015353D01*
X002622Y015249D01*
X002518Y015146D01*
X002311Y015146D01*
X002415Y015030D02*
X002622Y015030D01*
X002466Y015030D02*
X002466Y014824D01*
X002415Y014824D02*
X002311Y014927D01*
X002415Y015030D01*
X002415Y014824D02*
X002622Y014824D01*
X004689Y013611D02*
X004689Y013508D01*
X004741Y013456D01*
X004741Y013341D02*
X004689Y013289D01*
X004689Y013186D01*
X004741Y013134D01*
X004948Y013134D01*
X005000Y013186D01*
X005000Y013289D01*
X004948Y013341D01*
X005000Y013456D02*
X004793Y013663D01*
X004741Y013663D01*
X004689Y013611D01*
X005000Y013663D02*
X005000Y013456D01*
X006448Y013461D02*
X006448Y013668D01*
X006500Y013668D01*
X006707Y013461D01*
X006759Y013461D01*
X006707Y013346D02*
X006759Y013294D01*
X006759Y013191D01*
X006707Y013139D01*
X006500Y013139D01*
X006448Y013191D01*
X006448Y013294D01*
X006500Y013346D01*
X012631Y013979D02*
X012682Y013927D01*
X012786Y013927D01*
X012837Y013979D01*
X012837Y014031D01*
X012786Y014082D01*
X012631Y014082D01*
X012631Y013979D01*
X012631Y014082D02*
X012734Y014186D01*
X012837Y014238D01*
X014048Y014294D02*
X014048Y014139D01*
X014359Y014139D01*
X014255Y014139D02*
X014255Y014294D01*
X014203Y014346D01*
X014100Y014346D01*
X014048Y014294D01*
X014100Y014461D02*
X014048Y014513D01*
X014048Y014616D01*
X014100Y014668D01*
X014152Y014668D01*
X014359Y014461D01*
X014359Y014668D01*
X014359Y014783D02*
X014152Y014990D01*
X014100Y014990D01*
X014048Y014939D01*
X014048Y014835D01*
X014100Y014783D01*
X014359Y014783D02*
X014359Y014990D01*
X014521Y014942D02*
X014573Y014993D01*
X014780Y014786D01*
X014831Y014838D01*
X014831Y014942D01*
X014780Y014993D01*
X014573Y014993D01*
X014521Y014942D02*
X014521Y014838D01*
X014573Y014786D01*
X014780Y014786D01*
X014831Y014671D02*
X014831Y014464D01*
X014831Y014568D02*
X014521Y014568D01*
X014625Y014464D01*
X014676Y014349D02*
X014728Y014297D01*
X014728Y014142D01*
X014728Y014245D02*
X014831Y014349D01*
X014948Y014294D02*
X015000Y014346D01*
X015207Y014346D01*
X015259Y014294D01*
X015259Y014191D01*
X015207Y014139D01*
X015000Y014139D01*
X014948Y014191D01*
X014948Y014294D01*
X014831Y014142D02*
X014521Y014142D01*
X014521Y014297D01*
X014573Y014349D01*
X014676Y014349D01*
X014359Y014346D02*
X014255Y014242D01*
X014948Y014565D02*
X015259Y014565D01*
X015259Y014668D02*
X015259Y014461D01*
X015259Y014346D02*
X015155Y014242D01*
X015052Y014461D02*
X014948Y014565D01*
X015396Y014521D02*
X015448Y014469D01*
X015500Y014469D01*
X015551Y014521D01*
X015551Y014676D01*
X015448Y014676D02*
X015655Y014676D01*
X015707Y014624D01*
X015707Y014521D01*
X015655Y014469D01*
X015707Y014353D02*
X015603Y014250D01*
X015603Y014302D02*
X015603Y014147D01*
X015707Y014147D02*
X015396Y014147D01*
X015396Y014302D01*
X015448Y014353D01*
X015551Y014353D01*
X015603Y014302D01*
X015396Y014521D02*
X015396Y014624D01*
X015448Y014676D01*
X014183Y016365D02*
X013873Y016365D01*
X013873Y016520D01*
X013925Y016572D01*
X014028Y016572D01*
X014080Y016520D01*
X014080Y016365D01*
X014080Y016469D02*
X014183Y016572D01*
X014132Y016688D02*
X014183Y016739D01*
X014183Y016843D01*
X014132Y016894D01*
X014080Y016894D01*
X014028Y016843D01*
X014028Y016739D01*
X013977Y016688D01*
X013925Y016688D01*
X013873Y016739D01*
X013873Y016843D01*
X013925Y016894D01*
X013873Y017010D02*
X014183Y017010D01*
X014183Y017217D01*
X014183Y017332D02*
X013873Y017332D01*
X014183Y017539D01*
X013873Y017539D01*
X013925Y017654D02*
X013977Y017654D01*
X014028Y017706D01*
X014028Y017810D01*
X014080Y017861D01*
X014132Y017861D01*
X014183Y017810D01*
X014183Y017706D01*
X014132Y017654D01*
X013925Y017654D02*
X013873Y017706D01*
X013873Y017810D01*
X013925Y017861D01*
X013873Y017977D02*
X014183Y017977D01*
X014183Y018183D01*
X014028Y018080D02*
X014028Y017977D01*
X013873Y017977D02*
X013873Y018183D01*
X013873Y017217D02*
X013873Y017010D01*
X014028Y017010D02*
X014028Y017113D01*
X016299Y017025D02*
X016454Y017025D01*
X016403Y017129D01*
X016403Y017180D01*
X016454Y017232D01*
X016558Y017232D01*
X016609Y017180D01*
X016609Y017077D01*
X016558Y017025D01*
X016558Y016910D02*
X016299Y016910D01*
X016299Y017025D02*
X016299Y017232D01*
X016558Y016910D02*
X016609Y016858D01*
X016609Y016755D01*
X016558Y016703D01*
X016299Y016703D01*
X019047Y019130D02*
X019098Y019079D01*
X019305Y019079D01*
X019357Y019130D01*
X019357Y019234D01*
X019305Y019286D01*
X019357Y019401D02*
X019150Y019608D01*
X019098Y019608D01*
X019047Y019556D01*
X019047Y019453D01*
X019098Y019401D01*
X019098Y019286D02*
X019047Y019234D01*
X019047Y019130D01*
X019357Y019401D02*
X019357Y019608D01*
X019202Y019723D02*
X019202Y019930D01*
X019357Y019878D02*
X019047Y019878D01*
X019202Y019723D01*
X019304Y020331D02*
X019252Y020383D01*
X019252Y020589D01*
X019304Y020641D01*
X019407Y020641D01*
X019459Y020589D01*
X019574Y020538D02*
X019678Y020641D01*
X019678Y020331D01*
X019781Y020331D02*
X019574Y020331D01*
X019459Y020383D02*
X019407Y020331D01*
X019304Y020331D01*
X019897Y020331D02*
X020104Y020331D01*
X020000Y020331D02*
X020000Y020641D01*
X019897Y020538D01*
X018652Y021320D02*
X018445Y021320D01*
X018548Y021217D02*
X018548Y021424D01*
X018330Y021165D02*
X018123Y021165D01*
X018123Y021476D01*
X018007Y021476D02*
X017800Y021476D01*
X017800Y021165D01*
X018007Y021165D01*
X017904Y021320D02*
X017800Y021320D01*
X017685Y021165D02*
X017685Y021476D01*
X017478Y021476D02*
X017478Y021165D01*
X017363Y021165D02*
X017363Y021372D01*
X017259Y021476D01*
X017156Y021372D01*
X017156Y021165D01*
X017156Y021320D02*
X017363Y021320D01*
X017478Y021476D02*
X017685Y021165D01*
X017040Y021320D02*
X016989Y021269D01*
X016834Y021269D01*
X016834Y021165D02*
X016834Y021476D01*
X016989Y021476D01*
X017040Y021424D01*
X017040Y021320D01*
X016760Y021619D02*
X014980Y021619D01*
X014074Y021049D02*
X014074Y020739D01*
X013971Y020739D02*
X014178Y020739D01*
X013971Y020946D02*
X014074Y021049D01*
X013855Y021049D02*
X013649Y021049D01*
X013649Y020739D01*
X013649Y020894D02*
X013752Y020894D01*
X014980Y023119D02*
X016760Y023119D01*
X017371Y022603D02*
X017526Y022447D01*
X017526Y022654D01*
X017681Y022603D02*
X017371Y022603D01*
X017422Y022332D02*
X017371Y022280D01*
X017371Y022125D01*
X017681Y022125D01*
X017681Y022280D01*
X017629Y022332D01*
X017422Y022332D01*
X017801Y022285D02*
X017801Y022130D01*
X018111Y022130D01*
X018111Y022285D01*
X018059Y022337D01*
X017852Y022337D01*
X017801Y022285D01*
X017852Y022453D02*
X017801Y022504D01*
X017801Y022608D01*
X017852Y022659D01*
X017904Y022659D01*
X018111Y022453D01*
X018111Y022659D01*
X018697Y023121D02*
X020477Y023121D01*
X020213Y018562D02*
X020264Y018510D01*
X020264Y018458D01*
X020213Y018407D01*
X020109Y018407D01*
X020057Y018458D01*
X020057Y018510D01*
X020109Y018562D01*
X020213Y018562D01*
X020213Y018407D02*
X020264Y018355D01*
X020264Y018303D01*
X020213Y018251D01*
X020109Y018251D01*
X020057Y018303D01*
X020057Y018355D01*
X020109Y018407D01*
X019942Y018510D02*
X019890Y018562D01*
X019735Y018562D01*
X019735Y018251D01*
X019890Y018251D01*
X019942Y018303D01*
X019942Y018510D01*
X003309Y006167D02*
X003205Y006063D01*
X003205Y006115D02*
X003205Y005960D01*
X003309Y005960D02*
X002998Y005960D01*
X002998Y006115D01*
X003050Y006167D01*
X003153Y006167D01*
X003205Y006115D01*
X003309Y005844D02*
X003309Y005637D01*
X002998Y005637D01*
X002998Y005844D01*
X003153Y005741D02*
X003153Y005637D01*
X003050Y005522D02*
X002998Y005470D01*
X002998Y005315D01*
X003309Y005315D01*
X003309Y005470D01*
X003257Y005522D01*
X003050Y005522D01*
X002798Y005489D02*
X002488Y005489D01*
X002488Y005386D02*
X002488Y005593D01*
X002488Y005708D02*
X002488Y005915D01*
X002488Y005811D02*
X002798Y005811D01*
X002798Y006030D02*
X002798Y006237D01*
X002798Y006030D02*
X002488Y006030D01*
X002998Y004993D02*
X003309Y004993D01*
X003309Y005200D01*
X003257Y004877D02*
X003050Y004877D01*
X002998Y004826D01*
X002998Y004722D01*
X003050Y004671D01*
X003257Y004671D01*
X003309Y004722D01*
X003309Y004826D01*
X003257Y004877D01*
X003309Y004555D02*
X002998Y004555D01*
X003153Y004555D02*
X003153Y004348D01*
X002998Y004348D02*
X003309Y004348D01*
X003309Y004233D02*
X002998Y004233D01*
X003102Y004129D01*
X002998Y004026D01*
X003309Y004026D01*
X003309Y003915D02*
X003309Y003811D01*
X003309Y003863D02*
X002998Y003863D01*
X002998Y003811D02*
X002998Y003915D01*
X003050Y003696D02*
X002998Y003644D01*
X002998Y003541D01*
X003050Y003489D01*
X003102Y003489D01*
X003153Y003541D01*
X003153Y003644D01*
X003205Y003696D01*
X003257Y003696D01*
X003309Y003644D01*
X003309Y003541D01*
X003257Y003489D01*
X001722Y019489D02*
X001671Y019540D01*
X001671Y019644D01*
X001722Y019696D01*
X001774Y019696D01*
X001826Y019644D01*
X001878Y019696D01*
X001929Y019696D01*
X001981Y019644D01*
X001826Y019644D02*
X001826Y019592D01*
D210*
X003044Y020875D02*
X003190Y020875D01*
X003274Y020875D02*
X003274Y021095D01*
X003421Y020875D01*
X003421Y021095D01*
X003504Y021022D02*
X003577Y021095D01*
X003651Y021022D01*
X003651Y020875D01*
X003734Y020875D02*
X003844Y020875D01*
X003881Y020912D01*
X003881Y020949D01*
X003844Y020985D01*
X003734Y020985D01*
X003651Y020985D02*
X003504Y020985D01*
X003504Y021022D02*
X003504Y020875D01*
X003734Y020875D02*
X003734Y021095D01*
X003844Y021095D01*
X003881Y021059D01*
X003881Y021022D01*
X003844Y020985D01*
X003964Y021095D02*
X003964Y020875D01*
X004111Y020875D01*
X004195Y020875D02*
X004341Y020875D01*
X004425Y020875D02*
X004535Y020875D01*
X004572Y020912D01*
X004572Y021059D01*
X004535Y021095D01*
X004425Y021095D01*
X004425Y020875D01*
X004268Y020985D02*
X004195Y020985D01*
X004195Y021095D02*
X004195Y020875D01*
X004195Y021095D02*
X004341Y021095D01*
X004345Y021213D02*
X004345Y021433D01*
X004428Y021396D02*
X004428Y021249D01*
X004465Y021213D01*
X004538Y021213D01*
X004575Y021249D01*
X004575Y021323D01*
X004502Y021323D01*
X004575Y021396D02*
X004538Y021433D01*
X004465Y021433D01*
X004428Y021396D01*
X004414Y021550D02*
X004414Y021770D01*
X004524Y021770D01*
X004561Y021734D01*
X004561Y021660D01*
X004524Y021623D01*
X004414Y021623D01*
X004488Y021623D02*
X004561Y021550D01*
X004331Y021550D02*
X004184Y021550D01*
X004184Y021770D01*
X004331Y021770D01*
X004354Y021884D02*
X004354Y022104D01*
X004438Y022104D02*
X004584Y022104D01*
X004511Y022104D02*
X004511Y021884D01*
X004354Y021994D02*
X004207Y021994D01*
X004124Y021994D02*
X004051Y021994D01*
X004124Y021994D02*
X004124Y021921D01*
X004087Y021884D01*
X004014Y021884D01*
X003977Y021921D01*
X003977Y022067D01*
X004014Y022104D01*
X004087Y022104D01*
X004124Y022067D01*
X004207Y022104D02*
X004207Y021884D01*
X004101Y021770D02*
X004101Y021550D01*
X004027Y021623D01*
X003954Y021550D01*
X003954Y021770D01*
X003871Y021734D02*
X003834Y021770D01*
X003760Y021770D01*
X003724Y021734D01*
X003724Y021587D01*
X003760Y021550D01*
X003834Y021550D01*
X003871Y021587D01*
X003871Y021734D01*
X003860Y021884D02*
X003860Y022104D01*
X003824Y022104D02*
X003897Y022104D01*
X003994Y022234D02*
X003994Y022454D01*
X004140Y022234D01*
X004140Y022454D01*
X004224Y022454D02*
X004224Y022234D01*
X004371Y022234D01*
X004297Y022344D02*
X004224Y022344D01*
X004224Y022454D02*
X004371Y022454D01*
X004454Y022454D02*
X004601Y022454D01*
X004527Y022454D02*
X004527Y022234D01*
X004258Y021660D02*
X004184Y021660D01*
X004198Y021433D02*
X004345Y021213D01*
X004198Y021213D02*
X004198Y021433D01*
X004118Y021433D02*
X004045Y021433D01*
X004081Y021433D02*
X004081Y021213D01*
X004045Y021213D02*
X004118Y021213D01*
X003961Y021249D02*
X003961Y021323D01*
X003888Y021323D01*
X003961Y021396D02*
X003924Y021433D01*
X003851Y021433D01*
X003814Y021396D01*
X003814Y021249D01*
X003851Y021213D01*
X003924Y021213D01*
X003961Y021249D01*
X003731Y021213D02*
X003658Y021286D01*
X003694Y021286D02*
X003584Y021286D01*
X003584Y021213D02*
X003584Y021433D01*
X003694Y021433D01*
X003731Y021396D01*
X003731Y021323D01*
X003694Y021286D01*
X003501Y021323D02*
X003354Y021323D01*
X003354Y021359D02*
X003427Y021433D01*
X003501Y021359D01*
X003501Y021213D01*
X003354Y021213D02*
X003354Y021359D01*
X003271Y021323D02*
X003124Y021323D01*
X003124Y021213D02*
X003124Y021433D01*
X003040Y021396D02*
X003004Y021433D01*
X002930Y021433D01*
X002894Y021396D01*
X002894Y021249D01*
X002930Y021213D01*
X003004Y021213D01*
X003040Y021249D01*
X003044Y021095D02*
X003044Y020875D01*
X003044Y020985D02*
X003117Y020985D01*
X003190Y021095D02*
X003044Y021095D01*
X003271Y021213D02*
X003271Y021433D01*
X003494Y021550D02*
X003494Y021770D01*
X003604Y021770D01*
X003640Y021734D01*
X003640Y021660D01*
X003604Y021623D01*
X003494Y021623D01*
X003594Y021884D02*
X003740Y021884D01*
X003824Y021884D02*
X003897Y021884D01*
X003594Y021884D02*
X003594Y022104D01*
X004694Y023162D02*
X004730Y023125D01*
X004804Y023125D01*
X004840Y023162D01*
X004840Y023198D01*
X004804Y023235D01*
X004730Y023235D01*
X004694Y023272D01*
X004694Y023308D01*
X004730Y023345D01*
X004804Y023345D01*
X004840Y023308D01*
X004924Y023345D02*
X005071Y023345D01*
X004997Y023345D02*
X004997Y023125D01*
X005154Y023125D02*
X005154Y023272D01*
X005227Y023345D01*
X005301Y023272D01*
X005301Y023125D01*
X005301Y023235D02*
X005154Y023235D01*
X005384Y023345D02*
X005531Y023345D01*
X005458Y023345D02*
X005458Y023125D01*
X005614Y023162D02*
X005614Y023345D01*
X005761Y023345D02*
X005761Y023162D01*
X005724Y023125D01*
X005651Y023125D01*
X005614Y023162D01*
X005845Y023162D02*
X005881Y023125D01*
X005955Y023125D01*
X005991Y023162D01*
X005991Y023198D01*
X005955Y023235D01*
X005881Y023235D01*
X005845Y023272D01*
X005845Y023308D01*
X005881Y023345D01*
X005955Y023345D01*
X005991Y023308D01*
X007567Y022937D02*
X007567Y022726D01*
X007567Y022796D02*
X007672Y022796D01*
X007707Y022832D01*
X007707Y022902D01*
X007672Y022937D01*
X007567Y022937D01*
X007637Y022796D02*
X007707Y022726D01*
X007788Y022726D02*
X007928Y022726D01*
X007858Y022726D02*
X007858Y022937D01*
X007788Y022867D01*
X008009Y022832D02*
X008079Y022867D01*
X008114Y022867D01*
X008149Y022832D01*
X008149Y022761D01*
X008114Y022726D01*
X008044Y022726D01*
X008009Y022761D01*
X008009Y022832D02*
X008009Y022937D01*
X008149Y022937D01*
X008141Y022322D02*
X008071Y022287D01*
X008001Y022217D01*
X008106Y022217D01*
X008141Y022182D01*
X008141Y022146D01*
X008106Y022111D01*
X008036Y022111D01*
X008001Y022146D01*
X008001Y022217D01*
X007920Y022111D02*
X007780Y022111D01*
X007850Y022111D02*
X007850Y022322D01*
X007780Y022252D01*
X007699Y022287D02*
X007699Y022217D01*
X007664Y022182D01*
X007559Y022182D01*
X007629Y022182D02*
X007699Y022111D01*
X007559Y022111D02*
X007559Y022322D01*
X007664Y022322D01*
X007699Y022287D01*
X007690Y021479D02*
X007725Y021444D01*
X007725Y021374D01*
X007690Y021339D01*
X007585Y021339D01*
X007655Y021339D02*
X007725Y021269D01*
X007806Y021269D02*
X007946Y021269D01*
X007876Y021269D02*
X007876Y021479D01*
X007806Y021409D01*
X007690Y021479D02*
X007585Y021479D01*
X007585Y021269D01*
X007577Y020675D02*
X007683Y020675D01*
X007718Y020640D01*
X007718Y020570D01*
X007683Y020535D01*
X007577Y020535D01*
X007577Y020465D02*
X007577Y020675D01*
X007648Y020535D02*
X007718Y020465D01*
X007798Y020500D02*
X007798Y020535D01*
X007833Y020570D01*
X007904Y020570D01*
X007939Y020535D01*
X007939Y020500D01*
X007904Y020465D01*
X007833Y020465D01*
X007798Y020500D01*
X007833Y020570D02*
X007798Y020605D01*
X007798Y020640D01*
X007833Y020675D01*
X007904Y020675D01*
X007939Y020640D01*
X007939Y020605D01*
X007904Y020570D01*
X007942Y019751D02*
X008012Y019751D01*
X008047Y019716D01*
X008047Y019681D01*
X008012Y019646D01*
X007942Y019646D01*
X007907Y019681D01*
X007907Y019716D01*
X007942Y019751D01*
X007942Y019646D02*
X007907Y019611D01*
X007907Y019576D01*
X007942Y019541D01*
X008012Y019541D01*
X008047Y019576D01*
X008047Y019611D01*
X008012Y019646D01*
X007826Y019681D02*
X007826Y019716D01*
X007791Y019751D01*
X007721Y019751D01*
X007686Y019716D01*
X007605Y019716D02*
X007605Y019646D01*
X007570Y019611D01*
X007465Y019611D01*
X007465Y019541D02*
X007465Y019751D01*
X007570Y019751D01*
X007605Y019716D01*
X007535Y019611D02*
X007605Y019541D01*
X007686Y019541D02*
X007826Y019681D01*
X007826Y019541D02*
X007686Y019541D01*
X012028Y010434D02*
X012138Y010434D01*
X012175Y010397D01*
X012175Y010324D01*
X012138Y010287D01*
X012028Y010287D01*
X012028Y010214D02*
X012028Y010434D01*
X012102Y010287D02*
X012175Y010214D01*
X012258Y010214D02*
X012405Y010361D01*
X012405Y010397D01*
X012368Y010434D01*
X012295Y010434D01*
X012258Y010397D01*
X012258Y010214D02*
X012405Y010214D01*
X012489Y010251D02*
X012525Y010214D01*
X012599Y010214D01*
X012635Y010251D01*
X012635Y010287D01*
X012599Y010324D01*
X012562Y010324D01*
X012599Y010324D02*
X012635Y010361D01*
X012635Y010397D01*
X012599Y010434D01*
X012525Y010434D01*
X012489Y010397D01*
X011998Y009379D02*
X012046Y009330D01*
X012046Y009282D01*
X011998Y009233D01*
X012046Y009185D01*
X012046Y009137D01*
X011998Y009088D01*
X011901Y009088D01*
X011852Y009137D01*
X011751Y009088D02*
X011558Y009088D01*
X011751Y009282D01*
X011751Y009330D01*
X011703Y009379D01*
X011606Y009379D01*
X011558Y009330D01*
X011457Y009330D02*
X011408Y009379D01*
X011312Y009379D01*
X011263Y009330D01*
X011263Y009137D01*
X011312Y009088D01*
X011408Y009088D01*
X011457Y009137D01*
X011852Y009330D02*
X011901Y009379D01*
X011998Y009379D01*
X011998Y009233D02*
X011949Y009233D01*
D211*
X009979Y016819D02*
X009981Y016843D01*
X009987Y016867D01*
X009996Y016889D01*
X010009Y016909D01*
X010025Y016927D01*
X010044Y016942D01*
X010065Y016955D01*
X010087Y016963D01*
X010111Y016968D01*
X010135Y016969D01*
X010159Y016966D01*
X010182Y016959D01*
X010204Y016949D01*
X010224Y016935D01*
X010241Y016918D01*
X010256Y016899D01*
X010267Y016878D01*
X010275Y016855D01*
X010279Y016831D01*
X010279Y016807D01*
X010275Y016783D01*
X010267Y016760D01*
X010256Y016739D01*
X010241Y016720D01*
X010224Y016703D01*
X010204Y016689D01*
X010182Y016679D01*
X010159Y016672D01*
X010135Y016669D01*
X010111Y016670D01*
X010087Y016675D01*
X010065Y016683D01*
X010044Y016696D01*
X010025Y016711D01*
X010009Y016729D01*
X009996Y016749D01*
X009987Y016771D01*
X009981Y016795D01*
X009979Y016819D01*
D212*
X022025Y011920D02*
X022027Y011946D01*
X022033Y011972D01*
X022042Y011996D01*
X022056Y012019D01*
X022072Y012040D01*
X022091Y012058D01*
X022113Y012072D01*
X022137Y012084D01*
X022162Y012092D01*
X022188Y012096D01*
X022214Y012096D01*
X022240Y012092D01*
X022265Y012084D01*
X022289Y012072D01*
X022311Y012058D01*
X022330Y012040D01*
X022346Y012019D01*
X022360Y011996D01*
X022369Y011972D01*
X022375Y011946D01*
X022377Y011920D01*
X022375Y011894D01*
X022369Y011868D01*
X022360Y011844D01*
X022346Y011821D01*
X022330Y011800D01*
X022311Y011782D01*
X022289Y011768D01*
X022265Y011756D01*
X022240Y011748D01*
X022214Y011744D01*
X022188Y011744D01*
X022162Y011748D01*
X022137Y011756D01*
X022113Y011768D01*
X022091Y011782D01*
X022072Y011800D01*
X022056Y011821D01*
X022042Y011844D01*
X022033Y011868D01*
X022027Y011894D01*
X022025Y011920D01*
D213*
X021964Y011684D02*
X020586Y011684D01*
X021964Y011684D02*
X021964Y010306D01*
X022432Y012757D02*
X022932Y012757D01*
X022932Y013857D01*
X022432Y013857D01*
X022432Y012757D01*
X023044Y012757D02*
X023544Y012757D01*
X023544Y013857D01*
X023044Y013857D01*
X023044Y012757D01*
X023682Y012607D02*
X023682Y013907D01*
X024382Y013907D01*
X024382Y012607D01*
X023682Y012607D01*
X024423Y014067D02*
X024423Y015767D01*
X020773Y015767D01*
X020773Y014067D01*
X024423Y014067D01*
X023273Y014917D02*
X022973Y014917D01*
X023123Y015067D02*
X023123Y014767D01*
X023715Y015985D02*
X021747Y015985D01*
X021721Y015987D01*
X021696Y015992D01*
X021672Y016000D01*
X021649Y016011D01*
X021627Y016026D01*
X021608Y016043D01*
X021591Y016062D01*
X021576Y016084D01*
X021565Y016107D01*
X021557Y016131D01*
X021552Y016156D01*
X021550Y016182D01*
X021550Y018151D01*
X021552Y018177D01*
X021557Y018202D01*
X021565Y018226D01*
X021576Y018250D01*
X021591Y018271D01*
X021608Y018290D01*
X021627Y018307D01*
X021649Y018322D01*
X021672Y018333D01*
X021696Y018341D01*
X021721Y018346D01*
X021747Y018348D01*
X021747Y018347D02*
X023715Y018347D01*
X023715Y018348D02*
X023741Y018346D01*
X023766Y018341D01*
X023790Y018333D01*
X023814Y018322D01*
X023835Y018307D01*
X023854Y018290D01*
X023871Y018271D01*
X023886Y018250D01*
X023897Y018226D01*
X023905Y018202D01*
X023910Y018177D01*
X023912Y018151D01*
X023912Y016182D01*
X023910Y016156D01*
X023905Y016131D01*
X023897Y016107D01*
X023886Y016084D01*
X023871Y016062D01*
X023854Y016043D01*
X023835Y016026D01*
X023814Y016011D01*
X023790Y016000D01*
X023766Y015992D01*
X023741Y015987D01*
X023715Y015985D01*
X024199Y018595D02*
X023099Y018595D01*
X023099Y019095D01*
X024199Y019095D01*
X024199Y018595D01*
X024207Y019207D02*
X023107Y019207D01*
X023107Y019707D01*
X024207Y019707D01*
X024207Y019207D01*
X022314Y018704D02*
X020814Y018704D01*
X020814Y020633D01*
X021364Y020633D01*
X021564Y020419D02*
X021591Y020422D01*
X021618Y020428D01*
X021643Y020438D01*
X021667Y020450D01*
X021689Y020466D01*
X021708Y020485D01*
X021726Y020506D01*
X021740Y020529D01*
X021751Y020554D01*
X021759Y020579D01*
X021763Y020606D01*
X021764Y020633D01*
X022314Y020633D01*
X022314Y018704D01*
X021565Y020419D02*
X021538Y020422D01*
X021511Y020428D01*
X021486Y020438D01*
X021462Y020450D01*
X021440Y020466D01*
X021421Y020485D01*
X021403Y020506D01*
X021389Y020529D01*
X021378Y020554D01*
X021370Y020579D01*
X021366Y020606D01*
X021365Y020633D01*
X020987Y020889D02*
X020987Y021389D01*
X022087Y021389D01*
X022087Y020889D01*
X020987Y020889D01*
X020564Y020819D02*
X020566Y020839D01*
X020572Y020857D01*
X020581Y020875D01*
X020593Y020890D01*
X020608Y020902D01*
X020626Y020911D01*
X020644Y020917D01*
X020664Y020919D01*
X020684Y020917D01*
X020702Y020911D01*
X020720Y020902D01*
X020735Y020890D01*
X020747Y020875D01*
X020756Y020857D01*
X020762Y020839D01*
X020764Y020819D01*
X020762Y020799D01*
X020756Y020781D01*
X020747Y020763D01*
X020735Y020748D01*
X020720Y020736D01*
X020702Y020727D01*
X020684Y020721D01*
X020664Y020719D01*
X020644Y020721D01*
X020626Y020727D01*
X020608Y020736D01*
X020593Y020748D01*
X020581Y020763D01*
X020572Y020781D01*
X020566Y020799D01*
X020564Y020819D01*
X020432Y020761D02*
X019132Y020761D01*
X019132Y021461D01*
X020432Y021461D01*
X020432Y020761D01*
X019977Y020109D02*
X019977Y019009D01*
X019477Y019009D01*
X019477Y020109D01*
X019977Y020109D01*
X019916Y017056D02*
X019966Y017006D01*
X019866Y017006D01*
X019816Y016956D01*
X020016Y016956D01*
X020066Y016906D01*
X019766Y016906D01*
X019716Y016856D01*
X020116Y016856D01*
X020166Y016806D01*
X019666Y016806D01*
X019616Y016756D01*
X020216Y016756D01*
X020266Y016706D01*
X019566Y016706D01*
X019516Y016656D01*
X020316Y016656D01*
X020266Y016706D01*
X020216Y016756D02*
X020166Y016806D01*
X020116Y016856D02*
X020066Y016906D01*
X020016Y016956D02*
X019966Y017006D01*
X019916Y017056D02*
X019866Y017006D01*
X019816Y016956D02*
X019766Y016906D01*
X019716Y016856D02*
X019666Y016806D01*
X019616Y016756D02*
X019566Y016706D01*
X019180Y015253D02*
X018680Y015253D01*
X018680Y014153D01*
X019180Y014153D01*
X019180Y015253D01*
X018504Y014969D02*
X018504Y014619D01*
X018504Y014969D02*
X018204Y014969D01*
X017654Y014969D02*
X017354Y014969D01*
X017354Y014619D01*
X017256Y014166D02*
X016756Y014166D01*
X016756Y015266D01*
X017256Y015266D01*
X017256Y014166D01*
X016579Y014169D02*
X016079Y014169D01*
X016079Y015269D01*
X016579Y015269D01*
X016579Y014169D01*
X015797Y013782D02*
X011860Y013782D01*
X011860Y019688D01*
X012329Y019688D01*
X012329Y020869D01*
X013329Y020869D01*
X013329Y019688D01*
X014329Y019688D01*
X014329Y020869D01*
X015329Y020869D01*
X015329Y019688D01*
X015797Y019688D01*
X015797Y013782D01*
X015861Y015750D02*
X014361Y015750D01*
X014361Y019250D01*
X015861Y019250D01*
X015861Y015750D01*
X017854Y014469D02*
X018004Y014469D01*
X013894Y011684D02*
X012516Y011684D01*
X012516Y010306D01*
X012082Y010143D02*
X012082Y009443D01*
X010782Y009443D01*
X010782Y010143D01*
X012082Y010143D01*
X012010Y010257D02*
X012010Y010757D01*
X010910Y010757D01*
X010910Y010257D01*
X012010Y010257D01*
X011979Y011669D02*
X010879Y011669D01*
X010879Y012169D01*
X011979Y012169D01*
X011979Y011669D01*
X011884Y013668D02*
X010784Y013668D01*
X010784Y014168D01*
X011884Y014168D01*
X011884Y013668D01*
X011884Y014262D02*
X011884Y014762D01*
X010784Y014762D01*
X010784Y014262D01*
X011884Y014262D01*
X011879Y014869D02*
X011879Y015369D01*
X010779Y015369D01*
X010779Y014869D01*
X011879Y014869D01*
X011888Y015463D02*
X010788Y015463D01*
X010788Y015963D01*
X011888Y015963D01*
X011888Y015463D01*
X011879Y016069D02*
X011879Y016569D01*
X010779Y016569D01*
X010779Y016069D01*
X011879Y016069D01*
X011874Y016670D02*
X011874Y017170D01*
X010774Y017170D01*
X010774Y016670D01*
X011874Y016670D01*
X010977Y017299D02*
X010977Y017799D01*
X009877Y017799D01*
X009877Y017299D01*
X010977Y017299D01*
X010504Y018269D02*
X010354Y018269D01*
X009854Y018419D02*
X009854Y018769D01*
X010154Y018769D01*
X010704Y018769D02*
X011004Y018769D01*
X011004Y018419D01*
X009679Y018419D02*
X009679Y017319D01*
X009179Y017319D01*
X009179Y018419D01*
X009679Y018419D01*
X009029Y018419D02*
X008529Y018419D01*
X008529Y017319D01*
X009029Y017319D01*
X009029Y018419D01*
X008379Y018419D02*
X007879Y018419D01*
X007879Y017319D01*
X008379Y017319D01*
X008379Y018419D01*
X007429Y017769D02*
X007429Y017269D01*
X006329Y017269D01*
X006329Y017769D01*
X007429Y017769D01*
X007263Y017889D02*
X005294Y017889D01*
X005294Y018046D01*
X005129Y017769D02*
X006229Y017769D01*
X006229Y017269D01*
X005129Y017269D01*
X005129Y017769D01*
X004424Y017611D02*
X003324Y017611D01*
X003324Y018111D01*
X004424Y018111D01*
X004424Y017611D01*
X004429Y018219D02*
X003329Y018219D01*
X003329Y018719D01*
X004429Y018719D01*
X004429Y018219D01*
X004426Y018791D02*
X004426Y019291D01*
X003326Y019291D01*
X003326Y018791D01*
X004426Y018791D01*
X004804Y019410D02*
X004804Y019910D01*
X005854Y019910D01*
X005854Y019410D01*
X004804Y019410D01*
X005279Y019510D02*
X005279Y019810D01*
X005329Y019735D01*
X005329Y019585D01*
X005379Y019660D01*
X005329Y019735D01*
X005304Y019760D02*
X005304Y019560D01*
X005329Y019585D02*
X005279Y019510D01*
X005294Y019149D02*
X005294Y018991D01*
X005294Y019149D02*
X007263Y019149D01*
X007263Y018991D01*
X007447Y019410D02*
X007447Y019910D01*
X006347Y019910D01*
X006347Y019410D01*
X007447Y019410D01*
X006529Y019019D02*
X006529Y018519D01*
X006729Y018519D01*
X006529Y018519D02*
X006529Y018019D01*
X006379Y018119D02*
X006179Y018119D01*
X006179Y018919D01*
X006379Y018919D01*
X006379Y018119D01*
X006029Y018019D02*
X006029Y018519D01*
X005829Y018519D01*
X006029Y018519D02*
X006029Y019019D01*
X005854Y020198D02*
X004804Y020198D01*
X004804Y020698D01*
X005854Y020698D01*
X005854Y020198D01*
X006347Y020198D02*
X006347Y020698D01*
X007447Y020698D01*
X007447Y020198D01*
X006347Y020198D01*
X006347Y020985D02*
X006347Y021485D01*
X007447Y021485D01*
X007447Y020985D01*
X006347Y020985D01*
X005854Y020985D02*
X005854Y021485D01*
X004804Y021485D01*
X004804Y020985D01*
X005854Y020985D01*
X005379Y021235D02*
X005329Y021310D01*
X005329Y021160D01*
X005379Y021235D01*
X005329Y021160D02*
X005279Y021085D01*
X005279Y021385D01*
X005329Y021310D01*
X005304Y021335D02*
X005304Y021135D01*
X005279Y020598D02*
X005329Y020523D01*
X005329Y020373D01*
X005379Y020448D01*
X005329Y020523D01*
X005304Y020548D02*
X005304Y020348D01*
X005329Y020373D02*
X005279Y020298D01*
X005279Y020598D01*
X004454Y020319D02*
X004454Y019969D01*
X004454Y020319D02*
X004154Y020319D01*
X003954Y019819D02*
X003804Y019819D01*
X003304Y019969D02*
X003304Y020319D01*
X003604Y020319D01*
X003204Y020319D02*
X003204Y019969D01*
X003204Y020319D02*
X002904Y020319D01*
X002704Y019819D02*
X002554Y019819D01*
X002054Y019969D02*
X002054Y020319D01*
X002354Y020319D01*
X002073Y019291D02*
X003173Y019291D01*
X003173Y018791D01*
X002073Y018791D01*
X002073Y019291D01*
X002079Y018719D02*
X002079Y018219D01*
X003179Y018219D01*
X003179Y018719D01*
X002079Y018719D01*
X002079Y018119D02*
X003179Y018119D01*
X003179Y017619D01*
X002079Y017619D01*
X002079Y018119D01*
X004804Y021772D02*
X004804Y022272D01*
X005854Y022272D01*
X005854Y021772D01*
X004804Y021772D01*
X005279Y021872D02*
X005279Y022172D01*
X005329Y022097D01*
X005329Y021947D01*
X005379Y022022D01*
X005329Y022097D01*
X005304Y022122D02*
X005304Y021922D01*
X005329Y021947D02*
X005279Y021872D01*
X004804Y022560D02*
X004804Y023060D01*
X005854Y023060D01*
X005854Y022560D01*
X004804Y022560D01*
X005279Y022660D02*
X005279Y022960D01*
X005329Y022885D01*
X005329Y022735D01*
X005379Y022810D01*
X005329Y022885D01*
X005304Y022910D02*
X005304Y022710D01*
X005329Y022735D02*
X005279Y022660D01*
X006347Y022560D02*
X006347Y023060D01*
X007447Y023060D01*
X007447Y022560D01*
X006347Y022560D01*
X006347Y022272D02*
X006347Y021772D01*
X007447Y021772D01*
X007447Y022272D01*
X006347Y022272D01*
X007263Y018046D02*
X007263Y017889D01*
X005754Y014644D02*
X005104Y014644D01*
X005104Y012994D01*
X005754Y012994D01*
X005754Y014644D01*
X005879Y014269D02*
X006379Y014269D01*
X006379Y013169D01*
X005879Y013169D01*
X005879Y014269D01*
X005429Y013844D02*
X005429Y013644D01*
X005529Y013744D02*
X005329Y013744D01*
X010904Y008294D02*
X011554Y008294D01*
X011554Y006644D01*
X010904Y006644D01*
X010904Y008294D01*
X011229Y007494D02*
X011229Y007294D01*
X011329Y007394D02*
X011129Y007394D01*
X010753Y005016D02*
X011853Y005016D01*
X011853Y004516D01*
X010753Y004516D01*
X010753Y005016D01*
X010746Y004435D02*
X010746Y003935D01*
X011846Y003935D01*
X011846Y004435D01*
X010746Y004435D01*
X010746Y003847D02*
X010746Y003347D01*
X011846Y003347D01*
X011846Y003847D01*
X010746Y003847D01*
X010740Y003246D02*
X010740Y002746D01*
X011840Y002746D01*
X011840Y003246D01*
X010740Y003246D01*
X012516Y003613D02*
X012516Y002235D01*
X013894Y002235D01*
X020586Y002235D02*
X021964Y002235D01*
X021964Y003613D01*
X022429Y004119D02*
X022429Y005419D01*
X023129Y005419D01*
X023129Y004119D01*
X022429Y004119D01*
X023229Y004269D02*
X023729Y004269D01*
X023729Y005369D01*
X023229Y005369D01*
X023229Y004269D01*
X023829Y004269D02*
X024329Y004269D01*
X024329Y005369D01*
X023829Y005369D01*
X023829Y004269D01*
X023896Y006159D02*
X022796Y006159D01*
X022796Y006659D01*
X022796Y007259D02*
X022796Y007759D01*
X023896Y007759D01*
X023896Y007259D01*
X023896Y006659D02*
X023896Y006159D01*
D214*
X022646Y006959D03*
D215*
X018594Y016360D02*
X018594Y017780D01*
X016734Y017780D02*
X016734Y016360D01*
X011971Y013449D02*
X011971Y013412D01*
X011971Y013449D02*
X011333Y013449D01*
X011333Y013412D01*
X011333Y013094D02*
X011333Y013057D01*
X011333Y012720D02*
X011333Y012683D01*
X011333Y012366D02*
X011333Y012329D01*
X011971Y012329D01*
X011971Y012366D01*
X011971Y012683D02*
X011971Y013094D01*
X009950Y013849D02*
X009950Y016469D01*
X009810Y016609D01*
X007190Y016609D01*
X007190Y013849D01*
X009950Y013849D01*
X009509Y016309D02*
X009511Y016332D01*
X009517Y016355D01*
X009526Y016376D01*
X009539Y016396D01*
X009555Y016413D01*
X009573Y016427D01*
X009593Y016438D01*
X009615Y016446D01*
X009638Y016450D01*
X009662Y016450D01*
X009685Y016446D01*
X009707Y016438D01*
X009727Y016427D01*
X009745Y016413D01*
X009761Y016396D01*
X009774Y016376D01*
X009783Y016355D01*
X009789Y016332D01*
X009791Y016309D01*
X009789Y016286D01*
X009783Y016263D01*
X009774Y016242D01*
X009761Y016222D01*
X009745Y016205D01*
X009727Y016191D01*
X009707Y016180D01*
X009685Y016172D01*
X009662Y016168D01*
X009638Y016168D01*
X009615Y016172D01*
X009593Y016180D01*
X009573Y016191D01*
X009555Y016205D01*
X009539Y016222D01*
X009526Y016242D01*
X009517Y016263D01*
X009511Y016286D01*
X009509Y016309D01*
D216*
X009528Y018479D02*
X009410Y018479D01*
X009469Y018479D02*
X009469Y018656D01*
X009410Y018597D01*
X009347Y018626D02*
X009347Y018567D01*
X009317Y018538D01*
X009229Y018538D01*
X009288Y018538D02*
X009347Y018479D01*
X009229Y018479D02*
X009229Y018656D01*
X009317Y018656D01*
X009347Y018626D01*
X009591Y018626D02*
X009621Y018656D01*
X009680Y018656D01*
X009709Y018626D01*
X009709Y018597D01*
X009591Y018479D01*
X009709Y018479D01*
X009074Y018508D02*
X009045Y018479D01*
X008986Y018479D01*
X008956Y018508D01*
X008956Y018538D01*
X008986Y018567D01*
X009045Y018567D01*
X009074Y018538D01*
X009074Y018508D01*
X009045Y018567D02*
X009074Y018597D01*
X009074Y018626D01*
X009045Y018656D01*
X008986Y018656D01*
X008956Y018626D01*
X008956Y018597D01*
X008986Y018567D01*
X008893Y018479D02*
X008775Y018479D01*
X008834Y018479D02*
X008834Y018656D01*
X008775Y018597D01*
X008712Y018626D02*
X008682Y018656D01*
X008623Y018656D01*
X008594Y018626D01*
X008594Y018508D01*
X008623Y018479D01*
X008682Y018479D01*
X008712Y018508D01*
X008429Y018646D02*
X008311Y018528D01*
X008311Y018499D01*
X008247Y018499D02*
X008129Y018499D01*
X008188Y018499D02*
X008188Y018676D01*
X008129Y018617D01*
X008066Y018646D02*
X008037Y018676D01*
X007978Y018676D01*
X007948Y018646D01*
X007948Y018528D01*
X007978Y018499D01*
X008037Y018499D01*
X008066Y018528D01*
X008311Y018676D02*
X008429Y018676D01*
X008429Y018646D01*
X007170Y017213D02*
X007170Y017073D01*
X007123Y017073D02*
X007217Y017073D01*
X007123Y017166D02*
X007170Y017213D01*
X007069Y017189D02*
X007046Y017213D01*
X006999Y017213D01*
X006976Y017189D01*
X006976Y017096D01*
X006999Y017073D01*
X007046Y017073D01*
X007069Y017096D01*
X006185Y017092D02*
X006185Y017116D01*
X006161Y017139D01*
X006091Y017139D01*
X006091Y017092D01*
X006115Y017069D01*
X006161Y017069D01*
X006185Y017092D01*
X006138Y017186D02*
X006091Y017139D01*
X006138Y017186D02*
X006185Y017209D01*
X005991Y017209D02*
X005991Y017069D01*
X006037Y017069D02*
X005944Y017069D01*
X005890Y017092D02*
X005867Y017069D01*
X005820Y017069D01*
X005797Y017092D01*
X005797Y017186D01*
X005820Y017209D01*
X005867Y017209D01*
X005890Y017186D01*
X005944Y017162D02*
X005991Y017209D01*
M02*
