G75*
%MOIN*%
%OFA0B0*%
%FSLAX24Y24*%
%IPPOS*%
%LPD*%
%AMOC8*
5,1,8,0,0,1.08239X$1,22.5*
%
%ADD10C,0.0000*%
%ADD11R,0.1378X0.0472*%
%ADD12C,0.0050*%
%ADD13C,0.0040*%
D10*
X003166Y002437D02*
X003166Y021728D01*
X003165Y021728D02*
X003167Y021814D01*
X003172Y021900D01*
X003182Y021985D01*
X003195Y022070D01*
X003212Y022154D01*
X003232Y022238D01*
X003256Y022320D01*
X003284Y022401D01*
X003315Y022482D01*
X003349Y022560D01*
X003387Y022637D01*
X003429Y022713D01*
X003473Y022786D01*
X003521Y022857D01*
X003572Y022927D01*
X003626Y022994D01*
X003682Y023058D01*
X003742Y023120D01*
X003804Y023180D01*
X003868Y023236D01*
X003935Y023290D01*
X004005Y023341D01*
X004076Y023389D01*
X004150Y023433D01*
X004225Y023475D01*
X004302Y023513D01*
X004380Y023547D01*
X004461Y023578D01*
X004542Y023606D01*
X004624Y023630D01*
X004708Y023650D01*
X004792Y023667D01*
X004877Y023680D01*
X004962Y023690D01*
X005048Y023695D01*
X005134Y023697D01*
X005134Y023696D02*
X024426Y023696D01*
X024426Y023697D02*
X024512Y023695D01*
X024598Y023690D01*
X024683Y023680D01*
X024768Y023667D01*
X024852Y023650D01*
X024936Y023630D01*
X025018Y023606D01*
X025099Y023578D01*
X025180Y023547D01*
X025258Y023513D01*
X025335Y023475D01*
X025411Y023433D01*
X025484Y023389D01*
X025555Y023341D01*
X025625Y023290D01*
X025692Y023236D01*
X025756Y023180D01*
X025818Y023120D01*
X025878Y023058D01*
X025934Y022994D01*
X025988Y022927D01*
X026039Y022857D01*
X026087Y022786D01*
X026131Y022713D01*
X026173Y022637D01*
X026211Y022560D01*
X026245Y022482D01*
X026276Y022401D01*
X026304Y022320D01*
X026328Y022238D01*
X026348Y022154D01*
X026365Y022070D01*
X026378Y021985D01*
X026388Y021900D01*
X026393Y021814D01*
X026395Y021728D01*
X026394Y021728D02*
X026394Y002437D01*
X026395Y002437D02*
X026393Y002351D01*
X026388Y002265D01*
X026378Y002180D01*
X026365Y002095D01*
X026348Y002011D01*
X026328Y001927D01*
X026304Y001845D01*
X026276Y001764D01*
X026245Y001683D01*
X026211Y001605D01*
X026173Y001528D01*
X026131Y001452D01*
X026087Y001379D01*
X026039Y001308D01*
X025988Y001238D01*
X025934Y001171D01*
X025878Y001107D01*
X025818Y001045D01*
X025756Y000985D01*
X025692Y000929D01*
X025625Y000875D01*
X025555Y000824D01*
X025484Y000776D01*
X025411Y000732D01*
X025335Y000690D01*
X025258Y000652D01*
X025180Y000618D01*
X025099Y000587D01*
X025018Y000559D01*
X024936Y000535D01*
X024852Y000515D01*
X024768Y000498D01*
X024683Y000485D01*
X024598Y000475D01*
X024512Y000470D01*
X024426Y000468D01*
X005134Y000468D01*
X005048Y000470D01*
X004962Y000475D01*
X004877Y000485D01*
X004792Y000498D01*
X004708Y000515D01*
X004624Y000535D01*
X004542Y000559D01*
X004461Y000587D01*
X004380Y000618D01*
X004302Y000652D01*
X004225Y000690D01*
X004149Y000732D01*
X004076Y000776D01*
X004005Y000824D01*
X003935Y000875D01*
X003868Y000929D01*
X003804Y000985D01*
X003742Y001045D01*
X003682Y001107D01*
X003626Y001171D01*
X003572Y001238D01*
X003521Y001308D01*
X003473Y001379D01*
X003429Y001453D01*
X003387Y001528D01*
X003349Y001605D01*
X003315Y001683D01*
X003284Y001764D01*
X003256Y001845D01*
X003232Y001927D01*
X003212Y002011D01*
X003195Y002095D01*
X003182Y002180D01*
X003172Y002265D01*
X003167Y002351D01*
X003165Y002437D01*
X023225Y019858D02*
X023227Y019893D01*
X023233Y019928D01*
X023243Y019962D01*
X023256Y019995D01*
X023273Y020026D01*
X023294Y020054D01*
X023317Y020081D01*
X023344Y020104D01*
X023372Y020125D01*
X023403Y020142D01*
X023436Y020155D01*
X023470Y020165D01*
X023505Y020171D01*
X023540Y020173D01*
X023575Y020171D01*
X023610Y020165D01*
X023644Y020155D01*
X023677Y020142D01*
X023708Y020125D01*
X023736Y020104D01*
X023763Y020081D01*
X023786Y020054D01*
X023807Y020026D01*
X023824Y019995D01*
X023837Y019962D01*
X023847Y019928D01*
X023853Y019893D01*
X023855Y019858D01*
X023853Y019823D01*
X023847Y019788D01*
X023837Y019754D01*
X023824Y019721D01*
X023807Y019690D01*
X023786Y019662D01*
X023763Y019635D01*
X023736Y019612D01*
X023708Y019591D01*
X023677Y019574D01*
X023644Y019561D01*
X023610Y019551D01*
X023575Y019545D01*
X023540Y019543D01*
X023505Y019545D01*
X023470Y019551D01*
X023436Y019561D01*
X023403Y019574D01*
X023372Y019591D01*
X023344Y019612D01*
X023317Y019635D01*
X023294Y019662D01*
X023273Y019690D01*
X023256Y019721D01*
X023243Y019754D01*
X023233Y019788D01*
X023227Y019823D01*
X023225Y019858D01*
X023225Y021630D02*
X023227Y021665D01*
X023233Y021700D01*
X023243Y021734D01*
X023256Y021767D01*
X023273Y021798D01*
X023294Y021826D01*
X023317Y021853D01*
X023344Y021876D01*
X023372Y021897D01*
X023403Y021914D01*
X023436Y021927D01*
X023470Y021937D01*
X023505Y021943D01*
X023540Y021945D01*
X023575Y021943D01*
X023610Y021937D01*
X023644Y021927D01*
X023677Y021914D01*
X023708Y021897D01*
X023736Y021876D01*
X023763Y021853D01*
X023786Y021826D01*
X023807Y021798D01*
X023824Y021767D01*
X023837Y021734D01*
X023847Y021700D01*
X023853Y021665D01*
X023855Y021630D01*
X023853Y021595D01*
X023847Y021560D01*
X023837Y021526D01*
X023824Y021493D01*
X023807Y021462D01*
X023786Y021434D01*
X023763Y021407D01*
X023736Y021384D01*
X023708Y021363D01*
X023677Y021346D01*
X023644Y021333D01*
X023610Y021323D01*
X023575Y021317D01*
X023540Y021315D01*
X023505Y021317D01*
X023470Y021323D01*
X023436Y021333D01*
X023403Y021346D01*
X023372Y021363D01*
X023344Y021384D01*
X023317Y021407D01*
X023294Y021434D01*
X023273Y021462D01*
X023256Y021493D01*
X023243Y021526D01*
X023233Y021560D01*
X023227Y021595D01*
X023225Y021630D01*
D11*
X019112Y020125D03*
X010425Y020125D03*
D12*
X010425Y020425D02*
X010525Y020525D01*
X010425Y020425D02*
X010325Y020525D01*
X010425Y020425D02*
X010425Y021275D01*
X019012Y020525D02*
X019112Y020425D01*
X019212Y020525D01*
X019112Y020425D02*
X019112Y021275D01*
D13*
X019252Y021347D02*
X019252Y021450D01*
X019304Y021502D01*
X019459Y021502D01*
X019575Y021450D02*
X019575Y021347D01*
X019626Y021295D01*
X019730Y021295D01*
X019782Y021347D01*
X019782Y021450D01*
X019730Y021502D01*
X019626Y021502D01*
X019575Y021450D01*
X019459Y021295D02*
X019304Y021295D01*
X019252Y021347D01*
X018815Y021295D02*
X018815Y021450D01*
X018763Y021502D01*
X018660Y021502D01*
X018608Y021450D01*
X018497Y021502D02*
X018393Y021502D01*
X018445Y021553D02*
X018445Y021347D01*
X018497Y021295D01*
X018608Y021295D02*
X018608Y021605D01*
X018230Y021605D02*
X018230Y021657D01*
X018230Y021502D02*
X018230Y021295D01*
X018178Y021295D02*
X018282Y021295D01*
X018230Y021502D02*
X018178Y021502D01*
X018063Y021502D02*
X018063Y021347D01*
X018011Y021295D01*
X017959Y021347D01*
X017908Y021295D01*
X017856Y021347D01*
X017856Y021502D01*
X017422Y021295D02*
X017319Y021295D01*
X017371Y021295D02*
X017371Y021605D01*
X017319Y021605D01*
X017156Y021605D02*
X017156Y021295D01*
X017207Y021295D02*
X017104Y021295D01*
X016993Y021295D02*
X016889Y021295D01*
X016941Y021295D02*
X016941Y021502D01*
X016889Y021502D01*
X016776Y021502D02*
X016724Y021502D01*
X016621Y021398D01*
X016621Y021295D02*
X016621Y021502D01*
X016505Y021502D02*
X016350Y021502D01*
X016298Y021450D01*
X016298Y021347D01*
X016350Y021295D01*
X016505Y021295D01*
X016505Y021605D01*
X016941Y021605D02*
X016941Y021657D01*
X017104Y021605D02*
X017156Y021605D01*
X015861Y021450D02*
X015861Y021398D01*
X015654Y021398D01*
X015654Y021347D02*
X015654Y021450D01*
X015705Y021502D01*
X015809Y021502D01*
X015861Y021450D01*
X015809Y021295D02*
X015705Y021295D01*
X015654Y021347D01*
X015538Y021295D02*
X015538Y021450D01*
X015487Y021502D01*
X015383Y021502D01*
X015331Y021450D01*
X015220Y021502D02*
X015117Y021502D01*
X015168Y021553D02*
X015168Y021347D01*
X015220Y021295D01*
X015331Y021295D02*
X015331Y021605D01*
X014683Y021502D02*
X014580Y021502D01*
X014631Y021553D02*
X014631Y021347D01*
X014683Y021295D01*
X014464Y021347D02*
X014464Y021450D01*
X014412Y021502D01*
X014309Y021502D01*
X014257Y021450D01*
X014257Y021347D01*
X014309Y021295D01*
X014412Y021295D01*
X014464Y021347D01*
X014146Y021295D02*
X014042Y021295D01*
X014094Y021295D02*
X014094Y021605D01*
X014042Y021605D01*
X013927Y021502D02*
X013772Y021502D01*
X013720Y021450D01*
X013772Y021398D01*
X013875Y021398D01*
X013927Y021347D01*
X013875Y021295D01*
X013720Y021295D01*
X012332Y021502D02*
X012280Y021502D01*
X012176Y021398D01*
X012176Y021295D02*
X012176Y021502D01*
X012061Y021450D02*
X012061Y021398D01*
X011854Y021398D01*
X011854Y021347D02*
X011854Y021450D01*
X011906Y021502D01*
X012009Y021502D01*
X012061Y021450D01*
X012009Y021295D02*
X011906Y021295D01*
X011854Y021347D01*
X011739Y021347D02*
X011687Y021295D01*
X011532Y021295D01*
X011532Y021191D02*
X011532Y021502D01*
X011687Y021502D01*
X011739Y021450D01*
X011739Y021347D01*
X011416Y021347D02*
X011365Y021295D01*
X011210Y021295D01*
X011210Y021191D02*
X011210Y021502D01*
X011365Y021502D01*
X011416Y021450D01*
X011416Y021347D01*
X011094Y021347D02*
X011094Y021450D01*
X011043Y021502D01*
X010939Y021502D01*
X010887Y021450D01*
X010887Y021347D01*
X010939Y021295D01*
X011043Y021295D01*
X011094Y021347D01*
X010772Y021295D02*
X010617Y021295D01*
X010565Y021347D01*
X010565Y021450D01*
X010617Y021502D01*
X010772Y021502D01*
X010127Y021450D02*
X010127Y021295D01*
X010127Y021450D02*
X010076Y021502D01*
X009972Y021502D01*
X009921Y021450D01*
X009809Y021502D02*
X009706Y021502D01*
X009757Y021553D02*
X009757Y021347D01*
X009809Y021295D01*
X009921Y021295D02*
X009921Y021605D01*
X009594Y021295D02*
X009491Y021295D01*
X009543Y021295D02*
X009543Y021502D01*
X009491Y021502D01*
X009543Y021605D02*
X009543Y021657D01*
X009375Y021502D02*
X009375Y021347D01*
X009324Y021295D01*
X009272Y021347D01*
X009220Y021295D01*
X009169Y021347D01*
X009169Y021502D01*
X008735Y021295D02*
X008631Y021295D01*
X008683Y021295D02*
X008683Y021605D01*
X008631Y021605D01*
X008468Y021605D02*
X008468Y021295D01*
X008417Y021295D02*
X008520Y021295D01*
X008305Y021295D02*
X008202Y021295D01*
X008253Y021295D02*
X008253Y021502D01*
X008202Y021502D01*
X008088Y021502D02*
X008037Y021502D01*
X007933Y021398D01*
X007933Y021295D02*
X007933Y021502D01*
X007818Y021502D02*
X007663Y021502D01*
X007611Y021450D01*
X007611Y021347D01*
X007663Y021295D01*
X007818Y021295D01*
X007818Y021605D01*
X008253Y021605D02*
X008253Y021657D01*
X008417Y021605D02*
X008468Y021605D01*
X007173Y021450D02*
X007173Y021398D01*
X006966Y021398D01*
X006966Y021347D02*
X006966Y021450D01*
X007018Y021502D01*
X007121Y021502D01*
X007173Y021450D01*
X007121Y021295D02*
X007018Y021295D01*
X006966Y021347D01*
X006851Y021295D02*
X006851Y021450D01*
X006799Y021502D01*
X006696Y021502D01*
X006644Y021450D01*
X006533Y021502D02*
X006429Y021502D01*
X006481Y021553D02*
X006481Y021347D01*
X006533Y021295D01*
X006644Y021295D02*
X006644Y021605D01*
X005996Y021502D02*
X005892Y021502D01*
X005944Y021553D02*
X005944Y021347D01*
X005996Y021295D01*
X005777Y021347D02*
X005777Y021450D01*
X005725Y021502D01*
X005622Y021502D01*
X005570Y021450D01*
X005570Y021347D01*
X005622Y021295D01*
X005725Y021295D01*
X005777Y021347D01*
X005458Y021295D02*
X005355Y021295D01*
X005407Y021295D02*
X005407Y021605D01*
X005355Y021605D01*
X005240Y021502D02*
X005084Y021502D01*
X005033Y021450D01*
X005084Y021398D01*
X005188Y021398D01*
X005240Y021347D01*
X005188Y021295D01*
X005033Y021295D01*
X019897Y021295D02*
X020052Y021295D01*
X020104Y021347D01*
X020104Y021450D01*
X020052Y021502D01*
X019897Y021502D01*
X019897Y021191D01*
X020219Y021191D02*
X020219Y021502D01*
X020374Y021502D01*
X020426Y021450D01*
X020426Y021347D01*
X020374Y021295D01*
X020219Y021295D01*
X020542Y021347D02*
X020542Y021450D01*
X020593Y021502D01*
X020697Y021502D01*
X020748Y021450D01*
X020748Y021398D01*
X020542Y021398D01*
X020542Y021347D02*
X020593Y021295D01*
X020697Y021295D01*
X020864Y021295D02*
X020864Y021502D01*
X020967Y021502D02*
X021019Y021502D01*
X020967Y021502D02*
X020864Y021398D01*
M02*
