G75*
%MOIN*%
%OFA0B0*%
%FSLAX24Y24*%
%IPPOS*%
%LPD*%
%AMOC8*
5,1,8,0,0,1.08239X$1,22.5*
%
%ADD10C,0.0000*%
%ADD11R,0.0260X0.0760*%
%ADD12R,0.0760X0.0260*%
%ADD13C,0.0088*%
%ADD14R,0.0472X0.0866*%
%ADD15R,0.0472X0.0787*%
%ADD16R,0.0600X0.0250*%
%ADD17R,0.1000X0.1200*%
%ADD18R,0.1000X0.1250*%
%ADD19C,0.0100*%
%ADD20R,0.0984X0.1260*%
%ADD21R,0.1080X0.0850*%
%ADD22C,0.0150*%
%ADD23C,0.0200*%
%ADD24R,0.0220X0.0500*%
%ADD25R,0.0500X0.0220*%
%ADD26OC8,0.0740*%
%ADD27R,0.1300X0.0800*%
%ADD28C,0.1181*%
%ADD29R,0.1181X0.1181*%
%ADD30R,0.0240X0.0870*%
%ADD31R,0.1260X0.0866*%
%ADD32R,0.1969X0.1772*%
%ADD33R,0.0945X0.0945*%
%ADD34R,0.0472X0.0217*%
%ADD35C,0.0740*%
%ADD36R,0.0400X0.0450*%
%ADD37R,0.0500X0.0500*%
%ADD38C,0.0075*%
%ADD39C,0.0709*%
%ADD40R,0.0700X0.0800*%
%ADD41C,0.0280*%
%ADD42C,0.0240*%
%ADD43C,0.0080*%
%ADD44C,0.0320*%
%ADD45C,0.0160*%
%ADD46C,0.0278*%
%ADD47C,0.0660*%
%ADD48C,0.0120*%
%ADD49C,0.0320*%
%ADD50C,0.0400*%
%ADD51C,0.0800*%
%ADD52C,0.0157*%
%ADD53C,0.0059*%
%ADD54C,0.0060*%
D10*
X001579Y003519D02*
X001579Y020448D01*
X004728Y023597D01*
X021657Y023597D01*
X024807Y020448D01*
X024807Y003519D01*
X021657Y000369D01*
X004728Y000369D01*
X001579Y003519D01*
D11*
X014090Y002235D03*
X014484Y002235D03*
X014878Y002235D03*
X015272Y002235D03*
X015665Y002235D03*
X016059Y002235D03*
X016453Y002235D03*
X016846Y002235D03*
X017240Y002235D03*
X017634Y002235D03*
X018027Y002235D03*
X018421Y002235D03*
X018815Y002235D03*
X019209Y002235D03*
X019602Y002235D03*
X019996Y002235D03*
X020390Y002235D03*
X020390Y011684D03*
X019996Y011684D03*
X019602Y011684D03*
X019209Y011684D03*
X018815Y011684D03*
X018421Y011684D03*
X018027Y011684D03*
X017634Y011684D03*
X017240Y011684D03*
X016846Y011684D03*
X016453Y011684D03*
X016059Y011684D03*
X015665Y011684D03*
X015272Y011684D03*
X014878Y011684D03*
X014484Y011684D03*
X014090Y011684D03*
D12*
X012516Y010109D03*
X012516Y009715D03*
X012516Y009322D03*
X012516Y008928D03*
X012516Y008534D03*
X012516Y008141D03*
X012516Y007747D03*
X012516Y007353D03*
X012516Y006959D03*
X012516Y006566D03*
X012516Y006172D03*
X012516Y005778D03*
X012516Y005385D03*
X012516Y004991D03*
X012516Y004597D03*
X012516Y004204D03*
X012516Y003810D03*
X021964Y003810D03*
X021964Y004204D03*
X021964Y004597D03*
X021964Y004991D03*
X021964Y005385D03*
X021964Y005778D03*
X021964Y006172D03*
X021964Y006566D03*
X021964Y006959D03*
X021964Y007353D03*
X021964Y007747D03*
X021964Y008141D03*
X021964Y008534D03*
X021964Y008928D03*
X021964Y009322D03*
X021964Y009715D03*
X021964Y010109D03*
D13*
X022813Y012876D02*
X022813Y013138D01*
X022813Y012876D02*
X022551Y012876D01*
X022551Y013138D01*
X022813Y013138D01*
X022813Y012963D02*
X022551Y012963D01*
X022551Y013050D02*
X022813Y013050D01*
X022813Y013137D02*
X022551Y013137D01*
X022813Y013476D02*
X022813Y013738D01*
X022813Y013476D02*
X022551Y013476D01*
X022551Y013738D01*
X022813Y013738D01*
X022813Y013563D02*
X022551Y013563D01*
X022551Y013650D02*
X022813Y013650D01*
X022813Y013737D02*
X022551Y013737D01*
X023425Y013738D02*
X023425Y013476D01*
X023163Y013476D01*
X023163Y013738D01*
X023425Y013738D01*
X023425Y013563D02*
X023163Y013563D01*
X023163Y013650D02*
X023425Y013650D01*
X023425Y013737D02*
X023163Y013737D01*
X023425Y013138D02*
X023425Y012876D01*
X023163Y012876D01*
X023163Y013138D01*
X023425Y013138D01*
X023425Y012963D02*
X023163Y012963D01*
X023163Y013050D02*
X023425Y013050D01*
X023425Y013137D02*
X023163Y013137D01*
X019061Y014272D02*
X019061Y014534D01*
X019061Y014272D02*
X018799Y014272D01*
X018799Y014534D01*
X019061Y014534D01*
X019061Y014359D02*
X018799Y014359D01*
X018799Y014446D02*
X019061Y014446D01*
X019061Y014533D02*
X018799Y014533D01*
X019061Y014872D02*
X019061Y015134D01*
X019061Y014872D02*
X018799Y014872D01*
X018799Y015134D01*
X019061Y015134D01*
X019061Y014959D02*
X018799Y014959D01*
X018799Y015046D02*
X019061Y015046D01*
X019061Y015133D02*
X018799Y015133D01*
X016875Y015147D02*
X016875Y014885D01*
X016875Y015147D02*
X017137Y015147D01*
X017137Y014885D01*
X016875Y014885D01*
X016875Y014972D02*
X017137Y014972D01*
X017137Y015059D02*
X016875Y015059D01*
X016875Y015146D02*
X017137Y015146D01*
X016875Y014547D02*
X016875Y014285D01*
X016875Y014547D02*
X017137Y014547D01*
X017137Y014285D01*
X016875Y014285D01*
X016875Y014372D02*
X017137Y014372D01*
X017137Y014459D02*
X016875Y014459D01*
X016875Y014546D02*
X017137Y014546D01*
X016460Y014550D02*
X016460Y014288D01*
X016198Y014288D01*
X016198Y014550D01*
X016460Y014550D01*
X016460Y014375D02*
X016198Y014375D01*
X016198Y014462D02*
X016460Y014462D01*
X016460Y014549D02*
X016198Y014549D01*
X016460Y014888D02*
X016460Y015150D01*
X016460Y014888D02*
X016198Y014888D01*
X016198Y015150D01*
X016460Y015150D01*
X016460Y014975D02*
X016198Y014975D01*
X016198Y015062D02*
X016460Y015062D01*
X016460Y015149D02*
X016198Y015149D01*
X011760Y015250D02*
X011498Y015250D01*
X011760Y015250D02*
X011760Y014988D01*
X011498Y014988D01*
X011498Y015250D01*
X011498Y015075D02*
X011760Y015075D01*
X011760Y015162D02*
X011498Y015162D01*
X011498Y015249D02*
X011760Y015249D01*
X011769Y015582D02*
X011507Y015582D01*
X011507Y015844D01*
X011769Y015844D01*
X011769Y015582D01*
X011769Y015669D02*
X011507Y015669D01*
X011507Y015756D02*
X011769Y015756D01*
X011769Y015843D02*
X011507Y015843D01*
X011169Y015582D02*
X010907Y015582D01*
X010907Y015844D01*
X011169Y015844D01*
X011169Y015582D01*
X011169Y015669D02*
X010907Y015669D01*
X010907Y015756D02*
X011169Y015756D01*
X011169Y015843D02*
X010907Y015843D01*
X010898Y016450D02*
X011160Y016450D01*
X011160Y016188D01*
X010898Y016188D01*
X010898Y016450D01*
X010898Y016275D02*
X011160Y016275D01*
X011160Y016362D02*
X010898Y016362D01*
X010898Y016449D02*
X011160Y016449D01*
X011498Y016450D02*
X011760Y016450D01*
X011760Y016188D01*
X011498Y016188D01*
X011498Y016450D01*
X011498Y016275D02*
X011760Y016275D01*
X011760Y016362D02*
X011498Y016362D01*
X011498Y016449D02*
X011760Y016449D01*
X011755Y017051D02*
X011493Y017051D01*
X011755Y017051D02*
X011755Y016789D01*
X011493Y016789D01*
X011493Y017051D01*
X011493Y016876D02*
X011755Y016876D01*
X011755Y016963D02*
X011493Y016963D01*
X011493Y017050D02*
X011755Y017050D01*
X011155Y017051D02*
X010893Y017051D01*
X011155Y017051D02*
X011155Y016789D01*
X010893Y016789D01*
X010893Y017051D01*
X010893Y016876D02*
X011155Y016876D01*
X011155Y016963D02*
X010893Y016963D01*
X010893Y017050D02*
X011155Y017050D01*
X010858Y017680D02*
X010596Y017680D01*
X010858Y017680D02*
X010858Y017418D01*
X010596Y017418D01*
X010596Y017680D01*
X010596Y017505D02*
X010858Y017505D01*
X010858Y017592D02*
X010596Y017592D01*
X010596Y017679D02*
X010858Y017679D01*
X010258Y017680D02*
X009996Y017680D01*
X010258Y017680D02*
X010258Y017418D01*
X009996Y017418D01*
X009996Y017680D01*
X009996Y017505D02*
X010258Y017505D01*
X010258Y017592D02*
X009996Y017592D01*
X009996Y017679D02*
X010258Y017679D01*
X009298Y017700D02*
X009298Y017438D01*
X009298Y017700D02*
X009560Y017700D01*
X009560Y017438D01*
X009298Y017438D01*
X009298Y017525D02*
X009560Y017525D01*
X009560Y017612D02*
X009298Y017612D01*
X009298Y017699D02*
X009560Y017699D01*
X009298Y018038D02*
X009298Y018300D01*
X009560Y018300D01*
X009560Y018038D01*
X009298Y018038D01*
X009298Y018125D02*
X009560Y018125D01*
X009560Y018212D02*
X009298Y018212D01*
X009298Y018299D02*
X009560Y018299D01*
X008648Y018300D02*
X008648Y018038D01*
X008648Y018300D02*
X008910Y018300D01*
X008910Y018038D01*
X008648Y018038D01*
X008648Y018125D02*
X008910Y018125D01*
X008910Y018212D02*
X008648Y018212D01*
X008648Y018299D02*
X008910Y018299D01*
X007998Y018300D02*
X007998Y018038D01*
X007998Y018300D02*
X008260Y018300D01*
X008260Y018038D01*
X007998Y018038D01*
X007998Y018125D02*
X008260Y018125D01*
X008260Y018212D02*
X007998Y018212D01*
X007998Y018299D02*
X008260Y018299D01*
X007998Y017700D02*
X007998Y017438D01*
X007998Y017700D02*
X008260Y017700D01*
X008260Y017438D01*
X007998Y017438D01*
X007998Y017525D02*
X008260Y017525D01*
X008260Y017612D02*
X007998Y017612D01*
X007998Y017699D02*
X008260Y017699D01*
X008648Y017700D02*
X008648Y017438D01*
X008648Y017700D02*
X008910Y017700D01*
X008910Y017438D01*
X008648Y017438D01*
X008648Y017525D02*
X008910Y017525D01*
X008910Y017612D02*
X008648Y017612D01*
X008648Y017699D02*
X008910Y017699D01*
X007310Y017388D02*
X007048Y017388D01*
X007048Y017650D01*
X007310Y017650D01*
X007310Y017388D01*
X007310Y017475D02*
X007048Y017475D01*
X007048Y017562D02*
X007310Y017562D01*
X007310Y017649D02*
X007048Y017649D01*
X006710Y017388D02*
X006448Y017388D01*
X006448Y017650D01*
X006710Y017650D01*
X006710Y017388D01*
X006710Y017475D02*
X006448Y017475D01*
X006448Y017562D02*
X006710Y017562D01*
X006710Y017649D02*
X006448Y017649D01*
X006110Y017650D02*
X005848Y017650D01*
X006110Y017650D02*
X006110Y017388D01*
X005848Y017388D01*
X005848Y017650D01*
X005848Y017475D02*
X006110Y017475D01*
X006110Y017562D02*
X005848Y017562D01*
X005848Y017649D02*
X006110Y017649D01*
X005510Y017650D02*
X005248Y017650D01*
X005510Y017650D02*
X005510Y017388D01*
X005248Y017388D01*
X005248Y017650D01*
X005248Y017475D02*
X005510Y017475D01*
X005510Y017562D02*
X005248Y017562D01*
X005248Y017649D02*
X005510Y017649D01*
X004305Y017730D02*
X004043Y017730D01*
X004043Y017992D01*
X004305Y017992D01*
X004305Y017730D01*
X004305Y017817D02*
X004043Y017817D01*
X004043Y017904D02*
X004305Y017904D01*
X004305Y017991D02*
X004043Y017991D01*
X003705Y017730D02*
X003443Y017730D01*
X003443Y017992D01*
X003705Y017992D01*
X003705Y017730D01*
X003705Y017817D02*
X003443Y017817D01*
X003443Y017904D02*
X003705Y017904D01*
X003705Y017991D02*
X003443Y017991D01*
X003448Y018338D02*
X003710Y018338D01*
X003448Y018338D02*
X003448Y018600D01*
X003710Y018600D01*
X003710Y018338D01*
X003710Y018425D02*
X003448Y018425D01*
X003448Y018512D02*
X003710Y018512D01*
X003710Y018599D02*
X003448Y018599D01*
X003445Y019172D02*
X003707Y019172D01*
X003707Y018910D01*
X003445Y018910D01*
X003445Y019172D01*
X003445Y018997D02*
X003707Y018997D01*
X003707Y019084D02*
X003445Y019084D01*
X003445Y019171D02*
X003707Y019171D01*
X004045Y019172D02*
X004307Y019172D01*
X004307Y018910D01*
X004045Y018910D01*
X004045Y019172D01*
X004045Y018997D02*
X004307Y018997D01*
X004307Y019084D02*
X004045Y019084D01*
X004045Y019171D02*
X004307Y019171D01*
X004310Y018338D02*
X004048Y018338D01*
X004048Y018600D01*
X004310Y018600D01*
X004310Y018338D01*
X004310Y018425D02*
X004048Y018425D01*
X004048Y018512D02*
X004310Y018512D01*
X004310Y018599D02*
X004048Y018599D01*
X003060Y018338D02*
X002798Y018338D01*
X002798Y018600D01*
X003060Y018600D01*
X003060Y018338D01*
X003060Y018425D02*
X002798Y018425D01*
X002798Y018512D02*
X003060Y018512D01*
X003060Y018599D02*
X002798Y018599D01*
X002792Y019172D02*
X003054Y019172D01*
X003054Y018910D01*
X002792Y018910D01*
X002792Y019172D01*
X002792Y018997D02*
X003054Y018997D01*
X003054Y019084D02*
X002792Y019084D01*
X002792Y019171D02*
X003054Y019171D01*
X002454Y019172D02*
X002192Y019172D01*
X002454Y019172D02*
X002454Y018910D01*
X002192Y018910D01*
X002192Y019172D01*
X002192Y018997D02*
X002454Y018997D01*
X002454Y019084D02*
X002192Y019084D01*
X002192Y019171D02*
X002454Y019171D01*
X002460Y018338D02*
X002198Y018338D01*
X002198Y018600D01*
X002460Y018600D01*
X002460Y018338D01*
X002460Y018425D02*
X002198Y018425D01*
X002198Y018512D02*
X002460Y018512D01*
X002460Y018599D02*
X002198Y018599D01*
X002198Y018000D02*
X002460Y018000D01*
X002460Y017738D01*
X002198Y017738D01*
X002198Y018000D01*
X002198Y017825D02*
X002460Y017825D01*
X002460Y017912D02*
X002198Y017912D01*
X002198Y017999D02*
X002460Y017999D01*
X002798Y018000D02*
X003060Y018000D01*
X003060Y017738D01*
X002798Y017738D01*
X002798Y018000D01*
X002798Y017825D02*
X003060Y017825D01*
X003060Y017912D02*
X002798Y017912D01*
X002798Y017999D02*
X003060Y017999D01*
X006466Y019791D02*
X006728Y019791D01*
X006728Y019529D01*
X006466Y019529D01*
X006466Y019791D01*
X006466Y019616D02*
X006728Y019616D01*
X006728Y019703D02*
X006466Y019703D01*
X006466Y019790D02*
X006728Y019790D01*
X007066Y019791D02*
X007328Y019791D01*
X007328Y019529D01*
X007066Y019529D01*
X007066Y019791D01*
X007066Y019616D02*
X007328Y019616D01*
X007328Y019703D02*
X007066Y019703D01*
X007066Y019790D02*
X007328Y019790D01*
X007328Y020579D02*
X007066Y020579D01*
X007328Y020579D02*
X007328Y020317D01*
X007066Y020317D01*
X007066Y020579D01*
X007066Y020404D02*
X007328Y020404D01*
X007328Y020491D02*
X007066Y020491D01*
X007066Y020578D02*
X007328Y020578D01*
X007328Y021366D02*
X007066Y021366D01*
X007328Y021366D02*
X007328Y021104D01*
X007066Y021104D01*
X007066Y021366D01*
X007066Y021191D02*
X007328Y021191D01*
X007328Y021278D02*
X007066Y021278D01*
X007066Y021365D02*
X007328Y021365D01*
X007328Y021891D02*
X007066Y021891D01*
X007066Y022153D01*
X007328Y022153D01*
X007328Y021891D01*
X007328Y021978D02*
X007066Y021978D01*
X007066Y022065D02*
X007328Y022065D01*
X007328Y022152D02*
X007066Y022152D01*
X006728Y021891D02*
X006466Y021891D01*
X006466Y022153D01*
X006728Y022153D01*
X006728Y021891D01*
X006728Y021978D02*
X006466Y021978D01*
X006466Y022065D02*
X006728Y022065D01*
X006728Y022152D02*
X006466Y022152D01*
X006466Y022679D02*
X006728Y022679D01*
X006466Y022679D02*
X006466Y022941D01*
X006728Y022941D01*
X006728Y022679D01*
X006728Y022766D02*
X006466Y022766D01*
X006466Y022853D02*
X006728Y022853D01*
X006728Y022940D02*
X006466Y022940D01*
X007066Y022679D02*
X007328Y022679D01*
X007066Y022679D02*
X007066Y022941D01*
X007328Y022941D01*
X007328Y022679D01*
X007328Y022766D02*
X007066Y022766D01*
X007066Y022853D02*
X007328Y022853D01*
X007328Y022940D02*
X007066Y022940D01*
X006728Y021366D02*
X006466Y021366D01*
X006728Y021366D02*
X006728Y021104D01*
X006466Y021104D01*
X006466Y021366D01*
X006466Y021191D02*
X006728Y021191D01*
X006728Y021278D02*
X006466Y021278D01*
X006466Y021365D02*
X006728Y021365D01*
X006728Y020579D02*
X006466Y020579D01*
X006728Y020579D02*
X006728Y020317D01*
X006466Y020317D01*
X006466Y020579D01*
X006466Y020404D02*
X006728Y020404D01*
X006728Y020491D02*
X006466Y020491D01*
X006466Y020578D02*
X006728Y020578D01*
X010898Y015250D02*
X011160Y015250D01*
X011160Y014988D01*
X010898Y014988D01*
X010898Y015250D01*
X010898Y015075D02*
X011160Y015075D01*
X011160Y015162D02*
X010898Y015162D01*
X010898Y015249D02*
X011160Y015249D01*
X011165Y014643D02*
X010903Y014643D01*
X011165Y014643D02*
X011165Y014381D01*
X010903Y014381D01*
X010903Y014643D01*
X010903Y014468D02*
X011165Y014468D01*
X011165Y014555D02*
X010903Y014555D01*
X010903Y014642D02*
X011165Y014642D01*
X011503Y014643D02*
X011765Y014643D01*
X011765Y014381D01*
X011503Y014381D01*
X011503Y014643D01*
X011503Y014468D02*
X011765Y014468D01*
X011765Y014555D02*
X011503Y014555D01*
X011503Y014642D02*
X011765Y014642D01*
X011765Y013787D02*
X011503Y013787D01*
X011503Y014049D01*
X011765Y014049D01*
X011765Y013787D01*
X011765Y013874D02*
X011503Y013874D01*
X011503Y013961D02*
X011765Y013961D01*
X011765Y014048D02*
X011503Y014048D01*
X011165Y013787D02*
X010903Y013787D01*
X010903Y014049D01*
X011165Y014049D01*
X011165Y013787D01*
X011165Y013874D02*
X010903Y013874D01*
X010903Y013961D02*
X011165Y013961D01*
X011165Y014048D02*
X010903Y014048D01*
X010998Y011788D02*
X011260Y011788D01*
X010998Y011788D02*
X010998Y012050D01*
X011260Y012050D01*
X011260Y011788D01*
X011260Y011875D02*
X010998Y011875D01*
X010998Y011962D02*
X011260Y011962D01*
X011260Y012049D02*
X010998Y012049D01*
X011598Y011788D02*
X011860Y011788D01*
X011598Y011788D02*
X011598Y012050D01*
X011860Y012050D01*
X011860Y011788D01*
X011860Y011875D02*
X011598Y011875D01*
X011598Y011962D02*
X011860Y011962D01*
X011860Y012049D02*
X011598Y012049D01*
X011629Y010638D02*
X011891Y010638D01*
X011891Y010376D01*
X011629Y010376D01*
X011629Y010638D01*
X011629Y010463D02*
X011891Y010463D01*
X011891Y010550D02*
X011629Y010550D01*
X011629Y010637D02*
X011891Y010637D01*
X011291Y010638D02*
X011029Y010638D01*
X011291Y010638D02*
X011291Y010376D01*
X011029Y010376D01*
X011029Y010638D01*
X011029Y010463D02*
X011291Y010463D01*
X011291Y010550D02*
X011029Y010550D01*
X011029Y010637D02*
X011291Y010637D01*
X005998Y013288D02*
X005998Y013550D01*
X006260Y013550D01*
X006260Y013288D01*
X005998Y013288D01*
X005998Y013375D02*
X006260Y013375D01*
X006260Y013462D02*
X005998Y013462D01*
X005998Y013549D02*
X006260Y013549D01*
X005998Y013888D02*
X005998Y014150D01*
X006260Y014150D01*
X006260Y013888D01*
X005998Y013888D01*
X005998Y013975D02*
X006260Y013975D01*
X006260Y014062D02*
X005998Y014062D01*
X005998Y014149D02*
X006260Y014149D01*
X010872Y004897D02*
X011134Y004897D01*
X011134Y004635D01*
X010872Y004635D01*
X010872Y004897D01*
X010872Y004722D02*
X011134Y004722D01*
X011134Y004809D02*
X010872Y004809D01*
X010872Y004896D02*
X011134Y004896D01*
X011472Y004897D02*
X011734Y004897D01*
X011734Y004635D01*
X011472Y004635D01*
X011472Y004897D01*
X011472Y004722D02*
X011734Y004722D01*
X011734Y004809D02*
X011472Y004809D01*
X011472Y004896D02*
X011734Y004896D01*
X011727Y004054D02*
X011465Y004054D01*
X011465Y004316D01*
X011727Y004316D01*
X011727Y004054D01*
X011727Y004141D02*
X011465Y004141D01*
X011465Y004228D02*
X011727Y004228D01*
X011727Y004315D02*
X011465Y004315D01*
X011127Y004054D02*
X010865Y004054D01*
X010865Y004316D01*
X011127Y004316D01*
X011127Y004054D01*
X011127Y004141D02*
X010865Y004141D01*
X010865Y004228D02*
X011127Y004228D01*
X011127Y004315D02*
X010865Y004315D01*
X010865Y003466D02*
X011127Y003466D01*
X010865Y003466D02*
X010865Y003728D01*
X011127Y003728D01*
X011127Y003466D01*
X011127Y003553D02*
X010865Y003553D01*
X010865Y003640D02*
X011127Y003640D01*
X011127Y003727D02*
X010865Y003727D01*
X010859Y002865D02*
X011121Y002865D01*
X010859Y002865D02*
X010859Y003127D01*
X011121Y003127D01*
X011121Y002865D01*
X011121Y002952D02*
X010859Y002952D01*
X010859Y003039D02*
X011121Y003039D01*
X011121Y003126D02*
X010859Y003126D01*
X011459Y002865D02*
X011721Y002865D01*
X011459Y002865D02*
X011459Y003127D01*
X011721Y003127D01*
X011721Y002865D01*
X011721Y002952D02*
X011459Y002952D01*
X011459Y003039D02*
X011721Y003039D01*
X011721Y003126D02*
X011459Y003126D01*
X011465Y003466D02*
X011727Y003466D01*
X011465Y003466D02*
X011465Y003728D01*
X011727Y003728D01*
X011727Y003466D01*
X011727Y003553D02*
X011465Y003553D01*
X011465Y003640D02*
X011727Y003640D01*
X011727Y003727D02*
X011465Y003727D01*
X023610Y004388D02*
X023610Y004650D01*
X023610Y004388D02*
X023348Y004388D01*
X023348Y004650D01*
X023610Y004650D01*
X023610Y004475D02*
X023348Y004475D01*
X023348Y004562D02*
X023610Y004562D01*
X023610Y004649D02*
X023348Y004649D01*
X023610Y004988D02*
X023610Y005250D01*
X023610Y004988D02*
X023348Y004988D01*
X023348Y005250D01*
X023610Y005250D01*
X023610Y005075D02*
X023348Y005075D01*
X023348Y005162D02*
X023610Y005162D01*
X023610Y005249D02*
X023348Y005249D01*
X024210Y005250D02*
X024210Y004988D01*
X023948Y004988D01*
X023948Y005250D01*
X024210Y005250D01*
X024210Y005075D02*
X023948Y005075D01*
X023948Y005162D02*
X024210Y005162D01*
X024210Y005249D02*
X023948Y005249D01*
X024210Y004650D02*
X024210Y004388D01*
X023948Y004388D01*
X023948Y004650D01*
X024210Y004650D01*
X024210Y004475D02*
X023948Y004475D01*
X023948Y004562D02*
X024210Y004562D01*
X024210Y004649D02*
X023948Y004649D01*
X024080Y018714D02*
X023818Y018714D01*
X023818Y018976D01*
X024080Y018976D01*
X024080Y018714D01*
X024080Y018801D02*
X023818Y018801D01*
X023818Y018888D02*
X024080Y018888D01*
X024080Y018975D02*
X023818Y018975D01*
X023480Y018714D02*
X023218Y018714D01*
X023218Y018976D01*
X023480Y018976D01*
X023480Y018714D01*
X023480Y018801D02*
X023218Y018801D01*
X023218Y018888D02*
X023480Y018888D01*
X023480Y018975D02*
X023218Y018975D01*
X023226Y019326D02*
X023488Y019326D01*
X023226Y019326D02*
X023226Y019588D01*
X023488Y019588D01*
X023488Y019326D01*
X023488Y019413D02*
X023226Y019413D01*
X023226Y019500D02*
X023488Y019500D01*
X023488Y019587D02*
X023226Y019587D01*
X023826Y019326D02*
X024088Y019326D01*
X023826Y019326D02*
X023826Y019588D01*
X024088Y019588D01*
X024088Y019326D01*
X024088Y019413D02*
X023826Y019413D01*
X023826Y019500D02*
X024088Y019500D01*
X024088Y019587D02*
X023826Y019587D01*
X021968Y021270D02*
X021706Y021270D01*
X021968Y021270D02*
X021968Y021008D01*
X021706Y021008D01*
X021706Y021270D01*
X021706Y021095D02*
X021968Y021095D01*
X021968Y021182D02*
X021706Y021182D01*
X021706Y021269D02*
X021968Y021269D01*
X021368Y021270D02*
X021106Y021270D01*
X021368Y021270D02*
X021368Y021008D01*
X021106Y021008D01*
X021106Y021270D01*
X021106Y021095D02*
X021368Y021095D01*
X021368Y021182D02*
X021106Y021182D01*
X021106Y021269D02*
X021368Y021269D01*
X019858Y019990D02*
X019858Y019728D01*
X019596Y019728D01*
X019596Y019990D01*
X019858Y019990D01*
X019858Y019815D02*
X019596Y019815D01*
X019596Y019902D02*
X019858Y019902D01*
X019858Y019989D02*
X019596Y019989D01*
X019858Y019390D02*
X019858Y019128D01*
X019596Y019128D01*
X019596Y019390D01*
X019858Y019390D01*
X019858Y019215D02*
X019596Y019215D01*
X019596Y019302D02*
X019858Y019302D01*
X019858Y019389D02*
X019596Y019389D01*
D14*
X008472Y001535D03*
X007449Y001519D03*
X006484Y001535D03*
D15*
X006516Y011476D03*
X007476Y011484D03*
X008405Y011484D03*
D16*
X020514Y018919D03*
X020514Y019419D03*
X020514Y019919D03*
X020514Y020419D03*
X022614Y020419D03*
X022614Y019919D03*
X022614Y019419D03*
X022614Y018919D03*
D17*
X023848Y014917D03*
D18*
X021348Y014917D03*
D19*
X024257Y013757D02*
X024257Y013457D01*
X023807Y013457D01*
X023807Y013757D01*
X024257Y013757D01*
X024257Y013556D02*
X023807Y013556D01*
X023807Y013655D02*
X024257Y013655D01*
X024257Y013754D02*
X023807Y013754D01*
X024257Y013057D02*
X024257Y012757D01*
X023807Y012757D01*
X023807Y013057D01*
X024257Y013057D01*
X024257Y012856D02*
X023807Y012856D01*
X023807Y012955D02*
X024257Y012955D01*
X024257Y013054D02*
X023807Y013054D01*
X023044Y007509D02*
X022888Y007353D01*
X021964Y007353D01*
X021964Y006566D02*
X022882Y006566D01*
X023079Y006369D01*
X023004Y005269D02*
X023004Y004969D01*
X022554Y004969D01*
X022554Y005269D01*
X023004Y005269D01*
X023004Y005068D02*
X022554Y005068D01*
X022554Y005167D02*
X023004Y005167D01*
X023004Y005266D02*
X022554Y005266D01*
X023004Y004569D02*
X023004Y004269D01*
X022554Y004269D01*
X022554Y004569D01*
X023004Y004569D01*
X023004Y004368D02*
X022554Y004368D01*
X022554Y004467D02*
X023004Y004467D01*
X023004Y004566D02*
X022554Y004566D01*
X017629Y012569D02*
X012279Y012569D01*
X012179Y012469D01*
X012175Y012465D01*
X012163Y012515D01*
X012179Y012469D02*
X012192Y012469D01*
X012129Y012769D02*
X012029Y012869D01*
X012029Y013203D01*
X012129Y012769D02*
X016179Y012769D01*
X016349Y012939D01*
X017629Y012569D02*
X017989Y012930D01*
X017429Y016119D02*
X017664Y016355D01*
X020514Y019919D02*
X020515Y019919D01*
X021079Y019919D01*
X021237Y020077D01*
X021237Y021139D01*
X021837Y021139D02*
X021837Y020061D01*
X021979Y019919D01*
X022614Y019919D01*
X022614Y019919D01*
X020282Y020886D02*
X019982Y020886D01*
X019982Y021336D01*
X020282Y021336D01*
X020282Y020886D01*
X020282Y020985D02*
X019982Y020985D01*
X019982Y021084D02*
X020282Y021084D01*
X020282Y021183D02*
X019982Y021183D01*
X019982Y021282D02*
X020282Y021282D01*
X019582Y020886D02*
X019282Y020886D01*
X019282Y021336D01*
X019582Y021336D01*
X019582Y020886D01*
X019582Y020985D02*
X019282Y020985D01*
X019282Y021084D02*
X019582Y021084D01*
X019582Y021183D02*
X019282Y021183D01*
X019282Y021282D02*
X019582Y021282D01*
X011038Y015713D02*
X010679Y015354D01*
X010679Y014219D01*
X010586Y014126D01*
X010260Y014126D01*
X010978Y013918D02*
X011034Y013918D01*
X011034Y014512D01*
X011140Y012889D02*
X011140Y012869D01*
X010594Y012869D01*
X011011Y012469D02*
X010063Y012475D01*
X009840Y012252D01*
X009498Y012252D01*
X009374Y012377D01*
X009053Y012669D01*
X007079Y012669D01*
X006516Y011476D02*
X006509Y011469D01*
X005129Y011469D01*
X006880Y014126D02*
X007021Y014126D01*
X007079Y014069D01*
X007629Y014069D01*
X006902Y014419D02*
X006880Y014441D01*
X006880Y015071D02*
X006431Y015071D01*
X006429Y015069D01*
X004313Y016671D02*
X003574Y017410D01*
X003574Y017861D01*
X003566Y017869D01*
X002929Y017869D01*
X006879Y020069D02*
X006879Y020130D01*
X007197Y020448D01*
X007229Y020019D02*
X007229Y019692D01*
X007197Y019660D01*
X010429Y018919D02*
X010779Y018919D01*
X009357Y013539D02*
X009357Y012984D01*
X009512Y012770D01*
X009512Y011924D02*
X009551Y011885D01*
X010319Y011885D01*
X010338Y011806D01*
X010594Y010900D02*
X011775Y010900D01*
X011775Y010841D01*
X011760Y010507D01*
X011160Y010507D02*
X011140Y010487D01*
X010338Y010487D01*
X010932Y010018D02*
X011232Y010018D01*
X011232Y009568D01*
X010932Y009568D01*
X010932Y010018D01*
X010932Y009667D02*
X011232Y009667D01*
X011232Y009766D02*
X010932Y009766D01*
X010932Y009865D02*
X011232Y009865D01*
X011232Y009964D02*
X010932Y009964D01*
X011632Y010018D02*
X011932Y010018D01*
X011932Y009568D01*
X011632Y009568D01*
X011632Y010018D01*
X011632Y009667D02*
X011932Y009667D01*
X011932Y009766D02*
X011632Y009766D01*
X011632Y009865D02*
X011932Y009865D01*
X011932Y009964D02*
X011632Y009964D01*
X009588Y009559D02*
X008972Y008944D01*
X002602Y008944D01*
X002702Y007944D02*
X009304Y007944D01*
X009622Y007625D01*
X010999Y004769D02*
X011003Y004766D01*
D20*
X021609Y017166D03*
X023853Y017166D03*
D21*
X019916Y017726D03*
X019916Y015985D03*
D22*
X022971Y007434D02*
X023721Y007434D01*
X022971Y007434D02*
X022971Y007584D01*
X023721Y007584D01*
X023721Y007434D01*
X023721Y007583D02*
X022971Y007583D01*
X022971Y006334D02*
X023721Y006334D01*
X022971Y006334D02*
X022971Y006484D01*
X023721Y006484D01*
X023721Y006334D01*
X023721Y006483D02*
X022971Y006483D01*
D23*
X022846Y007059D02*
X022646Y007059D01*
X022846Y007059D02*
X022846Y006859D01*
X022646Y006859D01*
X022646Y007059D01*
X022646Y007058D02*
X022846Y007058D01*
X023846Y007059D02*
X024046Y007059D01*
X024046Y006859D01*
X023846Y006859D01*
X023846Y007059D01*
X023846Y007058D02*
X024046Y007058D01*
X019429Y013569D02*
X019429Y014505D01*
X018930Y015003D01*
X019129Y015202D01*
X019129Y017469D01*
X018504Y018093D01*
X017901Y018093D01*
X012879Y013569D02*
X011629Y013569D01*
X011629Y013912D01*
X011634Y013918D01*
X011629Y013569D02*
X011568Y013469D01*
X011568Y012569D01*
X011425Y012465D01*
X011433Y012465D01*
X011529Y012369D01*
X011568Y012569D01*
X011529Y012369D02*
X011529Y012169D01*
X011729Y011969D01*
X011729Y011919D01*
X008412Y013153D02*
X008412Y013539D01*
X008412Y013153D02*
X008329Y013069D01*
X007929Y013069D01*
X007783Y013215D01*
X007783Y013223D01*
X007629Y013069D01*
X007929Y013069D01*
X007783Y013223D02*
X007783Y013539D01*
X007629Y013069D02*
X007229Y013069D01*
X006879Y013419D01*
X006129Y013419D01*
X005479Y013419D02*
X005379Y013319D01*
X005429Y013319D01*
X011229Y006969D02*
X011229Y006919D01*
X011269Y006959D01*
X012516Y006959D01*
D24*
X009672Y013539D03*
X009357Y013539D03*
X009042Y013539D03*
X008727Y013539D03*
X008412Y013539D03*
X008097Y013539D03*
X007783Y013539D03*
X007468Y013539D03*
X007468Y016919D03*
X007783Y016919D03*
X008097Y016919D03*
X008412Y016919D03*
X008727Y016919D03*
X009042Y016919D03*
X009357Y016919D03*
X009672Y016919D03*
D25*
X010260Y016331D03*
X010260Y016016D03*
X010260Y015701D03*
X010260Y015386D03*
X010260Y015071D03*
X010260Y014756D03*
X010260Y014441D03*
X010260Y014126D03*
X006880Y014126D03*
X006880Y014441D03*
X006880Y014756D03*
X006880Y015071D03*
X006880Y015386D03*
X006880Y015701D03*
X006880Y016016D03*
X006880Y016331D03*
D26*
X004413Y015671D03*
X003413Y015671D03*
X003313Y014671D03*
X004313Y014671D03*
X004313Y016671D03*
X003313Y016671D03*
D27*
X015111Y016250D03*
X015111Y018750D03*
D28*
X013394Y022506D03*
X008861Y022506D03*
D29*
X009031Y020026D03*
X008638Y020026D03*
X017325Y020026D03*
X017719Y020026D03*
D30*
X016914Y018100D03*
D31*
X017901Y018093D03*
D32*
X017664Y016479D03*
D33*
X016736Y022369D03*
X015004Y022369D03*
X018721Y022371D03*
X020453Y022371D03*
D34*
X012163Y013263D03*
X012163Y012515D03*
X011140Y012515D03*
X011140Y012889D03*
X011140Y013263D03*
D35*
X002702Y011944D03*
X002602Y010944D03*
X002702Y009944D03*
X002602Y008944D03*
X002702Y007944D03*
X002602Y006944D03*
D36*
X010079Y018119D03*
X010779Y018119D03*
X010429Y018919D03*
X004229Y019669D03*
X003529Y019669D03*
X002979Y019669D03*
X002279Y019669D03*
X002629Y020469D03*
X003879Y020469D03*
X017579Y014319D03*
X018279Y014319D03*
X017929Y015119D03*
D37*
X011229Y007969D03*
X011229Y006969D03*
X005429Y013319D03*
X005429Y014319D03*
D38*
X005516Y019522D02*
X005742Y019522D01*
X005516Y019522D02*
X005516Y019798D01*
X005742Y019798D01*
X005742Y019522D01*
X005742Y019596D02*
X005516Y019596D01*
X005516Y019670D02*
X005742Y019670D01*
X005742Y019744D02*
X005516Y019744D01*
X005142Y019522D02*
X004916Y019522D01*
X004916Y019798D01*
X005142Y019798D01*
X005142Y019522D01*
X005142Y019596D02*
X004916Y019596D01*
X004916Y019670D02*
X005142Y019670D01*
X005142Y019744D02*
X004916Y019744D01*
X004916Y020310D02*
X005142Y020310D01*
X004916Y020310D02*
X004916Y020586D01*
X005142Y020586D01*
X005142Y020310D01*
X005142Y020384D02*
X004916Y020384D01*
X004916Y020458D02*
X005142Y020458D01*
X005142Y020532D02*
X004916Y020532D01*
X004916Y021097D02*
X005142Y021097D01*
X004916Y021097D02*
X004916Y021373D01*
X005142Y021373D01*
X005142Y021097D01*
X005142Y021171D02*
X004916Y021171D01*
X004916Y021245D02*
X005142Y021245D01*
X005142Y021319D02*
X004916Y021319D01*
X004916Y021884D02*
X005142Y021884D01*
X004916Y021884D02*
X004916Y022160D01*
X005142Y022160D01*
X005142Y021884D01*
X005142Y021958D02*
X004916Y021958D01*
X004916Y022032D02*
X005142Y022032D01*
X005142Y022106D02*
X004916Y022106D01*
X004916Y022672D02*
X005142Y022672D01*
X004916Y022672D02*
X004916Y022948D01*
X005142Y022948D01*
X005142Y022672D01*
X005142Y022746D02*
X004916Y022746D01*
X004916Y022820D02*
X005142Y022820D01*
X005142Y022894D02*
X004916Y022894D01*
X005516Y022672D02*
X005742Y022672D01*
X005516Y022672D02*
X005516Y022948D01*
X005742Y022948D01*
X005742Y022672D01*
X005742Y022746D02*
X005516Y022746D01*
X005516Y022820D02*
X005742Y022820D01*
X005742Y022894D02*
X005516Y022894D01*
X005516Y021884D02*
X005742Y021884D01*
X005516Y021884D02*
X005516Y022160D01*
X005742Y022160D01*
X005742Y021884D01*
X005742Y021958D02*
X005516Y021958D01*
X005516Y022032D02*
X005742Y022032D01*
X005742Y022106D02*
X005516Y022106D01*
X005516Y021097D02*
X005742Y021097D01*
X005516Y021097D02*
X005516Y021373D01*
X005742Y021373D01*
X005742Y021097D01*
X005742Y021171D02*
X005516Y021171D01*
X005516Y021245D02*
X005742Y021245D01*
X005742Y021319D02*
X005516Y021319D01*
X005516Y020310D02*
X005742Y020310D01*
X005516Y020310D02*
X005516Y020586D01*
X005742Y020586D01*
X005742Y020310D01*
X005742Y020384D02*
X005516Y020384D01*
X005516Y020458D02*
X005742Y020458D01*
X005742Y020532D02*
X005516Y020532D01*
D39*
X012829Y020869D03*
X014813Y020869D03*
D40*
X007129Y018519D03*
X005429Y018519D03*
D41*
X005329Y017869D03*
X004179Y017519D03*
X004629Y019119D03*
X005629Y019319D03*
X005929Y020469D03*
X006879Y020069D03*
X007229Y020019D03*
X007229Y021569D03*
X004779Y021219D03*
X007829Y018169D03*
X008429Y018169D03*
X007179Y017869D03*
X008279Y016469D03*
X008679Y016469D03*
X008829Y015869D03*
X008479Y015619D03*
X008829Y015369D03*
X008479Y015119D03*
X008829Y014869D03*
X008829Y014469D03*
X008729Y014069D03*
X008079Y014369D03*
X007629Y014069D03*
X007379Y014369D03*
X006429Y015069D03*
X006229Y015419D03*
X004929Y014269D03*
X004629Y014019D03*
X007079Y012669D03*
X005129Y011469D03*
X009329Y014119D03*
X009682Y013094D03*
X010398Y013830D03*
X012279Y014369D03*
X012079Y014869D03*
X013079Y014669D03*
X013479Y014669D03*
X013479Y014269D03*
X013079Y014269D03*
X012879Y013569D03*
X014479Y014694D03*
X015079Y014694D03*
X015929Y014569D03*
X015929Y014219D03*
X016029Y015019D03*
X016729Y015019D03*
X018229Y014669D03*
X018279Y015119D03*
X019579Y015369D03*
X020079Y015369D03*
X020579Y015369D03*
X020579Y014869D03*
X020579Y014369D03*
X020079Y014369D03*
X020079Y014869D03*
X019579Y014869D03*
X019429Y013569D03*
X020079Y012869D03*
X020579Y012869D03*
X021079Y012869D03*
X021579Y012869D03*
X022079Y012869D03*
X022079Y012369D03*
X022079Y011919D03*
X021579Y012369D03*
X022529Y013969D03*
X022779Y014219D03*
X023029Y013969D03*
X022579Y015119D03*
X022579Y015619D03*
X022579Y016119D03*
X022079Y016119D03*
X022079Y015619D03*
X022079Y015119D03*
X021579Y016119D03*
X021079Y016119D03*
X020579Y016119D03*
X020529Y018419D03*
X019829Y018419D03*
X019829Y018969D03*
X019179Y018969D03*
X019179Y019469D03*
X019179Y020019D03*
X019179Y020519D03*
X019531Y020566D03*
X020829Y021619D03*
X021329Y021619D03*
X021829Y021619D03*
X022329Y021619D03*
X022829Y021619D03*
X022829Y021119D03*
X023329Y021119D03*
X023329Y020619D03*
X023829Y020619D03*
X023829Y020119D03*
X024329Y020119D03*
X024379Y019469D03*
X024379Y018869D03*
X024279Y018269D03*
X023329Y020119D03*
X022329Y021119D03*
X022329Y022119D03*
X021829Y022119D03*
X021829Y022619D03*
X021329Y022619D03*
X021329Y023119D03*
X020829Y023119D03*
X020329Y023119D03*
X019829Y023119D03*
X019329Y023119D03*
X018829Y023119D03*
X018329Y023119D03*
X017829Y023119D03*
X017329Y023119D03*
X016829Y023119D03*
X016329Y023119D03*
X015829Y023119D03*
X015829Y022619D03*
X015329Y023119D03*
X014829Y023119D03*
X014829Y021669D03*
X013329Y019369D03*
X013329Y018619D03*
X013329Y017869D03*
X013329Y017119D03*
X012579Y017869D03*
X012579Y018619D03*
X012579Y019369D03*
X011829Y019369D03*
X011829Y018619D03*
X011829Y017869D03*
X010779Y018919D03*
X010529Y016819D03*
X013329Y016369D03*
X014479Y015319D03*
X016629Y018119D03*
X019179Y018419D03*
X021329Y022119D03*
X023579Y012369D03*
X024079Y012369D03*
X024554Y012369D03*
X024554Y011869D03*
X024079Y011869D03*
X023579Y011869D03*
X023579Y008919D03*
X023579Y008519D03*
X023579Y008119D03*
X024079Y008119D03*
X024079Y008519D03*
X024529Y008119D03*
X024079Y008919D03*
X023079Y008919D03*
X023079Y008519D03*
X023079Y008119D03*
X022579Y008119D03*
X022579Y008519D03*
X022579Y008919D03*
X023179Y005719D03*
X023529Y005519D03*
X023179Y005319D03*
X023079Y003869D03*
X023579Y003869D03*
X024079Y003869D03*
X024079Y003369D03*
X023579Y003369D03*
X023079Y003369D03*
X022579Y003369D03*
X022129Y003419D03*
X022579Y003869D03*
X018579Y001369D03*
X018579Y000869D03*
X018079Y000869D03*
X018079Y001369D03*
X017579Y001369D03*
X017579Y000869D03*
X017079Y000869D03*
X017079Y001369D03*
X016579Y001369D03*
X016579Y000869D03*
X016079Y000869D03*
X016079Y001369D03*
X015579Y001369D03*
X015579Y000869D03*
X012579Y002369D03*
X012079Y002369D03*
X012079Y002869D03*
X012579Y002869D03*
X010979Y002669D03*
X008479Y002369D03*
X007429Y002369D03*
X006429Y002369D03*
X011129Y005419D03*
X011079Y006019D03*
X011079Y006369D03*
X009622Y007625D03*
X011079Y008369D03*
X011079Y009119D03*
X009588Y009559D03*
X012329Y010619D03*
X012729Y010619D03*
X012729Y011119D03*
X016829Y012269D03*
X017229Y012269D03*
X018129Y012544D03*
X019454Y012294D03*
D42*
X018279Y014219D02*
X018279Y014319D01*
X019727Y019859D02*
X019787Y019919D01*
X020514Y019919D01*
X021964Y007747D02*
X022876Y007747D01*
X023054Y007569D01*
X023054Y007519D01*
X023044Y007509D01*
X023346Y007509D01*
X023079Y006369D02*
X022882Y006172D01*
X021964Y006172D01*
X005029Y021235D02*
X005012Y021219D01*
X004779Y021219D01*
X004174Y017861D02*
X004174Y017523D01*
X004179Y017519D01*
D43*
X002728Y002567D02*
X006231Y002567D01*
X006270Y002606D02*
X006191Y002528D01*
X006149Y002425D01*
X006149Y002313D01*
X006191Y002210D01*
X006270Y002132D01*
X006304Y002117D01*
X006304Y002108D01*
X006190Y002108D01*
X006108Y002026D01*
X006108Y001044D01*
X006190Y000962D01*
X006778Y000962D01*
X006860Y001044D01*
X006860Y002026D01*
X006778Y002108D01*
X006664Y002108D01*
X006664Y002208D01*
X006666Y002210D01*
X006709Y002313D01*
X006709Y002394D01*
X008319Y004005D01*
X010681Y004005D01*
X010681Y003977D01*
X010768Y003891D01*
X010681Y003804D01*
X010681Y003777D01*
X008582Y003777D01*
X007454Y002649D01*
X007373Y002649D01*
X007270Y002606D01*
X007191Y002528D01*
X007149Y002425D01*
X007149Y002313D01*
X007191Y002210D01*
X007269Y002133D01*
X007269Y002092D01*
X007154Y002092D01*
X007072Y002010D01*
X007072Y001028D01*
X007154Y000946D01*
X007743Y000946D01*
X007825Y001028D01*
X007825Y002010D01*
X007743Y002092D01*
X007629Y002092D01*
X007629Y002173D01*
X007666Y002210D01*
X007709Y002313D01*
X007709Y002394D01*
X008731Y003417D01*
X010681Y003417D01*
X010681Y003389D01*
X010771Y003300D01*
X010687Y003216D01*
X009014Y003216D01*
X008447Y002649D01*
X008423Y002649D01*
X008320Y002606D01*
X008241Y002528D01*
X008199Y002425D01*
X008199Y002313D01*
X008241Y002210D01*
X008252Y002199D01*
X008252Y002108D01*
X008178Y002108D01*
X008096Y002026D01*
X008096Y001044D01*
X008178Y000962D01*
X008767Y000962D01*
X008849Y001044D01*
X008849Y002026D01*
X008767Y002108D01*
X008692Y002108D01*
X008692Y002187D01*
X008716Y002210D01*
X008759Y002313D01*
X008759Y002338D01*
X009197Y002776D01*
X010687Y002776D01*
X010710Y002753D01*
X010699Y002725D01*
X010699Y002613D01*
X010741Y002510D01*
X010820Y002432D01*
X010923Y002389D01*
X011034Y002389D01*
X011137Y002432D01*
X011216Y002510D01*
X011259Y002613D01*
X011259Y002725D01*
X011253Y002737D01*
X011305Y002789D01*
X011305Y003203D01*
X011215Y003293D01*
X011296Y003374D01*
X011389Y003282D01*
X011804Y003282D01*
X011911Y003389D01*
X011911Y003657D01*
X011996Y003742D01*
X011996Y003622D01*
X012078Y003540D01*
X012954Y003540D01*
X013036Y003622D01*
X013036Y003998D01*
X013027Y004007D01*
X013036Y004016D01*
X013036Y004392D01*
X013027Y004400D01*
X013036Y004409D01*
X013036Y004785D01*
X013027Y004794D01*
X013036Y004803D01*
X013036Y005179D01*
X013027Y005188D01*
X013036Y005197D01*
X013036Y005573D01*
X012954Y005655D01*
X012078Y005655D01*
X012028Y005605D01*
X011339Y005605D01*
X011287Y005656D01*
X011184Y005699D01*
X011073Y005699D01*
X010970Y005656D01*
X010891Y005578D01*
X010849Y005475D01*
X010849Y005363D01*
X010891Y005260D01*
X010970Y005182D01*
X011073Y005139D01*
X011184Y005139D01*
X011246Y005165D01*
X011747Y005165D01*
X011663Y005081D01*
X011395Y005081D01*
X011303Y004988D01*
X011210Y005081D01*
X010795Y005081D01*
X010759Y005044D01*
X010759Y009473D01*
X010853Y009378D01*
X011311Y009378D01*
X011422Y009490D01*
X011422Y010097D01*
X011327Y010192D01*
X011367Y010192D01*
X011460Y010284D01*
X011552Y010192D01*
X011967Y010192D01*
X012075Y010299D01*
X012075Y010714D01*
X011967Y010822D01*
X011965Y010822D01*
X011965Y010837D01*
X011969Y010911D01*
X011965Y010915D01*
X011965Y010979D01*
X012146Y010979D01*
X012271Y011031D01*
X012771Y011531D01*
X012867Y011626D01*
X012919Y011751D01*
X012919Y012187D01*
X012867Y012311D01*
X012799Y012379D01*
X016571Y012379D01*
X016549Y012325D01*
X016549Y012213D01*
X016552Y012204D01*
X016265Y012204D01*
X016256Y012195D01*
X016247Y012204D01*
X015871Y012204D01*
X015862Y012195D01*
X015853Y012204D01*
X015477Y012204D01*
X015468Y012195D01*
X015459Y012204D01*
X015084Y012204D01*
X015075Y012195D01*
X015066Y012204D01*
X014690Y012204D01*
X014681Y012195D01*
X014672Y012204D01*
X014296Y012204D01*
X014214Y012122D01*
X014214Y011246D01*
X014296Y011164D01*
X014672Y011164D01*
X014681Y011173D01*
X014690Y011164D01*
X015066Y011164D01*
X015075Y011173D01*
X015084Y011164D01*
X015459Y011164D01*
X015468Y011173D01*
X015477Y011164D01*
X015853Y011164D01*
X015862Y011173D01*
X015871Y011164D01*
X016247Y011164D01*
X016256Y011173D01*
X016265Y011164D01*
X016641Y011164D01*
X016649Y011173D01*
X016658Y011164D01*
X017034Y011164D01*
X017043Y011173D01*
X017052Y011164D01*
X017428Y011164D01*
X017437Y011173D01*
X017446Y011164D01*
X017822Y011164D01*
X017831Y011173D01*
X017839Y011164D01*
X018215Y011164D01*
X018224Y011173D01*
X018233Y011164D01*
X018609Y011164D01*
X018618Y011173D01*
X018627Y011164D01*
X019003Y011164D01*
X019012Y011173D01*
X019021Y011164D01*
X019397Y011164D01*
X019405Y011173D01*
X019414Y011164D01*
X019790Y011164D01*
X019799Y011173D01*
X019808Y011164D01*
X020184Y011164D01*
X020193Y011173D01*
X020202Y011164D01*
X020578Y011164D01*
X020660Y011246D01*
X020660Y012122D01*
X020584Y012198D01*
X020584Y012218D01*
X020478Y012324D01*
X020438Y012364D01*
X020734Y012364D01*
X022349Y010749D01*
X022349Y010379D01*
X021526Y010379D01*
X021444Y010297D01*
X021444Y009921D01*
X021453Y009912D01*
X021444Y009903D01*
X021444Y009527D01*
X021453Y009519D01*
X021444Y009510D01*
X021444Y009134D01*
X021526Y009052D01*
X022402Y009052D01*
X022484Y009134D01*
X022484Y009142D01*
X022506Y009142D01*
X022603Y009239D01*
X022709Y009344D01*
X022709Y010899D01*
X022603Y011004D01*
X020883Y012724D01*
X019639Y012724D01*
X020183Y013267D01*
X022327Y013267D01*
X022330Y013264D01*
X022354Y013262D01*
X022374Y013249D01*
X022385Y013252D01*
X022387Y013249D01*
X022419Y013249D01*
X022459Y013235D01*
X022484Y013247D01*
X022545Y013240D01*
X022556Y013249D01*
X024202Y013249D01*
X024213Y013240D01*
X024274Y013247D01*
X024299Y013235D01*
X024339Y013249D01*
X024370Y013249D01*
X024372Y013252D01*
X024384Y013249D01*
X024404Y013262D01*
X024427Y013264D01*
X024441Y013282D01*
X024463Y013282D01*
X024480Y013298D01*
X024502Y013306D01*
X024512Y013326D01*
X024534Y013331D01*
X024546Y013351D01*
X024566Y013364D01*
X024571Y013385D01*
X024591Y013395D01*
X024599Y013417D01*
X024616Y013434D01*
X024616Y013456D01*
X024633Y013470D01*
X024636Y013494D01*
X024648Y013514D01*
X024646Y013525D01*
X024649Y013528D01*
X024649Y013559D01*
X024663Y013599D01*
X024651Y013624D01*
X024657Y013685D01*
X024649Y013696D01*
X024649Y017592D01*
X024657Y017603D01*
X024651Y017664D01*
X024663Y017689D01*
X024649Y017729D01*
X024649Y017760D01*
X024646Y017763D01*
X024648Y017774D01*
X024636Y017794D01*
X024633Y017817D01*
X024616Y017831D01*
X024616Y017854D01*
X024599Y017870D01*
X024591Y017893D01*
X024571Y017902D01*
X024566Y017924D01*
X024546Y017937D01*
X024534Y017957D01*
X024512Y017962D01*
X024502Y017982D01*
X024480Y017989D01*
X024463Y018006D01*
X024441Y018006D01*
X024427Y018024D01*
X024404Y018026D01*
X024384Y018039D01*
X024372Y018036D01*
X024370Y018039D01*
X024339Y018039D01*
X024299Y018053D01*
X024274Y018041D01*
X024213Y018048D01*
X024202Y018039D01*
X024149Y018039D01*
X024149Y018530D01*
X024157Y018530D01*
X024264Y018638D01*
X024264Y019053D01*
X024157Y019160D01*
X023742Y019160D01*
X023649Y019068D01*
X023570Y019147D01*
X023672Y019249D01*
X023672Y019664D01*
X023565Y019772D01*
X023150Y019772D01*
X023042Y019664D01*
X023042Y019614D01*
X022987Y019669D01*
X023054Y019736D01*
X023054Y020101D01*
X022987Y020169D01*
X023054Y020236D01*
X023054Y020601D01*
X022972Y020684D01*
X022256Y020684D01*
X022174Y020601D01*
X022174Y020236D01*
X022241Y020169D01*
X022182Y020109D01*
X022057Y020109D01*
X022027Y020139D01*
X022027Y020824D01*
X022044Y020824D01*
X022152Y020931D01*
X022152Y021346D01*
X022044Y021454D01*
X021629Y021454D01*
X021537Y021361D01*
X021444Y021454D01*
X021365Y021454D01*
X021304Y021479D01*
X020469Y021479D01*
X020469Y021678D01*
X020549Y021759D01*
X020984Y021759D01*
X021066Y021841D01*
X021066Y022902D01*
X020984Y022984D01*
X019923Y022984D01*
X019841Y022902D01*
X019841Y022012D01*
X019840Y022011D01*
X019789Y021887D01*
X019789Y021060D01*
X019575Y020846D01*
X019476Y020846D01*
X019373Y020803D01*
X019294Y020724D01*
X019251Y020621D01*
X019251Y020510D01*
X019294Y020407D01*
X019373Y020328D01*
X019387Y020323D01*
X019387Y019791D01*
X019412Y019731D01*
X019412Y019651D01*
X019519Y019544D01*
X019599Y019544D01*
X019659Y019519D01*
X019794Y019519D01*
X019855Y019544D01*
X019934Y019544D01*
X020042Y019651D01*
X020042Y019659D01*
X020081Y019659D01*
X020081Y019641D01*
X020080Y019638D01*
X020079Y019635D01*
X020062Y019622D01*
X020060Y019605D01*
X020051Y019592D01*
X020055Y019575D01*
X020049Y019568D01*
X020049Y019547D01*
X020038Y019516D01*
X020048Y019496D01*
X020041Y019440D01*
X020048Y019431D01*
X020041Y019423D01*
X020048Y019367D01*
X020038Y019346D01*
X020049Y019316D01*
X020049Y019294D01*
X020055Y019288D01*
X020051Y019271D01*
X020060Y019257D01*
X020062Y019241D01*
X020079Y019228D01*
X020080Y019225D01*
X020081Y019222D01*
X020081Y019201D01*
X020093Y019189D01*
X020098Y019174D01*
X020117Y019165D01*
X020120Y019162D01*
X020121Y019160D01*
X020126Y019139D01*
X020140Y019130D01*
X020149Y019116D01*
X020169Y019112D01*
X020172Y019110D01*
X020174Y019108D01*
X020184Y019088D01*
X020199Y019083D01*
X020211Y019072D01*
X020232Y019072D01*
X020235Y019071D01*
X020238Y019069D01*
X020251Y019052D01*
X020267Y019050D01*
X020281Y019042D01*
X020297Y019045D01*
X020304Y019039D01*
X020325Y019039D01*
X020356Y019028D01*
X020377Y019038D01*
X020433Y019032D01*
X020442Y019039D01*
X020770Y019039D01*
X020792Y019037D01*
X020805Y019033D01*
X020817Y019026D01*
X020827Y019018D01*
X020836Y019007D01*
X020842Y018995D01*
X020846Y018982D01*
X020849Y018960D01*
X020849Y017636D01*
X020670Y017636D01*
X020596Y017710D01*
X020596Y018209D01*
X020514Y018291D01*
X019318Y018291D01*
X019236Y018209D01*
X019236Y017701D01*
X019034Y017903D01*
X019037Y017929D01*
X019029Y017939D01*
X019029Y021047D01*
X019036Y021056D01*
X019029Y021127D01*
X019039Y021146D01*
X019029Y021182D01*
X019029Y021202D01*
X019021Y021210D01*
X019020Y021218D01*
X019025Y021236D01*
X019016Y021252D01*
X019015Y021270D01*
X019001Y021281D01*
X018995Y021291D01*
X018992Y021303D01*
X018994Y021321D01*
X018982Y021335D01*
X018977Y021352D01*
X018961Y021360D01*
X018954Y021369D01*
X018948Y021380D01*
X018946Y021398D01*
X018932Y021409D01*
X018924Y021425D01*
X018906Y021430D01*
X018897Y021438D01*
X018890Y021447D01*
X018885Y021464D01*
X018869Y021473D01*
X018857Y021487D01*
X018839Y021488D01*
X018829Y021494D01*
X018820Y021501D01*
X018812Y021517D01*
X018794Y021522D01*
X018780Y021534D01*
X018762Y021532D01*
X018751Y021536D01*
X018741Y021541D01*
X018729Y021555D01*
X018711Y021557D01*
X018695Y021565D01*
X018678Y021560D01*
X018669Y021561D01*
X018661Y021569D01*
X018641Y021569D01*
X018606Y021580D01*
X018587Y021569D01*
X018516Y021576D01*
X018507Y021569D01*
X016934Y021569D01*
X016927Y021575D01*
X016853Y021569D01*
X016799Y021569D01*
X016789Y021575D01*
X016726Y021558D01*
X016685Y021554D01*
X016887Y021756D01*
X017267Y021756D01*
X017339Y021829D01*
X018121Y021829D01*
X018191Y021759D01*
X019252Y021759D01*
X019334Y021841D01*
X019334Y022902D01*
X019252Y022984D01*
X018191Y022984D01*
X018116Y022909D01*
X017339Y022909D01*
X017267Y022981D01*
X016206Y022981D01*
X016124Y022899D01*
X016124Y022520D01*
X015152Y021549D01*
X014748Y021549D01*
X014741Y021555D01*
X014675Y021549D01*
X014610Y021549D01*
X014603Y021553D01*
X014546Y021538D01*
X014488Y021533D01*
X014480Y021523D01*
X014468Y021527D01*
X014414Y021502D01*
X014358Y021487D01*
X014351Y021476D01*
X014338Y021478D01*
X014290Y021444D01*
X014237Y021420D01*
X014233Y021408D01*
X014220Y021408D01*
X014178Y021366D01*
X014130Y021332D01*
X014128Y021320D01*
X014115Y021317D01*
X014082Y021269D01*
X014040Y021228D01*
X014040Y021215D01*
X014028Y021210D01*
X014003Y021157D01*
X013969Y021109D01*
X013972Y021096D01*
X013960Y021090D01*
X013945Y021033D01*
X013920Y020980D01*
X013925Y020968D01*
X013915Y020960D01*
X013910Y020901D01*
X013895Y020844D01*
X013899Y020837D01*
X013899Y020773D01*
X013893Y020706D01*
X013899Y020699D01*
X013899Y018313D01*
X013759Y018173D01*
X013674Y018089D01*
X013629Y017979D01*
X013629Y016043D01*
X013604Y016019D01*
X011854Y016019D01*
X011845Y016028D01*
X011430Y016028D01*
X011338Y015935D01*
X011252Y016020D01*
X011344Y016112D01*
X011344Y016526D01*
X011248Y016621D01*
X011339Y016713D01*
X011339Y017127D01*
X011232Y017235D01*
X010817Y017235D01*
X010709Y017127D01*
X010709Y017034D01*
X010687Y017056D01*
X010584Y017099D01*
X010473Y017099D01*
X010370Y017056D01*
X010313Y016999D01*
X010054Y016999D01*
X009949Y016893D01*
X009922Y016867D01*
X009922Y017227D01*
X009840Y017309D01*
X009691Y017309D01*
X009744Y017362D01*
X009744Y017776D01*
X009651Y017869D01*
X009739Y017957D01*
X009739Y017836D01*
X009815Y017760D01*
X009812Y017757D01*
X009812Y017342D01*
X009920Y017234D01*
X010334Y017234D01*
X010442Y017342D01*
X010442Y017757D01*
X010391Y017808D01*
X010419Y017836D01*
X010419Y018402D01*
X010337Y018484D01*
X009821Y018484D01*
X009739Y018402D01*
X009739Y018381D01*
X009636Y018484D01*
X009221Y018484D01*
X009114Y018376D01*
X009114Y017962D01*
X009206Y017869D01*
X009114Y017776D01*
X009114Y017362D01*
X009177Y017298D01*
X009177Y017297D01*
X009107Y017227D01*
X009107Y016649D01*
X008977Y016649D01*
X008977Y017227D01*
X008950Y017254D01*
X008986Y017254D01*
X009094Y017362D01*
X009094Y017776D01*
X008986Y017884D01*
X008857Y017884D01*
X008796Y017909D01*
X008361Y017909D01*
X008301Y017884D01*
X007921Y017884D01*
X007814Y017776D01*
X007814Y017362D01*
X007866Y017309D01*
X007300Y017309D01*
X007218Y017227D01*
X007218Y017134D01*
X006894Y017458D01*
X006894Y017726D01*
X006786Y017834D01*
X006759Y017834D01*
X006759Y017894D01*
X006843Y017979D01*
X007537Y017979D01*
X007619Y018061D01*
X007619Y018977D01*
X007537Y019059D01*
X006721Y019059D01*
X006639Y018977D01*
X006639Y018283D01*
X006399Y018043D01*
X006399Y017834D01*
X006371Y017834D01*
X006279Y017741D01*
X006186Y017834D01*
X006159Y017834D01*
X006159Y018043D01*
X005919Y018283D01*
X005919Y018977D01*
X005837Y019059D01*
X005021Y019059D01*
X004939Y018977D01*
X004939Y018061D01*
X005021Y017979D01*
X005714Y017979D01*
X005799Y017894D01*
X005799Y017834D01*
X005771Y017834D01*
X005664Y017726D01*
X005664Y017312D01*
X005771Y017204D01*
X006039Y017204D01*
X006204Y017039D01*
X006504Y017039D01*
X006962Y016581D01*
X006572Y016581D01*
X006490Y016499D01*
X006490Y016199D01*
X006353Y016199D01*
X004809Y017743D01*
X004809Y018370D01*
X004703Y018475D01*
X004530Y018649D01*
X004494Y018649D01*
X004494Y018676D01*
X004386Y018784D01*
X003971Y018784D01*
X003879Y018691D01*
X003814Y018756D01*
X003891Y018834D01*
X003891Y019249D01*
X003811Y019329D01*
X003869Y019386D01*
X003869Y019952D01*
X003787Y020034D01*
X003271Y020034D01*
X003189Y019952D01*
X003189Y019386D01*
X003271Y019304D01*
X003316Y019304D01*
X003261Y019249D01*
X003261Y018834D01*
X003341Y018754D01*
X003264Y018676D01*
X003264Y018438D01*
X003244Y018458D01*
X003244Y018676D01*
X003136Y018784D01*
X002721Y018784D01*
X002629Y018691D01*
X002562Y018758D01*
X002638Y018834D01*
X002638Y019249D01*
X002560Y019327D01*
X002619Y019386D01*
X002619Y019952D01*
X002537Y020034D01*
X002021Y020034D01*
X001939Y019952D01*
X001939Y019386D01*
X002021Y019304D01*
X002063Y019304D01*
X002008Y019249D01*
X002008Y018834D01*
X002090Y018752D01*
X002014Y018676D01*
X002014Y018262D01*
X002106Y018169D01*
X002014Y018076D01*
X002014Y017808D01*
X001954Y017749D01*
X001849Y017643D01*
X001849Y007443D01*
X001954Y007337D01*
X002137Y007154D01*
X002092Y007045D01*
X002092Y006842D01*
X002170Y006655D01*
X002313Y006511D01*
X002501Y006434D01*
X002704Y006434D01*
X002891Y006511D01*
X003035Y006655D01*
X003112Y006842D01*
X003112Y007045D01*
X003035Y007233D01*
X002891Y007376D01*
X002752Y007434D01*
X002804Y007434D01*
X009418Y007434D01*
X009385Y007467D02*
X009464Y007388D01*
X009567Y007345D01*
X009678Y007345D01*
X009781Y007388D01*
X009860Y007467D01*
X009902Y007570D01*
X009902Y007681D01*
X009860Y007784D01*
X009781Y007863D01*
X009678Y007905D01*
X009611Y007905D01*
X009382Y008134D01*
X003176Y008134D01*
X003135Y008233D01*
X002991Y008376D01*
X002804Y008454D01*
X002752Y008454D01*
X002891Y008511D01*
X003035Y008655D01*
X003076Y008754D01*
X009051Y008754D01*
X009577Y009279D01*
X009644Y009279D01*
X009747Y009322D01*
X009825Y009401D01*
X009868Y009504D01*
X009868Y009615D01*
X009825Y009718D01*
X009747Y009797D01*
X009644Y009839D01*
X009532Y009839D01*
X009429Y009797D01*
X009351Y009718D01*
X009308Y009615D01*
X009308Y009548D01*
X008894Y009134D01*
X003076Y009134D01*
X003035Y009233D01*
X002891Y009376D01*
X002752Y009434D01*
X002804Y009434D01*
X002991Y009511D01*
X003135Y009655D01*
X003212Y009842D01*
X003212Y009973D01*
X003717Y010477D01*
X003769Y010602D01*
X003769Y012978D01*
X003769Y012979D01*
X005071Y012979D01*
X005121Y012929D01*
X005737Y012929D01*
X005789Y012929D01*
X005789Y012979D02*
X005789Y012451D01*
X005840Y012326D01*
X005936Y012231D01*
X006189Y011977D01*
X006139Y011928D01*
X006139Y011659D01*
X005335Y011659D01*
X005287Y011706D01*
X005184Y011749D01*
X005073Y011749D01*
X004970Y011706D01*
X004891Y011628D01*
X004849Y011525D01*
X004849Y011413D01*
X004891Y011310D01*
X004970Y011232D01*
X005073Y011189D01*
X005184Y011189D01*
X005287Y011232D01*
X005335Y011279D01*
X006139Y011279D01*
X006139Y011024D01*
X006221Y010942D01*
X006349Y010942D01*
X006349Y010894D01*
X006454Y010789D01*
X006454Y010789D01*
X006554Y010689D01*
X009092Y010689D01*
X010399Y009383D01*
X010399Y004794D01*
X010504Y004689D01*
X010604Y004589D01*
X010688Y004589D01*
X010688Y004558D01*
X010768Y004478D01*
X010681Y004392D01*
X010681Y004365D01*
X008170Y004365D01*
X006454Y002649D01*
X006373Y002649D01*
X006270Y002606D01*
X006364Y002645D02*
X002650Y002645D01*
X002571Y002724D02*
X006529Y002724D01*
X006608Y002802D02*
X002493Y002802D01*
X002414Y002881D02*
X006686Y002881D01*
X006765Y002959D02*
X002336Y002959D01*
X002257Y003038D02*
X006843Y003038D01*
X006922Y003116D02*
X002179Y003116D01*
X002100Y003195D02*
X007000Y003195D01*
X007079Y003273D02*
X002022Y003273D01*
X001943Y003352D02*
X007157Y003352D01*
X007236Y003430D02*
X001865Y003430D01*
X001786Y003509D02*
X007314Y003509D01*
X007393Y003587D02*
X001719Y003587D01*
X001719Y003576D02*
X001719Y020390D01*
X004786Y023457D01*
X011552Y023457D01*
X011551Y023457D01*
X011539Y023450D01*
X011535Y023437D01*
X011524Y023424D01*
X011510Y023412D01*
X011497Y023408D01*
X011491Y023396D01*
X011480Y023388D01*
X011479Y023374D01*
X011470Y023358D01*
X011459Y023345D01*
X011447Y023338D01*
X011443Y023325D01*
X011434Y023314D01*
X011436Y023301D01*
X011431Y023284D01*
X011422Y023268D01*
X011412Y023260D01*
X011410Y023246D01*
X011404Y023234D01*
X011408Y023220D01*
X011406Y023203D01*
X011405Y023200D01*
X011399Y023193D01*
X011399Y023179D01*
X011390Y023149D01*
X011399Y023132D01*
X011399Y023128D01*
X011392Y023062D01*
X011399Y023054D01*
X011399Y020683D01*
X011392Y020675D01*
X011399Y020610D01*
X011399Y020606D01*
X011390Y020589D01*
X011399Y020559D01*
X011399Y020544D01*
X011405Y020538D01*
X011406Y020535D01*
X011408Y020517D01*
X011404Y020504D01*
X011410Y020492D01*
X011412Y020478D01*
X011422Y020470D01*
X011431Y020454D01*
X011436Y020437D01*
X011434Y020423D01*
X011443Y020413D01*
X011447Y020400D01*
X011459Y020393D01*
X011470Y020380D01*
X011479Y020364D01*
X011480Y020350D01*
X011491Y020342D01*
X011497Y020329D01*
X011510Y020325D01*
X011524Y020314D01*
X011535Y020301D01*
X011539Y020287D01*
X011551Y020281D01*
X011560Y020270D01*
X011574Y020269D01*
X011589Y020261D01*
X011603Y020249D01*
X011609Y020237D01*
X011622Y020233D01*
X011633Y020225D01*
X011647Y020226D01*
X011664Y020221D01*
X011679Y020213D01*
X011688Y020202D01*
X011702Y020201D01*
X011714Y020194D01*
X011727Y020198D01*
X011745Y020196D01*
X011748Y020195D01*
X011754Y020189D01*
X011769Y020189D01*
X011799Y020180D01*
X011816Y020189D01*
X011820Y020189D01*
X011885Y020182D01*
X011893Y020189D01*
X013264Y020189D01*
X013272Y020182D01*
X013337Y020189D01*
X013341Y020189D01*
X013358Y020180D01*
X013388Y020189D01*
X013403Y020189D01*
X013410Y020195D01*
X013413Y020196D01*
X013430Y020198D01*
X013443Y020194D01*
X013455Y020201D01*
X013469Y020202D01*
X013478Y020213D01*
X013493Y020221D01*
X013510Y020226D01*
X013524Y020225D01*
X013535Y020233D01*
X013548Y020237D01*
X013554Y020249D01*
X013568Y020261D01*
X013584Y020269D01*
X013597Y020270D01*
X013606Y020281D01*
X013618Y020287D01*
X013622Y020301D01*
X013633Y020314D01*
X013647Y020325D01*
X013660Y020329D01*
X013667Y020342D01*
X013677Y020350D01*
X013679Y020364D01*
X013687Y020380D01*
X013698Y020393D01*
X013710Y020400D01*
X013714Y020413D01*
X013723Y020423D01*
X013722Y020437D01*
X013727Y020454D01*
X013735Y020470D01*
X013746Y020478D01*
X013747Y020492D01*
X013753Y020504D01*
X013749Y020517D01*
X013751Y020535D01*
X013752Y020538D01*
X013759Y020544D01*
X013759Y020559D01*
X013768Y020589D01*
X013759Y020606D01*
X013759Y020610D01*
X013765Y020675D01*
X013759Y020683D01*
X013759Y021360D01*
X013761Y021382D01*
X013765Y021395D01*
X013771Y021407D01*
X014219Y021407D01*
X014219Y021452D02*
X014228Y021463D01*
X014243Y021471D01*
X014260Y021476D01*
X014274Y021475D01*
X014285Y021483D01*
X014298Y021487D01*
X014304Y021499D01*
X014318Y021511D01*
X014334Y021519D01*
X014347Y021520D01*
X014356Y021531D01*
X014368Y021537D01*
X014372Y021551D01*
X014383Y021564D01*
X015167Y021564D01*
X015246Y021642D02*
X014447Y021642D01*
X014448Y021643D02*
X014460Y021650D01*
X014464Y021663D01*
X014473Y021673D01*
X014472Y021687D01*
X014477Y021704D01*
X014485Y021720D01*
X014496Y021728D01*
X014497Y021742D01*
X014503Y021754D01*
X014499Y021767D01*
X014501Y021785D01*
X014502Y021788D01*
X014509Y021794D01*
X014509Y021809D01*
X014518Y021839D01*
X014509Y021856D01*
X014509Y021860D01*
X014515Y021925D01*
X014509Y021933D01*
X014509Y023054D01*
X014515Y023062D01*
X014509Y023128D01*
X014509Y023132D01*
X014518Y023149D01*
X014509Y023179D01*
X014509Y023193D01*
X014502Y023200D01*
X014501Y023203D01*
X014499Y023220D01*
X014503Y023234D01*
X014497Y023246D01*
X014496Y023260D01*
X014485Y023268D01*
X014477Y023284D01*
X014472Y023301D01*
X014473Y023314D01*
X014464Y023325D01*
X014460Y023338D01*
X014448Y023345D01*
X014437Y023358D01*
X014429Y023374D01*
X014427Y023388D01*
X014417Y023396D01*
X014410Y023408D01*
X014397Y023412D01*
X014383Y023424D01*
X014372Y023437D01*
X014368Y023450D01*
X014356Y023457D01*
X014356Y023457D01*
X021599Y023457D01*
X024667Y020390D01*
X024667Y007994D01*
X022329Y007994D01*
X022329Y007373D01*
X022254Y007299D01*
X021504Y007299D01*
X021404Y007198D01*
X021404Y011057D01*
X021322Y011139D01*
X013332Y011139D01*
X013250Y011057D01*
X013250Y002673D01*
X013332Y002591D01*
X013820Y002591D01*
X013820Y001797D01*
X013902Y001715D01*
X014278Y001715D01*
X014287Y001724D01*
X014296Y001715D01*
X014672Y001715D01*
X014681Y001724D01*
X014690Y001715D01*
X015066Y001715D01*
X015075Y001724D01*
X015084Y001715D01*
X015459Y001715D01*
X015542Y001797D01*
X015542Y002591D01*
X015789Y002591D01*
X015789Y001797D01*
X015871Y001715D01*
X016247Y001715D01*
X016256Y001724D01*
X016265Y001715D01*
X016641Y001715D01*
X016649Y001724D01*
X016658Y001715D01*
X017034Y001715D01*
X017043Y001724D01*
X017052Y001715D01*
X017428Y001715D01*
X017437Y001724D01*
X017446Y001715D01*
X017822Y001715D01*
X017904Y001797D01*
X017904Y002591D01*
X018545Y002591D01*
X018545Y001797D01*
X018627Y001715D01*
X019003Y001715D01*
X019012Y001724D01*
X019021Y001715D01*
X019397Y001715D01*
X019405Y001724D01*
X019414Y001715D01*
X019790Y001715D01*
X019799Y001724D01*
X019808Y001715D01*
X020184Y001715D01*
X020193Y001724D01*
X020202Y001715D01*
X020578Y001715D01*
X020660Y001797D01*
X020660Y002591D01*
X021322Y002591D01*
X021404Y002673D01*
X021404Y004849D01*
X021410Y004841D01*
X021412Y004824D01*
X021428Y004812D01*
X021431Y004792D01*
X021444Y004782D01*
X021450Y004766D01*
X021469Y004759D01*
X021476Y004741D01*
X021492Y004734D01*
X021502Y004721D01*
X021522Y004718D01*
X021534Y004703D01*
X021550Y004700D01*
X021564Y004690D01*
X021572Y004691D01*
X021575Y004689D01*
X021601Y004689D01*
X021631Y004676D01*
X021655Y004687D01*
X021700Y004681D01*
X021710Y004689D01*
X024097Y004689D01*
X024107Y004681D01*
X024152Y004687D01*
X024176Y004676D01*
X024206Y004689D01*
X024232Y004689D01*
X024235Y004691D01*
X024244Y004690D01*
X024257Y004700D01*
X024274Y004703D01*
X024286Y004718D01*
X024305Y004721D01*
X024316Y004734D01*
X024331Y004741D01*
X024339Y004759D01*
X024357Y004766D01*
X024363Y004782D01*
X024377Y004792D01*
X024379Y004812D01*
X024395Y004824D01*
X024397Y004841D01*
X024407Y004854D01*
X024406Y004863D01*
X024409Y004865D01*
X024409Y004891D01*
X024421Y004921D01*
X024411Y004946D01*
X024417Y004990D01*
X024409Y005001D01*
X024409Y005758D01*
X024417Y005768D01*
X024411Y005814D01*
X024421Y005838D01*
X024409Y005868D01*
X024409Y005893D01*
X024405Y005897D01*
X024407Y005907D01*
X024397Y005920D01*
X024395Y005936D01*
X024378Y005949D01*
X024375Y005969D01*
X024363Y005979D01*
X024356Y005994D01*
X024667Y005994D01*
X024667Y003576D01*
X021599Y000509D01*
X004786Y000509D01*
X001719Y003576D01*
X001719Y003666D02*
X007471Y003666D01*
X007550Y003744D02*
X001719Y003744D01*
X001719Y003823D02*
X007628Y003823D01*
X007707Y003901D02*
X001719Y003901D01*
X001719Y003980D02*
X007785Y003980D01*
X007864Y004058D02*
X001719Y004058D01*
X001719Y004137D02*
X007942Y004137D01*
X008021Y004215D02*
X001719Y004215D01*
X001719Y004294D02*
X008099Y004294D01*
X008244Y004185D02*
X006429Y002369D01*
X006484Y002313D01*
X006484Y001535D01*
X006108Y001546D02*
X003749Y001546D01*
X003827Y001468D02*
X006108Y001468D01*
X006108Y001389D02*
X003906Y001389D01*
X003984Y001311D02*
X006108Y001311D01*
X006108Y001232D02*
X004063Y001232D01*
X004141Y001154D02*
X006108Y001154D01*
X006108Y001075D02*
X004220Y001075D01*
X004298Y000997D02*
X006155Y000997D01*
X006108Y001625D02*
X003670Y001625D01*
X003592Y001703D02*
X006108Y001703D01*
X006108Y001782D02*
X003513Y001782D01*
X003435Y001860D02*
X006108Y001860D01*
X006108Y001939D02*
X003356Y001939D01*
X003278Y002017D02*
X006108Y002017D01*
X006178Y002096D02*
X003199Y002096D01*
X003121Y002174D02*
X006227Y002174D01*
X006174Y002253D02*
X003042Y002253D01*
X002964Y002331D02*
X006149Y002331D01*
X006149Y002410D02*
X002885Y002410D01*
X002807Y002488D02*
X006175Y002488D01*
X006724Y002410D02*
X007149Y002410D01*
X007149Y002331D02*
X006709Y002331D01*
X006684Y002253D02*
X007174Y002253D01*
X007227Y002174D02*
X006664Y002174D01*
X006791Y002096D02*
X007269Y002096D01*
X007080Y002017D02*
X006860Y002017D01*
X006860Y001939D02*
X007072Y001939D01*
X007072Y001860D02*
X006860Y001860D01*
X006860Y001782D02*
X007072Y001782D01*
X007072Y001703D02*
X006860Y001703D01*
X006860Y001625D02*
X007072Y001625D01*
X007072Y001546D02*
X006860Y001546D01*
X006860Y001468D02*
X007072Y001468D01*
X007072Y001389D02*
X006860Y001389D01*
X006860Y001311D02*
X007072Y001311D01*
X007072Y001232D02*
X006860Y001232D01*
X006860Y001154D02*
X007072Y001154D01*
X007072Y001075D02*
X006860Y001075D01*
X006813Y000997D02*
X007104Y000997D01*
X007449Y001519D02*
X007449Y002349D01*
X007429Y002369D01*
X008657Y003597D01*
X010996Y003597D01*
X010719Y003352D02*
X008666Y003352D01*
X008588Y003273D02*
X010745Y003273D01*
X011235Y003273D02*
X013250Y003273D01*
X013250Y003195D02*
X011305Y003195D01*
X011305Y003116D02*
X013250Y003116D01*
X013250Y003038D02*
X011305Y003038D01*
X011305Y002959D02*
X013250Y002959D01*
X013250Y002881D02*
X011305Y002881D01*
X011305Y002802D02*
X013250Y002802D01*
X013250Y002724D02*
X011259Y002724D01*
X011259Y002645D02*
X013277Y002645D01*
X013820Y002567D02*
X011239Y002567D01*
X011194Y002488D02*
X013820Y002488D01*
X013820Y002410D02*
X011085Y002410D01*
X010872Y002410D02*
X008831Y002410D01*
X008759Y002331D02*
X013820Y002331D01*
X013820Y002253D02*
X008734Y002253D01*
X008692Y002174D02*
X013820Y002174D01*
X013820Y002096D02*
X008779Y002096D01*
X008849Y002017D02*
X013820Y002017D01*
X013820Y001939D02*
X008849Y001939D01*
X008849Y001860D02*
X013820Y001860D01*
X013836Y001782D02*
X008849Y001782D01*
X008849Y001703D02*
X022794Y001703D01*
X022715Y001625D02*
X008849Y001625D01*
X008849Y001546D02*
X022637Y001546D01*
X022558Y001468D02*
X008849Y001468D01*
X008849Y001389D02*
X022480Y001389D01*
X022401Y001311D02*
X008849Y001311D01*
X008849Y001232D02*
X022323Y001232D01*
X022244Y001154D02*
X008849Y001154D01*
X008849Y001075D02*
X022166Y001075D01*
X022087Y000997D02*
X008801Y000997D01*
X008143Y000997D02*
X007794Y000997D01*
X007825Y001075D02*
X008096Y001075D01*
X008096Y001154D02*
X007825Y001154D01*
X007825Y001232D02*
X008096Y001232D01*
X008096Y001311D02*
X007825Y001311D01*
X007825Y001389D02*
X008096Y001389D01*
X008096Y001468D02*
X007825Y001468D01*
X007825Y001546D02*
X008096Y001546D01*
X008096Y001625D02*
X007825Y001625D01*
X007825Y001703D02*
X008096Y001703D01*
X008096Y001782D02*
X007825Y001782D01*
X007825Y001860D02*
X008096Y001860D01*
X008096Y001939D02*
X007825Y001939D01*
X007818Y002017D02*
X008096Y002017D01*
X008166Y002096D02*
X007629Y002096D01*
X007630Y002174D02*
X008252Y002174D01*
X008224Y002253D02*
X007684Y002253D01*
X007709Y002331D02*
X008199Y002331D01*
X008199Y002410D02*
X007724Y002410D01*
X007803Y002488D02*
X008225Y002488D01*
X008281Y002567D02*
X007881Y002567D01*
X007960Y002645D02*
X008414Y002645D01*
X008522Y002724D02*
X008038Y002724D01*
X008117Y002802D02*
X008601Y002802D01*
X008679Y002881D02*
X008195Y002881D01*
X008274Y002959D02*
X008758Y002959D01*
X008836Y003038D02*
X008352Y003038D01*
X008431Y003116D02*
X008915Y003116D01*
X008993Y003195D02*
X008509Y003195D01*
X008236Y003430D02*
X007745Y003430D01*
X007666Y003352D02*
X008157Y003352D01*
X008079Y003273D02*
X007588Y003273D01*
X007509Y003195D02*
X008000Y003195D01*
X007922Y003116D02*
X007431Y003116D01*
X007352Y003038D02*
X007843Y003038D01*
X007765Y002959D02*
X007274Y002959D01*
X007195Y002881D02*
X007686Y002881D01*
X007608Y002802D02*
X007117Y002802D01*
X007038Y002724D02*
X007529Y002724D01*
X007364Y002645D02*
X006960Y002645D01*
X006881Y002567D02*
X007231Y002567D01*
X007175Y002488D02*
X006803Y002488D01*
X007823Y003509D02*
X008314Y003509D01*
X008393Y003587D02*
X007902Y003587D01*
X007980Y003666D02*
X008471Y003666D01*
X008550Y003744D02*
X008059Y003744D01*
X008137Y003823D02*
X010700Y003823D01*
X010757Y003901D02*
X008216Y003901D01*
X008294Y003980D02*
X010681Y003980D01*
X010996Y004185D02*
X008244Y004185D01*
X009145Y002724D02*
X010699Y002724D01*
X010699Y002645D02*
X009066Y002645D01*
X008988Y002567D02*
X010718Y002567D01*
X010763Y002488D02*
X008909Y002488D01*
X010681Y004372D02*
X001719Y004372D01*
X001719Y004451D02*
X010740Y004451D01*
X010717Y004529D02*
X001719Y004529D01*
X001719Y004608D02*
X010585Y004608D01*
X010507Y004686D02*
X001719Y004686D01*
X001719Y004765D02*
X010428Y004765D01*
X010399Y004843D02*
X001719Y004843D01*
X001719Y004922D02*
X010399Y004922D01*
X010399Y005000D02*
X001719Y005000D01*
X001719Y005079D02*
X010399Y005079D01*
X010399Y005157D02*
X001719Y005157D01*
X001719Y005236D02*
X010399Y005236D01*
X010399Y005314D02*
X001719Y005314D01*
X001719Y005393D02*
X010399Y005393D01*
X010399Y005471D02*
X001719Y005471D01*
X001719Y005550D02*
X010399Y005550D01*
X010399Y005628D02*
X001719Y005628D01*
X001719Y005707D02*
X010399Y005707D01*
X010399Y005785D02*
X001719Y005785D01*
X001719Y005864D02*
X010399Y005864D01*
X010399Y005942D02*
X001719Y005942D01*
X001719Y006021D02*
X010399Y006021D01*
X010399Y006099D02*
X001719Y006099D01*
X001719Y006178D02*
X010399Y006178D01*
X010399Y006256D02*
X001719Y006256D01*
X001719Y006335D02*
X010399Y006335D01*
X010399Y006413D02*
X001719Y006413D01*
X001719Y006492D02*
X002360Y006492D01*
X002254Y006570D02*
X001719Y006570D01*
X001719Y006649D02*
X002176Y006649D01*
X002140Y006727D02*
X001719Y006727D01*
X001719Y006806D02*
X002107Y006806D01*
X002092Y006884D02*
X001719Y006884D01*
X001719Y006963D02*
X002092Y006963D01*
X002092Y007041D02*
X001719Y007041D01*
X001719Y007120D02*
X002123Y007120D01*
X002093Y007198D02*
X001719Y007198D01*
X001719Y007277D02*
X002014Y007277D01*
X001936Y007355D02*
X001719Y007355D01*
X001719Y007434D02*
X001857Y007434D01*
X001849Y007512D02*
X001719Y007512D01*
X001719Y007591D02*
X001849Y007591D01*
X001849Y007669D02*
X001719Y007669D01*
X001719Y007748D02*
X001849Y007748D01*
X001849Y007826D02*
X001719Y007826D01*
X001719Y007905D02*
X001849Y007905D01*
X001849Y007983D02*
X001719Y007983D01*
X001719Y008062D02*
X001849Y008062D01*
X001849Y008140D02*
X001719Y008140D01*
X001719Y008219D02*
X001849Y008219D01*
X001849Y008297D02*
X001719Y008297D01*
X001719Y008376D02*
X001849Y008376D01*
X001849Y008454D02*
X001719Y008454D01*
X001719Y008533D02*
X001849Y008533D01*
X001849Y008611D02*
X001719Y008611D01*
X001719Y008690D02*
X001849Y008690D01*
X001849Y008768D02*
X001719Y008768D01*
X001719Y008847D02*
X001849Y008847D01*
X001849Y008925D02*
X001719Y008925D01*
X001719Y009004D02*
X001849Y009004D01*
X001849Y009082D02*
X001719Y009082D01*
X001719Y009161D02*
X001849Y009161D01*
X001849Y009239D02*
X001719Y009239D01*
X001719Y009318D02*
X001849Y009318D01*
X001849Y009396D02*
X001719Y009396D01*
X001719Y009475D02*
X001849Y009475D01*
X001849Y009553D02*
X001719Y009553D01*
X001719Y009632D02*
X001849Y009632D01*
X001849Y009710D02*
X001719Y009710D01*
X001719Y009789D02*
X001849Y009789D01*
X001849Y009867D02*
X001719Y009867D01*
X001719Y009946D02*
X001849Y009946D01*
X001849Y010024D02*
X001719Y010024D01*
X001719Y010103D02*
X001849Y010103D01*
X001849Y010181D02*
X001719Y010181D01*
X001719Y010260D02*
X001849Y010260D01*
X001849Y010338D02*
X001719Y010338D01*
X001719Y010417D02*
X001849Y010417D01*
X001849Y010495D02*
X001719Y010495D01*
X001719Y010574D02*
X001849Y010574D01*
X001849Y010652D02*
X001719Y010652D01*
X001719Y010731D02*
X001849Y010731D01*
X001849Y010809D02*
X001719Y010809D01*
X001719Y010888D02*
X001849Y010888D01*
X001849Y010966D02*
X001719Y010966D01*
X001719Y011045D02*
X001849Y011045D01*
X001849Y011123D02*
X001719Y011123D01*
X001719Y011202D02*
X001849Y011202D01*
X001849Y011280D02*
X001719Y011280D01*
X001719Y011359D02*
X001849Y011359D01*
X001849Y011437D02*
X001719Y011437D01*
X001719Y011516D02*
X001849Y011516D01*
X001849Y011594D02*
X001719Y011594D01*
X001719Y011673D02*
X001849Y011673D01*
X001849Y011751D02*
X001719Y011751D01*
X001719Y011830D02*
X001849Y011830D01*
X001849Y011908D02*
X001719Y011908D01*
X001719Y011987D02*
X001849Y011987D01*
X001849Y012065D02*
X001719Y012065D01*
X001719Y012144D02*
X001849Y012144D01*
X001849Y012222D02*
X001719Y012222D01*
X001719Y012301D02*
X001849Y012301D01*
X001849Y012379D02*
X001719Y012379D01*
X001719Y012458D02*
X001849Y012458D01*
X001849Y012536D02*
X001719Y012536D01*
X001719Y012615D02*
X001849Y012615D01*
X001849Y012693D02*
X001719Y012693D01*
X001719Y012772D02*
X001849Y012772D01*
X001849Y012850D02*
X001719Y012850D01*
X001719Y012929D02*
X001849Y012929D01*
X001849Y013007D02*
X001719Y013007D01*
X001719Y013086D02*
X001849Y013086D01*
X001849Y013164D02*
X001719Y013164D01*
X001719Y013243D02*
X001849Y013243D01*
X001849Y013321D02*
X001719Y013321D01*
X001719Y013400D02*
X001849Y013400D01*
X001849Y013478D02*
X001719Y013478D01*
X001719Y013557D02*
X001849Y013557D01*
X001849Y013635D02*
X001719Y013635D01*
X001719Y013714D02*
X001849Y013714D01*
X001849Y013792D02*
X001719Y013792D01*
X001719Y013871D02*
X001849Y013871D01*
X001849Y013949D02*
X001719Y013949D01*
X001719Y014028D02*
X001849Y014028D01*
X001849Y014106D02*
X001719Y014106D01*
X001719Y014185D02*
X001849Y014185D01*
X001849Y014263D02*
X001719Y014263D01*
X001719Y014342D02*
X001849Y014342D01*
X001849Y014420D02*
X001719Y014420D01*
X001719Y014499D02*
X001849Y014499D01*
X001849Y014577D02*
X001719Y014577D01*
X001719Y014656D02*
X001849Y014656D01*
X001849Y014734D02*
X001719Y014734D01*
X001719Y014813D02*
X001849Y014813D01*
X001849Y014891D02*
X001719Y014891D01*
X001719Y014970D02*
X001849Y014970D01*
X001849Y015048D02*
X001719Y015048D01*
X001719Y015127D02*
X001849Y015127D01*
X001849Y015205D02*
X001719Y015205D01*
X001719Y015284D02*
X001849Y015284D01*
X001849Y015362D02*
X001719Y015362D01*
X001719Y015441D02*
X001849Y015441D01*
X001849Y015519D02*
X001719Y015519D01*
X001719Y015598D02*
X001849Y015598D01*
X001849Y015676D02*
X001719Y015676D01*
X001719Y015755D02*
X001849Y015755D01*
X001849Y015833D02*
X001719Y015833D01*
X001719Y015912D02*
X001849Y015912D01*
X001849Y015990D02*
X001719Y015990D01*
X001719Y016069D02*
X001849Y016069D01*
X001849Y016147D02*
X001719Y016147D01*
X001719Y016226D02*
X001849Y016226D01*
X001849Y016304D02*
X001719Y016304D01*
X001719Y016383D02*
X001849Y016383D01*
X001849Y016461D02*
X001719Y016461D01*
X001719Y016540D02*
X001849Y016540D01*
X001849Y016618D02*
X001719Y016618D01*
X001719Y016697D02*
X001849Y016697D01*
X001849Y016775D02*
X001719Y016775D01*
X001719Y016854D02*
X001849Y016854D01*
X001849Y016932D02*
X001719Y016932D01*
X001719Y017011D02*
X001849Y017011D01*
X001849Y017089D02*
X001719Y017089D01*
X001719Y017168D02*
X001849Y017168D01*
X001849Y017246D02*
X001719Y017246D01*
X001719Y017325D02*
X001849Y017325D01*
X001849Y017403D02*
X001719Y017403D01*
X001719Y017482D02*
X001849Y017482D01*
X001849Y017560D02*
X001719Y017560D01*
X001719Y017639D02*
X001849Y017639D01*
X001923Y017717D02*
X001719Y017717D01*
X001719Y017796D02*
X002001Y017796D01*
X002014Y017874D02*
X001719Y017874D01*
X001719Y017953D02*
X002014Y017953D01*
X002014Y018031D02*
X001719Y018031D01*
X001719Y018110D02*
X002047Y018110D01*
X002087Y018188D02*
X001719Y018188D01*
X001719Y018267D02*
X002014Y018267D01*
X002014Y018345D02*
X001719Y018345D01*
X001719Y018424D02*
X002014Y018424D01*
X002014Y018502D02*
X001719Y018502D01*
X001719Y018581D02*
X002014Y018581D01*
X002014Y018659D02*
X001719Y018659D01*
X001719Y018738D02*
X002075Y018738D01*
X002026Y018816D02*
X001719Y018816D01*
X001719Y018895D02*
X002008Y018895D01*
X002008Y018973D02*
X001719Y018973D01*
X001719Y019052D02*
X002008Y019052D01*
X002008Y019130D02*
X001719Y019130D01*
X001719Y019209D02*
X002008Y019209D01*
X002047Y019287D02*
X001719Y019287D01*
X001719Y019366D02*
X001959Y019366D01*
X001939Y019444D02*
X001719Y019444D01*
X001719Y019523D02*
X001939Y019523D01*
X001939Y019601D02*
X001719Y019601D01*
X001719Y019680D02*
X001939Y019680D01*
X001939Y019758D02*
X001719Y019758D01*
X001719Y019837D02*
X001939Y019837D01*
X001939Y019915D02*
X001719Y019915D01*
X001719Y019994D02*
X001981Y019994D01*
X001719Y020072D02*
X005170Y020072D01*
X005174Y020069D02*
X005149Y020043D01*
X005080Y019975D01*
X004843Y019975D01*
X004739Y019871D01*
X004739Y019449D01*
X004843Y019345D01*
X005215Y019345D01*
X005319Y019449D01*
X005319Y019704D01*
X005403Y019789D01*
X006213Y019789D01*
X006282Y019721D01*
X006282Y019453D01*
X006389Y019345D01*
X006804Y019345D01*
X006897Y019438D01*
X006989Y019345D01*
X007404Y019345D01*
X007512Y019453D01*
X007512Y019868D01*
X007481Y019898D01*
X007509Y019963D01*
X007509Y020075D01*
X007466Y020178D01*
X007457Y020186D01*
X007512Y020240D01*
X007512Y020589D01*
X007603Y020589D01*
X007853Y020839D01*
X007959Y020944D01*
X007959Y022303D01*
X007512Y022749D01*
X007512Y023017D01*
X007404Y023125D01*
X006989Y023125D01*
X006897Y023032D01*
X006804Y023125D01*
X006389Y023125D01*
X006282Y023017D01*
X006282Y022990D01*
X005919Y022990D01*
X005919Y023021D01*
X005815Y023125D01*
X005443Y023125D01*
X005339Y023021D01*
X005339Y022599D01*
X005443Y022495D01*
X005815Y022495D01*
X005919Y022599D01*
X005919Y022630D01*
X006282Y022630D01*
X006282Y022602D01*
X006389Y022495D01*
X006804Y022495D01*
X006897Y022587D01*
X006989Y022495D01*
X007257Y022495D01*
X007599Y022153D01*
X007599Y021875D01*
X007512Y021962D01*
X007512Y022230D01*
X007404Y022337D01*
X006989Y022337D01*
X006897Y022245D01*
X006804Y022337D01*
X006389Y022337D01*
X006282Y022230D01*
X006282Y022202D01*
X005919Y022202D01*
X005919Y022233D01*
X005815Y022337D01*
X005443Y022337D01*
X005339Y022233D01*
X005339Y021811D01*
X005443Y021707D01*
X005815Y021707D01*
X005919Y021811D01*
X005919Y021842D01*
X006282Y021842D01*
X006282Y021815D01*
X006389Y021707D01*
X006804Y021707D01*
X006897Y021800D01*
X006989Y021707D01*
X007257Y021707D01*
X007449Y021516D01*
X007449Y021143D01*
X007404Y021099D01*
X006912Y021099D01*
X006912Y021442D01*
X006804Y021550D01*
X006389Y021550D01*
X006282Y021442D01*
X006282Y021415D01*
X005919Y021415D01*
X005919Y021446D01*
X005815Y021550D01*
X005443Y021550D01*
X005339Y021446D01*
X005339Y021099D01*
X005319Y021099D01*
X005319Y021446D01*
X005249Y021516D01*
X005249Y021741D01*
X005319Y021811D01*
X005319Y022233D01*
X005249Y022303D01*
X005249Y022529D01*
X005319Y022599D01*
X005319Y023021D01*
X005215Y023125D01*
X004843Y023125D01*
X004739Y023021D01*
X004739Y022599D01*
X004809Y022529D01*
X004809Y022303D01*
X004739Y022233D01*
X004739Y021811D01*
X004809Y021741D01*
X004809Y021516D01*
X004791Y021499D01*
X004723Y021499D01*
X004620Y021456D01*
X004541Y021378D01*
X004499Y021275D01*
X004499Y021163D01*
X004525Y021099D01*
X003004Y021099D01*
X002899Y020993D01*
X002739Y020834D01*
X002371Y020834D01*
X002289Y020752D01*
X002289Y020186D01*
X002371Y020104D01*
X002887Y020104D01*
X002969Y020186D01*
X002969Y020554D01*
X003153Y020739D01*
X003539Y020739D01*
X003539Y020186D01*
X003621Y020104D01*
X004137Y020104D01*
X004219Y020186D01*
X004219Y020554D01*
X004253Y020589D01*
X004739Y020589D01*
X004739Y020237D01*
X004843Y020133D01*
X005110Y020133D01*
X005149Y020094D01*
X005174Y020069D01*
X005099Y019994D02*
X003827Y019994D01*
X003869Y019915D02*
X004783Y019915D01*
X004739Y019837D02*
X003869Y019837D01*
X003869Y019758D02*
X004739Y019758D01*
X004739Y019680D02*
X003869Y019680D01*
X003869Y019601D02*
X004739Y019601D01*
X004739Y019523D02*
X003869Y019523D01*
X003869Y019444D02*
X004743Y019444D01*
X004822Y019366D02*
X003849Y019366D01*
X003852Y019287D02*
X013899Y019287D01*
X013899Y019209D02*
X010762Y019209D01*
X010769Y019202D02*
X010687Y019284D01*
X010171Y019284D01*
X010089Y019202D01*
X010089Y018636D01*
X010171Y018554D01*
X010687Y018554D01*
X010769Y018636D01*
X010769Y018639D01*
X010834Y018639D01*
X010937Y018682D01*
X011016Y018760D01*
X011059Y018863D01*
X011059Y018975D01*
X011016Y019078D01*
X010937Y019156D01*
X010834Y019199D01*
X010769Y019199D01*
X010769Y019202D01*
X010963Y019130D02*
X013899Y019130D01*
X013899Y019052D02*
X011027Y019052D01*
X011059Y018973D02*
X013899Y018973D01*
X013899Y018895D02*
X011059Y018895D01*
X011039Y018816D02*
X013899Y018816D01*
X013899Y018738D02*
X010994Y018738D01*
X010884Y018659D02*
X013899Y018659D01*
X013899Y018581D02*
X010714Y018581D01*
X010397Y018424D02*
X013899Y018424D01*
X013899Y018502D02*
X007619Y018502D01*
X007619Y018424D02*
X009161Y018424D01*
X009114Y018345D02*
X007619Y018345D01*
X007619Y018267D02*
X009114Y018267D01*
X009114Y018188D02*
X007619Y018188D01*
X007619Y018110D02*
X009114Y018110D01*
X009114Y018031D02*
X007589Y018031D01*
X007833Y017796D02*
X006824Y017796D01*
X006759Y017874D02*
X007912Y017874D01*
X007814Y017717D02*
X006894Y017717D01*
X006894Y017639D02*
X007814Y017639D01*
X007814Y017560D02*
X006894Y017560D01*
X006894Y017482D02*
X007814Y017482D01*
X007814Y017403D02*
X006949Y017403D01*
X007027Y017325D02*
X007850Y017325D01*
X007783Y016919D02*
X007783Y016623D01*
X007679Y016519D01*
X007279Y016519D01*
X006579Y017219D01*
X006279Y017219D01*
X005979Y017519D01*
X005979Y017969D01*
X005429Y018519D01*
X005919Y018502D02*
X006639Y018502D01*
X006639Y018424D02*
X005919Y018424D01*
X005919Y018345D02*
X006639Y018345D01*
X006622Y018267D02*
X005935Y018267D01*
X006014Y018188D02*
X006544Y018188D01*
X006465Y018110D02*
X006092Y018110D01*
X006159Y018031D02*
X006399Y018031D01*
X006399Y017953D02*
X006159Y017953D01*
X006159Y017874D02*
X006399Y017874D01*
X006333Y017796D02*
X006224Y017796D01*
X005799Y017874D02*
X004809Y017874D01*
X004809Y017796D02*
X005733Y017796D01*
X005664Y017717D02*
X004835Y017717D01*
X004913Y017639D02*
X005664Y017639D01*
X005664Y017560D02*
X004992Y017560D01*
X005070Y017482D02*
X005664Y017482D01*
X005664Y017403D02*
X005149Y017403D01*
X005227Y017325D02*
X005664Y017325D01*
X005729Y017246D02*
X005306Y017246D01*
X005384Y017168D02*
X006075Y017168D01*
X006153Y017089D02*
X005463Y017089D01*
X005541Y017011D02*
X006532Y017011D01*
X006610Y016932D02*
X005620Y016932D01*
X005698Y016854D02*
X006689Y016854D01*
X006767Y016775D02*
X005777Y016775D01*
X005855Y016697D02*
X006846Y016697D01*
X006924Y016618D02*
X005934Y016618D01*
X006012Y016540D02*
X006531Y016540D01*
X006490Y016461D02*
X006091Y016461D01*
X006169Y016383D02*
X006490Y016383D01*
X006490Y016304D02*
X006248Y016304D01*
X006326Y016226D02*
X006490Y016226D01*
X006279Y016019D02*
X006877Y016019D01*
X006880Y016016D01*
X008081Y016016D01*
X008479Y015619D01*
X008329Y015369D02*
X008829Y015369D01*
X008979Y015119D02*
X008479Y015119D01*
X008219Y015224D02*
X008199Y015175D01*
X008199Y015063D01*
X008241Y014960D01*
X008320Y014882D01*
X008423Y014839D01*
X008534Y014839D01*
X008549Y014845D01*
X008549Y014813D01*
X007889Y014813D01*
X007811Y014891D02*
X008310Y014891D01*
X008237Y014970D02*
X007270Y014970D01*
X007270Y014936D02*
X007270Y015521D01*
X007922Y015521D01*
X008149Y015294D01*
X008219Y015224D01*
X008211Y015205D02*
X007270Y015205D01*
X007270Y015127D02*
X008199Y015127D01*
X008205Y015048D02*
X007270Y015048D01*
X007270Y014936D02*
X007766Y014936D01*
X008053Y014649D01*
X008134Y014649D01*
X008237Y014606D01*
X008316Y014528D01*
X008359Y014425D01*
X008359Y014313D01*
X008316Y014210D01*
X008237Y014132D01*
X008134Y014089D01*
X008023Y014089D01*
X007920Y014132D01*
X007896Y014156D01*
X007909Y014125D01*
X007909Y014013D01*
X007874Y013929D01*
X008580Y013929D01*
X008662Y013847D01*
X008662Y013231D01*
X008652Y013221D01*
X008652Y013105D01*
X008616Y013017D01*
X008548Y012949D01*
X008465Y012865D01*
X008449Y012859D01*
X009049Y012859D01*
X009123Y012862D01*
X009127Y012859D01*
X009132Y012859D01*
X009184Y012806D01*
X009233Y012762D01*
X009233Y012826D01*
X009234Y012830D01*
X009212Y012860D01*
X009167Y012905D01*
X009167Y012922D01*
X009157Y012936D01*
X009167Y012999D01*
X009167Y013149D01*
X008874Y013149D01*
X008792Y013231D01*
X008792Y013847D01*
X008874Y013929D01*
X009840Y013929D01*
X009922Y013847D01*
X009922Y013760D01*
X010629Y013760D01*
X010719Y013870D01*
X010719Y013991D01*
X010665Y013936D01*
X010628Y013936D01*
X010568Y013876D01*
X009952Y013876D01*
X009870Y013958D01*
X009870Y015156D01*
X009109Y014394D01*
X009095Y014381D01*
X009066Y014310D01*
X008987Y014232D01*
X008884Y014189D01*
X008773Y014189D01*
X008670Y014232D01*
X008591Y014310D01*
X008549Y014413D01*
X008549Y014525D01*
X008591Y014628D01*
X008633Y014669D01*
X008591Y014710D01*
X008549Y014813D01*
X008581Y014734D02*
X007968Y014734D01*
X008046Y014656D02*
X008620Y014656D01*
X008570Y014577D02*
X008266Y014577D01*
X008328Y014499D02*
X008549Y014499D01*
X008549Y014420D02*
X008359Y014420D01*
X008359Y014342D02*
X008578Y014342D01*
X008638Y014263D02*
X008338Y014263D01*
X008291Y014185D02*
X009870Y014185D01*
X009870Y014263D02*
X009019Y014263D01*
X009079Y014342D02*
X009870Y014342D01*
X009870Y014420D02*
X009135Y014420D01*
X009213Y014499D02*
X009870Y014499D01*
X009870Y014577D02*
X009292Y014577D01*
X009370Y014656D02*
X009870Y014656D01*
X009870Y014734D02*
X009449Y014734D01*
X009527Y014813D02*
X009870Y014813D01*
X009870Y014891D02*
X009606Y014891D01*
X009684Y014970D02*
X009870Y014970D01*
X009870Y015048D02*
X009763Y015048D01*
X009841Y015127D02*
X009870Y015127D01*
X009846Y015386D02*
X008929Y014469D01*
X008829Y014469D01*
X008829Y014869D02*
X009029Y014869D01*
X009861Y015701D01*
X010260Y015701D01*
X010260Y016016D02*
X009876Y016016D01*
X008979Y015119D01*
X008329Y015369D02*
X007996Y015701D01*
X006880Y015701D01*
X006862Y015719D01*
X006329Y015719D01*
X004479Y017569D01*
X004479Y018119D01*
X004429Y018169D01*
X003279Y018169D01*
X002979Y018469D01*
X002929Y018469D01*
X003244Y018502D02*
X003264Y018502D01*
X003264Y018581D02*
X003244Y018581D01*
X003244Y018659D02*
X003264Y018659D01*
X003325Y018738D02*
X003182Y018738D01*
X003279Y018816D02*
X002621Y018816D01*
X002638Y018895D02*
X003261Y018895D01*
X003261Y018973D02*
X002638Y018973D01*
X002638Y019052D02*
X003261Y019052D01*
X003261Y019130D02*
X002638Y019130D01*
X002638Y019209D02*
X003261Y019209D01*
X003300Y019287D02*
X002600Y019287D01*
X002599Y019366D02*
X003209Y019366D01*
X003189Y019444D02*
X002619Y019444D01*
X002619Y019523D02*
X003189Y019523D01*
X003189Y019601D02*
X002619Y019601D01*
X002619Y019680D02*
X003189Y019680D01*
X003189Y019758D02*
X002619Y019758D01*
X002619Y019837D02*
X003189Y019837D01*
X003189Y019915D02*
X002619Y019915D01*
X002577Y019994D02*
X003231Y019994D01*
X002934Y020151D02*
X003574Y020151D01*
X003539Y020229D02*
X002969Y020229D01*
X002969Y020308D02*
X003539Y020308D01*
X003539Y020386D02*
X002969Y020386D01*
X002969Y020465D02*
X003539Y020465D01*
X003539Y020543D02*
X002969Y020543D01*
X003036Y020622D02*
X003539Y020622D01*
X003539Y020700D02*
X003115Y020700D01*
X003079Y020919D02*
X007479Y020919D01*
X007629Y021069D01*
X007629Y021591D01*
X007197Y022022D01*
X007512Y022035D02*
X007599Y022035D01*
X007599Y022113D02*
X007512Y022113D01*
X007512Y022192D02*
X007560Y022192D01*
X007482Y022270D02*
X007471Y022270D01*
X007403Y022349D02*
X005249Y022349D01*
X005249Y022427D02*
X007325Y022427D01*
X007598Y022663D02*
X011399Y022663D01*
X011399Y022741D02*
X007520Y022741D01*
X007512Y022820D02*
X011399Y022820D01*
X011399Y022898D02*
X007512Y022898D01*
X007512Y022977D02*
X011399Y022977D01*
X011398Y023055D02*
X007473Y023055D01*
X007197Y022810D02*
X007779Y022228D01*
X007779Y021019D01*
X007529Y020769D01*
X004179Y020769D01*
X003879Y020469D01*
X004219Y020465D02*
X004739Y020465D01*
X004739Y020543D02*
X004219Y020543D01*
X004219Y020386D02*
X004739Y020386D01*
X004739Y020308D02*
X004219Y020308D01*
X004219Y020229D02*
X004746Y020229D01*
X004824Y020151D02*
X004184Y020151D01*
X003576Y019621D02*
X003529Y019669D01*
X003576Y019621D02*
X003576Y019041D01*
X003579Y019039D01*
X003579Y018469D01*
X003832Y018738D02*
X003925Y018738D01*
X003874Y018816D02*
X004939Y018816D01*
X004939Y018738D02*
X004432Y018738D01*
X004494Y018659D02*
X004939Y018659D01*
X004939Y018581D02*
X004597Y018581D01*
X004676Y018502D02*
X004939Y018502D01*
X004939Y018424D02*
X004754Y018424D01*
X004809Y018345D02*
X004939Y018345D01*
X004939Y018267D02*
X004809Y018267D01*
X004809Y018188D02*
X004939Y018188D01*
X004939Y018110D02*
X004809Y018110D01*
X004809Y018031D02*
X004968Y018031D01*
X004809Y017953D02*
X005740Y017953D01*
X005919Y018581D02*
X006639Y018581D01*
X006639Y018659D02*
X005919Y018659D01*
X005919Y018738D02*
X006639Y018738D01*
X006639Y018816D02*
X005919Y018816D01*
X005919Y018895D02*
X006639Y018895D01*
X006639Y018973D02*
X005919Y018973D01*
X005844Y019052D02*
X006714Y019052D01*
X006825Y019366D02*
X006969Y019366D01*
X007197Y019660D02*
X007179Y019678D01*
X007512Y019680D02*
X013899Y019680D01*
X013899Y019758D02*
X007512Y019758D01*
X007512Y019837D02*
X013899Y019837D01*
X013899Y019915D02*
X007489Y019915D01*
X007509Y019994D02*
X013899Y019994D01*
X013899Y020072D02*
X007509Y020072D01*
X007477Y020151D02*
X013899Y020151D01*
X013899Y020229D02*
X013530Y020229D01*
X013628Y020308D02*
X013899Y020308D01*
X013899Y020386D02*
X013693Y020386D01*
X013733Y020465D02*
X013899Y020465D01*
X013899Y020543D02*
X013758Y020543D01*
X013760Y020622D02*
X013899Y020622D01*
X013898Y020700D02*
X013759Y020700D01*
X013759Y020779D02*
X013899Y020779D01*
X013898Y020857D02*
X013759Y020857D01*
X013759Y020936D02*
X013913Y020936D01*
X013937Y021014D02*
X013759Y021014D01*
X013759Y021093D02*
X013966Y021093D01*
X014010Y021171D02*
X013759Y021171D01*
X013759Y021250D02*
X014062Y021250D01*
X014129Y021328D02*
X013759Y021328D01*
X013771Y021407D02*
X013780Y021418D01*
X013790Y021426D01*
X013802Y021433D01*
X013815Y021437D01*
X013837Y021439D01*
X014014Y021439D01*
X014022Y021432D01*
X014087Y021439D01*
X014091Y021439D01*
X014108Y021430D01*
X014138Y021439D01*
X014153Y021439D01*
X014160Y021445D01*
X014163Y021446D01*
X014180Y021448D01*
X014193Y021444D01*
X014205Y021451D01*
X014219Y021452D01*
X014292Y021485D02*
X014357Y021485D01*
X014383Y021564D02*
X014397Y021575D01*
X014410Y021579D01*
X014417Y021592D01*
X014427Y021600D01*
X014429Y021614D01*
X014437Y021630D01*
X014448Y021643D01*
X014487Y021721D02*
X015324Y021721D01*
X015403Y021799D02*
X014509Y021799D01*
X014510Y021878D02*
X015481Y021878D01*
X015560Y021956D02*
X014509Y021956D01*
X014509Y022035D02*
X015638Y022035D01*
X015717Y022113D02*
X014509Y022113D01*
X014509Y022192D02*
X015795Y022192D01*
X015874Y022270D02*
X014509Y022270D01*
X014509Y022349D02*
X015952Y022349D01*
X016031Y022427D02*
X014509Y022427D01*
X014509Y022506D02*
X016109Y022506D01*
X016124Y022584D02*
X014509Y022584D01*
X014509Y022663D02*
X016124Y022663D01*
X016124Y022741D02*
X014509Y022741D01*
X014509Y022820D02*
X016124Y022820D01*
X016124Y022898D02*
X014509Y022898D01*
X014509Y022977D02*
X016201Y022977D01*
X017271Y022977D02*
X018184Y022977D01*
X019258Y022977D02*
X019916Y022977D01*
X019841Y022898D02*
X019334Y022898D01*
X019334Y022820D02*
X019841Y022820D01*
X019841Y022741D02*
X019334Y022741D01*
X019334Y022663D02*
X019841Y022663D01*
X019841Y022584D02*
X019334Y022584D01*
X019334Y022506D02*
X019841Y022506D01*
X019841Y022427D02*
X019334Y022427D01*
X019334Y022349D02*
X019841Y022349D01*
X019841Y022270D02*
X019334Y022270D01*
X019334Y022192D02*
X019841Y022192D01*
X019841Y022113D02*
X019334Y022113D01*
X019334Y022035D02*
X019841Y022035D01*
X019818Y021956D02*
X019334Y021956D01*
X019334Y021878D02*
X019789Y021878D01*
X019789Y021799D02*
X019292Y021799D01*
X018935Y021407D02*
X019789Y021407D01*
X019789Y021485D02*
X018858Y021485D01*
X018698Y021564D02*
X019789Y021564D01*
X019789Y021642D02*
X016773Y021642D01*
X016749Y021564D02*
X016695Y021564D01*
X016760Y021360D02*
X016862Y021369D01*
X018579Y021369D01*
X018627Y021364D01*
X018674Y021350D01*
X018717Y021327D01*
X018755Y021296D01*
X018786Y021258D01*
X018810Y021215D01*
X018824Y021168D01*
X018829Y021119D01*
X018829Y017869D01*
X018824Y017824D01*
X018809Y017782D01*
X018785Y017744D01*
X018753Y017713D01*
X018715Y017689D01*
X018673Y017674D01*
X018629Y017669D01*
X017279Y017669D01*
X017279Y018569D01*
X017274Y018618D01*
X017260Y018665D01*
X017236Y018708D01*
X017205Y018746D01*
X017167Y018777D01*
X017124Y018800D01*
X017077Y018814D01*
X017029Y018819D01*
X016529Y018819D01*
X016480Y018824D01*
X016433Y018838D01*
X016390Y018861D01*
X016352Y018892D01*
X016321Y018930D01*
X016298Y018973D01*
X016283Y019020D01*
X016279Y019069D01*
X016279Y020786D01*
X016287Y020887D01*
X016314Y020985D01*
X016357Y021077D01*
X016415Y021161D01*
X016487Y021232D01*
X016570Y021291D01*
X016662Y021334D01*
X016760Y021360D01*
X016651Y021328D02*
X018714Y021328D01*
X018791Y021250D02*
X016512Y021250D01*
X016426Y021171D02*
X018823Y021171D01*
X018829Y021093D02*
X016368Y021093D01*
X016327Y021014D02*
X018829Y021014D01*
X018829Y020936D02*
X016301Y020936D01*
X016285Y020857D02*
X018829Y020857D01*
X018829Y020779D02*
X016279Y020779D01*
X016279Y020700D02*
X018829Y020700D01*
X018829Y020622D02*
X016279Y020622D01*
X016279Y020543D02*
X018829Y020543D01*
X018829Y020465D02*
X016279Y020465D01*
X016279Y020386D02*
X018829Y020386D01*
X018829Y020308D02*
X016279Y020308D01*
X016279Y020229D02*
X018829Y020229D01*
X018829Y020151D02*
X016279Y020151D01*
X016279Y020072D02*
X018829Y020072D01*
X018829Y019994D02*
X016279Y019994D01*
X016279Y019915D02*
X018829Y019915D01*
X018829Y019837D02*
X016279Y019837D01*
X016279Y019758D02*
X018829Y019758D01*
X018829Y019680D02*
X016279Y019680D01*
X016279Y019601D02*
X018829Y019601D01*
X018829Y019523D02*
X016279Y019523D01*
X016279Y019444D02*
X018829Y019444D01*
X018829Y019366D02*
X016279Y019366D01*
X016279Y019287D02*
X018829Y019287D01*
X018829Y019209D02*
X016279Y019209D01*
X016279Y019130D02*
X018829Y019130D01*
X018829Y019052D02*
X016280Y019052D01*
X016298Y018973D02*
X018829Y018973D01*
X018829Y018895D02*
X016349Y018895D01*
X015829Y018895D02*
X014079Y018895D01*
X014079Y018973D02*
X015829Y018973D01*
X015829Y019052D02*
X014079Y019052D01*
X014079Y019130D02*
X015829Y019130D01*
X015829Y019209D02*
X014079Y019209D01*
X014079Y019287D02*
X015829Y019287D01*
X015829Y019366D02*
X014079Y019366D01*
X014079Y019444D02*
X015829Y019444D01*
X015829Y019523D02*
X014079Y019523D01*
X014079Y019601D02*
X015829Y019601D01*
X015829Y019680D02*
X014079Y019680D01*
X014079Y019758D02*
X015829Y019758D01*
X015829Y019837D02*
X014079Y019837D01*
X014079Y019915D02*
X015829Y019915D01*
X015829Y019994D02*
X014079Y019994D01*
X014079Y020072D02*
X015829Y020072D01*
X015829Y020151D02*
X014079Y020151D01*
X014079Y020229D02*
X015829Y020229D01*
X015829Y020308D02*
X014079Y020308D01*
X014079Y020386D02*
X015829Y020386D01*
X015829Y020465D02*
X014079Y020465D01*
X014079Y020543D02*
X015829Y020543D01*
X015829Y020622D02*
X014079Y020622D01*
X014079Y020700D02*
X015829Y020700D01*
X015829Y020779D02*
X014080Y020779D01*
X014079Y020765D02*
X014079Y018269D01*
X015687Y018269D01*
X015719Y018272D01*
X015749Y018283D01*
X015775Y018300D01*
X015798Y018322D01*
X015815Y018349D01*
X015825Y018379D01*
X015829Y018410D01*
X015829Y021369D01*
X014683Y021369D01*
X014578Y021360D01*
X014476Y021332D01*
X014381Y021288D01*
X014294Y021228D01*
X014220Y021153D01*
X014160Y021067D01*
X014115Y020971D01*
X014088Y020870D01*
X014079Y020765D01*
X014087Y020857D02*
X015829Y020857D01*
X015829Y020936D02*
X014106Y020936D01*
X014135Y021014D02*
X015829Y021014D01*
X015829Y021093D02*
X014178Y021093D01*
X014238Y021171D02*
X015829Y021171D01*
X015829Y021250D02*
X014326Y021250D01*
X014468Y021328D02*
X015829Y021328D01*
X016852Y021721D02*
X019789Y021721D01*
X019789Y021328D02*
X018987Y021328D01*
X019017Y021250D02*
X019789Y021250D01*
X019789Y021171D02*
X019032Y021171D01*
X019032Y021093D02*
X019789Y021093D01*
X019743Y021014D02*
X019029Y021014D01*
X019029Y020936D02*
X019665Y020936D01*
X019586Y020857D02*
X019029Y020857D01*
X019029Y020779D02*
X019349Y020779D01*
X019284Y020700D02*
X019029Y020700D01*
X019029Y020622D02*
X019252Y020622D01*
X019251Y020543D02*
X019029Y020543D01*
X019029Y020465D02*
X019270Y020465D01*
X019315Y020386D02*
X019029Y020386D01*
X019029Y020308D02*
X019387Y020308D01*
X019387Y020229D02*
X019029Y020229D01*
X019029Y020151D02*
X019387Y020151D01*
X019387Y020072D02*
X019029Y020072D01*
X019029Y019994D02*
X019387Y019994D01*
X019387Y019915D02*
X019029Y019915D01*
X019029Y019837D02*
X019387Y019837D01*
X019400Y019758D02*
X019029Y019758D01*
X019029Y019680D02*
X019412Y019680D01*
X019462Y019601D02*
X019029Y019601D01*
X019029Y019523D02*
X019649Y019523D01*
X019805Y019523D02*
X020040Y019523D01*
X020042Y019444D02*
X019029Y019444D01*
X019029Y019366D02*
X020047Y019366D01*
X020055Y019287D02*
X019029Y019287D01*
X019029Y019209D02*
X020081Y019209D01*
X020140Y019130D02*
X019029Y019130D01*
X019029Y019052D02*
X020253Y019052D01*
X020314Y019234D02*
X020285Y019252D01*
X020261Y019275D01*
X020243Y019304D01*
X020232Y019336D01*
X020229Y019369D01*
X020229Y019494D01*
X020232Y019527D01*
X020243Y019559D01*
X020261Y019587D01*
X020285Y019611D01*
X020314Y019629D01*
X020345Y019640D01*
X020379Y019644D01*
X021929Y019644D01*
X021977Y019639D01*
X022024Y019625D01*
X022067Y019602D01*
X022105Y019571D01*
X022136Y019533D01*
X022160Y019490D01*
X022174Y019443D01*
X022174Y019436D01*
X022174Y019236D01*
X022179Y019231D01*
X022179Y019106D01*
X022174Y019101D01*
X022174Y018736D01*
X022179Y018731D01*
X022179Y016719D01*
X022174Y016670D01*
X022160Y016623D01*
X022136Y016580D01*
X022105Y016542D01*
X022067Y016511D01*
X022024Y016488D01*
X021977Y016474D01*
X021929Y016469D01*
X021279Y016469D01*
X021230Y016474D01*
X021183Y016488D01*
X021140Y016511D01*
X021102Y016542D01*
X021071Y016580D01*
X021048Y016623D01*
X021033Y016670D01*
X021029Y016719D01*
X021029Y018969D01*
X021024Y019018D01*
X021010Y019065D01*
X020986Y019108D01*
X020955Y019146D01*
X020917Y019177D01*
X020874Y019200D01*
X020827Y019214D01*
X020779Y019219D01*
X020379Y019219D01*
X020345Y019223D01*
X020314Y019234D01*
X020254Y019287D02*
X022174Y019287D01*
X022179Y019209D02*
X020844Y019209D01*
X020968Y019130D02*
X022179Y019130D01*
X022174Y019052D02*
X021013Y019052D01*
X021028Y018973D02*
X022174Y018973D01*
X022174Y018895D02*
X021029Y018895D01*
X021029Y018816D02*
X022174Y018816D01*
X022174Y018738D02*
X021029Y018738D01*
X021029Y018659D02*
X022179Y018659D01*
X022179Y018581D02*
X021029Y018581D01*
X021029Y018502D02*
X022179Y018502D01*
X022179Y018424D02*
X021029Y018424D01*
X021029Y018345D02*
X022179Y018345D01*
X022179Y018267D02*
X021029Y018267D01*
X021029Y018188D02*
X022179Y018188D01*
X022179Y018110D02*
X021029Y018110D01*
X021029Y018031D02*
X022179Y018031D01*
X022179Y017953D02*
X021029Y017953D01*
X021029Y017874D02*
X022179Y017874D01*
X022179Y017796D02*
X021029Y017796D01*
X021029Y017717D02*
X022179Y017717D01*
X022179Y017639D02*
X021029Y017639D01*
X021029Y017560D02*
X022179Y017560D01*
X022179Y017482D02*
X021029Y017482D01*
X021029Y017403D02*
X022179Y017403D01*
X022179Y017325D02*
X021029Y017325D01*
X021029Y017246D02*
X022179Y017246D01*
X022179Y017168D02*
X021029Y017168D01*
X021029Y017089D02*
X022179Y017089D01*
X022179Y017011D02*
X021029Y017011D01*
X021029Y016932D02*
X022179Y016932D01*
X022179Y016854D02*
X021029Y016854D01*
X021029Y016775D02*
X022179Y016775D01*
X022176Y016697D02*
X021031Y016697D01*
X021050Y016618D02*
X022157Y016618D01*
X022103Y016540D02*
X021104Y016540D01*
X020974Y016414D02*
X020985Y016401D01*
X020989Y016387D01*
X021001Y016381D01*
X021010Y016370D01*
X021024Y016369D01*
X021039Y016361D01*
X021053Y016349D01*
X021059Y016337D01*
X021072Y016333D01*
X021083Y016325D01*
X021097Y016326D01*
X021114Y016321D01*
X021129Y016313D01*
X021138Y016302D01*
X021152Y016301D01*
X021164Y016294D01*
X021177Y016298D01*
X021195Y016296D01*
X021198Y016295D01*
X021204Y016289D01*
X021219Y016289D01*
X021249Y016280D01*
X021266Y016289D01*
X021270Y016289D01*
X021335Y016282D01*
X021343Y016289D01*
X021864Y016289D01*
X021872Y016282D01*
X021937Y016289D01*
X021941Y016289D01*
X021958Y016280D01*
X021988Y016289D01*
X022003Y016289D01*
X022010Y016295D01*
X022013Y016296D01*
X022030Y016298D01*
X022043Y016294D01*
X022055Y016301D01*
X022069Y016302D01*
X022078Y016313D01*
X022093Y016321D01*
X022110Y016326D01*
X022124Y016325D01*
X022135Y016333D01*
X022148Y016337D01*
X022154Y016349D01*
X022168Y016361D01*
X022184Y016369D01*
X022189Y016369D01*
X022189Y016361D01*
X022271Y016279D01*
X023059Y016279D01*
X023059Y014739D01*
X022556Y014739D01*
X022545Y014748D01*
X022484Y014741D01*
X022459Y014753D01*
X022419Y014739D01*
X022387Y014739D01*
X022385Y014736D01*
X022374Y014739D01*
X022354Y014726D01*
X022330Y014724D01*
X022316Y014706D01*
X022294Y014706D01*
X022277Y014689D01*
X022255Y014682D01*
X022245Y014662D01*
X022224Y014657D01*
X022211Y014637D01*
X022191Y014624D01*
X022186Y014602D01*
X022166Y014593D01*
X022158Y014570D01*
X022141Y014554D01*
X022141Y014531D01*
X022124Y014517D01*
X022121Y014494D01*
X022109Y014474D01*
X022111Y014463D01*
X022109Y014460D01*
X022109Y014429D01*
X022095Y014389D01*
X022107Y014364D01*
X022100Y014303D01*
X022109Y014292D01*
X022109Y013947D01*
X019975Y013947D01*
X019850Y013896D01*
X019670Y013717D01*
X019669Y013721D01*
X019669Y014552D01*
X019632Y014640D01*
X019269Y015003D01*
X019332Y015066D01*
X019369Y015154D01*
X019369Y017161D01*
X019816Y017161D01*
X020209Y016768D01*
X020382Y016696D01*
X020843Y016696D01*
X020840Y016689D01*
X020849Y016659D01*
X020849Y016644D01*
X020855Y016638D01*
X020856Y016635D01*
X020858Y016617D01*
X020854Y016604D01*
X020860Y016592D01*
X020862Y016578D01*
X020872Y016570D01*
X020881Y016554D01*
X020886Y016537D01*
X020884Y016523D01*
X020893Y016513D01*
X020897Y016500D01*
X020909Y016493D01*
X020920Y016480D01*
X020929Y016464D01*
X020930Y016450D01*
X020941Y016442D01*
X020947Y016429D01*
X020960Y016425D01*
X020974Y016414D01*
X020997Y016383D02*
X019369Y016383D01*
X019369Y016461D02*
X020929Y016461D01*
X020885Y016540D02*
X019369Y016540D01*
X019369Y016618D02*
X020858Y016618D01*
X021136Y016304D02*
X019369Y016304D01*
X019369Y016226D02*
X023059Y016226D01*
X023059Y016147D02*
X019369Y016147D01*
X019369Y016069D02*
X023059Y016069D01*
X023059Y015990D02*
X019369Y015990D01*
X019369Y015912D02*
X023059Y015912D01*
X023059Y015833D02*
X019369Y015833D01*
X019369Y015755D02*
X023059Y015755D01*
X023059Y015676D02*
X019369Y015676D01*
X019369Y015598D02*
X023059Y015598D01*
X023059Y015519D02*
X019369Y015519D01*
X019369Y015441D02*
X023059Y015441D01*
X023059Y015362D02*
X019369Y015362D01*
X019369Y015284D02*
X023059Y015284D01*
X023059Y015205D02*
X019369Y015205D01*
X019357Y015127D02*
X023059Y015127D01*
X023059Y015048D02*
X019314Y015048D01*
X019303Y014970D02*
X023059Y014970D01*
X023059Y014891D02*
X019381Y014891D01*
X019460Y014813D02*
X023059Y014813D01*
X022367Y014734D02*
X019538Y014734D01*
X019617Y014656D02*
X022223Y014656D01*
X022161Y014577D02*
X019658Y014577D01*
X019669Y014499D02*
X022122Y014499D01*
X022106Y014420D02*
X019669Y014420D01*
X019669Y014342D02*
X022104Y014342D01*
X022109Y014263D02*
X019669Y014263D01*
X019669Y014185D02*
X022109Y014185D01*
X022109Y014106D02*
X019669Y014106D01*
X019669Y014028D02*
X022109Y014028D01*
X022109Y013949D02*
X019669Y013949D01*
X019669Y013871D02*
X019825Y013871D01*
X019746Y013792D02*
X019669Y013792D01*
X019189Y013792D02*
X018149Y013792D01*
X018149Y013760D02*
X018149Y014710D01*
X018105Y014754D01*
X018187Y014754D01*
X018260Y014827D01*
X018615Y014472D01*
X018615Y014196D01*
X018722Y014088D01*
X019137Y014088D01*
X019189Y014140D01*
X019189Y013721D01*
X019149Y013625D01*
X019149Y013513D01*
X019191Y013410D01*
X019270Y013332D01*
X019281Y013327D01*
X019140Y013186D01*
X019089Y013062D01*
X019089Y012926D01*
X019140Y012801D01*
X019218Y012724D01*
X018345Y012724D01*
X018287Y012781D01*
X018190Y012821D01*
X018208Y012839D01*
X018208Y013516D01*
X018209Y013517D01*
X018209Y013699D01*
X018149Y013760D01*
X018195Y013714D02*
X019186Y013714D01*
X019153Y013635D02*
X018209Y013635D01*
X018209Y013557D02*
X019149Y013557D01*
X019163Y013478D02*
X018208Y013478D01*
X018208Y013400D02*
X019202Y013400D01*
X019275Y013321D02*
X018208Y013321D01*
X018208Y013243D02*
X019197Y013243D01*
X019131Y013164D02*
X018208Y013164D01*
X018208Y013086D02*
X019099Y013086D01*
X019089Y013007D02*
X018208Y013007D01*
X018208Y012929D02*
X019089Y012929D01*
X019120Y012850D02*
X018208Y012850D01*
X018297Y012772D02*
X019170Y012772D01*
X019687Y012772D02*
X024667Y012772D01*
X024667Y012850D02*
X019766Y012850D01*
X019844Y012929D02*
X024667Y012929D01*
X024667Y013007D02*
X019923Y013007D01*
X020001Y013086D02*
X024667Y013086D01*
X024667Y013164D02*
X020080Y013164D01*
X020158Y013243D02*
X022436Y013243D01*
X022475Y013243D02*
X022519Y013243D01*
X022548Y013243D02*
X024209Y013243D01*
X024238Y013243D02*
X024282Y013243D01*
X024322Y013243D02*
X024667Y013243D01*
X024667Y013321D02*
X024510Y013321D01*
X024593Y013400D02*
X024667Y013400D01*
X024667Y013478D02*
X024634Y013478D01*
X024649Y013557D02*
X024667Y013557D01*
X024667Y013635D02*
X024652Y013635D01*
X024649Y013714D02*
X024667Y013714D01*
X024667Y013792D02*
X024649Y013792D01*
X024649Y013871D02*
X024667Y013871D01*
X024667Y013949D02*
X024649Y013949D01*
X024649Y014028D02*
X024667Y014028D01*
X024667Y014106D02*
X024649Y014106D01*
X024649Y014185D02*
X024667Y014185D01*
X024667Y014263D02*
X024649Y014263D01*
X024649Y014342D02*
X024667Y014342D01*
X024667Y014420D02*
X024649Y014420D01*
X024649Y014499D02*
X024667Y014499D01*
X024667Y014577D02*
X024649Y014577D01*
X024649Y014656D02*
X024667Y014656D01*
X024667Y014734D02*
X024649Y014734D01*
X024649Y014813D02*
X024667Y014813D01*
X024667Y014891D02*
X024649Y014891D01*
X024649Y014970D02*
X024667Y014970D01*
X024667Y015048D02*
X024649Y015048D01*
X024649Y015127D02*
X024667Y015127D01*
X024667Y015205D02*
X024649Y015205D01*
X024649Y015284D02*
X024667Y015284D01*
X024667Y015362D02*
X024649Y015362D01*
X024649Y015441D02*
X024667Y015441D01*
X024667Y015519D02*
X024649Y015519D01*
X024649Y015598D02*
X024667Y015598D01*
X024667Y015676D02*
X024649Y015676D01*
X024649Y015755D02*
X024667Y015755D01*
X024667Y015833D02*
X024649Y015833D01*
X024649Y015912D02*
X024667Y015912D01*
X024667Y015990D02*
X024649Y015990D01*
X024649Y016069D02*
X024667Y016069D01*
X024667Y016147D02*
X024649Y016147D01*
X024649Y016226D02*
X024667Y016226D01*
X024667Y016304D02*
X024649Y016304D01*
X024649Y016383D02*
X024667Y016383D01*
X024667Y016461D02*
X024649Y016461D01*
X024649Y016540D02*
X024667Y016540D01*
X024667Y016618D02*
X024649Y016618D01*
X024649Y016697D02*
X024667Y016697D01*
X024667Y016775D02*
X024649Y016775D01*
X024649Y016854D02*
X024667Y016854D01*
X024667Y016932D02*
X024649Y016932D01*
X024649Y017011D02*
X024667Y017011D01*
X024667Y017089D02*
X024649Y017089D01*
X024649Y017168D02*
X024667Y017168D01*
X024667Y017246D02*
X024649Y017246D01*
X024649Y017325D02*
X024667Y017325D01*
X024667Y017403D02*
X024649Y017403D01*
X024649Y017482D02*
X024667Y017482D01*
X024667Y017560D02*
X024649Y017560D01*
X024653Y017639D02*
X024667Y017639D01*
X024667Y017717D02*
X024653Y017717D01*
X024636Y017796D02*
X024667Y017796D01*
X024667Y017874D02*
X024598Y017874D01*
X024536Y017953D02*
X024667Y017953D01*
X024667Y018031D02*
X024395Y018031D01*
X024149Y018110D02*
X024667Y018110D01*
X024667Y018188D02*
X024149Y018188D01*
X024149Y018267D02*
X024667Y018267D01*
X024667Y018345D02*
X024149Y018345D01*
X024149Y018424D02*
X024667Y018424D01*
X024667Y018502D02*
X024149Y018502D01*
X024207Y018581D02*
X024667Y018581D01*
X024667Y018659D02*
X024264Y018659D01*
X024264Y018738D02*
X024667Y018738D01*
X024667Y018816D02*
X024264Y018816D01*
X024264Y018895D02*
X024667Y018895D01*
X024667Y018973D02*
X024264Y018973D01*
X024264Y019052D02*
X024667Y019052D01*
X024667Y019130D02*
X024187Y019130D01*
X023712Y019130D02*
X023587Y019130D01*
X023632Y019209D02*
X024667Y019209D01*
X024667Y019287D02*
X023672Y019287D01*
X023672Y019366D02*
X024667Y019366D01*
X024667Y019444D02*
X023672Y019444D01*
X023672Y019523D02*
X024667Y019523D01*
X024667Y019601D02*
X023672Y019601D01*
X023656Y019680D02*
X024667Y019680D01*
X024667Y019758D02*
X023578Y019758D01*
X023137Y019758D02*
X023054Y019758D01*
X023058Y019680D02*
X022999Y019680D01*
X023054Y019837D02*
X024667Y019837D01*
X024667Y019915D02*
X023054Y019915D01*
X023054Y019994D02*
X024667Y019994D01*
X024667Y020072D02*
X023054Y020072D01*
X023005Y020151D02*
X024667Y020151D01*
X024667Y020229D02*
X023048Y020229D01*
X023054Y020308D02*
X024667Y020308D01*
X024667Y020386D02*
X023054Y020386D01*
X023054Y020465D02*
X024592Y020465D01*
X024513Y020543D02*
X023054Y020543D01*
X023034Y020622D02*
X024435Y020622D01*
X024356Y020700D02*
X022027Y020700D01*
X022027Y020622D02*
X022195Y020622D01*
X022174Y020543D02*
X022027Y020543D01*
X022027Y020465D02*
X022174Y020465D01*
X022174Y020386D02*
X022027Y020386D01*
X022027Y020308D02*
X022174Y020308D01*
X022180Y020229D02*
X022027Y020229D01*
X022027Y020151D02*
X022224Y020151D01*
X022068Y019601D02*
X020275Y019601D01*
X020232Y019523D02*
X022142Y019523D01*
X022173Y019444D02*
X020229Y019444D01*
X020229Y019366D02*
X022174Y019366D01*
X020847Y018973D02*
X019029Y018973D01*
X019029Y018895D02*
X020849Y018895D01*
X020849Y018816D02*
X019029Y018816D01*
X019029Y018738D02*
X020849Y018738D01*
X020849Y018659D02*
X019029Y018659D01*
X019029Y018581D02*
X020849Y018581D01*
X020849Y018502D02*
X019029Y018502D01*
X019029Y018424D02*
X020849Y018424D01*
X020849Y018345D02*
X019029Y018345D01*
X019029Y018267D02*
X019294Y018267D01*
X019236Y018188D02*
X019029Y018188D01*
X019029Y018110D02*
X019236Y018110D01*
X019236Y018031D02*
X019029Y018031D01*
X019029Y017953D02*
X019236Y017953D01*
X019236Y017874D02*
X019062Y017874D01*
X019141Y017796D02*
X019236Y017796D01*
X019236Y017717D02*
X019219Y017717D01*
X018814Y017796D02*
X017279Y017796D01*
X017279Y017874D02*
X018829Y017874D01*
X018829Y017953D02*
X017279Y017953D01*
X017279Y018031D02*
X018829Y018031D01*
X018829Y018110D02*
X017279Y018110D01*
X017279Y018188D02*
X018829Y018188D01*
X018829Y018267D02*
X017279Y018267D01*
X017279Y018345D02*
X018829Y018345D01*
X018829Y018424D02*
X017279Y018424D01*
X017279Y018502D02*
X018829Y018502D01*
X018829Y018581D02*
X017277Y018581D01*
X017261Y018659D02*
X018829Y018659D01*
X018829Y018738D02*
X017212Y018738D01*
X017053Y018816D02*
X018829Y018816D01*
X019992Y019601D02*
X020058Y019601D01*
X020538Y018267D02*
X020849Y018267D01*
X020849Y018188D02*
X020596Y018188D01*
X020596Y018110D02*
X020849Y018110D01*
X020849Y018031D02*
X020596Y018031D01*
X020596Y017953D02*
X020849Y017953D01*
X020849Y017874D02*
X020596Y017874D01*
X020596Y017796D02*
X020849Y017796D01*
X020849Y017717D02*
X020596Y017717D01*
X020667Y017639D02*
X020849Y017639D01*
X020380Y016697D02*
X019369Y016697D01*
X019369Y016775D02*
X020201Y016775D01*
X020123Y016854D02*
X019369Y016854D01*
X019369Y016932D02*
X020044Y016932D01*
X019966Y017011D02*
X019369Y017011D01*
X019369Y017089D02*
X019887Y017089D01*
X018829Y017089D02*
X014379Y017089D01*
X014379Y017119D02*
X014383Y017168D01*
X018824Y017168D01*
X018829Y017119D01*
X018829Y015819D01*
X018824Y015770D01*
X018810Y015723D01*
X018786Y015680D01*
X018755Y015642D01*
X018717Y015611D01*
X018674Y015588D01*
X018627Y015574D01*
X018579Y015569D01*
X017699Y015569D01*
X017699Y016120D01*
X017854Y016276D01*
X017854Y016433D01*
X017743Y016545D01*
X017586Y016545D01*
X017380Y016339D01*
X017337Y016339D01*
X017209Y016210D01*
X017209Y016028D01*
X017259Y015978D01*
X017259Y015569D01*
X014629Y015569D01*
X014600Y015572D01*
X014534Y015599D01*
X014512Y015599D01*
X014490Y015611D01*
X014452Y015642D01*
X014421Y015680D01*
X014398Y015723D01*
X014383Y015770D01*
X014379Y015819D01*
X014379Y017119D01*
X014383Y017168D02*
X014398Y017215D01*
X014421Y017258D01*
X014452Y017296D01*
X014490Y017327D01*
X014533Y017350D01*
X014580Y017364D01*
X014629Y017369D01*
X018579Y017369D01*
X018627Y017364D01*
X018674Y017350D01*
X018717Y017327D01*
X018755Y017296D01*
X018786Y017258D01*
X018810Y017215D01*
X018824Y017168D01*
X018793Y017246D02*
X014415Y017246D01*
X014487Y017325D02*
X018720Y017325D01*
X018829Y017011D02*
X014379Y017011D01*
X014379Y016932D02*
X018829Y016932D01*
X018829Y016854D02*
X014379Y016854D01*
X014379Y016775D02*
X018829Y016775D01*
X018829Y016697D02*
X014379Y016697D01*
X014379Y016618D02*
X018829Y016618D01*
X018829Y016540D02*
X017748Y016540D01*
X017826Y016461D02*
X018829Y016461D01*
X018829Y016383D02*
X017854Y016383D01*
X017854Y016304D02*
X018829Y016304D01*
X018829Y016226D02*
X017804Y016226D01*
X017726Y016147D02*
X018829Y016147D01*
X018829Y016069D02*
X017699Y016069D01*
X017699Y015990D02*
X018829Y015990D01*
X018829Y015912D02*
X017699Y015912D01*
X017699Y015833D02*
X018829Y015833D01*
X018819Y015755D02*
X017699Y015755D01*
X017699Y015676D02*
X018784Y015676D01*
X018693Y015598D02*
X017699Y015598D01*
X017259Y015598D02*
X014537Y015598D01*
X014424Y015676D02*
X017259Y015676D01*
X017259Y015755D02*
X014388Y015755D01*
X014379Y015833D02*
X017259Y015833D01*
X017259Y015912D02*
X014379Y015912D01*
X014379Y015990D02*
X017246Y015990D01*
X017209Y016069D02*
X014379Y016069D01*
X014379Y016147D02*
X017209Y016147D01*
X017225Y016226D02*
X014379Y016226D01*
X014379Y016304D02*
X017303Y016304D01*
X017424Y016383D02*
X014379Y016383D01*
X014379Y016461D02*
X017502Y016461D01*
X017581Y016540D02*
X014379Y016540D01*
X013629Y016540D02*
X011330Y016540D01*
X011344Y016461D02*
X013629Y016461D01*
X013629Y016383D02*
X011344Y016383D01*
X011344Y016304D02*
X013629Y016304D01*
X013629Y016226D02*
X011344Y016226D01*
X011344Y016147D02*
X013629Y016147D01*
X013629Y016069D02*
X011301Y016069D01*
X011282Y015990D02*
X011393Y015990D01*
X011638Y015713D02*
X011329Y015404D01*
X011329Y013619D01*
X011008Y013617D01*
X010824Y013433D01*
X010785Y013430D01*
X010179Y013430D01*
X009807Y013094D01*
X009682Y013094D01*
X009787Y012834D02*
X009841Y012857D01*
X009920Y012935D01*
X009931Y012963D01*
X009931Y012963D01*
X010248Y013250D01*
X010721Y013250D01*
X010729Y013243D01*
X010794Y013250D01*
X010859Y013250D01*
X010863Y013253D01*
X010899Y013253D01*
X010906Y013261D01*
X010916Y013262D01*
X010958Y013313D01*
X011083Y013437D01*
X011328Y013439D01*
X011328Y013137D01*
X010846Y013137D01*
X010783Y013075D01*
X010752Y013105D01*
X010650Y013148D01*
X010539Y013148D01*
X010436Y013105D01*
X010358Y013027D01*
X010315Y012924D01*
X010315Y012813D01*
X010358Y012711D01*
X010406Y012663D01*
X010142Y012665D01*
X010142Y012665D01*
X010064Y012665D01*
X009985Y012666D01*
X009985Y012665D01*
X009984Y012665D01*
X009929Y012610D01*
X009873Y012555D01*
X009873Y012554D01*
X009761Y012442D01*
X009577Y012442D01*
X009560Y012459D01*
X009560Y012464D01*
X009530Y012491D01*
X009567Y012491D01*
X009670Y012534D01*
X009748Y012612D01*
X009791Y012715D01*
X009791Y012826D01*
X009787Y012834D01*
X009826Y012850D02*
X010315Y012850D01*
X010317Y012929D02*
X009913Y012929D01*
X009980Y013007D02*
X010350Y013007D01*
X010417Y013086D02*
X010067Y013086D01*
X010154Y013164D02*
X011328Y013164D01*
X011328Y013243D02*
X010241Y013243D01*
X010332Y012772D02*
X009791Y012772D01*
X009782Y012693D02*
X010375Y012693D01*
X009934Y012615D02*
X009749Y012615D01*
X009672Y012536D02*
X009855Y012536D01*
X009777Y012458D02*
X009561Y012458D01*
X010000Y012144D02*
X011289Y012144D01*
X011289Y012121D02*
X011325Y012033D01*
X011393Y011965D01*
X011414Y011944D01*
X011414Y011712D01*
X011466Y011659D01*
X010580Y011659D01*
X010617Y011750D01*
X010617Y011861D01*
X010575Y011964D01*
X010497Y012042D01*
X010394Y012085D01*
X010354Y012085D01*
X010349Y012088D01*
X010337Y012085D01*
X010283Y012085D01*
X010258Y012075D01*
X009931Y012075D01*
X010141Y012285D01*
X010832Y012280D01*
X010846Y012267D01*
X010904Y012267D01*
X010920Y012250D01*
X011095Y012250D01*
X011099Y012246D01*
X011289Y012246D01*
X011289Y012121D01*
X011312Y012065D02*
X010441Y012065D01*
X010552Y011987D02*
X011371Y011987D01*
X011414Y011908D02*
X010598Y011908D01*
X010617Y011830D02*
X011414Y011830D01*
X011414Y011751D02*
X010617Y011751D01*
X010585Y011673D02*
X011452Y011673D01*
X011289Y012222D02*
X010079Y012222D01*
X009233Y012772D02*
X009222Y012772D01*
X009219Y012850D02*
X009140Y012850D01*
X009163Y012929D02*
X008528Y012929D01*
X008607Y013007D02*
X009167Y013007D01*
X009167Y013086D02*
X008645Y013086D01*
X008652Y013164D02*
X008859Y013164D01*
X008792Y013243D02*
X008662Y013243D01*
X008662Y013321D02*
X008792Y013321D01*
X008792Y013400D02*
X008662Y013400D01*
X008662Y013478D02*
X008792Y013478D01*
X008792Y013557D02*
X008662Y013557D01*
X008662Y013635D02*
X008792Y013635D01*
X008792Y013714D02*
X008662Y013714D01*
X008662Y013792D02*
X008792Y013792D01*
X008817Y013871D02*
X008638Y013871D01*
X008177Y014106D02*
X009870Y014106D01*
X009870Y014028D02*
X007909Y014028D01*
X007909Y014106D02*
X007981Y014106D01*
X007882Y013949D02*
X009879Y013949D01*
X009898Y013871D02*
X010719Y013871D01*
X010719Y013949D02*
X010678Y013949D01*
X010656Y013792D02*
X009922Y013792D01*
X010772Y013086D02*
X010794Y013086D01*
X010967Y013321D02*
X011328Y013321D01*
X011328Y013400D02*
X011045Y013400D01*
X011509Y014233D02*
X011509Y015329D01*
X011577Y015398D01*
X011845Y015398D01*
X011866Y015419D01*
X013604Y015419D01*
X013629Y015395D01*
X013629Y013932D01*
X013674Y013822D01*
X014209Y013288D01*
X014319Y013242D01*
X014438Y013242D01*
X014549Y013288D01*
X014600Y013339D01*
X016130Y013339D01*
X016130Y012989D01*
X016100Y012959D01*
X012219Y012959D01*
X012219Y013009D01*
X012225Y013015D01*
X012458Y013015D01*
X012540Y013097D01*
X012540Y013329D01*
X012726Y013329D01*
X012823Y013289D01*
X012934Y013289D01*
X013037Y013332D01*
X013116Y013410D01*
X013159Y013513D01*
X013159Y013625D01*
X013116Y013728D01*
X013037Y013806D01*
X012934Y013849D01*
X012823Y013849D01*
X012726Y013809D01*
X011949Y013809D01*
X011949Y014125D01*
X011841Y014233D01*
X011509Y014233D01*
X011509Y014263D02*
X013629Y014263D01*
X013629Y014185D02*
X011889Y014185D01*
X011949Y014106D02*
X013629Y014106D01*
X013629Y014028D02*
X011949Y014028D01*
X011949Y013949D02*
X013629Y013949D01*
X013654Y013871D02*
X011949Y013871D01*
X011509Y014342D02*
X013629Y014342D01*
X013629Y014420D02*
X011509Y014420D01*
X011509Y014499D02*
X013629Y014499D01*
X013629Y014577D02*
X011509Y014577D01*
X011509Y014656D02*
X013629Y014656D01*
X013629Y014734D02*
X011509Y014734D01*
X011509Y014813D02*
X013629Y014813D01*
X013629Y014891D02*
X011509Y014891D01*
X011509Y014970D02*
X013629Y014970D01*
X013629Y015048D02*
X011509Y015048D01*
X011509Y015127D02*
X013629Y015127D01*
X013629Y015205D02*
X011509Y015205D01*
X011509Y015284D02*
X013629Y015284D01*
X013629Y015362D02*
X011542Y015362D01*
X011034Y015113D02*
X011029Y015119D01*
X011034Y015113D02*
X011034Y014512D01*
X010260Y015386D02*
X009846Y015386D01*
X009479Y015869D02*
X008829Y015869D01*
X008425Y016349D02*
X008253Y016349D01*
X008196Y016406D01*
X008091Y016511D01*
X007925Y016511D01*
X007943Y016529D01*
X008265Y016529D01*
X008347Y016611D01*
X008347Y017227D01*
X008334Y017240D01*
X008361Y017229D01*
X008480Y017229D01*
X008477Y017227D01*
X008477Y016664D01*
X008441Y016628D01*
X008399Y016525D01*
X008399Y016413D01*
X008425Y016349D01*
X008411Y016383D02*
X008219Y016383D01*
X008141Y016461D02*
X008399Y016461D01*
X008405Y016540D02*
X008277Y016540D01*
X008347Y016618D02*
X008437Y016618D01*
X008477Y016697D02*
X008347Y016697D01*
X008347Y016775D02*
X008477Y016775D01*
X008477Y016854D02*
X008347Y016854D01*
X008347Y016932D02*
X008477Y016932D01*
X008477Y017011D02*
X008347Y017011D01*
X008347Y017089D02*
X008477Y017089D01*
X008477Y017168D02*
X008347Y017168D01*
X008958Y017246D02*
X009127Y017246D01*
X009107Y017168D02*
X008977Y017168D01*
X008977Y017089D02*
X009107Y017089D01*
X009107Y017011D02*
X008977Y017011D01*
X008977Y016932D02*
X009107Y016932D01*
X009107Y016854D02*
X008977Y016854D01*
X008977Y016775D02*
X009107Y016775D01*
X009107Y016697D02*
X008977Y016697D01*
X008679Y016469D02*
X009529Y016469D01*
X009672Y016613D01*
X009672Y016919D01*
X009672Y016963D01*
X009729Y017019D01*
X009922Y017011D02*
X010325Y017011D01*
X010450Y017089D02*
X009922Y017089D01*
X009922Y017168D02*
X010750Y017168D01*
X010709Y017089D02*
X010607Y017089D01*
X010529Y016819D02*
X010129Y016819D01*
X009479Y016169D01*
X008179Y016169D01*
X008016Y016331D01*
X006880Y016331D01*
X006892Y016319D01*
X006279Y016019D02*
X004629Y017669D01*
X004629Y018295D01*
X004455Y018469D01*
X004179Y018469D01*
X003891Y018895D02*
X004939Y018895D01*
X004939Y018973D02*
X003891Y018973D01*
X003891Y019052D02*
X005014Y019052D01*
X005235Y019366D02*
X006369Y019366D01*
X006290Y019444D02*
X005314Y019444D01*
X005319Y019523D02*
X006282Y019523D01*
X006282Y019601D02*
X005319Y019601D01*
X005319Y019680D02*
X006282Y019680D01*
X006244Y019758D02*
X005373Y019758D01*
X005329Y019969D02*
X005029Y019669D01*
X005029Y019660D01*
X005329Y019969D02*
X006288Y019969D01*
X006597Y019660D01*
X006318Y020169D02*
X006597Y020448D01*
X006282Y020465D02*
X005319Y020465D01*
X005319Y020433D02*
X005403Y020349D01*
X006243Y020349D01*
X006282Y020387D01*
X006282Y020589D01*
X005319Y020589D01*
X005319Y020433D01*
X005366Y020386D02*
X006281Y020386D01*
X006282Y020543D02*
X005319Y020543D01*
X005050Y020448D02*
X005329Y020169D01*
X006318Y020169D01*
X007179Y020466D02*
X007197Y020448D01*
X007512Y020465D02*
X011425Y020465D01*
X011399Y020543D02*
X007512Y020543D01*
X007636Y020622D02*
X011397Y020622D01*
X011399Y020700D02*
X007715Y020700D01*
X007793Y020779D02*
X011399Y020779D01*
X011399Y020857D02*
X007872Y020857D01*
X007950Y020936D02*
X011399Y020936D01*
X011399Y021014D02*
X007959Y021014D01*
X007959Y021093D02*
X011399Y021093D01*
X011399Y021171D02*
X007959Y021171D01*
X007959Y021250D02*
X011399Y021250D01*
X011399Y021328D02*
X007959Y021328D01*
X007959Y021407D02*
X011399Y021407D01*
X011399Y021485D02*
X007959Y021485D01*
X007959Y021564D02*
X011399Y021564D01*
X011399Y021642D02*
X007959Y021642D01*
X007959Y021721D02*
X011399Y021721D01*
X011399Y021799D02*
X007959Y021799D01*
X007959Y021878D02*
X011399Y021878D01*
X011399Y021956D02*
X007959Y021956D01*
X007959Y022035D02*
X011399Y022035D01*
X011399Y022113D02*
X007959Y022113D01*
X007959Y022192D02*
X011399Y022192D01*
X011399Y022270D02*
X007959Y022270D01*
X007912Y022349D02*
X011399Y022349D01*
X011399Y022427D02*
X007834Y022427D01*
X007755Y022506D02*
X011399Y022506D01*
X011399Y022584D02*
X007677Y022584D01*
X007599Y021956D02*
X007517Y021956D01*
X007596Y021878D02*
X007599Y021878D01*
X007322Y021642D02*
X005249Y021642D01*
X005249Y021564D02*
X007401Y021564D01*
X007449Y021485D02*
X006869Y021485D01*
X006912Y021407D02*
X007449Y021407D01*
X007449Y021328D02*
X006912Y021328D01*
X006912Y021250D02*
X007449Y021250D01*
X007449Y021171D02*
X006912Y021171D01*
X006597Y021235D02*
X005629Y021235D01*
X005339Y021250D02*
X005319Y021250D01*
X005319Y021328D02*
X005339Y021328D01*
X005339Y021407D02*
X005319Y021407D01*
X005279Y021485D02*
X005378Y021485D01*
X005429Y021721D02*
X005249Y021721D01*
X005307Y021799D02*
X005351Y021799D01*
X005339Y021878D02*
X005319Y021878D01*
X005319Y021956D02*
X005339Y021956D01*
X005339Y022035D02*
X005319Y022035D01*
X005319Y022113D02*
X005339Y022113D01*
X005339Y022192D02*
X005319Y022192D01*
X005282Y022270D02*
X005376Y022270D01*
X005431Y022506D02*
X005249Y022506D01*
X005304Y022584D02*
X005353Y022584D01*
X005339Y022663D02*
X005319Y022663D01*
X005319Y022741D02*
X005339Y022741D01*
X005339Y022820D02*
X005319Y022820D01*
X005319Y022898D02*
X005339Y022898D01*
X005339Y022977D02*
X005319Y022977D01*
X005284Y023055D02*
X005373Y023055D01*
X005629Y022810D02*
X006597Y022810D01*
X006873Y023055D02*
X006920Y023055D01*
X006894Y022584D02*
X006900Y022584D01*
X006978Y022506D02*
X006815Y022506D01*
X006871Y022270D02*
X006922Y022270D01*
X006597Y022022D02*
X005629Y022022D01*
X005882Y022270D02*
X006322Y022270D01*
X006378Y022506D02*
X005826Y022506D01*
X005904Y022584D02*
X006300Y022584D01*
X006320Y023055D02*
X005884Y023055D01*
X004773Y023055D02*
X004384Y023055D01*
X004306Y022977D02*
X004739Y022977D01*
X004739Y022898D02*
X004227Y022898D01*
X004149Y022820D02*
X004739Y022820D01*
X004739Y022741D02*
X004070Y022741D01*
X003992Y022663D02*
X004739Y022663D01*
X004753Y022584D02*
X003913Y022584D01*
X003835Y022506D02*
X004809Y022506D01*
X004809Y022427D02*
X003756Y022427D01*
X003678Y022349D02*
X004809Y022349D01*
X004776Y022270D02*
X003599Y022270D01*
X003521Y022192D02*
X004739Y022192D01*
X004739Y022113D02*
X003442Y022113D01*
X003364Y022035D02*
X004739Y022035D01*
X004739Y021956D02*
X003285Y021956D01*
X003207Y021878D02*
X004739Y021878D01*
X004751Y021799D02*
X003128Y021799D01*
X003050Y021721D02*
X004809Y021721D01*
X004809Y021642D02*
X002971Y021642D01*
X002893Y021564D02*
X004809Y021564D01*
X004690Y021485D02*
X002814Y021485D01*
X002736Y021407D02*
X004571Y021407D01*
X004521Y021328D02*
X002657Y021328D01*
X002579Y021250D02*
X004499Y021250D01*
X004499Y021171D02*
X002500Y021171D01*
X002422Y021093D02*
X002998Y021093D01*
X002920Y021014D02*
X002343Y021014D01*
X002265Y020936D02*
X002841Y020936D01*
X002763Y020857D02*
X002186Y020857D01*
X002108Y020779D02*
X002316Y020779D01*
X002289Y020700D02*
X002029Y020700D01*
X001951Y020622D02*
X002289Y020622D01*
X002289Y020543D02*
X001872Y020543D01*
X001794Y020465D02*
X002289Y020465D01*
X002289Y020386D02*
X001719Y020386D01*
X001719Y020308D02*
X002289Y020308D01*
X002289Y020229D02*
X001719Y020229D01*
X001719Y020151D02*
X002324Y020151D01*
X002629Y020469D02*
X003079Y020919D01*
X002279Y019669D02*
X002323Y019624D01*
X002323Y019041D01*
X002329Y019036D01*
X002329Y018469D01*
X002582Y018738D02*
X002675Y018738D01*
X002329Y017869D02*
X002029Y017569D01*
X002029Y007517D01*
X002602Y006944D01*
X002990Y007277D02*
X010399Y007277D01*
X010399Y007355D02*
X009703Y007355D01*
X009827Y007434D02*
X010399Y007434D01*
X010399Y007512D02*
X009879Y007512D01*
X009902Y007591D02*
X010399Y007591D01*
X010399Y007669D02*
X009902Y007669D01*
X009875Y007748D02*
X010399Y007748D01*
X010399Y007826D02*
X009817Y007826D01*
X009679Y007905D02*
X010399Y007905D01*
X010399Y007983D02*
X009533Y007983D01*
X009454Y008062D02*
X010399Y008062D01*
X010399Y008140D02*
X003173Y008140D01*
X003140Y008219D02*
X010399Y008219D01*
X010399Y008297D02*
X003070Y008297D01*
X002991Y008376D02*
X010399Y008376D01*
X010399Y008454D02*
X002754Y008454D01*
X002913Y008533D02*
X010399Y008533D01*
X010399Y008611D02*
X002991Y008611D01*
X003049Y008690D02*
X010399Y008690D01*
X010399Y008768D02*
X009066Y008768D01*
X009144Y008847D02*
X010399Y008847D01*
X010399Y008925D02*
X009223Y008925D01*
X009301Y009004D02*
X010399Y009004D01*
X010399Y009082D02*
X009380Y009082D01*
X009458Y009161D02*
X010399Y009161D01*
X010399Y009239D02*
X009537Y009239D01*
X009737Y009318D02*
X010399Y009318D01*
X010385Y009396D02*
X009821Y009396D01*
X009856Y009475D02*
X010306Y009475D01*
X010228Y009553D02*
X009868Y009553D01*
X009861Y009632D02*
X010149Y009632D01*
X010071Y009710D02*
X009829Y009710D01*
X009755Y009789D02*
X009992Y009789D01*
X009914Y009867D02*
X003212Y009867D01*
X003212Y009946D02*
X009835Y009946D01*
X009757Y010024D02*
X003264Y010024D01*
X003342Y010103D02*
X009678Y010103D01*
X009600Y010181D02*
X003421Y010181D01*
X003499Y010260D02*
X009521Y010260D01*
X009443Y010338D02*
X003578Y010338D01*
X003656Y010417D02*
X009364Y010417D01*
X009286Y010495D02*
X003724Y010495D01*
X003757Y010574D02*
X009207Y010574D01*
X009129Y010652D02*
X003769Y010652D01*
X003769Y010731D02*
X006512Y010731D01*
X006433Y010809D02*
X003769Y010809D01*
X003769Y010888D02*
X006355Y010888D01*
X006197Y010966D02*
X003769Y010966D01*
X003769Y011045D02*
X006139Y011045D01*
X006139Y011123D02*
X003769Y011123D01*
X003769Y011202D02*
X005041Y011202D01*
X004921Y011280D02*
X003769Y011280D01*
X003769Y011359D02*
X004871Y011359D01*
X004849Y011437D02*
X003769Y011437D01*
X003769Y011516D02*
X004849Y011516D01*
X004878Y011594D02*
X003769Y011594D01*
X003769Y011673D02*
X004937Y011673D01*
X005321Y011673D02*
X006139Y011673D01*
X006139Y011751D02*
X003769Y011751D01*
X003769Y011830D02*
X006139Y011830D01*
X006139Y011908D02*
X003769Y011908D01*
X003769Y011987D02*
X006180Y011987D01*
X006101Y012065D02*
X003769Y012065D01*
X003769Y012144D02*
X006023Y012144D01*
X005944Y012222D02*
X003769Y012222D01*
X003769Y012301D02*
X005866Y012301D01*
X005818Y012379D02*
X003769Y012379D01*
X003769Y012458D02*
X005789Y012458D01*
X005789Y012536D02*
X003769Y012536D01*
X003769Y012615D02*
X005789Y012615D01*
X005789Y012693D02*
X003769Y012693D01*
X003769Y012772D02*
X005789Y012772D01*
X005789Y012850D02*
X003769Y012850D01*
X003769Y012929D02*
X005121Y012929D01*
X005737Y012929D02*
X005787Y012979D01*
X005789Y012979D01*
X006549Y013899D02*
X006490Y013958D01*
X006490Y014003D01*
X005952Y014541D01*
X004823Y014541D01*
X004823Y014460D01*
X004524Y014161D01*
X004102Y014161D01*
X004009Y014255D01*
X004009Y014193D01*
X004303Y013899D01*
X006549Y013899D01*
X006499Y013949D02*
X004253Y013949D01*
X004174Y014028D02*
X006465Y014028D01*
X006386Y014106D02*
X004096Y014106D01*
X004078Y014185D02*
X004017Y014185D01*
X003829Y014119D02*
X004229Y013719D01*
X007368Y013719D01*
X007468Y013619D01*
X007468Y013680D01*
X007468Y013619D02*
X007468Y013539D01*
X006880Y014126D02*
X006621Y014126D01*
X006026Y014721D01*
X004363Y014721D01*
X004313Y014671D01*
X004705Y014342D02*
X006151Y014342D01*
X006072Y014420D02*
X004784Y014420D01*
X004823Y014499D02*
X005994Y014499D01*
X006229Y014263D02*
X004627Y014263D01*
X004548Y014185D02*
X006308Y014185D01*
X006556Y014441D02*
X004829Y016169D01*
X003911Y016169D01*
X003413Y015671D01*
X003079Y015284D02*
X002209Y015284D01*
X002209Y015362D02*
X003001Y015362D01*
X002922Y015441D02*
X002209Y015441D01*
X002209Y015519D02*
X002903Y015519D01*
X002903Y015460D02*
X003182Y015181D01*
X003102Y015181D01*
X002803Y014883D01*
X002803Y014460D01*
X003089Y014175D01*
X003089Y010811D01*
X002731Y010454D01*
X002601Y010454D01*
X002413Y010376D01*
X002270Y010233D01*
X002209Y010085D01*
X002209Y017494D01*
X002268Y017554D01*
X002536Y017554D01*
X002629Y017647D01*
X002721Y017554D01*
X003136Y017554D01*
X003244Y017662D01*
X003244Y017679D01*
X003259Y017679D01*
X003259Y017654D01*
X003367Y017546D01*
X003384Y017546D01*
X003384Y017332D01*
X003818Y016898D01*
X003803Y016883D01*
X003803Y016460D01*
X003914Y016349D01*
X003836Y016349D01*
X003647Y016159D01*
X003624Y016181D01*
X003202Y016181D01*
X002903Y015883D01*
X002903Y015460D01*
X002903Y015598D02*
X002209Y015598D01*
X002209Y015676D02*
X002903Y015676D01*
X002903Y015755D02*
X002209Y015755D01*
X002209Y015833D02*
X002903Y015833D01*
X002933Y015912D02*
X002209Y015912D01*
X002209Y015990D02*
X003011Y015990D01*
X003090Y016069D02*
X002209Y016069D01*
X002209Y016147D02*
X003168Y016147D01*
X003713Y016226D02*
X002209Y016226D01*
X002209Y016304D02*
X003792Y016304D01*
X003880Y016383D02*
X002209Y016383D01*
X002209Y016461D02*
X003803Y016461D01*
X003803Y016540D02*
X002209Y016540D01*
X002209Y016618D02*
X003803Y016618D01*
X003803Y016697D02*
X002209Y016697D01*
X002209Y016775D02*
X003803Y016775D01*
X003803Y016854D02*
X002209Y016854D01*
X002209Y016932D02*
X003783Y016932D01*
X003705Y017011D02*
X002209Y017011D01*
X002209Y017089D02*
X003626Y017089D01*
X003548Y017168D02*
X002209Y017168D01*
X002209Y017246D02*
X003469Y017246D01*
X003391Y017325D02*
X002209Y017325D01*
X002209Y017403D02*
X003384Y017403D01*
X003384Y017482D02*
X002209Y017482D01*
X002543Y017560D02*
X002715Y017560D01*
X002636Y017639D02*
X002621Y017639D01*
X003143Y017560D02*
X003352Y017560D01*
X003274Y017639D02*
X003221Y017639D01*
X003891Y019130D02*
X010089Y019130D01*
X010089Y019052D02*
X007544Y019052D01*
X007619Y018973D02*
X010089Y018973D01*
X010089Y018895D02*
X007619Y018895D01*
X007619Y018816D02*
X010089Y018816D01*
X010089Y018738D02*
X007619Y018738D01*
X007619Y018659D02*
X010089Y018659D01*
X010144Y018581D02*
X007619Y018581D01*
X007129Y018519D02*
X006579Y017969D01*
X006579Y017519D01*
X007179Y016919D01*
X007468Y016919D01*
X007218Y017168D02*
X007184Y017168D01*
X007237Y017246D02*
X007106Y017246D01*
X006817Y017953D02*
X009122Y017953D01*
X009201Y017874D02*
X008995Y017874D01*
X009074Y017796D02*
X009133Y017796D01*
X009114Y017717D02*
X009094Y017717D01*
X009094Y017639D02*
X009114Y017639D01*
X009114Y017560D02*
X009094Y017560D01*
X009094Y017482D02*
X009114Y017482D01*
X009114Y017403D02*
X009094Y017403D01*
X009057Y017325D02*
X009150Y017325D01*
X009357Y017498D02*
X009357Y016919D01*
X009707Y017325D02*
X009829Y017325D01*
X009812Y017403D02*
X009744Y017403D01*
X009744Y017482D02*
X009812Y017482D01*
X009812Y017560D02*
X009744Y017560D01*
X009744Y017639D02*
X009812Y017639D01*
X009812Y017717D02*
X009744Y017717D01*
X009724Y017796D02*
X009779Y017796D01*
X009739Y017874D02*
X009657Y017874D01*
X009735Y017953D02*
X009739Y017953D01*
X010029Y018169D02*
X009429Y018169D01*
X009696Y018424D02*
X009761Y018424D01*
X010029Y018169D02*
X010079Y018119D01*
X010079Y017598D01*
X010127Y017549D01*
X010442Y017560D02*
X013629Y017560D01*
X013629Y017482D02*
X010442Y017482D01*
X010442Y017403D02*
X013629Y017403D01*
X013629Y017325D02*
X010425Y017325D01*
X010347Y017246D02*
X013629Y017246D01*
X013629Y017168D02*
X011299Y017168D01*
X011339Y017089D02*
X013629Y017089D01*
X013629Y017011D02*
X011339Y017011D01*
X011339Y016932D02*
X013629Y016932D01*
X013629Y016854D02*
X011339Y016854D01*
X011339Y016775D02*
X013629Y016775D01*
X013629Y016697D02*
X011324Y016697D01*
X011251Y016618D02*
X013629Y016618D01*
X014229Y015658D02*
X014231Y015654D01*
X014236Y015637D01*
X014234Y015623D01*
X014243Y015613D01*
X014247Y015600D01*
X014259Y015593D01*
X014270Y015580D01*
X014279Y015564D01*
X014280Y015550D01*
X014291Y015542D01*
X014297Y015529D01*
X014310Y015525D01*
X014324Y015514D01*
X014335Y015501D01*
X014339Y015487D01*
X014351Y015481D01*
X014360Y015470D01*
X014374Y015469D01*
X014389Y015461D01*
X014403Y015449D01*
X014409Y015437D01*
X014422Y015433D01*
X014433Y015425D01*
X014447Y015426D01*
X014464Y015421D01*
X014479Y015413D01*
X014488Y015402D01*
X014502Y015401D01*
X014514Y015394D01*
X014527Y015398D01*
X014545Y015396D01*
X014548Y015395D01*
X014554Y015389D01*
X014569Y015389D01*
X014599Y015380D01*
X014616Y015389D01*
X014620Y015389D01*
X014685Y015382D01*
X014693Y015389D01*
X017259Y015389D01*
X017259Y014778D01*
X017352Y014684D01*
X017321Y014684D01*
X017290Y014654D01*
X017213Y014731D01*
X016798Y014731D01*
X016691Y014623D01*
X016691Y014599D01*
X016644Y014599D01*
X016644Y014626D01*
X016551Y014719D01*
X016644Y014812D01*
X016644Y015226D01*
X016536Y015334D01*
X016121Y015334D01*
X016086Y015298D01*
X016084Y015299D01*
X015973Y015299D01*
X015870Y015256D01*
X015791Y015178D01*
X015749Y015075D01*
X015749Y014963D01*
X015791Y014860D01*
X015870Y014782D01*
X015973Y014739D01*
X016084Y014739D01*
X016086Y014739D01*
X016106Y014719D01*
X016014Y014626D01*
X016014Y014212D01*
X016121Y014104D01*
X016536Y014104D01*
X016644Y014212D01*
X016644Y014239D01*
X016691Y014239D01*
X016691Y014209D01*
X016798Y014101D01*
X017213Y014101D01*
X017239Y014126D01*
X017239Y014036D01*
X017321Y013954D01*
X017709Y013954D01*
X017709Y013578D01*
X017770Y013516D01*
X017770Y012979D01*
X017550Y012759D01*
X016478Y012759D01*
X016567Y012848D01*
X016567Y013642D01*
X016561Y013648D01*
X016433Y013777D01*
X014568Y013777D01*
X014229Y014116D01*
X014229Y015658D01*
X014229Y015598D02*
X014250Y015598D01*
X014229Y015519D02*
X014318Y015519D01*
X014229Y015441D02*
X014407Y015441D01*
X014229Y015362D02*
X017259Y015362D01*
X017259Y015284D02*
X016586Y015284D01*
X016644Y015205D02*
X017259Y015205D01*
X017259Y015127D02*
X016644Y015127D01*
X016644Y015048D02*
X017259Y015048D01*
X017259Y014970D02*
X016644Y014970D01*
X016644Y014891D02*
X017259Y014891D01*
X017259Y014813D02*
X016644Y014813D01*
X016566Y014734D02*
X017302Y014734D01*
X017293Y014656D02*
X017288Y014656D01*
X017482Y014416D02*
X017006Y014416D01*
X017003Y014419D01*
X016329Y014419D01*
X016614Y014656D02*
X016723Y014656D01*
X016714Y014185D02*
X016617Y014185D01*
X016538Y014106D02*
X016793Y014106D01*
X017219Y014106D02*
X017239Y014106D01*
X017247Y014028D02*
X014317Y014028D01*
X014239Y014106D02*
X016119Y014106D01*
X016040Y014185D02*
X014229Y014185D01*
X014229Y014263D02*
X016014Y014263D01*
X016014Y014342D02*
X014229Y014342D01*
X014229Y014420D02*
X016014Y014420D01*
X016014Y014499D02*
X014229Y014499D01*
X014229Y014577D02*
X016014Y014577D01*
X016043Y014656D02*
X014229Y014656D01*
X014229Y014734D02*
X016091Y014734D01*
X015839Y014813D02*
X014229Y014813D01*
X014229Y014891D02*
X015778Y014891D01*
X015749Y014970D02*
X014229Y014970D01*
X014229Y015048D02*
X015749Y015048D01*
X015770Y015127D02*
X014229Y015127D01*
X014229Y015205D02*
X015819Y015205D01*
X015937Y015284D02*
X014229Y015284D01*
X014396Y013949D02*
X017709Y013949D01*
X017709Y013871D02*
X014474Y013871D01*
X014553Y013792D02*
X017709Y013792D01*
X017709Y013714D02*
X016496Y013714D01*
X016567Y013635D02*
X017709Y013635D01*
X017729Y013557D02*
X016567Y013557D01*
X016567Y013478D02*
X017770Y013478D01*
X017770Y013400D02*
X016567Y013400D01*
X016567Y013321D02*
X017770Y013321D01*
X017770Y013243D02*
X016567Y013243D01*
X016567Y013164D02*
X017770Y013164D01*
X017770Y013086D02*
X016567Y013086D01*
X016567Y013007D02*
X017770Y013007D01*
X017720Y012929D02*
X016567Y012929D01*
X016567Y012850D02*
X017641Y012850D01*
X017563Y012772D02*
X016491Y012772D01*
X016130Y013007D02*
X012219Y013007D01*
X012529Y013086D02*
X016130Y013086D01*
X016130Y013164D02*
X012540Y013164D01*
X012540Y013243D02*
X014317Y013243D01*
X014440Y013243D02*
X016130Y013243D01*
X016130Y013321D02*
X014582Y013321D01*
X014175Y013321D02*
X013013Y013321D01*
X013106Y013400D02*
X014097Y013400D01*
X014018Y013478D02*
X013144Y013478D01*
X013159Y013557D02*
X013940Y013557D01*
X013861Y013635D02*
X013154Y013635D01*
X013122Y013714D02*
X013783Y013714D01*
X013704Y013792D02*
X013051Y013792D01*
X012744Y013321D02*
X012540Y013321D01*
X012871Y012301D02*
X016549Y012301D01*
X016549Y012222D02*
X012904Y012222D01*
X012919Y012144D02*
X014236Y012144D01*
X014214Y012065D02*
X012919Y012065D01*
X012919Y011987D02*
X014214Y011987D01*
X014214Y011908D02*
X012919Y011908D01*
X012919Y011830D02*
X014214Y011830D01*
X014214Y011751D02*
X012919Y011751D01*
X012886Y011673D02*
X014214Y011673D01*
X014214Y011594D02*
X012835Y011594D01*
X012756Y011516D02*
X014214Y011516D01*
X014214Y011437D02*
X012678Y011437D01*
X012599Y011359D02*
X014214Y011359D01*
X014214Y011280D02*
X012521Y011280D01*
X012442Y011202D02*
X014258Y011202D01*
X013316Y011123D02*
X012364Y011123D01*
X012285Y011045D02*
X013250Y011045D01*
X013250Y010966D02*
X011965Y010966D01*
X011968Y010888D02*
X013250Y010888D01*
X013250Y010809D02*
X011979Y010809D01*
X012058Y010731D02*
X013250Y010731D01*
X013250Y010652D02*
X012075Y010652D01*
X012075Y010574D02*
X013250Y010574D01*
X013250Y010495D02*
X012075Y010495D01*
X012075Y010417D02*
X013250Y010417D01*
X013250Y010338D02*
X012075Y010338D01*
X012035Y010260D02*
X013250Y010260D01*
X013250Y010181D02*
X011338Y010181D01*
X011416Y010103D02*
X013250Y010103D01*
X013250Y010024D02*
X011422Y010024D01*
X011422Y009946D02*
X012038Y009946D01*
X012078Y009985D02*
X011996Y009903D01*
X011996Y009527D01*
X012004Y009519D01*
X011996Y009510D01*
X011996Y009134D01*
X012004Y009125D01*
X011996Y009116D01*
X011996Y008740D01*
X012004Y008731D01*
X011996Y008722D01*
X011996Y008346D01*
X012004Y008337D01*
X011996Y008329D01*
X011996Y007953D01*
X012004Y007944D01*
X011996Y007935D01*
X011996Y007559D01*
X012004Y007550D01*
X011996Y007541D01*
X011996Y007199D01*
X011619Y007199D01*
X011619Y007277D01*
X011537Y007359D01*
X010921Y007359D01*
X010839Y007277D01*
X010759Y007277D01*
X010759Y007355D02*
X010917Y007355D01*
X010839Y007277D02*
X010839Y006661D01*
X010921Y006579D01*
X011537Y006579D01*
X011619Y006661D01*
X011619Y006719D01*
X011996Y006719D01*
X011996Y006378D01*
X012004Y006369D01*
X011996Y006360D01*
X011996Y005984D01*
X012078Y005902D01*
X012954Y005902D01*
X013036Y005984D01*
X013036Y006360D01*
X013027Y006369D01*
X013036Y006378D01*
X013036Y006754D01*
X013027Y006763D01*
X013036Y006771D01*
X013036Y007147D01*
X013027Y007156D01*
X013036Y007165D01*
X013036Y007541D01*
X013027Y007550D01*
X013036Y007559D01*
X013036Y007935D01*
X013027Y007944D01*
X013036Y007953D01*
X013036Y008329D01*
X013027Y008337D01*
X013036Y008346D01*
X013036Y008722D01*
X013027Y008731D01*
X013036Y008740D01*
X013036Y009116D01*
X013027Y009125D01*
X013036Y009134D01*
X013036Y009510D01*
X013027Y009519D01*
X013036Y009527D01*
X013036Y009903D01*
X012954Y009985D01*
X012078Y009985D01*
X011996Y009867D02*
X011422Y009867D01*
X011422Y009789D02*
X011996Y009789D01*
X011996Y009710D02*
X011422Y009710D01*
X011422Y009632D02*
X011996Y009632D01*
X011996Y009553D02*
X011422Y009553D01*
X011407Y009475D02*
X011996Y009475D01*
X011996Y009396D02*
X011329Y009396D01*
X010835Y009396D02*
X010759Y009396D01*
X010759Y009318D02*
X011996Y009318D01*
X011996Y009239D02*
X010759Y009239D01*
X010759Y009161D02*
X011996Y009161D01*
X011996Y009082D02*
X010759Y009082D01*
X010759Y009004D02*
X011996Y009004D01*
X011996Y008925D02*
X010759Y008925D01*
X010759Y008847D02*
X011996Y008847D01*
X011996Y008768D02*
X010759Y008768D01*
X010759Y008690D02*
X011996Y008690D01*
X011996Y008611D02*
X010759Y008611D01*
X010759Y008533D02*
X011996Y008533D01*
X011996Y008454D02*
X010759Y008454D01*
X010759Y008376D02*
X011996Y008376D01*
X011996Y008297D02*
X010759Y008297D01*
X010759Y008219D02*
X011996Y008219D01*
X011996Y008140D02*
X010759Y008140D01*
X010759Y008062D02*
X011996Y008062D01*
X011996Y007983D02*
X010759Y007983D01*
X010759Y007905D02*
X011996Y007905D01*
X011996Y007826D02*
X010759Y007826D01*
X010759Y007748D02*
X011996Y007748D01*
X011996Y007669D02*
X010759Y007669D01*
X010759Y007591D02*
X011996Y007591D01*
X011996Y007512D02*
X010759Y007512D01*
X010759Y007434D02*
X011996Y007434D01*
X011996Y007355D02*
X011540Y007355D01*
X011619Y007277D02*
X011996Y007277D01*
X011996Y006649D02*
X011607Y006649D01*
X011996Y006570D02*
X010759Y006570D01*
X010759Y006492D02*
X011996Y006492D01*
X011996Y006413D02*
X010759Y006413D01*
X010759Y006335D02*
X011996Y006335D01*
X011996Y006256D02*
X010759Y006256D01*
X010759Y006178D02*
X011996Y006178D01*
X011996Y006099D02*
X010759Y006099D01*
X010759Y006021D02*
X011996Y006021D01*
X012037Y005942D02*
X010759Y005942D01*
X010759Y005864D02*
X013250Y005864D01*
X013250Y005942D02*
X012994Y005942D01*
X013036Y006021D02*
X013250Y006021D01*
X013250Y006099D02*
X013036Y006099D01*
X013036Y006178D02*
X013250Y006178D01*
X013250Y006256D02*
X013036Y006256D01*
X013036Y006335D02*
X013250Y006335D01*
X013250Y006413D02*
X013036Y006413D01*
X013036Y006492D02*
X013250Y006492D01*
X013250Y006570D02*
X013036Y006570D01*
X013036Y006649D02*
X013250Y006649D01*
X013250Y006727D02*
X013036Y006727D01*
X013036Y006806D02*
X013250Y006806D01*
X013250Y006884D02*
X013036Y006884D01*
X013036Y006963D02*
X013250Y006963D01*
X013250Y007041D02*
X013036Y007041D01*
X013036Y007120D02*
X013250Y007120D01*
X013250Y007198D02*
X013036Y007198D01*
X013036Y007277D02*
X013250Y007277D01*
X013250Y007355D02*
X013036Y007355D01*
X013036Y007434D02*
X013250Y007434D01*
X013250Y007512D02*
X013036Y007512D01*
X013036Y007591D02*
X013250Y007591D01*
X013250Y007669D02*
X013036Y007669D01*
X013036Y007748D02*
X013250Y007748D01*
X013250Y007826D02*
X013036Y007826D01*
X013036Y007905D02*
X013250Y007905D01*
X013250Y007983D02*
X013036Y007983D01*
X013036Y008062D02*
X013250Y008062D01*
X013250Y008140D02*
X013036Y008140D01*
X013036Y008219D02*
X013250Y008219D01*
X013250Y008297D02*
X013036Y008297D01*
X013036Y008376D02*
X013250Y008376D01*
X013250Y008454D02*
X013036Y008454D01*
X013036Y008533D02*
X013250Y008533D01*
X013250Y008611D02*
X013036Y008611D01*
X013036Y008690D02*
X013250Y008690D01*
X013250Y008768D02*
X013036Y008768D01*
X013036Y008847D02*
X013250Y008847D01*
X013250Y008925D02*
X013036Y008925D01*
X013036Y009004D02*
X013250Y009004D01*
X013250Y009082D02*
X013036Y009082D01*
X013036Y009161D02*
X013250Y009161D01*
X013250Y009239D02*
X013036Y009239D01*
X013036Y009318D02*
X013250Y009318D01*
X013250Y009396D02*
X013036Y009396D01*
X013036Y009475D02*
X013250Y009475D01*
X013250Y009553D02*
X013036Y009553D01*
X013036Y009632D02*
X013250Y009632D01*
X013250Y009710D02*
X013036Y009710D01*
X013036Y009789D02*
X013250Y009789D01*
X013250Y009867D02*
X013036Y009867D01*
X012993Y009946D02*
X013250Y009946D01*
X011484Y010260D02*
X011435Y010260D01*
X010579Y009457D02*
X009167Y010869D01*
X006629Y010869D01*
X006529Y010969D01*
X006529Y011463D01*
X006516Y011476D01*
X006139Y011202D02*
X005216Y011202D01*
X003089Y011202D02*
X002209Y011202D01*
X002209Y011280D02*
X003089Y011280D01*
X003089Y011359D02*
X002209Y011359D01*
X002209Y011437D02*
X003089Y011437D01*
X003089Y011516D02*
X002209Y011516D01*
X002209Y011594D02*
X003089Y011594D01*
X003089Y011673D02*
X002209Y011673D01*
X002209Y011751D02*
X003089Y011751D01*
X003089Y011830D02*
X002209Y011830D01*
X002209Y011908D02*
X003089Y011908D01*
X003089Y011987D02*
X002209Y011987D01*
X002209Y012065D02*
X003089Y012065D01*
X003089Y012144D02*
X002209Y012144D01*
X002209Y012222D02*
X003089Y012222D01*
X003089Y012301D02*
X002209Y012301D01*
X002209Y012379D02*
X003089Y012379D01*
X003089Y012458D02*
X002209Y012458D01*
X002209Y012536D02*
X003089Y012536D01*
X003089Y012615D02*
X002209Y012615D01*
X002209Y012693D02*
X003089Y012693D01*
X003089Y012772D02*
X002209Y012772D01*
X002209Y012850D02*
X003089Y012850D01*
X003089Y012929D02*
X002209Y012929D01*
X002209Y013007D02*
X003089Y013007D01*
X003089Y013086D02*
X002209Y013086D01*
X002209Y013164D02*
X003089Y013164D01*
X003089Y013243D02*
X002209Y013243D01*
X002209Y013321D02*
X003089Y013321D01*
X003089Y013400D02*
X002209Y013400D01*
X002209Y013478D02*
X003089Y013478D01*
X003089Y013557D02*
X002209Y013557D01*
X002209Y013635D02*
X003089Y013635D01*
X003089Y013714D02*
X002209Y013714D01*
X002209Y013792D02*
X003089Y013792D01*
X003089Y013871D02*
X002209Y013871D01*
X002209Y013949D02*
X003089Y013949D01*
X003089Y014028D02*
X002209Y014028D01*
X002209Y014106D02*
X003089Y014106D01*
X003078Y014185D02*
X002209Y014185D01*
X002209Y014263D02*
X003000Y014263D01*
X002921Y014342D02*
X002209Y014342D01*
X002209Y014420D02*
X002843Y014420D01*
X002803Y014499D02*
X002209Y014499D01*
X002209Y014577D02*
X002803Y014577D01*
X002803Y014656D02*
X002209Y014656D01*
X002209Y014734D02*
X002803Y014734D01*
X002803Y014813D02*
X002209Y014813D01*
X002209Y014891D02*
X002812Y014891D01*
X002891Y014970D02*
X002209Y014970D01*
X002209Y015048D02*
X002969Y015048D01*
X003048Y015127D02*
X002209Y015127D01*
X002209Y015205D02*
X003158Y015205D01*
X003829Y015087D02*
X004413Y015671D01*
X003829Y015087D02*
X003829Y014119D01*
X006229Y015419D02*
X006261Y015386D01*
X006880Y015386D01*
X007270Y015362D02*
X008080Y015362D01*
X008002Y015441D02*
X007270Y015441D01*
X007270Y015519D02*
X007923Y015519D01*
X008159Y015284D02*
X007270Y015284D01*
X006880Y014756D02*
X007691Y014756D01*
X008079Y014369D01*
X007379Y014369D02*
X007329Y014419D01*
X006902Y014419D01*
X006880Y014441D02*
X006556Y014441D01*
X007852Y011879D02*
X008764Y011879D01*
X008764Y011251D01*
X008815Y011126D01*
X008893Y011049D01*
X007852Y011049D01*
X007852Y011879D01*
X007852Y011830D02*
X008764Y011830D01*
X008764Y011751D02*
X007852Y011751D01*
X007852Y011673D02*
X008764Y011673D01*
X008764Y011594D02*
X007852Y011594D01*
X007852Y011516D02*
X008764Y011516D01*
X008764Y011437D02*
X007852Y011437D01*
X007852Y011359D02*
X008764Y011359D01*
X008764Y011280D02*
X007852Y011280D01*
X007852Y011202D02*
X008784Y011202D01*
X008818Y011123D02*
X007852Y011123D01*
X009348Y009710D02*
X003158Y009710D01*
X003190Y009789D02*
X009422Y009789D01*
X009315Y009632D02*
X003112Y009632D01*
X003033Y009553D02*
X009308Y009553D01*
X009235Y009475D02*
X002903Y009475D01*
X002842Y009396D02*
X009156Y009396D01*
X009078Y009318D02*
X002949Y009318D01*
X003028Y009239D02*
X008999Y009239D01*
X008921Y009161D02*
X003064Y009161D01*
X002216Y010103D02*
X002209Y010103D01*
X002209Y010181D02*
X002249Y010181D01*
X002209Y010260D02*
X002297Y010260D01*
X002376Y010338D02*
X002209Y010338D01*
X002209Y010417D02*
X002512Y010417D01*
X002773Y010495D02*
X002209Y010495D01*
X002209Y010574D02*
X002852Y010574D01*
X002930Y010652D02*
X002209Y010652D01*
X002209Y010731D02*
X003009Y010731D01*
X003087Y010809D02*
X002209Y010809D01*
X002209Y010888D02*
X003089Y010888D01*
X003089Y010966D02*
X002209Y010966D01*
X002209Y011045D02*
X003089Y011045D01*
X003089Y011123D02*
X002209Y011123D01*
X003176Y007754D02*
X009225Y007754D01*
X009342Y007636D01*
X009342Y007570D01*
X009385Y007467D01*
X009366Y007512D02*
X002992Y007512D01*
X002991Y007511D02*
X003135Y007655D01*
X003176Y007754D01*
X003173Y007748D02*
X009231Y007748D01*
X009309Y007669D02*
X003141Y007669D01*
X003071Y007591D02*
X009342Y007591D01*
X009542Y007355D02*
X002912Y007355D01*
X002804Y007434D02*
X002991Y007511D01*
X003049Y007198D02*
X010399Y007198D01*
X010399Y007120D02*
X003081Y007120D01*
X003112Y007041D02*
X010399Y007041D01*
X010399Y006963D02*
X003112Y006963D01*
X003112Y006884D02*
X010399Y006884D01*
X010399Y006806D02*
X003097Y006806D01*
X003065Y006727D02*
X010399Y006727D01*
X010399Y006649D02*
X003029Y006649D01*
X002950Y006570D02*
X010399Y006570D01*
X010399Y006492D02*
X002844Y006492D01*
X004377Y000918D02*
X022009Y000918D01*
X021930Y000840D02*
X004455Y000840D01*
X004534Y000761D02*
X021852Y000761D01*
X021773Y000683D02*
X004612Y000683D01*
X004691Y000604D02*
X021695Y000604D01*
X021616Y000526D02*
X004769Y000526D01*
X010579Y004869D02*
X010579Y009457D01*
X010759Y007198D02*
X010839Y007198D01*
X010839Y007120D02*
X010759Y007120D01*
X010759Y007041D02*
X010839Y007041D01*
X010839Y006963D02*
X010759Y006963D01*
X010759Y006884D02*
X010839Y006884D01*
X010839Y006806D02*
X010759Y006806D01*
X010759Y006727D02*
X010839Y006727D01*
X010851Y006649D02*
X010759Y006649D01*
X010759Y005785D02*
X013250Y005785D01*
X013250Y005707D02*
X010759Y005707D01*
X010759Y005628D02*
X010942Y005628D01*
X010880Y005550D02*
X010759Y005550D01*
X010759Y005471D02*
X010849Y005471D01*
X010849Y005393D02*
X010759Y005393D01*
X010759Y005314D02*
X010869Y005314D01*
X010916Y005236D02*
X010759Y005236D01*
X010759Y005157D02*
X011028Y005157D01*
X011212Y005079D02*
X011393Y005079D01*
X011315Y005000D02*
X011290Y005000D01*
X011229Y005157D02*
X011740Y005157D01*
X011828Y004991D02*
X011603Y004766D01*
X011828Y004991D02*
X012516Y004991D01*
X012516Y004597D02*
X012009Y004597D01*
X011596Y004185D01*
X011596Y003597D02*
X012203Y004204D01*
X012516Y004204D01*
X011996Y003666D02*
X011920Y003666D01*
X011911Y003587D02*
X012030Y003587D01*
X011911Y003509D02*
X013250Y003509D01*
X013250Y003587D02*
X013001Y003587D01*
X013036Y003666D02*
X013250Y003666D01*
X013250Y003744D02*
X013036Y003744D01*
X013036Y003823D02*
X013250Y003823D01*
X013250Y003901D02*
X013036Y003901D01*
X013036Y003980D02*
X013250Y003980D01*
X013250Y004058D02*
X013036Y004058D01*
X013036Y004137D02*
X013250Y004137D01*
X013250Y004215D02*
X013036Y004215D01*
X013036Y004294D02*
X013250Y004294D01*
X013250Y004372D02*
X013036Y004372D01*
X013036Y004451D02*
X013250Y004451D01*
X013250Y004529D02*
X013036Y004529D01*
X013036Y004608D02*
X013250Y004608D01*
X013250Y004686D02*
X013036Y004686D01*
X013036Y004765D02*
X013250Y004765D01*
X013250Y004843D02*
X013036Y004843D01*
X013036Y004922D02*
X013250Y004922D01*
X013250Y005000D02*
X013036Y005000D01*
X013036Y005079D02*
X013250Y005079D01*
X013250Y005157D02*
X013036Y005157D01*
X013036Y005236D02*
X013250Y005236D01*
X013250Y005314D02*
X013036Y005314D01*
X013036Y005393D02*
X013250Y005393D01*
X013250Y005471D02*
X013036Y005471D01*
X013036Y005550D02*
X013250Y005550D01*
X013250Y005628D02*
X012980Y005628D01*
X012051Y005628D02*
X011315Y005628D01*
X010793Y005079D02*
X010759Y005079D01*
X010579Y004869D02*
X010679Y004769D01*
X010999Y004769D01*
X011274Y003352D02*
X011319Y003352D01*
X011874Y003352D02*
X013250Y003352D01*
X013250Y003430D02*
X011911Y003430D01*
X015526Y001782D02*
X015804Y001782D01*
X015789Y001860D02*
X015542Y001860D01*
X015542Y001939D02*
X015789Y001939D01*
X015789Y002017D02*
X015542Y002017D01*
X015542Y002096D02*
X015789Y002096D01*
X015789Y002174D02*
X015542Y002174D01*
X015542Y002253D02*
X015789Y002253D01*
X015789Y002331D02*
X015542Y002331D01*
X015542Y002410D02*
X015789Y002410D01*
X015789Y002488D02*
X015542Y002488D01*
X015542Y002567D02*
X015789Y002567D01*
X017904Y002567D02*
X018545Y002567D01*
X018545Y002488D02*
X017904Y002488D01*
X017904Y002410D02*
X018545Y002410D01*
X018545Y002331D02*
X017904Y002331D01*
X017904Y002253D02*
X018545Y002253D01*
X018545Y002174D02*
X017904Y002174D01*
X017904Y002096D02*
X018545Y002096D01*
X018545Y002017D02*
X017904Y002017D01*
X017904Y001939D02*
X018545Y001939D01*
X018545Y001860D02*
X017904Y001860D01*
X017889Y001782D02*
X018560Y001782D01*
X020644Y001782D02*
X022872Y001782D01*
X022951Y001860D02*
X020660Y001860D01*
X020660Y001939D02*
X023029Y001939D01*
X023108Y002017D02*
X020660Y002017D01*
X020660Y002096D02*
X023186Y002096D01*
X023265Y002174D02*
X020660Y002174D01*
X020660Y002253D02*
X023343Y002253D01*
X023422Y002331D02*
X020660Y002331D01*
X020660Y002410D02*
X023500Y002410D01*
X023579Y002488D02*
X020660Y002488D01*
X020660Y002567D02*
X023657Y002567D01*
X023736Y002645D02*
X021376Y002645D01*
X021404Y002724D02*
X023814Y002724D01*
X023893Y002802D02*
X021404Y002802D01*
X021404Y002881D02*
X023971Y002881D01*
X024050Y002959D02*
X021404Y002959D01*
X021404Y003038D02*
X024128Y003038D01*
X024207Y003116D02*
X021404Y003116D01*
X021404Y003195D02*
X021957Y003195D01*
X021970Y003182D02*
X022073Y003139D01*
X022184Y003139D01*
X022287Y003182D01*
X022366Y003260D01*
X022409Y003363D01*
X022409Y003475D01*
X022382Y003540D01*
X022402Y003540D01*
X022484Y003622D01*
X022484Y003998D01*
X022402Y004080D01*
X021526Y004080D01*
X021444Y003998D01*
X021444Y003622D01*
X021526Y003540D01*
X021876Y003540D01*
X021849Y003475D01*
X021849Y003363D01*
X021891Y003260D01*
X021970Y003182D01*
X021886Y003273D02*
X021404Y003273D01*
X021404Y003352D02*
X021853Y003352D01*
X021849Y003430D02*
X021404Y003430D01*
X021404Y003509D02*
X021863Y003509D01*
X022129Y003419D02*
X022129Y003769D01*
X022079Y003819D01*
X021973Y003819D01*
X021964Y003810D01*
X021444Y003823D02*
X021404Y003823D01*
X021404Y003901D02*
X021444Y003901D01*
X021444Y003980D02*
X021404Y003980D01*
X021404Y004058D02*
X021505Y004058D01*
X021404Y004137D02*
X024667Y004137D01*
X024667Y004215D02*
X021404Y004215D01*
X021404Y004294D02*
X024667Y004294D01*
X024667Y004372D02*
X021404Y004372D01*
X021404Y004451D02*
X024667Y004451D01*
X024667Y004529D02*
X021404Y004529D01*
X021404Y004608D02*
X024667Y004608D01*
X024667Y004686D02*
X024200Y004686D01*
X024152Y004686D02*
X024151Y004686D01*
X024100Y004686D02*
X021707Y004686D01*
X021656Y004686D02*
X021655Y004686D01*
X021607Y004686D02*
X021404Y004686D01*
X021404Y004765D02*
X021454Y004765D01*
X021408Y004843D02*
X021404Y004843D01*
X021581Y004921D02*
X021579Y004940D01*
X021579Y005838D01*
X021580Y005852D01*
X021586Y005866D01*
X021595Y005878D01*
X021607Y005886D01*
X021620Y005892D01*
X021634Y005894D01*
X024154Y005894D01*
X024173Y005891D01*
X024191Y005884D01*
X024207Y005872D01*
X024219Y005856D01*
X024226Y005838D01*
X024229Y005819D01*
X024229Y004940D01*
X024226Y004921D01*
X024219Y004904D01*
X024208Y004890D01*
X024193Y004878D01*
X024176Y004871D01*
X024158Y004869D01*
X021649Y004869D01*
X021631Y004871D01*
X021614Y004878D01*
X021599Y004890D01*
X021588Y004904D01*
X021581Y004921D01*
X021581Y004922D02*
X024226Y004922D01*
X024229Y005000D02*
X021579Y005000D01*
X021579Y005079D02*
X024229Y005079D01*
X024229Y005157D02*
X021579Y005157D01*
X021579Y005236D02*
X024229Y005236D01*
X024229Y005314D02*
X021579Y005314D01*
X021579Y005393D02*
X024229Y005393D01*
X024229Y005471D02*
X021579Y005471D01*
X021579Y005550D02*
X024229Y005550D01*
X024229Y005628D02*
X021579Y005628D01*
X021579Y005707D02*
X024229Y005707D01*
X024229Y005785D02*
X021579Y005785D01*
X021585Y005864D02*
X024213Y005864D01*
X024386Y005942D02*
X024667Y005942D01*
X024667Y005864D02*
X024410Y005864D01*
X024415Y005785D02*
X024667Y005785D01*
X024667Y005707D02*
X024409Y005707D01*
X024409Y005628D02*
X024667Y005628D01*
X024667Y005550D02*
X024409Y005550D01*
X024409Y005471D02*
X024667Y005471D01*
X024667Y005393D02*
X024409Y005393D01*
X024409Y005314D02*
X024667Y005314D01*
X024667Y005236D02*
X024409Y005236D01*
X024409Y005157D02*
X024667Y005157D01*
X024667Y005079D02*
X024409Y005079D01*
X024409Y005000D02*
X024667Y005000D01*
X024667Y004922D02*
X024421Y004922D01*
X024399Y004843D02*
X024667Y004843D01*
X024667Y004765D02*
X024353Y004765D01*
X024667Y004058D02*
X022424Y004058D01*
X022484Y003980D02*
X024667Y003980D01*
X024667Y003901D02*
X022484Y003901D01*
X022484Y003823D02*
X024667Y003823D01*
X024667Y003744D02*
X022484Y003744D01*
X022484Y003666D02*
X024667Y003666D01*
X024667Y003587D02*
X022450Y003587D01*
X022394Y003509D02*
X024599Y003509D01*
X024521Y003430D02*
X022409Y003430D01*
X022404Y003352D02*
X024442Y003352D01*
X024364Y003273D02*
X022371Y003273D01*
X022301Y003195D02*
X024285Y003195D01*
X021479Y003587D02*
X021404Y003587D01*
X021404Y003666D02*
X021444Y003666D01*
X021444Y003744D02*
X021404Y003744D01*
X021404Y005924D02*
X021404Y006739D01*
X021504Y006639D01*
X022254Y006639D01*
X022329Y006564D01*
X022329Y006074D01*
X021696Y006074D01*
X021685Y006082D01*
X021644Y006077D01*
X021620Y006087D01*
X021589Y006074D01*
X021561Y006074D01*
X021556Y006075D01*
X021541Y006063D01*
X021523Y006061D01*
X021513Y006048D01*
X021498Y006046D01*
X021486Y006031D01*
X021469Y006024D01*
X021463Y006010D01*
X021448Y006004D01*
X021441Y005986D01*
X021426Y005975D01*
X021424Y005959D01*
X021412Y005950D01*
X021409Y005931D01*
X021404Y005924D01*
X021404Y005942D02*
X021411Y005942D01*
X021404Y006021D02*
X021467Y006021D01*
X021404Y006099D02*
X022329Y006099D01*
X022329Y006178D02*
X021404Y006178D01*
X021404Y006256D02*
X022329Y006256D01*
X022329Y006335D02*
X021404Y006335D01*
X021404Y006413D02*
X022329Y006413D01*
X022329Y006492D02*
X021404Y006492D01*
X021404Y006570D02*
X022323Y006570D01*
X022311Y007355D02*
X021404Y007355D01*
X021404Y007277D02*
X021482Y007277D01*
X021404Y007434D02*
X022329Y007434D01*
X022329Y007512D02*
X021404Y007512D01*
X021404Y007591D02*
X022329Y007591D01*
X022329Y007669D02*
X021404Y007669D01*
X021404Y007748D02*
X022329Y007748D01*
X022329Y007826D02*
X021404Y007826D01*
X021404Y007905D02*
X022329Y007905D01*
X022329Y007983D02*
X021404Y007983D01*
X021404Y008062D02*
X024667Y008062D01*
X024667Y008140D02*
X021404Y008140D01*
X021404Y008219D02*
X024667Y008219D01*
X024667Y008297D02*
X021404Y008297D01*
X021404Y008376D02*
X024667Y008376D01*
X024667Y008454D02*
X021404Y008454D01*
X021404Y008533D02*
X024667Y008533D01*
X024667Y008611D02*
X021404Y008611D01*
X021404Y008690D02*
X024667Y008690D01*
X024667Y008768D02*
X021404Y008768D01*
X021404Y008847D02*
X024667Y008847D01*
X024667Y008925D02*
X021404Y008925D01*
X021404Y009004D02*
X024667Y009004D01*
X024667Y009082D02*
X022433Y009082D01*
X022525Y009161D02*
X024667Y009161D01*
X024667Y009239D02*
X022604Y009239D01*
X022682Y009318D02*
X024667Y009318D01*
X024667Y009396D02*
X022709Y009396D01*
X022709Y009475D02*
X024667Y009475D01*
X024667Y009553D02*
X022709Y009553D01*
X022709Y009632D02*
X024667Y009632D01*
X024667Y009710D02*
X022709Y009710D01*
X022709Y009789D02*
X024667Y009789D01*
X024667Y009867D02*
X022709Y009867D01*
X022709Y009946D02*
X024667Y009946D01*
X024667Y010024D02*
X022709Y010024D01*
X022709Y010103D02*
X024667Y010103D01*
X024667Y010181D02*
X022709Y010181D01*
X022709Y010260D02*
X024667Y010260D01*
X024667Y010338D02*
X022709Y010338D01*
X022709Y010417D02*
X024667Y010417D01*
X024667Y010495D02*
X022709Y010495D01*
X022709Y010574D02*
X024667Y010574D01*
X024667Y010652D02*
X022709Y010652D01*
X022709Y010731D02*
X024667Y010731D01*
X024667Y010809D02*
X022709Y010809D01*
X022709Y010888D02*
X024667Y010888D01*
X024667Y010966D02*
X022641Y010966D01*
X022562Y011045D02*
X024667Y011045D01*
X024667Y011123D02*
X022484Y011123D01*
X022405Y011202D02*
X024667Y011202D01*
X024667Y011280D02*
X022327Y011280D01*
X022248Y011359D02*
X024667Y011359D01*
X024667Y011437D02*
X022170Y011437D01*
X022091Y011516D02*
X024667Y011516D01*
X024667Y011594D02*
X022013Y011594D01*
X021934Y011673D02*
X024667Y011673D01*
X024667Y011751D02*
X021856Y011751D01*
X021777Y011830D02*
X024667Y011830D01*
X024667Y011908D02*
X021699Y011908D01*
X021620Y011987D02*
X024667Y011987D01*
X024667Y012065D02*
X021542Y012065D01*
X021463Y012144D02*
X024667Y012144D01*
X024667Y012222D02*
X021385Y012222D01*
X021306Y012301D02*
X024667Y012301D01*
X024667Y012379D02*
X021228Y012379D01*
X021149Y012458D02*
X024667Y012458D01*
X024667Y012536D02*
X021071Y012536D01*
X020992Y012615D02*
X024667Y012615D01*
X024667Y012693D02*
X020914Y012693D01*
X020809Y012544D02*
X022529Y010824D01*
X022529Y009419D01*
X022431Y009322D01*
X021964Y009322D01*
X021444Y009318D02*
X021404Y009318D01*
X021404Y009396D02*
X021444Y009396D01*
X021444Y009475D02*
X021404Y009475D01*
X021404Y009553D02*
X021444Y009553D01*
X021444Y009632D02*
X021404Y009632D01*
X021404Y009710D02*
X021444Y009710D01*
X021444Y009789D02*
X021404Y009789D01*
X021404Y009867D02*
X021444Y009867D01*
X021444Y009946D02*
X021404Y009946D01*
X021404Y010024D02*
X021444Y010024D01*
X021444Y010103D02*
X021404Y010103D01*
X021404Y010181D02*
X021444Y010181D01*
X021444Y010260D02*
X021404Y010260D01*
X021404Y010338D02*
X021486Y010338D01*
X021404Y010417D02*
X022349Y010417D01*
X022349Y010495D02*
X021404Y010495D01*
X021404Y010574D02*
X022349Y010574D01*
X022349Y010652D02*
X021404Y010652D01*
X021404Y010731D02*
X022349Y010731D01*
X022289Y010809D02*
X021404Y010809D01*
X021404Y010888D02*
X022210Y010888D01*
X022132Y010966D02*
X021404Y010966D01*
X021404Y011045D02*
X022053Y011045D01*
X021975Y011123D02*
X021337Y011123D01*
X021739Y011359D02*
X020660Y011359D01*
X020660Y011437D02*
X021661Y011437D01*
X021582Y011516D02*
X020660Y011516D01*
X020660Y011594D02*
X021504Y011594D01*
X021425Y011673D02*
X020660Y011673D01*
X020660Y011751D02*
X021347Y011751D01*
X021268Y011830D02*
X020660Y011830D01*
X020660Y011908D02*
X021190Y011908D01*
X021111Y011987D02*
X020660Y011987D01*
X020660Y012065D02*
X021033Y012065D01*
X020954Y012144D02*
X020638Y012144D01*
X020580Y012222D02*
X020876Y012222D01*
X020797Y012301D02*
X020501Y012301D01*
X020404Y012144D02*
X020404Y011698D01*
X020390Y011684D01*
X020404Y012144D02*
X020254Y012294D01*
X019454Y012294D01*
X018129Y012544D02*
X020809Y012544D01*
X020660Y011280D02*
X021818Y011280D01*
X021896Y011202D02*
X020616Y011202D01*
X021404Y009239D02*
X021444Y009239D01*
X021444Y009161D02*
X021404Y009161D01*
X021404Y009082D02*
X021496Y009082D01*
X021404Y006727D02*
X021416Y006727D01*
X021404Y006649D02*
X021494Y006649D01*
X017240Y011684D02*
X017240Y012257D01*
X017229Y012269D01*
X016846Y012251D02*
X016829Y012269D01*
X016846Y012251D02*
X016846Y011684D01*
X018149Y013871D02*
X019189Y013871D01*
X019189Y013949D02*
X018149Y013949D01*
X018149Y014028D02*
X019189Y014028D01*
X019189Y014106D02*
X019155Y014106D01*
X018704Y014106D02*
X018149Y014106D01*
X018149Y014185D02*
X018626Y014185D01*
X018615Y014263D02*
X018149Y014263D01*
X018149Y014342D02*
X018615Y014342D01*
X018615Y014420D02*
X018149Y014420D01*
X018149Y014499D02*
X018587Y014499D01*
X018509Y014577D02*
X018149Y014577D01*
X018149Y014656D02*
X018430Y014656D01*
X018352Y014734D02*
X018124Y014734D01*
X018246Y014813D02*
X018273Y014813D01*
X017579Y014319D02*
X017482Y014416D01*
X016329Y015019D02*
X016029Y015019D01*
X017279Y017717D02*
X018758Y017717D01*
X015812Y018345D02*
X014079Y018345D01*
X014079Y018424D02*
X015829Y018424D01*
X015829Y018502D02*
X014079Y018502D01*
X014079Y018581D02*
X015829Y018581D01*
X015829Y018659D02*
X014079Y018659D01*
X014079Y018738D02*
X015829Y018738D01*
X015829Y018816D02*
X014079Y018816D01*
X013899Y018345D02*
X010419Y018345D01*
X010419Y018267D02*
X013852Y018267D01*
X013774Y018188D02*
X010419Y018188D01*
X010419Y018110D02*
X013695Y018110D01*
X013650Y018031D02*
X010419Y018031D01*
X010419Y017953D02*
X013629Y017953D01*
X013629Y017874D02*
X010419Y017874D01*
X010403Y017796D02*
X013629Y017796D01*
X013629Y017717D02*
X010442Y017717D01*
X010442Y017639D02*
X013629Y017639D01*
X013899Y019366D02*
X007425Y019366D01*
X007503Y019444D02*
X013899Y019444D01*
X013899Y019523D02*
X007512Y019523D01*
X007512Y019601D02*
X013899Y019601D01*
X013467Y020411D02*
X013424Y020388D01*
X013377Y020374D01*
X013329Y020369D01*
X011829Y020369D01*
X011780Y020374D01*
X011733Y020388D01*
X011690Y020411D01*
X011652Y020442D01*
X011621Y020480D01*
X011598Y020523D01*
X011583Y020570D01*
X011579Y020619D01*
X011579Y023119D01*
X011583Y023168D01*
X011598Y023215D01*
X011621Y023258D01*
X011652Y023296D01*
X011690Y023327D01*
X011733Y023350D01*
X011780Y023364D01*
X011829Y023369D01*
X014079Y023369D01*
X014127Y023364D01*
X014174Y023350D01*
X014217Y023327D01*
X014255Y023296D01*
X014286Y023258D01*
X014310Y023215D01*
X014324Y023168D01*
X014329Y023119D01*
X014329Y021869D01*
X014324Y021820D01*
X014310Y021773D01*
X014286Y021730D01*
X014255Y021692D01*
X014217Y021661D01*
X014174Y021638D01*
X014127Y021624D01*
X014079Y021619D01*
X013829Y021619D01*
X013780Y021614D01*
X013733Y021600D01*
X013690Y021577D01*
X013652Y021546D01*
X013621Y021508D01*
X013598Y021465D01*
X013583Y021418D01*
X013579Y021369D01*
X013579Y020619D01*
X013574Y020570D01*
X013560Y020523D01*
X013536Y020480D01*
X013505Y020442D01*
X013467Y020411D01*
X013419Y020386D02*
X011738Y020386D01*
X011633Y020465D02*
X013524Y020465D01*
X013566Y020543D02*
X011591Y020543D01*
X011579Y020622D02*
X013579Y020622D01*
X013579Y020700D02*
X011579Y020700D01*
X011579Y020779D02*
X013579Y020779D01*
X013579Y020857D02*
X011579Y020857D01*
X011579Y020936D02*
X013579Y020936D01*
X013579Y021014D02*
X011579Y021014D01*
X011579Y021093D02*
X013579Y021093D01*
X013579Y021171D02*
X011579Y021171D01*
X011579Y021250D02*
X013579Y021250D01*
X013579Y021328D02*
X011579Y021328D01*
X011579Y021407D02*
X013582Y021407D01*
X013609Y021485D02*
X011579Y021485D01*
X011579Y021564D02*
X013674Y021564D01*
X014183Y021642D02*
X011579Y021642D01*
X011579Y021721D02*
X014279Y021721D01*
X014318Y021799D02*
X011579Y021799D01*
X011579Y021878D02*
X014329Y021878D01*
X014329Y021956D02*
X011579Y021956D01*
X011579Y022035D02*
X014329Y022035D01*
X014329Y022113D02*
X011579Y022113D01*
X011579Y022192D02*
X014329Y022192D01*
X014329Y022270D02*
X011579Y022270D01*
X011579Y022349D02*
X014329Y022349D01*
X014329Y022427D02*
X011579Y022427D01*
X011579Y022506D02*
X014329Y022506D01*
X014329Y022584D02*
X011579Y022584D01*
X011579Y022663D02*
X014329Y022663D01*
X014329Y022741D02*
X011579Y022741D01*
X011579Y022820D02*
X014329Y022820D01*
X014329Y022898D02*
X011579Y022898D01*
X011579Y022977D02*
X014329Y022977D01*
X014329Y023055D02*
X011579Y023055D01*
X011580Y023134D02*
X014327Y023134D01*
X014310Y023212D02*
X011597Y023212D01*
X011648Y023291D02*
X014259Y023291D01*
X014431Y023369D02*
X021687Y023369D01*
X021766Y023291D02*
X014474Y023291D01*
X014500Y023212D02*
X021844Y023212D01*
X021923Y023134D02*
X014510Y023134D01*
X014509Y023055D02*
X022001Y023055D01*
X022080Y022977D02*
X020991Y022977D01*
X021066Y022898D02*
X022158Y022898D01*
X022237Y022820D02*
X021066Y022820D01*
X021066Y022741D02*
X022315Y022741D01*
X022394Y022663D02*
X021066Y022663D01*
X021066Y022584D02*
X022472Y022584D01*
X022551Y022506D02*
X021066Y022506D01*
X021066Y022427D02*
X022629Y022427D01*
X022708Y022349D02*
X021066Y022349D01*
X021066Y022270D02*
X022786Y022270D01*
X022865Y022192D02*
X021066Y022192D01*
X021066Y022113D02*
X022943Y022113D01*
X023022Y022035D02*
X021066Y022035D01*
X021066Y021956D02*
X023100Y021956D01*
X023179Y021878D02*
X021066Y021878D01*
X021024Y021799D02*
X023257Y021799D01*
X023336Y021721D02*
X020511Y021721D01*
X020469Y021642D02*
X023414Y021642D01*
X023493Y021564D02*
X020469Y021564D01*
X020469Y021485D02*
X023571Y021485D01*
X023650Y021407D02*
X022091Y021407D01*
X022152Y021328D02*
X023728Y021328D01*
X023807Y021250D02*
X022152Y021250D01*
X022152Y021171D02*
X023885Y021171D01*
X023964Y021093D02*
X022152Y021093D01*
X022152Y021014D02*
X024042Y021014D01*
X024121Y020936D02*
X022152Y020936D01*
X022078Y020857D02*
X024199Y020857D01*
X024278Y020779D02*
X022027Y020779D01*
X021583Y021407D02*
X021491Y021407D01*
X021609Y023448D02*
X014369Y023448D01*
X011538Y023448D02*
X004777Y023448D01*
X004698Y023369D02*
X011476Y023369D01*
X011433Y023291D02*
X004620Y023291D01*
X004541Y023212D02*
X011407Y023212D01*
X011397Y023134D02*
X004463Y023134D01*
X005828Y021721D02*
X006376Y021721D01*
X006297Y021799D02*
X005907Y021799D01*
X005879Y021485D02*
X006325Y021485D01*
X006818Y021721D02*
X006976Y021721D01*
X006896Y021799D02*
X006897Y021799D01*
X007512Y020386D02*
X011465Y020386D01*
X011529Y020308D02*
X007512Y020308D01*
X007501Y020229D02*
X011627Y020229D01*
X010096Y019209D02*
X003891Y019209D01*
X005029Y020448D02*
X005050Y020448D01*
X005319Y021171D02*
X005339Y021171D01*
X009357Y017498D02*
X009429Y017569D01*
X009903Y017246D02*
X009907Y017246D01*
X009922Y016932D02*
X009988Y016932D01*
X009941Y016331D02*
X009479Y015869D01*
X009941Y016331D02*
X010260Y016331D01*
X017310Y021799D02*
X018150Y021799D01*
X018666Y021564D02*
X018691Y021564D01*
X022071Y016304D02*
X022245Y016304D01*
D44*
X014760Y018750D02*
X013929Y017919D01*
X013929Y015919D01*
X013729Y015719D01*
X013929Y015519D01*
X013929Y013992D01*
X014379Y013542D01*
X013929Y015519D02*
X013929Y015919D01*
X013729Y015719D02*
X011644Y015719D01*
X011638Y015713D01*
X023346Y007509D02*
X023790Y007509D01*
X023954Y007346D01*
X023954Y008394D01*
X024079Y008519D01*
X023954Y007346D02*
X023954Y006952D01*
X023946Y006959D01*
X023954Y006952D02*
X023954Y006569D01*
X023794Y006409D01*
X023346Y006409D01*
D45*
X023306Y006369D01*
X023079Y006369D01*
X022746Y006959D02*
X021964Y006959D01*
X022479Y013469D02*
X022445Y013473D01*
X022414Y013484D01*
X022385Y013502D01*
X022361Y013525D01*
X022343Y013554D01*
X022332Y013586D01*
X022329Y013619D01*
X022329Y014369D01*
X022332Y014402D01*
X022343Y014434D01*
X022361Y014462D01*
X022385Y014486D01*
X022414Y014504D01*
X022445Y014515D01*
X022479Y014519D01*
X023129Y014519D01*
X023162Y014523D01*
X023194Y014534D01*
X023222Y014552D01*
X023246Y014575D01*
X023264Y014604D01*
X023275Y014636D01*
X023279Y014669D01*
X023279Y017669D01*
X023282Y017702D01*
X023293Y017734D01*
X023311Y017762D01*
X023335Y017786D01*
X023364Y017804D01*
X023395Y017815D01*
X023429Y017819D01*
X024279Y017819D01*
X024312Y017815D01*
X024344Y017804D01*
X023363Y017804D01*
X023279Y017645D02*
X024429Y017645D01*
X024429Y017669D02*
X024429Y013619D01*
X024425Y013586D01*
X024414Y013554D01*
X024396Y013525D01*
X024372Y013502D01*
X024344Y013484D01*
X024312Y013473D01*
X024279Y013469D01*
X022479Y013469D01*
X022362Y013524D02*
X024395Y013524D01*
X024429Y013683D02*
X022329Y013683D01*
X022329Y013841D02*
X024429Y013841D01*
X024429Y014000D02*
X022329Y014000D01*
X022329Y014158D02*
X024429Y014158D01*
X024429Y014317D02*
X022329Y014317D01*
X022374Y014475D02*
X024429Y014475D01*
X024429Y014634D02*
X023274Y014634D01*
X023279Y014792D02*
X024429Y014792D01*
X024429Y014951D02*
X023279Y014951D01*
X023279Y015109D02*
X024429Y015109D01*
X024429Y015268D02*
X023279Y015268D01*
X023279Y015426D02*
X024429Y015426D01*
X024429Y015585D02*
X023279Y015585D01*
X023279Y015743D02*
X024429Y015743D01*
X024429Y015902D02*
X023279Y015902D01*
X023279Y016060D02*
X024429Y016060D01*
X024429Y016219D02*
X023279Y016219D01*
X023279Y016377D02*
X024429Y016377D01*
X024429Y016536D02*
X023279Y016536D01*
X023279Y016694D02*
X024429Y016694D01*
X024429Y016853D02*
X023279Y016853D01*
X023279Y017011D02*
X024429Y017011D01*
X024429Y017170D02*
X023279Y017170D01*
X023279Y017328D02*
X024429Y017328D01*
X024429Y017487D02*
X023279Y017487D01*
X024344Y017804D02*
X024372Y017786D01*
X024396Y017762D01*
X024414Y017734D01*
X024425Y017702D01*
X024429Y017669D01*
X018929Y014469D02*
X018929Y014405D01*
X018930Y014403D01*
X018929Y014469D02*
X018279Y015119D01*
X017929Y015119D01*
X017829Y014719D02*
X017629Y014719D01*
X017479Y014869D01*
X017479Y016069D01*
X017429Y016119D01*
X017829Y014719D02*
X017929Y014619D01*
X017929Y013669D01*
X017989Y013608D01*
X016914Y018100D02*
X016895Y018119D01*
X016629Y018119D01*
X011160Y010507D02*
X011082Y010507D01*
X011082Y009793D01*
X011129Y005419D02*
X011163Y005385D01*
X012516Y005385D01*
X010990Y002996D02*
X010979Y002985D01*
X010979Y002669D01*
X010990Y002996D02*
X009106Y002996D01*
X008479Y002369D01*
X008472Y002363D01*
X008472Y001535D01*
X005029Y021235D02*
X005029Y022022D01*
X005029Y022810D01*
D46*
X011047Y013204D03*
X010594Y012869D03*
X010831Y012141D03*
X010338Y011806D03*
X009512Y011924D03*
X009512Y012770D03*
X008665Y011629D03*
X010338Y010487D03*
X010594Y010900D03*
D47*
X019916Y017726D02*
X020475Y017166D01*
X021609Y017166D01*
D48*
X022614Y018919D02*
X023276Y018919D01*
X023349Y018845D01*
X023349Y019449D01*
X023357Y019457D01*
X023949Y018845D02*
X023949Y017263D01*
X023853Y017166D01*
X011029Y016916D02*
X011029Y016319D01*
X011038Y016310D01*
X011038Y015713D01*
X011029Y016916D02*
X011024Y016920D01*
X008779Y017569D02*
X008727Y017518D01*
X008727Y016919D01*
X008097Y016919D02*
X008097Y017569D01*
X008129Y017569D01*
X008429Y017569D01*
X008729Y017569D02*
X008779Y017569D01*
D49*
X008429Y017569D03*
X012579Y012119D03*
X019429Y012994D03*
D50*
X020042Y013607D01*
X022682Y013607D01*
X019727Y019859D02*
X019727Y020517D01*
X020129Y020919D01*
X020129Y021819D01*
X020429Y022119D01*
X020429Y022346D01*
X020453Y022371D01*
X020199Y021139D02*
X021237Y021139D01*
X020199Y021139D02*
X020180Y021137D01*
X020163Y021132D01*
X020146Y021123D01*
X020132Y021111D01*
X012579Y012119D02*
X012579Y011819D01*
X012079Y011319D01*
X009104Y011319D01*
X009104Y012022D01*
X008907Y012219D01*
X006429Y012219D01*
X006129Y012519D01*
X006129Y013319D01*
X005379Y013319D01*
X003629Y013319D01*
X003429Y013119D01*
X003429Y010670D01*
X002702Y009944D01*
X003429Y013119D02*
X003429Y013519D01*
X003629Y013319D01*
X003579Y013319D01*
X003429Y013519D02*
X003429Y014569D01*
X003326Y014671D01*
X003313Y014671D01*
X006129Y013419D02*
X006129Y013319D01*
X008429Y017569D02*
X008729Y017569D01*
D51*
X012829Y020869D02*
X012829Y021941D01*
X013394Y022506D01*
X014813Y020869D02*
X015236Y020869D01*
X016736Y022369D01*
X018719Y022369D01*
X018721Y022371D01*
X018701Y022391D01*
D52*
X017989Y013608D02*
X017989Y012930D01*
X016349Y012939D02*
X016349Y013552D01*
X016342Y013558D01*
X014374Y013558D01*
X012163Y013263D02*
X012104Y013203D01*
X012029Y013203D01*
X011425Y012465D02*
X011190Y012465D01*
X011140Y012515D01*
X011094Y012469D01*
X011011Y012469D01*
D53*
X010709Y013590D02*
X009783Y013590D01*
X009672Y013539D01*
X010709Y013590D02*
X010978Y013918D01*
D54*
X019531Y020566D02*
X019727Y020517D01*
M02*
