G75*
%MOIN*%
%OFA0B0*%
%FSLAX24Y24*%
%IPPOS*%
%LPD*%
%AMOC8*
5,1,8,0,0,1.08239X$1,22.5*
%
%ADD10R,0.0296X0.0006*%
%ADD11R,0.0038X0.0006*%
%ADD12R,0.0088X0.0006*%
%ADD13R,0.0252X0.0006*%
%ADD14R,0.0113X0.0006*%
%ADD15R,0.0214X0.0006*%
%ADD16R,0.0132X0.0006*%
%ADD17R,0.0183X0.0006*%
%ADD18R,0.0145X0.0006*%
%ADD19R,0.0164X0.0006*%
%ADD20R,0.0157X0.0006*%
%ADD21R,0.0151X0.0006*%
%ADD22R,0.0170X0.0006*%
%ADD23R,0.0176X0.0006*%
%ADD24R,0.0120X0.0006*%
%ADD25R,0.0094X0.0006*%
%ADD26R,0.0031X0.0006*%
%ADD27R,0.0069X0.0006*%
%ADD28R,0.0107X0.0006*%
%ADD29R,0.0025X0.0006*%
%ADD30R,0.0019X0.0006*%
%ADD31R,0.0101X0.0006*%
%ADD32R,0.0063X0.0006*%
%ADD33R,0.0057X0.0006*%
%ADD34R,0.0139X0.0006*%
%ADD35R,0.0302X0.0006*%
%ADD36R,0.0208X0.0006*%
%ADD37R,0.0006X0.0006*%
%ADD38R,0.0050X0.0006*%
%ADD39R,0.0202X0.0006*%
%ADD40R,0.0246X0.0006*%
%ADD41R,0.0013X0.0006*%
%ADD42R,0.0220X0.0006*%
%ADD43R,0.0044X0.0006*%
%ADD44R,0.0271X0.0006*%
%ADD45R,0.0321X0.0006*%
%ADD46R,0.0126X0.0006*%
%ADD47R,0.0082X0.0006*%
%ADD48R,0.0076X0.0006*%
%ADD49R,0.0189X0.0006*%
%ADD50R,0.0195X0.0006*%
%ADD51R,0.0510X0.0006*%
%ADD52R,0.0504X0.0006*%
%ADD53R,0.0346X0.0006*%
%ADD54R,0.0328X0.0006*%
%ADD55R,0.0265X0.0006*%
%ADD56R,0.0315X0.0006*%
%ADD57R,0.0894X0.0006*%
%ADD58R,0.1159X0.0006*%
%ADD59R,0.1808X0.0006*%
%ADD60R,0.3250X0.0006*%
%ADD61R,0.1814X0.0006*%
%ADD62R,0.5254X0.0006*%
%ADD63R,0.5247X0.0006*%
%ADD64R,0.5241X0.0006*%
%ADD65R,0.5235X0.0006*%
%ADD66R,0.5228X0.0006*%
%ADD67R,0.5222X0.0006*%
%ADD68R,0.5216X0.0006*%
%ADD69R,0.5209X0.0006*%
%ADD70R,0.5203X0.0006*%
%ADD71R,0.5197X0.0006*%
%ADD72R,0.5191X0.0006*%
%ADD73R,0.5184X0.0006*%
%ADD74R,0.5178X0.0006*%
%ADD75R,0.5172X0.0006*%
%ADD76R,0.5165X0.0006*%
%ADD77R,0.5159X0.0006*%
%ADD78R,0.5153X0.0006*%
%ADD79R,0.5146X0.0006*%
%ADD80R,0.5140X0.0006*%
%ADD81R,0.5134X0.0006*%
%ADD82R,0.5128X0.0006*%
%ADD83R,0.5121X0.0006*%
%ADD84R,0.5115X0.0006*%
%ADD85R,0.5109X0.0006*%
%ADD86R,0.5102X0.0006*%
%ADD87R,0.5096X0.0006*%
%ADD88R,0.5090X0.0006*%
%ADD89R,0.5083X0.0006*%
%ADD90R,0.5077X0.0006*%
%ADD91R,0.5071X0.0006*%
%ADD92R,0.5065X0.0006*%
%ADD93R,0.5058X0.0006*%
%ADD94R,0.5052X0.0006*%
%ADD95R,0.1606X0.0006*%
%ADD96R,0.1587X0.0006*%
%ADD97R,0.1581X0.0006*%
%ADD98R,0.1575X0.0006*%
%ADD99R,0.1569X0.0006*%
%ADD100R,0.1556X0.0006*%
%ADD101R,0.1550X0.0006*%
%ADD102R,0.1537X0.0006*%
%ADD103R,0.1531X0.0006*%
%ADD104R,0.1518X0.0006*%
%ADD105R,0.1506X0.0006*%
%ADD106R,0.1493X0.0006*%
%ADD107R,0.1480X0.0006*%
%ADD108R,0.1468X0.0006*%
%ADD109R,0.1455X0.0006*%
%ADD110R,0.1443X0.0006*%
%ADD111R,0.1424X0.0006*%
%ADD112R,0.1405X0.0006*%
%ADD113R,0.1386X0.0006*%
%ADD114R,0.1361X0.0006*%
%ADD115R,0.1329X0.0006*%
%ADD116R,0.1291X0.0006*%
%ADD117R,0.4542X0.0006*%
%ADD118R,0.6545X0.0006*%
%ADD119R,0.0888X0.0006*%
%ADD120R,0.6539X0.0006*%
%ADD121R,0.6532X0.0006*%
%ADD122R,0.6526X0.0006*%
%ADD123R,0.6520X0.0006*%
%ADD124R,0.6513X0.0006*%
%ADD125R,0.6507X0.0006*%
%ADD126R,0.6501X0.0006*%
%ADD127R,0.6494X0.0006*%
%ADD128R,0.6488X0.0006*%
%ADD129R,0.6482X0.0006*%
%ADD130R,0.6476X0.0006*%
%ADD131R,0.6469X0.0006*%
%ADD132R,0.6463X0.0006*%
%ADD133R,0.6457X0.0006*%
%ADD134R,0.6450X0.0006*%
%ADD135R,0.6444X0.0006*%
%ADD136R,0.6438X0.0006*%
%ADD137R,0.6431X0.0006*%
%ADD138R,0.6425X0.0006*%
%ADD139R,0.6419X0.0006*%
%ADD140R,0.6413X0.0006*%
%ADD141R,0.6406X0.0006*%
%ADD142R,0.6400X0.0006*%
%ADD143R,0.6394X0.0006*%
%ADD144R,0.6387X0.0006*%
%ADD145R,0.6381X0.0006*%
%ADD146R,0.6375X0.0006*%
%ADD147R,0.6369X0.0006*%
%ADD148R,0.6362X0.0006*%
%ADD149R,0.6356X0.0006*%
%ADD150R,0.6343X0.0006*%
%ADD151R,0.6337X0.0006*%
%ADD152R,0.1594X0.0006*%
%ADD153R,0.1562X0.0006*%
%ADD154R,0.1543X0.0006*%
%ADD155R,0.1512X0.0006*%
%ADD156R,0.1499X0.0006*%
%ADD157R,0.1487X0.0006*%
%ADD158R,0.1474X0.0006*%
%ADD159R,0.1461X0.0006*%
%ADD160R,0.1430X0.0006*%
%ADD161R,0.1411X0.0006*%
%ADD162R,0.1367X0.0006*%
%ADD163R,0.1335X0.0006*%
%ADD164R,0.5858X0.0006*%
%ADD165R,0.7861X0.0006*%
%ADD166R,0.7855X0.0006*%
%ADD167R,0.7849X0.0006*%
%ADD168R,0.7843X0.0006*%
%ADD169R,0.7836X0.0006*%
%ADD170R,0.7830X0.0006*%
%ADD171R,0.7824X0.0006*%
%ADD172R,0.7817X0.0006*%
%ADD173R,0.7811X0.0006*%
%ADD174R,0.7805X0.0006*%
%ADD175R,0.7798X0.0006*%
%ADD176R,0.7792X0.0006*%
%ADD177R,0.7786X0.0006*%
%ADD178R,0.7780X0.0006*%
%ADD179R,0.7773X0.0006*%
%ADD180R,0.7767X0.0006*%
%ADD181R,0.7761X0.0006*%
%ADD182R,0.7754X0.0006*%
%ADD183R,0.7748X0.0006*%
%ADD184R,0.7742X0.0006*%
%ADD185R,0.7735X0.0006*%
%ADD186R,0.7729X0.0006*%
%ADD187R,0.7723X0.0006*%
%ADD188R,0.7717X0.0006*%
%ADD189R,0.7710X0.0006*%
%ADD190R,0.7704X0.0006*%
%ADD191R,0.7698X0.0006*%
%ADD192R,0.7691X0.0006*%
%ADD193R,0.7685X0.0006*%
%ADD194R,0.7679X0.0006*%
%ADD195R,0.7672X0.0006*%
%ADD196R,0.7666X0.0006*%
%ADD197R,0.7660X0.0006*%
%ADD198R,0.1600X0.0006*%
%ADD199R,0.1524X0.0006*%
%ADD200R,0.1436X0.0006*%
%ADD201R,0.1417X0.0006*%
%ADD202R,0.1398X0.0006*%
%ADD203R,0.1380X0.0006*%
%ADD204R,0.1354X0.0006*%
%ADD205R,0.1323X0.0006*%
%ADD206R,0.1260X0.0006*%
%ADD207C,0.0080*%
%ADD208C,0.0020*%
%ADD209C,0.0100*%
%ADD210C,0.0040*%
%ADD211C,0.0000*%
%ADD212C,0.0030*%
%ADD213C,0.0120*%
%ADD214C,0.0050*%
%ADD215C,0.0060*%
D10*
X015751Y004305D03*
X015751Y004311D03*
X018069Y004053D03*
X018069Y004047D03*
X018875Y004305D03*
X018875Y004311D03*
X019297Y004053D03*
X019297Y004047D03*
X020274Y004324D03*
D11*
X020434Y004349D03*
X020441Y004356D03*
X020731Y004400D03*
X020731Y004406D03*
X020819Y004311D03*
X021008Y004809D03*
X020825Y004872D03*
X020812Y004866D03*
X020800Y004859D03*
X020794Y004853D03*
X020183Y004866D03*
X019446Y004311D03*
X019376Y004356D03*
X018217Y004311D03*
X018148Y004356D03*
X017297Y004790D03*
X017297Y004796D03*
X017096Y004311D03*
X017096Y004305D03*
X017096Y004299D03*
X016926Y004053D03*
X015320Y005011D03*
X015320Y005017D03*
D12*
X015294Y004929D03*
X016926Y004059D03*
X017102Y004374D03*
X017310Y004847D03*
X018406Y004337D03*
X019634Y004337D03*
X020069Y004752D03*
X020069Y004759D03*
X020075Y004765D03*
X020422Y004784D03*
X020422Y004790D03*
X020428Y004778D03*
X020434Y004759D03*
X020756Y004727D03*
X020762Y004715D03*
X020976Y004859D03*
X021033Y004456D03*
X021033Y004450D03*
X021033Y004444D03*
X020756Y004337D03*
D13*
X019301Y004059D03*
X018072Y004059D03*
X016560Y004318D03*
X016170Y004318D03*
D14*
X016170Y004374D03*
X016170Y004381D03*
X016170Y004387D03*
X016170Y004393D03*
X016170Y004400D03*
X016176Y004759D03*
X016491Y004853D03*
X016504Y004847D03*
X016560Y004400D03*
X016560Y004393D03*
X016560Y004387D03*
X016560Y004381D03*
X016560Y004374D03*
X017033Y004563D03*
X017020Y004595D03*
X017008Y004626D03*
X017001Y004639D03*
X017001Y004645D03*
X016995Y004658D03*
X016989Y004670D03*
X016989Y004677D03*
X016983Y004689D03*
X016983Y004696D03*
X016976Y004702D03*
X016976Y004708D03*
X016970Y004721D03*
X016970Y004727D03*
X016964Y004733D03*
X016964Y004740D03*
X016964Y004746D03*
X016957Y004752D03*
X016957Y004759D03*
X016951Y004771D03*
X017102Y004406D03*
X016926Y004066D03*
X018079Y004406D03*
X018079Y004412D03*
X018079Y004419D03*
X018079Y004425D03*
X018079Y004740D03*
X018079Y004746D03*
X018060Y004891D03*
X018463Y004790D03*
X018469Y004784D03*
X018475Y004771D03*
X018482Y004765D03*
X018482Y004759D03*
X018488Y004752D03*
X018488Y004746D03*
X018494Y004740D03*
X018494Y004733D03*
X018501Y004721D03*
X018507Y004702D03*
X018513Y004677D03*
X018520Y004645D03*
X018520Y004551D03*
X018520Y004544D03*
X018520Y004538D03*
X018520Y004532D03*
X018513Y004513D03*
X018513Y004507D03*
X018513Y004500D03*
X018507Y004494D03*
X018507Y004488D03*
X018507Y004481D03*
X018501Y004469D03*
X018501Y004463D03*
X018494Y004450D03*
X018488Y004437D03*
X018482Y004425D03*
X018879Y004387D03*
X018879Y004381D03*
X018879Y004374D03*
X018872Y004796D03*
X018872Y004803D03*
X018872Y004809D03*
X018879Y005212D03*
X019288Y004891D03*
X019307Y004746D03*
X019307Y004740D03*
X019307Y004425D03*
X019307Y004419D03*
X019307Y004412D03*
X019307Y004406D03*
X019691Y004790D03*
X019697Y004784D03*
X019704Y004771D03*
X019710Y004765D03*
X019710Y004759D03*
X019716Y004752D03*
X019716Y004746D03*
X019723Y004740D03*
X019723Y004733D03*
X019729Y004721D03*
X019735Y004702D03*
X019742Y004677D03*
X019748Y004645D03*
X019748Y004551D03*
X019748Y004544D03*
X019748Y004538D03*
X019748Y004532D03*
X019742Y004513D03*
X019742Y004507D03*
X019742Y004500D03*
X019735Y004494D03*
X019735Y004488D03*
X019735Y004481D03*
X019729Y004469D03*
X019729Y004463D03*
X019723Y004450D03*
X019716Y004437D03*
X019710Y004425D03*
X020038Y004595D03*
X020038Y004601D03*
X020038Y004607D03*
X020038Y004614D03*
X020038Y004620D03*
X020038Y004626D03*
X020038Y004633D03*
X020038Y004639D03*
X020038Y004645D03*
X020038Y004652D03*
X020044Y004658D03*
X020044Y004664D03*
X020044Y004670D03*
X020775Y004696D03*
X020781Y004689D03*
X020964Y004872D03*
X021020Y004494D03*
X015754Y004387D03*
X015754Y004381D03*
X015754Y004374D03*
X015748Y004796D03*
X015748Y004803D03*
X015748Y004809D03*
X015754Y005212D03*
X015282Y004904D03*
X015294Y004381D03*
X015294Y004374D03*
X015294Y004368D03*
D15*
X016422Y004866D03*
X018072Y004066D03*
X019301Y004066D03*
X020875Y004620D03*
X020894Y004607D03*
X020901Y004601D03*
D16*
X020268Y004878D03*
X020047Y004519D03*
X020053Y004494D03*
X020060Y004475D03*
X020066Y004463D03*
X020066Y004456D03*
X020072Y004450D03*
X020072Y004444D03*
X020079Y004437D03*
X020085Y004425D03*
X020091Y004419D03*
X020104Y004400D03*
X019316Y004374D03*
X019316Y004368D03*
X019297Y004104D03*
X019297Y004097D03*
X018875Y004356D03*
X018863Y004828D03*
X019310Y004790D03*
X019310Y004784D03*
X018082Y004784D03*
X018082Y004790D03*
X018088Y004374D03*
X018088Y004368D03*
X018069Y004104D03*
X018069Y004097D03*
X016929Y004072D03*
X016167Y004356D03*
X015751Y004356D03*
X016179Y004790D03*
X016154Y004828D03*
X016425Y004878D03*
X016935Y004828D03*
X016935Y004822D03*
X015738Y004828D03*
X015379Y004299D03*
X015323Y004330D03*
X015316Y004337D03*
D17*
X016173Y004330D03*
X016564Y004330D03*
X016942Y004116D03*
X018069Y004072D03*
X019297Y004072D03*
X020192Y004337D03*
X020960Y004557D03*
D18*
X020803Y004670D03*
X020135Y004368D03*
X020129Y004374D03*
X020123Y004381D03*
X019297Y004091D03*
X019310Y004796D03*
X019279Y004853D03*
X018857Y004841D03*
X018082Y004796D03*
X018050Y004853D03*
X018069Y004091D03*
X016929Y004078D03*
X016179Y004803D03*
X016148Y004841D03*
X015732Y004841D03*
X015335Y004324D03*
X016935Y004834D03*
D19*
X016560Y004337D03*
X016932Y004091D03*
X016170Y004337D03*
X015754Y004337D03*
X015723Y004847D03*
X016138Y004847D03*
X018034Y004866D03*
X018034Y004885D03*
X018847Y004847D03*
X019263Y004866D03*
X019263Y004885D03*
X018879Y004337D03*
X019301Y004078D03*
X020164Y004349D03*
X020277Y004299D03*
X020819Y004658D03*
X020976Y004544D03*
X018072Y004078D03*
D20*
X018088Y004815D03*
X017313Y004866D03*
X016935Y004847D03*
X016929Y004085D03*
X015726Y004866D03*
X018850Y004866D03*
X019316Y004815D03*
X020154Y004356D03*
X020809Y004664D03*
X020986Y004538D03*
D21*
X020989Y004532D03*
X020145Y004362D03*
X019534Y004878D03*
X019313Y004809D03*
X019313Y004803D03*
X019275Y004859D03*
X018879Y004343D03*
X019301Y004085D03*
X018305Y004878D03*
X018085Y004809D03*
X018085Y004803D03*
X018047Y004859D03*
X018072Y004085D03*
X016932Y004841D03*
X016560Y004343D03*
X016170Y004343D03*
X015754Y004343D03*
X016138Y004866D03*
D22*
X016935Y004853D03*
X016935Y004097D03*
X018088Y004822D03*
X019316Y004822D03*
X020179Y004343D03*
X020828Y004652D03*
X020967Y004551D03*
D23*
X020838Y004645D03*
X019527Y004305D03*
X019320Y004828D03*
X018879Y004330D03*
X018299Y004305D03*
X018091Y004828D03*
X016938Y004110D03*
X016938Y004104D03*
X016422Y004872D03*
X015754Y004330D03*
X015383Y004305D03*
D24*
X015304Y004349D03*
X015304Y004356D03*
X015297Y004362D03*
X015751Y004368D03*
X015745Y004815D03*
X016160Y004815D03*
X016160Y004809D03*
X016173Y004771D03*
X016173Y004765D03*
X015751Y005174D03*
X015751Y005181D03*
X015751Y005187D03*
X015751Y005193D03*
X015751Y005200D03*
X015751Y005206D03*
X015279Y004897D03*
X016942Y004803D03*
X016942Y004796D03*
X016948Y004790D03*
X016948Y004784D03*
X016948Y004778D03*
X016954Y004765D03*
X017099Y004419D03*
X017099Y004412D03*
X018082Y004400D03*
X018082Y004393D03*
X018069Y004122D03*
X018069Y004116D03*
X018069Y004110D03*
X018516Y004519D03*
X018516Y004526D03*
X018523Y004557D03*
X018523Y004563D03*
X018523Y004570D03*
X018523Y004576D03*
X018523Y004582D03*
X018523Y004589D03*
X018523Y004595D03*
X018523Y004601D03*
X018523Y004607D03*
X018523Y004614D03*
X018523Y004620D03*
X018523Y004626D03*
X018523Y004633D03*
X018523Y004639D03*
X018516Y004652D03*
X018516Y004658D03*
X018516Y004664D03*
X018516Y004670D03*
X018510Y004683D03*
X018510Y004689D03*
X018510Y004696D03*
X018504Y004708D03*
X018504Y004715D03*
X018497Y004727D03*
X018869Y004815D03*
X018875Y004368D03*
X019310Y004393D03*
X019310Y004400D03*
X019297Y004122D03*
X019297Y004116D03*
X019297Y004110D03*
X019745Y004519D03*
X019745Y004526D03*
X019751Y004557D03*
X019751Y004563D03*
X019751Y004570D03*
X019751Y004576D03*
X019751Y004582D03*
X019751Y004589D03*
X019751Y004595D03*
X019751Y004601D03*
X019751Y004607D03*
X019751Y004614D03*
X019751Y004620D03*
X019751Y004626D03*
X019751Y004633D03*
X019751Y004639D03*
X019745Y004652D03*
X019745Y004658D03*
X019745Y004664D03*
X019745Y004670D03*
X019738Y004683D03*
X019738Y004689D03*
X019738Y004696D03*
X019732Y004708D03*
X019732Y004715D03*
X019726Y004727D03*
X020041Y004589D03*
X020041Y004582D03*
X020041Y004576D03*
X020041Y004570D03*
X020041Y004563D03*
X020041Y004557D03*
X020041Y004551D03*
X019304Y004752D03*
X019304Y004759D03*
X018875Y005174D03*
X018875Y005181D03*
X018875Y005187D03*
X018875Y005193D03*
X018875Y005200D03*
X018875Y005206D03*
X018075Y004759D03*
X018075Y004752D03*
X020897Y004299D03*
X021017Y004500D03*
X021011Y004507D03*
D25*
X021030Y004469D03*
X021030Y004463D03*
X020759Y004330D03*
X020765Y004708D03*
X020973Y004866D03*
X020438Y004752D03*
X020438Y004746D03*
X020431Y004765D03*
X020431Y004771D03*
X020444Y004721D03*
X020444Y004715D03*
X020066Y004746D03*
X020060Y004733D03*
X019663Y004362D03*
X019657Y004356D03*
X019650Y004349D03*
X019644Y004343D03*
X019625Y004330D03*
X019612Y004324D03*
X019600Y004318D03*
X019587Y004311D03*
X018875Y005156D03*
X018875Y005231D03*
X018434Y004362D03*
X018428Y004356D03*
X018422Y004349D03*
X018416Y004343D03*
X018397Y004330D03*
X018384Y004324D03*
X018372Y004318D03*
X018359Y004311D03*
X017099Y004381D03*
X017099Y004387D03*
X016904Y004122D03*
X015751Y005156D03*
X015751Y005231D03*
X015291Y004922D03*
D26*
X015323Y005023D03*
X015323Y005030D03*
X015323Y005036D03*
X015323Y005042D03*
X015751Y005137D03*
X015751Y005250D03*
X016318Y004859D03*
X017093Y004293D03*
X017093Y004286D03*
X017030Y004135D03*
X017023Y004129D03*
X017017Y004122D03*
X017288Y004759D03*
X017294Y004771D03*
X017294Y004778D03*
X017294Y004784D03*
X018157Y004349D03*
X018164Y004343D03*
X018170Y004337D03*
X018201Y004318D03*
X018875Y005137D03*
X018875Y005250D03*
X019386Y004349D03*
X019392Y004343D03*
X019398Y004337D03*
X019430Y004318D03*
X020450Y004362D03*
X020457Y004368D03*
X020727Y004412D03*
X020727Y004419D03*
X020834Y004305D03*
X021011Y004796D03*
X021011Y004803D03*
D27*
X020753Y004752D03*
X020387Y004834D03*
X020381Y004841D03*
X020375Y004847D03*
X020362Y004853D03*
X020324Y004872D03*
X020110Y004815D03*
X020104Y004809D03*
X020280Y004293D03*
X020746Y004356D03*
X021023Y004374D03*
X021030Y004387D03*
X021030Y004393D03*
X021030Y004400D03*
X019537Y004885D03*
X018309Y004885D03*
X017307Y004834D03*
X017099Y004356D03*
X017099Y004349D03*
X016897Y004129D03*
X015304Y004948D03*
X015304Y004954D03*
D28*
X015285Y004910D03*
X015751Y004872D03*
X015751Y004790D03*
X015751Y004784D03*
X015751Y004778D03*
X015751Y004771D03*
X015751Y004406D03*
X015751Y004400D03*
X015751Y004393D03*
X016167Y004406D03*
X016173Y004715D03*
X016173Y004721D03*
X016173Y004727D03*
X016173Y004733D03*
X016173Y004740D03*
X016173Y004746D03*
X016173Y004752D03*
X016160Y004872D03*
X015751Y005162D03*
X015751Y005168D03*
X015751Y005219D03*
X016513Y004841D03*
X016520Y004834D03*
X016526Y004828D03*
X016532Y004822D03*
X016538Y004815D03*
X016545Y004803D03*
X016551Y004790D03*
X016551Y004784D03*
X016557Y004771D03*
X016557Y004765D03*
X016557Y004759D03*
X016557Y004752D03*
X016557Y004746D03*
X016564Y004406D03*
X017023Y004582D03*
X017023Y004589D03*
X017017Y004601D03*
X017017Y004607D03*
X017011Y004614D03*
X017011Y004620D03*
X017005Y004633D03*
X016998Y004652D03*
X016992Y004664D03*
X016986Y004683D03*
X016973Y004715D03*
X017030Y004576D03*
X017030Y004570D03*
X017036Y004557D03*
X017036Y004551D03*
X017042Y004544D03*
X017042Y004538D03*
X017042Y004532D03*
X017049Y004526D03*
X017049Y004519D03*
X017055Y004513D03*
X017055Y004507D03*
X017055Y004500D03*
X017061Y004494D03*
X017061Y004488D03*
X017068Y004481D03*
X017068Y004475D03*
X017074Y004463D03*
X017074Y004456D03*
X017080Y004444D03*
X017086Y004431D03*
X017086Y004425D03*
X017099Y004400D03*
X017099Y004393D03*
X018075Y004431D03*
X018075Y004437D03*
X018075Y004444D03*
X018075Y004450D03*
X018075Y004456D03*
X018075Y004463D03*
X018075Y004469D03*
X018075Y004696D03*
X018075Y004702D03*
X018075Y004708D03*
X018075Y004715D03*
X018075Y004721D03*
X018075Y004727D03*
X018075Y004733D03*
X018441Y004815D03*
X018447Y004809D03*
X018453Y004803D03*
X018460Y004796D03*
X018472Y004778D03*
X018504Y004475D03*
X018497Y004456D03*
X018491Y004444D03*
X018485Y004431D03*
X018479Y004419D03*
X018472Y004412D03*
X018472Y004406D03*
X018466Y004400D03*
X018453Y004381D03*
X018447Y004374D03*
X018875Y004393D03*
X018875Y004400D03*
X018875Y004406D03*
X018875Y004771D03*
X018875Y004778D03*
X018875Y004784D03*
X018875Y004790D03*
X018875Y004872D03*
X018875Y005162D03*
X018875Y005168D03*
X018875Y005219D03*
X019304Y004733D03*
X019304Y004727D03*
X019304Y004721D03*
X019304Y004715D03*
X019304Y004708D03*
X019304Y004702D03*
X019304Y004696D03*
X019304Y004469D03*
X019304Y004463D03*
X019304Y004456D03*
X019304Y004450D03*
X019304Y004444D03*
X019304Y004437D03*
X019304Y004431D03*
X019297Y004192D03*
X019297Y004185D03*
X019297Y004179D03*
X019297Y004173D03*
X019297Y004167D03*
X019297Y004160D03*
X019297Y004154D03*
X019297Y004148D03*
X019297Y004141D03*
X019297Y004135D03*
X019297Y004129D03*
X019675Y004374D03*
X019682Y004381D03*
X019694Y004400D03*
X019701Y004406D03*
X019701Y004412D03*
X019707Y004419D03*
X019713Y004431D03*
X019720Y004444D03*
X019726Y004456D03*
X019732Y004475D03*
X019701Y004778D03*
X019688Y004796D03*
X019682Y004803D03*
X019675Y004809D03*
X019669Y004815D03*
X020053Y004715D03*
X020053Y004708D03*
X021023Y004488D03*
X018069Y004192D03*
X018069Y004185D03*
X018069Y004179D03*
X018069Y004173D03*
X018069Y004167D03*
X018069Y004160D03*
X018069Y004154D03*
X018069Y004148D03*
X018069Y004141D03*
X018069Y004135D03*
X018069Y004129D03*
X015291Y004387D03*
X015291Y004393D03*
X015291Y004400D03*
D29*
X015490Y004324D03*
X015326Y005048D03*
X015326Y005055D03*
X016302Y004853D03*
X016894Y004135D03*
X017033Y004141D03*
X017039Y004148D03*
X017064Y004204D03*
X017077Y004236D03*
X017083Y004255D03*
X017090Y004267D03*
X017090Y004274D03*
X017090Y004280D03*
X017247Y004652D03*
X017260Y004683D03*
X017272Y004715D03*
X017279Y004733D03*
X017285Y004746D03*
X017285Y004752D03*
X017291Y004765D03*
X018179Y004330D03*
X018192Y004324D03*
X019408Y004330D03*
X019420Y004324D03*
X020466Y004374D03*
X020472Y004387D03*
X020479Y004393D03*
X020485Y004406D03*
X020724Y004425D03*
X020724Y004431D03*
X021014Y004784D03*
X021014Y004790D03*
D30*
X021017Y004778D03*
X021017Y004771D03*
X021017Y004765D03*
X020721Y004450D03*
X020721Y004444D03*
X020721Y004437D03*
X020721Y004318D03*
X020494Y004425D03*
X020494Y004431D03*
X020501Y004444D03*
X020488Y004412D03*
X020482Y004400D03*
X020469Y004381D03*
X017282Y004740D03*
X017275Y004727D03*
X017275Y004721D03*
X017269Y004708D03*
X017269Y004702D03*
X017263Y004696D03*
X017263Y004689D03*
X017257Y004677D03*
X017257Y004670D03*
X017250Y004664D03*
X017250Y004658D03*
X017244Y004645D03*
X017244Y004639D03*
X017238Y004633D03*
X017238Y004626D03*
X017231Y004620D03*
X017231Y004614D03*
X017231Y004607D03*
X017225Y004601D03*
X017225Y004595D03*
X017219Y004589D03*
X017219Y004582D03*
X017219Y004576D03*
X017212Y004570D03*
X017212Y004563D03*
X017206Y004557D03*
X017206Y004551D03*
X017206Y004544D03*
X017200Y004538D03*
X017200Y004532D03*
X017194Y004526D03*
X017194Y004519D03*
X017194Y004513D03*
X017187Y004507D03*
X017187Y004500D03*
X017181Y004494D03*
X017181Y004488D03*
X017175Y004475D03*
X017175Y004469D03*
X017168Y004463D03*
X017168Y004456D03*
X017162Y004444D03*
X017162Y004437D03*
X017156Y004431D03*
X017156Y004425D03*
X017086Y004261D03*
X017080Y004248D03*
X017080Y004242D03*
X017074Y004230D03*
X017074Y004223D03*
X017068Y004217D03*
X017068Y004211D03*
X017061Y004198D03*
X017061Y004192D03*
X017055Y004185D03*
X017055Y004179D03*
X017049Y004173D03*
X017049Y004167D03*
X017042Y004160D03*
X017042Y004154D03*
X016293Y004847D03*
X016280Y004841D03*
X016261Y004828D03*
X016255Y004822D03*
X016249Y004815D03*
X016242Y004809D03*
X015499Y004330D03*
D31*
X015288Y004406D03*
X015288Y004412D03*
X015288Y004419D03*
X015288Y004425D03*
X015288Y004431D03*
X015288Y004437D03*
X015288Y004444D03*
X015288Y004450D03*
X015288Y004456D03*
X015288Y004463D03*
X015288Y004469D03*
X015288Y004475D03*
X015288Y004481D03*
X015288Y004488D03*
X015288Y004494D03*
X015288Y004500D03*
X015288Y004507D03*
X015288Y004513D03*
X015288Y004519D03*
X015288Y004526D03*
X015288Y004532D03*
X015288Y004538D03*
X015288Y004544D03*
X015288Y004551D03*
X015288Y004557D03*
X015288Y004563D03*
X015288Y004570D03*
X015288Y004576D03*
X015288Y004582D03*
X015288Y004589D03*
X015288Y004595D03*
X015288Y004601D03*
X015288Y004607D03*
X015288Y004614D03*
X015288Y004620D03*
X015288Y004626D03*
X015288Y004633D03*
X015288Y004639D03*
X015288Y004645D03*
X015288Y004652D03*
X015288Y004658D03*
X015288Y004664D03*
X015288Y004670D03*
X015288Y004677D03*
X015288Y004683D03*
X015288Y004689D03*
X015288Y004696D03*
X015288Y004702D03*
X015288Y004708D03*
X015288Y004715D03*
X015288Y004721D03*
X015288Y004727D03*
X015288Y004733D03*
X015288Y004740D03*
X015288Y004746D03*
X015288Y004752D03*
X015288Y004759D03*
X015288Y004765D03*
X015288Y004771D03*
X015288Y004778D03*
X015288Y004784D03*
X015288Y004790D03*
X015288Y004796D03*
X015288Y004803D03*
X015288Y004809D03*
X015288Y004815D03*
X015288Y004822D03*
X015288Y004828D03*
X015288Y004834D03*
X015288Y004841D03*
X015288Y004847D03*
X015288Y004853D03*
X015288Y004916D03*
X015754Y004765D03*
X015754Y004759D03*
X015754Y004752D03*
X015754Y004746D03*
X015754Y004740D03*
X015754Y004733D03*
X015754Y004727D03*
X015754Y004721D03*
X015754Y004715D03*
X015754Y004708D03*
X015754Y004702D03*
X015754Y004696D03*
X015754Y004689D03*
X015754Y004683D03*
X015754Y004677D03*
X015754Y004670D03*
X015754Y004664D03*
X015754Y004658D03*
X015754Y004652D03*
X015754Y004645D03*
X015754Y004639D03*
X015754Y004633D03*
X015754Y004626D03*
X015754Y004620D03*
X015754Y004614D03*
X015754Y004607D03*
X015754Y004601D03*
X015754Y004595D03*
X015754Y004589D03*
X015754Y004582D03*
X015754Y004576D03*
X015754Y004570D03*
X015754Y004563D03*
X015754Y004557D03*
X015754Y004551D03*
X015754Y004544D03*
X015754Y004538D03*
X015754Y004532D03*
X015754Y004526D03*
X015754Y004519D03*
X015754Y004513D03*
X015754Y004507D03*
X015754Y004500D03*
X015754Y004494D03*
X015754Y004488D03*
X015754Y004481D03*
X015754Y004475D03*
X015754Y004469D03*
X015754Y004463D03*
X015754Y004456D03*
X015754Y004450D03*
X015754Y004444D03*
X015754Y004437D03*
X015754Y004431D03*
X015754Y004425D03*
X015754Y004419D03*
X015754Y004412D03*
X016170Y004412D03*
X016170Y004419D03*
X016170Y004425D03*
X016170Y004431D03*
X016170Y004437D03*
X016170Y004444D03*
X016170Y004450D03*
X016170Y004456D03*
X016170Y004463D03*
X016170Y004469D03*
X016170Y004475D03*
X016170Y004481D03*
X016170Y004488D03*
X016170Y004494D03*
X016170Y004500D03*
X016170Y004507D03*
X016170Y004513D03*
X016170Y004519D03*
X016170Y004526D03*
X016170Y004532D03*
X016170Y004538D03*
X016170Y004544D03*
X016170Y004551D03*
X016170Y004557D03*
X016170Y004563D03*
X016170Y004570D03*
X016170Y004576D03*
X016170Y004582D03*
X016170Y004589D03*
X016170Y004595D03*
X016170Y004601D03*
X016170Y004607D03*
X016170Y004614D03*
X016170Y004620D03*
X016170Y004626D03*
X016170Y004633D03*
X016170Y004639D03*
X016170Y004645D03*
X016170Y004652D03*
X016170Y004658D03*
X016170Y004664D03*
X016170Y004670D03*
X016170Y004677D03*
X016170Y004683D03*
X016170Y004689D03*
X016170Y004696D03*
X016170Y004702D03*
X016170Y004708D03*
X016542Y004809D03*
X016548Y004796D03*
X016554Y004778D03*
X016560Y004740D03*
X016560Y004733D03*
X016560Y004727D03*
X016560Y004721D03*
X016560Y004715D03*
X016560Y004708D03*
X016560Y004702D03*
X016560Y004696D03*
X016560Y004689D03*
X016560Y004683D03*
X016560Y004677D03*
X016560Y004670D03*
X016560Y004664D03*
X016560Y004658D03*
X016560Y004652D03*
X016560Y004645D03*
X016560Y004639D03*
X016560Y004633D03*
X016560Y004626D03*
X016560Y004620D03*
X016560Y004614D03*
X016560Y004607D03*
X016560Y004601D03*
X016560Y004595D03*
X016560Y004589D03*
X016560Y004582D03*
X016560Y004576D03*
X016560Y004570D03*
X016560Y004563D03*
X016560Y004557D03*
X016560Y004551D03*
X016560Y004544D03*
X016560Y004538D03*
X016560Y004532D03*
X016560Y004526D03*
X016560Y004519D03*
X016560Y004513D03*
X016560Y004507D03*
X016560Y004500D03*
X016560Y004494D03*
X016560Y004488D03*
X016560Y004481D03*
X016560Y004475D03*
X016560Y004469D03*
X016560Y004463D03*
X016560Y004456D03*
X016560Y004450D03*
X016560Y004444D03*
X016560Y004437D03*
X016560Y004431D03*
X016560Y004425D03*
X016560Y004419D03*
X016560Y004412D03*
X017071Y004469D03*
X017077Y004450D03*
X017083Y004437D03*
X017310Y004853D03*
X018072Y004689D03*
X018072Y004683D03*
X018072Y004677D03*
X018072Y004670D03*
X018072Y004664D03*
X018072Y004658D03*
X018072Y004652D03*
X018072Y004645D03*
X018072Y004639D03*
X018072Y004633D03*
X018072Y004626D03*
X018072Y004620D03*
X018072Y004614D03*
X018072Y004607D03*
X018072Y004601D03*
X018072Y004595D03*
X018072Y004589D03*
X018072Y004582D03*
X018072Y004576D03*
X018072Y004570D03*
X018072Y004563D03*
X018072Y004557D03*
X018072Y004551D03*
X018072Y004544D03*
X018072Y004538D03*
X018072Y004532D03*
X018072Y004526D03*
X018072Y004519D03*
X018072Y004513D03*
X018072Y004507D03*
X018072Y004500D03*
X018072Y004494D03*
X018072Y004488D03*
X018072Y004481D03*
X018072Y004475D03*
X018072Y004356D03*
X018072Y004349D03*
X018072Y004343D03*
X018072Y004337D03*
X018072Y004330D03*
X018072Y004324D03*
X018072Y004318D03*
X018072Y004311D03*
X018072Y004305D03*
X018072Y004299D03*
X018072Y004293D03*
X018072Y004286D03*
X018072Y004280D03*
X018072Y004274D03*
X018072Y004267D03*
X018072Y004261D03*
X018072Y004255D03*
X018072Y004248D03*
X018072Y004242D03*
X018072Y004236D03*
X018072Y004230D03*
X018072Y004223D03*
X018072Y004217D03*
X018072Y004211D03*
X018072Y004204D03*
X018072Y004198D03*
X018444Y004368D03*
X018457Y004387D03*
X018463Y004393D03*
X018879Y004412D03*
X018879Y004419D03*
X018879Y004425D03*
X018879Y004431D03*
X018879Y004437D03*
X018879Y004444D03*
X018879Y004450D03*
X018879Y004456D03*
X018879Y004463D03*
X018879Y004469D03*
X018879Y004475D03*
X018879Y004481D03*
X018879Y004488D03*
X018879Y004494D03*
X018879Y004500D03*
X018879Y004507D03*
X018879Y004513D03*
X018879Y004519D03*
X018879Y004526D03*
X018879Y004532D03*
X018879Y004538D03*
X018879Y004544D03*
X018879Y004551D03*
X018879Y004557D03*
X018879Y004563D03*
X018879Y004570D03*
X018879Y004576D03*
X018879Y004582D03*
X018879Y004589D03*
X018879Y004595D03*
X018879Y004601D03*
X018879Y004607D03*
X018879Y004614D03*
X018879Y004620D03*
X018879Y004626D03*
X018879Y004633D03*
X018879Y004639D03*
X018879Y004645D03*
X018879Y004652D03*
X018879Y004658D03*
X018879Y004664D03*
X018879Y004670D03*
X018879Y004677D03*
X018879Y004683D03*
X018879Y004689D03*
X018879Y004696D03*
X018879Y004702D03*
X018879Y004708D03*
X018879Y004715D03*
X018879Y004721D03*
X018879Y004727D03*
X018879Y004733D03*
X018879Y004740D03*
X018879Y004746D03*
X018879Y004752D03*
X018879Y004759D03*
X018879Y004765D03*
X018438Y004822D03*
X018431Y004828D03*
X018425Y004834D03*
X018412Y004841D03*
X018406Y004847D03*
X018394Y004853D03*
X018381Y004859D03*
X018368Y004866D03*
X018879Y005225D03*
X019301Y004689D03*
X019301Y004683D03*
X019301Y004677D03*
X019301Y004670D03*
X019301Y004664D03*
X019301Y004658D03*
X019301Y004652D03*
X019301Y004645D03*
X019301Y004639D03*
X019301Y004633D03*
X019301Y004626D03*
X019301Y004620D03*
X019301Y004614D03*
X019301Y004607D03*
X019301Y004601D03*
X019301Y004595D03*
X019301Y004589D03*
X019301Y004582D03*
X019301Y004576D03*
X019301Y004570D03*
X019301Y004563D03*
X019301Y004557D03*
X019301Y004551D03*
X019301Y004544D03*
X019301Y004538D03*
X019301Y004532D03*
X019301Y004526D03*
X019301Y004519D03*
X019301Y004513D03*
X019301Y004507D03*
X019301Y004500D03*
X019301Y004494D03*
X019301Y004488D03*
X019301Y004481D03*
X019301Y004475D03*
X019301Y004356D03*
X019301Y004349D03*
X019301Y004343D03*
X019301Y004337D03*
X019301Y004330D03*
X019301Y004324D03*
X019301Y004318D03*
X019301Y004311D03*
X019301Y004305D03*
X019301Y004299D03*
X019301Y004293D03*
X019301Y004286D03*
X019301Y004280D03*
X019301Y004274D03*
X019301Y004267D03*
X019301Y004261D03*
X019301Y004255D03*
X019301Y004248D03*
X019301Y004242D03*
X019301Y004236D03*
X019301Y004230D03*
X019301Y004223D03*
X019301Y004217D03*
X019301Y004211D03*
X019301Y004204D03*
X019301Y004198D03*
X019672Y004368D03*
X019685Y004387D03*
X019691Y004393D03*
X019666Y004822D03*
X019660Y004828D03*
X019653Y004834D03*
X019641Y004841D03*
X019634Y004847D03*
X019622Y004853D03*
X019609Y004859D03*
X019597Y004866D03*
X020057Y004727D03*
X020057Y004721D03*
X020063Y004740D03*
X020050Y004702D03*
X020441Y004727D03*
X020441Y004733D03*
X020441Y004740D03*
X020447Y004708D03*
X020447Y004702D03*
X020768Y004702D03*
X021027Y004481D03*
X021027Y004475D03*
X020762Y004324D03*
X015754Y005225D03*
D32*
X015307Y004960D03*
X015383Y004293D03*
X016422Y004885D03*
X018085Y004897D03*
X018167Y004847D03*
X018179Y004853D03*
X018192Y004859D03*
X018211Y004866D03*
X018299Y004293D03*
X019313Y004897D03*
X019395Y004847D03*
X019408Y004853D03*
X019420Y004859D03*
X019439Y004866D03*
X020120Y004822D03*
X020126Y004828D03*
X020132Y004834D03*
X020340Y004866D03*
X020353Y004859D03*
X020749Y004778D03*
X020749Y004771D03*
X020749Y004765D03*
X020749Y004759D03*
X020995Y004841D03*
X021027Y004381D03*
X021020Y004368D03*
X020743Y004362D03*
X020409Y004337D03*
X019527Y004293D03*
D33*
X020142Y004841D03*
X020148Y004847D03*
X020268Y004885D03*
X020753Y004796D03*
X020753Y004790D03*
X020753Y004784D03*
X020759Y004809D03*
X020998Y004834D03*
X021017Y004362D03*
X021011Y004356D03*
X021005Y004343D03*
X020897Y004293D03*
X020740Y004368D03*
X020740Y004374D03*
X018901Y004878D03*
X018875Y005143D03*
X018875Y005244D03*
X017307Y004828D03*
X017307Y004822D03*
X017099Y004343D03*
X017099Y004337D03*
X017099Y004330D03*
X016186Y004878D03*
X015776Y004878D03*
X015751Y005143D03*
X015751Y005244D03*
X015310Y004973D03*
X015310Y004967D03*
D34*
X015269Y004885D03*
X015735Y004834D03*
X016151Y004834D03*
X016176Y004796D03*
X016170Y004349D03*
X015754Y004349D03*
X016560Y004349D03*
X016560Y004356D03*
X018091Y004362D03*
X018299Y004299D03*
X018879Y004349D03*
X019320Y004362D03*
X019527Y004299D03*
X020082Y004431D03*
X020094Y004412D03*
X020101Y004406D03*
X020107Y004393D03*
X020113Y004387D03*
X020794Y004677D03*
X020995Y004526D03*
X021001Y004519D03*
X019282Y004847D03*
X018860Y004834D03*
X018053Y004847D03*
D35*
X016560Y004311D03*
X016560Y004305D03*
X016170Y004305D03*
X016170Y004311D03*
D36*
X016173Y004324D03*
X015757Y004324D03*
X016564Y004324D03*
X018882Y004324D03*
X020274Y004305D03*
X020866Y004626D03*
X020885Y004614D03*
X020910Y004595D03*
X020916Y004589D03*
D37*
X021023Y004733D03*
X020715Y004488D03*
X020715Y004481D03*
X020715Y004475D03*
X020715Y004305D03*
X019335Y004904D03*
X018926Y004885D03*
X018107Y004904D03*
X016085Y006390D03*
X015682Y007852D03*
X015801Y004885D03*
X015537Y004368D03*
D38*
X015313Y004979D03*
X015313Y004985D03*
X017096Y004324D03*
X017304Y004815D03*
X020157Y004853D03*
X020170Y004859D03*
X020422Y004343D03*
X020737Y004381D03*
X020945Y004305D03*
X020964Y004311D03*
X020983Y004324D03*
X020989Y004330D03*
X020995Y004337D03*
X021008Y004349D03*
X020756Y004803D03*
X020762Y004815D03*
X021001Y004822D03*
X021001Y004828D03*
D39*
X020857Y004633D03*
X020926Y004582D03*
X019320Y004841D03*
X019244Y004872D03*
X019244Y004878D03*
X018091Y004841D03*
X018016Y004872D03*
X018016Y004878D03*
X015383Y004311D03*
D40*
X015757Y004318D03*
X018882Y004318D03*
X020274Y004311D03*
D41*
X020491Y004419D03*
X020497Y004437D03*
X020504Y004450D03*
X020718Y004456D03*
X020718Y004463D03*
X020718Y004469D03*
X020718Y004311D03*
X021020Y004740D03*
X021020Y004746D03*
X021020Y004752D03*
X021020Y004759D03*
X017178Y004481D03*
X017165Y004450D03*
X016271Y004834D03*
X016208Y004885D03*
X015534Y004362D03*
X015527Y004356D03*
X015521Y004349D03*
X015515Y004343D03*
X015509Y004337D03*
D42*
X015386Y004318D03*
X016935Y004866D03*
D43*
X017301Y004809D03*
X017301Y004803D03*
X017099Y004318D03*
X015316Y004992D03*
X015316Y004998D03*
X015316Y005004D03*
X020198Y004872D03*
X020734Y004393D03*
X020734Y004387D03*
X020803Y004318D03*
X020973Y004318D03*
X021005Y004815D03*
X020784Y004847D03*
X020778Y004841D03*
X020772Y004834D03*
X020772Y004828D03*
X020765Y004822D03*
D44*
X020274Y004318D03*
D45*
X020274Y004330D03*
D46*
X020063Y004469D03*
X020057Y004481D03*
X020057Y004488D03*
X020050Y004500D03*
X020050Y004507D03*
X020050Y004513D03*
X020044Y004526D03*
X020044Y004532D03*
X020044Y004538D03*
X020044Y004544D03*
X019313Y004387D03*
X019313Y004381D03*
X019307Y004765D03*
X019307Y004771D03*
X019307Y004778D03*
X018866Y004822D03*
X018879Y004362D03*
X018085Y004381D03*
X018085Y004387D03*
X018079Y004765D03*
X018079Y004771D03*
X018079Y004778D03*
X017310Y004859D03*
X016938Y004815D03*
X016938Y004809D03*
X016560Y004368D03*
X016560Y004362D03*
X016170Y004362D03*
X016170Y004368D03*
X016176Y004778D03*
X016176Y004784D03*
X016157Y004822D03*
X016479Y004859D03*
X015742Y004822D03*
X015754Y004362D03*
X015313Y004343D03*
X015275Y004891D03*
X020787Y004683D03*
X021008Y004513D03*
D47*
X021036Y004437D03*
X021036Y004431D03*
X021036Y004425D03*
X020753Y004343D03*
X020759Y004721D03*
X020753Y004733D03*
X020419Y004796D03*
X020412Y004803D03*
X020412Y004809D03*
X020406Y004815D03*
X020400Y004822D03*
X020394Y004828D03*
X020091Y004790D03*
X020085Y004784D03*
X020085Y004778D03*
X020079Y004771D03*
X018875Y005149D03*
X018875Y005237D03*
X017099Y004368D03*
X017099Y004362D03*
X015751Y005149D03*
X015751Y005237D03*
X015297Y004935D03*
D48*
X015301Y004941D03*
X017310Y004841D03*
X020094Y004796D03*
X020101Y004803D03*
X020749Y004746D03*
X020749Y004740D03*
X020888Y004885D03*
X020983Y004853D03*
X020989Y004847D03*
X021033Y004419D03*
X021033Y004412D03*
X021033Y004406D03*
X020749Y004349D03*
D49*
X020951Y004563D03*
X020945Y004570D03*
X019320Y004834D03*
X018091Y004834D03*
X017310Y004872D03*
X017310Y004878D03*
X016932Y004859D03*
X016120Y004859D03*
D50*
X016123Y004853D03*
X015707Y004853D03*
X015707Y004859D03*
X018302Y004872D03*
X018831Y004859D03*
X018831Y004853D03*
X019531Y004872D03*
X020847Y004639D03*
X020935Y004576D03*
X020923Y004878D03*
D51*
X020242Y004677D03*
D52*
X020246Y004683D03*
X020246Y004689D03*
X020246Y004696D03*
D53*
X015335Y004859D03*
X015335Y004866D03*
D54*
X015345Y004872D03*
D55*
X016938Y004872D03*
X016938Y004878D03*
D56*
X015351Y004878D03*
D57*
X016529Y005911D03*
X016529Y005918D03*
X016529Y005924D03*
X016529Y005930D03*
X016529Y005937D03*
X016529Y005943D03*
X016529Y005949D03*
X016529Y005956D03*
X016529Y005962D03*
X016529Y005968D03*
X016529Y005974D03*
X016529Y005981D03*
X016529Y005987D03*
X016529Y005993D03*
X016529Y006000D03*
X016529Y006006D03*
X016529Y006012D03*
X016529Y006019D03*
X016529Y006025D03*
X016529Y006031D03*
X016529Y006037D03*
X016529Y006044D03*
X016529Y006050D03*
X016529Y006056D03*
X016529Y006063D03*
X016529Y006069D03*
X016529Y006075D03*
X016529Y006081D03*
X016529Y006088D03*
X016529Y006094D03*
X016529Y006100D03*
X016529Y006107D03*
X016529Y006113D03*
X016529Y006119D03*
X016529Y006126D03*
X016529Y006132D03*
X016529Y006138D03*
X016529Y006144D03*
X016529Y006151D03*
X016529Y006157D03*
X016529Y006163D03*
X016529Y006170D03*
X016529Y006176D03*
X016529Y006182D03*
X016529Y006189D03*
X016529Y006195D03*
X016529Y006201D03*
X016529Y006207D03*
X016529Y006214D03*
X016529Y006220D03*
X016529Y006226D03*
X016529Y006233D03*
X016529Y006239D03*
X016529Y006245D03*
X016529Y006252D03*
X016529Y006258D03*
X016529Y006264D03*
X016529Y006270D03*
X016529Y006277D03*
X016529Y006283D03*
X016529Y006289D03*
X016529Y006296D03*
X016529Y006302D03*
X016529Y006308D03*
X016529Y006315D03*
X016529Y006321D03*
X016529Y006327D03*
X016529Y006333D03*
X016529Y006340D03*
X016529Y006346D03*
X016529Y006352D03*
X016529Y006359D03*
X016529Y006365D03*
X016529Y006371D03*
X016529Y006378D03*
X016529Y006384D03*
X015238Y007373D03*
X015238Y007379D03*
X015238Y007385D03*
X015238Y007392D03*
X015238Y007398D03*
X015238Y007404D03*
X015238Y007411D03*
X015238Y007417D03*
X015238Y007423D03*
X015238Y007430D03*
X015238Y007436D03*
X015238Y007442D03*
X015238Y007448D03*
X015238Y007455D03*
X015238Y007461D03*
X015238Y007467D03*
X015238Y007474D03*
X015238Y007480D03*
X015238Y007486D03*
X015238Y007493D03*
X015238Y007499D03*
X015238Y007505D03*
X015238Y007511D03*
X015238Y007518D03*
X015238Y007524D03*
X015238Y007530D03*
X015238Y007537D03*
X015238Y007543D03*
X015238Y007549D03*
X015238Y007556D03*
X015238Y007562D03*
X015238Y007568D03*
X015238Y007574D03*
X015238Y007581D03*
X015238Y007587D03*
X015238Y007593D03*
X015238Y007600D03*
X015238Y007606D03*
X015238Y007612D03*
X015238Y007619D03*
X015238Y007625D03*
X015238Y007631D03*
X015238Y007637D03*
X015238Y007644D03*
X015238Y007650D03*
X015238Y007656D03*
X015238Y007663D03*
X015238Y007669D03*
X015238Y007675D03*
X015238Y007681D03*
X015238Y007688D03*
X015238Y007694D03*
X015238Y007700D03*
X015238Y007707D03*
X015238Y007713D03*
X015238Y007719D03*
X015238Y007726D03*
X015238Y007732D03*
X015238Y007738D03*
X015238Y007744D03*
X015238Y007751D03*
X015238Y007757D03*
X015238Y007763D03*
X015238Y007770D03*
X015238Y007776D03*
X015238Y007782D03*
X015238Y007789D03*
X015238Y007795D03*
X015238Y007801D03*
X015238Y007807D03*
X015238Y007814D03*
X015238Y007820D03*
X015238Y007826D03*
X015238Y007833D03*
X015238Y007839D03*
X015238Y007845D03*
D58*
X015238Y007858D03*
X015238Y007864D03*
X015238Y007870D03*
X015238Y007877D03*
X015238Y007883D03*
X015238Y007889D03*
X015238Y007896D03*
X015238Y007902D03*
X015238Y007908D03*
X015238Y007915D03*
X015238Y007921D03*
X015238Y007927D03*
X015238Y007933D03*
X015238Y007940D03*
X015238Y007946D03*
X015238Y007952D03*
X015238Y007959D03*
X015238Y007965D03*
X015238Y007971D03*
X015238Y007978D03*
X015238Y007984D03*
X015238Y007990D03*
X015238Y007996D03*
X015238Y008003D03*
X015238Y008009D03*
X015238Y008015D03*
X015238Y008022D03*
X015238Y008028D03*
X015238Y008034D03*
X015238Y008041D03*
X015238Y008047D03*
X015238Y008053D03*
X015238Y008059D03*
X015238Y008066D03*
X015238Y008072D03*
X015238Y008078D03*
X015238Y008085D03*
X015238Y008091D03*
X015238Y008097D03*
X015238Y008104D03*
X015238Y008110D03*
X015238Y008116D03*
X015238Y008122D03*
X015238Y008129D03*
X015238Y008135D03*
X015238Y008141D03*
X015238Y008148D03*
X015238Y008154D03*
X015238Y008160D03*
X015238Y008167D03*
X015238Y008173D03*
X015238Y008179D03*
X015238Y008185D03*
X015238Y008192D03*
X015238Y008198D03*
X015238Y008204D03*
X015238Y008211D03*
X015238Y008217D03*
X015238Y008223D03*
X015238Y008230D03*
X015238Y008236D03*
X015238Y008242D03*
X015238Y008248D03*
X015238Y008255D03*
X015238Y008261D03*
X015238Y008267D03*
X015238Y008274D03*
X015238Y008280D03*
X015238Y008286D03*
X015238Y008293D03*
X015238Y008299D03*
X015238Y008305D03*
X015238Y008311D03*
X015238Y008318D03*
X015238Y008324D03*
X015238Y008330D03*
X015238Y008337D03*
X015238Y008343D03*
X015238Y008349D03*
X015238Y008356D03*
X015238Y008362D03*
X015238Y008368D03*
X015238Y008374D03*
X015238Y008381D03*
X015238Y008387D03*
X015238Y008393D03*
X015238Y008400D03*
X015238Y008406D03*
X015238Y008412D03*
X015238Y008419D03*
X015238Y008425D03*
X015238Y008431D03*
X015238Y008437D03*
X015238Y008444D03*
X015238Y008450D03*
X015238Y008456D03*
X015238Y008463D03*
X015238Y008469D03*
X015238Y008475D03*
X015238Y008481D03*
X015238Y008488D03*
X015238Y008494D03*
X015238Y008500D03*
X015238Y008507D03*
X015238Y008513D03*
X015238Y008519D03*
X013921Y009269D03*
X013921Y009275D03*
X013921Y009281D03*
X013921Y009288D03*
X013921Y009294D03*
X013921Y009300D03*
X013921Y009307D03*
X013921Y009313D03*
X013921Y009319D03*
X013921Y009326D03*
X013921Y009332D03*
X013921Y009338D03*
X013921Y009344D03*
X013921Y009351D03*
X013921Y009357D03*
X013921Y009363D03*
X013921Y009370D03*
X013921Y009376D03*
X013921Y009382D03*
X013921Y009389D03*
X013921Y009395D03*
X013921Y009401D03*
X013921Y009407D03*
X013921Y009414D03*
X013921Y009420D03*
X013921Y009426D03*
X013921Y009433D03*
X013921Y009439D03*
X013921Y009445D03*
X013921Y009452D03*
X013921Y009458D03*
X013921Y009464D03*
X013921Y009470D03*
X013921Y009477D03*
X013921Y009483D03*
X013921Y009489D03*
X013921Y009496D03*
X013921Y009502D03*
X013921Y009508D03*
X013921Y009515D03*
X013921Y009521D03*
X013921Y009527D03*
X013921Y009533D03*
X013921Y009540D03*
X013921Y009546D03*
X013921Y009552D03*
X013921Y009559D03*
X013921Y009565D03*
X013921Y009571D03*
X013921Y009578D03*
X013921Y009584D03*
X013921Y009590D03*
X013921Y009596D03*
X013921Y009603D03*
X013921Y009609D03*
X013921Y009615D03*
X013921Y009622D03*
X013921Y009628D03*
X013921Y009634D03*
X013921Y009641D03*
X013921Y009647D03*
X013921Y009653D03*
X013921Y009659D03*
X013921Y009666D03*
X013921Y009672D03*
X013921Y009678D03*
X013921Y009685D03*
X013921Y009691D03*
X013921Y009697D03*
X013921Y009704D03*
X013921Y009710D03*
X013921Y009716D03*
X013921Y009722D03*
X013921Y009729D03*
X013921Y009735D03*
X013921Y009741D03*
X013921Y009748D03*
X013921Y009754D03*
X013921Y009760D03*
X013921Y009767D03*
X013921Y009773D03*
X013921Y009779D03*
X013921Y009785D03*
X013921Y009792D03*
X013921Y009798D03*
X013921Y009804D03*
X013921Y009811D03*
X013921Y009817D03*
X013921Y009823D03*
X013921Y009830D03*
X013921Y009836D03*
X013921Y009842D03*
X013921Y009848D03*
X013921Y009855D03*
X013921Y009861D03*
X013921Y009867D03*
X013921Y009874D03*
X013921Y009880D03*
X013921Y009886D03*
X013921Y009893D03*
X013921Y009899D03*
X013921Y009905D03*
X013921Y009911D03*
X013921Y009918D03*
X013921Y009924D03*
X013921Y009930D03*
X016529Y007058D03*
X016529Y007052D03*
X016529Y007045D03*
X016529Y007039D03*
X016529Y007033D03*
X016529Y007026D03*
X016529Y007020D03*
X016529Y007014D03*
X016529Y007007D03*
X016529Y007001D03*
X016529Y006995D03*
X016529Y006989D03*
X016529Y006982D03*
X016529Y006976D03*
X016529Y006970D03*
X016529Y006963D03*
X016529Y006957D03*
X016529Y006951D03*
X016529Y006944D03*
X016529Y006938D03*
X016529Y006932D03*
X016529Y006926D03*
X016529Y006919D03*
X016529Y006913D03*
X016529Y006907D03*
X016529Y006900D03*
X016529Y006894D03*
X016529Y006888D03*
X016529Y006881D03*
X016529Y006875D03*
X016529Y006869D03*
X016529Y006863D03*
X016529Y006856D03*
X016529Y006850D03*
X016529Y006844D03*
X016529Y006837D03*
X016529Y006831D03*
X016529Y006825D03*
X016529Y006819D03*
X016529Y006812D03*
X016529Y006806D03*
X016529Y006800D03*
X016529Y006793D03*
X016529Y006787D03*
X016529Y006781D03*
X016529Y006774D03*
X016529Y006768D03*
X016529Y006762D03*
X016529Y006756D03*
X016529Y006749D03*
X016529Y006743D03*
X016529Y006737D03*
X016529Y006730D03*
X016529Y006724D03*
X016529Y006718D03*
X016529Y006711D03*
X016529Y006705D03*
X016529Y006699D03*
X016529Y006693D03*
X016529Y006686D03*
X016529Y006680D03*
X016529Y006674D03*
X016529Y006667D03*
X016529Y006661D03*
X016529Y006655D03*
X016529Y006648D03*
X016529Y006642D03*
X016529Y006636D03*
X016529Y006630D03*
X016529Y006623D03*
X016529Y006617D03*
X016529Y006611D03*
X016529Y006604D03*
X016529Y006598D03*
X016529Y006592D03*
X016529Y006585D03*
X016529Y006579D03*
X016529Y006573D03*
X016529Y006567D03*
X016529Y006560D03*
X016529Y006554D03*
X016529Y006548D03*
X016529Y006541D03*
X016529Y006535D03*
X016529Y006529D03*
X016529Y006522D03*
X016529Y006516D03*
X016529Y006510D03*
X016529Y006504D03*
X016529Y006497D03*
X016529Y006491D03*
X016529Y006485D03*
X016529Y006478D03*
X016529Y006472D03*
X016529Y006466D03*
X016529Y006459D03*
X016529Y006453D03*
X016529Y006447D03*
X016529Y006441D03*
X016529Y006434D03*
X016529Y006428D03*
X016529Y006422D03*
X016529Y006415D03*
X016529Y006409D03*
X016529Y006403D03*
X016529Y006396D03*
D59*
X016853Y007064D03*
X016853Y007070D03*
X016853Y007077D03*
X016853Y007083D03*
X016853Y007089D03*
X016853Y007096D03*
X016853Y007102D03*
X016853Y007108D03*
X016853Y007115D03*
X016853Y007121D03*
X016853Y007127D03*
X016853Y007133D03*
X016853Y007140D03*
X016853Y007146D03*
X016853Y007152D03*
X016853Y007159D03*
X016853Y007165D03*
X016853Y007171D03*
X016853Y007178D03*
X016853Y007184D03*
X016853Y007190D03*
X015562Y008526D03*
X015562Y008532D03*
X015562Y008538D03*
X015562Y008544D03*
X015562Y008551D03*
X015562Y008557D03*
X015562Y008563D03*
X015562Y008570D03*
X015562Y008576D03*
X015562Y008582D03*
X015562Y008589D03*
X015562Y008595D03*
X015562Y008601D03*
X015562Y008607D03*
X015562Y008614D03*
X015562Y008620D03*
X015562Y008626D03*
X015562Y008633D03*
X015562Y008639D03*
X015562Y008645D03*
X015562Y008652D03*
X015562Y008658D03*
X014246Y009937D03*
X014246Y009943D03*
X014246Y009949D03*
X014246Y009956D03*
X014246Y009962D03*
X014246Y009968D03*
X014246Y009974D03*
X014246Y009981D03*
X014246Y009987D03*
X014246Y009993D03*
X014246Y010000D03*
X014246Y010006D03*
X014246Y010012D03*
X014246Y010019D03*
X014246Y010025D03*
X014246Y010031D03*
X014246Y010037D03*
X014246Y010044D03*
X014246Y010050D03*
X014246Y010056D03*
X014246Y010063D03*
D60*
X019578Y008217D03*
X019578Y008211D03*
X019578Y008204D03*
X019578Y008198D03*
X019578Y008192D03*
X019578Y008185D03*
X019578Y008179D03*
X019578Y008173D03*
X019578Y008167D03*
X019578Y008160D03*
X019578Y008154D03*
X019578Y008148D03*
X019578Y008141D03*
X019578Y008135D03*
X019578Y008129D03*
X019578Y008122D03*
X019578Y008116D03*
X019578Y008110D03*
X019578Y008104D03*
X019578Y008097D03*
X019578Y008091D03*
X019578Y008085D03*
X019578Y007196D03*
X019578Y007190D03*
X019578Y007184D03*
X019578Y007178D03*
X019578Y007171D03*
X019578Y007165D03*
X019578Y007159D03*
X019578Y007152D03*
X019578Y007146D03*
X019578Y007140D03*
X019578Y007133D03*
X019578Y007127D03*
X019578Y007121D03*
X019578Y007115D03*
X019578Y007108D03*
X019578Y007102D03*
X019578Y007096D03*
X019578Y007089D03*
X019578Y007083D03*
X019578Y007077D03*
D61*
X016857Y007196D03*
D62*
X018576Y007203D03*
X018576Y007209D03*
X018576Y007215D03*
X018576Y007222D03*
X018576Y007228D03*
X018576Y007234D03*
X018576Y007241D03*
X018576Y007247D03*
X018576Y007253D03*
X018576Y007259D03*
X018576Y007266D03*
X018576Y007272D03*
X018576Y007278D03*
X018576Y007285D03*
X018576Y007291D03*
X018576Y007297D03*
X018576Y007304D03*
X018576Y007310D03*
X018576Y007316D03*
X018576Y007322D03*
X018576Y007329D03*
X018576Y007335D03*
X018576Y007341D03*
X018576Y007348D03*
X018576Y007354D03*
X018576Y007360D03*
X018576Y007367D03*
X018576Y007373D03*
X018576Y007379D03*
X018576Y007385D03*
X018576Y007392D03*
X018576Y007398D03*
X018576Y007404D03*
X018576Y007411D03*
X018576Y007417D03*
X018576Y007423D03*
X018576Y007430D03*
X018576Y007436D03*
X018576Y007442D03*
X018576Y007448D03*
X018576Y007455D03*
X018576Y007461D03*
X018576Y007467D03*
X018576Y007474D03*
X018576Y007480D03*
X018576Y007486D03*
X018576Y007493D03*
X018576Y007499D03*
X018576Y007505D03*
X018576Y007511D03*
X018576Y007518D03*
X018576Y007524D03*
X018576Y007530D03*
X018576Y007537D03*
X018576Y007543D03*
X018576Y007549D03*
X018576Y007556D03*
X018576Y007562D03*
X018576Y007568D03*
X018576Y007574D03*
X018576Y007581D03*
X018576Y007587D03*
X018576Y007593D03*
X018576Y007600D03*
X018576Y007606D03*
X018576Y007612D03*
X018576Y007619D03*
X018576Y007625D03*
X018576Y007631D03*
X018576Y007637D03*
X018576Y007644D03*
X018576Y007650D03*
X018576Y007656D03*
X018576Y007663D03*
X018576Y007669D03*
X018576Y007675D03*
D63*
X018579Y007681D03*
X018579Y007688D03*
X018579Y007694D03*
X018579Y007700D03*
X018579Y007707D03*
X018579Y007713D03*
X018579Y007719D03*
X018579Y007726D03*
X018579Y007732D03*
D64*
X018583Y007738D03*
X018583Y007744D03*
X018583Y007751D03*
X018583Y007757D03*
X018583Y007763D03*
D65*
X018586Y007770D03*
X018586Y007776D03*
X018586Y007782D03*
X018586Y007789D03*
D66*
X018589Y007795D03*
X018589Y007801D03*
X018589Y007807D03*
D67*
X018592Y007814D03*
X018592Y007820D03*
X018592Y007826D03*
D68*
X018595Y007833D03*
X018595Y007839D03*
X018595Y007845D03*
D69*
X018598Y007852D03*
X018598Y007858D03*
X018598Y007864D03*
D70*
X018601Y007870D03*
X018601Y007877D03*
D71*
X018605Y007883D03*
X018605Y007889D03*
D72*
X018608Y007896D03*
X018608Y007902D03*
D73*
X018611Y007908D03*
X018611Y007915D03*
D74*
X018614Y007921D03*
X018614Y007927D03*
D75*
X018617Y007933D03*
D76*
X018620Y007940D03*
X018620Y007946D03*
D77*
X018623Y007952D03*
X018623Y007959D03*
D78*
X018627Y007965D03*
D79*
X018630Y007971D03*
D80*
X018633Y007978D03*
X018633Y007984D03*
D81*
X018636Y007990D03*
D82*
X018639Y007996D03*
D83*
X018642Y008003D03*
X018642Y008009D03*
D84*
X018646Y008015D03*
D85*
X018649Y008022D03*
D86*
X018652Y008028D03*
D87*
X018655Y008034D03*
D88*
X018658Y008041D03*
D89*
X018661Y008047D03*
D90*
X018664Y008053D03*
D91*
X018668Y008059D03*
D92*
X018671Y008066D03*
D93*
X018674Y008072D03*
D94*
X018677Y008078D03*
D95*
X016960Y008085D03*
D96*
X016964Y008091D03*
X015672Y009559D03*
X014356Y010963D03*
D97*
X014359Y010970D03*
X016967Y008097D03*
D98*
X016970Y008104D03*
X015679Y009565D03*
X014362Y010976D03*
D99*
X015682Y009571D03*
X016973Y008110D03*
D100*
X016979Y008116D03*
X014372Y010989D03*
D101*
X014375Y010995D03*
X015691Y009584D03*
X016983Y008122D03*
D102*
X016989Y008129D03*
X014381Y011001D03*
D103*
X015701Y009596D03*
X016992Y008135D03*
D104*
X016998Y008141D03*
X015707Y009603D03*
X014390Y011014D03*
D105*
X014397Y011020D03*
X017005Y008148D03*
D106*
X017011Y008154D03*
X014403Y011026D03*
D107*
X014409Y011033D03*
X017017Y008160D03*
D108*
X017023Y008167D03*
X014416Y011039D03*
D109*
X014422Y011045D03*
X017030Y008173D03*
D110*
X017036Y008179D03*
X015745Y009641D03*
D111*
X017046Y008185D03*
D112*
X017055Y008192D03*
D113*
X017064Y008198D03*
X015773Y009659D03*
D114*
X017077Y008204D03*
D115*
X017093Y008211D03*
D116*
X017112Y008217D03*
X015820Y009678D03*
D117*
X018932Y009678D03*
X018932Y009672D03*
X018932Y009666D03*
X018932Y009659D03*
X018932Y009653D03*
X018932Y009647D03*
X018932Y009641D03*
X018932Y009634D03*
X018932Y009628D03*
X018932Y009622D03*
X018932Y009615D03*
X018932Y009609D03*
X018932Y009603D03*
X018932Y009596D03*
X018932Y009590D03*
X018932Y009584D03*
X018932Y009578D03*
X018932Y009571D03*
X018932Y009565D03*
X018932Y009559D03*
X018932Y009552D03*
X018932Y008658D03*
X018932Y008652D03*
X018932Y008645D03*
X018932Y008639D03*
X018932Y008633D03*
X018932Y008626D03*
X018932Y008620D03*
X018932Y008614D03*
X018932Y008607D03*
X018932Y008601D03*
X018932Y008595D03*
X018932Y008589D03*
X018932Y008582D03*
X018932Y008576D03*
X018932Y008570D03*
X018932Y008563D03*
X018932Y008557D03*
X018932Y008551D03*
X018932Y008544D03*
X018932Y008538D03*
D118*
X017931Y008664D03*
X017931Y008670D03*
X017931Y008677D03*
X017931Y008683D03*
X017931Y008689D03*
X017931Y008696D03*
X017931Y008702D03*
X017931Y008708D03*
X017931Y008715D03*
X017931Y008721D03*
X017931Y008727D03*
X017931Y008733D03*
X017931Y008740D03*
X017931Y008746D03*
X017931Y008752D03*
X017931Y008759D03*
X017931Y008765D03*
X017931Y008771D03*
X017931Y008778D03*
X017931Y008784D03*
X017931Y008790D03*
X017931Y008796D03*
X017931Y008803D03*
X017931Y008809D03*
X017931Y008815D03*
X017931Y008822D03*
X017931Y008828D03*
X017931Y008834D03*
X017931Y008841D03*
X017931Y008847D03*
X017931Y008853D03*
X017931Y008859D03*
X017931Y008866D03*
X017931Y008872D03*
X017931Y008878D03*
X017931Y008885D03*
X017931Y008891D03*
X017931Y008897D03*
X017931Y008904D03*
X017931Y008910D03*
X017931Y008916D03*
X017931Y008922D03*
X017931Y008929D03*
X017931Y008935D03*
X017931Y008941D03*
X017931Y008948D03*
X017931Y008954D03*
X017931Y008960D03*
X017931Y008967D03*
X017931Y008973D03*
X017931Y008979D03*
X017931Y008985D03*
X017931Y008992D03*
X017931Y008998D03*
X017931Y009004D03*
X017931Y009011D03*
X017931Y009017D03*
X017931Y009023D03*
X017931Y009030D03*
X017931Y009036D03*
X017931Y009042D03*
X017931Y009048D03*
X017931Y009055D03*
X017931Y009061D03*
X017931Y009067D03*
X017931Y009074D03*
X017931Y009080D03*
X017931Y009086D03*
X017931Y009093D03*
X017931Y009099D03*
X017931Y009105D03*
X017931Y009111D03*
X017931Y009118D03*
X017931Y009124D03*
X017931Y009130D03*
X017931Y009137D03*
X017931Y009143D03*
X017931Y009149D03*
X017931Y009156D03*
X017931Y009162D03*
X017931Y009168D03*
D119*
X013918Y009168D03*
X013918Y009162D03*
X013918Y009156D03*
X013918Y009149D03*
X013918Y009143D03*
X013918Y009137D03*
X013918Y009130D03*
X013918Y009124D03*
X013918Y009118D03*
X013918Y009111D03*
X013918Y009105D03*
X013918Y009099D03*
X013918Y009093D03*
X013918Y009086D03*
X013918Y009080D03*
X013918Y009074D03*
X013918Y009067D03*
X013918Y009061D03*
X013918Y009055D03*
X013918Y009048D03*
X013918Y009042D03*
X013918Y009036D03*
X013918Y009030D03*
X013918Y009023D03*
X013918Y009017D03*
X013918Y009011D03*
X013918Y009004D03*
X013918Y008998D03*
X013918Y008992D03*
X013918Y008985D03*
X013918Y008979D03*
X013918Y008973D03*
X013918Y008967D03*
X013918Y008960D03*
X013918Y008954D03*
X013918Y008948D03*
X013918Y008941D03*
X013918Y008935D03*
X013918Y008929D03*
X013918Y008922D03*
X013918Y008916D03*
X013918Y008910D03*
X013918Y008904D03*
X013918Y008897D03*
X013918Y008891D03*
X013918Y008885D03*
X013918Y008878D03*
X013918Y008872D03*
X013918Y008866D03*
X013918Y008859D03*
X013918Y008853D03*
X013918Y008847D03*
X013918Y008841D03*
X013918Y008834D03*
X013918Y008828D03*
X013918Y008822D03*
X013918Y008815D03*
X013918Y008809D03*
X013918Y008803D03*
X013918Y008796D03*
X013918Y008790D03*
X013918Y008784D03*
X013918Y009174D03*
X013918Y009181D03*
X013918Y009187D03*
X013918Y009193D03*
X013918Y009200D03*
X013918Y009206D03*
X013918Y009212D03*
X013918Y009219D03*
X013918Y009225D03*
X013918Y009231D03*
X013918Y009237D03*
X013918Y009244D03*
X013918Y009250D03*
X013918Y009256D03*
D120*
X017934Y009212D03*
X017934Y009206D03*
X017934Y009200D03*
X017934Y009193D03*
X017934Y009187D03*
X017934Y009181D03*
X017934Y009174D03*
D121*
X017937Y009219D03*
X017937Y009225D03*
X017937Y009231D03*
X017937Y009237D03*
D122*
X017940Y009244D03*
X017940Y009250D03*
X017940Y009256D03*
X017940Y009263D03*
D123*
X017943Y009269D03*
X017943Y009275D03*
X017943Y009281D03*
D124*
X017946Y009288D03*
X017946Y009294D03*
X017946Y009300D03*
D125*
X017949Y009307D03*
X017949Y009313D03*
D126*
X017953Y009319D03*
X017953Y009326D03*
X017953Y009332D03*
D127*
X017956Y009338D03*
X017956Y009344D03*
D128*
X017959Y009351D03*
X017959Y009357D03*
D129*
X017962Y009363D03*
X017962Y009370D03*
D130*
X017965Y009376D03*
X017965Y009382D03*
D131*
X017968Y009389D03*
X017968Y009395D03*
D132*
X017972Y009401D03*
D133*
X017975Y009407D03*
X017975Y009414D03*
D134*
X017978Y009420D03*
D135*
X017981Y009426D03*
X017981Y009433D03*
D136*
X017984Y009439D03*
D137*
X017987Y009445D03*
X017987Y009452D03*
D138*
X017990Y009458D03*
D139*
X017994Y009464D03*
D140*
X017997Y009470D03*
D141*
X018000Y009477D03*
D142*
X018003Y009483D03*
X018003Y009489D03*
D143*
X018006Y009496D03*
D144*
X018009Y009502D03*
D145*
X018012Y009508D03*
D146*
X018016Y009515D03*
D147*
X018019Y009521D03*
D148*
X018022Y009527D03*
D149*
X018025Y009533D03*
D150*
X018031Y009540D03*
D151*
X018034Y009546D03*
D152*
X015669Y009552D03*
D153*
X015685Y009578D03*
X014368Y010982D03*
D154*
X015694Y009590D03*
D155*
X015710Y009609D03*
D156*
X015716Y009615D03*
D157*
X015723Y009622D03*
D158*
X015729Y009628D03*
D159*
X015735Y009634D03*
D160*
X015751Y009647D03*
D161*
X015760Y009653D03*
D162*
X015783Y009666D03*
D163*
X015798Y009672D03*
D164*
X018274Y009943D03*
X018274Y009949D03*
X018274Y009956D03*
X018274Y009962D03*
X018274Y009968D03*
X018274Y009974D03*
X018274Y009981D03*
X018274Y009987D03*
X018274Y009993D03*
X018274Y010000D03*
X018274Y010006D03*
X018274Y010012D03*
X018274Y010019D03*
X018274Y010025D03*
X018274Y010031D03*
X018274Y010037D03*
X018274Y010044D03*
X018274Y010050D03*
X018274Y010056D03*
X018274Y010063D03*
X018274Y010957D03*
X018274Y010963D03*
X018274Y010970D03*
X018274Y010976D03*
X018274Y010982D03*
X018274Y010989D03*
X018274Y010995D03*
X018274Y011001D03*
X018274Y011007D03*
X018274Y011014D03*
X018274Y011020D03*
X018274Y011026D03*
X018274Y011033D03*
X018274Y011039D03*
X018274Y011045D03*
X018274Y011052D03*
X018274Y011058D03*
X018274Y011064D03*
X018274Y011070D03*
X018274Y011077D03*
X018274Y011083D03*
X018274Y011089D03*
D165*
X017272Y010573D03*
X017272Y010567D03*
X017272Y010560D03*
X017272Y010554D03*
X017272Y010548D03*
X017272Y010541D03*
X017272Y010535D03*
X017272Y010529D03*
X017272Y010522D03*
X017272Y010516D03*
X017272Y010510D03*
X017272Y010504D03*
X017272Y010497D03*
X017272Y010491D03*
X017272Y010485D03*
X017272Y010478D03*
X017272Y010472D03*
X017272Y010466D03*
X017272Y010459D03*
X017272Y010453D03*
X017272Y010447D03*
X017272Y010441D03*
X017272Y010434D03*
X017272Y010428D03*
X017272Y010422D03*
X017272Y010415D03*
X017272Y010409D03*
X017272Y010403D03*
X017272Y010396D03*
X017272Y010390D03*
X017272Y010384D03*
X017272Y010378D03*
X017272Y010371D03*
X017272Y010365D03*
X017272Y010359D03*
X017272Y010352D03*
X017272Y010346D03*
X017272Y010340D03*
X017272Y010333D03*
X017272Y010327D03*
X017272Y010321D03*
X017272Y010315D03*
X017272Y010308D03*
X017272Y010302D03*
X017272Y010296D03*
X017272Y010289D03*
X017272Y010283D03*
X017272Y010277D03*
X017272Y010270D03*
X017272Y010264D03*
X017272Y010258D03*
X017272Y010252D03*
X017272Y010245D03*
X017272Y010239D03*
X017272Y010233D03*
X017272Y010226D03*
X017272Y010220D03*
X017272Y010214D03*
X017272Y010207D03*
X017272Y010201D03*
X017272Y010195D03*
X017272Y010189D03*
X017272Y010182D03*
X017272Y010176D03*
X017272Y010170D03*
X017272Y010163D03*
X017272Y010157D03*
X017272Y010151D03*
X017272Y010144D03*
X017272Y010138D03*
X017272Y010132D03*
X017272Y010126D03*
X017272Y010119D03*
X017272Y010113D03*
X017272Y010107D03*
X017272Y010100D03*
X017272Y010094D03*
X017272Y010088D03*
X017272Y010081D03*
X017272Y010075D03*
X017272Y010069D03*
D166*
X017275Y010579D03*
X017275Y010585D03*
X017275Y010592D03*
X017275Y010598D03*
X017275Y010604D03*
X017275Y010611D03*
X017275Y010617D03*
D167*
X017279Y010623D03*
X017279Y010630D03*
X017279Y010636D03*
X017279Y010642D03*
D168*
X017282Y010648D03*
X017282Y010655D03*
X017282Y010661D03*
X017282Y010667D03*
D169*
X017285Y010674D03*
X017285Y010680D03*
X017285Y010686D03*
D170*
X017288Y010693D03*
X017288Y010699D03*
X017288Y010705D03*
D171*
X017291Y010711D03*
X017291Y010718D03*
X017291Y010724D03*
D172*
X017294Y010730D03*
X017294Y010737D03*
D173*
X017297Y010743D03*
X017297Y010749D03*
D174*
X017301Y010756D03*
X017301Y010762D03*
D175*
X017304Y010768D03*
X017304Y010774D03*
D176*
X017307Y010781D03*
X017307Y010787D03*
D177*
X017310Y010793D03*
X017310Y010800D03*
D178*
X017313Y010806D03*
X017313Y010812D03*
D179*
X017316Y010819D03*
D180*
X017320Y010825D03*
X017320Y010831D03*
D181*
X017323Y010837D03*
D182*
X017326Y010844D03*
X017326Y010850D03*
D183*
X017329Y010856D03*
D184*
X017332Y010863D03*
D185*
X017335Y010869D03*
X017335Y010875D03*
D186*
X017338Y010881D03*
D187*
X017342Y010888D03*
D188*
X017345Y010894D03*
D189*
X017348Y010900D03*
D190*
X017351Y010907D03*
D191*
X017354Y010913D03*
D192*
X017357Y010919D03*
D193*
X017360Y010926D03*
D194*
X017364Y010932D03*
D195*
X017367Y010938D03*
D196*
X017370Y010944D03*
D197*
X017373Y010951D03*
D198*
X014349Y010957D03*
D199*
X014387Y011007D03*
D200*
X014431Y011052D03*
D201*
X014441Y011058D03*
D202*
X014450Y011064D03*
D203*
X014460Y011070D03*
D204*
X014472Y011077D03*
D205*
X014488Y011083D03*
D206*
X014520Y011089D03*
D207*
X010366Y012854D02*
X010366Y001661D01*
X009866Y001661D01*
X009866Y001161D01*
X009185Y001161D01*
X004854Y001161D02*
X004116Y001161D01*
X004116Y001661D01*
X003616Y001661D01*
X003577Y001661D02*
X003577Y012854D01*
X010366Y012854D01*
X007475Y014669D02*
X007475Y015169D01*
X007343Y015169D02*
X007343Y014669D01*
X007093Y014419D01*
X005593Y014419D01*
X005343Y014669D01*
X005343Y015169D01*
X005593Y015419D01*
X007093Y015419D01*
X007343Y015669D01*
X007343Y016169D01*
X007093Y016419D01*
X005593Y016419D01*
X005343Y016669D01*
X005343Y017169D01*
X005593Y017419D01*
X007093Y017419D01*
X007343Y017169D01*
X007343Y016669D01*
X007093Y016419D01*
X007093Y015419D02*
X007343Y015169D01*
X005593Y015419D02*
X005343Y015669D01*
X005343Y016169D01*
X005593Y016419D01*
X004624Y016569D02*
X004624Y016069D01*
X004374Y015819D01*
X003874Y015819D01*
X003624Y016069D01*
X003624Y016569D01*
X003874Y016819D01*
X004374Y016819D01*
X004624Y016569D01*
X004374Y016819D02*
X004624Y017069D01*
X004624Y017569D01*
X004374Y017819D01*
X003874Y017819D01*
X003624Y018069D01*
X003624Y018569D01*
X003874Y018819D01*
X004374Y018819D01*
X004624Y018569D01*
X004624Y018069D01*
X004374Y017819D01*
X003874Y017819D02*
X003624Y017569D01*
X003624Y017069D01*
X003874Y016819D01*
X003874Y015819D02*
X003624Y015569D01*
X003624Y015069D01*
X003874Y014819D01*
X004374Y014819D01*
X004624Y014569D01*
X004624Y014069D01*
X004374Y013819D01*
X003874Y013819D01*
X003624Y014069D01*
X003624Y014569D01*
X003874Y014819D01*
X004374Y014819D02*
X004624Y015069D01*
X004624Y015569D01*
X004374Y015819D01*
X004374Y018819D02*
X004624Y019069D01*
X004624Y019569D01*
X004374Y019819D01*
X003874Y019819D01*
X003624Y019569D01*
X003624Y019069D01*
X003874Y018819D01*
X011477Y022825D02*
X011891Y022825D01*
X013706Y022818D02*
X014120Y022818D01*
X013913Y023025D02*
X013913Y022612D01*
X017381Y022862D02*
X017381Y022074D01*
X017784Y022468D01*
X017381Y022862D01*
X020488Y022825D02*
X020488Y022037D01*
X020891Y022431D01*
X020488Y022825D01*
X020511Y019366D02*
X020511Y018578D01*
X020914Y018972D01*
X020511Y019366D01*
X020803Y017805D02*
X022204Y017805D01*
X022204Y016104D01*
X020803Y016104D01*
X020803Y017805D01*
X019905Y017303D02*
X019907Y017318D01*
X019913Y017331D01*
X019922Y017343D01*
X019933Y017352D01*
X019947Y017358D01*
X019962Y017360D01*
X019977Y017358D01*
X019990Y017352D01*
X020002Y017343D01*
X020011Y017332D01*
X020017Y017318D01*
X020019Y017303D01*
X020017Y017288D01*
X020011Y017275D01*
X020002Y017263D01*
X019991Y017254D01*
X019977Y017248D01*
X019962Y017246D01*
X019947Y017248D01*
X019934Y017254D01*
X019922Y017263D01*
X019913Y017274D01*
X019907Y017288D01*
X019905Y017303D01*
D208*
X017275Y014535D02*
X017157Y014535D01*
X017127Y014506D01*
X017127Y014447D01*
X017157Y014417D01*
X017186Y014417D01*
X017216Y014447D01*
X017216Y014535D01*
X017275Y014535D02*
X017304Y014506D01*
X017304Y014447D01*
X017275Y014417D01*
X017304Y014354D02*
X017245Y014295D01*
X017245Y014324D02*
X017245Y014236D01*
X017304Y014236D02*
X017127Y014236D01*
X017127Y014324D01*
X017157Y014354D01*
X017216Y014354D01*
X017245Y014324D01*
X016856Y014311D02*
X016856Y014429D01*
X016856Y014370D02*
X016679Y014370D01*
X016738Y014311D01*
X016708Y014248D02*
X016826Y014248D01*
X016856Y014218D01*
X016856Y014159D01*
X016826Y014130D01*
X016708Y014130D01*
X016679Y014159D01*
X016679Y014218D01*
X016708Y014248D01*
X016797Y014189D02*
X016856Y014248D01*
X016429Y014231D02*
X016252Y014231D01*
X016252Y014320D01*
X016281Y014349D01*
X016340Y014349D01*
X016370Y014320D01*
X016370Y014231D01*
X016370Y014290D02*
X016429Y014349D01*
X016429Y014412D02*
X016429Y014530D01*
X016429Y014471D02*
X016252Y014471D01*
X016311Y014412D01*
X016281Y014594D02*
X016252Y014623D01*
X016252Y014682D01*
X016281Y014712D01*
X016399Y014594D01*
X016429Y014623D01*
X016429Y014682D01*
X016399Y014712D01*
X016281Y014712D01*
X016281Y014594D02*
X016399Y014594D01*
X015956Y014591D02*
X015838Y014709D01*
X015808Y014709D01*
X015779Y014679D01*
X015779Y014620D01*
X015808Y014591D01*
X015808Y014527D02*
X015779Y014498D01*
X015779Y014439D01*
X015808Y014409D01*
X015808Y014346D02*
X015867Y014346D01*
X015897Y014317D01*
X015897Y014228D01*
X015956Y014228D02*
X015779Y014228D01*
X015779Y014317D01*
X015808Y014346D01*
X015897Y014287D02*
X015956Y014346D01*
X015956Y014409D02*
X015838Y014527D01*
X015808Y014527D01*
X015956Y014527D02*
X015956Y014409D01*
X015956Y014591D02*
X015956Y014709D01*
X015663Y016415D02*
X015486Y016415D01*
X015486Y016504D01*
X015515Y016533D01*
X015574Y016533D01*
X015604Y016504D01*
X015604Y016415D01*
X015604Y016474D02*
X015663Y016533D01*
X015633Y016596D02*
X015663Y016626D01*
X015663Y016685D01*
X015633Y016714D01*
X015604Y016714D01*
X015574Y016685D01*
X015574Y016626D01*
X015545Y016596D01*
X015515Y016596D01*
X015486Y016626D01*
X015486Y016685D01*
X015515Y016714D01*
X015486Y016778D02*
X015663Y016778D01*
X015663Y016896D01*
X015663Y016959D02*
X015486Y016959D01*
X015663Y017077D01*
X015486Y017077D01*
X015515Y017140D02*
X015545Y017140D01*
X015574Y017170D01*
X015574Y017229D01*
X015604Y017258D01*
X015633Y017258D01*
X015663Y017229D01*
X015663Y017170D01*
X015633Y017140D01*
X015515Y017140D02*
X015486Y017170D01*
X015486Y017229D01*
X015515Y017258D01*
X015486Y017321D02*
X015663Y017321D01*
X015663Y017439D01*
X015574Y017380D02*
X015574Y017321D01*
X015486Y017321D02*
X015486Y017439D01*
X015486Y016896D02*
X015486Y016778D01*
X015574Y016778D02*
X015574Y016837D01*
X014623Y016633D02*
X014505Y016515D01*
X014535Y016486D01*
X014594Y016486D01*
X014623Y016515D01*
X014623Y016633D01*
X014594Y016663D01*
X014535Y016663D01*
X014505Y016633D01*
X014505Y016515D01*
X014442Y016486D02*
X014324Y016486D01*
X014383Y016486D02*
X014383Y016663D01*
X014324Y016604D01*
X014261Y016633D02*
X014231Y016663D01*
X014172Y016663D01*
X014143Y016633D01*
X014143Y016515D01*
X014172Y016486D01*
X014231Y016486D01*
X014261Y016515D01*
X014057Y016426D02*
X014057Y016396D01*
X014027Y016367D01*
X014057Y016337D01*
X014057Y016308D01*
X014027Y016278D01*
X013968Y016278D01*
X013939Y016308D01*
X013875Y016278D02*
X013757Y016278D01*
X013816Y016278D02*
X013816Y016455D01*
X013757Y016396D01*
X013694Y016426D02*
X013664Y016455D01*
X013605Y016455D01*
X013576Y016426D01*
X013576Y016308D01*
X013605Y016278D01*
X013664Y016278D01*
X013694Y016308D01*
X013939Y016426D02*
X013968Y016455D01*
X014027Y016455D01*
X014057Y016426D01*
X014027Y016367D02*
X013998Y016367D01*
X013972Y016827D02*
X013943Y016857D01*
X013972Y016827D02*
X014031Y016827D01*
X014061Y016857D01*
X014061Y016916D01*
X014031Y016945D01*
X014002Y016945D01*
X013943Y016916D01*
X013943Y017004D01*
X014061Y017004D01*
X013879Y016975D02*
X013850Y017004D01*
X013791Y017004D01*
X013761Y016975D01*
X013698Y016975D02*
X013698Y016916D01*
X013669Y016886D01*
X013580Y016886D01*
X013580Y016827D02*
X013580Y017004D01*
X013669Y017004D01*
X013698Y016975D01*
X013639Y016886D02*
X013698Y016827D01*
X013761Y016827D02*
X013879Y016945D01*
X013879Y016975D01*
X013879Y016827D02*
X013761Y016827D01*
X013785Y015867D02*
X013755Y015837D01*
X013785Y015867D02*
X013844Y015867D01*
X013873Y015837D01*
X013873Y015808D01*
X013755Y015690D01*
X013873Y015690D01*
X013936Y015778D02*
X014054Y015778D01*
X014025Y015690D02*
X014025Y015867D01*
X013936Y015778D01*
X013692Y015778D02*
X013662Y015749D01*
X013574Y015749D01*
X013633Y015749D02*
X013692Y015690D01*
X013692Y015778D02*
X013692Y015837D01*
X013662Y015867D01*
X013574Y015867D01*
X013574Y015690D01*
X013605Y015255D02*
X013576Y015226D01*
X013576Y015108D01*
X013605Y015078D01*
X013664Y015078D01*
X013694Y015108D01*
X013757Y015078D02*
X013875Y015078D01*
X013816Y015078D02*
X013816Y015255D01*
X013757Y015196D01*
X013694Y015226D02*
X013664Y015255D01*
X013605Y015255D01*
X013939Y015167D02*
X014057Y015167D01*
X014027Y015255D02*
X013939Y015167D01*
X014027Y015255D02*
X014027Y015078D01*
X014051Y014712D02*
X014051Y014683D01*
X013933Y014564D01*
X013933Y014535D01*
X013870Y014535D02*
X013752Y014535D01*
X013870Y014653D01*
X013870Y014683D01*
X013840Y014712D01*
X013781Y014712D01*
X013752Y014683D01*
X013688Y014683D02*
X013688Y014624D01*
X013659Y014594D01*
X013570Y014594D01*
X013570Y014535D02*
X013570Y014712D01*
X013659Y014712D01*
X013688Y014683D01*
X013629Y014594D02*
X013688Y014535D01*
X013933Y014712D02*
X014051Y014712D01*
X014044Y014193D02*
X013985Y014164D01*
X013926Y014105D01*
X014014Y014105D01*
X014044Y014075D01*
X014044Y014046D01*
X014014Y014016D01*
X013955Y014016D01*
X013926Y014046D01*
X013926Y014105D01*
X013863Y014134D02*
X013863Y014164D01*
X013833Y014193D01*
X013774Y014193D01*
X013745Y014164D01*
X013681Y014164D02*
X013681Y014105D01*
X013652Y014075D01*
X013563Y014075D01*
X013563Y014016D02*
X013563Y014193D01*
X013652Y014193D01*
X013681Y014164D01*
X013622Y014075D02*
X013681Y014016D01*
X013745Y014016D02*
X013863Y014134D01*
X013863Y014016D02*
X013745Y014016D01*
X012173Y017216D02*
X012055Y017216D01*
X012173Y017334D01*
X012173Y017364D01*
X012143Y017393D01*
X012084Y017393D01*
X012055Y017364D01*
X011992Y017364D02*
X011992Y017305D01*
X011962Y017275D01*
X011874Y017275D01*
X011874Y017216D02*
X011874Y017393D01*
X011962Y017393D01*
X011992Y017364D01*
X011933Y017275D02*
X011992Y017216D01*
X010765Y017631D02*
X010765Y017690D01*
X010735Y017719D01*
X010765Y017782D02*
X010765Y017900D01*
X010765Y017841D02*
X010588Y017841D01*
X010647Y017782D01*
X010617Y017719D02*
X010588Y017690D01*
X010588Y017631D01*
X010617Y017601D01*
X010735Y017601D01*
X010765Y017631D01*
X010735Y017964D02*
X010706Y017964D01*
X010676Y017993D01*
X010676Y018052D01*
X010706Y018082D01*
X010735Y018082D01*
X010765Y018052D01*
X010765Y017993D01*
X010735Y017964D01*
X010676Y017993D02*
X010647Y017964D01*
X010617Y017964D01*
X010588Y017993D01*
X010588Y018052D01*
X010617Y018082D01*
X010647Y018082D01*
X010676Y018052D01*
X010816Y018421D02*
X010816Y018598D01*
X010904Y018598D01*
X010934Y018568D01*
X010934Y018509D01*
X010904Y018480D01*
X010816Y018480D01*
X010875Y018480D02*
X010934Y018421D01*
X010997Y018421D02*
X011115Y018421D01*
X011056Y018421D02*
X011056Y018598D01*
X010997Y018539D01*
X011178Y018568D02*
X011208Y018598D01*
X011267Y018598D01*
X011296Y018568D01*
X011296Y018539D01*
X011178Y018421D01*
X011296Y018421D01*
X011300Y018728D02*
X011123Y018728D01*
X011123Y018816D01*
X011152Y018846D01*
X011211Y018846D01*
X011241Y018816D01*
X011241Y018728D01*
X011241Y018787D02*
X011300Y018846D01*
X011300Y018909D02*
X011300Y019027D01*
X011300Y018968D02*
X011123Y018968D01*
X011182Y018909D01*
X011182Y019090D02*
X011123Y019149D01*
X011300Y019149D01*
X011300Y019090D02*
X011300Y019208D01*
X011221Y019834D02*
X011103Y019834D01*
X011073Y019863D01*
X011073Y019922D01*
X011103Y019952D01*
X011132Y020015D02*
X011073Y020074D01*
X011250Y020074D01*
X011250Y020015D02*
X011250Y020133D01*
X011250Y020196D02*
X011132Y020314D01*
X011103Y020314D01*
X011073Y020285D01*
X011073Y020226D01*
X011103Y020196D01*
X011250Y020196D02*
X011250Y020314D01*
X011221Y019952D02*
X011250Y019922D01*
X011250Y019863D01*
X011221Y019834D01*
X010504Y021223D02*
X010386Y021223D01*
X010386Y021400D01*
X010323Y021400D02*
X010205Y021400D01*
X010205Y021223D01*
X010323Y021223D01*
X010264Y021311D02*
X010205Y021311D01*
X010142Y021223D02*
X010142Y021400D01*
X010024Y021400D02*
X010142Y021223D01*
X010024Y021223D02*
X010024Y021400D01*
X009961Y021341D02*
X009961Y021223D01*
X009961Y021311D02*
X009843Y021311D01*
X009843Y021341D02*
X009902Y021400D01*
X009961Y021341D01*
X009843Y021341D02*
X009843Y021223D01*
X009779Y021311D02*
X009750Y021282D01*
X009661Y021282D01*
X009661Y021223D02*
X009661Y021400D01*
X009750Y021400D01*
X009779Y021370D01*
X009779Y021311D01*
X009467Y021363D02*
X009349Y021363D01*
X009408Y021363D02*
X009408Y021540D01*
X009349Y021481D01*
X009285Y021510D02*
X009285Y021451D01*
X009256Y021422D01*
X009167Y021422D01*
X009167Y021363D02*
X009167Y021540D01*
X009256Y021540D01*
X009285Y021510D01*
X009226Y021422D02*
X009285Y021363D01*
X009591Y020913D02*
X009768Y020913D01*
X009768Y020854D02*
X009768Y020972D01*
X009650Y020854D02*
X009591Y020913D01*
X009621Y020791D02*
X009591Y020761D01*
X009591Y020673D01*
X009768Y020673D01*
X009768Y020761D01*
X009739Y020791D01*
X009621Y020791D01*
X009459Y020707D02*
X009459Y020677D01*
X009430Y020648D01*
X009371Y020648D01*
X009341Y020677D01*
X009341Y020707D01*
X009371Y020736D01*
X009430Y020736D01*
X009459Y020707D01*
X009430Y020648D02*
X009459Y020618D01*
X009459Y020589D01*
X009430Y020559D01*
X009371Y020559D01*
X009341Y020589D01*
X009341Y020618D01*
X009371Y020648D01*
X009278Y020648D02*
X009248Y020618D01*
X009160Y020618D01*
X009160Y020559D02*
X009160Y020736D01*
X009248Y020736D01*
X009278Y020707D01*
X009278Y020648D01*
X009219Y020618D02*
X009278Y020559D01*
X009258Y019812D02*
X009229Y019783D01*
X009258Y019812D02*
X009317Y019812D01*
X009347Y019783D01*
X009347Y019753D01*
X009229Y019635D01*
X009347Y019635D01*
X009410Y019665D02*
X009410Y019694D01*
X009440Y019724D01*
X009499Y019724D01*
X009528Y019694D01*
X009528Y019665D01*
X009499Y019635D01*
X009440Y019635D01*
X009410Y019665D01*
X009440Y019724D02*
X009410Y019753D01*
X009410Y019783D01*
X009440Y019812D01*
X009499Y019812D01*
X009528Y019783D01*
X009528Y019753D01*
X009499Y019724D01*
X009166Y019724D02*
X009166Y019783D01*
X009136Y019812D01*
X009048Y019812D01*
X009048Y019635D01*
X009048Y019694D02*
X009136Y019694D01*
X009166Y019724D01*
X009107Y019694D02*
X009166Y019635D01*
X009343Y019228D02*
X009373Y019228D01*
X009491Y019110D01*
X009520Y019110D01*
X009520Y019047D02*
X009461Y018988D01*
X009461Y019017D02*
X009461Y018929D01*
X009520Y018929D02*
X009343Y018929D01*
X009343Y019017D01*
X009373Y019047D01*
X009432Y019047D01*
X009461Y019017D01*
X009343Y019110D02*
X009343Y019228D01*
X009308Y018066D02*
X009337Y018066D01*
X009455Y017948D01*
X009485Y017948D01*
X009485Y017885D02*
X009485Y017767D01*
X009485Y017826D02*
X009308Y017826D01*
X009367Y017767D01*
X009337Y017704D02*
X009308Y017674D01*
X009308Y017615D01*
X009337Y017586D01*
X009455Y017586D01*
X009485Y017615D01*
X009485Y017674D01*
X009455Y017704D01*
X009308Y017948D02*
X009308Y018066D01*
X008629Y017914D02*
X008629Y017796D01*
X008629Y017855D02*
X008452Y017855D01*
X008511Y017796D01*
X008452Y017733D02*
X008629Y017615D01*
X008629Y017733D02*
X008452Y017615D01*
X008587Y017410D02*
X008563Y017387D01*
X008563Y017294D01*
X008587Y017270D01*
X008633Y017270D01*
X008657Y017294D01*
X008711Y017270D02*
X008804Y017270D01*
X008757Y017270D02*
X008757Y017410D01*
X008711Y017364D01*
X008657Y017387D02*
X008633Y017410D01*
X008587Y017410D01*
X007772Y017407D02*
X007725Y017383D01*
X007679Y017337D01*
X007749Y017337D01*
X007772Y017313D01*
X007772Y017290D01*
X007749Y017267D01*
X007702Y017267D01*
X007679Y017290D01*
X007679Y017337D01*
X007625Y017267D02*
X007531Y017267D01*
X007578Y017267D02*
X007578Y017407D01*
X007531Y017360D01*
X007477Y017383D02*
X007454Y017407D01*
X007407Y017407D01*
X007384Y017383D01*
X007384Y017290D01*
X007407Y017267D01*
X007454Y017267D01*
X007477Y017290D01*
X007522Y019296D02*
X007434Y019296D01*
X007434Y019473D01*
X007522Y019473D01*
X007552Y019444D01*
X007552Y019414D01*
X007522Y019385D01*
X007434Y019385D01*
X007370Y019385D02*
X007252Y019385D01*
X007252Y019414D02*
X007311Y019473D01*
X007370Y019414D01*
X007370Y019296D01*
X007252Y019296D02*
X007252Y019414D01*
X007189Y019473D02*
X007189Y019296D01*
X007071Y019473D01*
X007071Y019296D01*
X007008Y019296D02*
X006890Y019296D01*
X006890Y019473D01*
X007008Y019473D01*
X006949Y019385D02*
X006890Y019385D01*
X007522Y019385D02*
X007552Y019355D01*
X007552Y019326D01*
X007522Y019296D01*
X007615Y019296D02*
X007733Y019296D01*
X007796Y019296D02*
X007914Y019296D01*
X007977Y019296D02*
X008066Y019296D01*
X008095Y019326D01*
X008095Y019444D01*
X008066Y019473D01*
X007977Y019473D01*
X007977Y019296D01*
X007855Y019385D02*
X007796Y019385D01*
X007796Y019473D02*
X007796Y019296D01*
X007796Y019473D02*
X007914Y019473D01*
X007615Y019473D02*
X007615Y019296D01*
X007593Y020126D02*
X007652Y020126D01*
X007681Y020155D01*
X007681Y020214D01*
X007622Y020214D01*
X007563Y020155D02*
X007593Y020126D01*
X007563Y020155D02*
X007563Y020273D01*
X007593Y020303D01*
X007652Y020303D01*
X007681Y020273D01*
X007744Y020303D02*
X007803Y020303D01*
X007774Y020303D02*
X007774Y020126D01*
X007803Y020126D02*
X007744Y020126D01*
X007865Y020126D02*
X007865Y020303D01*
X007983Y020126D01*
X007983Y020303D01*
X008047Y020273D02*
X008047Y020155D01*
X008076Y020126D01*
X008135Y020126D01*
X008165Y020155D01*
X008165Y020214D01*
X008106Y020214D01*
X008165Y020273D02*
X008135Y020303D01*
X008076Y020303D01*
X008047Y020273D01*
X007500Y020273D02*
X007500Y020214D01*
X007470Y020185D01*
X007382Y020185D01*
X007441Y020185D02*
X007500Y020126D01*
X007382Y020126D02*
X007382Y020303D01*
X007470Y020303D01*
X007500Y020273D01*
X007319Y020244D02*
X007319Y020126D01*
X007319Y020214D02*
X007201Y020214D01*
X007201Y020244D02*
X007201Y020126D01*
X007137Y020126D02*
X007137Y020303D01*
X007201Y020244D02*
X007260Y020303D01*
X007319Y020244D01*
X007137Y020214D02*
X007019Y020214D01*
X006956Y020155D02*
X006927Y020126D01*
X006868Y020126D01*
X006838Y020155D01*
X006838Y020273D01*
X006868Y020303D01*
X006927Y020303D01*
X006956Y020273D01*
X007019Y020303D02*
X007019Y020126D01*
X007058Y020857D02*
X007117Y020857D01*
X007147Y020886D01*
X007147Y021004D01*
X007117Y021034D01*
X007058Y021034D01*
X007029Y021004D01*
X007029Y020886D01*
X007058Y020857D01*
X006966Y020945D02*
X006936Y020916D01*
X006848Y020916D01*
X006848Y020857D02*
X006848Y021034D01*
X006936Y021034D01*
X006966Y021004D01*
X006966Y020945D01*
X007210Y021034D02*
X007210Y020857D01*
X007269Y020916D01*
X007328Y020857D01*
X007328Y021034D01*
X007391Y021034D02*
X007391Y020857D01*
X007509Y020857D01*
X007573Y020857D02*
X007573Y021034D01*
X007661Y021034D01*
X007691Y021004D01*
X007691Y020945D01*
X007661Y020916D01*
X007573Y020916D01*
X007632Y020916D02*
X007691Y020857D01*
X007509Y021034D02*
X007391Y021034D01*
X007391Y020945D02*
X007450Y020945D01*
X007277Y021639D02*
X007277Y021816D01*
X007218Y021816D02*
X007336Y021816D01*
X007155Y021816D02*
X007037Y021816D01*
X007037Y021639D01*
X007155Y021639D01*
X007096Y021728D02*
X007037Y021728D01*
X006974Y021816D02*
X006974Y021639D01*
X006856Y021816D01*
X006856Y021639D01*
X006896Y022432D02*
X006867Y022461D01*
X006896Y022432D02*
X006955Y022432D01*
X006985Y022461D01*
X006985Y022491D01*
X006955Y022520D01*
X006896Y022520D01*
X006867Y022550D01*
X006867Y022579D01*
X006896Y022609D01*
X006955Y022609D01*
X006985Y022579D01*
X007048Y022609D02*
X007166Y022609D01*
X007107Y022609D02*
X007107Y022432D01*
X007229Y022432D02*
X007229Y022550D01*
X007288Y022609D01*
X007347Y022550D01*
X007347Y022432D01*
X007347Y022520D02*
X007229Y022520D01*
X007410Y022609D02*
X007528Y022609D01*
X007469Y022609D02*
X007469Y022432D01*
X007592Y022461D02*
X007621Y022432D01*
X007680Y022432D01*
X007710Y022461D01*
X007710Y022609D01*
X007773Y022579D02*
X007773Y022550D01*
X007802Y022520D01*
X007861Y022520D01*
X007891Y022491D01*
X007891Y022461D01*
X007861Y022432D01*
X007802Y022432D01*
X007773Y022461D01*
X007773Y022579D02*
X007802Y022609D01*
X007861Y022609D01*
X007891Y022579D01*
X007592Y022609D02*
X007592Y022461D01*
X009142Y022383D02*
X009230Y022383D01*
X009260Y022353D01*
X009260Y022294D01*
X009230Y022265D01*
X009142Y022265D01*
X009201Y022265D02*
X009260Y022206D01*
X009323Y022206D02*
X009441Y022206D01*
X009382Y022206D02*
X009382Y022383D01*
X009323Y022324D01*
X009504Y022294D02*
X009593Y022294D01*
X009622Y022265D01*
X009622Y022235D01*
X009593Y022206D01*
X009534Y022206D01*
X009504Y022235D01*
X009504Y022294D01*
X009563Y022353D01*
X009622Y022383D01*
X009600Y022821D02*
X009541Y022821D01*
X009512Y022850D01*
X009512Y022909D02*
X009571Y022939D01*
X009600Y022939D01*
X009630Y022909D01*
X009630Y022850D01*
X009600Y022821D01*
X009512Y022909D02*
X009512Y022998D01*
X009630Y022998D01*
X009389Y022998D02*
X009389Y022821D01*
X009330Y022821D02*
X009448Y022821D01*
X009330Y022939D02*
X009389Y022998D01*
X009267Y022968D02*
X009267Y022909D01*
X009238Y022880D01*
X009149Y022880D01*
X009208Y022880D02*
X009267Y022821D01*
X009149Y022821D02*
X009149Y022998D01*
X009238Y022998D01*
X009267Y022968D01*
X009142Y022383D02*
X009142Y022206D01*
X010568Y021311D02*
X010686Y021311D01*
X013017Y019998D02*
X013046Y020027D01*
X013105Y020027D01*
X013135Y019998D01*
X013135Y019880D01*
X013105Y019850D01*
X013046Y019850D01*
X013017Y019880D01*
X013017Y019998D01*
X013076Y019909D02*
X013135Y019850D01*
X013198Y019880D02*
X013198Y019909D01*
X013227Y019939D01*
X013286Y019939D01*
X013316Y019909D01*
X013316Y019880D01*
X013286Y019850D01*
X013227Y019850D01*
X013198Y019880D01*
X013227Y019939D02*
X013198Y019968D01*
X013198Y019998D01*
X013227Y020027D01*
X013286Y020027D01*
X013316Y019998D01*
X013316Y019968D01*
X013286Y019939D01*
X013004Y018866D02*
X013122Y018748D01*
X013151Y018748D01*
X013151Y018685D02*
X013092Y018626D01*
X013151Y018597D02*
X013122Y018567D01*
X013004Y018567D01*
X012974Y018597D01*
X012974Y018656D01*
X013004Y018685D01*
X013122Y018685D01*
X013151Y018656D01*
X013151Y018597D01*
X012974Y018748D02*
X012974Y018866D01*
X013004Y018866D01*
X015099Y018616D02*
X015099Y018498D01*
X015128Y018468D01*
X015187Y018468D01*
X015217Y018498D01*
X015217Y018616D01*
X015187Y018645D01*
X015128Y018645D01*
X015099Y018616D01*
X015158Y018527D02*
X015217Y018468D01*
X015280Y018468D02*
X015398Y018586D01*
X015398Y018616D01*
X015369Y018645D01*
X015310Y018645D01*
X015280Y018616D01*
X015280Y018468D02*
X015398Y018468D01*
X017180Y020362D02*
X017150Y020391D01*
X017150Y020509D01*
X017180Y020539D01*
X017239Y020539D01*
X017268Y020509D01*
X017268Y020391D01*
X017239Y020362D01*
X017180Y020362D01*
X017209Y020421D02*
X017268Y020362D01*
X017332Y020391D02*
X017361Y020362D01*
X017420Y020362D01*
X017450Y020391D01*
X017450Y020509D01*
X017420Y020539D01*
X017361Y020539D01*
X017332Y020509D01*
X017332Y020480D01*
X017361Y020450D01*
X017450Y020450D01*
X018411Y021254D02*
X018411Y021431D01*
X018500Y021431D01*
X018529Y021402D01*
X018529Y021343D01*
X018500Y021313D01*
X018411Y021313D01*
X018592Y021343D02*
X018710Y021343D01*
X018710Y021372D02*
X018710Y021254D01*
X018774Y021254D02*
X018774Y021431D01*
X018892Y021254D01*
X018892Y021431D01*
X018955Y021431D02*
X018955Y021254D01*
X019073Y021254D01*
X019136Y021254D02*
X019254Y021254D01*
X019317Y021343D02*
X019435Y021343D01*
X019376Y021402D02*
X019376Y021284D01*
X019136Y021254D02*
X019136Y021431D01*
X019073Y021431D02*
X018955Y021431D01*
X018955Y021343D02*
X019014Y021343D01*
X018710Y021372D02*
X018651Y021431D01*
X018592Y021372D01*
X018592Y021254D01*
X018921Y022180D02*
X018921Y022269D01*
X018951Y022298D01*
X019069Y022298D01*
X019098Y022269D01*
X019098Y022180D01*
X018921Y022180D01*
X019101Y022214D02*
X019101Y022303D01*
X019131Y022332D01*
X019249Y022332D01*
X019278Y022303D01*
X019278Y022214D01*
X019101Y022214D01*
X019098Y022361D02*
X018980Y022479D01*
X018951Y022479D01*
X018921Y022450D01*
X018921Y022391D01*
X018951Y022361D01*
X019098Y022361D02*
X019098Y022479D01*
X019101Y022484D02*
X019190Y022396D01*
X019190Y022514D01*
X019278Y022484D02*
X019101Y022484D01*
X021572Y021182D02*
X021749Y021182D01*
X021749Y021123D02*
X021749Y021241D01*
X021631Y021123D02*
X021572Y021182D01*
X021572Y021001D02*
X021749Y021001D01*
X021749Y020942D02*
X021749Y021060D01*
X021631Y020942D02*
X021572Y021001D01*
X021601Y020879D02*
X021572Y020849D01*
X021572Y020790D01*
X021601Y020761D01*
X021719Y020761D01*
X021749Y020790D01*
X021749Y020849D01*
X021719Y020879D01*
X022095Y022999D02*
X022213Y022999D01*
X022242Y023028D01*
X022242Y023087D01*
X022213Y023117D01*
X022242Y023180D02*
X022124Y023298D01*
X022095Y023298D01*
X022065Y023269D01*
X022065Y023210D01*
X022095Y023180D01*
X022095Y023117D02*
X022065Y023087D01*
X022065Y023028D01*
X022095Y022999D01*
X022242Y023180D02*
X022242Y023298D01*
X022154Y023361D02*
X022154Y023479D01*
X022242Y023450D02*
X022065Y023450D01*
X022154Y023361D01*
X023139Y023115D02*
X023227Y023115D01*
X023257Y023086D01*
X023257Y023027D01*
X023227Y022997D01*
X023139Y022997D01*
X023198Y022997D02*
X023257Y022938D01*
X023320Y023027D02*
X023438Y023027D01*
X023408Y023115D02*
X023320Y023027D01*
X023408Y023115D02*
X023408Y022938D01*
X023139Y022938D02*
X023139Y023115D01*
X005665Y022954D02*
X005547Y022954D01*
X005547Y022865D01*
X005606Y022895D01*
X005635Y022895D01*
X005665Y022865D01*
X005665Y022806D01*
X005635Y022777D01*
X005576Y022777D01*
X005547Y022806D01*
X005483Y022806D02*
X005454Y022777D01*
X005395Y022777D01*
X005365Y022806D01*
X005365Y022924D01*
X005395Y022954D01*
X005454Y022954D01*
X005483Y022924D01*
X005483Y022806D01*
X005483Y022777D02*
X005424Y022836D01*
X004858Y022836D02*
X004829Y022865D01*
X004740Y022865D01*
X004740Y022806D01*
X004770Y022777D01*
X004829Y022777D01*
X004858Y022806D01*
X004858Y022836D01*
X004799Y022924D02*
X004740Y022865D01*
X004799Y022924D02*
X004858Y022954D01*
X004677Y022924D02*
X004677Y022806D01*
X004648Y022777D01*
X004589Y022777D01*
X004559Y022806D01*
X004559Y022924D01*
X004589Y022954D01*
X004648Y022954D01*
X004677Y022924D01*
X004618Y022836D02*
X004677Y022777D01*
X004492Y021780D02*
X004515Y021757D01*
X004515Y021734D01*
X004492Y021711D01*
X004515Y021688D01*
X004515Y021665D01*
X004492Y021642D01*
X004446Y021642D01*
X004423Y021665D01*
X004370Y021642D02*
X004278Y021642D01*
X004324Y021642D02*
X004324Y021780D01*
X004278Y021734D01*
X004225Y021711D02*
X004202Y021688D01*
X004133Y021688D01*
X004133Y021642D02*
X004133Y021780D01*
X004202Y021780D01*
X004225Y021757D01*
X004225Y021711D01*
X004179Y021688D02*
X004225Y021642D01*
X004423Y021757D02*
X004446Y021780D01*
X004492Y021780D01*
X004492Y021711D02*
X004469Y021711D01*
X004391Y021217D02*
X004391Y021079D01*
X004346Y021079D02*
X004437Y021079D01*
X004346Y021171D02*
X004391Y021217D01*
X004292Y021194D02*
X004269Y021217D01*
X004223Y021217D01*
X004201Y021194D01*
X004147Y021194D02*
X004147Y021148D01*
X004124Y021125D01*
X004056Y021125D01*
X004101Y021125D02*
X004147Y021079D01*
X004201Y021079D02*
X004292Y021171D01*
X004292Y021194D01*
X004292Y021079D02*
X004201Y021079D01*
X004147Y021194D02*
X004124Y021217D01*
X004056Y021217D01*
X004056Y021079D01*
X004084Y020650D02*
X004061Y020627D01*
X004061Y020535D01*
X004084Y020512D01*
X004129Y020512D01*
X004152Y020535D01*
X004206Y020535D02*
X004206Y020558D01*
X004229Y020581D01*
X004274Y020581D01*
X004297Y020558D01*
X004297Y020535D01*
X004274Y020512D01*
X004229Y020512D01*
X004206Y020535D01*
X004229Y020581D02*
X004206Y020604D01*
X004206Y020627D01*
X004229Y020650D01*
X004274Y020650D01*
X004297Y020627D01*
X004297Y020604D01*
X004274Y020581D01*
X004152Y020627D02*
X004129Y020650D01*
X004084Y020650D01*
X005322Y021638D02*
X005322Y021776D01*
X005390Y021776D01*
X005413Y021753D01*
X005413Y021707D01*
X005390Y021684D01*
X005322Y021684D01*
X005368Y021684D02*
X005413Y021638D01*
X005467Y021638D02*
X005558Y021638D01*
X005513Y021638D02*
X005513Y021776D01*
X005467Y021730D01*
X005612Y021707D02*
X005703Y021707D01*
X005680Y021776D02*
X005612Y021707D01*
X005680Y021638D02*
X005680Y021776D01*
X005699Y021213D02*
X005722Y021190D01*
X005630Y021098D01*
X005653Y021075D01*
X005699Y021075D01*
X005722Y021098D01*
X005722Y021190D01*
X005699Y021213D02*
X005653Y021213D01*
X005630Y021190D01*
X005630Y021098D01*
X005577Y021075D02*
X005485Y021075D01*
X005577Y021167D01*
X005577Y021190D01*
X005554Y021213D01*
X005508Y021213D01*
X005485Y021190D01*
X005432Y021190D02*
X005432Y021144D01*
X005409Y021121D01*
X005340Y021121D01*
X005386Y021121D02*
X005432Y021075D01*
X005340Y021075D02*
X005340Y021213D01*
X005409Y021213D01*
X005432Y021190D01*
X005485Y020663D02*
X005554Y020663D01*
X005577Y020640D01*
X005577Y020594D01*
X005554Y020571D01*
X005485Y020571D01*
X005531Y020571D02*
X005577Y020525D01*
X005630Y020548D02*
X005653Y020525D01*
X005699Y020525D01*
X005722Y020548D01*
X005722Y020571D01*
X005699Y020594D01*
X005676Y020594D01*
X005699Y020594D02*
X005722Y020617D01*
X005722Y020640D01*
X005699Y020663D01*
X005653Y020663D01*
X005630Y020640D01*
X005485Y020663D02*
X005485Y020525D01*
D209*
X011566Y016918D02*
X011568Y016942D01*
X011574Y016966D01*
X011583Y016988D01*
X011596Y017008D01*
X011612Y017026D01*
X011631Y017041D01*
X011652Y017054D01*
X011674Y017062D01*
X011698Y017067D01*
X011722Y017068D01*
X011746Y017065D01*
X011769Y017058D01*
X011791Y017048D01*
X011811Y017034D01*
X011828Y017017D01*
X011843Y016998D01*
X011854Y016977D01*
X011862Y016954D01*
X011866Y016930D01*
X011866Y016906D01*
X011862Y016882D01*
X011854Y016859D01*
X011843Y016838D01*
X011828Y016819D01*
X011811Y016802D01*
X011791Y016788D01*
X011769Y016778D01*
X011746Y016771D01*
X011722Y016768D01*
X011698Y016769D01*
X011674Y016774D01*
X011652Y016782D01*
X011631Y016795D01*
X011612Y016810D01*
X011596Y016828D01*
X011583Y016848D01*
X011574Y016870D01*
X011568Y016894D01*
X011566Y016918D01*
D210*
X011081Y017900D02*
X010621Y017900D01*
X010621Y018130D01*
X010697Y018207D01*
X010851Y018207D01*
X010928Y018130D01*
X010928Y017900D01*
X010928Y018054D02*
X011081Y018207D01*
X011004Y018361D02*
X011081Y018437D01*
X011081Y018591D01*
X011004Y018668D01*
X010928Y018668D01*
X010851Y018591D01*
X010851Y018514D01*
X010851Y018591D02*
X010774Y018668D01*
X010697Y018668D01*
X010621Y018591D01*
X010621Y018437D01*
X010697Y018361D01*
X010774Y018821D02*
X010621Y018974D01*
X011081Y018974D01*
X011081Y018821D02*
X011081Y019128D01*
X012180Y019149D02*
X012256Y019072D01*
X012333Y019072D01*
X012410Y019149D01*
X012410Y019379D01*
X012563Y019379D02*
X012256Y019379D01*
X012180Y019302D01*
X012180Y019149D01*
X012256Y018919D02*
X012180Y018842D01*
X012180Y018689D01*
X012256Y018612D01*
X012256Y018458D02*
X012180Y018382D01*
X012180Y018151D01*
X012640Y018151D01*
X012487Y018151D02*
X012487Y018382D01*
X012410Y018458D01*
X012256Y018458D01*
X012487Y018305D02*
X012640Y018458D01*
X012640Y018612D02*
X012333Y018919D01*
X012256Y018919D01*
X012563Y019072D02*
X012640Y019149D01*
X012640Y019302D01*
X012563Y019379D01*
X012640Y018919D02*
X012640Y018612D01*
X015236Y020838D02*
X015236Y021148D01*
X015443Y021148D01*
X015558Y021045D02*
X015662Y021148D01*
X015662Y020838D01*
X015765Y020838D02*
X015558Y020838D01*
X015339Y020993D02*
X015236Y020993D01*
X016567Y021718D02*
X018347Y021718D01*
X019674Y021681D02*
X021454Y021681D01*
X021454Y023181D02*
X019674Y023181D01*
X018347Y023218D02*
X016567Y023218D01*
X019697Y019722D02*
X021477Y019722D01*
X021489Y019770D02*
X021438Y019822D01*
X021438Y019926D01*
X021489Y019977D01*
X021541Y019977D01*
X021593Y019926D01*
X021645Y019977D01*
X021696Y019977D01*
X021748Y019926D01*
X021748Y019822D01*
X021696Y019770D01*
X021696Y019655D02*
X021748Y019603D01*
X021748Y019500D01*
X021696Y019448D01*
X021489Y019448D01*
X021438Y019500D01*
X021438Y019603D01*
X021489Y019655D01*
X021593Y019874D02*
X021593Y019926D01*
X021697Y018661D02*
X021800Y018661D01*
X021852Y018609D01*
X021852Y018558D01*
X021800Y018506D01*
X021697Y018506D01*
X021645Y018558D01*
X021645Y018609D01*
X021697Y018661D01*
X021697Y018506D02*
X021645Y018454D01*
X021645Y018402D01*
X021697Y018351D01*
X021800Y018351D01*
X021852Y018402D01*
X021852Y018454D01*
X021800Y018506D01*
X021529Y018609D02*
X021478Y018661D01*
X021323Y018661D01*
X021323Y018351D01*
X021478Y018351D01*
X021529Y018402D01*
X021529Y018609D01*
X021477Y018222D02*
X019697Y018222D01*
X020536Y018102D02*
X020536Y017642D01*
X020767Y017642D01*
X020843Y017719D01*
X020843Y018026D01*
X020767Y018102D01*
X020536Y018102D01*
X020997Y018026D02*
X021074Y018102D01*
X021227Y018102D01*
X021304Y018026D01*
X021304Y017949D01*
X021227Y017872D01*
X021304Y017796D01*
X021304Y017719D01*
X021227Y017642D01*
X021074Y017642D01*
X020997Y017719D01*
X021150Y017872D02*
X021227Y017872D01*
X018197Y017024D02*
X018197Y016920D01*
X018145Y016869D01*
X018042Y016869D02*
X017990Y016972D01*
X017990Y017024D01*
X018042Y017075D01*
X018145Y017075D01*
X018197Y017024D01*
X018042Y016869D02*
X017887Y016869D01*
X017887Y017075D01*
X017887Y016753D02*
X018145Y016753D01*
X018197Y016702D01*
X018197Y016598D01*
X018145Y016546D01*
X017887Y016546D01*
X017463Y017856D02*
X017003Y017856D01*
X017003Y018086D01*
X017079Y018163D01*
X017233Y018163D01*
X017309Y018086D01*
X017309Y017856D01*
X017309Y018010D02*
X017463Y018163D01*
X017386Y018317D02*
X017463Y018393D01*
X017463Y018547D01*
X017386Y018624D01*
X017309Y018624D01*
X017233Y018547D01*
X017233Y018470D01*
X017233Y018547D02*
X017156Y018624D01*
X017079Y018624D01*
X017003Y018547D01*
X017003Y018393D01*
X017079Y018317D01*
X017079Y018777D02*
X017003Y018854D01*
X017003Y019007D01*
X017079Y019084D01*
X017386Y018777D01*
X017463Y018854D01*
X017463Y019007D01*
X017386Y019084D01*
X017079Y019084D01*
X017079Y018777D02*
X017386Y018777D01*
X012886Y013046D02*
X012575Y013046D01*
X012730Y012891D01*
X012730Y013098D01*
X012834Y012776D02*
X012575Y012776D01*
X012575Y012569D02*
X012834Y012569D01*
X012886Y012621D01*
X012886Y012724D01*
X012834Y012776D01*
X011678Y011599D02*
X011574Y011547D01*
X011471Y011444D01*
X011626Y011444D01*
X011678Y011392D01*
X011678Y011341D01*
X011626Y011289D01*
X011523Y011289D01*
X011471Y011341D01*
X011471Y011444D01*
X011355Y011341D02*
X011304Y011289D01*
X011200Y011289D01*
X011149Y011341D01*
X011149Y011547D01*
X011200Y011599D01*
X011304Y011599D01*
X011355Y011547D01*
X011318Y009524D02*
X011472Y009524D01*
X011549Y009447D01*
X011549Y009370D01*
X011472Y009294D01*
X011549Y009217D01*
X011549Y009140D01*
X011472Y009063D01*
X011318Y009063D01*
X011242Y009140D01*
X011088Y009063D02*
X010781Y009063D01*
X011088Y009370D01*
X011088Y009447D01*
X011012Y009524D01*
X010858Y009524D01*
X010781Y009447D01*
X010628Y009447D02*
X010551Y009524D01*
X010398Y009524D01*
X010321Y009447D01*
X010321Y009140D01*
X010398Y009063D01*
X010551Y009063D01*
X010628Y009140D01*
X011242Y009447D02*
X011318Y009524D01*
X011395Y009294D02*
X011472Y009294D01*
X010773Y007910D02*
X010825Y007859D01*
X010825Y007755D01*
X010773Y007704D01*
X010670Y007704D02*
X010618Y007807D01*
X010618Y007859D01*
X010670Y007910D01*
X010773Y007910D01*
X010670Y007704D02*
X010514Y007704D01*
X010514Y007910D01*
X010514Y007485D02*
X010825Y007485D01*
X010825Y007588D02*
X010825Y007381D01*
X010773Y007266D02*
X010825Y007214D01*
X010825Y007111D01*
X010773Y007059D01*
X010566Y007059D01*
X010514Y007111D01*
X010514Y007214D01*
X010566Y007266D01*
X010618Y007381D02*
X010514Y007485D01*
X010862Y005858D02*
X011017Y005858D01*
X011068Y005807D01*
X011068Y005703D01*
X011017Y005651D01*
X010862Y005651D01*
X010965Y005651D02*
X011068Y005548D01*
X011184Y005548D02*
X011391Y005548D01*
X011287Y005548D02*
X011287Y005858D01*
X011184Y005755D01*
X011506Y005755D02*
X011506Y005807D01*
X011558Y005858D01*
X011661Y005858D01*
X011713Y005807D01*
X011713Y005600D01*
X011661Y005548D01*
X011558Y005548D01*
X011506Y005600D01*
X011558Y005703D02*
X011713Y005703D01*
X011558Y005703D02*
X011506Y005755D01*
X011543Y005435D02*
X011647Y005435D01*
X011699Y005383D01*
X011699Y005332D01*
X011647Y005280D01*
X011543Y005280D01*
X011492Y005332D01*
X011492Y005383D01*
X011543Y005435D01*
X011543Y005280D02*
X011492Y005228D01*
X011492Y005176D01*
X011543Y005125D01*
X011647Y005125D01*
X011699Y005176D01*
X011699Y005228D01*
X011647Y005280D01*
X011376Y005125D02*
X011169Y005125D01*
X011273Y005125D02*
X011273Y005435D01*
X011169Y005332D01*
X011054Y005383D02*
X011054Y005280D01*
X011002Y005228D01*
X010847Y005228D01*
X010847Y005125D02*
X010847Y005435D01*
X011002Y005435D01*
X011054Y005383D01*
X010951Y005228D02*
X011054Y005125D01*
X010862Y005548D02*
X010862Y005858D01*
X010832Y002618D02*
X010987Y002618D01*
X011039Y002566D01*
X011039Y002463D01*
X010987Y002411D01*
X010832Y002411D01*
X010935Y002411D02*
X011039Y002307D01*
X011154Y002307D02*
X011361Y002307D01*
X011258Y002307D02*
X011258Y002618D01*
X011154Y002514D01*
X010832Y002618D02*
X010832Y002307D01*
X010887Y002176D02*
X010835Y002124D01*
X010835Y001918D01*
X010887Y001866D01*
X010990Y001866D01*
X011042Y001918D01*
X011157Y001866D02*
X011364Y002073D01*
X011364Y002124D01*
X011312Y002176D01*
X011209Y002176D01*
X011157Y002124D01*
X011042Y002124D02*
X010990Y002176D01*
X010887Y002176D01*
X011157Y001866D02*
X011364Y001866D01*
X011479Y001918D02*
X011686Y002124D01*
X011686Y001918D01*
X011634Y001866D01*
X011531Y001866D01*
X011479Y001918D01*
X011479Y002124D01*
X011531Y002176D01*
X011634Y002176D01*
X011686Y002124D01*
X011476Y002307D02*
X011476Y002359D01*
X011683Y002566D01*
X011683Y002618D01*
X011476Y002618D01*
X012818Y001555D02*
X013128Y001555D01*
X013128Y001452D02*
X013128Y001659D01*
X012921Y001452D02*
X012818Y001555D01*
X012869Y001337D02*
X012818Y001285D01*
X012818Y001181D01*
X012869Y001130D01*
X012869Y001014D02*
X012818Y000963D01*
X012818Y000859D01*
X012869Y000807D01*
X013076Y000807D01*
X013128Y000859D01*
X013128Y000963D01*
X013076Y001014D01*
X013128Y001130D02*
X012921Y001337D01*
X012869Y001337D01*
X013128Y001337D02*
X013128Y001130D01*
X014368Y001082D02*
X014420Y001030D01*
X014368Y001082D02*
X014368Y001186D01*
X014420Y001237D01*
X014471Y001237D01*
X014678Y001030D01*
X014678Y001237D01*
X014678Y001353D02*
X014471Y001560D01*
X014420Y001560D01*
X014368Y001508D01*
X014368Y001404D01*
X014420Y001353D01*
X014678Y001353D02*
X014678Y001560D01*
X014627Y000915D02*
X014678Y000863D01*
X014678Y000760D01*
X014627Y000708D01*
X014420Y000708D01*
X014368Y000760D01*
X014368Y000863D01*
X014420Y000915D01*
X023201Y004491D02*
X023253Y004440D01*
X023460Y004440D01*
X023512Y004491D01*
X023512Y004595D01*
X023460Y004646D01*
X023460Y004762D02*
X023512Y004814D01*
X023512Y004917D01*
X023460Y004969D01*
X023253Y004969D01*
X023201Y004917D01*
X023201Y004814D01*
X023253Y004762D01*
X023305Y004762D01*
X023357Y004814D01*
X023357Y004969D01*
X023253Y004646D02*
X023201Y004595D01*
X023201Y004491D01*
X023997Y004703D02*
X024049Y004651D01*
X024256Y004651D01*
X024307Y004703D01*
X024307Y004806D01*
X024256Y004858D01*
X024152Y004973D02*
X024152Y005180D01*
X023997Y005128D02*
X024152Y004973D01*
X024049Y004858D02*
X023997Y004806D01*
X023997Y004703D01*
X023997Y005128D02*
X024307Y005128D01*
X024598Y005003D02*
X024598Y004796D01*
X024753Y004796D01*
X024702Y004899D01*
X024702Y004951D01*
X024753Y005003D01*
X024857Y005003D01*
X024909Y004951D01*
X024909Y004847D01*
X024857Y004796D01*
X024857Y004680D02*
X024909Y004629D01*
X024909Y004525D01*
X024857Y004473D01*
X024650Y004473D01*
X024598Y004525D01*
X024598Y004629D01*
X024650Y004680D01*
X024695Y004275D02*
X024643Y004224D01*
X024643Y004120D01*
X024695Y004069D01*
X024747Y004069D01*
X024798Y004120D01*
X024798Y004275D01*
X024695Y004275D02*
X024902Y004275D01*
X024953Y004224D01*
X024953Y004120D01*
X024902Y004069D01*
X024953Y003953D02*
X024953Y003746D01*
X024953Y003850D02*
X024643Y003850D01*
X024747Y003746D01*
X024695Y003631D02*
X024643Y003579D01*
X024643Y003476D01*
X024695Y003424D01*
X024902Y003424D01*
X024953Y003476D01*
X024953Y003579D01*
X024902Y003631D01*
X021587Y011900D02*
X021380Y011900D01*
X021587Y012107D01*
X021587Y012159D01*
X021535Y012211D01*
X021432Y012211D01*
X021380Y012159D01*
X021265Y012211D02*
X021265Y011952D01*
X021213Y011900D01*
X021110Y011900D01*
X021058Y011952D01*
X021058Y012211D01*
X025617Y018489D02*
X025824Y018489D01*
X025940Y018489D02*
X026147Y018489D01*
X026043Y018489D02*
X026043Y018800D01*
X025940Y018696D01*
X025617Y018800D02*
X025617Y018489D01*
X025749Y019631D02*
X025749Y019942D01*
X025904Y019942D01*
X025956Y019890D01*
X025956Y019787D01*
X025904Y019735D01*
X025749Y019735D01*
X025852Y019735D02*
X025956Y019631D01*
X026071Y019683D02*
X026123Y019631D01*
X026226Y019631D01*
X026278Y019683D01*
X026278Y019735D01*
X026226Y019787D01*
X026071Y019787D01*
X026071Y019683D01*
X026071Y019787D02*
X026175Y019890D01*
X026278Y019942D01*
X025535Y021455D02*
X025431Y021455D01*
X025379Y021506D01*
X025379Y021610D02*
X025483Y021661D01*
X025535Y021661D01*
X025586Y021610D01*
X025586Y021506D01*
X025535Y021455D01*
X025379Y021610D02*
X025379Y021765D01*
X025586Y021765D01*
X025264Y021713D02*
X025264Y021610D01*
X025212Y021558D01*
X025057Y021558D01*
X025057Y021455D02*
X025057Y021765D01*
X025212Y021765D01*
X025264Y021713D01*
X025161Y021558D02*
X025264Y021455D01*
X025135Y022567D02*
X024928Y022567D01*
X025032Y022567D02*
X025032Y022878D01*
X024928Y022774D01*
X024813Y022878D02*
X024813Y022619D01*
X024761Y022567D01*
X024658Y022567D01*
X024606Y022619D01*
X024606Y022878D01*
X008055Y016306D02*
X008055Y016202D01*
X008003Y016151D01*
X008003Y016035D02*
X007744Y016035D01*
X007796Y016151D02*
X007744Y016202D01*
X007744Y016306D01*
X007796Y016357D01*
X007848Y016357D01*
X007900Y016306D01*
X007951Y016357D01*
X008003Y016357D01*
X008055Y016306D01*
X007900Y016306D02*
X007900Y016254D01*
X008003Y016035D02*
X008055Y015983D01*
X008055Y015880D01*
X008003Y015828D01*
X007744Y015828D01*
X007771Y013734D02*
X007823Y013734D01*
X008030Y013527D01*
X008081Y013527D01*
X008030Y013412D02*
X008081Y013360D01*
X008081Y013257D01*
X008030Y013205D01*
X007823Y013205D01*
X007771Y013257D01*
X007771Y013360D01*
X007823Y013412D01*
X007771Y013527D02*
X007771Y013734D01*
X006166Y012817D02*
X006166Y012765D01*
X005960Y012558D01*
X006166Y012558D01*
X006166Y012817D02*
X006115Y012868D01*
X006011Y012868D01*
X005960Y012817D01*
X005844Y012817D02*
X005792Y012868D01*
X005689Y012868D01*
X005637Y012817D01*
X005637Y012610D01*
X005689Y012558D01*
X005792Y012558D01*
X005844Y012610D01*
X004270Y012864D02*
X003960Y012864D01*
X003960Y012761D02*
X003960Y012967D01*
X003960Y013083D02*
X003960Y013290D01*
X003960Y013186D02*
X004270Y013186D01*
X004270Y013405D02*
X004270Y013612D01*
X004270Y013405D02*
X003960Y013405D01*
X004945Y015072D02*
X004841Y015175D01*
X004945Y015278D01*
X005152Y015278D01*
X004996Y015278D02*
X004996Y015072D01*
X004945Y015072D02*
X005152Y015072D01*
X005048Y015394D02*
X005152Y015497D01*
X005048Y015601D01*
X004841Y015601D01*
X004841Y015716D02*
X004841Y015871D01*
X004893Y015923D01*
X004996Y015923D01*
X005048Y015871D01*
X005048Y015716D01*
X005152Y015716D02*
X004841Y015716D01*
X005048Y015820D02*
X005152Y015923D01*
X005152Y016038D02*
X005152Y016142D01*
X005152Y016090D02*
X004841Y016090D01*
X004841Y016038D02*
X004841Y016142D01*
X004893Y016253D02*
X004945Y016253D01*
X004996Y016305D01*
X004996Y016408D01*
X005048Y016460D01*
X005100Y016460D01*
X005152Y016408D01*
X005152Y016305D01*
X005100Y016253D01*
X004893Y016253D02*
X004841Y016305D01*
X004841Y016408D01*
X004893Y016460D01*
X004841Y016576D02*
X004841Y016731D01*
X004893Y016782D01*
X004996Y016782D01*
X005048Y016731D01*
X005048Y016576D01*
X005152Y016576D02*
X004841Y016576D01*
X004841Y015394D02*
X005048Y015394D01*
X004293Y006659D02*
X004189Y006555D01*
X004189Y006607D02*
X004189Y006452D01*
X004293Y006452D02*
X003983Y006452D01*
X003983Y006607D01*
X004034Y006659D01*
X004138Y006659D01*
X004189Y006607D01*
X004293Y006336D02*
X004293Y006130D01*
X003983Y006130D01*
X003983Y006336D01*
X004138Y006233D02*
X004138Y006130D01*
X004241Y006014D02*
X004034Y006014D01*
X003983Y005962D01*
X003983Y005807D01*
X004293Y005807D01*
X004293Y005962D01*
X004241Y006014D01*
X004293Y005692D02*
X004293Y005485D01*
X003983Y005485D01*
X004034Y005370D02*
X003983Y005318D01*
X003983Y005214D01*
X004034Y005163D01*
X004241Y005163D01*
X004293Y005214D01*
X004293Y005318D01*
X004241Y005370D01*
X004034Y005370D01*
X003983Y005047D02*
X004293Y005047D01*
X004138Y005047D02*
X004138Y004840D01*
X004293Y004840D02*
X003983Y004840D01*
X003983Y004725D02*
X004293Y004725D01*
X004293Y004518D02*
X003983Y004518D01*
X004086Y004622D01*
X003983Y004725D01*
X003983Y004407D02*
X003983Y004303D01*
X003983Y004355D02*
X004293Y004355D01*
X004293Y004303D02*
X004293Y004407D01*
X004241Y004188D02*
X004293Y004136D01*
X004293Y004033D01*
X004241Y003981D01*
X004138Y004033D02*
X004138Y004136D01*
X004189Y004188D01*
X004241Y004188D01*
X004138Y004033D02*
X004086Y003981D01*
X004034Y003981D01*
X003983Y004033D01*
X003983Y004136D01*
X004034Y004188D01*
D211*
X003166Y002437D02*
X003166Y021728D01*
X003165Y021728D02*
X003167Y021814D01*
X003172Y021900D01*
X003182Y021985D01*
X003195Y022070D01*
X003212Y022154D01*
X003232Y022238D01*
X003256Y022320D01*
X003284Y022401D01*
X003315Y022482D01*
X003349Y022560D01*
X003387Y022637D01*
X003429Y022713D01*
X003473Y022786D01*
X003521Y022857D01*
X003572Y022927D01*
X003626Y022994D01*
X003682Y023058D01*
X003742Y023120D01*
X003804Y023180D01*
X003868Y023236D01*
X003935Y023290D01*
X004005Y023341D01*
X004076Y023389D01*
X004150Y023433D01*
X004225Y023475D01*
X004302Y023513D01*
X004380Y023547D01*
X004461Y023578D01*
X004542Y023606D01*
X004624Y023630D01*
X004708Y023650D01*
X004792Y023667D01*
X004877Y023680D01*
X004962Y023690D01*
X005048Y023695D01*
X005134Y023697D01*
X005134Y023696D02*
X024426Y023696D01*
X024426Y023697D02*
X024512Y023695D01*
X024598Y023690D01*
X024683Y023680D01*
X024768Y023667D01*
X024852Y023650D01*
X024936Y023630D01*
X025018Y023606D01*
X025099Y023578D01*
X025180Y023547D01*
X025258Y023513D01*
X025335Y023475D01*
X025411Y023433D01*
X025484Y023389D01*
X025555Y023341D01*
X025625Y023290D01*
X025692Y023236D01*
X025756Y023180D01*
X025818Y023120D01*
X025878Y023058D01*
X025934Y022994D01*
X025988Y022927D01*
X026039Y022857D01*
X026087Y022786D01*
X026131Y022713D01*
X026173Y022637D01*
X026211Y022560D01*
X026245Y022482D01*
X026276Y022401D01*
X026304Y022320D01*
X026328Y022238D01*
X026348Y022154D01*
X026365Y022070D01*
X026378Y021985D01*
X026388Y021900D01*
X026393Y021814D01*
X026395Y021728D01*
X026394Y021728D02*
X026394Y002437D01*
X026395Y002437D02*
X026393Y002351D01*
X026388Y002265D01*
X026378Y002180D01*
X026365Y002095D01*
X026348Y002011D01*
X026328Y001927D01*
X026304Y001845D01*
X026276Y001764D01*
X026245Y001683D01*
X026211Y001605D01*
X026173Y001528D01*
X026131Y001452D01*
X026087Y001379D01*
X026039Y001308D01*
X025988Y001238D01*
X025934Y001171D01*
X025878Y001107D01*
X025818Y001045D01*
X025756Y000985D01*
X025692Y000929D01*
X025625Y000875D01*
X025555Y000824D01*
X025484Y000776D01*
X025411Y000732D01*
X025335Y000690D01*
X025258Y000652D01*
X025180Y000618D01*
X025099Y000587D01*
X025018Y000559D01*
X024936Y000535D01*
X024852Y000515D01*
X024768Y000498D01*
X024683Y000485D01*
X024598Y000475D01*
X024512Y000470D01*
X024426Y000468D01*
X005134Y000468D01*
X005048Y000470D01*
X004962Y000475D01*
X004877Y000485D01*
X004792Y000498D01*
X004708Y000515D01*
X004624Y000535D01*
X004542Y000559D01*
X004461Y000587D01*
X004380Y000618D01*
X004302Y000652D01*
X004225Y000690D01*
X004149Y000732D01*
X004076Y000776D01*
X004005Y000824D01*
X003935Y000875D01*
X003868Y000929D01*
X003804Y000985D01*
X003742Y001045D01*
X003682Y001107D01*
X003626Y001171D01*
X003572Y001238D01*
X003521Y001308D01*
X003473Y001379D01*
X003429Y001453D01*
X003387Y001528D01*
X003349Y001605D01*
X003315Y001683D01*
X003284Y001764D01*
X003256Y001845D01*
X003232Y001927D01*
X003212Y002011D01*
X003195Y002095D01*
X003182Y002180D01*
X003172Y002265D01*
X003167Y002351D01*
X003165Y002437D01*
X023225Y019858D02*
X023227Y019893D01*
X023233Y019928D01*
X023243Y019962D01*
X023256Y019995D01*
X023273Y020026D01*
X023294Y020054D01*
X023317Y020081D01*
X023344Y020104D01*
X023372Y020125D01*
X023403Y020142D01*
X023436Y020155D01*
X023470Y020165D01*
X023505Y020171D01*
X023540Y020173D01*
X023575Y020171D01*
X023610Y020165D01*
X023644Y020155D01*
X023677Y020142D01*
X023708Y020125D01*
X023736Y020104D01*
X023763Y020081D01*
X023786Y020054D01*
X023807Y020026D01*
X023824Y019995D01*
X023837Y019962D01*
X023847Y019928D01*
X023853Y019893D01*
X023855Y019858D01*
X023853Y019823D01*
X023847Y019788D01*
X023837Y019754D01*
X023824Y019721D01*
X023807Y019690D01*
X023786Y019662D01*
X023763Y019635D01*
X023736Y019612D01*
X023708Y019591D01*
X023677Y019574D01*
X023644Y019561D01*
X023610Y019551D01*
X023575Y019545D01*
X023540Y019543D01*
X023505Y019545D01*
X023470Y019551D01*
X023436Y019561D01*
X023403Y019574D01*
X023372Y019591D01*
X023344Y019612D01*
X023317Y019635D01*
X023294Y019662D01*
X023273Y019690D01*
X023256Y019721D01*
X023243Y019754D01*
X023233Y019788D01*
X023227Y019823D01*
X023225Y019858D01*
X023225Y021630D02*
X023227Y021665D01*
X023233Y021700D01*
X023243Y021734D01*
X023256Y021767D01*
X023273Y021798D01*
X023294Y021826D01*
X023317Y021853D01*
X023344Y021876D01*
X023372Y021897D01*
X023403Y021914D01*
X023436Y021927D01*
X023470Y021937D01*
X023505Y021943D01*
X023540Y021945D01*
X023575Y021943D01*
X023610Y021937D01*
X023644Y021927D01*
X023677Y021914D01*
X023708Y021897D01*
X023736Y021876D01*
X023763Y021853D01*
X023786Y021826D01*
X023807Y021798D01*
X023824Y021767D01*
X023837Y021734D01*
X023847Y021700D01*
X023853Y021665D01*
X023855Y021630D01*
X023853Y021595D01*
X023847Y021560D01*
X023837Y021526D01*
X023824Y021493D01*
X023807Y021462D01*
X023786Y021434D01*
X023763Y021407D01*
X023736Y021384D01*
X023708Y021363D01*
X023677Y021346D01*
X023644Y021333D01*
X023610Y021323D01*
X023575Y021317D01*
X023540Y021315D01*
X023505Y021317D01*
X023470Y021323D01*
X023436Y021333D01*
X023403Y021346D01*
X023372Y021363D01*
X023344Y021384D01*
X023317Y021407D01*
X023294Y021434D01*
X023273Y021462D01*
X023256Y021493D01*
X023243Y021526D01*
X023233Y021560D01*
X023227Y021595D01*
X023225Y021630D01*
D212*
X011197Y010960D02*
X011197Y010923D01*
X011160Y010886D01*
X011197Y010849D01*
X011197Y010813D01*
X011160Y010776D01*
X011087Y010776D01*
X011050Y010813D01*
X010967Y010776D02*
X010820Y010776D01*
X010967Y010923D01*
X010967Y010960D01*
X010930Y010996D01*
X010857Y010996D01*
X010820Y010960D01*
X010736Y010960D02*
X010736Y010886D01*
X010700Y010849D01*
X010590Y010849D01*
X010590Y010776D02*
X010590Y010996D01*
X010700Y010996D01*
X010736Y010960D01*
X010663Y010849D02*
X010736Y010776D01*
X011050Y010960D02*
X011087Y010996D01*
X011160Y010996D01*
X011197Y010960D01*
X011160Y010886D02*
X011123Y010886D01*
X015890Y001244D02*
X016011Y001244D01*
X016072Y001183D01*
X016072Y001123D01*
X016011Y001062D01*
X016072Y001001D01*
X016072Y000941D01*
X016011Y000880D01*
X015890Y000880D01*
X015829Y000941D01*
X015951Y001062D02*
X016011Y001062D01*
X016192Y000941D02*
X016253Y000941D01*
X016253Y000880D01*
X016192Y000880D01*
X016192Y000941D01*
X016373Y000941D02*
X016373Y001183D01*
X016434Y001244D01*
X016555Y001244D01*
X016616Y001183D01*
X016373Y000941D01*
X016434Y000880D01*
X016555Y000880D01*
X016616Y000941D01*
X016616Y001183D01*
X016796Y000941D02*
X016796Y000880D01*
X016857Y000880D01*
X016857Y000941D01*
X016796Y000941D01*
X016857Y000880D02*
X016736Y000759D01*
X017340Y000941D02*
X017400Y001001D01*
X017582Y001001D01*
X017582Y001062D02*
X017582Y000880D01*
X017400Y000880D01*
X017340Y000941D01*
X017400Y001123D02*
X017522Y001123D01*
X017582Y001062D01*
X017702Y001123D02*
X017884Y001123D01*
X017945Y001062D01*
X017945Y000941D01*
X017884Y000880D01*
X017702Y000880D01*
X017702Y000759D02*
X017702Y001123D01*
X018065Y001123D02*
X018065Y000880D01*
X018065Y001001D02*
X018186Y001123D01*
X018247Y001123D01*
X018367Y001123D02*
X018428Y001123D01*
X018428Y000880D01*
X018488Y000880D02*
X018367Y000880D01*
X018609Y000880D02*
X018730Y000880D01*
X018669Y000880D02*
X018669Y001244D01*
X018609Y001244D01*
X018428Y001244D02*
X018428Y001305D01*
X019213Y001062D02*
X019334Y001062D01*
X019454Y001062D02*
X019454Y000941D01*
X019515Y000880D01*
X019636Y000880D01*
X019697Y000941D01*
X019697Y001062D01*
X019636Y001123D01*
X019515Y001123D01*
X019454Y001062D01*
X019273Y001183D02*
X019273Y000880D01*
X019273Y001183D02*
X019334Y001244D01*
X019817Y001062D02*
X019817Y000941D01*
X019878Y000880D01*
X019999Y000880D01*
X020060Y000941D01*
X020060Y001062D01*
X019999Y001123D01*
X019878Y001123D01*
X019817Y001062D01*
X020179Y001244D02*
X020240Y001244D01*
X020240Y000880D01*
X020179Y000880D02*
X020301Y000880D01*
X020421Y000880D02*
X020603Y000880D01*
X020664Y000941D01*
X020603Y001001D01*
X020482Y001001D01*
X020421Y001062D01*
X020482Y001123D01*
X020664Y001123D01*
X020784Y001123D02*
X020844Y001183D01*
X020844Y001305D01*
X021327Y001062D02*
X021327Y000941D01*
X021388Y000880D01*
X021570Y000880D01*
X021570Y001244D01*
X021570Y001123D02*
X021388Y001123D01*
X021327Y001062D01*
X021690Y000941D02*
X021751Y001001D01*
X021933Y001001D01*
X021933Y001062D02*
X021933Y000880D01*
X021751Y000880D01*
X021690Y000941D01*
X021751Y001123D02*
X021872Y001123D01*
X021933Y001062D01*
X022052Y001123D02*
X022052Y000941D01*
X022113Y000880D01*
X022295Y000880D01*
X022295Y000819D02*
X022234Y000759D01*
X022174Y000759D01*
X022295Y000819D02*
X022295Y001123D01*
X022476Y000941D02*
X022476Y000880D01*
X022536Y000880D01*
X022536Y000941D01*
X022476Y000941D01*
X022536Y000880D02*
X022415Y000759D01*
X023019Y000880D02*
X023262Y001123D01*
X023262Y001183D01*
X023201Y001244D01*
X023080Y001244D01*
X023019Y001183D01*
X023019Y000880D02*
X023262Y000880D01*
X023382Y000941D02*
X023624Y001183D01*
X023624Y000941D01*
X023564Y000880D01*
X023442Y000880D01*
X023382Y000941D01*
X023382Y001183D01*
X023442Y001244D01*
X023564Y001244D01*
X023624Y001183D01*
X023744Y001123D02*
X023866Y001244D01*
X023866Y000880D01*
X023987Y000880D02*
X023744Y000880D01*
X024107Y001062D02*
X024349Y001062D01*
X024289Y000880D02*
X024289Y001244D01*
X024107Y001062D01*
X015890Y001244D02*
X015829Y001183D01*
X015709Y001123D02*
X015588Y000880D01*
X015467Y001123D01*
D213*
X022025Y011920D02*
X022027Y011946D01*
X022033Y011972D01*
X022042Y011996D01*
X022056Y012019D01*
X022072Y012040D01*
X022091Y012058D01*
X022113Y012072D01*
X022137Y012084D01*
X022162Y012092D01*
X022188Y012096D01*
X022214Y012096D01*
X022240Y012092D01*
X022265Y012084D01*
X022289Y012072D01*
X022311Y012058D01*
X022330Y012040D01*
X022346Y012019D01*
X022360Y011996D01*
X022369Y011972D01*
X022375Y011946D01*
X022377Y011920D01*
X022375Y011894D01*
X022369Y011868D01*
X022360Y011844D01*
X022346Y011821D01*
X022330Y011800D01*
X022311Y011782D01*
X022289Y011768D01*
X022265Y011756D01*
X022240Y011748D01*
X022214Y011744D01*
X022188Y011744D01*
X022162Y011748D01*
X022137Y011756D01*
X022113Y011768D01*
X022091Y011782D01*
X022072Y011800D01*
X022056Y011821D01*
X022042Y011844D01*
X022033Y011868D01*
X022027Y011894D01*
X022025Y011920D01*
D214*
X021964Y011684D02*
X020586Y011684D01*
X021964Y011684D02*
X021964Y010306D01*
X017384Y013881D02*
X013447Y013881D01*
X013447Y019787D01*
X013916Y019787D01*
X013916Y020968D01*
X014916Y020968D01*
X014916Y019787D01*
X015916Y019787D01*
X015916Y020968D01*
X016916Y020968D01*
X016916Y019787D01*
X017384Y019787D01*
X017384Y013881D01*
X018941Y014620D02*
X018941Y014970D01*
X019241Y014970D01*
X019441Y014470D02*
X019591Y014470D01*
X020091Y014620D02*
X020091Y014970D01*
X019791Y014970D01*
X021103Y016755D02*
X021153Y016805D01*
X021853Y016805D01*
X021803Y016855D01*
X021203Y016855D01*
X021253Y016905D01*
X021753Y016905D01*
X021703Y016955D01*
X021303Y016955D01*
X021353Y017005D01*
X021653Y017005D01*
X021603Y017055D01*
X021403Y017055D01*
X021453Y017105D01*
X021553Y017105D01*
X021603Y017055D01*
X021553Y017105D02*
X021503Y017155D01*
X021453Y017105D01*
X021403Y017055D02*
X021353Y017005D01*
X021303Y016955D02*
X021253Y016905D01*
X021203Y016855D02*
X021153Y016805D01*
X021103Y016755D02*
X021903Y016755D01*
X021853Y016805D01*
X021803Y016855D02*
X021753Y016905D01*
X021703Y016955D02*
X021653Y017005D01*
X023071Y016579D02*
X023071Y018547D01*
X023073Y018573D01*
X023078Y018598D01*
X023086Y018622D01*
X023097Y018646D01*
X023112Y018667D01*
X023129Y018686D01*
X023148Y018703D01*
X023170Y018718D01*
X023193Y018729D01*
X023217Y018737D01*
X023242Y018742D01*
X023268Y018744D01*
X025236Y018744D01*
X025262Y018742D01*
X025287Y018737D01*
X025311Y018729D01*
X025335Y018718D01*
X025356Y018703D01*
X025375Y018686D01*
X025392Y018667D01*
X025407Y018646D01*
X025418Y018622D01*
X025426Y018598D01*
X025431Y018573D01*
X025433Y018547D01*
X025433Y016579D01*
X025431Y016553D01*
X025426Y016528D01*
X025418Y016504D01*
X025407Y016481D01*
X025392Y016459D01*
X025375Y016440D01*
X025356Y016423D01*
X025335Y016408D01*
X025311Y016397D01*
X025287Y016389D01*
X025262Y016384D01*
X025236Y016382D01*
X023268Y016382D01*
X023242Y016384D01*
X023217Y016389D01*
X023193Y016397D01*
X023170Y016408D01*
X023148Y016423D01*
X023129Y016440D01*
X023112Y016459D01*
X023097Y016481D01*
X023086Y016504D01*
X023078Y016528D01*
X023073Y016553D01*
X023071Y016579D01*
X022014Y018846D02*
X022014Y020546D01*
X025664Y020546D01*
X025664Y018846D01*
X022014Y018846D01*
X022195Y020651D02*
X021495Y020651D01*
X021495Y021951D01*
X022195Y021951D01*
X022195Y020651D01*
X022886Y020583D02*
X022886Y022512D01*
X023436Y022512D01*
X023636Y022298D02*
X023663Y022301D01*
X023690Y022307D01*
X023715Y022317D01*
X023739Y022329D01*
X023761Y022345D01*
X023780Y022364D01*
X023798Y022385D01*
X023812Y022408D01*
X023823Y022433D01*
X023831Y022458D01*
X023835Y022485D01*
X023836Y022512D01*
X024386Y022512D01*
X024386Y020583D01*
X022886Y020583D01*
X024214Y019696D02*
X024514Y019696D01*
X024364Y019846D02*
X024364Y019546D01*
X023636Y022298D02*
X023609Y022301D01*
X023582Y022307D01*
X023557Y022317D01*
X023533Y022329D01*
X023511Y022345D01*
X023492Y022364D01*
X023474Y022385D01*
X023460Y022408D01*
X023449Y022433D01*
X023441Y022458D01*
X023437Y022485D01*
X023436Y022512D01*
X022636Y022697D02*
X022638Y022717D01*
X022644Y022735D01*
X022653Y022753D01*
X022665Y022768D01*
X022680Y022780D01*
X022698Y022789D01*
X022716Y022795D01*
X022736Y022797D01*
X022756Y022795D01*
X022774Y022789D01*
X022792Y022780D01*
X022807Y022768D01*
X022819Y022753D01*
X022828Y022735D01*
X022834Y022717D01*
X022836Y022697D01*
X022834Y022677D01*
X022828Y022659D01*
X022819Y022641D01*
X022807Y022626D01*
X022792Y022614D01*
X022774Y022605D01*
X022756Y022599D01*
X022736Y022597D01*
X022716Y022599D01*
X022698Y022605D01*
X022680Y022614D01*
X022665Y022626D01*
X022653Y022641D01*
X022644Y022659D01*
X022638Y022677D01*
X022636Y022697D01*
X017252Y019389D02*
X015752Y019389D01*
X015752Y015889D01*
X017252Y015889D01*
X017252Y019389D01*
X015355Y018002D02*
X015355Y014352D01*
X013655Y014352D01*
X013655Y018002D01*
X015355Y018002D01*
X013110Y019549D02*
X011410Y019549D01*
X011410Y023199D01*
X013110Y023199D01*
X013110Y019549D01*
X012591Y018868D02*
X012291Y018868D01*
X012591Y018868D02*
X012591Y018518D01*
X012091Y018368D02*
X011941Y018368D01*
X011441Y018518D02*
X011441Y018868D01*
X011741Y018868D01*
X012260Y020699D02*
X012260Y020999D01*
X012410Y020849D02*
X012110Y020849D01*
X008850Y019248D02*
X006882Y019248D01*
X006882Y019091D01*
X006391Y019509D02*
X006391Y020009D01*
X007441Y020009D01*
X007441Y019509D01*
X006391Y019509D01*
X006866Y019609D02*
X006916Y019684D01*
X006916Y019834D01*
X006866Y019909D01*
X006866Y019609D01*
X006891Y019659D02*
X006891Y019859D01*
X006916Y019834D02*
X006966Y019759D01*
X006916Y019684D01*
X006866Y020397D02*
X006916Y020472D01*
X006916Y020622D01*
X006866Y020697D01*
X006866Y020397D01*
X006891Y020447D02*
X006891Y020647D01*
X006916Y020622D02*
X006966Y020547D01*
X006916Y020472D01*
X007441Y020297D02*
X006391Y020297D01*
X006391Y020797D01*
X007441Y020797D01*
X007441Y020297D01*
X007441Y021084D02*
X006391Y021084D01*
X006391Y021584D01*
X007441Y021584D01*
X007441Y021084D01*
X006966Y021334D02*
X006916Y021409D01*
X006916Y021259D01*
X006966Y021334D01*
X006916Y021259D02*
X006866Y021184D01*
X006866Y021484D01*
X006916Y021409D01*
X006891Y021434D02*
X006891Y021234D01*
X006391Y021872D02*
X006391Y022372D01*
X007441Y022372D01*
X007441Y021872D01*
X006391Y021872D01*
X006866Y021972D02*
X006916Y022047D01*
X006916Y022197D01*
X006866Y022272D01*
X006866Y021972D01*
X006891Y022022D02*
X006891Y022222D01*
X006916Y022197D02*
X006966Y022122D01*
X006916Y022047D01*
X006866Y022759D02*
X006916Y022834D01*
X006916Y022984D01*
X006866Y023059D01*
X006866Y022759D01*
X006891Y022809D02*
X006891Y023009D01*
X006916Y022984D02*
X006966Y022909D01*
X006916Y022834D01*
X007441Y022659D02*
X006391Y022659D01*
X006391Y023159D01*
X007441Y023159D01*
X007441Y022659D01*
X006074Y022717D02*
X006074Y022367D01*
X006074Y022717D02*
X005774Y022717D01*
X005574Y022217D02*
X005424Y022217D01*
X004924Y022367D02*
X004924Y022717D01*
X005224Y022717D01*
X004824Y022717D02*
X004524Y022717D01*
X004824Y022717D02*
X004824Y022367D01*
X004324Y022217D02*
X004174Y022217D01*
X003674Y022367D02*
X003674Y022717D01*
X003974Y022717D01*
X007616Y019118D02*
X007616Y018618D01*
X007416Y018618D01*
X007616Y018618D02*
X007616Y018118D01*
X007766Y018218D02*
X007966Y018218D01*
X007966Y019018D01*
X007766Y019018D01*
X007766Y018218D01*
X008116Y018118D02*
X008116Y018618D01*
X008316Y018618D01*
X008116Y018618D02*
X008116Y019118D01*
X008850Y019091D02*
X008850Y019248D01*
X008850Y018146D02*
X008850Y017988D01*
X006882Y017988D01*
X006882Y018146D01*
X006382Y013622D02*
X004732Y013622D01*
X004732Y012972D01*
X006382Y012972D01*
X006382Y013622D01*
X005732Y013297D02*
X005532Y013297D01*
X005632Y013397D02*
X005632Y013197D01*
X010904Y008294D02*
X011554Y008294D01*
X011554Y006644D01*
X010904Y006644D01*
X010904Y008294D01*
X011229Y007494D02*
X011229Y007294D01*
X011329Y007394D02*
X011129Y007394D01*
X012516Y010306D02*
X012516Y011684D01*
X013894Y011684D01*
X013466Y014968D02*
X012366Y014968D01*
X012366Y015468D01*
X013466Y015468D01*
X013466Y014968D01*
X014355Y015652D02*
X014655Y015652D01*
X014505Y015502D02*
X014505Y015802D01*
X023794Y004610D02*
X024494Y004610D01*
X024494Y003310D01*
X023794Y003310D01*
X023794Y004610D01*
X025151Y004628D02*
X025851Y004628D01*
X025851Y003328D01*
X025151Y003328D01*
X025151Y004628D01*
X021964Y003613D02*
X021964Y002235D01*
X020586Y002235D01*
X013894Y002235D02*
X012516Y002235D01*
X012516Y003613D01*
D215*
X012920Y012428D02*
X012920Y012465D01*
X012920Y012428D02*
X013558Y012428D01*
X013558Y012465D01*
X013558Y012783D02*
X013558Y013194D01*
X013558Y013511D02*
X013558Y013548D01*
X012920Y013548D01*
X012920Y013511D01*
X012920Y013194D02*
X012920Y013157D01*
X012920Y012820D02*
X012920Y012783D01*
X011537Y013948D02*
X011537Y016568D01*
X011397Y016708D01*
X008777Y016708D01*
X008777Y013948D01*
X011537Y013948D01*
X011096Y016408D02*
X011098Y016431D01*
X011104Y016454D01*
X011113Y016475D01*
X011126Y016495D01*
X011142Y016512D01*
X011160Y016526D01*
X011180Y016537D01*
X011202Y016545D01*
X011225Y016549D01*
X011249Y016549D01*
X011272Y016545D01*
X011294Y016537D01*
X011314Y016526D01*
X011332Y016512D01*
X011348Y016495D01*
X011361Y016475D01*
X011370Y016454D01*
X011376Y016431D01*
X011378Y016408D01*
X011376Y016385D01*
X011370Y016362D01*
X011361Y016341D01*
X011348Y016321D01*
X011332Y016304D01*
X011314Y016290D01*
X011294Y016279D01*
X011272Y016271D01*
X011249Y016267D01*
X011225Y016267D01*
X011202Y016271D01*
X011180Y016279D01*
X011160Y016290D01*
X011142Y016304D01*
X011126Y016321D01*
X011113Y016341D01*
X011104Y016362D01*
X011098Y016385D01*
X011096Y016408D01*
X010588Y020853D02*
X010268Y020853D01*
X010268Y021073D01*
X010268Y021753D02*
X010268Y021973D01*
X010588Y021973D01*
X018322Y017623D02*
X018322Y016203D01*
X020182Y016203D02*
X020182Y017623D01*
M02*
