G75*
%MOIN*%
%OFA0B0*%
%FSLAX24Y24*%
%IPPOS*%
%LPD*%
%AMOC8*
5,1,8,0,0,1.08239X$1,22.5*
%
%ADD10C,0.0000*%
%ADD11R,0.0260X0.0760*%
%ADD12R,0.0760X0.0260*%
%ADD13R,0.0276X0.0354*%
%ADD14R,0.0472X0.0866*%
%ADD15R,0.0472X0.0787*%
%ADD16R,0.0600X0.0250*%
%ADD17R,0.0354X0.0276*%
%ADD18R,0.1000X0.1200*%
%ADD19R,0.1000X0.1250*%
%ADD20C,0.0100*%
%ADD21R,0.0984X0.1260*%
%ADD22R,0.1080X0.0850*%
%ADD23R,0.0220X0.0500*%
%ADD24R,0.0500X0.0220*%
%ADD25OC8,0.0740*%
%ADD26R,0.1300X0.0800*%
%ADD27C,0.1181*%
%ADD28R,0.1181X0.1181*%
%ADD29R,0.1969X0.1772*%
%ADD30R,0.0240X0.0870*%
%ADD31R,0.1260X0.0866*%
%ADD32R,0.0945X0.0945*%
%ADD33R,0.0472X0.0217*%
%ADD34C,0.0740*%
%ADD35R,0.0400X0.0450*%
%ADD36C,0.0088*%
%ADD37R,0.0500X0.0500*%
%ADD38C,0.0075*%
%ADD39C,0.0709*%
%ADD40R,0.0700X0.0800*%
%ADD41R,0.0394X0.0551*%
%ADD42R,0.1200X0.1000*%
%ADD43R,0.1250X0.1000*%
%ADD44R,0.0551X0.0394*%
%ADD45C,0.0050*%
%ADD46R,0.0394X0.0394*%
%ADD47C,0.0280*%
%ADD48C,0.0240*%
%ADD49C,0.0080*%
%ADD50C,0.0278*%
%ADD51C,0.0060*%
%ADD52C,0.0059*%
%ADD53C,0.0079*%
%ADD54C,0.0787*%
%ADD55C,0.0039*%
%ADD56C,0.0394*%
%ADD57C,0.0160*%
%ADD58C,0.0200*%
%ADD59C,0.0197*%
%ADD60C,0.0660*%
%ADD61C,0.0120*%
%ADD62C,0.0320*%
%ADD63C,0.0400*%
%ADD64C,0.0800*%
%ADD65C,0.0320*%
%ADD66C,0.0157*%
D10*
X003166Y002437D02*
X003166Y021728D01*
X003165Y021728D02*
X003167Y021814D01*
X003172Y021900D01*
X003182Y021985D01*
X003195Y022070D01*
X003212Y022154D01*
X003232Y022238D01*
X003256Y022320D01*
X003284Y022401D01*
X003315Y022482D01*
X003349Y022560D01*
X003387Y022637D01*
X003429Y022713D01*
X003473Y022786D01*
X003521Y022857D01*
X003572Y022927D01*
X003626Y022994D01*
X003682Y023058D01*
X003742Y023120D01*
X003804Y023180D01*
X003868Y023236D01*
X003935Y023290D01*
X004005Y023341D01*
X004076Y023389D01*
X004150Y023433D01*
X004225Y023475D01*
X004302Y023513D01*
X004380Y023547D01*
X004461Y023578D01*
X004542Y023606D01*
X004624Y023630D01*
X004708Y023650D01*
X004792Y023667D01*
X004877Y023680D01*
X004962Y023690D01*
X005048Y023695D01*
X005134Y023697D01*
X005134Y023696D02*
X024426Y023696D01*
X024426Y023697D02*
X024512Y023695D01*
X024598Y023690D01*
X024683Y023680D01*
X024768Y023667D01*
X024852Y023650D01*
X024936Y023630D01*
X025018Y023606D01*
X025099Y023578D01*
X025180Y023547D01*
X025258Y023513D01*
X025335Y023475D01*
X025411Y023433D01*
X025484Y023389D01*
X025555Y023341D01*
X025625Y023290D01*
X025692Y023236D01*
X025756Y023180D01*
X025818Y023120D01*
X025878Y023058D01*
X025934Y022994D01*
X025988Y022927D01*
X026039Y022857D01*
X026087Y022786D01*
X026131Y022713D01*
X026173Y022637D01*
X026211Y022560D01*
X026245Y022482D01*
X026276Y022401D01*
X026304Y022320D01*
X026328Y022238D01*
X026348Y022154D01*
X026365Y022070D01*
X026378Y021985D01*
X026388Y021900D01*
X026393Y021814D01*
X026395Y021728D01*
X026394Y021728D02*
X026394Y002437D01*
X026395Y002437D02*
X026393Y002351D01*
X026388Y002265D01*
X026378Y002180D01*
X026365Y002095D01*
X026348Y002011D01*
X026328Y001927D01*
X026304Y001845D01*
X026276Y001764D01*
X026245Y001683D01*
X026211Y001605D01*
X026173Y001528D01*
X026131Y001452D01*
X026087Y001379D01*
X026039Y001308D01*
X025988Y001238D01*
X025934Y001171D01*
X025878Y001107D01*
X025818Y001045D01*
X025756Y000985D01*
X025692Y000929D01*
X025625Y000875D01*
X025555Y000824D01*
X025484Y000776D01*
X025411Y000732D01*
X025335Y000690D01*
X025258Y000652D01*
X025180Y000618D01*
X025099Y000587D01*
X025018Y000559D01*
X024936Y000535D01*
X024852Y000515D01*
X024768Y000498D01*
X024683Y000485D01*
X024598Y000475D01*
X024512Y000470D01*
X024426Y000468D01*
X005134Y000468D01*
X005048Y000470D01*
X004962Y000475D01*
X004877Y000485D01*
X004792Y000498D01*
X004708Y000515D01*
X004624Y000535D01*
X004542Y000559D01*
X004461Y000587D01*
X004380Y000618D01*
X004302Y000652D01*
X004225Y000690D01*
X004149Y000732D01*
X004076Y000776D01*
X004005Y000824D01*
X003935Y000875D01*
X003868Y000929D01*
X003804Y000985D01*
X003742Y001045D01*
X003682Y001107D01*
X003626Y001171D01*
X003572Y001238D01*
X003521Y001308D01*
X003473Y001379D01*
X003429Y001453D01*
X003387Y001528D01*
X003349Y001605D01*
X003315Y001683D01*
X003284Y001764D01*
X003256Y001845D01*
X003232Y001927D01*
X003212Y002011D01*
X003195Y002095D01*
X003182Y002180D01*
X003172Y002265D01*
X003167Y002351D01*
X003165Y002437D01*
X023225Y019858D02*
X023227Y019893D01*
X023233Y019928D01*
X023243Y019962D01*
X023256Y019995D01*
X023273Y020026D01*
X023294Y020054D01*
X023317Y020081D01*
X023344Y020104D01*
X023372Y020125D01*
X023403Y020142D01*
X023436Y020155D01*
X023470Y020165D01*
X023505Y020171D01*
X023540Y020173D01*
X023575Y020171D01*
X023610Y020165D01*
X023644Y020155D01*
X023677Y020142D01*
X023708Y020125D01*
X023736Y020104D01*
X023763Y020081D01*
X023786Y020054D01*
X023807Y020026D01*
X023824Y019995D01*
X023837Y019962D01*
X023847Y019928D01*
X023853Y019893D01*
X023855Y019858D01*
X023853Y019823D01*
X023847Y019788D01*
X023837Y019754D01*
X023824Y019721D01*
X023807Y019690D01*
X023786Y019662D01*
X023763Y019635D01*
X023736Y019612D01*
X023708Y019591D01*
X023677Y019574D01*
X023644Y019561D01*
X023610Y019551D01*
X023575Y019545D01*
X023540Y019543D01*
X023505Y019545D01*
X023470Y019551D01*
X023436Y019561D01*
X023403Y019574D01*
X023372Y019591D01*
X023344Y019612D01*
X023317Y019635D01*
X023294Y019662D01*
X023273Y019690D01*
X023256Y019721D01*
X023243Y019754D01*
X023233Y019788D01*
X023227Y019823D01*
X023225Y019858D01*
X023225Y021630D02*
X023227Y021665D01*
X023233Y021700D01*
X023243Y021734D01*
X023256Y021767D01*
X023273Y021798D01*
X023294Y021826D01*
X023317Y021853D01*
X023344Y021876D01*
X023372Y021897D01*
X023403Y021914D01*
X023436Y021927D01*
X023470Y021937D01*
X023505Y021943D01*
X023540Y021945D01*
X023575Y021943D01*
X023610Y021937D01*
X023644Y021927D01*
X023677Y021914D01*
X023708Y021897D01*
X023736Y021876D01*
X023763Y021853D01*
X023786Y021826D01*
X023807Y021798D01*
X023824Y021767D01*
X023837Y021734D01*
X023847Y021700D01*
X023853Y021665D01*
X023855Y021630D01*
X023853Y021595D01*
X023847Y021560D01*
X023837Y021526D01*
X023824Y021493D01*
X023807Y021462D01*
X023786Y021434D01*
X023763Y021407D01*
X023736Y021384D01*
X023708Y021363D01*
X023677Y021346D01*
X023644Y021333D01*
X023610Y021323D01*
X023575Y021317D01*
X023540Y021315D01*
X023505Y021317D01*
X023470Y021323D01*
X023436Y021333D01*
X023403Y021346D01*
X023372Y021363D01*
X023344Y021384D01*
X023317Y021407D01*
X023294Y021434D01*
X023273Y021462D01*
X023256Y021493D01*
X023243Y021526D01*
X023233Y021560D01*
X023227Y021595D01*
X023225Y021630D01*
D11*
X020390Y011684D03*
X019996Y011684D03*
X019602Y011684D03*
X019209Y011684D03*
X018815Y011684D03*
X018421Y011684D03*
X018027Y011684D03*
X017634Y011684D03*
X017240Y011684D03*
X016846Y011684D03*
X016453Y011684D03*
X016059Y011684D03*
X015665Y011684D03*
X015272Y011684D03*
X014878Y011684D03*
X014484Y011684D03*
X014090Y011684D03*
X014090Y002235D03*
X014484Y002235D03*
X014878Y002235D03*
X015272Y002235D03*
X015665Y002235D03*
X016059Y002235D03*
X016453Y002235D03*
X016846Y002235D03*
X017240Y002235D03*
X017634Y002235D03*
X018027Y002235D03*
X018421Y002235D03*
X018815Y002235D03*
X019209Y002235D03*
X019602Y002235D03*
X019996Y002235D03*
X020390Y002235D03*
D12*
X021964Y003810D03*
X021964Y004204D03*
X021964Y004597D03*
X021964Y004991D03*
X021964Y005385D03*
X021964Y005778D03*
X021964Y006172D03*
X021964Y006566D03*
X021964Y006959D03*
X021964Y007353D03*
X021964Y007747D03*
X021964Y008141D03*
X021964Y008534D03*
X021964Y008928D03*
X021964Y009322D03*
X021964Y009715D03*
X021964Y010109D03*
X012516Y010109D03*
X012516Y009715D03*
X012516Y009322D03*
X012516Y008928D03*
X012516Y008534D03*
X012516Y008141D03*
X012516Y007747D03*
X012516Y007353D03*
X012516Y006959D03*
X012516Y006566D03*
X012516Y006172D03*
X012516Y005778D03*
X012516Y005385D03*
X012516Y004991D03*
X012516Y004597D03*
X012516Y004204D03*
X012516Y003810D03*
D13*
X011552Y003597D03*
X011040Y003597D03*
X011034Y002996D03*
X011546Y002996D03*
X011552Y004185D03*
X011040Y004185D03*
X011047Y004766D03*
X011559Y004766D03*
X011688Y009793D03*
X011176Y009793D03*
X011204Y010507D03*
X011716Y010507D03*
X011684Y011919D03*
X011173Y011919D03*
X012666Y014017D03*
X013177Y014017D03*
X013177Y014611D03*
X012666Y014611D03*
X012669Y015812D03*
X013181Y015812D03*
X013172Y016418D03*
X012660Y016418D03*
X012656Y017019D03*
X013168Y017019D03*
X012270Y017648D03*
X011759Y017648D03*
X008722Y017717D03*
X008210Y017717D03*
X007522Y017717D03*
X007010Y017717D03*
X008228Y019759D03*
X008740Y019759D03*
X008740Y020547D03*
X008228Y020547D03*
X008228Y021334D03*
X008740Y021334D03*
X008740Y022122D03*
X008228Y022122D03*
X008228Y022909D03*
X008740Y022909D03*
X005753Y021439D03*
X005241Y021439D03*
X005243Y020867D03*
X005755Y020867D03*
X005751Y020259D03*
X005239Y020259D03*
X004505Y020267D03*
X003993Y020267D03*
X003993Y020867D03*
X004505Y020867D03*
X004500Y021439D03*
X003988Y021439D03*
X023927Y023057D03*
X024438Y023057D03*
D14*
X008472Y001535D03*
X007449Y001519D03*
X006484Y001535D03*
D15*
X006516Y011476D03*
X007476Y011484D03*
X008405Y011484D03*
D16*
X022586Y020797D03*
X022586Y021297D03*
X022586Y021797D03*
X022586Y022297D03*
X024686Y022297D03*
X024686Y021797D03*
X024686Y021297D03*
X024686Y020797D03*
D17*
X026008Y020902D03*
X026008Y020390D03*
X025996Y021580D03*
X025996Y022092D03*
X022394Y022678D03*
X022394Y023190D03*
X017733Y018342D03*
X017733Y017830D03*
X017916Y015074D03*
X017916Y014562D03*
X018593Y014559D03*
X018593Y015071D03*
X020517Y015058D03*
X020517Y014547D03*
X012910Y018126D03*
X012910Y018637D03*
X011016Y018224D03*
X011016Y017712D03*
X010366Y017712D03*
X010366Y018224D03*
X010351Y018756D03*
X010351Y019267D03*
X010863Y019267D03*
X010863Y018756D03*
X009701Y018756D03*
X009701Y019267D03*
X009716Y018224D03*
X009716Y017712D03*
X007451Y014041D03*
X007451Y013529D03*
X013446Y001420D03*
X013446Y000909D03*
X014070Y000909D03*
X014070Y001420D03*
X023425Y003736D03*
X023425Y004248D03*
X024803Y004199D03*
X024803Y003687D03*
D18*
X025089Y019696D03*
D19*
X022589Y019696D03*
D20*
X022070Y020801D02*
X022070Y021101D01*
X022070Y020801D02*
X021620Y020801D01*
X021620Y021101D01*
X022070Y021101D01*
X022070Y020900D02*
X021620Y020900D01*
X021620Y020999D02*
X022070Y020999D01*
X022070Y021098D02*
X021620Y021098D01*
X022070Y021501D02*
X022070Y021801D01*
X022070Y021501D02*
X021620Y021501D01*
X021620Y021801D01*
X022070Y021801D01*
X022070Y021600D02*
X021620Y021600D01*
X021620Y021699D02*
X022070Y021699D01*
X022070Y021798D02*
X021620Y021798D01*
X022586Y021797D02*
X022945Y021827D01*
X023116Y022114D01*
X023116Y022678D01*
X023117Y022772D01*
X023122Y023066D01*
X023927Y023057D01*
X019252Y016454D02*
X019016Y016218D01*
X017936Y013038D02*
X017766Y012868D01*
X013716Y012868D01*
X013616Y012968D01*
X013616Y013302D01*
X012727Y012988D02*
X012727Y012968D01*
X012182Y012968D01*
X011099Y012870D02*
X010945Y013083D01*
X010945Y013638D01*
X011847Y014226D02*
X012173Y014226D01*
X012345Y014357D01*
X012345Y015492D01*
X012669Y015812D01*
X012666Y014611D02*
X012666Y014017D01*
X012565Y014017D01*
X011011Y012469D02*
X010063Y012475D01*
X010520Y012205D02*
X010527Y011885D01*
X010319Y011885D01*
X010338Y011806D01*
X009053Y012669D02*
X007079Y012669D01*
X006516Y011476D02*
X006509Y011469D01*
X005129Y011469D01*
X008467Y014226D02*
X008609Y014226D01*
X008666Y014168D01*
X009196Y014168D01*
X008490Y014518D02*
X008467Y014541D01*
X008467Y015170D02*
X008994Y015170D01*
X008992Y015503D01*
X005251Y017509D02*
X005239Y020259D01*
X005187Y020267D01*
X004505Y020267D01*
X008466Y020229D02*
X008740Y020547D01*
X008466Y020229D02*
X008466Y020168D01*
X008816Y020118D02*
X008816Y019791D01*
X008740Y019759D01*
X012016Y019018D02*
X012366Y019018D01*
X018114Y012837D02*
X017846Y012569D01*
X018114Y012837D02*
X019577Y012830D01*
X012198Y010917D02*
X011709Y010900D01*
X011709Y010841D01*
X011716Y010507D01*
X011204Y010507D02*
X011140Y010487D01*
X010338Y010487D01*
X010999Y004769D02*
X011047Y004766D01*
X023919Y004460D02*
X023919Y004160D01*
X023919Y004460D02*
X024369Y004460D01*
X024369Y004160D01*
X023919Y004160D01*
X023919Y004259D02*
X024369Y004259D01*
X024369Y004358D02*
X023919Y004358D01*
X023919Y004457D02*
X024369Y004457D01*
X023919Y003760D02*
X023919Y003460D01*
X023919Y003760D02*
X024369Y003760D01*
X024369Y003460D01*
X023919Y003460D01*
X023919Y003559D02*
X024369Y003559D01*
X024369Y003658D02*
X023919Y003658D01*
X023919Y003757D02*
X024369Y003757D01*
X025276Y003778D02*
X025276Y003478D01*
X025276Y003778D02*
X025726Y003778D01*
X025726Y003478D01*
X025276Y003478D01*
X025276Y003577D02*
X025726Y003577D01*
X025726Y003676D02*
X025276Y003676D01*
X025276Y003775D02*
X025726Y003775D01*
X025276Y004178D02*
X025276Y004478D01*
X025726Y004478D01*
X025726Y004178D01*
X025276Y004178D01*
X025276Y004277D02*
X025726Y004277D01*
X025726Y004376D02*
X025276Y004376D01*
X025276Y004475D02*
X025726Y004475D01*
D21*
X025374Y017563D03*
X023130Y017563D03*
D22*
X021503Y017825D03*
X021503Y016085D03*
D23*
X011260Y017018D03*
X010945Y017018D03*
X010630Y017018D03*
X010315Y017018D03*
X010000Y017018D03*
X009685Y017018D03*
X009370Y017018D03*
X009055Y017018D03*
X009055Y013638D03*
X009370Y013638D03*
X009685Y013638D03*
X010000Y013638D03*
X010315Y013638D03*
X010630Y013638D03*
X010945Y013638D03*
X011260Y013638D03*
D24*
X011847Y014226D03*
X011847Y014541D03*
X011847Y014856D03*
X011847Y015170D03*
X011847Y015485D03*
X011847Y015800D03*
X011847Y016115D03*
X011847Y016430D03*
X008467Y016430D03*
X008467Y016115D03*
X008467Y015800D03*
X008467Y015485D03*
X008467Y015170D03*
X008467Y014856D03*
X008467Y014541D03*
X008467Y014226D03*
D25*
X006843Y014919D03*
X005843Y014919D03*
X005943Y015919D03*
X006943Y015919D03*
X006843Y016919D03*
X005843Y016919D03*
D26*
X016502Y016389D03*
X016502Y018889D03*
D27*
X014981Y022605D03*
X010449Y022605D03*
D28*
X010619Y020125D03*
X010225Y020125D03*
X018912Y020125D03*
X019306Y020125D03*
D29*
X019252Y016322D03*
D30*
X018502Y017943D03*
D31*
X019488Y017937D03*
D32*
X019721Y018972D03*
X021453Y018972D03*
X021431Y022431D03*
X019698Y022431D03*
X018323Y022468D03*
X016591Y022468D03*
D33*
X013751Y013362D03*
X013751Y012614D03*
X012727Y012614D03*
X012727Y012988D03*
X012727Y013362D03*
D34*
X004074Y014319D03*
X004174Y015319D03*
X004074Y016319D03*
X004174Y017319D03*
X004074Y018319D03*
X004174Y019319D03*
D35*
X003899Y022067D03*
X004599Y022067D03*
X005149Y022067D03*
X005849Y022067D03*
X005499Y022867D03*
X004249Y022867D03*
X011666Y018218D03*
X012366Y018218D03*
X012016Y019018D03*
X019166Y014320D03*
X019866Y014320D03*
X019516Y015120D03*
D36*
X013347Y015349D02*
X013085Y015349D01*
X013347Y015349D02*
X013347Y015087D01*
X013085Y015087D01*
X013085Y015349D01*
X013085Y015174D02*
X013347Y015174D01*
X013347Y015261D02*
X013085Y015261D01*
X013085Y015348D02*
X013347Y015348D01*
X012747Y015349D02*
X012485Y015349D01*
X012747Y015349D02*
X012747Y015087D01*
X012485Y015087D01*
X012485Y015349D01*
X012485Y015174D02*
X012747Y015174D01*
X012747Y015261D02*
X012485Y015261D01*
X012485Y015348D02*
X012747Y015348D01*
D37*
X006057Y013297D03*
X005057Y013297D03*
X011229Y007969D03*
X011229Y006969D03*
D38*
X007329Y019621D02*
X007103Y019621D01*
X007103Y019897D01*
X007329Y019897D01*
X007329Y019621D01*
X007329Y019695D02*
X007103Y019695D01*
X007103Y019769D02*
X007329Y019769D01*
X007329Y019843D02*
X007103Y019843D01*
X006729Y019621D02*
X006503Y019621D01*
X006503Y019897D01*
X006729Y019897D01*
X006729Y019621D01*
X006729Y019695D02*
X006503Y019695D01*
X006503Y019769D02*
X006729Y019769D01*
X006729Y019843D02*
X006503Y019843D01*
X006503Y020409D02*
X006729Y020409D01*
X006503Y020409D02*
X006503Y020685D01*
X006729Y020685D01*
X006729Y020409D01*
X006729Y020483D02*
X006503Y020483D01*
X006503Y020557D02*
X006729Y020557D01*
X006729Y020631D02*
X006503Y020631D01*
X006503Y021196D02*
X006729Y021196D01*
X006503Y021196D02*
X006503Y021472D01*
X006729Y021472D01*
X006729Y021196D01*
X006729Y021270D02*
X006503Y021270D01*
X006503Y021344D02*
X006729Y021344D01*
X006729Y021418D02*
X006503Y021418D01*
X006503Y021984D02*
X006729Y021984D01*
X006503Y021984D02*
X006503Y022260D01*
X006729Y022260D01*
X006729Y021984D01*
X006729Y022058D02*
X006503Y022058D01*
X006503Y022132D02*
X006729Y022132D01*
X006729Y022206D02*
X006503Y022206D01*
X006503Y022771D02*
X006729Y022771D01*
X006503Y022771D02*
X006503Y023047D01*
X006729Y023047D01*
X006729Y022771D01*
X006729Y022845D02*
X006503Y022845D01*
X006503Y022919D02*
X006729Y022919D01*
X006729Y022993D02*
X006503Y022993D01*
X007103Y022771D02*
X007329Y022771D01*
X007103Y022771D02*
X007103Y023047D01*
X007329Y023047D01*
X007329Y022771D01*
X007329Y022845D02*
X007103Y022845D01*
X007103Y022919D02*
X007329Y022919D01*
X007329Y022993D02*
X007103Y022993D01*
X007103Y021984D02*
X007329Y021984D01*
X007103Y021984D02*
X007103Y022260D01*
X007329Y022260D01*
X007329Y021984D01*
X007329Y022058D02*
X007103Y022058D01*
X007103Y022132D02*
X007329Y022132D01*
X007329Y022206D02*
X007103Y022206D01*
X007103Y021196D02*
X007329Y021196D01*
X007103Y021196D02*
X007103Y021472D01*
X007329Y021472D01*
X007329Y021196D01*
X007329Y021270D02*
X007103Y021270D01*
X007103Y021344D02*
X007329Y021344D01*
X007329Y021418D02*
X007103Y021418D01*
X007103Y020409D02*
X007329Y020409D01*
X007103Y020409D02*
X007103Y020685D01*
X007329Y020685D01*
X007329Y020409D01*
X007329Y020483D02*
X007103Y020483D01*
X007103Y020557D02*
X007329Y020557D01*
X007329Y020631D02*
X007103Y020631D01*
D39*
X014416Y020968D03*
X016400Y020968D03*
D40*
X008716Y018618D03*
X007016Y018618D03*
D41*
X013383Y018657D03*
X014131Y018657D03*
X014820Y018657D03*
X015194Y019523D03*
X014446Y019523D03*
X013757Y019523D03*
X017516Y019169D03*
X018264Y019169D03*
X017890Y020035D03*
D42*
X012260Y020124D03*
X014505Y014927D03*
D43*
X014505Y017427D03*
X012260Y022624D03*
D44*
X010961Y021787D03*
X010961Y021039D03*
X010095Y021413D03*
D45*
X023058Y015933D02*
X025657Y015933D01*
X025657Y006721D01*
X023846Y006721D01*
X023846Y008453D01*
X024239Y008453D01*
X024239Y007626D01*
X025302Y007626D01*
X025302Y015540D01*
X023727Y015540D01*
X023727Y006721D01*
X023058Y006721D01*
X023058Y015933D01*
X023058Y015891D02*
X025657Y015891D01*
X025657Y015843D02*
X023058Y015843D01*
X023058Y015794D02*
X025657Y015794D01*
X025657Y015746D02*
X023058Y015746D01*
X023058Y015697D02*
X025657Y015697D01*
X025657Y015649D02*
X023058Y015649D01*
X023058Y015600D02*
X025657Y015600D01*
X025657Y015552D02*
X023058Y015552D01*
X023058Y015503D02*
X023727Y015503D01*
X023727Y015455D02*
X023058Y015455D01*
X023058Y015406D02*
X023727Y015406D01*
X023727Y015358D02*
X023058Y015358D01*
X023058Y015309D02*
X023727Y015309D01*
X023727Y015261D02*
X023058Y015261D01*
X023058Y015212D02*
X023727Y015212D01*
X023727Y015164D02*
X023058Y015164D01*
X023058Y015115D02*
X023727Y015115D01*
X023727Y015067D02*
X023058Y015067D01*
X023058Y015018D02*
X023727Y015018D01*
X023727Y014970D02*
X023058Y014970D01*
X023058Y014921D02*
X023727Y014921D01*
X023727Y014873D02*
X023058Y014873D01*
X023058Y014824D02*
X023727Y014824D01*
X023727Y014776D02*
X023058Y014776D01*
X023058Y014727D02*
X023727Y014727D01*
X023727Y014679D02*
X023058Y014679D01*
X023058Y014630D02*
X023727Y014630D01*
X023727Y014582D02*
X023058Y014582D01*
X023058Y014533D02*
X023727Y014533D01*
X023727Y014485D02*
X023058Y014485D01*
X023058Y014436D02*
X023727Y014436D01*
X023727Y014388D02*
X023058Y014388D01*
X023058Y014339D02*
X023727Y014339D01*
X023727Y014291D02*
X023058Y014291D01*
X023058Y014242D02*
X023727Y014242D01*
X023727Y014194D02*
X023058Y014194D01*
X023058Y014145D02*
X023727Y014145D01*
X023727Y014097D02*
X023058Y014097D01*
X023058Y014048D02*
X023727Y014048D01*
X023727Y014000D02*
X023058Y014000D01*
X023058Y013951D02*
X023727Y013951D01*
X023727Y013903D02*
X023058Y013903D01*
X023058Y013854D02*
X023727Y013854D01*
X023727Y013806D02*
X023058Y013806D01*
X023058Y013757D02*
X023727Y013757D01*
X023727Y013709D02*
X023058Y013709D01*
X023058Y013660D02*
X023727Y013660D01*
X023727Y013612D02*
X023058Y013612D01*
X023058Y013563D02*
X023727Y013563D01*
X023727Y013515D02*
X023058Y013515D01*
X023058Y013466D02*
X023727Y013466D01*
X023727Y013418D02*
X023058Y013418D01*
X023058Y013369D02*
X023727Y013369D01*
X023727Y013321D02*
X023058Y013321D01*
X023058Y013272D02*
X023727Y013272D01*
X023727Y013224D02*
X023058Y013224D01*
X023058Y013175D02*
X023727Y013175D01*
X023727Y013127D02*
X023058Y013127D01*
X023058Y013078D02*
X023727Y013078D01*
X023727Y013030D02*
X023058Y013030D01*
X023058Y012981D02*
X023727Y012981D01*
X023727Y012933D02*
X023058Y012933D01*
X023058Y012884D02*
X023727Y012884D01*
X023727Y012836D02*
X023058Y012836D01*
X023058Y012787D02*
X023727Y012787D01*
X023727Y012739D02*
X023058Y012739D01*
X023058Y012690D02*
X023727Y012690D01*
X023727Y012642D02*
X023058Y012642D01*
X023058Y012593D02*
X023727Y012593D01*
X023727Y012545D02*
X023058Y012545D01*
X023058Y012496D02*
X023727Y012496D01*
X023727Y012448D02*
X023058Y012448D01*
X023058Y012399D02*
X023727Y012399D01*
X023727Y012351D02*
X023058Y012351D01*
X023058Y012302D02*
X023727Y012302D01*
X023727Y012254D02*
X023058Y012254D01*
X023058Y012205D02*
X023727Y012205D01*
X023727Y012157D02*
X023058Y012157D01*
X023058Y012108D02*
X023727Y012108D01*
X023727Y012060D02*
X023058Y012060D01*
X023058Y012011D02*
X023727Y012011D01*
X023727Y011963D02*
X023058Y011963D01*
X023058Y011914D02*
X023727Y011914D01*
X023727Y011866D02*
X023058Y011866D01*
X023058Y011817D02*
X023727Y011817D01*
X023727Y011769D02*
X023058Y011769D01*
X023058Y011720D02*
X023727Y011720D01*
X023727Y011672D02*
X023058Y011672D01*
X023058Y011623D02*
X023727Y011623D01*
X023727Y011575D02*
X023058Y011575D01*
X023058Y011526D02*
X023727Y011526D01*
X023727Y011478D02*
X023058Y011478D01*
X023058Y011429D02*
X023727Y011429D01*
X023727Y011381D02*
X023058Y011381D01*
X023058Y011332D02*
X023727Y011332D01*
X023727Y011284D02*
X023058Y011284D01*
X023058Y011235D02*
X023727Y011235D01*
X023727Y011187D02*
X023058Y011187D01*
X023058Y011138D02*
X023727Y011138D01*
X023727Y011090D02*
X023058Y011090D01*
X023058Y011041D02*
X023727Y011041D01*
X023727Y010993D02*
X023058Y010993D01*
X023058Y010944D02*
X023727Y010944D01*
X023727Y010896D02*
X023058Y010896D01*
X023058Y010847D02*
X023727Y010847D01*
X023727Y010799D02*
X023058Y010799D01*
X023058Y010750D02*
X023727Y010750D01*
X023727Y010702D02*
X023058Y010702D01*
X023058Y010653D02*
X023727Y010653D01*
X023727Y010605D02*
X023058Y010605D01*
X023058Y010556D02*
X023727Y010556D01*
X023727Y010508D02*
X023058Y010508D01*
X023058Y010459D02*
X023727Y010459D01*
X023727Y010411D02*
X023058Y010411D01*
X023058Y010362D02*
X023727Y010362D01*
X023727Y010314D02*
X023058Y010314D01*
X023058Y010265D02*
X023727Y010265D01*
X023727Y010217D02*
X023058Y010217D01*
X023058Y010168D02*
X023727Y010168D01*
X023727Y010120D02*
X023058Y010120D01*
X023058Y010071D02*
X023727Y010071D01*
X023727Y010023D02*
X023058Y010023D01*
X023058Y009974D02*
X023727Y009974D01*
X023727Y009926D02*
X023058Y009926D01*
X023058Y009877D02*
X023727Y009877D01*
X023727Y009829D02*
X023058Y009829D01*
X023058Y009780D02*
X023727Y009780D01*
X023727Y009732D02*
X023058Y009732D01*
X023058Y009683D02*
X023727Y009683D01*
X023727Y009635D02*
X023058Y009635D01*
X023058Y009586D02*
X023727Y009586D01*
X023727Y009538D02*
X023058Y009538D01*
X023058Y009489D02*
X023727Y009489D01*
X023727Y009441D02*
X023058Y009441D01*
X023058Y009392D02*
X023727Y009392D01*
X023727Y009344D02*
X023058Y009344D01*
X023058Y009295D02*
X023727Y009295D01*
X023727Y009247D02*
X023058Y009247D01*
X023058Y009198D02*
X023727Y009198D01*
X023727Y009150D02*
X023058Y009150D01*
X023058Y009101D02*
X023727Y009101D01*
X023727Y009053D02*
X023058Y009053D01*
X023058Y009004D02*
X023727Y009004D01*
X023727Y008956D02*
X023058Y008956D01*
X023058Y008907D02*
X023727Y008907D01*
X023727Y008859D02*
X023058Y008859D01*
X023058Y008810D02*
X023727Y008810D01*
X023727Y008762D02*
X023058Y008762D01*
X023058Y008713D02*
X023727Y008713D01*
X023727Y008665D02*
X023058Y008665D01*
X023058Y008616D02*
X023727Y008616D01*
X023727Y008568D02*
X023058Y008568D01*
X023058Y008519D02*
X023727Y008519D01*
X023727Y008471D02*
X023058Y008471D01*
X023058Y008422D02*
X023727Y008422D01*
X023727Y008374D02*
X023058Y008374D01*
X023058Y008325D02*
X023727Y008325D01*
X023727Y008277D02*
X023058Y008277D01*
X023058Y008228D02*
X023727Y008228D01*
X023727Y008180D02*
X023058Y008180D01*
X023058Y008131D02*
X023727Y008131D01*
X023727Y008083D02*
X023058Y008083D01*
X023058Y008034D02*
X023727Y008034D01*
X023727Y007986D02*
X023058Y007986D01*
X023058Y007937D02*
X023727Y007937D01*
X023727Y007889D02*
X023058Y007889D01*
X023058Y007840D02*
X023727Y007840D01*
X023727Y007792D02*
X023058Y007792D01*
X023058Y007743D02*
X023727Y007743D01*
X023727Y007695D02*
X023058Y007695D01*
X023058Y007646D02*
X023727Y007646D01*
X023727Y007598D02*
X023058Y007598D01*
X023058Y007549D02*
X023727Y007549D01*
X023727Y007501D02*
X023058Y007501D01*
X023058Y007452D02*
X023727Y007452D01*
X023727Y007404D02*
X023058Y007404D01*
X023058Y007355D02*
X023727Y007355D01*
X023727Y007307D02*
X023058Y007307D01*
X023058Y007258D02*
X023727Y007258D01*
X023727Y007210D02*
X023058Y007210D01*
X023058Y007161D02*
X023727Y007161D01*
X023727Y007113D02*
X023058Y007113D01*
X023058Y007064D02*
X023727Y007064D01*
X023727Y007016D02*
X023058Y007016D01*
X023058Y006967D02*
X023727Y006967D01*
X023727Y006919D02*
X023058Y006919D01*
X023058Y006870D02*
X023727Y006870D01*
X023727Y006822D02*
X023058Y006822D01*
X023058Y006773D02*
X023727Y006773D01*
X023727Y006725D02*
X023058Y006725D01*
X023058Y006012D02*
X025657Y006012D01*
X025657Y004122D01*
X023058Y004122D01*
X023058Y006012D01*
X023058Y005997D02*
X025657Y005997D01*
X025657Y005949D02*
X023058Y005949D01*
X023058Y005900D02*
X025657Y005900D01*
X025657Y005852D02*
X023058Y005852D01*
X023058Y005803D02*
X025657Y005803D01*
X025657Y005755D02*
X023058Y005755D01*
X023058Y005706D02*
X025657Y005706D01*
X025657Y005658D02*
X023058Y005658D01*
X023058Y005609D02*
X025657Y005609D01*
X025657Y005561D02*
X023058Y005561D01*
X023058Y005512D02*
X025657Y005512D01*
X025657Y005464D02*
X023058Y005464D01*
X023058Y005415D02*
X025657Y005415D01*
X025657Y005367D02*
X023058Y005367D01*
X023058Y005318D02*
X025657Y005318D01*
X025657Y005270D02*
X023058Y005270D01*
X023058Y005221D02*
X025657Y005221D01*
X025657Y005173D02*
X023058Y005173D01*
X023058Y005124D02*
X025657Y005124D01*
X025657Y005076D02*
X023058Y005076D01*
X023058Y005027D02*
X025657Y005027D01*
X025657Y004979D02*
X023058Y004979D01*
X023058Y004930D02*
X025657Y004930D01*
X025657Y004882D02*
X023058Y004882D01*
X023058Y004833D02*
X025657Y004833D01*
X025657Y004785D02*
X023058Y004785D01*
X023058Y004736D02*
X025657Y004736D01*
X025657Y004688D02*
X023058Y004688D01*
X023058Y004639D02*
X025657Y004639D01*
X025657Y004591D02*
X023058Y004591D01*
X023058Y004542D02*
X025657Y004542D01*
X025657Y004494D02*
X023058Y004494D01*
X023058Y004445D02*
X025657Y004445D01*
X025657Y004397D02*
X023058Y004397D01*
X023058Y004348D02*
X025657Y004348D01*
X025657Y004300D02*
X023058Y004300D01*
X023058Y004251D02*
X025657Y004251D01*
X025657Y004203D02*
X023058Y004203D01*
X023058Y004154D02*
X025657Y004154D01*
X025657Y006725D02*
X023846Y006725D01*
X023846Y006773D02*
X025657Y006773D01*
X025657Y006822D02*
X023846Y006822D01*
X023846Y006870D02*
X025657Y006870D01*
X025657Y006919D02*
X023846Y006919D01*
X023846Y006967D02*
X025657Y006967D01*
X025657Y007016D02*
X023846Y007016D01*
X023846Y007064D02*
X025657Y007064D01*
X025657Y007113D02*
X023846Y007113D01*
X023846Y007161D02*
X025657Y007161D01*
X025657Y007210D02*
X023846Y007210D01*
X023846Y007258D02*
X025657Y007258D01*
X025657Y007307D02*
X023846Y007307D01*
X023846Y007355D02*
X025657Y007355D01*
X025657Y007404D02*
X023846Y007404D01*
X023846Y007452D02*
X025657Y007452D01*
X025657Y007501D02*
X023846Y007501D01*
X023846Y007549D02*
X025657Y007549D01*
X025657Y007598D02*
X023846Y007598D01*
X023846Y007646D02*
X024239Y007646D01*
X024239Y007695D02*
X023846Y007695D01*
X023846Y007743D02*
X024239Y007743D01*
X024239Y007792D02*
X023846Y007792D01*
X023846Y007840D02*
X024239Y007840D01*
X024239Y007889D02*
X023846Y007889D01*
X023846Y007937D02*
X024239Y007937D01*
X024239Y007986D02*
X023846Y007986D01*
X023846Y008034D02*
X024239Y008034D01*
X024239Y008083D02*
X023846Y008083D01*
X023846Y008131D02*
X024239Y008131D01*
X024239Y008180D02*
X023846Y008180D01*
X023846Y008228D02*
X024239Y008228D01*
X024239Y008277D02*
X023846Y008277D01*
X023846Y008325D02*
X024239Y008325D01*
X024239Y008374D02*
X023846Y008374D01*
X023846Y008422D02*
X024239Y008422D01*
X024672Y008422D02*
X025145Y008422D01*
X025145Y008374D02*
X024672Y008374D01*
X024672Y008325D02*
X025145Y008325D01*
X025145Y008277D02*
X024672Y008277D01*
X024672Y008228D02*
X025145Y008228D01*
X025145Y008180D02*
X024672Y008180D01*
X024672Y008131D02*
X025145Y008131D01*
X025145Y008083D02*
X024672Y008083D01*
X024672Y008034D02*
X025145Y008034D01*
X025145Y007986D02*
X024672Y007986D01*
X024672Y007937D02*
X025145Y007937D01*
X025145Y007889D02*
X024672Y007889D01*
X024672Y007840D02*
X025145Y007840D01*
X025145Y007792D02*
X024672Y007792D01*
X024672Y007784D02*
X025145Y007784D01*
X025145Y015185D01*
X024397Y015185D01*
X024397Y014831D01*
X024672Y014831D01*
X024672Y007784D01*
X025302Y007792D02*
X025657Y007792D01*
X025657Y007840D02*
X025302Y007840D01*
X025302Y007889D02*
X025657Y007889D01*
X025657Y007937D02*
X025302Y007937D01*
X025302Y007986D02*
X025657Y007986D01*
X025657Y008034D02*
X025302Y008034D01*
X025302Y008083D02*
X025657Y008083D01*
X025657Y008131D02*
X025302Y008131D01*
X025302Y008180D02*
X025657Y008180D01*
X025657Y008228D02*
X025302Y008228D01*
X025302Y008277D02*
X025657Y008277D01*
X025657Y008325D02*
X025302Y008325D01*
X025302Y008374D02*
X025657Y008374D01*
X025657Y008422D02*
X025302Y008422D01*
X025302Y008471D02*
X025657Y008471D01*
X025657Y008519D02*
X025302Y008519D01*
X025302Y008568D02*
X025657Y008568D01*
X025657Y008616D02*
X025302Y008616D01*
X025302Y008665D02*
X025657Y008665D01*
X025657Y008713D02*
X025302Y008713D01*
X025302Y008762D02*
X025657Y008762D01*
X025657Y008810D02*
X025302Y008810D01*
X025302Y008859D02*
X025657Y008859D01*
X025657Y008907D02*
X025302Y008907D01*
X025302Y008956D02*
X025657Y008956D01*
X025657Y009004D02*
X025302Y009004D01*
X025302Y009053D02*
X025657Y009053D01*
X025657Y009101D02*
X025302Y009101D01*
X025302Y009150D02*
X025657Y009150D01*
X025657Y009198D02*
X025302Y009198D01*
X025302Y009247D02*
X025657Y009247D01*
X025657Y009295D02*
X025302Y009295D01*
X025302Y009344D02*
X025657Y009344D01*
X025657Y009392D02*
X025302Y009392D01*
X025302Y009441D02*
X025657Y009441D01*
X025657Y009489D02*
X025302Y009489D01*
X025302Y009538D02*
X025657Y009538D01*
X025657Y009586D02*
X025302Y009586D01*
X025302Y009635D02*
X025657Y009635D01*
X025657Y009683D02*
X025302Y009683D01*
X025302Y009732D02*
X025657Y009732D01*
X025657Y009780D02*
X025302Y009780D01*
X025302Y009829D02*
X025657Y009829D01*
X025657Y009877D02*
X025302Y009877D01*
X025302Y009926D02*
X025657Y009926D01*
X025657Y009974D02*
X025302Y009974D01*
X025302Y010023D02*
X025657Y010023D01*
X025657Y010071D02*
X025302Y010071D01*
X025302Y010120D02*
X025657Y010120D01*
X025657Y010168D02*
X025302Y010168D01*
X025302Y010217D02*
X025657Y010217D01*
X025657Y010265D02*
X025302Y010265D01*
X025302Y010314D02*
X025657Y010314D01*
X025657Y010362D02*
X025302Y010362D01*
X025302Y010411D02*
X025657Y010411D01*
X025657Y010459D02*
X025302Y010459D01*
X025302Y010508D02*
X025657Y010508D01*
X025657Y010556D02*
X025302Y010556D01*
X025302Y010605D02*
X025657Y010605D01*
X025657Y010653D02*
X025302Y010653D01*
X025302Y010702D02*
X025657Y010702D01*
X025657Y010750D02*
X025302Y010750D01*
X025302Y010799D02*
X025657Y010799D01*
X025657Y010847D02*
X025302Y010847D01*
X025302Y010896D02*
X025657Y010896D01*
X025657Y010944D02*
X025302Y010944D01*
X025302Y010993D02*
X025657Y010993D01*
X025657Y011041D02*
X025302Y011041D01*
X025302Y011090D02*
X025657Y011090D01*
X025657Y011138D02*
X025302Y011138D01*
X025302Y011187D02*
X025657Y011187D01*
X025657Y011235D02*
X025302Y011235D01*
X025302Y011284D02*
X025657Y011284D01*
X025657Y011332D02*
X025302Y011332D01*
X025302Y011381D02*
X025657Y011381D01*
X025657Y011429D02*
X025302Y011429D01*
X025302Y011478D02*
X025657Y011478D01*
X025657Y011526D02*
X025302Y011526D01*
X025302Y011575D02*
X025657Y011575D01*
X025657Y011623D02*
X025302Y011623D01*
X025302Y011672D02*
X025657Y011672D01*
X025657Y011720D02*
X025302Y011720D01*
X025302Y011769D02*
X025657Y011769D01*
X025657Y011817D02*
X025302Y011817D01*
X025302Y011866D02*
X025657Y011866D01*
X025657Y011914D02*
X025302Y011914D01*
X025302Y011963D02*
X025657Y011963D01*
X025657Y012011D02*
X025302Y012011D01*
X025302Y012060D02*
X025657Y012060D01*
X025657Y012108D02*
X025302Y012108D01*
X025302Y012157D02*
X025657Y012157D01*
X025657Y012205D02*
X025302Y012205D01*
X025302Y012254D02*
X025657Y012254D01*
X025657Y012302D02*
X025302Y012302D01*
X025302Y012351D02*
X025657Y012351D01*
X025657Y012399D02*
X025302Y012399D01*
X025302Y012448D02*
X025657Y012448D01*
X025657Y012496D02*
X025302Y012496D01*
X025302Y012545D02*
X025657Y012545D01*
X025657Y012593D02*
X025302Y012593D01*
X025302Y012642D02*
X025657Y012642D01*
X025657Y012690D02*
X025302Y012690D01*
X025302Y012739D02*
X025657Y012739D01*
X025657Y012787D02*
X025302Y012787D01*
X025302Y012836D02*
X025657Y012836D01*
X025657Y012884D02*
X025302Y012884D01*
X025302Y012933D02*
X025657Y012933D01*
X025657Y012981D02*
X025302Y012981D01*
X025302Y013030D02*
X025657Y013030D01*
X025657Y013078D02*
X025302Y013078D01*
X025302Y013127D02*
X025657Y013127D01*
X025657Y013175D02*
X025302Y013175D01*
X025302Y013224D02*
X025657Y013224D01*
X025657Y013272D02*
X025302Y013272D01*
X025302Y013321D02*
X025657Y013321D01*
X025657Y013369D02*
X025302Y013369D01*
X025302Y013418D02*
X025657Y013418D01*
X025657Y013466D02*
X025302Y013466D01*
X025302Y013515D02*
X025657Y013515D01*
X025657Y013563D02*
X025302Y013563D01*
X025302Y013612D02*
X025657Y013612D01*
X025657Y013660D02*
X025302Y013660D01*
X025302Y013709D02*
X025657Y013709D01*
X025657Y013757D02*
X025302Y013757D01*
X025302Y013806D02*
X025657Y013806D01*
X025657Y013854D02*
X025302Y013854D01*
X025302Y013903D02*
X025657Y013903D01*
X025657Y013951D02*
X025302Y013951D01*
X025302Y014000D02*
X025657Y014000D01*
X025657Y014048D02*
X025302Y014048D01*
X025302Y014097D02*
X025657Y014097D01*
X025657Y014145D02*
X025302Y014145D01*
X025302Y014194D02*
X025657Y014194D01*
X025657Y014242D02*
X025302Y014242D01*
X025302Y014291D02*
X025657Y014291D01*
X025657Y014339D02*
X025302Y014339D01*
X025302Y014388D02*
X025657Y014388D01*
X025657Y014436D02*
X025302Y014436D01*
X025302Y014485D02*
X025657Y014485D01*
X025657Y014533D02*
X025302Y014533D01*
X025302Y014582D02*
X025657Y014582D01*
X025657Y014630D02*
X025302Y014630D01*
X025302Y014679D02*
X025657Y014679D01*
X025657Y014727D02*
X025302Y014727D01*
X025302Y014776D02*
X025657Y014776D01*
X025657Y014824D02*
X025302Y014824D01*
X025302Y014873D02*
X025657Y014873D01*
X025657Y014921D02*
X025302Y014921D01*
X025302Y014970D02*
X025657Y014970D01*
X025657Y015018D02*
X025302Y015018D01*
X025302Y015067D02*
X025657Y015067D01*
X025657Y015115D02*
X025302Y015115D01*
X025302Y015164D02*
X025657Y015164D01*
X025657Y015212D02*
X025302Y015212D01*
X025302Y015261D02*
X025657Y015261D01*
X025657Y015309D02*
X025302Y015309D01*
X025302Y015358D02*
X025657Y015358D01*
X025657Y015406D02*
X025302Y015406D01*
X025302Y015455D02*
X025657Y015455D01*
X025657Y015503D02*
X025302Y015503D01*
X025145Y015164D02*
X024397Y015164D01*
X024397Y015115D02*
X025145Y015115D01*
X025145Y015067D02*
X024397Y015067D01*
X024397Y015018D02*
X025145Y015018D01*
X025145Y014970D02*
X024397Y014970D01*
X024397Y014921D02*
X025145Y014921D01*
X025145Y014873D02*
X024397Y014873D01*
X024672Y014824D02*
X025145Y014824D01*
X025145Y014776D02*
X024672Y014776D01*
X024672Y014727D02*
X025145Y014727D01*
X025145Y014679D02*
X024672Y014679D01*
X024672Y014630D02*
X025145Y014630D01*
X025145Y014582D02*
X024672Y014582D01*
X024672Y014533D02*
X025145Y014533D01*
X025145Y014485D02*
X024672Y014485D01*
X024672Y014436D02*
X025145Y014436D01*
X025145Y014388D02*
X024672Y014388D01*
X024672Y014339D02*
X025145Y014339D01*
X025145Y014291D02*
X024672Y014291D01*
X024672Y014242D02*
X025145Y014242D01*
X025145Y014194D02*
X024672Y014194D01*
X024672Y014145D02*
X025145Y014145D01*
X025145Y014097D02*
X024672Y014097D01*
X024672Y014048D02*
X025145Y014048D01*
X025145Y014000D02*
X024672Y014000D01*
X024672Y013951D02*
X025145Y013951D01*
X025145Y013903D02*
X024672Y013903D01*
X024672Y013854D02*
X025145Y013854D01*
X025145Y013806D02*
X024672Y013806D01*
X024672Y013757D02*
X025145Y013757D01*
X025145Y013709D02*
X024672Y013709D01*
X024672Y013660D02*
X025145Y013660D01*
X025145Y013612D02*
X024672Y013612D01*
X024672Y013563D02*
X025145Y013563D01*
X025145Y013515D02*
X024672Y013515D01*
X024672Y013466D02*
X025145Y013466D01*
X025145Y013418D02*
X024672Y013418D01*
X024672Y013369D02*
X025145Y013369D01*
X025145Y013321D02*
X024672Y013321D01*
X024672Y013272D02*
X025145Y013272D01*
X025145Y013224D02*
X024672Y013224D01*
X024672Y013175D02*
X025145Y013175D01*
X025145Y013127D02*
X024672Y013127D01*
X024672Y013078D02*
X025145Y013078D01*
X025145Y013030D02*
X024672Y013030D01*
X024672Y012981D02*
X025145Y012981D01*
X025145Y012933D02*
X024672Y012933D01*
X024672Y012884D02*
X025145Y012884D01*
X025145Y012836D02*
X024672Y012836D01*
X024672Y012787D02*
X025145Y012787D01*
X025145Y012739D02*
X024672Y012739D01*
X024672Y012690D02*
X025145Y012690D01*
X025145Y012642D02*
X024672Y012642D01*
X024672Y012593D02*
X025145Y012593D01*
X025145Y012545D02*
X024672Y012545D01*
X024672Y012496D02*
X025145Y012496D01*
X025145Y012448D02*
X024672Y012448D01*
X024672Y012399D02*
X025145Y012399D01*
X025145Y012351D02*
X024672Y012351D01*
X024672Y012302D02*
X025145Y012302D01*
X025145Y012254D02*
X024672Y012254D01*
X024672Y012205D02*
X025145Y012205D01*
X025145Y012157D02*
X024672Y012157D01*
X024672Y012108D02*
X025145Y012108D01*
X025145Y012060D02*
X024672Y012060D01*
X024672Y012011D02*
X025145Y012011D01*
X025145Y011963D02*
X024672Y011963D01*
X024672Y011914D02*
X025145Y011914D01*
X025145Y011866D02*
X024672Y011866D01*
X024672Y011817D02*
X025145Y011817D01*
X025145Y011769D02*
X024672Y011769D01*
X024672Y011720D02*
X025145Y011720D01*
X025145Y011672D02*
X024672Y011672D01*
X024672Y011623D02*
X025145Y011623D01*
X025145Y011575D02*
X024672Y011575D01*
X024672Y011526D02*
X025145Y011526D01*
X025145Y011478D02*
X024672Y011478D01*
X024672Y011429D02*
X025145Y011429D01*
X025145Y011381D02*
X024672Y011381D01*
X024672Y011332D02*
X025145Y011332D01*
X025145Y011284D02*
X024672Y011284D01*
X024672Y011235D02*
X025145Y011235D01*
X025145Y011187D02*
X024672Y011187D01*
X024672Y011138D02*
X025145Y011138D01*
X025145Y011090D02*
X024672Y011090D01*
X024672Y011041D02*
X025145Y011041D01*
X025145Y010993D02*
X024672Y010993D01*
X024672Y010944D02*
X025145Y010944D01*
X025145Y010896D02*
X024672Y010896D01*
X024672Y010847D02*
X025145Y010847D01*
X025145Y010799D02*
X024672Y010799D01*
X024672Y010750D02*
X025145Y010750D01*
X025145Y010702D02*
X024672Y010702D01*
X024672Y010653D02*
X025145Y010653D01*
X025145Y010605D02*
X024672Y010605D01*
X024672Y010556D02*
X025145Y010556D01*
X025145Y010508D02*
X024672Y010508D01*
X024672Y010459D02*
X025145Y010459D01*
X025145Y010411D02*
X024672Y010411D01*
X024672Y010362D02*
X025145Y010362D01*
X025145Y010314D02*
X024672Y010314D01*
X024672Y010265D02*
X025145Y010265D01*
X025145Y010217D02*
X024672Y010217D01*
X024672Y010168D02*
X025145Y010168D01*
X025145Y010120D02*
X024672Y010120D01*
X024672Y010071D02*
X025145Y010071D01*
X025145Y010023D02*
X024672Y010023D01*
X024672Y009974D02*
X025145Y009974D01*
X025145Y009926D02*
X024672Y009926D01*
X024672Y009877D02*
X025145Y009877D01*
X025145Y009829D02*
X024672Y009829D01*
X024672Y009780D02*
X025145Y009780D01*
X025145Y009732D02*
X024672Y009732D01*
X024672Y009683D02*
X025145Y009683D01*
X025145Y009635D02*
X024672Y009635D01*
X024672Y009586D02*
X025145Y009586D01*
X025145Y009538D02*
X024672Y009538D01*
X024672Y009489D02*
X025145Y009489D01*
X025145Y009441D02*
X024672Y009441D01*
X024672Y009392D02*
X025145Y009392D01*
X025145Y009344D02*
X024672Y009344D01*
X024672Y009295D02*
X025145Y009295D01*
X025145Y009247D02*
X024672Y009247D01*
X024672Y009198D02*
X025145Y009198D01*
X025145Y009150D02*
X024672Y009150D01*
X024672Y009101D02*
X025145Y009101D01*
X025145Y009053D02*
X024672Y009053D01*
X024672Y009004D02*
X025145Y009004D01*
X025145Y008956D02*
X024672Y008956D01*
X024672Y008907D02*
X025145Y008907D01*
X025145Y008859D02*
X024672Y008859D01*
X024672Y008810D02*
X025145Y008810D01*
X025145Y008762D02*
X024672Y008762D01*
X024672Y008713D02*
X025145Y008713D01*
X025145Y008665D02*
X024672Y008665D01*
X024672Y008616D02*
X025145Y008616D01*
X025145Y008568D02*
X024672Y008568D01*
X024672Y008519D02*
X025145Y008519D01*
X025145Y008471D02*
X024672Y008471D01*
X025302Y007743D02*
X025657Y007743D01*
X025657Y007695D02*
X025302Y007695D01*
X025302Y007646D02*
X025657Y007646D01*
D46*
X023255Y006918D03*
X023255Y005815D03*
D47*
X022129Y003419D03*
X022606Y002452D03*
X022619Y001952D03*
X022606Y001467D03*
X022127Y001469D03*
X022127Y000969D03*
X022619Y000968D03*
X023119Y000968D03*
X023579Y000969D03*
X023579Y001469D03*
X023106Y001467D03*
X023119Y001952D03*
X023579Y001953D03*
X023579Y002453D03*
X023106Y002452D03*
X024079Y002453D03*
X024079Y001953D03*
X024079Y001469D03*
X024079Y000969D03*
X024579Y000969D03*
X024579Y001469D03*
X024579Y001953D03*
X024579Y002453D03*
X025079Y002453D03*
X025079Y001953D03*
X025079Y001469D03*
X025079Y000969D03*
X021627Y000969D03*
X021627Y001469D03*
X021127Y001469D03*
X021127Y000969D03*
X020627Y000969D03*
X020166Y000968D03*
X020153Y001467D03*
X020627Y001469D03*
X019653Y001467D03*
X019666Y000968D03*
X019166Y000968D03*
X018666Y000968D03*
X018653Y001467D03*
X019153Y001467D03*
X018153Y001467D03*
X018166Y000968D03*
X017666Y000968D03*
X017653Y001467D03*
X017153Y001467D03*
X016693Y001467D03*
X016705Y000968D03*
X017166Y000968D03*
X016205Y000968D03*
X016193Y001467D03*
X015693Y001467D03*
X015193Y001467D03*
X015205Y000968D03*
X015705Y000968D03*
X014705Y000968D03*
X014693Y001467D03*
X012579Y001385D03*
X012579Y001885D03*
X012579Y002369D03*
X012579Y002869D03*
X012079Y002869D03*
X012079Y002369D03*
X012079Y001885D03*
X011594Y001885D03*
X011094Y001885D03*
X010610Y001885D03*
X010110Y001885D03*
X010110Y001385D03*
X010610Y001385D03*
X011094Y001385D03*
X011594Y001385D03*
X012079Y001385D03*
X010979Y002669D03*
X008479Y002369D03*
X007429Y002369D03*
X006429Y002369D03*
X006378Y004239D03*
X005878Y004239D03*
X005878Y004739D03*
X006378Y004739D03*
X006378Y006011D03*
X005878Y006011D03*
X005878Y006511D03*
X006378Y006511D03*
X006378Y007979D03*
X005878Y007979D03*
X005878Y008479D03*
X006378Y008479D03*
X005129Y011469D03*
X007079Y012669D03*
X009196Y014168D03*
X008966Y014468D03*
X009587Y014488D03*
X009977Y014464D03*
X010316Y014168D03*
X010416Y014647D03*
X010416Y014988D03*
X010105Y015218D03*
X010416Y015468D03*
X010066Y015718D03*
X010455Y015968D03*
X010266Y016568D03*
X009866Y016568D03*
X009544Y015448D03*
X008992Y015503D03*
X007816Y015518D03*
X006916Y017968D03*
X006199Y018954D03*
X007216Y019418D03*
X008466Y020168D03*
X008816Y020118D03*
X007516Y020568D03*
X008816Y021668D03*
X012366Y019018D03*
X013205Y019287D03*
X012116Y016918D03*
X013666Y014968D03*
X014466Y013668D03*
X016666Y014793D03*
X017516Y014668D03*
X017516Y014318D03*
X017616Y015118D03*
X018316Y015118D03*
X019905Y015120D03*
X019941Y014377D03*
X021016Y013668D03*
X021666Y012968D03*
X021677Y012369D03*
X020380Y012310D03*
X017980Y012345D03*
X017229Y012269D03*
X016829Y012269D03*
X014547Y011030D03*
X014547Y010546D03*
X014047Y010546D03*
X014047Y011030D03*
X014047Y010046D03*
X014047Y009562D03*
X014547Y009562D03*
X014547Y010046D03*
X014547Y009062D03*
X014547Y008578D03*
X014047Y008578D03*
X014047Y009062D03*
X014047Y008078D03*
X014047Y007593D03*
X014047Y007093D03*
X014047Y006609D03*
X014047Y006109D03*
X014047Y005625D03*
X014547Y005625D03*
X014547Y006109D03*
X014547Y006609D03*
X014547Y007093D03*
X014547Y007593D03*
X014547Y008078D03*
X012696Y010503D03*
X012229Y010487D03*
X010882Y009119D03*
X010882Y008763D03*
X009968Y009344D03*
X010119Y007739D03*
X011079Y006369D03*
X011079Y006019D03*
X011129Y005419D03*
X014047Y005125D03*
X014047Y004641D03*
X014547Y004641D03*
X014547Y005125D03*
X014547Y004141D03*
X014047Y004141D03*
X011270Y013193D03*
X012118Y013929D03*
X010995Y014179D03*
X010961Y014563D03*
X008766Y017968D03*
X009416Y018268D03*
X010016Y018268D03*
X014916Y016468D03*
X018216Y018218D03*
X020766Y020118D03*
X020766Y020520D03*
X020920Y021740D03*
X020916Y023218D03*
X021416Y023218D03*
X021916Y023218D03*
X020416Y023218D03*
X019916Y023218D03*
X019416Y023218D03*
X018916Y023218D03*
X018416Y023218D03*
X017916Y023218D03*
X017416Y023218D03*
X016916Y023218D03*
X016416Y023218D03*
X016416Y021768D03*
X022116Y018518D03*
X021666Y015468D03*
X021166Y015468D03*
X021166Y014968D03*
X025866Y018368D03*
X026064Y019952D03*
D48*
X019866Y014320D02*
X019866Y014318D01*
X006616Y021334D02*
X006600Y021318D01*
X006399Y021318D01*
X005751Y020259D02*
X005755Y017656D01*
D49*
X006025Y017247D02*
X006050Y017236D01*
X006161Y017236D01*
X006178Y017243D01*
X006178Y016707D01*
X006167Y016691D01*
X006178Y016635D01*
X006178Y016578D01*
X006191Y016565D01*
X006187Y016520D01*
X006205Y016498D01*
X006211Y016470D01*
X006251Y016443D01*
X006334Y016343D01*
X006334Y016334D01*
X006381Y016287D01*
X006423Y016236D01*
X006432Y016235D01*
X006439Y016229D01*
X006505Y016229D01*
X006529Y016227D01*
X006443Y016141D01*
X006154Y016429D01*
X005732Y016429D01*
X005433Y016131D01*
X005433Y015708D01*
X005443Y015698D01*
X005355Y015662D01*
X005330Y015637D01*
X005330Y016921D01*
X005387Y016978D01*
X005429Y017080D01*
X005429Y017191D01*
X005410Y017238D01*
X006016Y017238D01*
X006025Y017247D01*
X006178Y017189D02*
X005429Y017189D01*
X005429Y017110D02*
X006178Y017110D01*
X006178Y017032D02*
X005409Y017032D01*
X005362Y016953D02*
X006178Y016953D01*
X006178Y016875D02*
X005330Y016875D01*
X005330Y016796D02*
X006178Y016796D01*
X006178Y016718D02*
X005330Y016718D01*
X005330Y016639D02*
X006177Y016639D01*
X006191Y016561D02*
X005330Y016561D01*
X005330Y016482D02*
X006208Y016482D01*
X006180Y016404D02*
X006284Y016404D01*
X006259Y016325D02*
X006343Y016325D01*
X006337Y016247D02*
X006415Y016247D01*
X006416Y016168D02*
X006471Y016168D01*
X005706Y016404D02*
X005330Y016404D01*
X005330Y016325D02*
X005628Y016325D01*
X005549Y016247D02*
X005330Y016247D01*
X005330Y016168D02*
X005471Y016168D01*
X005433Y016090D02*
X005330Y016090D01*
X005330Y016011D02*
X005433Y016011D01*
X005433Y015933D02*
X005330Y015933D01*
X005330Y015854D02*
X005433Y015854D01*
X005433Y015776D02*
X005330Y015776D01*
X005330Y015697D02*
X005440Y015697D01*
X004971Y015697D02*
X004883Y015697D01*
X004883Y015619D02*
X004971Y015619D01*
X004971Y015540D02*
X004883Y015540D01*
X004883Y015462D02*
X004971Y015462D01*
X004971Y015383D02*
X004883Y015383D01*
X004883Y015305D02*
X004971Y015305D01*
X004971Y015226D02*
X004883Y015226D01*
X004883Y015148D02*
X004971Y015148D01*
X004971Y015133D02*
X004914Y015076D01*
X004883Y015002D01*
X004883Y016400D01*
X004778Y016505D01*
X004549Y016505D01*
X004506Y016607D01*
X004363Y016751D01*
X004224Y016809D01*
X004275Y016809D01*
X004463Y016886D01*
X004606Y017030D01*
X004684Y017217D01*
X004684Y017420D01*
X004606Y017607D01*
X004463Y017751D01*
X004275Y017829D01*
X004072Y017829D01*
X003885Y017751D01*
X003742Y017607D01*
X003664Y017420D01*
X003664Y017217D01*
X003742Y017030D01*
X003885Y016886D01*
X004024Y016829D01*
X003972Y016829D01*
X003785Y016751D01*
X003642Y016607D01*
X003564Y016420D01*
X003564Y016217D01*
X003642Y016030D01*
X003785Y015886D01*
X003972Y015809D01*
X004024Y015809D01*
X003885Y015751D01*
X003742Y015607D01*
X003664Y015420D01*
X003664Y015217D01*
X003742Y015030D01*
X003885Y014886D01*
X004024Y014829D01*
X003972Y014829D01*
X003863Y014783D01*
X003511Y015135D01*
X003511Y019575D01*
X003885Y019949D01*
X004189Y019949D01*
X004249Y020009D01*
X004309Y019949D01*
X004701Y019949D01*
X004783Y020031D01*
X004783Y020077D01*
X004961Y020077D01*
X004961Y020024D01*
X005043Y019941D01*
X005050Y019941D01*
X005050Y019904D01*
X004991Y019928D01*
X004880Y019928D01*
X004777Y019886D01*
X004699Y019807D01*
X004656Y019705D01*
X004656Y019594D01*
X004699Y019491D01*
X004756Y019434D01*
X004756Y019087D01*
X004699Y019030D01*
X004656Y018928D01*
X004656Y018817D01*
X004699Y018714D01*
X004777Y018635D01*
X004880Y018593D01*
X004991Y018593D01*
X005056Y018620D01*
X005061Y017430D01*
X005082Y017409D01*
X004992Y017372D01*
X004914Y017294D01*
X004871Y017191D01*
X004871Y017080D01*
X004914Y016978D01*
X004971Y016921D01*
X004971Y015133D01*
X004911Y015069D02*
X004883Y015069D01*
X004883Y014833D02*
X004914Y014760D01*
X004992Y014681D01*
X005095Y014639D01*
X005206Y014639D01*
X005308Y014681D01*
X005334Y014707D01*
X005632Y014409D01*
X005891Y014409D01*
X005831Y014350D01*
X005831Y014323D01*
X005774Y014266D01*
X005731Y014163D01*
X005731Y014115D01*
X005639Y014115D01*
X005536Y014072D01*
X005458Y013994D01*
X005415Y013891D01*
X005415Y013780D01*
X005458Y013678D01*
X005536Y013599D01*
X005639Y013557D01*
X005667Y013557D01*
X005667Y012989D01*
X005749Y012907D01*
X005890Y012907D01*
X005890Y012812D01*
X005884Y012807D01*
X004930Y012807D01*
X004928Y012809D01*
X004825Y012851D01*
X004714Y012851D01*
X004652Y012825D01*
X004652Y013690D01*
X004831Y013874D01*
X004883Y013926D01*
X004883Y013928D01*
X004884Y013929D01*
X004883Y014002D01*
X004883Y014833D01*
X004883Y014755D02*
X004918Y014755D01*
X004883Y014677D02*
X005003Y014677D01*
X004883Y014598D02*
X005443Y014598D01*
X005522Y014520D02*
X004883Y014520D01*
X004883Y014441D02*
X005600Y014441D01*
X005792Y014284D02*
X004883Y014284D01*
X004883Y014206D02*
X005749Y014206D01*
X005731Y014127D02*
X004883Y014127D01*
X004883Y014049D02*
X005513Y014049D01*
X005448Y013970D02*
X004884Y013970D01*
X004849Y013892D02*
X005415Y013892D01*
X005415Y013813D02*
X004772Y013813D01*
X004695Y013735D02*
X005434Y013735D01*
X005479Y013656D02*
X004652Y013656D01*
X004652Y013578D02*
X005588Y013578D01*
X005667Y013499D02*
X004652Y013499D01*
X004652Y013421D02*
X005667Y013421D01*
X005667Y013342D02*
X004652Y013342D01*
X004652Y013264D02*
X005667Y013264D01*
X005667Y013185D02*
X004652Y013185D01*
X004652Y013107D02*
X005667Y013107D01*
X005667Y013028D02*
X004652Y013028D01*
X004652Y012950D02*
X005706Y012950D01*
X005890Y012871D02*
X004652Y012871D01*
X004293Y012871D02*
X003306Y012871D01*
X003306Y012793D02*
X004293Y012793D01*
X004293Y012714D02*
X003306Y012714D01*
X003306Y012636D02*
X004293Y012636D01*
X004293Y012557D02*
X003306Y012557D01*
X003306Y012479D02*
X004293Y012479D01*
X004293Y012400D02*
X003306Y012400D01*
X003306Y012322D02*
X004293Y012322D01*
X004293Y012243D02*
X003306Y012243D01*
X003306Y012165D02*
X004293Y012165D01*
X004293Y012086D02*
X003306Y012086D01*
X003306Y012008D02*
X004293Y012008D01*
X004293Y011929D02*
X003306Y011929D01*
X003306Y011851D02*
X004293Y011851D01*
X004293Y011772D02*
X003306Y011772D01*
X003306Y011694D02*
X004293Y011694D01*
X004293Y011615D02*
X003306Y011615D01*
X003306Y011537D02*
X004293Y011537D01*
X004293Y011458D02*
X003306Y011458D01*
X003306Y011380D02*
X004293Y011380D01*
X004293Y011301D02*
X003306Y011301D01*
X003306Y011223D02*
X004293Y011223D01*
X004293Y011144D02*
X003306Y011144D01*
X003306Y011066D02*
X004293Y011066D01*
X004293Y010987D02*
X003306Y010987D01*
X003306Y010909D02*
X004293Y010909D01*
X004293Y010830D02*
X003306Y010830D01*
X003306Y010752D02*
X004293Y010752D01*
X004293Y010673D02*
X003306Y010673D01*
X003306Y010595D02*
X004293Y010595D01*
X004293Y010516D02*
X003306Y010516D01*
X003306Y010438D02*
X004293Y010438D01*
X004293Y010359D02*
X003306Y010359D01*
X003306Y010281D02*
X004293Y010281D01*
X004293Y010216D02*
X004398Y010111D01*
X004629Y009879D01*
X009193Y009879D01*
X009688Y009384D01*
X009688Y009289D01*
X009731Y009186D01*
X009810Y009107D01*
X009913Y009064D01*
X010024Y009064D01*
X010127Y009107D01*
X010206Y009186D01*
X010248Y009289D01*
X010248Y009400D01*
X010206Y009503D01*
X010127Y009582D01*
X010024Y009624D01*
X009955Y009624D01*
X009447Y010133D01*
X009342Y010238D01*
X004778Y010238D01*
X004652Y010364D01*
X004652Y012319D01*
X004714Y012293D01*
X004825Y012293D01*
X004915Y012330D01*
X005885Y012330D01*
X006136Y012038D01*
X006141Y012025D01*
X006180Y011987D01*
X006188Y011977D01*
X006139Y011928D01*
X006139Y011659D01*
X005335Y011659D01*
X005287Y011706D01*
X005184Y011749D01*
X005073Y011749D01*
X004970Y011706D01*
X004891Y011628D01*
X004849Y011525D01*
X004849Y011413D01*
X004891Y011310D01*
X004970Y011232D01*
X005073Y011189D01*
X005184Y011189D01*
X005287Y011232D01*
X005335Y011279D01*
X006139Y011279D01*
X006139Y011024D01*
X006221Y010942D01*
X006349Y010942D01*
X006349Y010894D01*
X006454Y010789D01*
X006554Y010689D01*
X009092Y010689D01*
X010399Y009383D01*
X010399Y007796D01*
X010357Y007898D01*
X010278Y007977D01*
X010175Y008019D01*
X010063Y008019D01*
X009961Y007977D01*
X009882Y007898D01*
X009839Y007795D01*
X009839Y007684D01*
X009882Y007581D01*
X009961Y007502D01*
X010063Y007459D01*
X010175Y007459D01*
X010278Y007502D01*
X010357Y007581D01*
X010399Y007682D01*
X010399Y004794D01*
X010504Y004689D01*
X010604Y004589D01*
X010769Y004589D01*
X010769Y004531D01*
X010821Y004478D01*
X010763Y004420D01*
X010763Y004365D01*
X008170Y004365D01*
X006454Y002649D01*
X006373Y002649D01*
X006270Y002606D01*
X006191Y002528D01*
X006149Y002425D01*
X006149Y002313D01*
X006191Y002210D01*
X006270Y002132D01*
X006304Y002117D01*
X003344Y002117D01*
X003326Y002195D02*
X006206Y002195D01*
X006190Y002108D02*
X006108Y002026D01*
X006108Y001044D01*
X006190Y000962D01*
X006778Y000962D01*
X006860Y001044D01*
X006860Y002026D01*
X006778Y002108D01*
X006664Y002108D01*
X006664Y002208D01*
X006666Y002210D01*
X006709Y002313D01*
X006709Y002394D01*
X008319Y004005D01*
X010763Y004005D01*
X010763Y003949D01*
X010821Y003891D01*
X010763Y003832D01*
X010763Y003777D01*
X008582Y003777D01*
X007454Y002649D01*
X007373Y002649D01*
X007270Y002606D01*
X007191Y002528D01*
X007149Y002425D01*
X007149Y002313D01*
X007191Y002210D01*
X007269Y002133D01*
X007269Y002092D01*
X007154Y002092D01*
X007072Y002010D01*
X007072Y001028D01*
X007154Y000946D01*
X007743Y000946D01*
X007825Y001028D01*
X007825Y002010D01*
X007743Y002092D01*
X007629Y002092D01*
X007629Y002173D01*
X007666Y002210D01*
X007709Y002313D01*
X007709Y002394D01*
X008731Y003417D01*
X010763Y003417D01*
X010763Y003362D01*
X010825Y003300D01*
X010756Y003231D01*
X010756Y003216D01*
X009014Y003216D01*
X008530Y003216D01*
X008608Y003294D02*
X010819Y003294D01*
X010763Y003373D02*
X008687Y003373D01*
X008657Y003597D02*
X007429Y002369D01*
X007449Y002349D01*
X007449Y001519D01*
X007072Y001489D02*
X006860Y001489D01*
X006860Y001567D02*
X007072Y001567D01*
X007072Y001646D02*
X006860Y001646D01*
X006860Y001724D02*
X007072Y001724D01*
X007072Y001803D02*
X006860Y001803D01*
X006860Y001881D02*
X007072Y001881D01*
X007072Y001960D02*
X006860Y001960D01*
X006848Y002038D02*
X007100Y002038D01*
X007269Y002117D02*
X006664Y002117D01*
X006664Y002195D02*
X007206Y002195D01*
X007165Y002274D02*
X006692Y002274D01*
X006709Y002352D02*
X007149Y002352D01*
X007151Y002431D02*
X006745Y002431D01*
X006823Y002509D02*
X007184Y002509D01*
X007251Y002588D02*
X006902Y002588D01*
X006980Y002666D02*
X007471Y002666D01*
X007550Y002745D02*
X007059Y002745D01*
X007137Y002823D02*
X007628Y002823D01*
X007707Y002902D02*
X007216Y002902D01*
X007294Y002980D02*
X007785Y002980D01*
X007864Y003059D02*
X007373Y003059D01*
X007451Y003137D02*
X007942Y003137D01*
X008021Y003216D02*
X007530Y003216D01*
X007608Y003294D02*
X008099Y003294D01*
X008178Y003373D02*
X007687Y003373D01*
X007765Y003451D02*
X008256Y003451D01*
X008335Y003530D02*
X007844Y003530D01*
X007922Y003608D02*
X008413Y003608D01*
X008492Y003687D02*
X008001Y003687D01*
X008079Y003765D02*
X008570Y003765D01*
X008657Y003597D02*
X011040Y003597D01*
X010774Y003844D02*
X008158Y003844D01*
X008236Y003922D02*
X010790Y003922D01*
X010763Y004001D02*
X008315Y004001D01*
X008244Y004185D02*
X006429Y002369D01*
X006484Y002313D01*
X006484Y001535D01*
X006860Y001410D02*
X007072Y001410D01*
X007072Y001332D02*
X006860Y001332D01*
X006860Y001253D02*
X007072Y001253D01*
X007072Y001175D02*
X006860Y001175D01*
X006860Y001096D02*
X007072Y001096D01*
X007083Y001018D02*
X006834Y001018D01*
X006134Y001018D02*
X004000Y001018D01*
X004098Y000939D02*
X025462Y000939D01*
X025399Y000888D02*
X025030Y000711D01*
X024631Y000620D01*
X024426Y000608D01*
X005134Y000608D01*
X004930Y000620D01*
X004531Y000711D01*
X004162Y000888D01*
X003842Y001144D01*
X003586Y001464D01*
X003409Y001833D01*
X003317Y002232D01*
X003306Y002437D01*
X003306Y014833D01*
X003609Y014529D01*
X003564Y014420D01*
X003564Y014217D01*
X003642Y014030D01*
X003785Y013886D01*
X003972Y013809D01*
X004175Y013809D01*
X004328Y013872D01*
X004293Y013837D01*
X004293Y013835D01*
X004292Y013834D01*
X004293Y013761D01*
X004293Y010216D01*
X004307Y010202D02*
X003306Y010202D01*
X003306Y010124D02*
X004385Y010124D01*
X004464Y010045D02*
X003306Y010045D01*
X003306Y009967D02*
X004542Y009967D01*
X004621Y009888D02*
X003306Y009888D01*
X003306Y009810D02*
X009263Y009810D01*
X009341Y009731D02*
X003306Y009731D01*
X003306Y009653D02*
X009420Y009653D01*
X009498Y009574D02*
X003306Y009574D01*
X003306Y009496D02*
X009577Y009496D01*
X009655Y009417D02*
X003306Y009417D01*
X003306Y009339D02*
X009688Y009339D01*
X009700Y009260D02*
X003306Y009260D01*
X003306Y009182D02*
X009735Y009182D01*
X009819Y009103D02*
X003306Y009103D01*
X003306Y009025D02*
X010399Y009025D01*
X010399Y009103D02*
X010117Y009103D01*
X010201Y009182D02*
X010399Y009182D01*
X010399Y009260D02*
X010236Y009260D01*
X010248Y009339D02*
X010399Y009339D01*
X010364Y009417D02*
X010241Y009417D01*
X010209Y009496D02*
X010286Y009496D01*
X010207Y009574D02*
X010135Y009574D01*
X010129Y009653D02*
X009927Y009653D01*
X009849Y009731D02*
X010050Y009731D01*
X009972Y009810D02*
X009770Y009810D01*
X009692Y009888D02*
X009893Y009888D01*
X009815Y009967D02*
X009613Y009967D01*
X009535Y010045D02*
X009736Y010045D01*
X009658Y010124D02*
X009456Y010124D01*
X009378Y010202D02*
X009579Y010202D01*
X009501Y010281D02*
X004735Y010281D01*
X004657Y010359D02*
X009422Y010359D01*
X009344Y010438D02*
X004652Y010438D01*
X004652Y010516D02*
X009265Y010516D01*
X009187Y010595D02*
X004652Y010595D01*
X004652Y010673D02*
X009108Y010673D01*
X009167Y010869D02*
X006629Y010869D01*
X006529Y010969D01*
X006529Y011463D01*
X006516Y011476D01*
X006139Y011694D02*
X005300Y011694D01*
X004957Y011694D02*
X004652Y011694D01*
X004652Y011772D02*
X006139Y011772D01*
X006139Y011851D02*
X004652Y011851D01*
X004652Y011929D02*
X006141Y011929D01*
X006159Y012008D02*
X004652Y012008D01*
X004652Y012086D02*
X006094Y012086D01*
X006027Y012165D02*
X004652Y012165D01*
X004652Y012243D02*
X005960Y012243D01*
X005892Y012322D02*
X004895Y012322D01*
X004293Y012950D02*
X003306Y012950D01*
X003306Y013028D02*
X004293Y013028D01*
X004293Y013107D02*
X003306Y013107D01*
X003306Y013185D02*
X004293Y013185D01*
X004293Y013264D02*
X003306Y013264D01*
X003306Y013342D02*
X004293Y013342D01*
X004293Y013421D02*
X003306Y013421D01*
X003306Y013499D02*
X004293Y013499D01*
X004293Y013578D02*
X003306Y013578D01*
X003306Y013656D02*
X004293Y013656D01*
X004293Y013735D02*
X003306Y013735D01*
X003306Y013813D02*
X003961Y013813D01*
X003779Y013892D02*
X003306Y013892D01*
X003306Y013970D02*
X003701Y013970D01*
X003634Y014049D02*
X003306Y014049D01*
X003306Y014127D02*
X003601Y014127D01*
X003569Y014206D02*
X003306Y014206D01*
X003306Y014284D02*
X003564Y014284D01*
X003564Y014363D02*
X003306Y014363D01*
X003306Y014441D02*
X003573Y014441D01*
X003605Y014520D02*
X003306Y014520D01*
X003306Y014598D02*
X003541Y014598D01*
X003462Y014677D02*
X003306Y014677D01*
X003306Y014755D02*
X003384Y014755D01*
X003655Y014991D02*
X003780Y014991D01*
X003734Y014912D02*
X003859Y014912D01*
X003812Y014834D02*
X004012Y014834D01*
X003725Y015069D02*
X003577Y015069D01*
X003511Y015148D02*
X003693Y015148D01*
X003664Y015226D02*
X003511Y015226D01*
X003511Y015305D02*
X003664Y015305D01*
X003664Y015383D02*
X003511Y015383D01*
X003511Y015462D02*
X003681Y015462D01*
X003714Y015540D02*
X003511Y015540D01*
X003511Y015619D02*
X003753Y015619D01*
X003831Y015697D02*
X003511Y015697D01*
X003511Y015776D02*
X003945Y015776D01*
X003862Y015854D02*
X003511Y015854D01*
X003511Y015933D02*
X003738Y015933D01*
X003660Y016011D02*
X003511Y016011D01*
X003511Y016090D02*
X003617Y016090D01*
X003584Y016168D02*
X003511Y016168D01*
X003511Y016247D02*
X003564Y016247D01*
X003564Y016325D02*
X003511Y016325D01*
X003511Y016404D02*
X003564Y016404D01*
X003590Y016482D02*
X003511Y016482D01*
X003511Y016561D02*
X003622Y016561D01*
X003673Y016639D02*
X003511Y016639D01*
X003511Y016718D02*
X003752Y016718D01*
X003894Y016796D02*
X003511Y016796D01*
X003511Y016875D02*
X003913Y016875D01*
X003818Y016953D02*
X003511Y016953D01*
X003511Y017032D02*
X003741Y017032D01*
X003708Y017110D02*
X003511Y017110D01*
X003511Y017189D02*
X003676Y017189D01*
X003664Y017267D02*
X003511Y017267D01*
X003511Y017346D02*
X003664Y017346D01*
X003666Y017424D02*
X003511Y017424D01*
X003511Y017503D02*
X003698Y017503D01*
X003731Y017581D02*
X003511Y017581D01*
X003511Y017660D02*
X003794Y017660D01*
X003872Y017738D02*
X003511Y017738D01*
X003511Y017817D02*
X004044Y017817D01*
X004304Y017817D02*
X005059Y017817D01*
X005059Y017895D02*
X003511Y017895D01*
X003511Y017974D02*
X005059Y017974D01*
X005058Y018052D02*
X003511Y018052D01*
X003511Y018131D02*
X005058Y018131D01*
X005058Y018209D02*
X003511Y018209D01*
X003511Y018288D02*
X005057Y018288D01*
X005057Y018366D02*
X003511Y018366D01*
X003511Y018445D02*
X005057Y018445D01*
X005056Y018523D02*
X003511Y018523D01*
X003511Y018602D02*
X004859Y018602D01*
X004733Y018680D02*
X003511Y018680D01*
X003511Y018759D02*
X004680Y018759D01*
X004656Y018837D02*
X003511Y018837D01*
X003511Y018916D02*
X004656Y018916D01*
X004684Y018994D02*
X003511Y018994D01*
X003511Y019073D02*
X004741Y019073D01*
X004756Y019151D02*
X003511Y019151D01*
X003511Y019230D02*
X004756Y019230D01*
X004756Y019308D02*
X003511Y019308D01*
X003511Y019387D02*
X004756Y019387D01*
X004725Y019465D02*
X003511Y019465D01*
X003511Y019544D02*
X004677Y019544D01*
X004656Y019622D02*
X003558Y019622D01*
X003636Y019701D02*
X004656Y019701D01*
X004687Y019779D02*
X003715Y019779D01*
X003793Y019858D02*
X004749Y019858D01*
X004766Y020015D02*
X004970Y020015D01*
X005050Y019936D02*
X003872Y019936D01*
X003600Y020172D02*
X003306Y020172D01*
X003306Y020250D02*
X003679Y020250D01*
X003715Y020287D02*
X003306Y019878D01*
X003306Y021728D01*
X003317Y021933D01*
X003409Y022332D01*
X003586Y022701D01*
X003842Y023021D01*
X003909Y023075D01*
X003909Y022584D01*
X003991Y022502D01*
X004507Y022502D01*
X004589Y022584D01*
X004589Y022952D01*
X004728Y023091D01*
X005159Y023091D01*
X005159Y022584D01*
X005241Y022502D01*
X005757Y022502D01*
X005839Y022584D01*
X005839Y022700D01*
X005852Y022687D01*
X005955Y022644D01*
X006066Y022644D01*
X006168Y022687D01*
X006247Y022765D01*
X006289Y022868D01*
X006289Y022979D01*
X006247Y023081D01*
X006237Y023091D01*
X006326Y023091D01*
X006326Y022698D01*
X006396Y022628D01*
X006396Y022403D01*
X006326Y022333D01*
X006326Y021911D01*
X006396Y021841D01*
X006396Y021615D01*
X006359Y021578D01*
X006347Y021578D01*
X006252Y021539D01*
X006179Y021465D01*
X006139Y021370D01*
X006139Y021266D01*
X006135Y021250D01*
X006148Y021228D01*
X006148Y021135D01*
X006037Y021135D01*
X006010Y021124D01*
X005951Y021184D01*
X005559Y021184D01*
X005499Y021124D01*
X005469Y021154D01*
X005519Y021204D01*
X005519Y021674D01*
X005449Y021744D01*
X005489Y021784D01*
X005489Y022350D01*
X005407Y022432D01*
X004891Y022432D01*
X004809Y022350D01*
X004809Y021784D01*
X004891Y021702D01*
X004990Y021702D01*
X004963Y021674D01*
X004963Y021204D01*
X005015Y021152D01*
X004982Y021119D01*
X004880Y021119D01*
X004783Y021079D01*
X004783Y021102D01*
X004701Y021184D01*
X004309Y021184D01*
X004249Y021124D01*
X004217Y021155D01*
X004266Y021204D01*
X004266Y021674D01*
X004198Y021742D01*
X004851Y021742D01*
X004809Y021820D02*
X004239Y021820D01*
X004239Y021784D02*
X004239Y022350D01*
X004157Y022432D01*
X003641Y022432D01*
X003559Y022350D01*
X003559Y021784D01*
X003641Y021702D01*
X003737Y021702D01*
X003710Y021674D01*
X003710Y021204D01*
X003764Y021150D01*
X003715Y021102D01*
X003715Y020631D01*
X003780Y020567D01*
X003715Y020502D01*
X003715Y020287D01*
X003715Y020329D02*
X003306Y020329D01*
X003306Y020407D02*
X003715Y020407D01*
X003715Y020486D02*
X003306Y020486D01*
X003306Y020564D02*
X003778Y020564D01*
X003715Y020643D02*
X003306Y020643D01*
X003306Y020721D02*
X003715Y020721D01*
X003715Y020800D02*
X003306Y020800D01*
X003306Y020878D02*
X003715Y020878D01*
X003715Y020957D02*
X003306Y020957D01*
X003306Y021035D02*
X003715Y021035D01*
X003727Y021114D02*
X003306Y021114D01*
X003306Y021192D02*
X003722Y021192D01*
X003710Y021271D02*
X003306Y021271D01*
X003306Y021349D02*
X003710Y021349D01*
X003710Y021428D02*
X003306Y021428D01*
X003306Y021506D02*
X003710Y021506D01*
X003710Y021585D02*
X003306Y021585D01*
X003306Y021663D02*
X003710Y021663D01*
X003601Y021742D02*
X003307Y021742D01*
X003311Y021820D02*
X003559Y021820D01*
X003559Y021899D02*
X003316Y021899D01*
X003328Y021977D02*
X003559Y021977D01*
X003559Y022056D02*
X003346Y022056D01*
X003363Y022134D02*
X003559Y022134D01*
X003559Y022213D02*
X003381Y022213D01*
X003399Y022291D02*
X003559Y022291D01*
X003579Y022370D02*
X003427Y022370D01*
X003465Y022448D02*
X006396Y022448D01*
X006396Y022527D02*
X005782Y022527D01*
X005839Y022605D02*
X006396Y022605D01*
X006340Y022684D02*
X006161Y022684D01*
X006244Y022762D02*
X006326Y022762D01*
X006326Y022841D02*
X006278Y022841D01*
X006289Y022919D02*
X006326Y022919D01*
X006326Y022998D02*
X006281Y022998D01*
X006249Y023076D02*
X006326Y023076D01*
X005859Y022684D02*
X005839Y022684D01*
X005469Y022370D02*
X006363Y022370D01*
X006326Y022291D02*
X005489Y022291D01*
X005489Y022213D02*
X006326Y022213D01*
X006326Y022134D02*
X005489Y022134D01*
X005489Y022056D02*
X006326Y022056D01*
X006326Y021977D02*
X005489Y021977D01*
X005489Y021899D02*
X006338Y021899D01*
X006396Y021820D02*
X005489Y021820D01*
X005451Y021742D02*
X006396Y021742D01*
X006396Y021663D02*
X005519Y021663D01*
X005519Y021585D02*
X006365Y021585D01*
X006219Y021506D02*
X005519Y021506D01*
X005519Y021428D02*
X006163Y021428D01*
X006139Y021349D02*
X005519Y021349D01*
X005519Y021271D02*
X006139Y021271D01*
X006139Y021266D02*
X006139Y021266D01*
X006148Y021192D02*
X005507Y021192D01*
X005241Y021439D02*
X005236Y022058D01*
X005149Y022067D01*
X004809Y022056D02*
X004239Y022056D01*
X004239Y022134D02*
X004809Y022134D01*
X004809Y022213D02*
X004239Y022213D01*
X004239Y022291D02*
X004809Y022291D01*
X004829Y022370D02*
X004219Y022370D01*
X003966Y022527D02*
X003502Y022527D01*
X003540Y022605D02*
X003909Y022605D01*
X003909Y022684D02*
X003578Y022684D01*
X003635Y022762D02*
X003909Y022762D01*
X003909Y022841D02*
X003698Y022841D01*
X003760Y022919D02*
X003909Y022919D01*
X003909Y022998D02*
X003823Y022998D01*
X004589Y022919D02*
X005159Y022919D01*
X005159Y022841D02*
X004589Y022841D01*
X004589Y022762D02*
X005159Y022762D01*
X005159Y022684D02*
X004589Y022684D01*
X004589Y022605D02*
X005159Y022605D01*
X005216Y022527D02*
X004532Y022527D01*
X004635Y022998D02*
X005159Y022998D01*
X005159Y023076D02*
X004714Y023076D01*
X004809Y021977D02*
X004239Y021977D01*
X004239Y021899D02*
X004809Y021899D01*
X004963Y021663D02*
X004266Y021663D01*
X004266Y021585D02*
X004963Y021585D01*
X004963Y021506D02*
X004266Y021506D01*
X004266Y021428D02*
X004963Y021428D01*
X004963Y021349D02*
X004266Y021349D01*
X004266Y021271D02*
X004963Y021271D01*
X004975Y021192D02*
X004254Y021192D01*
X003988Y021439D02*
X003944Y022022D01*
X003899Y022067D01*
X004198Y021742D02*
X004239Y021784D01*
X003988Y021439D02*
X003949Y021434D01*
X003993Y020867D01*
X004505Y020867D02*
X004599Y020867D01*
X004771Y021114D02*
X004867Y021114D01*
X005243Y020867D02*
X005238Y021437D01*
X005241Y021439D01*
X006507Y021019D02*
X006507Y020862D01*
X006802Y020862D01*
X006906Y020758D01*
X006906Y020533D01*
X006991Y020448D01*
X007838Y020448D01*
X007950Y020545D01*
X007950Y020782D01*
X008032Y020864D01*
X008424Y020864D01*
X008484Y020804D01*
X008544Y020864D01*
X008936Y020864D01*
X009018Y020782D01*
X009018Y020312D01*
X009053Y020277D01*
X009096Y020174D01*
X009096Y020062D01*
X009053Y019960D01*
X009018Y019924D01*
X009018Y019801D01*
X009022Y019792D01*
X009018Y019783D01*
X009018Y019524D01*
X008936Y019442D01*
X008544Y019442D01*
X008484Y019502D01*
X008424Y019442D01*
X008032Y019442D01*
X007950Y019524D01*
X007950Y019763D01*
X007808Y019888D01*
X006991Y019888D01*
X006906Y019804D01*
X006906Y019548D01*
X006802Y019444D01*
X006579Y019444D01*
X006610Y019415D01*
X006614Y019415D01*
X006664Y019365D01*
X006716Y019316D01*
X006716Y019313D01*
X006719Y019310D01*
X006719Y019239D01*
X006721Y019167D01*
X006719Y019165D01*
X006719Y019158D01*
X007424Y019158D01*
X007506Y019076D01*
X007506Y018355D01*
X007657Y018192D01*
X007708Y018140D01*
X007708Y018138D01*
X007709Y018136D01*
X007707Y018064D01*
X007706Y018034D01*
X007718Y018034D01*
X007800Y017952D01*
X007800Y017670D01*
X007932Y017517D01*
X007932Y017952D01*
X008014Y018034D01*
X008026Y018034D01*
X008025Y018064D01*
X008023Y018136D01*
X008024Y018138D01*
X008024Y018140D01*
X008075Y018192D01*
X008226Y018355D01*
X008226Y019076D01*
X008308Y019158D01*
X009124Y019158D01*
X009206Y019076D01*
X009206Y019045D01*
X009384Y019216D01*
X009384Y019364D01*
X009374Y019374D01*
X009374Y020932D01*
X009680Y021238D01*
X009680Y021668D01*
X009762Y021750D01*
X010429Y021750D01*
X010511Y021668D01*
X010511Y021583D01*
X010546Y021583D01*
X010546Y022042D01*
X010628Y022124D01*
X011295Y022124D01*
X011377Y022042D01*
X011377Y021951D01*
X011495Y022070D01*
X011495Y023182D01*
X011577Y023264D01*
X012943Y023264D01*
X012985Y023222D01*
X012986Y023227D01*
X012986Y023231D01*
X012977Y023248D01*
X012986Y023278D01*
X012986Y023293D01*
X012992Y023299D01*
X012993Y023302D01*
X012995Y023320D01*
X012991Y023333D01*
X012998Y023345D01*
X012999Y023359D01*
X013010Y023367D01*
X013018Y023383D01*
X013023Y023400D01*
X013022Y023414D01*
X013030Y023424D01*
X013034Y023437D01*
X013047Y023444D01*
X013058Y023457D01*
X013066Y023473D01*
X013067Y023487D01*
X013078Y023495D01*
X013085Y023508D01*
X013098Y023512D01*
X013111Y023523D01*
X013122Y023536D01*
X013126Y023550D01*
X013139Y023556D01*
X013139Y023556D01*
X008706Y023556D01*
X008813Y023450D01*
X008918Y023345D01*
X008918Y023226D01*
X008936Y023226D01*
X009018Y023144D01*
X009018Y022674D01*
X008936Y022592D01*
X008778Y022592D01*
X008901Y022468D01*
X008901Y022439D01*
X008936Y022439D01*
X009018Y022357D01*
X009018Y021886D01*
X008936Y021804D01*
X008544Y021804D01*
X008484Y021865D01*
X008424Y021804D01*
X008032Y021804D01*
X007950Y021886D01*
X007950Y021942D01*
X007506Y021942D01*
X007506Y021911D01*
X007402Y021807D01*
X007030Y021807D01*
X006926Y021911D01*
X006926Y022333D01*
X007030Y022437D01*
X007402Y022437D01*
X007506Y022333D01*
X007506Y022302D01*
X007950Y022302D01*
X007950Y022357D01*
X008032Y022439D01*
X008424Y022439D01*
X008294Y022568D01*
X008294Y022592D01*
X008032Y022592D01*
X007950Y022674D01*
X007950Y022729D01*
X007506Y022729D01*
X007506Y022698D01*
X007402Y022594D01*
X007030Y022594D01*
X006926Y022698D01*
X006926Y023091D01*
X006906Y023091D01*
X006906Y022698D01*
X006836Y022628D01*
X006836Y022403D01*
X006906Y022333D01*
X006906Y021911D01*
X006836Y021841D01*
X006836Y021615D01*
X006906Y021545D01*
X006906Y021123D01*
X006802Y021019D01*
X006507Y021019D01*
X006507Y020957D02*
X009398Y020957D01*
X009374Y020878D02*
X006507Y020878D01*
X006818Y021035D02*
X007014Y021035D01*
X007030Y021019D02*
X007402Y021019D01*
X007506Y021123D01*
X007506Y021154D01*
X007950Y021154D01*
X007950Y021099D01*
X008032Y021017D01*
X008424Y021017D01*
X008506Y021099D01*
X008506Y021569D01*
X008424Y021651D01*
X008032Y021651D01*
X007950Y021569D01*
X007950Y021514D01*
X007506Y021514D01*
X007506Y021545D01*
X007402Y021649D01*
X007030Y021649D01*
X006926Y021545D01*
X006926Y021123D01*
X007030Y021019D01*
X006936Y021114D02*
X006896Y021114D01*
X006906Y021192D02*
X006926Y021192D01*
X006926Y021271D02*
X006906Y021271D01*
X006906Y021349D02*
X006926Y021349D01*
X006926Y021428D02*
X006906Y021428D01*
X006906Y021506D02*
X006926Y021506D01*
X006965Y021585D02*
X006867Y021585D01*
X006836Y021663D02*
X009680Y021663D01*
X009680Y021585D02*
X008491Y021585D01*
X008506Y021506D02*
X009680Y021506D01*
X009680Y021428D02*
X008506Y021428D01*
X008506Y021349D02*
X009680Y021349D01*
X009680Y021271D02*
X008506Y021271D01*
X008506Y021192D02*
X009634Y021192D01*
X009555Y021114D02*
X008506Y021114D01*
X008442Y021035D02*
X009477Y021035D01*
X009374Y020800D02*
X009000Y020800D01*
X009018Y020721D02*
X009374Y020721D01*
X009374Y020643D02*
X009018Y020643D01*
X009018Y020564D02*
X009374Y020564D01*
X009374Y020486D02*
X009018Y020486D01*
X009018Y020407D02*
X009374Y020407D01*
X009374Y020329D02*
X009018Y020329D01*
X009064Y020250D02*
X009374Y020250D01*
X009374Y020172D02*
X009096Y020172D01*
X009096Y020093D02*
X009374Y020093D01*
X009374Y020015D02*
X009076Y020015D01*
X009030Y019936D02*
X009374Y019936D01*
X009374Y019858D02*
X009018Y019858D01*
X009018Y019779D02*
X009374Y019779D01*
X009374Y019701D02*
X009018Y019701D01*
X009018Y019622D02*
X009374Y019622D01*
X009374Y019544D02*
X009018Y019544D01*
X008959Y019465D02*
X009374Y019465D01*
X009374Y019387D02*
X006642Y019387D01*
X006719Y019308D02*
X009384Y019308D01*
X009384Y019230D02*
X006719Y019230D01*
X006823Y019465D02*
X008010Y019465D01*
X007950Y019544D02*
X006901Y019544D01*
X006906Y019622D02*
X007950Y019622D01*
X007950Y019701D02*
X006906Y019701D01*
X006906Y019779D02*
X007932Y019779D01*
X007843Y019858D02*
X006960Y019858D01*
X006916Y020068D02*
X007875Y020068D01*
X008228Y019759D01*
X008447Y019465D02*
X008521Y019465D01*
X008740Y019759D02*
X008766Y019778D01*
X009131Y019151D02*
X009316Y019151D01*
X009235Y019073D02*
X009206Y019073D01*
X009479Y018837D02*
X010034Y018837D01*
X010034Y018759D02*
X009397Y018759D01*
X009339Y018703D02*
X009637Y018990D01*
X009937Y018990D01*
X010019Y019072D01*
X010019Y019463D01*
X009937Y019545D01*
X009714Y019545D01*
X009714Y020791D01*
X009999Y021076D01*
X010429Y021076D01*
X010511Y021158D01*
X010511Y021243D01*
X011268Y021243D01*
X011367Y021343D01*
X011525Y021500D01*
X011525Y021618D01*
X011890Y021984D01*
X012943Y021984D01*
X012986Y022026D01*
X012986Y020914D01*
X011560Y020914D01*
X011461Y020814D01*
X011382Y020735D01*
X011382Y019457D01*
X011180Y019457D01*
X011180Y019463D01*
X011098Y019545D01*
X010628Y019545D01*
X010607Y019524D01*
X010586Y019545D01*
X010116Y019545D01*
X010034Y019463D01*
X010034Y019072D01*
X010094Y019011D01*
X010034Y018951D01*
X010034Y018560D01*
X010116Y018478D01*
X010441Y018478D01*
X010467Y018450D01*
X010467Y018049D01*
X010414Y017996D01*
X010384Y018008D01*
X009948Y018008D01*
X009905Y017990D01*
X009481Y017990D01*
X009428Y017937D01*
X009406Y017988D01*
X009339Y018055D01*
X009339Y018703D01*
X009339Y018680D02*
X010034Y018680D01*
X010034Y018602D02*
X009339Y018602D01*
X009339Y018523D02*
X010070Y018523D01*
X010034Y018916D02*
X009561Y018916D01*
X009941Y018994D02*
X010077Y018994D01*
X010034Y019073D02*
X010019Y019073D01*
X010019Y019151D02*
X010034Y019151D01*
X010034Y019230D02*
X010019Y019230D01*
X010019Y019308D02*
X010034Y019308D01*
X010034Y019387D02*
X010019Y019387D01*
X010017Y019465D02*
X010036Y019465D01*
X010114Y019544D02*
X009938Y019544D01*
X009714Y019622D02*
X011382Y019622D01*
X011382Y019544D02*
X011099Y019544D01*
X011178Y019465D02*
X011382Y019465D01*
X011382Y019701D02*
X009714Y019701D01*
X009714Y019779D02*
X011382Y019779D01*
X011382Y019858D02*
X009714Y019858D01*
X009714Y019936D02*
X011382Y019936D01*
X011382Y020015D02*
X009714Y020015D01*
X009714Y020093D02*
X011382Y020093D01*
X011382Y020172D02*
X009714Y020172D01*
X009714Y020250D02*
X011382Y020250D01*
X011382Y020329D02*
X009714Y020329D01*
X009714Y020407D02*
X011382Y020407D01*
X011382Y020486D02*
X009714Y020486D01*
X009714Y020564D02*
X011382Y020564D01*
X011382Y020643D02*
X009714Y020643D01*
X009714Y020721D02*
X011382Y020721D01*
X011446Y020800D02*
X009722Y020800D01*
X009801Y020878D02*
X011525Y020878D01*
X011296Y021271D02*
X012986Y021271D01*
X012986Y021349D02*
X011374Y021349D01*
X011453Y021428D02*
X012986Y021428D01*
X012986Y021506D02*
X011525Y021506D01*
X011525Y021585D02*
X012986Y021585D01*
X012986Y021663D02*
X011570Y021663D01*
X011648Y021742D02*
X012986Y021742D01*
X012986Y021820D02*
X011727Y021820D01*
X011805Y021899D02*
X012986Y021899D01*
X012986Y021977D02*
X011884Y021977D01*
X011482Y022056D02*
X011363Y022056D01*
X011377Y021977D02*
X011403Y021977D01*
X011495Y022134D02*
X009018Y022134D01*
X009018Y022056D02*
X010560Y022056D01*
X010546Y021977D02*
X009018Y021977D01*
X009018Y021899D02*
X010546Y021899D01*
X010546Y021820D02*
X008951Y021820D01*
X008529Y021820D02*
X008440Y021820D01*
X008228Y022122D02*
X007216Y022122D01*
X006926Y022134D02*
X006906Y022134D01*
X006906Y022056D02*
X006926Y022056D01*
X006926Y021977D02*
X006906Y021977D01*
X006894Y021899D02*
X006938Y021899D01*
X007016Y021820D02*
X006836Y021820D01*
X006836Y021742D02*
X009753Y021742D01*
X010437Y021742D02*
X010546Y021742D01*
X010546Y021663D02*
X010511Y021663D01*
X010511Y021585D02*
X010546Y021585D01*
X010511Y021192D02*
X012986Y021192D01*
X012986Y021114D02*
X010466Y021114D01*
X009958Y021035D02*
X012986Y021035D01*
X012986Y020957D02*
X009879Y020957D01*
X008766Y020565D02*
X008740Y020547D01*
X008228Y020547D02*
X007905Y020268D01*
X006916Y020268D01*
X006637Y020547D01*
X006616Y020547D01*
X006906Y020564D02*
X007950Y020564D01*
X007950Y020643D02*
X006906Y020643D01*
X006906Y020721D02*
X007950Y020721D01*
X007968Y020800D02*
X006864Y020800D01*
X006953Y020486D02*
X007882Y020486D01*
X008014Y021035D02*
X007418Y021035D01*
X007496Y021114D02*
X007950Y021114D01*
X008228Y021334D02*
X007216Y021334D01*
X007467Y021585D02*
X007966Y021585D01*
X008017Y021820D02*
X007416Y021820D01*
X007494Y021899D02*
X007950Y021899D01*
X007963Y022370D02*
X007469Y022370D01*
X007413Y022605D02*
X008019Y022605D01*
X007950Y022684D02*
X007492Y022684D01*
X007216Y022909D02*
X008228Y022909D01*
X008336Y022527D02*
X006836Y022527D01*
X006836Y022605D02*
X007019Y022605D01*
X006940Y022684D02*
X006892Y022684D01*
X006906Y022762D02*
X006926Y022762D01*
X006926Y022841D02*
X006906Y022841D01*
X006906Y022919D02*
X006926Y022919D01*
X006926Y022998D02*
X006906Y022998D01*
X006906Y023076D02*
X006926Y023076D01*
X006836Y022448D02*
X008414Y022448D01*
X008843Y022527D02*
X011495Y022527D01*
X011495Y022605D02*
X008949Y022605D01*
X009018Y022684D02*
X011495Y022684D01*
X011495Y022762D02*
X009018Y022762D01*
X009018Y022841D02*
X011495Y022841D01*
X011495Y022919D02*
X009018Y022919D01*
X009018Y022998D02*
X011495Y022998D01*
X011495Y023076D02*
X009018Y023076D01*
X009007Y023155D02*
X011495Y023155D01*
X011547Y023233D02*
X008918Y023233D01*
X008918Y023312D02*
X012994Y023312D01*
X012985Y023233D02*
X012974Y023233D01*
X013020Y023390D02*
X008872Y023390D01*
X008794Y023469D02*
X013064Y023469D01*
X013126Y023547D02*
X008715Y023547D01*
X008901Y022448D02*
X011495Y022448D01*
X011495Y022370D02*
X009005Y022370D01*
X009018Y022291D02*
X011495Y022291D01*
X011495Y022213D02*
X009018Y022213D01*
X006963Y022370D02*
X006869Y022370D01*
X006906Y022291D02*
X006926Y022291D01*
X006926Y022213D02*
X006906Y022213D01*
X006916Y020068D02*
X006616Y019768D01*
X006616Y019759D01*
X006248Y019263D02*
X006360Y019158D01*
X006360Y018632D01*
X006264Y018672D01*
X006153Y018672D01*
X006050Y018629D01*
X006014Y018592D01*
X006013Y019232D01*
X006037Y019221D01*
X006148Y019221D01*
X006248Y019263D01*
X006284Y019230D02*
X006168Y019230D01*
X006017Y019230D02*
X006013Y019230D01*
X006013Y019151D02*
X006360Y019151D01*
X006360Y019073D02*
X006013Y019073D01*
X006013Y018994D02*
X006360Y018994D01*
X006360Y018916D02*
X006013Y018916D01*
X006013Y018837D02*
X006360Y018837D01*
X006360Y018759D02*
X006013Y018759D01*
X006014Y018680D02*
X006360Y018680D01*
X006023Y018602D02*
X006014Y018602D01*
X006719Y018078D02*
X007272Y018078D01*
X007319Y018027D01*
X007244Y017952D01*
X007244Y017589D01*
X006718Y017589D01*
X006718Y017590D01*
X006719Y017591D01*
X006719Y017665D01*
X006719Y017739D01*
X006719Y017739D01*
X006719Y018078D01*
X006719Y018052D02*
X007296Y018052D01*
X007266Y017974D02*
X006719Y017974D01*
X006719Y017895D02*
X007244Y017895D01*
X007244Y017817D02*
X006719Y017817D01*
X006719Y017738D02*
X007244Y017738D01*
X007244Y017660D02*
X006719Y017660D01*
X007522Y017717D02*
X007527Y018068D01*
X007016Y018618D01*
X007506Y018602D02*
X008226Y018602D01*
X008226Y018680D02*
X007506Y018680D01*
X007506Y018759D02*
X008226Y018759D01*
X008226Y018837D02*
X007506Y018837D01*
X007506Y018916D02*
X008226Y018916D01*
X008226Y018994D02*
X007506Y018994D01*
X007506Y019073D02*
X008226Y019073D01*
X008301Y019151D02*
X007431Y019151D01*
X007506Y018523D02*
X008226Y018523D01*
X008226Y018445D02*
X007506Y018445D01*
X007506Y018366D02*
X008226Y018366D01*
X008164Y018288D02*
X007568Y018288D01*
X007641Y018209D02*
X008091Y018209D01*
X008023Y018131D02*
X007709Y018131D01*
X007706Y018052D02*
X008026Y018052D01*
X007954Y017974D02*
X007778Y017974D01*
X007800Y017895D02*
X007932Y017895D01*
X007932Y017817D02*
X007800Y017817D01*
X007800Y017738D02*
X007932Y017738D01*
X007932Y017660D02*
X007809Y017660D01*
X007877Y017581D02*
X007932Y017581D01*
X007866Y017318D02*
X007522Y017717D01*
X007866Y017318D02*
X008166Y017318D01*
X008866Y016618D01*
X009266Y016618D01*
X009370Y016722D01*
X009370Y017018D01*
X009055Y017018D02*
X008766Y017018D01*
X008210Y017717D01*
X008205Y018068D01*
X008716Y018618D01*
X008460Y018078D02*
X009000Y018078D01*
X009000Y018055D01*
X008933Y017988D01*
X008891Y017886D01*
X008891Y017775D01*
X008933Y017672D01*
X009012Y017594D01*
X009114Y017551D01*
X009225Y017551D01*
X009328Y017594D01*
X009399Y017665D01*
X009399Y017516D01*
X009481Y017434D01*
X009485Y017434D01*
X009485Y017408D01*
X008887Y017408D01*
X008805Y017326D01*
X008805Y017258D01*
X008488Y017657D01*
X008488Y017952D01*
X008413Y018027D01*
X008460Y018078D01*
X008436Y018052D02*
X008997Y018052D01*
X008927Y017974D02*
X008466Y017974D01*
X008488Y017895D02*
X008895Y017895D01*
X008891Y017817D02*
X008488Y017817D01*
X008488Y017738D02*
X008906Y017738D01*
X008946Y017660D02*
X008488Y017660D01*
X008548Y017581D02*
X009042Y017581D01*
X009298Y017581D02*
X009399Y017581D01*
X009394Y017660D02*
X009399Y017660D01*
X009413Y017503D02*
X008610Y017503D01*
X008673Y017424D02*
X009485Y017424D01*
X009922Y017339D02*
X009948Y017328D01*
X010067Y017328D01*
X010065Y017326D01*
X010065Y016763D01*
X010029Y016727D01*
X009986Y016624D01*
X009986Y016512D01*
X010013Y016448D01*
X009841Y016448D01*
X009784Y016505D01*
X009678Y016610D01*
X009513Y016610D01*
X009530Y016628D01*
X009853Y016628D01*
X009935Y016710D01*
X009935Y017326D01*
X009922Y017339D01*
X009935Y017267D02*
X010065Y017267D01*
X010065Y017189D02*
X009935Y017189D01*
X009935Y017110D02*
X010065Y017110D01*
X010065Y017032D02*
X009935Y017032D01*
X009935Y016953D02*
X010065Y016953D01*
X010065Y016875D02*
X009935Y016875D01*
X009935Y016796D02*
X010065Y016796D01*
X010025Y016718D02*
X009935Y016718D01*
X009992Y016639D02*
X009864Y016639D01*
X009986Y016561D02*
X009728Y016561D01*
X009806Y016482D02*
X009999Y016482D01*
X010266Y016568D02*
X011116Y016568D01*
X011260Y016712D01*
X011260Y017018D01*
X011260Y017062D01*
X011316Y017118D01*
X011510Y017110D02*
X011912Y017110D01*
X011900Y017098D02*
X011957Y017155D01*
X012060Y017198D01*
X012172Y017198D01*
X012268Y017158D01*
X012268Y017369D01*
X012461Y017562D01*
X012454Y017578D01*
X012454Y017689D01*
X012496Y017792D01*
X012575Y017870D01*
X012677Y017913D01*
X012788Y017913D01*
X012891Y017870D01*
X012969Y017792D01*
X013012Y017689D01*
X013012Y017578D01*
X012969Y017475D01*
X012891Y017397D01*
X012788Y017354D01*
X012733Y017354D01*
X012715Y017336D01*
X012852Y017336D01*
X012934Y017254D01*
X012934Y016784D01*
X012870Y016721D01*
X012938Y016653D01*
X012938Y016183D01*
X012874Y016119D01*
X012925Y016069D01*
X012985Y016129D01*
X013377Y016129D01*
X013388Y016118D01*
X015192Y016118D01*
X015216Y016142D01*
X015216Y016815D01*
X015188Y016787D01*
X013822Y016787D01*
X013740Y016869D01*
X013740Y017985D01*
X013822Y018067D01*
X014335Y018067D01*
X014335Y018413D01*
X014434Y018512D01*
X014483Y018561D01*
X014483Y018881D01*
X014159Y018881D01*
X014059Y018980D01*
X013932Y019108D01*
X013533Y019108D01*
X013533Y019073D01*
X013637Y019073D01*
X013719Y018991D01*
X013719Y018324D01*
X013637Y018241D01*
X013128Y018241D01*
X013046Y018324D01*
X013046Y018360D01*
X012675Y018360D01*
X012593Y018442D01*
X012593Y018657D01*
X012391Y018450D01*
X012391Y018449D01*
X012342Y018400D01*
X012294Y018350D01*
X012292Y018350D01*
X012292Y018349D01*
X012222Y018349D01*
X012153Y018348D01*
X012152Y018349D01*
X012006Y018349D01*
X012006Y017935D01*
X011995Y017925D01*
X012036Y017884D01*
X012036Y017413D01*
X011954Y017331D01*
X011563Y017331D01*
X011481Y017413D01*
X011481Y017686D01*
X011472Y017714D01*
X011481Y017731D01*
X011481Y017853D01*
X011408Y017853D01*
X011326Y017935D01*
X011326Y018021D01*
X011273Y017968D01*
X011333Y017908D01*
X011333Y017516D01*
X011251Y017434D01*
X011125Y017434D01*
X011125Y017408D01*
X011428Y017408D01*
X011510Y017326D01*
X011510Y016966D01*
X011536Y016993D01*
X011641Y017098D01*
X011900Y017098D01*
X012037Y017189D02*
X011510Y017189D01*
X011510Y017267D02*
X012268Y017267D01*
X012268Y017189D02*
X012194Y017189D01*
X012268Y017346D02*
X011969Y017346D01*
X012036Y017424D02*
X012323Y017424D01*
X012402Y017503D02*
X012036Y017503D01*
X012036Y017581D02*
X012454Y017581D01*
X012454Y017660D02*
X012036Y017660D01*
X012036Y017738D02*
X012474Y017738D01*
X012521Y017817D02*
X012036Y017817D01*
X012025Y017895D02*
X012636Y017895D01*
X012830Y017895D02*
X013740Y017895D01*
X013740Y017817D02*
X012944Y017817D01*
X012992Y017738D02*
X013740Y017738D01*
X013740Y017660D02*
X013012Y017660D01*
X013012Y017581D02*
X013740Y017581D01*
X013740Y017503D02*
X012981Y017503D01*
X012918Y017424D02*
X013740Y017424D01*
X013740Y017346D02*
X012724Y017346D01*
X012921Y017267D02*
X013740Y017267D01*
X013740Y017189D02*
X012934Y017189D01*
X012934Y017110D02*
X013740Y017110D01*
X013740Y017032D02*
X012934Y017032D01*
X012934Y016953D02*
X013740Y016953D01*
X013740Y016875D02*
X012934Y016875D01*
X012934Y016796D02*
X013812Y016796D01*
X012938Y016639D02*
X015216Y016639D01*
X015216Y016561D02*
X012938Y016561D01*
X012938Y016482D02*
X015216Y016482D01*
X015216Y016404D02*
X012938Y016404D01*
X012938Y016325D02*
X015216Y016325D01*
X015216Y016247D02*
X012938Y016247D01*
X012923Y016168D02*
X015216Y016168D01*
X015216Y016718D02*
X012873Y016718D01*
X012904Y016090D02*
X012946Y016090D01*
X013181Y015812D02*
X012916Y015503D01*
X012916Y013718D01*
X012595Y013716D01*
X012412Y013533D01*
X012372Y013529D01*
X011766Y013529D01*
X011395Y013193D01*
X011270Y013193D01*
X011375Y012934D02*
X011428Y012956D01*
X011507Y013035D01*
X011519Y013063D01*
X011835Y013349D01*
X012308Y013349D01*
X012316Y013342D01*
X012381Y013349D01*
X012447Y013349D01*
X012451Y013353D01*
X012486Y013353D01*
X012494Y013360D01*
X012504Y013361D01*
X012545Y013412D01*
X012670Y013537D01*
X012916Y013538D01*
X012976Y013538D01*
X012977Y013236D01*
X012433Y013236D01*
X012371Y013174D01*
X012340Y013205D01*
X012237Y013247D01*
X012126Y013247D01*
X012024Y013205D01*
X011945Y013126D01*
X011903Y013024D01*
X011903Y012913D01*
X011945Y012810D01*
X012024Y012732D01*
X012126Y012689D01*
X012237Y012689D01*
X012340Y012732D01*
X012351Y012743D01*
X012351Y012448D01*
X012433Y012366D01*
X012980Y012366D01*
X012981Y012203D01*
X011918Y012198D01*
X011880Y012236D01*
X011621Y012236D01*
X011234Y012623D01*
X011257Y012633D01*
X011336Y012712D01*
X011378Y012814D01*
X011378Y012925D01*
X011375Y012934D01*
X011414Y012950D02*
X011903Y012950D01*
X011905Y013028D02*
X011501Y013028D01*
X011519Y013063D02*
X011519Y013063D01*
X011568Y013107D02*
X011937Y013107D01*
X012004Y013185D02*
X011654Y013185D01*
X011741Y013264D02*
X012977Y013264D01*
X012977Y013342D02*
X011828Y013342D01*
X011920Y012871D02*
X011378Y012871D01*
X011369Y012793D02*
X011963Y012793D01*
X012066Y012714D02*
X011337Y012714D01*
X011260Y012636D02*
X012351Y012636D01*
X012351Y012714D02*
X012298Y012714D01*
X012351Y012557D02*
X011300Y012557D01*
X011378Y012479D02*
X012351Y012479D01*
X012399Y012400D02*
X011457Y012400D01*
X011535Y012322D02*
X012980Y012322D01*
X012981Y012243D02*
X011614Y012243D01*
X011342Y012008D02*
X010717Y012008D01*
X010714Y012004D02*
X010757Y012047D01*
X010799Y012150D01*
X010799Y012261D01*
X010791Y012280D01*
X011071Y012278D01*
X011407Y011943D01*
X011407Y011684D01*
X011432Y011659D01*
X010580Y011659D01*
X010594Y011695D01*
X010605Y011695D01*
X010607Y011696D01*
X010609Y011696D01*
X010662Y011752D01*
X010717Y011806D01*
X010717Y011808D01*
X010718Y011810D01*
X010717Y011886D01*
X010717Y011963D01*
X010715Y011965D01*
X010714Y012004D01*
X010717Y011929D02*
X011407Y011929D01*
X011407Y011851D02*
X010717Y011851D01*
X010683Y011772D02*
X011407Y011772D01*
X011407Y011694D02*
X010594Y011694D01*
X010773Y012086D02*
X011264Y012086D01*
X011185Y012165D02*
X010799Y012165D01*
X010799Y012243D02*
X011107Y012243D01*
X010915Y012660D02*
X010127Y012665D01*
X009943Y012848D01*
X009142Y012848D01*
X009132Y012859D01*
X007285Y012859D01*
X007237Y012906D01*
X007134Y012949D01*
X007023Y012949D01*
X006920Y012906D01*
X006841Y012828D01*
X006799Y012725D01*
X006799Y012613D01*
X006820Y012561D01*
X006584Y012560D01*
X006367Y012813D01*
X006367Y012909D01*
X006447Y012989D01*
X006447Y013350D01*
X007134Y013350D01*
X007134Y013333D01*
X007216Y013251D01*
X007687Y013251D01*
X007721Y013286D01*
X008366Y013279D01*
X008680Y012965D01*
X008768Y012928D01*
X009964Y012928D01*
X010052Y012965D01*
X010136Y013049D01*
X010203Y013116D01*
X010240Y013204D01*
X010240Y013320D01*
X010250Y013330D01*
X010250Y013946D01*
X010168Y014028D01*
X009441Y014028D01*
X009476Y014112D01*
X009476Y014224D01*
X009473Y014232D01*
X009532Y014208D01*
X009643Y014208D01*
X009746Y014250D01*
X009770Y014275D01*
X009818Y014227D01*
X009921Y014184D01*
X010033Y014184D01*
X010136Y014227D01*
X010203Y014294D01*
X010207Y014290D01*
X010247Y014242D01*
X010255Y014241D01*
X010261Y014236D01*
X010324Y014236D01*
X010387Y014230D01*
X010394Y014236D01*
X010559Y014236D01*
X010726Y014402D01*
X010803Y014325D01*
X010906Y014283D01*
X011017Y014283D01*
X011120Y014325D01*
X011187Y014393D01*
X011457Y014393D01*
X011457Y014058D01*
X011539Y013976D01*
X012155Y013976D01*
X012209Y014029D01*
X012227Y014027D01*
X012238Y014036D01*
X012252Y014036D01*
X012299Y014083D01*
X012388Y014151D01*
X012388Y014109D01*
X012375Y014096D01*
X012375Y014053D01*
X012216Y013859D01*
X011510Y013859D01*
X011510Y013946D01*
X011428Y014028D01*
X010462Y014028D01*
X010380Y013946D01*
X010380Y013330D01*
X010462Y013248D01*
X010755Y013248D01*
X010755Y013098D01*
X010745Y013035D01*
X010755Y013022D01*
X010755Y013004D01*
X010800Y012959D01*
X010822Y012929D01*
X010820Y012925D01*
X010820Y012814D01*
X010862Y012712D01*
X010915Y012660D01*
X010861Y012714D02*
X010078Y012714D01*
X009999Y012793D02*
X010829Y012793D01*
X010820Y012871D02*
X007272Y012871D01*
X006885Y012871D02*
X006367Y012871D01*
X006384Y012793D02*
X006827Y012793D01*
X006799Y012714D02*
X006452Y012714D01*
X006519Y012636D02*
X006799Y012636D01*
X006408Y012950D02*
X008716Y012950D01*
X008617Y013028D02*
X006447Y013028D01*
X006447Y013107D02*
X008538Y013107D01*
X008460Y013185D02*
X006447Y013185D01*
X006447Y013264D02*
X007204Y013264D01*
X007134Y013342D02*
X006447Y013342D01*
X007185Y013970D02*
X007825Y013970D01*
X007837Y013958D02*
X007250Y013958D01*
X007139Y013979D01*
X007126Y013992D01*
X007068Y013992D01*
X007011Y014002D01*
X006996Y013992D01*
X006664Y013992D01*
X006542Y014166D01*
X006542Y014184D01*
X006501Y014226D01*
X006467Y014273D01*
X006450Y014277D01*
X006437Y014289D01*
X006379Y014289D01*
X006321Y014299D01*
X006306Y014289D01*
X006278Y014289D01*
X006461Y014473D01*
X006514Y014525D01*
X006514Y014525D01*
X006514Y014525D01*
X006514Y014527D01*
X006632Y014409D01*
X007054Y014409D01*
X007353Y014708D01*
X007353Y015131D01*
X007257Y015227D01*
X007283Y015227D01*
X007400Y015088D01*
X007400Y015079D01*
X007447Y015032D01*
X007490Y014981D01*
X007499Y014980D01*
X007505Y014974D01*
X007572Y014974D01*
X007638Y014968D01*
X007645Y014974D01*
X007777Y014974D01*
X007835Y014917D01*
X007937Y014874D01*
X008048Y014874D01*
X008077Y014886D01*
X008077Y014444D01*
X007981Y014444D01*
X007877Y014538D01*
X007877Y014602D01*
X007834Y014705D01*
X007756Y014783D01*
X007653Y014826D01*
X007542Y014826D01*
X007439Y014783D01*
X007361Y014705D01*
X007318Y014602D01*
X007318Y014491D01*
X007361Y014388D01*
X007439Y014310D01*
X007542Y014267D01*
X007641Y014267D01*
X007745Y014174D01*
X007745Y014110D01*
X007788Y014007D01*
X007837Y013958D01*
X007771Y014049D02*
X006624Y014049D01*
X006570Y014127D02*
X007745Y014127D01*
X007710Y014206D02*
X006521Y014206D01*
X006442Y014284D02*
X007502Y014284D01*
X007387Y014363D02*
X006351Y014363D01*
X006430Y014441D02*
X006600Y014441D01*
X006522Y014520D02*
X006508Y014520D01*
X007086Y014441D02*
X007339Y014441D01*
X007318Y014520D02*
X007165Y014520D01*
X007243Y014598D02*
X007318Y014598D01*
X007322Y014677D02*
X007349Y014677D01*
X007353Y014755D02*
X007412Y014755D01*
X007353Y014834D02*
X008077Y014834D01*
X008077Y014755D02*
X007783Y014755D01*
X007846Y014677D02*
X008077Y014677D01*
X008077Y014598D02*
X007877Y014598D01*
X007897Y014520D02*
X008077Y014520D01*
X008490Y014518D02*
X008916Y014518D01*
X008966Y014468D01*
X009279Y014856D02*
X009587Y014488D01*
X009476Y014206D02*
X009869Y014206D01*
X010085Y014206D02*
X011457Y014206D01*
X011457Y014284D02*
X011021Y014284D01*
X010902Y014284D02*
X010608Y014284D01*
X010686Y014363D02*
X010765Y014363D01*
X010516Y014647D02*
X010416Y014647D01*
X010516Y014647D02*
X011355Y015485D01*
X011847Y015485D01*
X011847Y015800D02*
X011448Y015800D01*
X010636Y014988D01*
X010416Y014988D01*
X010566Y015218D02*
X010105Y015218D01*
X009916Y015468D02*
X010416Y015468D01*
X010566Y015218D02*
X011463Y016115D01*
X011847Y016115D01*
X011847Y016430D02*
X011528Y016430D01*
X011066Y015968D01*
X010455Y015968D01*
X010175Y015976D02*
X010122Y015998D01*
X010041Y015998D01*
X009973Y016065D01*
X009951Y016088D01*
X010202Y016088D01*
X010175Y016024D01*
X010175Y015976D01*
X010175Y016011D02*
X010028Y016011D01*
X009846Y015938D02*
X010066Y015718D01*
X009916Y015468D02*
X009584Y015800D01*
X008467Y015800D01*
X008450Y015818D01*
X007916Y015818D01*
X007866Y016118D02*
X008465Y016118D01*
X008467Y016115D01*
X008739Y016115D01*
X008914Y015941D01*
X009846Y015938D01*
X009661Y016119D02*
X008989Y016120D01*
X008859Y016250D01*
X009529Y016250D01*
X009661Y016119D01*
X009611Y016168D02*
X008941Y016168D01*
X008862Y016247D02*
X009533Y016247D01*
X009604Y016430D02*
X008467Y016430D01*
X008480Y016418D01*
X008798Y017267D02*
X008805Y017267D01*
X008825Y017346D02*
X008735Y017346D01*
X009413Y017974D02*
X009465Y017974D01*
X009343Y018052D02*
X010467Y018052D01*
X010467Y018131D02*
X009339Y018131D01*
X009339Y018209D02*
X010467Y018209D01*
X010467Y018288D02*
X009339Y018288D01*
X009339Y018366D02*
X010467Y018366D01*
X010467Y018445D02*
X009339Y018445D01*
X010515Y017386D02*
X010563Y017434D01*
X010601Y017434D01*
X010683Y017516D01*
X010683Y017784D01*
X010699Y017800D01*
X010699Y017516D01*
X010765Y017451D01*
X010765Y017396D01*
X010695Y017326D01*
X010695Y016748D01*
X010565Y016748D01*
X010565Y017326D01*
X010515Y017376D01*
X010515Y017386D01*
X010545Y017346D02*
X010714Y017346D01*
X010695Y017267D02*
X010565Y017267D01*
X010565Y017189D02*
X010695Y017189D01*
X010695Y017110D02*
X010565Y017110D01*
X010565Y017032D02*
X010695Y017032D01*
X010695Y016953D02*
X010565Y016953D01*
X010565Y016875D02*
X010695Y016875D01*
X010695Y016796D02*
X010565Y016796D01*
X010945Y017018D02*
X010945Y017597D01*
X011016Y017712D01*
X011125Y017424D02*
X011481Y017424D01*
X011481Y017503D02*
X011319Y017503D01*
X011333Y017581D02*
X011481Y017581D01*
X011481Y017660D02*
X011333Y017660D01*
X011333Y017738D02*
X011481Y017738D01*
X011481Y017817D02*
X011333Y017817D01*
X011333Y017895D02*
X011366Y017895D01*
X011326Y017974D02*
X011279Y017974D01*
X011016Y018224D02*
X011655Y018229D01*
X011666Y018218D01*
X011666Y017697D01*
X011759Y017648D01*
X012006Y017974D02*
X013740Y017974D01*
X013807Y018052D02*
X012006Y018052D01*
X012006Y018131D02*
X014335Y018131D01*
X014335Y018209D02*
X012006Y018209D01*
X012006Y018288D02*
X013082Y018288D01*
X012668Y018366D02*
X012309Y018366D01*
X012387Y018445D02*
X012593Y018445D01*
X012593Y018523D02*
X012462Y018523D01*
X012539Y018602D02*
X012593Y018602D01*
X013719Y018602D02*
X014483Y018602D01*
X014483Y018680D02*
X013719Y018680D01*
X013719Y018759D02*
X014483Y018759D01*
X014483Y018837D02*
X013719Y018837D01*
X013719Y018916D02*
X014124Y018916D01*
X014045Y018994D02*
X013716Y018994D01*
X013637Y019073D02*
X013967Y019073D01*
X013719Y018523D02*
X014445Y018523D01*
X014367Y018445D02*
X013719Y018445D01*
X013719Y018366D02*
X014335Y018366D01*
X014335Y018288D02*
X013684Y018288D01*
X012116Y016918D02*
X011716Y016918D01*
X011066Y016268D01*
X009766Y016268D01*
X009604Y016430D01*
X010553Y017424D02*
X010765Y017424D01*
X010713Y017503D02*
X010669Y017503D01*
X010683Y017581D02*
X010699Y017581D01*
X010699Y017660D02*
X010683Y017660D01*
X010683Y017738D02*
X010699Y017738D01*
X011490Y017346D02*
X011548Y017346D01*
X011575Y017032D02*
X011510Y017032D01*
X013146Y015495D02*
X013377Y015495D01*
X013400Y015518D01*
X013798Y015518D01*
X013765Y015485D01*
X013765Y014369D01*
X013847Y014287D01*
X015163Y014287D01*
X015216Y014340D01*
X015216Y014032D01*
X015262Y013921D01*
X015662Y013521D01*
X015796Y013387D01*
X015906Y013341D01*
X016026Y013341D01*
X016136Y013387D01*
X016187Y013438D01*
X017717Y013438D01*
X017717Y013088D01*
X017687Y013058D01*
X013806Y013058D01*
X013806Y013108D01*
X013812Y013114D01*
X014045Y013114D01*
X014127Y013196D01*
X014127Y013428D01*
X014314Y013428D01*
X014410Y013388D01*
X014522Y013388D01*
X014625Y013431D01*
X014703Y013510D01*
X014746Y013612D01*
X014746Y013724D01*
X014703Y013827D01*
X014625Y013905D01*
X014522Y013948D01*
X014410Y013948D01*
X014314Y013908D01*
X013456Y013908D01*
X013456Y013995D01*
X013460Y014025D01*
X013456Y014042D01*
X013456Y014059D01*
X013455Y014061D01*
X013455Y014252D01*
X013373Y014334D01*
X013096Y014334D01*
X013096Y015436D01*
X013146Y015495D01*
X013118Y015462D02*
X013765Y015462D01*
X013765Y015383D02*
X013096Y015383D01*
X013096Y015305D02*
X013765Y015305D01*
X013765Y015226D02*
X013096Y015226D01*
X013096Y015148D02*
X013765Y015148D01*
X013765Y015069D02*
X013096Y015069D01*
X013096Y014991D02*
X013765Y014991D01*
X013765Y014912D02*
X013096Y014912D01*
X013096Y014834D02*
X013765Y014834D01*
X013765Y014755D02*
X013096Y014755D01*
X013096Y014677D02*
X013765Y014677D01*
X013765Y014598D02*
X013096Y014598D01*
X013096Y014520D02*
X013765Y014520D01*
X013765Y014441D02*
X013096Y014441D01*
X013096Y014363D02*
X013771Y014363D01*
X013455Y014206D02*
X015216Y014206D01*
X015216Y014284D02*
X013423Y014284D01*
X013455Y014127D02*
X015216Y014127D01*
X015216Y014049D02*
X013456Y014049D01*
X013456Y013970D02*
X015241Y013970D01*
X015291Y013892D02*
X014638Y013892D01*
X014709Y013813D02*
X015370Y013813D01*
X015448Y013735D02*
X014741Y013735D01*
X014746Y013656D02*
X015527Y013656D01*
X015605Y013578D02*
X014732Y013578D01*
X014693Y013499D02*
X015684Y013499D01*
X015762Y013421D02*
X014600Y013421D01*
X014332Y013421D02*
X014127Y013421D01*
X014127Y013342D02*
X015904Y013342D01*
X016028Y013342D02*
X017717Y013342D01*
X017717Y013264D02*
X014127Y013264D01*
X014116Y013185D02*
X017717Y013185D01*
X017717Y013107D02*
X013806Y013107D01*
X013921Y012366D02*
X014045Y012366D01*
X014069Y012390D01*
X016575Y012390D01*
X016549Y012325D01*
X016549Y012213D01*
X016552Y012204D01*
X016265Y012204D01*
X016256Y012195D01*
X016247Y012204D01*
X015871Y012204D01*
X015862Y012195D01*
X015853Y012204D01*
X015477Y012204D01*
X015468Y012195D01*
X015459Y012204D01*
X015084Y012204D01*
X015075Y012195D01*
X015066Y012204D01*
X014690Y012204D01*
X014681Y012195D01*
X014672Y012204D01*
X014296Y012204D01*
X014214Y012122D01*
X014214Y011246D01*
X014296Y011164D01*
X014672Y011164D01*
X014681Y011173D01*
X014690Y011164D01*
X014845Y011164D01*
X014837Y011156D01*
X014837Y002772D01*
X014854Y002755D01*
X014690Y002755D01*
X014681Y002746D01*
X014672Y002755D01*
X014296Y002755D01*
X014287Y002746D01*
X014278Y002755D01*
X013902Y002755D01*
X013820Y002673D01*
X013820Y001797D01*
X013902Y001715D01*
X014278Y001715D01*
X014287Y001724D01*
X014296Y001715D01*
X014672Y001715D01*
X014681Y001724D01*
X014690Y001715D01*
X015066Y001715D01*
X015075Y001724D01*
X015084Y001715D01*
X015459Y001715D01*
X015542Y001797D01*
X015542Y002673D01*
X015524Y002690D01*
X015806Y002690D01*
X015789Y002673D01*
X015789Y001797D01*
X015871Y001715D01*
X016247Y001715D01*
X016256Y001724D01*
X016265Y001715D01*
X016641Y001715D01*
X016649Y001724D01*
X016658Y001715D01*
X017034Y001715D01*
X017043Y001724D01*
X017052Y001715D01*
X017428Y001715D01*
X017437Y001724D01*
X017446Y001715D01*
X017822Y001715D01*
X017904Y001797D01*
X017904Y002673D01*
X017886Y002690D01*
X018562Y002690D01*
X018545Y002673D01*
X018545Y001797D01*
X018627Y001715D01*
X019003Y001715D01*
X019012Y001724D01*
X019021Y001715D01*
X019397Y001715D01*
X019405Y001724D01*
X019414Y001715D01*
X019790Y001715D01*
X019799Y001724D01*
X019808Y001715D01*
X020184Y001715D01*
X020193Y001724D01*
X020202Y001715D01*
X020578Y001715D01*
X020660Y001797D01*
X020660Y002673D01*
X020642Y002690D01*
X022909Y002690D01*
X022991Y002772D01*
X022991Y003281D01*
X023829Y003281D01*
X023840Y003270D01*
X024448Y003270D01*
X024459Y003281D01*
X025302Y003281D01*
X025347Y003275D01*
X025369Y003281D01*
X025392Y003281D01*
X025408Y003288D01*
X025805Y003288D01*
X025916Y003399D01*
X025916Y003856D01*
X025805Y003968D01*
X025249Y003968D01*
X025211Y003973D01*
X026254Y003976D01*
X026254Y002437D01*
X026243Y002232D01*
X026152Y001833D01*
X025974Y001464D01*
X025719Y001144D01*
X025399Y000888D01*
X025341Y000861D02*
X004219Y000861D01*
X004382Y000782D02*
X025178Y000782D01*
X024999Y000704D02*
X004562Y000704D01*
X004906Y000625D02*
X024655Y000625D01*
X025561Y001018D02*
X008822Y001018D01*
X008849Y001044D02*
X008849Y002026D01*
X008767Y002108D01*
X008692Y002108D01*
X008692Y002187D01*
X008716Y002210D01*
X008759Y002313D01*
X008759Y002338D01*
X009197Y002776D01*
X010720Y002776D01*
X010699Y002725D01*
X010699Y002613D01*
X010741Y002510D01*
X010820Y002432D01*
X010923Y002389D01*
X011034Y002389D01*
X011137Y002432D01*
X011216Y002510D01*
X011259Y002613D01*
X011259Y002708D01*
X011312Y002761D01*
X011312Y003231D01*
X011250Y003293D01*
X011296Y003340D01*
X011356Y003280D01*
X011748Y003280D01*
X011830Y003362D01*
X011830Y003610D01*
X011996Y003764D01*
X011996Y003622D01*
X012078Y003540D01*
X012954Y003540D01*
X013036Y003622D01*
X013036Y003998D01*
X013027Y004007D01*
X013036Y004016D01*
X013036Y004392D01*
X013027Y004400D01*
X013036Y004409D01*
X013036Y004785D01*
X013027Y004794D01*
X013036Y004803D01*
X013036Y005179D01*
X013027Y005188D01*
X013036Y005197D01*
X013036Y005573D01*
X012954Y005655D01*
X012078Y005655D01*
X012028Y005605D01*
X011339Y005605D01*
X011287Y005656D01*
X011184Y005699D01*
X011073Y005699D01*
X010970Y005656D01*
X010891Y005578D01*
X010849Y005475D01*
X010849Y005363D01*
X010891Y005260D01*
X010970Y005182D01*
X011073Y005139D01*
X011184Y005139D01*
X011246Y005165D01*
X011747Y005165D01*
X011706Y005124D01*
X011657Y005083D01*
X011363Y005083D01*
X011303Y005023D01*
X011242Y005083D01*
X010851Y005083D01*
X010769Y005001D01*
X010769Y004949D01*
X010759Y004949D01*
X010759Y009532D01*
X009347Y010943D01*
X009242Y011049D01*
X007852Y011049D01*
X007852Y011887D01*
X009212Y011895D01*
X009453Y011688D01*
X009444Y011392D01*
X009442Y011387D01*
X009442Y011324D01*
X009440Y011262D01*
X009442Y011257D01*
X009442Y011251D01*
X009465Y011194D01*
X009487Y011136D01*
X009491Y011131D01*
X009493Y011126D01*
X009537Y011082D01*
X009580Y011037D01*
X009585Y011035D01*
X009589Y011031D01*
X009646Y011007D01*
X009703Y010981D01*
X009709Y010981D01*
X009714Y010979D01*
X009776Y010979D01*
X009838Y010977D01*
X009844Y010979D01*
X011519Y010979D01*
X011519Y010975D01*
X011517Y010973D01*
X011519Y010917D01*
X011518Y010916D01*
X011519Y010840D01*
X011519Y010823D01*
X011460Y010764D01*
X011400Y010824D01*
X011008Y010824D01*
X010926Y010742D01*
X010926Y010677D01*
X010543Y010677D01*
X010497Y010724D01*
X010394Y010766D01*
X010283Y010766D01*
X010180Y010724D01*
X010102Y010645D01*
X010059Y010543D01*
X010059Y010431D01*
X010102Y010329D01*
X010180Y010250D01*
X010283Y010208D01*
X010394Y010208D01*
X010497Y010250D01*
X010543Y010297D01*
X010926Y010297D01*
X010926Y010272D01*
X010959Y010238D01*
X010958Y010088D01*
X010898Y010028D01*
X010898Y009558D01*
X010980Y009476D01*
X011372Y009476D01*
X011454Y009558D01*
X011454Y010028D01*
X011398Y010084D01*
X011399Y010190D01*
X011400Y010190D01*
X011460Y010250D01*
X011520Y010190D01*
X011911Y010190D01*
X011993Y010272D01*
X011993Y010720D01*
X012000Y010720D01*
X012040Y010680D01*
X012143Y010638D01*
X012254Y010638D01*
X012356Y010680D01*
X012435Y010759D01*
X012477Y010861D01*
X012477Y010972D01*
X012476Y010976D01*
X013272Y010969D01*
X013272Y001698D01*
X013211Y001698D01*
X013129Y001616D01*
X013129Y001225D01*
X013211Y001143D01*
X013681Y001143D01*
X013758Y001219D01*
X013835Y001143D01*
X014305Y001143D01*
X014387Y001225D01*
X014387Y001616D01*
X014305Y001698D01*
X013835Y001698D01*
X013758Y001622D01*
X013681Y001698D01*
X013612Y001698D01*
X013612Y010966D01*
X013665Y010965D01*
X013667Y010966D01*
X013669Y010966D01*
X013730Y010990D01*
X013791Y011015D01*
X013792Y011016D01*
X013794Y011016D01*
X013841Y011063D01*
X013888Y011108D01*
X013889Y011110D01*
X013890Y011111D01*
X013916Y011172D01*
X013942Y011232D01*
X013943Y011234D01*
X013943Y011236D01*
X013944Y011302D01*
X013962Y012263D01*
X013921Y012366D01*
X013938Y012322D02*
X016549Y012322D01*
X016549Y012243D02*
X013961Y012243D01*
X013960Y012165D02*
X014257Y012165D01*
X014214Y012086D02*
X013958Y012086D01*
X013957Y012008D02*
X014214Y012008D01*
X014214Y011929D02*
X013955Y011929D01*
X013954Y011851D02*
X014214Y011851D01*
X014214Y011772D02*
X013952Y011772D01*
X013951Y011694D02*
X014214Y011694D01*
X014214Y011615D02*
X013950Y011615D01*
X013948Y011537D02*
X014214Y011537D01*
X014214Y011458D02*
X013947Y011458D01*
X013945Y011380D02*
X014214Y011380D01*
X014214Y011301D02*
X013944Y011301D01*
X013938Y011223D02*
X014237Y011223D01*
X013904Y011144D02*
X014837Y011144D01*
X014837Y011066D02*
X013844Y011066D01*
X013721Y010987D02*
X014837Y010987D01*
X014837Y010909D02*
X013612Y010909D01*
X013612Y010830D02*
X014837Y010830D01*
X014837Y010752D02*
X013612Y010752D01*
X013612Y010673D02*
X014837Y010673D01*
X014837Y010595D02*
X013612Y010595D01*
X013612Y010516D02*
X014837Y010516D01*
X014837Y010438D02*
X013612Y010438D01*
X013612Y010359D02*
X014837Y010359D01*
X014837Y010281D02*
X013612Y010281D01*
X013612Y010202D02*
X014837Y010202D01*
X014837Y010124D02*
X013612Y010124D01*
X013612Y010045D02*
X014837Y010045D01*
X014837Y009967D02*
X013612Y009967D01*
X013612Y009888D02*
X014837Y009888D01*
X014837Y009810D02*
X013612Y009810D01*
X013612Y009731D02*
X014837Y009731D01*
X014837Y009653D02*
X013612Y009653D01*
X013612Y009574D02*
X014837Y009574D01*
X014837Y009496D02*
X013612Y009496D01*
X013612Y009417D02*
X014837Y009417D01*
X014837Y009339D02*
X013612Y009339D01*
X013612Y009260D02*
X014837Y009260D01*
X014837Y009182D02*
X013612Y009182D01*
X013612Y009103D02*
X014837Y009103D01*
X014837Y009025D02*
X013612Y009025D01*
X013612Y008946D02*
X014837Y008946D01*
X014837Y008868D02*
X013612Y008868D01*
X013612Y008789D02*
X014837Y008789D01*
X014837Y008711D02*
X013612Y008711D01*
X013612Y008632D02*
X014837Y008632D01*
X014837Y008554D02*
X013612Y008554D01*
X013612Y008475D02*
X014837Y008475D01*
X014837Y008397D02*
X013612Y008397D01*
X013612Y008318D02*
X014837Y008318D01*
X014837Y008240D02*
X013612Y008240D01*
X013612Y008161D02*
X014837Y008161D01*
X014837Y008083D02*
X013612Y008083D01*
X013612Y008004D02*
X014837Y008004D01*
X014837Y007926D02*
X013612Y007926D01*
X013612Y007847D02*
X014837Y007847D01*
X014837Y007769D02*
X013612Y007769D01*
X013612Y007690D02*
X014837Y007690D01*
X014837Y007612D02*
X013612Y007612D01*
X013612Y007533D02*
X014837Y007533D01*
X014837Y007455D02*
X013612Y007455D01*
X013612Y007376D02*
X014837Y007376D01*
X014837Y007298D02*
X013612Y007298D01*
X013612Y007219D02*
X014837Y007219D01*
X014837Y007141D02*
X013612Y007141D01*
X013612Y007062D02*
X014837Y007062D01*
X014837Y006984D02*
X013612Y006984D01*
X013612Y006905D02*
X014837Y006905D01*
X014837Y006827D02*
X013612Y006827D01*
X013612Y006748D02*
X014837Y006748D01*
X014837Y006670D02*
X013612Y006670D01*
X013612Y006591D02*
X014837Y006591D01*
X014837Y006513D02*
X013612Y006513D01*
X013612Y006434D02*
X014837Y006434D01*
X014837Y006356D02*
X013612Y006356D01*
X013612Y006277D02*
X014837Y006277D01*
X014837Y006199D02*
X013612Y006199D01*
X013612Y006120D02*
X014837Y006120D01*
X014837Y006042D02*
X013612Y006042D01*
X013612Y005963D02*
X014837Y005963D01*
X014837Y005885D02*
X013612Y005885D01*
X013612Y005806D02*
X014837Y005806D01*
X014837Y005728D02*
X013612Y005728D01*
X013612Y005649D02*
X014837Y005649D01*
X014837Y005571D02*
X013612Y005571D01*
X013612Y005492D02*
X014837Y005492D01*
X014837Y005414D02*
X013612Y005414D01*
X013612Y005335D02*
X014837Y005335D01*
X014837Y005257D02*
X013612Y005257D01*
X013612Y005178D02*
X014837Y005178D01*
X014837Y005100D02*
X013612Y005100D01*
X013612Y005021D02*
X014837Y005021D01*
X014837Y004943D02*
X013612Y004943D01*
X013612Y004864D02*
X014837Y004864D01*
X014837Y004786D02*
X013612Y004786D01*
X013612Y004707D02*
X014837Y004707D01*
X014837Y004629D02*
X013612Y004629D01*
X013612Y004550D02*
X014837Y004550D01*
X014837Y004472D02*
X013612Y004472D01*
X013612Y004393D02*
X014837Y004393D01*
X014837Y004315D02*
X013612Y004315D01*
X013612Y004236D02*
X014837Y004236D01*
X014837Y004158D02*
X013612Y004158D01*
X013612Y004079D02*
X014837Y004079D01*
X014837Y004001D02*
X013612Y004001D01*
X013612Y003922D02*
X014837Y003922D01*
X014837Y003844D02*
X013612Y003844D01*
X013612Y003765D02*
X014837Y003765D01*
X014837Y003687D02*
X013612Y003687D01*
X013612Y003608D02*
X014837Y003608D01*
X014837Y003530D02*
X013612Y003530D01*
X013612Y003451D02*
X014837Y003451D01*
X014837Y003373D02*
X013612Y003373D01*
X013612Y003294D02*
X014837Y003294D01*
X014837Y003216D02*
X013612Y003216D01*
X013612Y003137D02*
X014837Y003137D01*
X014837Y003059D02*
X013612Y003059D01*
X013612Y002980D02*
X014837Y002980D01*
X014837Y002902D02*
X013612Y002902D01*
X013612Y002823D02*
X014837Y002823D01*
X015542Y002666D02*
X015789Y002666D01*
X015789Y002588D02*
X015542Y002588D01*
X015542Y002509D02*
X015789Y002509D01*
X015789Y002431D02*
X015542Y002431D01*
X015542Y002352D02*
X015789Y002352D01*
X015789Y002274D02*
X015542Y002274D01*
X015542Y002195D02*
X015789Y002195D01*
X015789Y002117D02*
X015542Y002117D01*
X015542Y002038D02*
X015789Y002038D01*
X015789Y001960D02*
X015542Y001960D01*
X015542Y001881D02*
X015789Y001881D01*
X015789Y001803D02*
X015542Y001803D01*
X015469Y001724D02*
X015862Y001724D01*
X014387Y001567D02*
X026024Y001567D01*
X025986Y001489D02*
X014387Y001489D01*
X014387Y001410D02*
X025931Y001410D01*
X025869Y001332D02*
X014387Y001332D01*
X014387Y001253D02*
X025806Y001253D01*
X025743Y001175D02*
X014337Y001175D01*
X014358Y001646D02*
X026062Y001646D01*
X026099Y001724D02*
X020587Y001724D01*
X020660Y001803D02*
X026137Y001803D01*
X026163Y001881D02*
X020660Y001881D01*
X020660Y001960D02*
X026181Y001960D01*
X026199Y002038D02*
X020660Y002038D01*
X020660Y002117D02*
X026217Y002117D01*
X026234Y002195D02*
X020660Y002195D01*
X020660Y002274D02*
X026245Y002274D01*
X026250Y002352D02*
X020660Y002352D01*
X020660Y002431D02*
X026254Y002431D01*
X026254Y002509D02*
X020660Y002509D01*
X020660Y002588D02*
X026254Y002588D01*
X026254Y002666D02*
X020660Y002666D01*
X021964Y003810D02*
X021973Y003819D01*
X022079Y003819D01*
X022129Y003769D01*
X022129Y003419D01*
X022991Y003216D02*
X026254Y003216D01*
X026254Y003294D02*
X025812Y003294D01*
X025890Y003373D02*
X026254Y003373D01*
X026254Y003451D02*
X025916Y003451D01*
X025916Y003530D02*
X026254Y003530D01*
X026254Y003608D02*
X025916Y003608D01*
X025916Y003687D02*
X026254Y003687D01*
X026254Y003765D02*
X025916Y003765D01*
X025916Y003844D02*
X026254Y003844D01*
X026254Y003922D02*
X025851Y003922D01*
X026254Y003137D02*
X022991Y003137D01*
X022991Y003059D02*
X026254Y003059D01*
X026254Y002980D02*
X022991Y002980D01*
X022991Y002902D02*
X026254Y002902D01*
X026254Y002823D02*
X022991Y002823D01*
X022963Y002745D02*
X026254Y002745D01*
X025659Y001096D02*
X008849Y001096D01*
X008849Y001044D02*
X008767Y000962D01*
X008178Y000962D01*
X008096Y001044D01*
X008096Y002026D01*
X008178Y002108D01*
X008252Y002108D01*
X008252Y002199D01*
X008241Y002210D01*
X008199Y002313D01*
X008199Y002425D01*
X008241Y002528D01*
X008320Y002606D01*
X008423Y002649D01*
X008447Y002649D01*
X009014Y003216D01*
X008936Y003137D02*
X008451Y003137D01*
X008373Y003059D02*
X008857Y003059D01*
X008779Y002980D02*
X008294Y002980D01*
X008216Y002902D02*
X008700Y002902D01*
X008622Y002823D02*
X008137Y002823D01*
X008059Y002745D02*
X008543Y002745D01*
X008465Y002666D02*
X007980Y002666D01*
X007902Y002588D02*
X008301Y002588D01*
X008234Y002509D02*
X007823Y002509D01*
X007745Y002431D02*
X008201Y002431D01*
X008199Y002352D02*
X007709Y002352D01*
X007692Y002274D02*
X008215Y002274D01*
X008252Y002195D02*
X007651Y002195D01*
X007629Y002117D02*
X008252Y002117D01*
X008108Y002038D02*
X007797Y002038D01*
X007825Y001960D02*
X008096Y001960D01*
X008096Y001881D02*
X007825Y001881D01*
X007825Y001803D02*
X008096Y001803D01*
X008096Y001724D02*
X007825Y001724D01*
X007825Y001646D02*
X008096Y001646D01*
X008096Y001567D02*
X007825Y001567D01*
X007825Y001489D02*
X008096Y001489D01*
X008096Y001410D02*
X007825Y001410D01*
X007825Y001332D02*
X008096Y001332D01*
X008096Y001253D02*
X007825Y001253D01*
X007825Y001175D02*
X008096Y001175D01*
X008096Y001096D02*
X007825Y001096D01*
X007814Y001018D02*
X008122Y001018D01*
X008849Y001175D02*
X013179Y001175D01*
X013129Y001253D02*
X008849Y001253D01*
X008849Y001332D02*
X013129Y001332D01*
X013129Y001410D02*
X008849Y001410D01*
X008849Y001489D02*
X013129Y001489D01*
X013129Y001567D02*
X008849Y001567D01*
X008849Y001646D02*
X013158Y001646D01*
X013272Y001724D02*
X008849Y001724D01*
X008849Y001803D02*
X013272Y001803D01*
X013272Y001881D02*
X008849Y001881D01*
X008849Y001960D02*
X013272Y001960D01*
X013272Y002038D02*
X008836Y002038D01*
X008692Y002117D02*
X013272Y002117D01*
X013272Y002195D02*
X008701Y002195D01*
X008742Y002274D02*
X013272Y002274D01*
X013272Y002352D02*
X008773Y002352D01*
X008851Y002431D02*
X010822Y002431D01*
X010742Y002509D02*
X008930Y002509D01*
X009008Y002588D02*
X010709Y002588D01*
X010699Y002666D02*
X009087Y002666D01*
X009165Y002745D02*
X010707Y002745D01*
X011135Y002431D02*
X013272Y002431D01*
X013272Y002509D02*
X011215Y002509D01*
X011248Y002588D02*
X013272Y002588D01*
X013272Y002666D02*
X011259Y002666D01*
X011296Y002745D02*
X013272Y002745D01*
X013272Y002823D02*
X011312Y002823D01*
X011312Y002902D02*
X013272Y002902D01*
X013272Y002980D02*
X011312Y002980D01*
X011312Y003059D02*
X013272Y003059D01*
X013272Y003137D02*
X011312Y003137D01*
X011312Y003216D02*
X013272Y003216D01*
X013272Y003294D02*
X011762Y003294D01*
X011830Y003373D02*
X013272Y003373D01*
X013272Y003451D02*
X011830Y003451D01*
X011830Y003530D02*
X013272Y003530D01*
X013272Y003608D02*
X013022Y003608D01*
X013036Y003687D02*
X013272Y003687D01*
X013272Y003765D02*
X013036Y003765D01*
X013036Y003844D02*
X013272Y003844D01*
X013272Y003922D02*
X013036Y003922D01*
X013033Y004001D02*
X013272Y004001D01*
X013272Y004079D02*
X013036Y004079D01*
X013036Y004158D02*
X013272Y004158D01*
X013272Y004236D02*
X013036Y004236D01*
X013036Y004315D02*
X013272Y004315D01*
X013272Y004393D02*
X013034Y004393D01*
X013036Y004472D02*
X013272Y004472D01*
X013272Y004550D02*
X013036Y004550D01*
X013036Y004629D02*
X013272Y004629D01*
X013272Y004707D02*
X013036Y004707D01*
X013035Y004786D02*
X013272Y004786D01*
X013272Y004864D02*
X013036Y004864D01*
X013036Y004943D02*
X013272Y004943D01*
X013272Y005021D02*
X013036Y005021D01*
X013036Y005100D02*
X013272Y005100D01*
X013272Y005178D02*
X013036Y005178D01*
X013036Y005257D02*
X013272Y005257D01*
X013272Y005335D02*
X013036Y005335D01*
X013036Y005414D02*
X013272Y005414D01*
X013272Y005492D02*
X013036Y005492D01*
X013036Y005571D02*
X013272Y005571D01*
X013272Y005649D02*
X012959Y005649D01*
X012954Y005902D02*
X013036Y005984D01*
X013036Y006360D01*
X013027Y006369D01*
X013036Y006378D01*
X013036Y006754D01*
X013027Y006763D01*
X013036Y006771D01*
X013036Y007147D01*
X013027Y007156D01*
X013036Y007165D01*
X013036Y007541D01*
X013027Y007550D01*
X013036Y007559D01*
X013036Y007935D01*
X013027Y007944D01*
X013036Y007953D01*
X013036Y008329D01*
X013027Y008337D01*
X013036Y008346D01*
X013036Y008722D01*
X013027Y008731D01*
X013036Y008740D01*
X013036Y009116D01*
X013027Y009125D01*
X013036Y009134D01*
X013036Y009510D01*
X013027Y009519D01*
X013036Y009527D01*
X013036Y009903D01*
X012954Y009985D01*
X012078Y009985D01*
X011996Y009903D01*
X011996Y009527D01*
X012004Y009519D01*
X011996Y009510D01*
X011996Y009134D01*
X012004Y009125D01*
X011996Y009116D01*
X011996Y008740D01*
X012004Y008731D01*
X011996Y008722D01*
X011996Y008346D01*
X012004Y008337D01*
X011996Y008329D01*
X011996Y007953D01*
X012004Y007944D01*
X011996Y007935D01*
X011996Y007559D01*
X012004Y007550D01*
X011996Y007541D01*
X011996Y007199D01*
X011619Y007199D01*
X011619Y007277D01*
X011537Y007359D01*
X010921Y007359D01*
X010839Y007277D01*
X010839Y006661D01*
X010921Y006579D01*
X011537Y006579D01*
X011619Y006661D01*
X011619Y006719D01*
X011996Y006719D01*
X011996Y006378D01*
X012004Y006369D01*
X011996Y006360D01*
X011996Y005984D01*
X012078Y005902D01*
X012954Y005902D01*
X013015Y005963D02*
X013272Y005963D01*
X013272Y005885D02*
X010759Y005885D01*
X010759Y005963D02*
X012017Y005963D01*
X011996Y006042D02*
X010759Y006042D01*
X010759Y006120D02*
X011996Y006120D01*
X011996Y006199D02*
X010759Y006199D01*
X010759Y006277D02*
X011996Y006277D01*
X011996Y006356D02*
X010759Y006356D01*
X010759Y006434D02*
X011996Y006434D01*
X011996Y006513D02*
X010759Y006513D01*
X010759Y006591D02*
X010908Y006591D01*
X010839Y006670D02*
X010759Y006670D01*
X010759Y006748D02*
X010839Y006748D01*
X010839Y006827D02*
X010759Y006827D01*
X010759Y006905D02*
X010839Y006905D01*
X010839Y006984D02*
X010759Y006984D01*
X010759Y007062D02*
X010839Y007062D01*
X010839Y007141D02*
X010759Y007141D01*
X010759Y007219D02*
X010839Y007219D01*
X010859Y007298D02*
X010759Y007298D01*
X010759Y007376D02*
X011996Y007376D01*
X011996Y007298D02*
X011598Y007298D01*
X011619Y007219D02*
X011996Y007219D01*
X011996Y007455D02*
X010759Y007455D01*
X010759Y007533D02*
X011996Y007533D01*
X011996Y007612D02*
X010759Y007612D01*
X010759Y007690D02*
X011996Y007690D01*
X011996Y007769D02*
X010759Y007769D01*
X010759Y007847D02*
X011996Y007847D01*
X011996Y007926D02*
X010759Y007926D01*
X010759Y008004D02*
X011996Y008004D01*
X011996Y008083D02*
X010759Y008083D01*
X010759Y008161D02*
X011996Y008161D01*
X011996Y008240D02*
X010759Y008240D01*
X010759Y008318D02*
X011996Y008318D01*
X011996Y008397D02*
X010759Y008397D01*
X010759Y008475D02*
X011996Y008475D01*
X011996Y008554D02*
X010759Y008554D01*
X010759Y008632D02*
X011996Y008632D01*
X011996Y008711D02*
X010759Y008711D01*
X010759Y008789D02*
X011996Y008789D01*
X011996Y008868D02*
X010759Y008868D01*
X010759Y008946D02*
X011996Y008946D01*
X011996Y009025D02*
X010759Y009025D01*
X010759Y009103D02*
X011996Y009103D01*
X011996Y009182D02*
X010759Y009182D01*
X010759Y009260D02*
X011996Y009260D01*
X011996Y009339D02*
X010759Y009339D01*
X010759Y009417D02*
X011996Y009417D01*
X011996Y009496D02*
X011392Y009496D01*
X011454Y009574D02*
X011996Y009574D01*
X011996Y009653D02*
X011454Y009653D01*
X011454Y009731D02*
X011996Y009731D01*
X011996Y009810D02*
X011454Y009810D01*
X011454Y009888D02*
X011996Y009888D01*
X012059Y009967D02*
X011454Y009967D01*
X011437Y010045D02*
X013272Y010045D01*
X013272Y009967D02*
X012972Y009967D01*
X013036Y009888D02*
X013272Y009888D01*
X013272Y009810D02*
X013036Y009810D01*
X013036Y009731D02*
X013272Y009731D01*
X013272Y009653D02*
X013036Y009653D01*
X013036Y009574D02*
X013272Y009574D01*
X013272Y009496D02*
X013036Y009496D01*
X013036Y009417D02*
X013272Y009417D01*
X013272Y009339D02*
X013036Y009339D01*
X013036Y009260D02*
X013272Y009260D01*
X013272Y009182D02*
X013036Y009182D01*
X013036Y009103D02*
X013272Y009103D01*
X013272Y009025D02*
X013036Y009025D01*
X013036Y008946D02*
X013272Y008946D01*
X013272Y008868D02*
X013036Y008868D01*
X013036Y008789D02*
X013272Y008789D01*
X013272Y008711D02*
X013036Y008711D01*
X013036Y008632D02*
X013272Y008632D01*
X013272Y008554D02*
X013036Y008554D01*
X013036Y008475D02*
X013272Y008475D01*
X013272Y008397D02*
X013036Y008397D01*
X013036Y008318D02*
X013272Y008318D01*
X013272Y008240D02*
X013036Y008240D01*
X013036Y008161D02*
X013272Y008161D01*
X013272Y008083D02*
X013036Y008083D01*
X013036Y008004D02*
X013272Y008004D01*
X013272Y007926D02*
X013036Y007926D01*
X013036Y007847D02*
X013272Y007847D01*
X013272Y007769D02*
X013036Y007769D01*
X013036Y007690D02*
X013272Y007690D01*
X013272Y007612D02*
X013036Y007612D01*
X013036Y007533D02*
X013272Y007533D01*
X013272Y007455D02*
X013036Y007455D01*
X013036Y007376D02*
X013272Y007376D01*
X013272Y007298D02*
X013036Y007298D01*
X013036Y007219D02*
X013272Y007219D01*
X013272Y007141D02*
X013036Y007141D01*
X013036Y007062D02*
X013272Y007062D01*
X013272Y006984D02*
X013036Y006984D01*
X013036Y006905D02*
X013272Y006905D01*
X013272Y006827D02*
X013036Y006827D01*
X013036Y006748D02*
X013272Y006748D01*
X013272Y006670D02*
X013036Y006670D01*
X013036Y006591D02*
X013272Y006591D01*
X013272Y006513D02*
X013036Y006513D01*
X013036Y006434D02*
X013272Y006434D01*
X013272Y006356D02*
X013036Y006356D01*
X013036Y006277D02*
X013272Y006277D01*
X013272Y006199D02*
X013036Y006199D01*
X013036Y006120D02*
X013272Y006120D01*
X013272Y006042D02*
X013036Y006042D01*
X013272Y005806D02*
X010759Y005806D01*
X010759Y005728D02*
X013272Y005728D01*
X012516Y004991D02*
X011828Y004991D01*
X011559Y004766D01*
X011677Y005100D02*
X010759Y005100D01*
X010759Y005178D02*
X010978Y005178D01*
X010895Y005257D02*
X010759Y005257D01*
X010759Y005335D02*
X010860Y005335D01*
X010849Y005414D02*
X010759Y005414D01*
X010759Y005492D02*
X010856Y005492D01*
X010888Y005571D02*
X010759Y005571D01*
X010759Y005649D02*
X010963Y005649D01*
X011294Y005649D02*
X012072Y005649D01*
X011996Y006591D02*
X011549Y006591D01*
X011619Y006670D02*
X011996Y006670D01*
X010399Y006670D02*
X003306Y006670D01*
X003306Y006748D02*
X010399Y006748D01*
X010399Y006827D02*
X003306Y006827D01*
X003306Y006905D02*
X010399Y006905D01*
X010399Y006984D02*
X003306Y006984D01*
X003306Y007062D02*
X010399Y007062D01*
X010399Y007141D02*
X003306Y007141D01*
X003306Y007219D02*
X010399Y007219D01*
X010399Y007298D02*
X003306Y007298D01*
X003306Y007376D02*
X010399Y007376D01*
X010399Y007455D02*
X003306Y007455D01*
X003306Y007533D02*
X009929Y007533D01*
X009869Y007612D02*
X003306Y007612D01*
X003306Y007690D02*
X009839Y007690D01*
X009839Y007769D02*
X003306Y007769D01*
X003306Y007847D02*
X009861Y007847D01*
X009909Y007926D02*
X003306Y007926D01*
X003306Y008004D02*
X010027Y008004D01*
X010212Y008004D02*
X010399Y008004D01*
X010399Y007926D02*
X010329Y007926D01*
X010378Y007847D02*
X010399Y007847D01*
X010399Y007612D02*
X010369Y007612D01*
X010399Y007533D02*
X010309Y007533D01*
X010399Y008083D02*
X003306Y008083D01*
X003306Y008161D02*
X010399Y008161D01*
X010399Y008240D02*
X003306Y008240D01*
X003306Y008318D02*
X010399Y008318D01*
X010399Y008397D02*
X003306Y008397D01*
X003306Y008475D02*
X010399Y008475D01*
X010399Y008554D02*
X003306Y008554D01*
X003306Y008632D02*
X010399Y008632D01*
X010399Y008711D02*
X003306Y008711D01*
X003306Y008789D02*
X010399Y008789D01*
X010399Y008868D02*
X003306Y008868D01*
X003306Y008946D02*
X010399Y008946D01*
X010579Y009457D02*
X009167Y010869D01*
X009303Y010987D02*
X009690Y010987D01*
X009553Y011066D02*
X007852Y011066D01*
X007852Y011144D02*
X009484Y011144D01*
X009453Y011223D02*
X007852Y011223D01*
X007852Y011301D02*
X009441Y011301D01*
X009442Y011380D02*
X007852Y011380D01*
X007852Y011458D02*
X009446Y011458D01*
X009448Y011537D02*
X007852Y011537D01*
X007852Y011615D02*
X009451Y011615D01*
X009446Y011694D02*
X007852Y011694D01*
X007852Y011772D02*
X009355Y011772D01*
X009263Y011851D02*
X007852Y011851D01*
X006491Y010752D02*
X004652Y010752D01*
X004652Y010830D02*
X006413Y010830D01*
X006349Y010909D02*
X004652Y010909D01*
X004652Y010987D02*
X006177Y010987D01*
X006139Y011066D02*
X004652Y011066D01*
X004652Y011144D02*
X006139Y011144D01*
X006139Y011223D02*
X005266Y011223D01*
X004991Y011223D02*
X004652Y011223D01*
X004652Y011301D02*
X004900Y011301D01*
X004862Y011380D02*
X004652Y011380D01*
X004652Y011458D02*
X004849Y011458D01*
X004854Y011537D02*
X004652Y011537D01*
X004652Y011615D02*
X004886Y011615D01*
X004292Y013813D02*
X004187Y013813D01*
X004883Y014363D02*
X005844Y014363D01*
X005365Y014677D02*
X005297Y014677D01*
X004971Y015776D02*
X004883Y015776D01*
X004883Y015854D02*
X004971Y015854D01*
X004971Y015933D02*
X004883Y015933D01*
X004883Y016011D02*
X004971Y016011D01*
X004971Y016090D02*
X004883Y016090D01*
X004883Y016168D02*
X004971Y016168D01*
X004971Y016247D02*
X004883Y016247D01*
X004883Y016325D02*
X004971Y016325D01*
X004971Y016404D02*
X004879Y016404D01*
X004801Y016482D02*
X004971Y016482D01*
X004971Y016561D02*
X004526Y016561D01*
X004474Y016639D02*
X004971Y016639D01*
X004971Y016718D02*
X004396Y016718D01*
X004435Y016875D02*
X004971Y016875D01*
X004971Y016796D02*
X004253Y016796D01*
X004530Y016953D02*
X004938Y016953D01*
X004891Y017032D02*
X004607Y017032D01*
X004640Y017110D02*
X004871Y017110D01*
X004871Y017189D02*
X004672Y017189D01*
X004684Y017267D02*
X004903Y017267D01*
X004965Y017346D02*
X004684Y017346D01*
X004682Y017424D02*
X005067Y017424D01*
X005061Y017503D02*
X004650Y017503D01*
X004617Y017581D02*
X005060Y017581D01*
X005060Y017660D02*
X004554Y017660D01*
X004475Y017738D02*
X005060Y017738D01*
X005056Y018602D02*
X005012Y018602D01*
X003522Y020093D02*
X003306Y020093D01*
X003306Y020015D02*
X003443Y020015D01*
X003365Y019936D02*
X003306Y019936D01*
X007816Y015518D02*
X007849Y015485D01*
X008467Y015485D01*
X008467Y014856D02*
X009279Y014856D01*
X009476Y014127D02*
X011457Y014127D01*
X011466Y014049D02*
X009450Y014049D01*
X009055Y013779D02*
X009055Y013718D01*
X008994Y013779D01*
X009055Y013718D02*
X009055Y013638D01*
X008381Y013264D02*
X007699Y013264D01*
X007845Y014912D02*
X007353Y014912D01*
X007353Y014991D02*
X007482Y014991D01*
X007410Y015069D02*
X007353Y015069D01*
X007349Y015148D02*
X007336Y015148D01*
X007283Y015226D02*
X007258Y015226D01*
X010016Y012950D02*
X010807Y012950D01*
X010750Y013028D02*
X010115Y013028D01*
X010194Y013107D02*
X010755Y013107D01*
X010755Y013185D02*
X010232Y013185D01*
X010240Y013264D02*
X010446Y013264D01*
X010380Y013342D02*
X010250Y013342D01*
X010250Y013421D02*
X010380Y013421D01*
X010380Y013499D02*
X010250Y013499D01*
X010250Y013578D02*
X010380Y013578D01*
X010380Y013656D02*
X010250Y013656D01*
X010250Y013735D02*
X010380Y013735D01*
X010380Y013813D02*
X010250Y013813D01*
X010250Y013892D02*
X010380Y013892D01*
X010404Y013970D02*
X010226Y013970D01*
X010212Y014284D02*
X010193Y014284D01*
X011157Y014363D02*
X011457Y014363D01*
X011485Y013970D02*
X012307Y013970D01*
X012265Y014049D02*
X012372Y014049D01*
X012357Y014127D02*
X012388Y014127D01*
X012243Y013892D02*
X011510Y013892D01*
X012359Y013185D02*
X012382Y013185D01*
X012554Y013421D02*
X012977Y013421D01*
X012977Y013499D02*
X012633Y013499D01*
X012666Y014611D02*
X012622Y015213D01*
X012616Y015218D01*
X015197Y016796D02*
X015216Y016796D01*
X015966Y016796D02*
X020416Y016796D01*
X020416Y016718D02*
X015966Y016718D01*
X015966Y016639D02*
X020416Y016639D01*
X020416Y016561D02*
X015966Y016561D01*
X015966Y016482D02*
X020416Y016482D01*
X020416Y016404D02*
X015966Y016404D01*
X015966Y016325D02*
X020416Y016325D01*
X020416Y016247D02*
X015966Y016247D01*
X015966Y016168D02*
X020416Y016168D01*
X020416Y016090D02*
X015966Y016090D01*
X015966Y016011D02*
X020416Y016011D01*
X020416Y015933D02*
X015966Y015933D01*
X015966Y015918D02*
X015966Y017218D01*
X015971Y017267D01*
X017567Y017267D01*
X017575Y017259D02*
X017496Y017338D01*
X017454Y017440D01*
X017454Y017468D01*
X017118Y017468D01*
X017114Y017464D01*
X017050Y017464D01*
X016986Y017459D01*
X016981Y017464D01*
X016186Y017464D01*
X016119Y017397D01*
X016017Y017354D01*
X016007Y017354D01*
X015985Y017314D01*
X015971Y017267D01*
X015966Y017189D02*
X020416Y017189D01*
X020416Y017218D02*
X020416Y015918D01*
X020411Y015869D01*
X020397Y015822D01*
X020374Y015779D01*
X020343Y015741D01*
X020305Y015710D01*
X020262Y015687D01*
X020215Y015673D01*
X020166Y015668D01*
X016216Y015668D01*
X016167Y015673D01*
X016120Y015687D01*
X016077Y015710D01*
X016039Y015741D01*
X016008Y015779D01*
X015985Y015822D01*
X015971Y015869D01*
X015966Y015918D01*
X015975Y015854D02*
X020407Y015854D01*
X020371Y015776D02*
X016011Y015776D01*
X016102Y015697D02*
X020280Y015697D01*
X020956Y015697D02*
X022418Y015697D01*
X022418Y015619D02*
X020956Y015619D01*
X020956Y015540D02*
X022418Y015540D01*
X022418Y015462D02*
X020956Y015462D01*
X020956Y015383D02*
X022418Y015383D01*
X022418Y015305D02*
X020957Y015305D01*
X020956Y015313D02*
X020956Y017260D01*
X022101Y017260D01*
X022183Y017342D01*
X022183Y017364D01*
X022279Y017366D01*
X022279Y016868D01*
X022274Y016852D01*
X022279Y016802D01*
X022279Y016751D01*
X022280Y016748D01*
X022279Y016736D01*
X022289Y016703D01*
X022292Y016670D01*
X022304Y016648D01*
X022306Y016623D01*
X022322Y016593D01*
X022332Y016561D01*
X020956Y016561D01*
X020956Y016639D02*
X022305Y016639D01*
X022284Y016718D02*
X020956Y016718D01*
X020956Y016796D02*
X022279Y016796D01*
X022279Y016875D02*
X020956Y016875D01*
X020956Y016953D02*
X022279Y016953D01*
X022279Y017032D02*
X020956Y017032D01*
X020956Y017110D02*
X022279Y017110D01*
X022279Y017189D02*
X020956Y017189D01*
X020416Y017218D02*
X020411Y017267D01*
X017899Y017267D01*
X017891Y017259D02*
X017969Y017338D01*
X018012Y017440D01*
X018012Y017468D01*
X018242Y017468D01*
X018242Y017450D01*
X018324Y017368D01*
X018680Y017368D01*
X018738Y017426D01*
X018800Y017364D01*
X020176Y017364D01*
X020258Y017446D01*
X020258Y017450D01*
X020262Y017449D01*
X020305Y017426D01*
X020343Y017395D01*
X020374Y017357D01*
X020397Y017314D01*
X020411Y017267D01*
X020380Y017346D02*
X017973Y017346D01*
X018005Y017424D02*
X018268Y017424D01*
X018242Y017648D02*
X017280Y017648D01*
X017639Y018064D01*
X017968Y018064D01*
X017974Y018070D01*
X017979Y018060D01*
X018057Y017981D01*
X018160Y017938D01*
X018242Y017938D01*
X018242Y017648D01*
X018242Y017660D02*
X017290Y017660D01*
X017358Y017738D02*
X018242Y017738D01*
X018242Y017817D02*
X017426Y017817D01*
X017493Y017895D02*
X018242Y017895D01*
X018074Y017974D02*
X017561Y017974D01*
X017629Y018052D02*
X017986Y018052D01*
X017357Y018395D02*
X017336Y018382D01*
X017306Y018372D01*
X017275Y018368D01*
X015666Y018368D01*
X015666Y019736D01*
X015795Y019865D01*
X017416Y019865D01*
X017416Y019584D01*
X017262Y019584D01*
X017180Y019502D01*
X017180Y018835D01*
X017262Y018753D01*
X017367Y018753D01*
X017367Y018466D01*
X017357Y018456D01*
X017357Y018395D01*
X017357Y018445D02*
X015666Y018445D01*
X015666Y018523D02*
X017367Y018523D01*
X017367Y018602D02*
X015666Y018602D01*
X015666Y018680D02*
X017367Y018680D01*
X017256Y018759D02*
X015666Y018759D01*
X015666Y018837D02*
X017180Y018837D01*
X017180Y018916D02*
X015666Y018916D01*
X015666Y018994D02*
X017180Y018994D01*
X017180Y019073D02*
X015666Y019073D01*
X015666Y019151D02*
X017180Y019151D01*
X017180Y019230D02*
X015666Y019230D01*
X015666Y019308D02*
X017180Y019308D01*
X017180Y019387D02*
X015666Y019387D01*
X015666Y019465D02*
X017180Y019465D01*
X017221Y019544D02*
X015666Y019544D01*
X015666Y019622D02*
X017416Y019622D01*
X017416Y019701D02*
X015666Y019701D01*
X015710Y019779D02*
X017416Y019779D01*
X017416Y019858D02*
X015788Y019858D01*
X015974Y020205D02*
X015974Y020381D01*
X015874Y020481D01*
X015666Y020481D01*
X015666Y020864D01*
X015675Y020969D01*
X015702Y021071D01*
X015747Y021166D01*
X015807Y021252D01*
X015882Y021327D01*
X015968Y021387D01*
X016064Y021432D01*
X016165Y021459D01*
X016270Y021468D01*
X017416Y021468D01*
X017416Y020205D01*
X015974Y020205D01*
X015974Y020250D02*
X017416Y020250D01*
X017416Y020329D02*
X015974Y020329D01*
X015948Y020407D02*
X017416Y020407D01*
X017416Y020486D02*
X015666Y020486D01*
X015666Y020564D02*
X017416Y020564D01*
X017416Y020643D02*
X015666Y020643D01*
X015666Y020721D02*
X017416Y020721D01*
X017416Y020800D02*
X015666Y020800D01*
X015667Y020878D02*
X017416Y020878D01*
X017416Y020957D02*
X015674Y020957D01*
X015693Y021035D02*
X017416Y021035D01*
X017416Y021114D02*
X015723Y021114D01*
X015765Y021192D02*
X017416Y021192D01*
X017416Y021271D02*
X015826Y021271D01*
X015914Y021349D02*
X017416Y021349D01*
X017416Y021428D02*
X016055Y021428D01*
X016002Y021601D02*
X015945Y021586D01*
X015939Y021575D01*
X015926Y021577D01*
X015878Y021544D01*
X015824Y021519D01*
X015820Y021507D01*
X015807Y021507D01*
X015766Y021465D01*
X015717Y021431D01*
X015715Y021419D01*
X015703Y021417D01*
X015669Y021368D01*
X015627Y021327D01*
X015627Y021314D01*
X015615Y021310D01*
X015590Y021256D01*
X015557Y021208D01*
X015559Y021196D01*
X015548Y021189D01*
X015533Y021132D01*
X015508Y021079D01*
X015512Y021067D01*
X015502Y021059D01*
X015497Y021000D01*
X015482Y020943D01*
X015486Y020937D01*
X015486Y020872D01*
X015480Y020805D01*
X015486Y020798D01*
X015486Y020481D01*
X015276Y020481D01*
X015285Y020492D01*
X015298Y020499D01*
X015302Y020512D01*
X015310Y020523D01*
X015309Y020536D01*
X015314Y020553D01*
X015322Y020569D01*
X015333Y020577D01*
X015334Y020591D01*
X015341Y020603D01*
X015337Y020617D01*
X015339Y020634D01*
X015339Y020637D01*
X015346Y020644D01*
X015346Y020658D01*
X015355Y020688D01*
X015346Y020705D01*
X015346Y020709D01*
X015352Y020775D01*
X015346Y020783D01*
X015346Y021459D01*
X015348Y021482D01*
X015352Y021495D01*
X015359Y021507D01*
X015367Y021517D01*
X015378Y021526D01*
X015390Y021532D01*
X015403Y021536D01*
X015425Y021538D01*
X015602Y021538D01*
X015609Y021532D01*
X015675Y021538D01*
X015679Y021538D01*
X015696Y021529D01*
X015726Y021538D01*
X015741Y021538D01*
X015747Y021545D01*
X015750Y021546D01*
X015768Y021547D01*
X015781Y021543D01*
X015793Y021550D01*
X015807Y021551D01*
X015815Y021562D01*
X015831Y021570D01*
X015848Y021575D01*
X015861Y021574D01*
X015872Y021583D01*
X015885Y021587D01*
X015892Y021599D01*
X015905Y021610D01*
X015921Y021618D01*
X015935Y021620D01*
X015943Y021630D01*
X015955Y021637D01*
X015959Y021650D01*
X015971Y021663D01*
X015984Y021675D01*
X015997Y021679D01*
X016004Y021691D01*
X016015Y021699D01*
X016016Y021713D01*
X016024Y021729D01*
X016035Y021742D01*
X016833Y021742D01*
X016755Y021663D02*
X015970Y021663D01*
X016002Y021601D02*
X016055Y021626D01*
X016067Y021622D01*
X016075Y021632D01*
X016134Y021637D01*
X016191Y021652D01*
X016198Y021648D01*
X016262Y021648D01*
X016329Y021654D01*
X016336Y021648D01*
X016740Y021648D01*
X017711Y022619D01*
X017711Y022999D01*
X017793Y023081D01*
X018854Y023081D01*
X018926Y023008D01*
X019132Y023008D01*
X019168Y023044D01*
X020229Y023044D01*
X020243Y023029D01*
X020341Y023039D01*
X020547Y022977D01*
X020606Y022928D01*
X020612Y022926D01*
X020625Y022913D01*
X020713Y022841D01*
X020725Y022818D01*
X020745Y022801D01*
X020752Y022786D01*
X020764Y022774D01*
X020799Y022690D01*
X020818Y022650D01*
X020818Y022962D01*
X020900Y023044D01*
X021961Y023044D01*
X022043Y022962D01*
X022043Y022707D01*
X022064Y022682D01*
X022077Y022670D01*
X022077Y022874D01*
X022159Y022956D01*
X022629Y022956D01*
X022711Y022874D01*
X022711Y022858D01*
X022928Y022858D01*
X022932Y023068D01*
X022932Y023146D01*
X022933Y023147D01*
X022933Y023147D01*
X022989Y023202D01*
X023045Y023257D01*
X023045Y023257D01*
X023046Y023257D01*
X023124Y023256D01*
X023649Y023250D01*
X023649Y023292D01*
X023731Y023374D01*
X024122Y023374D01*
X024183Y023314D01*
X024243Y023374D01*
X024634Y023374D01*
X024716Y023292D01*
X024716Y023187D01*
X025288Y023187D01*
X025393Y023082D01*
X025393Y021752D01*
X025288Y021647D01*
X025258Y021618D01*
X025126Y021618D01*
X025126Y021614D01*
X025059Y021547D01*
X025126Y021480D01*
X025126Y021114D01*
X025059Y021047D01*
X025065Y021041D01*
X025394Y021041D01*
X025394Y021262D01*
X025393Y021262D01*
X025394Y021336D01*
X025394Y021410D01*
X025394Y021410D01*
X025394Y021411D01*
X025446Y021463D01*
X025499Y021515D01*
X025499Y021515D01*
X025499Y021515D01*
X025573Y021515D01*
X025647Y021515D01*
X025648Y021515D01*
X025678Y021515D01*
X025678Y021776D01*
X025760Y021858D01*
X026231Y021858D01*
X026248Y021840D01*
X026243Y021933D01*
X026152Y022332D01*
X025974Y022701D01*
X025719Y023021D01*
X025399Y023276D01*
X025030Y023454D01*
X024631Y023545D01*
X024426Y023556D01*
X015943Y023556D01*
X015943Y023556D01*
X015955Y023550D01*
X015959Y023536D01*
X015971Y023523D01*
X015984Y023512D01*
X015997Y023508D01*
X016004Y023495D01*
X016015Y023487D01*
X016016Y023473D01*
X016024Y023457D01*
X016035Y023444D01*
X016048Y023437D01*
X016052Y023424D01*
X016060Y023414D01*
X016059Y023400D01*
X016064Y023383D01*
X016072Y023367D01*
X016083Y023359D01*
X016084Y023345D01*
X016091Y023333D01*
X016087Y023320D01*
X016089Y023302D01*
X016089Y023299D01*
X016096Y023293D01*
X016096Y023278D01*
X016105Y023248D01*
X016096Y023231D01*
X016096Y023227D01*
X016102Y023162D01*
X016096Y023154D01*
X016096Y022033D01*
X016102Y022025D01*
X016096Y021959D01*
X016096Y021955D01*
X016105Y021938D01*
X016096Y021908D01*
X016096Y021894D01*
X016089Y021887D01*
X016089Y021884D01*
X016087Y021867D01*
X016091Y021853D01*
X016084Y021841D01*
X016083Y021827D01*
X016072Y021819D01*
X016064Y021803D01*
X016059Y021786D01*
X016060Y021773D01*
X016052Y021762D01*
X016048Y021749D01*
X016035Y021742D01*
X016074Y021820D02*
X016912Y021820D01*
X016990Y021899D02*
X016096Y021899D01*
X016098Y021977D02*
X017069Y021977D01*
X017147Y022056D02*
X016096Y022056D01*
X016096Y022134D02*
X017226Y022134D01*
X017304Y022213D02*
X016096Y022213D01*
X016096Y022291D02*
X017383Y022291D01*
X017461Y022370D02*
X016096Y022370D01*
X016096Y022448D02*
X017540Y022448D01*
X017618Y022527D02*
X016096Y022527D01*
X016096Y022605D02*
X017697Y022605D01*
X017711Y022684D02*
X016096Y022684D01*
X016096Y022762D02*
X017711Y022762D01*
X017711Y022841D02*
X016096Y022841D01*
X016096Y022919D02*
X017711Y022919D01*
X017711Y022998D02*
X016096Y022998D01*
X016096Y023076D02*
X017789Y023076D01*
X018858Y023076D02*
X022932Y023076D01*
X022931Y022998D02*
X022007Y022998D01*
X022043Y022919D02*
X022122Y022919D01*
X022077Y022841D02*
X022043Y022841D01*
X022043Y022762D02*
X022077Y022762D01*
X022077Y022684D02*
X022063Y022684D01*
X022666Y022919D02*
X022929Y022919D01*
X022940Y023155D02*
X016097Y023155D01*
X016097Y023233D02*
X023021Y023233D01*
X023669Y023312D02*
X016088Y023312D01*
X016062Y023390D02*
X025162Y023390D01*
X025325Y023312D02*
X024696Y023312D01*
X024716Y023233D02*
X025453Y023233D01*
X025551Y023155D02*
X025320Y023155D01*
X025393Y023076D02*
X025649Y023076D01*
X025737Y022998D02*
X025393Y022998D01*
X025393Y022919D02*
X025800Y022919D01*
X025863Y022841D02*
X025393Y022841D01*
X025393Y022762D02*
X025925Y022762D01*
X025982Y022684D02*
X025393Y022684D01*
X025393Y022605D02*
X026020Y022605D01*
X026058Y022527D02*
X025393Y022527D01*
X025393Y022448D02*
X026096Y022448D01*
X026134Y022370D02*
X025393Y022370D01*
X025393Y022291D02*
X026161Y022291D01*
X026179Y022213D02*
X025393Y022213D01*
X025393Y022134D02*
X026197Y022134D01*
X026215Y022056D02*
X025393Y022056D01*
X025393Y021977D02*
X026233Y021977D01*
X026245Y021899D02*
X025393Y021899D01*
X025393Y021820D02*
X025723Y021820D01*
X025678Y021742D02*
X025382Y021742D01*
X025304Y021663D02*
X025678Y021663D01*
X025678Y021585D02*
X025096Y021585D01*
X025100Y021506D02*
X025490Y021506D01*
X025411Y021428D02*
X025126Y021428D01*
X025126Y021349D02*
X025394Y021349D01*
X025393Y021271D02*
X025126Y021271D01*
X025126Y021192D02*
X025394Y021192D01*
X025394Y021114D02*
X025125Y021114D01*
X026187Y020112D02*
X026243Y020112D01*
X026254Y020124D01*
X026254Y007166D01*
X026198Y007166D01*
X026198Y016680D01*
X026116Y016762D01*
X024806Y016762D01*
X024806Y016811D01*
X024824Y016793D01*
X025924Y016793D01*
X026006Y016875D01*
X026254Y016875D01*
X026254Y016953D02*
X026006Y016953D01*
X026006Y016875D02*
X026006Y018251D01*
X025924Y018333D01*
X025489Y018333D01*
X025460Y018956D01*
X025647Y018956D01*
X025729Y019038D01*
X025729Y019517D01*
X026082Y019517D01*
X026187Y019622D01*
X026254Y019622D01*
X026187Y019622D02*
X026187Y020112D01*
X026187Y020093D02*
X026254Y020093D01*
X026254Y020015D02*
X026187Y020015D01*
X026187Y019936D02*
X026254Y019936D01*
X026254Y019858D02*
X026187Y019858D01*
X026187Y019779D02*
X026254Y019779D01*
X026254Y019701D02*
X026187Y019701D01*
X026254Y019544D02*
X026109Y019544D01*
X026254Y019465D02*
X025729Y019465D01*
X025729Y019387D02*
X026254Y019387D01*
X026254Y019308D02*
X025729Y019308D01*
X025729Y019230D02*
X026254Y019230D01*
X026254Y019151D02*
X025729Y019151D01*
X025729Y019073D02*
X026254Y019073D01*
X026254Y018994D02*
X025685Y018994D01*
X025462Y018916D02*
X026254Y018916D01*
X026254Y018837D02*
X025466Y018837D01*
X025469Y018759D02*
X026254Y018759D01*
X026254Y018680D02*
X025473Y018680D01*
X025477Y018602D02*
X026254Y018602D01*
X026254Y018523D02*
X025480Y018523D01*
X025484Y018445D02*
X026254Y018445D01*
X026254Y018366D02*
X025488Y018366D01*
X025970Y018288D02*
X026254Y018288D01*
X026254Y018209D02*
X026006Y018209D01*
X026006Y018131D02*
X026254Y018131D01*
X026254Y018052D02*
X026006Y018052D01*
X026006Y017974D02*
X026254Y017974D01*
X026254Y017895D02*
X026006Y017895D01*
X026006Y017817D02*
X026254Y017817D01*
X026254Y017738D02*
X026006Y017738D01*
X026006Y017660D02*
X026254Y017660D01*
X026254Y017581D02*
X026006Y017581D01*
X026006Y017503D02*
X026254Y017503D01*
X026254Y017424D02*
X026006Y017424D01*
X026006Y017346D02*
X026254Y017346D01*
X026254Y017267D02*
X026006Y017267D01*
X026006Y017189D02*
X026254Y017189D01*
X026254Y017110D02*
X026006Y017110D01*
X026006Y017032D02*
X026254Y017032D01*
X026254Y016796D02*
X025927Y016796D01*
X026161Y016718D02*
X026254Y016718D01*
X026254Y016639D02*
X026198Y016639D01*
X026198Y016561D02*
X026254Y016561D01*
X026254Y016482D02*
X026198Y016482D01*
X026198Y016404D02*
X026254Y016404D01*
X026254Y016325D02*
X026198Y016325D01*
X026198Y016247D02*
X026254Y016247D01*
X026254Y016168D02*
X026198Y016168D01*
X026198Y016090D02*
X026254Y016090D01*
X026254Y016011D02*
X026198Y016011D01*
X026198Y015933D02*
X026254Y015933D01*
X026254Y015854D02*
X026198Y015854D01*
X026198Y015776D02*
X026254Y015776D01*
X026254Y015697D02*
X026198Y015697D01*
X026198Y015619D02*
X026254Y015619D01*
X026254Y015540D02*
X026198Y015540D01*
X026198Y015462D02*
X026254Y015462D01*
X026254Y015383D02*
X026198Y015383D01*
X026198Y015305D02*
X026254Y015305D01*
X026254Y015226D02*
X026198Y015226D01*
X026198Y015148D02*
X026254Y015148D01*
X026254Y015069D02*
X026198Y015069D01*
X026198Y014991D02*
X026254Y014991D01*
X026254Y014912D02*
X026198Y014912D01*
X026198Y014834D02*
X026254Y014834D01*
X026254Y014755D02*
X026198Y014755D01*
X026198Y014677D02*
X026254Y014677D01*
X026254Y014598D02*
X026198Y014598D01*
X026198Y014520D02*
X026254Y014520D01*
X026254Y014441D02*
X026198Y014441D01*
X026198Y014363D02*
X026254Y014363D01*
X026254Y014284D02*
X026198Y014284D01*
X026198Y014206D02*
X026254Y014206D01*
X026254Y014127D02*
X026198Y014127D01*
X026198Y014049D02*
X026254Y014049D01*
X026254Y013970D02*
X026198Y013970D01*
X026198Y013892D02*
X026254Y013892D01*
X026254Y013813D02*
X026198Y013813D01*
X026198Y013735D02*
X026254Y013735D01*
X026254Y013656D02*
X026198Y013656D01*
X026198Y013578D02*
X026254Y013578D01*
X026254Y013499D02*
X026198Y013499D01*
X026198Y013421D02*
X026254Y013421D01*
X026254Y013342D02*
X026198Y013342D01*
X026198Y013264D02*
X026254Y013264D01*
X026254Y013185D02*
X026198Y013185D01*
X026198Y013107D02*
X026254Y013107D01*
X026254Y013028D02*
X026198Y013028D01*
X026198Y012950D02*
X026254Y012950D01*
X026254Y012871D02*
X026198Y012871D01*
X026198Y012793D02*
X026254Y012793D01*
X026254Y012714D02*
X026198Y012714D01*
X026198Y012636D02*
X026254Y012636D01*
X026254Y012557D02*
X026198Y012557D01*
X026198Y012479D02*
X026254Y012479D01*
X026254Y012400D02*
X026198Y012400D01*
X026198Y012322D02*
X026254Y012322D01*
X026254Y012243D02*
X026198Y012243D01*
X026198Y012165D02*
X026254Y012165D01*
X026254Y012086D02*
X026198Y012086D01*
X026198Y012008D02*
X026254Y012008D01*
X026254Y011929D02*
X026198Y011929D01*
X026198Y011851D02*
X026254Y011851D01*
X026254Y011772D02*
X026198Y011772D01*
X026198Y011694D02*
X026254Y011694D01*
X026254Y011615D02*
X026198Y011615D01*
X026198Y011537D02*
X026254Y011537D01*
X026254Y011458D02*
X026198Y011458D01*
X026198Y011380D02*
X026254Y011380D01*
X026254Y011301D02*
X026198Y011301D01*
X026198Y011223D02*
X026254Y011223D01*
X026254Y011144D02*
X026198Y011144D01*
X026198Y011066D02*
X026254Y011066D01*
X026254Y010987D02*
X026198Y010987D01*
X026198Y010909D02*
X026254Y010909D01*
X026254Y010830D02*
X026198Y010830D01*
X026198Y010752D02*
X026254Y010752D01*
X026254Y010673D02*
X026198Y010673D01*
X026198Y010595D02*
X026254Y010595D01*
X026254Y010516D02*
X026198Y010516D01*
X026198Y010438D02*
X026254Y010438D01*
X026254Y010359D02*
X026198Y010359D01*
X026198Y010281D02*
X026254Y010281D01*
X026254Y010202D02*
X026198Y010202D01*
X026198Y010124D02*
X026254Y010124D01*
X026254Y010045D02*
X026198Y010045D01*
X026198Y009967D02*
X026254Y009967D01*
X026254Y009888D02*
X026198Y009888D01*
X026198Y009810D02*
X026254Y009810D01*
X026254Y009731D02*
X026198Y009731D01*
X026198Y009653D02*
X026254Y009653D01*
X026254Y009574D02*
X026198Y009574D01*
X026198Y009496D02*
X026254Y009496D01*
X026254Y009417D02*
X026198Y009417D01*
X026198Y009339D02*
X026254Y009339D01*
X026254Y009260D02*
X026198Y009260D01*
X026198Y009182D02*
X026254Y009182D01*
X026254Y009103D02*
X026198Y009103D01*
X026198Y009025D02*
X026254Y009025D01*
X026254Y008946D02*
X026198Y008946D01*
X026198Y008868D02*
X026254Y008868D01*
X026254Y008789D02*
X026198Y008789D01*
X026198Y008711D02*
X026254Y008711D01*
X026254Y008632D02*
X026198Y008632D01*
X026198Y008554D02*
X026254Y008554D01*
X026254Y008475D02*
X026198Y008475D01*
X026198Y008397D02*
X026254Y008397D01*
X026254Y008318D02*
X026198Y008318D01*
X026198Y008240D02*
X026254Y008240D01*
X026254Y008161D02*
X026198Y008161D01*
X026198Y008083D02*
X026254Y008083D01*
X026254Y008004D02*
X026198Y008004D01*
X026198Y007926D02*
X026254Y007926D01*
X026254Y007847D02*
X026198Y007847D01*
X026198Y007769D02*
X026254Y007769D01*
X026254Y007690D02*
X026198Y007690D01*
X026198Y007612D02*
X026254Y007612D01*
X026254Y007533D02*
X026198Y007533D01*
X026198Y007455D02*
X026254Y007455D01*
X026254Y007376D02*
X026198Y007376D01*
X026198Y007298D02*
X026254Y007298D01*
X026254Y007219D02*
X026198Y007219D01*
X022529Y009419D02*
X022431Y009322D01*
X021964Y009322D01*
X022529Y009419D02*
X022529Y010824D01*
X020809Y012544D01*
X018908Y012539D01*
X018908Y012544D01*
X018180Y012539D01*
X017987Y012345D01*
X017980Y012345D01*
X018155Y013027D02*
X018155Y013741D01*
X018149Y013748D01*
X018020Y013876D01*
X016156Y013876D01*
X016086Y013945D01*
X015816Y014216D01*
X015816Y015757D01*
X015818Y015753D01*
X015823Y015736D01*
X015822Y015723D01*
X015830Y015712D01*
X015834Y015699D01*
X015847Y015692D01*
X015858Y015679D01*
X015866Y015663D01*
X015867Y015649D01*
X015878Y015641D01*
X015885Y015629D01*
X015898Y015625D01*
X015911Y015613D01*
X015922Y015600D01*
X015926Y015587D01*
X015939Y015580D01*
X015947Y015570D01*
X015961Y015568D01*
X015977Y015560D01*
X015990Y015549D01*
X015997Y015537D01*
X016010Y015533D01*
X016021Y015524D01*
X016034Y015525D01*
X016051Y015520D01*
X016067Y015512D01*
X016075Y015501D01*
X016089Y015500D01*
X016101Y015493D01*
X016114Y015497D01*
X016132Y015496D01*
X016135Y015495D01*
X016141Y015488D01*
X016156Y015488D01*
X016186Y015479D01*
X016203Y015488D01*
X016207Y015488D01*
X016273Y015482D01*
X016280Y015488D01*
X018128Y015488D01*
X018128Y015379D01*
X018210Y015297D01*
X018846Y015297D01*
X018846Y015053D01*
X018842Y015048D01*
X018846Y014963D01*
X018846Y014877D01*
X018850Y014873D01*
X018853Y014812D01*
X018828Y014837D01*
X018358Y014837D01*
X018276Y014755D01*
X018276Y014740D01*
X018233Y014740D01*
X018233Y014758D01*
X018173Y014818D01*
X018233Y014878D01*
X018233Y015270D01*
X018151Y015352D01*
X017778Y015352D01*
X017775Y015355D01*
X017672Y015398D01*
X017560Y015398D01*
X017457Y015355D01*
X017379Y015277D01*
X017336Y015174D01*
X017336Y015062D01*
X017379Y014960D01*
X017457Y014881D01*
X017560Y014838D01*
X017639Y014838D01*
X017659Y014818D01*
X017599Y014758D01*
X017599Y014366D01*
X017681Y014284D01*
X018151Y014284D01*
X018233Y014366D01*
X018233Y014380D01*
X018276Y014380D01*
X018276Y014363D01*
X018358Y014281D01*
X018826Y014281D01*
X018826Y014037D01*
X018908Y013955D01*
X019296Y013955D01*
X019296Y013677D01*
X019358Y013615D01*
X019358Y013021D01*
X018193Y013026D01*
X018193Y013027D01*
X018155Y013027D01*
X018155Y013028D02*
X019358Y013028D01*
X019358Y013107D02*
X018155Y013107D01*
X018155Y013185D02*
X019358Y013185D01*
X019358Y013264D02*
X018155Y013264D01*
X018155Y013342D02*
X019358Y013342D01*
X019358Y013421D02*
X018155Y013421D01*
X018155Y013499D02*
X019358Y013499D01*
X019358Y013578D02*
X018155Y013578D01*
X018155Y013656D02*
X019317Y013656D01*
X019296Y013735D02*
X018155Y013735D01*
X018083Y013813D02*
X019296Y013813D01*
X019296Y013892D02*
X016140Y013892D01*
X016061Y013970D02*
X018893Y013970D01*
X018826Y014049D02*
X015983Y014049D01*
X015904Y014127D02*
X018826Y014127D01*
X018826Y014206D02*
X015826Y014206D01*
X015816Y014284D02*
X018355Y014284D01*
X018277Y014363D02*
X018229Y014363D01*
X017916Y014562D02*
X018590Y014557D01*
X018593Y014559D01*
X019069Y014515D01*
X019166Y014320D01*
X018852Y014834D02*
X018832Y014834D01*
X018846Y014912D02*
X018233Y014912D01*
X018233Y014991D02*
X018845Y014991D01*
X018846Y015069D02*
X018233Y015069D01*
X018233Y015148D02*
X018846Y015148D01*
X018846Y015226D02*
X018233Y015226D01*
X018202Y015305D02*
X018198Y015305D01*
X018128Y015383D02*
X017708Y015383D01*
X017524Y015383D02*
X015816Y015383D01*
X015816Y015305D02*
X017407Y015305D01*
X017358Y015226D02*
X015816Y015226D01*
X015816Y015148D02*
X017336Y015148D01*
X017336Y015069D02*
X015816Y015069D01*
X015816Y014991D02*
X017366Y014991D01*
X017426Y014912D02*
X015816Y014912D01*
X015816Y014834D02*
X017643Y014834D01*
X017599Y014755D02*
X015816Y014755D01*
X015816Y014677D02*
X017599Y014677D01*
X017599Y014598D02*
X015816Y014598D01*
X015816Y014520D02*
X017599Y014520D01*
X017599Y014441D02*
X015816Y014441D01*
X015816Y014363D02*
X017603Y014363D01*
X018233Y014755D02*
X018276Y014755D01*
X018355Y014834D02*
X018189Y014834D01*
X017916Y015074D02*
X017616Y015118D01*
X018128Y015462D02*
X015816Y015462D01*
X015816Y015540D02*
X015995Y015540D01*
X015905Y015619D02*
X015816Y015619D01*
X015816Y015697D02*
X015838Y015697D01*
X015966Y016875D02*
X020416Y016875D01*
X020416Y016953D02*
X015966Y016953D01*
X015966Y017032D02*
X020416Y017032D01*
X020416Y017110D02*
X015966Y017110D01*
X016002Y017346D02*
X017493Y017346D01*
X017460Y017424D02*
X016147Y017424D01*
X017575Y017259D02*
X017677Y017217D01*
X017788Y017217D01*
X017891Y017259D01*
X018736Y017424D02*
X018740Y017424D01*
X018866Y017768D02*
X018866Y018668D01*
X018861Y018717D01*
X018847Y018764D01*
X018824Y018807D01*
X018793Y018845D01*
X018755Y018876D01*
X018712Y018899D01*
X018665Y018913D01*
X018621Y018918D01*
X018621Y019511D01*
X018528Y019604D01*
X018159Y019604D01*
X018247Y019693D01*
X018247Y020377D01*
X018154Y020471D01*
X017866Y020471D01*
X017866Y020885D01*
X017875Y020986D01*
X017901Y021084D01*
X017944Y021177D01*
X018002Y021260D01*
X018074Y021332D01*
X018158Y021390D01*
X018250Y021433D01*
X018348Y021459D01*
X018449Y021468D01*
X020166Y021468D01*
X020215Y021463D01*
X020262Y021449D01*
X020305Y021426D01*
X020343Y021395D01*
X020374Y021357D01*
X020397Y021314D01*
X020411Y021267D01*
X020416Y021218D01*
X020416Y017968D01*
X020411Y017924D01*
X020396Y017881D01*
X020372Y017843D01*
X020341Y017812D01*
X020303Y017788D01*
X020260Y017773D01*
X020216Y017768D01*
X018866Y017768D01*
X018866Y017817D02*
X020346Y017817D01*
X020401Y017895D02*
X018866Y017895D01*
X018866Y017974D02*
X020416Y017974D01*
X020416Y018052D02*
X018866Y018052D01*
X018866Y018131D02*
X020416Y018131D01*
X020416Y018209D02*
X018866Y018209D01*
X018866Y018288D02*
X020416Y018288D01*
X020416Y018366D02*
X018866Y018366D01*
X018866Y018445D02*
X020416Y018445D01*
X020416Y018523D02*
X018866Y018523D01*
X018866Y018602D02*
X020416Y018602D01*
X020416Y018680D02*
X018865Y018680D01*
X018849Y018759D02*
X020416Y018759D01*
X020416Y018837D02*
X018799Y018837D01*
X018641Y018916D02*
X020416Y018916D01*
X020416Y018994D02*
X018621Y018994D01*
X018621Y019073D02*
X020416Y019073D01*
X020416Y019151D02*
X018621Y019151D01*
X018621Y019230D02*
X020416Y019230D01*
X020416Y019308D02*
X018621Y019308D01*
X018621Y019387D02*
X020416Y019387D01*
X020416Y019465D02*
X018621Y019465D01*
X018588Y019544D02*
X020416Y019544D01*
X020416Y019622D02*
X018176Y019622D01*
X018247Y019701D02*
X020416Y019701D01*
X020416Y019779D02*
X018247Y019779D01*
X018247Y019858D02*
X020416Y019858D01*
X020416Y019936D02*
X018247Y019936D01*
X018247Y020015D02*
X020416Y020015D01*
X020416Y020093D02*
X018247Y020093D01*
X018247Y020172D02*
X020416Y020172D01*
X020416Y020250D02*
X018247Y020250D01*
X018247Y020329D02*
X020416Y020329D01*
X020416Y020407D02*
X018217Y020407D01*
X017866Y020486D02*
X020416Y020486D01*
X020416Y020564D02*
X017866Y020564D01*
X017866Y020643D02*
X020416Y020643D01*
X020416Y020721D02*
X017866Y020721D01*
X017866Y020800D02*
X020416Y020800D01*
X020416Y020878D02*
X017866Y020878D01*
X017872Y020957D02*
X020416Y020957D01*
X020416Y021035D02*
X017888Y021035D01*
X017915Y021114D02*
X020416Y021114D01*
X020416Y021192D02*
X017955Y021192D01*
X018013Y021271D02*
X020410Y021271D01*
X020378Y021349D02*
X018099Y021349D01*
X018238Y021428D02*
X020302Y021428D01*
X020417Y021593D02*
X020408Y021600D01*
X020399Y021616D01*
X020382Y021622D01*
X020368Y021633D01*
X020350Y021631D01*
X020339Y021635D01*
X020328Y021640D01*
X020317Y021654D01*
X020299Y021656D01*
X020283Y021665D01*
X020266Y021659D01*
X020257Y021660D01*
X020249Y021668D01*
X020229Y021668D01*
X020194Y021679D01*
X020174Y021668D01*
X020103Y021675D01*
X020094Y021668D01*
X018522Y021668D01*
X018514Y021675D01*
X018440Y021668D01*
X018386Y021668D01*
X018376Y021674D01*
X018313Y021657D01*
X018272Y021653D01*
X018475Y021856D01*
X018854Y021856D01*
X018926Y021928D01*
X019086Y021928D01*
X019086Y021901D01*
X019168Y021819D01*
X020229Y021819D01*
X020311Y021901D01*
X020311Y021927D01*
X020323Y021928D01*
X020414Y021928D01*
X020429Y021935D01*
X020446Y021936D01*
X020528Y021975D01*
X020612Y022010D01*
X020624Y022022D01*
X020639Y022030D01*
X020700Y022098D01*
X020764Y022162D01*
X020770Y022178D01*
X020782Y022191D01*
X020811Y022277D01*
X020818Y022293D01*
X020818Y022000D01*
X020762Y021977D01*
X020532Y021977D01*
X020662Y022056D02*
X020818Y022056D01*
X020818Y022134D02*
X020736Y022134D01*
X020789Y022213D02*
X020818Y022213D01*
X020817Y022291D02*
X020818Y022291D01*
X020762Y021977D02*
X020683Y021898D01*
X020640Y021795D01*
X020640Y021684D01*
X020683Y021581D01*
X020762Y021502D01*
X020865Y021460D01*
X020976Y021460D01*
X021079Y021502D01*
X021080Y021504D01*
X021430Y021509D01*
X021430Y021422D01*
X021541Y021311D01*
X022146Y021311D01*
X022146Y021114D01*
X022228Y021032D01*
X022717Y021032D01*
X022949Y020801D01*
X023555Y020801D01*
X023554Y020617D01*
X023544Y020605D01*
X023553Y020520D01*
X023552Y020434D01*
X023562Y020423D01*
X023564Y020409D01*
X023630Y020354D01*
X023690Y020293D01*
X023705Y020293D01*
X023731Y020271D01*
X023631Y020313D01*
X023450Y020313D01*
X023282Y020244D01*
X023154Y020116D01*
X023140Y020080D01*
X022014Y020080D01*
X021995Y020085D01*
X021947Y020080D01*
X021899Y020080D01*
X021896Y020079D01*
X021885Y020079D01*
X021857Y020070D01*
X021828Y020067D01*
X021805Y020054D01*
X021778Y020049D01*
X021754Y020034D01*
X021726Y020024D01*
X021706Y020006D01*
X021682Y019996D01*
X021661Y019975D01*
X021637Y019960D01*
X021621Y019938D01*
X021599Y019923D01*
X021584Y019898D01*
X021563Y019877D01*
X021553Y019853D01*
X021535Y019833D01*
X021525Y019805D01*
X021510Y019781D01*
X021505Y019754D01*
X021493Y019731D01*
X021489Y019702D01*
X021480Y019675D01*
X021480Y019663D01*
X021479Y019660D01*
X021479Y019612D01*
X021476Y019584D01*
X020923Y019584D01*
X020841Y019502D01*
X020841Y018442D01*
X020899Y018383D01*
X020823Y018308D01*
X020823Y017800D01*
X020621Y018002D01*
X020624Y018028D01*
X020616Y018038D01*
X020616Y021147D01*
X020623Y021155D01*
X020616Y021226D01*
X020627Y021246D01*
X020616Y021281D01*
X020616Y021301D01*
X020608Y021309D01*
X020607Y021318D01*
X020612Y021335D01*
X020604Y021351D01*
X020602Y021369D01*
X020588Y021380D01*
X020583Y021391D01*
X020579Y021402D01*
X020581Y021420D01*
X020570Y021434D01*
X020564Y021451D01*
X020548Y021460D01*
X020541Y021469D01*
X020535Y021479D01*
X020534Y021497D01*
X020520Y021508D01*
X020511Y021524D01*
X020494Y021530D01*
X020485Y021537D01*
X020477Y021546D01*
X020472Y021563D01*
X020456Y021572D01*
X020445Y021586D01*
X020427Y021588D01*
X020417Y021593D01*
X020446Y021585D02*
X020681Y021585D01*
X020649Y021663D02*
X020285Y021663D01*
X020278Y021663D02*
X020254Y021663D01*
X020230Y021820D02*
X020651Y021820D01*
X020640Y021742D02*
X018361Y021742D01*
X018336Y021663D02*
X018282Y021663D01*
X018439Y021820D02*
X019166Y021820D01*
X019088Y021899D02*
X018897Y021899D01*
X020309Y021899D02*
X020683Y021899D01*
X020758Y021506D02*
X020522Y021506D01*
X020575Y021428D02*
X021430Y021428D01*
X021430Y021506D02*
X021250Y021506D01*
X021502Y021349D02*
X020605Y021349D01*
X020619Y021271D02*
X022146Y021271D01*
X022146Y021192D02*
X020620Y021192D01*
X020616Y021114D02*
X022147Y021114D01*
X022225Y021035D02*
X020616Y021035D01*
X020616Y020957D02*
X022793Y020957D01*
X022871Y020878D02*
X020616Y020878D01*
X020616Y020800D02*
X023555Y020800D01*
X023555Y020721D02*
X020616Y020721D01*
X020616Y020643D02*
X023554Y020643D01*
X023548Y020564D02*
X020616Y020564D01*
X020616Y020486D02*
X023552Y020486D01*
X023565Y020407D02*
X020616Y020407D01*
X020616Y020329D02*
X023655Y020329D01*
X023298Y020250D02*
X020616Y020250D01*
X020616Y020172D02*
X023210Y020172D01*
X023145Y020093D02*
X020616Y020093D01*
X020616Y020015D02*
X021716Y020015D01*
X021618Y019936D02*
X020616Y019936D01*
X020616Y019858D02*
X021555Y019858D01*
X021510Y019779D02*
X020616Y019779D01*
X020616Y019701D02*
X021489Y019701D01*
X021479Y019622D02*
X020616Y019622D01*
X020616Y019544D02*
X020882Y019544D01*
X020841Y019465D02*
X020616Y019465D01*
X020616Y019387D02*
X020841Y019387D01*
X020841Y019308D02*
X020616Y019308D01*
X020616Y019230D02*
X020841Y019230D01*
X020841Y019151D02*
X020616Y019151D01*
X020616Y019073D02*
X020841Y019073D01*
X020841Y018994D02*
X020616Y018994D01*
X020616Y018916D02*
X020841Y018916D01*
X020841Y018837D02*
X020616Y018837D01*
X020616Y018759D02*
X020841Y018759D01*
X020841Y018680D02*
X020616Y018680D01*
X020616Y018602D02*
X020841Y018602D01*
X020841Y018523D02*
X020616Y018523D01*
X020616Y018445D02*
X020841Y018445D01*
X020882Y018366D02*
X020616Y018366D01*
X020616Y018288D02*
X020823Y018288D01*
X020823Y018209D02*
X020616Y018209D01*
X020616Y018131D02*
X020823Y018131D01*
X020823Y018052D02*
X020616Y018052D01*
X020650Y017974D02*
X020823Y017974D01*
X020823Y017895D02*
X020728Y017895D01*
X020807Y017817D02*
X020823Y017817D01*
X020307Y017424D02*
X020237Y017424D01*
X020956Y016482D02*
X022382Y016482D01*
X022377Y016491D02*
X022393Y016461D01*
X022412Y016445D01*
X022418Y016434D01*
X022418Y011238D01*
X022369Y011238D01*
X020988Y012619D01*
X020936Y012671D01*
X020883Y012724D01*
X020883Y012724D01*
X020883Y012724D01*
X020809Y012724D01*
X020734Y012724D01*
X020734Y012724D01*
X019777Y012721D01*
X019795Y012740D01*
X019795Y013615D01*
X019797Y013616D01*
X019797Y013799D01*
X019736Y013859D01*
X019736Y014716D01*
X019737Y014755D01*
X019774Y014755D01*
X019843Y014824D01*
X020072Y014494D01*
X020072Y014471D01*
X020122Y014421D01*
X020163Y014362D01*
X020185Y014358D01*
X020201Y014343D01*
X020208Y014343D01*
X020282Y014269D01*
X020752Y014269D01*
X020776Y014293D01*
X020776Y013820D01*
X020736Y013724D01*
X020736Y013612D01*
X020779Y013510D01*
X020857Y013431D01*
X020868Y013426D01*
X020728Y013286D01*
X020676Y013161D01*
X020676Y013025D01*
X020728Y012901D01*
X020823Y012805D01*
X020948Y012753D01*
X021084Y012753D01*
X021209Y012805D01*
X021918Y013514D01*
X021970Y013639D01*
X021970Y013774D01*
X021918Y013899D01*
X021822Y013995D01*
X021697Y014047D01*
X021562Y014047D01*
X021437Y013995D01*
X021258Y013816D01*
X021256Y013820D01*
X021256Y014713D01*
X021219Y014801D01*
X020945Y015076D01*
X020925Y015101D01*
X020911Y015109D01*
X020900Y015120D01*
X020884Y015127D01*
X020894Y015140D01*
X020919Y015165D01*
X020924Y015177D01*
X020932Y015186D01*
X020942Y015221D01*
X020956Y015254D01*
X020956Y015266D01*
X020960Y015278D01*
X020956Y015313D01*
X020945Y015226D02*
X022418Y015226D01*
X022418Y015148D02*
X020902Y015148D01*
X020952Y015069D02*
X022418Y015069D01*
X022418Y014991D02*
X021030Y014991D01*
X021109Y014912D02*
X022418Y014912D01*
X022418Y014834D02*
X021187Y014834D01*
X021239Y014755D02*
X022418Y014755D01*
X022418Y014677D02*
X021256Y014677D01*
X021256Y014598D02*
X022418Y014598D01*
X022418Y014520D02*
X021256Y014520D01*
X021256Y014441D02*
X022418Y014441D01*
X022418Y014363D02*
X021256Y014363D01*
X021256Y014284D02*
X022418Y014284D01*
X022418Y014206D02*
X021256Y014206D01*
X021256Y014127D02*
X022418Y014127D01*
X022418Y014049D02*
X021256Y014049D01*
X021256Y013970D02*
X021412Y013970D01*
X021334Y013892D02*
X021256Y013892D01*
X020776Y013892D02*
X019736Y013892D01*
X019736Y013970D02*
X020776Y013970D01*
X020776Y014049D02*
X019736Y014049D01*
X019736Y014127D02*
X020776Y014127D01*
X020776Y014206D02*
X019736Y014206D01*
X019736Y014284D02*
X020267Y014284D01*
X020163Y014363D02*
X019736Y014363D01*
X019736Y014441D02*
X020102Y014441D01*
X020054Y014520D02*
X019736Y014520D01*
X019736Y014598D02*
X020000Y014598D01*
X019945Y014677D02*
X019736Y014677D01*
X019774Y014755D02*
X019891Y014755D01*
X019782Y013813D02*
X020773Y013813D01*
X020740Y013735D02*
X019797Y013735D01*
X019797Y013656D02*
X020736Y013656D01*
X020750Y013578D02*
X019795Y013578D01*
X019795Y013499D02*
X020789Y013499D01*
X020863Y013421D02*
X019795Y013421D01*
X019795Y013342D02*
X020784Y013342D01*
X020719Y013264D02*
X019795Y013264D01*
X019795Y013185D02*
X020686Y013185D01*
X020676Y013107D02*
X019795Y013107D01*
X019795Y013028D02*
X020676Y013028D01*
X020707Y012950D02*
X019795Y012950D01*
X019795Y012871D02*
X020757Y012871D01*
X020853Y012793D02*
X019795Y012793D01*
X020380Y012310D02*
X020402Y012277D01*
X020404Y012144D01*
X020404Y011698D01*
X020390Y011684D01*
X021128Y012479D02*
X022418Y012479D01*
X022418Y012557D02*
X021050Y012557D01*
X020988Y012619D02*
X020988Y012619D01*
X020972Y012636D02*
X022418Y012636D01*
X022418Y012714D02*
X020893Y012714D01*
X021179Y012793D02*
X022418Y012793D01*
X022418Y012871D02*
X021275Y012871D01*
X021353Y012950D02*
X022418Y012950D01*
X022418Y013028D02*
X021432Y013028D01*
X021510Y013107D02*
X022418Y013107D01*
X022418Y013185D02*
X021589Y013185D01*
X021667Y013264D02*
X022418Y013264D01*
X022418Y013342D02*
X021746Y013342D01*
X021824Y013421D02*
X022418Y013421D01*
X022418Y013499D02*
X021903Y013499D01*
X021944Y013578D02*
X022418Y013578D01*
X022418Y013656D02*
X021970Y013656D01*
X021970Y013735D02*
X022418Y013735D01*
X022418Y013813D02*
X021953Y013813D01*
X021921Y013892D02*
X022418Y013892D01*
X022418Y013970D02*
X021847Y013970D01*
X020776Y014284D02*
X020768Y014284D01*
X020956Y015776D02*
X022418Y015776D01*
X022418Y015854D02*
X020956Y015854D01*
X020956Y015933D02*
X022418Y015933D01*
X022418Y016011D02*
X020956Y016011D01*
X020956Y016090D02*
X022418Y016090D01*
X022418Y016168D02*
X020956Y016168D01*
X020956Y016247D02*
X022418Y016247D01*
X022418Y016325D02*
X020956Y016325D01*
X020956Y016404D02*
X022418Y016404D01*
X022377Y016491D02*
X022355Y016517D01*
X022348Y016541D01*
X022332Y016561D01*
X022279Y017267D02*
X022109Y017267D01*
X022183Y017346D02*
X022279Y017346D01*
X022279Y018306D02*
X022183Y018304D01*
X022183Y018308D01*
X022101Y018390D01*
X022014Y018390D01*
X022066Y018442D01*
X022066Y018981D01*
X022279Y018981D01*
X022279Y018306D01*
X022279Y018366D02*
X022125Y018366D01*
X022066Y018445D02*
X022279Y018445D01*
X022279Y018523D02*
X022066Y018523D01*
X022066Y018602D02*
X022279Y018602D01*
X022279Y018680D02*
X022066Y018680D01*
X022066Y018759D02*
X022279Y018759D01*
X022279Y018837D02*
X022066Y018837D01*
X022066Y018916D02*
X022279Y018916D01*
X024806Y016796D02*
X024821Y016796D01*
X022418Y012400D02*
X021207Y012400D01*
X021285Y012322D02*
X022418Y012322D01*
X022418Y012243D02*
X021364Y012243D01*
X021442Y012165D02*
X022418Y012165D01*
X022418Y012086D02*
X021521Y012086D01*
X021599Y012008D02*
X022418Y012008D01*
X022418Y011929D02*
X021678Y011929D01*
X021756Y011851D02*
X022418Y011851D01*
X022418Y011772D02*
X021835Y011772D01*
X021913Y011694D02*
X022418Y011694D01*
X022418Y011615D02*
X021992Y011615D01*
X022070Y011537D02*
X022418Y011537D01*
X022418Y011458D02*
X022149Y011458D01*
X022227Y011380D02*
X022418Y011380D01*
X022418Y011301D02*
X022306Y011301D01*
X017717Y013421D02*
X016170Y013421D01*
X016829Y012269D02*
X016846Y012251D01*
X016846Y011684D01*
X017240Y011684D02*
X017240Y012257D01*
X017229Y012269D01*
X013272Y010909D02*
X012477Y010909D01*
X012464Y010830D02*
X013272Y010830D01*
X013272Y010752D02*
X012428Y010752D01*
X012339Y010673D02*
X013272Y010673D01*
X013272Y010595D02*
X011993Y010595D01*
X011993Y010673D02*
X012058Y010673D01*
X011993Y010516D02*
X013272Y010516D01*
X013272Y010438D02*
X011993Y010438D01*
X011993Y010359D02*
X013272Y010359D01*
X013272Y010281D02*
X011993Y010281D01*
X011924Y010202D02*
X013272Y010202D01*
X013272Y010124D02*
X011398Y010124D01*
X011412Y010202D02*
X011507Y010202D01*
X010959Y010202D02*
X010088Y010202D01*
X010150Y010281D02*
X010010Y010281D01*
X009931Y010359D02*
X010089Y010359D01*
X010059Y010438D02*
X009853Y010438D01*
X009774Y010516D02*
X010059Y010516D01*
X010081Y010595D02*
X009696Y010595D01*
X009617Y010673D02*
X010130Y010673D01*
X010248Y010752D02*
X009539Y010752D01*
X009460Y010830D02*
X011519Y010830D01*
X011518Y010909D02*
X009382Y010909D01*
X010167Y010124D02*
X010958Y010124D01*
X010915Y010045D02*
X010245Y010045D01*
X010324Y009967D02*
X010898Y009967D01*
X010898Y009888D02*
X010402Y009888D01*
X010481Y009810D02*
X010898Y009810D01*
X010898Y009731D02*
X010559Y009731D01*
X010638Y009653D02*
X010898Y009653D01*
X010898Y009574D02*
X010716Y009574D01*
X010759Y009496D02*
X010961Y009496D01*
X010579Y009457D02*
X010579Y004869D01*
X010679Y004769D01*
X010999Y004769D01*
X010769Y004550D02*
X003306Y004550D01*
X003306Y004472D02*
X010814Y004472D01*
X010763Y004393D02*
X003306Y004393D01*
X003306Y004315D02*
X008120Y004315D01*
X008041Y004236D02*
X003306Y004236D01*
X003306Y004158D02*
X007963Y004158D01*
X007884Y004079D02*
X003306Y004079D01*
X003306Y004001D02*
X007806Y004001D01*
X007727Y003922D02*
X003306Y003922D01*
X003306Y003844D02*
X007649Y003844D01*
X007570Y003765D02*
X003306Y003765D01*
X003306Y003687D02*
X007492Y003687D01*
X007413Y003608D02*
X003306Y003608D01*
X003306Y003530D02*
X007335Y003530D01*
X007256Y003451D02*
X003306Y003451D01*
X003306Y003373D02*
X007178Y003373D01*
X007099Y003294D02*
X003306Y003294D01*
X003306Y003216D02*
X007021Y003216D01*
X006942Y003137D02*
X003306Y003137D01*
X003306Y003059D02*
X006864Y003059D01*
X006785Y002980D02*
X003306Y002980D01*
X003306Y002902D02*
X006707Y002902D01*
X006628Y002823D02*
X003306Y002823D01*
X003306Y002745D02*
X006550Y002745D01*
X006471Y002666D02*
X003306Y002666D01*
X003306Y002588D02*
X006251Y002588D01*
X006184Y002509D02*
X003306Y002509D01*
X003306Y002431D02*
X006151Y002431D01*
X006149Y002352D02*
X003311Y002352D01*
X003315Y002274D02*
X006165Y002274D01*
X006190Y002108D02*
X006304Y002108D01*
X006304Y002117D01*
X006120Y002038D02*
X003362Y002038D01*
X003380Y001960D02*
X006108Y001960D01*
X006108Y001881D02*
X003398Y001881D01*
X003423Y001803D02*
X006108Y001803D01*
X006108Y001724D02*
X003461Y001724D01*
X003499Y001646D02*
X006108Y001646D01*
X006108Y001567D02*
X003536Y001567D01*
X003574Y001489D02*
X006108Y001489D01*
X006108Y001410D02*
X003629Y001410D01*
X003692Y001332D02*
X006108Y001332D01*
X006108Y001253D02*
X003754Y001253D01*
X003817Y001175D02*
X006108Y001175D01*
X006108Y001096D02*
X003901Y001096D01*
X003306Y004629D02*
X010564Y004629D01*
X010486Y004707D02*
X003306Y004707D01*
X003306Y004786D02*
X010407Y004786D01*
X010399Y004864D02*
X003306Y004864D01*
X003306Y004943D02*
X010399Y004943D01*
X010399Y005021D02*
X003306Y005021D01*
X003306Y005100D02*
X010399Y005100D01*
X010399Y005178D02*
X003306Y005178D01*
X003306Y005257D02*
X010399Y005257D01*
X010399Y005335D02*
X003306Y005335D01*
X003306Y005414D02*
X010399Y005414D01*
X010399Y005492D02*
X003306Y005492D01*
X003306Y005571D02*
X010399Y005571D01*
X010399Y005649D02*
X003306Y005649D01*
X003306Y005728D02*
X010399Y005728D01*
X010399Y005806D02*
X003306Y005806D01*
X003306Y005885D02*
X010399Y005885D01*
X010399Y005963D02*
X003306Y005963D01*
X003306Y006042D02*
X010399Y006042D01*
X010399Y006120D02*
X003306Y006120D01*
X003306Y006199D02*
X010399Y006199D01*
X010399Y006277D02*
X003306Y006277D01*
X003306Y006356D02*
X010399Y006356D01*
X010399Y006434D02*
X003306Y006434D01*
X003306Y006513D02*
X010399Y006513D01*
X010399Y006591D02*
X003306Y006591D01*
X008244Y004185D02*
X011040Y004185D01*
X011552Y004185D02*
X012009Y004597D01*
X012516Y004597D01*
X012516Y004204D02*
X012203Y004204D01*
X011552Y003597D01*
X011830Y003608D02*
X012009Y003608D01*
X011996Y003687D02*
X011912Y003687D01*
X011342Y003294D02*
X011251Y003294D01*
X010789Y005021D02*
X010759Y005021D01*
X013612Y002745D02*
X013892Y002745D01*
X013820Y002666D02*
X013612Y002666D01*
X013612Y002588D02*
X013820Y002588D01*
X013820Y002509D02*
X013612Y002509D01*
X013612Y002431D02*
X013820Y002431D01*
X013820Y002352D02*
X013612Y002352D01*
X013612Y002274D02*
X013820Y002274D01*
X013820Y002195D02*
X013612Y002195D01*
X013612Y002117D02*
X013820Y002117D01*
X013820Y002038D02*
X013612Y002038D01*
X013612Y001960D02*
X013820Y001960D01*
X013820Y001881D02*
X013612Y001881D01*
X013612Y001803D02*
X013820Y001803D01*
X013893Y001724D02*
X013612Y001724D01*
X013734Y001646D02*
X013782Y001646D01*
X013803Y001175D02*
X013713Y001175D01*
X017831Y001724D02*
X018618Y001724D01*
X018545Y001803D02*
X017904Y001803D01*
X017904Y001881D02*
X018545Y001881D01*
X018545Y001960D02*
X017904Y001960D01*
X017904Y002038D02*
X018545Y002038D01*
X018545Y002117D02*
X017904Y002117D01*
X017904Y002195D02*
X018545Y002195D01*
X018545Y002274D02*
X017904Y002274D01*
X017904Y002352D02*
X018545Y002352D01*
X018545Y002431D02*
X017904Y002431D01*
X017904Y002509D02*
X018545Y002509D01*
X018545Y002588D02*
X017904Y002588D01*
X017904Y002666D02*
X018545Y002666D01*
X010926Y010281D02*
X010527Y010281D01*
X010429Y010752D02*
X010936Y010752D01*
X010626Y019544D02*
X010588Y019544D01*
X013185Y020622D02*
X013171Y020669D01*
X013166Y020718D01*
X013166Y023218D01*
X013171Y023267D01*
X013185Y023314D01*
X013208Y023357D01*
X013239Y023395D01*
X013277Y023426D01*
X013320Y023449D01*
X013367Y023463D01*
X013416Y023468D01*
X015666Y023468D01*
X015715Y023463D01*
X015762Y023449D01*
X015805Y023426D01*
X015843Y023395D01*
X015874Y023357D01*
X015897Y023314D01*
X015911Y023267D01*
X015916Y023218D01*
X015916Y021968D01*
X015911Y021919D01*
X015897Y021872D01*
X015874Y021829D01*
X015843Y021791D01*
X015805Y021760D01*
X015762Y021737D01*
X015715Y021723D01*
X015666Y021718D01*
X015416Y021718D01*
X015367Y021713D01*
X015320Y021699D01*
X015277Y021676D01*
X015239Y021645D01*
X015208Y021607D01*
X015185Y021564D01*
X015171Y021517D01*
X015166Y021468D01*
X015166Y020718D01*
X015161Y020669D01*
X015147Y020622D01*
X015124Y020579D01*
X015093Y020541D01*
X015055Y020510D01*
X015012Y020487D01*
X014990Y020481D01*
X013342Y020481D01*
X013320Y020487D01*
X013277Y020510D01*
X013239Y020541D01*
X013208Y020579D01*
X013185Y020622D01*
X013179Y020643D02*
X015153Y020643D01*
X015166Y020721D02*
X013166Y020721D01*
X013166Y020800D02*
X015166Y020800D01*
X015166Y020878D02*
X013166Y020878D01*
X013166Y020957D02*
X015166Y020957D01*
X015166Y021035D02*
X013166Y021035D01*
X013166Y021114D02*
X015166Y021114D01*
X015166Y021192D02*
X013166Y021192D01*
X013166Y021271D02*
X015166Y021271D01*
X015166Y021349D02*
X013166Y021349D01*
X013166Y021428D02*
X015166Y021428D01*
X015170Y021506D02*
X013166Y021506D01*
X013166Y021585D02*
X015196Y021585D01*
X015262Y021663D02*
X013166Y021663D01*
X013166Y021742D02*
X015770Y021742D01*
X015866Y021820D02*
X013166Y021820D01*
X013166Y021899D02*
X015905Y021899D01*
X015916Y021977D02*
X013166Y021977D01*
X013166Y022056D02*
X015916Y022056D01*
X015916Y022134D02*
X013166Y022134D01*
X013166Y022213D02*
X015916Y022213D01*
X015916Y022291D02*
X013166Y022291D01*
X013166Y022370D02*
X015916Y022370D01*
X015916Y022448D02*
X013166Y022448D01*
X013166Y022527D02*
X015916Y022527D01*
X015916Y022605D02*
X013166Y022605D01*
X013166Y022684D02*
X015916Y022684D01*
X015916Y022762D02*
X013166Y022762D01*
X013166Y022841D02*
X015916Y022841D01*
X015916Y022919D02*
X013166Y022919D01*
X013166Y022998D02*
X015916Y022998D01*
X015916Y023076D02*
X013166Y023076D01*
X013166Y023155D02*
X015916Y023155D01*
X015915Y023233D02*
X013167Y023233D01*
X013184Y023312D02*
X015898Y023312D01*
X015847Y023390D02*
X013235Y023390D01*
X015358Y021506D02*
X015807Y021506D01*
X015879Y021585D02*
X015944Y021585D01*
X015717Y021428D02*
X015346Y021428D01*
X015346Y021349D02*
X015650Y021349D01*
X015597Y021271D02*
X015346Y021271D01*
X015346Y021192D02*
X015553Y021192D01*
X015524Y021114D02*
X015346Y021114D01*
X015346Y021035D02*
X015500Y021035D01*
X015486Y020957D02*
X015346Y020957D01*
X015346Y020878D02*
X015486Y020878D01*
X015485Y020800D02*
X015346Y020800D01*
X015347Y020721D02*
X015486Y020721D01*
X015486Y020643D02*
X015345Y020643D01*
X015320Y020564D02*
X015486Y020564D01*
X015486Y020486D02*
X015280Y020486D01*
X015112Y020564D02*
X013220Y020564D01*
X013325Y020486D02*
X015007Y020486D01*
X016018Y023469D02*
X024965Y023469D01*
X024591Y023547D02*
X015956Y023547D01*
X020477Y022998D02*
X020854Y022998D01*
X020818Y022919D02*
X020619Y022919D01*
X020713Y022841D02*
X020818Y022841D01*
X020818Y022762D02*
X020769Y022762D01*
X020802Y022684D02*
X020818Y022684D01*
D50*
X021768Y020448D03*
X021768Y020055D03*
X021375Y019051D03*
X022753Y019464D03*
X025373Y017533D03*
X021653Y013707D03*
X021016Y013093D03*
X017733Y017496D03*
X017930Y019130D03*
X015961Y017633D03*
X015351Y020035D03*
X012733Y017633D03*
X011394Y017555D03*
X010686Y017437D03*
X009308Y017476D03*
X009170Y017830D03*
X008363Y016767D03*
X007575Y016767D03*
X006105Y017515D03*
X005755Y017656D03*
X005150Y017136D03*
X004642Y016708D03*
X004938Y017791D03*
X004938Y018185D03*
X004935Y018872D03*
X004935Y019649D03*
X006093Y019500D03*
X006209Y018393D03*
X006093Y020856D03*
X006050Y021444D03*
X006907Y020939D03*
X004935Y020840D03*
X006010Y022923D03*
X006010Y023519D03*
X009229Y016177D03*
X010115Y016039D03*
X009859Y014963D03*
X010351Y013263D03*
X011099Y012870D03*
X010831Y012141D03*
X010520Y012205D03*
X010338Y011806D03*
X009859Y010803D03*
X010338Y010487D03*
X009012Y011480D03*
X007595Y012968D03*
X007005Y013165D03*
X006611Y013165D03*
X006611Y012771D03*
X005430Y012870D03*
X004770Y012572D03*
X005084Y013796D03*
X005694Y013836D03*
X006010Y014107D03*
X005150Y014918D03*
X005513Y015426D03*
X006413Y015350D03*
X007597Y014546D03*
X007713Y014031D03*
X008024Y014165D03*
X007068Y014176D03*
X007993Y015153D03*
X012182Y012968D03*
X012634Y013303D03*
X012198Y010917D03*
X011237Y009130D03*
X019603Y007752D03*
X019603Y007259D03*
X019603Y006767D03*
X021394Y005519D03*
X021965Y006374D03*
X022359Y006374D03*
X022359Y007358D03*
X022359Y007752D03*
X022359Y008244D03*
X022359Y008637D03*
X023343Y005488D03*
X023343Y005094D03*
X023737Y005094D03*
X024131Y005094D03*
X024131Y005488D03*
X023737Y005488D03*
X024524Y005488D03*
X024524Y005094D03*
X024918Y005094D03*
X024918Y005488D03*
X025312Y005488D03*
X025312Y005094D03*
X023343Y004504D03*
X022949Y004504D03*
X022753Y003618D03*
X025985Y022361D03*
D51*
X022108Y021757D02*
X021866Y021754D01*
X021867Y021728D01*
X021867Y021689D01*
X020764Y019169D02*
X020764Y019090D01*
X020766Y019068D01*
X019488Y017937D02*
X018875Y017791D01*
X017930Y019130D02*
X017910Y019149D01*
X017890Y020035D02*
X015764Y020035D01*
X015745Y020055D01*
X015804Y020114D01*
X015804Y020311D01*
X013205Y020311D01*
X012969Y020547D01*
X012969Y020744D01*
X011631Y020744D01*
X011552Y020665D01*
X011552Y019287D01*
X011060Y019287D01*
X010863Y019267D01*
X010863Y018756D02*
X011060Y018775D01*
X011709Y018775D01*
X011709Y019563D01*
X012260Y020114D01*
X012260Y020124D01*
X012260Y020153D01*
X014898Y020153D01*
X014898Y019208D01*
X015686Y018421D01*
X015686Y018381D01*
X015783Y018285D01*
X014820Y018657D02*
X014780Y018657D01*
X014780Y019051D01*
X014229Y019051D01*
X013757Y019523D01*
X014072Y019917D02*
X012969Y019917D01*
X012969Y019287D01*
X012221Y018519D01*
X010646Y018519D01*
X010646Y017988D02*
X010449Y017791D01*
X010366Y017712D01*
X009701Y019267D02*
X009701Y019287D01*
X009544Y019444D01*
X009544Y020862D01*
X010095Y021413D01*
X011197Y021413D01*
X011355Y021570D01*
X011355Y021689D01*
X012260Y022594D01*
X012260Y022624D01*
X014898Y020153D02*
X015213Y020153D01*
X015331Y020035D01*
X015351Y020035D01*
X015745Y020055D02*
X015213Y019523D01*
X015194Y019523D01*
X014446Y019523D02*
X014426Y019523D01*
X014426Y019563D01*
X014072Y019917D01*
X013363Y019130D02*
X013363Y018657D01*
X013383Y018657D01*
X013363Y019130D02*
X013205Y019287D01*
X014505Y018342D02*
X014505Y017427D01*
X014505Y018342D02*
X014820Y018657D01*
X016400Y020968D02*
X016434Y020980D01*
X014505Y015818D02*
X014505Y014927D01*
X015916Y013691D02*
X015922Y013696D01*
X015961Y013657D01*
X013443Y011308D02*
X013442Y011137D01*
X013442Y001452D01*
X013446Y001420D01*
X013481Y001413D01*
X014032Y001413D01*
X014070Y001420D01*
X014072Y001452D01*
X014693Y001467D02*
X014701Y001492D01*
X015174Y001492D01*
X015193Y001467D01*
X015213Y001452D01*
X015213Y000980D01*
X015205Y000968D01*
X015174Y000980D01*
X014741Y000980D01*
X014705Y000968D01*
X015213Y000980D02*
X015686Y000980D01*
X015705Y000968D01*
X015725Y000980D01*
X016197Y000980D01*
X016205Y000968D01*
X016237Y000980D01*
X016670Y000980D01*
X016705Y000968D01*
X016709Y000980D01*
X016709Y001452D01*
X016693Y001467D01*
X016670Y001492D01*
X016197Y001492D01*
X016193Y001467D01*
X015725Y001452D02*
X015693Y001467D01*
X015725Y001452D02*
X015725Y000980D01*
X022619Y000968D02*
X022654Y000980D01*
X023087Y000980D01*
X023119Y000968D01*
X023127Y000980D01*
X023560Y000980D01*
X023579Y000969D01*
X023599Y000980D01*
X023599Y001452D01*
X023579Y001469D01*
X023599Y001492D01*
X024072Y001492D01*
X024079Y001469D01*
X024111Y001492D01*
X024544Y001492D01*
X024579Y001469D01*
X024583Y001492D01*
X025056Y001492D01*
X025079Y001469D01*
X025095Y001452D01*
X025095Y000980D01*
X025079Y000969D01*
X024583Y000980D02*
X024583Y001452D01*
X024579Y001469D01*
X024579Y001953D02*
X024583Y001964D01*
X024583Y002437D01*
X024579Y002453D01*
X024583Y002476D01*
X025056Y002476D01*
X025079Y002453D01*
X025095Y002437D01*
X025095Y001964D01*
X025079Y001953D01*
X024579Y001953D02*
X024544Y001964D01*
X024111Y001964D01*
X024079Y001953D01*
X023599Y001964D02*
X023599Y002437D01*
X023579Y002453D01*
X023599Y002476D01*
X024072Y002476D01*
X024079Y002453D01*
X024111Y002476D01*
X024544Y002476D01*
X024579Y002453D01*
X023579Y002453D02*
X023560Y002476D01*
X023127Y002476D01*
X023106Y002452D01*
X023087Y002476D01*
X022615Y002476D01*
X022606Y002452D01*
X022654Y001964D02*
X022619Y001952D01*
X022654Y001964D02*
X023087Y001964D01*
X023119Y001952D01*
X023127Y001964D01*
X023560Y001964D01*
X023579Y001953D01*
X023599Y001964D01*
X023560Y001492D02*
X023127Y001492D01*
X023106Y001467D01*
X023087Y001492D01*
X022615Y001492D01*
X022606Y001467D01*
X023560Y001492D02*
X023579Y001469D01*
X024079Y000969D02*
X024111Y000980D01*
X024544Y000980D01*
X024579Y000969D01*
X024583Y000980D01*
X024144Y003610D02*
X024111Y003618D01*
X023442Y003618D02*
X023442Y003736D01*
X023425Y003736D01*
X023343Y005488D02*
X023323Y005507D01*
X023323Y005744D01*
X023284Y005783D01*
X023255Y005815D01*
X025312Y005094D02*
X025331Y005074D01*
X025331Y004523D01*
X025489Y004366D01*
X025501Y004328D01*
X025528Y003657D02*
X025325Y003618D01*
X025501Y003628D02*
X025528Y003657D01*
X021670Y013696D02*
X021630Y013707D01*
X021653Y013707D02*
X021670Y013696D01*
X025373Y017533D02*
X025371Y017555D01*
X025374Y017563D01*
X011847Y014541D02*
X011827Y014563D01*
X010961Y014563D01*
X009977Y014464D02*
X009544Y014878D01*
X009544Y015448D01*
X006129Y013303D02*
X006079Y013303D01*
X006057Y013297D01*
X006010Y014107D02*
X006040Y014130D01*
X006040Y014110D01*
X011670Y011925D02*
X011733Y011957D01*
X011684Y011919D02*
X011670Y011925D01*
D52*
X011260Y013638D02*
X011370Y013689D01*
X012296Y013689D01*
X012565Y014017D01*
X012081Y014856D02*
X011847Y014856D01*
X012081Y014856D02*
X012221Y014996D01*
X012221Y015586D01*
X012438Y015783D01*
X012438Y017299D01*
X012733Y017594D01*
X012733Y017633D01*
X010115Y016039D02*
X010016Y016137D01*
X009544Y016137D01*
X009465Y016177D01*
X009229Y016177D01*
X009268Y016137D02*
X009308Y016177D01*
X009674Y016177D01*
X009712Y016139D01*
X009936Y016139D01*
X009938Y016137D01*
X009938Y016059D01*
X009909Y016059D01*
X009900Y016068D01*
X009900Y016068D01*
X009900Y016068D01*
X009846Y016068D01*
X009268Y016069D01*
X009268Y016137D01*
X009268Y016123D02*
X009938Y016123D01*
X009938Y016066D02*
X009902Y016066D01*
X009859Y014963D02*
X010331Y014405D01*
X010489Y014405D01*
X011237Y015153D01*
X011830Y015153D01*
X011847Y015170D01*
X009170Y017830D02*
X009170Y018775D01*
X009682Y019267D01*
X009701Y019267D01*
X008363Y016767D02*
X007575Y016767D01*
X015961Y017633D02*
X017044Y017633D01*
X017536Y018204D01*
X017536Y018381D01*
X017536Y019149D01*
X017516Y019169D01*
X017890Y019130D02*
X017910Y019149D01*
X017930Y019169D01*
X018264Y019169D01*
D53*
X017733Y018342D02*
X017575Y018342D01*
X017536Y018381D01*
X017733Y017830D02*
X017733Y017496D01*
X013383Y018657D02*
X013363Y018637D01*
X012910Y018637D01*
X010646Y018519D02*
X010646Y017988D01*
X010646Y018519D02*
X010430Y018756D01*
X010351Y018756D01*
X008689Y020889D02*
X008044Y020889D01*
X007723Y020568D01*
X007516Y020568D01*
X007216Y020547D02*
X006907Y020939D01*
X006399Y021318D02*
X006327Y021276D01*
X006327Y020261D01*
X006294Y020259D01*
X005751Y020259D01*
X005765Y020856D02*
X005755Y020867D01*
X005765Y020856D02*
X006093Y020856D01*
X006050Y021444D02*
X005753Y021439D01*
X005753Y021641D01*
X005845Y021733D01*
X005845Y022062D01*
X005849Y022067D01*
X005849Y022158D01*
X005597Y022411D01*
X004612Y022411D01*
X004599Y022067D01*
X004599Y021538D01*
X004500Y021439D01*
X004528Y020889D02*
X004505Y020867D01*
X004528Y020889D02*
X004902Y020889D01*
X004935Y020840D01*
X003993Y020267D02*
X003949Y020267D01*
X003331Y019649D01*
X003331Y015061D01*
X004074Y014319D01*
X004472Y013763D02*
X004704Y014000D01*
X004704Y016326D01*
X004081Y016326D01*
X004074Y016319D01*
X005150Y017136D02*
X005150Y014918D01*
X005513Y015426D02*
X006138Y015429D01*
X006316Y015626D01*
X006512Y015626D01*
X006752Y015406D01*
X007366Y015406D01*
X007579Y015153D01*
X007993Y015153D01*
X007597Y014546D02*
X008024Y014165D01*
X007451Y013529D02*
X006160Y013529D01*
X006129Y013498D01*
X006129Y013354D02*
X005694Y013836D01*
X006010Y014107D02*
X006010Y014275D01*
X006334Y014600D01*
X006335Y015133D01*
X006413Y015211D01*
X006413Y015350D01*
X006513Y016408D02*
X006372Y016577D01*
X006357Y016653D01*
X006357Y018211D01*
X006209Y018393D01*
X006539Y017665D02*
X006539Y019236D01*
X006275Y019484D01*
X006093Y019500D01*
X004935Y019649D02*
X004935Y018872D01*
X005251Y017509D02*
X005388Y017509D01*
X005481Y017417D01*
X005942Y017417D01*
X006040Y017515D01*
X006105Y017515D01*
X006538Y017410D02*
X006539Y017665D01*
X006538Y017410D02*
X007300Y017410D01*
X007343Y017307D01*
X007343Y016613D01*
X007838Y016118D01*
X007866Y016118D01*
X007916Y015818D02*
X007791Y015818D01*
X007201Y016408D01*
X006513Y016408D01*
X006363Y014110D02*
X006040Y014110D01*
X006010Y014110D01*
X006363Y014110D02*
X006571Y013812D01*
X007052Y013812D01*
X007234Y013779D01*
X008994Y013779D01*
X009053Y012669D02*
X009869Y012669D01*
X010063Y012475D01*
X011011Y012469D02*
X011134Y012469D01*
X011684Y011919D01*
X012727Y012614D02*
X013219Y012614D01*
X013219Y012606D01*
X013751Y012614D02*
X013751Y012569D01*
X017846Y012569D01*
X021964Y007747D02*
X021965Y007746D01*
X021965Y007653D01*
X021964Y007353D02*
X022354Y007353D01*
X022359Y007358D01*
X022359Y007752D01*
X021964Y005778D02*
X021964Y005385D01*
X021964Y004991D01*
X021964Y004597D02*
X021964Y004204D01*
X022058Y004504D02*
X021964Y004597D01*
X022058Y004504D02*
X022949Y004504D01*
X023343Y004504D02*
X023343Y004329D01*
X023425Y004248D01*
X024144Y004310D02*
X024692Y004310D01*
X024803Y004199D01*
X025373Y004199D01*
X025501Y004328D01*
X021964Y005385D02*
X021862Y005385D01*
X021788Y005311D01*
X015665Y002235D02*
X015665Y001453D01*
X015666Y001452D01*
X009968Y009344D02*
X009968Y009358D01*
X009268Y010059D01*
X004704Y010059D01*
X004472Y010290D01*
X004472Y013763D01*
X004770Y012572D02*
X004823Y012569D01*
X008689Y020889D02*
X008738Y020939D01*
X008738Y021333D01*
X008740Y021334D01*
X008740Y021592D01*
X008816Y021668D01*
X008740Y022122D02*
X008722Y022140D01*
X008722Y022394D01*
X008474Y022642D01*
X008474Y023138D01*
X008342Y023270D01*
X004654Y023270D01*
X004250Y022867D01*
X004249Y022867D01*
X005499Y022867D02*
X005532Y022925D01*
X005797Y022925D01*
X005977Y022910D01*
X006010Y022923D01*
X006010Y023519D02*
X008490Y023519D01*
X008738Y023270D01*
X008738Y022911D01*
X008740Y022909D01*
X021845Y021666D02*
X021867Y021689D01*
X021845Y021666D02*
X021845Y021651D01*
X022418Y021757D02*
X022546Y021757D01*
X022586Y021797D01*
X022394Y022678D02*
X023115Y022678D01*
X023116Y022678D01*
X024488Y023007D02*
X025213Y023007D01*
X025213Y021826D01*
X025184Y021797D01*
X024686Y021797D01*
X024898Y020862D02*
X024686Y020797D01*
X024898Y020862D02*
X025573Y020862D01*
X025573Y021336D01*
X026001Y021334D01*
X026001Y021575D01*
X025996Y021580D01*
X025996Y020914D01*
X026008Y020902D01*
X026008Y020390D02*
X026008Y019696D01*
X025089Y019696D01*
X022753Y019661D02*
X022753Y019464D01*
X022753Y019661D02*
X022718Y019696D01*
X022589Y019696D01*
X022753Y019661D02*
X022753Y019956D01*
D54*
X021964Y008534D02*
X021964Y008141D01*
X021964Y007747D01*
X021965Y007555D02*
X022556Y007555D01*
X022556Y006374D02*
X022359Y006374D01*
X021965Y006374D01*
X021749Y005547D02*
X021749Y005527D01*
X021375Y005527D01*
X021847Y005507D02*
X021827Y005252D01*
X021886Y005252D01*
X021965Y004405D02*
X024701Y004405D01*
D55*
X021964Y007353D02*
X021964Y007747D01*
X021965Y007653D02*
X021965Y008637D01*
X022068Y008637D02*
X021964Y008534D01*
X021964Y008928D01*
X022068Y008637D02*
X022359Y008637D01*
D56*
X022359Y007752D02*
X019603Y007752D01*
X019603Y007259D01*
X019603Y006767D01*
X019603Y006374D01*
X021965Y006374D01*
X021964Y006374D01*
X021964Y006566D01*
X021964Y006172D01*
X022753Y003618D02*
X023442Y003618D01*
X024111Y003618D01*
X025325Y003618D01*
X024803Y003687D01*
X023619Y016919D02*
X022616Y016919D01*
X022616Y018774D01*
X023148Y018774D01*
X023257Y018819D01*
X023341Y018903D01*
X023386Y019012D01*
X023386Y019259D01*
X023418Y019246D01*
X023662Y019246D01*
X023766Y019289D01*
X023766Y018277D01*
X023748Y018270D01*
X023664Y018186D01*
X023619Y018077D01*
X023619Y016919D01*
X023619Y016941D02*
X022616Y016941D01*
X022616Y017333D02*
X023619Y017333D01*
X023619Y017725D02*
X022616Y017725D01*
X022906Y017844D02*
X023565Y017844D01*
X023636Y018117D02*
X022616Y018117D01*
X022616Y018509D02*
X023766Y018509D01*
X023766Y018902D02*
X023339Y018902D01*
X025089Y019696D02*
X025187Y017563D01*
X025374Y017563D01*
D57*
X025274Y017266D01*
X020516Y014568D02*
X020516Y014504D01*
X020517Y014547D01*
X020516Y014568D02*
X020297Y014568D01*
X020292Y014563D01*
X019905Y015120D01*
X019516Y015120D01*
X019516Y014718D02*
X019416Y014720D01*
X019078Y014720D01*
X019066Y014968D01*
X019066Y016168D01*
X019016Y016218D01*
X019516Y014718D02*
X019516Y013768D01*
X019577Y013707D01*
X018502Y017943D02*
X018483Y018218D01*
X018216Y018218D01*
X011181Y010556D02*
X011176Y009793D01*
X011204Y010507D02*
X011181Y010556D01*
X011129Y005419D02*
X011163Y005385D01*
X012516Y005385D01*
X011034Y002996D02*
X010979Y002985D01*
X010979Y002669D01*
X011034Y002996D02*
X009106Y002996D01*
X008479Y002369D01*
X008472Y002363D01*
X008472Y001535D01*
X021964Y006959D02*
X023255Y006959D01*
X023255Y006918D01*
X006616Y021334D02*
X006616Y022122D01*
X006616Y022909D01*
D58*
X013177Y014017D02*
X013216Y014012D01*
X013216Y013668D01*
X014466Y013668D01*
X013216Y013668D02*
X013219Y012606D01*
X013222Y011964D01*
X011733Y011957D01*
X011729Y011969D02*
X011684Y011919D01*
X010000Y013252D02*
X010000Y013638D01*
X010000Y013252D02*
X009916Y013168D01*
X009516Y013168D01*
X009370Y013314D01*
X009370Y013322D01*
X009216Y013168D01*
X009516Y013168D01*
X009370Y013322D02*
X009370Y013638D01*
X009216Y013168D02*
X008816Y013168D01*
X008466Y013518D01*
X007451Y013529D01*
X011229Y006969D02*
X011229Y006919D01*
X011269Y006959D01*
X012516Y006959D01*
X021016Y013668D02*
X021016Y014665D01*
X020764Y014917D01*
X020517Y015058D01*
X020716Y015301D01*
X020716Y017568D01*
X020092Y018193D01*
X019488Y017937D01*
D59*
X021375Y019051D02*
X021453Y018972D01*
X023565Y017844D02*
X024234Y017849D01*
X024224Y019743D01*
X024224Y020158D01*
X024131Y020252D01*
X023791Y020530D01*
X023796Y021039D01*
X023048Y021039D01*
X022792Y021295D01*
X022586Y021297D01*
X022418Y021757D02*
X022108Y021757D01*
X022016Y021822D02*
X021845Y021651D01*
X021866Y021754D02*
X020920Y021740D01*
X022016Y021822D02*
X022016Y022218D01*
X022880Y021762D02*
X022945Y021827D01*
X024438Y023057D02*
X024488Y023007D01*
X010863Y019267D02*
X010351Y019267D01*
X006129Y013498D02*
X006129Y013354D01*
X006129Y013303D01*
X006129Y012569D01*
X004823Y012569D01*
D60*
X021503Y017825D02*
X022906Y017844D01*
X023130Y017563D01*
D61*
X025374Y017563D02*
X025537Y017362D01*
X012656Y017019D02*
X012636Y017015D01*
X012660Y016418D01*
X012625Y016409D01*
X012669Y015812D01*
X010315Y017018D02*
X010315Y017617D01*
X010366Y017712D01*
X010316Y017668D01*
X010016Y017668D02*
X009716Y017712D01*
X009685Y017668D01*
X009685Y017018D01*
D62*
X010016Y017668D03*
X013620Y012202D03*
D63*
X013604Y011306D01*
X013443Y011308D01*
X012079Y011319D01*
X009782Y011319D01*
X009798Y011840D01*
X009337Y012235D01*
X006429Y012219D01*
X006129Y012569D01*
X010016Y017668D02*
X010316Y017668D01*
X021016Y013093D02*
X021630Y013707D01*
X022016Y022218D02*
X021819Y022446D01*
X021431Y022431D01*
D64*
X020306Y022468D02*
X019698Y022431D01*
X020288Y022491D01*
X020306Y022468D02*
X018323Y022468D01*
X016823Y020968D01*
X016400Y020968D01*
X014981Y022605D02*
X014416Y022040D01*
X014416Y020968D01*
D65*
X016347Y018849D02*
X015783Y018285D01*
X015516Y018018D01*
X015516Y016018D01*
X015316Y015818D01*
X015516Y015618D01*
X015516Y014091D01*
X015916Y013691D01*
X015966Y013641D01*
X015516Y015618D02*
X015516Y016018D01*
X015316Y015818D02*
X014505Y015818D01*
X013231Y015818D01*
X013181Y015812D01*
D66*
X013751Y013362D02*
X013691Y013302D01*
X013616Y013302D01*
X015961Y013657D02*
X017930Y013657D01*
X017936Y013651D01*
X017936Y013038D01*
X019577Y012830D02*
X019577Y013707D01*
M02*
