G75*
%MOIN*%
%OFA0B0*%
%FSLAX24Y24*%
%IPPOS*%
%LPD*%
%AMOC8*
5,1,8,0,0,1.08239X$1,22.5*
%
%ADD10C,0.0000*%
%ADD11OC8,0.0740*%
%ADD12C,0.1181*%
%ADD13R,0.1181X0.1181*%
%ADD14C,0.0050*%
%ADD15C,0.0191*%
%ADD16C,0.0740*%
%ADD17C,0.0709*%
%ADD18R,0.0150X0.0598*%
%ADD19C,0.0180*%
%ADD20R,0.0748X0.0748*%
%ADD21R,0.0787X0.0787*%
%ADD22C,0.0280*%
%ADD23C,0.0080*%
%ADD24C,0.0278*%
%ADD25C,0.0079*%
%ADD26C,0.0787*%
%ADD27C,0.0160*%
%ADD28C,0.0059*%
%ADD29C,0.0100*%
%ADD30C,0.0060*%
%ADD31C,0.0320*%
%ADD32C,0.0400*%
%ADD33C,0.0800*%
%ADD34C,0.0394*%
%ADD35C,0.0200*%
%ADD36C,0.0197*%
D10*
X003166Y002437D02*
X003166Y021728D01*
X003165Y021728D02*
X003167Y021814D01*
X003172Y021900D01*
X003182Y021985D01*
X003195Y022070D01*
X003212Y022154D01*
X003232Y022238D01*
X003256Y022320D01*
X003284Y022401D01*
X003315Y022482D01*
X003349Y022560D01*
X003387Y022637D01*
X003429Y022713D01*
X003473Y022786D01*
X003521Y022857D01*
X003572Y022927D01*
X003626Y022994D01*
X003682Y023058D01*
X003742Y023120D01*
X003804Y023180D01*
X003868Y023236D01*
X003935Y023290D01*
X004005Y023341D01*
X004076Y023389D01*
X004150Y023433D01*
X004225Y023475D01*
X004302Y023513D01*
X004380Y023547D01*
X004461Y023578D01*
X004542Y023606D01*
X004624Y023630D01*
X004708Y023650D01*
X004792Y023667D01*
X004877Y023680D01*
X004962Y023690D01*
X005048Y023695D01*
X005134Y023697D01*
X005134Y023696D02*
X024426Y023696D01*
X024426Y023697D02*
X024512Y023695D01*
X024598Y023690D01*
X024683Y023680D01*
X024768Y023667D01*
X024852Y023650D01*
X024936Y023630D01*
X025018Y023606D01*
X025099Y023578D01*
X025180Y023547D01*
X025258Y023513D01*
X025335Y023475D01*
X025411Y023433D01*
X025484Y023389D01*
X025555Y023341D01*
X025625Y023290D01*
X025692Y023236D01*
X025756Y023180D01*
X025818Y023120D01*
X025878Y023058D01*
X025934Y022994D01*
X025988Y022927D01*
X026039Y022857D01*
X026087Y022786D01*
X026131Y022713D01*
X026173Y022637D01*
X026211Y022560D01*
X026245Y022482D01*
X026276Y022401D01*
X026304Y022320D01*
X026328Y022238D01*
X026348Y022154D01*
X026365Y022070D01*
X026378Y021985D01*
X026388Y021900D01*
X026393Y021814D01*
X026395Y021728D01*
X026394Y021728D02*
X026394Y002437D01*
X026395Y002437D02*
X026393Y002351D01*
X026388Y002265D01*
X026378Y002180D01*
X026365Y002095D01*
X026348Y002011D01*
X026328Y001927D01*
X026304Y001845D01*
X026276Y001764D01*
X026245Y001683D01*
X026211Y001605D01*
X026173Y001528D01*
X026131Y001452D01*
X026087Y001379D01*
X026039Y001308D01*
X025988Y001238D01*
X025934Y001171D01*
X025878Y001107D01*
X025818Y001045D01*
X025756Y000985D01*
X025692Y000929D01*
X025625Y000875D01*
X025555Y000824D01*
X025484Y000776D01*
X025411Y000732D01*
X025335Y000690D01*
X025258Y000652D01*
X025180Y000618D01*
X025099Y000587D01*
X025018Y000559D01*
X024936Y000535D01*
X024852Y000515D01*
X024768Y000498D01*
X024683Y000485D01*
X024598Y000475D01*
X024512Y000470D01*
X024426Y000468D01*
X005134Y000468D01*
X005048Y000470D01*
X004962Y000475D01*
X004877Y000485D01*
X004792Y000498D01*
X004708Y000515D01*
X004624Y000535D01*
X004542Y000559D01*
X004461Y000587D01*
X004380Y000618D01*
X004302Y000652D01*
X004225Y000690D01*
X004149Y000732D01*
X004076Y000776D01*
X004005Y000824D01*
X003935Y000875D01*
X003868Y000929D01*
X003804Y000985D01*
X003742Y001045D01*
X003682Y001107D01*
X003626Y001171D01*
X003572Y001238D01*
X003521Y001308D01*
X003473Y001379D01*
X003429Y001453D01*
X003387Y001528D01*
X003349Y001605D01*
X003315Y001683D01*
X003284Y001764D01*
X003256Y001845D01*
X003232Y001927D01*
X003212Y002011D01*
X003195Y002095D01*
X003182Y002180D01*
X003172Y002265D01*
X003167Y002351D01*
X003165Y002437D01*
X023225Y019858D02*
X023227Y019893D01*
X023233Y019928D01*
X023243Y019962D01*
X023256Y019995D01*
X023273Y020026D01*
X023294Y020054D01*
X023317Y020081D01*
X023344Y020104D01*
X023372Y020125D01*
X023403Y020142D01*
X023436Y020155D01*
X023470Y020165D01*
X023505Y020171D01*
X023540Y020173D01*
X023575Y020171D01*
X023610Y020165D01*
X023644Y020155D01*
X023677Y020142D01*
X023708Y020125D01*
X023736Y020104D01*
X023763Y020081D01*
X023786Y020054D01*
X023807Y020026D01*
X023824Y019995D01*
X023837Y019962D01*
X023847Y019928D01*
X023853Y019893D01*
X023855Y019858D01*
X023853Y019823D01*
X023847Y019788D01*
X023837Y019754D01*
X023824Y019721D01*
X023807Y019690D01*
X023786Y019662D01*
X023763Y019635D01*
X023736Y019612D01*
X023708Y019591D01*
X023677Y019574D01*
X023644Y019561D01*
X023610Y019551D01*
X023575Y019545D01*
X023540Y019543D01*
X023505Y019545D01*
X023470Y019551D01*
X023436Y019561D01*
X023403Y019574D01*
X023372Y019591D01*
X023344Y019612D01*
X023317Y019635D01*
X023294Y019662D01*
X023273Y019690D01*
X023256Y019721D01*
X023243Y019754D01*
X023233Y019788D01*
X023227Y019823D01*
X023225Y019858D01*
X023225Y021630D02*
X023227Y021665D01*
X023233Y021700D01*
X023243Y021734D01*
X023256Y021767D01*
X023273Y021798D01*
X023294Y021826D01*
X023317Y021853D01*
X023344Y021876D01*
X023372Y021897D01*
X023403Y021914D01*
X023436Y021927D01*
X023470Y021937D01*
X023505Y021943D01*
X023540Y021945D01*
X023575Y021943D01*
X023610Y021937D01*
X023644Y021927D01*
X023677Y021914D01*
X023708Y021897D01*
X023736Y021876D01*
X023763Y021853D01*
X023786Y021826D01*
X023807Y021798D01*
X023824Y021767D01*
X023837Y021734D01*
X023847Y021700D01*
X023853Y021665D01*
X023855Y021630D01*
X023853Y021595D01*
X023847Y021560D01*
X023837Y021526D01*
X023824Y021493D01*
X023807Y021462D01*
X023786Y021434D01*
X023763Y021407D01*
X023736Y021384D01*
X023708Y021363D01*
X023677Y021346D01*
X023644Y021333D01*
X023610Y021323D01*
X023575Y021317D01*
X023540Y021315D01*
X023505Y021317D01*
X023470Y021323D01*
X023436Y021333D01*
X023403Y021346D01*
X023372Y021363D01*
X023344Y021384D01*
X023317Y021407D01*
X023294Y021434D01*
X023273Y021462D01*
X023256Y021493D01*
X023243Y021526D01*
X023233Y021560D01*
X023227Y021595D01*
X023225Y021630D01*
D11*
X006943Y015919D03*
X005943Y015919D03*
X005843Y016919D03*
X006843Y016919D03*
X006843Y014919D03*
X005843Y014919D03*
D12*
X010449Y022605D03*
X014981Y022605D03*
D13*
X018912Y020125D03*
X019306Y020125D03*
X010619Y020125D03*
X010225Y020125D03*
D14*
X009275Y011235D02*
X009321Y011230D01*
X009363Y011214D01*
X009402Y011189D01*
X009433Y011156D01*
X009453Y011130D01*
X009474Y011094D01*
X009487Y011054D01*
X009492Y011012D01*
X009492Y010957D01*
X009489Y010921D01*
X009479Y010886D01*
X009462Y010853D01*
X009440Y010824D01*
X009059Y010408D01*
X008678Y010824D01*
X008656Y010853D01*
X008639Y010886D01*
X008629Y010921D01*
X008626Y010957D01*
X008626Y011012D01*
X008630Y011054D01*
X008644Y011094D01*
X008665Y011130D01*
X008685Y011156D01*
X008716Y011189D01*
X008754Y011214D01*
X008797Y011230D01*
X008842Y011235D01*
X008859Y011235D01*
X008902Y011230D01*
X008943Y011216D01*
X008980Y011193D01*
X009011Y011163D01*
X009035Y011126D01*
X009059Y011078D01*
X009083Y011126D01*
X009107Y011163D01*
X009138Y011193D01*
X009175Y011216D01*
X009216Y011230D01*
X009259Y011235D01*
X009275Y011235D01*
X009404Y011187D02*
X009131Y011187D01*
X009091Y011138D02*
X009447Y011138D01*
X009476Y011090D02*
X009065Y011090D01*
X009053Y011090D02*
X008642Y011090D01*
X008629Y011041D02*
X009489Y011041D01*
X009492Y010993D02*
X008626Y010993D01*
X008627Y010944D02*
X009491Y010944D01*
X009481Y010896D02*
X008636Y010896D01*
X008660Y010847D02*
X009458Y010847D01*
X009417Y010799D02*
X008701Y010799D01*
X008746Y010750D02*
X009372Y010750D01*
X009328Y010702D02*
X008790Y010702D01*
X008834Y010653D02*
X009283Y010653D01*
X009239Y010605D02*
X008879Y010605D01*
X008923Y010556D02*
X009194Y010556D01*
X009150Y010508D02*
X008968Y010508D01*
X009012Y010459D02*
X009106Y010459D01*
X009061Y010411D02*
X009057Y010411D01*
X009027Y011138D02*
X008671Y011138D01*
X008714Y011187D02*
X008987Y011187D01*
X007520Y011041D02*
X006660Y011041D01*
X006662Y011054D02*
X006675Y011094D01*
X006697Y011130D01*
X006716Y011156D01*
X006748Y011189D01*
X006786Y011214D01*
X006829Y011230D01*
X006874Y011235D01*
X006890Y011235D01*
X006933Y011230D01*
X006974Y011216D01*
X007011Y011193D01*
X007042Y011163D01*
X007066Y011126D01*
X007090Y011078D01*
X007115Y011126D01*
X007138Y011163D01*
X007169Y011193D01*
X007206Y011216D01*
X007248Y011230D01*
X007291Y011235D01*
X007307Y011235D01*
X007352Y011230D01*
X007395Y011214D01*
X007433Y011189D01*
X007464Y011156D01*
X007484Y011130D01*
X007506Y011094D01*
X007519Y011054D01*
X007523Y011012D01*
X007523Y010957D01*
X007520Y010921D01*
X007510Y010886D01*
X007494Y010853D01*
X007472Y010824D01*
X007090Y010408D01*
X006709Y010824D01*
X006687Y010853D01*
X006671Y010886D01*
X006661Y010921D01*
X006657Y010957D01*
X006657Y011012D01*
X006662Y011054D01*
X006674Y011090D02*
X007084Y011090D01*
X007096Y011090D02*
X007507Y011090D01*
X007478Y011138D02*
X007122Y011138D01*
X007163Y011187D02*
X007436Y011187D01*
X007523Y010993D02*
X006657Y010993D01*
X006659Y010944D02*
X007522Y010944D01*
X007513Y010896D02*
X006668Y010896D01*
X006692Y010847D02*
X007489Y010847D01*
X007448Y010799D02*
X006733Y010799D01*
X006777Y010750D02*
X007404Y010750D01*
X007359Y010702D02*
X006821Y010702D01*
X006866Y010653D02*
X007315Y010653D01*
X007270Y010605D02*
X006910Y010605D01*
X006955Y010556D02*
X007226Y010556D01*
X007182Y010508D02*
X006999Y010508D01*
X007044Y010459D02*
X007137Y010459D01*
X007093Y010411D02*
X007088Y010411D01*
X007058Y011138D02*
X006703Y011138D01*
X006745Y011187D02*
X007018Y011187D01*
X005552Y011041D02*
X004692Y011041D01*
X004693Y011054D02*
X004707Y011094D01*
X004728Y011130D01*
X004748Y011156D01*
X004779Y011189D01*
X004817Y011214D01*
X004860Y011230D01*
X004905Y011235D01*
X004921Y011235D01*
X004965Y011230D01*
X005006Y011216D01*
X005043Y011193D01*
X005074Y011163D01*
X005098Y011126D01*
X005122Y011078D01*
X005146Y011126D01*
X005170Y011163D01*
X005201Y011193D01*
X005238Y011216D01*
X005279Y011230D01*
X005322Y011235D01*
X005338Y011235D01*
X005384Y011230D01*
X005426Y011214D01*
X005465Y011189D01*
X005496Y011156D01*
X005516Y011130D01*
X005537Y011094D01*
X005550Y011054D01*
X005555Y011012D01*
X005555Y010957D01*
X005552Y010921D01*
X005542Y010886D01*
X005525Y010853D01*
X005503Y010824D01*
X005122Y010408D01*
X004741Y010824D01*
X004719Y010853D01*
X004702Y010886D01*
X004692Y010921D01*
X004689Y010957D01*
X004689Y011012D01*
X004693Y011054D01*
X004705Y011090D02*
X005116Y011090D01*
X005128Y011090D02*
X005539Y011090D01*
X005510Y011138D02*
X005154Y011138D01*
X005194Y011187D02*
X005467Y011187D01*
X005555Y010993D02*
X004689Y010993D01*
X004690Y010944D02*
X005554Y010944D01*
X005544Y010896D02*
X004699Y010896D01*
X004723Y010847D02*
X005521Y010847D01*
X005480Y010799D02*
X004764Y010799D01*
X004808Y010750D02*
X005435Y010750D01*
X005391Y010702D02*
X004853Y010702D01*
X004897Y010653D02*
X005346Y010653D01*
X005302Y010605D02*
X004942Y010605D01*
X004986Y010556D02*
X005257Y010556D01*
X005213Y010508D02*
X005031Y010508D01*
X005075Y010459D02*
X005169Y010459D01*
X005124Y010411D02*
X005120Y010411D01*
X005090Y011138D02*
X004734Y011138D01*
X004777Y011187D02*
X005050Y011187D01*
X004921Y009463D02*
X004965Y009459D01*
X005006Y009444D01*
X005043Y009422D01*
X005074Y009391D01*
X005098Y009355D01*
X005122Y009306D01*
X005146Y009355D01*
X005170Y009391D01*
X005201Y009422D01*
X005238Y009444D01*
X005279Y009459D01*
X005322Y009463D01*
X005338Y009463D01*
X005384Y009458D01*
X005426Y009443D01*
X005465Y009418D01*
X005496Y009385D01*
X005516Y009358D01*
X005537Y009322D01*
X005550Y009282D01*
X005555Y009240D01*
X005555Y009186D01*
X005552Y009149D01*
X005542Y009114D01*
X005525Y009082D01*
X005503Y009053D01*
X004741Y009053D01*
X004719Y009082D01*
X004702Y009114D01*
X004692Y009149D01*
X004689Y009186D01*
X004689Y009240D01*
X004693Y009282D01*
X004707Y009322D01*
X004728Y009358D01*
X004748Y009385D01*
X004779Y009418D01*
X004817Y009443D01*
X004860Y009458D01*
X004905Y009463D01*
X004921Y009463D01*
X005012Y009441D02*
X004814Y009441D01*
X004755Y009392D02*
X005073Y009392D01*
X005103Y009344D02*
X004719Y009344D01*
X004698Y009295D02*
X005546Y009295D01*
X005554Y009247D02*
X004690Y009247D01*
X004689Y009198D02*
X005555Y009198D01*
X005552Y009150D02*
X004692Y009150D01*
X004709Y009101D02*
X005535Y009101D01*
X005503Y009053D02*
X005122Y008637D01*
X004741Y009053D01*
X004785Y009004D02*
X005459Y009004D01*
X005414Y008956D02*
X004829Y008956D01*
X004874Y008907D02*
X005370Y008907D01*
X005325Y008859D02*
X004918Y008859D01*
X004963Y008810D02*
X005281Y008810D01*
X005237Y008762D02*
X005007Y008762D01*
X005052Y008713D02*
X005192Y008713D01*
X005148Y008665D02*
X005096Y008665D01*
X005141Y009344D02*
X005524Y009344D01*
X005489Y009392D02*
X005171Y009392D01*
X005232Y009441D02*
X005429Y009441D01*
X006662Y009282D02*
X006675Y009322D01*
X006697Y009358D01*
X006716Y009385D01*
X006748Y009418D01*
X006786Y009443D01*
X006829Y009458D01*
X006874Y009463D01*
X006890Y009463D01*
X006933Y009459D01*
X006974Y009444D01*
X007011Y009422D01*
X007042Y009391D01*
X007066Y009355D01*
X007090Y009306D01*
X007115Y009355D01*
X007138Y009391D01*
X007169Y009422D01*
X007206Y009444D01*
X007248Y009459D01*
X007291Y009463D01*
X007307Y009463D01*
X007352Y009458D01*
X007395Y009443D01*
X007433Y009418D01*
X007464Y009385D01*
X007484Y009358D01*
X007506Y009322D01*
X007519Y009282D01*
X007523Y009240D01*
X007523Y009186D01*
X007520Y009149D01*
X007510Y009114D01*
X007494Y009082D01*
X007472Y009053D01*
X006709Y009053D01*
X006687Y009082D01*
X006671Y009114D01*
X006661Y009149D01*
X006657Y009186D01*
X006657Y009240D01*
X006662Y009282D01*
X006666Y009295D02*
X007515Y009295D01*
X007523Y009247D02*
X006658Y009247D01*
X006657Y009198D02*
X007523Y009198D01*
X007520Y009150D02*
X006661Y009150D01*
X006677Y009101D02*
X007504Y009101D01*
X007472Y009053D02*
X007090Y008637D01*
X006709Y009053D01*
X006753Y009004D02*
X007427Y009004D01*
X007383Y008956D02*
X006798Y008956D01*
X006842Y008907D02*
X007338Y008907D01*
X007294Y008859D02*
X006887Y008859D01*
X006931Y008810D02*
X007249Y008810D01*
X007205Y008762D02*
X006976Y008762D01*
X007020Y008713D02*
X007161Y008713D01*
X007116Y008665D02*
X007065Y008665D01*
X007072Y009344D02*
X006688Y009344D01*
X006724Y009392D02*
X007041Y009392D01*
X006980Y009441D02*
X006783Y009441D01*
X007109Y009344D02*
X007493Y009344D01*
X007457Y009392D02*
X007139Y009392D01*
X007200Y009441D02*
X007398Y009441D01*
X008630Y009282D02*
X008644Y009322D01*
X008665Y009358D01*
X008685Y009385D01*
X008716Y009418D01*
X008754Y009443D01*
X008797Y009458D01*
X008842Y009463D01*
X008859Y009463D01*
X008902Y009459D01*
X008943Y009444D01*
X008980Y009422D01*
X009011Y009391D01*
X009035Y009355D01*
X009059Y009306D01*
X009083Y009355D01*
X009107Y009391D01*
X009138Y009422D01*
X009175Y009444D01*
X009216Y009459D01*
X009259Y009463D01*
X009275Y009463D01*
X009321Y009458D01*
X009363Y009443D01*
X009402Y009418D01*
X009433Y009385D01*
X009453Y009358D01*
X009474Y009322D01*
X009487Y009282D01*
X009492Y009240D01*
X009492Y009186D01*
X009489Y009149D01*
X009479Y009114D01*
X009462Y009082D01*
X009440Y009053D01*
X008678Y009053D01*
X008656Y009082D01*
X008639Y009114D01*
X008629Y009149D01*
X008626Y009186D01*
X008626Y009240D01*
X008630Y009282D01*
X008635Y009295D02*
X009483Y009295D01*
X009491Y009247D02*
X008627Y009247D01*
X008626Y009198D02*
X009492Y009198D01*
X009489Y009150D02*
X008629Y009150D01*
X008646Y009101D02*
X009472Y009101D01*
X009440Y009053D02*
X009059Y008637D01*
X008678Y009053D01*
X008722Y009004D02*
X009396Y009004D01*
X009351Y008956D02*
X008766Y008956D01*
X008811Y008907D02*
X009307Y008907D01*
X009262Y008859D02*
X008855Y008859D01*
X008900Y008810D02*
X009218Y008810D01*
X009174Y008762D02*
X008944Y008762D01*
X008989Y008713D02*
X009129Y008713D01*
X009085Y008665D02*
X009033Y008665D01*
X009040Y009344D02*
X008656Y009344D01*
X008692Y009392D02*
X009010Y009392D01*
X008949Y009441D02*
X008751Y009441D01*
X009078Y009344D02*
X009461Y009344D01*
X009426Y009392D02*
X009108Y009392D01*
X009169Y009441D02*
X009366Y009441D01*
X009275Y007495D02*
X009321Y007490D01*
X009363Y007474D01*
X009402Y007449D01*
X009433Y007416D01*
X009453Y007390D01*
X009474Y007354D01*
X009487Y007314D01*
X009492Y007272D01*
X009492Y007217D01*
X009489Y007181D01*
X009479Y007146D01*
X009462Y007113D01*
X009440Y007084D01*
X009059Y006668D01*
X008678Y007084D01*
X008656Y007113D01*
X009462Y007113D01*
X009483Y007161D02*
X008635Y007161D01*
X008639Y007146D02*
X008629Y007181D01*
X008626Y007217D01*
X008626Y007272D01*
X008630Y007314D01*
X008644Y007354D01*
X008665Y007390D01*
X008685Y007416D01*
X008716Y007449D01*
X008754Y007474D01*
X008797Y007490D01*
X008842Y007495D01*
X008859Y007495D01*
X008902Y007490D01*
X008943Y007476D01*
X008980Y007453D01*
X009011Y007423D01*
X009035Y007386D01*
X009059Y007337D01*
X009083Y007386D01*
X009107Y007423D01*
X009138Y007453D01*
X009175Y007476D01*
X009216Y007490D01*
X009259Y007495D01*
X009275Y007495D01*
X009397Y007452D02*
X009137Y007452D01*
X009095Y007404D02*
X009442Y007404D01*
X009473Y007355D02*
X009068Y007355D01*
X009050Y007355D02*
X008645Y007355D01*
X008630Y007307D02*
X009488Y007307D01*
X009492Y007258D02*
X008626Y007258D01*
X008627Y007210D02*
X009491Y007210D01*
X009422Y007064D02*
X008696Y007064D01*
X008656Y007113D02*
X008639Y007146D01*
X008740Y007016D02*
X009377Y007016D01*
X009333Y006967D02*
X008785Y006967D01*
X008829Y006919D02*
X009289Y006919D01*
X009244Y006870D02*
X008874Y006870D01*
X008918Y006822D02*
X009200Y006822D01*
X009155Y006773D02*
X008963Y006773D01*
X009007Y006725D02*
X009111Y006725D01*
X009066Y006676D02*
X009052Y006676D01*
X009023Y007404D02*
X008676Y007404D01*
X008721Y007452D02*
X008981Y007452D01*
X007520Y007307D02*
X006661Y007307D01*
X006662Y007314D02*
X006675Y007354D01*
X006697Y007390D01*
X006716Y007416D01*
X006748Y007449D01*
X006786Y007474D01*
X006829Y007490D01*
X006874Y007495D01*
X006890Y007495D01*
X006933Y007490D01*
X006974Y007476D01*
X007011Y007453D01*
X007042Y007423D01*
X007066Y007386D01*
X007090Y007337D01*
X007115Y007386D01*
X007138Y007423D01*
X007169Y007453D01*
X007206Y007476D01*
X007248Y007490D01*
X007291Y007495D01*
X007307Y007495D01*
X007352Y007490D01*
X007395Y007474D01*
X007433Y007449D01*
X007464Y007416D01*
X007484Y007390D01*
X007506Y007354D01*
X007519Y007314D01*
X007523Y007272D01*
X007523Y007217D01*
X007520Y007181D01*
X007510Y007146D01*
X007494Y007113D01*
X007472Y007084D01*
X007090Y006668D01*
X006709Y007084D01*
X006687Y007113D01*
X006671Y007146D01*
X006661Y007181D01*
X006657Y007217D01*
X006657Y007272D01*
X006662Y007314D01*
X006676Y007355D02*
X007082Y007355D01*
X007099Y007355D02*
X007505Y007355D01*
X007474Y007404D02*
X007126Y007404D01*
X007169Y007452D02*
X007429Y007452D01*
X007523Y007258D02*
X006657Y007258D01*
X006658Y007210D02*
X007523Y007210D01*
X007514Y007161D02*
X006666Y007161D01*
X006687Y007113D02*
X007493Y007113D01*
X007453Y007064D02*
X006727Y007064D01*
X006772Y007016D02*
X007409Y007016D01*
X007365Y006967D02*
X006816Y006967D01*
X006861Y006919D02*
X007320Y006919D01*
X007276Y006870D02*
X006905Y006870D01*
X006950Y006822D02*
X007231Y006822D01*
X007187Y006773D02*
X006994Y006773D01*
X007039Y006725D02*
X007142Y006725D01*
X007098Y006676D02*
X007083Y006676D01*
X007055Y007404D02*
X006707Y007404D01*
X006752Y007452D02*
X007012Y007452D01*
X005551Y007307D02*
X004693Y007307D01*
X004693Y007314D02*
X004707Y007354D01*
X004728Y007390D01*
X004748Y007416D01*
X004779Y007449D01*
X004817Y007474D01*
X004860Y007490D01*
X004905Y007495D01*
X004921Y007495D01*
X004965Y007490D01*
X005006Y007476D01*
X005043Y007453D01*
X005074Y007423D01*
X005098Y007386D01*
X005122Y007337D01*
X005146Y007386D01*
X005170Y007423D01*
X005201Y007453D01*
X005238Y007476D01*
X005279Y007490D01*
X005322Y007495D01*
X005338Y007495D01*
X005384Y007490D01*
X005426Y007474D01*
X005465Y007449D01*
X005496Y007416D01*
X005516Y007390D01*
X005537Y007354D01*
X005550Y007314D01*
X005555Y007272D01*
X005555Y007217D01*
X005552Y007181D01*
X005542Y007146D01*
X005525Y007113D01*
X005503Y007084D01*
X005122Y006668D01*
X004741Y007084D01*
X004719Y007113D01*
X005525Y007113D01*
X005546Y007161D02*
X004698Y007161D01*
X004702Y007146D02*
X004692Y007181D01*
X004689Y007217D01*
X004689Y007272D01*
X004693Y007314D01*
X004708Y007355D02*
X005113Y007355D01*
X005131Y007355D02*
X005536Y007355D01*
X005505Y007404D02*
X005158Y007404D01*
X005200Y007452D02*
X005460Y007452D01*
X005555Y007258D02*
X004689Y007258D01*
X004690Y007210D02*
X005554Y007210D01*
X005485Y007064D02*
X004759Y007064D01*
X004719Y007113D02*
X004702Y007146D01*
X004803Y007016D02*
X005440Y007016D01*
X005396Y006967D02*
X004848Y006967D01*
X004892Y006919D02*
X005352Y006919D01*
X005307Y006870D02*
X004937Y006870D01*
X004981Y006822D02*
X005263Y006822D01*
X005218Y006773D02*
X005026Y006773D01*
X005070Y006725D02*
X005174Y006725D01*
X005129Y006676D02*
X005115Y006676D01*
X005086Y007404D02*
X004739Y007404D01*
X004784Y007452D02*
X005044Y007452D01*
X004921Y005526D02*
X004965Y005522D01*
X005006Y005507D01*
X005043Y005485D01*
X005074Y005454D01*
X005098Y005418D01*
X005122Y005369D01*
X005146Y005418D01*
X005170Y005454D01*
X005201Y005485D01*
X005238Y005507D01*
X005279Y005522D01*
X005322Y005526D01*
X005338Y005526D01*
X005384Y005521D01*
X005426Y005506D01*
X005465Y005481D01*
X005496Y005448D01*
X005516Y005421D01*
X005537Y005385D01*
X005550Y005345D01*
X005555Y005303D01*
X005555Y005249D01*
X005552Y005212D01*
X005542Y005177D01*
X005525Y005145D01*
X005503Y005116D01*
X005122Y004700D01*
X004741Y005116D01*
X004719Y005145D01*
X004702Y005177D01*
X004692Y005212D01*
X004689Y005249D01*
X004689Y005303D01*
X004693Y005345D01*
X004707Y005385D01*
X004728Y005421D01*
X004748Y005448D01*
X004779Y005481D01*
X004817Y005506D01*
X004860Y005521D01*
X004905Y005526D01*
X004921Y005526D01*
X004992Y005512D02*
X004835Y005512D01*
X004763Y005464D02*
X005064Y005464D01*
X005099Y005415D02*
X004724Y005415D01*
X004700Y005367D02*
X005543Y005367D01*
X005553Y005318D02*
X004690Y005318D01*
X004689Y005270D02*
X005555Y005270D01*
X005552Y005221D02*
X004691Y005221D01*
X004705Y005173D02*
X005539Y005173D01*
X005510Y005124D02*
X004734Y005124D01*
X004777Y005076D02*
X005467Y005076D01*
X005422Y005027D02*
X004822Y005027D01*
X004866Y004979D02*
X005378Y004979D01*
X005333Y004930D02*
X004911Y004930D01*
X004955Y004882D02*
X005289Y004882D01*
X005244Y004833D02*
X005000Y004833D01*
X005044Y004785D02*
X005200Y004785D01*
X005155Y004736D02*
X005088Y004736D01*
X005145Y005415D02*
X005519Y005415D01*
X005481Y005464D02*
X005180Y005464D01*
X005252Y005512D02*
X005408Y005512D01*
X006662Y005345D02*
X006675Y005385D01*
X006697Y005421D01*
X006716Y005448D01*
X006748Y005481D01*
X006786Y005506D01*
X006829Y005521D01*
X006874Y005526D01*
X006890Y005526D01*
X006933Y005522D01*
X006974Y005507D01*
X007011Y005485D01*
X007042Y005454D01*
X007066Y005418D01*
X007090Y005369D01*
X007115Y005418D01*
X007138Y005454D01*
X007169Y005485D01*
X007206Y005507D01*
X007248Y005522D01*
X007291Y005526D01*
X007307Y005526D01*
X007352Y005521D01*
X007395Y005506D01*
X007433Y005481D01*
X007464Y005448D01*
X007484Y005421D01*
X007506Y005385D01*
X007519Y005345D01*
X007523Y005303D01*
X007523Y005249D01*
X007520Y005212D01*
X007510Y005177D01*
X007494Y005145D01*
X007472Y005116D01*
X007090Y004700D01*
X006709Y005116D01*
X006687Y005145D01*
X006671Y005177D01*
X006661Y005212D01*
X006657Y005249D01*
X006657Y005303D01*
X006662Y005345D01*
X006669Y005367D02*
X007512Y005367D01*
X007522Y005318D02*
X006659Y005318D01*
X006657Y005270D02*
X007523Y005270D01*
X007521Y005221D02*
X006660Y005221D01*
X006673Y005173D02*
X007508Y005173D01*
X007478Y005124D02*
X006703Y005124D01*
X006746Y005076D02*
X007435Y005076D01*
X007391Y005027D02*
X006790Y005027D01*
X006835Y004979D02*
X007346Y004979D01*
X007302Y004930D02*
X006879Y004930D01*
X006924Y004882D02*
X007257Y004882D01*
X007213Y004833D02*
X006968Y004833D01*
X007012Y004785D02*
X007168Y004785D01*
X007124Y004736D02*
X007057Y004736D01*
X007067Y005415D02*
X006693Y005415D01*
X006732Y005464D02*
X007033Y005464D01*
X006961Y005512D02*
X006804Y005512D01*
X007114Y005415D02*
X007488Y005415D01*
X007449Y005464D02*
X007148Y005464D01*
X007220Y005512D02*
X007377Y005512D01*
X008630Y005345D02*
X008644Y005385D01*
X008665Y005421D01*
X008685Y005448D01*
X008716Y005481D01*
X008754Y005506D01*
X008797Y005521D01*
X008842Y005526D01*
X008859Y005526D01*
X008902Y005522D01*
X008943Y005507D01*
X008980Y005485D01*
X009011Y005454D01*
X009035Y005418D01*
X009059Y005369D01*
X009083Y005418D01*
X009107Y005454D01*
X009138Y005485D01*
X009175Y005507D01*
X009216Y005522D01*
X009259Y005526D01*
X009275Y005526D01*
X009321Y005521D01*
X009363Y005506D01*
X009402Y005481D01*
X009433Y005448D01*
X009453Y005421D01*
X009474Y005385D01*
X009487Y005345D01*
X009492Y005303D01*
X009492Y005249D01*
X009489Y005212D01*
X009479Y005177D01*
X009462Y005145D01*
X009440Y005116D01*
X009059Y004700D01*
X008678Y005116D01*
X008656Y005145D01*
X008639Y005177D01*
X008629Y005212D01*
X008626Y005249D01*
X008626Y005303D01*
X008630Y005345D01*
X008637Y005367D02*
X009480Y005367D01*
X009490Y005318D02*
X008627Y005318D01*
X008626Y005270D02*
X009492Y005270D01*
X009489Y005221D02*
X008628Y005221D01*
X008642Y005173D02*
X009476Y005173D01*
X009447Y005124D02*
X008671Y005124D01*
X008714Y005076D02*
X009404Y005076D01*
X009359Y005027D02*
X008759Y005027D01*
X008803Y004979D02*
X009315Y004979D01*
X009270Y004930D02*
X008848Y004930D01*
X008892Y004882D02*
X009226Y004882D01*
X009181Y004833D02*
X008937Y004833D01*
X008981Y004785D02*
X009137Y004785D01*
X009092Y004736D02*
X009025Y004736D01*
X009036Y005415D02*
X008661Y005415D01*
X008700Y005464D02*
X009001Y005464D01*
X008929Y005512D02*
X008772Y005512D01*
X009082Y005415D02*
X009456Y005415D01*
X009418Y005464D02*
X009117Y005464D01*
X009189Y005512D02*
X009345Y005512D01*
X009275Y003755D02*
X009321Y003749D01*
X009363Y003734D01*
X009402Y003709D01*
X009433Y003676D01*
X009453Y003650D01*
X009474Y003614D01*
X009487Y003574D01*
X009492Y003532D01*
X009492Y003477D01*
X009489Y003441D01*
X009479Y003406D01*
X009462Y003373D01*
X009440Y003344D01*
X009059Y002928D01*
X008678Y003344D01*
X008656Y003373D01*
X008639Y003406D01*
X008629Y003441D01*
X008626Y003477D01*
X008626Y003532D01*
X008630Y003574D01*
X008644Y003614D01*
X008665Y003650D01*
X008685Y003676D01*
X008716Y003709D01*
X008754Y003734D01*
X008797Y003749D01*
X008842Y003755D01*
X008859Y003755D01*
X008902Y003750D01*
X008943Y003736D01*
X008980Y003713D01*
X009011Y003682D01*
X009035Y003646D01*
X009059Y003597D01*
X009083Y003646D01*
X009107Y003682D01*
X009138Y003713D01*
X009175Y003736D01*
X009216Y003750D01*
X009259Y003755D01*
X009275Y003755D01*
X009388Y003718D02*
X009146Y003718D01*
X009098Y003669D02*
X009438Y003669D01*
X009470Y003621D02*
X009071Y003621D01*
X009047Y003621D02*
X008648Y003621D01*
X008630Y003572D02*
X009488Y003572D01*
X009492Y003524D02*
X008626Y003524D01*
X008626Y003475D02*
X009492Y003475D01*
X009485Y003427D02*
X008633Y003427D01*
X008653Y003378D02*
X009465Y003378D01*
X009427Y003330D02*
X008691Y003330D01*
X008735Y003281D02*
X009383Y003281D01*
X009338Y003233D02*
X008780Y003233D01*
X008824Y003184D02*
X009294Y003184D01*
X009249Y003136D02*
X008869Y003136D01*
X008913Y003087D02*
X009205Y003087D01*
X009160Y003039D02*
X008957Y003039D01*
X009002Y002990D02*
X009116Y002990D01*
X009071Y002942D02*
X009046Y002942D01*
X009020Y003669D02*
X008680Y003669D01*
X008729Y003718D02*
X008972Y003718D01*
X007519Y003572D02*
X006662Y003572D01*
X006662Y003574D02*
X006675Y003614D01*
X006697Y003650D01*
X006716Y003676D01*
X006748Y003709D01*
X006786Y003734D01*
X006829Y003749D01*
X006874Y003755D01*
X006890Y003755D01*
X006933Y003750D01*
X006974Y003736D01*
X007011Y003713D01*
X007042Y003682D01*
X007066Y003646D01*
X007090Y003597D01*
X007115Y003646D01*
X007138Y003682D01*
X007169Y003713D01*
X007206Y003736D01*
X007248Y003750D01*
X007291Y003755D01*
X007307Y003755D01*
X007352Y003749D01*
X007395Y003734D01*
X007433Y003709D01*
X007464Y003676D01*
X007484Y003650D01*
X007506Y003614D01*
X007519Y003574D01*
X007523Y003532D01*
X007523Y003477D01*
X007520Y003441D01*
X007510Y003406D01*
X007494Y003373D01*
X007472Y003344D01*
X007090Y002928D01*
X006709Y003344D01*
X006687Y003373D01*
X006671Y003406D01*
X006661Y003441D01*
X006657Y003477D01*
X006657Y003532D01*
X006662Y003574D01*
X006679Y003621D02*
X007079Y003621D01*
X007102Y003621D02*
X007501Y003621D01*
X007470Y003669D02*
X007130Y003669D01*
X007177Y003718D02*
X007420Y003718D01*
X007523Y003524D02*
X006657Y003524D01*
X006658Y003475D02*
X007523Y003475D01*
X007516Y003427D02*
X006665Y003427D01*
X006684Y003378D02*
X007496Y003378D01*
X007459Y003330D02*
X006722Y003330D01*
X006767Y003281D02*
X007414Y003281D01*
X007370Y003233D02*
X006811Y003233D01*
X006856Y003184D02*
X007325Y003184D01*
X007281Y003136D02*
X006900Y003136D01*
X006944Y003087D02*
X007236Y003087D01*
X007192Y003039D02*
X006989Y003039D01*
X007033Y002990D02*
X007147Y002990D01*
X007103Y002942D02*
X007078Y002942D01*
X007051Y003669D02*
X006711Y003669D01*
X006761Y003718D02*
X007004Y003718D01*
X005551Y003572D02*
X004693Y003572D01*
X004693Y003574D02*
X004707Y003614D01*
X004728Y003650D01*
X004748Y003676D01*
X004779Y003709D01*
X004817Y003734D01*
X004860Y003749D01*
X004905Y003755D01*
X004921Y003755D01*
X004965Y003750D01*
X005006Y003736D01*
X005043Y003713D01*
X005074Y003682D01*
X005098Y003646D01*
X005122Y003597D01*
X005146Y003646D01*
X005170Y003682D01*
X005201Y003713D01*
X005238Y003736D01*
X005279Y003750D01*
X005322Y003755D01*
X005338Y003755D01*
X005384Y003749D01*
X005426Y003734D01*
X005465Y003709D01*
X005496Y003676D01*
X005516Y003650D01*
X005537Y003614D01*
X005550Y003574D01*
X005555Y003532D01*
X005555Y003477D01*
X005552Y003441D01*
X005542Y003406D01*
X005525Y003373D01*
X005503Y003344D01*
X005122Y002928D01*
X004741Y003344D01*
X004719Y003373D01*
X004702Y003406D01*
X004692Y003441D01*
X004689Y003477D01*
X004689Y003532D01*
X004693Y003574D01*
X004711Y003621D02*
X005110Y003621D01*
X005134Y003621D02*
X005533Y003621D01*
X005501Y003669D02*
X005161Y003669D01*
X005209Y003718D02*
X005451Y003718D01*
X005555Y003524D02*
X004689Y003524D01*
X004689Y003475D02*
X005555Y003475D01*
X005548Y003427D02*
X004696Y003427D01*
X004716Y003378D02*
X005528Y003378D01*
X005490Y003330D02*
X004754Y003330D01*
X004798Y003281D02*
X005446Y003281D01*
X005401Y003233D02*
X004843Y003233D01*
X004887Y003184D02*
X005357Y003184D01*
X005312Y003136D02*
X004932Y003136D01*
X004976Y003087D02*
X005268Y003087D01*
X005223Y003039D02*
X005020Y003039D01*
X005065Y002990D02*
X005179Y002990D01*
X005134Y002942D02*
X005109Y002942D01*
X005083Y003669D02*
X004743Y003669D01*
X004792Y003718D02*
X005035Y003718D01*
X004921Y001983D02*
X004965Y001978D01*
X005006Y001964D01*
X005043Y001941D01*
X005074Y001911D01*
X005098Y001874D01*
X005122Y001826D01*
X005542Y001826D01*
X005537Y001842D02*
X005550Y001802D01*
X005555Y001760D01*
X005555Y001705D01*
X005552Y001669D01*
X005542Y001634D01*
X005525Y001601D01*
X005503Y001572D01*
X005122Y001156D01*
X004741Y001572D01*
X004719Y001601D01*
X004702Y001634D01*
X004692Y001669D01*
X004689Y001705D01*
X004689Y001760D01*
X004693Y001802D01*
X004707Y001842D01*
X004728Y001878D01*
X004748Y001904D01*
X004779Y001937D01*
X004817Y001962D01*
X004860Y001978D01*
X004905Y001983D01*
X004921Y001983D01*
X004984Y001972D02*
X004843Y001972D01*
X004766Y001923D02*
X005061Y001923D01*
X005097Y001875D02*
X004726Y001875D01*
X004701Y001826D02*
X005122Y001826D01*
X005146Y001874D01*
X005170Y001911D01*
X005201Y001941D01*
X005238Y001964D01*
X005279Y001978D01*
X005322Y001983D01*
X005338Y001983D01*
X005384Y001978D01*
X005426Y001962D01*
X005465Y001937D01*
X005496Y001904D01*
X005516Y001878D01*
X005537Y001842D01*
X005518Y001875D02*
X005146Y001875D01*
X005182Y001923D02*
X005478Y001923D01*
X005401Y001972D02*
X005260Y001972D01*
X005553Y001778D02*
X004691Y001778D01*
X004689Y001729D02*
X005555Y001729D01*
X005553Y001681D02*
X004691Y001681D01*
X004703Y001632D02*
X005541Y001632D01*
X005512Y001584D02*
X004732Y001584D01*
X004775Y001535D02*
X005469Y001535D01*
X005425Y001487D02*
X004819Y001487D01*
X004864Y001438D02*
X005380Y001438D01*
X005336Y001390D02*
X004908Y001390D01*
X004952Y001341D02*
X005291Y001341D01*
X005247Y001293D02*
X004997Y001293D01*
X005041Y001244D02*
X005202Y001244D01*
X005158Y001196D02*
X005086Y001196D01*
X006671Y001634D02*
X006661Y001669D01*
X006657Y001705D01*
X006657Y001760D01*
X006662Y001802D01*
X006675Y001842D01*
X006697Y001878D01*
X006716Y001904D01*
X006748Y001937D01*
X006786Y001962D01*
X006829Y001978D01*
X006874Y001983D01*
X006890Y001983D01*
X006933Y001978D01*
X006974Y001964D01*
X007011Y001941D01*
X007042Y001911D01*
X007066Y001874D01*
X007090Y001826D01*
X006670Y001826D01*
X006659Y001778D02*
X007522Y001778D01*
X007523Y001760D02*
X007523Y001705D01*
X007520Y001669D01*
X007510Y001634D01*
X007494Y001601D01*
X007472Y001572D01*
X007090Y001156D01*
X006709Y001572D01*
X006687Y001601D01*
X006671Y001634D01*
X006672Y001632D02*
X007509Y001632D01*
X007521Y001681D02*
X006660Y001681D01*
X006657Y001729D02*
X007523Y001729D01*
X007523Y001760D02*
X007519Y001802D01*
X007506Y001842D01*
X007484Y001878D01*
X007464Y001904D01*
X007433Y001937D01*
X007395Y001962D01*
X007352Y001978D01*
X007307Y001983D01*
X007291Y001983D01*
X007248Y001978D01*
X007206Y001964D01*
X007169Y001941D01*
X007138Y001911D01*
X007115Y001874D01*
X007090Y001826D01*
X007091Y001826D02*
X007511Y001826D01*
X007486Y001875D02*
X007115Y001875D01*
X007066Y001875D02*
X006695Y001875D01*
X006734Y001923D02*
X007030Y001923D01*
X006953Y001972D02*
X006812Y001972D01*
X007151Y001923D02*
X007447Y001923D01*
X007369Y001972D02*
X007228Y001972D01*
X007480Y001584D02*
X006700Y001584D01*
X006743Y001535D02*
X007438Y001535D01*
X007393Y001487D02*
X006788Y001487D01*
X006832Y001438D02*
X007349Y001438D01*
X007304Y001390D02*
X006877Y001390D01*
X006921Y001341D02*
X007260Y001341D01*
X007215Y001293D02*
X006965Y001293D01*
X007010Y001244D02*
X007171Y001244D01*
X007126Y001196D02*
X007054Y001196D01*
X008639Y001634D02*
X008629Y001669D01*
X008626Y001705D01*
X008626Y001760D01*
X008630Y001802D01*
X008644Y001842D01*
X008665Y001878D01*
X008685Y001904D01*
X008716Y001937D01*
X008754Y001962D01*
X008797Y001978D01*
X008842Y001983D01*
X008859Y001983D01*
X008902Y001978D01*
X008943Y001964D01*
X008980Y001941D01*
X009011Y001911D01*
X009035Y001874D01*
X009059Y001826D01*
X009479Y001826D01*
X009474Y001842D02*
X009487Y001802D01*
X009492Y001760D01*
X009492Y001705D01*
X009489Y001669D01*
X009479Y001634D01*
X009462Y001601D01*
X009440Y001572D01*
X009059Y001156D01*
X008678Y001572D01*
X008656Y001601D01*
X008639Y001634D01*
X008640Y001632D02*
X009478Y001632D01*
X009490Y001681D02*
X008628Y001681D01*
X008626Y001729D02*
X009492Y001729D01*
X009490Y001778D02*
X008628Y001778D01*
X008638Y001826D02*
X009059Y001826D01*
X009083Y001874D01*
X009107Y001911D01*
X009138Y001941D01*
X009175Y001964D01*
X009216Y001978D01*
X009259Y001983D01*
X009275Y001983D01*
X009321Y001978D01*
X009363Y001962D01*
X009402Y001937D01*
X009433Y001904D01*
X009453Y001878D01*
X009474Y001842D01*
X009455Y001875D02*
X009083Y001875D01*
X009034Y001875D02*
X008663Y001875D01*
X008703Y001923D02*
X008998Y001923D01*
X008921Y001972D02*
X008780Y001972D01*
X009119Y001923D02*
X009415Y001923D01*
X009338Y001972D02*
X009197Y001972D01*
X009449Y001584D02*
X008669Y001584D01*
X008712Y001535D02*
X009406Y001535D01*
X009362Y001487D02*
X008756Y001487D01*
X008801Y001438D02*
X009317Y001438D01*
X009273Y001390D02*
X008845Y001390D01*
X008889Y001341D02*
X009228Y001341D01*
X009184Y001293D02*
X008934Y001293D01*
X008978Y001244D02*
X009139Y001244D01*
X009095Y001196D02*
X009023Y001196D01*
D15*
X009056Y001553D02*
X009062Y001553D01*
X009062Y001547D01*
X009056Y001547D01*
X009056Y001553D01*
X009056Y003325D02*
X009062Y003325D01*
X009062Y003319D01*
X009056Y003319D01*
X009056Y003325D01*
X009056Y005096D02*
X009062Y005096D01*
X009062Y005090D01*
X009056Y005090D01*
X009056Y005096D01*
X007093Y005096D02*
X007087Y005096D01*
X007093Y005096D02*
X007093Y005090D01*
X007087Y005090D01*
X007087Y005096D01*
X005125Y005096D02*
X005119Y005096D01*
X005125Y005096D02*
X005125Y005090D01*
X005119Y005090D01*
X005119Y005096D01*
X005119Y003325D02*
X005125Y003325D01*
X005125Y003319D01*
X005119Y003319D01*
X005119Y003325D01*
X005119Y001553D02*
X005125Y001553D01*
X005125Y001547D01*
X005119Y001547D01*
X005119Y001553D01*
X007087Y001553D02*
X007093Y001553D01*
X007093Y001547D01*
X007087Y001547D01*
X007087Y001553D01*
X007087Y003325D02*
X007093Y003325D01*
X007093Y003319D01*
X007087Y003319D01*
X007087Y003325D01*
X007087Y007065D02*
X007093Y007065D01*
X007093Y007059D01*
X007087Y007059D01*
X007087Y007065D01*
X005125Y007065D02*
X005119Y007065D01*
X005125Y007065D02*
X005125Y007059D01*
X005119Y007059D01*
X005119Y007065D01*
X005119Y009033D02*
X005125Y009033D01*
X005125Y009027D01*
X005119Y009027D01*
X005119Y009033D01*
X005119Y010805D02*
X005125Y010805D01*
X005125Y010799D01*
X005119Y010799D01*
X005119Y010805D01*
X007087Y010805D02*
X007093Y010805D01*
X007093Y010799D01*
X007087Y010799D01*
X007087Y010805D01*
X007087Y009033D02*
X007093Y009033D01*
X007093Y009027D01*
X007087Y009027D01*
X007087Y009033D01*
X009056Y009033D02*
X009062Y009033D01*
X009062Y009027D01*
X009056Y009027D01*
X009056Y009033D01*
X009056Y010805D02*
X009062Y010805D01*
X009062Y010799D01*
X009056Y010799D01*
X009056Y010805D01*
X009056Y007065D02*
X009062Y007065D01*
X009062Y007059D01*
X009056Y007059D01*
X009056Y007065D01*
D16*
X004074Y014319D03*
X004174Y015319D03*
X004074Y016319D03*
X004174Y017319D03*
X004074Y018319D03*
X004174Y019319D03*
D17*
X014416Y020968D03*
X016400Y020968D03*
D18*
X017516Y021411D03*
X017772Y021411D03*
X018028Y021411D03*
X018284Y021411D03*
X018540Y021411D03*
D19*
X018638Y022351D02*
X018218Y022351D01*
X018218Y022771D01*
X018638Y022771D01*
X018638Y022351D01*
X018638Y022530D02*
X018218Y022530D01*
X018218Y022709D02*
X018638Y022709D01*
X017838Y022351D02*
X017418Y022351D01*
X017418Y022771D01*
X017838Y022771D01*
X017838Y022351D01*
X017838Y022530D02*
X017418Y022530D01*
X017418Y022709D02*
X017838Y022709D01*
D20*
X016473Y022561D03*
X019583Y022561D03*
D21*
X021375Y021630D03*
X021375Y019267D03*
X025705Y019267D03*
X025705Y021630D03*
D22*
X026064Y019952D03*
X025866Y018368D03*
X022116Y018518D03*
X020766Y020118D03*
X020766Y020520D03*
X020920Y021740D03*
X020916Y023218D03*
X021416Y023218D03*
X021916Y023218D03*
X020416Y023218D03*
X019916Y023218D03*
X019416Y023218D03*
X018916Y023218D03*
X018416Y023218D03*
X017916Y023218D03*
X017416Y023218D03*
X016916Y023218D03*
X016416Y023218D03*
X016416Y021768D03*
X013205Y019287D03*
X012366Y019018D03*
X012116Y016918D03*
X010455Y015968D03*
X010066Y015718D03*
X010416Y015468D03*
X010105Y015218D03*
X010416Y014988D03*
X010416Y014647D03*
X009977Y014464D03*
X009587Y014488D03*
X009196Y014168D03*
X008966Y014468D03*
X008992Y015503D03*
X009544Y015448D03*
X009866Y016568D03*
X010266Y016568D03*
X008766Y017968D03*
X009416Y018268D03*
X010016Y018268D03*
X008816Y020118D03*
X008466Y020168D03*
X007516Y020568D03*
X007216Y019418D03*
X006199Y018954D03*
X006916Y017968D03*
X007816Y015518D03*
X010316Y014168D03*
X010995Y014179D03*
X010961Y014563D03*
X012118Y013929D03*
X011270Y013193D03*
X013666Y014968D03*
X014466Y013668D03*
X016666Y014793D03*
X017516Y014668D03*
X017516Y014318D03*
X017616Y015118D03*
X018316Y015118D03*
X019905Y015120D03*
X019941Y014377D03*
X021016Y013668D03*
X021666Y012968D03*
X021677Y012369D03*
X020380Y012310D03*
X017980Y012345D03*
X017229Y012269D03*
X016829Y012269D03*
X014547Y011030D03*
X014547Y010546D03*
X014047Y010546D03*
X014047Y011030D03*
X014047Y010046D03*
X014047Y009562D03*
X014547Y009562D03*
X014547Y010046D03*
X014547Y009062D03*
X014547Y008578D03*
X014047Y008578D03*
X014047Y009062D03*
X014047Y008078D03*
X014047Y007593D03*
X014047Y007093D03*
X014047Y006609D03*
X014047Y006109D03*
X014047Y005625D03*
X014547Y005625D03*
X014547Y006109D03*
X014547Y006609D03*
X014547Y007093D03*
X014547Y007593D03*
X014547Y008078D03*
X012696Y010503D03*
X012229Y010487D03*
X010882Y009119D03*
X010882Y008763D03*
X009968Y009344D03*
X010119Y007739D03*
X011079Y006369D03*
X011079Y006019D03*
X011129Y005419D03*
X012079Y002869D03*
X012579Y002869D03*
X012579Y002369D03*
X012579Y001885D03*
X012579Y001385D03*
X012079Y001385D03*
X011594Y001385D03*
X011594Y001885D03*
X012079Y001885D03*
X012079Y002369D03*
X011094Y001885D03*
X010610Y001885D03*
X010110Y001885D03*
X010110Y001385D03*
X010610Y001385D03*
X011094Y001385D03*
X010979Y002669D03*
X008479Y002369D03*
X007429Y002369D03*
X006429Y002369D03*
X006378Y004239D03*
X005878Y004239D03*
X005878Y004739D03*
X006378Y004739D03*
X006378Y006011D03*
X005878Y006011D03*
X005878Y006511D03*
X006378Y006511D03*
X006378Y007979D03*
X005878Y007979D03*
X005878Y008479D03*
X006378Y008479D03*
X005129Y011469D03*
X007079Y012669D03*
X014916Y016468D03*
X018216Y018218D03*
X021166Y015468D03*
X021166Y014968D03*
X021666Y015468D03*
X014547Y005125D03*
X014547Y004641D03*
X014047Y004641D03*
X014047Y005125D03*
X014047Y004141D03*
X014547Y004141D03*
X014693Y001467D03*
X014705Y000968D03*
X015205Y000968D03*
X015705Y000968D03*
X015693Y001467D03*
X015193Y001467D03*
X016193Y001467D03*
X016205Y000968D03*
X016705Y000968D03*
X017166Y000968D03*
X017153Y001467D03*
X016693Y001467D03*
X017653Y001467D03*
X017666Y000968D03*
X018166Y000968D03*
X018153Y001467D03*
X018653Y001467D03*
X019153Y001467D03*
X019166Y000968D03*
X018666Y000968D03*
X019666Y000968D03*
X019653Y001467D03*
X020153Y001467D03*
X020627Y001469D03*
X021127Y001469D03*
X021627Y001469D03*
X022127Y001469D03*
X022606Y001467D03*
X022619Y001952D03*
X022606Y002452D03*
X023106Y002452D03*
X023579Y002453D03*
X023579Y001953D03*
X023119Y001952D03*
X023106Y001467D03*
X023579Y001469D03*
X023579Y000969D03*
X023119Y000968D03*
X022619Y000968D03*
X022127Y000969D03*
X021627Y000969D03*
X021127Y000969D03*
X020627Y000969D03*
X020166Y000968D03*
X022129Y003419D03*
X024079Y002453D03*
X024079Y001953D03*
X024079Y001469D03*
X024079Y000969D03*
X024579Y000969D03*
X024579Y001469D03*
X024579Y001953D03*
X024579Y002453D03*
X025079Y002453D03*
X025079Y001953D03*
X025079Y001469D03*
X025079Y000969D03*
X008816Y021668D03*
D23*
X008522Y020448D02*
X008410Y020448D01*
X008307Y020405D01*
X008229Y020327D01*
X008186Y020224D01*
X008186Y020143D01*
X007636Y019593D01*
X007636Y017044D01*
X007631Y017046D01*
X007520Y017046D01*
X007417Y017004D01*
X007353Y016940D01*
X007353Y017131D01*
X007054Y017429D01*
X006632Y017429D01*
X006477Y017275D01*
X006373Y017433D01*
X006384Y017460D01*
X006384Y017571D01*
X006342Y017673D01*
X006263Y017752D01*
X006161Y017794D01*
X006050Y017794D01*
X006007Y017777D01*
X005992Y017814D01*
X005913Y017892D01*
X005811Y017935D01*
X005700Y017935D01*
X005597Y017892D01*
X005519Y017814D01*
X005507Y017785D01*
X005493Y017782D01*
X005463Y017736D01*
X005143Y017415D01*
X005125Y017415D01*
X005042Y017498D01*
X004652Y017498D01*
X004606Y017607D01*
X004463Y017751D01*
X004275Y017829D01*
X004072Y017829D01*
X003885Y017751D01*
X003742Y017607D01*
X003664Y017420D01*
X003664Y017217D01*
X003742Y017030D01*
X003885Y016886D01*
X004024Y016829D01*
X003972Y016829D01*
X003785Y016751D01*
X003642Y016607D01*
X003564Y016420D01*
X003564Y016217D01*
X003642Y016030D01*
X003785Y015886D01*
X003972Y015809D01*
X004024Y015809D01*
X003885Y015751D01*
X003742Y015607D01*
X003664Y015420D01*
X003664Y015217D01*
X003742Y015030D01*
X003885Y014886D01*
X004024Y014829D01*
X003972Y014829D01*
X003785Y014751D01*
X003642Y014607D01*
X003564Y014420D01*
X003564Y014217D01*
X003642Y014030D01*
X003785Y013886D01*
X003898Y013839D01*
X003898Y002879D01*
X003864Y002849D01*
X003852Y002667D01*
X004536Y001885D01*
X004535Y001877D01*
X004530Y001867D01*
X004533Y001855D01*
X004531Y001837D01*
X004530Y001835D01*
X004524Y001828D01*
X004524Y001815D01*
X004515Y001789D01*
X004524Y001772D01*
X004524Y001769D01*
X004523Y001764D01*
X004518Y001758D01*
X004520Y001736D01*
X004517Y001710D01*
X004523Y001703D01*
X004515Y001689D01*
X004524Y001658D01*
X004524Y001637D01*
X004528Y001633D01*
X004524Y001621D01*
X004533Y001604D01*
X004534Y001586D01*
X004547Y001575D01*
X004548Y001574D01*
X004548Y001573D01*
X004546Y001556D01*
X004557Y001541D01*
X004562Y001523D01*
X004573Y001517D01*
X004573Y001511D01*
X004587Y001496D01*
X004602Y001466D01*
X004618Y001461D01*
X004650Y001418D01*
X004659Y001417D01*
X004960Y001089D01*
X004960Y001081D01*
X005005Y001040D01*
X005046Y000994D01*
X005055Y000994D01*
X005061Y000988D01*
X005122Y000991D01*
X005183Y000988D01*
X005189Y000994D01*
X005197Y000994D01*
X005239Y001040D01*
X005284Y001081D01*
X005284Y001089D01*
X005585Y001417D01*
X005593Y001418D01*
X005626Y001461D01*
X005642Y001466D01*
X005657Y001496D01*
X005671Y001511D01*
X005671Y001517D01*
X005681Y001523D01*
X005687Y001541D01*
X005698Y001556D01*
X005696Y001573D01*
X005696Y001574D01*
X005697Y001575D01*
X005710Y001586D01*
X005711Y001604D01*
X005720Y001621D01*
X005716Y001633D01*
X005720Y001637D01*
X005720Y001658D01*
X005729Y001689D01*
X005721Y001703D01*
X005726Y001710D01*
X005724Y001736D01*
X005726Y001758D01*
X005720Y001764D01*
X005720Y001769D01*
X005720Y001772D01*
X005729Y001789D01*
X005720Y001815D01*
X005720Y001828D01*
X005713Y001835D01*
X005713Y001837D01*
X005711Y001855D01*
X005714Y001867D01*
X005708Y001877D01*
X005707Y001887D01*
X005697Y001896D01*
X005688Y001911D01*
X005687Y001913D01*
X005689Y001922D01*
X005681Y001933D01*
X005672Y001959D01*
X005663Y001964D01*
X005663Y001968D01*
X005639Y001993D01*
X005623Y002021D01*
X005615Y002023D01*
X005612Y002038D01*
X005592Y002051D01*
X005587Y002058D01*
X005580Y002059D01*
X005571Y002065D01*
X005551Y002086D01*
X005547Y002094D01*
X005541Y002096D01*
X005537Y002101D01*
X005529Y002101D01*
X005501Y002111D01*
X005476Y002127D01*
X005471Y002134D01*
X005465Y002134D01*
X005460Y002138D01*
X005451Y002136D01*
X005422Y002139D01*
X005412Y002143D01*
X005407Y002148D01*
X005398Y002148D01*
X005376Y002156D01*
X005372Y002155D01*
X005331Y002150D01*
X005294Y002154D01*
X005290Y002157D01*
X005265Y002148D01*
X005254Y002148D01*
X005248Y002142D01*
X005243Y002140D01*
X005220Y002138D01*
X005209Y002140D01*
X005202Y002136D01*
X005193Y002135D01*
X005186Y002126D01*
X005167Y002114D01*
X005146Y002107D01*
X005134Y002107D01*
X005128Y002101D01*
X005122Y002099D01*
X005116Y002101D01*
X005109Y002107D01*
X005098Y002107D01*
X005077Y002114D01*
X005058Y002126D01*
X005051Y002135D01*
X005042Y002136D01*
X005034Y002140D01*
X005023Y002138D01*
X005001Y002140D01*
X004996Y002142D01*
X004990Y002148D01*
X004978Y002148D01*
X004954Y002157D01*
X004949Y002154D01*
X004913Y002150D01*
X004886Y002153D01*
X004257Y002872D01*
X004257Y008119D01*
X004749Y007627D01*
X004743Y007623D01*
X004715Y007613D01*
X004707Y007612D01*
X004702Y007608D01*
X004697Y007606D01*
X004693Y007598D01*
X004673Y007577D01*
X004664Y007571D01*
X004657Y007570D01*
X004652Y007563D01*
X004632Y007550D01*
X004629Y007535D01*
X004621Y007533D01*
X004605Y007505D01*
X004581Y007480D01*
X004581Y007475D01*
X004572Y007471D01*
X004563Y007445D01*
X004555Y007434D01*
X004557Y007425D01*
X004556Y007423D01*
X004547Y007407D01*
X004537Y007399D01*
X004535Y007389D01*
X004530Y007379D01*
X004533Y007367D01*
X004531Y007349D01*
X004530Y007347D01*
X004524Y007340D01*
X004524Y007327D01*
X004515Y007301D01*
X004524Y007284D01*
X004524Y007281D01*
X004523Y007276D01*
X004518Y007270D01*
X004520Y007248D01*
X004517Y007221D01*
X004523Y007215D01*
X004515Y007201D01*
X004524Y007170D01*
X004524Y007149D01*
X004528Y007145D01*
X004524Y007133D01*
X004533Y007116D01*
X004534Y007097D01*
X004547Y007087D01*
X004548Y007086D01*
X004548Y007085D01*
X004546Y007068D01*
X004557Y007053D01*
X004562Y007035D01*
X004573Y007029D01*
X004573Y007023D01*
X004587Y007008D01*
X004602Y006978D01*
X004618Y006973D01*
X004650Y006930D01*
X004659Y006929D01*
X004960Y006601D01*
X004960Y006593D01*
X005005Y006551D01*
X005046Y006506D01*
X005055Y006506D01*
X005061Y006500D01*
X005122Y006503D01*
X005183Y006500D01*
X005189Y006506D01*
X005197Y006506D01*
X005239Y006551D01*
X005284Y006593D01*
X005284Y006601D01*
X005585Y006929D01*
X005593Y006930D01*
X005626Y006973D01*
X005642Y006978D01*
X005657Y007008D01*
X005671Y007023D01*
X005671Y007029D01*
X005681Y007035D01*
X005687Y007053D01*
X005698Y007068D01*
X005696Y007085D01*
X005696Y007086D01*
X005697Y007087D01*
X005710Y007097D01*
X005711Y007116D01*
X005720Y007133D01*
X005716Y007145D01*
X005720Y007149D01*
X005720Y007170D01*
X005729Y007201D01*
X005721Y007215D01*
X005726Y007221D01*
X005724Y007248D01*
X005726Y007270D01*
X005720Y007276D01*
X005720Y007281D01*
X005720Y007284D01*
X005729Y007301D01*
X005720Y007327D01*
X005720Y007340D01*
X005713Y007347D01*
X005713Y007349D01*
X005711Y007367D01*
X005714Y007379D01*
X005708Y007389D01*
X005707Y007399D01*
X005697Y007407D01*
X005688Y007423D01*
X005687Y007425D01*
X005689Y007434D01*
X005681Y007445D01*
X005672Y007471D01*
X005663Y007475D01*
X005663Y007480D01*
X005639Y007505D01*
X005623Y007533D01*
X005615Y007535D01*
X005612Y007550D01*
X005592Y007563D01*
X005587Y007570D01*
X005580Y007571D01*
X005571Y007577D01*
X005551Y007598D01*
X005547Y007606D01*
X005541Y007608D01*
X005537Y007612D01*
X005529Y007613D01*
X005501Y007623D01*
X005476Y007639D01*
X005471Y007646D01*
X005465Y007646D01*
X005460Y007650D01*
X005451Y007648D01*
X005422Y007651D01*
X005412Y007655D01*
X005407Y007660D01*
X005398Y007660D01*
X005376Y007668D01*
X005372Y007666D01*
X005372Y007666D01*
X005331Y007662D01*
X005294Y007666D01*
X005290Y007668D01*
X005281Y007665D01*
X005281Y007677D01*
X005152Y007806D01*
X005077Y007806D01*
X004453Y008430D01*
X004453Y012002D01*
X004745Y012293D01*
X004825Y012293D01*
X004928Y012335D01*
X005006Y012414D01*
X005049Y012517D01*
X005049Y012628D01*
X005006Y012730D01*
X004928Y012809D01*
X004825Y012851D01*
X004714Y012851D01*
X004612Y012809D01*
X004533Y012730D01*
X004491Y012628D01*
X004491Y012547D01*
X004257Y012313D01*
X004257Y013842D01*
X004363Y013886D01*
X004506Y014030D01*
X004584Y014217D01*
X004584Y014420D01*
X004506Y014607D01*
X004363Y014751D01*
X004224Y014809D01*
X004275Y014809D01*
X004463Y014886D01*
X004606Y015030D01*
X004652Y015139D01*
X004977Y015139D01*
X004914Y015076D01*
X004871Y014973D01*
X004871Y014862D01*
X004914Y014760D01*
X004992Y014681D01*
X005095Y014639D01*
X005206Y014639D01*
X005308Y014681D01*
X005334Y014707D01*
X005517Y014525D01*
X005517Y014053D01*
X005458Y013994D01*
X005415Y013891D01*
X005415Y013780D01*
X005458Y013678D01*
X005536Y013599D01*
X005639Y013557D01*
X005750Y013557D01*
X005820Y013586D01*
X005820Y009997D01*
X005441Y009618D01*
X005422Y009620D01*
X005412Y009623D01*
X005407Y009628D01*
X005398Y009628D01*
X005376Y009637D01*
X005372Y009635D01*
X005331Y009630D01*
X005294Y009635D01*
X005290Y009637D01*
X005265Y009628D01*
X005254Y009628D01*
X005248Y009622D01*
X005243Y009621D01*
X005220Y009618D01*
X005209Y009621D01*
X005202Y009616D01*
X005193Y009615D01*
X005186Y009606D01*
X005167Y009594D01*
X005146Y009587D01*
X005134Y009587D01*
X005128Y009581D01*
X005122Y009579D01*
X005116Y009581D01*
X005109Y009587D01*
X005098Y009587D01*
X005077Y009594D01*
X005058Y009606D01*
X005051Y009615D01*
X005042Y009616D01*
X005034Y009621D01*
X005023Y009618D01*
X005001Y009621D01*
X004996Y009622D01*
X004990Y009628D01*
X004978Y009628D01*
X004954Y009637D01*
X004949Y009635D01*
X004913Y009630D01*
X004872Y009635D01*
X004872Y009635D01*
X004868Y009637D01*
X004846Y009628D01*
X004837Y009628D01*
X004832Y009623D01*
X004822Y009620D01*
X004792Y009616D01*
X004784Y009618D01*
X004779Y009615D01*
X004773Y009614D01*
X004768Y009607D01*
X004743Y009591D01*
X004715Y009581D01*
X004707Y009581D01*
X004702Y009576D01*
X004697Y009574D01*
X004453Y009574D01*
X004453Y009496D02*
X004618Y009496D01*
X004621Y009501D02*
X004605Y009473D01*
X004581Y009449D01*
X004581Y009444D01*
X004572Y009439D01*
X004563Y009413D01*
X004555Y009403D01*
X004557Y009393D01*
X004556Y009391D01*
X004547Y009376D01*
X004537Y009368D01*
X004535Y009357D01*
X004530Y009348D01*
X004533Y009335D01*
X004531Y009318D01*
X004530Y009315D01*
X004524Y009309D01*
X004524Y009295D01*
X004515Y009270D01*
X004524Y009252D01*
X004524Y009249D01*
X004523Y009245D01*
X004518Y009238D01*
X004520Y009216D01*
X004517Y009190D01*
X004523Y009184D01*
X004515Y009170D01*
X004524Y009138D01*
X004524Y009117D01*
X004528Y009113D01*
X004524Y009102D01*
X004533Y009085D01*
X004534Y009066D01*
X004547Y009055D01*
X004548Y009054D01*
X004548Y009053D01*
X004546Y009036D01*
X004557Y009021D01*
X004562Y009003D01*
X004573Y008997D01*
X004573Y008991D01*
X004587Y008976D01*
X004602Y008947D01*
X004618Y008941D01*
X004650Y008898D01*
X004659Y008897D01*
X004960Y008569D01*
X004960Y008561D01*
X005005Y008520D01*
X005046Y008475D01*
X004453Y008475D01*
X004453Y008554D02*
X004968Y008554D01*
X004902Y008632D02*
X004453Y008632D01*
X004453Y008711D02*
X004830Y008711D01*
X004758Y008789D02*
X004453Y008789D01*
X004453Y008868D02*
X004686Y008868D01*
X004603Y008946D02*
X004453Y008946D01*
X004453Y009025D02*
X004555Y009025D01*
X004525Y009103D02*
X004453Y009103D01*
X004453Y009182D02*
X004521Y009182D01*
X004520Y009260D02*
X004453Y009260D01*
X004453Y009339D02*
X004532Y009339D01*
X004564Y009417D02*
X004453Y009417D01*
X004621Y009501D02*
X004629Y009503D01*
X004632Y009518D01*
X004652Y009531D01*
X004657Y009538D01*
X004664Y009539D01*
X004673Y009545D01*
X004693Y009567D01*
X004697Y009574D01*
X004453Y009653D02*
X005476Y009653D01*
X005372Y009635D02*
X005372Y009635D01*
X005554Y009731D02*
X004453Y009731D01*
X004453Y009810D02*
X005633Y009810D01*
X005711Y009888D02*
X004453Y009888D01*
X004453Y009967D02*
X005790Y009967D01*
X005820Y010045D02*
X004453Y010045D01*
X004453Y010124D02*
X005820Y010124D01*
X005820Y010202D02*
X004453Y010202D01*
X004453Y010281D02*
X005015Y010281D01*
X005005Y010291D02*
X005046Y010246D01*
X005055Y010246D01*
X005061Y010240D01*
X005122Y010243D01*
X005183Y010240D01*
X005189Y010246D01*
X005197Y010246D01*
X005239Y010291D01*
X005284Y010333D01*
X005284Y010341D01*
X005585Y010669D01*
X005593Y010670D01*
X005626Y010713D01*
X005642Y010718D01*
X005657Y010748D01*
X005671Y010763D01*
X005671Y010769D01*
X005681Y010775D01*
X005687Y010793D01*
X005698Y010808D01*
X005696Y010825D01*
X005696Y010826D01*
X005697Y010827D01*
X005710Y010838D01*
X005711Y010856D01*
X005720Y010873D01*
X005716Y010885D01*
X005720Y010889D01*
X005720Y010910D01*
X005729Y010941D01*
X005721Y010955D01*
X005726Y010962D01*
X005724Y010988D01*
X005726Y011010D01*
X005720Y011016D01*
X005720Y011021D01*
X005720Y011024D01*
X005729Y011041D01*
X005720Y011067D01*
X005720Y011080D01*
X005713Y011087D01*
X005713Y011089D01*
X005711Y011107D01*
X005714Y011119D01*
X005708Y011129D01*
X005707Y011139D01*
X005697Y011148D01*
X005688Y011163D01*
X005687Y011165D01*
X005689Y011174D01*
X005681Y011185D01*
X005672Y011211D01*
X005663Y011216D01*
X005663Y011220D01*
X005639Y011245D01*
X005623Y011273D01*
X005615Y011275D01*
X005612Y011290D01*
X005592Y011303D01*
X005587Y011310D01*
X005580Y011311D01*
X005571Y011317D01*
X005551Y011338D01*
X005547Y011346D01*
X005541Y011348D01*
X005537Y011352D01*
X005529Y011353D01*
X005501Y011363D01*
X005476Y011379D01*
X005471Y011386D01*
X005465Y011386D01*
X005460Y011390D01*
X005451Y011388D01*
X005422Y011391D01*
X005412Y011395D01*
X005407Y011400D01*
X005403Y011400D01*
X005409Y011413D01*
X005409Y011525D01*
X005366Y011628D01*
X005287Y011706D01*
X005184Y011749D01*
X005073Y011749D01*
X004970Y011706D01*
X004891Y011628D01*
X004849Y011525D01*
X004849Y011413D01*
X004853Y011403D01*
X004846Y011400D01*
X004837Y011400D01*
X004832Y011395D01*
X004822Y011391D01*
X004792Y011388D01*
X004784Y011390D01*
X004779Y011386D01*
X004773Y011386D01*
X004768Y011379D01*
X004743Y011363D01*
X004715Y011353D01*
X004707Y011352D01*
X004702Y011348D01*
X004697Y011346D01*
X004693Y011338D01*
X004673Y011317D01*
X004664Y011311D01*
X004657Y011310D01*
X004652Y011303D01*
X004632Y011290D01*
X004629Y011275D01*
X004621Y011273D01*
X004605Y011245D01*
X004581Y011220D01*
X004581Y011216D01*
X004572Y011211D01*
X004563Y011185D01*
X004555Y011174D01*
X004557Y011165D01*
X004556Y011163D01*
X004547Y011148D01*
X004537Y011139D01*
X004535Y011129D01*
X004530Y011119D01*
X004533Y011107D01*
X004531Y011089D01*
X004530Y011087D01*
X004524Y011080D01*
X004524Y011067D01*
X004515Y011041D01*
X004524Y011024D01*
X004524Y011021D01*
X004523Y011016D01*
X004518Y011010D01*
X004520Y010988D01*
X004517Y010962D01*
X004523Y010955D01*
X004515Y010941D01*
X004524Y010910D01*
X004524Y010889D01*
X004528Y010885D01*
X004524Y010873D01*
X004533Y010856D01*
X004534Y010838D01*
X004547Y010827D01*
X004548Y010826D01*
X004548Y010825D01*
X004546Y010808D01*
X004557Y010793D01*
X004562Y010775D01*
X004573Y010769D01*
X004573Y010763D01*
X004587Y010748D01*
X004602Y010718D01*
X004618Y010713D01*
X004650Y010670D01*
X004659Y010669D01*
X004960Y010341D01*
X004960Y010333D01*
X005005Y010291D01*
X004943Y010359D02*
X004453Y010359D01*
X004453Y010438D02*
X004871Y010438D01*
X004799Y010516D02*
X004453Y010516D01*
X004453Y010595D02*
X004727Y010595D01*
X004648Y010673D02*
X004453Y010673D01*
X004453Y010752D02*
X004583Y010752D01*
X004543Y010830D02*
X004453Y010830D01*
X004453Y010909D02*
X004524Y010909D01*
X004520Y010987D02*
X004453Y010987D01*
X004453Y011066D02*
X004523Y011066D01*
X004542Y011144D02*
X004453Y011144D01*
X004453Y011223D02*
X004583Y011223D01*
X004649Y011301D02*
X004453Y011301D01*
X004453Y011380D02*
X004768Y011380D01*
X004849Y011458D02*
X004453Y011458D01*
X004453Y011537D02*
X004854Y011537D01*
X004886Y011615D02*
X004453Y011615D01*
X004453Y011694D02*
X004957Y011694D01*
X005300Y011694D02*
X005820Y011694D01*
X005820Y011772D02*
X004453Y011772D01*
X004453Y011851D02*
X005820Y011851D01*
X005820Y011929D02*
X004453Y011929D01*
X004459Y012008D02*
X005820Y012008D01*
X005820Y012086D02*
X004538Y012086D01*
X004616Y012165D02*
X005820Y012165D01*
X005820Y012243D02*
X004695Y012243D01*
X004895Y012322D02*
X005820Y012322D01*
X005820Y012400D02*
X004993Y012400D01*
X005033Y012479D02*
X005820Y012479D01*
X005820Y012557D02*
X005049Y012557D01*
X005046Y012636D02*
X005820Y012636D01*
X005820Y012714D02*
X005013Y012714D01*
X004944Y012793D02*
X005820Y012793D01*
X005820Y012871D02*
X004257Y012871D01*
X004257Y012793D02*
X004596Y012793D01*
X004527Y012714D02*
X004257Y012714D01*
X004257Y012636D02*
X004494Y012636D01*
X004491Y012557D02*
X004257Y012557D01*
X004257Y012479D02*
X004423Y012479D01*
X004344Y012400D02*
X004257Y012400D01*
X004257Y012322D02*
X004266Y012322D01*
X003898Y012322D02*
X003306Y012322D01*
X003306Y012400D02*
X003898Y012400D01*
X003898Y012479D02*
X003306Y012479D01*
X003306Y012557D02*
X003898Y012557D01*
X003898Y012636D02*
X003306Y012636D01*
X003306Y012714D02*
X003898Y012714D01*
X003898Y012793D02*
X003306Y012793D01*
X003306Y012871D02*
X003898Y012871D01*
X003898Y012950D02*
X003306Y012950D01*
X003306Y013028D02*
X003898Y013028D01*
X003898Y013107D02*
X003306Y013107D01*
X003306Y013185D02*
X003898Y013185D01*
X003898Y013264D02*
X003306Y013264D01*
X003306Y013342D02*
X003898Y013342D01*
X003898Y013421D02*
X003306Y013421D01*
X003306Y013499D02*
X003898Y013499D01*
X003898Y013578D02*
X003306Y013578D01*
X003306Y013656D02*
X003898Y013656D01*
X003898Y013735D02*
X003306Y013735D01*
X003306Y013813D02*
X003898Y013813D01*
X003779Y013892D02*
X003306Y013892D01*
X003306Y013970D02*
X003701Y013970D01*
X003634Y014049D02*
X003306Y014049D01*
X003306Y014127D02*
X003601Y014127D01*
X003569Y014206D02*
X003306Y014206D01*
X003306Y014284D02*
X003564Y014284D01*
X003564Y014363D02*
X003306Y014363D01*
X003306Y014441D02*
X003573Y014441D01*
X003605Y014520D02*
X003306Y014520D01*
X003306Y014598D02*
X003638Y014598D01*
X003711Y014677D02*
X003306Y014677D01*
X003306Y014755D02*
X003795Y014755D01*
X003859Y014912D02*
X003306Y014912D01*
X003306Y014834D02*
X004012Y014834D01*
X003780Y014991D02*
X003306Y014991D01*
X003306Y015069D02*
X003725Y015069D01*
X003693Y015148D02*
X003306Y015148D01*
X003306Y015226D02*
X003664Y015226D01*
X003664Y015305D02*
X003306Y015305D01*
X003306Y015383D02*
X003664Y015383D01*
X003681Y015462D02*
X003306Y015462D01*
X003306Y015540D02*
X003714Y015540D01*
X003753Y015619D02*
X003306Y015619D01*
X003306Y015697D02*
X003831Y015697D01*
X003945Y015776D02*
X003306Y015776D01*
X003306Y015854D02*
X003862Y015854D01*
X003738Y015933D02*
X003306Y015933D01*
X003306Y016011D02*
X003660Y016011D01*
X003617Y016090D02*
X003306Y016090D01*
X003306Y016168D02*
X003584Y016168D01*
X003564Y016247D02*
X003306Y016247D01*
X003306Y016325D02*
X003564Y016325D01*
X003564Y016404D02*
X003306Y016404D01*
X003306Y016482D02*
X003590Y016482D01*
X003622Y016561D02*
X003306Y016561D01*
X003306Y016639D02*
X003673Y016639D01*
X003752Y016718D02*
X003306Y016718D01*
X003306Y016796D02*
X003894Y016796D01*
X003913Y016875D02*
X003306Y016875D01*
X003306Y016953D02*
X003818Y016953D01*
X003741Y017032D02*
X003306Y017032D01*
X003306Y017110D02*
X003708Y017110D01*
X003676Y017189D02*
X003306Y017189D01*
X003306Y017267D02*
X003664Y017267D01*
X003664Y017346D02*
X003306Y017346D01*
X003306Y017424D02*
X003666Y017424D01*
X003698Y017503D02*
X003306Y017503D01*
X003306Y017581D02*
X003731Y017581D01*
X003794Y017660D02*
X003306Y017660D01*
X003306Y017738D02*
X003872Y017738D01*
X004044Y017817D02*
X003306Y017817D01*
X003306Y017895D02*
X005605Y017895D01*
X005522Y017817D02*
X004304Y017817D01*
X004475Y017738D02*
X005465Y017738D01*
X005387Y017660D02*
X004554Y017660D01*
X004617Y017581D02*
X005309Y017581D01*
X005230Y017503D02*
X004650Y017503D01*
X004652Y017139D02*
X004871Y017139D01*
X004871Y017080D01*
X004914Y016978D01*
X004992Y016899D01*
X005095Y016857D01*
X005206Y016857D01*
X005308Y016899D01*
X005387Y016978D01*
X005429Y017080D01*
X005429Y017191D01*
X005428Y017193D01*
X005637Y017402D01*
X005700Y017376D01*
X005811Y017376D01*
X005854Y017394D01*
X005869Y017357D01*
X005947Y017279D01*
X006050Y017236D01*
X006074Y017236D01*
X006261Y016950D01*
X006261Y016929D01*
X006300Y016890D01*
X006331Y016843D01*
X006333Y016843D01*
X006333Y016708D01*
X006632Y016409D01*
X006712Y016409D01*
X006443Y016141D01*
X006154Y016429D01*
X005732Y016429D01*
X005433Y016131D01*
X005433Y015708D01*
X005443Y015698D01*
X005355Y015662D01*
X005277Y015584D01*
X005241Y015498D01*
X004652Y015498D01*
X004606Y015607D01*
X004463Y015751D01*
X004275Y015829D01*
X004224Y015829D01*
X004363Y015886D01*
X004506Y016030D01*
X004584Y016217D01*
X004584Y016420D01*
X004506Y016607D01*
X004363Y016751D01*
X004224Y016809D01*
X004275Y016809D01*
X004463Y016886D01*
X004606Y017030D01*
X004652Y017139D01*
X004640Y017110D02*
X004871Y017110D01*
X004891Y017032D02*
X004607Y017032D01*
X004530Y016953D02*
X004938Y016953D01*
X005052Y016875D02*
X004435Y016875D01*
X004396Y016718D02*
X006333Y016718D01*
X006333Y016796D02*
X004253Y016796D01*
X004474Y016639D02*
X006402Y016639D01*
X006481Y016561D02*
X004526Y016561D01*
X004558Y016482D02*
X006559Y016482D01*
X006706Y016404D02*
X006180Y016404D01*
X006259Y016325D02*
X006628Y016325D01*
X006549Y016247D02*
X006337Y016247D01*
X006416Y016168D02*
X006471Y016168D01*
X006310Y016875D02*
X005249Y016875D01*
X005362Y016953D02*
X006259Y016953D01*
X006207Y017032D02*
X005409Y017032D01*
X005429Y017110D02*
X006156Y017110D01*
X006105Y017189D02*
X005429Y017189D01*
X005502Y017267D02*
X005975Y017267D01*
X005880Y017346D02*
X005581Y017346D01*
X005152Y017424D02*
X005116Y017424D01*
X005906Y017895D02*
X007636Y017895D01*
X007636Y017817D02*
X005989Y017817D01*
X006277Y017738D02*
X007636Y017738D01*
X007636Y017660D02*
X006348Y017660D01*
X006380Y017581D02*
X007636Y017581D01*
X007636Y017503D02*
X006384Y017503D01*
X006379Y017424D02*
X006627Y017424D01*
X006548Y017346D02*
X006431Y017346D01*
X007060Y017424D02*
X007636Y017424D01*
X007636Y017346D02*
X007138Y017346D01*
X007217Y017267D02*
X007636Y017267D01*
X007636Y017189D02*
X007295Y017189D01*
X007353Y017110D02*
X007636Y017110D01*
X007484Y017032D02*
X007353Y017032D01*
X007353Y016953D02*
X007367Y016953D01*
X008296Y017042D02*
X008296Y019344D01*
X008791Y019838D01*
X008872Y019838D01*
X008975Y019881D01*
X009053Y019960D01*
X009096Y020062D01*
X009096Y020174D01*
X009053Y020277D01*
X008975Y020355D01*
X008872Y020398D01*
X008760Y020398D01*
X008670Y020361D01*
X008625Y020405D01*
X008522Y020448D01*
X008621Y020407D02*
X015571Y020407D01*
X015653Y020486D02*
X014543Y020486D01*
X014514Y020474D02*
X014318Y020474D01*
X014136Y020549D01*
X013997Y020688D01*
X013922Y020870D01*
X013922Y021066D01*
X013997Y021248D01*
X014136Y021387D01*
X014318Y021462D01*
X014514Y021462D01*
X014696Y021387D01*
X014835Y021248D01*
X014910Y021066D01*
X014910Y020870D01*
X014835Y020688D01*
X014696Y020549D01*
X014514Y020474D01*
X014711Y020564D02*
X015734Y020564D01*
X015816Y020643D02*
X014790Y020643D01*
X014849Y020721D02*
X015898Y020721D01*
X015948Y020769D02*
X015453Y020295D01*
X015407Y020314D01*
X015296Y020314D01*
X015193Y020272D01*
X015114Y020193D01*
X015072Y020091D01*
X015072Y019980D01*
X015114Y019877D01*
X015193Y019798D01*
X015296Y019756D01*
X015407Y019756D01*
X015509Y019798D01*
X015588Y019877D01*
X015630Y019980D01*
X015630Y019994D01*
X016182Y020524D01*
X016302Y020474D01*
X016499Y020474D01*
X016680Y020549D01*
X016819Y020688D01*
X016895Y020870D01*
X016895Y021066D01*
X016819Y021248D01*
X016680Y021387D01*
X016499Y021462D01*
X016302Y021462D01*
X016120Y021387D01*
X015981Y021248D01*
X015906Y021066D01*
X015906Y020870D01*
X015948Y020769D01*
X015935Y020800D02*
X014881Y020800D01*
X014910Y020878D02*
X015906Y020878D01*
X015906Y020957D02*
X014910Y020957D01*
X014910Y021035D02*
X015906Y021035D01*
X015925Y021114D02*
X014891Y021114D01*
X014858Y021192D02*
X015958Y021192D01*
X016004Y021271D02*
X014813Y021271D01*
X014734Y021349D02*
X016082Y021349D01*
X016218Y021428D02*
X014598Y021428D01*
X014234Y021428D02*
X003306Y021428D01*
X003306Y021506D02*
X017278Y021506D01*
X017278Y021510D02*
X017278Y020763D01*
X017418Y020623D01*
X018182Y020623D01*
X018182Y019476D01*
X018264Y019394D01*
X019955Y019394D01*
X020037Y019476D01*
X020037Y020623D01*
X020823Y020623D01*
X020824Y020623D01*
X020922Y020623D01*
X020961Y020623D01*
X021136Y020448D01*
X021136Y019801D01*
X020923Y019801D01*
X020841Y019719D01*
X020841Y018816D01*
X020923Y018734D01*
X021826Y018734D01*
X021908Y018816D01*
X021908Y019719D01*
X021826Y019801D01*
X021613Y019801D01*
X021613Y020646D01*
X021473Y020785D01*
X021163Y021096D01*
X021826Y021096D01*
X021908Y021178D01*
X021908Y022081D01*
X021826Y022163D01*
X020923Y022163D01*
X020841Y022081D01*
X020841Y022010D01*
X020762Y021977D01*
X015374Y021977D01*
X015395Y021986D02*
X015600Y022191D01*
X015712Y022460D01*
X015712Y022750D01*
X015600Y023019D01*
X015395Y023224D01*
X015126Y023336D01*
X014836Y023336D01*
X014567Y023224D01*
X014362Y023019D01*
X014250Y022750D01*
X014250Y022460D01*
X014362Y022191D01*
X014567Y021986D01*
X014836Y021875D01*
X015126Y021875D01*
X015395Y021986D01*
X015465Y022056D02*
X020841Y022056D01*
X020894Y022134D02*
X015543Y022134D01*
X015609Y022213D02*
X026179Y022213D01*
X026161Y022291D02*
X015642Y022291D01*
X015674Y022370D02*
X026134Y022370D01*
X026152Y022332D02*
X026243Y021933D01*
X026254Y021728D01*
X026254Y007152D01*
X026198Y007152D01*
X026198Y016680D01*
X026116Y016762D01*
X022500Y016762D01*
X022418Y016680D01*
X022418Y014808D01*
X022361Y014819D01*
X022280Y014802D01*
X021997Y014802D01*
X021976Y017082D01*
X025306Y017096D01*
X025375Y017097D01*
X025441Y017097D01*
X025442Y017097D01*
X025443Y017097D01*
X025504Y017123D01*
X025565Y017148D01*
X025566Y017148D01*
X025566Y017149D01*
X025613Y017196D01*
X025660Y017243D01*
X025660Y017243D01*
X025661Y017244D01*
X025686Y017305D01*
X025711Y017366D01*
X025711Y017367D01*
X025711Y017368D01*
X025711Y017434D01*
X025711Y017630D01*
X025660Y017754D01*
X025565Y017849D01*
X025441Y017900D01*
X025307Y017900D01*
X025183Y017849D01*
X025104Y017769D01*
X021701Y017754D01*
X021700Y017754D01*
X021634Y017754D01*
X021568Y017753D01*
X021567Y017753D01*
X021566Y017753D01*
X021505Y017727D01*
X021444Y017702D01*
X021443Y017701D01*
X021396Y017654D01*
X021350Y017606D01*
X021349Y017606D01*
X021349Y017605D01*
X021324Y017544D01*
X021299Y017482D01*
X021299Y017481D01*
X021299Y017415D01*
X021300Y017348D01*
X021327Y014349D01*
X021329Y014120D01*
X021241Y014208D01*
X013992Y014208D01*
X011956Y016244D01*
X011956Y016682D01*
X011957Y016681D01*
X012060Y016638D01*
X012141Y016638D01*
X013841Y014938D01*
X017400Y014938D01*
X017457Y014881D01*
X017560Y014838D01*
X017672Y014838D01*
X017775Y014881D01*
X017853Y014960D01*
X017896Y015062D01*
X017896Y015174D01*
X017853Y015277D01*
X017775Y015355D01*
X017672Y015398D01*
X017560Y015398D01*
X017457Y015355D01*
X017400Y015298D01*
X013991Y015298D01*
X012396Y016893D01*
X012396Y016974D01*
X012353Y017077D01*
X012275Y017155D01*
X012172Y017198D01*
X012060Y017198D01*
X011957Y017155D01*
X011956Y017154D01*
X011956Y018339D01*
X012355Y018738D01*
X012422Y018738D01*
X012525Y018781D01*
X012603Y018860D01*
X012646Y018962D01*
X012646Y019074D01*
X012628Y019117D01*
X012979Y019117D01*
X013047Y019050D01*
X013150Y019007D01*
X013261Y019007D01*
X013364Y019050D01*
X013443Y019128D01*
X013485Y019231D01*
X013485Y019343D01*
X013443Y019446D01*
X013364Y019524D01*
X013261Y019567D01*
X013150Y019567D01*
X013047Y019524D01*
X012979Y019457D01*
X012229Y019457D01*
X012130Y019357D01*
X010970Y018197D01*
X009552Y018197D01*
X009453Y018098D01*
X009453Y015775D01*
X009374Y015696D01*
X009374Y015674D01*
X009307Y015607D01*
X009272Y015523D01*
X009272Y015558D01*
X009229Y015661D01*
X009150Y015740D01*
X009047Y015783D01*
X008936Y015783D01*
X008833Y015740D01*
X008776Y015683D01*
X008296Y015683D01*
X008296Y016493D01*
X008307Y016488D01*
X008418Y016488D01*
X008521Y016531D01*
X008599Y016609D01*
X008642Y016712D01*
X008642Y016823D01*
X008633Y016843D01*
X009171Y017551D01*
X009225Y017551D01*
X009328Y017594D01*
X009406Y017672D01*
X009449Y017775D01*
X009449Y017886D01*
X009406Y017988D01*
X009328Y018067D01*
X009225Y018109D01*
X009114Y018109D01*
X009012Y018067D01*
X008933Y017988D01*
X008891Y017886D01*
X008891Y017775D01*
X008899Y017754D01*
X008362Y017046D01*
X008307Y017046D01*
X008296Y017042D01*
X008296Y017110D02*
X008410Y017110D01*
X008470Y017189D02*
X008296Y017189D01*
X008296Y017267D02*
X008529Y017267D01*
X008589Y017346D02*
X008296Y017346D01*
X008296Y017424D02*
X008649Y017424D01*
X008708Y017503D02*
X008296Y017503D01*
X008296Y017581D02*
X008768Y017581D01*
X008828Y017660D02*
X008296Y017660D01*
X008296Y017738D02*
X008887Y017738D01*
X008891Y017817D02*
X008296Y017817D01*
X008296Y017895D02*
X008895Y017895D01*
X008927Y017974D02*
X008296Y017974D01*
X008296Y018052D02*
X008997Y018052D01*
X009343Y018052D02*
X009453Y018052D01*
X009453Y017974D02*
X009413Y017974D01*
X009445Y017895D02*
X009453Y017895D01*
X009449Y017817D02*
X009453Y017817D01*
X009453Y017738D02*
X009434Y017738D01*
X009453Y017660D02*
X009394Y017660D01*
X009453Y017581D02*
X009298Y017581D01*
X009453Y017503D02*
X009134Y017503D01*
X009074Y017424D02*
X009453Y017424D01*
X009453Y017346D02*
X009015Y017346D01*
X008955Y017267D02*
X009453Y017267D01*
X009453Y017189D02*
X008896Y017189D01*
X008836Y017110D02*
X009453Y017110D01*
X009453Y017032D02*
X008776Y017032D01*
X008717Y016953D02*
X009453Y016953D01*
X009453Y016875D02*
X008657Y016875D01*
X008642Y016796D02*
X009453Y016796D01*
X009453Y016718D02*
X008642Y016718D01*
X008612Y016639D02*
X009453Y016639D01*
X009453Y016561D02*
X008551Y016561D01*
X008296Y016482D02*
X009453Y016482D01*
X009453Y016404D02*
X008296Y016404D01*
X008296Y016325D02*
X009453Y016325D01*
X009453Y016247D02*
X008296Y016247D01*
X008296Y016168D02*
X009453Y016168D01*
X009453Y016090D02*
X008296Y016090D01*
X008296Y016011D02*
X009453Y016011D01*
X009453Y015933D02*
X008296Y015933D01*
X008296Y015854D02*
X009453Y015854D01*
X009453Y015776D02*
X009064Y015776D01*
X008919Y015776D02*
X008296Y015776D01*
X008296Y015697D02*
X008790Y015697D01*
X008992Y015503D02*
X008116Y015504D01*
X008116Y019418D01*
X008816Y020118D01*
X008919Y019858D02*
X015134Y019858D01*
X015090Y019936D02*
X009030Y019936D01*
X009076Y020015D02*
X015072Y020015D01*
X015073Y020093D02*
X009096Y020093D01*
X009096Y020172D02*
X015106Y020172D01*
X015172Y020250D02*
X009064Y020250D01*
X009001Y020329D02*
X015489Y020329D01*
X015733Y020093D02*
X018182Y020093D01*
X018182Y020015D02*
X015651Y020015D01*
X015612Y019936D02*
X018182Y019936D01*
X018182Y019858D02*
X015568Y019858D01*
X015463Y019779D02*
X018182Y019779D01*
X018182Y019701D02*
X008653Y019701D01*
X008732Y019779D02*
X015240Y019779D01*
X015815Y020172D02*
X018182Y020172D01*
X018182Y020250D02*
X015897Y020250D01*
X015979Y020329D02*
X018182Y020329D01*
X018182Y020407D02*
X016060Y020407D01*
X016142Y020486D02*
X016273Y020486D01*
X016527Y020486D02*
X018182Y020486D01*
X018182Y020564D02*
X016695Y020564D01*
X016774Y020643D02*
X017398Y020643D01*
X017320Y020721D02*
X016833Y020721D01*
X016866Y020800D02*
X017278Y020800D01*
X017278Y020878D02*
X016895Y020878D01*
X016895Y020957D02*
X017278Y020957D01*
X017278Y021035D02*
X016895Y021035D01*
X016875Y021114D02*
X017278Y021114D01*
X017278Y021192D02*
X016842Y021192D01*
X016797Y021271D02*
X017278Y021271D01*
X017278Y021349D02*
X016718Y021349D01*
X016583Y021428D02*
X017278Y021428D01*
X017278Y021510D02*
X017302Y021534D01*
X017302Y021769D01*
X017384Y021851D01*
X018417Y021851D01*
X018499Y021769D01*
X018499Y021100D01*
X020683Y021100D01*
X020682Y021583D01*
X020640Y021684D01*
X020640Y021795D01*
X020683Y021898D01*
X020762Y021977D01*
X020683Y021899D02*
X015184Y021899D01*
X014777Y021899D02*
X003316Y021899D01*
X003317Y021933D02*
X003306Y021728D01*
X003306Y002437D01*
X003317Y002232D01*
X003409Y001833D01*
X003586Y001464D01*
X003842Y001144D01*
X004162Y000888D01*
X004531Y000711D01*
X004930Y000620D01*
X005134Y000608D01*
X024426Y000608D01*
X024631Y000620D01*
X025030Y000711D01*
X025399Y000888D01*
X025399Y000888D01*
X025719Y001144D01*
X025974Y001464D01*
X026152Y001833D01*
X026243Y002232D01*
X026254Y002437D01*
X026254Y006722D01*
X026198Y006722D01*
X026198Y006064D01*
X026116Y005982D01*
X022919Y005982D01*
X022858Y005921D01*
X022662Y005840D01*
X021971Y005840D01*
X021986Y005825D01*
X022069Y005626D01*
X022069Y005411D01*
X021986Y005213D01*
X021865Y005092D01*
X021865Y004981D01*
X023038Y003809D01*
X023089Y003685D01*
X023089Y003551D01*
X023038Y003427D01*
X022943Y003332D01*
X022820Y003281D01*
X022686Y003281D01*
X022562Y003332D01*
X022401Y003493D01*
X022409Y003475D01*
X022409Y003363D01*
X022366Y003260D01*
X022287Y003182D01*
X022184Y003139D01*
X022073Y003139D01*
X021970Y003182D01*
X021913Y003239D01*
X012734Y003239D01*
X012718Y003228D01*
X012662Y003239D01*
X012604Y003239D01*
X012590Y003252D01*
X012572Y003256D01*
X012539Y003304D01*
X012499Y003344D01*
X012499Y003364D01*
X011804Y004385D01*
X011764Y004425D01*
X011764Y004445D01*
X011752Y004462D01*
X011763Y004518D01*
X011715Y008699D01*
X010399Y007723D01*
X010399Y007684D01*
X010357Y007581D01*
X010278Y007502D01*
X010175Y007459D01*
X010063Y007459D01*
X010045Y007467D01*
X009663Y007223D01*
X009663Y007221D01*
X009658Y007215D01*
X009666Y007201D01*
X009657Y007170D01*
X009657Y007149D01*
X009653Y007145D01*
X009657Y007133D01*
X009648Y007116D01*
X009647Y007097D01*
X009634Y007087D01*
X009633Y007086D01*
X009633Y007085D01*
X009635Y007068D01*
X009624Y007053D01*
X009618Y007035D01*
X009608Y007029D01*
X009608Y007023D01*
X009594Y007008D01*
X009579Y006978D01*
X009563Y006973D01*
X009530Y006930D01*
X009522Y006929D01*
X009221Y006601D01*
X009221Y006593D01*
X009176Y006551D01*
X009134Y006506D01*
X009126Y006506D01*
X009120Y006500D01*
X009059Y006503D01*
X008998Y006500D01*
X008992Y006506D01*
X008983Y006506D01*
X008942Y006551D01*
X008897Y006593D01*
X008897Y006601D01*
X008596Y006929D01*
X008590Y006930D01*
X008591Y005939D01*
X008793Y005695D01*
X008805Y005700D01*
X008809Y005698D01*
X008809Y005698D01*
X008850Y005693D01*
X008886Y005698D01*
X008891Y005700D01*
X008915Y005691D01*
X008927Y005691D01*
X008933Y005685D01*
X008938Y005684D01*
X008960Y005681D01*
X008971Y005684D01*
X008979Y005679D01*
X008988Y005678D01*
X008995Y005669D01*
X009014Y005657D01*
X009035Y005650D01*
X009046Y005650D01*
X009053Y005644D01*
X009059Y005642D01*
X009065Y005644D01*
X009071Y005650D01*
X009083Y005650D01*
X009104Y005657D01*
X009123Y005669D01*
X009130Y005678D01*
X009139Y005679D01*
X009146Y005684D01*
X009157Y005681D01*
X009180Y005684D01*
X009185Y005685D01*
X009191Y005691D01*
X009202Y005691D01*
X009227Y005700D01*
X009231Y005698D01*
X009268Y005693D01*
X009309Y005698D01*
X009309Y005698D01*
X009313Y005700D01*
X009335Y005691D01*
X009344Y005691D01*
X009349Y005686D01*
X009359Y005683D01*
X009388Y005679D01*
X009397Y005681D01*
X009402Y005678D01*
X009408Y005677D01*
X009413Y005670D01*
X009438Y005654D01*
X009466Y005644D01*
X009474Y005644D01*
X009478Y005639D01*
X009484Y005637D01*
X009488Y005630D01*
X009508Y005608D01*
X009517Y005602D01*
X009524Y005601D01*
X009529Y005594D01*
X009549Y005581D01*
X009552Y005566D01*
X009560Y005564D01*
X009576Y005536D01*
X009600Y005512D01*
X009600Y005507D01*
X009609Y005502D01*
X009618Y005476D01*
X009626Y005466D01*
X009624Y005456D01*
X009625Y005454D01*
X009634Y005439D01*
X009644Y005431D01*
X009645Y005420D01*
X009651Y005411D01*
X009648Y005398D01*
X009650Y005381D01*
X009650Y005378D01*
X009657Y005372D01*
X009657Y005358D01*
X009666Y005333D01*
X009657Y005315D01*
X009657Y005312D01*
X009657Y005308D01*
X009663Y005301D01*
X009661Y005279D01*
X009663Y005253D01*
X009658Y005247D01*
X009666Y005233D01*
X009657Y005201D01*
X009657Y005180D01*
X009653Y005176D01*
X009657Y005165D01*
X009648Y005148D01*
X009647Y005129D01*
X009634Y005118D01*
X009633Y005117D01*
X009633Y005116D01*
X009635Y005099D01*
X009624Y005084D01*
X009618Y005066D01*
X009608Y005060D01*
X009608Y005054D01*
X009594Y005039D01*
X009579Y005010D01*
X009563Y005004D01*
X009530Y004961D01*
X009522Y004960D01*
X009221Y004632D01*
X009221Y004624D01*
X009176Y004583D01*
X009134Y004538D01*
X009126Y004537D01*
X009120Y004532D01*
X009059Y004534D01*
X008998Y004532D01*
X008992Y004537D01*
X008983Y004538D01*
X008942Y004583D01*
X008897Y004624D01*
X008897Y004632D01*
X008596Y004960D01*
X008587Y004961D01*
X008555Y005004D01*
X008539Y005010D01*
X008524Y005039D01*
X008510Y005054D01*
X008510Y005060D01*
X008499Y005066D01*
X008494Y005084D01*
X008483Y005099D01*
X008485Y005116D01*
X008485Y005117D01*
X008484Y005118D01*
X008471Y005129D01*
X008470Y005148D01*
X008461Y005165D01*
X008465Y005176D01*
X008461Y005180D01*
X008461Y005201D01*
X008452Y005233D01*
X008460Y005247D01*
X008454Y005253D01*
X008457Y005279D01*
X008455Y005301D01*
X008460Y005308D01*
X008461Y005312D01*
X008461Y005315D01*
X008452Y005333D01*
X008461Y005358D01*
X008461Y005372D01*
X008467Y005378D01*
X008468Y005381D01*
X008470Y005398D01*
X008467Y005411D01*
X008472Y005420D01*
X008474Y005431D01*
X008484Y005439D01*
X008493Y005454D01*
X008494Y005456D01*
X008492Y005466D01*
X008500Y005476D01*
X008502Y005482D01*
X008278Y005752D01*
X008231Y005799D01*
X008231Y005809D01*
X008225Y005816D01*
X008231Y005882D01*
X008231Y005903D01*
X007680Y005393D01*
X007681Y005381D01*
X007682Y005378D01*
X007688Y005372D01*
X007688Y005358D01*
X007697Y005333D01*
X007688Y005315D01*
X007688Y005312D01*
X007689Y005308D01*
X007694Y005301D01*
X007692Y005279D01*
X007695Y005253D01*
X007690Y005247D01*
X007698Y005233D01*
X007688Y005201D01*
X007688Y005180D01*
X007684Y005176D01*
X007688Y005165D01*
X007680Y005148D01*
X007678Y005129D01*
X007665Y005118D01*
X007665Y005117D01*
X007664Y005116D01*
X007667Y005099D01*
X007655Y005084D01*
X007650Y005066D01*
X007639Y005060D01*
X007640Y005054D01*
X007626Y005039D01*
X007611Y005010D01*
X007594Y005004D01*
X007562Y004961D01*
X007553Y004960D01*
X007253Y004632D01*
X007252Y004624D01*
X007207Y004583D01*
X007166Y004538D01*
X007158Y004537D01*
X007152Y004532D01*
X007090Y004534D01*
X007029Y004532D01*
X007023Y004537D01*
X007015Y004538D01*
X006974Y004583D01*
X006929Y004624D01*
X006928Y004632D01*
X006628Y004960D01*
X006619Y004961D01*
X006586Y005004D01*
X006570Y005010D01*
X006555Y005039D01*
X006541Y005054D01*
X006542Y005060D01*
X006531Y005066D01*
X006526Y005084D01*
X006514Y005099D01*
X006517Y005116D01*
X006516Y005117D01*
X006516Y005118D01*
X006503Y005129D01*
X006501Y005148D01*
X006493Y005165D01*
X006496Y005176D01*
X006492Y005180D01*
X006492Y005201D01*
X006483Y005233D01*
X006491Y005247D01*
X006486Y005253D01*
X006489Y005279D01*
X006487Y005301D01*
X006492Y005308D01*
X006492Y005312D01*
X006492Y005315D01*
X006484Y005333D01*
X006492Y005358D01*
X006492Y005372D01*
X006499Y005378D01*
X006500Y005381D01*
X006502Y005398D01*
X006498Y005411D01*
X006504Y005420D01*
X006505Y005431D01*
X006515Y005439D01*
X006524Y005454D01*
X006525Y005456D01*
X006524Y005466D01*
X006532Y005476D01*
X006540Y005502D01*
X006550Y005507D01*
X006550Y005512D01*
X006573Y005536D01*
X006590Y005564D01*
X006597Y005566D01*
X006600Y005581D01*
X006620Y005594D01*
X006625Y005601D01*
X006632Y005602D01*
X006641Y005608D01*
X006662Y005630D01*
X006665Y005637D01*
X006671Y005639D01*
X006675Y005644D01*
X006684Y005644D01*
X006712Y005654D01*
X006736Y005670D01*
X006742Y005677D01*
X006748Y005678D01*
X006753Y005681D01*
X006761Y005679D01*
X006790Y005683D01*
X006801Y005686D01*
X006806Y005691D01*
X006814Y005691D01*
X006837Y005700D01*
X006840Y005698D01*
X006840Y005698D01*
X006881Y005693D01*
X006918Y005698D01*
X006922Y005700D01*
X006947Y005691D01*
X006958Y005691D01*
X006964Y005685D01*
X006970Y005684D01*
X006992Y005681D01*
X007003Y005684D01*
X007011Y005679D01*
X007019Y005678D01*
X007026Y005669D01*
X007045Y005657D01*
X007067Y005650D01*
X007078Y005650D01*
X007084Y005644D01*
X007090Y005642D01*
X007096Y005644D01*
X007103Y005650D01*
X007114Y005650D01*
X007135Y005657D01*
X007154Y005669D01*
X007161Y005678D01*
X007170Y005679D01*
X007178Y005684D01*
X007189Y005681D01*
X007211Y005684D01*
X007216Y005685D01*
X007222Y005691D01*
X007234Y005691D01*
X007258Y005700D01*
X007263Y005698D01*
X007299Y005693D01*
X007340Y005698D01*
X007341Y005698D01*
X007344Y005700D01*
X007367Y005691D01*
X007375Y005691D01*
X007380Y005686D01*
X007390Y005683D01*
X007420Y005679D01*
X007428Y005681D01*
X007433Y005678D01*
X007439Y005677D01*
X007444Y005670D01*
X007447Y005669D01*
X008012Y006190D01*
X008015Y007732D01*
X007676Y007393D01*
X007677Y007389D01*
X007682Y007379D01*
X007679Y007367D01*
X007681Y007349D01*
X007682Y007347D01*
X007688Y007340D01*
X007688Y007327D01*
X007697Y007301D01*
X007688Y007284D01*
X007688Y007281D01*
X007689Y007276D01*
X007694Y007270D01*
X007692Y007248D01*
X007695Y007221D01*
X007690Y007215D01*
X007698Y007201D01*
X007688Y007170D01*
X007688Y007149D01*
X007684Y007145D01*
X007688Y007133D01*
X007680Y007116D01*
X007678Y007097D01*
X007665Y007087D01*
X007665Y007086D01*
X007664Y007085D01*
X007667Y007068D01*
X007655Y007053D01*
X007650Y007035D01*
X007639Y007029D01*
X007640Y007023D01*
X007626Y007008D01*
X007611Y006978D01*
X007594Y006973D01*
X007562Y006930D01*
X007553Y006929D01*
X007253Y006601D01*
X007252Y006593D01*
X007207Y006551D01*
X007166Y006506D01*
X007158Y006506D01*
X007152Y006500D01*
X007090Y006503D01*
X007029Y006500D01*
X007023Y006506D01*
X007015Y006506D01*
X006974Y006551D01*
X006929Y006593D01*
X006928Y006601D01*
X006628Y006929D01*
X006619Y006930D01*
X006586Y006973D01*
X006570Y006978D01*
X006555Y007008D01*
X006541Y007023D01*
X006542Y007029D01*
X006531Y007035D01*
X006526Y007053D01*
X006514Y007068D01*
X006517Y007085D01*
X006516Y007086D01*
X006516Y007087D01*
X006503Y007097D01*
X006501Y007116D01*
X006493Y007133D01*
X006496Y007145D01*
X006492Y007149D01*
X006492Y007170D01*
X006483Y007201D01*
X006491Y007215D01*
X006486Y007221D01*
X006489Y007248D01*
X006487Y007270D01*
X006492Y007276D01*
X006492Y007281D01*
X006492Y007284D01*
X006484Y007301D01*
X006492Y007327D01*
X006492Y007340D01*
X006499Y007347D01*
X006500Y007349D01*
X006502Y007367D01*
X006498Y007379D01*
X006504Y007389D01*
X006505Y007399D01*
X006515Y007407D01*
X006524Y007423D01*
X006525Y007425D01*
X006524Y007434D01*
X006532Y007445D01*
X006540Y007471D01*
X006550Y007475D01*
X006550Y007480D01*
X006573Y007505D01*
X006590Y007533D01*
X006597Y007535D01*
X006600Y007550D01*
X006620Y007563D01*
X006625Y007570D01*
X006632Y007571D01*
X006641Y007577D01*
X006662Y007598D01*
X006665Y007606D01*
X006671Y007608D01*
X006675Y007612D01*
X006684Y007613D01*
X006712Y007623D01*
X006736Y007639D01*
X006742Y007646D01*
X006748Y007646D01*
X006753Y007650D01*
X006761Y007648D01*
X006790Y007651D01*
X006801Y007655D01*
X006806Y007660D01*
X006814Y007660D01*
X006837Y007668D01*
X006840Y007666D01*
X006840Y007666D01*
X006881Y007662D01*
X006918Y007666D01*
X006922Y007668D01*
X006947Y007660D01*
X006958Y007660D01*
X006964Y007654D01*
X006970Y007652D01*
X006992Y007650D01*
X007003Y007652D01*
X007011Y007647D01*
X007019Y007647D01*
X007026Y007638D01*
X007045Y007626D01*
X007067Y007619D01*
X007078Y007619D01*
X007084Y007612D01*
X007090Y007610D01*
X007096Y007612D01*
X007103Y007619D01*
X007114Y007619D01*
X007135Y007626D01*
X007154Y007638D01*
X007161Y007647D01*
X007170Y007647D01*
X007178Y007652D01*
X007189Y007650D01*
X007211Y007652D01*
X007216Y007654D01*
X007222Y007660D01*
X007234Y007660D01*
X007258Y007668D01*
X007263Y007666D01*
X007299Y007662D01*
X007340Y007666D01*
X007341Y007666D01*
X007344Y007668D01*
X007367Y007660D01*
X007375Y007660D01*
X007380Y007655D01*
X007390Y007651D01*
X007420Y007648D01*
X007422Y007648D01*
X007799Y008025D01*
X007843Y013952D01*
X007788Y014007D01*
X007745Y014110D01*
X007745Y014128D01*
X007605Y014068D01*
X007547Y014010D01*
X007547Y014008D01*
X007492Y013954D01*
X007438Y013900D01*
X007435Y013900D01*
X007183Y013658D01*
X007128Y013603D01*
X007126Y013603D01*
X007124Y013602D01*
X007048Y013603D01*
X006391Y013603D01*
X006391Y009998D01*
X006772Y009618D01*
X006790Y009620D01*
X006801Y009623D01*
X006806Y009628D01*
X006814Y009628D01*
X006837Y009637D01*
X006840Y009635D01*
X006840Y009635D01*
X006881Y009630D01*
X006918Y009635D01*
X006922Y009637D01*
X006947Y009628D01*
X006958Y009628D01*
X006964Y009622D01*
X006970Y009621D01*
X006992Y009618D01*
X007003Y009621D01*
X007011Y009616D01*
X007019Y009615D01*
X007026Y009606D01*
X007045Y009594D01*
X007067Y009587D01*
X007078Y009587D01*
X007084Y009581D01*
X007090Y009579D01*
X007096Y009581D01*
X007103Y009587D01*
X007114Y009587D01*
X007135Y009594D01*
X007154Y009606D01*
X007161Y009615D01*
X007170Y009616D01*
X007178Y009621D01*
X007189Y009618D01*
X007211Y009621D01*
X007216Y009622D01*
X007222Y009628D01*
X007234Y009628D01*
X007258Y009637D01*
X007263Y009635D01*
X007299Y009630D01*
X007340Y009635D01*
X007341Y009635D01*
X007344Y009637D01*
X007367Y009628D01*
X007375Y009628D01*
X007380Y009623D01*
X007390Y009620D01*
X007420Y009616D01*
X007428Y009618D01*
X007433Y009615D01*
X007439Y009614D01*
X007444Y009607D01*
X007469Y009591D01*
X007497Y009581D01*
X007506Y009581D01*
X007510Y009576D01*
X007515Y009574D01*
X007516Y009574D02*
X007811Y009574D01*
X007810Y009496D02*
X007594Y009496D01*
X007591Y009501D02*
X007584Y009503D01*
X007581Y009518D01*
X007561Y009531D01*
X007555Y009538D01*
X007549Y009539D01*
X007540Y009545D01*
X007519Y009567D01*
X007515Y009574D01*
X007591Y009501D02*
X007608Y009473D01*
X007631Y009449D01*
X007631Y009444D01*
X007641Y009439D01*
X007649Y009413D01*
X007657Y009403D01*
X007656Y009393D01*
X007657Y009391D01*
X007666Y009376D01*
X007676Y009368D01*
X007677Y009357D01*
X007682Y009348D01*
X007679Y009335D01*
X007681Y009318D01*
X007682Y009315D01*
X007688Y009309D01*
X007688Y009295D01*
X007697Y009270D01*
X007688Y009252D01*
X007688Y009249D01*
X007689Y009245D01*
X007694Y009238D01*
X007692Y009216D01*
X007695Y009190D01*
X007690Y009184D01*
X007698Y009170D01*
X007688Y009138D01*
X007688Y009117D01*
X007684Y009113D01*
X007688Y009102D01*
X007680Y009085D01*
X007678Y009066D01*
X007665Y009055D01*
X007665Y009054D01*
X007664Y009053D01*
X007667Y009036D01*
X007655Y009021D01*
X007650Y009003D01*
X007639Y008997D01*
X007640Y008991D01*
X007626Y008976D01*
X007611Y008947D01*
X007594Y008941D01*
X007562Y008898D01*
X007553Y008897D01*
X007253Y008569D01*
X007252Y008561D01*
X007207Y008520D01*
X007166Y008475D01*
X007802Y008475D01*
X007802Y008397D02*
X004486Y008397D01*
X004565Y008318D02*
X007801Y008318D01*
X007801Y008240D02*
X004643Y008240D01*
X004722Y008161D02*
X007800Y008161D01*
X007800Y008083D02*
X004800Y008083D01*
X004879Y008004D02*
X007778Y008004D01*
X007700Y007926D02*
X004957Y007926D01*
X005036Y007847D02*
X007621Y007847D01*
X007543Y007769D02*
X005190Y007769D01*
X005268Y007690D02*
X007464Y007690D01*
X007738Y007455D02*
X008015Y007455D01*
X008015Y007533D02*
X007816Y007533D01*
X007895Y007612D02*
X008015Y007612D01*
X008015Y007690D02*
X007973Y007690D01*
X007979Y007950D02*
X007090Y007062D01*
X006793Y006748D02*
X005419Y006748D01*
X005347Y006670D02*
X006865Y006670D01*
X006930Y006591D02*
X005282Y006591D01*
X005203Y006513D02*
X007009Y006513D01*
X007172Y006513D02*
X008012Y006513D01*
X008013Y006591D02*
X007251Y006591D01*
X007316Y006670D02*
X008013Y006670D01*
X008013Y006748D02*
X007388Y006748D01*
X007460Y006827D02*
X008013Y006827D01*
X008013Y006905D02*
X007532Y006905D01*
X007613Y006984D02*
X008013Y006984D01*
X008014Y007062D02*
X007662Y007062D01*
X007686Y007141D02*
X008014Y007141D01*
X008014Y007219D02*
X007693Y007219D01*
X007695Y007298D02*
X008014Y007298D01*
X008014Y007376D02*
X007682Y007376D01*
X007094Y007612D02*
X007087Y007612D01*
X006674Y007612D02*
X005538Y007612D01*
X005622Y007533D02*
X006591Y007533D01*
X006535Y007455D02*
X005677Y007455D01*
X005713Y007376D02*
X006499Y007376D01*
X006485Y007298D02*
X005727Y007298D01*
X005724Y007219D02*
X006488Y007219D01*
X006495Y007141D02*
X005717Y007141D01*
X005694Y007062D02*
X006519Y007062D01*
X006567Y006984D02*
X005645Y006984D01*
X005563Y006905D02*
X006649Y006905D01*
X006721Y006827D02*
X005491Y006827D01*
X005041Y006513D02*
X004257Y006513D01*
X004257Y006591D02*
X004962Y006591D01*
X004897Y006670D02*
X004257Y006670D01*
X004257Y006748D02*
X004825Y006748D01*
X004753Y006827D02*
X004257Y006827D01*
X004257Y006905D02*
X004681Y006905D01*
X004599Y006984D02*
X004257Y006984D01*
X004257Y007062D02*
X004550Y007062D01*
X004527Y007141D02*
X004257Y007141D01*
X004257Y007219D02*
X004519Y007219D01*
X004517Y007298D02*
X004257Y007298D01*
X004257Y007376D02*
X004531Y007376D01*
X004566Y007455D02*
X004257Y007455D01*
X004257Y007533D02*
X004622Y007533D01*
X004706Y007612D02*
X004257Y007612D01*
X004257Y007690D02*
X004686Y007690D01*
X004607Y007769D02*
X004257Y007769D01*
X004257Y007847D02*
X004529Y007847D01*
X004450Y007926D02*
X004257Y007926D01*
X004257Y008004D02*
X004372Y008004D01*
X004293Y008083D02*
X004257Y008083D01*
X003898Y008083D02*
X003306Y008083D01*
X003306Y008161D02*
X003898Y008161D01*
X003898Y008240D02*
X003306Y008240D01*
X003306Y008318D02*
X003898Y008318D01*
X003898Y008397D02*
X003306Y008397D01*
X003306Y008475D02*
X003898Y008475D01*
X003898Y008554D02*
X003306Y008554D01*
X003306Y008632D02*
X003898Y008632D01*
X003898Y008711D02*
X003306Y008711D01*
X003306Y008789D02*
X003898Y008789D01*
X003898Y008868D02*
X003306Y008868D01*
X003306Y008946D02*
X003898Y008946D01*
X003898Y009025D02*
X003306Y009025D01*
X003306Y009103D02*
X003898Y009103D01*
X003898Y009182D02*
X003306Y009182D01*
X003306Y009260D02*
X003898Y009260D01*
X003898Y009339D02*
X003306Y009339D01*
X003306Y009417D02*
X003898Y009417D01*
X003898Y009496D02*
X003306Y009496D01*
X003306Y009574D02*
X003898Y009574D01*
X003898Y009653D02*
X003306Y009653D01*
X003306Y009731D02*
X003898Y009731D01*
X003898Y009810D02*
X003306Y009810D01*
X003306Y009888D02*
X003898Y009888D01*
X003898Y009967D02*
X003306Y009967D01*
X003306Y010045D02*
X003898Y010045D01*
X003898Y010124D02*
X003306Y010124D01*
X003306Y010202D02*
X003898Y010202D01*
X003898Y010281D02*
X003306Y010281D01*
X003306Y010359D02*
X003898Y010359D01*
X003898Y010438D02*
X003306Y010438D01*
X003306Y010516D02*
X003898Y010516D01*
X003898Y010595D02*
X003306Y010595D01*
X003306Y010673D02*
X003898Y010673D01*
X003898Y010752D02*
X003306Y010752D01*
X003306Y010830D02*
X003898Y010830D01*
X003898Y010909D02*
X003306Y010909D01*
X003306Y010987D02*
X003898Y010987D01*
X003898Y011066D02*
X003306Y011066D01*
X003306Y011144D02*
X003898Y011144D01*
X003898Y011223D02*
X003306Y011223D01*
X003306Y011301D02*
X003898Y011301D01*
X003898Y011380D02*
X003306Y011380D01*
X003306Y011458D02*
X003898Y011458D01*
X003898Y011537D02*
X003306Y011537D01*
X003306Y011615D02*
X003898Y011615D01*
X003898Y011694D02*
X003306Y011694D01*
X003306Y011772D02*
X003898Y011772D01*
X003898Y011851D02*
X003306Y011851D01*
X003306Y011929D02*
X003898Y011929D01*
X003898Y012008D02*
X003306Y012008D01*
X003306Y012086D02*
X003898Y012086D01*
X003898Y012165D02*
X003306Y012165D01*
X003306Y012243D02*
X003898Y012243D01*
X004257Y012950D02*
X005820Y012950D01*
X005820Y013028D02*
X004257Y013028D01*
X004257Y013107D02*
X005820Y013107D01*
X005820Y013185D02*
X004257Y013185D01*
X004257Y013264D02*
X005820Y013264D01*
X005820Y013342D02*
X004257Y013342D01*
X004257Y013421D02*
X005820Y013421D01*
X005820Y013499D02*
X004257Y013499D01*
X004257Y013578D02*
X005588Y013578D01*
X005479Y013656D02*
X004257Y013656D01*
X004257Y013735D02*
X005434Y013735D01*
X005415Y013813D02*
X004257Y013813D01*
X004368Y013892D02*
X005415Y013892D01*
X005448Y013970D02*
X004447Y013970D01*
X004514Y014049D02*
X005513Y014049D01*
X005517Y014127D02*
X004547Y014127D01*
X004579Y014206D02*
X005517Y014206D01*
X005517Y014284D02*
X004584Y014284D01*
X004584Y014363D02*
X005517Y014363D01*
X005517Y014441D02*
X004575Y014441D01*
X004543Y014520D02*
X005517Y014520D01*
X005443Y014598D02*
X004510Y014598D01*
X004437Y014677D02*
X005003Y014677D01*
X004918Y014755D02*
X004352Y014755D01*
X004336Y014834D02*
X004883Y014834D01*
X004871Y014912D02*
X004489Y014912D01*
X004567Y014991D02*
X004878Y014991D01*
X004911Y015069D02*
X004623Y015069D01*
X004634Y015540D02*
X005259Y015540D01*
X005312Y015619D02*
X004595Y015619D01*
X004516Y015697D02*
X005440Y015697D01*
X005433Y015776D02*
X004403Y015776D01*
X004286Y015854D02*
X005433Y015854D01*
X005433Y015933D02*
X004409Y015933D01*
X004488Y016011D02*
X005433Y016011D01*
X005433Y016090D02*
X004531Y016090D01*
X004564Y016168D02*
X005471Y016168D01*
X005549Y016247D02*
X004584Y016247D01*
X004584Y016325D02*
X005628Y016325D01*
X005706Y016404D02*
X004584Y016404D01*
X003306Y017974D02*
X007636Y017974D01*
X007636Y018052D02*
X003306Y018052D01*
X003306Y018131D02*
X006111Y018131D01*
X006153Y018113D02*
X006050Y018156D01*
X005972Y018234D01*
X005929Y018337D01*
X005929Y018448D01*
X005972Y018551D01*
X006015Y018593D01*
X005064Y018593D01*
X005021Y018579D01*
X004992Y018593D01*
X004992Y018593D01*
X004991Y018593D01*
X004880Y018593D01*
X004777Y018635D01*
X004699Y018714D01*
X004656Y018817D01*
X004656Y018928D01*
X004699Y019030D01*
X004777Y019109D01*
X004880Y019151D01*
X004991Y019151D01*
X005093Y019109D01*
X005172Y019030D01*
X005204Y018952D01*
X006184Y018952D01*
X006289Y018847D01*
X006388Y018748D01*
X006388Y018608D01*
X006445Y018551D01*
X006488Y018448D01*
X006488Y018337D01*
X006445Y018234D01*
X006367Y018156D01*
X006264Y018113D01*
X006153Y018113D01*
X006306Y018131D02*
X007636Y018131D01*
X007636Y018209D02*
X006420Y018209D01*
X006467Y018288D02*
X007636Y018288D01*
X007636Y018366D02*
X006488Y018366D01*
X006488Y018445D02*
X007636Y018445D01*
X007636Y018523D02*
X006456Y018523D01*
X006394Y018602D02*
X007636Y018602D01*
X007636Y018680D02*
X006388Y018680D01*
X006377Y018759D02*
X007636Y018759D01*
X007636Y018837D02*
X006299Y018837D01*
X006220Y018916D02*
X007636Y018916D01*
X007636Y018994D02*
X005187Y018994D01*
X005129Y019073D02*
X007636Y019073D01*
X007636Y019151D02*
X003306Y019151D01*
X003306Y019073D02*
X004741Y019073D01*
X004684Y018994D02*
X003306Y018994D01*
X003306Y018916D02*
X004656Y018916D01*
X004656Y018837D02*
X003306Y018837D01*
X003306Y018759D02*
X004680Y018759D01*
X004733Y018680D02*
X003306Y018680D01*
X003306Y018602D02*
X004859Y018602D01*
X004880Y019370D02*
X004777Y019413D01*
X004699Y019491D01*
X004656Y019594D01*
X004656Y019705D01*
X004699Y019807D01*
X004756Y019864D01*
X004756Y020624D01*
X004699Y020682D01*
X004656Y020784D01*
X004656Y020895D01*
X004699Y020998D01*
X004777Y021076D01*
X004880Y021119D01*
X004991Y021119D01*
X005093Y021076D01*
X005172Y020998D01*
X005214Y020895D01*
X005214Y020784D01*
X005172Y020682D01*
X005115Y020624D01*
X005115Y019864D01*
X005172Y019807D01*
X005214Y019705D01*
X005214Y019594D01*
X005172Y019491D01*
X005093Y019413D01*
X004991Y019370D01*
X004880Y019370D01*
X004840Y019387D02*
X003306Y019387D01*
X003306Y019465D02*
X004725Y019465D01*
X004677Y019544D02*
X003306Y019544D01*
X003306Y019622D02*
X004656Y019622D01*
X004656Y019701D02*
X003306Y019701D01*
X003306Y019779D02*
X004687Y019779D01*
X004749Y019858D02*
X003306Y019858D01*
X003306Y019936D02*
X004756Y019936D01*
X004756Y020015D02*
X003306Y020015D01*
X003306Y020093D02*
X004756Y020093D01*
X004756Y020172D02*
X003306Y020172D01*
X003306Y020250D02*
X004756Y020250D01*
X004756Y020329D02*
X003306Y020329D01*
X003306Y020407D02*
X004756Y020407D01*
X004756Y020486D02*
X003306Y020486D01*
X003306Y020564D02*
X004756Y020564D01*
X004738Y020643D02*
X003306Y020643D01*
X003306Y020721D02*
X004682Y020721D01*
X004656Y020800D02*
X003306Y020800D01*
X003306Y020878D02*
X004656Y020878D01*
X004682Y020957D02*
X003306Y020957D01*
X003306Y021035D02*
X004736Y021035D01*
X004867Y021114D02*
X003306Y021114D01*
X003306Y021192D02*
X013974Y021192D01*
X013941Y021114D02*
X006201Y021114D01*
X006251Y021093D02*
X006148Y021135D01*
X006037Y021135D01*
X005935Y021093D01*
X005856Y021014D01*
X005814Y020912D01*
X005814Y020801D01*
X005856Y020698D01*
X005913Y020641D01*
X005913Y019716D01*
X005856Y019658D01*
X005814Y019556D01*
X005814Y019445D01*
X005856Y019342D01*
X005935Y019264D01*
X006037Y019221D01*
X006148Y019221D01*
X006251Y019264D01*
X006329Y019342D01*
X006372Y019445D01*
X006372Y019556D01*
X006329Y019658D01*
X006272Y019716D01*
X006272Y020641D01*
X006329Y020698D01*
X006372Y020801D01*
X006372Y020912D01*
X006329Y021014D01*
X006251Y021093D01*
X006309Y021035D02*
X013922Y021035D01*
X013922Y020957D02*
X006353Y020957D01*
X006372Y020878D02*
X013922Y020878D01*
X013951Y020800D02*
X006371Y020800D01*
X006339Y020721D02*
X013983Y020721D01*
X014042Y020643D02*
X006274Y020643D01*
X006272Y020564D02*
X014121Y020564D01*
X014289Y020486D02*
X006272Y020486D01*
X006272Y020407D02*
X008311Y020407D01*
X008231Y020329D02*
X006272Y020329D01*
X006272Y020250D02*
X008197Y020250D01*
X008186Y020172D02*
X006272Y020172D01*
X006272Y020093D02*
X008136Y020093D01*
X008058Y020015D02*
X006272Y020015D01*
X006272Y019936D02*
X007979Y019936D01*
X007901Y019858D02*
X006272Y019858D01*
X006272Y019779D02*
X007822Y019779D01*
X007744Y019701D02*
X006287Y019701D01*
X006344Y019622D02*
X007665Y019622D01*
X007636Y019544D02*
X006372Y019544D01*
X006372Y019465D02*
X007636Y019465D01*
X007636Y019387D02*
X006348Y019387D01*
X006295Y019308D02*
X007636Y019308D01*
X007636Y019230D02*
X006168Y019230D01*
X006017Y019230D02*
X003306Y019230D01*
X003306Y019308D02*
X005890Y019308D01*
X005838Y019387D02*
X005031Y019387D01*
X005146Y019465D02*
X005814Y019465D01*
X005814Y019544D02*
X005194Y019544D01*
X005214Y019622D02*
X005841Y019622D01*
X005898Y019701D02*
X005214Y019701D01*
X005183Y019779D02*
X005913Y019779D01*
X005913Y019858D02*
X005121Y019858D01*
X005115Y019936D02*
X005913Y019936D01*
X005913Y020015D02*
X005115Y020015D01*
X005115Y020093D02*
X005913Y020093D01*
X005913Y020172D02*
X005115Y020172D01*
X005115Y020250D02*
X005913Y020250D01*
X005913Y020329D02*
X005115Y020329D01*
X005115Y020407D02*
X005913Y020407D01*
X005913Y020486D02*
X005115Y020486D01*
X005115Y020564D02*
X005913Y020564D01*
X005912Y020643D02*
X005133Y020643D01*
X005188Y020721D02*
X005847Y020721D01*
X005814Y020800D02*
X005214Y020800D01*
X005214Y020878D02*
X005814Y020878D01*
X005832Y020957D02*
X005189Y020957D01*
X005135Y021035D02*
X005877Y021035D01*
X005985Y021114D02*
X005003Y021114D01*
X003306Y021271D02*
X014019Y021271D01*
X014098Y021349D02*
X003306Y021349D01*
X003306Y021585D02*
X017302Y021585D01*
X017302Y021663D02*
X003306Y021663D01*
X003307Y021742D02*
X017302Y021742D01*
X017353Y021820D02*
X003311Y021820D01*
X003317Y021933D02*
X003409Y022332D01*
X003586Y022701D01*
X003842Y023021D01*
X004162Y023276D01*
X004531Y023454D01*
X004930Y023545D01*
X005134Y023556D01*
X005731Y023556D01*
X005731Y023463D01*
X005774Y023360D01*
X005831Y023303D01*
X005831Y023139D01*
X005774Y023081D01*
X005731Y022979D01*
X005731Y022868D01*
X005774Y022765D01*
X005852Y022687D01*
X005955Y022644D01*
X006066Y022644D01*
X006168Y022687D01*
X006247Y022765D01*
X006289Y022868D01*
X006289Y022979D01*
X006247Y023081D01*
X006189Y023139D01*
X006189Y023303D01*
X006247Y023360D01*
X006289Y023463D01*
X006289Y023556D01*
X024426Y023556D01*
X024631Y023545D01*
X025030Y023454D01*
X025399Y023276D01*
X025719Y023021D01*
X025974Y022701D01*
X026152Y022332D01*
X026096Y022448D02*
X015707Y022448D01*
X015712Y022527D02*
X026058Y022527D01*
X026020Y022605D02*
X015712Y022605D01*
X015712Y022684D02*
X025982Y022684D01*
X025925Y022762D02*
X015707Y022762D01*
X015674Y022841D02*
X025863Y022841D01*
X025800Y022919D02*
X015642Y022919D01*
X015609Y022998D02*
X025737Y022998D01*
X025649Y023076D02*
X015543Y023076D01*
X015465Y023155D02*
X025551Y023155D01*
X025453Y023233D02*
X015374Y023233D01*
X015184Y023312D02*
X025325Y023312D01*
X025162Y023390D02*
X006259Y023390D01*
X006289Y023469D02*
X024965Y023469D01*
X024591Y023547D02*
X006289Y023547D01*
X006198Y023312D02*
X014778Y023312D01*
X014588Y023233D02*
X006189Y023233D01*
X006189Y023155D02*
X014497Y023155D01*
X014419Y023076D02*
X006249Y023076D01*
X006281Y022998D02*
X014353Y022998D01*
X014320Y022919D02*
X006289Y022919D01*
X006278Y022841D02*
X014288Y022841D01*
X014255Y022762D02*
X006244Y022762D01*
X006161Y022684D02*
X014250Y022684D01*
X014250Y022605D02*
X003540Y022605D01*
X003502Y022527D02*
X014250Y022527D01*
X014255Y022448D02*
X003465Y022448D01*
X003427Y022370D02*
X014288Y022370D01*
X014320Y022291D02*
X003399Y022291D01*
X003381Y022213D02*
X014353Y022213D01*
X014419Y022134D02*
X003363Y022134D01*
X003346Y022056D02*
X014497Y022056D01*
X014588Y021977D02*
X003328Y021977D01*
X003578Y022684D02*
X005859Y022684D01*
X005776Y022762D02*
X003635Y022762D01*
X003698Y022841D02*
X005742Y022841D01*
X005731Y022919D02*
X003760Y022919D01*
X003823Y022998D02*
X005739Y022998D01*
X005771Y023076D02*
X003911Y023076D01*
X004009Y023155D02*
X005831Y023155D01*
X005831Y023233D02*
X004108Y023233D01*
X004235Y023312D02*
X005822Y023312D01*
X005761Y023390D02*
X004398Y023390D01*
X004596Y023469D02*
X005731Y023469D01*
X005731Y023547D02*
X004969Y023547D01*
X008466Y020168D02*
X007816Y019518D01*
X007816Y015518D01*
X007966Y014718D02*
X009216Y014718D01*
X009266Y014668D01*
X009316Y014718D01*
X010266Y014718D01*
X010416Y014647D01*
X010516Y014385D02*
X010516Y014333D01*
X010511Y014269D01*
X010516Y014263D01*
X010516Y014103D01*
X010284Y014103D01*
X010178Y014208D01*
X010172Y014263D01*
X010214Y014306D01*
X010257Y014408D01*
X010257Y014410D01*
X010257Y014409D01*
X010360Y014367D01*
X010472Y014367D01*
X010516Y014385D01*
X010516Y014363D02*
X010238Y014363D01*
X010193Y014284D02*
X010512Y014284D01*
X010516Y014206D02*
X010181Y014206D01*
X010259Y014127D02*
X010516Y014127D01*
X010856Y014127D02*
X011307Y014127D01*
X011306Y014049D02*
X010856Y014049D01*
X010856Y013970D02*
X011306Y013970D01*
X011306Y013892D02*
X010856Y013892D01*
X010856Y013862D02*
X010856Y014248D01*
X010899Y014285D01*
X010906Y014283D01*
X011017Y014283D01*
X011120Y014325D01*
X011199Y014404D01*
X011207Y014423D01*
X011307Y014322D01*
X011304Y013473D01*
X011214Y013473D01*
X011111Y013430D01*
X011066Y013385D01*
X010704Y013388D01*
X010686Y013400D01*
X010628Y013389D01*
X010569Y013389D01*
X010553Y013373D01*
X010531Y013369D01*
X010499Y013320D01*
X010457Y013279D01*
X010457Y013256D01*
X009231Y011406D01*
X009227Y011408D01*
X009202Y011400D01*
X009191Y011400D01*
X009185Y011394D01*
X009180Y011392D01*
X009157Y011390D01*
X009146Y011392D01*
X009139Y011388D01*
X009130Y011387D01*
X009123Y011378D01*
X009104Y011366D01*
X009083Y011359D01*
X009071Y011359D01*
X009065Y011353D01*
X009059Y011351D01*
X009053Y011353D01*
X009046Y011359D01*
X009035Y011359D01*
X009014Y011366D01*
X008995Y011378D01*
X008988Y011387D01*
X008979Y011388D01*
X008971Y011392D01*
X008960Y011390D01*
X008938Y011392D01*
X008933Y011394D01*
X008927Y011400D01*
X008915Y011400D01*
X008891Y011408D01*
X008886Y011406D01*
X008850Y011402D01*
X008809Y011407D01*
X008809Y011407D01*
X008805Y011408D01*
X008783Y011400D01*
X008774Y011400D01*
X008769Y011395D01*
X008759Y011391D01*
X008729Y011388D01*
X008721Y011390D01*
X008716Y011386D01*
X008710Y011386D01*
X008705Y011379D01*
X008680Y011363D01*
X008652Y011353D01*
X008644Y011352D01*
X008639Y011348D01*
X008634Y011346D01*
X008630Y011338D01*
X008610Y011317D01*
X008601Y011311D01*
X008594Y011310D01*
X008589Y011303D01*
X008589Y011303D01*
X008588Y013335D01*
X009855Y013335D01*
X009941Y013421D01*
X011101Y013421D01*
X011304Y013499D02*
X010019Y013499D01*
X009994Y013474D02*
X010046Y013526D01*
X010046Y013527D01*
X010047Y013528D01*
X010046Y013602D01*
X010046Y013675D01*
X010045Y013676D01*
X010043Y013863D01*
X010143Y013763D01*
X010756Y013763D01*
X010856Y013862D01*
X010807Y013813D02*
X011306Y013813D01*
X011305Y013735D02*
X010044Y013735D01*
X010043Y013813D02*
X010092Y013813D01*
X010046Y013656D02*
X011305Y013656D01*
X011305Y013578D02*
X010046Y013578D01*
X009994Y013474D02*
X009943Y013421D01*
X009941Y013421D01*
X009862Y013342D02*
X010514Y013342D01*
X010457Y013264D02*
X008588Y013264D01*
X008588Y013185D02*
X010410Y013185D01*
X010358Y013107D02*
X008588Y013107D01*
X008588Y013028D02*
X010306Y013028D01*
X010254Y012950D02*
X008588Y012950D01*
X008588Y012871D02*
X010202Y012871D01*
X010150Y012793D02*
X008588Y012793D01*
X008588Y012714D02*
X010098Y012714D01*
X010046Y012636D02*
X008588Y012636D01*
X008588Y012557D02*
X009994Y012557D01*
X009942Y012479D02*
X008588Y012479D01*
X008588Y012400D02*
X009890Y012400D01*
X009838Y012322D02*
X008588Y012322D01*
X008588Y012243D02*
X009786Y012243D01*
X009734Y012165D02*
X008588Y012165D01*
X008588Y012086D02*
X009682Y012086D01*
X009630Y012008D02*
X008588Y012008D01*
X008588Y011929D02*
X009578Y011929D01*
X009526Y011851D02*
X008588Y011851D01*
X008588Y011772D02*
X009474Y011772D01*
X009422Y011694D02*
X008588Y011694D01*
X008588Y011615D02*
X009370Y011615D01*
X009318Y011537D02*
X008588Y011537D01*
X008589Y011458D02*
X009266Y011458D01*
X009124Y011380D02*
X008994Y011380D01*
X008705Y011380D02*
X008589Y011380D01*
X008589Y010670D02*
X008596Y010669D01*
X008897Y010341D01*
X008897Y010333D01*
X008942Y010291D01*
X008983Y010246D01*
X008992Y010246D01*
X008998Y010240D01*
X009059Y010243D01*
X009120Y010240D01*
X009126Y010246D01*
X009134Y010246D01*
X009176Y010291D01*
X009221Y010333D01*
X009221Y010341D01*
X009522Y010669D01*
X009530Y010670D01*
X009563Y010713D01*
X009579Y010718D01*
X009594Y010748D01*
X009608Y010763D01*
X009608Y010769D01*
X009618Y010775D01*
X009624Y010793D01*
X009635Y010808D01*
X009633Y010825D01*
X009633Y010826D01*
X009634Y010827D01*
X009647Y010838D01*
X009648Y010856D01*
X009657Y010873D01*
X009653Y010885D01*
X009657Y010889D01*
X009657Y010910D01*
X009666Y010941D01*
X009658Y010955D01*
X009663Y010962D01*
X009661Y010988D01*
X009663Y011010D01*
X009657Y011016D01*
X009657Y011021D01*
X009657Y011024D01*
X009666Y011041D01*
X009657Y011067D01*
X009657Y011080D01*
X009650Y011087D01*
X009650Y011089D01*
X009648Y011107D01*
X009651Y011119D01*
X009645Y011129D01*
X009644Y011139D01*
X009634Y011148D01*
X009625Y011163D01*
X009624Y011165D01*
X009626Y011174D01*
X009618Y011185D01*
X009609Y011211D01*
X009600Y011216D01*
X009600Y011220D01*
X009579Y011242D01*
X010241Y012243D01*
X010241Y012150D01*
X010270Y012080D01*
X010180Y012042D01*
X010102Y011964D01*
X010059Y011861D01*
X010059Y011750D01*
X010102Y011648D01*
X010148Y011601D01*
X010148Y010692D01*
X010102Y010645D01*
X010059Y010543D01*
X010059Y010431D01*
X010102Y010329D01*
X010180Y010250D01*
X010283Y010208D01*
X010394Y010208D01*
X010497Y010250D01*
X010575Y010329D01*
X010617Y010431D01*
X010617Y010543D01*
X010575Y010645D01*
X010528Y010692D01*
X010528Y011601D01*
X010575Y011648D01*
X010617Y011750D01*
X010617Y011861D01*
X010589Y011931D01*
X010678Y011969D01*
X010757Y012047D01*
X010799Y012150D01*
X010799Y012236D01*
X011108Y012591D01*
X011155Y012591D01*
X011257Y012633D01*
X011302Y012678D01*
X011291Y009537D01*
X010182Y009527D01*
X010127Y009582D01*
X010024Y009624D01*
X009913Y009624D01*
X009810Y009582D01*
X009731Y009503D01*
X009720Y009476D01*
X009600Y009445D01*
X009600Y009449D01*
X009576Y009473D01*
X009560Y009501D01*
X009552Y009503D01*
X009549Y009518D01*
X009529Y009531D01*
X009524Y009538D01*
X009517Y009539D01*
X009508Y009545D01*
X009488Y009567D01*
X009484Y009574D01*
X009802Y009574D01*
X009728Y009496D02*
X009563Y009496D01*
X009484Y009574D02*
X009478Y009576D01*
X009474Y009581D01*
X009466Y009581D01*
X009438Y009591D01*
X009413Y009607D01*
X009408Y009614D01*
X009402Y009615D01*
X009397Y009618D01*
X009388Y009616D01*
X009359Y009620D01*
X009349Y009623D01*
X009344Y009628D01*
X009335Y009628D01*
X009313Y009637D01*
X009309Y009635D01*
X009268Y009630D01*
X009231Y009635D01*
X009227Y009637D01*
X009202Y009628D01*
X009191Y009628D01*
X009185Y009622D01*
X009180Y009621D01*
X009157Y009618D01*
X009146Y009621D01*
X009139Y009616D01*
X009130Y009615D01*
X009123Y009606D01*
X009104Y009594D01*
X009083Y009587D01*
X009071Y009587D01*
X009065Y009581D01*
X009059Y009579D01*
X009053Y009581D01*
X009046Y009587D01*
X009035Y009587D01*
X009014Y009594D01*
X008995Y009606D01*
X008988Y009615D01*
X008979Y009616D01*
X008971Y009621D01*
X008960Y009618D01*
X008938Y009621D01*
X008933Y009622D01*
X008927Y009628D01*
X008915Y009628D01*
X008891Y009637D01*
X008886Y009635D01*
X008850Y009630D01*
X008809Y009635D01*
X008809Y009635D01*
X008805Y009637D01*
X008783Y009628D01*
X008774Y009628D01*
X008769Y009623D01*
X008759Y009620D01*
X008729Y009616D01*
X008721Y009618D01*
X008716Y009615D01*
X008710Y009614D01*
X008705Y009607D01*
X008680Y009591D01*
X008652Y009581D01*
X008644Y009581D01*
X008639Y009576D01*
X008634Y009574D01*
X008589Y009574D01*
X008610Y009545D02*
X008601Y009539D01*
X008594Y009538D01*
X008589Y009532D01*
X008589Y010670D01*
X008589Y010595D02*
X008664Y010595D01*
X008736Y010516D02*
X008589Y010516D01*
X008589Y010438D02*
X008808Y010438D01*
X008880Y010359D02*
X008589Y010359D01*
X008589Y010281D02*
X008952Y010281D01*
X009166Y010281D02*
X010150Y010281D01*
X010089Y010359D02*
X009238Y010359D01*
X009310Y010438D02*
X010059Y010438D01*
X010059Y010516D02*
X009382Y010516D01*
X009454Y010595D02*
X010081Y010595D01*
X010130Y010673D02*
X009533Y010673D01*
X009597Y010752D02*
X010148Y010752D01*
X010148Y010830D02*
X009638Y010830D01*
X009657Y010909D02*
X010148Y010909D01*
X010148Y010987D02*
X009661Y010987D01*
X009657Y011066D02*
X010148Y011066D01*
X010148Y011144D02*
X009638Y011144D01*
X009597Y011223D02*
X010148Y011223D01*
X010148Y011301D02*
X009617Y011301D01*
X009669Y011380D02*
X010148Y011380D01*
X010148Y011458D02*
X009721Y011458D01*
X009773Y011537D02*
X010148Y011537D01*
X010135Y011615D02*
X009825Y011615D01*
X009877Y011694D02*
X010083Y011694D01*
X010059Y011772D02*
X009929Y011772D01*
X009981Y011851D02*
X010059Y011851D01*
X010033Y011929D02*
X010087Y011929D01*
X010085Y012008D02*
X010146Y012008D01*
X010137Y012086D02*
X010268Y012086D01*
X010241Y012165D02*
X010189Y012165D01*
X010589Y011929D02*
X011299Y011929D01*
X011299Y011851D02*
X010617Y011851D01*
X010617Y011772D02*
X011299Y011772D01*
X011299Y011694D02*
X010594Y011694D01*
X010542Y011615D02*
X011298Y011615D01*
X011298Y011537D02*
X010528Y011537D01*
X010528Y011458D02*
X011298Y011458D01*
X011298Y011380D02*
X010528Y011380D01*
X010528Y011301D02*
X011297Y011301D01*
X011297Y011223D02*
X010528Y011223D01*
X010528Y011144D02*
X011297Y011144D01*
X011296Y011066D02*
X010528Y011066D01*
X010528Y010987D02*
X011296Y010987D01*
X011296Y010909D02*
X010528Y010909D01*
X010528Y010830D02*
X011296Y010830D01*
X011295Y010752D02*
X010528Y010752D01*
X010547Y010673D02*
X011295Y010673D01*
X011295Y010595D02*
X010596Y010595D01*
X010617Y010516D02*
X011295Y010516D01*
X011294Y010438D02*
X010617Y010438D01*
X010588Y010359D02*
X011294Y010359D01*
X011294Y010281D02*
X010527Y010281D01*
X011294Y010202D02*
X008589Y010202D01*
X008589Y010124D02*
X011293Y010124D01*
X011293Y010045D02*
X008589Y010045D01*
X008589Y009967D02*
X011293Y009967D01*
X011293Y009888D02*
X008589Y009888D01*
X008589Y009810D02*
X011292Y009810D01*
X011292Y009731D02*
X008589Y009731D01*
X008589Y009653D02*
X011292Y009653D01*
X011292Y009574D02*
X010135Y009574D01*
X009968Y009344D02*
X011471Y009359D01*
X011487Y014397D01*
X010896Y014988D01*
X010416Y014988D01*
X010105Y015218D02*
X010916Y015218D01*
X011666Y014468D01*
X011666Y014164D01*
X011670Y014160D01*
X011670Y008890D01*
X010119Y007739D01*
X009861Y007847D02*
X008590Y007847D01*
X008590Y007769D02*
X009812Y007769D01*
X009839Y007786D02*
X009510Y007575D01*
X009508Y007577D01*
X009488Y007598D01*
X009484Y007606D01*
X009478Y007608D01*
X009474Y007612D01*
X009466Y007613D01*
X009438Y007623D01*
X009413Y007639D01*
X009408Y007646D01*
X009402Y007646D01*
X009397Y007650D01*
X009388Y007648D01*
X009359Y007651D01*
X009349Y007655D01*
X009344Y007660D01*
X009335Y007660D01*
X009313Y007668D01*
X009309Y007666D01*
X009309Y007666D01*
X009268Y007662D01*
X009231Y007666D01*
X009227Y007668D01*
X009202Y007660D01*
X009191Y007660D01*
X009185Y007654D01*
X009180Y007652D01*
X009157Y007650D01*
X009146Y007652D01*
X009139Y007647D01*
X009130Y007647D01*
X009123Y007638D01*
X009104Y007626D01*
X009083Y007619D01*
X009071Y007619D01*
X009065Y007612D01*
X009059Y007610D01*
X009053Y007612D01*
X009046Y007619D01*
X009035Y007619D01*
X009014Y007626D01*
X008995Y007638D01*
X008988Y007647D01*
X008979Y007647D01*
X008971Y007652D01*
X008960Y007650D01*
X008938Y007652D01*
X008933Y007654D01*
X008927Y007660D01*
X008915Y007660D01*
X008891Y007668D01*
X008886Y007666D01*
X008850Y007662D01*
X008809Y007666D01*
X008805Y007668D01*
X008783Y007660D01*
X008774Y007660D01*
X008769Y007655D01*
X008759Y007651D01*
X008729Y007648D01*
X008721Y007650D01*
X008716Y007646D01*
X008710Y007646D01*
X008705Y007639D01*
X008680Y007623D01*
X008652Y007613D01*
X008644Y007612D01*
X008639Y007608D01*
X008634Y007606D01*
X008630Y007598D01*
X008610Y007577D01*
X008601Y007571D01*
X008594Y007570D01*
X008590Y007565D01*
X008590Y008898D01*
X008596Y008897D01*
X008897Y008569D01*
X008897Y008561D01*
X008942Y008520D01*
X008983Y008475D01*
X008590Y008475D01*
X008590Y008397D02*
X010703Y008397D01*
X010809Y008475D02*
X009135Y008475D01*
X009134Y008475D02*
X009176Y008520D01*
X009221Y008561D01*
X009221Y008569D01*
X009522Y008897D01*
X009530Y008898D01*
X009563Y008941D01*
X009579Y008947D01*
X009594Y008976D01*
X009608Y008991D01*
X009608Y008997D01*
X009618Y009003D01*
X009624Y009021D01*
X009635Y009036D01*
X009633Y009053D01*
X009633Y009054D01*
X009634Y009055D01*
X009643Y009063D01*
X009810Y009107D01*
X009913Y009064D01*
X010024Y009064D01*
X010127Y009107D01*
X010186Y009167D01*
X011472Y009179D01*
X011490Y009179D01*
X011490Y008981D01*
X010187Y008014D01*
X010175Y008019D01*
X010063Y008019D01*
X009961Y007977D01*
X009882Y007898D01*
X009839Y007795D01*
X009839Y007786D01*
X009909Y007926D02*
X008590Y007926D01*
X008590Y008004D02*
X010027Y008004D01*
X010280Y008083D02*
X008590Y008083D01*
X008590Y008161D02*
X010385Y008161D01*
X010491Y008240D02*
X008590Y008240D01*
X008590Y008318D02*
X010597Y008318D01*
X010778Y008004D02*
X011723Y008004D01*
X011724Y007926D02*
X010672Y007926D01*
X010566Y007847D02*
X011725Y007847D01*
X011726Y007769D02*
X010461Y007769D01*
X010399Y007690D02*
X011726Y007690D01*
X011727Y007612D02*
X010369Y007612D01*
X010309Y007533D02*
X011728Y007533D01*
X011729Y007455D02*
X010026Y007455D01*
X009904Y007376D02*
X011730Y007376D01*
X011731Y007298D02*
X009781Y007298D01*
X009661Y007219D02*
X011732Y007219D01*
X011733Y007141D02*
X009654Y007141D01*
X009631Y007062D02*
X011734Y007062D01*
X011735Y006984D02*
X009582Y006984D01*
X009500Y006905D02*
X011735Y006905D01*
X011736Y006827D02*
X009428Y006827D01*
X009356Y006748D02*
X011737Y006748D01*
X011738Y006670D02*
X009284Y006670D01*
X009219Y006591D02*
X011739Y006591D01*
X011740Y006513D02*
X009140Y006513D01*
X008978Y006513D02*
X008591Y006513D01*
X008591Y006591D02*
X008899Y006591D01*
X008834Y006670D02*
X008591Y006670D01*
X008591Y006748D02*
X008762Y006748D01*
X008690Y006827D02*
X008590Y006827D01*
X008590Y006905D02*
X008618Y006905D01*
X008591Y006434D02*
X011741Y006434D01*
X011742Y006356D02*
X008591Y006356D01*
X008591Y006277D02*
X011743Y006277D01*
X011744Y006199D02*
X008591Y006199D01*
X008591Y006120D02*
X011745Y006120D01*
X011745Y006042D02*
X008591Y006042D01*
X008591Y005963D02*
X011746Y005963D01*
X011747Y005885D02*
X008636Y005885D01*
X008701Y005806D02*
X011748Y005806D01*
X011749Y005728D02*
X008766Y005728D01*
X009048Y005649D02*
X009070Y005649D01*
X009452Y005649D02*
X010963Y005649D01*
X010970Y005656D02*
X010891Y005578D01*
X010849Y005475D01*
X010849Y005363D01*
X010891Y005260D01*
X010909Y005243D01*
X010909Y002943D01*
X010820Y002906D01*
X010741Y002828D01*
X010699Y002725D01*
X010699Y002613D01*
X010741Y002510D01*
X010820Y002432D01*
X010923Y002389D01*
X011034Y002389D01*
X011137Y002432D01*
X011216Y002510D01*
X011259Y002613D01*
X011259Y002638D01*
X011349Y002728D01*
X011349Y005243D01*
X011366Y005260D01*
X011409Y005363D01*
X011409Y005475D01*
X011366Y005578D01*
X011287Y005656D01*
X011184Y005699D01*
X011073Y005699D01*
X010970Y005656D01*
X010888Y005571D02*
X009551Y005571D01*
X009612Y005492D02*
X010856Y005492D01*
X010849Y005414D02*
X009649Y005414D01*
X009665Y005335D02*
X010860Y005335D01*
X010895Y005257D02*
X009663Y005257D01*
X009655Y005178D02*
X010909Y005178D01*
X010909Y005100D02*
X009635Y005100D01*
X009585Y005021D02*
X010909Y005021D01*
X010909Y004943D02*
X009506Y004943D01*
X009434Y004864D02*
X010909Y004864D01*
X010909Y004786D02*
X009362Y004786D01*
X009290Y004707D02*
X010909Y004707D01*
X010909Y004629D02*
X009221Y004629D01*
X009146Y004550D02*
X010909Y004550D01*
X010909Y004472D02*
X004257Y004472D01*
X004257Y004550D02*
X007004Y004550D01*
X006928Y004629D02*
X004257Y004629D01*
X004257Y004707D02*
X006860Y004707D01*
X006788Y004786D02*
X004257Y004786D01*
X004257Y004864D02*
X006716Y004864D01*
X006644Y004943D02*
X004257Y004943D01*
X004257Y005021D02*
X006564Y005021D01*
X006514Y005100D02*
X004257Y005100D01*
X004257Y005178D02*
X006494Y005178D01*
X006486Y005257D02*
X004257Y005257D01*
X004257Y005335D02*
X006485Y005335D01*
X006500Y005414D02*
X004257Y005414D01*
X004257Y005492D02*
X006537Y005492D01*
X006598Y005571D02*
X004257Y005571D01*
X004257Y005649D02*
X006698Y005649D01*
X007079Y005649D02*
X007102Y005649D01*
X007511Y005728D02*
X004257Y005728D01*
X004257Y005806D02*
X007596Y005806D01*
X007681Y005885D02*
X004257Y005885D01*
X004257Y005963D02*
X007766Y005963D01*
X007851Y006042D02*
X004257Y006042D01*
X004257Y006120D02*
X007936Y006120D01*
X008012Y006199D02*
X004257Y006199D01*
X004257Y006277D02*
X008012Y006277D01*
X008012Y006356D02*
X004257Y006356D01*
X004257Y006434D02*
X008012Y006434D01*
X008191Y006112D02*
X007090Y005093D01*
X007393Y004786D02*
X008756Y004786D01*
X008684Y004864D02*
X007465Y004864D01*
X007537Y004943D02*
X008612Y004943D01*
X008533Y005021D02*
X007616Y005021D01*
X007666Y005100D02*
X008483Y005100D01*
X008463Y005178D02*
X007686Y005178D01*
X007694Y005257D02*
X008455Y005257D01*
X008453Y005335D02*
X007696Y005335D01*
X007702Y005414D02*
X008469Y005414D01*
X008494Y005492D02*
X007787Y005492D01*
X007872Y005571D02*
X008429Y005571D01*
X008363Y005649D02*
X007956Y005649D01*
X008041Y005728D02*
X008298Y005728D01*
X008231Y005806D02*
X008126Y005806D01*
X008211Y005885D02*
X008231Y005885D01*
X008411Y005874D02*
X009059Y005093D01*
X008828Y004707D02*
X007321Y004707D01*
X007252Y004629D02*
X008897Y004629D01*
X008972Y004550D02*
X007177Y004550D01*
X007258Y003928D02*
X007234Y003920D01*
X007222Y003920D01*
X007216Y003914D01*
X007211Y003912D01*
X007189Y003909D01*
X007178Y003912D01*
X007170Y003907D01*
X007161Y003906D01*
X007154Y003897D01*
X007135Y003886D01*
X007114Y003878D01*
X007103Y003879D01*
X007096Y003872D01*
X007090Y003870D01*
X007084Y003872D01*
X007078Y003879D01*
X007067Y003878D01*
X007045Y003886D01*
X007026Y003897D01*
X007019Y003906D01*
X007011Y003907D01*
X007003Y003912D01*
X006992Y003909D01*
X006970Y003912D01*
X006964Y003914D01*
X006958Y003920D01*
X006947Y003920D01*
X006922Y003928D01*
X006918Y003926D01*
X006881Y003922D01*
X006840Y003926D01*
X006837Y003928D01*
X006814Y003920D01*
X006806Y003920D01*
X006801Y003915D01*
X006790Y003911D01*
X006761Y003908D01*
X006753Y003909D01*
X006748Y003906D01*
X006742Y003905D01*
X006736Y003899D01*
X006712Y003883D01*
X006684Y003872D01*
X006675Y003872D01*
X006671Y003868D01*
X006665Y003866D01*
X006662Y003858D01*
X006641Y003837D01*
X006632Y003831D01*
X006625Y003830D01*
X006620Y003823D01*
X006600Y003810D01*
X006597Y003795D01*
X006590Y003793D01*
X006573Y003765D01*
X006550Y003740D01*
X006550Y003735D01*
X006540Y003731D01*
X006532Y003705D01*
X006524Y003694D01*
X006525Y003685D01*
X006524Y003683D01*
X006515Y003667D01*
X006505Y003659D01*
X006504Y003648D01*
X006498Y003639D01*
X006502Y003627D01*
X006500Y003609D01*
X006499Y003607D01*
X006492Y003600D01*
X006492Y003587D01*
X006484Y003561D01*
X006492Y003544D01*
X006492Y003540D01*
X006492Y003536D01*
X006487Y003530D01*
X006489Y003507D01*
X006486Y003481D01*
X006491Y003475D01*
X006483Y003461D01*
X006492Y003429D01*
X006492Y003409D01*
X006496Y003405D01*
X006493Y003393D01*
X006501Y003376D01*
X006503Y003357D01*
X006516Y003346D01*
X006516Y003346D01*
X006517Y003344D01*
X006514Y003328D01*
X006526Y003313D01*
X006531Y003295D01*
X006542Y003289D01*
X006541Y003283D01*
X006555Y003268D01*
X006570Y003238D01*
X006586Y003233D01*
X006619Y003190D01*
X006628Y003189D01*
X006910Y002880D01*
X006910Y002633D01*
X007149Y002394D01*
X007149Y002313D01*
X007191Y002210D01*
X007270Y002132D01*
X007373Y002089D01*
X007484Y002089D01*
X007587Y002132D01*
X007666Y002210D01*
X007709Y002313D01*
X007709Y002425D01*
X007666Y002528D01*
X007587Y002606D01*
X007484Y002649D01*
X007403Y002649D01*
X007270Y002782D01*
X007270Y002880D01*
X007553Y003189D01*
X007562Y003190D01*
X007594Y003233D01*
X007611Y003238D01*
X007626Y003268D01*
X007640Y003283D01*
X007639Y003289D01*
X007650Y003295D01*
X007655Y003313D01*
X007667Y003328D01*
X007664Y003344D01*
X007665Y003346D01*
X007678Y003357D01*
X007680Y003376D01*
X007688Y003393D01*
X007684Y003405D01*
X007688Y003409D01*
X007688Y003429D01*
X007698Y003461D01*
X007690Y003475D01*
X007695Y003481D01*
X007692Y003507D01*
X007694Y003530D01*
X007689Y003536D01*
X007688Y003540D01*
X007688Y003544D01*
X007697Y003561D01*
X007688Y003587D01*
X007688Y003600D01*
X007682Y003607D01*
X007681Y003609D01*
X007679Y003627D01*
X007682Y003639D01*
X007677Y003648D01*
X007676Y003659D01*
X007666Y003667D01*
X007657Y003683D01*
X007656Y003685D01*
X007657Y003694D01*
X007649Y003705D01*
X007641Y003731D01*
X007631Y003735D01*
X007631Y003740D01*
X007608Y003765D01*
X007591Y003793D01*
X007584Y003795D01*
X007581Y003810D01*
X007561Y003823D01*
X007555Y003830D01*
X007549Y003831D01*
X007540Y003837D01*
X007519Y003858D01*
X007515Y003866D01*
X007510Y003868D01*
X007506Y003872D01*
X007497Y003872D01*
X007469Y003883D01*
X007444Y003899D01*
X007439Y003905D01*
X007433Y003906D01*
X007428Y003909D01*
X007420Y003908D01*
X007390Y003911D01*
X007380Y003915D01*
X007375Y003920D01*
X007367Y003920D01*
X007344Y003928D01*
X007341Y003926D01*
X007340Y003926D01*
X007299Y003922D01*
X007263Y003926D01*
X007258Y003928D01*
X007241Y003922D02*
X006940Y003922D01*
X006885Y003922D02*
X006878Y003922D01*
X006840Y003926D02*
X006840Y003926D01*
X006821Y003922D02*
X005391Y003922D01*
X005398Y003920D02*
X005376Y003928D01*
X005372Y003926D01*
X005372Y003926D01*
X005331Y003922D01*
X005294Y003926D01*
X005290Y003928D01*
X005265Y003920D01*
X005254Y003920D01*
X005248Y003914D01*
X005243Y003912D01*
X005220Y003909D01*
X005209Y003912D01*
X005202Y003907D01*
X005193Y003906D01*
X005186Y003897D01*
X005167Y003886D01*
X005146Y003878D01*
X005134Y003879D01*
X005128Y003872D01*
X005122Y003870D01*
X005116Y003872D01*
X005109Y003879D01*
X005098Y003878D01*
X005077Y003886D01*
X005058Y003897D01*
X005051Y003906D01*
X005042Y003907D01*
X005034Y003912D01*
X005023Y003909D01*
X005001Y003912D01*
X004996Y003914D01*
X004990Y003920D01*
X004978Y003920D01*
X004954Y003928D01*
X004949Y003926D01*
X004913Y003922D01*
X004872Y003926D01*
X004872Y003926D01*
X004868Y003928D01*
X004846Y003920D01*
X004837Y003920D01*
X004832Y003915D01*
X004822Y003911D01*
X004792Y003908D01*
X004784Y003909D01*
X004779Y003906D01*
X004773Y003905D01*
X004768Y003899D01*
X004743Y003883D01*
X004715Y003872D01*
X004707Y003872D01*
X004702Y003868D01*
X004697Y003866D01*
X004693Y003858D01*
X004673Y003837D01*
X004664Y003831D01*
X004657Y003830D01*
X004652Y003823D01*
X004632Y003810D01*
X004629Y003795D01*
X004621Y003793D01*
X004605Y003765D01*
X004257Y003765D01*
X004257Y003687D02*
X004556Y003687D01*
X004557Y003685D02*
X004556Y003683D01*
X004547Y003667D01*
X004537Y003659D01*
X004535Y003648D01*
X004530Y003639D01*
X004533Y003627D01*
X004531Y003609D01*
X004530Y003607D01*
X004524Y003600D01*
X004524Y003587D01*
X004515Y003561D01*
X004524Y003544D01*
X004524Y003540D01*
X004523Y003536D01*
X004518Y003530D01*
X004520Y003507D01*
X004517Y003481D01*
X004523Y003475D01*
X004515Y003461D01*
X004524Y003429D01*
X004524Y003409D01*
X004528Y003405D01*
X004524Y003393D01*
X004533Y003376D01*
X004534Y003357D01*
X004547Y003346D01*
X004548Y003346D01*
X004548Y003344D01*
X004546Y003328D01*
X004557Y003313D01*
X004562Y003295D01*
X004573Y003289D01*
X004573Y003283D01*
X004587Y003268D01*
X004602Y003238D01*
X004618Y003233D01*
X004650Y003190D01*
X004659Y003189D01*
X004960Y002861D01*
X004960Y002853D01*
X005005Y002811D01*
X005046Y002766D01*
X005055Y002766D01*
X005061Y002760D01*
X005122Y002763D01*
X005183Y002760D01*
X005189Y002766D01*
X005197Y002766D01*
X005239Y002811D01*
X005284Y002853D01*
X005284Y002861D01*
X005331Y002912D01*
X006054Y002189D01*
X006213Y002189D01*
X006270Y002132D01*
X006373Y002089D01*
X006484Y002089D01*
X006587Y002132D01*
X006666Y002210D01*
X006709Y002313D01*
X006709Y002425D01*
X006666Y002528D01*
X006587Y002606D01*
X006484Y002649D01*
X006373Y002649D01*
X006270Y002606D01*
X006213Y002549D01*
X006203Y002549D01*
X005575Y003178D01*
X005585Y003189D01*
X005593Y003190D01*
X005626Y003233D01*
X005642Y003238D01*
X005657Y003268D01*
X005671Y003283D01*
X005671Y003289D01*
X005681Y003295D01*
X005687Y003313D01*
X005698Y003328D01*
X005696Y003344D01*
X005696Y003346D01*
X005697Y003346D01*
X005710Y003357D01*
X005711Y003376D01*
X005720Y003393D01*
X005716Y003405D01*
X005720Y003409D01*
X005720Y003429D01*
X005729Y003461D01*
X005721Y003475D01*
X005726Y003481D01*
X005724Y003507D01*
X005726Y003530D01*
X005720Y003536D01*
X005720Y003540D01*
X005720Y003544D01*
X005729Y003561D01*
X005720Y003587D01*
X005720Y003600D01*
X005713Y003607D01*
X005713Y003609D01*
X005711Y003627D01*
X005714Y003639D01*
X005708Y003648D01*
X005707Y003659D01*
X005697Y003667D01*
X005688Y003683D01*
X005687Y003685D01*
X005689Y003694D01*
X005681Y003705D01*
X005672Y003731D01*
X005663Y003735D01*
X005663Y003740D01*
X005639Y003765D01*
X006573Y003765D01*
X006525Y003687D02*
X005688Y003687D01*
X005713Y003608D02*
X006499Y003608D01*
X006487Y003530D02*
X005726Y003530D01*
X005726Y003451D02*
X006486Y003451D01*
X006501Y003373D02*
X005711Y003373D01*
X005681Y003294D02*
X006532Y003294D01*
X006599Y003216D02*
X005613Y003216D01*
X005615Y003137D02*
X006675Y003137D01*
X006747Y003059D02*
X005693Y003059D01*
X005772Y002980D02*
X006819Y002980D01*
X006891Y002902D02*
X005850Y002902D01*
X005929Y002823D02*
X006910Y002823D01*
X006910Y002745D02*
X006007Y002745D01*
X006086Y002666D02*
X006910Y002666D01*
X006955Y002588D02*
X006606Y002588D01*
X006674Y002509D02*
X007034Y002509D01*
X007112Y002431D02*
X006706Y002431D01*
X006709Y002352D02*
X007149Y002352D01*
X007165Y002274D02*
X006692Y002274D01*
X006651Y002195D02*
X007206Y002195D01*
X007306Y002117D02*
X006551Y002117D01*
X006306Y002117D02*
X005492Y002117D01*
X005372Y002155D02*
X005372Y002155D01*
X005171Y002117D02*
X005073Y002117D01*
X004850Y002195D02*
X006048Y002195D01*
X005969Y002274D02*
X004781Y002274D01*
X004712Y002352D02*
X005891Y002352D01*
X005812Y002431D02*
X004643Y002431D01*
X004575Y002509D02*
X005734Y002509D01*
X005655Y002588D02*
X004506Y002588D01*
X004437Y002666D02*
X005577Y002666D01*
X005498Y002745D02*
X004369Y002745D01*
X004300Y002823D02*
X004992Y002823D01*
X004922Y002902D02*
X004257Y002902D01*
X004257Y002980D02*
X004850Y002980D01*
X004778Y003059D02*
X004257Y003059D01*
X004257Y003137D02*
X004706Y003137D01*
X004631Y003216D02*
X004257Y003216D01*
X004257Y003294D02*
X004563Y003294D01*
X004533Y003373D02*
X004257Y003373D01*
X004257Y003451D02*
X004518Y003451D01*
X004518Y003530D02*
X004257Y003530D01*
X004257Y003608D02*
X004531Y003608D01*
X004557Y003685D02*
X004555Y003694D01*
X004563Y003705D01*
X004572Y003731D01*
X004581Y003735D01*
X004581Y003740D01*
X004605Y003765D01*
X004680Y003844D02*
X004257Y003844D01*
X004257Y003922D02*
X004852Y003922D01*
X004909Y003922D02*
X004916Y003922D01*
X004971Y003922D02*
X005272Y003922D01*
X005327Y003922D02*
X005335Y003922D01*
X005398Y003920D02*
X005407Y003920D01*
X005412Y003915D01*
X005422Y003911D01*
X005451Y003908D01*
X005460Y003909D01*
X005465Y003906D01*
X005471Y003905D01*
X005476Y003899D01*
X005501Y003883D01*
X005529Y003872D01*
X005537Y003872D01*
X005541Y003868D01*
X005547Y003866D01*
X005551Y003858D01*
X005571Y003837D01*
X005580Y003831D01*
X005587Y003830D01*
X005592Y003823D01*
X005612Y003810D01*
X005615Y003795D01*
X005623Y003793D01*
X005639Y003765D01*
X005564Y003844D02*
X006648Y003844D01*
X007090Y003322D02*
X007090Y002707D01*
X007429Y002369D01*
X007692Y002274D02*
X008215Y002274D01*
X008199Y002313D02*
X008241Y002210D01*
X008320Y002132D01*
X008423Y002089D01*
X008534Y002089D01*
X008637Y002132D01*
X008716Y002210D01*
X008759Y002313D01*
X008759Y002425D01*
X008716Y002528D01*
X008699Y002545D01*
X008699Y002650D01*
X008899Y002851D01*
X008942Y002811D01*
X008983Y002766D01*
X008992Y002766D01*
X008998Y002760D01*
X009059Y002763D01*
X009120Y002760D01*
X009126Y002766D01*
X009134Y002766D01*
X009176Y002811D01*
X009221Y002853D01*
X009221Y002861D01*
X009522Y003189D01*
X009530Y003190D01*
X009563Y003233D01*
X009579Y003238D01*
X009594Y003268D01*
X009608Y003283D01*
X009608Y003289D01*
X009618Y003295D01*
X009624Y003313D01*
X009635Y003328D01*
X009633Y003344D01*
X009633Y003346D01*
X009634Y003346D01*
X009647Y003357D01*
X009648Y003376D01*
X009657Y003393D01*
X009653Y003405D01*
X009657Y003409D01*
X009657Y003429D01*
X009666Y003461D01*
X009658Y003475D01*
X009663Y003481D01*
X009661Y003507D01*
X009663Y003530D01*
X009657Y003536D01*
X009657Y003540D01*
X009657Y003544D01*
X009666Y003561D01*
X009657Y003587D01*
X009657Y003600D01*
X009650Y003607D01*
X009650Y003609D01*
X009648Y003627D01*
X009651Y003639D01*
X009645Y003648D01*
X009644Y003659D01*
X009634Y003667D01*
X009625Y003683D01*
X009624Y003685D01*
X009626Y003694D01*
X009618Y003705D01*
X009609Y003731D01*
X009600Y003735D01*
X009600Y003740D01*
X009576Y003765D01*
X010909Y003765D01*
X010909Y003687D02*
X009625Y003687D01*
X009650Y003608D02*
X010909Y003608D01*
X010909Y003530D02*
X009663Y003530D01*
X009663Y003451D02*
X010909Y003451D01*
X010909Y003373D02*
X009648Y003373D01*
X009618Y003294D02*
X010909Y003294D01*
X010909Y003216D02*
X009550Y003216D01*
X009474Y003137D02*
X010909Y003137D01*
X010909Y003059D02*
X009403Y003059D01*
X009331Y002980D02*
X010909Y002980D01*
X010815Y002902D02*
X009259Y002902D01*
X009189Y002823D02*
X010739Y002823D01*
X010707Y002745D02*
X008793Y002745D01*
X008871Y002823D02*
X008929Y002823D01*
X008714Y002666D02*
X010699Y002666D01*
X010709Y002588D02*
X008699Y002588D01*
X008724Y002509D02*
X010742Y002509D01*
X010822Y002431D02*
X008756Y002431D01*
X008759Y002352D02*
X026250Y002352D01*
X026245Y002274D02*
X008742Y002274D01*
X008701Y002195D02*
X026234Y002195D01*
X026217Y002117D02*
X008601Y002117D01*
X008356Y002117D02*
X007551Y002117D01*
X007651Y002195D02*
X008256Y002195D01*
X008199Y002313D02*
X008199Y002425D01*
X008241Y002528D01*
X008259Y002545D01*
X008259Y002832D01*
X008605Y003179D01*
X008596Y003189D01*
X008587Y003190D01*
X008555Y003233D01*
X008539Y003238D01*
X008524Y003268D01*
X008510Y003283D01*
X008510Y003289D01*
X008499Y003295D01*
X008494Y003313D01*
X008483Y003328D01*
X008485Y003344D01*
X008485Y003346D01*
X008484Y003346D01*
X008471Y003357D01*
X008470Y003376D01*
X008461Y003393D01*
X008465Y003405D01*
X008461Y003409D01*
X008461Y003429D01*
X008452Y003461D01*
X008460Y003475D01*
X008454Y003481D01*
X008457Y003507D01*
X008455Y003530D01*
X008460Y003536D01*
X008461Y003540D01*
X008461Y003544D01*
X008452Y003561D01*
X008461Y003587D01*
X008461Y003600D01*
X008467Y003607D01*
X008468Y003609D01*
X008470Y003627D01*
X008467Y003639D01*
X008472Y003648D01*
X008474Y003659D01*
X008484Y003667D01*
X008493Y003683D01*
X008494Y003685D01*
X008492Y003694D01*
X008500Y003705D01*
X008509Y003731D01*
X008518Y003735D01*
X008518Y003740D01*
X008542Y003765D01*
X007607Y003765D01*
X007656Y003687D02*
X008493Y003687D01*
X008468Y003608D02*
X007681Y003608D01*
X007694Y003530D02*
X008455Y003530D01*
X008455Y003451D02*
X007695Y003451D01*
X007679Y003373D02*
X008470Y003373D01*
X008500Y003294D02*
X007649Y003294D01*
X007665Y003346D02*
X007665Y003346D01*
X007581Y003216D02*
X008568Y003216D01*
X008563Y003137D02*
X007506Y003137D01*
X007434Y003059D02*
X008485Y003059D01*
X008406Y002980D02*
X007362Y002980D01*
X007290Y002902D02*
X008328Y002902D01*
X008259Y002823D02*
X007270Y002823D01*
X007307Y002745D02*
X008259Y002745D01*
X008259Y002666D02*
X007386Y002666D01*
X007606Y002588D02*
X008259Y002588D01*
X008234Y002509D02*
X007674Y002509D01*
X007706Y002431D02*
X008201Y002431D01*
X008199Y002352D02*
X007709Y002352D01*
X006429Y002369D02*
X006129Y002369D01*
X005179Y003319D01*
X005125Y003319D01*
X005122Y003322D01*
X005322Y002902D02*
X005341Y002902D01*
X005420Y002823D02*
X005252Y002823D01*
X005612Y002038D02*
X026199Y002038D01*
X026181Y001960D02*
X005671Y001960D01*
X005708Y001881D02*
X026163Y001881D01*
X026137Y001803D02*
X005724Y001803D01*
X005725Y001724D02*
X026099Y001724D01*
X026062Y001646D02*
X005720Y001646D01*
X005697Y001567D02*
X026024Y001567D01*
X025986Y001489D02*
X005653Y001489D01*
X005578Y001410D02*
X025931Y001410D01*
X025869Y001332D02*
X005506Y001332D01*
X005434Y001253D02*
X025806Y001253D01*
X025743Y001175D02*
X005363Y001175D01*
X005291Y001096D02*
X025659Y001096D01*
X025561Y001018D02*
X005219Y001018D01*
X005025Y001018D02*
X004000Y001018D01*
X004098Y000939D02*
X025462Y000939D01*
X025341Y000861D02*
X004219Y000861D01*
X004382Y000782D02*
X025178Y000782D01*
X024999Y000704D02*
X004562Y000704D01*
X004906Y000625D02*
X024655Y000625D01*
X026254Y002431D02*
X011135Y002431D01*
X011215Y002509D02*
X026254Y002509D01*
X026254Y002588D02*
X011248Y002588D01*
X011287Y002666D02*
X026254Y002666D01*
X026254Y002745D02*
X011349Y002745D01*
X011349Y002823D02*
X026254Y002823D01*
X026254Y002902D02*
X011349Y002902D01*
X011349Y002980D02*
X026254Y002980D01*
X026254Y003059D02*
X011349Y003059D01*
X011349Y003137D02*
X026254Y003137D01*
X026254Y003216D02*
X022321Y003216D01*
X022380Y003294D02*
X022654Y003294D01*
X022521Y003373D02*
X022409Y003373D01*
X022409Y003451D02*
X022443Y003451D01*
X022129Y003419D02*
X012679Y003419D01*
X011943Y004502D01*
X011827Y014557D01*
X010916Y015468D01*
X010416Y015468D01*
X010066Y015718D02*
X010866Y015718D01*
X012927Y013687D01*
X013064Y013747D02*
X010816Y015968D01*
X010455Y015968D01*
X010175Y015976D02*
X010122Y015998D01*
X010010Y015998D01*
X009907Y015955D01*
X009829Y015877D01*
X009793Y015790D01*
X009793Y017161D01*
X009823Y017130D01*
X010136Y016817D01*
X010107Y016805D01*
X010029Y016727D01*
X009986Y016624D01*
X009986Y016512D01*
X010029Y016410D01*
X010107Y016331D01*
X010210Y016288D01*
X010322Y016288D01*
X010407Y016324D01*
X010484Y016248D01*
X010400Y016248D01*
X010297Y016205D01*
X010218Y016127D01*
X010175Y016024D01*
X010175Y015976D01*
X010175Y016011D02*
X009793Y016011D01*
X009793Y015933D02*
X009885Y015933D01*
X009819Y015854D02*
X009793Y015854D01*
X009793Y016090D02*
X010203Y016090D01*
X010259Y016168D02*
X009793Y016168D01*
X009793Y016247D02*
X010396Y016247D01*
X010121Y016325D02*
X009793Y016325D01*
X009793Y016404D02*
X010034Y016404D01*
X009999Y016482D02*
X009793Y016482D01*
X009793Y016561D02*
X009986Y016561D01*
X009992Y016639D02*
X009793Y016639D01*
X009793Y016718D02*
X010025Y016718D01*
X010098Y016796D02*
X009793Y016796D01*
X009793Y016875D02*
X010079Y016875D01*
X010000Y016953D02*
X009793Y016953D01*
X009793Y017032D02*
X009922Y017032D01*
X009843Y017110D02*
X009793Y017110D01*
X010356Y017559D02*
X010356Y017736D01*
X010306Y017857D01*
X011110Y017857D01*
X011576Y018323D01*
X011576Y016339D01*
X010356Y017559D01*
X010356Y017581D02*
X011576Y017581D01*
X011576Y017503D02*
X010412Y017503D01*
X010491Y017424D02*
X011576Y017424D01*
X011576Y017346D02*
X010569Y017346D01*
X010648Y017267D02*
X011576Y017267D01*
X011576Y017189D02*
X010726Y017189D01*
X010805Y017110D02*
X011576Y017110D01*
X011576Y017032D02*
X010883Y017032D01*
X010962Y016953D02*
X011576Y016953D01*
X011576Y016875D02*
X011040Y016875D01*
X011119Y016796D02*
X011576Y016796D01*
X011576Y016718D02*
X011197Y016718D01*
X011276Y016639D02*
X011576Y016639D01*
X011576Y016561D02*
X011354Y016561D01*
X011433Y016482D02*
X011576Y016482D01*
X011576Y016404D02*
X011511Y016404D01*
X011956Y016404D02*
X012376Y016404D01*
X012297Y016482D02*
X011956Y016482D01*
X011956Y016561D02*
X012219Y016561D01*
X012058Y016639D02*
X011956Y016639D01*
X012116Y016918D02*
X013916Y015118D01*
X017616Y015118D01*
X017874Y015226D02*
X019552Y015226D01*
X019625Y015150D02*
X019625Y015064D01*
X019668Y014961D01*
X019747Y014882D01*
X019850Y014840D01*
X019961Y014840D01*
X020064Y014882D01*
X020143Y014961D01*
X020185Y015064D01*
X020185Y015175D01*
X020143Y015278D01*
X020064Y015357D01*
X019961Y015400D01*
X019885Y015400D01*
X018396Y016941D01*
X018396Y018002D01*
X018453Y018060D01*
X018496Y018162D01*
X018496Y018274D01*
X018453Y018377D01*
X018375Y018455D01*
X018272Y018498D01*
X018160Y018498D01*
X018057Y018455D01*
X017979Y018377D01*
X017936Y018274D01*
X017936Y018162D01*
X017979Y018060D01*
X018036Y018002D01*
X018036Y016870D01*
X018035Y016797D01*
X018036Y016795D01*
X018036Y016794D01*
X018088Y016742D01*
X019625Y015150D01*
X019625Y015148D02*
X017896Y015148D01*
X017896Y015069D02*
X019625Y015069D01*
X019656Y014991D02*
X017866Y014991D01*
X017806Y014912D02*
X019717Y014912D01*
X019905Y015120D02*
X018216Y016868D01*
X018216Y018218D01*
X018496Y018209D02*
X026254Y018209D01*
X026254Y018131D02*
X018483Y018131D01*
X018446Y018052D02*
X026254Y018052D01*
X026254Y017974D02*
X018396Y017974D01*
X018396Y017895D02*
X025295Y017895D01*
X025453Y017895D02*
X026254Y017895D01*
X026254Y017817D02*
X025597Y017817D01*
X025666Y017738D02*
X026254Y017738D01*
X026254Y017660D02*
X025699Y017660D01*
X025711Y017581D02*
X026254Y017581D01*
X026254Y017503D02*
X025711Y017503D01*
X025711Y017424D02*
X026254Y017424D01*
X026254Y017346D02*
X025702Y017346D01*
X025670Y017267D02*
X026254Y017267D01*
X026254Y017189D02*
X025606Y017189D01*
X025474Y017110D02*
X026254Y017110D01*
X026254Y017032D02*
X021976Y017032D01*
X021977Y016953D02*
X026254Y016953D01*
X026254Y016875D02*
X021978Y016875D01*
X021979Y016796D02*
X026254Y016796D01*
X026254Y016718D02*
X026161Y016718D01*
X026198Y016639D02*
X026254Y016639D01*
X026254Y016561D02*
X026198Y016561D01*
X026198Y016482D02*
X026254Y016482D01*
X026254Y016404D02*
X026198Y016404D01*
X026198Y016325D02*
X026254Y016325D01*
X026254Y016247D02*
X026198Y016247D01*
X026198Y016168D02*
X026254Y016168D01*
X026254Y016090D02*
X026198Y016090D01*
X026198Y016011D02*
X026254Y016011D01*
X026254Y015933D02*
X026198Y015933D01*
X026198Y015854D02*
X026254Y015854D01*
X026254Y015776D02*
X026198Y015776D01*
X026198Y015697D02*
X026254Y015697D01*
X026254Y015619D02*
X026198Y015619D01*
X026198Y015540D02*
X026254Y015540D01*
X026254Y015462D02*
X026198Y015462D01*
X026198Y015383D02*
X026254Y015383D01*
X026254Y015305D02*
X026198Y015305D01*
X026198Y015226D02*
X026254Y015226D01*
X026254Y015148D02*
X026198Y015148D01*
X026198Y015069D02*
X026254Y015069D01*
X026254Y014991D02*
X026198Y014991D01*
X026198Y014912D02*
X026254Y014912D01*
X026254Y014834D02*
X026198Y014834D01*
X026198Y014755D02*
X026254Y014755D01*
X026254Y014677D02*
X026198Y014677D01*
X026198Y014598D02*
X026254Y014598D01*
X026254Y014520D02*
X026198Y014520D01*
X026198Y014441D02*
X026254Y014441D01*
X026254Y014363D02*
X026198Y014363D01*
X026198Y014284D02*
X026254Y014284D01*
X026254Y014206D02*
X026198Y014206D01*
X026198Y014127D02*
X026254Y014127D01*
X026254Y014049D02*
X026198Y014049D01*
X026198Y013970D02*
X026254Y013970D01*
X026254Y013892D02*
X026198Y013892D01*
X026198Y013813D02*
X026254Y013813D01*
X026254Y013735D02*
X026198Y013735D01*
X026198Y013656D02*
X026254Y013656D01*
X026254Y013578D02*
X026198Y013578D01*
X026198Y013499D02*
X026254Y013499D01*
X026254Y013421D02*
X026198Y013421D01*
X026198Y013342D02*
X026254Y013342D01*
X026254Y013264D02*
X026198Y013264D01*
X026198Y013185D02*
X026254Y013185D01*
X026254Y013107D02*
X026198Y013107D01*
X026198Y013028D02*
X026254Y013028D01*
X026254Y012950D02*
X026198Y012950D01*
X026198Y012871D02*
X026254Y012871D01*
X026254Y012793D02*
X026198Y012793D01*
X026198Y012714D02*
X026254Y012714D01*
X026254Y012636D02*
X026198Y012636D01*
X026198Y012557D02*
X026254Y012557D01*
X026254Y012479D02*
X026198Y012479D01*
X026198Y012400D02*
X026254Y012400D01*
X026254Y012322D02*
X026198Y012322D01*
X026198Y012243D02*
X026254Y012243D01*
X026254Y012165D02*
X026198Y012165D01*
X026198Y012086D02*
X026254Y012086D01*
X026254Y012008D02*
X026198Y012008D01*
X026198Y011929D02*
X026254Y011929D01*
X026254Y011851D02*
X026198Y011851D01*
X026198Y011772D02*
X026254Y011772D01*
X026254Y011694D02*
X026198Y011694D01*
X026198Y011615D02*
X026254Y011615D01*
X026254Y011537D02*
X026198Y011537D01*
X026198Y011458D02*
X026254Y011458D01*
X026254Y011380D02*
X026198Y011380D01*
X026198Y011301D02*
X026254Y011301D01*
X026254Y011223D02*
X026198Y011223D01*
X026198Y011144D02*
X026254Y011144D01*
X026254Y011066D02*
X026198Y011066D01*
X026198Y010987D02*
X026254Y010987D01*
X026254Y010909D02*
X026198Y010909D01*
X026198Y010830D02*
X026254Y010830D01*
X026254Y010752D02*
X026198Y010752D01*
X026198Y010673D02*
X026254Y010673D01*
X026254Y010595D02*
X026198Y010595D01*
X026198Y010516D02*
X026254Y010516D01*
X026254Y010438D02*
X026198Y010438D01*
X026198Y010359D02*
X026254Y010359D01*
X026254Y010281D02*
X026198Y010281D01*
X026198Y010202D02*
X026254Y010202D01*
X026254Y010124D02*
X026198Y010124D01*
X026198Y010045D02*
X026254Y010045D01*
X026254Y009967D02*
X026198Y009967D01*
X026198Y009888D02*
X026254Y009888D01*
X026254Y009810D02*
X026198Y009810D01*
X026198Y009731D02*
X026254Y009731D01*
X026254Y009653D02*
X026198Y009653D01*
X026198Y009574D02*
X026254Y009574D01*
X026254Y009496D02*
X026198Y009496D01*
X026198Y009417D02*
X026254Y009417D01*
X026254Y009339D02*
X026198Y009339D01*
X026198Y009260D02*
X026254Y009260D01*
X026254Y009182D02*
X026198Y009182D01*
X026198Y009103D02*
X026254Y009103D01*
X026254Y009025D02*
X026198Y009025D01*
X026198Y008946D02*
X026254Y008946D01*
X026254Y008868D02*
X026198Y008868D01*
X026198Y008789D02*
X026254Y008789D01*
X026254Y008711D02*
X026198Y008711D01*
X026198Y008632D02*
X026254Y008632D01*
X026254Y008554D02*
X026198Y008554D01*
X026198Y008475D02*
X026254Y008475D01*
X026254Y008397D02*
X026198Y008397D01*
X026198Y008318D02*
X026254Y008318D01*
X026254Y008240D02*
X026198Y008240D01*
X026198Y008161D02*
X026254Y008161D01*
X026254Y008083D02*
X026198Y008083D01*
X026198Y008004D02*
X026254Y008004D01*
X026254Y007926D02*
X026198Y007926D01*
X026198Y007847D02*
X026254Y007847D01*
X026254Y007769D02*
X026198Y007769D01*
X026198Y007690D02*
X026254Y007690D01*
X026254Y007612D02*
X026198Y007612D01*
X026198Y007533D02*
X026254Y007533D01*
X026254Y007455D02*
X026198Y007455D01*
X026198Y007376D02*
X026254Y007376D01*
X026254Y007298D02*
X026198Y007298D01*
X026198Y007219D02*
X026254Y007219D01*
X026254Y006670D02*
X026198Y006670D01*
X026198Y006591D02*
X026254Y006591D01*
X026254Y006513D02*
X026198Y006513D01*
X026198Y006434D02*
X026254Y006434D01*
X026254Y006356D02*
X026198Y006356D01*
X026198Y006277D02*
X026254Y006277D01*
X026254Y006199D02*
X026198Y006199D01*
X026198Y006120D02*
X026254Y006120D01*
X026254Y006042D02*
X026175Y006042D01*
X026254Y005963D02*
X022900Y005963D01*
X022770Y005885D02*
X026254Y005885D01*
X026254Y005806D02*
X021994Y005806D01*
X022027Y005728D02*
X026254Y005728D01*
X026254Y005649D02*
X022059Y005649D01*
X022069Y005571D02*
X026254Y005571D01*
X026254Y005492D02*
X022069Y005492D01*
X022069Y005414D02*
X026254Y005414D01*
X026254Y005335D02*
X022037Y005335D01*
X022004Y005257D02*
X026254Y005257D01*
X026254Y005178D02*
X021951Y005178D01*
X021873Y005100D02*
X026254Y005100D01*
X026254Y005021D02*
X021865Y005021D01*
X021904Y004943D02*
X026254Y004943D01*
X026254Y004864D02*
X021983Y004864D01*
X022061Y004786D02*
X026254Y004786D01*
X026254Y004707D02*
X022140Y004707D01*
X022218Y004629D02*
X026254Y004629D01*
X026254Y004550D02*
X022297Y004550D01*
X022375Y004472D02*
X026254Y004472D01*
X026254Y004393D02*
X022454Y004393D01*
X022532Y004315D02*
X026254Y004315D01*
X026254Y004236D02*
X022611Y004236D01*
X022689Y004158D02*
X026254Y004158D01*
X026254Y004079D02*
X022768Y004079D01*
X022846Y004001D02*
X026254Y004001D01*
X026254Y003922D02*
X022925Y003922D01*
X023003Y003844D02*
X026254Y003844D01*
X026254Y003765D02*
X023056Y003765D01*
X023089Y003687D02*
X026254Y003687D01*
X026254Y003608D02*
X023089Y003608D01*
X023081Y003530D02*
X026254Y003530D01*
X026254Y003451D02*
X023048Y003451D01*
X022984Y003373D02*
X026254Y003373D01*
X026254Y003294D02*
X022852Y003294D01*
X022203Y003691D02*
X022184Y003699D01*
X022073Y003699D01*
X021970Y003656D01*
X021913Y003599D01*
X012774Y003599D01*
X012123Y004558D01*
X012052Y010675D01*
X012143Y010638D01*
X012254Y010638D01*
X012356Y010680D01*
X012435Y010759D01*
X012477Y010861D01*
X012477Y010972D01*
X012435Y011075D01*
X012387Y011123D01*
X012373Y012765D01*
X012418Y012810D01*
X012461Y012913D01*
X012461Y013024D01*
X012418Y013126D01*
X012340Y013205D01*
X012237Y013247D01*
X012126Y013247D01*
X012024Y013205D01*
X012023Y013204D01*
X012010Y014338D01*
X012748Y013611D01*
X012748Y011405D01*
X012748Y011331D01*
X012800Y011279D01*
X012853Y011226D01*
X012928Y011226D01*
X016953Y011225D01*
X017102Y011224D01*
X017953Y012065D01*
X018035Y012065D01*
X018138Y012108D01*
X018217Y012187D01*
X018260Y012290D01*
X018260Y012401D01*
X018217Y012504D01*
X018138Y012583D01*
X018035Y012625D01*
X017924Y012625D01*
X017821Y012583D01*
X017742Y012504D01*
X017729Y012473D01*
X017559Y012643D01*
X017453Y012749D01*
X017054Y012749D01*
X016854Y012549D01*
X016773Y012549D01*
X016670Y012506D01*
X016591Y012428D01*
X016549Y012325D01*
X016549Y012213D01*
X016591Y012110D01*
X016670Y012032D01*
X016717Y012012D01*
X016654Y011949D01*
X013853Y011949D01*
X014418Y012640D01*
X014454Y012676D01*
X014532Y012753D01*
X020256Y012753D01*
X020204Y012705D01*
X020204Y012701D01*
X020201Y012698D01*
X020201Y012623D01*
X020197Y012524D01*
X020142Y012469D01*
X020100Y012366D01*
X020100Y012255D01*
X020142Y012152D01*
X020221Y012073D01*
X020324Y012030D01*
X020435Y012030D01*
X020538Y012073D01*
X020617Y012152D01*
X020660Y012255D01*
X020660Y012366D01*
X020633Y012429D01*
X021434Y012429D01*
X021545Y012541D01*
X021545Y012775D01*
X021545Y012775D01*
X021545Y012854D01*
X021545Y012932D01*
X021545Y012932D01*
X021542Y013388D01*
X021610Y013366D01*
X021743Y013375D01*
X021840Y013424D01*
X021840Y010770D01*
X020624Y009178D01*
X020574Y009128D01*
X020560Y009094D01*
X020537Y009064D01*
X020519Y008995D01*
X020491Y008929D01*
X020491Y008892D01*
X020482Y008857D01*
X020491Y008786D01*
X020491Y005909D01*
X020574Y005710D01*
X020726Y005558D01*
X020854Y005429D01*
X020854Y005411D01*
X020937Y005213D01*
X021088Y005061D01*
X021192Y005018D01*
X021192Y004775D01*
X021243Y004651D01*
X022203Y003691D01*
X022129Y003765D02*
X012661Y003765D01*
X012714Y003687D02*
X022043Y003687D01*
X021922Y003608D02*
X012768Y003608D01*
X012608Y003844D02*
X022050Y003844D01*
X021972Y003922D02*
X012554Y003922D01*
X012501Y004001D02*
X021893Y004001D01*
X021815Y004079D02*
X012448Y004079D01*
X012394Y004158D02*
X021736Y004158D01*
X021658Y004236D02*
X012341Y004236D01*
X012288Y004315D02*
X021579Y004315D01*
X021501Y004393D02*
X012234Y004393D01*
X012181Y004472D02*
X021422Y004472D01*
X021344Y004550D02*
X012128Y004550D01*
X012122Y004629D02*
X021265Y004629D01*
X021220Y004707D02*
X012121Y004707D01*
X012120Y004786D02*
X021192Y004786D01*
X021192Y004864D02*
X012119Y004864D01*
X012118Y004943D02*
X021192Y004943D01*
X021185Y005021D02*
X012117Y005021D01*
X012116Y005100D02*
X021050Y005100D01*
X020971Y005178D02*
X012115Y005178D01*
X012114Y005257D02*
X020918Y005257D01*
X020886Y005335D02*
X012114Y005335D01*
X012113Y005414D02*
X020854Y005414D01*
X020792Y005492D02*
X012112Y005492D01*
X012111Y005571D02*
X020713Y005571D01*
X020635Y005649D02*
X012110Y005649D01*
X012109Y005728D02*
X020566Y005728D01*
X020534Y005806D02*
X012108Y005806D01*
X012107Y005885D02*
X020501Y005885D01*
X020491Y005963D02*
X012106Y005963D01*
X012105Y006042D02*
X020491Y006042D01*
X020491Y006120D02*
X012105Y006120D01*
X012104Y006199D02*
X020491Y006199D01*
X020491Y006277D02*
X012103Y006277D01*
X012102Y006356D02*
X020491Y006356D01*
X020491Y006434D02*
X012101Y006434D01*
X012100Y006513D02*
X020491Y006513D01*
X020491Y006591D02*
X012099Y006591D01*
X012098Y006670D02*
X020491Y006670D01*
X020491Y006748D02*
X012097Y006748D01*
X012096Y006827D02*
X020491Y006827D01*
X020491Y006905D02*
X012096Y006905D01*
X012095Y006984D02*
X020491Y006984D01*
X020491Y007062D02*
X012094Y007062D01*
X012093Y007141D02*
X020491Y007141D01*
X020491Y007219D02*
X012092Y007219D01*
X012091Y007298D02*
X020491Y007298D01*
X020491Y007376D02*
X012090Y007376D01*
X012089Y007455D02*
X020491Y007455D01*
X020491Y007533D02*
X012088Y007533D01*
X012087Y007612D02*
X020491Y007612D01*
X020491Y007690D02*
X012086Y007690D01*
X012086Y007769D02*
X020491Y007769D01*
X020491Y007847D02*
X012085Y007847D01*
X012084Y007926D02*
X020491Y007926D01*
X020491Y008004D02*
X012083Y008004D01*
X012082Y008083D02*
X020491Y008083D01*
X020491Y008161D02*
X012081Y008161D01*
X012080Y008240D02*
X020491Y008240D01*
X020491Y008318D02*
X012079Y008318D01*
X012078Y008397D02*
X020491Y008397D01*
X020491Y008475D02*
X012077Y008475D01*
X012077Y008554D02*
X020491Y008554D01*
X020491Y008632D02*
X012076Y008632D01*
X012075Y008711D02*
X020491Y008711D01*
X020491Y008789D02*
X012074Y008789D01*
X012073Y008868D02*
X020485Y008868D01*
X020498Y008946D02*
X012072Y008946D01*
X012071Y009025D02*
X020527Y009025D01*
X020564Y009103D02*
X012070Y009103D01*
X012069Y009182D02*
X020627Y009182D01*
X020687Y009260D02*
X012068Y009260D01*
X012067Y009339D02*
X020747Y009339D01*
X020807Y009417D02*
X012067Y009417D01*
X012066Y009496D02*
X020867Y009496D01*
X020927Y009574D02*
X012065Y009574D01*
X012064Y009653D02*
X020987Y009653D01*
X021047Y009731D02*
X012063Y009731D01*
X012062Y009810D02*
X021107Y009810D01*
X021167Y009888D02*
X012061Y009888D01*
X012060Y009967D02*
X021227Y009967D01*
X021286Y010045D02*
X012059Y010045D01*
X012058Y010124D02*
X021346Y010124D01*
X021406Y010202D02*
X012058Y010202D01*
X012057Y010281D02*
X021466Y010281D01*
X021526Y010359D02*
X012056Y010359D01*
X012055Y010438D02*
X021586Y010438D01*
X021646Y010516D02*
X012054Y010516D01*
X012053Y010595D02*
X021706Y010595D01*
X021766Y010673D02*
X012339Y010673D01*
X012428Y010752D02*
X021826Y010752D01*
X021840Y010830D02*
X012464Y010830D01*
X012477Y010909D02*
X021840Y010909D01*
X021840Y010987D02*
X012471Y010987D01*
X012439Y011066D02*
X021840Y011066D01*
X021840Y011144D02*
X012386Y011144D01*
X012386Y011223D02*
X021840Y011223D01*
X021840Y011301D02*
X017180Y011301D01*
X017259Y011380D02*
X021840Y011380D01*
X021840Y011458D02*
X017339Y011458D01*
X017418Y011537D02*
X021840Y011537D01*
X021840Y011615D02*
X017497Y011615D01*
X017577Y011694D02*
X021840Y011694D01*
X021840Y011772D02*
X017656Y011772D01*
X017736Y011851D02*
X021840Y011851D01*
X021840Y011929D02*
X017815Y011929D01*
X017894Y012008D02*
X021840Y012008D01*
X021840Y012086D02*
X020551Y012086D01*
X020622Y012165D02*
X021840Y012165D01*
X021840Y012243D02*
X020655Y012243D01*
X020660Y012322D02*
X021840Y012322D01*
X021840Y012400D02*
X020645Y012400D01*
X020198Y012557D02*
X018164Y012557D01*
X018228Y012479D02*
X020152Y012479D01*
X020114Y012400D02*
X018260Y012400D01*
X018260Y012322D02*
X020100Y012322D01*
X020104Y012243D02*
X018240Y012243D01*
X018195Y012165D02*
X020137Y012165D01*
X020208Y012086D02*
X018085Y012086D01*
X017980Y012345D02*
X017029Y011405D01*
X016953Y011225D02*
X016953Y011225D01*
X016870Y011569D02*
X017579Y012219D01*
X017579Y012369D01*
X017379Y012569D01*
X017129Y012569D01*
X016829Y012269D01*
X016569Y012165D02*
X014029Y012165D01*
X013965Y012086D02*
X016615Y012086D01*
X016713Y012008D02*
X013901Y012008D01*
X014094Y012243D02*
X016549Y012243D01*
X016549Y012322D02*
X014158Y012322D01*
X014222Y012400D02*
X016580Y012400D01*
X016642Y012479D02*
X014287Y012479D01*
X014351Y012557D02*
X016862Y012557D01*
X016941Y012636D02*
X014415Y012636D01*
X014454Y012676D02*
X014454Y012676D01*
X014493Y012714D02*
X017019Y012714D01*
X017488Y012714D02*
X020214Y012714D01*
X020201Y012636D02*
X017566Y012636D01*
X017645Y012557D02*
X017795Y012557D01*
X017732Y012479D02*
X017723Y012479D01*
X017229Y012269D02*
X016729Y011769D01*
X013222Y011769D01*
X013217Y011769D01*
X013067Y011579D02*
X016870Y011569D01*
X013916Y014284D02*
X021328Y014284D01*
X021328Y014206D02*
X021244Y014206D01*
X021322Y014127D02*
X021329Y014127D01*
X021327Y014363D02*
X013837Y014363D01*
X013759Y014441D02*
X021326Y014441D01*
X021325Y014520D02*
X013680Y014520D01*
X013602Y014598D02*
X021325Y014598D01*
X021324Y014677D02*
X013523Y014677D01*
X013445Y014755D02*
X021323Y014755D01*
X021323Y014834D02*
X013366Y014834D01*
X013288Y014912D02*
X017426Y014912D01*
X017407Y015305D02*
X013984Y015305D01*
X013906Y015383D02*
X017524Y015383D01*
X017708Y015383D02*
X019400Y015383D01*
X019325Y015462D02*
X013827Y015462D01*
X013749Y015540D02*
X019249Y015540D01*
X019173Y015619D02*
X013670Y015619D01*
X013592Y015697D02*
X019097Y015697D01*
X019021Y015776D02*
X013513Y015776D01*
X013435Y015854D02*
X018945Y015854D01*
X018870Y015933D02*
X013356Y015933D01*
X013278Y016011D02*
X018794Y016011D01*
X018718Y016090D02*
X013199Y016090D01*
X013121Y016168D02*
X018642Y016168D01*
X018566Y016247D02*
X013042Y016247D01*
X012964Y016325D02*
X018490Y016325D01*
X018414Y016404D02*
X012885Y016404D01*
X012806Y016482D02*
X018339Y016482D01*
X018263Y016561D02*
X012728Y016561D01*
X012649Y016639D02*
X018187Y016639D01*
X018111Y016718D02*
X012571Y016718D01*
X012492Y016796D02*
X018035Y016796D01*
X018036Y016875D02*
X012414Y016875D01*
X012396Y016953D02*
X018036Y016953D01*
X018036Y017032D02*
X012372Y017032D01*
X012320Y017110D02*
X018036Y017110D01*
X018036Y017189D02*
X012194Y017189D01*
X012037Y017189D02*
X011956Y017189D01*
X011956Y017267D02*
X018036Y017267D01*
X018036Y017346D02*
X011956Y017346D01*
X011956Y017424D02*
X012548Y017424D01*
X012575Y017397D02*
X012677Y017354D01*
X012788Y017354D01*
X012891Y017397D01*
X012958Y017464D01*
X015736Y017464D01*
X015803Y017397D01*
X015906Y017354D01*
X016017Y017354D01*
X016119Y017397D01*
X016198Y017475D01*
X016240Y017578D01*
X016240Y017689D01*
X016198Y017792D01*
X016119Y017870D01*
X016017Y017913D01*
X015906Y017913D01*
X015803Y017870D01*
X015736Y017803D01*
X012958Y017803D01*
X012891Y017870D01*
X012788Y017913D01*
X012677Y017913D01*
X012575Y017870D01*
X012496Y017792D01*
X012454Y017689D01*
X012454Y017578D01*
X012496Y017475D01*
X012575Y017397D01*
X012485Y017503D02*
X011956Y017503D01*
X011956Y017581D02*
X012454Y017581D01*
X012454Y017660D02*
X011956Y017660D01*
X011956Y017738D02*
X012474Y017738D01*
X012521Y017817D02*
X011956Y017817D01*
X011956Y017895D02*
X012636Y017895D01*
X012830Y017895D02*
X015864Y017895D01*
X015750Y017817D02*
X012944Y017817D01*
X012918Y017424D02*
X015776Y017424D01*
X016147Y017424D02*
X018036Y017424D01*
X018036Y017503D02*
X016209Y017503D01*
X016240Y017581D02*
X018036Y017581D01*
X018036Y017660D02*
X016240Y017660D01*
X016220Y017738D02*
X018036Y017738D01*
X018036Y017817D02*
X016173Y017817D01*
X016059Y017895D02*
X018036Y017895D01*
X018036Y017974D02*
X011956Y017974D01*
X011956Y018052D02*
X017986Y018052D01*
X017949Y018131D02*
X011956Y018131D01*
X011956Y018209D02*
X017936Y018209D01*
X017942Y018288D02*
X011956Y018288D01*
X011983Y018366D02*
X017974Y018366D01*
X018047Y018445D02*
X012061Y018445D01*
X012140Y018523D02*
X026254Y018523D01*
X026254Y018445D02*
X018385Y018445D01*
X018458Y018366D02*
X026254Y018366D01*
X026254Y018288D02*
X018490Y018288D01*
X018396Y017817D02*
X025151Y017817D01*
X025306Y017096D02*
X025306Y017096D01*
X026254Y018602D02*
X012218Y018602D01*
X012297Y018680D02*
X026254Y018680D01*
X026254Y018759D02*
X021851Y018759D01*
X021908Y018837D02*
X026254Y018837D01*
X026254Y018916D02*
X021908Y018916D01*
X021908Y018994D02*
X026254Y018994D01*
X026254Y019073D02*
X021908Y019073D01*
X021908Y019151D02*
X026254Y019151D01*
X026254Y019230D02*
X021908Y019230D01*
X021908Y019308D02*
X026254Y019308D01*
X026254Y019387D02*
X021908Y019387D01*
X021908Y019465D02*
X023299Y019465D01*
X023282Y019472D02*
X023450Y019403D01*
X023631Y019403D01*
X023798Y019472D01*
X023926Y019600D01*
X023995Y019767D01*
X023995Y019948D01*
X023926Y020116D01*
X023798Y020244D01*
X023631Y020313D01*
X023450Y020313D01*
X023282Y020244D01*
X023154Y020116D01*
X023085Y019948D01*
X023085Y019767D01*
X023154Y019600D01*
X023282Y019472D01*
X023211Y019544D02*
X021908Y019544D01*
X021908Y019622D02*
X023145Y019622D01*
X023113Y019701D02*
X021908Y019701D01*
X021848Y019779D02*
X023085Y019779D01*
X023085Y019858D02*
X021613Y019858D01*
X021613Y019936D02*
X023085Y019936D01*
X023113Y020015D02*
X021613Y020015D01*
X021613Y020093D02*
X023145Y020093D01*
X023210Y020172D02*
X021613Y020172D01*
X021613Y020250D02*
X023298Y020250D01*
X023782Y020250D02*
X026254Y020250D01*
X026254Y020172D02*
X023870Y020172D01*
X023935Y020093D02*
X026254Y020093D01*
X026254Y020015D02*
X023968Y020015D01*
X023995Y019936D02*
X026254Y019936D01*
X026254Y019858D02*
X023995Y019858D01*
X023995Y019779D02*
X026254Y019779D01*
X026254Y019701D02*
X023967Y019701D01*
X023935Y019622D02*
X026254Y019622D01*
X026254Y019544D02*
X023869Y019544D01*
X023781Y019465D02*
X026254Y019465D01*
X026254Y020329D02*
X021613Y020329D01*
X021613Y020407D02*
X026254Y020407D01*
X026254Y020486D02*
X021613Y020486D01*
X021613Y020564D02*
X026254Y020564D01*
X026254Y020643D02*
X021613Y020643D01*
X021538Y020721D02*
X026254Y020721D01*
X026254Y020800D02*
X021459Y020800D01*
X021381Y020878D02*
X026254Y020878D01*
X026254Y020957D02*
X021302Y020957D01*
X021224Y021035D02*
X026254Y021035D01*
X026254Y021114D02*
X021844Y021114D01*
X021908Y021192D02*
X023407Y021192D01*
X023450Y021175D02*
X023282Y021244D01*
X023154Y021372D01*
X023085Y021539D01*
X023085Y021720D01*
X023154Y021887D01*
X023282Y022015D01*
X023450Y022084D01*
X023631Y022084D01*
X023798Y022015D01*
X023926Y021887D01*
X023995Y021720D01*
X023995Y021539D01*
X023926Y021372D01*
X023798Y021244D01*
X023631Y021175D01*
X023450Y021175D01*
X023255Y021271D02*
X021908Y021271D01*
X021908Y021349D02*
X023177Y021349D01*
X023131Y021428D02*
X021908Y021428D01*
X021908Y021506D02*
X023099Y021506D01*
X023085Y021585D02*
X021908Y021585D01*
X021908Y021663D02*
X023085Y021663D01*
X023094Y021742D02*
X021908Y021742D01*
X021908Y021820D02*
X023127Y021820D01*
X023166Y021899D02*
X021908Y021899D01*
X021908Y021977D02*
X023244Y021977D01*
X023380Y022056D02*
X021908Y022056D01*
X021855Y022134D02*
X026197Y022134D01*
X026215Y022056D02*
X023700Y022056D01*
X023836Y021977D02*
X026233Y021977D01*
X026245Y021899D02*
X023914Y021899D01*
X023953Y021820D02*
X026249Y021820D01*
X026254Y021742D02*
X023986Y021742D01*
X023995Y021663D02*
X026254Y021663D01*
X026254Y021585D02*
X023995Y021585D01*
X023981Y021506D02*
X026254Y021506D01*
X026254Y021428D02*
X023949Y021428D01*
X023903Y021349D02*
X026254Y021349D01*
X026254Y021271D02*
X023825Y021271D01*
X023673Y021192D02*
X026254Y021192D01*
X021531Y017738D02*
X018396Y017738D01*
X018396Y017660D02*
X021402Y017660D01*
X021443Y017701D02*
X021443Y017701D01*
X021339Y017581D02*
X018396Y017581D01*
X018396Y017503D02*
X021307Y017503D01*
X021299Y017482D02*
X021299Y017482D01*
X021299Y017424D02*
X018396Y017424D01*
X018396Y017346D02*
X021300Y017346D01*
X021300Y017348D02*
X021300Y017348D01*
X021301Y017267D02*
X018396Y017267D01*
X018396Y017189D02*
X021301Y017189D01*
X021302Y017110D02*
X018396Y017110D01*
X018396Y017032D02*
X021303Y017032D01*
X021303Y016953D02*
X018396Y016953D01*
X018460Y016875D02*
X021304Y016875D01*
X021305Y016796D02*
X018536Y016796D01*
X018612Y016718D02*
X021306Y016718D01*
X021306Y016639D02*
X018688Y016639D01*
X018763Y016561D02*
X021307Y016561D01*
X021308Y016482D02*
X018839Y016482D01*
X018915Y016404D02*
X021308Y016404D01*
X021309Y016325D02*
X018991Y016325D01*
X019067Y016247D02*
X021310Y016247D01*
X021310Y016168D02*
X019143Y016168D01*
X019218Y016090D02*
X021311Y016090D01*
X021312Y016011D02*
X019294Y016011D01*
X019370Y015933D02*
X021313Y015933D01*
X021313Y015854D02*
X019446Y015854D01*
X019522Y015776D02*
X021314Y015776D01*
X021315Y015697D02*
X019598Y015697D01*
X019674Y015619D02*
X021315Y015619D01*
X021316Y015540D02*
X019749Y015540D01*
X019825Y015462D02*
X021317Y015462D01*
X021318Y015383D02*
X020001Y015383D01*
X020116Y015305D02*
X021318Y015305D01*
X021319Y015226D02*
X020164Y015226D01*
X020185Y015148D02*
X021320Y015148D01*
X021320Y015069D02*
X020185Y015069D01*
X020155Y014991D02*
X021321Y014991D01*
X021322Y014912D02*
X020094Y014912D01*
X019476Y015305D02*
X017825Y015305D01*
X021542Y013342D02*
X021840Y013342D01*
X021840Y013264D02*
X021543Y013264D01*
X021543Y013185D02*
X021840Y013185D01*
X021840Y013107D02*
X021544Y013107D01*
X021544Y013028D02*
X021840Y013028D01*
X021840Y012950D02*
X021544Y012950D01*
X021545Y012871D02*
X021840Y012871D01*
X021840Y012793D02*
X021545Y012793D01*
X021545Y012714D02*
X021840Y012714D01*
X021840Y012636D02*
X021545Y012636D01*
X021545Y012557D02*
X021840Y012557D01*
X021840Y012479D02*
X021483Y012479D01*
X021834Y013421D02*
X021840Y013421D01*
X021996Y014834D02*
X022418Y014834D01*
X022418Y014912D02*
X021996Y014912D01*
X021995Y014991D02*
X022418Y014991D01*
X022418Y015069D02*
X021994Y015069D01*
X021993Y015148D02*
X022418Y015148D01*
X022418Y015226D02*
X021993Y015226D01*
X021992Y015305D02*
X022418Y015305D01*
X022418Y015383D02*
X021991Y015383D01*
X021991Y015462D02*
X022418Y015462D01*
X022418Y015540D02*
X021990Y015540D01*
X021989Y015619D02*
X022418Y015619D01*
X022418Y015697D02*
X021988Y015697D01*
X021988Y015776D02*
X022418Y015776D01*
X022418Y015854D02*
X021987Y015854D01*
X021986Y015933D02*
X022418Y015933D01*
X022418Y016011D02*
X021986Y016011D01*
X021985Y016090D02*
X022418Y016090D01*
X022418Y016168D02*
X021984Y016168D01*
X021984Y016247D02*
X022418Y016247D01*
X022418Y016325D02*
X021983Y016325D01*
X021982Y016404D02*
X022418Y016404D01*
X022418Y016482D02*
X021981Y016482D01*
X021981Y016561D02*
X022418Y016561D01*
X022418Y016639D02*
X021980Y016639D01*
X021979Y016718D02*
X022455Y016718D01*
X020898Y018759D02*
X012471Y018759D01*
X012581Y018837D02*
X020841Y018837D01*
X020841Y018916D02*
X012627Y018916D01*
X012646Y018994D02*
X020841Y018994D01*
X020841Y019073D02*
X013387Y019073D01*
X013452Y019151D02*
X020841Y019151D01*
X020841Y019230D02*
X013485Y019230D01*
X013485Y019308D02*
X020841Y019308D01*
X020841Y019387D02*
X013467Y019387D01*
X013423Y019465D02*
X018193Y019465D01*
X018182Y019544D02*
X013317Y019544D01*
X013093Y019544D02*
X008496Y019544D01*
X008575Y019622D02*
X018182Y019622D01*
X018499Y021114D02*
X020683Y021114D01*
X020683Y021192D02*
X018499Y021192D01*
X018499Y021271D02*
X020683Y021271D01*
X020683Y021349D02*
X018499Y021349D01*
X018499Y021428D02*
X020682Y021428D01*
X020682Y021506D02*
X018499Y021506D01*
X018499Y021585D02*
X020681Y021585D01*
X020649Y021663D02*
X018499Y021663D01*
X018499Y021742D02*
X020640Y021742D01*
X020651Y021820D02*
X018447Y021820D01*
X020037Y020564D02*
X021020Y020564D01*
X021099Y020486D02*
X020037Y020486D01*
X020037Y020407D02*
X021136Y020407D01*
X021136Y020329D02*
X020037Y020329D01*
X020037Y020250D02*
X021136Y020250D01*
X021136Y020172D02*
X020037Y020172D01*
X020037Y020093D02*
X021136Y020093D01*
X021136Y020015D02*
X020037Y020015D01*
X020037Y019936D02*
X021136Y019936D01*
X021136Y019858D02*
X020037Y019858D01*
X020037Y019779D02*
X020901Y019779D01*
X020841Y019701D02*
X020037Y019701D01*
X020037Y019622D02*
X020841Y019622D01*
X020841Y019544D02*
X020037Y019544D01*
X020026Y019465D02*
X020841Y019465D01*
X013789Y014991D02*
X013209Y014991D01*
X013131Y015069D02*
X013710Y015069D01*
X013632Y015148D02*
X013052Y015148D01*
X012974Y015226D02*
X013553Y015226D01*
X013475Y015305D02*
X012895Y015305D01*
X012817Y015383D02*
X013396Y015383D01*
X013318Y015462D02*
X012738Y015462D01*
X012660Y015540D02*
X013239Y015540D01*
X013161Y015619D02*
X012581Y015619D01*
X012503Y015697D02*
X013082Y015697D01*
X013004Y015776D02*
X012424Y015776D01*
X012346Y015854D02*
X012925Y015854D01*
X012847Y015933D02*
X012267Y015933D01*
X012189Y016011D02*
X012768Y016011D01*
X012690Y016090D02*
X012110Y016090D01*
X012032Y016168D02*
X012611Y016168D01*
X012533Y016247D02*
X011956Y016247D01*
X011956Y016325D02*
X012454Y016325D01*
X011576Y017660D02*
X010356Y017660D01*
X010355Y017738D02*
X011576Y017738D01*
X011576Y017817D02*
X010322Y017817D01*
X010982Y018209D02*
X008296Y018209D01*
X008296Y018131D02*
X009486Y018131D01*
X008296Y018288D02*
X011060Y018288D01*
X011139Y018366D02*
X008296Y018366D01*
X008296Y018445D02*
X011217Y018445D01*
X011296Y018523D02*
X008296Y018523D01*
X008296Y018602D02*
X011374Y018602D01*
X011453Y018680D02*
X008296Y018680D01*
X008296Y018759D02*
X011531Y018759D01*
X011610Y018837D02*
X008296Y018837D01*
X008296Y018916D02*
X011688Y018916D01*
X011767Y018994D02*
X008296Y018994D01*
X008296Y019073D02*
X011845Y019073D01*
X011924Y019151D02*
X008296Y019151D01*
X008296Y019230D02*
X012002Y019230D01*
X012081Y019308D02*
X008296Y019308D01*
X008339Y019387D02*
X012159Y019387D01*
X012130Y019357D02*
X012130Y019357D01*
X012646Y019073D02*
X013024Y019073D01*
X012988Y019465D02*
X008418Y019465D01*
X005961Y018523D02*
X003306Y018523D01*
X003306Y018445D02*
X005929Y018445D01*
X005929Y018366D02*
X003306Y018366D01*
X003306Y018288D02*
X005950Y018288D01*
X005997Y018209D02*
X003306Y018209D01*
X005297Y014677D02*
X005365Y014677D01*
X005800Y013578D02*
X005820Y013578D01*
X006391Y013578D02*
X007840Y013578D01*
X007841Y013656D02*
X007181Y013656D01*
X007263Y013735D02*
X007841Y013735D01*
X007842Y013813D02*
X007345Y013813D01*
X007426Y013892D02*
X007842Y013892D01*
X007825Y013970D02*
X007508Y013970D01*
X007586Y014049D02*
X007771Y014049D01*
X007744Y014127D02*
X007745Y014127D01*
X008024Y014165D02*
X007979Y007950D01*
X007803Y008554D02*
X007244Y008554D01*
X007310Y008632D02*
X007804Y008632D01*
X007804Y008711D02*
X007382Y008711D01*
X007454Y008789D02*
X007805Y008789D01*
X007805Y008868D02*
X007526Y008868D01*
X007609Y008946D02*
X007806Y008946D01*
X007806Y009025D02*
X007658Y009025D01*
X007688Y009103D02*
X007807Y009103D01*
X007808Y009182D02*
X007691Y009182D01*
X007692Y009260D02*
X007808Y009260D01*
X007809Y009339D02*
X007680Y009339D01*
X007648Y009417D02*
X007809Y009417D01*
X007811Y009653D02*
X006737Y009653D01*
X006658Y009731D02*
X007812Y009731D01*
X007812Y009810D02*
X006580Y009810D01*
X006501Y009888D02*
X007813Y009888D01*
X007813Y009967D02*
X006423Y009967D01*
X006391Y010045D02*
X007814Y010045D01*
X007815Y010124D02*
X006391Y010124D01*
X006391Y010202D02*
X007815Y010202D01*
X007816Y010281D02*
X007197Y010281D01*
X007207Y010291D02*
X007252Y010333D01*
X007253Y010341D01*
X007553Y010669D01*
X007562Y010670D01*
X007594Y010713D01*
X007611Y010718D01*
X007626Y010748D01*
X007640Y010763D01*
X007639Y010769D01*
X007650Y010775D01*
X007655Y010793D01*
X007667Y010808D01*
X007664Y010825D01*
X007665Y010826D01*
X007665Y010827D01*
X007678Y010838D01*
X007680Y010856D01*
X007688Y010873D01*
X007684Y010885D01*
X007688Y010889D01*
X007688Y010910D01*
X007698Y010941D01*
X007690Y010955D01*
X007695Y010962D01*
X007692Y010988D01*
X007694Y011010D01*
X007689Y011016D01*
X007688Y011021D01*
X007688Y011024D01*
X007697Y011041D01*
X007688Y011067D01*
X007688Y011080D01*
X007682Y011087D01*
X007681Y011089D01*
X007679Y011107D01*
X007682Y011119D01*
X007677Y011129D01*
X007676Y011139D01*
X007666Y011148D01*
X007657Y011163D01*
X007656Y011165D01*
X007657Y011174D01*
X007649Y011185D01*
X007641Y011211D01*
X007631Y011216D01*
X007631Y011220D01*
X007608Y011245D01*
X007591Y011273D01*
X007584Y011275D01*
X007581Y011290D01*
X007561Y011303D01*
X007555Y011310D01*
X007549Y011311D01*
X007540Y011317D01*
X007519Y011338D01*
X007515Y011346D01*
X007510Y011348D01*
X007506Y011352D01*
X007497Y011353D01*
X007469Y011363D01*
X007444Y011379D01*
X007439Y011386D01*
X007433Y011386D01*
X007428Y011390D01*
X007420Y011388D01*
X007390Y011391D01*
X007380Y011395D01*
X007375Y011400D01*
X007367Y011400D01*
X007344Y011408D01*
X007341Y011407D01*
X007340Y011407D01*
X007299Y011402D01*
X007269Y011406D01*
X007269Y012463D01*
X007316Y012510D01*
X007359Y012613D01*
X007359Y012725D01*
X007316Y012828D01*
X007237Y012906D01*
X007134Y012949D01*
X007023Y012949D01*
X006920Y012906D01*
X006841Y012828D01*
X006799Y012725D01*
X006799Y012613D01*
X006841Y012510D01*
X006889Y012463D01*
X006889Y011403D01*
X006881Y011402D01*
X006840Y011407D01*
X006840Y011407D01*
X006837Y011408D01*
X006814Y011400D01*
X006806Y011400D01*
X006801Y011395D01*
X006790Y011391D01*
X006761Y011388D01*
X006753Y011390D01*
X006748Y011386D01*
X006742Y011386D01*
X006736Y011379D01*
X006712Y011363D01*
X006684Y011353D01*
X006675Y011352D01*
X006671Y011348D01*
X006665Y011346D01*
X006662Y011338D01*
X006641Y011317D01*
X006632Y011311D01*
X006625Y011310D01*
X006620Y011303D01*
X006600Y011290D01*
X006597Y011275D01*
X006590Y011273D01*
X006573Y011245D01*
X006550Y011220D01*
X006550Y011216D01*
X006540Y011211D01*
X006532Y011185D01*
X006524Y011174D01*
X006525Y011165D01*
X006524Y011163D01*
X006515Y011148D01*
X006505Y011139D01*
X006504Y011129D01*
X006498Y011119D01*
X006502Y011107D01*
X006500Y011089D01*
X006499Y011087D01*
X006492Y011080D01*
X006492Y011067D01*
X006484Y011041D01*
X006492Y011024D01*
X006492Y011021D01*
X006492Y011016D01*
X006487Y011010D01*
X006489Y010988D01*
X006486Y010962D01*
X006491Y010955D01*
X006483Y010941D01*
X006492Y010910D01*
X006492Y010889D01*
X006496Y010885D01*
X006493Y010873D01*
X006501Y010856D01*
X006503Y010838D01*
X006516Y010827D01*
X006516Y010826D01*
X006517Y010825D01*
X006514Y010808D01*
X006526Y010793D01*
X006531Y010775D01*
X006542Y010769D01*
X006541Y010763D01*
X006555Y010748D01*
X006570Y010718D01*
X006586Y010713D01*
X006619Y010670D01*
X006628Y010669D01*
X006928Y010341D01*
X006929Y010333D01*
X006974Y010291D01*
X007015Y010246D01*
X007023Y010246D01*
X007029Y010240D01*
X007090Y010243D01*
X007152Y010240D01*
X007158Y010246D01*
X007166Y010246D01*
X007207Y010291D01*
X007269Y010359D02*
X007816Y010359D01*
X007817Y010438D02*
X007341Y010438D01*
X007413Y010516D02*
X007817Y010516D01*
X007818Y010595D02*
X007485Y010595D01*
X007564Y010673D02*
X007819Y010673D01*
X007819Y010752D02*
X007629Y010752D01*
X007669Y010830D02*
X007820Y010830D01*
X007820Y010909D02*
X007688Y010909D01*
X007692Y010987D02*
X007821Y010987D01*
X007821Y011066D02*
X007689Y011066D01*
X007670Y011144D02*
X007822Y011144D01*
X007823Y011223D02*
X007629Y011223D01*
X007564Y011301D02*
X007823Y011301D01*
X007824Y011380D02*
X007444Y011380D01*
X007269Y011458D02*
X007824Y011458D01*
X007825Y011537D02*
X007269Y011537D01*
X007269Y011615D02*
X007826Y011615D01*
X007826Y011694D02*
X007269Y011694D01*
X007269Y011772D02*
X007827Y011772D01*
X007827Y011851D02*
X007269Y011851D01*
X007269Y011929D02*
X007828Y011929D01*
X007828Y012008D02*
X007269Y012008D01*
X007269Y012086D02*
X007829Y012086D01*
X007830Y012165D02*
X007269Y012165D01*
X007269Y012243D02*
X007830Y012243D01*
X007831Y012322D02*
X007269Y012322D01*
X007269Y012400D02*
X007831Y012400D01*
X007832Y012479D02*
X007284Y012479D01*
X007335Y012557D02*
X007832Y012557D01*
X007833Y012636D02*
X007359Y012636D01*
X007359Y012714D02*
X007834Y012714D01*
X007834Y012793D02*
X007330Y012793D01*
X007272Y012871D02*
X007835Y012871D01*
X007835Y012950D02*
X006391Y012950D01*
X006391Y013028D02*
X007836Y013028D01*
X007836Y013107D02*
X006391Y013107D01*
X006391Y013185D02*
X007837Y013185D01*
X007838Y013264D02*
X006391Y013264D01*
X006391Y013342D02*
X007838Y013342D01*
X007839Y013421D02*
X006391Y013421D01*
X006391Y013499D02*
X007839Y013499D01*
X008209Y013630D02*
X008242Y013746D01*
X009598Y013746D01*
X009713Y013860D01*
X009713Y014021D01*
X009266Y014468D01*
X009266Y014668D01*
X009266Y014718D01*
X009316Y014718D01*
X009266Y014718D02*
X009216Y014718D01*
X009587Y014488D02*
X009807Y014248D01*
X009807Y014221D01*
X009859Y014169D01*
X009866Y013600D01*
X009780Y013515D01*
X008424Y013515D01*
X008408Y013366D01*
X008411Y005874D01*
X008191Y006112D02*
X008209Y013630D01*
X008024Y014165D02*
X009196Y014168D01*
X009272Y015540D02*
X009279Y015540D01*
X009247Y015619D02*
X009318Y015619D01*
X009375Y015697D02*
X009193Y015697D01*
X010266Y016568D02*
X010416Y016568D01*
X013237Y013780D01*
X012748Y013578D02*
X012019Y013578D01*
X012018Y013656D02*
X012702Y013656D01*
X012622Y013735D02*
X012017Y013735D01*
X012016Y013813D02*
X012543Y013813D01*
X012463Y013892D02*
X012015Y013892D01*
X012014Y013970D02*
X012383Y013970D01*
X012304Y014049D02*
X012013Y014049D01*
X012012Y014127D02*
X012224Y014127D01*
X012144Y014206D02*
X012011Y014206D01*
X012011Y014284D02*
X012065Y014284D01*
X011307Y014284D02*
X011021Y014284D01*
X010902Y014284D02*
X010898Y014284D01*
X010856Y014206D02*
X011307Y014206D01*
X011267Y014363D02*
X011157Y014363D01*
X012020Y013499D02*
X012748Y013499D01*
X012748Y013421D02*
X012020Y013421D01*
X012021Y013342D02*
X012748Y013342D01*
X012748Y013264D02*
X012022Y013264D01*
X012359Y013185D02*
X012748Y013185D01*
X012748Y013107D02*
X012426Y013107D01*
X012459Y013028D02*
X012748Y013028D01*
X012748Y012950D02*
X012461Y012950D01*
X012444Y012871D02*
X012748Y012871D01*
X012748Y012793D02*
X012401Y012793D01*
X012374Y012714D02*
X012748Y012714D01*
X012748Y012636D02*
X012374Y012636D01*
X012375Y012557D02*
X012748Y012557D01*
X012748Y012479D02*
X012376Y012479D01*
X012376Y012400D02*
X012748Y012400D01*
X012748Y012322D02*
X012377Y012322D01*
X012378Y012243D02*
X012748Y012243D01*
X012748Y012165D02*
X012378Y012165D01*
X012379Y012086D02*
X012748Y012086D01*
X012748Y012008D02*
X012379Y012008D01*
X012380Y011929D02*
X012748Y011929D01*
X012748Y011851D02*
X012381Y011851D01*
X012381Y011772D02*
X012748Y011772D01*
X012748Y011694D02*
X012382Y011694D01*
X012383Y011615D02*
X012748Y011615D01*
X012748Y011537D02*
X012383Y011537D01*
X012384Y011458D02*
X012748Y011458D01*
X012748Y011380D02*
X012385Y011380D01*
X012385Y011301D02*
X012778Y011301D01*
X012748Y011331D02*
X012748Y011331D01*
X012748Y011331D01*
X012853Y011226D02*
X012853Y011226D01*
X012853Y011226D01*
X012058Y010673D02*
X012052Y010673D01*
X011300Y012008D02*
X010717Y012008D01*
X010773Y012086D02*
X011300Y012086D01*
X011300Y012165D02*
X010799Y012165D01*
X010805Y012243D02*
X011300Y012243D01*
X011301Y012322D02*
X010874Y012322D01*
X010942Y012400D02*
X011301Y012400D01*
X011301Y012479D02*
X011010Y012479D01*
X011079Y012557D02*
X011301Y012557D01*
X011302Y012636D02*
X011260Y012636D01*
X009309Y009635D02*
X009309Y009635D01*
X009163Y009134D02*
X009059Y009030D01*
X009351Y008711D02*
X011126Y008711D01*
X011232Y008789D02*
X009423Y008789D01*
X009495Y008868D02*
X011338Y008868D01*
X011443Y008946D02*
X009578Y008946D01*
X009626Y009025D02*
X011490Y009025D01*
X011490Y009103D02*
X010117Y009103D01*
X009819Y009103D02*
X009796Y009103D01*
X009279Y008632D02*
X011020Y008632D01*
X010914Y008554D02*
X009213Y008554D01*
X009134Y008475D02*
X009126Y008474D01*
X009120Y008469D01*
X009059Y008471D01*
X008998Y008469D01*
X008992Y008474D01*
X008983Y008475D01*
X008905Y008554D02*
X008590Y008554D01*
X008590Y008632D02*
X008839Y008632D01*
X008767Y008711D02*
X008590Y008711D01*
X008590Y008789D02*
X008695Y008789D01*
X008623Y008868D02*
X008590Y008868D01*
X008610Y009545D02*
X008630Y009567D01*
X008634Y009574D01*
X006984Y010281D02*
X006391Y010281D01*
X006391Y010359D02*
X006912Y010359D01*
X006840Y010438D02*
X006391Y010438D01*
X006391Y010516D02*
X006768Y010516D01*
X006696Y010595D02*
X006391Y010595D01*
X006391Y010673D02*
X006617Y010673D01*
X006552Y010752D02*
X006391Y010752D01*
X006391Y010830D02*
X006512Y010830D01*
X006492Y010909D02*
X006391Y010909D01*
X006391Y010987D02*
X006489Y010987D01*
X006492Y011066D02*
X006391Y011066D01*
X006391Y011144D02*
X006511Y011144D01*
X006552Y011223D02*
X006391Y011223D01*
X006391Y011301D02*
X006617Y011301D01*
X006737Y011380D02*
X006391Y011380D01*
X006391Y011458D02*
X006889Y011458D01*
X006889Y011537D02*
X006391Y011537D01*
X006391Y011615D02*
X006889Y011615D01*
X006889Y011694D02*
X006391Y011694D01*
X006391Y011772D02*
X006889Y011772D01*
X006889Y011851D02*
X006391Y011851D01*
X006391Y011929D02*
X006889Y011929D01*
X006889Y012008D02*
X006391Y012008D01*
X006391Y012086D02*
X006889Y012086D01*
X006889Y012165D02*
X006391Y012165D01*
X006391Y012243D02*
X006889Y012243D01*
X006889Y012322D02*
X006391Y012322D01*
X006391Y012400D02*
X006889Y012400D01*
X006873Y012479D02*
X006391Y012479D01*
X006391Y012557D02*
X006822Y012557D01*
X006799Y012636D02*
X006391Y012636D01*
X006391Y012714D02*
X006799Y012714D01*
X006827Y012793D02*
X006391Y012793D01*
X006391Y012871D02*
X006885Y012871D01*
X006889Y013983D02*
X006889Y014042D01*
X006895Y014108D01*
X006889Y014115D01*
X006889Y014125D01*
X006842Y014172D01*
X006646Y014409D01*
X007054Y014409D01*
X007339Y014694D01*
X007351Y014681D01*
X007318Y014602D01*
X007318Y014491D01*
X007361Y014388D01*
X007369Y014380D01*
X007350Y014372D01*
X007335Y014335D01*
X007226Y014226D01*
X006973Y013983D01*
X006889Y013983D01*
X006889Y014049D02*
X007041Y014049D01*
X007123Y014127D02*
X006887Y014127D01*
X006814Y014206D02*
X007205Y014206D01*
X007284Y014284D02*
X006749Y014284D01*
X006684Y014363D02*
X007346Y014363D01*
X007339Y014441D02*
X007086Y014441D01*
X007165Y014520D02*
X007318Y014520D01*
X007318Y014598D02*
X007243Y014598D01*
X007322Y014677D02*
X007349Y014677D01*
X005820Y011615D02*
X005371Y011615D01*
X005404Y011537D02*
X005820Y011537D01*
X005820Y011458D02*
X005409Y011458D01*
X005475Y011380D02*
X005820Y011380D01*
X005820Y011301D02*
X005595Y011301D01*
X005660Y011223D02*
X005820Y011223D01*
X005820Y011144D02*
X005701Y011144D01*
X005720Y011066D02*
X005820Y011066D01*
X005820Y010987D02*
X005724Y010987D01*
X005720Y010909D02*
X005820Y010909D01*
X005820Y010830D02*
X005701Y010830D01*
X005660Y010752D02*
X005820Y010752D01*
X005820Y010673D02*
X005596Y010673D01*
X005517Y010595D02*
X005820Y010595D01*
X005820Y010516D02*
X005445Y010516D01*
X005373Y010438D02*
X005820Y010438D01*
X005820Y010359D02*
X005301Y010359D01*
X005229Y010281D02*
X005820Y010281D01*
X006106Y009746D02*
X006501Y009351D01*
X006498Y009348D01*
X006502Y009335D01*
X006500Y009318D01*
X006499Y009315D01*
X006492Y009309D01*
X006492Y009295D01*
X006484Y009270D01*
X006492Y009252D01*
X006492Y009249D01*
X006492Y009245D01*
X006487Y009238D01*
X006489Y009216D01*
X006486Y009190D01*
X006491Y009184D01*
X006483Y009170D01*
X006492Y009138D01*
X006492Y009117D01*
X006496Y009113D01*
X006493Y009102D01*
X006501Y009085D01*
X006503Y009066D01*
X006516Y009055D01*
X006516Y009054D01*
X006517Y009053D01*
X006514Y009036D01*
X006526Y009021D01*
X006531Y009003D01*
X006542Y008997D01*
X006541Y008991D01*
X006555Y008976D01*
X006570Y008947D01*
X006586Y008941D01*
X006619Y008898D01*
X006628Y008897D01*
X006928Y008569D01*
X006929Y008561D01*
X006974Y008520D01*
X007015Y008475D01*
X007023Y008474D01*
X007029Y008469D01*
X007090Y008471D01*
X007152Y008469D01*
X007158Y008474D01*
X007166Y008475D01*
X007015Y008475D02*
X005198Y008475D01*
X005197Y008475D02*
X005239Y008520D01*
X005284Y008561D01*
X005284Y008569D01*
X005585Y008897D01*
X005593Y008898D01*
X005626Y008941D01*
X005642Y008947D01*
X005657Y008976D01*
X005671Y008991D01*
X005671Y008997D01*
X005681Y009003D01*
X005687Y009021D01*
X005698Y009036D01*
X005696Y009053D01*
X005696Y009054D01*
X005697Y009055D01*
X005710Y009066D01*
X005711Y009085D01*
X005720Y009102D01*
X005716Y009113D01*
X005720Y009117D01*
X005720Y009138D01*
X005729Y009170D01*
X005721Y009184D01*
X005726Y009190D01*
X005724Y009216D01*
X005726Y009238D01*
X005720Y009245D01*
X005720Y009249D01*
X005720Y009252D01*
X005729Y009270D01*
X005720Y009295D01*
X005720Y009309D01*
X005713Y009315D01*
X005713Y009318D01*
X005711Y009335D01*
X005714Y009348D01*
X005712Y009351D01*
X006089Y009729D01*
X006106Y009746D01*
X006091Y009731D02*
X006121Y009731D01*
X006199Y009653D02*
X006013Y009653D01*
X005934Y009574D02*
X006278Y009574D01*
X006356Y009496D02*
X005856Y009496D01*
X005777Y009417D02*
X006435Y009417D01*
X006501Y009339D02*
X005712Y009339D01*
X005724Y009260D02*
X006488Y009260D01*
X006490Y009182D02*
X005722Y009182D01*
X005719Y009103D02*
X006493Y009103D01*
X006523Y009025D02*
X005689Y009025D01*
X005641Y008946D02*
X006572Y008946D01*
X006655Y008868D02*
X005558Y008868D01*
X005486Y008789D02*
X006727Y008789D01*
X006799Y008711D02*
X005414Y008711D01*
X005342Y008632D02*
X006871Y008632D01*
X006937Y008554D02*
X005276Y008554D01*
X005197Y008475D02*
X005189Y008474D01*
X005183Y008469D01*
X005122Y008471D01*
X005061Y008469D01*
X005055Y008474D01*
X005046Y008475D01*
X003898Y008004D02*
X003306Y008004D01*
X003306Y007926D02*
X003898Y007926D01*
X003898Y007847D02*
X003306Y007847D01*
X003306Y007769D02*
X003898Y007769D01*
X003898Y007690D02*
X003306Y007690D01*
X003306Y007612D02*
X003898Y007612D01*
X003898Y007533D02*
X003306Y007533D01*
X003306Y007455D02*
X003898Y007455D01*
X003898Y007376D02*
X003306Y007376D01*
X003306Y007298D02*
X003898Y007298D01*
X003898Y007219D02*
X003306Y007219D01*
X003306Y007141D02*
X003898Y007141D01*
X003898Y007062D02*
X003306Y007062D01*
X003306Y006984D02*
X003898Y006984D01*
X003898Y006905D02*
X003306Y006905D01*
X003306Y006827D02*
X003898Y006827D01*
X003898Y006748D02*
X003306Y006748D01*
X003306Y006670D02*
X003898Y006670D01*
X003898Y006591D02*
X003306Y006591D01*
X003306Y006513D02*
X003898Y006513D01*
X003898Y006434D02*
X003306Y006434D01*
X003306Y006356D02*
X003898Y006356D01*
X003898Y006277D02*
X003306Y006277D01*
X003306Y006199D02*
X003898Y006199D01*
X003898Y006120D02*
X003306Y006120D01*
X003306Y006042D02*
X003898Y006042D01*
X003898Y005963D02*
X003306Y005963D01*
X003306Y005885D02*
X003898Y005885D01*
X003898Y005806D02*
X003306Y005806D01*
X003306Y005728D02*
X003898Y005728D01*
X003898Y005649D02*
X003306Y005649D01*
X003306Y005571D02*
X003898Y005571D01*
X003898Y005492D02*
X003306Y005492D01*
X003306Y005414D02*
X003898Y005414D01*
X003898Y005335D02*
X003306Y005335D01*
X003306Y005257D02*
X003898Y005257D01*
X003898Y005178D02*
X003306Y005178D01*
X003306Y005100D02*
X003898Y005100D01*
X003898Y005021D02*
X003306Y005021D01*
X003306Y004943D02*
X003898Y004943D01*
X003898Y004864D02*
X003306Y004864D01*
X003306Y004786D02*
X003898Y004786D01*
X003898Y004707D02*
X003306Y004707D01*
X003306Y004629D02*
X003898Y004629D01*
X003898Y004550D02*
X003306Y004550D01*
X003306Y004472D02*
X003898Y004472D01*
X003898Y004393D02*
X003306Y004393D01*
X003306Y004315D02*
X003898Y004315D01*
X003898Y004236D02*
X003306Y004236D01*
X003306Y004158D02*
X003898Y004158D01*
X003898Y004079D02*
X003306Y004079D01*
X003306Y004001D02*
X003898Y004001D01*
X003898Y003922D02*
X003306Y003922D01*
X003306Y003844D02*
X003898Y003844D01*
X003898Y003765D02*
X003306Y003765D01*
X003306Y003687D02*
X003898Y003687D01*
X003898Y003608D02*
X003306Y003608D01*
X003306Y003530D02*
X003898Y003530D01*
X003898Y003451D02*
X003306Y003451D01*
X003306Y003373D02*
X003898Y003373D01*
X003898Y003294D02*
X003306Y003294D01*
X003306Y003216D02*
X003898Y003216D01*
X003898Y003137D02*
X003306Y003137D01*
X003306Y003059D02*
X003898Y003059D01*
X003898Y002980D02*
X003306Y002980D01*
X003306Y002902D02*
X003898Y002902D01*
X003862Y002823D02*
X003306Y002823D01*
X003306Y002745D02*
X003857Y002745D01*
X003853Y002666D02*
X003306Y002666D01*
X003306Y002588D02*
X003921Y002588D01*
X003990Y002509D02*
X003306Y002509D01*
X003306Y002431D02*
X004059Y002431D01*
X004127Y002352D02*
X003311Y002352D01*
X003315Y002274D02*
X004196Y002274D01*
X004265Y002195D02*
X003326Y002195D01*
X003344Y002117D02*
X004334Y002117D01*
X004402Y002038D02*
X003362Y002038D01*
X003380Y001960D02*
X004471Y001960D01*
X004536Y001881D02*
X003398Y001881D01*
X003423Y001803D02*
X004520Y001803D01*
X004519Y001724D02*
X003461Y001724D01*
X003499Y001646D02*
X004524Y001646D01*
X004547Y001567D02*
X003536Y001567D01*
X003574Y001489D02*
X004590Y001489D01*
X004665Y001410D02*
X003629Y001410D01*
X003692Y001332D02*
X004737Y001332D01*
X004809Y001253D02*
X003754Y001253D01*
X003817Y001175D02*
X004881Y001175D01*
X004953Y001096D02*
X003901Y001096D01*
X006164Y002588D02*
X006251Y002588D01*
X007533Y003844D02*
X008617Y003844D01*
X008610Y003837D02*
X008601Y003831D01*
X008594Y003830D01*
X008589Y003823D01*
X008569Y003810D01*
X008566Y003795D01*
X008558Y003793D01*
X008542Y003765D01*
X008610Y003837D02*
X008630Y003858D01*
X008634Y003866D01*
X008639Y003868D01*
X008644Y003872D01*
X008652Y003872D01*
X008680Y003883D01*
X008705Y003899D01*
X008710Y003905D01*
X008716Y003906D01*
X008721Y003909D01*
X008729Y003908D01*
X008759Y003911D01*
X008769Y003915D01*
X008774Y003920D01*
X008783Y003920D01*
X008805Y003928D01*
X008809Y003926D01*
X008809Y003926D01*
X008850Y003922D01*
X008886Y003926D01*
X008891Y003928D01*
X008915Y003920D01*
X008927Y003920D01*
X008933Y003914D01*
X008938Y003912D01*
X008960Y003909D01*
X008971Y003912D01*
X008979Y003907D01*
X008988Y003906D01*
X008995Y003897D01*
X009014Y003886D01*
X009035Y003878D01*
X009046Y003879D01*
X009053Y003872D01*
X009059Y003870D01*
X009065Y003872D01*
X009071Y003879D01*
X009083Y003878D01*
X009104Y003886D01*
X009123Y003897D01*
X009130Y003906D01*
X009139Y003907D01*
X009146Y003912D01*
X009157Y003909D01*
X009180Y003912D01*
X009185Y003914D01*
X009191Y003920D01*
X009202Y003920D01*
X009227Y003928D01*
X009231Y003926D01*
X009268Y003922D01*
X009309Y003926D01*
X009309Y003926D01*
X009313Y003928D01*
X009335Y003920D01*
X009344Y003920D01*
X009349Y003915D01*
X009359Y003911D01*
X009388Y003908D01*
X009397Y003909D01*
X009402Y003906D01*
X009408Y003905D01*
X009413Y003899D01*
X009438Y003883D01*
X009466Y003872D01*
X009474Y003872D01*
X009478Y003868D01*
X009484Y003866D01*
X009488Y003858D01*
X009508Y003837D01*
X009517Y003831D01*
X009524Y003830D01*
X009529Y003823D01*
X009549Y003810D01*
X009552Y003795D01*
X009560Y003793D01*
X009576Y003765D01*
X009501Y003844D02*
X010909Y003844D01*
X010909Y003922D02*
X009329Y003922D01*
X009272Y003922D02*
X009264Y003922D01*
X009209Y003922D02*
X008909Y003922D01*
X008853Y003922D02*
X008846Y003922D01*
X008789Y003922D02*
X007360Y003922D01*
X007303Y003922D02*
X007296Y003922D01*
X009059Y003322D02*
X009131Y003322D01*
X010909Y004001D02*
X004257Y004001D01*
X004257Y004079D02*
X010909Y004079D01*
X010909Y004158D02*
X004257Y004158D01*
X004257Y004236D02*
X010909Y004236D01*
X010909Y004315D02*
X004257Y004315D01*
X004257Y004393D02*
X010909Y004393D01*
X011349Y004393D02*
X011797Y004393D01*
X011754Y004472D02*
X011349Y004472D01*
X011349Y004550D02*
X011763Y004550D01*
X011762Y004629D02*
X011349Y004629D01*
X011349Y004707D02*
X011761Y004707D01*
X011760Y004786D02*
X011349Y004786D01*
X011349Y004864D02*
X011759Y004864D01*
X011758Y004943D02*
X011349Y004943D01*
X011349Y005021D02*
X011757Y005021D01*
X011756Y005100D02*
X011349Y005100D01*
X011349Y005178D02*
X011755Y005178D01*
X011754Y005257D02*
X011362Y005257D01*
X011397Y005335D02*
X011754Y005335D01*
X011753Y005414D02*
X011409Y005414D01*
X011401Y005492D02*
X011752Y005492D01*
X011751Y005571D02*
X011369Y005571D01*
X011294Y005649D02*
X011750Y005649D01*
X011853Y004315D02*
X011349Y004315D01*
X011349Y004236D02*
X011906Y004236D01*
X011959Y004158D02*
X011349Y004158D01*
X011349Y004079D02*
X012013Y004079D01*
X012066Y004001D02*
X011349Y004001D01*
X011349Y003922D02*
X012119Y003922D01*
X012172Y003844D02*
X011349Y003844D01*
X011349Y003765D02*
X012226Y003765D01*
X012279Y003687D02*
X011349Y003687D01*
X011349Y003608D02*
X012332Y003608D01*
X012386Y003530D02*
X011349Y003530D01*
X011349Y003451D02*
X012439Y003451D01*
X012492Y003373D02*
X011349Y003373D01*
X011349Y003294D02*
X012546Y003294D01*
X011349Y003216D02*
X021936Y003216D01*
X021571Y007916D02*
X021571Y008639D01*
X022418Y009747D01*
X022418Y008088D01*
X021859Y008088D01*
X021663Y008007D01*
X021571Y007916D01*
X021571Y007926D02*
X021581Y007926D01*
X021571Y008004D02*
X021660Y008004D01*
X021571Y008083D02*
X021845Y008083D01*
X021571Y008161D02*
X022418Y008161D01*
X022418Y008240D02*
X021571Y008240D01*
X021571Y008318D02*
X022418Y008318D01*
X022418Y008397D02*
X021571Y008397D01*
X021571Y008475D02*
X022418Y008475D01*
X022418Y008554D02*
X021571Y008554D01*
X021571Y008632D02*
X022418Y008632D01*
X022418Y008711D02*
X021626Y008711D01*
X021686Y008789D02*
X022418Y008789D01*
X022418Y008868D02*
X021746Y008868D01*
X021806Y008946D02*
X022418Y008946D01*
X022418Y009025D02*
X021866Y009025D01*
X021926Y009103D02*
X022418Y009103D01*
X022418Y009182D02*
X021986Y009182D01*
X022046Y009260D02*
X022418Y009260D01*
X022418Y009339D02*
X022106Y009339D01*
X022166Y009417D02*
X022418Y009417D01*
X022418Y009496D02*
X022226Y009496D01*
X022286Y009574D02*
X022418Y009574D01*
X022418Y009653D02*
X022346Y009653D01*
X022406Y009731D02*
X022418Y009731D01*
X011716Y008632D02*
X011624Y008632D01*
X011717Y008554D02*
X011519Y008554D01*
X011413Y008475D02*
X011717Y008475D01*
X011718Y008397D02*
X011307Y008397D01*
X011201Y008318D02*
X011719Y008318D01*
X011720Y008240D02*
X011095Y008240D01*
X010990Y008161D02*
X011721Y008161D01*
X011722Y008083D02*
X010884Y008083D01*
X009689Y007690D02*
X008590Y007690D01*
X008590Y007612D02*
X008643Y007612D01*
X008809Y007666D02*
X008809Y007666D01*
X009055Y007612D02*
X009062Y007612D01*
X009475Y007612D02*
X009566Y007612D01*
X011148Y017895D02*
X011576Y017895D01*
X011576Y017974D02*
X011227Y017974D01*
X011305Y018052D02*
X011576Y018052D01*
X011576Y018131D02*
X011384Y018131D01*
X011462Y018209D02*
X011576Y018209D01*
X011576Y018288D02*
X011541Y018288D01*
D24*
X011394Y017555D03*
X010686Y017437D03*
X009308Y017476D03*
X009170Y017830D03*
X008363Y016767D03*
X007575Y016767D03*
X006105Y017515D03*
X005755Y017656D03*
X005150Y017136D03*
X004642Y016708D03*
X004938Y017791D03*
X004938Y018185D03*
X004935Y018872D03*
X004935Y019649D03*
X006093Y019500D03*
X006209Y018393D03*
X006093Y020856D03*
X006050Y021444D03*
X006907Y020939D03*
X004935Y020840D03*
X006010Y022923D03*
X006010Y023519D03*
X012733Y017633D03*
X010115Y016039D03*
X009229Y016177D03*
X009859Y014963D03*
X010351Y013263D03*
X011099Y012870D03*
X010831Y012141D03*
X010520Y012205D03*
X010338Y011806D03*
X009859Y010803D03*
X010338Y010487D03*
X009012Y011480D03*
X007595Y012968D03*
X007005Y013165D03*
X006611Y013165D03*
X006611Y012771D03*
X005430Y012870D03*
X004770Y012572D03*
X005084Y013796D03*
X005694Y013836D03*
X006010Y014107D03*
X005150Y014918D03*
X005513Y015426D03*
X006413Y015350D03*
X007597Y014546D03*
X007713Y014031D03*
X008024Y014165D03*
X007068Y014176D03*
X007993Y015153D03*
X012182Y012968D03*
X012634Y013303D03*
X012198Y010917D03*
X011237Y009130D03*
X019603Y007752D03*
X019603Y007259D03*
X019603Y006767D03*
X021394Y005519D03*
X021965Y006374D03*
X022359Y006374D03*
X022359Y007358D03*
X022359Y007752D03*
X022359Y008244D03*
X022359Y008637D03*
X023343Y005488D03*
X023343Y005094D03*
X023737Y005094D03*
X024131Y005094D03*
X024131Y005488D03*
X023737Y005488D03*
X024524Y005488D03*
X024524Y005094D03*
X024918Y005094D03*
X024918Y005488D03*
X025312Y005488D03*
X025312Y005094D03*
X023343Y004504D03*
X022949Y004504D03*
X022753Y003618D03*
X021016Y013093D03*
X021653Y013707D03*
X025373Y017533D03*
X022753Y019464D03*
X021768Y020055D03*
X021768Y020448D03*
X021375Y019051D03*
X017930Y019130D03*
X017733Y017496D03*
X015961Y017633D03*
X015351Y020035D03*
X025985Y022361D03*
D25*
X017029Y011405D02*
X012927Y011405D01*
X012927Y013687D01*
X013237Y013780D02*
X013217Y011769D01*
X010105Y015218D02*
X009980Y015211D01*
X008114Y015211D01*
X007993Y015153D01*
X007966Y014718D02*
X007833Y014718D01*
X007416Y015201D01*
X007416Y016363D01*
X006843Y016919D01*
X006759Y017004D01*
X006440Y017004D01*
X006105Y017515D01*
X005755Y017656D02*
X005604Y017622D01*
X005150Y017169D01*
X005150Y017136D01*
X004968Y017319D01*
X004174Y017319D01*
X004074Y018319D02*
X004174Y018419D01*
X004174Y019319D01*
X004423Y019319D01*
X004605Y019137D01*
X006198Y019137D01*
X006199Y018954D01*
X006109Y018773D02*
X005034Y018773D01*
X004935Y018822D01*
X004935Y018872D01*
X004935Y019649D02*
X004935Y020840D01*
X006093Y020856D02*
X006093Y019500D01*
X006109Y018773D02*
X006209Y018674D01*
X006209Y018393D01*
X006374Y020939D02*
X006907Y020939D01*
X006374Y020939D02*
X006242Y021071D01*
X006060Y021303D01*
X006050Y021444D01*
X006010Y022923D02*
X006010Y023519D01*
X006943Y015919D02*
X006413Y015350D01*
X006335Y015094D02*
X006335Y014504D01*
X006709Y014051D01*
X006709Y013793D01*
X007597Y014546D02*
X007597Y014689D01*
X007367Y014919D01*
X006843Y014919D01*
X005843Y014919D02*
X005150Y014918D01*
X005415Y015319D02*
X005513Y015426D01*
X005415Y015319D02*
X004174Y015319D01*
X004074Y014319D02*
X004077Y014315D01*
X004077Y002743D01*
X005043Y007586D02*
X004274Y008356D01*
X004274Y012076D01*
X004770Y012572D01*
X005694Y013836D02*
X005696Y013983D01*
X005696Y014804D01*
X005843Y014919D01*
X005061Y007586D02*
X005043Y007586D01*
D26*
X021965Y007555D02*
X022556Y007555D01*
X022556Y006374D02*
X021965Y006374D01*
X022556Y006374D01*
X022851Y006078D01*
X022851Y005586D01*
X022949Y005488D01*
X022365Y014269D02*
X021901Y014269D01*
X021901Y014242D01*
D27*
X011129Y005419D02*
X011129Y002819D01*
X010979Y002669D01*
X009059Y003322D02*
X008479Y002741D01*
X008479Y002369D01*
X005122Y001550D02*
X004077Y002743D01*
X005122Y007062D02*
X005061Y007122D01*
X005061Y007586D01*
X007090Y010802D02*
X007129Y010840D01*
X007129Y010869D01*
X007079Y010919D01*
D28*
X007877Y014913D02*
X009695Y014913D01*
X009741Y014963D01*
X009859Y014963D01*
X008363Y016767D02*
X009170Y017830D01*
X007575Y016767D02*
X007575Y015244D01*
X007877Y014913D01*
X012733Y017633D02*
X015961Y017633D01*
X015430Y020037D02*
X016400Y020968D01*
X015430Y020037D02*
X015351Y020035D01*
X013064Y013747D02*
X013064Y011619D01*
X013067Y011579D01*
D29*
X012198Y010917D02*
X012182Y012968D01*
X011270Y013193D02*
X010646Y013198D01*
X009059Y010802D01*
X010338Y010487D02*
X010338Y011806D01*
X010520Y012205D02*
X011099Y012870D01*
X008966Y014468D02*
X008116Y014468D01*
X007927Y014474D01*
X007860Y014474D01*
X007772Y014346D01*
X007497Y014228D01*
X007359Y014090D01*
X007050Y013793D01*
X006709Y013793D01*
X006201Y013793D01*
X006201Y009919D01*
X007090Y009030D01*
X007067Y009030D01*
X006010Y009919D02*
X006010Y014107D01*
X007079Y012669D02*
X007079Y010919D01*
X006010Y009919D02*
X005122Y009030D01*
X005122Y010802D02*
X005122Y011462D01*
X005129Y011469D01*
X009163Y009134D02*
X009968Y009344D01*
X010119Y007739D02*
X009059Y007062D01*
X007090Y007062D02*
X007090Y007131D01*
X013913Y014018D02*
X011766Y016165D01*
X011766Y018418D01*
X012366Y019018D01*
X013913Y014018D02*
X021162Y014018D01*
X021350Y013831D01*
X021355Y012853D01*
X021355Y012619D01*
X020391Y012619D01*
X020380Y012310D01*
D30*
X021664Y014286D02*
X021827Y014287D01*
X021901Y014269D01*
X025371Y017433D02*
X025371Y017555D01*
X025373Y017533D01*
X014416Y020968D02*
X014386Y020980D01*
X013205Y019287D02*
X012300Y019287D01*
X011040Y018027D01*
X009623Y018027D01*
X009623Y015704D01*
X009544Y015626D01*
X009544Y015448D01*
X009977Y014464D02*
X010016Y014130D01*
X010213Y013933D01*
X010686Y013933D01*
X010686Y014326D01*
X010961Y014563D01*
X006335Y015094D02*
X006040Y015389D01*
X005961Y015389D01*
X005961Y015901D01*
X005943Y015919D01*
X021394Y005519D02*
X021788Y005311D01*
D31*
X013620Y012202D03*
X010016Y017668D03*
D32*
X010016Y017418D01*
X014166Y013268D01*
X014341Y013093D01*
X014391Y013093D01*
X014166Y012868D01*
X013620Y012202D01*
X014166Y012868D02*
X014166Y013268D01*
X014391Y013093D02*
X021016Y013093D01*
D33*
X022365Y014269D02*
X022380Y014259D01*
X022380Y010554D01*
X022367Y010554D01*
X022354Y010551D01*
X022342Y010545D01*
X022332Y010537D01*
X022324Y010527D01*
X022318Y010515D01*
X022315Y010503D01*
X022316Y010503D02*
X021031Y008822D01*
X021031Y006016D01*
X021529Y005519D01*
X021394Y005519D01*
D34*
X021529Y005519D02*
X021529Y004842D01*
X022753Y003618D01*
X021653Y013707D02*
X021669Y013756D01*
X021664Y014286D01*
X021636Y017417D01*
X025371Y017433D01*
X025374Y017433D01*
X025374Y017563D01*
D35*
X021016Y013668D02*
X014466Y013668D01*
D36*
X021375Y019051D02*
X021375Y020547D01*
X021060Y020862D01*
X020922Y020862D01*
X020920Y021740D01*
X020922Y020862D02*
X017516Y020862D01*
X017516Y021411D01*
M02*
