G75*
%MOIN*%
%OFA0B0*%
%FSLAX24Y24*%
%IPPOS*%
%LPD*%
%AMOC8*
5,1,8,0,0,1.08239X$1,22.5*
%
%ADD10C,0.0000*%
%ADD11R,0.0340X0.0840*%
%ADD12R,0.0840X0.0340*%
%ADD13R,0.0356X0.0434*%
%ADD14R,0.0552X0.0946*%
%ADD15R,0.0552X0.0867*%
%ADD16R,0.0680X0.0330*%
%ADD17R,0.0434X0.0356*%
%ADD18R,0.1080X0.1280*%
%ADD19R,0.1080X0.1330*%
%ADD20C,0.0120*%
%ADD21R,0.1064X0.1340*%
%ADD22R,0.1160X0.0930*%
%ADD23R,0.0300X0.0580*%
%ADD24R,0.0580X0.0300*%
%ADD25OC8,0.0820*%
%ADD26R,0.1380X0.0880*%
%ADD27C,0.1261*%
%ADD28R,0.1261X0.1261*%
%ADD29R,0.2049X0.1852*%
%ADD30R,0.0320X0.0950*%
%ADD31R,0.1340X0.0946*%
%ADD32R,0.1025X0.1025*%
%ADD33R,0.0552X0.0297*%
%ADD34C,0.0820*%
%ADD35R,0.0480X0.0530*%
%ADD36C,0.0107*%
%ADD37R,0.0580X0.0580*%
%ADD38C,0.0095*%
%ADD39C,0.0789*%
%ADD40R,0.0780X0.0880*%
%ADD41R,0.0474X0.0631*%
%ADD42R,0.1280X0.1080*%
%ADD43R,0.1330X0.1080*%
%ADD44R,0.0631X0.0474*%
%ADD45R,0.0474X0.0474*%
%ADD46C,0.0710*%
D10*
X003166Y002437D02*
X003166Y021728D01*
X003165Y021728D02*
X003167Y021814D01*
X003172Y021900D01*
X003182Y021985D01*
X003195Y022070D01*
X003212Y022154D01*
X003232Y022238D01*
X003256Y022320D01*
X003284Y022401D01*
X003315Y022482D01*
X003349Y022560D01*
X003387Y022637D01*
X003429Y022713D01*
X003473Y022786D01*
X003521Y022857D01*
X003572Y022927D01*
X003626Y022994D01*
X003682Y023058D01*
X003742Y023120D01*
X003804Y023180D01*
X003868Y023236D01*
X003935Y023290D01*
X004005Y023341D01*
X004076Y023389D01*
X004150Y023433D01*
X004225Y023475D01*
X004302Y023513D01*
X004380Y023547D01*
X004461Y023578D01*
X004542Y023606D01*
X004624Y023630D01*
X004708Y023650D01*
X004792Y023667D01*
X004877Y023680D01*
X004962Y023690D01*
X005048Y023695D01*
X005134Y023697D01*
X005134Y023696D02*
X024426Y023696D01*
X024426Y023697D02*
X024512Y023695D01*
X024598Y023690D01*
X024683Y023680D01*
X024768Y023667D01*
X024852Y023650D01*
X024936Y023630D01*
X025018Y023606D01*
X025099Y023578D01*
X025180Y023547D01*
X025258Y023513D01*
X025335Y023475D01*
X025411Y023433D01*
X025484Y023389D01*
X025555Y023341D01*
X025625Y023290D01*
X025692Y023236D01*
X025756Y023180D01*
X025818Y023120D01*
X025878Y023058D01*
X025934Y022994D01*
X025988Y022927D01*
X026039Y022857D01*
X026087Y022786D01*
X026131Y022713D01*
X026173Y022637D01*
X026211Y022560D01*
X026245Y022482D01*
X026276Y022401D01*
X026304Y022320D01*
X026328Y022238D01*
X026348Y022154D01*
X026365Y022070D01*
X026378Y021985D01*
X026388Y021900D01*
X026393Y021814D01*
X026395Y021728D01*
X026394Y021728D02*
X026394Y002437D01*
X026395Y002437D02*
X026393Y002351D01*
X026388Y002265D01*
X026378Y002180D01*
X026365Y002095D01*
X026348Y002011D01*
X026328Y001927D01*
X026304Y001845D01*
X026276Y001764D01*
X026245Y001683D01*
X026211Y001605D01*
X026173Y001528D01*
X026131Y001452D01*
X026087Y001379D01*
X026039Y001308D01*
X025988Y001238D01*
X025934Y001171D01*
X025878Y001107D01*
X025818Y001045D01*
X025756Y000985D01*
X025692Y000929D01*
X025625Y000875D01*
X025555Y000824D01*
X025484Y000776D01*
X025411Y000732D01*
X025335Y000690D01*
X025258Y000652D01*
X025180Y000618D01*
X025099Y000587D01*
X025018Y000559D01*
X024936Y000535D01*
X024852Y000515D01*
X024768Y000498D01*
X024683Y000485D01*
X024598Y000475D01*
X024512Y000470D01*
X024426Y000468D01*
X005134Y000468D01*
X005048Y000470D01*
X004962Y000475D01*
X004877Y000485D01*
X004792Y000498D01*
X004708Y000515D01*
X004624Y000535D01*
X004542Y000559D01*
X004461Y000587D01*
X004380Y000618D01*
X004302Y000652D01*
X004225Y000690D01*
X004149Y000732D01*
X004076Y000776D01*
X004005Y000824D01*
X003935Y000875D01*
X003868Y000929D01*
X003804Y000985D01*
X003742Y001045D01*
X003682Y001107D01*
X003626Y001171D01*
X003572Y001238D01*
X003521Y001308D01*
X003473Y001379D01*
X003429Y001453D01*
X003387Y001528D01*
X003349Y001605D01*
X003315Y001683D01*
X003284Y001764D01*
X003256Y001845D01*
X003232Y001927D01*
X003212Y002011D01*
X003195Y002095D01*
X003182Y002180D01*
X003172Y002265D01*
X003167Y002351D01*
X003165Y002437D01*
X023225Y019858D02*
X023227Y019893D01*
X023233Y019928D01*
X023243Y019962D01*
X023256Y019995D01*
X023273Y020026D01*
X023294Y020054D01*
X023317Y020081D01*
X023344Y020104D01*
X023372Y020125D01*
X023403Y020142D01*
X023436Y020155D01*
X023470Y020165D01*
X023505Y020171D01*
X023540Y020173D01*
X023575Y020171D01*
X023610Y020165D01*
X023644Y020155D01*
X023677Y020142D01*
X023708Y020125D01*
X023736Y020104D01*
X023763Y020081D01*
X023786Y020054D01*
X023807Y020026D01*
X023824Y019995D01*
X023837Y019962D01*
X023847Y019928D01*
X023853Y019893D01*
X023855Y019858D01*
X023853Y019823D01*
X023847Y019788D01*
X023837Y019754D01*
X023824Y019721D01*
X023807Y019690D01*
X023786Y019662D01*
X023763Y019635D01*
X023736Y019612D01*
X023708Y019591D01*
X023677Y019574D01*
X023644Y019561D01*
X023610Y019551D01*
X023575Y019545D01*
X023540Y019543D01*
X023505Y019545D01*
X023470Y019551D01*
X023436Y019561D01*
X023403Y019574D01*
X023372Y019591D01*
X023344Y019612D01*
X023317Y019635D01*
X023294Y019662D01*
X023273Y019690D01*
X023256Y019721D01*
X023243Y019754D01*
X023233Y019788D01*
X023227Y019823D01*
X023225Y019858D01*
X023225Y021630D02*
X023227Y021665D01*
X023233Y021700D01*
X023243Y021734D01*
X023256Y021767D01*
X023273Y021798D01*
X023294Y021826D01*
X023317Y021853D01*
X023344Y021876D01*
X023372Y021897D01*
X023403Y021914D01*
X023436Y021927D01*
X023470Y021937D01*
X023505Y021943D01*
X023540Y021945D01*
X023575Y021943D01*
X023610Y021937D01*
X023644Y021927D01*
X023677Y021914D01*
X023708Y021897D01*
X023736Y021876D01*
X023763Y021853D01*
X023786Y021826D01*
X023807Y021798D01*
X023824Y021767D01*
X023837Y021734D01*
X023847Y021700D01*
X023853Y021665D01*
X023855Y021630D01*
X023853Y021595D01*
X023847Y021560D01*
X023837Y021526D01*
X023824Y021493D01*
X023807Y021462D01*
X023786Y021434D01*
X023763Y021407D01*
X023736Y021384D01*
X023708Y021363D01*
X023677Y021346D01*
X023644Y021333D01*
X023610Y021323D01*
X023575Y021317D01*
X023540Y021315D01*
X023505Y021317D01*
X023470Y021323D01*
X023436Y021333D01*
X023403Y021346D01*
X023372Y021363D01*
X023344Y021384D01*
X023317Y021407D01*
X023294Y021434D01*
X023273Y021462D01*
X023256Y021493D01*
X023243Y021526D01*
X023233Y021560D01*
X023227Y021595D01*
X023225Y021630D01*
D11*
X020390Y011684D03*
X019996Y011684D03*
X019602Y011684D03*
X019209Y011684D03*
X018815Y011684D03*
X018421Y011684D03*
X018027Y011684D03*
X017634Y011684D03*
X017240Y011684D03*
X016846Y011684D03*
X016453Y011684D03*
X016059Y011684D03*
X015665Y011684D03*
X015272Y011684D03*
X014878Y011684D03*
X014484Y011684D03*
X014090Y011684D03*
X014090Y002235D03*
X014484Y002235D03*
X014878Y002235D03*
X015272Y002235D03*
X015665Y002235D03*
X016059Y002235D03*
X016453Y002235D03*
X016846Y002235D03*
X017240Y002235D03*
X017634Y002235D03*
X018027Y002235D03*
X018421Y002235D03*
X018815Y002235D03*
X019209Y002235D03*
X019602Y002235D03*
X019996Y002235D03*
X020390Y002235D03*
D12*
X021964Y003810D03*
X021964Y004204D03*
X021964Y004597D03*
X021964Y004991D03*
X021964Y005385D03*
X021964Y005778D03*
X021964Y006172D03*
X021964Y006566D03*
X021964Y006959D03*
X021964Y007353D03*
X021964Y007747D03*
X021964Y008141D03*
X021964Y008534D03*
X021964Y008928D03*
X021964Y009322D03*
X021964Y009715D03*
X021964Y010109D03*
X012516Y010109D03*
X012516Y009715D03*
X012516Y009322D03*
X012516Y008928D03*
X012516Y008534D03*
X012516Y008141D03*
X012516Y007747D03*
X012516Y007353D03*
X012516Y006959D03*
X012516Y006566D03*
X012516Y006172D03*
X012516Y005778D03*
X012516Y005385D03*
X012516Y004991D03*
X012516Y004597D03*
X012516Y004204D03*
X012516Y003810D03*
D13*
X011552Y003597D03*
X011040Y003597D03*
X011034Y002996D03*
X011546Y002996D03*
X011552Y004185D03*
X011040Y004185D03*
X011047Y004766D03*
X011559Y004766D03*
X011688Y009793D03*
X011176Y009793D03*
X011204Y010507D03*
X011716Y010507D03*
X011684Y011919D03*
X011173Y011919D03*
X012666Y014017D03*
X013177Y014017D03*
X013177Y014611D03*
X012666Y014611D03*
X012669Y015812D03*
X013181Y015812D03*
X013172Y016418D03*
X012660Y016418D03*
X012656Y017019D03*
X013168Y017019D03*
X012270Y017648D03*
X011759Y017648D03*
X008722Y017717D03*
X008210Y017717D03*
X007522Y017717D03*
X007010Y017717D03*
X008228Y019759D03*
X008740Y019759D03*
X008740Y020547D03*
X008228Y020547D03*
X008228Y021334D03*
X008740Y021334D03*
X008740Y022122D03*
X008228Y022122D03*
X008228Y022909D03*
X008740Y022909D03*
X005753Y021439D03*
X005241Y021439D03*
X005243Y020867D03*
X005755Y020867D03*
X005751Y020259D03*
X005239Y020259D03*
X004505Y020267D03*
X003993Y020267D03*
X003993Y020867D03*
X004505Y020867D03*
X004500Y021439D03*
X003988Y021439D03*
X023927Y023057D03*
X024438Y023057D03*
D14*
X008472Y001535D03*
X007449Y001519D03*
X006484Y001535D03*
D15*
X006516Y011476D03*
X007476Y011484D03*
X008405Y011484D03*
D16*
X022586Y020797D03*
X022586Y021297D03*
X022586Y021797D03*
X022586Y022297D03*
X024686Y022297D03*
X024686Y021797D03*
X024686Y021297D03*
X024686Y020797D03*
D17*
X026008Y020902D03*
X026008Y020390D03*
X025996Y021580D03*
X025996Y022092D03*
X022394Y022678D03*
X022394Y023190D03*
X017733Y018342D03*
X017733Y017830D03*
X017916Y015074D03*
X017916Y014562D03*
X018593Y014559D03*
X018593Y015071D03*
X020517Y015058D03*
X020517Y014547D03*
X012910Y018126D03*
X012910Y018637D03*
X011016Y018224D03*
X011016Y017712D03*
X010366Y017712D03*
X010366Y018224D03*
X010351Y018756D03*
X010351Y019267D03*
X010863Y019267D03*
X010863Y018756D03*
X009701Y018756D03*
X009701Y019267D03*
X009716Y018224D03*
X009716Y017712D03*
X007451Y014041D03*
X007451Y013529D03*
X013446Y001420D03*
X013446Y000909D03*
X014070Y000909D03*
X014070Y001420D03*
X023425Y003736D03*
X023425Y004248D03*
X024803Y004199D03*
X024803Y003687D03*
D18*
X025089Y019696D03*
D19*
X022589Y019696D03*
D20*
X022100Y020771D02*
X022100Y021131D01*
X022100Y020771D02*
X021590Y020771D01*
X021590Y021131D01*
X022100Y021131D01*
X022100Y020890D02*
X021590Y020890D01*
X021590Y021009D02*
X022100Y021009D01*
X022100Y021128D02*
X021590Y021128D01*
X022100Y021471D02*
X022100Y021831D01*
X022100Y021471D02*
X021590Y021471D01*
X021590Y021831D01*
X022100Y021831D01*
X022100Y021590D02*
X021590Y021590D01*
X021590Y021709D02*
X022100Y021709D01*
X022100Y021828D02*
X021590Y021828D01*
X023889Y004490D02*
X023889Y004130D01*
X023889Y004490D02*
X024399Y004490D01*
X024399Y004130D01*
X023889Y004130D01*
X023889Y004249D02*
X024399Y004249D01*
X024399Y004368D02*
X023889Y004368D01*
X023889Y004487D02*
X024399Y004487D01*
X023889Y003790D02*
X023889Y003430D01*
X023889Y003790D02*
X024399Y003790D01*
X024399Y003430D01*
X023889Y003430D01*
X023889Y003549D02*
X024399Y003549D01*
X024399Y003668D02*
X023889Y003668D01*
X023889Y003787D02*
X024399Y003787D01*
X025246Y003808D02*
X025246Y003448D01*
X025246Y003808D02*
X025756Y003808D01*
X025756Y003448D01*
X025246Y003448D01*
X025246Y003567D02*
X025756Y003567D01*
X025756Y003686D02*
X025246Y003686D01*
X025246Y003805D02*
X025756Y003805D01*
X025246Y004148D02*
X025246Y004508D01*
X025756Y004508D01*
X025756Y004148D01*
X025246Y004148D01*
X025246Y004267D02*
X025756Y004267D01*
X025756Y004386D02*
X025246Y004386D01*
X025246Y004505D02*
X025756Y004505D01*
D21*
X025374Y017563D03*
X023130Y017563D03*
D22*
X021503Y017825D03*
X021503Y016085D03*
D23*
X011260Y017018D03*
X010945Y017018D03*
X010630Y017018D03*
X010315Y017018D03*
X010000Y017018D03*
X009685Y017018D03*
X009370Y017018D03*
X009055Y017018D03*
X009055Y013638D03*
X009370Y013638D03*
X009685Y013638D03*
X010000Y013638D03*
X010315Y013638D03*
X010630Y013638D03*
X010945Y013638D03*
X011260Y013638D03*
D24*
X011847Y014226D03*
X011847Y014541D03*
X011847Y014856D03*
X011847Y015170D03*
X011847Y015485D03*
X011847Y015800D03*
X011847Y016115D03*
X011847Y016430D03*
X008467Y016430D03*
X008467Y016115D03*
X008467Y015800D03*
X008467Y015485D03*
X008467Y015170D03*
X008467Y014856D03*
X008467Y014541D03*
X008467Y014226D03*
D25*
X006843Y014919D03*
X005843Y014919D03*
X005943Y015919D03*
X006943Y015919D03*
X006843Y016919D03*
X005843Y016919D03*
D26*
X016502Y016389D03*
X016502Y018889D03*
D27*
X014981Y022605D03*
X010449Y022605D03*
D28*
X010619Y020125D03*
X010225Y020125D03*
X018912Y020125D03*
X019306Y020125D03*
D29*
X019252Y016322D03*
D30*
X018502Y017943D03*
D31*
X019488Y017937D03*
D32*
X019721Y018972D03*
X021453Y018972D03*
X021431Y022431D03*
X019698Y022431D03*
X018323Y022468D03*
X016591Y022468D03*
D33*
X013751Y013362D03*
X013751Y012614D03*
X012727Y012614D03*
X012727Y012988D03*
X012727Y013362D03*
D34*
X004074Y014319D03*
X004174Y015319D03*
X004074Y016319D03*
X004174Y017319D03*
X004074Y018319D03*
X004174Y019319D03*
D35*
X003899Y022067D03*
X004599Y022067D03*
X005149Y022067D03*
X005849Y022067D03*
X005499Y022867D03*
X004249Y022867D03*
X011666Y018218D03*
X012366Y018218D03*
X012016Y019018D03*
X019166Y014320D03*
X019866Y014320D03*
X019516Y015120D03*
D36*
X013377Y015379D02*
X013055Y015379D01*
X013377Y015379D02*
X013377Y015057D01*
X013055Y015057D01*
X013055Y015379D01*
X013055Y015164D02*
X013377Y015164D01*
X013377Y015271D02*
X013055Y015271D01*
X013055Y015378D02*
X013377Y015378D01*
X012777Y015379D02*
X012455Y015379D01*
X012777Y015379D02*
X012777Y015057D01*
X012455Y015057D01*
X012455Y015379D01*
X012455Y015164D02*
X012777Y015164D01*
X012777Y015271D02*
X012455Y015271D01*
X012455Y015378D02*
X012777Y015378D01*
D37*
X006057Y013297D03*
X005057Y013297D03*
X011229Y007969D03*
X011229Y006969D03*
D38*
X007359Y019591D02*
X007073Y019591D01*
X007073Y019927D01*
X007359Y019927D01*
X007359Y019591D01*
X007359Y019685D02*
X007073Y019685D01*
X007073Y019779D02*
X007359Y019779D01*
X007359Y019873D02*
X007073Y019873D01*
X006759Y019591D02*
X006473Y019591D01*
X006473Y019927D01*
X006759Y019927D01*
X006759Y019591D01*
X006759Y019685D02*
X006473Y019685D01*
X006473Y019779D02*
X006759Y019779D01*
X006759Y019873D02*
X006473Y019873D01*
X006473Y020379D02*
X006759Y020379D01*
X006473Y020379D02*
X006473Y020715D01*
X006759Y020715D01*
X006759Y020379D01*
X006759Y020473D02*
X006473Y020473D01*
X006473Y020567D02*
X006759Y020567D01*
X006759Y020661D02*
X006473Y020661D01*
X006473Y021166D02*
X006759Y021166D01*
X006473Y021166D02*
X006473Y021502D01*
X006759Y021502D01*
X006759Y021166D01*
X006759Y021260D02*
X006473Y021260D01*
X006473Y021354D02*
X006759Y021354D01*
X006759Y021448D02*
X006473Y021448D01*
X006473Y021954D02*
X006759Y021954D01*
X006473Y021954D02*
X006473Y022290D01*
X006759Y022290D01*
X006759Y021954D01*
X006759Y022048D02*
X006473Y022048D01*
X006473Y022142D02*
X006759Y022142D01*
X006759Y022236D02*
X006473Y022236D01*
X006473Y022741D02*
X006759Y022741D01*
X006473Y022741D02*
X006473Y023077D01*
X006759Y023077D01*
X006759Y022741D01*
X006759Y022835D02*
X006473Y022835D01*
X006473Y022929D02*
X006759Y022929D01*
X006759Y023023D02*
X006473Y023023D01*
X007073Y022741D02*
X007359Y022741D01*
X007073Y022741D02*
X007073Y023077D01*
X007359Y023077D01*
X007359Y022741D01*
X007359Y022835D02*
X007073Y022835D01*
X007073Y022929D02*
X007359Y022929D01*
X007359Y023023D02*
X007073Y023023D01*
X007073Y021954D02*
X007359Y021954D01*
X007073Y021954D02*
X007073Y022290D01*
X007359Y022290D01*
X007359Y021954D01*
X007359Y022048D02*
X007073Y022048D01*
X007073Y022142D02*
X007359Y022142D01*
X007359Y022236D02*
X007073Y022236D01*
X007073Y021166D02*
X007359Y021166D01*
X007073Y021166D02*
X007073Y021502D01*
X007359Y021502D01*
X007359Y021166D01*
X007359Y021260D02*
X007073Y021260D01*
X007073Y021354D02*
X007359Y021354D01*
X007359Y021448D02*
X007073Y021448D01*
X007073Y020379D02*
X007359Y020379D01*
X007073Y020379D02*
X007073Y020715D01*
X007359Y020715D01*
X007359Y020379D01*
X007359Y020473D02*
X007073Y020473D01*
X007073Y020567D02*
X007359Y020567D01*
X007359Y020661D02*
X007073Y020661D01*
D39*
X014416Y020968D03*
X016400Y020968D03*
D40*
X008716Y018618D03*
X007016Y018618D03*
D41*
X013383Y018657D03*
X014131Y018657D03*
X014820Y018657D03*
X015194Y019523D03*
X014446Y019523D03*
X013757Y019523D03*
X017516Y019169D03*
X018264Y019169D03*
X017890Y020035D03*
D42*
X012260Y020124D03*
X014505Y014927D03*
D43*
X014505Y017427D03*
X012260Y022624D03*
D44*
X010961Y021787D03*
X010961Y021039D03*
X010095Y021413D03*
D45*
X023255Y006918D03*
X023255Y005815D03*
D46*
X023540Y019858D03*
X023540Y021630D03*
M02*
