%
M48
M72
T01C0.0118
T02C0.0120
T03C0.0150
T04C0.0394
T05C0.0400
T06C0.0472
T07C0.0591
T08C0.0630
%
T01
X25985Y22361
X6010Y23519
X6010Y22923
X4935Y20840
X6093Y20856
X6050Y21444
X6907Y20939
X6093Y19500
X6209Y18393
X5755Y17656
X6105Y17515
X5150Y17136
X4642Y16708
X4938Y17791
X4938Y18185
X4935Y18872
X4935Y19649
X7575Y16767
X8363Y16767
X9229Y16177
X10115Y16039
X9859Y14963
X10351Y13263
X11099Y12870
X10831Y12141
X10520Y12205
X10338Y11806
X9859Y10803
X10338Y10487
X9012Y11480
X7595Y12968
X7005Y13165
X6611Y13165
X6611Y12771
X5430Y12870
X4770Y12572
X5084Y13796
X5694Y13836
X6010Y14107
X5150Y14918
X5513Y15426
X6413Y15350
X7597Y14546
X7713Y14031
X8024Y14165
X7068Y14176
X7993Y15153
X9308Y17476
X9170Y17830
X10686Y17437
X11394Y17555
X12733Y17633
X15351Y20035
X15961Y17633
X17733Y17496
X17930Y19130
X21375Y19051
X21768Y20055
X21768Y20448
X22753Y19464
X25373Y17533
X21653Y13707
X21016Y13093
X22359Y8637
X22359Y8244
X22359Y7752
X22359Y7358
X22359Y6374
X21965Y6374
X21394Y5519
X22949Y4504
X23343Y4504
X23343Y5094
X23343Y5488
X23737Y5488
X24131Y5488
X24131Y5094
X23737Y5094
X24524Y5094
X24524Y5488
X24918Y5488
X24918Y5094
X25312Y5094
X25312Y5488
X22753Y3618
X19603Y6767
X19603Y7259
X19603Y7752
X12634Y13303
X12182Y12968
X12198Y10917
X11237Y9130
T02
X25079Y2453
X24579Y2453
X6429Y2369
X7429Y2369
X8479Y2369
X10110Y1885
X10610Y1885
X11094Y1885
X11594Y1885
X12079Y1885
X12079Y2369
X12579Y2369
X12579Y1885
X12579Y1385
X12079Y1385
X11594Y1385
X11094Y1385
X10610Y1385
X10110Y1385
X10979Y2669
X12079Y2869
X12579Y2869
X14047Y4141
X14047Y4641
X14047Y5125
X14047Y5625
X14047Y6109
X14047Y6609
X14047Y7093
X14547Y7093
X14547Y6609
X14547Y6109
X14547Y5625
X14547Y5125
X14547Y4641
X14547Y4141
X14693Y1467
X14705Y968
X15205Y968
X15705Y968
X15693Y1467
X15193Y1467
X16193Y1467
X16205Y968
X16705Y968
X17166Y968
X17153Y1467
X16693Y1467
X17653Y1467
X17666Y968
X18166Y968
X18153Y1467
X18653Y1467
X19153Y1467
X19166Y968
X18666Y968
X19666Y968
X19653Y1467
X20153Y1467
X20627Y1469
X21127Y1469
X21627Y1469
X22127Y1469
X22606Y1467
X22619Y1952
X22606Y2452
X23106Y2452
X23579Y2453
X23579Y1953
X23119Y1952
X23106Y1467
X23579Y1469
X23579Y969
X23119Y968
X22619Y968
X22127Y969
X21627Y969
X21127Y969
X20627Y969
X20166Y968
X22129Y3419
X24079Y2453
X24079Y1953
X24079Y1469
X24079Y969
X24579Y969
X24579Y1469
X24579Y1953
X25079Y1953
X25079Y1469
X25079Y969
X14547Y7593
X14547Y8078
X14547Y8578
X14547Y9062
X14547Y9562
X14547Y10046
X14047Y10046
X14047Y9562
X14047Y9062
X14047Y8578
X14047Y8078
X14047Y7593
X11079Y6369
X11079Y6019
X11129Y5419
X10119Y7739
X10882Y8763
X10882Y9119
X9968Y9344
X12229Y10487
X12696Y10503
X14047Y10546
X14047Y11030
X14547Y11030
X14547Y10546
X16829Y12269
X17229Y12269
X17980Y12345
X17516Y14318
X17516Y14668
X17616Y15118
X18316Y15118
X19905Y15120
X19941Y14377
X21016Y13668
X21666Y12968
X21677Y12369
X20380Y12310
X21166Y14968
X21166Y15468
X21666Y15468
X22116Y18518
X21916Y23218
X21416Y23218
X20916Y23218
X20416Y23218
X19916Y23218
X19416Y23218
X18916Y23218
X18416Y23218
X17916Y23218
X17416Y23218
X16916Y23218
X16416Y23218
X16416Y21768
X13205Y19287
X12366Y19018
X12116Y16918
X10455Y15968
X10066Y15718
X10416Y15468
X10105Y15218
X10416Y14988
X10416Y14647
X9977Y14464
X9587Y14488
X9196Y14168
X8966Y14468
X8992Y15503
X9544Y15448
X9866Y16568
X10266Y16568
X8766Y17968
X9416Y18268
X10016Y18268
X8816Y20118
X8466Y20168
X7516Y20568
X7216Y19418
X6199Y18954
X6916Y17968
X7816Y15518
X10316Y14168
X10995Y14179
X10961Y14563
X12118Y13929
X11270Y13193
X13666Y14968
X14466Y13668
X16666Y14793
X14916Y16468
X18216Y18218
X20766Y20118
X20766Y20520
X20920Y21740
X26064Y19952
X25866Y18368
X8816Y21668
X7079Y12669
X5129Y11469
X5878Y8479
X6378Y8479
X6378Y7979
X5878Y7979
X5878Y6511
X6378Y6511
X6378Y6011
X5878Y6011
X5878Y4739
X6378Y4739
X6378Y4239
X5878Y4239
T03
X13620Y12202
X10016Y17668
T04
X14416Y20968
X16400Y20968
T05
X4174Y19319
X4074Y18319
X4174Y17319
X4074Y16319
X4174Y15319
X4074Y14319
X5843Y14919
X6843Y14919
X6943Y15919
X5943Y15919
X5843Y16919
X6843Y16919
T06
X10225Y20125
X10619Y20125
X18912Y20125
X19306Y20125
T07
X10449Y22605
X14981Y22605
T08
X23540Y21630
X23540Y19858
M30
