%
M48
M72
T01C0.0120
T02C0.0150
T03C0.0236
T04C0.0315
T05C0.0400
T06C0.0472
T07C0.0591
T08C0.1181
%
T01
X3490Y4640
X4790Y5790
X4990Y5440
X6040Y6040
X6540Y6340
X6040Y6640
X7040Y7940
X8140Y5740
X7840Y5440
X7540Y5040
X6790Y4790
X6390Y5190
X9990Y3490
X10390Y3690
X11340Y4140
X12490Y2790
X12890Y2790
X13290Y2790
X13690Y2790
X14490Y3990
X14490Y4390
X13690Y5490
X13290Y5490
X12890Y5490
X12490Y5490
X11240Y5940
X12490Y7290
X12890Y7290
X13290Y7290
X13690Y7290
X11240Y7840
X10290Y8990
X9440Y9740
X10290Y10190
X10190Y11690
X11390Y12190
X12190Y11790
X12090Y11190
X8740Y11240
X5790Y10390
X5440Y10440
X3340Y11590
X2590Y10090
X2590Y9290
X1890Y9290
X2740Y7890
X6840Y15240
X14540Y16140
X15640Y12940
X15640Y12540
X15640Y12140
X17740Y10890
X17740Y10390
X17740Y9840
X17740Y9340
X17740Y8790
X17140Y8640
X17140Y8140
X16640Y8140
X17140Y6740
X17140Y6240
X16640Y6240
X17140Y4940
X17140Y4440
X16640Y4440
X18640Y3240
X19140Y3240
X19640Y3240
X20140Y3240
X20140Y2740
X20640Y2740
X20640Y2290
X20640Y3240
X21090Y4340
X21590Y4340
X22840Y8640
X22940Y9240
X22940Y9840
X22890Y10490
X22390Y10490
X22390Y10990
X21890Y10990
X21890Y10490
X21890Y11490
X21390Y11490
X21390Y11990
X20890Y11990
X20890Y11490
X20390Y11990
X19890Y11990
X19390Y11990
X19890Y12490
X19890Y12990
X19890Y13490
X19390Y13490
X18890Y13490
X20390Y12990
X20390Y12490
X20890Y12490
X18390Y9340
X18390Y8790
X19090Y8790
X10190Y2490
T02
X11140Y2490
X17990Y3365
T03
X12896Y16321
X10849Y19077
T04
X15140Y8640
X16640Y8640
X16640Y6740
X15040Y6740
X15140Y4940
X16640Y4940
T05
X2365Y1664
X3365Y1564
X4365Y1664
X5365Y1564
X6365Y1664
X7365Y1564
X2875Y5042
X2975Y6042
X1975Y6042
X1875Y5042
X1875Y7042
X2875Y7042
T06
X7199Y19797
X7593Y19797
X15886Y19797
X16280Y19797
T07
X9640Y19340
X8040Y17840
X8023Y16377
X8040Y14740
X8040Y12740
X9640Y12740
X13440Y12440
X13755Y10477
X2440Y18140
X2340Y21240
X7340Y22240
X2340Y13940
T08
X11951Y21794
X18644Y21794
X18644Y1715
M30
