G75*
%MOIN*%
%OFA0B0*%
%FSLAX24Y24*%
%IPPOS*%
%LPD*%
%AMOC8*
5,1,8,0,0,1.08239X$1,22.5*
%
%ADD10C,0.0000*%
%ADD11R,0.0600X0.0250*%
%ADD12C,0.0088*%
%ADD13R,0.1000X0.1200*%
%ADD14R,0.1000X0.1250*%
%ADD15C,0.0100*%
%ADD16R,0.0984X0.1260*%
%ADD17R,0.1080X0.0850*%
%ADD18R,0.0220X0.0500*%
%ADD19R,0.0500X0.0220*%
%ADD20OC8,0.0740*%
%ADD21C,0.1181*%
%ADD22R,0.1181X0.1181*%
%ADD23R,0.0945X0.0945*%
%ADD24C,0.0740*%
%ADD25R,0.0500X0.0500*%
%ADD26R,0.0400X0.0450*%
%ADD27C,0.0075*%
%ADD28R,0.0700X0.0800*%
%ADD29C,0.0515*%
%ADD30R,0.0394X0.0551*%
%ADD31R,0.0709X0.0551*%
%ADD32R,0.1200X0.1000*%
%ADD33R,0.1250X0.1000*%
%ADD34R,0.0394X0.0433*%
%ADD35C,0.0280*%
%ADD36C,0.0080*%
%ADD37C,0.0560*%
%ADD38C,0.0320*%
%ADD39C,0.0396*%
%ADD40C,0.0660*%
%ADD41C,0.0120*%
%ADD42C,0.0200*%
%ADD43C,0.0160*%
%ADD44C,0.0400*%
%ADD45C,0.0240*%
%ADD46C,0.0320*%
%ADD47C,0.0800*%
%ADD48C,0.0060*%
D10*
X000140Y000140D02*
X000140Y020219D01*
X003290Y023368D01*
X020219Y023368D01*
X023368Y020219D01*
X023368Y003290D01*
X020219Y000140D01*
X000140Y000140D01*
X018053Y001715D02*
X018055Y001763D01*
X018061Y001811D01*
X018071Y001858D01*
X018084Y001904D01*
X018102Y001949D01*
X018122Y001993D01*
X018147Y002035D01*
X018175Y002074D01*
X018205Y002111D01*
X018239Y002145D01*
X018276Y002177D01*
X018314Y002206D01*
X018355Y002231D01*
X018398Y002253D01*
X018443Y002271D01*
X018489Y002285D01*
X018536Y002296D01*
X018584Y002303D01*
X018632Y002306D01*
X018680Y002305D01*
X018728Y002300D01*
X018776Y002291D01*
X018822Y002279D01*
X018867Y002262D01*
X018911Y002242D01*
X018953Y002219D01*
X018993Y002192D01*
X019031Y002162D01*
X019066Y002129D01*
X019098Y002093D01*
X019128Y002055D01*
X019154Y002014D01*
X019176Y001971D01*
X019196Y001927D01*
X019211Y001882D01*
X019223Y001835D01*
X019231Y001787D01*
X019235Y001739D01*
X019235Y001691D01*
X019231Y001643D01*
X019223Y001595D01*
X019211Y001548D01*
X019196Y001503D01*
X019176Y001459D01*
X019154Y001416D01*
X019128Y001375D01*
X019098Y001337D01*
X019066Y001301D01*
X019031Y001268D01*
X018993Y001238D01*
X018953Y001211D01*
X018911Y001188D01*
X018867Y001168D01*
X018822Y001151D01*
X018776Y001139D01*
X018728Y001130D01*
X018680Y001125D01*
X018632Y001124D01*
X018584Y001127D01*
X018536Y001134D01*
X018489Y001145D01*
X018443Y001159D01*
X018398Y001177D01*
X018355Y001199D01*
X018314Y001224D01*
X018276Y001253D01*
X018239Y001285D01*
X018205Y001319D01*
X018175Y001356D01*
X018147Y001395D01*
X018122Y001437D01*
X018102Y001481D01*
X018084Y001526D01*
X018071Y001572D01*
X018061Y001619D01*
X018055Y001667D01*
X018053Y001715D01*
X018053Y021794D02*
X018055Y021842D01*
X018061Y021890D01*
X018071Y021937D01*
X018084Y021983D01*
X018102Y022028D01*
X018122Y022072D01*
X018147Y022114D01*
X018175Y022153D01*
X018205Y022190D01*
X018239Y022224D01*
X018276Y022256D01*
X018314Y022285D01*
X018355Y022310D01*
X018398Y022332D01*
X018443Y022350D01*
X018489Y022364D01*
X018536Y022375D01*
X018584Y022382D01*
X018632Y022385D01*
X018680Y022384D01*
X018728Y022379D01*
X018776Y022370D01*
X018822Y022358D01*
X018867Y022341D01*
X018911Y022321D01*
X018953Y022298D01*
X018993Y022271D01*
X019031Y022241D01*
X019066Y022208D01*
X019098Y022172D01*
X019128Y022134D01*
X019154Y022093D01*
X019176Y022050D01*
X019196Y022006D01*
X019211Y021961D01*
X019223Y021914D01*
X019231Y021866D01*
X019235Y021818D01*
X019235Y021770D01*
X019231Y021722D01*
X019223Y021674D01*
X019211Y021627D01*
X019196Y021582D01*
X019176Y021538D01*
X019154Y021495D01*
X019128Y021454D01*
X019098Y021416D01*
X019066Y021380D01*
X019031Y021347D01*
X018993Y021317D01*
X018953Y021290D01*
X018911Y021267D01*
X018867Y021247D01*
X018822Y021230D01*
X018776Y021218D01*
X018728Y021209D01*
X018680Y021204D01*
X018632Y021203D01*
X018584Y021206D01*
X018536Y021213D01*
X018489Y021224D01*
X018443Y021238D01*
X018398Y021256D01*
X018355Y021278D01*
X018314Y021303D01*
X018276Y021332D01*
X018239Y021364D01*
X018205Y021398D01*
X018175Y021435D01*
X018147Y021474D01*
X018122Y021516D01*
X018102Y021560D01*
X018084Y021605D01*
X018071Y021651D01*
X018061Y021698D01*
X018055Y021746D01*
X018053Y021794D01*
X011360Y021794D02*
X011362Y021842D01*
X011368Y021890D01*
X011378Y021937D01*
X011391Y021983D01*
X011409Y022028D01*
X011429Y022072D01*
X011454Y022114D01*
X011482Y022153D01*
X011512Y022190D01*
X011546Y022224D01*
X011583Y022256D01*
X011621Y022285D01*
X011662Y022310D01*
X011705Y022332D01*
X011750Y022350D01*
X011796Y022364D01*
X011843Y022375D01*
X011891Y022382D01*
X011939Y022385D01*
X011987Y022384D01*
X012035Y022379D01*
X012083Y022370D01*
X012129Y022358D01*
X012174Y022341D01*
X012218Y022321D01*
X012260Y022298D01*
X012300Y022271D01*
X012338Y022241D01*
X012373Y022208D01*
X012405Y022172D01*
X012435Y022134D01*
X012461Y022093D01*
X012483Y022050D01*
X012503Y022006D01*
X012518Y021961D01*
X012530Y021914D01*
X012538Y021866D01*
X012542Y021818D01*
X012542Y021770D01*
X012538Y021722D01*
X012530Y021674D01*
X012518Y021627D01*
X012503Y021582D01*
X012483Y021538D01*
X012461Y021495D01*
X012435Y021454D01*
X012405Y021416D01*
X012373Y021380D01*
X012338Y021347D01*
X012300Y021317D01*
X012260Y021290D01*
X012218Y021267D01*
X012174Y021247D01*
X012129Y021230D01*
X012083Y021218D01*
X012035Y021209D01*
X011987Y021204D01*
X011939Y021203D01*
X011891Y021206D01*
X011843Y021213D01*
X011796Y021224D01*
X011750Y021238D01*
X011705Y021256D01*
X011662Y021278D01*
X011621Y021303D01*
X011583Y021332D01*
X011546Y021364D01*
X011512Y021398D01*
X011482Y021435D01*
X011454Y021474D01*
X011429Y021516D01*
X011409Y021560D01*
X011391Y021605D01*
X011378Y021651D01*
X011368Y021698D01*
X011362Y021746D01*
X011360Y021794D01*
D11*
X019076Y010790D03*
X019076Y010290D03*
X019076Y009790D03*
X019076Y009290D03*
X021176Y009290D03*
X021176Y009790D03*
X021176Y010290D03*
X021176Y010790D03*
D12*
X020529Y011641D02*
X020267Y011641D01*
X020529Y011641D02*
X020529Y011379D01*
X020267Y011379D01*
X020267Y011641D01*
X020267Y011466D02*
X020529Y011466D01*
X020529Y011553D02*
X020267Y011553D01*
X020267Y011640D02*
X020529Y011640D01*
X019929Y011641D02*
X019667Y011641D01*
X019929Y011641D02*
X019929Y011379D01*
X019667Y011379D01*
X019667Y011641D01*
X019667Y011466D02*
X019929Y011466D01*
X019929Y011553D02*
X019667Y011553D01*
X019667Y011640D02*
X019929Y011640D01*
X018419Y010361D02*
X018419Y010099D01*
X018157Y010099D01*
X018157Y010361D01*
X018419Y010361D01*
X018419Y010186D02*
X018157Y010186D01*
X018157Y010273D02*
X018419Y010273D01*
X018419Y010360D02*
X018157Y010360D01*
X018419Y009761D02*
X018419Y009499D01*
X018157Y009499D01*
X018157Y009761D01*
X018419Y009761D01*
X018419Y009586D02*
X018157Y009586D01*
X018157Y009673D02*
X018419Y009673D01*
X018419Y009760D02*
X018157Y009760D01*
X021788Y009697D02*
X022050Y009697D01*
X021788Y009697D02*
X021788Y009959D01*
X022050Y009959D01*
X022050Y009697D01*
X022050Y009784D02*
X021788Y009784D01*
X021788Y009871D02*
X022050Y009871D01*
X022050Y009958D02*
X021788Y009958D01*
X022388Y009697D02*
X022650Y009697D01*
X022388Y009697D02*
X022388Y009959D01*
X022650Y009959D01*
X022650Y009697D01*
X022650Y009784D02*
X022388Y009784D01*
X022388Y009871D02*
X022650Y009871D01*
X022650Y009958D02*
X022388Y009958D01*
X022380Y009085D02*
X022642Y009085D01*
X022380Y009085D02*
X022380Y009347D01*
X022642Y009347D01*
X022642Y009085D01*
X022642Y009172D02*
X022380Y009172D01*
X022380Y009259D02*
X022642Y009259D01*
X022642Y009346D02*
X022380Y009346D01*
X022042Y009085D02*
X021780Y009085D01*
X021780Y009347D01*
X022042Y009347D01*
X022042Y009085D01*
X022042Y009172D02*
X021780Y009172D01*
X021780Y009259D02*
X022042Y009259D01*
X022042Y009346D02*
X021780Y009346D01*
X021986Y004110D02*
X021986Y003848D01*
X021724Y003848D01*
X021724Y004110D01*
X021986Y004110D01*
X021986Y003935D02*
X021724Y003935D01*
X021724Y004022D02*
X021986Y004022D01*
X021986Y004109D02*
X021724Y004109D01*
X021375Y004110D02*
X021375Y003848D01*
X021113Y003848D01*
X021113Y004110D01*
X021375Y004110D01*
X021375Y003935D02*
X021113Y003935D01*
X021113Y004022D02*
X021375Y004022D01*
X021375Y004109D02*
X021113Y004109D01*
X021375Y003510D02*
X021375Y003248D01*
X021113Y003248D01*
X021113Y003510D01*
X021375Y003510D01*
X021375Y003335D02*
X021113Y003335D01*
X021113Y003422D02*
X021375Y003422D01*
X021375Y003509D02*
X021113Y003509D01*
X021986Y003510D02*
X021986Y003248D01*
X021724Y003248D01*
X021724Y003510D01*
X021986Y003510D01*
X021986Y003335D02*
X021724Y003335D01*
X021724Y003422D02*
X021986Y003422D01*
X021986Y003509D02*
X021724Y003509D01*
X010925Y004358D02*
X010663Y004358D01*
X010663Y004620D01*
X010925Y004620D01*
X010925Y004358D01*
X010925Y004445D02*
X010663Y004445D01*
X010663Y004532D02*
X010925Y004532D01*
X010925Y004619D02*
X010663Y004619D01*
X010325Y004358D02*
X010063Y004358D01*
X010063Y004620D01*
X010325Y004620D01*
X010325Y004358D01*
X010325Y004445D02*
X010063Y004445D01*
X010063Y004532D02*
X010325Y004532D01*
X010325Y004619D02*
X010063Y004619D01*
X010059Y004959D02*
X010321Y004959D01*
X010059Y004959D02*
X010059Y005221D01*
X010321Y005221D01*
X010321Y004959D01*
X010321Y005046D02*
X010059Y005046D01*
X010059Y005133D02*
X010321Y005133D01*
X010321Y005220D02*
X010059Y005220D01*
X010050Y005827D02*
X010312Y005827D01*
X010312Y005565D01*
X010050Y005565D01*
X010050Y005827D01*
X010050Y005652D02*
X010312Y005652D01*
X010312Y005739D02*
X010050Y005739D01*
X010050Y005826D02*
X010312Y005826D01*
X010650Y005827D02*
X010912Y005827D01*
X010912Y005565D01*
X010650Y005565D01*
X010650Y005827D01*
X010650Y005652D02*
X010912Y005652D01*
X010912Y005739D02*
X010650Y005739D01*
X010650Y005826D02*
X010912Y005826D01*
X010921Y004959D02*
X010659Y004959D01*
X010659Y005221D01*
X010921Y005221D01*
X010921Y004959D01*
X010921Y005046D02*
X010659Y005046D01*
X010659Y005133D02*
X010921Y005133D01*
X010921Y005220D02*
X010659Y005220D01*
X007209Y007809D02*
X007209Y008071D01*
X007471Y008071D01*
X007471Y007809D01*
X007209Y007809D01*
X007209Y007896D02*
X007471Y007896D01*
X007471Y007983D02*
X007209Y007983D01*
X007209Y008070D02*
X007471Y008070D01*
X007209Y008409D02*
X007209Y008671D01*
X007471Y008671D01*
X007471Y008409D01*
X007209Y008409D01*
X007209Y008496D02*
X007471Y008496D01*
X007471Y008583D02*
X007209Y008583D01*
X007209Y008670D02*
X007471Y008670D01*
X006559Y008671D02*
X006559Y008409D01*
X006559Y008671D02*
X006821Y008671D01*
X006821Y008409D01*
X006559Y008409D01*
X006559Y008496D02*
X006821Y008496D01*
X006821Y008583D02*
X006559Y008583D01*
X006559Y008670D02*
X006821Y008670D01*
X006559Y008071D02*
X006559Y007809D01*
X006559Y008071D02*
X006821Y008071D01*
X006821Y007809D01*
X006559Y007809D01*
X006559Y007896D02*
X006821Y007896D01*
X006821Y007983D02*
X006559Y007983D01*
X006559Y008070D02*
X006821Y008070D01*
X005871Y007759D02*
X005609Y007759D01*
X005609Y008021D01*
X005871Y008021D01*
X005871Y007759D01*
X005871Y007846D02*
X005609Y007846D01*
X005609Y007933D02*
X005871Y007933D01*
X005871Y008020D02*
X005609Y008020D01*
X005271Y007759D02*
X005009Y007759D01*
X005009Y008021D01*
X005271Y008021D01*
X005271Y007759D01*
X005271Y007846D02*
X005009Y007846D01*
X005009Y007933D02*
X005271Y007933D01*
X005271Y008020D02*
X005009Y008020D01*
X004671Y008021D02*
X004409Y008021D01*
X004671Y008021D02*
X004671Y007759D01*
X004409Y007759D01*
X004409Y008021D01*
X004409Y007846D02*
X004671Y007846D01*
X004671Y007933D02*
X004409Y007933D01*
X004409Y008020D02*
X004671Y008020D01*
X004071Y008021D02*
X003809Y008021D01*
X004071Y008021D02*
X004071Y007759D01*
X003809Y007759D01*
X003809Y008021D01*
X003809Y007846D02*
X004071Y007846D01*
X004071Y007933D02*
X003809Y007933D01*
X003809Y008020D02*
X004071Y008020D01*
X002867Y008101D02*
X002605Y008101D01*
X002605Y008363D01*
X002867Y008363D01*
X002867Y008101D01*
X002867Y008188D02*
X002605Y008188D01*
X002605Y008275D02*
X002867Y008275D01*
X002867Y008362D02*
X002605Y008362D01*
X002267Y008101D02*
X002005Y008101D01*
X002005Y008363D01*
X002267Y008363D01*
X002267Y008101D01*
X002267Y008188D02*
X002005Y008188D01*
X002005Y008275D02*
X002267Y008275D01*
X002267Y008362D02*
X002005Y008362D01*
X001621Y008371D02*
X001359Y008371D01*
X001621Y008371D02*
X001621Y008109D01*
X001359Y008109D01*
X001359Y008371D01*
X001359Y008196D02*
X001621Y008196D01*
X001621Y008283D02*
X001359Y008283D01*
X001359Y008370D02*
X001621Y008370D01*
X001021Y008371D02*
X000759Y008371D01*
X001021Y008371D02*
X001021Y008109D01*
X000759Y008109D01*
X000759Y008371D01*
X000759Y008196D02*
X001021Y008196D01*
X001021Y008283D02*
X000759Y008283D01*
X000759Y008370D02*
X001021Y008370D01*
X005027Y010162D02*
X005289Y010162D01*
X005289Y009900D01*
X005027Y009900D01*
X005027Y010162D01*
X005027Y009987D02*
X005289Y009987D01*
X005289Y010074D02*
X005027Y010074D01*
X005027Y010161D02*
X005289Y010161D01*
X005627Y010162D02*
X005889Y010162D01*
X005889Y009900D01*
X005627Y009900D01*
X005627Y010162D01*
X005627Y009987D02*
X005889Y009987D01*
X005889Y010074D02*
X005627Y010074D01*
X005627Y010161D02*
X005889Y010161D01*
X005889Y010950D02*
X005627Y010950D01*
X005889Y010950D02*
X005889Y010688D01*
X005627Y010688D01*
X005627Y010950D01*
X005627Y010775D02*
X005889Y010775D01*
X005889Y010862D02*
X005627Y010862D01*
X005627Y010949D02*
X005889Y010949D01*
X005889Y011737D02*
X005627Y011737D01*
X005889Y011737D02*
X005889Y011475D01*
X005627Y011475D01*
X005627Y011737D01*
X005627Y011562D02*
X005889Y011562D01*
X005889Y011649D02*
X005627Y011649D01*
X005627Y011736D02*
X005889Y011736D01*
X005289Y011737D02*
X005027Y011737D01*
X005289Y011737D02*
X005289Y011475D01*
X005027Y011475D01*
X005027Y011737D01*
X005027Y011562D02*
X005289Y011562D01*
X005289Y011649D02*
X005027Y011649D01*
X005027Y011736D02*
X005289Y011736D01*
X005289Y010950D02*
X005027Y010950D01*
X005289Y010950D02*
X005289Y010688D01*
X005027Y010688D01*
X005027Y010950D01*
X005027Y010775D02*
X005289Y010775D01*
X005289Y010862D02*
X005027Y010862D01*
X005027Y010949D02*
X005289Y010949D01*
X005471Y014509D02*
X005471Y014771D01*
X005471Y014509D02*
X005209Y014509D01*
X005209Y014771D01*
X005471Y014771D01*
X005471Y014596D02*
X005209Y014596D01*
X005209Y014683D02*
X005471Y014683D01*
X005471Y014770D02*
X005209Y014770D01*
X005471Y015109D02*
X005471Y015371D01*
X005471Y015109D02*
X005209Y015109D01*
X005209Y015371D01*
X005471Y015371D01*
X005471Y015196D02*
X005209Y015196D01*
X005209Y015283D02*
X005471Y015283D01*
X005471Y015370D02*
X005209Y015370D01*
X004559Y004521D02*
X004559Y004259D01*
X004559Y004521D02*
X004821Y004521D01*
X004821Y004259D01*
X004559Y004259D01*
X004559Y004346D02*
X004821Y004346D01*
X004821Y004433D02*
X004559Y004433D01*
X004559Y004520D02*
X004821Y004520D01*
X004559Y003921D02*
X004559Y003659D01*
X004559Y003921D02*
X004821Y003921D01*
X004821Y003659D01*
X004559Y003659D01*
X004559Y003746D02*
X004821Y003746D01*
X004821Y003833D02*
X004559Y003833D01*
X004559Y003920D02*
X004821Y003920D01*
D13*
X009690Y015040D03*
X003390Y016640D03*
X022409Y005288D03*
D14*
X019909Y005288D03*
X012190Y015040D03*
X005890Y016640D03*
D15*
X005758Y010819D02*
X005440Y010501D01*
X005440Y010440D01*
X005790Y010390D02*
X005790Y010063D01*
X005758Y010031D01*
X007040Y007940D02*
X007340Y007940D01*
X007340Y007290D01*
X007289Y007290D01*
X007840Y006340D02*
X007540Y006040D01*
X007540Y005040D01*
X007840Y005440D02*
X007840Y005840D01*
X008040Y006040D01*
X008789Y006040D01*
X008821Y006072D01*
X008774Y006340D02*
X007840Y006340D01*
X008774Y006340D02*
X008821Y006387D01*
X009240Y004590D02*
X009147Y004497D01*
X009040Y004497D01*
X008821Y004497D01*
X011240Y005940D02*
X011690Y005940D01*
X011740Y005940D01*
X012140Y006340D01*
X012840Y006340D01*
X013040Y006140D01*
X013040Y005990D01*
X012990Y005940D01*
X012840Y004540D02*
X012240Y004540D01*
X011840Y004140D01*
X011790Y004140D01*
X011340Y004140D01*
X012840Y004540D02*
X013040Y004340D01*
X013040Y004190D01*
X013090Y004140D01*
X013090Y007840D02*
X013040Y007890D01*
X013040Y008040D01*
X012840Y008240D01*
X012240Y008240D01*
X011840Y007840D01*
X011790Y007840D01*
X011240Y007840D01*
X012848Y009576D02*
X012776Y009648D01*
X012718Y009732D01*
X012675Y009824D01*
X012649Y009922D01*
X012640Y010023D01*
X012640Y012434D01*
X012650Y012560D01*
X012679Y012683D01*
X012728Y012800D01*
X012794Y012908D01*
X012876Y013004D01*
X012972Y013086D01*
X013080Y013152D01*
X013197Y013201D01*
X013320Y013230D01*
X013446Y013240D01*
X015240Y013240D01*
X015240Y020640D01*
X016940Y020640D01*
X016940Y013240D01*
X017640Y013240D01*
X017685Y013235D01*
X017727Y013220D01*
X017765Y013196D01*
X017796Y013165D01*
X017820Y013127D01*
X017835Y013085D01*
X017840Y013040D01*
X017840Y012240D01*
X017040Y012240D01*
X017040Y009979D01*
X017032Y009885D01*
X017008Y009794D01*
X016968Y009709D01*
X016914Y009632D01*
X016848Y009566D01*
X016771Y009512D01*
X016686Y009472D01*
X016595Y009448D01*
X016501Y009440D01*
X013223Y009440D01*
X013122Y009449D01*
X013024Y009475D01*
X012932Y009518D01*
X012848Y009576D01*
X012829Y009596D02*
X016878Y009596D01*
X016958Y009695D02*
X012744Y009695D01*
X012689Y009793D02*
X017007Y009793D01*
X017032Y009892D02*
X012657Y009892D01*
X012643Y009990D02*
X017040Y009990D01*
X017040Y010089D02*
X012640Y010089D01*
X012640Y010187D02*
X017040Y010187D01*
X017040Y010286D02*
X012640Y010286D01*
X012640Y010384D02*
X017040Y010384D01*
X017040Y010483D02*
X012640Y010483D01*
X012640Y010581D02*
X017040Y010581D01*
X017040Y010680D02*
X012640Y010680D01*
X012640Y010778D02*
X017040Y010778D01*
X017040Y010877D02*
X012640Y010877D01*
X012640Y010975D02*
X017040Y010975D01*
X017040Y011074D02*
X012640Y011074D01*
X012640Y011172D02*
X017040Y011172D01*
X017040Y011271D02*
X012640Y011271D01*
X012640Y011369D02*
X017040Y011369D01*
X017040Y011468D02*
X012640Y011468D01*
X012640Y011566D02*
X017040Y011566D01*
X017040Y011665D02*
X012640Y011665D01*
X012640Y011763D02*
X017040Y011763D01*
X017040Y011862D02*
X012640Y011862D01*
X012640Y011960D02*
X017040Y011960D01*
X017040Y012059D02*
X012640Y012059D01*
X012640Y012157D02*
X017040Y012157D01*
X017840Y012256D02*
X012640Y012256D01*
X012640Y012354D02*
X017840Y012354D01*
X017840Y012453D02*
X012641Y012453D01*
X012649Y012551D02*
X017840Y012551D01*
X017840Y012650D02*
X012671Y012650D01*
X012706Y012748D02*
X017840Y012748D01*
X017840Y012847D02*
X012757Y012847D01*
X012826Y012945D02*
X017840Y012945D01*
X017840Y013044D02*
X012923Y013044D01*
X013064Y013142D02*
X017811Y013142D01*
X016940Y013241D02*
X015240Y013241D01*
X015240Y013339D02*
X016940Y013339D01*
X016940Y013438D02*
X015240Y013438D01*
X015240Y013536D02*
X016940Y013536D01*
X016940Y013635D02*
X015240Y013635D01*
X015240Y013733D02*
X016940Y013733D01*
X016940Y013832D02*
X015240Y013832D01*
X015240Y013930D02*
X016940Y013930D01*
X016940Y014029D02*
X015240Y014029D01*
X015240Y014127D02*
X016940Y014127D01*
X016940Y014226D02*
X015240Y014226D01*
X015240Y014324D02*
X016940Y014324D01*
X016940Y014423D02*
X015240Y014423D01*
X015240Y014521D02*
X016940Y014521D01*
X016940Y014620D02*
X015240Y014620D01*
X015240Y014718D02*
X016940Y014718D01*
X016940Y014817D02*
X015240Y014817D01*
X015240Y014915D02*
X016940Y014915D01*
X016940Y015014D02*
X015240Y015014D01*
X015240Y015112D02*
X016940Y015112D01*
X016940Y015211D02*
X015240Y015211D01*
X015240Y015309D02*
X016940Y015309D01*
X016940Y015408D02*
X015240Y015408D01*
X015240Y015506D02*
X016940Y015506D01*
X016940Y015605D02*
X015240Y015605D01*
X015240Y015703D02*
X016940Y015703D01*
X016940Y015802D02*
X015240Y015802D01*
X015240Y015900D02*
X016940Y015900D01*
X016940Y015999D02*
X015240Y015999D01*
X015240Y016097D02*
X016940Y016097D01*
X016940Y016196D02*
X015240Y016196D01*
X015240Y016294D02*
X016940Y016294D01*
X016940Y016393D02*
X015240Y016393D01*
X015240Y016491D02*
X016940Y016491D01*
X016940Y016590D02*
X015240Y016590D01*
X015240Y016688D02*
X016940Y016688D01*
X016940Y016787D02*
X015240Y016787D01*
X015240Y016885D02*
X016940Y016885D01*
X016940Y016984D02*
X015240Y016984D01*
X015240Y017082D02*
X016940Y017082D01*
X016940Y017181D02*
X015240Y017181D01*
X015240Y017279D02*
X016940Y017279D01*
X016940Y017378D02*
X015240Y017378D01*
X015240Y017476D02*
X016940Y017476D01*
X016940Y017575D02*
X015240Y017575D01*
X015240Y017673D02*
X016940Y017673D01*
X016940Y017772D02*
X015240Y017772D01*
X015240Y017870D02*
X016940Y017870D01*
X016940Y017969D02*
X015240Y017969D01*
X015240Y018067D02*
X016940Y018067D01*
X016940Y018166D02*
X015240Y018166D01*
X015240Y018264D02*
X016940Y018264D01*
X016940Y018363D02*
X015240Y018363D01*
X015240Y018461D02*
X016940Y018461D01*
X016940Y018560D02*
X015240Y018560D01*
X015240Y018658D02*
X016940Y018658D01*
X016940Y018757D02*
X015240Y018757D01*
X015240Y018855D02*
X016940Y018855D01*
X016940Y018954D02*
X015240Y018954D01*
X015240Y019052D02*
X016940Y019052D01*
X016940Y019151D02*
X015240Y019151D01*
X015240Y019249D02*
X016940Y019249D01*
X016940Y019348D02*
X015240Y019348D01*
X015240Y019446D02*
X016940Y019446D01*
X016940Y019545D02*
X015240Y019545D01*
X015240Y019643D02*
X016940Y019643D01*
X016940Y019742D02*
X015240Y019742D01*
X015240Y019840D02*
X016940Y019840D01*
X016940Y019939D02*
X015240Y019939D01*
X015240Y020037D02*
X016940Y020037D01*
X016940Y020136D02*
X015240Y020136D01*
X015240Y020234D02*
X016940Y020234D01*
X016940Y020333D02*
X015240Y020333D01*
X015240Y020431D02*
X016940Y020431D01*
X016940Y020530D02*
X015240Y020530D01*
X015240Y020628D02*
X016940Y020628D01*
X013614Y013707D02*
X013614Y013540D01*
X013840Y013540D01*
X013755Y010477D02*
X013755Y010340D01*
X012976Y009498D02*
X016739Y009498D01*
X017844Y011257D02*
X018144Y011257D01*
X017844Y011257D02*
X017844Y011707D01*
X018144Y011707D01*
X018144Y011257D01*
X018144Y011356D02*
X017844Y011356D01*
X017844Y011455D02*
X018144Y011455D01*
X018144Y011554D02*
X017844Y011554D01*
X017844Y011653D02*
X018144Y011653D01*
X018544Y011257D02*
X018844Y011257D01*
X018544Y011257D02*
X018544Y011707D01*
X018844Y011707D01*
X018844Y011257D01*
X018844Y011356D02*
X018544Y011356D01*
X018544Y011455D02*
X018844Y011455D01*
X018844Y011554D02*
X018544Y011554D01*
X018544Y011653D02*
X018844Y011653D01*
X019798Y011510D02*
X019798Y010448D01*
X019640Y010290D01*
X019076Y010290D01*
X019076Y010290D01*
X020398Y010432D02*
X020398Y011510D01*
X020398Y010432D02*
X020540Y010290D01*
X021175Y010290D01*
X021176Y010290D01*
X022819Y004129D02*
X022819Y003829D01*
X022369Y003829D01*
X022369Y004129D01*
X022819Y004129D01*
X022819Y003928D02*
X022369Y003928D01*
X022369Y004027D02*
X022819Y004027D01*
X022819Y004126D02*
X022369Y004126D01*
X022819Y003429D02*
X022819Y003129D01*
X022369Y003129D01*
X022369Y003429D01*
X022819Y003429D01*
X022819Y003228D02*
X022369Y003228D01*
X022369Y003327D02*
X022819Y003327D01*
X022819Y003426D02*
X022369Y003426D01*
X007365Y001564D02*
X007365Y000915D01*
X007440Y000840D01*
X000642Y000840D01*
X000590Y000788D01*
X004365Y001664D02*
X004440Y001664D01*
X004440Y002740D01*
X004690Y002740D01*
X004690Y002890D01*
X004990Y005440D02*
X004992Y005442D01*
X005441Y005442D01*
X005441Y006072D02*
X006008Y006072D01*
X006040Y006040D01*
X005940Y006340D02*
X006540Y006340D01*
X006040Y006640D02*
X005990Y006690D01*
X005454Y006690D01*
X005441Y006387D02*
X005893Y006387D01*
X005940Y006340D01*
X002875Y007042D02*
X002136Y007781D01*
X002136Y008232D01*
X002128Y008240D01*
X001490Y008240D01*
D16*
X020170Y007537D03*
X022414Y007537D03*
D17*
X018477Y008097D03*
X018477Y006357D03*
D18*
X008234Y007290D03*
X007919Y007290D03*
X007604Y007290D03*
X007289Y007290D03*
X006974Y007290D03*
X006659Y007290D03*
X006344Y007290D03*
X006029Y007290D03*
X006029Y003910D03*
X006344Y003910D03*
X006659Y003910D03*
X006974Y003910D03*
X007289Y003910D03*
X007604Y003910D03*
X007919Y003910D03*
X008234Y003910D03*
D19*
X008821Y004497D03*
X008821Y004812D03*
X008821Y005127D03*
X008821Y005442D03*
X008821Y005757D03*
X008821Y006072D03*
X008821Y006387D03*
X008821Y006702D03*
X005441Y006702D03*
X005441Y006387D03*
X005441Y006072D03*
X005441Y005757D03*
X005441Y005442D03*
X005441Y005127D03*
X005441Y004812D03*
X005441Y004497D03*
D20*
X002875Y005042D03*
X002975Y006042D03*
X001975Y006042D03*
X001875Y005042D03*
X001875Y007042D03*
X002875Y007042D03*
D21*
X008040Y012740D03*
X009640Y012740D03*
X008040Y014740D03*
X008023Y016377D03*
X008040Y017840D03*
X009640Y019340D03*
X007340Y022240D03*
X002440Y018140D03*
X002340Y021240D03*
X002340Y013940D03*
X013440Y012440D03*
X013755Y010477D03*
D22*
X015886Y019797D03*
X016280Y019797D03*
X007593Y019797D03*
X007199Y019797D03*
D23*
X017283Y012742D03*
X019015Y012742D03*
D24*
X007365Y001564D03*
X006365Y001664D03*
X005365Y001564D03*
X004365Y001664D03*
X003365Y001564D03*
X002365Y001664D03*
D25*
X003990Y003690D03*
X003990Y004690D03*
D26*
X011690Y005940D03*
X012390Y005940D03*
X012990Y005940D03*
X013690Y005940D03*
X013340Y006740D03*
X013090Y007840D03*
X012490Y007840D03*
X011790Y007840D03*
X012140Y008640D03*
X013440Y008640D03*
X013790Y007840D03*
X012040Y006740D03*
X012140Y004940D03*
X011790Y004140D03*
X012490Y004140D03*
X013090Y004140D03*
X013790Y004140D03*
X013440Y004940D03*
D27*
X004303Y009893D02*
X004077Y009893D01*
X004077Y010169D01*
X004303Y010169D01*
X004303Y009893D01*
X004303Y009967D02*
X004077Y009967D01*
X004077Y010041D02*
X004303Y010041D01*
X004303Y010115D02*
X004077Y010115D01*
X003703Y009893D02*
X003477Y009893D01*
X003477Y010169D01*
X003703Y010169D01*
X003703Y009893D01*
X003703Y009967D02*
X003477Y009967D01*
X003477Y010041D02*
X003703Y010041D01*
X003703Y010115D02*
X003477Y010115D01*
X003477Y010681D02*
X003703Y010681D01*
X003477Y010681D02*
X003477Y010957D01*
X003703Y010957D01*
X003703Y010681D01*
X003703Y010755D02*
X003477Y010755D01*
X003477Y010829D02*
X003703Y010829D01*
X003703Y010903D02*
X003477Y010903D01*
X003477Y011468D02*
X003703Y011468D01*
X003477Y011468D02*
X003477Y011744D01*
X003703Y011744D01*
X003703Y011468D01*
X003703Y011542D02*
X003477Y011542D01*
X003477Y011616D02*
X003703Y011616D01*
X003703Y011690D02*
X003477Y011690D01*
X004077Y011468D02*
X004303Y011468D01*
X004077Y011468D02*
X004077Y011744D01*
X004303Y011744D01*
X004303Y011468D01*
X004303Y011542D02*
X004077Y011542D01*
X004077Y011616D02*
X004303Y011616D01*
X004303Y011690D02*
X004077Y011690D01*
X004077Y010681D02*
X004303Y010681D01*
X004077Y010681D02*
X004077Y010957D01*
X004303Y010957D01*
X004303Y010681D01*
X004303Y010755D02*
X004077Y010755D01*
X004077Y010829D02*
X004303Y010829D01*
X004303Y010903D02*
X004077Y010903D01*
D28*
X003990Y008890D03*
X005690Y008890D03*
D29*
X015040Y006740D03*
X016640Y006740D03*
X016640Y004940D03*
X015140Y004940D03*
X015140Y008640D03*
X016640Y008640D03*
D30*
X013614Y013707D03*
X012866Y013707D03*
X013240Y014573D03*
X013240Y015407D03*
X012866Y016273D03*
X013614Y016273D03*
X011538Y017738D03*
X010790Y017738D03*
X011164Y016872D03*
D31*
X006140Y015309D03*
X006140Y013971D03*
D32*
X004640Y021990D03*
D33*
X004640Y019490D03*
D34*
X012561Y017502D03*
X013231Y017502D03*
D35*
X014540Y016140D03*
X015640Y012940D03*
X015640Y012540D03*
X015640Y012140D03*
X017740Y010890D03*
X017740Y010390D03*
X017740Y009840D03*
X017740Y009340D03*
X017740Y008790D03*
X017140Y008640D03*
X017140Y008140D03*
X016640Y008140D03*
X017140Y006740D03*
X017140Y006240D03*
X016640Y006240D03*
X017140Y004940D03*
X017140Y004440D03*
X016640Y004440D03*
X014490Y004390D03*
X014490Y003990D03*
X013690Y002790D03*
X013290Y002790D03*
X012890Y002790D03*
X012490Y002790D03*
X011340Y004140D03*
X010390Y003690D03*
X009990Y003490D03*
X010190Y002490D03*
X007540Y005040D03*
X007840Y005440D03*
X008140Y005740D03*
X006790Y004790D03*
X006390Y005190D03*
X006040Y006040D03*
X006540Y006340D03*
X006040Y006640D03*
X004790Y005790D03*
X004990Y005440D03*
X003490Y004640D03*
X002740Y007890D03*
X002590Y009290D03*
X001890Y009290D03*
X002590Y010090D03*
X003340Y011590D03*
X005440Y010440D03*
X005790Y010390D03*
X007040Y007940D03*
X009440Y009740D03*
X010290Y010190D03*
X010290Y008990D03*
X011240Y007840D03*
X012490Y007290D03*
X012890Y007290D03*
X013290Y007290D03*
X013690Y007290D03*
X013690Y005490D03*
X013290Y005490D03*
X012890Y005490D03*
X012490Y005490D03*
X011240Y005940D03*
X012090Y011190D03*
X012190Y011790D03*
X011390Y012190D03*
X010190Y011690D03*
X008740Y011240D03*
X006840Y015240D03*
X018390Y009340D03*
X018390Y008790D03*
X019090Y008790D03*
X020890Y011490D03*
X020890Y011990D03*
X020390Y011990D03*
X019890Y011990D03*
X019390Y011990D03*
X019890Y012490D03*
X019890Y012990D03*
X019890Y013490D03*
X019390Y013490D03*
X018890Y013490D03*
X020390Y012990D03*
X020390Y012490D03*
X020890Y012490D03*
X021390Y011990D03*
X021390Y011490D03*
X021890Y011490D03*
X021890Y010990D03*
X021890Y010490D03*
X022390Y010490D03*
X022390Y010990D03*
X022890Y010490D03*
X022940Y009840D03*
X022940Y009240D03*
X022840Y008640D03*
X021590Y004340D03*
X021090Y004340D03*
X020640Y003240D03*
X020640Y002740D03*
X020640Y002290D03*
X020140Y002740D03*
X020140Y003240D03*
X019640Y003240D03*
X019140Y003240D03*
X018640Y003240D03*
D36*
X018464Y003359D02*
X023228Y003359D01*
X023228Y003348D02*
X023228Y020161D01*
X020161Y023228D01*
X003348Y023228D01*
X002016Y021896D01*
X002195Y021971D01*
X002351Y021971D01*
X002585Y022240D01*
X002592Y022256D01*
X002646Y022310D01*
X002696Y022368D01*
X002712Y022376D01*
X002724Y022388D01*
X002795Y022418D01*
X002863Y022452D01*
X002881Y022453D01*
X002897Y022460D01*
X002973Y022460D01*
X003050Y022465D01*
X003066Y022460D01*
X003900Y022460D01*
X003900Y022548D01*
X003982Y022630D01*
X004611Y022630D01*
X004665Y022679D01*
X004724Y022738D01*
X004733Y022742D01*
X004741Y022749D01*
X004819Y022778D01*
X004897Y022810D01*
X004907Y022810D01*
X004917Y022814D01*
X005000Y022810D01*
X005083Y022810D01*
X005093Y022806D01*
X006800Y022733D01*
X006926Y022859D01*
X007195Y022971D01*
X007485Y022971D01*
X007754Y022859D01*
X007959Y022654D01*
X008071Y022385D01*
X008071Y022095D01*
X007959Y021826D01*
X007754Y021621D01*
X007485Y021509D01*
X007195Y021509D01*
X006926Y021621D01*
X006752Y021795D01*
X005380Y021853D01*
X005380Y021432D01*
X005298Y021350D01*
X003982Y021350D01*
X003900Y021432D01*
X003900Y021520D01*
X003205Y021520D01*
X003071Y021365D01*
X003071Y021095D01*
X002959Y020826D01*
X002754Y020621D01*
X002485Y020509D01*
X002195Y020509D01*
X001926Y020621D01*
X001721Y020826D01*
X001609Y021095D01*
X001609Y021385D01*
X001684Y021564D01*
X000280Y020161D01*
X000280Y000280D01*
X020161Y000280D01*
X023228Y003348D01*
X023228Y003437D02*
X018543Y003437D01*
X018621Y003516D02*
X023228Y003516D01*
X023228Y003594D02*
X018700Y003594D01*
X018744Y003639D02*
X020889Y003639D01*
X020891Y003635D01*
X020915Y003633D01*
X020935Y003620D01*
X020946Y003623D01*
X020949Y003620D01*
X020980Y003620D01*
X021020Y003606D01*
X021045Y003618D01*
X021106Y003611D01*
X021117Y003620D01*
X022763Y003620D01*
X022774Y003611D01*
X022835Y003618D01*
X022860Y003606D01*
X022900Y003620D01*
X022931Y003620D01*
X022934Y003623D01*
X022945Y003620D01*
X022965Y003633D01*
X022989Y003635D01*
X023002Y003653D01*
X023025Y003653D01*
X023041Y003669D01*
X023064Y003677D01*
X023073Y003697D01*
X023095Y003702D01*
X023108Y003722D01*
X023128Y003735D01*
X023133Y003757D01*
X023153Y003766D01*
X023161Y003789D01*
X023177Y003805D01*
X023177Y003828D01*
X023195Y003841D01*
X023197Y003865D01*
X023210Y003885D01*
X023207Y003896D01*
X023210Y003899D01*
X023210Y003930D01*
X023224Y003970D01*
X023212Y003995D01*
X023219Y004056D01*
X023210Y004067D01*
X023210Y007963D01*
X023219Y007974D01*
X023212Y008035D01*
X023224Y008060D01*
X023210Y008100D01*
X023210Y008131D01*
X023207Y008134D01*
X023210Y008145D01*
X023197Y008165D01*
X023195Y008189D01*
X023177Y008202D01*
X023177Y008225D01*
X023161Y008241D01*
X023153Y008264D01*
X023133Y008273D01*
X023128Y008295D01*
X023108Y008308D01*
X023095Y008328D01*
X023073Y008333D01*
X023064Y008353D01*
X023041Y008361D01*
X023025Y008377D01*
X023002Y008377D01*
X022989Y008395D01*
X022965Y008397D01*
X022945Y008410D01*
X022934Y008407D01*
X022931Y008410D01*
X022900Y008410D01*
X022860Y008424D01*
X022835Y008412D01*
X022774Y008419D01*
X022763Y008410D01*
X022711Y008410D01*
X022711Y008901D01*
X022718Y008901D01*
X022826Y009009D01*
X022826Y009424D01*
X022718Y009531D01*
X022304Y009531D01*
X022211Y009439D01*
X022131Y009518D01*
X022234Y009620D01*
X022234Y010035D01*
X022126Y010143D01*
X021711Y010143D01*
X021604Y010035D01*
X021604Y009985D01*
X021549Y010040D01*
X021616Y010107D01*
X021616Y010473D01*
X021549Y010540D01*
X021616Y010607D01*
X021616Y010973D01*
X021534Y011055D01*
X020818Y011055D01*
X020736Y010973D01*
X020588Y010973D01*
X020588Y010895D02*
X020736Y010895D01*
X020736Y010973D02*
X020736Y010607D01*
X020803Y010540D01*
X020743Y010480D01*
X020619Y010480D01*
X020588Y010510D01*
X020588Y011195D01*
X020606Y011195D01*
X020713Y011302D01*
X020713Y011717D01*
X020606Y011825D01*
X020191Y011825D01*
X020098Y011732D01*
X020006Y011825D01*
X019926Y011825D01*
X019866Y011850D01*
X019030Y011850D01*
X019030Y012049D01*
X019111Y012130D01*
X019545Y012130D01*
X019627Y012212D01*
X019627Y013273D01*
X019545Y013355D01*
X018484Y013355D01*
X018402Y013273D01*
X018402Y012383D01*
X018402Y012383D01*
X018350Y012258D01*
X018350Y011431D01*
X018000Y011081D01*
X017948Y010956D01*
X017948Y010162D01*
X017973Y010102D01*
X017973Y010022D01*
X018081Y009915D01*
X018160Y009915D01*
X018221Y009890D01*
X018356Y009890D01*
X018416Y009915D01*
X018496Y009915D01*
X018603Y010022D01*
X018603Y010030D01*
X018643Y010030D01*
X018643Y010012D01*
X018642Y010009D01*
X018640Y010006D01*
X018623Y009993D01*
X018621Y009976D01*
X018613Y009963D01*
X018617Y009946D01*
X018610Y009940D01*
X018610Y009918D01*
X018599Y009887D01*
X018609Y009867D01*
X018603Y009811D01*
X018610Y009802D01*
X018603Y009794D01*
X018609Y009738D01*
X018599Y009718D01*
X018610Y009687D01*
X018610Y009665D01*
X018617Y009659D01*
X018613Y009642D01*
X018621Y009629D01*
X018623Y009612D01*
X018640Y009599D01*
X018642Y009596D01*
X018643Y009593D01*
X018643Y009572D01*
X018654Y009560D01*
X017108Y009560D01*
X017107Y009558D02*
X017133Y009614D01*
X017169Y009665D01*
X017168Y009668D01*
X017171Y009669D01*
X017187Y009729D01*
X017213Y009785D01*
X017212Y009788D01*
X017214Y009790D01*
X017220Y009852D01*
X017236Y009912D01*
X017230Y009922D01*
X017230Y009970D01*
X017236Y010040D01*
X017230Y010048D01*
X017230Y012050D01*
X017919Y012050D01*
X018030Y012161D01*
X018030Y012974D01*
X018038Y012983D01*
X018030Y013051D01*
X018030Y013052D01*
X018040Y013073D01*
X018030Y013102D01*
X018030Y013119D01*
X018021Y013127D01*
X018019Y013145D01*
X018023Y013161D01*
X018016Y013172D01*
X018015Y013184D01*
X018002Y013194D01*
X017992Y013210D01*
X017986Y013227D01*
X017986Y013243D01*
X017978Y013252D01*
X017974Y013264D01*
X017959Y013271D01*
X017946Y013284D01*
X017936Y013300D01*
X017932Y013315D01*
X017922Y013322D01*
X017915Y013332D01*
X017900Y013336D01*
X017884Y013346D01*
X017871Y013359D01*
X017864Y013374D01*
X017852Y013378D01*
X017843Y013386D01*
X017827Y013386D01*
X017810Y013392D01*
X017794Y013402D01*
X017784Y013415D01*
X017772Y013416D01*
X017761Y013423D01*
X017745Y013419D01*
X017727Y013421D01*
X017719Y013430D01*
X017702Y013430D01*
X017673Y013440D01*
X017652Y013430D01*
X017651Y013430D01*
X017583Y013438D01*
X017574Y013430D01*
X017130Y013430D01*
X017130Y020719D01*
X017019Y020830D01*
X015161Y020830D01*
X015050Y020719D01*
X015050Y017672D01*
X013567Y017672D01*
X013567Y017777D01*
X013485Y017859D01*
X012976Y017859D01*
X012896Y017779D01*
X012816Y017859D01*
X012306Y017859D01*
X012224Y017777D01*
X012224Y017425D01*
X011762Y016964D01*
X011500Y016964D01*
X011500Y017206D01*
X011418Y017288D01*
X011308Y017288D01*
X011343Y017323D01*
X011792Y017323D01*
X011874Y017405D01*
X011874Y018072D01*
X011792Y018154D01*
X011283Y018154D01*
X011201Y018072D01*
X011201Y017662D01*
X010975Y017436D01*
X010778Y017436D01*
X010679Y017336D01*
X010679Y013045D01*
X010371Y012737D01*
X010371Y012885D01*
X010259Y013154D01*
X010054Y013359D01*
X009980Y013390D01*
X009980Y014300D01*
X010248Y014300D01*
X010330Y014382D01*
X010330Y015698D01*
X010248Y015780D01*
X009132Y015780D01*
X009050Y015698D01*
X009050Y014382D01*
X009132Y014300D01*
X009300Y014300D01*
X009300Y013390D01*
X009226Y013359D01*
X009027Y013160D01*
X008653Y013160D01*
X008454Y013359D01*
X008185Y013471D01*
X007895Y013471D01*
X007626Y013359D01*
X007421Y013154D01*
X007309Y012885D01*
X007309Y012595D01*
X007421Y012326D01*
X007626Y012121D01*
X007895Y012009D01*
X008185Y012009D01*
X008454Y012121D01*
X008653Y012320D01*
X009027Y012320D01*
X009226Y012121D01*
X009495Y012009D01*
X009734Y012009D01*
X009734Y004995D01*
X009619Y004995D01*
X009660Y005036D01*
X009660Y009564D01*
X009677Y009581D01*
X009720Y009684D01*
X009720Y009796D01*
X009677Y009899D01*
X009599Y009977D01*
X009496Y010020D01*
X009384Y010020D01*
X009281Y009977D01*
X009203Y009899D01*
X009160Y009796D01*
X009160Y009684D01*
X009203Y009581D01*
X009220Y009564D01*
X009220Y005347D01*
X009211Y005347D01*
X009211Y006870D01*
X009129Y006952D01*
X009000Y006952D01*
X009000Y011136D01*
X009020Y011184D01*
X009020Y011296D01*
X008977Y011399D01*
X008899Y011477D01*
X008796Y011520D01*
X008684Y011520D01*
X008581Y011477D01*
X008503Y011399D01*
X008460Y011296D01*
X008460Y011184D01*
X008480Y011136D01*
X008480Y007602D01*
X008402Y007680D01*
X007751Y007680D01*
X007669Y007598D01*
X007669Y006982D01*
X007751Y006900D01*
X008402Y006900D01*
X008480Y006978D01*
X008480Y006919D01*
X008431Y006870D01*
X008431Y006530D01*
X007761Y006530D01*
X007461Y006230D01*
X007350Y006119D01*
X007350Y005246D01*
X007303Y005199D01*
X007260Y005096D01*
X007260Y004984D01*
X007303Y004881D01*
X007381Y004803D01*
X007484Y004760D01*
X007596Y004760D01*
X007699Y004803D01*
X007777Y004881D01*
X007820Y004984D01*
X007820Y005096D01*
X007793Y005160D01*
X007896Y005160D01*
X007999Y005203D01*
X008077Y005281D01*
X008120Y005384D01*
X008120Y005460D01*
X008196Y005460D01*
X008299Y005503D01*
X008373Y005577D01*
X008431Y005577D01*
X008431Y004329D01*
X008513Y004247D01*
X009129Y004247D01*
X009189Y004307D01*
X009226Y004307D01*
X009239Y004320D01*
X009320Y004320D01*
X009320Y002849D01*
X009449Y002720D01*
X010889Y002720D01*
X010852Y002683D01*
X010800Y002558D01*
X010800Y002331D01*
X010499Y002030D01*
X008731Y002030D01*
X007978Y002783D01*
X007883Y002878D01*
X007758Y002930D01*
X005131Y002930D01*
X005030Y003031D01*
X005030Y003550D01*
X005341Y003550D01*
X005654Y003237D01*
X005742Y003200D01*
X006938Y003200D01*
X007026Y003237D01*
X007110Y003320D01*
X007177Y003388D01*
X007214Y003476D01*
X007214Y003592D01*
X007224Y003602D01*
X007224Y004218D01*
X007142Y004300D01*
X005861Y004300D01*
X005831Y004270D01*
X005772Y004270D01*
X005831Y004329D01*
X005831Y005853D01*
X005881Y005803D01*
X005984Y005760D01*
X006096Y005760D01*
X006199Y005803D01*
X006277Y005881D01*
X006320Y005984D01*
X006320Y006096D01*
X006298Y006150D01*
X006334Y006150D01*
X006381Y006103D01*
X006484Y006060D01*
X006596Y006060D01*
X006699Y006103D01*
X006777Y006181D01*
X006820Y006284D01*
X006820Y006396D01*
X006777Y006499D01*
X006699Y006577D01*
X008431Y006577D01*
X008431Y006656D02*
X006320Y006656D01*
X006320Y006696D02*
X006314Y006710D01*
X006315Y006710D01*
X006420Y006815D01*
X006504Y006900D01*
X006827Y006900D01*
X006909Y006982D01*
X006909Y007598D01*
X006896Y007611D01*
X006922Y007600D01*
X007041Y007600D01*
X007039Y007598D01*
X007039Y006982D01*
X007121Y006900D01*
X007457Y006900D01*
X007539Y006982D01*
X007539Y007598D01*
X007530Y007607D01*
X007530Y007625D01*
X007547Y007625D01*
X007655Y007733D01*
X007655Y008147D01*
X008480Y008147D01*
X008480Y008069D02*
X007655Y008069D01*
X007655Y008147D02*
X007547Y008255D01*
X007418Y008255D01*
X007358Y008280D01*
X006922Y008280D01*
X006862Y008255D01*
X006483Y008255D01*
X006375Y008147D01*
X005405Y008147D01*
X005455Y008097D02*
X005347Y008205D01*
X005320Y008205D01*
X005320Y008265D01*
X005405Y008350D01*
X006098Y008350D01*
X006180Y008432D01*
X006180Y009348D01*
X006098Y009430D01*
X005282Y009430D01*
X005200Y009348D01*
X005200Y008655D01*
X004960Y008415D01*
X004960Y008205D01*
X004933Y008205D01*
X004840Y008112D01*
X004747Y008205D01*
X004720Y008205D01*
X004720Y008415D01*
X004480Y008655D01*
X004480Y009348D01*
X004398Y009430D01*
X003582Y009430D01*
X003500Y009348D01*
X003500Y008432D01*
X003582Y008350D01*
X004275Y008350D01*
X004360Y008265D01*
X004360Y008205D01*
X004333Y008205D01*
X004225Y008097D01*
X004225Y007683D01*
X004333Y007575D01*
X004600Y007575D01*
X004765Y007410D01*
X005065Y007410D01*
X005523Y006952D01*
X005133Y006952D01*
X005051Y006870D01*
X005051Y005937D01*
X005032Y005937D01*
X005027Y005949D01*
X005051Y005949D01*
X005027Y005949D02*
X004949Y006027D01*
X004846Y006070D01*
X004734Y006070D01*
X004631Y006027D01*
X004553Y005949D01*
X004236Y005949D01*
X004314Y005871D02*
X004520Y005871D01*
X004510Y005846D02*
X004510Y005734D01*
X004552Y005632D01*
X003465Y006720D01*
X003274Y006720D01*
X003385Y006831D01*
X003385Y007254D01*
X003086Y007552D01*
X002663Y007552D01*
X002648Y007537D01*
X002326Y007860D01*
X002326Y007917D01*
X002343Y007917D01*
X002436Y008010D01*
X002472Y007974D01*
X002460Y007946D01*
X002460Y007834D01*
X002503Y007731D01*
X002581Y007653D01*
X002684Y007610D01*
X002796Y007610D01*
X002899Y007653D01*
X002977Y007731D01*
X003020Y007834D01*
X003020Y007946D01*
X003006Y007980D01*
X003051Y008025D01*
X003051Y008439D01*
X002943Y008547D01*
X002528Y008547D01*
X002436Y008454D01*
X002343Y008547D01*
X001928Y008547D01*
X001821Y008439D01*
X001821Y008430D01*
X001805Y008430D01*
X001805Y008447D01*
X001697Y008555D01*
X001283Y008555D01*
X001190Y008462D01*
X001097Y008555D01*
X000683Y008555D01*
X000575Y008447D01*
X000575Y008180D01*
X000515Y008120D01*
X000410Y008015D01*
X000410Y000877D01*
X000400Y000867D01*
X000400Y000710D01*
X000511Y000598D01*
X000669Y000598D01*
X000720Y000650D01*
X007519Y000650D01*
X007630Y000761D01*
X007630Y000919D01*
X007555Y000994D01*
X007555Y001090D01*
X007654Y001131D01*
X007798Y001275D01*
X007875Y001462D01*
X007875Y001665D01*
X007798Y001853D01*
X007654Y001996D01*
X007467Y002074D01*
X007264Y002074D01*
X007076Y001996D01*
X006933Y001853D01*
X006875Y001713D01*
X006875Y001765D01*
X006798Y001953D01*
X006654Y002096D01*
X006467Y002174D01*
X006264Y002174D01*
X006076Y002096D01*
X005933Y001953D01*
X005855Y001765D01*
X005855Y001713D01*
X005798Y001853D01*
X005654Y001996D01*
X005467Y002074D01*
X005264Y002074D01*
X005076Y001996D01*
X004933Y001853D01*
X004875Y001713D01*
X004875Y001765D01*
X004798Y001953D01*
X004654Y002096D01*
X004630Y002106D01*
X004630Y002469D01*
X004797Y002302D01*
X004922Y002250D01*
X007549Y002250D01*
X008302Y001497D01*
X008397Y001402D01*
X008522Y001350D01*
X010708Y001350D01*
X010833Y001402D01*
X010928Y001497D01*
X010928Y001497D01*
X011333Y001902D01*
X011428Y001997D01*
X011480Y002122D01*
X011480Y002558D01*
X011428Y002683D01*
X011333Y002778D01*
X011208Y002830D01*
X011072Y002830D01*
X011019Y002808D01*
X011060Y002849D01*
X011060Y004233D01*
X011086Y004259D01*
X011060Y004196D01*
X011060Y004084D01*
X011103Y003981D01*
X011181Y003903D01*
X011284Y003860D01*
X011396Y003860D01*
X011450Y003882D01*
X011450Y003857D01*
X011532Y003775D01*
X012048Y003775D01*
X012130Y003857D01*
X012130Y004161D01*
X012319Y004350D01*
X012750Y004350D01*
X012750Y003857D01*
X012832Y003775D01*
X013348Y003775D01*
X013430Y003857D01*
X013430Y004423D01*
X013348Y004505D01*
X013144Y004505D01*
X013119Y004530D01*
X012969Y004680D01*
X013100Y004680D01*
X013100Y004657D01*
X013182Y004575D01*
X013698Y004575D01*
X013780Y004657D01*
X013780Y004680D01*
X014838Y004680D01*
X014915Y004603D01*
X015061Y004543D01*
X015219Y004543D01*
X015365Y004603D01*
X015477Y004715D01*
X015537Y004861D01*
X015537Y005019D01*
X015477Y005165D01*
X015365Y005277D01*
X015219Y005337D01*
X015061Y005337D01*
X014915Y005277D01*
X014838Y005200D01*
X013780Y005200D01*
X013780Y005223D01*
X013698Y005305D01*
X013182Y005305D01*
X013100Y005223D01*
X013100Y005200D01*
X012480Y005200D01*
X012480Y005223D01*
X012398Y005305D01*
X011882Y005305D01*
X011800Y005223D01*
X011800Y004657D01*
X011882Y004575D01*
X012006Y004575D01*
X011936Y004505D01*
X011532Y004505D01*
X011450Y004423D01*
X011450Y004398D01*
X011396Y004420D01*
X011284Y004420D01*
X011181Y004377D01*
X011109Y004305D01*
X011109Y004696D01*
X011014Y004792D01*
X011105Y004883D01*
X011105Y005297D01*
X011005Y005398D01*
X011096Y005489D01*
X011096Y005697D01*
X011184Y005660D01*
X011296Y005660D01*
X011350Y005682D01*
X011350Y005657D01*
X011432Y005575D01*
X011948Y005575D01*
X012030Y005657D01*
X012030Y005961D01*
X012219Y006150D01*
X012650Y006150D01*
X012650Y005657D01*
X012732Y005575D01*
X013248Y005575D01*
X013330Y005657D01*
X013330Y006223D01*
X013248Y006305D01*
X013144Y006305D01*
X013119Y006330D01*
X012969Y006480D01*
X013000Y006480D01*
X013000Y006457D01*
X013082Y006375D01*
X013598Y006375D01*
X013680Y006457D01*
X013680Y006480D01*
X014738Y006480D01*
X014815Y006403D01*
X014961Y006343D01*
X015119Y006343D01*
X015265Y006403D01*
X015377Y006515D01*
X015437Y006661D01*
X015437Y006819D01*
X015377Y006965D01*
X015265Y007077D01*
X015119Y007137D01*
X014961Y007137D01*
X014815Y007077D01*
X014738Y007000D01*
X013680Y007000D01*
X013680Y007023D01*
X013598Y007105D01*
X013082Y007105D01*
X013000Y007023D01*
X013000Y007000D01*
X012380Y007000D01*
X012380Y007023D01*
X012298Y007105D01*
X011782Y007105D01*
X011700Y007023D01*
X011700Y006457D01*
X011782Y006375D01*
X011906Y006375D01*
X011836Y006305D01*
X011432Y006305D01*
X011350Y006223D01*
X011350Y006198D01*
X011296Y006220D01*
X011184Y006220D01*
X011081Y006177D01*
X011003Y006099D01*
X010966Y006011D01*
X010574Y006011D01*
X010481Y005919D01*
X010388Y006011D01*
X010360Y006011D01*
X010360Y006220D01*
X010549Y006220D01*
X010649Y006120D01*
X010831Y006120D01*
X010960Y006249D01*
X010960Y010120D01*
X012450Y010120D01*
X012450Y010092D01*
X012444Y010085D01*
X012450Y010015D01*
X012450Y009957D01*
X012445Y009949D01*
X012461Y009889D01*
X012466Y009827D01*
X012472Y009822D01*
X012470Y009815D01*
X012496Y009758D01*
X012512Y009698D01*
X012519Y009695D01*
X012517Y009687D01*
X012553Y009636D01*
X012579Y009580D01*
X012586Y009577D01*
X012586Y009570D01*
X012630Y009526D01*
X012666Y009475D01*
X012674Y009474D01*
X012675Y009466D01*
X012726Y009430D01*
X012770Y009386D01*
X012777Y009386D01*
X012780Y009379D01*
X012836Y009353D01*
X012887Y009317D01*
X012895Y009319D01*
X012898Y009312D01*
X012958Y009296D01*
X013015Y009270D01*
X013022Y009272D01*
X013027Y009266D01*
X013089Y009261D01*
X013149Y009245D01*
X013157Y009250D01*
X013215Y009250D01*
X013285Y009244D01*
X013292Y009250D01*
X016432Y009250D01*
X016440Y009244D01*
X016510Y009250D01*
X016558Y009250D01*
X016568Y009244D01*
X016628Y009260D01*
X016690Y009266D01*
X016692Y009268D01*
X016695Y009267D01*
X016751Y009293D01*
X016811Y009309D01*
X016812Y009312D01*
X016815Y009311D01*
X016866Y009347D01*
X016922Y009373D01*
X016923Y009376D01*
X016926Y009376D01*
X016970Y009420D01*
X017021Y009455D01*
X017022Y009458D01*
X017025Y009459D01*
X017060Y009510D01*
X017104Y009554D01*
X017104Y009557D01*
X017107Y009558D01*
X017150Y009639D02*
X018615Y009639D01*
X018599Y009717D02*
X017184Y009717D01*
X017215Y009796D02*
X018604Y009796D01*
X018606Y009874D02*
X017226Y009874D01*
X017230Y009953D02*
X018043Y009953D01*
X017973Y010031D02*
X017235Y010031D01*
X017230Y010110D02*
X017970Y010110D01*
X017948Y010188D02*
X017230Y010188D01*
X017230Y010267D02*
X017948Y010267D01*
X017948Y010345D02*
X017230Y010345D01*
X017230Y010424D02*
X017948Y010424D01*
X017948Y010502D02*
X017230Y010502D01*
X017230Y010581D02*
X017948Y010581D01*
X017948Y010659D02*
X017230Y010659D01*
X017230Y010738D02*
X017948Y010738D01*
X017948Y010816D02*
X017230Y010816D01*
X017230Y010895D02*
X017948Y010895D01*
X017955Y010973D02*
X017230Y010973D01*
X017230Y011052D02*
X017988Y011052D01*
X018049Y011130D02*
X017230Y011130D01*
X017230Y011209D02*
X018128Y011209D01*
X018206Y011287D02*
X017230Y011287D01*
X017230Y011366D02*
X018285Y011366D01*
X018350Y011444D02*
X017230Y011444D01*
X017230Y011523D02*
X018350Y011523D01*
X018350Y011601D02*
X017230Y011601D01*
X017230Y011680D02*
X018350Y011680D01*
X018350Y011758D02*
X017230Y011758D01*
X017230Y011837D02*
X018350Y011837D01*
X018350Y011915D02*
X017230Y011915D01*
X017230Y011994D02*
X018350Y011994D01*
X018350Y012072D02*
X017941Y012072D01*
X018019Y012151D02*
X018350Y012151D01*
X018350Y012229D02*
X018030Y012229D01*
X018030Y012308D02*
X018371Y012308D01*
X018402Y012386D02*
X018030Y012386D01*
X018030Y012465D02*
X018402Y012465D01*
X018402Y012543D02*
X018030Y012543D01*
X018030Y012622D02*
X018402Y012622D01*
X018402Y012700D02*
X018030Y012700D01*
X018030Y012779D02*
X018402Y012779D01*
X018402Y012857D02*
X018030Y012857D01*
X018030Y012936D02*
X018402Y012936D01*
X018402Y013014D02*
X018034Y013014D01*
X018033Y013093D02*
X018402Y013093D01*
X018402Y013171D02*
X018017Y013171D01*
X017980Y013250D02*
X018402Y013250D01*
X018458Y013328D02*
X017918Y013328D01*
X017791Y013407D02*
X023228Y013407D01*
X023228Y013485D02*
X017130Y013485D01*
X017130Y013564D02*
X023228Y013564D01*
X023228Y013642D02*
X017130Y013642D01*
X017130Y013721D02*
X023228Y013721D01*
X023228Y013799D02*
X017130Y013799D01*
X017130Y013878D02*
X023228Y013878D01*
X023228Y013956D02*
X017130Y013956D01*
X017130Y014035D02*
X023228Y014035D01*
X023228Y014113D02*
X017130Y014113D01*
X017130Y014192D02*
X023228Y014192D01*
X023228Y014270D02*
X017130Y014270D01*
X017130Y014349D02*
X023228Y014349D01*
X023228Y014427D02*
X017130Y014427D01*
X017130Y014506D02*
X023228Y014506D01*
X023228Y014584D02*
X017130Y014584D01*
X017130Y014663D02*
X023228Y014663D01*
X023228Y014741D02*
X017130Y014741D01*
X017130Y014820D02*
X023228Y014820D01*
X023228Y014898D02*
X017130Y014898D01*
X017130Y014977D02*
X023228Y014977D01*
X023228Y015055D02*
X017130Y015055D01*
X017130Y015134D02*
X023228Y015134D01*
X023228Y015212D02*
X017130Y015212D01*
X017130Y015291D02*
X023228Y015291D01*
X023228Y015369D02*
X017130Y015369D01*
X017130Y015448D02*
X023228Y015448D01*
X023228Y015526D02*
X017130Y015526D01*
X017130Y015605D02*
X023228Y015605D01*
X023228Y015683D02*
X017130Y015683D01*
X017130Y015762D02*
X023228Y015762D01*
X023228Y015840D02*
X017130Y015840D01*
X017130Y015919D02*
X023228Y015919D01*
X023228Y015997D02*
X017130Y015997D01*
X017130Y016076D02*
X020806Y016076D01*
X020832Y016050D02*
X021698Y016050D01*
X021780Y016132D01*
X021780Y017748D01*
X021698Y017830D01*
X020832Y017830D01*
X020750Y017748D01*
X020750Y016132D01*
X020832Y016050D01*
X020750Y016154D02*
X017130Y016154D01*
X017130Y016233D02*
X020750Y016233D01*
X020750Y016311D02*
X017130Y016311D01*
X017130Y016390D02*
X020750Y016390D01*
X020750Y016468D02*
X017130Y016468D01*
X017130Y016547D02*
X020750Y016547D01*
X020750Y016625D02*
X017130Y016625D01*
X017130Y016704D02*
X020750Y016704D01*
X020750Y016782D02*
X017130Y016782D01*
X017130Y016861D02*
X020750Y016861D01*
X020750Y016939D02*
X017130Y016939D01*
X017130Y017018D02*
X020750Y017018D01*
X020750Y017096D02*
X017130Y017096D01*
X017130Y017175D02*
X020750Y017175D01*
X020750Y017253D02*
X017130Y017253D01*
X017130Y017332D02*
X020750Y017332D01*
X020750Y017410D02*
X017130Y017410D01*
X017130Y017489D02*
X020750Y017489D01*
X020750Y017567D02*
X017130Y017567D01*
X017130Y017646D02*
X020750Y017646D01*
X020750Y017724D02*
X017130Y017724D01*
X017130Y017803D02*
X020805Y017803D01*
X021725Y017803D02*
X023228Y017803D01*
X023228Y017881D02*
X017130Y017881D01*
X017130Y017960D02*
X023228Y017960D01*
X023228Y018038D02*
X017130Y018038D01*
X017130Y018117D02*
X023228Y018117D01*
X023228Y018195D02*
X017130Y018195D01*
X017130Y018274D02*
X023228Y018274D01*
X023228Y018352D02*
X017130Y018352D01*
X017130Y018431D02*
X023228Y018431D01*
X023228Y018509D02*
X017130Y018509D01*
X017130Y018588D02*
X023228Y018588D01*
X023228Y018666D02*
X017130Y018666D01*
X017130Y018745D02*
X023228Y018745D01*
X023228Y018823D02*
X017130Y018823D01*
X017130Y018902D02*
X023228Y018902D01*
X023228Y018980D02*
X017130Y018980D01*
X017130Y019059D02*
X023228Y019059D01*
X023228Y019137D02*
X017130Y019137D01*
X017130Y019216D02*
X023228Y019216D01*
X023228Y019294D02*
X017130Y019294D01*
X017130Y019373D02*
X023228Y019373D01*
X023228Y019451D02*
X017130Y019451D01*
X017130Y019530D02*
X023228Y019530D01*
X023228Y019608D02*
X017130Y019608D01*
X017130Y019687D02*
X023228Y019687D01*
X023228Y019765D02*
X017130Y019765D01*
X017130Y019844D02*
X023228Y019844D01*
X023228Y019922D02*
X017130Y019922D01*
X017130Y020001D02*
X023228Y020001D01*
X023228Y020079D02*
X017130Y020079D01*
X017130Y020158D02*
X023228Y020158D01*
X023153Y020236D02*
X017130Y020236D01*
X017130Y020315D02*
X023075Y020315D01*
X022996Y020393D02*
X017130Y020393D01*
X017130Y020472D02*
X022918Y020472D01*
X022839Y020550D02*
X017130Y020550D01*
X017130Y020629D02*
X022761Y020629D01*
X022682Y020707D02*
X017130Y020707D01*
X017063Y020786D02*
X022604Y020786D01*
X022525Y020864D02*
X002975Y020864D01*
X003008Y020943D02*
X022447Y020943D01*
X022368Y021021D02*
X003040Y021021D01*
X003071Y021100D02*
X011717Y021100D01*
X011806Y021063D02*
X011537Y021174D01*
X011332Y021380D01*
X011220Y021648D01*
X011220Y021939D01*
X011332Y022207D01*
X011537Y022413D01*
X011806Y022524D01*
X012096Y022524D01*
X012365Y022413D01*
X012570Y022207D01*
X012682Y021939D01*
X012682Y021648D01*
X012570Y021380D01*
X012365Y021174D01*
X012096Y021063D01*
X011806Y021063D01*
X012185Y021100D02*
X018410Y021100D01*
X018499Y021063D02*
X018789Y021063D01*
X019058Y021174D01*
X019263Y021380D01*
X019374Y021648D01*
X019374Y021939D01*
X019263Y022207D01*
X019058Y022413D01*
X018789Y022524D01*
X018499Y022524D01*
X018230Y022413D01*
X018025Y022207D01*
X017913Y021939D01*
X017913Y021648D01*
X018025Y021380D01*
X018230Y021174D01*
X018499Y021063D01*
X018226Y021178D02*
X012369Y021178D01*
X012447Y021257D02*
X018148Y021257D01*
X018069Y021335D02*
X012526Y021335D01*
X012584Y021414D02*
X018011Y021414D01*
X017978Y021492D02*
X012617Y021492D01*
X012649Y021571D02*
X017946Y021571D01*
X017913Y021649D02*
X012682Y021649D01*
X012682Y021728D02*
X017913Y021728D01*
X017913Y021806D02*
X012682Y021806D01*
X012682Y021885D02*
X017913Y021885D01*
X017923Y021963D02*
X012672Y021963D01*
X012639Y022042D02*
X017956Y022042D01*
X017988Y022120D02*
X012607Y022120D01*
X012574Y022199D02*
X018021Y022199D01*
X018094Y022277D02*
X012501Y022277D01*
X012422Y022356D02*
X018173Y022356D01*
X018281Y022434D02*
X012314Y022434D01*
X012124Y022513D02*
X018471Y022513D01*
X018817Y022513D02*
X020877Y022513D01*
X020955Y022434D02*
X019007Y022434D01*
X019115Y022356D02*
X021034Y022356D01*
X021112Y022277D02*
X019194Y022277D01*
X019267Y022199D02*
X021191Y022199D01*
X021269Y022120D02*
X019299Y022120D01*
X019332Y022042D02*
X021348Y022042D01*
X021426Y021963D02*
X019364Y021963D01*
X019374Y021885D02*
X021505Y021885D01*
X021583Y021806D02*
X019374Y021806D01*
X019374Y021728D02*
X021662Y021728D01*
X021740Y021649D02*
X019374Y021649D01*
X019342Y021571D02*
X021819Y021571D01*
X021897Y021492D02*
X019310Y021492D01*
X019277Y021414D02*
X021976Y021414D01*
X022054Y021335D02*
X019219Y021335D01*
X019140Y021257D02*
X022133Y021257D01*
X022211Y021178D02*
X019062Y021178D01*
X018878Y021100D02*
X022290Y021100D01*
X020798Y022591D02*
X007985Y022591D01*
X008018Y022513D02*
X011778Y022513D01*
X011588Y022434D02*
X008050Y022434D01*
X008071Y022356D02*
X011480Y022356D01*
X011401Y022277D02*
X008071Y022277D01*
X008071Y022199D02*
X011328Y022199D01*
X011296Y022120D02*
X008071Y022120D01*
X008049Y022042D02*
X011263Y022042D01*
X011231Y021963D02*
X008016Y021963D01*
X007984Y021885D02*
X011220Y021885D01*
X011220Y021806D02*
X007939Y021806D01*
X007861Y021728D02*
X011220Y021728D01*
X011220Y021649D02*
X007782Y021649D01*
X007633Y021571D02*
X011253Y021571D01*
X011285Y021492D02*
X005380Y021492D01*
X005380Y021571D02*
X007047Y021571D01*
X006898Y021649D02*
X005380Y021649D01*
X005380Y021728D02*
X006819Y021728D01*
X006482Y021806D02*
X005380Y021806D01*
X005362Y021414D02*
X011318Y021414D01*
X011376Y021335D02*
X003071Y021335D01*
X003071Y021257D02*
X011455Y021257D01*
X011533Y021178D02*
X003071Y021178D01*
X003112Y021414D02*
X003918Y021414D01*
X003900Y021492D02*
X003180Y021492D01*
X002919Y020786D02*
X015117Y020786D01*
X015050Y020707D02*
X002840Y020707D01*
X002762Y020629D02*
X015050Y020629D01*
X015050Y020550D02*
X002583Y020550D01*
X002097Y020550D02*
X000669Y020550D01*
X000591Y020472D02*
X015050Y020472D01*
X015050Y020393D02*
X000512Y020393D01*
X000434Y020315D02*
X015050Y020315D01*
X015050Y020236D02*
X000355Y020236D01*
X000280Y020158D02*
X015050Y020158D01*
X015050Y020079D02*
X000280Y020079D01*
X000280Y020001D02*
X015050Y020001D01*
X015050Y019922D02*
X000280Y019922D01*
X000280Y019844D02*
X015050Y019844D01*
X015050Y019765D02*
X000280Y019765D01*
X000280Y019687D02*
X015050Y019687D01*
X015050Y019608D02*
X000280Y019608D01*
X000280Y019530D02*
X015050Y019530D01*
X015050Y019451D02*
X000280Y019451D01*
X000280Y019373D02*
X015050Y019373D01*
X015050Y019294D02*
X000280Y019294D01*
X000280Y019216D02*
X015050Y019216D01*
X015050Y019137D02*
X000280Y019137D01*
X000280Y019059D02*
X015050Y019059D01*
X015050Y018980D02*
X000280Y018980D01*
X000280Y018902D02*
X015050Y018902D01*
X015050Y018823D02*
X002700Y018823D01*
X002585Y018871D02*
X002295Y018871D01*
X002026Y018759D01*
X001821Y018554D01*
X001709Y018285D01*
X001709Y017995D01*
X001821Y017726D01*
X002020Y017527D01*
X002020Y016814D01*
X001984Y016778D01*
X001920Y016624D01*
X001920Y014553D01*
X001721Y014354D01*
X001609Y014085D01*
X001609Y013795D01*
X001721Y013526D01*
X001926Y013321D01*
X002195Y013209D01*
X002485Y013209D01*
X002754Y013321D01*
X002959Y013526D01*
X003071Y013795D01*
X003071Y014085D01*
X002959Y014354D01*
X002760Y014553D01*
X002760Y015972D01*
X002832Y015900D01*
X003948Y015900D01*
X004030Y015982D01*
X004030Y017298D01*
X003948Y017380D01*
X002860Y017380D01*
X002860Y017527D01*
X003059Y017726D01*
X003171Y017995D01*
X003171Y018285D01*
X003059Y018554D01*
X002854Y018759D01*
X002585Y018871D01*
X002180Y018823D02*
X000280Y018823D01*
X000280Y018745D02*
X002011Y018745D01*
X001933Y018666D02*
X000280Y018666D01*
X000280Y018588D02*
X001854Y018588D01*
X001802Y018509D02*
X000280Y018509D01*
X000280Y018431D02*
X001770Y018431D01*
X001737Y018352D02*
X000280Y018352D01*
X000280Y018274D02*
X001709Y018274D01*
X001709Y018195D02*
X000280Y018195D01*
X000280Y018117D02*
X001709Y018117D01*
X001709Y018038D02*
X000280Y018038D01*
X000280Y017960D02*
X001724Y017960D01*
X001757Y017881D02*
X000280Y017881D01*
X000280Y017803D02*
X001789Y017803D01*
X001823Y017724D02*
X000280Y017724D01*
X000280Y017646D02*
X001901Y017646D01*
X001980Y017567D02*
X000280Y017567D01*
X000280Y017489D02*
X002020Y017489D01*
X002020Y017410D02*
X000280Y017410D01*
X000280Y017332D02*
X002020Y017332D01*
X002020Y017253D02*
X000280Y017253D01*
X000280Y017175D02*
X002020Y017175D01*
X002020Y017096D02*
X000280Y017096D01*
X000280Y017018D02*
X002020Y017018D01*
X002020Y016939D02*
X000280Y016939D01*
X000280Y016861D02*
X002020Y016861D01*
X001988Y016782D02*
X000280Y016782D01*
X000280Y016704D02*
X001953Y016704D01*
X001921Y016625D02*
X000280Y016625D01*
X000280Y016547D02*
X001920Y016547D01*
X001920Y016468D02*
X000280Y016468D01*
X000280Y016390D02*
X001920Y016390D01*
X001920Y016311D02*
X000280Y016311D01*
X000280Y016233D02*
X001920Y016233D01*
X001920Y016154D02*
X000280Y016154D01*
X000280Y016076D02*
X001920Y016076D01*
X001920Y015997D02*
X000280Y015997D01*
X000280Y015919D02*
X001920Y015919D01*
X001920Y015840D02*
X000280Y015840D01*
X000280Y015762D02*
X001920Y015762D01*
X001920Y015683D02*
X000280Y015683D01*
X000280Y015605D02*
X001920Y015605D01*
X001920Y015526D02*
X000280Y015526D01*
X000280Y015448D02*
X001920Y015448D01*
X001920Y015369D02*
X000280Y015369D01*
X000280Y015291D02*
X001920Y015291D01*
X001920Y015212D02*
X000280Y015212D01*
X000280Y015134D02*
X001920Y015134D01*
X001920Y015055D02*
X000280Y015055D01*
X000280Y014977D02*
X001920Y014977D01*
X001920Y014898D02*
X000280Y014898D01*
X000280Y014820D02*
X001920Y014820D01*
X001920Y014741D02*
X000280Y014741D01*
X000280Y014663D02*
X001920Y014663D01*
X001920Y014584D02*
X000280Y014584D01*
X000280Y014506D02*
X001872Y014506D01*
X001794Y014427D02*
X000280Y014427D01*
X000280Y014349D02*
X001718Y014349D01*
X001686Y014270D02*
X000280Y014270D01*
X000280Y014192D02*
X001653Y014192D01*
X001621Y014113D02*
X000280Y014113D01*
X000280Y014035D02*
X001609Y014035D01*
X001609Y013956D02*
X000280Y013956D01*
X000280Y013878D02*
X001609Y013878D01*
X001609Y013799D02*
X000280Y013799D01*
X000280Y013721D02*
X001640Y013721D01*
X001673Y013642D02*
X000280Y013642D01*
X000280Y013564D02*
X001705Y013564D01*
X001762Y013485D02*
X000280Y013485D01*
X000280Y013407D02*
X001840Y013407D01*
X001919Y013328D02*
X000280Y013328D01*
X000280Y013250D02*
X002098Y013250D01*
X002582Y013250D02*
X007516Y013250D01*
X007595Y013328D02*
X002761Y013328D01*
X002840Y013407D02*
X007740Y013407D01*
X007438Y013171D02*
X000280Y013171D01*
X000280Y013093D02*
X007395Y013093D01*
X007363Y013014D02*
X000280Y013014D01*
X000280Y012936D02*
X007330Y012936D01*
X007309Y012857D02*
X000280Y012857D01*
X000280Y012779D02*
X007309Y012779D01*
X007309Y012700D02*
X000280Y012700D01*
X000280Y012622D02*
X007309Y012622D01*
X007331Y012543D02*
X000280Y012543D01*
X000280Y012465D02*
X007363Y012465D01*
X007396Y012386D02*
X000280Y012386D01*
X000280Y012308D02*
X007439Y012308D01*
X007518Y012229D02*
X000280Y012229D01*
X000280Y012151D02*
X007596Y012151D01*
X007744Y012072D02*
X000280Y012072D01*
X000280Y011994D02*
X009734Y011994D01*
X009734Y011915D02*
X005372Y011915D01*
X005365Y011921D02*
X004951Y011921D01*
X004843Y011814D01*
X004843Y011786D01*
X004480Y011786D01*
X004480Y011817D01*
X004376Y011921D01*
X004004Y011921D01*
X003900Y011817D01*
X003900Y011395D01*
X004004Y011291D01*
X004376Y011291D01*
X004480Y011395D01*
X004480Y011426D01*
X004843Y011426D01*
X004843Y011399D01*
X004951Y011291D01*
X005365Y011291D01*
X005473Y011399D01*
X005473Y011814D01*
X005365Y011921D01*
X005450Y011837D02*
X009734Y011837D01*
X009734Y011758D02*
X005473Y011758D01*
X005473Y011680D02*
X009734Y011680D01*
X009734Y011601D02*
X005473Y011601D01*
X005473Y011523D02*
X009734Y011523D01*
X009734Y011444D02*
X008932Y011444D01*
X008991Y011366D02*
X009734Y011366D01*
X009734Y011287D02*
X009020Y011287D01*
X009020Y011209D02*
X009734Y011209D01*
X009734Y011130D02*
X009000Y011130D01*
X009000Y011052D02*
X009734Y011052D01*
X009734Y010973D02*
X009000Y010973D01*
X009000Y010895D02*
X009734Y010895D01*
X009734Y010816D02*
X009000Y010816D01*
X009000Y010738D02*
X009734Y010738D01*
X009734Y010659D02*
X009000Y010659D01*
X009000Y010581D02*
X009734Y010581D01*
X009734Y010502D02*
X009000Y010502D01*
X009000Y010424D02*
X009734Y010424D01*
X009734Y010345D02*
X009000Y010345D01*
X009000Y010267D02*
X009734Y010267D01*
X009734Y010188D02*
X009000Y010188D01*
X009000Y010110D02*
X009734Y010110D01*
X009734Y010031D02*
X009000Y010031D01*
X009000Y009953D02*
X009257Y009953D01*
X009192Y009874D02*
X009000Y009874D01*
X009000Y009796D02*
X009160Y009796D01*
X009160Y009717D02*
X009000Y009717D01*
X009000Y009639D02*
X009179Y009639D01*
X009220Y009560D02*
X009000Y009560D01*
X009000Y009482D02*
X009220Y009482D01*
X009220Y009403D02*
X009000Y009403D01*
X009000Y009325D02*
X009220Y009325D01*
X009220Y009246D02*
X009000Y009246D01*
X009000Y009168D02*
X009220Y009168D01*
X009220Y009089D02*
X009000Y009089D01*
X009000Y009011D02*
X009220Y009011D01*
X009220Y008932D02*
X009000Y008932D01*
X009000Y008854D02*
X009220Y008854D01*
X009220Y008775D02*
X009000Y008775D01*
X009000Y008697D02*
X009220Y008697D01*
X009220Y008618D02*
X009000Y008618D01*
X009000Y008540D02*
X009220Y008540D01*
X009220Y008461D02*
X009000Y008461D01*
X009000Y008383D02*
X009220Y008383D01*
X009220Y008304D02*
X009000Y008304D01*
X009000Y008226D02*
X009220Y008226D01*
X009220Y008147D02*
X009000Y008147D01*
X009000Y008069D02*
X009220Y008069D01*
X009220Y007990D02*
X009000Y007990D01*
X009000Y007912D02*
X009220Y007912D01*
X009220Y007833D02*
X009000Y007833D01*
X009000Y007755D02*
X009220Y007755D01*
X009220Y007676D02*
X009000Y007676D01*
X009000Y007598D02*
X009220Y007598D01*
X009220Y007519D02*
X009000Y007519D01*
X009000Y007441D02*
X009220Y007441D01*
X009220Y007362D02*
X009000Y007362D01*
X009000Y007284D02*
X009220Y007284D01*
X009220Y007205D02*
X009000Y007205D01*
X009000Y007127D02*
X009220Y007127D01*
X009220Y007048D02*
X009000Y007048D01*
X009000Y006970D02*
X009220Y006970D01*
X009220Y006891D02*
X009191Y006891D01*
X009211Y006813D02*
X009220Y006813D01*
X009211Y006734D02*
X009220Y006734D01*
X009211Y006656D02*
X009220Y006656D01*
X009211Y006577D02*
X009220Y006577D01*
X009211Y006499D02*
X009220Y006499D01*
X009211Y006420D02*
X009220Y006420D01*
X009211Y006342D02*
X009220Y006342D01*
X009211Y006263D02*
X009220Y006263D01*
X009211Y006185D02*
X009220Y006185D01*
X009211Y006106D02*
X009220Y006106D01*
X009211Y006028D02*
X009220Y006028D01*
X009211Y005949D02*
X009220Y005949D01*
X009211Y005871D02*
X009220Y005871D01*
X009211Y005792D02*
X009220Y005792D01*
X009211Y005714D02*
X009220Y005714D01*
X009211Y005635D02*
X009220Y005635D01*
X009211Y005557D02*
X009220Y005557D01*
X009211Y005478D02*
X009220Y005478D01*
X009211Y005400D02*
X009220Y005400D01*
X009631Y005007D02*
X009734Y005007D01*
X009734Y005086D02*
X009660Y005086D01*
X009660Y005164D02*
X009734Y005164D01*
X009734Y005243D02*
X009660Y005243D01*
X009660Y005321D02*
X009734Y005321D01*
X009734Y005400D02*
X009660Y005400D01*
X009660Y005478D02*
X009734Y005478D01*
X009734Y005557D02*
X009660Y005557D01*
X009660Y005635D02*
X009734Y005635D01*
X009734Y005714D02*
X009660Y005714D01*
X009660Y005792D02*
X009734Y005792D01*
X009734Y005871D02*
X009660Y005871D01*
X009660Y005949D02*
X009734Y005949D01*
X009734Y006028D02*
X009660Y006028D01*
X009660Y006106D02*
X009734Y006106D01*
X009734Y006185D02*
X009660Y006185D01*
X009660Y006263D02*
X009734Y006263D01*
X009734Y006342D02*
X009660Y006342D01*
X009660Y006420D02*
X009734Y006420D01*
X009734Y006499D02*
X009660Y006499D01*
X009660Y006577D02*
X009734Y006577D01*
X009734Y006656D02*
X009660Y006656D01*
X009660Y006734D02*
X009734Y006734D01*
X009734Y006813D02*
X009660Y006813D01*
X009660Y006891D02*
X009734Y006891D01*
X009734Y006970D02*
X009660Y006970D01*
X009660Y007048D02*
X009734Y007048D01*
X009734Y007127D02*
X009660Y007127D01*
X009660Y007205D02*
X009734Y007205D01*
X009734Y007284D02*
X009660Y007284D01*
X009660Y007362D02*
X009734Y007362D01*
X009734Y007441D02*
X009660Y007441D01*
X009660Y007519D02*
X009734Y007519D01*
X009734Y007598D02*
X009660Y007598D01*
X009660Y007676D02*
X009734Y007676D01*
X009734Y007755D02*
X009660Y007755D01*
X009660Y007833D02*
X009734Y007833D01*
X009734Y007912D02*
X009660Y007912D01*
X009660Y007990D02*
X009734Y007990D01*
X009734Y008069D02*
X009660Y008069D01*
X009660Y008147D02*
X009734Y008147D01*
X009734Y008226D02*
X009660Y008226D01*
X009660Y008304D02*
X009734Y008304D01*
X009734Y008383D02*
X009660Y008383D01*
X009660Y008461D02*
X009734Y008461D01*
X009734Y008540D02*
X009660Y008540D01*
X009660Y008618D02*
X009734Y008618D01*
X009734Y008697D02*
X009660Y008697D01*
X009660Y008775D02*
X009734Y008775D01*
X009734Y008854D02*
X009660Y008854D01*
X009660Y008932D02*
X009734Y008932D01*
X009734Y009011D02*
X009660Y009011D01*
X009660Y009089D02*
X009734Y009089D01*
X009734Y009168D02*
X009660Y009168D01*
X009660Y009246D02*
X009734Y009246D01*
X009734Y009325D02*
X009660Y009325D01*
X009660Y009403D02*
X009734Y009403D01*
X009734Y009482D02*
X009660Y009482D01*
X009660Y009560D02*
X009734Y009560D01*
X009734Y009639D02*
X009701Y009639D01*
X009720Y009717D02*
X009734Y009717D01*
X009734Y009796D02*
X009720Y009796D01*
X009734Y009874D02*
X009688Y009874D01*
X009734Y009953D02*
X009623Y009953D01*
X010074Y009953D02*
X010520Y009953D01*
X010520Y010031D02*
X010074Y010031D01*
X010074Y010110D02*
X010520Y010110D01*
X010520Y010188D02*
X010074Y010188D01*
X010074Y010267D02*
X010520Y010267D01*
X010520Y010345D02*
X010074Y010345D01*
X010074Y010424D02*
X010520Y010424D01*
X010520Y010431D02*
X010520Y006660D01*
X010074Y006660D01*
X010074Y011959D01*
X010939Y012824D01*
X011038Y012924D01*
X011530Y013416D01*
X011530Y013553D01*
X012529Y013553D01*
X012529Y013373D01*
X012611Y013291D01*
X012932Y013291D01*
X012928Y013282D01*
X012926Y013280D01*
X012909Y013282D01*
X012860Y013240D01*
X012806Y013207D01*
X012802Y013190D01*
X012800Y013188D01*
X012783Y013187D01*
X012741Y013139D01*
X012693Y013097D01*
X012692Y013080D01*
X012690Y013078D01*
X012673Y013074D01*
X012640Y013020D01*
X012598Y012971D01*
X012600Y012954D01*
X012598Y012952D01*
X012582Y012945D01*
X012558Y012886D01*
X012525Y012832D01*
X012529Y012815D01*
X012528Y012813D01*
X012513Y012804D01*
X012498Y012742D01*
X012474Y012683D01*
X012480Y012667D01*
X012480Y012664D01*
X012467Y012653D01*
X012462Y012590D01*
X012447Y012528D01*
X012454Y012516D01*
X012450Y012512D01*
X012450Y012441D01*
X012444Y012370D01*
X012450Y012364D01*
X012450Y010560D01*
X010649Y010560D01*
X010520Y010431D01*
X010591Y010502D02*
X010074Y010502D01*
X010074Y010581D02*
X012450Y010581D01*
X012450Y010659D02*
X010074Y010659D01*
X010074Y010738D02*
X012450Y010738D01*
X012450Y010816D02*
X010074Y010816D01*
X010074Y010895D02*
X012450Y010895D01*
X012450Y010973D02*
X010074Y010973D01*
X010074Y011052D02*
X012450Y011052D01*
X012450Y011130D02*
X010074Y011130D01*
X010074Y011209D02*
X012450Y011209D01*
X012450Y011287D02*
X010074Y011287D01*
X010074Y011366D02*
X012450Y011366D01*
X012450Y011444D02*
X010074Y011444D01*
X010074Y011523D02*
X012450Y011523D01*
X012450Y011601D02*
X010074Y011601D01*
X010074Y011680D02*
X012450Y011680D01*
X012450Y011758D02*
X010074Y011758D01*
X010074Y011837D02*
X012450Y011837D01*
X012450Y011915D02*
X010074Y011915D01*
X010108Y011994D02*
X012450Y011994D01*
X012450Y012072D02*
X010186Y012072D01*
X010265Y012151D02*
X012450Y012151D01*
X012450Y012229D02*
X010343Y012229D01*
X010422Y012308D02*
X012450Y012308D01*
X012446Y012386D02*
X010500Y012386D01*
X010579Y012465D02*
X012450Y012465D01*
X012450Y012543D02*
X010657Y012543D01*
X010736Y012622D02*
X012464Y012622D01*
X012481Y012700D02*
X010814Y012700D01*
X010893Y012779D02*
X012507Y012779D01*
X012540Y012857D02*
X010971Y012857D01*
X011050Y012936D02*
X012578Y012936D01*
X012635Y013014D02*
X011128Y013014D01*
X011207Y013093D02*
X012693Y013093D01*
X012769Y013171D02*
X011285Y013171D01*
X011364Y013250D02*
X012871Y013250D01*
X012574Y013328D02*
X011442Y013328D01*
X011521Y013407D02*
X012529Y013407D01*
X012529Y013485D02*
X011530Y013485D01*
X011767Y013893D02*
X011767Y014275D01*
X012748Y014275D01*
X012830Y014357D01*
X012830Y014700D01*
X012900Y014700D01*
X012900Y014505D01*
X012903Y014498D01*
X012903Y014239D01*
X012985Y014157D01*
X013495Y014157D01*
X013577Y014239D01*
X013577Y014498D01*
X013580Y014505D01*
X013580Y015475D01*
X013577Y015482D01*
X013577Y015741D01*
X013495Y015823D01*
X012985Y015823D01*
X012903Y015741D01*
X012903Y015482D01*
X012900Y015475D01*
X012900Y015380D01*
X012830Y015380D01*
X012830Y015723D01*
X012748Y015805D01*
X011767Y015805D01*
X011767Y016624D01*
X011903Y016624D01*
X012003Y016723D01*
X012425Y017146D01*
X012816Y017146D01*
X012896Y017225D01*
X012976Y017146D01*
X013485Y017146D01*
X013567Y017228D01*
X013567Y017332D01*
X015050Y017332D01*
X015050Y014010D01*
X013951Y014010D01*
X013951Y014041D01*
X013869Y014123D01*
X013359Y014123D01*
X013277Y014041D01*
X013277Y013417D01*
X013227Y013413D01*
X013216Y013400D01*
X013213Y013400D01*
X013203Y013404D01*
X013203Y014041D01*
X013121Y014123D01*
X012611Y014123D01*
X012529Y014041D01*
X012529Y013893D01*
X011767Y013893D01*
X011767Y013956D02*
X012529Y013956D01*
X012529Y014035D02*
X011767Y014035D01*
X011767Y014113D02*
X012602Y014113D01*
X012822Y014349D02*
X012903Y014349D01*
X012903Y014427D02*
X012830Y014427D01*
X012830Y014506D02*
X012900Y014506D01*
X012900Y014584D02*
X012830Y014584D01*
X012830Y014663D02*
X012900Y014663D01*
X012903Y014270D02*
X011767Y014270D01*
X011767Y014192D02*
X012951Y014192D01*
X013130Y014113D02*
X013350Y014113D01*
X013277Y014035D02*
X013203Y014035D01*
X013203Y013956D02*
X013277Y013956D01*
X013277Y013878D02*
X013203Y013878D01*
X013203Y013799D02*
X013277Y013799D01*
X013277Y013721D02*
X013203Y013721D01*
X013203Y013642D02*
X013277Y013642D01*
X013277Y013564D02*
X013203Y013564D01*
X013203Y013485D02*
X013277Y013485D01*
X013221Y013407D02*
X013203Y013407D01*
X013951Y014035D02*
X015050Y014035D01*
X015050Y014113D02*
X013878Y014113D01*
X013577Y014270D02*
X015050Y014270D01*
X015050Y014192D02*
X013529Y014192D01*
X013577Y014349D02*
X015050Y014349D01*
X015050Y014427D02*
X013577Y014427D01*
X013580Y014506D02*
X015050Y014506D01*
X015050Y014584D02*
X013580Y014584D01*
X013580Y014663D02*
X015050Y014663D01*
X015050Y014741D02*
X013580Y014741D01*
X013580Y014820D02*
X015050Y014820D01*
X015050Y014898D02*
X013580Y014898D01*
X013580Y014977D02*
X015050Y014977D01*
X015050Y015055D02*
X013580Y015055D01*
X013580Y015134D02*
X015050Y015134D01*
X015050Y015212D02*
X013580Y015212D01*
X013580Y015291D02*
X015050Y015291D01*
X015050Y015369D02*
X013580Y015369D01*
X013580Y015448D02*
X015050Y015448D01*
X015050Y015526D02*
X013577Y015526D01*
X013577Y015605D02*
X015050Y015605D01*
X015050Y015683D02*
X013577Y015683D01*
X013556Y015762D02*
X015050Y015762D01*
X015050Y015840D02*
X011767Y015840D01*
X011767Y015919D02*
X013298Y015919D01*
X013277Y015939D02*
X013359Y015857D01*
X013869Y015857D01*
X013891Y015880D01*
X014436Y015880D01*
X014484Y015860D01*
X014596Y015860D01*
X014699Y015903D01*
X014777Y015981D01*
X014820Y016084D01*
X014820Y016196D01*
X014777Y016299D01*
X014699Y016377D01*
X014596Y016420D01*
X014484Y016420D01*
X014436Y016400D01*
X013951Y016400D01*
X013951Y016607D01*
X013869Y016689D01*
X013359Y016689D01*
X013277Y016607D01*
X013277Y015939D01*
X013277Y015997D02*
X011767Y015997D01*
X011767Y016076D02*
X013277Y016076D01*
X013277Y016154D02*
X011767Y016154D01*
X011767Y016233D02*
X013277Y016233D01*
X013277Y016311D02*
X011767Y016311D01*
X011767Y016390D02*
X013277Y016390D01*
X013277Y016468D02*
X011767Y016468D01*
X011767Y016547D02*
X013277Y016547D01*
X013296Y016625D02*
X011905Y016625D01*
X011983Y016704D02*
X015050Y016704D01*
X015050Y016782D02*
X012062Y016782D01*
X012140Y016861D02*
X015050Y016861D01*
X015050Y016939D02*
X012219Y016939D01*
X012297Y017018D02*
X015050Y017018D01*
X015050Y017096D02*
X012376Y017096D01*
X012131Y017332D02*
X011801Y017332D01*
X011874Y017410D02*
X012209Y017410D01*
X012224Y017489D02*
X011874Y017489D01*
X011874Y017567D02*
X012224Y017567D01*
X012224Y017646D02*
X011874Y017646D01*
X011874Y017724D02*
X012224Y017724D01*
X012250Y017803D02*
X011874Y017803D01*
X011874Y017881D02*
X015050Y017881D01*
X015050Y017803D02*
X013542Y017803D01*
X013567Y017724D02*
X015050Y017724D01*
X015050Y017960D02*
X011874Y017960D01*
X011874Y018038D02*
X015050Y018038D01*
X015050Y018117D02*
X011830Y018117D01*
X011245Y018117D02*
X003171Y018117D01*
X003171Y018195D02*
X015050Y018195D01*
X015050Y018274D02*
X003171Y018274D01*
X003143Y018352D02*
X015050Y018352D01*
X015050Y018431D02*
X003110Y018431D01*
X003078Y018509D02*
X015050Y018509D01*
X015050Y018588D02*
X003026Y018588D01*
X002947Y018666D02*
X015050Y018666D01*
X015050Y018745D02*
X002869Y018745D01*
X003171Y018038D02*
X011201Y018038D01*
X011201Y017960D02*
X003156Y017960D01*
X003123Y017881D02*
X011201Y017881D01*
X011201Y017803D02*
X003091Y017803D01*
X003057Y017724D02*
X011201Y017724D01*
X011185Y017646D02*
X002979Y017646D01*
X002900Y017567D02*
X011106Y017567D01*
X011028Y017489D02*
X002860Y017489D01*
X002860Y017410D02*
X010752Y017410D01*
X010679Y017332D02*
X006521Y017332D01*
X006530Y017323D02*
X006448Y017405D01*
X005332Y017405D01*
X005250Y017323D01*
X005250Y015957D01*
X005332Y015875D01*
X005720Y015875D01*
X005720Y015717D01*
X005663Y015660D01*
X005256Y015660D01*
X005102Y015596D01*
X004984Y015478D01*
X004920Y015324D01*
X004920Y015156D01*
X004984Y015002D01*
X005102Y014884D01*
X005256Y014820D01*
X006154Y014820D01*
X006309Y014884D01*
X006318Y014894D01*
X006552Y014894D01*
X006634Y014976D01*
X006634Y015049D01*
X006635Y015049D01*
X006681Y015003D01*
X006784Y014960D01*
X006896Y014960D01*
X006999Y015003D01*
X007077Y015081D01*
X007120Y015184D01*
X007120Y015296D01*
X007077Y015399D01*
X006999Y015477D01*
X006950Y015497D01*
X006918Y015530D01*
X006822Y015569D01*
X006634Y015569D01*
X006634Y015643D01*
X006560Y015717D01*
X006560Y016474D01*
X006530Y016546D01*
X006530Y017323D01*
X006530Y017253D02*
X010679Y017253D01*
X010679Y017175D02*
X006530Y017175D01*
X006530Y017096D02*
X010679Y017096D01*
X010679Y017018D02*
X006530Y017018D01*
X006530Y016939D02*
X010679Y016939D01*
X010679Y016861D02*
X006530Y016861D01*
X006530Y016782D02*
X010679Y016782D01*
X010679Y016704D02*
X006530Y016704D01*
X006530Y016625D02*
X010679Y016625D01*
X010679Y016547D02*
X006530Y016547D01*
X006560Y016468D02*
X010679Y016468D01*
X010679Y016390D02*
X006560Y016390D01*
X006560Y016311D02*
X010679Y016311D01*
X010679Y016233D02*
X006560Y016233D01*
X006560Y016154D02*
X010679Y016154D01*
X010679Y016076D02*
X006560Y016076D01*
X006560Y015997D02*
X010679Y015997D01*
X010679Y015919D02*
X006560Y015919D01*
X006560Y015840D02*
X010679Y015840D01*
X010679Y015762D02*
X010266Y015762D01*
X010330Y015683D02*
X010679Y015683D01*
X010679Y015605D02*
X010330Y015605D01*
X010330Y015526D02*
X010679Y015526D01*
X010679Y015448D02*
X010330Y015448D01*
X010330Y015369D02*
X010679Y015369D01*
X010679Y015291D02*
X010330Y015291D01*
X010330Y015212D02*
X010679Y015212D01*
X010679Y015134D02*
X010330Y015134D01*
X010330Y015055D02*
X010679Y015055D01*
X010679Y014977D02*
X010330Y014977D01*
X010330Y014898D02*
X010679Y014898D01*
X010679Y014820D02*
X010330Y014820D01*
X010330Y014741D02*
X010679Y014741D01*
X010679Y014663D02*
X010330Y014663D01*
X010330Y014584D02*
X010679Y014584D01*
X010679Y014506D02*
X010330Y014506D01*
X010330Y014427D02*
X010679Y014427D01*
X010679Y014349D02*
X010297Y014349D01*
X009980Y014270D02*
X010679Y014270D01*
X010679Y014192D02*
X009980Y014192D01*
X009980Y014113D02*
X010679Y014113D01*
X010679Y014035D02*
X009980Y014035D01*
X009980Y013956D02*
X010679Y013956D01*
X010679Y013878D02*
X009980Y013878D01*
X009980Y013799D02*
X010679Y013799D01*
X010679Y013721D02*
X009980Y013721D01*
X009980Y013642D02*
X010679Y013642D01*
X010679Y013564D02*
X009980Y013564D01*
X009980Y013485D02*
X010679Y013485D01*
X010679Y013407D02*
X009980Y013407D01*
X010085Y013328D02*
X010679Y013328D01*
X010679Y013250D02*
X010164Y013250D01*
X010242Y013171D02*
X010679Y013171D01*
X010679Y013093D02*
X010285Y013093D01*
X010317Y013014D02*
X010648Y013014D01*
X010569Y012936D02*
X010350Y012936D01*
X010371Y012857D02*
X010491Y012857D01*
X010412Y012779D02*
X010371Y012779D01*
X009300Y013407D02*
X008340Y013407D01*
X008485Y013328D02*
X009195Y013328D01*
X009116Y013250D02*
X008564Y013250D01*
X008642Y013171D02*
X009038Y013171D01*
X009300Y013485D02*
X002918Y013485D01*
X002975Y013564D02*
X009300Y013564D01*
X009300Y013642D02*
X003007Y013642D01*
X003040Y013721D02*
X009300Y013721D01*
X009300Y013799D02*
X003071Y013799D01*
X003071Y013878D02*
X009300Y013878D01*
X009300Y013956D02*
X003071Y013956D01*
X003071Y014035D02*
X009300Y014035D01*
X009300Y014113D02*
X003059Y014113D01*
X003027Y014192D02*
X009300Y014192D01*
X009300Y014270D02*
X002994Y014270D01*
X002962Y014349D02*
X009083Y014349D01*
X009050Y014427D02*
X002886Y014427D01*
X002808Y014506D02*
X009050Y014506D01*
X009050Y014584D02*
X002760Y014584D01*
X002760Y014663D02*
X009050Y014663D01*
X009050Y014741D02*
X002760Y014741D01*
X002760Y014820D02*
X009050Y014820D01*
X009050Y014898D02*
X006557Y014898D01*
X006634Y014977D02*
X006744Y014977D01*
X006936Y014977D02*
X009050Y014977D01*
X009050Y015055D02*
X007051Y015055D01*
X007099Y015134D02*
X009050Y015134D01*
X009050Y015212D02*
X007120Y015212D01*
X007120Y015291D02*
X009050Y015291D01*
X009050Y015369D02*
X007090Y015369D01*
X007028Y015448D02*
X009050Y015448D01*
X009050Y015526D02*
X006922Y015526D01*
X006634Y015605D02*
X009050Y015605D01*
X009050Y015683D02*
X006594Y015683D01*
X006560Y015762D02*
X009114Y015762D01*
X011500Y017018D02*
X011817Y017018D01*
X011895Y017096D02*
X011500Y017096D01*
X011500Y017175D02*
X011974Y017175D01*
X012052Y017253D02*
X011453Y017253D01*
X012845Y017175D02*
X012947Y017175D01*
X013514Y017175D02*
X015050Y017175D01*
X015050Y017253D02*
X013567Y017253D01*
X013567Y017332D02*
X015050Y017332D01*
X015050Y016625D02*
X013932Y016625D01*
X013951Y016547D02*
X015050Y016547D01*
X015050Y016468D02*
X013951Y016468D01*
X014669Y016390D02*
X015050Y016390D01*
X015050Y016311D02*
X014765Y016311D01*
X014805Y016233D02*
X015050Y016233D01*
X015050Y016154D02*
X014820Y016154D01*
X014816Y016076D02*
X015050Y016076D01*
X015050Y015997D02*
X014784Y015997D01*
X014715Y015919D02*
X015050Y015919D01*
X012924Y015762D02*
X012791Y015762D01*
X012830Y015683D02*
X012903Y015683D01*
X012903Y015605D02*
X012830Y015605D01*
X012830Y015526D02*
X012903Y015526D01*
X012900Y015448D02*
X012830Y015448D01*
X012872Y017803D02*
X012920Y017803D01*
X007944Y022670D02*
X020720Y022670D01*
X020641Y022748D02*
X007865Y022748D01*
X007787Y022827D02*
X020563Y022827D01*
X020484Y022905D02*
X007643Y022905D01*
X007037Y022905D02*
X003024Y022905D01*
X002946Y022827D02*
X006893Y022827D01*
X006815Y022748D02*
X006455Y022748D01*
X004739Y022748D02*
X002867Y022748D01*
X002789Y022670D02*
X004654Y022670D01*
X003943Y022591D02*
X002710Y022591D01*
X002632Y022513D02*
X003900Y022513D01*
X003260Y023141D02*
X020249Y023141D01*
X020327Y023062D02*
X003181Y023062D01*
X003103Y022984D02*
X020406Y022984D01*
X020170Y023219D02*
X003338Y023219D01*
X002827Y022434D02*
X002553Y022434D01*
X002475Y022356D02*
X002685Y022356D01*
X002612Y022277D02*
X002396Y022277D01*
X002318Y022199D02*
X002549Y022199D01*
X002481Y022120D02*
X002239Y022120D01*
X002161Y022042D02*
X002413Y022042D01*
X002177Y021963D02*
X002082Y021963D01*
X001654Y021492D02*
X001611Y021492D01*
X001621Y021414D02*
X001533Y021414D01*
X001609Y021335D02*
X001454Y021335D01*
X001376Y021257D02*
X001609Y021257D01*
X001609Y021178D02*
X001297Y021178D01*
X001219Y021100D02*
X001609Y021100D01*
X001640Y021021D02*
X001140Y021021D01*
X001062Y020943D02*
X001672Y020943D01*
X001705Y020864D02*
X000983Y020864D01*
X000905Y020786D02*
X001761Y020786D01*
X001840Y020707D02*
X000826Y020707D01*
X000748Y020629D02*
X001918Y020629D01*
X003996Y017332D02*
X005259Y017332D01*
X005250Y017253D02*
X004030Y017253D01*
X004030Y017175D02*
X005250Y017175D01*
X005250Y017096D02*
X004030Y017096D01*
X004030Y017018D02*
X005250Y017018D01*
X005250Y016939D02*
X004030Y016939D01*
X004030Y016861D02*
X005250Y016861D01*
X005250Y016782D02*
X004030Y016782D01*
X004030Y016704D02*
X005250Y016704D01*
X005250Y016625D02*
X004030Y016625D01*
X004030Y016547D02*
X005250Y016547D01*
X005250Y016468D02*
X004030Y016468D01*
X004030Y016390D02*
X005250Y016390D01*
X005250Y016311D02*
X004030Y016311D01*
X004030Y016233D02*
X005250Y016233D01*
X005250Y016154D02*
X004030Y016154D01*
X004030Y016076D02*
X005250Y016076D01*
X005250Y015997D02*
X004030Y015997D01*
X003967Y015919D02*
X005288Y015919D01*
X005123Y015605D02*
X002760Y015605D01*
X002760Y015683D02*
X005686Y015683D01*
X005720Y015762D02*
X002760Y015762D01*
X002760Y015840D02*
X005720Y015840D01*
X005032Y015526D02*
X002760Y015526D01*
X002760Y015448D02*
X004971Y015448D01*
X004939Y015369D02*
X002760Y015369D01*
X002760Y015291D02*
X004920Y015291D01*
X004920Y015212D02*
X002760Y015212D01*
X002760Y015134D02*
X004929Y015134D01*
X004962Y015055D02*
X002760Y015055D01*
X002760Y014977D02*
X005009Y014977D01*
X005088Y014898D02*
X002760Y014898D01*
X002760Y015919D02*
X002813Y015919D01*
X003404Y011921D02*
X003353Y011870D01*
X003284Y011870D01*
X003181Y011827D01*
X003103Y011749D01*
X003060Y011646D01*
X003060Y011534D01*
X003103Y011431D01*
X003181Y011353D01*
X003284Y011310D01*
X003385Y011310D01*
X003404Y011291D01*
X003776Y011291D01*
X003880Y011395D01*
X003880Y011817D01*
X003776Y011921D01*
X003404Y011921D01*
X003398Y011915D02*
X000280Y011915D01*
X000280Y011837D02*
X003204Y011837D01*
X003112Y011758D02*
X000280Y011758D01*
X000280Y011680D02*
X003074Y011680D01*
X003060Y011601D02*
X000280Y011601D01*
X000280Y011523D02*
X003065Y011523D01*
X003097Y011444D02*
X000280Y011444D01*
X000280Y011366D02*
X003168Y011366D01*
X003400Y011130D02*
X000280Y011130D01*
X000280Y011052D02*
X003322Y011052D01*
X003300Y011030D02*
X003300Y010608D01*
X003404Y010504D01*
X003672Y010504D01*
X003710Y010465D01*
X003735Y010440D01*
X003710Y010415D01*
X003642Y010346D01*
X003404Y010346D01*
X003300Y010242D01*
X003300Y009820D01*
X003404Y009716D01*
X003776Y009716D01*
X003880Y009820D01*
X003880Y010075D01*
X003965Y010160D01*
X004775Y010160D01*
X004843Y010092D01*
X004843Y009824D01*
X004951Y009716D01*
X005365Y009716D01*
X005458Y009809D01*
X005551Y009716D01*
X005965Y009716D01*
X006073Y009824D01*
X006073Y010239D01*
X006043Y010269D01*
X006070Y010334D01*
X006070Y010446D01*
X006027Y010549D01*
X006019Y010557D01*
X006073Y010611D01*
X006073Y011026D01*
X005965Y011134D01*
X005551Y011134D01*
X005458Y011041D01*
X005365Y011134D01*
X004951Y011134D01*
X004843Y011026D01*
X004843Y010758D01*
X004805Y010720D01*
X003965Y010720D01*
X003880Y010805D01*
X003880Y011030D01*
X003776Y011134D01*
X003404Y011134D01*
X003300Y011030D01*
X003300Y010973D02*
X000280Y010973D01*
X000280Y010895D02*
X003300Y010895D01*
X003300Y010816D02*
X000280Y010816D01*
X000280Y010738D02*
X003300Y010738D01*
X003300Y010659D02*
X000280Y010659D01*
X000280Y010581D02*
X003327Y010581D01*
X003403Y010345D02*
X000280Y010345D01*
X000280Y010267D02*
X003324Y010267D01*
X003300Y010188D02*
X000280Y010188D01*
X000280Y010110D02*
X003300Y010110D01*
X003300Y010031D02*
X000280Y010031D01*
X000280Y009953D02*
X003300Y009953D01*
X003300Y009874D02*
X000280Y009874D01*
X000280Y009796D02*
X003325Y009796D01*
X003403Y009717D02*
X000280Y009717D01*
X000280Y009639D02*
X008480Y009639D01*
X008480Y009717D02*
X005966Y009717D01*
X006045Y009796D02*
X008480Y009796D01*
X008480Y009874D02*
X006073Y009874D01*
X006073Y009953D02*
X008480Y009953D01*
X008480Y010031D02*
X006073Y010031D01*
X006073Y010110D02*
X008480Y010110D01*
X008480Y010188D02*
X006073Y010188D01*
X006045Y010267D02*
X008480Y010267D01*
X008480Y010345D02*
X006070Y010345D01*
X006070Y010424D02*
X008480Y010424D01*
X008480Y010502D02*
X006047Y010502D01*
X006042Y010581D02*
X008480Y010581D01*
X008480Y010659D02*
X006073Y010659D01*
X006073Y010738D02*
X008480Y010738D01*
X008480Y010816D02*
X006073Y010816D01*
X006073Y010895D02*
X008480Y010895D01*
X008480Y010973D02*
X006073Y010973D01*
X006048Y011052D02*
X008480Y011052D01*
X008480Y011130D02*
X005969Y011130D01*
X005740Y010837D02*
X005758Y010819D01*
X005469Y011052D02*
X005448Y011052D01*
X005369Y011130D02*
X005547Y011130D01*
X005440Y011366D02*
X008489Y011366D01*
X008460Y011287D02*
X000280Y011287D01*
X000280Y011209D02*
X008460Y011209D01*
X008548Y011444D02*
X005473Y011444D01*
X005158Y011606D02*
X004190Y011606D01*
X003900Y011601D02*
X003880Y011601D01*
X003880Y011523D02*
X003900Y011523D01*
X003900Y011444D02*
X003880Y011444D01*
X003850Y011366D02*
X003930Y011366D01*
X003780Y011130D02*
X004947Y011130D01*
X004869Y011052D02*
X003858Y011052D01*
X003880Y010973D02*
X004843Y010973D01*
X004843Y010895D02*
X003880Y010895D01*
X003880Y010816D02*
X004843Y010816D01*
X004822Y010738D02*
X003947Y010738D01*
X003890Y010540D02*
X004879Y010540D01*
X005158Y010819D01*
X004849Y010340D02*
X005158Y010031D01*
X004843Y010031D02*
X003880Y010031D01*
X003880Y009953D02*
X004843Y009953D01*
X004843Y009874D02*
X003880Y009874D01*
X003855Y009796D02*
X004872Y009796D01*
X004950Y009717D02*
X003777Y009717D01*
X003590Y010031D02*
X003590Y010040D01*
X003890Y010340D01*
X004849Y010340D01*
X004825Y010110D02*
X003914Y010110D01*
X003719Y010424D02*
X000280Y010424D01*
X000280Y010502D02*
X003673Y010502D01*
X003890Y010540D02*
X003611Y010819D01*
X003590Y010819D01*
X004450Y011366D02*
X004876Y011366D01*
X004866Y011837D02*
X004461Y011837D01*
X004382Y011915D02*
X004945Y011915D01*
X003998Y011915D02*
X003782Y011915D01*
X003861Y011837D02*
X003919Y011837D01*
X003900Y011758D02*
X003880Y011758D01*
X003880Y011680D02*
X003900Y011680D01*
X005445Y009796D02*
X005472Y009796D01*
X005550Y009717D02*
X005366Y009717D01*
X005255Y009403D02*
X004425Y009403D01*
X004480Y009325D02*
X005200Y009325D01*
X005200Y009246D02*
X004480Y009246D01*
X004480Y009168D02*
X005200Y009168D01*
X005200Y009089D02*
X004480Y009089D01*
X004480Y009011D02*
X005200Y009011D01*
X005200Y008932D02*
X004480Y008932D01*
X004480Y008854D02*
X005200Y008854D01*
X005200Y008775D02*
X004480Y008775D01*
X004480Y008697D02*
X005200Y008697D01*
X005163Y008618D02*
X004517Y008618D01*
X004595Y008540D02*
X005085Y008540D01*
X005006Y008461D02*
X004674Y008461D01*
X004720Y008383D02*
X004960Y008383D01*
X004960Y008304D02*
X004720Y008304D01*
X004720Y008226D02*
X004960Y008226D01*
X004875Y008147D02*
X004805Y008147D01*
X004540Y008340D02*
X004540Y007890D01*
X004840Y007590D01*
X005140Y007590D01*
X005840Y006890D01*
X006240Y006890D01*
X006344Y006994D01*
X006344Y007290D01*
X006029Y007290D02*
X005740Y007290D01*
X005140Y007890D01*
X005140Y008340D01*
X005690Y008890D01*
X006180Y008854D02*
X008480Y008854D01*
X008480Y008932D02*
X006180Y008932D01*
X006180Y009011D02*
X008480Y009011D01*
X008480Y009089D02*
X006180Y009089D01*
X006180Y009168D02*
X008480Y009168D01*
X008480Y009246D02*
X006180Y009246D01*
X006180Y009325D02*
X008480Y009325D01*
X008480Y009403D02*
X006125Y009403D01*
X006180Y008775D02*
X008480Y008775D01*
X008480Y008697D02*
X006180Y008697D01*
X006180Y008618D02*
X008480Y008618D01*
X008480Y008540D02*
X006180Y008540D01*
X006180Y008461D02*
X008480Y008461D01*
X008480Y008383D02*
X006131Y008383D01*
X006375Y008147D02*
X006375Y007733D01*
X006428Y007680D01*
X005861Y007680D01*
X005779Y007598D01*
X005779Y007506D01*
X005455Y007830D01*
X005455Y008097D01*
X005455Y008069D02*
X006375Y008069D01*
X006375Y007990D02*
X005455Y007990D01*
X005455Y007912D02*
X006375Y007912D01*
X006375Y007833D02*
X005455Y007833D01*
X005530Y007755D02*
X006375Y007755D01*
X006453Y008226D02*
X005320Y008226D01*
X005359Y008304D02*
X008480Y008304D01*
X008480Y008226D02*
X007577Y008226D01*
X007655Y007990D02*
X008480Y007990D01*
X008480Y007912D02*
X007655Y007912D01*
X007655Y007833D02*
X008480Y007833D01*
X008480Y007755D02*
X007655Y007755D01*
X007598Y007676D02*
X007747Y007676D01*
X007669Y007598D02*
X007539Y007598D01*
X007539Y007519D02*
X007669Y007519D01*
X007669Y007441D02*
X007539Y007441D01*
X007539Y007362D02*
X007669Y007362D01*
X007669Y007284D02*
X007539Y007284D01*
X007539Y007205D02*
X007669Y007205D01*
X007669Y007127D02*
X007539Y007127D01*
X007539Y007048D02*
X007669Y007048D01*
X007681Y006970D02*
X007526Y006970D01*
X007051Y006970D02*
X006897Y006970D01*
X006909Y007048D02*
X007039Y007048D01*
X007039Y007127D02*
X006909Y007127D01*
X006909Y007205D02*
X007039Y007205D01*
X007039Y007284D02*
X006909Y007284D01*
X006909Y007362D02*
X007039Y007362D01*
X007039Y007441D02*
X006909Y007441D01*
X006909Y007519D02*
X007039Y007519D01*
X007039Y007598D02*
X006909Y007598D01*
X006496Y006891D02*
X008452Y006891D01*
X008471Y006970D02*
X008480Y006970D01*
X008431Y006813D02*
X006417Y006813D01*
X006339Y006734D02*
X008431Y006734D01*
X007730Y006499D02*
X006777Y006499D01*
X006810Y006420D02*
X007651Y006420D01*
X007573Y006342D02*
X006820Y006342D01*
X006811Y006263D02*
X007494Y006263D01*
X007416Y006185D02*
X006779Y006185D01*
X006702Y006106D02*
X007350Y006106D01*
X007350Y006028D02*
X006320Y006028D01*
X006316Y006106D02*
X006378Y006106D01*
X006305Y005949D02*
X007350Y005949D01*
X007350Y005871D02*
X006266Y005871D01*
X006173Y005792D02*
X007350Y005792D01*
X007350Y005714D02*
X005831Y005714D01*
X005831Y005792D02*
X005907Y005792D01*
X005831Y005635D02*
X007350Y005635D01*
X007350Y005557D02*
X005831Y005557D01*
X005831Y005478D02*
X007350Y005478D01*
X007350Y005400D02*
X005831Y005400D01*
X005831Y005321D02*
X007350Y005321D01*
X007347Y005243D02*
X005831Y005243D01*
X005831Y005164D02*
X007288Y005164D01*
X007260Y005086D02*
X005831Y005086D01*
X005831Y005007D02*
X007260Y005007D01*
X007283Y004929D02*
X005831Y004929D01*
X005831Y004850D02*
X007334Y004850D01*
X007457Y004772D02*
X005831Y004772D01*
X005831Y004693D02*
X008431Y004693D01*
X008431Y004615D02*
X005831Y004615D01*
X005831Y004536D02*
X008431Y004536D01*
X008431Y004458D02*
X005831Y004458D01*
X005831Y004379D02*
X008431Y004379D01*
X008460Y004301D02*
X005802Y004301D01*
X005929Y004090D02*
X002790Y004090D01*
X002390Y004490D01*
X002390Y005458D01*
X002975Y006042D01*
X003390Y006540D02*
X002472Y006540D01*
X001975Y006042D01*
X001465Y006028D02*
X000770Y006028D01*
X000770Y006106D02*
X001465Y006106D01*
X001465Y006185D02*
X000770Y006185D01*
X000770Y006263D02*
X001474Y006263D01*
X001465Y006254D02*
X001465Y005831D01*
X001743Y005552D01*
X001663Y005552D01*
X001365Y005254D01*
X001365Y004831D01*
X001650Y004546D01*
X001650Y003422D01*
X001702Y003297D01*
X001797Y003202D01*
X001922Y003150D01*
X002058Y003150D01*
X002183Y003202D01*
X002331Y003350D01*
X003632Y003350D01*
X003682Y003300D01*
X004298Y003300D01*
X004348Y003350D01*
X004350Y003350D01*
X004350Y002919D01*
X004250Y002819D01*
X004250Y002168D01*
X004076Y002096D01*
X003933Y001953D01*
X003855Y001765D01*
X003855Y001562D01*
X003933Y001375D01*
X004076Y001231D01*
X004264Y001154D01*
X004467Y001154D01*
X004654Y001231D01*
X004798Y001375D01*
X004855Y001514D01*
X004855Y001462D01*
X004933Y001275D01*
X005076Y001131D01*
X005264Y001054D01*
X005467Y001054D01*
X005654Y001131D01*
X005798Y001275D01*
X005875Y001462D01*
X005875Y001514D01*
X005933Y001375D01*
X006076Y001231D01*
X006264Y001154D01*
X006467Y001154D01*
X006654Y001231D01*
X006798Y001375D01*
X006855Y001514D01*
X006855Y001462D01*
X006933Y001275D01*
X007076Y001131D01*
X007175Y001090D01*
X007175Y001030D01*
X000770Y001030D01*
X000770Y007865D01*
X000830Y007925D01*
X001097Y007925D01*
X001190Y008018D01*
X001283Y007925D01*
X001697Y007925D01*
X001805Y008033D01*
X001805Y008050D01*
X001821Y008050D01*
X001821Y008025D01*
X001928Y007917D01*
X001946Y007917D01*
X001946Y007703D01*
X002380Y007269D01*
X002365Y007254D01*
X002365Y006831D01*
X002476Y006720D01*
X002398Y006720D01*
X002208Y006530D01*
X002186Y006552D01*
X001763Y006552D01*
X001465Y006254D01*
X001553Y006342D02*
X000770Y006342D01*
X000770Y006420D02*
X001631Y006420D01*
X001710Y006499D02*
X000770Y006499D01*
X000770Y006577D02*
X002255Y006577D01*
X002333Y006656D02*
X000770Y006656D01*
X000770Y006734D02*
X002462Y006734D01*
X002383Y006813D02*
X000770Y006813D01*
X000770Y006891D02*
X002365Y006891D01*
X002365Y006970D02*
X000770Y006970D01*
X000770Y007048D02*
X002365Y007048D01*
X002365Y007127D02*
X000770Y007127D01*
X000770Y007205D02*
X002365Y007205D01*
X002365Y007284D02*
X000770Y007284D01*
X000770Y007362D02*
X002286Y007362D01*
X002208Y007441D02*
X000770Y007441D01*
X000770Y007519D02*
X002129Y007519D01*
X002051Y007598D02*
X000770Y007598D01*
X000770Y007676D02*
X001972Y007676D01*
X001946Y007755D02*
X000770Y007755D01*
X000770Y007833D02*
X001946Y007833D01*
X001946Y007912D02*
X000816Y007912D01*
X000590Y007940D02*
X000590Y000788D01*
X000400Y000768D02*
X000280Y000768D01*
X000280Y000690D02*
X000420Y000690D01*
X000499Y000611D02*
X000280Y000611D01*
X000280Y000533D02*
X020413Y000533D01*
X020492Y000611D02*
X000681Y000611D01*
X000400Y000847D02*
X000280Y000847D01*
X000280Y000925D02*
X000410Y000925D01*
X000410Y001004D02*
X000280Y001004D01*
X000280Y001082D02*
X000410Y001082D01*
X000410Y001161D02*
X000280Y001161D01*
X000280Y001239D02*
X000410Y001239D01*
X000410Y001318D02*
X000280Y001318D01*
X000280Y001396D02*
X000410Y001396D01*
X000410Y001475D02*
X000280Y001475D01*
X000280Y001553D02*
X000410Y001553D01*
X000410Y001632D02*
X000280Y001632D01*
X000280Y001710D02*
X000410Y001710D01*
X000410Y001789D02*
X000280Y001789D01*
X000280Y001867D02*
X000410Y001867D01*
X000410Y001946D02*
X000280Y001946D01*
X000280Y002024D02*
X000410Y002024D01*
X000410Y002103D02*
X000280Y002103D01*
X000280Y002181D02*
X000410Y002181D01*
X000410Y002260D02*
X000280Y002260D01*
X000280Y002338D02*
X000410Y002338D01*
X000410Y002417D02*
X000280Y002417D01*
X000280Y002495D02*
X000410Y002495D01*
X000410Y002574D02*
X000280Y002574D01*
X000280Y002652D02*
X000410Y002652D01*
X000410Y002731D02*
X000280Y002731D01*
X000280Y002809D02*
X000410Y002809D01*
X000410Y002888D02*
X000280Y002888D01*
X000280Y002966D02*
X000410Y002966D01*
X000410Y003045D02*
X000280Y003045D01*
X000280Y003123D02*
X000410Y003123D01*
X000410Y003202D02*
X000280Y003202D01*
X000280Y003280D02*
X000410Y003280D01*
X000410Y003359D02*
X000280Y003359D01*
X000280Y003437D02*
X000410Y003437D01*
X000410Y003516D02*
X000280Y003516D01*
X000280Y003594D02*
X000410Y003594D01*
X000410Y003673D02*
X000280Y003673D01*
X000280Y003751D02*
X000410Y003751D01*
X000410Y003830D02*
X000280Y003830D01*
X000280Y003908D02*
X000410Y003908D01*
X000410Y003987D02*
X000280Y003987D01*
X000280Y004065D02*
X000410Y004065D01*
X000410Y004144D02*
X000280Y004144D01*
X000280Y004222D02*
X000410Y004222D01*
X000410Y004301D02*
X000280Y004301D01*
X000280Y004379D02*
X000410Y004379D01*
X000410Y004458D02*
X000280Y004458D01*
X000280Y004536D02*
X000410Y004536D01*
X000410Y004615D02*
X000280Y004615D01*
X000280Y004693D02*
X000410Y004693D01*
X000410Y004772D02*
X000280Y004772D01*
X000280Y004850D02*
X000410Y004850D01*
X000410Y004929D02*
X000280Y004929D01*
X000280Y005007D02*
X000410Y005007D01*
X000410Y005086D02*
X000280Y005086D01*
X000280Y005164D02*
X000410Y005164D01*
X000410Y005243D02*
X000280Y005243D01*
X000280Y005321D02*
X000410Y005321D01*
X000410Y005400D02*
X000280Y005400D01*
X000280Y005478D02*
X000410Y005478D01*
X000410Y005557D02*
X000280Y005557D01*
X000280Y005635D02*
X000410Y005635D01*
X000410Y005714D02*
X000280Y005714D01*
X000280Y005792D02*
X000410Y005792D01*
X000410Y005871D02*
X000280Y005871D01*
X000280Y005949D02*
X000410Y005949D01*
X000410Y006028D02*
X000280Y006028D01*
X000280Y006106D02*
X000410Y006106D01*
X000410Y006185D02*
X000280Y006185D01*
X000280Y006263D02*
X000410Y006263D01*
X000410Y006342D02*
X000280Y006342D01*
X000280Y006420D02*
X000410Y006420D01*
X000410Y006499D02*
X000280Y006499D01*
X000280Y006577D02*
X000410Y006577D01*
X000410Y006656D02*
X000280Y006656D01*
X000280Y006734D02*
X000410Y006734D01*
X000410Y006813D02*
X000280Y006813D01*
X000280Y006891D02*
X000410Y006891D01*
X000410Y006970D02*
X000280Y006970D01*
X000280Y007048D02*
X000410Y007048D01*
X000410Y007127D02*
X000280Y007127D01*
X000280Y007205D02*
X000410Y007205D01*
X000410Y007284D02*
X000280Y007284D01*
X000280Y007362D02*
X000410Y007362D01*
X000410Y007441D02*
X000280Y007441D01*
X000280Y007519D02*
X000410Y007519D01*
X000410Y007598D02*
X000280Y007598D01*
X000280Y007676D02*
X000410Y007676D01*
X000410Y007755D02*
X000280Y007755D01*
X000280Y007833D02*
X000410Y007833D01*
X000410Y007912D02*
X000280Y007912D01*
X000280Y007990D02*
X000410Y007990D01*
X000464Y008069D02*
X000280Y008069D01*
X000280Y008147D02*
X000542Y008147D01*
X000575Y008226D02*
X000280Y008226D01*
X000280Y008304D02*
X000575Y008304D01*
X000575Y008383D02*
X000280Y008383D01*
X000280Y008461D02*
X000589Y008461D01*
X000667Y008540D02*
X000280Y008540D01*
X000280Y008618D02*
X003500Y008618D01*
X003500Y008540D02*
X002951Y008540D01*
X003029Y008461D02*
X003500Y008461D01*
X003549Y008383D02*
X003051Y008383D01*
X003051Y008304D02*
X004321Y008304D01*
X004360Y008226D02*
X003051Y008226D01*
X003051Y008147D02*
X004275Y008147D01*
X004225Y008069D02*
X003051Y008069D01*
X003016Y007990D02*
X004225Y007990D01*
X004225Y007912D02*
X003020Y007912D01*
X003019Y007833D02*
X004225Y007833D01*
X004225Y007755D02*
X002987Y007755D01*
X002922Y007676D02*
X004232Y007676D01*
X004310Y007598D02*
X002588Y007598D01*
X002558Y007676D02*
X002510Y007676D01*
X002493Y007755D02*
X002431Y007755D01*
X002461Y007833D02*
X002353Y007833D01*
X002326Y007912D02*
X002460Y007912D01*
X002455Y007990D02*
X002416Y007990D01*
X002429Y008461D02*
X002442Y008461D01*
X002521Y008540D02*
X002351Y008540D01*
X001921Y008540D02*
X001713Y008540D01*
X001791Y008461D02*
X001842Y008461D01*
X001855Y007990D02*
X001762Y007990D01*
X001218Y007990D02*
X001162Y007990D01*
X000890Y008240D02*
X000590Y007940D01*
X001113Y008540D02*
X001267Y008540D01*
X000280Y008697D02*
X003500Y008697D01*
X003500Y008775D02*
X000280Y008775D01*
X000280Y008854D02*
X003500Y008854D01*
X003500Y008932D02*
X000280Y008932D01*
X000280Y009011D02*
X003500Y009011D01*
X003500Y009089D02*
X000280Y009089D01*
X000280Y009168D02*
X003500Y009168D01*
X003500Y009246D02*
X000280Y009246D01*
X000280Y009325D02*
X003500Y009325D01*
X003555Y009403D02*
X000280Y009403D01*
X000280Y009482D02*
X008480Y009482D01*
X008480Y009560D02*
X000280Y009560D01*
X003119Y007519D02*
X004656Y007519D01*
X004735Y007441D02*
X003198Y007441D01*
X003276Y007362D02*
X005113Y007362D01*
X005192Y007284D02*
X003355Y007284D01*
X003385Y007205D02*
X005270Y007205D01*
X005349Y007127D02*
X003385Y007127D01*
X003385Y007048D02*
X005427Y007048D01*
X005506Y006970D02*
X003385Y006970D01*
X003385Y006891D02*
X005072Y006891D01*
X005051Y006813D02*
X003366Y006813D01*
X003288Y006734D02*
X005051Y006734D01*
X005051Y006656D02*
X003529Y006656D01*
X003608Y006577D02*
X005051Y006577D01*
X005051Y006499D02*
X003686Y006499D01*
X003765Y006420D02*
X005051Y006420D01*
X005051Y006342D02*
X003843Y006342D01*
X003922Y006263D02*
X005051Y006263D01*
X005051Y006185D02*
X004000Y006185D01*
X004079Y006106D02*
X005051Y006106D01*
X005051Y006028D02*
X004948Y006028D01*
X004790Y005790D02*
X004823Y005757D01*
X005441Y005757D01*
X006298Y006530D02*
X006320Y006584D01*
X006320Y006696D01*
X006317Y006577D02*
X006381Y006577D01*
X006334Y006530D01*
X006298Y006530D01*
X006381Y006577D02*
X006484Y006620D01*
X006596Y006620D01*
X006699Y006577D01*
X005779Y007519D02*
X005766Y007519D01*
X005779Y007598D02*
X005687Y007598D01*
X005609Y007676D02*
X005857Y007676D01*
X005441Y006702D02*
X005454Y006690D01*
X004632Y006028D02*
X004157Y006028D01*
X004393Y005792D02*
X004510Y005792D01*
X004510Y005846D02*
X004553Y005949D01*
X004519Y005714D02*
X004471Y005714D01*
X004550Y005635D02*
X004551Y005635D01*
X004588Y005092D02*
X005183Y004497D01*
X005441Y004497D01*
X005441Y004812D02*
X005118Y004812D01*
X003390Y006540D01*
X002925Y005092D02*
X002875Y005042D01*
X002925Y005092D02*
X004588Y005092D01*
X004513Y004912D02*
X005051Y004374D01*
X005051Y004329D01*
X005111Y004270D01*
X002865Y004270D01*
X002570Y004565D01*
X002570Y004626D01*
X002663Y004532D01*
X003086Y004532D01*
X003385Y004831D01*
X003385Y004912D01*
X004513Y004912D01*
X004575Y004850D02*
X003385Y004850D01*
X003325Y004772D02*
X004654Y004772D01*
X004732Y004693D02*
X003247Y004693D01*
X003168Y004615D02*
X004811Y004615D01*
X004889Y004536D02*
X003090Y004536D01*
X002834Y004301D02*
X005080Y004301D01*
X005046Y004379D02*
X002756Y004379D01*
X002677Y004458D02*
X004968Y004458D01*
X005030Y003516D02*
X005375Y003516D01*
X005454Y003437D02*
X005030Y003437D01*
X005030Y003359D02*
X005532Y003359D01*
X005611Y003280D02*
X005030Y003280D01*
X005030Y003202D02*
X005739Y003202D01*
X005095Y002966D02*
X009320Y002966D01*
X009320Y002888D02*
X007860Y002888D01*
X007952Y002809D02*
X009360Y002809D01*
X009438Y002731D02*
X008030Y002731D01*
X008109Y002652D02*
X010839Y002652D01*
X010807Y002574D02*
X008187Y002574D01*
X008266Y002495D02*
X010800Y002495D01*
X010800Y002417D02*
X008344Y002417D01*
X008423Y002338D02*
X010800Y002338D01*
X010729Y002260D02*
X008501Y002260D01*
X008580Y002181D02*
X010650Y002181D01*
X010572Y002103D02*
X008658Y002103D01*
X008168Y001632D02*
X007875Y001632D01*
X007875Y001553D02*
X008246Y001553D01*
X008325Y001475D02*
X007875Y001475D01*
X007848Y001396D02*
X008411Y001396D01*
X008089Y001710D02*
X007857Y001710D01*
X007824Y001789D02*
X008011Y001789D01*
X007932Y001867D02*
X007783Y001867D01*
X007854Y001946D02*
X007705Y001946D01*
X007775Y002024D02*
X007586Y002024D01*
X007697Y002103D02*
X006638Y002103D01*
X006726Y002024D02*
X007144Y002024D01*
X007026Y001946D02*
X006800Y001946D01*
X006833Y001867D02*
X006947Y001867D01*
X006906Y001789D02*
X006865Y001789D01*
X006855Y001475D02*
X006839Y001475D01*
X006806Y001396D02*
X006883Y001396D01*
X006915Y001318D02*
X006740Y001318D01*
X006662Y001239D02*
X006969Y001239D01*
X007047Y001161D02*
X006483Y001161D01*
X006247Y001161D02*
X005683Y001161D01*
X005762Y001239D02*
X006069Y001239D01*
X005990Y001318D02*
X005815Y001318D01*
X005848Y001396D02*
X005924Y001396D01*
X005892Y001475D02*
X005875Y001475D01*
X005865Y001789D02*
X005824Y001789D01*
X005783Y001867D02*
X005897Y001867D01*
X005930Y001946D02*
X005705Y001946D01*
X005586Y002024D02*
X006004Y002024D01*
X006092Y002103D02*
X004638Y002103D01*
X004630Y002181D02*
X007618Y002181D01*
X007815Y001318D02*
X018018Y001318D01*
X018025Y001301D02*
X018230Y001095D01*
X018499Y000984D01*
X018789Y000984D01*
X019058Y001095D01*
X019263Y001301D01*
X019374Y001569D01*
X019374Y001860D01*
X019263Y002129D01*
X019058Y002334D01*
X018789Y002445D01*
X018499Y002445D01*
X018230Y002334D01*
X018025Y002129D01*
X017913Y001860D01*
X017913Y001569D01*
X018025Y001301D01*
X018087Y001239D02*
X007762Y001239D01*
X007683Y001161D02*
X018165Y001161D01*
X018263Y001082D02*
X007555Y001082D01*
X007555Y001004D02*
X018452Y001004D01*
X018836Y001004D02*
X020884Y001004D01*
X020963Y001082D02*
X019025Y001082D01*
X019123Y001161D02*
X021041Y001161D01*
X021120Y001239D02*
X019201Y001239D01*
X019270Y001318D02*
X021198Y001318D01*
X021277Y001396D02*
X019303Y001396D01*
X019335Y001475D02*
X021355Y001475D01*
X021434Y001553D02*
X019368Y001553D01*
X019374Y001632D02*
X021512Y001632D01*
X021591Y001710D02*
X019374Y001710D01*
X019374Y001789D02*
X021669Y001789D01*
X021748Y001867D02*
X019372Y001867D01*
X019339Y001946D02*
X021826Y001946D01*
X021905Y002024D02*
X019307Y002024D01*
X019274Y002103D02*
X021983Y002103D01*
X022062Y002181D02*
X019211Y002181D01*
X019132Y002260D02*
X022140Y002260D01*
X022219Y002338D02*
X019048Y002338D01*
X018859Y002417D02*
X022297Y002417D01*
X022376Y002495D02*
X011480Y002495D01*
X011480Y002417D02*
X018429Y002417D01*
X018239Y002338D02*
X011480Y002338D01*
X011480Y002260D02*
X018155Y002260D01*
X018077Y002181D02*
X011480Y002181D01*
X011472Y002103D02*
X018014Y002103D01*
X017981Y002024D02*
X011439Y002024D01*
X011376Y001946D02*
X017949Y001946D01*
X017916Y001867D02*
X011298Y001867D01*
X011219Y001789D02*
X017913Y001789D01*
X017913Y001710D02*
X011141Y001710D01*
X011062Y001632D02*
X017913Y001632D01*
X017920Y001553D02*
X010984Y001553D01*
X010905Y001475D02*
X017953Y001475D01*
X017985Y001396D02*
X010819Y001396D01*
X011473Y002574D02*
X022454Y002574D01*
X022533Y002652D02*
X011441Y002652D01*
X011380Y002731D02*
X022611Y002731D01*
X022690Y002809D02*
X011258Y002809D01*
X011060Y002888D02*
X022768Y002888D01*
X022847Y002966D02*
X011060Y002966D01*
X011060Y003045D02*
X017875Y003045D01*
X017922Y003025D02*
X017797Y003077D01*
X017702Y003172D01*
X017650Y003297D01*
X017650Y003433D01*
X017702Y003558D01*
X018411Y004267D01*
X018536Y004319D01*
X020670Y004319D01*
X020670Y004663D01*
X020661Y004674D01*
X020668Y004735D01*
X020656Y004760D01*
X020670Y004800D01*
X020670Y004831D01*
X020673Y004834D01*
X020670Y004845D01*
X020683Y004865D01*
X020685Y004889D01*
X020703Y004902D01*
X020703Y004925D01*
X020719Y004941D01*
X020727Y004964D01*
X020747Y004973D01*
X020752Y004995D01*
X020772Y005008D01*
X020785Y005028D01*
X020807Y005033D01*
X020816Y005053D01*
X020839Y005061D01*
X020855Y005077D01*
X020878Y005077D01*
X020891Y005095D01*
X020915Y005097D01*
X020935Y005110D01*
X020946Y005107D01*
X020949Y005110D01*
X020980Y005110D01*
X021020Y005124D01*
X021045Y005112D01*
X021106Y005119D01*
X021117Y005110D01*
X021620Y005110D01*
X021620Y006315D01*
X021615Y006310D01*
X020915Y006310D01*
X020815Y006410D01*
X020065Y006410D01*
X019960Y006515D01*
X019960Y006660D01*
X019904Y006660D01*
X019897Y006654D01*
X019831Y006660D01*
X019827Y006660D01*
X019810Y006651D01*
X019780Y006660D01*
X019765Y006660D01*
X019759Y006666D01*
X019756Y006667D01*
X019738Y006669D01*
X019725Y006665D01*
X019713Y006672D01*
X019699Y006673D01*
X019691Y006684D01*
X019675Y006692D01*
X019658Y006697D01*
X019645Y006696D01*
X019634Y006704D01*
X019621Y006708D01*
X019614Y006721D01*
X019601Y006732D01*
X019585Y006740D01*
X019571Y006741D01*
X019563Y006752D01*
X019551Y006759D01*
X019547Y006772D01*
X019535Y006785D01*
X019522Y006797D01*
X019509Y006801D01*
X019502Y006813D01*
X019491Y006821D01*
X019490Y006835D01*
X019482Y006851D01*
X019471Y006864D01*
X019458Y006871D01*
X019454Y006884D01*
X019446Y006895D01*
X019447Y006908D01*
X019442Y006925D01*
X019434Y006941D01*
X019423Y006949D01*
X019422Y006963D01*
X019415Y006975D01*
X019419Y006988D01*
X019417Y007006D01*
X019416Y007009D01*
X019410Y007015D01*
X019410Y007030D01*
X019401Y007060D01*
X019405Y007067D01*
X018943Y007067D01*
X018770Y007139D01*
X018378Y007532D01*
X017879Y007532D01*
X017797Y007614D01*
X017797Y008580D01*
X017879Y008662D01*
X019075Y008662D01*
X019157Y008580D01*
X019157Y008081D01*
X019231Y008007D01*
X019410Y008007D01*
X019410Y009331D01*
X019408Y009353D01*
X019404Y009366D01*
X019397Y009378D01*
X019389Y009389D01*
X019378Y009397D01*
X019366Y009404D01*
X019353Y009408D01*
X019331Y009410D01*
X019003Y009410D01*
X018994Y009403D01*
X018938Y009409D01*
X018918Y009399D01*
X018887Y009410D01*
X018865Y009410D01*
X018859Y009417D01*
X018842Y009413D01*
X018829Y009421D01*
X018812Y009423D01*
X018799Y009440D01*
X018796Y009442D01*
X018793Y009443D01*
X018772Y009443D01*
X018760Y009454D01*
X018745Y009460D01*
X018736Y009479D01*
X018734Y009481D01*
X018731Y009483D01*
X018710Y009488D01*
X018701Y009501D01*
X018688Y009510D01*
X018683Y009531D01*
X018681Y009534D01*
X018679Y009536D01*
X018660Y009545D01*
X018654Y009560D01*
X018733Y009482D02*
X017040Y009482D01*
X016953Y009403D02*
X018907Y009403D01*
X018925Y009403D02*
X018992Y009403D01*
X018994Y009403D02*
X019368Y009403D01*
X019410Y009325D02*
X016834Y009325D01*
X016575Y009246D02*
X019410Y009246D01*
X019410Y009168D02*
X010960Y009168D01*
X010960Y009246D02*
X013145Y009246D01*
X013151Y009246D02*
X013260Y009246D01*
X013288Y009246D02*
X016437Y009246D01*
X016464Y009246D02*
X016565Y009246D01*
X015514Y008775D02*
X019410Y008775D01*
X019410Y008697D02*
X015537Y008697D01*
X015537Y008719D02*
X015537Y008561D01*
X015477Y008415D01*
X015365Y008303D01*
X015219Y008243D01*
X015061Y008243D01*
X014915Y008303D01*
X014838Y008380D01*
X013780Y008380D01*
X013780Y008357D01*
X013698Y008275D01*
X013182Y008275D01*
X013100Y008357D01*
X013100Y008380D01*
X012969Y008380D01*
X013030Y008319D01*
X013030Y008319D01*
X013119Y008230D01*
X013119Y008230D01*
X013144Y008205D01*
X013348Y008205D01*
X013430Y008123D01*
X013430Y007557D01*
X013348Y007475D01*
X012832Y007475D01*
X012750Y007557D01*
X012750Y008050D01*
X012319Y008050D01*
X012130Y007861D01*
X012130Y007557D01*
X012048Y007475D01*
X011532Y007475D01*
X011450Y007557D01*
X011450Y007650D01*
X011446Y007650D01*
X011399Y007603D01*
X011296Y007560D01*
X011184Y007560D01*
X011081Y007603D01*
X011003Y007681D01*
X010960Y007784D01*
X010960Y007896D01*
X011003Y007999D01*
X011081Y008077D01*
X011184Y008120D01*
X011296Y008120D01*
X011399Y008077D01*
X011446Y008030D01*
X011450Y008030D01*
X011450Y008123D01*
X011532Y008205D01*
X011936Y008205D01*
X012006Y008275D01*
X011882Y008275D01*
X011800Y008357D01*
X011800Y008923D01*
X011882Y009005D01*
X012398Y009005D01*
X012480Y008923D01*
X012480Y008900D01*
X013100Y008900D01*
X013100Y008923D01*
X013182Y009005D01*
X013698Y009005D01*
X013780Y008923D01*
X013780Y008900D01*
X014838Y008900D01*
X014915Y008977D01*
X015061Y009037D01*
X015219Y009037D01*
X015365Y008977D01*
X015477Y008865D01*
X015537Y008719D01*
X015537Y008618D02*
X017836Y008618D01*
X017797Y008540D02*
X015529Y008540D01*
X015496Y008461D02*
X017797Y008461D01*
X017797Y008383D02*
X015445Y008383D01*
X015366Y008304D02*
X017797Y008304D01*
X017797Y008226D02*
X013123Y008226D01*
X013153Y008304D02*
X013045Y008304D01*
X013406Y008147D02*
X017797Y008147D01*
X017797Y008069D02*
X013430Y008069D01*
X013430Y007990D02*
X017797Y007990D01*
X017797Y007912D02*
X013430Y007912D01*
X013430Y007833D02*
X017797Y007833D01*
X017797Y007755D02*
X013430Y007755D01*
X013430Y007676D02*
X017797Y007676D01*
X017814Y007598D02*
X013430Y007598D01*
X013392Y007519D02*
X018390Y007519D01*
X018469Y007441D02*
X010960Y007441D01*
X010960Y007519D02*
X011488Y007519D01*
X011450Y007598D02*
X011386Y007598D01*
X011094Y007598D02*
X010960Y007598D01*
X010960Y007676D02*
X011008Y007676D01*
X010972Y007755D02*
X010960Y007755D01*
X010960Y007833D02*
X010960Y007833D01*
X010960Y007912D02*
X010967Y007912D01*
X010960Y007990D02*
X010999Y007990D01*
X010960Y008069D02*
X011073Y008069D01*
X010960Y008147D02*
X011474Y008147D01*
X011450Y008069D02*
X011407Y008069D01*
X010960Y008226D02*
X011957Y008226D01*
X011853Y008304D02*
X010960Y008304D01*
X010960Y008383D02*
X011800Y008383D01*
X011800Y008461D02*
X010960Y008461D01*
X010960Y008540D02*
X011800Y008540D01*
X011800Y008618D02*
X010960Y008618D01*
X010960Y008697D02*
X011800Y008697D01*
X011800Y008775D02*
X010960Y008775D01*
X010960Y008854D02*
X011800Y008854D01*
X011809Y008932D02*
X010960Y008932D01*
X010960Y009011D02*
X014996Y009011D01*
X014870Y008932D02*
X013771Y008932D01*
X013727Y008304D02*
X014914Y008304D01*
X015482Y008854D02*
X019410Y008854D01*
X019410Y008932D02*
X015410Y008932D01*
X015284Y009011D02*
X019410Y009011D01*
X019410Y009089D02*
X010960Y009089D01*
X010960Y009325D02*
X012877Y009325D01*
X012753Y009403D02*
X010960Y009403D01*
X010960Y009482D02*
X012661Y009482D01*
X012596Y009560D02*
X010960Y009560D01*
X010960Y009639D02*
X012551Y009639D01*
X012507Y009717D02*
X010960Y009717D01*
X010960Y009796D02*
X012479Y009796D01*
X012462Y009874D02*
X010960Y009874D01*
X010960Y009953D02*
X012447Y009953D01*
X012449Y010031D02*
X010960Y010031D01*
X010960Y010110D02*
X012450Y010110D01*
X012471Y008932D02*
X013109Y008932D01*
X012750Y007990D02*
X012259Y007990D01*
X012180Y007912D02*
X012750Y007912D01*
X012750Y007833D02*
X012130Y007833D01*
X012130Y007755D02*
X012750Y007755D01*
X012750Y007676D02*
X012130Y007676D01*
X012130Y007598D02*
X012750Y007598D01*
X012788Y007519D02*
X012092Y007519D01*
X012355Y007048D02*
X013025Y007048D01*
X013029Y006420D02*
X013037Y006420D01*
X013107Y006342D02*
X020884Y006342D01*
X021620Y006263D02*
X013290Y006263D01*
X013330Y006185D02*
X021620Y006185D01*
X021620Y006106D02*
X013330Y006106D01*
X013330Y006028D02*
X021620Y006028D01*
X021620Y005949D02*
X013330Y005949D01*
X013330Y005871D02*
X021620Y005871D01*
X021620Y005792D02*
X013330Y005792D01*
X013330Y005714D02*
X021620Y005714D01*
X021620Y005635D02*
X013308Y005635D01*
X013120Y005243D02*
X012460Y005243D01*
X012672Y005635D02*
X012008Y005635D01*
X012030Y005714D02*
X012650Y005714D01*
X012650Y005792D02*
X012030Y005792D01*
X012030Y005871D02*
X012650Y005871D01*
X012650Y005949D02*
X012030Y005949D01*
X012096Y006028D02*
X012650Y006028D01*
X012650Y006106D02*
X012175Y006106D01*
X011873Y006342D02*
X010960Y006342D01*
X010960Y006420D02*
X011737Y006420D01*
X011700Y006499D02*
X010960Y006499D01*
X010960Y006577D02*
X011700Y006577D01*
X011700Y006656D02*
X010960Y006656D01*
X010960Y006734D02*
X011700Y006734D01*
X011700Y006813D02*
X010960Y006813D01*
X010960Y006891D02*
X011700Y006891D01*
X011700Y006970D02*
X010960Y006970D01*
X010960Y007048D02*
X011725Y007048D01*
X010960Y007127D02*
X014934Y007127D01*
X014786Y007048D02*
X013655Y007048D01*
X013643Y006420D02*
X014798Y006420D01*
X015282Y006420D02*
X020055Y006420D01*
X019977Y006499D02*
X015361Y006499D01*
X015403Y006577D02*
X019960Y006577D01*
X019960Y006656D02*
X019899Y006656D01*
X019877Y006656D02*
X019819Y006656D01*
X019795Y006656D02*
X015435Y006656D01*
X015437Y006734D02*
X019596Y006734D01*
X019502Y006813D02*
X015437Y006813D01*
X015408Y006891D02*
X019449Y006891D01*
X019418Y006970D02*
X015373Y006970D01*
X015294Y007048D02*
X019405Y007048D01*
X019594Y007048D02*
X020043Y007048D01*
X020065Y007070D02*
X019960Y006965D01*
X019960Y006840D01*
X019840Y006840D01*
X019791Y006845D01*
X019744Y006859D01*
X019701Y006882D01*
X019663Y006913D01*
X019632Y006951D01*
X019609Y006994D01*
X019595Y007041D01*
X019590Y007090D01*
X019590Y009340D01*
X019585Y009389D01*
X019571Y009436D01*
X019548Y009479D01*
X019517Y009517D01*
X019479Y009548D01*
X019436Y009571D01*
X019389Y009585D01*
X019340Y009590D01*
X018940Y009590D01*
X018907Y009594D01*
X018875Y009605D01*
X018846Y009623D01*
X018823Y009646D01*
X018805Y009675D01*
X018794Y009707D01*
X018790Y009740D01*
X018790Y009865D01*
X018794Y009898D01*
X018805Y009930D01*
X018823Y009959D01*
X018846Y009982D01*
X018875Y010000D01*
X018907Y010011D01*
X018940Y010015D01*
X020490Y010015D01*
X020539Y010010D01*
X020586Y009996D01*
X020629Y009973D01*
X020667Y009942D01*
X020698Y009904D01*
X020721Y009861D01*
X020735Y009814D01*
X020736Y009807D01*
X020736Y009607D01*
X020740Y009602D01*
X020740Y009477D01*
X020736Y009473D01*
X020736Y009107D01*
X020740Y009102D01*
X020740Y007090D01*
X020738Y007070D01*
X020065Y007070D01*
X019965Y006970D02*
X019622Y006970D01*
X019690Y006891D02*
X019960Y006891D01*
X019590Y007127D02*
X020740Y007127D01*
X020740Y007205D02*
X019590Y007205D01*
X019590Y007284D02*
X020740Y007284D01*
X020740Y007362D02*
X019590Y007362D01*
X019590Y007441D02*
X020740Y007441D01*
X020740Y007519D02*
X019590Y007519D01*
X019590Y007598D02*
X020740Y007598D01*
X020740Y007676D02*
X019590Y007676D01*
X019590Y007755D02*
X020740Y007755D01*
X020740Y007833D02*
X019590Y007833D01*
X019590Y007912D02*
X020740Y007912D01*
X020740Y007990D02*
X019590Y007990D01*
X019590Y008069D02*
X020740Y008069D01*
X020740Y008147D02*
X019590Y008147D01*
X019590Y008226D02*
X020740Y008226D01*
X020740Y008304D02*
X019590Y008304D01*
X019590Y008383D02*
X020740Y008383D01*
X020740Y008461D02*
X019590Y008461D01*
X019590Y008540D02*
X020740Y008540D01*
X020740Y008618D02*
X019590Y008618D01*
X019590Y008697D02*
X020740Y008697D01*
X020740Y008775D02*
X019590Y008775D01*
X019590Y008854D02*
X020740Y008854D01*
X020740Y008932D02*
X019590Y008932D01*
X019590Y009011D02*
X020740Y009011D01*
X020740Y009089D02*
X019590Y009089D01*
X019590Y009168D02*
X020736Y009168D01*
X020736Y009246D02*
X019590Y009246D01*
X019590Y009325D02*
X020736Y009325D01*
X020736Y009403D02*
X019581Y009403D01*
X019546Y009482D02*
X020740Y009482D01*
X020740Y009560D02*
X019456Y009560D01*
X018831Y009639D02*
X020736Y009639D01*
X020736Y009717D02*
X018793Y009717D01*
X018790Y009796D02*
X020736Y009796D01*
X020714Y009874D02*
X018791Y009874D01*
X018819Y009953D02*
X020654Y009953D01*
X020597Y010502D02*
X020765Y010502D01*
X020762Y010581D02*
X020588Y010581D01*
X020588Y010659D02*
X020736Y010659D01*
X020736Y010738D02*
X020588Y010738D01*
X020588Y010816D02*
X020736Y010816D01*
X020815Y011052D02*
X020588Y011052D01*
X020588Y011130D02*
X023228Y011130D01*
X023228Y011052D02*
X021537Y011052D01*
X021615Y010973D02*
X023228Y010973D01*
X023228Y010895D02*
X021616Y010895D01*
X021616Y010816D02*
X023228Y010816D01*
X023228Y010738D02*
X021616Y010738D01*
X021616Y010659D02*
X023228Y010659D01*
X023228Y010581D02*
X021590Y010581D01*
X021586Y010502D02*
X023228Y010502D01*
X023228Y010424D02*
X021616Y010424D01*
X021616Y010345D02*
X023228Y010345D01*
X023228Y010267D02*
X021616Y010267D01*
X021616Y010188D02*
X023228Y010188D01*
X023228Y010110D02*
X022159Y010110D01*
X022234Y010031D02*
X023228Y010031D01*
X023228Y009953D02*
X022234Y009953D01*
X022234Y009874D02*
X023228Y009874D01*
X023228Y009796D02*
X022234Y009796D01*
X022234Y009717D02*
X023228Y009717D01*
X023228Y009639D02*
X022234Y009639D01*
X022173Y009560D02*
X023228Y009560D01*
X023228Y009482D02*
X022768Y009482D01*
X022826Y009403D02*
X023228Y009403D01*
X023228Y009325D02*
X022826Y009325D01*
X022826Y009246D02*
X023228Y009246D01*
X023228Y009168D02*
X022826Y009168D01*
X022826Y009089D02*
X023228Y009089D01*
X023228Y009011D02*
X022826Y009011D01*
X022749Y008932D02*
X023228Y008932D01*
X023228Y008854D02*
X022711Y008854D01*
X022711Y008775D02*
X023228Y008775D01*
X023228Y008697D02*
X022711Y008697D01*
X022711Y008618D02*
X023228Y008618D01*
X023228Y008540D02*
X022711Y008540D01*
X022711Y008461D02*
X023228Y008461D01*
X023228Y008383D02*
X022998Y008383D01*
X023113Y008304D02*
X023228Y008304D01*
X023228Y008226D02*
X023176Y008226D01*
X023209Y008147D02*
X023228Y008147D01*
X023221Y008069D02*
X023228Y008069D01*
X023217Y007990D02*
X023228Y007990D01*
X023228Y007912D02*
X023210Y007912D01*
X023210Y007833D02*
X023228Y007833D01*
X023228Y007755D02*
X023210Y007755D01*
X023210Y007676D02*
X023228Y007676D01*
X023228Y007598D02*
X023210Y007598D01*
X023210Y007519D02*
X023228Y007519D01*
X023228Y007441D02*
X023210Y007441D01*
X023210Y007362D02*
X023228Y007362D01*
X023228Y007284D02*
X023210Y007284D01*
X023210Y007205D02*
X023228Y007205D01*
X023228Y007127D02*
X023210Y007127D01*
X023210Y007048D02*
X023228Y007048D01*
X023228Y006970D02*
X023210Y006970D01*
X023210Y006891D02*
X023228Y006891D01*
X023228Y006813D02*
X023210Y006813D01*
X023210Y006734D02*
X023228Y006734D01*
X023228Y006656D02*
X023210Y006656D01*
X023210Y006577D02*
X023228Y006577D01*
X023228Y006499D02*
X023210Y006499D01*
X023210Y006420D02*
X023228Y006420D01*
X023228Y006342D02*
X023210Y006342D01*
X023210Y006263D02*
X023228Y006263D01*
X023228Y006185D02*
X023210Y006185D01*
X023210Y006106D02*
X023228Y006106D01*
X023228Y006028D02*
X023210Y006028D01*
X023210Y005949D02*
X023228Y005949D01*
X023228Y005871D02*
X023210Y005871D01*
X023210Y005792D02*
X023228Y005792D01*
X023228Y005714D02*
X023210Y005714D01*
X023210Y005635D02*
X023228Y005635D01*
X023228Y005557D02*
X023210Y005557D01*
X023210Y005478D02*
X023228Y005478D01*
X023228Y005400D02*
X023210Y005400D01*
X023210Y005321D02*
X023228Y005321D01*
X023228Y005243D02*
X023210Y005243D01*
X023210Y005164D02*
X023228Y005164D01*
X023228Y005086D02*
X023210Y005086D01*
X023210Y005007D02*
X023228Y005007D01*
X023228Y004929D02*
X023210Y004929D01*
X023210Y004850D02*
X023228Y004850D01*
X023228Y004772D02*
X023210Y004772D01*
X023210Y004693D02*
X023228Y004693D01*
X023228Y004615D02*
X023210Y004615D01*
X023210Y004536D02*
X023228Y004536D01*
X023228Y004458D02*
X023210Y004458D01*
X023210Y004379D02*
X023228Y004379D01*
X023228Y004301D02*
X023210Y004301D01*
X023210Y004222D02*
X023228Y004222D01*
X023228Y004144D02*
X023210Y004144D01*
X023212Y004065D02*
X023228Y004065D01*
X023216Y003987D02*
X023228Y003987D01*
X023228Y003908D02*
X023210Y003908D01*
X023228Y003830D02*
X023180Y003830D01*
X023131Y003751D02*
X023228Y003751D01*
X023228Y003673D02*
X023050Y003673D01*
X023161Y003280D02*
X018386Y003280D01*
X018307Y003202D02*
X023082Y003202D01*
X023004Y003123D02*
X018229Y003123D01*
X018183Y003077D02*
X018744Y003639D01*
X018288Y004144D02*
X013430Y004144D01*
X013430Y004222D02*
X018366Y004222D01*
X018492Y004301D02*
X013430Y004301D01*
X013430Y004379D02*
X020670Y004379D01*
X020670Y004458D02*
X013395Y004458D01*
X013113Y004536D02*
X020670Y004536D01*
X020670Y004615D02*
X015377Y004615D01*
X015455Y004693D02*
X020663Y004693D01*
X020660Y004772D02*
X015500Y004772D01*
X015533Y004850D02*
X020673Y004850D01*
X020707Y004929D02*
X015537Y004929D01*
X015537Y005007D02*
X020771Y005007D01*
X020884Y005086D02*
X015510Y005086D01*
X015477Y005164D02*
X021620Y005164D01*
X021620Y005243D02*
X015400Y005243D01*
X015259Y005321D02*
X021620Y005321D01*
X021620Y005400D02*
X011007Y005400D01*
X011081Y005321D02*
X015021Y005321D01*
X014880Y005243D02*
X013760Y005243D01*
X013738Y004615D02*
X014903Y004615D01*
X013430Y004065D02*
X018209Y004065D01*
X018131Y003987D02*
X013430Y003987D01*
X013430Y003908D02*
X018052Y003908D01*
X017974Y003830D02*
X013403Y003830D01*
X012777Y003830D02*
X012103Y003830D01*
X012130Y003908D02*
X012750Y003908D01*
X012750Y003987D02*
X012130Y003987D01*
X012130Y004065D02*
X012750Y004065D01*
X012750Y004144D02*
X012130Y004144D01*
X012191Y004222D02*
X012750Y004222D01*
X012750Y004301D02*
X012269Y004301D01*
X011967Y004536D02*
X011109Y004536D01*
X011109Y004458D02*
X011485Y004458D01*
X011185Y004379D02*
X011109Y004379D01*
X011071Y004222D02*
X011060Y004222D01*
X011060Y004144D02*
X011060Y004144D01*
X011060Y004065D02*
X011068Y004065D01*
X011060Y003987D02*
X011101Y003987D01*
X011060Y003908D02*
X011176Y003908D01*
X011060Y003830D02*
X011477Y003830D01*
X011060Y003751D02*
X017895Y003751D01*
X017817Y003673D02*
X011060Y003673D01*
X011060Y003594D02*
X017738Y003594D01*
X017684Y003516D02*
X011060Y003516D01*
X011060Y003437D02*
X017652Y003437D01*
X017650Y003359D02*
X011060Y003359D01*
X011060Y003280D02*
X017657Y003280D01*
X017690Y003202D02*
X011060Y003202D01*
X011060Y003123D02*
X017751Y003123D01*
X017922Y003025D02*
X018058Y003025D01*
X018183Y003077D01*
X018105Y003045D02*
X022925Y003045D01*
X020806Y000925D02*
X007624Y000925D01*
X007630Y000847D02*
X020727Y000847D01*
X020649Y000768D02*
X007630Y000768D01*
X007558Y000690D02*
X020570Y000690D01*
X020335Y000454D02*
X000280Y000454D01*
X000280Y000376D02*
X020256Y000376D01*
X020178Y000297D02*
X000280Y000297D01*
X000770Y001082D02*
X005195Y001082D01*
X005047Y001161D02*
X004483Y001161D01*
X004662Y001239D02*
X004969Y001239D01*
X004915Y001318D02*
X004740Y001318D01*
X004806Y001396D02*
X004883Y001396D01*
X004855Y001475D02*
X004839Y001475D01*
X004865Y001789D02*
X004906Y001789D01*
X004947Y001867D02*
X004833Y001867D01*
X004800Y001946D02*
X005026Y001946D01*
X005144Y002024D02*
X004726Y002024D01*
X004630Y002260D02*
X004899Y002260D01*
X004761Y002338D02*
X004630Y002338D01*
X004630Y002417D02*
X004683Y002417D01*
X004250Y002417D02*
X000770Y002417D01*
X000770Y002495D02*
X004250Y002495D01*
X004250Y002574D02*
X000770Y002574D01*
X000770Y002652D02*
X004250Y002652D01*
X004250Y002731D02*
X000770Y002731D01*
X000770Y002809D02*
X004250Y002809D01*
X004319Y002888D02*
X000770Y002888D01*
X000770Y002966D02*
X004350Y002966D01*
X004350Y003045D02*
X000770Y003045D01*
X000770Y003123D02*
X004350Y003123D01*
X004350Y003202D02*
X002182Y003202D01*
X002261Y003280D02*
X004350Y003280D01*
X005030Y003123D02*
X009320Y003123D01*
X009320Y003045D02*
X005030Y003045D01*
X004250Y002338D02*
X000770Y002338D01*
X000770Y002260D02*
X004250Y002260D01*
X004250Y002181D02*
X000770Y002181D01*
X000770Y002103D02*
X004092Y002103D01*
X004004Y002024D02*
X000770Y002024D01*
X000770Y001946D02*
X003930Y001946D01*
X003897Y001867D02*
X000770Y001867D01*
X000770Y001789D02*
X003865Y001789D01*
X003855Y001710D02*
X000770Y001710D01*
X000770Y001632D02*
X003855Y001632D01*
X003859Y001553D02*
X000770Y001553D01*
X000770Y001475D02*
X003892Y001475D01*
X003924Y001396D02*
X000770Y001396D01*
X000770Y001318D02*
X003990Y001318D01*
X004069Y001239D02*
X000770Y001239D01*
X000770Y001161D02*
X004247Y001161D01*
X005535Y001082D02*
X007175Y001082D01*
X006941Y003202D02*
X009320Y003202D01*
X009320Y003280D02*
X007069Y003280D01*
X007148Y003359D02*
X009320Y003359D01*
X009320Y003437D02*
X007198Y003437D01*
X007214Y003516D02*
X009320Y003516D01*
X009320Y003594D02*
X008476Y003594D01*
X008484Y003602D02*
X008402Y003520D01*
X007436Y003520D01*
X007354Y003602D01*
X007354Y004218D01*
X007436Y004300D01*
X008402Y004300D01*
X008484Y004218D01*
X008484Y003602D01*
X008484Y003673D02*
X009320Y003673D01*
X009320Y003751D02*
X008484Y003751D01*
X008484Y003830D02*
X009320Y003830D01*
X009320Y003908D02*
X008484Y003908D01*
X008484Y003987D02*
X009320Y003987D01*
X009320Y004065D02*
X008484Y004065D01*
X008484Y004144D02*
X009320Y004144D01*
X009320Y004222D02*
X008480Y004222D01*
X009182Y004301D02*
X009320Y004301D01*
X009760Y004301D02*
X010479Y004301D01*
X010479Y004282D02*
X010587Y004174D01*
X010620Y004174D01*
X010620Y003160D01*
X009760Y003160D01*
X009760Y004631D01*
X009736Y004655D01*
X009974Y004655D01*
X010074Y004755D01*
X010074Y005381D01*
X010388Y005381D01*
X010481Y005474D01*
X010566Y005389D01*
X010475Y005297D01*
X010475Y004883D01*
X010570Y004787D01*
X010479Y004696D01*
X010479Y004282D01*
X010539Y004222D02*
X009760Y004222D01*
X009760Y004144D02*
X010620Y004144D01*
X010620Y004065D02*
X009760Y004065D01*
X009760Y003987D02*
X010620Y003987D01*
X010620Y003908D02*
X009760Y003908D01*
X009760Y003830D02*
X010620Y003830D01*
X010620Y003751D02*
X009760Y003751D01*
X009760Y003673D02*
X010620Y003673D01*
X010620Y003594D02*
X009760Y003594D01*
X009760Y003516D02*
X010620Y003516D01*
X010620Y003437D02*
X009760Y003437D01*
X009760Y003359D02*
X010620Y003359D01*
X010620Y003280D02*
X009760Y003280D01*
X009760Y003202D02*
X010620Y003202D01*
X011020Y002809D02*
X011022Y002809D01*
X010479Y004379D02*
X009760Y004379D01*
X009760Y004458D02*
X010479Y004458D01*
X010479Y004536D02*
X009760Y004536D01*
X009760Y004615D02*
X010479Y004615D01*
X010479Y004693D02*
X010012Y004693D01*
X010074Y004772D02*
X010554Y004772D01*
X010508Y004850D02*
X010074Y004850D01*
X010074Y004929D02*
X010475Y004929D01*
X010475Y005007D02*
X010074Y005007D01*
X010074Y005086D02*
X010475Y005086D01*
X010475Y005164D02*
X010074Y005164D01*
X010074Y005243D02*
X010475Y005243D01*
X010499Y005321D02*
X010074Y005321D01*
X010407Y005400D02*
X010555Y005400D01*
X011034Y004772D02*
X011800Y004772D01*
X011800Y004850D02*
X011072Y004850D01*
X011105Y004929D02*
X011800Y004929D01*
X011800Y005007D02*
X011105Y005007D01*
X011105Y005086D02*
X011800Y005086D01*
X011800Y005164D02*
X011105Y005164D01*
X011105Y005243D02*
X011820Y005243D01*
X011372Y005635D02*
X011096Y005635D01*
X011096Y005557D02*
X021620Y005557D01*
X021620Y005478D02*
X011085Y005478D01*
X010973Y006028D02*
X010360Y006028D01*
X010360Y006106D02*
X011010Y006106D01*
X011099Y006185D02*
X010896Y006185D01*
X010960Y006263D02*
X011390Y006263D01*
X010584Y006185D02*
X010360Y006185D01*
X010451Y005949D02*
X010511Y005949D01*
X010520Y006734D02*
X010074Y006734D01*
X010074Y006813D02*
X010520Y006813D01*
X010520Y006891D02*
X010074Y006891D01*
X010074Y006970D02*
X010520Y006970D01*
X010520Y007048D02*
X010074Y007048D01*
X010074Y007127D02*
X010520Y007127D01*
X010520Y007205D02*
X010074Y007205D01*
X010074Y007284D02*
X010520Y007284D01*
X010520Y007362D02*
X010074Y007362D01*
X010074Y007441D02*
X010520Y007441D01*
X010520Y007519D02*
X010074Y007519D01*
X010074Y007598D02*
X010520Y007598D01*
X010520Y007676D02*
X010074Y007676D01*
X010074Y007755D02*
X010520Y007755D01*
X010520Y007833D02*
X010074Y007833D01*
X010074Y007912D02*
X010520Y007912D01*
X010520Y007990D02*
X010074Y007990D01*
X010074Y008069D02*
X010520Y008069D01*
X010520Y008147D02*
X010074Y008147D01*
X010074Y008226D02*
X010520Y008226D01*
X010520Y008304D02*
X010074Y008304D01*
X010074Y008383D02*
X010520Y008383D01*
X010520Y008461D02*
X010074Y008461D01*
X010074Y008540D02*
X010520Y008540D01*
X010520Y008618D02*
X010074Y008618D01*
X010074Y008697D02*
X010520Y008697D01*
X010520Y008775D02*
X010074Y008775D01*
X010074Y008854D02*
X010520Y008854D01*
X010520Y008932D02*
X010074Y008932D01*
X010074Y009011D02*
X010520Y009011D01*
X010520Y009089D02*
X010074Y009089D01*
X010074Y009168D02*
X010520Y009168D01*
X010520Y009246D02*
X010074Y009246D01*
X010074Y009325D02*
X010520Y009325D01*
X010520Y009403D02*
X010074Y009403D01*
X010074Y009482D02*
X010520Y009482D01*
X010520Y009560D02*
X010074Y009560D01*
X010074Y009639D02*
X010520Y009639D01*
X010520Y009717D02*
X010074Y009717D01*
X010074Y009796D02*
X010520Y009796D01*
X010520Y009874D02*
X010074Y009874D01*
X008480Y007676D02*
X008406Y007676D01*
X008157Y005757D02*
X008140Y005740D01*
X008157Y005757D02*
X008821Y005757D01*
X008431Y005557D02*
X008352Y005557D01*
X008431Y005478D02*
X008239Y005478D01*
X008120Y005400D02*
X008431Y005400D01*
X008431Y005321D02*
X008094Y005321D01*
X008038Y005243D02*
X008431Y005243D01*
X008431Y005164D02*
X007905Y005164D01*
X007820Y005086D02*
X008431Y005086D01*
X008431Y005007D02*
X007820Y005007D01*
X007797Y004929D02*
X008431Y004929D01*
X008431Y004850D02*
X007746Y004850D01*
X007623Y004772D02*
X008431Y004772D01*
X007358Y004222D02*
X007220Y004222D01*
X007224Y004144D02*
X007354Y004144D01*
X007354Y004065D02*
X007224Y004065D01*
X007224Y003987D02*
X007354Y003987D01*
X007354Y003908D02*
X007224Y003908D01*
X007224Y003830D02*
X007354Y003830D01*
X007354Y003751D02*
X007224Y003751D01*
X007224Y003673D02*
X007354Y003673D01*
X007362Y003594D02*
X007216Y003594D01*
X006029Y003910D02*
X006029Y003990D01*
X005929Y004090D01*
X006029Y004051D02*
X006029Y003990D01*
X002660Y004536D02*
X002599Y004536D01*
X002581Y004615D02*
X002570Y004615D01*
X001650Y004536D02*
X000770Y004536D01*
X000770Y004458D02*
X001650Y004458D01*
X001650Y004379D02*
X000770Y004379D01*
X000770Y004301D02*
X001650Y004301D01*
X001650Y004222D02*
X000770Y004222D01*
X000770Y004144D02*
X001650Y004144D01*
X001650Y004065D02*
X000770Y004065D01*
X000770Y003987D02*
X001650Y003987D01*
X001650Y003908D02*
X000770Y003908D01*
X000770Y003830D02*
X001650Y003830D01*
X001650Y003751D02*
X000770Y003751D01*
X000770Y003673D02*
X001650Y003673D01*
X001650Y003594D02*
X000770Y003594D01*
X000770Y003516D02*
X001650Y003516D01*
X001650Y003437D02*
X000770Y003437D01*
X000770Y003359D02*
X001676Y003359D01*
X001719Y003280D02*
X000770Y003280D01*
X000770Y003202D02*
X001798Y003202D01*
X001581Y004615D02*
X000770Y004615D01*
X000770Y004693D02*
X001503Y004693D01*
X001424Y004772D02*
X000770Y004772D01*
X000770Y004850D02*
X001365Y004850D01*
X001365Y004929D02*
X000770Y004929D01*
X000770Y005007D02*
X001365Y005007D01*
X001365Y005086D02*
X000770Y005086D01*
X000770Y005164D02*
X001365Y005164D01*
X001365Y005243D02*
X000770Y005243D01*
X000770Y005321D02*
X001432Y005321D01*
X001511Y005400D02*
X000770Y005400D01*
X000770Y005478D02*
X001589Y005478D01*
X001739Y005557D02*
X000770Y005557D01*
X000770Y005635D02*
X001661Y005635D01*
X001582Y005714D02*
X000770Y005714D01*
X000770Y005792D02*
X001504Y005792D01*
X001465Y005871D02*
X000770Y005871D01*
X000770Y005949D02*
X001465Y005949D01*
X003990Y008890D02*
X004540Y008340D01*
X005758Y010031D02*
X005740Y010049D01*
X008336Y012072D02*
X009344Y012072D01*
X009196Y012151D02*
X008484Y012151D01*
X008562Y012229D02*
X009118Y012229D01*
X009039Y012308D02*
X008641Y012308D01*
X010960Y007362D02*
X018547Y007362D01*
X018626Y007284D02*
X010960Y007284D01*
X010960Y007205D02*
X018704Y007205D01*
X018801Y007127D02*
X015146Y007127D01*
X013142Y004615D02*
X013034Y004615D01*
X011842Y004615D02*
X011109Y004615D01*
X011109Y004693D02*
X011800Y004693D01*
X018533Y009953D02*
X018615Y009953D01*
X019119Y008618D02*
X019410Y008618D01*
X019410Y008540D02*
X019157Y008540D01*
X019157Y008461D02*
X019410Y008461D01*
X019410Y008383D02*
X019157Y008383D01*
X019157Y008304D02*
X019410Y008304D01*
X019410Y008226D02*
X019157Y008226D01*
X019157Y008147D02*
X019410Y008147D01*
X019410Y008069D02*
X019170Y008069D01*
X021557Y010031D02*
X021604Y010031D01*
X021616Y010110D02*
X021678Y010110D01*
X022168Y009482D02*
X022254Y009482D01*
X023228Y011209D02*
X020619Y011209D01*
X020698Y011287D02*
X023228Y011287D01*
X023228Y011366D02*
X020713Y011366D01*
X020713Y011444D02*
X023228Y011444D01*
X023228Y011523D02*
X020713Y011523D01*
X020713Y011601D02*
X023228Y011601D01*
X023228Y011680D02*
X020713Y011680D01*
X020672Y011758D02*
X023228Y011758D01*
X023228Y011837D02*
X019898Y011837D01*
X020072Y011758D02*
X020124Y011758D01*
X019566Y012151D02*
X023228Y012151D01*
X023228Y012229D02*
X019627Y012229D01*
X019627Y012308D02*
X023228Y012308D01*
X023228Y012386D02*
X019627Y012386D01*
X019627Y012465D02*
X023228Y012465D01*
X023228Y012543D02*
X019627Y012543D01*
X019627Y012622D02*
X023228Y012622D01*
X023228Y012700D02*
X019627Y012700D01*
X019627Y012779D02*
X023228Y012779D01*
X023228Y012857D02*
X019627Y012857D01*
X019627Y012936D02*
X023228Y012936D01*
X023228Y013014D02*
X019627Y013014D01*
X019627Y013093D02*
X023228Y013093D01*
X023228Y013171D02*
X019627Y013171D01*
X019627Y013250D02*
X023228Y013250D01*
X023228Y013328D02*
X019572Y013328D01*
X019053Y012072D02*
X023228Y012072D01*
X023228Y011994D02*
X019030Y011994D01*
X019030Y011915D02*
X023228Y011915D01*
X023228Y016076D02*
X021724Y016076D01*
X021780Y016154D02*
X023228Y016154D01*
X023228Y016233D02*
X021780Y016233D01*
X021780Y016311D02*
X023228Y016311D01*
X023228Y016390D02*
X021780Y016390D01*
X021780Y016468D02*
X023228Y016468D01*
X023228Y016547D02*
X021780Y016547D01*
X021780Y016625D02*
X023228Y016625D01*
X023228Y016704D02*
X021780Y016704D01*
X021780Y016782D02*
X023228Y016782D01*
X023228Y016861D02*
X021780Y016861D01*
X021780Y016939D02*
X023228Y016939D01*
X023228Y017018D02*
X021780Y017018D01*
X021780Y017096D02*
X023228Y017096D01*
X023228Y017175D02*
X021780Y017175D01*
X021780Y017253D02*
X023228Y017253D01*
X023228Y017332D02*
X021780Y017332D01*
X021780Y017410D02*
X023228Y017410D01*
X023228Y017489D02*
X021780Y017489D01*
X021780Y017567D02*
X023228Y017567D01*
X023228Y017646D02*
X021780Y017646D01*
X021780Y017724D02*
X023228Y017724D01*
D37*
X009640Y012740D02*
X008040Y012740D01*
X006071Y015240D02*
X005340Y015240D01*
X006071Y015240D02*
X006140Y015309D01*
X006140Y016390D01*
X005890Y016640D01*
X008023Y016377D02*
X008023Y016057D01*
X008040Y016040D01*
X008040Y019349D01*
X007593Y019797D01*
X003390Y016640D02*
X002440Y016640D01*
X002440Y018140D01*
X002440Y016640D02*
X002340Y016540D01*
X002340Y013940D01*
D38*
X005340Y013940D02*
X005371Y013971D01*
X006140Y013971D01*
X005340Y013940D02*
X005340Y014640D01*
D39*
X010849Y019077D03*
X012896Y016321D03*
D40*
X013840Y013540D02*
X015886Y013540D01*
X015886Y019797D01*
X013840Y013540D02*
X013840Y012440D01*
X013440Y012440D01*
X018477Y008097D02*
X019037Y007537D01*
X020170Y007537D01*
X007340Y022240D02*
X004990Y022340D01*
X004640Y021990D01*
X002990Y021990D01*
X002340Y021240D01*
D41*
X006659Y007940D02*
X006690Y007940D01*
X006990Y007940D01*
X007290Y007940D02*
X007340Y007940D01*
X007289Y007889D01*
X007289Y007290D01*
X006659Y007290D02*
X006659Y007940D01*
X010781Y005696D02*
X010781Y005099D01*
X010790Y005090D01*
X010790Y004493D01*
X010794Y004489D01*
X021176Y009290D02*
X021838Y009290D01*
X021911Y009216D01*
X021911Y009820D01*
X021919Y009828D01*
X022511Y009216D02*
X022511Y007634D01*
X022414Y007537D01*
D42*
X006974Y003910D02*
X006974Y003524D01*
X006890Y003440D01*
X006490Y003440D01*
X006344Y003586D01*
X006344Y003594D01*
X006190Y003440D01*
X006490Y003440D01*
X006344Y003594D02*
X006344Y003910D01*
X006190Y003440D02*
X005790Y003440D01*
X005440Y003790D01*
X004690Y003790D01*
X004040Y003790D02*
X003940Y003690D01*
X003990Y003690D01*
D43*
X008821Y005127D02*
X009440Y005127D01*
X009440Y009740D01*
X010740Y010340D02*
X010740Y006440D01*
X010740Y006340D01*
X010740Y006440D02*
X010140Y006440D01*
X010140Y005696D01*
X010181Y005696D01*
X009540Y004540D02*
X009040Y004540D01*
X009040Y004497D01*
X009540Y004540D02*
X009540Y002940D01*
X010840Y002940D01*
X010840Y004443D01*
X010790Y004493D01*
X010740Y010340D02*
X013755Y010340D01*
X020923Y004834D02*
X020946Y004857D01*
X020975Y004875D01*
X021007Y004886D01*
X021040Y004890D01*
X021690Y004890D01*
X021723Y004894D01*
X021755Y004905D01*
X021784Y004923D01*
X021807Y004946D01*
X021825Y004975D01*
X021836Y005007D01*
X021840Y005040D01*
X021840Y008040D01*
X021844Y008073D01*
X021855Y008105D01*
X021873Y008134D01*
X021896Y008157D01*
X021925Y008175D01*
X021957Y008186D01*
X021990Y008190D01*
X022840Y008190D01*
X022873Y008186D01*
X022905Y008175D01*
X022934Y008157D01*
X022957Y008134D01*
X022975Y008105D01*
X022986Y008073D01*
X022990Y008040D01*
X022990Y003990D01*
X022986Y003957D01*
X022975Y003925D01*
X022957Y003896D01*
X022934Y003873D01*
X022905Y003855D01*
X022873Y003844D01*
X022840Y003840D01*
X021040Y003840D01*
X021007Y003844D01*
X020975Y003855D01*
X020946Y003873D01*
X020923Y003896D01*
X020905Y003925D01*
X020894Y003957D01*
X020890Y003990D01*
X020890Y004740D01*
X020894Y004773D01*
X020905Y004805D01*
X020923Y004834D01*
X020890Y004737D02*
X022990Y004737D01*
X022990Y004895D02*
X021727Y004895D01*
X021840Y005054D02*
X022990Y005054D01*
X022990Y005212D02*
X021840Y005212D01*
X021840Y005371D02*
X022990Y005371D01*
X022990Y005529D02*
X021840Y005529D01*
X021840Y005688D02*
X022990Y005688D01*
X022990Y005846D02*
X021840Y005846D01*
X021840Y006005D02*
X022990Y006005D01*
X022990Y006163D02*
X021840Y006163D01*
X021840Y006322D02*
X022990Y006322D01*
X022990Y006480D02*
X021840Y006480D01*
X021840Y006639D02*
X022990Y006639D01*
X022990Y006797D02*
X021840Y006797D01*
X021840Y006956D02*
X022990Y006956D01*
X022990Y007114D02*
X021840Y007114D01*
X021840Y007273D02*
X022990Y007273D01*
X022990Y007431D02*
X021840Y007431D01*
X021840Y007590D02*
X022990Y007590D01*
X022990Y007748D02*
X021840Y007748D01*
X021840Y007907D02*
X022990Y007907D01*
X022987Y008065D02*
X021843Y008065D01*
X020890Y004578D02*
X022990Y004578D01*
X022990Y004420D02*
X020890Y004420D01*
X020890Y004261D02*
X022990Y004261D01*
X022990Y004103D02*
X020890Y004103D01*
X020898Y003944D02*
X022982Y003944D01*
D44*
X021244Y003979D02*
X018604Y003979D01*
X017990Y003365D01*
X018288Y010230D02*
X018288Y010888D01*
X018690Y011290D01*
X018690Y012190D01*
X018990Y012490D01*
X018990Y012718D01*
X019015Y012742D01*
X018761Y011510D02*
X019798Y011510D01*
X018761Y011510D02*
X018742Y011508D01*
X018725Y011503D01*
X018708Y011494D01*
X018694Y011482D01*
X013240Y014573D02*
X013240Y015040D01*
X012190Y015040D01*
X013240Y015040D02*
X013240Y015407D01*
X009690Y015040D02*
X009640Y014990D01*
X009640Y012740D01*
X007290Y007940D02*
X007040Y007940D01*
X006990Y007940D01*
X004690Y003790D02*
X004690Y003690D01*
X003940Y003690D01*
X002190Y003690D01*
X001990Y003490D01*
X001990Y003890D01*
X002190Y003690D01*
X002140Y003690D01*
X001990Y003890D02*
X001990Y004940D01*
X001888Y005042D01*
X001875Y005042D01*
X004690Y003690D02*
X004690Y002890D01*
X004990Y002590D01*
X007690Y002590D01*
X008590Y001690D01*
X010640Y001690D01*
X011140Y002190D01*
X011140Y002490D01*
D45*
X012140Y004940D02*
X013440Y004940D01*
X015140Y004940D01*
X015040Y006740D02*
X013340Y006740D01*
X012040Y006740D01*
X012140Y008640D02*
X013440Y008640D01*
X015140Y008640D01*
X018288Y010230D02*
X018348Y010290D01*
X019076Y010290D01*
X014540Y016140D02*
X013747Y016140D01*
X013614Y016273D01*
X008740Y011240D02*
X008740Y006784D01*
X008821Y006702D01*
X003590Y011606D02*
X003574Y011590D01*
X003340Y011590D01*
X002736Y008232D02*
X002736Y007894D01*
X002740Y007890D01*
X006840Y015240D02*
X006771Y015309D01*
X006140Y015309D01*
D46*
X017990Y003365D03*
X011140Y002490D03*
D47*
X017280Y012740D02*
X017283Y012742D01*
X017262Y012762D01*
D48*
X012866Y013707D02*
X012857Y013723D01*
X011597Y013723D01*
X011597Y016794D01*
X011833Y016794D01*
X012542Y017502D01*
X012561Y017502D01*
X013231Y017502D02*
X015240Y017502D01*
X011597Y016794D02*
X011164Y016794D01*
X011164Y016872D01*
X011046Y017266D02*
X010849Y017266D01*
X010849Y013014D01*
X010868Y012994D01*
X009904Y012030D01*
X009904Y004825D01*
X008841Y004825D01*
X008821Y004812D01*
X010868Y012994D02*
X011360Y013486D01*
X011046Y017266D02*
X011518Y017738D01*
X011538Y017738D01*
M02*
