G75*
G70*
%OFA0B0*%
%FSLAX24Y24*%
%IPPOS*%
%LPD*%
%AMOC8*
5,1,8,0,0,1.08239X$1,22.5*
%
%ADD10C,0.0000*%
%ADD11OC8,0.0740*%
%ADD12C,0.1181*%
%ADD13R,0.1181X0.1181*%
%ADD14C,0.1000*%
%ADD15C,0.0740*%
%ADD16C,0.0709*%
%ADD17C,0.0280*%
%ADD18C,0.0080*%
%ADD19C,0.0160*%
%ADD20C,0.0100*%
%ADD21C,0.0320*%
%ADD22C,0.0400*%
%ADD23C,0.0240*%
%ADD24C,0.0800*%
%ADD25C,0.0120*%
%ADD26C,0.0200*%
D10*
X003294Y001045D02*
X000144Y004194D01*
X000144Y021124D01*
X003294Y024273D01*
X020223Y024273D01*
X023373Y021124D01*
X023373Y004194D01*
X020223Y001045D01*
X003294Y001045D01*
D11*
X002879Y015347D03*
X002979Y016347D03*
X001979Y016347D03*
X001879Y015347D03*
X001879Y017347D03*
X002879Y017347D03*
D12*
X007427Y023182D03*
X011959Y023182D03*
D13*
X015891Y020701D03*
X016284Y020701D03*
X007597Y020701D03*
X007203Y020701D03*
D14*
X007625Y011478D03*
X007625Y009706D03*
X007625Y007738D03*
X007625Y005769D03*
X007625Y003998D03*
X005656Y003998D03*
X005656Y005769D03*
X003688Y005769D03*
X003688Y003998D03*
X003688Y007738D03*
X005656Y007738D03*
X005656Y009706D03*
X005656Y011478D03*
X003688Y011478D03*
X003688Y009706D03*
D15*
X001268Y010620D03*
X001168Y011620D03*
X001268Y012620D03*
X001168Y009620D03*
X001268Y008620D03*
X001168Y007620D03*
D16*
X011394Y021545D03*
X013378Y021545D03*
D17*
X013394Y022345D03*
X014394Y023295D03*
X014394Y023795D03*
X013894Y023795D03*
X013394Y023795D03*
X014894Y023795D03*
X015394Y023795D03*
X015894Y023795D03*
X016394Y023795D03*
X016894Y023795D03*
X017394Y023795D03*
X017894Y023795D03*
X018394Y023795D03*
X018894Y023795D03*
X019394Y023795D03*
X019894Y023795D03*
X019894Y023295D03*
X019894Y022795D03*
X019894Y022295D03*
X019394Y022295D03*
X020394Y022295D03*
X020394Y022795D03*
X020394Y023295D03*
X020894Y022795D03*
X020894Y022295D03*
X020894Y021795D03*
X021394Y021795D03*
X021394Y022295D03*
X021894Y021795D03*
X021894Y021295D03*
X021894Y020795D03*
X022394Y020795D03*
X022394Y021295D03*
X022894Y020795D03*
X022944Y020145D03*
X022944Y019545D03*
X022844Y018945D03*
X021144Y016795D03*
X020644Y016795D03*
X020144Y016795D03*
X019644Y016795D03*
X019144Y016795D03*
X019144Y016045D03*
X019144Y015545D03*
X019144Y015045D03*
X018644Y015045D03*
X018644Y015545D03*
X018144Y015545D03*
X018144Y016045D03*
X018644Y016045D03*
X016844Y015795D03*
X016794Y015345D03*
X017994Y014245D03*
X018644Y013545D03*
X018019Y012970D03*
X019144Y013545D03*
X019644Y013545D03*
X020144Y013545D03*
X020144Y013045D03*
X020644Y013045D03*
X020644Y012595D03*
X020644Y013545D03*
X021094Y014645D03*
X021344Y014895D03*
X021594Y014645D03*
X021144Y015795D03*
X020644Y015795D03*
X020644Y016295D03*
X021144Y016295D03*
X019094Y019095D03*
X018394Y019095D03*
X018394Y019645D03*
X017744Y019645D03*
X017744Y020145D03*
X017744Y020695D03*
X017744Y021195D03*
X017744Y019095D03*
X015194Y018795D03*
X013044Y015995D03*
X013044Y015370D03*
X013644Y015370D03*
X014494Y015245D03*
X014494Y014895D03*
X014594Y015695D03*
X015294Y015695D03*
X016694Y013220D03*
X015794Y012945D03*
X015394Y012945D03*
X012044Y014945D03*
X011644Y014945D03*
X011644Y015345D03*
X012044Y015345D03*
X010844Y015045D03*
X010644Y015545D03*
X011444Y014245D03*
X011294Y011795D03*
X011294Y011295D03*
X010894Y011295D03*
X009644Y011295D03*
X009144Y011295D03*
X009644Y010545D03*
X009644Y009795D03*
X009644Y009045D03*
X008188Y008301D03*
X009644Y007045D03*
X009644Y006695D03*
X009694Y006095D03*
X010644Y003545D03*
X010644Y003045D03*
X011144Y003045D03*
X011144Y003545D03*
X009544Y003345D03*
X007044Y003045D03*
X005994Y003045D03*
X004994Y003045D03*
X008154Y010235D03*
X007194Y012345D03*
X008194Y013745D03*
X008944Y013845D03*
X007894Y014795D03*
X007394Y015145D03*
X007394Y015545D03*
X007044Y015795D03*
X007394Y016045D03*
X007044Y016295D03*
X007394Y016545D03*
X007244Y017145D03*
X006844Y017145D03*
X005744Y018545D03*
X006394Y018845D03*
X006994Y018845D03*
X005794Y020695D03*
X005444Y020745D03*
X004494Y021145D03*
X004194Y019995D03*
X003194Y019795D03*
X003894Y018545D03*
X002744Y018195D03*
X004794Y016095D03*
X004994Y015745D03*
X005944Y015045D03*
X006194Y014745D03*
X006644Y015045D03*
X007294Y014745D03*
X005644Y013345D03*
X003694Y012145D03*
X003194Y014695D03*
X003494Y014945D03*
X008944Y012545D03*
X011894Y017045D03*
X011894Y017795D03*
X011894Y018545D03*
X011144Y018545D03*
X011144Y019295D03*
X011144Y020045D03*
X011894Y020045D03*
X011894Y019295D03*
X010394Y019295D03*
X010394Y020045D03*
X009344Y019595D03*
X010394Y018545D03*
X009094Y017495D03*
X005794Y022245D03*
X003344Y021895D03*
X020694Y004095D03*
X021144Y004045D03*
X021144Y004545D03*
X021644Y004545D03*
X021644Y004045D03*
X022144Y004045D03*
X022144Y004545D03*
X022644Y004545D03*
X022644Y004045D03*
X021744Y005995D03*
X021744Y006395D03*
X022094Y006195D03*
X022144Y008795D03*
X022144Y009195D03*
X022144Y009595D03*
X021644Y009595D03*
X021644Y009195D03*
X021644Y008795D03*
X021144Y008795D03*
X021144Y009195D03*
X021144Y009595D03*
X022644Y009595D03*
X022644Y009195D03*
X022644Y008795D03*
X023094Y008795D03*
X023119Y012545D03*
X022644Y012545D03*
X022144Y012545D03*
X022144Y013045D03*
X022644Y013045D03*
X023119Y013045D03*
X017144Y002045D03*
X016644Y002045D03*
X016144Y002045D03*
X015644Y002045D03*
X015144Y002045D03*
X015144Y001545D03*
X015644Y001545D03*
X016144Y001545D03*
X016644Y001545D03*
X017144Y001545D03*
X014644Y001545D03*
X014144Y001545D03*
X014144Y002045D03*
X014644Y002045D03*
D18*
X021281Y002301D02*
X002236Y002301D01*
X002157Y002379D02*
X021359Y002379D01*
X021438Y002458D02*
X002079Y002458D01*
X002000Y002536D02*
X021516Y002536D01*
X021595Y002615D02*
X001922Y002615D01*
X001843Y002693D02*
X021673Y002693D01*
X021752Y002772D02*
X007117Y002772D01*
X007100Y002765D02*
X007203Y002807D01*
X007282Y002886D01*
X007324Y002989D01*
X007324Y003101D01*
X007282Y003203D01*
X007264Y003221D01*
X007264Y003326D01*
X007355Y003417D01*
X007497Y003358D01*
X007752Y003358D01*
X007987Y003455D01*
X008167Y003635D01*
X008265Y003870D01*
X008265Y004125D01*
X008167Y004360D01*
X007987Y004540D01*
X007752Y004638D01*
X007497Y004638D01*
X007262Y004540D01*
X007082Y004360D01*
X006985Y004125D01*
X006985Y003870D01*
X007044Y003728D01*
X006824Y003508D01*
X006824Y003221D01*
X006807Y003203D01*
X006764Y003101D01*
X006764Y002989D01*
X006807Y002886D01*
X006886Y002807D01*
X006989Y002765D01*
X007100Y002765D01*
X006972Y002772D02*
X006067Y002772D01*
X006050Y002765D02*
X006153Y002807D01*
X006232Y002886D01*
X006274Y002989D01*
X006274Y003101D01*
X006232Y003203D01*
X006153Y003282D01*
X006050Y003325D01*
X005969Y003325D01*
X005891Y003402D01*
X006019Y003455D01*
X006199Y003635D01*
X006296Y003870D01*
X006296Y004125D01*
X006199Y004360D01*
X006019Y004540D01*
X005783Y004638D01*
X005529Y004638D01*
X005294Y004540D01*
X005113Y004360D01*
X005016Y004125D01*
X005016Y003870D01*
X005113Y003635D01*
X005294Y003455D01*
X005476Y003379D01*
X005476Y003308D01*
X005714Y003070D01*
X005714Y002989D01*
X005757Y002886D01*
X005836Y002807D01*
X005939Y002765D01*
X006050Y002765D01*
X005922Y002772D02*
X005067Y002772D01*
X005050Y002765D02*
X005153Y002807D01*
X005232Y002886D01*
X005274Y002989D01*
X005274Y003101D01*
X005232Y003203D01*
X005153Y003282D01*
X005050Y003325D01*
X004939Y003325D01*
X004836Y003282D01*
X004778Y003225D01*
X004769Y003225D01*
X004268Y003726D01*
X004328Y003870D01*
X004328Y004125D01*
X004230Y004360D01*
X004050Y004540D01*
X003815Y004638D01*
X003560Y004638D01*
X003325Y004540D01*
X003145Y004360D01*
X003048Y004125D01*
X003048Y003870D01*
X003145Y003635D01*
X003325Y003455D01*
X003560Y003358D01*
X003815Y003358D01*
X004036Y003449D01*
X004620Y002865D01*
X004778Y002865D01*
X004836Y002807D01*
X004939Y002765D01*
X005050Y002765D01*
X004922Y002772D02*
X001765Y002772D01*
X001686Y002850D02*
X004793Y002850D01*
X004694Y003045D02*
X003744Y003995D01*
X003690Y003995D01*
X003688Y003998D01*
X003960Y004577D02*
X005383Y004577D01*
X005252Y004499D02*
X004091Y004499D01*
X004170Y004420D02*
X005174Y004420D01*
X005106Y004342D02*
X004238Y004342D01*
X004270Y004263D02*
X005073Y004263D01*
X005041Y004185D02*
X004303Y004185D01*
X004328Y004106D02*
X005016Y004106D01*
X005016Y004028D02*
X004328Y004028D01*
X004328Y003949D02*
X005016Y003949D01*
X005016Y003871D02*
X004328Y003871D01*
X004295Y003792D02*
X005048Y003792D01*
X005081Y003714D02*
X004280Y003714D01*
X004358Y003635D02*
X005113Y003635D01*
X005192Y003557D02*
X004437Y003557D01*
X004515Y003478D02*
X005270Y003478D01*
X005427Y003400D02*
X004594Y003400D01*
X004672Y003321D02*
X004930Y003321D01*
X005058Y003321D02*
X005476Y003321D01*
X005542Y003243D02*
X005192Y003243D01*
X005248Y003164D02*
X005620Y003164D01*
X005699Y003086D02*
X005274Y003086D01*
X005274Y003007D02*
X005714Y003007D01*
X005739Y002929D02*
X005249Y002929D01*
X005196Y002850D02*
X005793Y002850D01*
X005994Y003045D02*
X005656Y003383D01*
X005656Y003998D01*
X005929Y004577D02*
X007352Y004577D01*
X007221Y004499D02*
X006060Y004499D01*
X006138Y004420D02*
X007142Y004420D01*
X007074Y004342D02*
X006206Y004342D01*
X006239Y004263D02*
X007042Y004263D01*
X007009Y004185D02*
X006271Y004185D01*
X006296Y004106D02*
X006985Y004106D01*
X006985Y004028D02*
X006296Y004028D01*
X006296Y003949D02*
X006985Y003949D01*
X006985Y003871D02*
X006296Y003871D01*
X006264Y003792D02*
X007017Y003792D01*
X007030Y003714D02*
X006231Y003714D01*
X006199Y003635D02*
X006951Y003635D01*
X006873Y003557D02*
X006120Y003557D01*
X006042Y003478D02*
X006824Y003478D01*
X006824Y003400D02*
X005894Y003400D01*
X006058Y003321D02*
X006824Y003321D01*
X006824Y003243D02*
X006192Y003243D01*
X006248Y003164D02*
X006791Y003164D01*
X006764Y003086D02*
X006274Y003086D01*
X006274Y003007D02*
X006764Y003007D01*
X006789Y002929D02*
X006249Y002929D01*
X006196Y002850D02*
X006843Y002850D01*
X007246Y002850D02*
X021830Y002850D01*
X021909Y002929D02*
X007299Y002929D01*
X007324Y003007D02*
X021987Y003007D01*
X022066Y003086D02*
X009651Y003086D01*
X009600Y003065D02*
X009703Y003107D01*
X009782Y003186D01*
X009824Y003289D01*
X009824Y003314D01*
X009914Y003404D01*
X009914Y005919D01*
X009932Y005936D01*
X009974Y006039D01*
X009974Y006151D01*
X009932Y006253D01*
X009853Y006332D01*
X009750Y006375D01*
X009639Y006375D01*
X009536Y006332D01*
X009457Y006253D01*
X009414Y006151D01*
X009414Y006039D01*
X009457Y005936D01*
X009474Y005919D01*
X009474Y003619D01*
X009386Y003582D01*
X009307Y003503D01*
X009264Y003401D01*
X009264Y003289D01*
X009307Y003186D01*
X009386Y003107D01*
X009489Y003065D01*
X009600Y003065D01*
X009438Y003086D02*
X007324Y003086D01*
X007298Y003164D02*
X009329Y003164D01*
X009283Y003243D02*
X007264Y003243D01*
X007264Y003321D02*
X009264Y003321D01*
X009264Y003400D02*
X007854Y003400D01*
X008010Y003478D02*
X009296Y003478D01*
X009360Y003557D02*
X008089Y003557D01*
X008167Y003635D02*
X009474Y003635D01*
X009474Y003714D02*
X008200Y003714D01*
X008232Y003792D02*
X009474Y003792D01*
X009474Y003871D02*
X008265Y003871D01*
X008265Y003949D02*
X009474Y003949D01*
X009474Y004028D02*
X008265Y004028D01*
X008265Y004106D02*
X009474Y004106D01*
X009474Y004185D02*
X008240Y004185D01*
X008207Y004263D02*
X009474Y004263D01*
X009474Y004342D02*
X008175Y004342D01*
X008107Y004420D02*
X009474Y004420D01*
X009474Y004499D02*
X008028Y004499D01*
X007897Y004577D02*
X009474Y004577D01*
X009474Y004656D02*
X000284Y004656D01*
X000284Y004734D02*
X009474Y004734D01*
X009474Y004813D02*
X000284Y004813D01*
X000284Y004891D02*
X009474Y004891D01*
X009474Y004970D02*
X000284Y004970D01*
X000284Y005048D02*
X009474Y005048D01*
X009474Y005127D02*
X000284Y005127D01*
X000284Y005205D02*
X005345Y005205D01*
X005294Y005227D02*
X005529Y005129D01*
X005783Y005129D01*
X006019Y005227D01*
X006199Y005407D01*
X006296Y005642D01*
X006296Y005897D01*
X006220Y006079D01*
X006664Y006523D01*
X006664Y006475D01*
X006770Y006370D01*
X007060Y006079D01*
X006985Y005897D01*
X006985Y005642D01*
X007082Y005407D01*
X007262Y005227D01*
X007497Y005129D01*
X007752Y005129D01*
X007987Y005227D01*
X008167Y005407D01*
X008265Y005642D01*
X008265Y005897D01*
X008167Y006132D01*
X007987Y006312D01*
X007752Y006409D01*
X007497Y006409D01*
X007315Y006334D01*
X007024Y006624D01*
X007024Y007515D01*
X007082Y007375D01*
X007262Y007195D01*
X007497Y007098D01*
X007752Y007098D01*
X007987Y007195D01*
X008167Y007375D01*
X008265Y007610D01*
X008265Y007865D01*
X008200Y008021D01*
X008244Y008021D01*
X008347Y008064D01*
X008425Y008142D01*
X008468Y008245D01*
X008468Y008327D01*
X008828Y008687D01*
X008828Y014811D01*
X008824Y014815D01*
X008824Y014860D01*
X010064Y013620D01*
X010064Y005020D01*
X011064Y004020D01*
X011170Y003915D01*
X020478Y003915D01*
X020536Y003857D01*
X020639Y003815D01*
X020750Y003815D01*
X020853Y003857D01*
X020932Y003936D01*
X020974Y004039D01*
X020974Y004151D01*
X020932Y004253D01*
X020853Y004332D01*
X020750Y004375D01*
X020639Y004375D01*
X020536Y004332D01*
X020478Y004275D01*
X011319Y004275D01*
X010424Y005169D01*
X010424Y012310D01*
X010820Y011915D01*
X015669Y011915D01*
X015774Y012020D01*
X015774Y012045D01*
X016669Y012940D01*
X016750Y012940D01*
X016853Y012982D01*
X016932Y013061D01*
X016974Y013164D01*
X016974Y013276D01*
X016952Y013330D01*
X018062Y013330D01*
X018138Y013361D01*
X018138Y013357D01*
X018031Y013250D01*
X017964Y013250D01*
X017861Y013207D01*
X017782Y013128D01*
X017739Y013026D01*
X017739Y012914D01*
X017782Y012811D01*
X017861Y012732D01*
X017964Y012690D01*
X018075Y012690D01*
X018178Y012732D01*
X018257Y012811D01*
X018299Y012914D01*
X018299Y012981D01*
X018518Y013200D01*
X018518Y014486D01*
X018407Y014597D01*
X018331Y014674D01*
X018219Y014785D01*
X010970Y014785D01*
X008934Y016821D01*
X008934Y017259D01*
X008936Y017257D01*
X009039Y017215D01*
X009120Y017215D01*
X010820Y015515D01*
X014378Y015515D01*
X014436Y015457D01*
X014539Y015415D01*
X014650Y015415D01*
X014753Y015457D01*
X014832Y015536D01*
X014874Y015639D01*
X014874Y015751D01*
X014832Y015853D01*
X014753Y015932D01*
X014650Y015975D01*
X014539Y015975D01*
X014436Y015932D01*
X014378Y015875D01*
X010969Y015875D01*
X009374Y017469D01*
X009374Y017551D01*
X009332Y017653D01*
X009253Y017732D01*
X009150Y017775D01*
X009039Y017775D01*
X008936Y017732D01*
X008934Y017731D01*
X008934Y018916D01*
X009333Y019315D01*
X009400Y019315D01*
X009503Y019357D01*
X009582Y019436D01*
X009624Y019539D01*
X009624Y019651D01*
X009582Y019753D01*
X009503Y019832D01*
X009400Y019875D01*
X009289Y019875D01*
X009186Y019832D01*
X009107Y019753D01*
X009064Y019651D01*
X009064Y019584D01*
X008554Y019074D01*
X008554Y016916D01*
X007334Y018136D01*
X007334Y018312D01*
X007282Y018437D01*
X007187Y018533D01*
X007062Y018585D01*
X006927Y018585D01*
X006802Y018533D01*
X006706Y018437D01*
X006654Y018312D01*
X006654Y017927D01*
X006706Y017802D01*
X006802Y017707D01*
X007114Y017394D01*
X007086Y017382D01*
X007007Y017303D01*
X006964Y017201D01*
X006964Y017089D01*
X007007Y016986D01*
X007086Y016907D01*
X007189Y016865D01*
X007300Y016865D01*
X007385Y016900D01*
X007467Y016818D01*
X007450Y016825D01*
X007339Y016825D01*
X007236Y016782D01*
X007157Y016703D01*
X007114Y016601D01*
X007114Y016569D01*
X007100Y016575D01*
X006989Y016575D01*
X006886Y016532D01*
X006807Y016453D01*
X006764Y016351D01*
X006764Y016239D01*
X006807Y016136D01*
X006886Y016057D01*
X006916Y016045D01*
X006886Y016032D01*
X006807Y015953D01*
X006764Y015851D01*
X006764Y015739D01*
X006807Y015636D01*
X006886Y015557D01*
X006989Y015515D01*
X007100Y015515D01*
X007114Y015521D01*
X007114Y015489D01*
X007120Y015475D01*
X005074Y015475D01*
X005153Y015507D01*
X005232Y015586D01*
X005274Y015689D01*
X005274Y019920D01*
X005769Y020415D01*
X005850Y020415D01*
X005953Y020457D01*
X006032Y020536D01*
X006074Y020639D01*
X006074Y020751D01*
X006032Y020853D01*
X005953Y020932D01*
X005850Y020975D01*
X005739Y020975D01*
X005648Y020937D01*
X005603Y020982D01*
X005500Y021025D01*
X005389Y021025D01*
X005286Y020982D01*
X005207Y020903D01*
X005164Y020801D01*
X005164Y020719D01*
X004614Y020169D01*
X004614Y016311D01*
X004557Y016253D01*
X004514Y016151D01*
X004514Y016039D01*
X004556Y015937D01*
X003373Y017120D01*
X003389Y017136D01*
X003389Y017558D01*
X003090Y017857D01*
X002668Y017857D01*
X002369Y017558D01*
X002369Y017136D01*
X002668Y016837D01*
X002748Y016837D01*
X002479Y016568D01*
X002190Y016857D01*
X001768Y016857D01*
X001469Y016558D01*
X001469Y016138D01*
X001354Y016253D01*
X001354Y017887D01*
X001402Y017935D01*
X002640Y017935D01*
X002689Y017915D01*
X002800Y017915D01*
X002903Y017957D01*
X002982Y018036D01*
X003024Y018139D01*
X003024Y018251D01*
X002982Y018353D01*
X002903Y018432D01*
X002800Y018475D01*
X002689Y018475D01*
X002640Y018455D01*
X001402Y018455D01*
X001354Y018503D01*
X001354Y020337D01*
X002652Y021635D01*
X003240Y021635D01*
X003289Y021615D01*
X003400Y021615D01*
X003503Y021657D01*
X003582Y021736D01*
X003624Y021839D01*
X003624Y021951D01*
X003582Y022053D01*
X003503Y022132D01*
X003400Y022175D01*
X003289Y022175D01*
X003240Y022155D01*
X002493Y022155D01*
X002397Y022115D01*
X002324Y022042D01*
X000874Y020592D01*
X000834Y020497D01*
X000834Y016093D01*
X000874Y015998D01*
X000947Y015924D01*
X001369Y015502D01*
X001369Y015136D01*
X001668Y014837D01*
X002090Y014837D01*
X002379Y015126D01*
X002668Y014837D01*
X003090Y014837D01*
X003389Y015136D01*
X003389Y015558D01*
X003110Y015837D01*
X003190Y015837D01*
X003205Y015852D01*
X004386Y014672D01*
X004386Y010673D01*
X003987Y010275D01*
X003815Y010346D01*
X003560Y010346D01*
X003325Y010249D01*
X003145Y010069D01*
X003048Y009834D01*
X003048Y009579D01*
X003145Y009344D01*
X003325Y009164D01*
X003560Y009066D01*
X003815Y009066D01*
X004050Y009164D01*
X004230Y009344D01*
X004328Y009579D01*
X004328Y009834D01*
X004256Y010006D01*
X004654Y010404D01*
X004672Y010422D01*
X005088Y010006D01*
X005016Y009834D01*
X005016Y009579D01*
X005113Y009344D01*
X005294Y009164D01*
X005529Y009066D01*
X005783Y009066D01*
X006019Y009164D01*
X006199Y009344D01*
X006296Y009579D01*
X006296Y009834D01*
X006199Y010069D01*
X006019Y010249D01*
X005783Y010346D01*
X005529Y010346D01*
X005356Y010275D01*
X004957Y010674D01*
X004957Y014639D01*
X005173Y014855D01*
X005738Y014855D01*
X005786Y014807D01*
X005889Y014765D01*
X005914Y014765D01*
X005914Y014689D01*
X005957Y014586D01*
X006036Y014507D01*
X006139Y014465D01*
X006220Y014465D01*
X006364Y014320D01*
X006364Y008700D01*
X005966Y008302D01*
X005783Y008378D01*
X005529Y008378D01*
X005294Y008280D01*
X005113Y008100D01*
X005016Y007865D01*
X005016Y007610D01*
X005113Y007375D01*
X005294Y007195D01*
X005529Y007098D01*
X005783Y007098D01*
X006019Y007195D01*
X006199Y007375D01*
X006296Y007610D01*
X006296Y007865D01*
X006220Y008048D01*
X006511Y008338D01*
X006511Y006879D01*
X005966Y006334D01*
X005783Y006409D01*
X005529Y006409D01*
X005294Y006312D01*
X005113Y006132D01*
X005016Y005897D01*
X005016Y005642D01*
X005113Y005407D01*
X005294Y005227D01*
X005236Y005284D02*
X000284Y005284D01*
X000284Y005362D02*
X005158Y005362D01*
X005099Y005441D02*
X000284Y005441D01*
X000284Y005519D02*
X005067Y005519D01*
X005034Y005598D02*
X000284Y005598D01*
X000284Y005676D02*
X005016Y005676D01*
X005016Y005755D02*
X000284Y005755D01*
X000284Y005833D02*
X005016Y005833D01*
X005022Y005912D02*
X000284Y005912D01*
X000284Y005990D02*
X005055Y005990D01*
X005087Y006069D02*
X000284Y006069D01*
X000284Y006147D02*
X005129Y006147D01*
X005208Y006226D02*
X000284Y006226D01*
X000284Y006304D02*
X005286Y006304D01*
X005465Y006383D02*
X000284Y006383D01*
X000284Y006461D02*
X006094Y006461D01*
X006172Y006540D02*
X000284Y006540D01*
X000284Y006618D02*
X006251Y006618D01*
X006329Y006697D02*
X000284Y006697D01*
X000284Y006775D02*
X006408Y006775D01*
X006486Y006854D02*
X000284Y006854D01*
X000284Y006932D02*
X006511Y006932D01*
X006511Y007011D02*
X000284Y007011D01*
X000284Y007089D02*
X006511Y007089D01*
X006511Y007168D02*
X005953Y007168D01*
X006070Y007246D02*
X006511Y007246D01*
X006511Y007325D02*
X006148Y007325D01*
X006210Y007403D02*
X006511Y007403D01*
X006511Y007482D02*
X006243Y007482D01*
X006275Y007560D02*
X006511Y007560D01*
X006511Y007639D02*
X006296Y007639D01*
X006296Y007717D02*
X006511Y007717D01*
X006511Y007796D02*
X006296Y007796D01*
X006292Y007874D02*
X006511Y007874D01*
X006511Y007953D02*
X006260Y007953D01*
X006227Y008031D02*
X006511Y008031D01*
X006511Y008110D02*
X006283Y008110D01*
X006361Y008188D02*
X006511Y008188D01*
X006511Y008267D02*
X006440Y008267D01*
X006166Y008502D02*
X002454Y008502D01*
X002454Y008424D02*
X006088Y008424D01*
X006009Y008345D02*
X005862Y008345D01*
X005451Y008345D02*
X003893Y008345D01*
X003815Y008378D02*
X003560Y008378D01*
X003325Y008280D01*
X003145Y008100D01*
X003102Y007998D01*
X002759Y007998D01*
X002454Y008303D01*
X002454Y009745D01*
X002415Y009841D01*
X001766Y010489D01*
X001778Y010518D01*
X001778Y010721D01*
X001700Y010909D01*
X001557Y011052D01*
X001369Y011130D01*
X001166Y011130D01*
X000979Y011052D01*
X000835Y010909D01*
X000758Y010721D01*
X000758Y010518D01*
X000835Y010331D01*
X000979Y010187D01*
X001118Y010130D01*
X001066Y010130D01*
X000879Y010052D01*
X000735Y009909D01*
X000658Y009721D01*
X000658Y009518D01*
X000735Y009331D01*
X000879Y009187D01*
X001066Y009110D01*
X001118Y009110D01*
X000979Y009052D01*
X000835Y008909D01*
X000758Y008721D01*
X000758Y008518D01*
X000835Y008331D01*
X000979Y008187D01*
X001118Y008130D01*
X001066Y008130D01*
X000879Y008052D01*
X000735Y007909D01*
X000658Y007721D01*
X000658Y007518D01*
X000735Y007331D01*
X000879Y007187D01*
X001066Y007110D01*
X001269Y007110D01*
X001457Y007187D01*
X001600Y007331D01*
X001678Y007518D01*
X001678Y007721D01*
X001600Y007909D01*
X001457Y008052D01*
X001318Y008110D01*
X001369Y008110D01*
X001557Y008187D01*
X001700Y008331D01*
X001778Y008518D01*
X001778Y008721D01*
X001700Y008909D01*
X001557Y009052D01*
X001934Y009052D01*
X001934Y009130D02*
X001319Y009130D01*
X001318Y009130D02*
X001457Y009187D01*
X001600Y009331D01*
X001678Y009518D01*
X001678Y009721D01*
X001600Y009909D01*
X001457Y010052D01*
X001318Y010110D01*
X001369Y010110D01*
X001398Y010122D01*
X001934Y009586D01*
X001934Y008143D01*
X001974Y008048D01*
X002047Y007974D01*
X002504Y007517D01*
X002600Y007478D01*
X003102Y007478D01*
X003145Y007375D01*
X003325Y007195D01*
X003560Y007098D01*
X003815Y007098D01*
X004050Y007195D01*
X004230Y007375D01*
X004328Y007610D01*
X004328Y007865D01*
X004230Y008100D01*
X004050Y008280D01*
X003815Y008378D01*
X004064Y008267D02*
X005280Y008267D01*
X005202Y008188D02*
X004142Y008188D01*
X004221Y008110D02*
X005123Y008110D01*
X005085Y008031D02*
X004259Y008031D01*
X004291Y007953D02*
X005052Y007953D01*
X005020Y007874D02*
X004324Y007874D01*
X004328Y007796D02*
X005016Y007796D01*
X005016Y007717D02*
X004328Y007717D01*
X004328Y007639D02*
X005016Y007639D01*
X005037Y007560D02*
X004307Y007560D01*
X004274Y007482D02*
X005069Y007482D01*
X005102Y007403D02*
X004242Y007403D01*
X004180Y007325D02*
X005164Y007325D01*
X005242Y007246D02*
X004101Y007246D01*
X003984Y007168D02*
X005359Y007168D01*
X005656Y007738D02*
X006544Y008626D01*
X006544Y014395D01*
X006194Y014745D01*
X005996Y014547D02*
X004957Y014547D01*
X004957Y014625D02*
X005941Y014625D01*
X005914Y014704D02*
X005022Y014704D01*
X005100Y014782D02*
X005846Y014782D01*
X006130Y014468D02*
X004957Y014468D01*
X004957Y014390D02*
X006295Y014390D01*
X006364Y014311D02*
X004957Y014311D01*
X004957Y014233D02*
X006364Y014233D01*
X006364Y014154D02*
X004957Y014154D01*
X004957Y014076D02*
X006364Y014076D01*
X006364Y013997D02*
X004957Y013997D01*
X004957Y013919D02*
X006364Y013919D01*
X006364Y013840D02*
X004957Y013840D01*
X004957Y013762D02*
X006364Y013762D01*
X006364Y013683D02*
X004957Y013683D01*
X004957Y013605D02*
X005540Y013605D01*
X005589Y013625D02*
X005486Y013582D01*
X005407Y013503D01*
X005364Y013401D01*
X005364Y013289D01*
X005407Y013186D01*
X005424Y013169D01*
X005424Y012075D01*
X005294Y012020D01*
X005113Y011840D01*
X005016Y011605D01*
X005016Y011351D01*
X005113Y011115D01*
X005294Y010935D01*
X005529Y010838D01*
X005783Y010838D01*
X006019Y010935D01*
X006199Y011115D01*
X006296Y011351D01*
X006296Y011605D01*
X006199Y011840D01*
X006019Y012020D01*
X005864Y012084D01*
X005864Y013169D01*
X005882Y013186D01*
X005924Y013289D01*
X005924Y013401D01*
X005882Y013503D01*
X005803Y013582D01*
X005700Y013625D01*
X005589Y013625D01*
X005748Y013605D02*
X006364Y013605D01*
X006364Y013526D02*
X005859Y013526D01*
X005905Y013448D02*
X006364Y013448D01*
X006364Y013369D02*
X005924Y013369D01*
X005924Y013291D02*
X006364Y013291D01*
X006364Y013212D02*
X005892Y013212D01*
X005864Y013134D02*
X006364Y013134D01*
X006364Y013055D02*
X005864Y013055D01*
X005864Y012977D02*
X006364Y012977D01*
X006364Y012898D02*
X005864Y012898D01*
X005864Y012820D02*
X006364Y012820D01*
X006364Y012741D02*
X005864Y012741D01*
X005864Y012663D02*
X006364Y012663D01*
X006364Y012584D02*
X005864Y012584D01*
X005864Y012506D02*
X006364Y012506D01*
X006364Y012427D02*
X005864Y012427D01*
X005864Y012349D02*
X006364Y012349D01*
X006364Y012270D02*
X005864Y012270D01*
X005864Y012192D02*
X006364Y012192D01*
X006364Y012113D02*
X005864Y012113D01*
X005984Y012035D02*
X006364Y012035D01*
X006364Y011956D02*
X006083Y011956D01*
X006161Y011878D02*
X006364Y011878D01*
X006364Y011799D02*
X006216Y011799D01*
X006248Y011721D02*
X006364Y011721D01*
X006364Y011642D02*
X006281Y011642D01*
X006296Y011564D02*
X006364Y011564D01*
X006364Y011485D02*
X006296Y011485D01*
X006296Y011407D02*
X006364Y011407D01*
X006364Y011328D02*
X006287Y011328D01*
X006254Y011250D02*
X006364Y011250D01*
X006364Y011171D02*
X006222Y011171D01*
X006176Y011093D02*
X006364Y011093D01*
X006364Y011014D02*
X006098Y011014D01*
X006019Y010936D02*
X006364Y010936D01*
X006364Y010857D02*
X005830Y010857D01*
X005482Y010857D02*
X004957Y010857D01*
X004957Y010779D02*
X006364Y010779D01*
X006364Y010700D02*
X004957Y010700D01*
X005009Y010622D02*
X006364Y010622D01*
X006364Y010543D02*
X005088Y010543D01*
X005166Y010465D02*
X006364Y010465D01*
X006364Y010386D02*
X005245Y010386D01*
X005323Y010308D02*
X005436Y010308D01*
X005876Y010308D02*
X006364Y010308D01*
X006364Y010229D02*
X006038Y010229D01*
X006117Y010151D02*
X006364Y010151D01*
X006364Y010072D02*
X006195Y010072D01*
X006230Y009994D02*
X006364Y009994D01*
X006364Y009915D02*
X006262Y009915D01*
X006295Y009837D02*
X006364Y009837D01*
X006364Y009758D02*
X006296Y009758D01*
X006296Y009680D02*
X006364Y009680D01*
X006364Y009601D02*
X006296Y009601D01*
X006273Y009523D02*
X006364Y009523D01*
X006364Y009444D02*
X006240Y009444D01*
X006208Y009366D02*
X006364Y009366D01*
X006364Y009287D02*
X006142Y009287D01*
X006064Y009209D02*
X006364Y009209D01*
X006364Y009130D02*
X005938Y009130D01*
X006364Y009052D02*
X002454Y009052D01*
X002454Y009130D02*
X003405Y009130D01*
X003280Y009209D02*
X002454Y009209D01*
X002454Y009287D02*
X003201Y009287D01*
X003136Y009366D02*
X002454Y009366D01*
X002454Y009444D02*
X003103Y009444D01*
X003071Y009523D02*
X002454Y009523D01*
X002454Y009601D02*
X003048Y009601D01*
X003048Y009680D02*
X002454Y009680D01*
X002449Y009758D02*
X003048Y009758D01*
X003049Y009837D02*
X002416Y009837D01*
X002340Y009915D02*
X003081Y009915D01*
X003114Y009994D02*
X002261Y009994D01*
X002183Y010072D02*
X003149Y010072D01*
X003227Y010151D02*
X002104Y010151D01*
X002026Y010229D02*
X003306Y010229D01*
X003468Y010308D02*
X001947Y010308D01*
X001869Y010386D02*
X004099Y010386D01*
X004020Y010308D02*
X003908Y010308D01*
X004177Y010465D02*
X001790Y010465D01*
X001778Y010543D02*
X004256Y010543D01*
X004334Y010622D02*
X001778Y010622D01*
X001778Y010700D02*
X004386Y010700D01*
X004386Y010779D02*
X001754Y010779D01*
X001721Y010857D02*
X003513Y010857D01*
X003560Y010838D02*
X003325Y010935D01*
X003145Y011115D01*
X003048Y011351D01*
X003048Y011605D01*
X003145Y011840D01*
X003325Y012020D01*
X003425Y012062D01*
X003414Y012089D01*
X003414Y012201D01*
X003457Y012303D01*
X003536Y012382D01*
X003639Y012425D01*
X003750Y012425D01*
X003853Y012382D01*
X003932Y012303D01*
X003974Y012201D01*
X003974Y012089D01*
X003961Y012057D01*
X004050Y012020D01*
X004230Y011840D01*
X004328Y011605D01*
X004328Y011351D01*
X004230Y011115D01*
X004050Y010935D01*
X003815Y010838D01*
X003560Y010838D01*
X003324Y010936D02*
X001673Y010936D01*
X001594Y011014D02*
X003246Y011014D01*
X003167Y011093D02*
X001458Y011093D01*
X001078Y011093D02*
X000284Y011093D01*
X000284Y011171D02*
X003122Y011171D01*
X003089Y011250D02*
X000284Y011250D01*
X000284Y011328D02*
X003057Y011328D01*
X003048Y011407D02*
X000284Y011407D01*
X000284Y011485D02*
X003048Y011485D01*
X003048Y011564D02*
X000284Y011564D01*
X000284Y011642D02*
X003063Y011642D01*
X003095Y011721D02*
X000284Y011721D01*
X000284Y011799D02*
X003128Y011799D01*
X003182Y011878D02*
X000284Y011878D01*
X000284Y011956D02*
X003261Y011956D01*
X003360Y012035D02*
X000284Y012035D01*
X000284Y012113D02*
X003414Y012113D01*
X003414Y012192D02*
X000284Y012192D01*
X000284Y012270D02*
X003443Y012270D01*
X003502Y012349D02*
X000284Y012349D01*
X000284Y012427D02*
X004386Y012427D01*
X004386Y012349D02*
X003886Y012349D01*
X003945Y012270D02*
X004386Y012270D01*
X004386Y012192D02*
X003974Y012192D01*
X003974Y012113D02*
X004386Y012113D01*
X004386Y012035D02*
X004015Y012035D01*
X004114Y011956D02*
X004386Y011956D01*
X004386Y011878D02*
X004193Y011878D01*
X004247Y011799D02*
X004386Y011799D01*
X004386Y011721D02*
X004280Y011721D01*
X004312Y011642D02*
X004386Y011642D01*
X004386Y011564D02*
X004328Y011564D01*
X004328Y011485D02*
X004386Y011485D01*
X004386Y011407D02*
X004328Y011407D01*
X004318Y011328D02*
X004386Y011328D01*
X004386Y011250D02*
X004286Y011250D01*
X004253Y011171D02*
X004386Y011171D01*
X004386Y011093D02*
X004208Y011093D01*
X004129Y011014D02*
X004386Y011014D01*
X004386Y010936D02*
X004051Y010936D01*
X003862Y010857D02*
X004386Y010857D01*
X004636Y010386D02*
X004707Y010386D01*
X004786Y010308D02*
X004558Y010308D01*
X004479Y010229D02*
X004864Y010229D01*
X004943Y010151D02*
X004401Y010151D01*
X004322Y010072D02*
X005021Y010072D01*
X005082Y009994D02*
X004261Y009994D01*
X004294Y009915D02*
X005050Y009915D01*
X005017Y009837D02*
X004326Y009837D01*
X004328Y009758D02*
X005016Y009758D01*
X005016Y009680D02*
X004328Y009680D01*
X004328Y009601D02*
X005016Y009601D01*
X005039Y009523D02*
X004304Y009523D01*
X004272Y009444D02*
X005072Y009444D01*
X005104Y009366D02*
X004239Y009366D01*
X004174Y009287D02*
X005170Y009287D01*
X005248Y009209D02*
X004095Y009209D01*
X003970Y009130D02*
X005374Y009130D01*
X006364Y008973D02*
X002454Y008973D01*
X002454Y008895D02*
X006364Y008895D01*
X006364Y008816D02*
X002454Y008816D01*
X002454Y008738D02*
X006364Y008738D01*
X006323Y008659D02*
X002454Y008659D01*
X002454Y008581D02*
X006245Y008581D01*
X007024Y007482D02*
X007038Y007482D01*
X007024Y007403D02*
X007070Y007403D01*
X007024Y007325D02*
X007132Y007325D01*
X007211Y007246D02*
X007024Y007246D01*
X007024Y007168D02*
X007328Y007168D01*
X007024Y007089D02*
X010064Y007089D01*
X010064Y007011D02*
X007024Y007011D01*
X007024Y006932D02*
X010064Y006932D01*
X010064Y006854D02*
X007024Y006854D01*
X007024Y006775D02*
X010064Y006775D01*
X010064Y006697D02*
X007024Y006697D01*
X007030Y006618D02*
X010064Y006618D01*
X010064Y006540D02*
X007108Y006540D01*
X007187Y006461D02*
X010064Y006461D01*
X010064Y006383D02*
X007816Y006383D01*
X007995Y006304D02*
X009508Y006304D01*
X009445Y006226D02*
X008073Y006226D01*
X008152Y006147D02*
X009414Y006147D01*
X009414Y006069D02*
X008193Y006069D01*
X008226Y005990D02*
X009434Y005990D01*
X009474Y005912D02*
X008258Y005912D01*
X008265Y005833D02*
X009474Y005833D01*
X009474Y005755D02*
X008265Y005755D01*
X008265Y005676D02*
X009474Y005676D01*
X009474Y005598D02*
X008246Y005598D01*
X008214Y005519D02*
X009474Y005519D01*
X009474Y005441D02*
X008181Y005441D01*
X008123Y005362D02*
X009474Y005362D01*
X009474Y005284D02*
X008044Y005284D01*
X007936Y005205D02*
X009474Y005205D01*
X009914Y005205D02*
X010064Y005205D01*
X010064Y005127D02*
X009914Y005127D01*
X009914Y005048D02*
X010064Y005048D01*
X010115Y004970D02*
X009914Y004970D01*
X009914Y004891D02*
X010193Y004891D01*
X010272Y004813D02*
X009914Y004813D01*
X009914Y004734D02*
X010350Y004734D01*
X010429Y004656D02*
X009914Y004656D01*
X009914Y004577D02*
X010507Y004577D01*
X010586Y004499D02*
X009914Y004499D01*
X009914Y004420D02*
X010664Y004420D01*
X010743Y004342D02*
X009914Y004342D01*
X009914Y004263D02*
X010821Y004263D01*
X010900Y004185D02*
X009914Y004185D01*
X009914Y004106D02*
X010978Y004106D01*
X011057Y004028D02*
X009914Y004028D01*
X009914Y003949D02*
X011135Y003949D01*
X011244Y004095D02*
X020694Y004095D01*
X020974Y004106D02*
X023086Y004106D01*
X023008Y004028D02*
X020970Y004028D01*
X020937Y003949D02*
X022929Y003949D01*
X022851Y003871D02*
X020866Y003871D01*
X020960Y004185D02*
X023165Y004185D01*
X023233Y004252D02*
X020165Y001185D01*
X003352Y001185D01*
X000284Y004252D01*
X000284Y021066D01*
X003352Y024133D01*
X020165Y024133D01*
X023233Y021066D01*
X023233Y008670D01*
X021094Y008670D01*
X021094Y006735D01*
X020318Y006735D01*
X020137Y006916D01*
X020137Y009274D01*
X021802Y010939D01*
X021884Y011137D01*
X021884Y011352D01*
X021884Y015002D01*
X021802Y015201D01*
X021650Y015353D01*
X021452Y015435D01*
X021237Y015435D01*
X021038Y015353D01*
X020886Y015201D01*
X020804Y015002D01*
X020804Y011468D01*
X019139Y009804D01*
X019057Y009605D01*
X019057Y006585D01*
X019139Y006386D01*
X019291Y006234D01*
X019291Y006234D01*
X019636Y005889D01*
X019788Y005737D01*
X019987Y005655D01*
X022202Y005655D01*
X022400Y005737D01*
X022552Y005889D01*
X022634Y006087D01*
X022634Y006302D01*
X022552Y006501D01*
X022400Y006653D01*
X022359Y006670D01*
X023233Y006670D01*
X023233Y004252D01*
X023233Y004263D02*
X020922Y004263D01*
X020830Y004342D02*
X023233Y004342D01*
X023233Y004420D02*
X011173Y004420D01*
X011252Y004342D02*
X020559Y004342D01*
X020522Y003871D02*
X009914Y003871D01*
X009914Y003792D02*
X022772Y003792D01*
X022694Y003714D02*
X009914Y003714D01*
X009914Y003635D02*
X022615Y003635D01*
X022537Y003557D02*
X009914Y003557D01*
X009914Y003478D02*
X022458Y003478D01*
X022380Y003400D02*
X009910Y003400D01*
X009832Y003321D02*
X022301Y003321D01*
X022223Y003243D02*
X009805Y003243D01*
X009760Y003164D02*
X022144Y003164D01*
X021202Y002222D02*
X002314Y002222D01*
X002393Y002144D02*
X021124Y002144D01*
X021045Y002065D02*
X002471Y002065D01*
X002550Y001987D02*
X020967Y001987D01*
X020888Y001908D02*
X002628Y001908D01*
X002707Y001830D02*
X020810Y001830D01*
X020731Y001751D02*
X002785Y001751D01*
X002864Y001673D02*
X020653Y001673D01*
X020574Y001594D02*
X002942Y001594D01*
X003021Y001516D02*
X020496Y001516D01*
X020417Y001437D02*
X003099Y001437D01*
X003178Y001359D02*
X020339Y001359D01*
X020260Y001280D02*
X003256Y001280D01*
X003335Y001202D02*
X020182Y001202D01*
X023233Y004499D02*
X011095Y004499D01*
X011016Y004577D02*
X023233Y004577D01*
X023233Y004656D02*
X010938Y004656D01*
X010859Y004734D02*
X023233Y004734D01*
X023233Y004813D02*
X010781Y004813D01*
X010702Y004891D02*
X023233Y004891D01*
X023233Y004970D02*
X010624Y004970D01*
X010545Y005048D02*
X023233Y005048D01*
X023233Y005127D02*
X010467Y005127D01*
X010424Y005205D02*
X023233Y005205D01*
X023233Y005284D02*
X010424Y005284D01*
X010424Y005362D02*
X023233Y005362D01*
X023233Y005441D02*
X010424Y005441D01*
X010424Y005519D02*
X023233Y005519D01*
X023233Y005598D02*
X010424Y005598D01*
X010424Y005676D02*
X019935Y005676D01*
X019771Y005755D02*
X010424Y005755D01*
X010424Y005833D02*
X019692Y005833D01*
X019614Y005912D02*
X010424Y005912D01*
X010424Y005990D02*
X019535Y005990D01*
X019457Y006069D02*
X010424Y006069D01*
X010424Y006147D02*
X019378Y006147D01*
X019300Y006226D02*
X010424Y006226D01*
X010424Y006304D02*
X019221Y006304D01*
X019143Y006383D02*
X010424Y006383D01*
X010424Y006461D02*
X019108Y006461D01*
X019076Y006540D02*
X010424Y006540D01*
X010424Y006618D02*
X019057Y006618D01*
X019057Y006697D02*
X010424Y006697D01*
X010424Y006775D02*
X019057Y006775D01*
X019057Y006854D02*
X010424Y006854D01*
X010424Y006932D02*
X019057Y006932D01*
X019057Y007011D02*
X010424Y007011D01*
X010424Y007089D02*
X019057Y007089D01*
X019057Y007168D02*
X010424Y007168D01*
X010424Y007246D02*
X019057Y007246D01*
X019057Y007325D02*
X010424Y007325D01*
X010424Y007403D02*
X019057Y007403D01*
X019057Y007482D02*
X010424Y007482D01*
X010424Y007560D02*
X019057Y007560D01*
X019057Y007639D02*
X010424Y007639D01*
X010424Y007717D02*
X019057Y007717D01*
X019057Y007796D02*
X010424Y007796D01*
X010424Y007874D02*
X019057Y007874D01*
X019057Y007953D02*
X010424Y007953D01*
X010424Y008031D02*
X019057Y008031D01*
X019057Y008110D02*
X010424Y008110D01*
X010424Y008188D02*
X019057Y008188D01*
X019057Y008267D02*
X010424Y008267D01*
X010424Y008345D02*
X019057Y008345D01*
X019057Y008424D02*
X010424Y008424D01*
X010424Y008502D02*
X019057Y008502D01*
X019057Y008581D02*
X010424Y008581D01*
X010424Y008659D02*
X019057Y008659D01*
X019057Y008738D02*
X010424Y008738D01*
X010424Y008816D02*
X019057Y008816D01*
X019057Y008895D02*
X010424Y008895D01*
X010424Y008973D02*
X019057Y008973D01*
X019057Y009052D02*
X010424Y009052D01*
X010424Y009130D02*
X019057Y009130D01*
X019057Y009209D02*
X010424Y009209D01*
X010424Y009287D02*
X019057Y009287D01*
X019057Y009366D02*
X010424Y009366D01*
X010424Y009444D02*
X019057Y009444D01*
X019057Y009523D02*
X010424Y009523D01*
X010424Y009601D02*
X019057Y009601D01*
X019088Y009680D02*
X010424Y009680D01*
X010424Y009758D02*
X019121Y009758D01*
X019173Y009837D02*
X010424Y009837D01*
X010424Y009915D02*
X019251Y009915D01*
X019330Y009994D02*
X010424Y009994D01*
X010424Y010072D02*
X019408Y010072D01*
X019487Y010151D02*
X010424Y010151D01*
X010424Y010229D02*
X019565Y010229D01*
X019644Y010308D02*
X010424Y010308D01*
X010424Y010386D02*
X019722Y010386D01*
X019801Y010465D02*
X010424Y010465D01*
X010424Y010543D02*
X019879Y010543D01*
X019958Y010622D02*
X010424Y010622D01*
X010424Y010700D02*
X020036Y010700D01*
X020115Y010779D02*
X010424Y010779D01*
X010424Y010857D02*
X020193Y010857D01*
X020272Y010936D02*
X010424Y010936D01*
X010424Y011014D02*
X020350Y011014D01*
X020429Y011093D02*
X010424Y011093D01*
X010424Y011171D02*
X020507Y011171D01*
X020586Y011250D02*
X010424Y011250D01*
X010424Y011328D02*
X020664Y011328D01*
X020743Y011407D02*
X010424Y011407D01*
X010424Y011485D02*
X020804Y011485D01*
X020804Y011564D02*
X010424Y011564D01*
X010424Y011642D02*
X020804Y011642D01*
X020804Y011721D02*
X010424Y011721D01*
X010424Y011799D02*
X020804Y011799D01*
X020804Y011878D02*
X010424Y011878D01*
X010424Y011956D02*
X010778Y011956D01*
X010700Y012035D02*
X010424Y012035D01*
X010424Y012113D02*
X010621Y012113D01*
X010543Y012192D02*
X010424Y012192D01*
X010424Y012270D02*
X010464Y012270D01*
X010394Y012595D02*
X010394Y013745D01*
X007844Y016295D01*
X007044Y016295D01*
X006782Y016195D02*
X005274Y016195D01*
X005274Y016117D02*
X006826Y016117D01*
X006901Y016038D02*
X005274Y016038D01*
X005274Y015960D02*
X006813Y015960D01*
X006777Y015881D02*
X005274Y015881D01*
X005274Y015803D02*
X006764Y015803D01*
X006770Y015724D02*
X005274Y015724D01*
X005256Y015646D02*
X006803Y015646D01*
X006876Y015567D02*
X005213Y015567D01*
X005108Y015489D02*
X007114Y015489D01*
X007244Y015295D02*
X007394Y015145D01*
X007244Y015295D02*
X006294Y015295D01*
X006244Y015245D01*
X006244Y015195D01*
X006244Y015045D01*
X006691Y014598D01*
X006691Y006804D01*
X005656Y005769D01*
X006076Y005284D02*
X007205Y005284D01*
X007126Y005362D02*
X006154Y005362D01*
X006213Y005441D02*
X007068Y005441D01*
X007035Y005519D02*
X006245Y005519D01*
X006278Y005598D02*
X007003Y005598D01*
X006985Y005676D02*
X006296Y005676D01*
X006296Y005755D02*
X006985Y005755D01*
X006985Y005833D02*
X006296Y005833D01*
X006290Y005912D02*
X006991Y005912D01*
X007023Y005990D02*
X006257Y005990D01*
X006225Y006069D02*
X007056Y006069D01*
X006992Y006147D02*
X006289Y006147D01*
X006367Y006226D02*
X006913Y006226D01*
X006835Y006304D02*
X006446Y006304D01*
X006524Y006383D02*
X006756Y006383D01*
X006770Y006370D02*
X006770Y006370D01*
X006678Y006461D02*
X006603Y006461D01*
X006844Y006550D02*
X007625Y005769D01*
X007434Y006383D02*
X007265Y006383D01*
X006844Y006550D02*
X006844Y014845D01*
X006644Y015045D01*
X006924Y015019D02*
X006924Y015101D01*
X006918Y015115D01*
X007114Y015115D01*
X007114Y015089D01*
X007157Y014986D01*
X007236Y014907D01*
X007339Y014865D01*
X007450Y014865D01*
X007553Y014907D01*
X007632Y014986D01*
X007674Y015089D01*
X007674Y015201D01*
X007632Y015303D01*
X007590Y015345D01*
X007610Y015365D01*
X007820Y015365D01*
X008286Y014899D01*
X008286Y014010D01*
X008250Y014025D01*
X008139Y014025D01*
X008036Y013982D01*
X007957Y013903D01*
X007914Y013801D01*
X007914Y013748D01*
X007425Y013258D01*
X007425Y012088D01*
X007262Y012020D01*
X007082Y011840D01*
X007024Y011701D01*
X007024Y014919D01*
X006924Y015019D01*
X006926Y015018D02*
X007144Y015018D01*
X007114Y015096D02*
X006924Y015096D01*
X007004Y014939D02*
X007204Y014939D01*
X007024Y014861D02*
X008286Y014861D01*
X008286Y014782D02*
X007024Y014782D01*
X007024Y014704D02*
X008286Y014704D01*
X008286Y014625D02*
X007024Y014625D01*
X007024Y014547D02*
X008286Y014547D01*
X008286Y014468D02*
X007024Y014468D01*
X007024Y014390D02*
X008286Y014390D01*
X008286Y014311D02*
X007024Y014311D01*
X007024Y014233D02*
X008286Y014233D01*
X008286Y014154D02*
X007024Y014154D01*
X007024Y014076D02*
X008286Y014076D01*
X008072Y013997D02*
X007024Y013997D01*
X007024Y013919D02*
X007972Y013919D01*
X007931Y013840D02*
X007024Y013840D01*
X007024Y013762D02*
X007914Y013762D01*
X007850Y013683D02*
X007024Y013683D01*
X007024Y013605D02*
X007771Y013605D01*
X007693Y013526D02*
X007024Y013526D01*
X007024Y013448D02*
X007614Y013448D01*
X007536Y013369D02*
X007024Y013369D01*
X007024Y013291D02*
X007457Y013291D01*
X007425Y013212D02*
X007024Y013212D01*
X007024Y013134D02*
X007425Y013134D01*
X007425Y013055D02*
X007024Y013055D01*
X007024Y012977D02*
X007425Y012977D01*
X007425Y012898D02*
X007024Y012898D01*
X007024Y012820D02*
X007425Y012820D01*
X007425Y012741D02*
X007024Y012741D01*
X007024Y012663D02*
X007425Y012663D01*
X007425Y012584D02*
X007024Y012584D01*
X007024Y012506D02*
X007425Y012506D01*
X007425Y012427D02*
X007024Y012427D01*
X007024Y012349D02*
X007425Y012349D01*
X007425Y012270D02*
X007024Y012270D01*
X007024Y012192D02*
X007425Y012192D01*
X007425Y012113D02*
X007024Y012113D01*
X007024Y012035D02*
X007297Y012035D01*
X007198Y011956D02*
X007024Y011956D01*
X007024Y011878D02*
X007119Y011878D01*
X007065Y011799D02*
X007024Y011799D01*
X007024Y011721D02*
X007032Y011721D01*
X008466Y010547D02*
X008154Y010235D01*
X008466Y010547D02*
X008466Y014973D01*
X007894Y015545D01*
X007394Y015545D01*
X007603Y015332D02*
X007853Y015332D01*
X007931Y015253D02*
X007652Y015253D01*
X007674Y015175D02*
X008010Y015175D01*
X008088Y015096D02*
X007674Y015096D01*
X007645Y015018D02*
X008167Y015018D01*
X008245Y014939D02*
X007585Y014939D01*
X007894Y015795D02*
X007044Y015795D01*
X007394Y016045D02*
X007894Y016045D01*
X010244Y013695D01*
X010244Y005095D01*
X011244Y004095D01*
X010064Y005284D02*
X009914Y005284D01*
X009914Y005362D02*
X010064Y005362D01*
X010064Y005441D02*
X009914Y005441D01*
X009914Y005519D02*
X010064Y005519D01*
X010064Y005598D02*
X009914Y005598D01*
X009914Y005676D02*
X010064Y005676D01*
X010064Y005755D02*
X009914Y005755D01*
X009914Y005833D02*
X010064Y005833D01*
X010064Y005912D02*
X009914Y005912D01*
X009954Y005990D02*
X010064Y005990D01*
X010064Y006069D02*
X009974Y006069D01*
X009974Y006147D02*
X010064Y006147D01*
X010064Y006226D02*
X009943Y006226D01*
X009881Y006304D02*
X010064Y006304D01*
X010064Y007168D02*
X007921Y007168D01*
X008038Y007246D02*
X010064Y007246D01*
X010064Y007325D02*
X008117Y007325D01*
X008179Y007403D02*
X010064Y007403D01*
X010064Y007482D02*
X008211Y007482D01*
X008244Y007560D02*
X010064Y007560D01*
X010064Y007639D02*
X008265Y007639D01*
X008265Y007717D02*
X010064Y007717D01*
X010064Y007796D02*
X008265Y007796D01*
X008261Y007874D02*
X010064Y007874D01*
X010064Y007953D02*
X008228Y007953D01*
X008268Y008031D02*
X010064Y008031D01*
X010064Y008110D02*
X008393Y008110D01*
X008444Y008188D02*
X010064Y008188D01*
X010064Y008267D02*
X008468Y008267D01*
X008487Y008345D02*
X010064Y008345D01*
X010064Y008424D02*
X008565Y008424D01*
X008644Y008502D02*
X010064Y008502D01*
X010064Y008581D02*
X008722Y008581D01*
X008801Y008659D02*
X010064Y008659D01*
X010064Y008738D02*
X008828Y008738D01*
X008828Y008816D02*
X010064Y008816D01*
X010064Y008895D02*
X008828Y008895D01*
X008828Y008973D02*
X010064Y008973D01*
X010064Y009052D02*
X008828Y009052D01*
X008828Y009130D02*
X010064Y009130D01*
X010064Y009209D02*
X008828Y009209D01*
X008828Y009287D02*
X010064Y009287D01*
X010064Y009366D02*
X008828Y009366D01*
X008828Y009444D02*
X010064Y009444D01*
X010064Y009523D02*
X008828Y009523D01*
X008828Y009601D02*
X010064Y009601D01*
X010064Y009680D02*
X008828Y009680D01*
X008828Y009758D02*
X010064Y009758D01*
X010064Y009837D02*
X008828Y009837D01*
X008828Y009915D02*
X010064Y009915D01*
X010064Y009994D02*
X008828Y009994D01*
X008828Y010072D02*
X010064Y010072D01*
X010064Y010151D02*
X008828Y010151D01*
X008828Y010229D02*
X010064Y010229D01*
X010064Y010308D02*
X008828Y010308D01*
X008828Y010386D02*
X010064Y010386D01*
X010064Y010465D02*
X008828Y010465D01*
X008828Y010543D02*
X010064Y010543D01*
X010064Y010622D02*
X008828Y010622D01*
X008828Y010700D02*
X010064Y010700D01*
X010064Y010779D02*
X008828Y010779D01*
X008828Y010857D02*
X010064Y010857D01*
X010064Y010936D02*
X008828Y010936D01*
X008828Y011014D02*
X010064Y011014D01*
X010064Y011093D02*
X008828Y011093D01*
X008828Y011171D02*
X010064Y011171D01*
X010064Y011250D02*
X008828Y011250D01*
X008828Y011328D02*
X010064Y011328D01*
X010064Y011407D02*
X008828Y011407D01*
X008828Y011485D02*
X010064Y011485D01*
X010064Y011564D02*
X008828Y011564D01*
X008828Y011642D02*
X010064Y011642D01*
X010064Y011721D02*
X008828Y011721D01*
X008828Y011799D02*
X010064Y011799D01*
X010064Y011878D02*
X008828Y011878D01*
X008828Y011956D02*
X010064Y011956D01*
X010064Y012035D02*
X008828Y012035D01*
X008828Y012113D02*
X010064Y012113D01*
X010064Y012192D02*
X008828Y012192D01*
X008828Y012270D02*
X010064Y012270D01*
X010064Y012349D02*
X008828Y012349D01*
X008828Y012427D02*
X010064Y012427D01*
X010064Y012506D02*
X008828Y012506D01*
X008828Y012584D02*
X010064Y012584D01*
X010064Y012663D02*
X008828Y012663D01*
X008828Y012741D02*
X010064Y012741D01*
X010064Y012820D02*
X008828Y012820D01*
X008828Y012898D02*
X010064Y012898D01*
X010064Y012977D02*
X008828Y012977D01*
X008828Y013055D02*
X010064Y013055D01*
X010064Y013134D02*
X008828Y013134D01*
X008828Y013212D02*
X010064Y013212D01*
X010064Y013291D02*
X008828Y013291D01*
X008828Y013369D02*
X010064Y013369D01*
X010064Y013448D02*
X008828Y013448D01*
X008828Y013526D02*
X010064Y013526D01*
X010064Y013605D02*
X008828Y013605D01*
X008828Y013683D02*
X010001Y013683D01*
X009923Y013762D02*
X008828Y013762D01*
X008828Y013840D02*
X009844Y013840D01*
X009766Y013919D02*
X008828Y013919D01*
X008828Y013997D02*
X009687Y013997D01*
X009609Y014076D02*
X008828Y014076D01*
X008828Y014154D02*
X009530Y014154D01*
X009452Y014233D02*
X008828Y014233D01*
X008828Y014311D02*
X009373Y014311D01*
X009295Y014390D02*
X008828Y014390D01*
X008828Y014468D02*
X009216Y014468D01*
X009138Y014547D02*
X008828Y014547D01*
X008828Y014625D02*
X009059Y014625D01*
X008981Y014704D02*
X008828Y014704D01*
X008828Y014782D02*
X008902Y014782D01*
X008648Y014737D02*
X008644Y014741D01*
X008644Y015045D01*
X007894Y015795D01*
X007794Y016545D02*
X007394Y016545D01*
X007198Y016745D02*
X005274Y016745D01*
X005274Y016823D02*
X007335Y016823D01*
X007453Y016823D02*
X007461Y016823D01*
X007394Y017145D02*
X007244Y017145D01*
X007394Y017145D02*
X010744Y013795D01*
X010744Y012695D01*
X010994Y012445D01*
X015294Y012445D01*
X015794Y012945D01*
X015694Y013245D02*
X015394Y012945D01*
X015694Y013245D02*
X015944Y013245D01*
X016144Y013045D01*
X016144Y012895D01*
X015494Y012245D01*
X010994Y012245D01*
X010594Y012645D01*
X010594Y013745D01*
X007794Y016545D01*
X007142Y016666D02*
X005274Y016666D01*
X005274Y016588D02*
X007114Y016588D01*
X006863Y016509D02*
X005274Y016509D01*
X005274Y016431D02*
X006798Y016431D01*
X006765Y016352D02*
X005274Y016352D01*
X005274Y016274D02*
X006764Y016274D01*
X007099Y016902D02*
X005274Y016902D01*
X005274Y016980D02*
X007013Y016980D01*
X006977Y017059D02*
X005274Y017059D01*
X005274Y017137D02*
X006964Y017137D01*
X006971Y017216D02*
X005274Y017216D01*
X005274Y017294D02*
X007003Y017294D01*
X007076Y017373D02*
X005274Y017373D01*
X005274Y017451D02*
X007057Y017451D01*
X006978Y017530D02*
X005274Y017530D01*
X005274Y017608D02*
X006900Y017608D01*
X006821Y017687D02*
X005274Y017687D01*
X005274Y017765D02*
X006743Y017765D01*
X006802Y017707D02*
X006802Y017707D01*
X006689Y017844D02*
X005274Y017844D01*
X005274Y017922D02*
X006656Y017922D01*
X006654Y018001D02*
X005274Y018001D01*
X005274Y018079D02*
X006654Y018079D01*
X006654Y018158D02*
X005274Y018158D01*
X005274Y018236D02*
X006654Y018236D01*
X006655Y018315D02*
X005274Y018315D01*
X005274Y018393D02*
X006688Y018393D01*
X006740Y018472D02*
X005274Y018472D01*
X005274Y018550D02*
X006843Y018550D01*
X007145Y018550D02*
X008554Y018550D01*
X008554Y018472D02*
X007248Y018472D01*
X007301Y018393D02*
X008554Y018393D01*
X008554Y018315D02*
X007333Y018315D01*
X007334Y018236D02*
X008554Y018236D01*
X008554Y018158D02*
X007334Y018158D01*
X007391Y018079D02*
X008554Y018079D01*
X008554Y018001D02*
X007469Y018001D01*
X007548Y017922D02*
X008554Y017922D01*
X008554Y017844D02*
X007626Y017844D01*
X007705Y017765D02*
X008554Y017765D01*
X008554Y017687D02*
X007783Y017687D01*
X007862Y017608D02*
X008554Y017608D01*
X008554Y017530D02*
X007940Y017530D01*
X008019Y017451D02*
X008554Y017451D01*
X008554Y017373D02*
X008097Y017373D01*
X008176Y017294D02*
X008554Y017294D01*
X008554Y017216D02*
X008254Y017216D01*
X008333Y017137D02*
X008554Y017137D01*
X008554Y017059D02*
X008411Y017059D01*
X008490Y016980D02*
X008554Y016980D01*
X008934Y016980D02*
X009354Y016980D01*
X009433Y016902D02*
X008934Y016902D01*
X008934Y016823D02*
X009511Y016823D01*
X009590Y016745D02*
X009010Y016745D01*
X009088Y016666D02*
X009668Y016666D01*
X009747Y016588D02*
X009167Y016588D01*
X009245Y016509D02*
X009825Y016509D01*
X009904Y016431D02*
X009324Y016431D01*
X009402Y016352D02*
X009982Y016352D01*
X010061Y016274D02*
X009481Y016274D01*
X009559Y016195D02*
X010139Y016195D01*
X010218Y016117D02*
X009638Y016117D01*
X009716Y016038D02*
X010296Y016038D01*
X010375Y015960D02*
X009795Y015960D01*
X009873Y015881D02*
X010453Y015881D01*
X010532Y015803D02*
X009952Y015803D01*
X010030Y015724D02*
X010610Y015724D01*
X010689Y015646D02*
X010109Y015646D01*
X010187Y015567D02*
X010767Y015567D01*
X010894Y015695D02*
X009094Y017495D01*
X009298Y017687D02*
X015014Y017687D01*
X015014Y017765D02*
X009173Y017765D01*
X009016Y017765D02*
X008934Y017765D01*
X008934Y017844D02*
X015014Y017844D01*
X015014Y017922D02*
X008934Y017922D01*
X008934Y018001D02*
X015014Y018001D01*
X015014Y018079D02*
X008934Y018079D01*
X008934Y018158D02*
X015014Y018158D01*
X015014Y018236D02*
X008934Y018236D01*
X008934Y018315D02*
X015014Y018315D01*
X015014Y018393D02*
X008934Y018393D01*
X008934Y018472D02*
X015014Y018472D01*
X015014Y018550D02*
X008934Y018550D01*
X008934Y018629D02*
X014964Y018629D01*
X014957Y018636D02*
X015014Y018579D01*
X015014Y017370D01*
X016564Y015820D01*
X016564Y015739D01*
X016607Y015636D01*
X016686Y015557D01*
X016789Y015515D01*
X016900Y015515D01*
X017003Y015557D01*
X017082Y015636D01*
X017124Y015739D01*
X017124Y015851D01*
X017082Y015953D01*
X017003Y016032D01*
X016900Y016075D01*
X016819Y016075D01*
X015374Y017519D01*
X015374Y018579D01*
X015432Y018636D01*
X015474Y018739D01*
X015474Y018851D01*
X015432Y018953D01*
X015353Y019032D01*
X015250Y019075D01*
X015139Y019075D01*
X015036Y019032D01*
X014957Y018953D01*
X014914Y018851D01*
X014914Y018739D01*
X014957Y018636D01*
X014927Y018707D02*
X008934Y018707D01*
X008934Y018786D02*
X014914Y018786D01*
X014920Y018864D02*
X008934Y018864D01*
X008961Y018943D02*
X014952Y018943D01*
X015025Y019021D02*
X009039Y019021D01*
X009118Y019100D02*
X023233Y019100D01*
X023233Y019178D02*
X009196Y019178D01*
X009275Y019257D02*
X023233Y019257D01*
X023233Y019335D02*
X009450Y019335D01*
X009559Y019414D02*
X023233Y019414D01*
X023233Y019492D02*
X009605Y019492D01*
X009624Y019571D02*
X023233Y019571D01*
X023233Y019649D02*
X009624Y019649D01*
X009592Y019728D02*
X023233Y019728D01*
X023233Y019806D02*
X009529Y019806D01*
X009160Y019806D02*
X005274Y019806D01*
X005274Y019728D02*
X009096Y019728D01*
X009064Y019649D02*
X005274Y019649D01*
X005274Y019571D02*
X009052Y019571D01*
X008973Y019492D02*
X005274Y019492D01*
X005274Y019414D02*
X008895Y019414D01*
X008816Y019335D02*
X005274Y019335D01*
X005274Y019257D02*
X008738Y019257D01*
X008659Y019178D02*
X005274Y019178D01*
X005274Y019100D02*
X008581Y019100D01*
X008554Y019021D02*
X005274Y019021D01*
X005274Y018943D02*
X008554Y018943D01*
X008554Y018864D02*
X005274Y018864D01*
X005274Y018786D02*
X008554Y018786D01*
X008554Y018707D02*
X005274Y018707D01*
X005274Y018629D02*
X008554Y018629D01*
X009350Y017608D02*
X015014Y017608D01*
X015014Y017530D02*
X009374Y017530D01*
X009392Y017451D02*
X015014Y017451D01*
X015014Y017373D02*
X009471Y017373D01*
X009549Y017294D02*
X015090Y017294D01*
X015169Y017216D02*
X009628Y017216D01*
X009706Y017137D02*
X015247Y017137D01*
X015326Y017059D02*
X009785Y017059D01*
X009863Y016980D02*
X015404Y016980D01*
X015483Y016902D02*
X009942Y016902D01*
X010020Y016823D02*
X015561Y016823D01*
X015640Y016745D02*
X010099Y016745D01*
X010177Y016666D02*
X015718Y016666D01*
X015797Y016588D02*
X010256Y016588D01*
X010334Y016509D02*
X015875Y016509D01*
X015954Y016431D02*
X010413Y016431D01*
X010491Y016352D02*
X016032Y016352D01*
X016111Y016274D02*
X010570Y016274D01*
X010648Y016195D02*
X016189Y016195D01*
X016268Y016117D02*
X010727Y016117D01*
X010805Y016038D02*
X016346Y016038D01*
X016425Y015960D02*
X014686Y015960D01*
X014804Y015881D02*
X016503Y015881D01*
X016564Y015803D02*
X014853Y015803D01*
X014874Y015724D02*
X016570Y015724D01*
X016603Y015646D02*
X014874Y015646D01*
X014845Y015567D02*
X016676Y015567D01*
X016844Y015795D02*
X015194Y017445D01*
X015194Y018795D01*
X015474Y018786D02*
X023233Y018786D01*
X023233Y018864D02*
X015468Y018864D01*
X015436Y018943D02*
X023233Y018943D01*
X023233Y019021D02*
X015364Y019021D01*
X015461Y018707D02*
X023233Y018707D01*
X023233Y018629D02*
X015424Y018629D01*
X015374Y018550D02*
X023233Y018550D01*
X023233Y018472D02*
X015374Y018472D01*
X015374Y018393D02*
X023233Y018393D01*
X023233Y018315D02*
X015374Y018315D01*
X015374Y018236D02*
X023233Y018236D01*
X023233Y018158D02*
X015374Y018158D01*
X015374Y018079D02*
X023233Y018079D01*
X023233Y018001D02*
X015374Y018001D01*
X015374Y017922D02*
X023233Y017922D01*
X023233Y017844D02*
X015374Y017844D01*
X015374Y017765D02*
X023233Y017765D01*
X023233Y017687D02*
X015374Y017687D01*
X015374Y017608D02*
X023233Y017608D01*
X023233Y017530D02*
X015374Y017530D01*
X015442Y017451D02*
X023233Y017451D01*
X023233Y017373D02*
X015521Y017373D01*
X015599Y017294D02*
X023233Y017294D01*
X023233Y017216D02*
X015678Y017216D01*
X015756Y017137D02*
X023233Y017137D01*
X023233Y017059D02*
X015835Y017059D01*
X015913Y016980D02*
X023233Y016980D01*
X023233Y016902D02*
X015992Y016902D01*
X016070Y016823D02*
X023233Y016823D01*
X023233Y016745D02*
X016149Y016745D01*
X016227Y016666D02*
X023233Y016666D01*
X023233Y016588D02*
X016306Y016588D01*
X016384Y016509D02*
X023233Y016509D01*
X023233Y016431D02*
X016463Y016431D01*
X016541Y016352D02*
X023233Y016352D01*
X023233Y016274D02*
X016620Y016274D01*
X016698Y016195D02*
X023233Y016195D01*
X023233Y016117D02*
X016777Y016117D01*
X016988Y016038D02*
X023233Y016038D01*
X023233Y015960D02*
X017075Y015960D01*
X017111Y015881D02*
X023233Y015881D01*
X023233Y015803D02*
X017124Y015803D01*
X017118Y015724D02*
X023233Y015724D01*
X023233Y015646D02*
X017086Y015646D01*
X017013Y015567D02*
X023233Y015567D01*
X023233Y015489D02*
X014784Y015489D01*
X014594Y015695D02*
X010894Y015695D01*
X010962Y015881D02*
X014385Y015881D01*
X014502Y015960D02*
X010884Y015960D01*
X010423Y015332D02*
X021018Y015332D01*
X020939Y015253D02*
X010501Y015253D01*
X010580Y015175D02*
X020876Y015175D01*
X020843Y015096D02*
X010658Y015096D01*
X010737Y015018D02*
X020811Y015018D01*
X020804Y014939D02*
X010815Y014939D01*
X010894Y014861D02*
X020804Y014861D01*
X020804Y014782D02*
X018222Y014782D01*
X018300Y014704D02*
X020804Y014704D01*
X020804Y014625D02*
X018379Y014625D01*
X018331Y014674D02*
X018331Y014674D01*
X018457Y014547D02*
X020804Y014547D01*
X020804Y014468D02*
X018518Y014468D01*
X018518Y014390D02*
X020804Y014390D01*
X020804Y014311D02*
X018518Y014311D01*
X018518Y014233D02*
X020804Y014233D01*
X020804Y014154D02*
X018518Y014154D01*
X018518Y014076D02*
X020804Y014076D01*
X020804Y013997D02*
X018518Y013997D01*
X018518Y013919D02*
X020804Y013919D01*
X020804Y013840D02*
X018518Y013840D01*
X018518Y013762D02*
X020804Y013762D01*
X020804Y013683D02*
X018518Y013683D01*
X018518Y013605D02*
X020804Y013605D01*
X020804Y013526D02*
X018518Y013526D01*
X018518Y013448D02*
X020804Y013448D01*
X020804Y013369D02*
X018518Y013369D01*
X018518Y013291D02*
X020804Y013291D01*
X020804Y013212D02*
X018518Y013212D01*
X018452Y013134D02*
X020804Y013134D01*
X020804Y013055D02*
X018373Y013055D01*
X018299Y012977D02*
X020804Y012977D01*
X020804Y012898D02*
X018293Y012898D01*
X018260Y012820D02*
X020804Y012820D01*
X020804Y012741D02*
X018187Y012741D01*
X017852Y012741D02*
X016470Y012741D01*
X016392Y012663D02*
X020804Y012663D01*
X020804Y012584D02*
X016313Y012584D01*
X016235Y012506D02*
X020804Y012506D01*
X020804Y012427D02*
X016156Y012427D01*
X016078Y012349D02*
X020804Y012349D01*
X020804Y012270D02*
X015999Y012270D01*
X015921Y012192D02*
X020804Y012192D01*
X020804Y012113D02*
X015842Y012113D01*
X015774Y012035D02*
X020804Y012035D01*
X020804Y011956D02*
X015710Y011956D01*
X015594Y012095D02*
X015594Y012120D01*
X016694Y013220D01*
X016974Y013212D02*
X017873Y013212D01*
X017787Y013134D02*
X016962Y013134D01*
X016926Y013055D02*
X017752Y013055D01*
X017739Y012977D02*
X016839Y012977D01*
X016627Y012898D02*
X017746Y012898D01*
X017778Y012820D02*
X016549Y012820D01*
X016968Y013291D02*
X018072Y013291D01*
X015594Y012095D02*
X010894Y012095D01*
X010394Y012595D01*
X008648Y014737D02*
X008648Y008761D01*
X008188Y008301D01*
X007625Y009706D02*
X007729Y009810D01*
X005293Y010936D02*
X004957Y010936D01*
X004957Y011014D02*
X005214Y011014D01*
X005136Y011093D02*
X004957Y011093D01*
X004957Y011171D02*
X005090Y011171D01*
X005058Y011250D02*
X004957Y011250D01*
X004957Y011328D02*
X005025Y011328D01*
X005016Y011407D02*
X004957Y011407D01*
X004957Y011485D02*
X005016Y011485D01*
X005016Y011564D02*
X004957Y011564D01*
X004957Y011642D02*
X005031Y011642D01*
X005064Y011721D02*
X004957Y011721D01*
X004957Y011799D02*
X005096Y011799D01*
X005151Y011878D02*
X004957Y011878D01*
X004957Y011956D02*
X005229Y011956D01*
X005328Y012035D02*
X004957Y012035D01*
X004957Y012113D02*
X005424Y012113D01*
X005424Y012192D02*
X004957Y012192D01*
X004957Y012270D02*
X005424Y012270D01*
X005424Y012349D02*
X004957Y012349D01*
X004957Y012427D02*
X005424Y012427D01*
X005424Y012506D02*
X004957Y012506D01*
X004957Y012584D02*
X005424Y012584D01*
X005424Y012663D02*
X004957Y012663D01*
X004957Y012741D02*
X005424Y012741D01*
X005424Y012820D02*
X004957Y012820D01*
X004957Y012898D02*
X005424Y012898D01*
X005424Y012977D02*
X004957Y012977D01*
X004957Y013055D02*
X005424Y013055D01*
X005424Y013134D02*
X004957Y013134D01*
X004957Y013212D02*
X005396Y013212D01*
X005364Y013291D02*
X004957Y013291D01*
X004957Y013369D02*
X005364Y013369D01*
X005384Y013448D02*
X004957Y013448D01*
X004957Y013526D02*
X005430Y013526D01*
X004386Y013526D02*
X000284Y013526D01*
X000284Y013448D02*
X004386Y013448D01*
X004386Y013369D02*
X000284Y013369D01*
X000284Y013291D02*
X004386Y013291D01*
X004386Y013212D02*
X000284Y013212D01*
X000284Y013134D02*
X004386Y013134D01*
X004386Y013055D02*
X000284Y013055D01*
X000284Y012977D02*
X004386Y012977D01*
X004386Y012898D02*
X000284Y012898D01*
X000284Y012820D02*
X004386Y012820D01*
X004386Y012741D02*
X000284Y012741D01*
X000284Y012663D02*
X004386Y012663D01*
X004386Y012584D02*
X000284Y012584D01*
X000284Y012506D02*
X004386Y012506D01*
X004386Y013605D02*
X000284Y013605D01*
X000284Y013683D02*
X004386Y013683D01*
X004386Y013762D02*
X000284Y013762D01*
X000284Y013840D02*
X004386Y013840D01*
X004386Y013919D02*
X000284Y013919D01*
X000284Y013997D02*
X004386Y013997D01*
X004386Y014076D02*
X000284Y014076D01*
X000284Y014154D02*
X004386Y014154D01*
X004386Y014233D02*
X000284Y014233D01*
X000284Y014311D02*
X004386Y014311D01*
X004386Y014390D02*
X000284Y014390D01*
X000284Y014468D02*
X004386Y014468D01*
X004386Y014547D02*
X000284Y014547D01*
X000284Y014625D02*
X004386Y014625D01*
X004353Y014704D02*
X000284Y014704D01*
X000284Y014782D02*
X004275Y014782D01*
X004196Y014861D02*
X003114Y014861D01*
X003192Y014939D02*
X004118Y014939D01*
X004039Y015018D02*
X003271Y015018D01*
X003349Y015096D02*
X003961Y015096D01*
X003882Y015175D02*
X003389Y015175D01*
X003389Y015253D02*
X003804Y015253D01*
X003725Y015332D02*
X003389Y015332D01*
X003389Y015410D02*
X003647Y015410D01*
X003568Y015489D02*
X003389Y015489D01*
X003380Y015567D02*
X003490Y015567D01*
X003411Y015646D02*
X003301Y015646D01*
X003333Y015724D02*
X003223Y015724D01*
X003254Y015803D02*
X003144Y015803D01*
X002408Y015096D02*
X002349Y015096D01*
X002271Y015018D02*
X002487Y015018D01*
X002565Y014939D02*
X002192Y014939D01*
X002114Y014861D02*
X002644Y014861D01*
X001644Y014861D02*
X000284Y014861D01*
X000284Y014939D02*
X001565Y014939D01*
X001487Y015018D02*
X000284Y015018D01*
X000284Y015096D02*
X001408Y015096D01*
X001369Y015175D02*
X000284Y015175D01*
X000284Y015253D02*
X001369Y015253D01*
X001369Y015332D02*
X000284Y015332D01*
X000284Y015410D02*
X001369Y015410D01*
X001369Y015489D02*
X000284Y015489D01*
X000284Y015567D02*
X001304Y015567D01*
X001225Y015646D02*
X000284Y015646D01*
X000284Y015724D02*
X001147Y015724D01*
X001068Y015803D02*
X000284Y015803D01*
X000284Y015881D02*
X000990Y015881D01*
X000911Y015960D02*
X000284Y015960D01*
X000284Y016038D02*
X000857Y016038D01*
X000834Y016117D02*
X000284Y016117D01*
X000284Y016195D02*
X000834Y016195D01*
X000834Y016274D02*
X000284Y016274D01*
X000284Y016352D02*
X000834Y016352D01*
X000834Y016431D02*
X000284Y016431D01*
X000284Y016509D02*
X000834Y016509D01*
X000834Y016588D02*
X000284Y016588D01*
X000284Y016666D02*
X000834Y016666D01*
X000834Y016745D02*
X000284Y016745D01*
X000284Y016823D02*
X000834Y016823D01*
X000834Y016902D02*
X000284Y016902D01*
X000284Y016980D02*
X000834Y016980D01*
X000834Y017059D02*
X000284Y017059D01*
X000284Y017137D02*
X000834Y017137D01*
X000834Y017216D02*
X000284Y017216D01*
X000284Y017294D02*
X000834Y017294D01*
X000834Y017373D02*
X000284Y017373D01*
X000284Y017451D02*
X000834Y017451D01*
X000834Y017530D02*
X000284Y017530D01*
X000284Y017608D02*
X000834Y017608D01*
X000834Y017687D02*
X000284Y017687D01*
X000284Y017765D02*
X000834Y017765D01*
X000834Y017844D02*
X000284Y017844D01*
X000284Y017922D02*
X000834Y017922D01*
X000834Y018001D02*
X000284Y018001D01*
X000284Y018079D02*
X000834Y018079D01*
X000834Y018158D02*
X000284Y018158D01*
X000284Y018236D02*
X000834Y018236D01*
X000834Y018315D02*
X000284Y018315D01*
X000284Y018393D02*
X000834Y018393D01*
X000834Y018472D02*
X000284Y018472D01*
X000284Y018550D02*
X000834Y018550D01*
X000834Y018629D02*
X000284Y018629D01*
X000284Y018707D02*
X000834Y018707D01*
X000834Y018786D02*
X000284Y018786D01*
X000284Y018864D02*
X000834Y018864D01*
X000834Y018943D02*
X000284Y018943D01*
X000284Y019021D02*
X000834Y019021D01*
X000834Y019100D02*
X000284Y019100D01*
X000284Y019178D02*
X000834Y019178D01*
X000834Y019257D02*
X000284Y019257D01*
X000284Y019335D02*
X000834Y019335D01*
X000834Y019414D02*
X000284Y019414D01*
X000284Y019492D02*
X000834Y019492D01*
X000834Y019571D02*
X000284Y019571D01*
X000284Y019649D02*
X000834Y019649D01*
X000834Y019728D02*
X000284Y019728D01*
X000284Y019806D02*
X000834Y019806D01*
X000834Y019885D02*
X000284Y019885D01*
X000284Y019963D02*
X000834Y019963D01*
X000834Y020042D02*
X000284Y020042D01*
X000284Y020120D02*
X000834Y020120D01*
X000834Y020199D02*
X000284Y020199D01*
X000284Y020277D02*
X000834Y020277D01*
X000834Y020356D02*
X000284Y020356D01*
X000284Y020434D02*
X000834Y020434D01*
X000841Y020513D02*
X000284Y020513D01*
X000284Y020591D02*
X000874Y020591D01*
X000952Y020670D02*
X000284Y020670D01*
X000284Y020748D02*
X001030Y020748D01*
X001109Y020827D02*
X000284Y020827D01*
X000284Y020905D02*
X001187Y020905D01*
X001266Y020984D02*
X000284Y020984D01*
X000284Y021062D02*
X001344Y021062D01*
X001423Y021141D02*
X000360Y021141D01*
X000438Y021219D02*
X001501Y021219D01*
X001580Y021298D02*
X000517Y021298D01*
X000595Y021376D02*
X001658Y021376D01*
X001737Y021455D02*
X000674Y021455D01*
X000752Y021533D02*
X001815Y021533D01*
X001894Y021612D02*
X000831Y021612D01*
X000909Y021690D02*
X001972Y021690D01*
X002051Y021769D02*
X000988Y021769D01*
X001066Y021847D02*
X002129Y021847D01*
X002208Y021926D02*
X001145Y021926D01*
X001223Y022004D02*
X002286Y022004D01*
X002365Y022083D02*
X001302Y022083D01*
X001380Y022161D02*
X003256Y022161D01*
X003432Y022161D02*
X022137Y022161D01*
X022215Y022083D02*
X003552Y022083D01*
X003602Y022004D02*
X011212Y022004D01*
X011296Y022039D02*
X011114Y021964D01*
X010975Y021825D01*
X010900Y021643D01*
X010900Y021446D01*
X010975Y021265D01*
X011114Y021126D01*
X011296Y021050D01*
X011493Y021050D01*
X011674Y021126D01*
X011813Y021265D01*
X011889Y021446D01*
X011889Y021643D01*
X011813Y021825D01*
X011674Y021964D01*
X011493Y022039D01*
X011296Y022039D01*
X011076Y021926D02*
X003624Y021926D01*
X003624Y021847D02*
X010998Y021847D01*
X010952Y021769D02*
X003595Y021769D01*
X003536Y021690D02*
X010919Y021690D01*
X010900Y021612D02*
X002629Y021612D01*
X002550Y021533D02*
X010900Y021533D01*
X010900Y021455D02*
X002472Y021455D01*
X002393Y021376D02*
X010929Y021376D01*
X010961Y021298D02*
X002315Y021298D01*
X002236Y021219D02*
X011021Y021219D01*
X011099Y021141D02*
X002158Y021141D01*
X002079Y021062D02*
X011267Y021062D01*
X011521Y021062D02*
X013251Y021062D01*
X013280Y021050D02*
X013477Y021050D01*
X013658Y021126D01*
X013798Y021265D01*
X013873Y021446D01*
X013873Y021643D01*
X013798Y021825D01*
X013658Y021964D01*
X013477Y022039D01*
X013280Y022039D01*
X013098Y021964D01*
X012959Y021825D01*
X012884Y021643D01*
X012884Y021446D01*
X012959Y021265D01*
X013098Y021126D01*
X013280Y021050D01*
X013083Y021141D02*
X011689Y021141D01*
X011768Y021219D02*
X013005Y021219D01*
X012946Y021298D02*
X011827Y021298D01*
X011860Y021376D02*
X012913Y021376D01*
X012884Y021455D02*
X011889Y021455D01*
X011889Y021533D02*
X012884Y021533D01*
X012884Y021612D02*
X011889Y021612D01*
X011869Y021690D02*
X012904Y021690D01*
X012936Y021769D02*
X011836Y021769D01*
X011791Y021847D02*
X012982Y021847D01*
X013060Y021926D02*
X011712Y021926D01*
X011576Y022004D02*
X013196Y022004D01*
X013561Y022004D02*
X022294Y022004D01*
X022372Y021926D02*
X013696Y021926D01*
X013775Y021847D02*
X022451Y021847D01*
X022529Y021769D02*
X013821Y021769D01*
X013853Y021690D02*
X022608Y021690D01*
X022686Y021612D02*
X013873Y021612D01*
X013873Y021533D02*
X022765Y021533D01*
X022843Y021455D02*
X013873Y021455D01*
X013844Y021376D02*
X015186Y021376D01*
X015160Y021350D02*
X015160Y020053D01*
X015242Y019971D01*
X016539Y019971D01*
X016933Y019971D01*
X017015Y020053D01*
X017015Y021350D01*
X016933Y021432D01*
X015242Y021432D01*
X015160Y021350D01*
X015160Y021298D02*
X013811Y021298D01*
X013752Y021219D02*
X015160Y021219D01*
X015160Y021141D02*
X013674Y021141D01*
X013506Y021062D02*
X015160Y021062D01*
X015160Y020984D02*
X005599Y020984D01*
X005444Y020745D02*
X004794Y020095D01*
X004794Y016095D01*
X004533Y016195D02*
X004298Y016195D01*
X004377Y016117D02*
X004514Y016117D01*
X004515Y016038D02*
X004455Y016038D01*
X004534Y015960D02*
X004547Y015960D01*
X004577Y016274D02*
X004220Y016274D01*
X004141Y016352D02*
X004614Y016352D01*
X004614Y016431D02*
X004063Y016431D01*
X003984Y016509D02*
X004614Y016509D01*
X004614Y016588D02*
X003906Y016588D01*
X003827Y016666D02*
X004614Y016666D01*
X004614Y016745D02*
X003749Y016745D01*
X003670Y016823D02*
X004614Y016823D01*
X004614Y016902D02*
X003592Y016902D01*
X003513Y016980D02*
X004614Y016980D01*
X004614Y017059D02*
X003435Y017059D01*
X003389Y017137D02*
X004614Y017137D01*
X004614Y017216D02*
X003389Y017216D01*
X003389Y017294D02*
X004614Y017294D01*
X004614Y017373D02*
X003389Y017373D01*
X003389Y017451D02*
X004614Y017451D01*
X004614Y017530D02*
X003389Y017530D01*
X003339Y017608D02*
X004614Y017608D01*
X004614Y017687D02*
X003260Y017687D01*
X003182Y017765D02*
X004614Y017765D01*
X004614Y017844D02*
X003103Y017844D01*
X002946Y018001D02*
X004614Y018001D01*
X004614Y018079D02*
X002999Y018079D01*
X003024Y018158D02*
X004614Y018158D01*
X004614Y018236D02*
X003024Y018236D01*
X002998Y018315D02*
X004614Y018315D01*
X004614Y018393D02*
X002942Y018393D01*
X002807Y018472D02*
X004614Y018472D01*
X004614Y018550D02*
X001354Y018550D01*
X001354Y018629D02*
X004614Y018629D01*
X004614Y018707D02*
X001354Y018707D01*
X001354Y018786D02*
X004614Y018786D01*
X004614Y018864D02*
X001354Y018864D01*
X001354Y018943D02*
X004614Y018943D01*
X004614Y019021D02*
X001354Y019021D01*
X001354Y019100D02*
X004614Y019100D01*
X004614Y019178D02*
X001354Y019178D01*
X001354Y019257D02*
X004614Y019257D01*
X004614Y019335D02*
X001354Y019335D01*
X001354Y019414D02*
X004614Y019414D01*
X004614Y019492D02*
X001354Y019492D01*
X001354Y019571D02*
X004614Y019571D01*
X004614Y019649D02*
X001354Y019649D01*
X001354Y019728D02*
X004614Y019728D01*
X004614Y019806D02*
X001354Y019806D01*
X001354Y019885D02*
X004614Y019885D01*
X004614Y019963D02*
X001354Y019963D01*
X001354Y020042D02*
X004614Y020042D01*
X004614Y020120D02*
X001354Y020120D01*
X001354Y020199D02*
X004644Y020199D01*
X004722Y020277D02*
X001354Y020277D01*
X001373Y020356D02*
X004801Y020356D01*
X004879Y020434D02*
X001451Y020434D01*
X001530Y020513D02*
X004958Y020513D01*
X005036Y020591D02*
X001608Y020591D01*
X001687Y020670D02*
X005115Y020670D01*
X005164Y020748D02*
X001765Y020748D01*
X001844Y020827D02*
X005175Y020827D01*
X005209Y020905D02*
X001922Y020905D01*
X002001Y020984D02*
X005290Y020984D01*
X005794Y020695D02*
X005094Y019995D01*
X005094Y015845D01*
X004994Y015745D01*
X004944Y015295D02*
X006194Y015295D01*
X006244Y015245D01*
X006244Y015295D01*
X006294Y015295D01*
X006244Y015295D02*
X006194Y015295D01*
X004944Y015295D02*
X002892Y017347D01*
X002879Y017347D01*
X002524Y016980D02*
X001354Y016980D01*
X001354Y016902D02*
X002603Y016902D01*
X002734Y016823D02*
X002224Y016823D01*
X002302Y016745D02*
X002655Y016745D01*
X002577Y016666D02*
X002381Y016666D01*
X002459Y016588D02*
X002498Y016588D01*
X002446Y017059D02*
X001354Y017059D01*
X001354Y017137D02*
X002369Y017137D01*
X002369Y017216D02*
X001354Y017216D01*
X001354Y017294D02*
X002369Y017294D01*
X002369Y017373D02*
X001354Y017373D01*
X001354Y017451D02*
X002369Y017451D01*
X002369Y017530D02*
X001354Y017530D01*
X001354Y017608D02*
X002419Y017608D01*
X002497Y017687D02*
X001354Y017687D01*
X001354Y017765D02*
X002576Y017765D01*
X002654Y017844D02*
X001354Y017844D01*
X001389Y017922D02*
X002670Y017922D01*
X002818Y017922D02*
X004614Y017922D01*
X002681Y018472D02*
X001385Y018472D01*
X001354Y016823D02*
X001734Y016823D01*
X001655Y016745D02*
X001354Y016745D01*
X001354Y016666D02*
X001577Y016666D01*
X001498Y016588D02*
X001354Y016588D01*
X001354Y016509D02*
X001469Y016509D01*
X001469Y016431D02*
X001354Y016431D01*
X001354Y016352D02*
X001469Y016352D01*
X001469Y016274D02*
X001354Y016274D01*
X001411Y016195D02*
X001469Y016195D01*
X005274Y019885D02*
X023233Y019885D01*
X023233Y019963D02*
X005317Y019963D01*
X005396Y020042D02*
X015171Y020042D01*
X015160Y020120D02*
X005474Y020120D01*
X005553Y020199D02*
X015160Y020199D01*
X015160Y020277D02*
X005631Y020277D01*
X005710Y020356D02*
X015160Y020356D01*
X015160Y020434D02*
X005897Y020434D01*
X006008Y020513D02*
X015160Y020513D01*
X015160Y020591D02*
X006054Y020591D01*
X006074Y020670D02*
X015160Y020670D01*
X015160Y020748D02*
X006074Y020748D01*
X006043Y020827D02*
X015160Y020827D01*
X015160Y020905D02*
X005980Y020905D01*
X003107Y023888D02*
X011756Y023888D01*
X011814Y023912D02*
X011545Y023801D01*
X011340Y023596D01*
X011229Y023327D01*
X011229Y023036D01*
X011340Y022768D01*
X011545Y022562D01*
X011814Y022451D01*
X012105Y022451D01*
X012373Y022562D01*
X012579Y022768D01*
X012690Y023036D01*
X012690Y023327D01*
X012579Y023596D01*
X012373Y023801D01*
X012105Y023912D01*
X011814Y023912D01*
X012162Y023888D02*
X020410Y023888D01*
X020488Y023810D02*
X012352Y023810D01*
X012443Y023731D02*
X020567Y023731D01*
X020645Y023653D02*
X012521Y023653D01*
X012587Y023574D02*
X020724Y023574D01*
X020802Y023496D02*
X012620Y023496D01*
X012652Y023417D02*
X020881Y023417D01*
X020959Y023339D02*
X012685Y023339D01*
X012690Y023260D02*
X021038Y023260D01*
X021116Y023182D02*
X012690Y023182D01*
X012690Y023103D02*
X021195Y023103D01*
X021273Y023025D02*
X012685Y023025D01*
X012652Y022946D02*
X021352Y022946D01*
X021430Y022868D02*
X012620Y022868D01*
X012587Y022789D02*
X021509Y022789D01*
X021587Y022711D02*
X012521Y022711D01*
X012443Y022632D02*
X021666Y022632D01*
X021744Y022554D02*
X012352Y022554D01*
X012163Y022475D02*
X021823Y022475D01*
X021901Y022397D02*
X001616Y022397D01*
X001694Y022475D02*
X011756Y022475D01*
X011566Y022554D02*
X001773Y022554D01*
X001851Y022632D02*
X011475Y022632D01*
X011397Y022711D02*
X001930Y022711D01*
X002008Y022789D02*
X011331Y022789D01*
X011298Y022868D02*
X002087Y022868D01*
X002165Y022946D02*
X011266Y022946D01*
X011233Y023025D02*
X002244Y023025D01*
X002322Y023103D02*
X011229Y023103D01*
X011229Y023182D02*
X002401Y023182D01*
X002479Y023260D02*
X011229Y023260D01*
X011234Y023339D02*
X002558Y023339D01*
X002636Y023417D02*
X011266Y023417D01*
X011299Y023496D02*
X002715Y023496D01*
X002793Y023574D02*
X011331Y023574D01*
X011397Y023653D02*
X002872Y023653D01*
X002950Y023731D02*
X011476Y023731D01*
X011566Y023810D02*
X003029Y023810D01*
X003186Y023967D02*
X020331Y023967D01*
X020253Y024045D02*
X003264Y024045D01*
X003343Y024124D02*
X020174Y024124D01*
X021980Y022318D02*
X001537Y022318D01*
X001459Y022240D02*
X022058Y022240D01*
X022922Y021376D02*
X016989Y021376D01*
X017015Y021298D02*
X023000Y021298D01*
X023079Y021219D02*
X017015Y021219D01*
X017015Y021141D02*
X023157Y021141D01*
X023233Y021062D02*
X017015Y021062D01*
X017015Y020984D02*
X023233Y020984D01*
X023233Y020905D02*
X017015Y020905D01*
X017015Y020827D02*
X023233Y020827D01*
X023233Y020748D02*
X017015Y020748D01*
X017015Y020670D02*
X023233Y020670D01*
X023233Y020591D02*
X017015Y020591D01*
X017015Y020513D02*
X023233Y020513D01*
X023233Y020434D02*
X017015Y020434D01*
X017015Y020356D02*
X023233Y020356D01*
X023233Y020277D02*
X017015Y020277D01*
X017015Y020199D02*
X023233Y020199D01*
X023233Y020120D02*
X017015Y020120D01*
X017004Y020042D02*
X023233Y020042D01*
X023233Y015410D02*
X021511Y015410D01*
X021671Y015332D02*
X023233Y015332D01*
X023233Y015253D02*
X021749Y015253D01*
X021813Y015175D02*
X023233Y015175D01*
X023233Y015096D02*
X021845Y015096D01*
X021878Y015018D02*
X023233Y015018D01*
X023233Y014939D02*
X021884Y014939D01*
X021884Y014861D02*
X023233Y014861D01*
X023233Y014782D02*
X021884Y014782D01*
X021884Y014704D02*
X023233Y014704D01*
X023233Y014625D02*
X021884Y014625D01*
X021884Y014547D02*
X023233Y014547D01*
X023233Y014468D02*
X021884Y014468D01*
X021884Y014390D02*
X023233Y014390D01*
X023233Y014311D02*
X021884Y014311D01*
X021884Y014233D02*
X023233Y014233D01*
X023233Y014154D02*
X021884Y014154D01*
X021884Y014076D02*
X023233Y014076D01*
X023233Y013997D02*
X021884Y013997D01*
X021884Y013919D02*
X023233Y013919D01*
X023233Y013840D02*
X021884Y013840D01*
X021884Y013762D02*
X023233Y013762D01*
X023233Y013683D02*
X021884Y013683D01*
X021884Y013605D02*
X023233Y013605D01*
X023233Y013526D02*
X021884Y013526D01*
X021884Y013448D02*
X023233Y013448D01*
X023233Y013369D02*
X021884Y013369D01*
X021884Y013291D02*
X023233Y013291D01*
X023233Y013212D02*
X021884Y013212D01*
X021884Y013134D02*
X023233Y013134D01*
X023233Y013055D02*
X021884Y013055D01*
X021884Y012977D02*
X023233Y012977D01*
X023233Y012898D02*
X021884Y012898D01*
X021884Y012820D02*
X023233Y012820D01*
X023233Y012741D02*
X021884Y012741D01*
X021884Y012663D02*
X023233Y012663D01*
X023233Y012584D02*
X021884Y012584D01*
X021884Y012506D02*
X023233Y012506D01*
X023233Y012427D02*
X021884Y012427D01*
X021884Y012349D02*
X023233Y012349D01*
X023233Y012270D02*
X021884Y012270D01*
X021884Y012192D02*
X023233Y012192D01*
X023233Y012113D02*
X021884Y012113D01*
X021884Y012035D02*
X023233Y012035D01*
X023233Y011956D02*
X021884Y011956D01*
X021884Y011878D02*
X023233Y011878D01*
X023233Y011799D02*
X021884Y011799D01*
X021884Y011721D02*
X023233Y011721D01*
X023233Y011642D02*
X021884Y011642D01*
X021884Y011564D02*
X023233Y011564D01*
X023233Y011485D02*
X021884Y011485D01*
X021884Y011407D02*
X023233Y011407D01*
X023233Y011328D02*
X021884Y011328D01*
X021884Y011250D02*
X023233Y011250D01*
X023233Y011171D02*
X021884Y011171D01*
X021866Y011093D02*
X023233Y011093D01*
X023233Y011014D02*
X021833Y011014D01*
X021799Y010936D02*
X023233Y010936D01*
X023233Y010857D02*
X021720Y010857D01*
X021642Y010779D02*
X023233Y010779D01*
X023233Y010700D02*
X021563Y010700D01*
X021485Y010622D02*
X023233Y010622D01*
X023233Y010543D02*
X021406Y010543D01*
X021328Y010465D02*
X023233Y010465D01*
X023233Y010386D02*
X021249Y010386D01*
X021171Y010308D02*
X023233Y010308D01*
X023233Y010229D02*
X021092Y010229D01*
X021014Y010151D02*
X023233Y010151D01*
X023233Y010072D02*
X020935Y010072D01*
X020857Y009994D02*
X023233Y009994D01*
X023233Y009915D02*
X020778Y009915D01*
X020700Y009837D02*
X023233Y009837D01*
X023233Y009758D02*
X020621Y009758D01*
X020543Y009680D02*
X023233Y009680D01*
X023233Y009601D02*
X020464Y009601D01*
X020386Y009523D02*
X023233Y009523D01*
X023233Y009444D02*
X020307Y009444D01*
X020229Y009366D02*
X023233Y009366D01*
X023233Y009287D02*
X020150Y009287D01*
X020137Y009209D02*
X023233Y009209D01*
X023233Y009130D02*
X020137Y009130D01*
X020137Y009052D02*
X023233Y009052D01*
X023233Y008973D02*
X020137Y008973D01*
X020137Y008895D02*
X023233Y008895D01*
X023233Y008816D02*
X020137Y008816D01*
X020137Y008738D02*
X023233Y008738D01*
X023233Y006618D02*
X022434Y006618D01*
X022513Y006540D02*
X023233Y006540D01*
X023233Y006461D02*
X022568Y006461D01*
X022601Y006383D02*
X023233Y006383D01*
X023233Y006304D02*
X022633Y006304D01*
X022634Y006226D02*
X023233Y006226D01*
X023233Y006147D02*
X022634Y006147D01*
X022627Y006069D02*
X023233Y006069D01*
X023233Y005990D02*
X022594Y005990D01*
X022561Y005912D02*
X023233Y005912D01*
X023233Y005833D02*
X022496Y005833D01*
X022418Y005755D02*
X023233Y005755D01*
X023233Y005676D02*
X022254Y005676D01*
X021094Y006775D02*
X020277Y006775D01*
X020199Y006854D02*
X021094Y006854D01*
X021094Y006932D02*
X020137Y006932D01*
X020137Y007011D02*
X021094Y007011D01*
X021094Y007089D02*
X020137Y007089D01*
X020137Y007168D02*
X021094Y007168D01*
X021094Y007246D02*
X020137Y007246D01*
X020137Y007325D02*
X021094Y007325D01*
X021094Y007403D02*
X020137Y007403D01*
X020137Y007482D02*
X021094Y007482D01*
X021094Y007560D02*
X020137Y007560D01*
X020137Y007639D02*
X021094Y007639D01*
X021094Y007717D02*
X020137Y007717D01*
X020137Y007796D02*
X021094Y007796D01*
X021094Y007874D02*
X020137Y007874D01*
X020137Y007953D02*
X021094Y007953D01*
X021094Y008031D02*
X020137Y008031D01*
X020137Y008110D02*
X021094Y008110D01*
X021094Y008188D02*
X020137Y008188D01*
X020137Y008267D02*
X021094Y008267D01*
X021094Y008345D02*
X020137Y008345D01*
X020137Y008424D02*
X021094Y008424D01*
X021094Y008502D02*
X020137Y008502D01*
X020137Y008581D02*
X021094Y008581D01*
X021094Y008659D02*
X020137Y008659D01*
X021178Y015410D02*
X010344Y015410D01*
X010266Y015489D02*
X014404Y015489D01*
X009276Y017059D02*
X008934Y017059D01*
X008934Y017137D02*
X009197Y017137D01*
X009036Y017216D02*
X008934Y017216D01*
X001683Y009837D02*
X001630Y009837D01*
X001604Y009915D02*
X001593Y009915D01*
X001526Y009994D02*
X001515Y009994D01*
X001447Y010072D02*
X001408Y010072D01*
X001067Y010151D02*
X000284Y010151D01*
X000284Y010229D02*
X000937Y010229D01*
X000858Y010308D02*
X000284Y010308D01*
X000284Y010386D02*
X000812Y010386D01*
X000780Y010465D02*
X000284Y010465D01*
X000284Y010543D02*
X000758Y010543D01*
X000758Y010622D02*
X000284Y010622D01*
X000284Y010700D02*
X000758Y010700D01*
X000782Y010779D02*
X000284Y010779D01*
X000284Y010857D02*
X000814Y010857D01*
X000863Y010936D02*
X000284Y010936D01*
X000284Y011014D02*
X000941Y011014D01*
X000928Y010072D02*
X000284Y010072D01*
X000284Y009994D02*
X000821Y009994D01*
X000742Y009915D02*
X000284Y009915D01*
X000284Y009837D02*
X000706Y009837D01*
X000673Y009758D02*
X000284Y009758D01*
X000284Y009680D02*
X000658Y009680D01*
X000658Y009601D02*
X000284Y009601D01*
X000284Y009523D02*
X000658Y009523D01*
X000688Y009444D02*
X000284Y009444D01*
X000284Y009366D02*
X000721Y009366D01*
X000779Y009287D02*
X000284Y009287D01*
X000284Y009209D02*
X000857Y009209D01*
X001016Y009130D02*
X000284Y009130D01*
X000284Y009052D02*
X000979Y009052D01*
X000900Y008973D02*
X000284Y008973D01*
X000284Y008895D02*
X000830Y008895D01*
X000797Y008816D02*
X000284Y008816D01*
X000284Y008738D02*
X000765Y008738D01*
X000758Y008659D02*
X000284Y008659D01*
X000284Y008581D02*
X000758Y008581D01*
X000764Y008502D02*
X000284Y008502D01*
X000284Y008424D02*
X000797Y008424D01*
X000829Y008345D02*
X000284Y008345D01*
X000284Y008267D02*
X000899Y008267D01*
X000978Y008188D02*
X000284Y008188D01*
X000284Y008110D02*
X001019Y008110D01*
X000858Y008031D02*
X000284Y008031D01*
X000284Y007953D02*
X000780Y007953D01*
X000721Y007874D02*
X000284Y007874D01*
X000284Y007796D02*
X000689Y007796D01*
X000658Y007717D02*
X000284Y007717D01*
X000284Y007639D02*
X000658Y007639D01*
X000658Y007560D02*
X000284Y007560D01*
X000284Y007482D02*
X000673Y007482D01*
X000705Y007403D02*
X000284Y007403D01*
X000284Y007325D02*
X000741Y007325D01*
X000820Y007246D02*
X000284Y007246D01*
X000284Y007168D02*
X000926Y007168D01*
X001410Y007168D02*
X003391Y007168D01*
X003274Y007246D02*
X001516Y007246D01*
X001594Y007325D02*
X003195Y007325D01*
X003133Y007403D02*
X001630Y007403D01*
X001663Y007482D02*
X002590Y007482D01*
X002461Y007560D02*
X001678Y007560D01*
X001678Y007639D02*
X002383Y007639D01*
X002304Y007717D02*
X001678Y007717D01*
X001647Y007796D02*
X002226Y007796D01*
X002147Y007874D02*
X001614Y007874D01*
X001556Y007953D02*
X002069Y007953D01*
X001990Y008031D02*
X001477Y008031D01*
X001370Y008110D02*
X001948Y008110D01*
X001934Y008188D02*
X001558Y008188D01*
X001636Y008267D02*
X001934Y008267D01*
X001934Y008345D02*
X001706Y008345D01*
X001739Y008424D02*
X001934Y008424D01*
X001934Y008502D02*
X001771Y008502D01*
X001778Y008581D02*
X001934Y008581D01*
X001934Y008659D02*
X001778Y008659D01*
X001771Y008738D02*
X001934Y008738D01*
X001934Y008816D02*
X001738Y008816D01*
X001706Y008895D02*
X001934Y008895D01*
X001934Y008973D02*
X001635Y008973D01*
X001557Y009052D02*
X001369Y009130D01*
X001318Y009130D01*
X001478Y009209D02*
X001934Y009209D01*
X001934Y009287D02*
X001557Y009287D01*
X001615Y009366D02*
X001934Y009366D01*
X001934Y009444D02*
X001647Y009444D01*
X001678Y009523D02*
X001934Y009523D01*
X001918Y009601D02*
X001678Y009601D01*
X001678Y009680D02*
X001840Y009680D01*
X001761Y009758D02*
X001662Y009758D01*
X002454Y008345D02*
X003482Y008345D01*
X003312Y008267D02*
X002490Y008267D01*
X002568Y008188D02*
X003233Y008188D01*
X003155Y008110D02*
X002647Y008110D01*
X002725Y008031D02*
X003116Y008031D01*
X005847Y006383D02*
X006015Y006383D01*
X005967Y005205D02*
X007314Y005205D01*
X007625Y003998D02*
X007697Y003998D01*
X007395Y003400D02*
X007338Y003400D01*
X004994Y003045D02*
X004694Y003045D01*
X004556Y002929D02*
X001608Y002929D01*
X001529Y003007D02*
X004477Y003007D01*
X004399Y003086D02*
X001451Y003086D01*
X001372Y003164D02*
X004320Y003164D01*
X004242Y003243D02*
X001294Y003243D01*
X001215Y003321D02*
X004163Y003321D01*
X004085Y003400D02*
X003917Y003400D01*
X003458Y003400D02*
X001137Y003400D01*
X001058Y003478D02*
X003302Y003478D01*
X003223Y003557D02*
X000980Y003557D01*
X000901Y003635D02*
X003145Y003635D01*
X003112Y003714D02*
X000823Y003714D01*
X000744Y003792D02*
X003080Y003792D01*
X003048Y003871D02*
X000666Y003871D01*
X000587Y003949D02*
X003048Y003949D01*
X003048Y004028D02*
X000509Y004028D01*
X000430Y004106D02*
X003048Y004106D01*
X003072Y004185D02*
X000352Y004185D01*
X000284Y004263D02*
X003105Y004263D01*
X003137Y004342D02*
X000284Y004342D01*
X000284Y004420D02*
X003205Y004420D01*
X003284Y004499D02*
X000284Y004499D01*
X000284Y004577D02*
X003415Y004577D01*
X004751Y003243D02*
X004796Y003243D01*
D19*
X007044Y003417D02*
X007044Y003045D01*
X007044Y003417D02*
X007625Y003998D01*
X009544Y003345D02*
X009694Y003495D01*
X009694Y006095D01*
X005656Y011478D02*
X005694Y011516D01*
X005694Y011545D01*
X005644Y011595D01*
X005644Y013345D01*
D20*
X004767Y014717D02*
X005094Y015045D01*
X005944Y015045D01*
X004767Y014717D02*
X004767Y010595D01*
X005656Y009706D01*
X005633Y009706D01*
X004576Y010594D02*
X004576Y014750D01*
X002979Y016347D01*
X003694Y012145D02*
X003688Y012138D01*
X003688Y011478D01*
X004576Y010594D02*
X003688Y009706D01*
X005656Y007807D02*
X005656Y007738D01*
X007625Y007738D02*
X008188Y008301D01*
X007729Y009810D02*
X008154Y010235D01*
X010891Y014595D02*
X008744Y016742D01*
X008744Y018995D01*
X009344Y019595D01*
X010891Y014595D02*
X018141Y014595D01*
X018328Y014407D01*
X018328Y013279D01*
X018019Y012970D01*
D21*
X017994Y013670D03*
X011144Y012795D03*
X006994Y018245D03*
D22*
X006994Y017995D01*
X011144Y013845D01*
X011319Y013670D01*
X011369Y013670D01*
X011144Y013445D01*
X011144Y012795D01*
X011144Y013445D02*
X011144Y013845D01*
X011369Y013670D02*
X011654Y013670D01*
X017994Y013670D01*
D23*
X003688Y007738D02*
X002651Y007738D01*
X002194Y008195D01*
X002194Y009693D01*
X001268Y010620D01*
X001879Y015347D02*
X001879Y015360D01*
X001094Y016145D01*
X001094Y017995D01*
X001294Y018195D01*
X001094Y018395D01*
X001094Y020445D01*
X002544Y021895D01*
X003344Y021895D01*
X001094Y018395D02*
X001094Y017995D01*
X001294Y018195D02*
X002744Y018195D01*
D24*
X019597Y009498D02*
X019597Y006692D01*
X020094Y006195D01*
X022094Y006195D01*
X019597Y009498D02*
X021344Y011245D01*
X021344Y014895D01*
D25*
X008194Y013745D02*
X007625Y013175D01*
X007625Y011478D01*
D26*
X011444Y014245D02*
X017994Y014245D01*
M02*
