G75*
G70*
%OFA0B0*%
%FSLAX24Y24*%
%IPPOS*%
%LPD*%
%AMOC8*
5,1,8,0,0,1.08239X$1,22.5*
%
%ADD10C,0.0000*%
%ADD11OC8,0.0820*%
%ADD12C,0.1261*%
%ADD13R,0.1261X0.1261*%
%ADD14R,0.1660X0.1260*%
%ADD15C,0.1080*%
%ADD16C,0.0820*%
%ADD17C,0.0789*%
D10*
X003294Y001045D02*
X000144Y004194D01*
X000144Y021124D01*
X003294Y024273D01*
X020223Y024273D01*
X023373Y021124D01*
X023373Y004194D01*
X020223Y001045D01*
X003294Y001045D01*
D11*
X002879Y015347D03*
X002979Y016347D03*
X001979Y016347D03*
X001879Y015347D03*
X001879Y017347D03*
X002879Y017347D03*
D12*
X007427Y023182D03*
X011959Y023182D03*
D13*
X015891Y020701D03*
X016284Y020701D03*
X007597Y020701D03*
X007203Y020701D03*
D14*
X007403Y020701D03*
X016091Y020701D03*
D15*
X007625Y011478D03*
X007625Y009706D03*
X007625Y007738D03*
X007625Y005769D03*
X007625Y003998D03*
X005656Y003998D03*
X005656Y005769D03*
X003688Y005769D03*
X003688Y003998D03*
X003688Y007738D03*
X005656Y007738D03*
X005656Y009706D03*
X005656Y011478D03*
X003688Y011478D03*
X003688Y009706D03*
D16*
X001268Y010620D03*
X001168Y011620D03*
X001268Y012620D03*
X001168Y009620D03*
X001268Y008620D03*
X001168Y007620D03*
D17*
X011394Y021545D03*
X013378Y021545D03*
M02*
