G75*
G70*
%OFA0B0*%
%FSLAX24Y24*%
%IPPOS*%
%LPD*%
%AMOC8*
5,1,8,0,0,1.08239X$1,22.5*
%
%ADD10C,0.0000*%
%ADD11R,0.0340X0.0840*%
%ADD12R,0.0840X0.0340*%
%ADD13C,0.0107*%
%ADD14R,0.0552X0.0946*%
%ADD15R,0.0552X0.0867*%
%ADD16R,0.0680X0.0330*%
%ADD17R,0.1080X0.1280*%
%ADD18R,0.1080X0.1330*%
%ADD19C,0.0120*%
%ADD20R,0.1064X0.1340*%
%ADD21R,0.1160X0.0930*%
%ADD22C,0.0190*%
%ADD23C,0.0240*%
%ADD24R,0.0300X0.0580*%
%ADD25R,0.0580X0.0300*%
%ADD26OC8,0.0820*%
%ADD27R,0.1380X0.0880*%
%ADD28C,0.1261*%
%ADD29R,0.1261X0.1261*%
%ADD30R,0.0320X0.0950*%
%ADD31R,0.1340X0.0946*%
%ADD32R,0.2049X0.1852*%
%ADD33R,0.1025X0.1025*%
%ADD34R,0.0552X0.0297*%
%ADD35C,0.0820*%
%ADD36R,0.0480X0.0530*%
%ADD37R,0.0580X0.0580*%
%ADD38C,0.0095*%
%ADD39C,0.0789*%
%ADD40R,0.0780X0.0880*%
D10*
X003294Y001045D02*
X000144Y004194D01*
X000144Y021124D01*
X003294Y024273D01*
X020223Y024273D01*
X023373Y021124D01*
X023373Y004194D01*
X020223Y001045D01*
X003294Y001045D01*
D11*
X012656Y002911D03*
X013050Y002911D03*
X013443Y002911D03*
X013837Y002911D03*
X014231Y002911D03*
X014625Y002911D03*
X015018Y002911D03*
X015412Y002911D03*
X015806Y002911D03*
X016199Y002911D03*
X016593Y002911D03*
X016987Y002911D03*
X017380Y002911D03*
X017774Y002911D03*
X018168Y002911D03*
X018562Y002911D03*
X018955Y002911D03*
X018955Y012360D03*
X018562Y012360D03*
X018168Y012360D03*
X017774Y012360D03*
X017380Y012360D03*
X016987Y012360D03*
X016593Y012360D03*
X016199Y012360D03*
X015806Y012360D03*
X015412Y012360D03*
X015018Y012360D03*
X014625Y012360D03*
X014231Y012360D03*
X013837Y012360D03*
X013443Y012360D03*
X013050Y012360D03*
X012656Y012360D03*
D12*
X011081Y010785D03*
X011081Y010391D03*
X011081Y009998D03*
X011081Y009604D03*
X011081Y009210D03*
X011081Y008816D03*
X011081Y008423D03*
X011081Y008029D03*
X011081Y007635D03*
X011081Y007242D03*
X011081Y006848D03*
X011081Y006454D03*
X011081Y006061D03*
X011081Y005667D03*
X011081Y005273D03*
X011081Y004879D03*
X011081Y004486D03*
X020530Y004486D03*
X020530Y004879D03*
X020530Y005273D03*
X020530Y005667D03*
X020530Y006061D03*
X020530Y006454D03*
X020530Y006848D03*
X020530Y007242D03*
X020530Y007635D03*
X020530Y008029D03*
X020530Y008423D03*
X020530Y008816D03*
X020530Y009210D03*
X020530Y009604D03*
X020530Y009998D03*
X020530Y010391D03*
X020530Y010785D03*
D13*
X021409Y013522D02*
X021409Y013844D01*
X021409Y013522D02*
X021087Y013522D01*
X021087Y013844D01*
X021409Y013844D01*
X021409Y013629D02*
X021087Y013629D01*
X021087Y013736D02*
X021409Y013736D01*
X021409Y013843D02*
X021087Y013843D01*
X021409Y014122D02*
X021409Y014444D01*
X021409Y014122D02*
X021087Y014122D01*
X021087Y014444D01*
X021409Y014444D01*
X021409Y014229D02*
X021087Y014229D01*
X021087Y014336D02*
X021409Y014336D01*
X021409Y014443D02*
X021087Y014443D01*
X022021Y014444D02*
X022021Y014122D01*
X021699Y014122D01*
X021699Y014444D01*
X022021Y014444D01*
X022021Y014229D02*
X021699Y014229D01*
X021699Y014336D02*
X022021Y014336D01*
X022021Y014443D02*
X021699Y014443D01*
X022021Y013844D02*
X022021Y013522D01*
X021699Y013522D01*
X021699Y013844D01*
X022021Y013844D01*
X022021Y013629D02*
X021699Y013629D01*
X021699Y013736D02*
X022021Y013736D01*
X022021Y013843D02*
X021699Y013843D01*
X017656Y014918D02*
X017656Y015240D01*
X017656Y014918D02*
X017334Y014918D01*
X017334Y015240D01*
X017656Y015240D01*
X017656Y015025D02*
X017334Y015025D01*
X017334Y015132D02*
X017656Y015132D01*
X017656Y015239D02*
X017334Y015239D01*
X017656Y015518D02*
X017656Y015840D01*
X017656Y015518D02*
X017334Y015518D01*
X017334Y015840D01*
X017656Y015840D01*
X017656Y015625D02*
X017334Y015625D01*
X017334Y015732D02*
X017656Y015732D01*
X017656Y015839D02*
X017334Y015839D01*
X016394Y014379D02*
X016394Y014057D01*
X016394Y014379D02*
X016716Y014379D01*
X016716Y014057D01*
X016394Y014057D01*
X016394Y014164D02*
X016716Y014164D01*
X016716Y014271D02*
X016394Y014271D01*
X016394Y014378D02*
X016716Y014378D01*
X016394Y013779D02*
X016394Y013457D01*
X016394Y013779D02*
X016716Y013779D01*
X016716Y013457D01*
X016394Y013457D01*
X016394Y013564D02*
X016716Y013564D01*
X016716Y013671D02*
X016394Y013671D01*
X016394Y013778D02*
X016716Y013778D01*
X015410Y014931D02*
X015410Y015253D01*
X015732Y015253D01*
X015732Y014931D01*
X015410Y014931D01*
X015410Y015038D02*
X015732Y015038D01*
X015732Y015145D02*
X015410Y015145D01*
X015410Y015252D02*
X015732Y015252D01*
X015410Y015531D02*
X015410Y015853D01*
X015732Y015853D01*
X015732Y015531D01*
X015410Y015531D01*
X015410Y015638D02*
X015732Y015638D01*
X015732Y015745D02*
X015410Y015745D01*
X015410Y015852D02*
X015732Y015852D01*
X015055Y015856D02*
X015055Y015534D01*
X014733Y015534D01*
X014733Y015856D01*
X015055Y015856D01*
X015055Y015641D02*
X014733Y015641D01*
X014733Y015748D02*
X015055Y015748D01*
X015055Y015855D02*
X014733Y015855D01*
X015055Y015256D02*
X015055Y014934D01*
X014733Y014934D01*
X014733Y015256D01*
X015055Y015256D01*
X015055Y015041D02*
X014733Y015041D01*
X014733Y015148D02*
X015055Y015148D01*
X015055Y015255D02*
X014733Y015255D01*
X014753Y014379D02*
X014753Y014057D01*
X014753Y014379D02*
X015075Y014379D01*
X015075Y014057D01*
X014753Y014057D01*
X014753Y014164D02*
X015075Y014164D01*
X015075Y014271D02*
X014753Y014271D01*
X014753Y014378D02*
X015075Y014378D01*
X014753Y013779D02*
X014753Y013457D01*
X014753Y013779D02*
X015075Y013779D01*
X015075Y013457D01*
X014753Y013457D01*
X014753Y013564D02*
X015075Y013564D01*
X015075Y013671D02*
X014753Y013671D01*
X014753Y013778D02*
X015075Y013778D01*
X010455Y012434D02*
X010133Y012434D01*
X010133Y012756D01*
X010455Y012756D01*
X010455Y012434D01*
X010455Y012541D02*
X010133Y012541D01*
X010133Y012648D02*
X010455Y012648D01*
X010455Y012755D02*
X010133Y012755D01*
X009855Y012434D02*
X009533Y012434D01*
X009533Y012756D01*
X009855Y012756D01*
X009855Y012434D01*
X009855Y012541D02*
X009533Y012541D01*
X009533Y012648D02*
X009855Y012648D01*
X009855Y012755D02*
X009533Y012755D01*
X009439Y014433D02*
X009761Y014433D01*
X009439Y014433D02*
X009439Y014755D01*
X009761Y014755D01*
X009761Y014433D01*
X009761Y014540D02*
X009439Y014540D01*
X009439Y014647D02*
X009761Y014647D01*
X009761Y014754D02*
X009439Y014754D01*
X009439Y015349D02*
X009761Y015349D01*
X009761Y015027D01*
X009439Y015027D01*
X009439Y015349D01*
X009439Y015134D02*
X009761Y015134D01*
X009761Y015241D02*
X009439Y015241D01*
X009439Y015348D02*
X009761Y015348D01*
X009755Y015956D02*
X009433Y015956D01*
X009755Y015956D02*
X009755Y015634D01*
X009433Y015634D01*
X009433Y015956D01*
X009433Y015741D02*
X009755Y015741D01*
X009755Y015848D02*
X009433Y015848D01*
X009433Y015955D02*
X009755Y015955D01*
X009764Y016228D02*
X009442Y016228D01*
X009442Y016550D01*
X009764Y016550D01*
X009764Y016228D01*
X009764Y016335D02*
X009442Y016335D01*
X009442Y016442D02*
X009764Y016442D01*
X009764Y016549D02*
X009442Y016549D01*
X009433Y017156D02*
X009755Y017156D01*
X009755Y016834D01*
X009433Y016834D01*
X009433Y017156D01*
X009433Y016941D02*
X009755Y016941D01*
X009755Y017048D02*
X009433Y017048D01*
X009433Y017155D02*
X009755Y017155D01*
X010033Y017156D02*
X010355Y017156D01*
X010355Y016834D01*
X010033Y016834D01*
X010033Y017156D01*
X010033Y016941D02*
X010355Y016941D01*
X010355Y017048D02*
X010033Y017048D01*
X010033Y017155D02*
X010355Y017155D01*
X010351Y017757D02*
X010029Y017757D01*
X010351Y017757D02*
X010351Y017435D01*
X010029Y017435D01*
X010029Y017757D01*
X010029Y017542D02*
X010351Y017542D01*
X010351Y017649D02*
X010029Y017649D01*
X010029Y017756D02*
X010351Y017756D01*
X009751Y017757D02*
X009429Y017757D01*
X009751Y017757D02*
X009751Y017435D01*
X009429Y017435D01*
X009429Y017757D01*
X009429Y017542D02*
X009751Y017542D01*
X009751Y017649D02*
X009429Y017649D01*
X009429Y017756D02*
X009751Y017756D01*
X009454Y018386D02*
X009132Y018386D01*
X009454Y018386D02*
X009454Y018064D01*
X009132Y018064D01*
X009132Y018386D01*
X009132Y018171D02*
X009454Y018171D01*
X009454Y018278D02*
X009132Y018278D01*
X009132Y018385D02*
X009454Y018385D01*
X008854Y018386D02*
X008532Y018386D01*
X008854Y018386D02*
X008854Y018064D01*
X008532Y018064D01*
X008532Y018386D01*
X008532Y018171D02*
X008854Y018171D01*
X008854Y018278D02*
X008532Y018278D01*
X008532Y018385D02*
X008854Y018385D01*
X007833Y018406D02*
X007833Y018084D01*
X007833Y018406D02*
X008155Y018406D01*
X008155Y018084D01*
X007833Y018084D01*
X007833Y018191D02*
X008155Y018191D01*
X008155Y018298D02*
X007833Y018298D01*
X007833Y018405D02*
X008155Y018405D01*
X007833Y018684D02*
X007833Y019006D01*
X008155Y019006D01*
X008155Y018684D01*
X007833Y018684D01*
X007833Y018791D02*
X008155Y018791D01*
X008155Y018898D02*
X007833Y018898D01*
X007833Y019005D02*
X008155Y019005D01*
X007183Y019006D02*
X007183Y018684D01*
X007183Y019006D02*
X007505Y019006D01*
X007505Y018684D01*
X007183Y018684D01*
X007183Y018791D02*
X007505Y018791D01*
X007505Y018898D02*
X007183Y018898D01*
X007183Y019005D02*
X007505Y019005D01*
X007183Y018406D02*
X007183Y018084D01*
X007183Y018406D02*
X007505Y018406D01*
X007505Y018084D01*
X007183Y018084D01*
X007183Y018191D02*
X007505Y018191D01*
X007505Y018298D02*
X007183Y018298D01*
X007183Y018405D02*
X007505Y018405D01*
X006533Y018406D02*
X006533Y018084D01*
X006533Y018406D02*
X006855Y018406D01*
X006855Y018084D01*
X006533Y018084D01*
X006533Y018191D02*
X006855Y018191D01*
X006855Y018298D02*
X006533Y018298D01*
X006533Y018405D02*
X006855Y018405D01*
X006533Y018684D02*
X006533Y019006D01*
X006855Y019006D01*
X006855Y018684D01*
X006533Y018684D01*
X006533Y018791D02*
X006855Y018791D01*
X006855Y018898D02*
X006533Y018898D01*
X006533Y019005D02*
X006855Y019005D01*
X005905Y018034D02*
X005583Y018034D01*
X005583Y018356D01*
X005905Y018356D01*
X005905Y018034D01*
X005905Y018141D02*
X005583Y018141D01*
X005583Y018248D02*
X005905Y018248D01*
X005905Y018355D02*
X005583Y018355D01*
X005305Y018034D02*
X004983Y018034D01*
X004983Y018356D01*
X005305Y018356D01*
X005305Y018034D01*
X005305Y018141D02*
X004983Y018141D01*
X004983Y018248D02*
X005305Y018248D01*
X005305Y018355D02*
X004983Y018355D01*
X004705Y018356D02*
X004383Y018356D01*
X004705Y018356D02*
X004705Y018034D01*
X004383Y018034D01*
X004383Y018356D01*
X004383Y018141D02*
X004705Y018141D01*
X004705Y018248D02*
X004383Y018248D01*
X004383Y018355D02*
X004705Y018355D01*
X004105Y018356D02*
X003783Y018356D01*
X004105Y018356D02*
X004105Y018034D01*
X003783Y018034D01*
X003783Y018356D01*
X003783Y018141D02*
X004105Y018141D01*
X004105Y018248D02*
X003783Y018248D01*
X003783Y018355D02*
X004105Y018355D01*
X002901Y018376D02*
X002579Y018376D01*
X002579Y018698D01*
X002901Y018698D01*
X002901Y018376D01*
X002901Y018483D02*
X002579Y018483D01*
X002579Y018590D02*
X002901Y018590D01*
X002901Y018697D02*
X002579Y018697D01*
X002301Y018376D02*
X001979Y018376D01*
X001979Y018698D01*
X002301Y018698D01*
X002301Y018376D01*
X002301Y018483D02*
X001979Y018483D01*
X001979Y018590D02*
X002301Y018590D01*
X002301Y018697D02*
X001979Y018697D01*
X001983Y018984D02*
X002305Y018984D01*
X001983Y018984D02*
X001983Y019306D01*
X002305Y019306D01*
X002305Y018984D01*
X002305Y019091D02*
X001983Y019091D01*
X001983Y019198D02*
X002305Y019198D01*
X002305Y019305D02*
X001983Y019305D01*
X001981Y019878D02*
X002303Y019878D01*
X002303Y019556D01*
X001981Y019556D01*
X001981Y019878D01*
X001981Y019663D02*
X002303Y019663D01*
X002303Y019770D02*
X001981Y019770D01*
X001981Y019877D02*
X002303Y019877D01*
X002581Y019878D02*
X002903Y019878D01*
X002903Y019556D01*
X002581Y019556D01*
X002581Y019878D01*
X002581Y019663D02*
X002903Y019663D01*
X002903Y019770D02*
X002581Y019770D01*
X002581Y019877D02*
X002903Y019877D01*
X002905Y018984D02*
X002583Y018984D01*
X002583Y019306D01*
X002905Y019306D01*
X002905Y018984D01*
X002905Y019091D02*
X002583Y019091D01*
X002583Y019198D02*
X002905Y019198D01*
X002905Y019305D02*
X002583Y019305D01*
X001655Y018984D02*
X001333Y018984D01*
X001333Y019306D01*
X001655Y019306D01*
X001655Y018984D01*
X001655Y019091D02*
X001333Y019091D01*
X001333Y019198D02*
X001655Y019198D01*
X001655Y019305D02*
X001333Y019305D01*
X001328Y019878D02*
X001650Y019878D01*
X001650Y019556D01*
X001328Y019556D01*
X001328Y019878D01*
X001328Y019663D02*
X001650Y019663D01*
X001650Y019770D02*
X001328Y019770D01*
X001328Y019877D02*
X001650Y019877D01*
X001050Y019878D02*
X000728Y019878D01*
X001050Y019878D02*
X001050Y019556D01*
X000728Y019556D01*
X000728Y019878D01*
X000728Y019663D02*
X001050Y019663D01*
X001050Y019770D02*
X000728Y019770D01*
X000728Y019877D02*
X001050Y019877D01*
X001055Y018984D02*
X000733Y018984D01*
X000733Y019306D01*
X001055Y019306D01*
X001055Y018984D01*
X001055Y019091D02*
X000733Y019091D01*
X000733Y019198D02*
X001055Y019198D01*
X001055Y019305D02*
X000733Y019305D01*
X000733Y018706D02*
X001055Y018706D01*
X001055Y018384D01*
X000733Y018384D01*
X000733Y018706D01*
X000733Y018491D02*
X001055Y018491D01*
X001055Y018598D02*
X000733Y018598D01*
X000733Y018705D02*
X001055Y018705D01*
X001333Y018706D02*
X001655Y018706D01*
X001655Y018384D01*
X001333Y018384D01*
X001333Y018706D01*
X001333Y018491D02*
X001655Y018491D01*
X001655Y018598D02*
X001333Y018598D01*
X001333Y018705D02*
X001655Y018705D01*
X005001Y020497D02*
X005323Y020497D01*
X005323Y020175D01*
X005001Y020175D01*
X005001Y020497D01*
X005001Y020282D02*
X005323Y020282D01*
X005323Y020389D02*
X005001Y020389D01*
X005001Y020496D02*
X005323Y020496D01*
X005601Y020497D02*
X005923Y020497D01*
X005923Y020175D01*
X005601Y020175D01*
X005601Y020497D01*
X005601Y020282D02*
X005923Y020282D01*
X005923Y020389D02*
X005601Y020389D01*
X005601Y020496D02*
X005923Y020496D01*
X005923Y021285D02*
X005601Y021285D01*
X005923Y021285D02*
X005923Y020963D01*
X005601Y020963D01*
X005601Y021285D01*
X005601Y021070D02*
X005923Y021070D01*
X005923Y021177D02*
X005601Y021177D01*
X005601Y021284D02*
X005923Y021284D01*
X005923Y022072D02*
X005601Y022072D01*
X005923Y022072D02*
X005923Y021750D01*
X005601Y021750D01*
X005601Y022072D01*
X005601Y021857D02*
X005923Y021857D01*
X005923Y021964D02*
X005601Y021964D01*
X005601Y022071D02*
X005923Y022071D01*
X005923Y022537D02*
X005601Y022537D01*
X005601Y022859D01*
X005923Y022859D01*
X005923Y022537D01*
X005923Y022644D02*
X005601Y022644D01*
X005601Y022751D02*
X005923Y022751D01*
X005923Y022858D02*
X005601Y022858D01*
X005323Y022537D02*
X005001Y022537D01*
X005001Y022859D01*
X005323Y022859D01*
X005323Y022537D01*
X005323Y022644D02*
X005001Y022644D01*
X005001Y022751D02*
X005323Y022751D01*
X005323Y022858D02*
X005001Y022858D01*
X005001Y023325D02*
X005323Y023325D01*
X005001Y023325D02*
X005001Y023647D01*
X005323Y023647D01*
X005323Y023325D01*
X005323Y023432D02*
X005001Y023432D01*
X005001Y023539D02*
X005323Y023539D01*
X005323Y023646D02*
X005001Y023646D01*
X005601Y023325D02*
X005923Y023325D01*
X005601Y023325D02*
X005601Y023647D01*
X005923Y023647D01*
X005923Y023325D01*
X005923Y023432D02*
X005601Y023432D01*
X005601Y023539D02*
X005923Y023539D01*
X005923Y023646D02*
X005601Y023646D01*
X005323Y022072D02*
X005001Y022072D01*
X005323Y022072D02*
X005323Y021750D01*
X005001Y021750D01*
X005001Y022072D01*
X005001Y021857D02*
X005323Y021857D01*
X005323Y021964D02*
X005001Y021964D01*
X005001Y022071D02*
X005323Y022071D01*
X005323Y021285D02*
X005001Y021285D01*
X005323Y021285D02*
X005323Y020963D01*
X005001Y020963D01*
X005001Y021285D01*
X005001Y021070D02*
X005323Y021070D01*
X005323Y021177D02*
X005001Y021177D01*
X005001Y021284D02*
X005323Y021284D01*
X010042Y016228D02*
X010364Y016228D01*
X010042Y016228D02*
X010042Y016550D01*
X010364Y016550D01*
X010364Y016228D01*
X010364Y016335D02*
X010042Y016335D01*
X010042Y016442D02*
X010364Y016442D01*
X010364Y016549D02*
X010042Y016549D01*
X010033Y015956D02*
X010355Y015956D01*
X010355Y015634D01*
X010033Y015634D01*
X010033Y015956D01*
X010033Y015741D02*
X010355Y015741D01*
X010355Y015848D02*
X010033Y015848D01*
X010033Y015955D02*
X010355Y015955D01*
X010361Y015349D02*
X010039Y015349D01*
X010361Y015349D02*
X010361Y015027D01*
X010039Y015027D01*
X010039Y015349D01*
X010039Y015134D02*
X010361Y015134D01*
X010361Y015241D02*
X010039Y015241D01*
X010039Y015348D02*
X010361Y015348D01*
X010361Y014433D02*
X010039Y014433D01*
X010039Y014755D01*
X010361Y014755D01*
X010361Y014433D01*
X010361Y014540D02*
X010039Y014540D01*
X010039Y014647D02*
X010361Y014647D01*
X010361Y014754D02*
X010039Y014754D01*
X004533Y014856D02*
X004533Y014534D01*
X004533Y014856D02*
X004855Y014856D01*
X004855Y014534D01*
X004533Y014534D01*
X004533Y014641D02*
X004855Y014641D01*
X004855Y014748D02*
X004533Y014748D01*
X004533Y014855D02*
X004855Y014855D01*
X004533Y014256D02*
X004533Y013934D01*
X004533Y014256D02*
X004855Y014256D01*
X004855Y013934D01*
X004533Y013934D01*
X004533Y014041D02*
X004855Y014041D01*
X004855Y014148D02*
X004533Y014148D01*
X004533Y014255D02*
X004855Y014255D01*
X009407Y005603D02*
X009729Y005603D01*
X009729Y005281D01*
X009407Y005281D01*
X009407Y005603D01*
X009407Y005388D02*
X009729Y005388D01*
X009729Y005495D02*
X009407Y005495D01*
X009407Y005602D02*
X009729Y005602D01*
X010007Y005603D02*
X010329Y005603D01*
X010329Y005281D01*
X010007Y005281D01*
X010007Y005603D01*
X010007Y005388D02*
X010329Y005388D01*
X010329Y005495D02*
X010007Y005495D01*
X010007Y005602D02*
X010329Y005602D01*
X010323Y004700D02*
X010001Y004700D01*
X010001Y005022D01*
X010323Y005022D01*
X010323Y004700D01*
X010323Y004807D02*
X010001Y004807D01*
X010001Y004914D02*
X010323Y004914D01*
X010323Y005021D02*
X010001Y005021D01*
X009723Y004700D02*
X009401Y004700D01*
X009401Y005022D01*
X009723Y005022D01*
X009723Y004700D01*
X009723Y004807D02*
X009401Y004807D01*
X009401Y004914D02*
X009723Y004914D01*
X009723Y005021D02*
X009401Y005021D01*
X009401Y004112D02*
X009723Y004112D01*
X009401Y004112D02*
X009401Y004434D01*
X009723Y004434D01*
X009723Y004112D01*
X009723Y004219D02*
X009401Y004219D01*
X009401Y004326D02*
X009723Y004326D01*
X009723Y004433D02*
X009401Y004433D01*
X009394Y003511D02*
X009716Y003511D01*
X009394Y003511D02*
X009394Y003833D01*
X009716Y003833D01*
X009716Y003511D01*
X009716Y003618D02*
X009394Y003618D01*
X009394Y003725D02*
X009716Y003725D01*
X009716Y003832D02*
X009394Y003832D01*
X009994Y003511D02*
X010316Y003511D01*
X009994Y003511D02*
X009994Y003833D01*
X010316Y003833D01*
X010316Y003511D01*
X010316Y003618D02*
X009994Y003618D01*
X009994Y003725D02*
X010316Y003725D01*
X010316Y003832D02*
X009994Y003832D01*
X010001Y004112D02*
X010323Y004112D01*
X010001Y004112D02*
X010001Y004434D01*
X010323Y004434D01*
X010323Y004112D01*
X010323Y004219D02*
X010001Y004219D01*
X010001Y004326D02*
X010323Y004326D01*
X010323Y004433D02*
X010001Y004433D01*
X022205Y005034D02*
X022205Y005356D01*
X022205Y005034D02*
X021883Y005034D01*
X021883Y005356D01*
X022205Y005356D01*
X022205Y005141D02*
X021883Y005141D01*
X021883Y005248D02*
X022205Y005248D01*
X022205Y005355D02*
X021883Y005355D01*
X022205Y005634D02*
X022205Y005956D01*
X022205Y005634D02*
X021883Y005634D01*
X021883Y005956D01*
X022205Y005956D01*
X022205Y005741D02*
X021883Y005741D01*
X021883Y005848D02*
X022205Y005848D01*
X022205Y005955D02*
X021883Y005955D01*
X022805Y005956D02*
X022805Y005634D01*
X022483Y005634D01*
X022483Y005956D01*
X022805Y005956D01*
X022805Y005741D02*
X022483Y005741D01*
X022483Y005848D02*
X022805Y005848D01*
X022805Y005955D02*
X022483Y005955D01*
X022805Y005356D02*
X022805Y005034D01*
X022483Y005034D01*
X022483Y005356D01*
X022805Y005356D01*
X022805Y005141D02*
X022483Y005141D01*
X022483Y005248D02*
X022805Y005248D01*
X022805Y005355D02*
X022483Y005355D01*
X022354Y019360D02*
X022676Y019360D01*
X022354Y019360D02*
X022354Y019682D01*
X022676Y019682D01*
X022676Y019360D01*
X022676Y019467D02*
X022354Y019467D01*
X022354Y019574D02*
X022676Y019574D01*
X022676Y019681D02*
X022354Y019681D01*
X022076Y019360D02*
X021754Y019360D01*
X021754Y019682D01*
X022076Y019682D01*
X022076Y019360D01*
X022076Y019467D02*
X021754Y019467D01*
X021754Y019574D02*
X022076Y019574D01*
X022076Y019681D02*
X021754Y019681D01*
X021762Y019972D02*
X022084Y019972D01*
X021762Y019972D02*
X021762Y020294D01*
X022084Y020294D01*
X022084Y019972D01*
X022084Y020079D02*
X021762Y020079D01*
X021762Y020186D02*
X022084Y020186D01*
X022084Y020293D02*
X021762Y020293D01*
X022362Y019972D02*
X022684Y019972D01*
X022362Y019972D02*
X022362Y020294D01*
X022684Y020294D01*
X022684Y019972D01*
X022684Y020079D02*
X022362Y020079D01*
X022362Y020186D02*
X022684Y020186D01*
X022684Y020293D02*
X022362Y020293D01*
X020563Y021975D02*
X020241Y021975D01*
X020563Y021975D02*
X020563Y021653D01*
X020241Y021653D01*
X020241Y021975D01*
X020241Y021760D02*
X020563Y021760D01*
X020563Y021867D02*
X020241Y021867D01*
X020241Y021974D02*
X020563Y021974D01*
X019963Y021975D02*
X019641Y021975D01*
X019963Y021975D02*
X019963Y021653D01*
X019641Y021653D01*
X019641Y021975D01*
X019641Y021760D02*
X019963Y021760D01*
X019963Y021867D02*
X019641Y021867D01*
X019641Y021974D02*
X019963Y021974D01*
X018453Y020696D02*
X018453Y020374D01*
X018131Y020374D01*
X018131Y020696D01*
X018453Y020696D01*
X018453Y020481D02*
X018131Y020481D01*
X018131Y020588D02*
X018453Y020588D01*
X018453Y020695D02*
X018131Y020695D01*
X018453Y020096D02*
X018453Y019774D01*
X018131Y019774D01*
X018131Y020096D01*
X018453Y020096D01*
X018453Y019881D02*
X018131Y019881D01*
X018131Y019988D02*
X018453Y019988D01*
X018453Y020095D02*
X018131Y020095D01*
D14*
X007038Y002211D03*
X006014Y002195D03*
X005050Y002211D03*
D15*
X005081Y012152D03*
X006042Y012160D03*
X006971Y012160D03*
D16*
X019080Y019594D03*
X019080Y020094D03*
X019080Y020594D03*
X019080Y021094D03*
X021180Y021094D03*
X021180Y020594D03*
X021180Y020094D03*
X021180Y019594D03*
D17*
X022414Y015593D03*
D18*
X019914Y015593D03*
D19*
X017649Y014525D02*
X017649Y014165D01*
X017139Y014165D01*
X017139Y014525D01*
X017649Y014525D01*
X017649Y014284D02*
X017139Y014284D01*
X017139Y014403D02*
X017649Y014403D01*
X017649Y014522D02*
X017139Y014522D01*
X017649Y013825D02*
X017649Y013465D01*
X017139Y013465D01*
X017139Y013825D01*
X017649Y013825D01*
X017649Y013584D02*
X017139Y013584D01*
X017139Y013703D02*
X017649Y013703D01*
X017649Y013822D02*
X017139Y013822D01*
X015999Y013825D02*
X015999Y013465D01*
X015489Y013465D01*
X015489Y013825D01*
X015999Y013825D01*
X015999Y013584D02*
X015489Y013584D01*
X015489Y013703D02*
X015999Y013703D01*
X015999Y013822D02*
X015489Y013822D01*
X015999Y014165D02*
X015999Y014525D01*
X015999Y014165D02*
X015489Y014165D01*
X015489Y014525D01*
X015999Y014525D01*
X015999Y014284D02*
X015489Y014284D01*
X015489Y014403D02*
X015999Y014403D01*
X015999Y014522D02*
X015489Y014522D01*
X022853Y014463D02*
X022853Y014103D01*
X022343Y014103D01*
X022343Y014463D01*
X022853Y014463D01*
X022853Y014222D02*
X022343Y014222D01*
X022343Y014341D02*
X022853Y014341D01*
X022853Y014460D02*
X022343Y014460D01*
X022853Y013763D02*
X022853Y013403D01*
X022343Y013403D01*
X022343Y013763D01*
X022853Y013763D01*
X022853Y013522D02*
X022343Y013522D01*
X022343Y013641D02*
X022853Y013641D01*
X022853Y013760D02*
X022343Y013760D01*
X021599Y005975D02*
X021599Y005615D01*
X021089Y005615D01*
X021089Y005975D01*
X021599Y005975D01*
X021599Y005734D02*
X021089Y005734D01*
X021089Y005853D02*
X021599Y005853D01*
X021599Y005972D02*
X021089Y005972D01*
X021599Y005275D02*
X021599Y004915D01*
X021089Y004915D01*
X021089Y005275D01*
X021599Y005275D01*
X021599Y005034D02*
X021089Y005034D01*
X021089Y005153D02*
X021599Y005153D01*
X021599Y005272D02*
X021089Y005272D01*
X018878Y021532D02*
X018518Y021532D01*
X018518Y022042D01*
X018878Y022042D01*
X018878Y021532D01*
X018878Y021651D02*
X018518Y021651D01*
X018518Y021770D02*
X018878Y021770D01*
X018878Y021889D02*
X018518Y021889D01*
X018518Y022008D02*
X018878Y022008D01*
X018178Y021532D02*
X017818Y021532D01*
X017818Y022042D01*
X018178Y022042D01*
X018178Y021532D01*
X018178Y021651D02*
X017818Y021651D01*
X017818Y021770D02*
X018178Y021770D01*
X018178Y021889D02*
X017818Y021889D01*
X017818Y022008D02*
X018178Y022008D01*
D20*
X020175Y017842D03*
X022419Y017842D03*
D21*
X018482Y018401D03*
X018482Y016661D03*
D22*
X021517Y008090D02*
X022307Y008090D01*
X021517Y008090D02*
X021517Y008280D01*
X022307Y008280D01*
X022307Y008090D01*
X022307Y008279D02*
X021517Y008279D01*
X021517Y006990D02*
X022307Y006990D01*
X021517Y006990D02*
X021517Y007180D01*
X022307Y007180D01*
X022307Y006990D01*
X022307Y007179D02*
X021517Y007179D01*
D23*
X021432Y007755D02*
X021192Y007755D01*
X021432Y007755D02*
X021432Y007515D01*
X021192Y007515D01*
X021192Y007755D01*
X021192Y007754D02*
X021432Y007754D01*
X022392Y007755D02*
X022632Y007755D01*
X022632Y007515D01*
X022392Y007515D01*
X022392Y007755D01*
X022392Y007754D02*
X022632Y007754D01*
D24*
X008238Y014215D03*
X007923Y014215D03*
X007608Y014215D03*
X007293Y014215D03*
X006978Y014215D03*
X006663Y014215D03*
X006348Y014215D03*
X006033Y014215D03*
X006033Y017595D03*
X006348Y017595D03*
X006663Y017595D03*
X006978Y017595D03*
X007293Y017595D03*
X007608Y017595D03*
X007923Y017595D03*
X008238Y017595D03*
D25*
X008826Y017007D03*
X008826Y016692D03*
X008826Y016377D03*
X008826Y016062D03*
X008826Y015747D03*
X008826Y015432D03*
X008826Y015117D03*
X008826Y014802D03*
X005446Y014802D03*
X005446Y015117D03*
X005446Y015432D03*
X005446Y015747D03*
X005446Y016062D03*
X005446Y016377D03*
X005446Y016692D03*
X005446Y017007D03*
D26*
X002979Y016347D03*
X001979Y016347D03*
X001879Y015347D03*
X002879Y015347D03*
X002879Y017347D03*
X001879Y017347D03*
D27*
X013677Y016926D03*
X013677Y019426D03*
D28*
X011959Y023182D03*
X007427Y023182D03*
D29*
X007597Y020701D03*
X007203Y020701D03*
X015891Y020701D03*
X016284Y020701D03*
D30*
X015480Y018776D03*
D31*
X016466Y018769D03*
D32*
X016230Y017155D03*
D33*
X015302Y023045D03*
X013569Y023045D03*
X017287Y023047D03*
X019019Y023047D03*
D34*
X010604Y013889D03*
X010604Y013141D03*
X009580Y013141D03*
X009580Y013515D03*
X009580Y013889D03*
D35*
X001268Y012620D03*
X001168Y011620D03*
X001268Y010620D03*
X001168Y009620D03*
X001268Y008620D03*
X001168Y007620D03*
D36*
X008644Y018795D03*
X009344Y018795D03*
X008994Y019595D03*
X002794Y020345D03*
X002094Y020345D03*
X001544Y020345D03*
X000844Y020345D03*
X001194Y021145D03*
X002444Y021145D03*
X016144Y014995D03*
X016844Y014995D03*
X016494Y015795D03*
D37*
X009794Y008645D03*
X009794Y007645D03*
X003994Y013995D03*
X003994Y014995D03*
D38*
X004051Y020168D02*
X004337Y020168D01*
X004051Y020168D02*
X004051Y020504D01*
X004337Y020504D01*
X004337Y020168D01*
X004337Y020262D02*
X004051Y020262D01*
X004051Y020356D02*
X004337Y020356D01*
X004337Y020450D02*
X004051Y020450D01*
X003737Y020168D02*
X003451Y020168D01*
X003451Y020504D01*
X003737Y020504D01*
X003737Y020168D01*
X003737Y020262D02*
X003451Y020262D01*
X003451Y020356D02*
X003737Y020356D01*
X003737Y020450D02*
X003451Y020450D01*
X003451Y020956D02*
X003737Y020956D01*
X003451Y020956D02*
X003451Y021292D01*
X003737Y021292D01*
X003737Y020956D01*
X003737Y021050D02*
X003451Y021050D01*
X003451Y021144D02*
X003737Y021144D01*
X003737Y021238D02*
X003451Y021238D01*
X003451Y021743D02*
X003737Y021743D01*
X003451Y021743D02*
X003451Y022079D01*
X003737Y022079D01*
X003737Y021743D01*
X003737Y021837D02*
X003451Y021837D01*
X003451Y021931D02*
X003737Y021931D01*
X003737Y022025D02*
X003451Y022025D01*
X003451Y022530D02*
X003737Y022530D01*
X003451Y022530D02*
X003451Y022866D01*
X003737Y022866D01*
X003737Y022530D01*
X003737Y022624D02*
X003451Y022624D01*
X003451Y022718D02*
X003737Y022718D01*
X003737Y022812D02*
X003451Y022812D01*
X003451Y023318D02*
X003737Y023318D01*
X003451Y023318D02*
X003451Y023654D01*
X003737Y023654D01*
X003737Y023318D01*
X003737Y023412D02*
X003451Y023412D01*
X003451Y023506D02*
X003737Y023506D01*
X003737Y023600D02*
X003451Y023600D01*
X004051Y023318D02*
X004337Y023318D01*
X004051Y023318D02*
X004051Y023654D01*
X004337Y023654D01*
X004337Y023318D01*
X004337Y023412D02*
X004051Y023412D01*
X004051Y023506D02*
X004337Y023506D01*
X004337Y023600D02*
X004051Y023600D01*
X004051Y022530D02*
X004337Y022530D01*
X004051Y022530D02*
X004051Y022866D01*
X004337Y022866D01*
X004337Y022530D01*
X004337Y022624D02*
X004051Y022624D01*
X004051Y022718D02*
X004337Y022718D01*
X004337Y022812D02*
X004051Y022812D01*
X004051Y021743D02*
X004337Y021743D01*
X004051Y021743D02*
X004051Y022079D01*
X004337Y022079D01*
X004337Y021743D01*
X004337Y021837D02*
X004051Y021837D01*
X004051Y021931D02*
X004337Y021931D01*
X004337Y022025D02*
X004051Y022025D01*
X004051Y020956D02*
X004337Y020956D01*
X004051Y020956D02*
X004051Y021292D01*
X004337Y021292D01*
X004337Y020956D01*
X004337Y021050D02*
X004051Y021050D01*
X004051Y021144D02*
X004337Y021144D01*
X004337Y021238D02*
X004051Y021238D01*
D39*
X011394Y021545D03*
X013378Y021545D03*
D40*
X005694Y019195D03*
X003994Y019195D03*
M02*
